<?xml version="1.0" encoding="utf-8" standalone="no"?>
<!DOCTYPE svg PUBLIC "-//W3C//DTD SVG 1.1//EN"
  "http://www.w3.org/Graphics/SVG/1.1/DTD/svg11.dtd">
<!-- Created with matplotlib (https://matplotlib.org/) -->
<svg height="668.16pt" version="1.1" viewBox="0 0 1382.4 668.16" width="1382.4pt" xmlns="http://www.w3.org/2000/svg" xmlns:xlink="http://www.w3.org/1999/xlink">
 <defs>
  <style type="text/css">
*{stroke-linecap:butt;stroke-linejoin:round;}
  </style>
 </defs>
 <g id="figure_1">
  <g id="patch_1">
   <path d="M 0 668.16 
L 1382.4 668.16 
L 1382.4 0 
L 0 0 
z
" style="fill:#ffffff;"/>
  </g>
  <g id="axes_1">
   <g id="patch_2">
    <path d="M 172.8 594.6624 
L 1244.16 594.6624 
L 1244.16 80.1792 
L 172.8 80.1792 
z
" style="fill:#ffffff;"/>
   </g>
   <g id="matplotlib.axis_1">
    <g id="xtick_1">
     <g id="line2d_1">
      <defs>
       <path d="M 0 0 
L 0 3.5 
" id="m1f272f9557" style="stroke:#000000;stroke-width:0.8;"/>
      </defs>
      <g>
       <use style="stroke:#000000;stroke-width:0.8;" x="183.394238" xlink:href="#m1f272f9557" y="594.6624"/>
      </g>
     </g>
     <g id="text_1">
      <!-- 2013-01 -->
      <defs>
       <path d="M 19.1875 8.296875 
L 53.609375 8.296875 
L 53.609375 0 
L 7.328125 0 
L 7.328125 8.296875 
Q 12.9375 14.109375 22.625 23.890625 
Q 32.328125 33.6875 34.8125 36.53125 
Q 39.546875 41.84375 41.421875 45.53125 
Q 43.3125 49.21875 43.3125 52.78125 
Q 43.3125 58.59375 39.234375 62.25 
Q 35.15625 65.921875 28.609375 65.921875 
Q 23.96875 65.921875 18.8125 64.3125 
Q 13.671875 62.703125 7.8125 59.421875 
L 7.8125 69.390625 
Q 13.765625 71.78125 18.9375 73 
Q 24.125 74.21875 28.421875 74.21875 
Q 39.75 74.21875 46.484375 68.546875 
Q 53.21875 62.890625 53.21875 53.421875 
Q 53.21875 48.921875 51.53125 44.890625 
Q 49.859375 40.875 45.40625 35.40625 
Q 44.1875 33.984375 37.640625 27.21875 
Q 31.109375 20.453125 19.1875 8.296875 
z
" id="DejaVuSans-50"/>
       <path d="M 31.78125 66.40625 
Q 24.171875 66.40625 20.328125 58.90625 
Q 16.5 51.421875 16.5 36.375 
Q 16.5 21.390625 20.328125 13.890625 
Q 24.171875 6.390625 31.78125 6.390625 
Q 39.453125 6.390625 43.28125 13.890625 
Q 47.125 21.390625 47.125 36.375 
Q 47.125 51.421875 43.28125 58.90625 
Q 39.453125 66.40625 31.78125 66.40625 
z
M 31.78125 74.21875 
Q 44.046875 74.21875 50.515625 64.515625 
Q 56.984375 54.828125 56.984375 36.375 
Q 56.984375 17.96875 50.515625 8.265625 
Q 44.046875 -1.421875 31.78125 -1.421875 
Q 19.53125 -1.421875 13.0625 8.265625 
Q 6.59375 17.96875 6.59375 36.375 
Q 6.59375 54.828125 13.0625 64.515625 
Q 19.53125 74.21875 31.78125 74.21875 
z
" id="DejaVuSans-48"/>
       <path d="M 12.40625 8.296875 
L 28.515625 8.296875 
L 28.515625 63.921875 
L 10.984375 60.40625 
L 10.984375 69.390625 
L 28.421875 72.90625 
L 38.28125 72.90625 
L 38.28125 8.296875 
L 54.390625 8.296875 
L 54.390625 0 
L 12.40625 0 
z
" id="DejaVuSans-49"/>
       <path d="M 40.578125 39.3125 
Q 47.65625 37.796875 51.625 33 
Q 55.609375 28.21875 55.609375 21.1875 
Q 55.609375 10.40625 48.1875 4.484375 
Q 40.765625 -1.421875 27.09375 -1.421875 
Q 22.515625 -1.421875 17.65625 -0.515625 
Q 12.796875 0.390625 7.625 2.203125 
L 7.625 11.71875 
Q 11.71875 9.328125 16.59375 8.109375 
Q 21.484375 6.890625 26.8125 6.890625 
Q 36.078125 6.890625 40.9375 10.546875 
Q 45.796875 14.203125 45.796875 21.1875 
Q 45.796875 27.640625 41.28125 31.265625 
Q 36.765625 34.90625 28.71875 34.90625 
L 20.21875 34.90625 
L 20.21875 43.015625 
L 29.109375 43.015625 
Q 36.375 43.015625 40.234375 45.921875 
Q 44.09375 48.828125 44.09375 54.296875 
Q 44.09375 59.90625 40.109375 62.90625 
Q 36.140625 65.921875 28.71875 65.921875 
Q 24.65625 65.921875 20.015625 65.03125 
Q 15.375 64.15625 9.8125 62.3125 
L 9.8125 71.09375 
Q 15.4375 72.65625 20.34375 73.4375 
Q 25.25 74.21875 29.59375 74.21875 
Q 40.828125 74.21875 47.359375 69.109375 
Q 53.90625 64.015625 53.90625 55.328125 
Q 53.90625 49.265625 50.4375 45.09375 
Q 46.96875 40.921875 40.578125 39.3125 
z
" id="DejaVuSans-51"/>
       <path d="M 4.890625 31.390625 
L 31.203125 31.390625 
L 31.203125 23.390625 
L 4.890625 23.390625 
z
" id="DejaVuSans-45"/>
      </defs>
      <g transform="translate(162.502832 609.260837)scale(0.1 -0.1)">
       <use xlink:href="#DejaVuSans-50"/>
       <use x="63.623047" xlink:href="#DejaVuSans-48"/>
       <use x="127.246094" xlink:href="#DejaVuSans-49"/>
       <use x="190.869141" xlink:href="#DejaVuSans-51"/>
       <use x="254.492188" xlink:href="#DejaVuSans-45"/>
       <use x="290.576172" xlink:href="#DejaVuSans-48"/>
       <use x="354.199219" xlink:href="#DejaVuSans-49"/>
      </g>
     </g>
    </g>
    <g id="xtick_2">
     <g id="line2d_2">
      <g>
       <use style="stroke:#000000;stroke-width:0.8;" x="313.683051" xlink:href="#m1f272f9557" y="594.6624"/>
      </g>
     </g>
     <g id="text_2">
      <!-- 2013-07 -->
      <defs>
       <path d="M 8.203125 72.90625 
L 55.078125 72.90625 
L 55.078125 68.703125 
L 28.609375 0 
L 18.3125 0 
L 43.21875 64.59375 
L 8.203125 64.59375 
z
" id="DejaVuSans-55"/>
      </defs>
      <g transform="translate(292.791645 609.260837)scale(0.1 -0.1)">
       <use xlink:href="#DejaVuSans-50"/>
       <use x="63.623047" xlink:href="#DejaVuSans-48"/>
       <use x="127.246094" xlink:href="#DejaVuSans-49"/>
       <use x="190.869141" xlink:href="#DejaVuSans-51"/>
       <use x="254.492188" xlink:href="#DejaVuSans-45"/>
       <use x="290.576172" xlink:href="#DejaVuSans-48"/>
       <use x="354.199219" xlink:href="#DejaVuSans-55"/>
      </g>
     </g>
    </g>
    <g id="xtick_3">
     <g id="line2d_3">
      <g>
       <use style="stroke:#000000;stroke-width:0.8;" x="446.131347" xlink:href="#m1f272f9557" y="594.6624"/>
      </g>
     </g>
     <g id="text_3">
      <!-- 2014-01 -->
      <defs>
       <path d="M 37.796875 64.3125 
L 12.890625 25.390625 
L 37.796875 25.390625 
z
M 35.203125 72.90625 
L 47.609375 72.90625 
L 47.609375 25.390625 
L 58.015625 25.390625 
L 58.015625 17.1875 
L 47.609375 17.1875 
L 47.609375 0 
L 37.796875 0 
L 37.796875 17.1875 
L 4.890625 17.1875 
L 4.890625 26.703125 
z
" id="DejaVuSans-52"/>
      </defs>
      <g transform="translate(425.239941 609.260837)scale(0.1 -0.1)">
       <use xlink:href="#DejaVuSans-50"/>
       <use x="63.623047" xlink:href="#DejaVuSans-48"/>
       <use x="127.246094" xlink:href="#DejaVuSans-49"/>
       <use x="190.869141" xlink:href="#DejaVuSans-52"/>
       <use x="254.492188" xlink:href="#DejaVuSans-45"/>
       <use x="290.576172" xlink:href="#DejaVuSans-48"/>
       <use x="354.199219" xlink:href="#DejaVuSans-49"/>
      </g>
     </g>
    </g>
    <g id="xtick_4">
     <g id="line2d_4">
      <g>
       <use style="stroke:#000000;stroke-width:0.8;" x="576.42016" xlink:href="#m1f272f9557" y="594.6624"/>
      </g>
     </g>
     <g id="text_4">
      <!-- 2014-07 -->
      <g transform="translate(555.528753 609.260837)scale(0.1 -0.1)">
       <use xlink:href="#DejaVuSans-50"/>
       <use x="63.623047" xlink:href="#DejaVuSans-48"/>
       <use x="127.246094" xlink:href="#DejaVuSans-49"/>
       <use x="190.869141" xlink:href="#DejaVuSans-52"/>
       <use x="254.492188" xlink:href="#DejaVuSans-45"/>
       <use x="290.576172" xlink:href="#DejaVuSans-48"/>
       <use x="354.199219" xlink:href="#DejaVuSans-55"/>
      </g>
     </g>
    </g>
    <g id="xtick_5">
     <g id="line2d_5">
      <g>
       <use style="stroke:#000000;stroke-width:0.8;" x="708.868455" xlink:href="#m1f272f9557" y="594.6624"/>
      </g>
     </g>
     <g id="text_5">
      <!-- 2015-01 -->
      <defs>
       <path d="M 10.796875 72.90625 
L 49.515625 72.90625 
L 49.515625 64.59375 
L 19.828125 64.59375 
L 19.828125 46.734375 
Q 21.96875 47.46875 24.109375 47.828125 
Q 26.265625 48.1875 28.421875 48.1875 
Q 40.625 48.1875 47.75 41.5 
Q 54.890625 34.8125 54.890625 23.390625 
Q 54.890625 11.625 47.5625 5.09375 
Q 40.234375 -1.421875 26.90625 -1.421875 
Q 22.3125 -1.421875 17.546875 -0.640625 
Q 12.796875 0.140625 7.71875 1.703125 
L 7.71875 11.625 
Q 12.109375 9.234375 16.796875 8.0625 
Q 21.484375 6.890625 26.703125 6.890625 
Q 35.15625 6.890625 40.078125 11.328125 
Q 45.015625 15.765625 45.015625 23.390625 
Q 45.015625 31 40.078125 35.4375 
Q 35.15625 39.890625 26.703125 39.890625 
Q 22.75 39.890625 18.8125 39.015625 
Q 14.890625 38.140625 10.796875 36.28125 
z
" id="DejaVuSans-53"/>
      </defs>
      <g transform="translate(687.977049 609.260837)scale(0.1 -0.1)">
       <use xlink:href="#DejaVuSans-50"/>
       <use x="63.623047" xlink:href="#DejaVuSans-48"/>
       <use x="127.246094" xlink:href="#DejaVuSans-49"/>
       <use x="190.869141" xlink:href="#DejaVuSans-53"/>
       <use x="254.492188" xlink:href="#DejaVuSans-45"/>
       <use x="290.576172" xlink:href="#DejaVuSans-48"/>
       <use x="354.199219" xlink:href="#DejaVuSans-49"/>
      </g>
     </g>
    </g>
    <g id="xtick_6">
     <g id="line2d_6">
      <g>
       <use style="stroke:#000000;stroke-width:0.8;" x="839.157268" xlink:href="#m1f272f9557" y="594.6624"/>
      </g>
     </g>
     <g id="text_6">
      <!-- 2015-07 -->
      <g transform="translate(818.265862 609.260837)scale(0.1 -0.1)">
       <use xlink:href="#DejaVuSans-50"/>
       <use x="63.623047" xlink:href="#DejaVuSans-48"/>
       <use x="127.246094" xlink:href="#DejaVuSans-49"/>
       <use x="190.869141" xlink:href="#DejaVuSans-53"/>
       <use x="254.492188" xlink:href="#DejaVuSans-45"/>
       <use x="290.576172" xlink:href="#DejaVuSans-48"/>
       <use x="354.199219" xlink:href="#DejaVuSans-55"/>
      </g>
     </g>
    </g>
    <g id="xtick_7">
     <g id="line2d_7">
      <g>
       <use style="stroke:#000000;stroke-width:0.8;" x="971.605564" xlink:href="#m1f272f9557" y="594.6624"/>
      </g>
     </g>
     <g id="text_7">
      <!-- 2016-01 -->
      <defs>
       <path d="M 33.015625 40.375 
Q 26.375 40.375 22.484375 35.828125 
Q 18.609375 31.296875 18.609375 23.390625 
Q 18.609375 15.53125 22.484375 10.953125 
Q 26.375 6.390625 33.015625 6.390625 
Q 39.65625 6.390625 43.53125 10.953125 
Q 47.40625 15.53125 47.40625 23.390625 
Q 47.40625 31.296875 43.53125 35.828125 
Q 39.65625 40.375 33.015625 40.375 
z
M 52.59375 71.296875 
L 52.59375 62.3125 
Q 48.875 64.0625 45.09375 64.984375 
Q 41.3125 65.921875 37.59375 65.921875 
Q 27.828125 65.921875 22.671875 59.328125 
Q 17.53125 52.734375 16.796875 39.40625 
Q 19.671875 43.65625 24.015625 45.921875 
Q 28.375 48.1875 33.59375 48.1875 
Q 44.578125 48.1875 50.953125 41.515625 
Q 57.328125 34.859375 57.328125 23.390625 
Q 57.328125 12.15625 50.6875 5.359375 
Q 44.046875 -1.421875 33.015625 -1.421875 
Q 20.359375 -1.421875 13.671875 8.265625 
Q 6.984375 17.96875 6.984375 36.375 
Q 6.984375 53.65625 15.1875 63.9375 
Q 23.390625 74.21875 37.203125 74.21875 
Q 40.921875 74.21875 44.703125 73.484375 
Q 48.484375 72.75 52.59375 71.296875 
z
" id="DejaVuSans-54"/>
      </defs>
      <g transform="translate(950.714158 609.260837)scale(0.1 -0.1)">
       <use xlink:href="#DejaVuSans-50"/>
       <use x="63.623047" xlink:href="#DejaVuSans-48"/>
       <use x="127.246094" xlink:href="#DejaVuSans-49"/>
       <use x="190.869141" xlink:href="#DejaVuSans-54"/>
       <use x="254.492188" xlink:href="#DejaVuSans-45"/>
       <use x="290.576172" xlink:href="#DejaVuSans-48"/>
       <use x="354.199219" xlink:href="#DejaVuSans-49"/>
      </g>
     </g>
    </g>
    <g id="xtick_8">
     <g id="line2d_8">
      <g>
       <use style="stroke:#000000;stroke-width:0.8;" x="1102.614204" xlink:href="#m1f272f9557" y="594.6624"/>
      </g>
     </g>
     <g id="text_8">
      <!-- 2016-07 -->
      <g transform="translate(1081.722798 609.260837)scale(0.1 -0.1)">
       <use xlink:href="#DejaVuSans-50"/>
       <use x="63.623047" xlink:href="#DejaVuSans-48"/>
       <use x="127.246094" xlink:href="#DejaVuSans-49"/>
       <use x="190.869141" xlink:href="#DejaVuSans-54"/>
       <use x="254.492188" xlink:href="#DejaVuSans-45"/>
       <use x="290.576172" xlink:href="#DejaVuSans-48"/>
       <use x="354.199219" xlink:href="#DejaVuSans-55"/>
      </g>
     </g>
    </g>
    <g id="xtick_9">
     <g id="line2d_9">
      <g>
       <use style="stroke:#000000;stroke-width:0.8;" x="1235.0625" xlink:href="#m1f272f9557" y="594.6624"/>
      </g>
     </g>
     <g id="text_9">
      <!-- 2017-01 -->
      <g transform="translate(1214.171094 609.260837)scale(0.1 -0.1)">
       <use xlink:href="#DejaVuSans-50"/>
       <use x="63.623047" xlink:href="#DejaVuSans-48"/>
       <use x="127.246094" xlink:href="#DejaVuSans-49"/>
       <use x="190.869141" xlink:href="#DejaVuSans-55"/>
       <use x="254.492188" xlink:href="#DejaVuSans-45"/>
       <use x="290.576172" xlink:href="#DejaVuSans-48"/>
       <use x="354.199219" xlink:href="#DejaVuSans-49"/>
      </g>
     </g>
    </g>
    <g id="text_10">
     <!-- data -->
     <defs>
      <path d="M 45.40625 46.390625 
L 45.40625 75.984375 
L 54.390625 75.984375 
L 54.390625 0 
L 45.40625 0 
L 45.40625 8.203125 
Q 42.578125 3.328125 38.25 0.953125 
Q 33.9375 -1.421875 27.875 -1.421875 
Q 17.96875 -1.421875 11.734375 6.484375 
Q 5.515625 14.40625 5.515625 27.296875 
Q 5.515625 40.1875 11.734375 48.09375 
Q 17.96875 56 27.875 56 
Q 33.9375 56 38.25 53.625 
Q 42.578125 51.265625 45.40625 46.390625 
z
M 14.796875 27.296875 
Q 14.796875 17.390625 18.875 11.75 
Q 22.953125 6.109375 30.078125 6.109375 
Q 37.203125 6.109375 41.296875 11.75 
Q 45.40625 17.390625 45.40625 27.296875 
Q 45.40625 37.203125 41.296875 42.84375 
Q 37.203125 48.484375 30.078125 48.484375 
Q 22.953125 48.484375 18.875 42.84375 
Q 14.796875 37.203125 14.796875 27.296875 
z
" id="DejaVuSans-100"/>
      <path d="M 34.28125 27.484375 
Q 23.390625 27.484375 19.1875 25 
Q 14.984375 22.515625 14.984375 16.5 
Q 14.984375 11.71875 18.140625 8.90625 
Q 21.296875 6.109375 26.703125 6.109375 
Q 34.1875 6.109375 38.703125 11.40625 
Q 43.21875 16.703125 43.21875 25.484375 
L 43.21875 27.484375 
z
M 52.203125 31.203125 
L 52.203125 0 
L 43.21875 0 
L 43.21875 8.296875 
Q 40.140625 3.328125 35.546875 0.953125 
Q 30.953125 -1.421875 24.3125 -1.421875 
Q 15.921875 -1.421875 10.953125 3.296875 
Q 6 8.015625 6 15.921875 
Q 6 25.140625 12.171875 29.828125 
Q 18.359375 34.515625 30.609375 34.515625 
L 43.21875 34.515625 
L 43.21875 35.40625 
Q 43.21875 41.609375 39.140625 45 
Q 35.0625 48.390625 27.6875 48.390625 
Q 23 48.390625 18.546875 47.265625 
Q 14.109375 46.140625 10.015625 43.890625 
L 10.015625 52.203125 
Q 14.9375 54.109375 19.578125 55.046875 
Q 24.21875 56 28.609375 56 
Q 40.484375 56 46.34375 49.84375 
Q 52.203125 43.703125 52.203125 31.203125 
z
" id="DejaVuSans-97"/>
      <path d="M 18.3125 70.21875 
L 18.3125 54.6875 
L 36.8125 54.6875 
L 36.8125 47.703125 
L 18.3125 47.703125 
L 18.3125 18.015625 
Q 18.3125 11.328125 20.140625 9.421875 
Q 21.96875 7.515625 27.59375 7.515625 
L 36.8125 7.515625 
L 36.8125 0 
L 27.59375 0 
Q 17.1875 0 13.234375 3.875 
Q 9.28125 7.765625 9.28125 18.015625 
L 9.28125 47.703125 
L 2.6875 47.703125 
L 2.6875 54.6875 
L 9.28125 54.6875 
L 9.28125 70.21875 
z
" id="DejaVuSans-116"/>
     </defs>
     <g transform="translate(697.2175 622.938963)scale(0.1 -0.1)">
      <use xlink:href="#DejaVuSans-100"/>
      <use x="63.476562" xlink:href="#DejaVuSans-97"/>
      <use x="124.755859" xlink:href="#DejaVuSans-116"/>
      <use x="163.964844" xlink:href="#DejaVuSans-97"/>
     </g>
    </g>
   </g>
   <g id="matplotlib.axis_2">
    <g id="ytick_1">
     <g id="line2d_10">
      <defs>
       <path d="M 0 0 
L -3.5 0 
" id="mb9c6efa430" style="stroke:#000000;stroke-width:0.8;"/>
      </defs>
      <g>
       <use style="stroke:#000000;stroke-width:0.8;" x="172.8" xlink:href="#mb9c6efa430" y="580.783318"/>
      </g>
     </g>
     <g id="text_11">
      <!-- 0 -->
      <g transform="translate(159.4375 584.582537)scale(0.1 -0.1)">
       <use xlink:href="#DejaVuSans-48"/>
      </g>
     </g>
    </g>
    <g id="ytick_2">
     <g id="line2d_11">
      <g>
       <use style="stroke:#000000;stroke-width:0.8;" x="172.8" xlink:href="#mb9c6efa430" y="495.185943"/>
      </g>
     </g>
     <g id="text_12">
      <!-- 500 -->
      <g transform="translate(146.7125 498.985162)scale(0.1 -0.1)">
       <use xlink:href="#DejaVuSans-53"/>
       <use x="63.623047" xlink:href="#DejaVuSans-48"/>
       <use x="127.246094" xlink:href="#DejaVuSans-48"/>
      </g>
     </g>
    </g>
    <g id="ytick_3">
     <g id="line2d_12">
      <g>
       <use style="stroke:#000000;stroke-width:0.8;" x="172.8" xlink:href="#mb9c6efa430" y="409.588569"/>
      </g>
     </g>
     <g id="text_13">
      <!-- 1000 -->
      <g transform="translate(140.35 413.387787)scale(0.1 -0.1)">
       <use xlink:href="#DejaVuSans-49"/>
       <use x="63.623047" xlink:href="#DejaVuSans-48"/>
       <use x="127.246094" xlink:href="#DejaVuSans-48"/>
       <use x="190.869141" xlink:href="#DejaVuSans-48"/>
      </g>
     </g>
    </g>
    <g id="ytick_4">
     <g id="line2d_13">
      <g>
       <use style="stroke:#000000;stroke-width:0.8;" x="172.8" xlink:href="#mb9c6efa430" y="323.991194"/>
      </g>
     </g>
     <g id="text_14">
      <!-- 1500 -->
      <g transform="translate(140.35 327.790412)scale(0.1 -0.1)">
       <use xlink:href="#DejaVuSans-49"/>
       <use x="63.623047" xlink:href="#DejaVuSans-53"/>
       <use x="127.246094" xlink:href="#DejaVuSans-48"/>
       <use x="190.869141" xlink:href="#DejaVuSans-48"/>
      </g>
     </g>
    </g>
    <g id="ytick_5">
     <g id="line2d_14">
      <g>
       <use style="stroke:#000000;stroke-width:0.8;" x="172.8" xlink:href="#mb9c6efa430" y="238.393819"/>
      </g>
     </g>
     <g id="text_15">
      <!-- 2000 -->
      <g transform="translate(140.35 242.193038)scale(0.1 -0.1)">
       <use xlink:href="#DejaVuSans-50"/>
       <use x="63.623047" xlink:href="#DejaVuSans-48"/>
       <use x="127.246094" xlink:href="#DejaVuSans-48"/>
       <use x="190.869141" xlink:href="#DejaVuSans-48"/>
      </g>
     </g>
    </g>
    <g id="ytick_6">
     <g id="line2d_15">
      <g>
       <use style="stroke:#000000;stroke-width:0.8;" x="172.8" xlink:href="#mb9c6efa430" y="152.796444"/>
      </g>
     </g>
     <g id="text_16">
      <!-- 2500 -->
      <g transform="translate(140.35 156.595663)scale(0.1 -0.1)">
       <use xlink:href="#DejaVuSans-50"/>
       <use x="63.623047" xlink:href="#DejaVuSans-53"/>
       <use x="127.246094" xlink:href="#DejaVuSans-48"/>
       <use x="190.869141" xlink:href="#DejaVuSans-48"/>
      </g>
     </g>
    </g>
    <g id="text_17">
     <!-- wartość sprzedanych towarów -->
     <defs>
      <path d="M 4.203125 54.6875 
L 13.1875 54.6875 
L 24.421875 12.015625 
L 35.59375 54.6875 
L 46.1875 54.6875 
L 57.421875 12.015625 
L 68.609375 54.6875 
L 77.59375 54.6875 
L 63.28125 0 
L 52.6875 0 
L 40.921875 44.828125 
L 29.109375 0 
L 18.5 0 
z
" id="DejaVuSans-119"/>
      <path d="M 41.109375 46.296875 
Q 39.59375 47.171875 37.8125 47.578125 
Q 36.03125 48 33.890625 48 
Q 26.265625 48 22.1875 43.046875 
Q 18.109375 38.09375 18.109375 28.8125 
L 18.109375 0 
L 9.078125 0 
L 9.078125 54.6875 
L 18.109375 54.6875 
L 18.109375 46.1875 
Q 20.953125 51.171875 25.484375 53.578125 
Q 30.03125 56 36.53125 56 
Q 37.453125 56 38.578125 55.875 
Q 39.703125 55.765625 41.0625 55.515625 
z
" id="DejaVuSans-114"/>
      <path d="M 30.609375 48.390625 
Q 23.390625 48.390625 19.1875 42.75 
Q 14.984375 37.109375 14.984375 27.296875 
Q 14.984375 17.484375 19.15625 11.84375 
Q 23.34375 6.203125 30.609375 6.203125 
Q 37.796875 6.203125 41.984375 11.859375 
Q 46.1875 17.53125 46.1875 27.296875 
Q 46.1875 37.015625 41.984375 42.703125 
Q 37.796875 48.390625 30.609375 48.390625 
z
M 30.609375 56 
Q 42.328125 56 49.015625 48.375 
Q 55.71875 40.765625 55.71875 27.296875 
Q 55.71875 13.875 49.015625 6.21875 
Q 42.328125 -1.421875 30.609375 -1.421875 
Q 18.84375 -1.421875 12.171875 6.21875 
Q 5.515625 13.875 5.515625 27.296875 
Q 5.515625 40.765625 12.171875 48.375 
Q 18.84375 56 30.609375 56 
z
" id="DejaVuSans-111"/>
      <path d="M 35.015625 80.328125 
L 44.734375 80.328125 
L 28.8125 61.96875 
L 21.34375 61.96875 
z
M 44.28125 53.078125 
L 44.28125 44.578125 
Q 40.484375 46.53125 36.375 47.5 
Q 32.28125 48.484375 27.875 48.484375 
Q 21.1875 48.484375 17.84375 46.4375 
Q 14.5 44.390625 14.5 40.28125 
Q 14.5 37.15625 16.890625 35.375 
Q 19.28125 33.59375 26.515625 31.984375 
L 29.59375 31.296875 
Q 39.15625 29.25 43.1875 25.515625 
Q 47.21875 21.78125 47.21875 15.09375 
Q 47.21875 7.46875 41.1875 3.015625 
Q 35.15625 -1.421875 24.609375 -1.421875 
Q 20.21875 -1.421875 15.453125 -0.5625 
Q 10.6875 0.296875 5.421875 2 
L 5.421875 11.28125 
Q 10.40625 8.6875 15.234375 7.390625 
Q 20.0625 6.109375 24.8125 6.109375 
Q 31.15625 6.109375 34.5625 8.28125 
Q 37.984375 10.453125 37.984375 14.40625 
Q 37.984375 18.0625 35.515625 20.015625 
Q 33.0625 21.96875 24.703125 23.78125 
L 21.578125 24.515625 
Q 13.234375 26.265625 9.515625 29.90625 
Q 5.8125 33.546875 5.8125 39.890625 
Q 5.8125 47.609375 11.28125 51.796875 
Q 16.75 56 26.8125 56 
Q 31.78125 56 36.171875 55.265625 
Q 40.578125 54.546875 44.28125 53.078125 
z
" id="DejaVuSans-347"/>
      <path d="M 48.78125 52.59375 
L 48.78125 44.1875 
Q 44.96875 46.296875 41.140625 47.34375 
Q 37.3125 48.390625 33.40625 48.390625 
Q 24.65625 48.390625 19.8125 42.84375 
Q 14.984375 37.3125 14.984375 27.296875 
Q 14.984375 17.28125 19.8125 11.734375 
Q 24.65625 6.203125 33.40625 6.203125 
Q 37.3125 6.203125 41.140625 7.25 
Q 44.96875 8.296875 48.78125 10.40625 
L 48.78125 2.09375 
Q 45.015625 0.34375 40.984375 -0.53125 
Q 36.96875 -1.421875 32.421875 -1.421875 
Q 20.0625 -1.421875 12.78125 6.34375 
Q 5.515625 14.109375 5.515625 27.296875 
Q 5.515625 40.671875 12.859375 48.328125 
Q 20.21875 56 33.015625 56 
Q 37.15625 56 41.109375 55.140625 
Q 45.0625 54.296875 48.78125 52.59375 
z
M 38.484375 79.984375 
L 48.1875 79.984375 
L 32.28125 61.625 
L 24.8125 61.625 
z
" id="DejaVuSans-263"/>
      <path id="DejaVuSans-32"/>
      <path d="M 44.28125 53.078125 
L 44.28125 44.578125 
Q 40.484375 46.53125 36.375 47.5 
Q 32.28125 48.484375 27.875 48.484375 
Q 21.1875 48.484375 17.84375 46.4375 
Q 14.5 44.390625 14.5 40.28125 
Q 14.5 37.15625 16.890625 35.375 
Q 19.28125 33.59375 26.515625 31.984375 
L 29.59375 31.296875 
Q 39.15625 29.25 43.1875 25.515625 
Q 47.21875 21.78125 47.21875 15.09375 
Q 47.21875 7.46875 41.1875 3.015625 
Q 35.15625 -1.421875 24.609375 -1.421875 
Q 20.21875 -1.421875 15.453125 -0.5625 
Q 10.6875 0.296875 5.421875 2 
L 5.421875 11.28125 
Q 10.40625 8.6875 15.234375 7.390625 
Q 20.0625 6.109375 24.8125 6.109375 
Q 31.15625 6.109375 34.5625 8.28125 
Q 37.984375 10.453125 37.984375 14.40625 
Q 37.984375 18.0625 35.515625 20.015625 
Q 33.0625 21.96875 24.703125 23.78125 
L 21.578125 24.515625 
Q 13.234375 26.265625 9.515625 29.90625 
Q 5.8125 33.546875 5.8125 39.890625 
Q 5.8125 47.609375 11.28125 51.796875 
Q 16.75 56 26.8125 56 
Q 31.78125 56 36.171875 55.265625 
Q 40.578125 54.546875 44.28125 53.078125 
z
" id="DejaVuSans-115"/>
      <path d="M 18.109375 8.203125 
L 18.109375 -20.796875 
L 9.078125 -20.796875 
L 9.078125 54.6875 
L 18.109375 54.6875 
L 18.109375 46.390625 
Q 20.953125 51.265625 25.265625 53.625 
Q 29.59375 56 35.59375 56 
Q 45.5625 56 51.78125 48.09375 
Q 58.015625 40.1875 58.015625 27.296875 
Q 58.015625 14.40625 51.78125 6.484375 
Q 45.5625 -1.421875 35.59375 -1.421875 
Q 29.59375 -1.421875 25.265625 0.953125 
Q 20.953125 3.328125 18.109375 8.203125 
z
M 48.6875 27.296875 
Q 48.6875 37.203125 44.609375 42.84375 
Q 40.53125 48.484375 33.40625 48.484375 
Q 26.265625 48.484375 22.1875 42.84375 
Q 18.109375 37.203125 18.109375 27.296875 
Q 18.109375 17.390625 22.1875 11.75 
Q 26.265625 6.109375 33.40625 6.109375 
Q 40.53125 6.109375 44.609375 11.75 
Q 48.6875 17.390625 48.6875 27.296875 
z
" id="DejaVuSans-112"/>
      <path d="M 5.515625 54.6875 
L 48.1875 54.6875 
L 48.1875 46.484375 
L 14.40625 7.171875 
L 48.1875 7.171875 
L 48.1875 0 
L 4.296875 0 
L 4.296875 8.203125 
L 38.09375 47.515625 
L 5.515625 47.515625 
z
" id="DejaVuSans-122"/>
      <path d="M 56.203125 29.59375 
L 56.203125 25.203125 
L 14.890625 25.203125 
Q 15.484375 15.921875 20.484375 11.0625 
Q 25.484375 6.203125 34.421875 6.203125 
Q 39.59375 6.203125 44.453125 7.46875 
Q 49.3125 8.734375 54.109375 11.28125 
L 54.109375 2.78125 
Q 49.265625 0.734375 44.1875 -0.34375 
Q 39.109375 -1.421875 33.890625 -1.421875 
Q 20.796875 -1.421875 13.15625 6.1875 
Q 5.515625 13.8125 5.515625 26.8125 
Q 5.515625 40.234375 12.765625 48.109375 
Q 20.015625 56 32.328125 56 
Q 43.359375 56 49.78125 48.890625 
Q 56.203125 41.796875 56.203125 29.59375 
z
M 47.21875 32.234375 
Q 47.125 39.59375 43.09375 43.984375 
Q 39.0625 48.390625 32.421875 48.390625 
Q 24.90625 48.390625 20.390625 44.140625 
Q 15.875 39.890625 15.1875 32.171875 
z
" id="DejaVuSans-101"/>
      <path d="M 54.890625 33.015625 
L 54.890625 0 
L 45.90625 0 
L 45.90625 32.71875 
Q 45.90625 40.484375 42.875 44.328125 
Q 39.84375 48.1875 33.796875 48.1875 
Q 26.515625 48.1875 22.3125 43.546875 
Q 18.109375 38.921875 18.109375 30.90625 
L 18.109375 0 
L 9.078125 0 
L 9.078125 54.6875 
L 18.109375 54.6875 
L 18.109375 46.1875 
Q 21.34375 51.125 25.703125 53.5625 
Q 30.078125 56 35.796875 56 
Q 45.21875 56 50.046875 50.171875 
Q 54.890625 44.34375 54.890625 33.015625 
z
" id="DejaVuSans-110"/>
      <path d="M 32.171875 -5.078125 
Q 28.375 -14.84375 24.75 -17.8125 
Q 21.140625 -20.796875 15.09375 -20.796875 
L 7.90625 -20.796875 
L 7.90625 -13.28125 
L 13.1875 -13.28125 
Q 16.890625 -13.28125 18.9375 -11.515625 
Q 21 -9.765625 23.484375 -3.21875 
L 25.09375 0.875 
L 2.984375 54.6875 
L 12.5 54.6875 
L 29.59375 11.921875 
L 46.6875 54.6875 
L 56.203125 54.6875 
z
" id="DejaVuSans-121"/>
      <path d="M 48.78125 52.59375 
L 48.78125 44.1875 
Q 44.96875 46.296875 41.140625 47.34375 
Q 37.3125 48.390625 33.40625 48.390625 
Q 24.65625 48.390625 19.8125 42.84375 
Q 14.984375 37.3125 14.984375 27.296875 
Q 14.984375 17.28125 19.8125 11.734375 
Q 24.65625 6.203125 33.40625 6.203125 
Q 37.3125 6.203125 41.140625 7.25 
Q 44.96875 8.296875 48.78125 10.40625 
L 48.78125 2.09375 
Q 45.015625 0.34375 40.984375 -0.53125 
Q 36.96875 -1.421875 32.421875 -1.421875 
Q 20.0625 -1.421875 12.78125 6.34375 
Q 5.515625 14.109375 5.515625 27.296875 
Q 5.515625 40.671875 12.859375 48.328125 
Q 20.21875 56 33.015625 56 
Q 37.15625 56 41.109375 55.140625 
Q 45.0625 54.296875 48.78125 52.59375 
z
" id="DejaVuSans-99"/>
      <path d="M 54.890625 33.015625 
L 54.890625 0 
L 45.90625 0 
L 45.90625 32.71875 
Q 45.90625 40.484375 42.875 44.328125 
Q 39.84375 48.1875 33.796875 48.1875 
Q 26.515625 48.1875 22.3125 43.546875 
Q 18.109375 38.921875 18.109375 30.90625 
L 18.109375 0 
L 9.078125 0 
L 9.078125 75.984375 
L 18.109375 75.984375 
L 18.109375 46.1875 
Q 21.34375 51.125 25.703125 53.5625 
Q 30.078125 56 35.796875 56 
Q 45.21875 56 50.046875 50.171875 
Q 54.890625 44.34375 54.890625 33.015625 
z
" id="DejaVuSans-104"/>
      <path d="M 30.609375 48.390625 
Q 23.390625 48.390625 19.1875 42.75 
Q 14.984375 37.109375 14.984375 27.296875 
Q 14.984375 17.484375 19.15625 11.84375 
Q 23.34375 6.203125 30.609375 6.203125 
Q 37.796875 6.203125 41.984375 11.859375 
Q 46.1875 17.53125 46.1875 27.296875 
Q 46.1875 37.015625 41.984375 42.703125 
Q 37.796875 48.390625 30.609375 48.390625 
z
M 30.609375 56 
Q 42.328125 56 49.015625 48.375 
Q 55.71875 40.765625 55.71875 27.296875 
Q 55.71875 13.875 49.015625 6.21875 
Q 42.328125 -1.421875 30.609375 -1.421875 
Q 18.84375 -1.421875 12.171875 6.21875 
Q 5.515625 13.875 5.515625 27.296875 
Q 5.515625 40.765625 12.171875 48.375 
Q 18.84375 56 30.609375 56 
z
M 37.40625 79.984375 
L 47.125 79.984375 
L 31.203125 61.625 
L 23.734375 61.625 
z
" id="DejaVuSans-243"/>
     </defs>
     <g transform="translate(134.270312 413.375488)rotate(-90)scale(0.1 -0.1)">
      <use xlink:href="#DejaVuSans-119"/>
      <use x="81.787109" xlink:href="#DejaVuSans-97"/>
      <use x="143.066406" xlink:href="#DejaVuSans-114"/>
      <use x="184.179688" xlink:href="#DejaVuSans-116"/>
      <use x="223.388672" xlink:href="#DejaVuSans-111"/>
      <use x="284.570312" xlink:href="#DejaVuSans-347"/>
      <use x="336.669922" xlink:href="#DejaVuSans-263"/>
      <use x="391.650391" xlink:href="#DejaVuSans-32"/>
      <use x="423.4375" xlink:href="#DejaVuSans-115"/>
      <use x="475.537109" xlink:href="#DejaVuSans-112"/>
      <use x="539.013672" xlink:href="#DejaVuSans-114"/>
      <use x="580.126953" xlink:href="#DejaVuSans-122"/>
      <use x="632.617188" xlink:href="#DejaVuSans-101"/>
      <use x="694.140625" xlink:href="#DejaVuSans-100"/>
      <use x="757.617188" xlink:href="#DejaVuSans-97"/>
      <use x="818.896484" xlink:href="#DejaVuSans-110"/>
      <use x="882.275391" xlink:href="#DejaVuSans-121"/>
      <use x="941.455078" xlink:href="#DejaVuSans-99"/>
      <use x="996.435547" xlink:href="#DejaVuSans-104"/>
      <use x="1059.814453" xlink:href="#DejaVuSans-32"/>
      <use x="1091.601562" xlink:href="#DejaVuSans-116"/>
      <use x="1130.810547" xlink:href="#DejaVuSans-111"/>
      <use x="1191.992188" xlink:href="#DejaVuSans-119"/>
      <use x="1273.779297" xlink:href="#DejaVuSans-97"/>
      <use x="1335.058594" xlink:href="#DejaVuSans-114"/>
      <use x="1376.140625" xlink:href="#DejaVuSans-243"/>
      <use x="1437.322266" xlink:href="#DejaVuSans-119"/>
     </g>
    </g>
   </g>
   <g id="line2d_16">
    <path clip-path="url(#pd41d5d0b54)" d="M 183.394238 580.783318 
L 184.833894 580.783318 
L 185.553721 578.044202 
L 186.273549 580.612124 
L 186.993377 579.927345 
L 187.713204 572.394776 
L 188.433032 580.783318 
L 189.872688 580.783318 
L 190.592515 577.359423 
L 191.312343 577.188229 
L 192.032171 579.584955 
L 192.751998 580.783318 
L 196.351137 580.783318 
L 197.070964 579.242566 
L 197.790792 579.75615 
L 198.51062 580.783318 
L 199.230448 580.783318 
L 199.950275 579.75615 
L 200.670103 580.783318 
L 205.708897 580.783318 
L 206.428724 580.612124 
L 207.148552 569.484465 
L 207.86838 580.783318 
L 208.588208 580.783318 
L 209.308035 572.394776 
L 210.027863 578.900176 
L 210.747691 576.845839 
L 211.467518 579.75615 
L 212.187346 575.647476 
L 212.907174 580.783318 
L 214.346829 580.783318 
L 215.066657 573.593139 
L 215.786485 575.647476 
L 216.506312 578.728981 
L 217.22614 580.783318 
L 217.945968 580.783318 
L 218.665795 579.41376 
L 219.385623 579.75615 
L 220.105451 580.783318 
L 220.825278 580.612124 
L 221.545106 580.783318 
L 222.984761 580.783318 
L 223.704589 579.242566 
L 224.424417 579.242566 
L 225.144245 580.783318 
L 225.864072 580.783318 
L 226.5839 579.927345 
L 227.303728 579.927345 
L 228.023555 580.269734 
L 228.743383 580.783318 
L 229.463211 579.75615 
L 230.183038 577.188229 
L 230.902866 580.783318 
L 231.622694 580.269734 
L 232.342521 580.783318 
L 233.062349 580.783318 
L 233.782177 573.935528 
L 234.502005 577.873008 
L 235.221832 575.818671 
L 235.94166 575.818671 
L 236.661488 564.006233 
L 237.381315 579.927345 
L 238.101143 579.242566 
L 238.820971 573.250749 
L 239.540798 578.044202 
L 240.260626 580.783318 
L 240.980454 580.783318 
L 241.700282 580.612124 
L 242.420109 580.783318 
L 243.139937 578.557787 
L 243.859765 579.927345 
L 244.579592 580.783318 
L 245.29942 580.783318 
L 246.019248 579.242566 
L 246.739075 580.783318 
L 247.458903 580.783318 
L 248.178731 580.098539 
L 248.898558 580.783318 
L 249.618386 577.359423 
L 250.338214 580.783318 
L 251.058042 580.783318 
L 251.777869 574.449113 
L 252.497697 580.783318 
L 257.536491 580.783318 
L 258.256319 579.071371 
L 258.976146 580.783318 
L 259.695974 580.783318 
L 260.415802 578.557787 
L 261.135629 579.927345 
L 261.855457 574.620307 
L 262.575285 580.783318 
L 263.295112 577.188229 
L 264.01494 580.783318 
L 270.493389 580.783318 
L 271.933045 571.367607 
L 272.652872 580.612124 
L 273.3727 580.783318 
L 274.092528 567.087738 
L 274.812355 580.783318 
L 284.170116 580.783318 
L 284.889943 579.242566 
L 285.609771 580.783318 
L 286.329599 573.250749 
L 287.049426 580.783318 
L 288.489082 580.783318 
L 289.928737 574.620307 
L 290.648565 570.340439 
L 291.368392 580.783318 
L 292.08822 580.783318 
L 292.808048 568.628491 
L 294.247703 580.783318 
L 294.967531 580.269734 
L 295.687359 580.783318 
L 296.407186 579.927345 
L 297.127014 580.783318 
L 297.846842 576.674644 
L 298.566669 579.927345 
L 299.286497 580.783318 
L 302.885636 580.783318 
L 303.605463 575.818671 
L 304.325291 580.612124 
L 305.045119 569.998049 
L 305.764946 580.783318 
L 306.484774 579.75615 
L 307.204602 580.783318 
L 308.644257 580.783318 
L 309.364085 564.691012 
L 310.083913 580.612124 
L 310.80374 580.783318 
L 315.842534 580.783318 
L 316.562362 579.242566 
L 317.282189 580.612124 
L 318.002017 580.440929 
L 318.721845 571.367607 
L 319.441673 580.783318 
L 320.881328 580.783318 
L 321.601156 580.098539 
L 322.320983 579.927345 
L 323.040811 580.269734 
L 323.760639 580.783318 
L 328.079605 580.783318 
L 328.799433 580.098539 
L 329.51926 580.783318 
L 330.239088 580.783318 
L 330.958916 580.440929 
L 331.678743 576.845839 
L 332.398571 577.873008 
L 333.118399 579.927345 
L 333.838226 579.242566 
L 334.558054 580.783318 
L 335.277882 580.783318 
L 335.99771 580.612124 
L 336.717537 580.783318 
L 337.437365 579.41376 
L 338.157193 580.783318 
L 341.036503 580.783318 
L 341.756331 578.557787 
L 342.476159 580.783318 
L 343.915814 580.783318 
L 344.635642 580.612124 
L 345.35547 580.783318 
L 346.075297 579.927345 
L 346.795125 580.783318 
L 348.954608 580.783318 
L 349.674436 577.188229 
L 350.394263 580.783318 
L 355.433057 580.783318 
L 356.152885 579.927345 
L 356.872713 579.75615 
L 357.59254 580.783318 
L 362.631334 580.783318 
L 363.351162 580.269734 
L 364.07099 580.783318 
L 366.9503 580.783318 
L 367.670128 579.584955 
L 368.389956 580.269734 
L 369.109783 580.783318 
L 371.269267 580.783318 
L 371.989094 579.75615 
L 372.708922 572.394776 
L 373.42875 580.783318 
L 377.027888 580.783318 
L 377.747716 579.242566 
L 378.467544 580.783318 
L 379.187371 580.783318 
L 379.907199 578.900176 
L 380.627027 580.783318 
L 381.346854 580.783318 
L 382.066682 577.701813 
L 382.78651 573.593139 
L 383.506337 579.242566 
L 384.226165 580.783318 
L 384.945993 578.900176 
L 385.66582 580.783318 
L 386.385648 579.927345 
L 387.105476 579.75615 
L 387.825304 580.783318 
L 392.864097 580.783318 
L 393.583925 569.31327 
L 394.303753 580.783318 
L 395.02358 577.017034 
L 395.743408 580.783318 
L 397.902891 580.783318 
L 398.622719 578.557787 
L 399.342547 568.799686 
L 400.062374 580.783318 
L 400.782202 573.079555 
L 401.50203 580.783318 
L 402.941685 580.783318 
L 403.661513 579.927345 
L 404.381341 580.783318 
L 405.101168 580.783318 
L 405.820996 579.584955 
L 406.540824 580.783318 
L 407.980479 580.783318 
L 408.700307 580.440929 
L 409.420134 580.783318 
L 410.139962 574.106723 
L 410.85979 580.612124 
L 411.579617 580.783318 
L 412.299445 580.783318 
L 413.019273 572.90836 
L 413.739101 580.783318 
L 414.458928 580.783318 
L 415.178756 572.737165 
L 415.898584 569.826854 
L 416.618411 576.674644 
L 417.338239 580.783318 
L 418.058067 579.75615 
L 418.777894 580.612124 
L 419.497722 579.75615 
L 420.21755 580.783318 
L 422.377033 580.783318 
L 423.096861 574.962697 
L 423.816688 575.989865 
L 424.536516 580.783318 
L 425.256344 577.359423 
L 425.976171 578.386592 
L 426.695999 572.394776 
L 427.415827 580.783318 
L 428.135654 577.017034 
L 428.855482 579.75615 
L 429.57531 577.359423 
L 430.295138 580.783318 
L 431.014965 578.900176 
L 431.734793 561.267117 
L 432.454621 580.783318 
L 433.174448 579.584955 
L 433.894276 580.269734 
L 434.614104 569.31327 
L 435.333931 579.75615 
L 436.053759 580.783318 
L 440.372725 580.783318 
L 441.092553 567.087738 
L 441.812381 579.75615 
L 442.532208 579.75615 
L 443.252036 580.783318 
L 443.971864 580.783318 
L 444.691691 579.41376 
L 445.411519 580.612124 
L 446.131347 580.783318 
L 447.571002 580.783318 
L 448.29083 578.900176 
L 449.010658 580.783318 
L 456.928762 580.783318 
L 457.64859 579.927345 
L 458.368418 580.783318 
L 460.527901 580.783318 
L 461.247728 580.612124 
L 461.967556 580.783318 
L 462.687384 580.098539 
L 463.407211 580.783318 
L 467.726178 580.783318 
L 468.446005 579.071371 
L 469.165833 580.783318 
L 469.885661 579.071371 
L 470.605488 580.783318 
L 477.803765 580.783318 
L 478.523593 579.75615 
L 479.243421 580.783318 
L 479.963248 580.783318 
L 480.683076 568.799686 
L 481.402904 580.783318 
L 492.920147 580.783318 
L 493.639975 577.359423 
L 494.359802 579.927345 
L 495.07963 579.242566 
L 495.799458 580.783318 
L 505.157218 580.783318 
L 505.877045 579.41376 
L 506.596873 580.783318 
L 513.075322 580.783318 
L 513.79515 579.584955 
L 514.514978 580.783318 
L 515.234806 580.612124 
L 515.954633 580.783318 
L 526.752049 580.783318 
L 527.471876 580.269734 
L 528.191704 579.071371 
L 528.911532 580.440929 
L 529.631359 580.269734 
L 530.351187 580.783318 
L 533.230498 580.783318 
L 533.950326 577.359423 
L 534.670153 580.783318 
L 536.109809 580.783318 
L 536.829636 580.440929 
L 537.549464 580.783318 
L 541.86843 580.783318 
L 542.588258 578.557787 
L 543.308086 580.783318 
L 550.506363 580.783318 
L 551.22619 578.557787 
L 552.665846 580.783318 
L 564.183089 580.783318 
L 564.902916 580.440929 
L 565.622744 580.783318 
L 576.42016 580.783318 
L 577.139987 565.546986 
L 577.859815 580.783318 
L 578.579643 567.772517 
L 579.29947 568.970881 
L 580.019298 580.783318 
L 580.739126 572.56597 
L 581.458953 570.854023 
L 582.178781 561.609506 
L 582.898609 578.215397 
L 583.618437 554.590522 
L 584.338264 575.647476 
L 585.058092 578.215397 
L 585.77792 538.32702 
L 586.497747 566.06057 
L 587.217575 561.609506 
L 587.937403 550.995432 
L 588.65723 573.079555 
L 589.377058 567.087738 
L 590.096886 579.584955 
L 591.536541 561.951896 
L 592.256369 565.546986 
L 592.976197 565.204596 
L 593.696024 573.079555 
L 594.415852 579.071371 
L 595.13568 576.674644 
L 595.855507 568.114907 
L 596.575335 571.196412 
L 597.295163 568.799686 
L 598.01499 573.764334 
L 598.734818 577.873008 
L 599.454646 577.701813 
L 600.174473 570.854023 
L 600.894301 577.873008 
L 601.614129 557.500832 
L 602.333957 569.65566 
L 603.053784 559.383975 
L 603.773612 576.674644 
L 604.49344 567.943712 
L 605.213267 577.359423 
L 605.933095 548.085121 
L 606.652923 559.383975 
L 607.37275 573.079555 
L 608.092578 568.799686 
L 608.812406 568.970881 
L 609.532234 575.989865 
L 610.252061 575.818671 
L 610.971889 546.886758 
L 611.691717 562.636675 
L 612.411544 558.185611 
L 613.131372 573.250749 
L 613.8512 570.511633 
L 614.571027 571.196412 
L 615.290855 579.584955 
L 616.010683 567.772517 
L 616.73051 563.150259 
L 617.450338 576.674644 
L 618.170166 568.628491 
L 618.889994 571.538802 
L 619.609821 579.41376 
L 620.329649 566.574154 
L 621.049477 580.783318 
L 622.489132 559.555169 
L 623.20896 573.079555 
L 624.648615 579.927345 
L 625.368443 577.359423 
L 626.088271 560.068754 
L 626.808098 566.06057 
L 627.527926 573.079555 
L 628.247754 564.691012 
L 628.967581 576.674644 
L 629.687409 575.476281 
L 630.407237 580.440929 
L 631.127064 561.951896 
L 631.846892 572.56597 
L 632.56672 548.427511 
L 633.286547 557.329638 
L 634.006375 551.166627 
L 634.726203 543.805252 
L 635.446031 577.359423 
L 636.165858 542.093305 
L 636.885686 556.473664 
L 637.605514 555.104106 
L 639.045169 566.574154 
L 639.764997 579.41376 
L 640.484824 580.783318 
L 641.204652 565.204596 
L 641.92448 563.835038 
L 642.644307 551.337821 
L 643.364135 571.025218 
L 644.083963 552.536185 
L 644.803791 560.411143 
L 645.523618 580.783318 
L 646.243446 545.5172 
L 646.963274 566.06057 
L 647.683101 554.590522 
L 648.402929 566.745349 
L 649.122757 557.843222 
L 649.842584 577.359423 
L 650.562412 578.557787 
L 651.28224 573.764334 
L 652.002068 557.672027 
L 652.721895 561.095922 
L 653.441723 567.087738 
L 654.161551 542.2645 
L 654.881378 577.188229 
L 655.601206 562.123091 
L 656.321034 562.46548 
L 657.040861 575.305086 
L 657.760689 567.258933 
L 658.480517 564.691012 
L 659.920172 579.242566 
L 660.64 579.927345 
L 661.359828 568.457296 
L 662.079655 560.753533 
L 662.799483 557.843222 
L 663.519311 542.778084 
L 664.239138 572.052386 
L 664.958966 556.644859 
L 665.678794 579.41376 
L 666.398621 558.356806 
L 667.118449 555.275301 
L 667.838277 572.90836 
L 668.558104 565.033401 
L 669.277932 560.924727 
L 669.99776 580.783318 
L 670.717588 573.250749 
L 671.437415 569.142075 
L 672.157243 550.310653 
L 672.877071 561.267117 
L 673.596898 575.476281 
L 674.316726 539.867773 
L 675.036554 578.215397 
L 675.756381 570.169244 
L 676.476209 554.932911 
L 677.196037 556.131274 
L 677.915865 549.283484 
L 678.635692 560.753533 
L 679.35552 563.492649 
L 680.075348 578.215397 
L 680.795175 576.332255 
L 681.515003 559.041585 
L 682.234831 563.150259 
L 682.954658 570.854023 
L 683.674486 560.239948 
L 684.394314 562.80787 
L 685.114141 577.188229 
L 685.833969 572.394776 
L 686.553797 556.816053 
L 687.273625 557.158443 
L 687.993452 552.707379 
L 688.71328 558.528001 
L 690.152935 578.215397 
L 690.872763 578.728981 
L 691.592591 514.87334 
L 692.312418 545.003616 
L 693.032246 514.87334 
L 693.752074 567.258933 
L 694.471902 554.761716 
L 695.191729 568.286102 
L 695.911557 571.538802 
L 696.631385 567.430128 
L 697.351212 539.525384 
L 698.07104 577.701813 
L 699.510695 569.142075 
L 700.230523 566.745349 
L 700.950351 580.098539 
L 701.670178 550.824237 
L 703.109834 577.530618 
L 703.829662 576.16106 
L 704.549489 562.636675 
L 705.269317 573.764334 
L 705.989145 571.025218 
L 706.708972 574.449113 
L 707.4288 575.647476 
L 708.148628 538.498215 
L 708.868455 555.104106 
L 709.588283 580.783318 
L 710.308111 580.783318 
L 711.027938 579.927345 
L 711.747766 580.783318 
L 713.187422 580.783318 
L 713.907249 579.242566 
L 714.627077 580.783318 
L 718.946043 580.783318 
L 719.665871 577.701813 
L 720.385699 580.783318 
L 731.183114 580.783318 
L 731.902942 579.927345 
L 732.622769 577.359423 
L 733.342597 580.783318 
L 739.101219 580.783318 
L 739.821046 577.359423 
L 740.540874 580.783318 
L 749.178806 580.783318 
L 749.898634 577.359423 
L 750.618462 580.783318 
L 757.816739 580.783318 
L 758.536566 580.098539 
L 759.256394 580.783318 
L 761.415877 580.783318 
L 762.135705 580.440929 
L 762.855533 580.783318 
L 763.57536 580.783318 
L 764.295188 580.440929 
L 765.015016 580.783318 
L 767.894326 580.783318 
L 768.614154 579.927345 
L 769.333982 580.783318 
L 781.571053 580.783318 
L 782.29088 579.41376 
L 783.010708 580.783318 
L 789.489157 580.783318 
L 790.208985 580.440929 
L 790.928813 580.783318 
L 802.446056 580.783318 
L 803.165883 578.900176 
L 803.885711 580.783318 
L 804.605539 580.612124 
L 805.325366 580.783318 
L 811.083988 580.783318 
L 811.803816 577.359423 
L 812.523643 580.783318 
L 838.43744 580.783318 
L 839.157268 528.22653 
L 839.877096 561.780701 
L 840.596924 568.286102 
L 841.316751 576.332255 
L 842.036579 580.440929 
L 842.756407 533.019983 
L 843.476234 503.916876 
L 844.196062 573.250749 
L 844.91589 552.0226 
L 845.635717 546.201979 
L 846.355545 575.647476 
L 847.075373 573.593139 
L 847.7952 540.038968 
L 848.515028 553.734548 
L 849.234856 551.337821 
L 849.954684 556.987248 
L 850.674511 531.82162 
L 851.394339 572.90836 
L 852.114167 569.31327 
L 852.833994 550.139458 
L 853.553822 497.58267 
L 854.27365 533.019983 
L 854.993477 537.642241 
L 855.713305 564.519817 
L 856.433133 580.783318 
L 857.152961 576.16106 
L 857.872788 526.856972 
L 858.592616 553.905743 
L 859.312444 531.650425 
L 860.032271 563.835038 
L 860.752099 559.555169 
L 861.471927 579.584955 
L 862.191754 559.383975 
L 862.911582 501.348954 
L 863.63141 566.402959 
L 864.351237 546.030784 
L 865.071065 530.965646 
L 866.510721 573.079555 
L 867.230548 563.492649 
L 867.950376 529.082504 
L 868.670204 529.253699 
L 869.390031 561.609506 
L 870.109859 540.552552 
L 870.829687 550.995432 
L 872.269342 575.133892 
L 872.98917 547.571537 
L 873.708997 547.742732 
L 874.428825 540.038968 
L 875.148653 548.427511 
L 875.868481 568.286102 
L 876.588308 553.734548 
L 877.308136 574.791502 
L 878.027964 555.61769 
L 878.747791 569.31327 
L 879.467619 564.006233 
L 880.187447 550.139458 
L 880.907274 542.949279 
L 881.627102 578.044202 
L 882.34693 566.06057 
L 883.066758 580.440929 
L 883.786585 562.46548 
L 884.506413 540.210163 
L 885.226241 558.528001 
L 885.946068 542.435694 
L 886.665896 578.044202 
L 887.385724 579.75615 
L 888.105551 544.832421 
L 889.545207 554.590522 
L 890.265034 547.229147 
L 890.984862 547.913926 
L 891.70469 577.873008 
L 892.424518 578.386592 
L 893.144345 504.43046 
L 893.864173 484.058285 
L 894.584001 531.47923 
L 895.303828 529.082504 
L 896.023656 523.604272 
L 896.743484 575.476281 
L 897.463311 573.079555 
L 898.183139 548.256316 
L 898.902967 534.731931 
L 899.622795 552.193795 
L 900.342622 519.837987 
L 901.782278 574.620307 
L 902.502105 579.927345 
L 903.941761 507.68316 
L 904.661588 547.229147 
L 905.381416 555.446495 
L 906.101244 557.843222 
L 906.821071 563.492649 
L 907.540899 567.772517 
L 908.980555 522.577103 
L 909.700382 541.408526 
L 911.140038 557.672027 
L 911.859865 576.674644 
L 912.579693 573.421944 
L 913.299521 530.109672 
L 914.019348 528.397725 
L 914.739176 528.56892 
L 915.459004 552.707379 
L 916.178831 546.715563 
L 916.898659 570.854023 
L 917.618487 571.709997 
L 918.338315 548.085121 
L 919.058142 542.606889 
L 919.77797 550.995432 
L 920.497798 551.337821 
L 921.217625 553.392158 
L 921.937453 575.133892 
L 922.657281 576.845839 
L 923.377108 554.590522 
L 924.096936 543.291668 
L 924.816764 557.329638 
L 925.536592 545.003616 
L 926.256419 544.832421 
L 926.976247 559.726364 
L 927.696075 578.557787 
L 928.415902 526.000998 
L 929.13573 550.481848 
L 929.855558 545.859589 
L 930.575385 534.731931 
L 931.295213 529.938478 
L 932.015041 573.593139 
L 932.734868 557.500832 
L 933.454696 548.427511 
L 934.174524 514.017366 
L 934.894352 561.095922 
L 935.614179 532.164009 
L 936.334007 540.381357 
L 937.053835 569.998049 
L 937.773662 554.590522 
L 938.49349 555.104106 
L 939.933145 518.468429 
L 940.652973 563.663843 
L 941.372801 551.509016 
L 942.092628 567.772517 
L 942.812456 563.321454 
L 943.532284 553.220964 
L 944.252112 537.471047 
L 944.971939 547.913926 
L 945.691767 573.250749 
L 946.411595 537.128657 
L 947.131422 557.158443 
L 947.85125 562.294285 
L 948.571078 545.17481 
L 949.290905 551.680211 
L 950.010733 542.606889 
L 950.730561 537.642241 
L 951.450389 552.193795 
L 952.170216 564.177428 
L 952.890044 578.215397 
L 953.609872 513.674976 
L 954.329699 510.079887 
L 955.049527 538.498215 
L 955.769355 553.392158 
L 956.489182 549.11229 
L 957.20901 573.935528 
L 957.928838 576.16106 
L 958.648665 528.22653 
L 959.368493 570.169244 
L 960.088321 529.253699 
L 960.808149 547.571537 
L 961.527976 550.824237 
L 962.247804 571.709997 
L 962.967632 579.927345 
L 963.687459 532.335204 
L 964.407287 551.166627 
L 965.127115 579.75615 
L 965.846942 558.699196 
L 966.56677 559.726364 
L 967.286598 575.305086 
L 968.006426 567.943712 
L 968.726253 562.979064 
L 969.446081 539.354189 
L 970.165909 521.37874 
L 970.885736 568.628491 
L 971.605564 508.196744 
L 972.325392 571.367607 
L 973.045219 571.025218 
L 973.765047 503.403291 
L 974.484875 536.101489 
L 975.204702 528.055335 
L 975.92453 523.261882 
L 976.644358 513.161392 
L 977.364186 562.123091 
L 978.084013 580.612124 
L 978.803841 495.870722 
L 979.523669 500.664175 
L 980.243496 543.120473 
L 980.963324 525.658609 
L 981.683152 541.579721 
L 982.402979 563.150259 
L 983.122807 580.783318 
L 983.842635 531.650425 
L 984.562462 523.090688 
L 985.28229 490.39249 
L 986.002118 463.172525 
L 986.721946 538.840605 
L 987.441773 549.968263 
L 988.161601 579.242566 
L 988.881429 513.332587 
L 989.601256 498.267449 
L 990.321084 526.685777 
L 991.040912 510.251081 
L 991.760739 548.941095 
L 992.480567 565.546986 
L 993.200395 553.220964 
L 993.920223 516.414092 
L 994.64005 467.794784 
L 995.359878 491.590854 
L 996.799533 516.071703 
L 997.519361 558.356806 
L 998.239189 573.250749 
L 998.959016 500.321786 
L 999.678844 458.721462 
L 1000.398672 524.460246 
L 1001.118499 536.272683 
L 1001.838327 534.731931 
L 1002.558155 533.704762 
L 1003.277983 576.674644 
L 1003.99781 516.927677 
L 1004.717638 528.911309 
L 1005.437466 483.373506 
L 1006.157293 522.234714 
L 1006.877121 506.142407 
L 1007.596949 555.96008 
L 1008.316776 569.484465 
L 1009.036604 489.022932 
L 1010.476259 548.427511 
L 1011.196087 542.2645 
L 1011.915915 544.490031 
L 1012.635743 580.783318 
L 1013.35557 561.095922 
L 1014.075398 551.337821 
L 1014.795226 580.783318 
L 1100.454721 580.783318 
L 1101.174549 563.150259 
L 1101.894377 580.269734 
L 1102.614204 570.169244 
L 1103.334032 578.900176 
L 1104.05386 579.584955 
L 1104.773688 569.65566 
L 1105.493515 542.435694 
L 1106.933171 578.386592 
L 1107.652998 573.764334 
L 1108.372826 572.90836 
L 1109.092654 571.709997 
L 1109.812481 560.411143 
L 1110.532309 572.737165 
L 1111.252137 567.601323 
L 1111.971964 578.386592 
L 1112.691792 574.449113 
L 1113.41162 577.530618 
L 1114.131448 579.927345 
L 1114.851275 554.419327 
L 1115.571103 561.267117 
L 1116.290931 546.201979 
L 1117.010758 539.867773 
L 1117.730586 562.46548 
L 1119.170241 577.188229 
L 1119.890069 564.348622 
L 1120.609897 569.484465 
L 1121.329724 569.31327 
L 1122.049552 566.06057 
L 1122.76938 576.50345 
L 1123.489208 578.900176 
L 1124.209035 574.791502 
L 1124.928863 551.851406 
L 1125.648691 550.653042 
L 1126.368518 570.682828 
L 1127.088346 563.492649 
L 1127.808174 564.862207 
L 1128.528001 577.359423 
L 1129.247829 578.900176 
L 1129.967657 561.609506 
L 1130.687485 574.791502 
L 1131.407312 572.90836 
L 1132.12714 549.283484 
L 1132.846968 568.114907 
L 1133.566795 573.079555 
L 1134.286623 579.41376 
L 1135.006451 565.375791 
L 1135.726278 571.367607 
L 1136.446106 565.889375 
L 1137.165934 526.514583 
L 1137.885761 573.079555 
L 1138.605589 578.215397 
L 1139.325417 580.612124 
L 1140.045245 564.519817 
L 1140.765072 576.674644 
L 1141.4849 563.835038 
L 1142.204728 572.052386 
L 1142.924555 571.538802 
L 1143.644383 578.215397 
L 1144.364211 577.017034 
L 1145.084038 573.935528 
L 1145.803866 564.348622 
L 1146.523694 571.538802 
L 1147.243521 571.196412 
L 1147.963349 573.079555 
L 1148.683177 578.900176 
L 1149.403005 579.242566 
L 1150.122832 564.177428 
L 1150.84266 577.359423 
L 1151.562488 565.889375 
L 1152.282315 571.881191 
L 1153.002143 572.737165 
L 1153.721971 577.359423 
L 1154.441798 579.584955 
L 1155.161626 556.987248 
L 1155.881454 550.995432 
L 1156.601282 529.424893 
L 1157.321109 546.373174 
L 1158.040937 566.06057 
L 1158.760765 573.421944 
L 1159.480592 575.647476 
L 1160.20042 558.699196 
L 1160.920248 557.329638 
L 1161.640075 558.356806 
L 1162.359903 569.31327 
L 1163.079731 572.394776 
L 1163.799558 577.701813 
L 1164.519386 575.305086 
L 1165.239214 574.106723 
L 1165.959042 550.139458 
L 1166.678869 565.546986 
L 1167.398697 536.272683 
L 1168.118525 564.862207 
L 1168.838352 563.150259 
L 1169.55818 579.75615 
L 1170.278008 570.854023 
L 1170.997835 548.085121 
L 1172.437491 567.258933 
L 1173.157319 574.962697 
L 1173.877146 576.50345 
L 1174.596974 570.169244 
L 1175.316802 539.696578 
L 1176.036629 538.498215 
L 1176.756457 563.492649 
L 1177.476285 550.995432 
L 1178.196112 548.427511 
L 1178.91594 568.286102 
L 1179.635768 561.951896 
L 1180.355595 544.490031 
L 1181.075423 509.052718 
L 1181.795251 562.979064 
L 1182.515079 572.223581 
L 1183.234906 545.688395 
L 1183.954734 571.367607 
L 1184.674562 579.75615 
L 1185.394389 559.897559 
L 1186.114217 558.87039 
L 1186.834045 551.680211 
L 1187.553872 556.816053 
L 1188.2737 565.71818 
L 1188.993528 576.50345 
L 1189.713355 577.701813 
L 1190.433183 548.941095 
L 1191.153011 574.791502 
L 1191.872839 547.229147 
L 1192.592666 558.699196 
L 1193.312494 562.636675 
L 1194.032322 578.900176 
L 1194.752149 580.269734 
L 1195.471977 541.579721 
L 1196.191805 573.764334 
L 1196.911632 576.16106 
L 1197.63146 572.223581 
L 1198.351288 565.033401 
L 1199.071116 580.440929 
L 1199.790943 568.799686 
L 1200.510771 574.277918 
L 1201.230599 564.691012 
L 1201.950426 562.123091 
L 1202.670254 526.514583 
L 1203.390082 578.900176 
L 1204.109909 579.75615 
L 1204.829737 579.242566 
L 1205.549565 573.250749 
L 1206.269392 571.367607 
L 1206.98922 570.682828 
L 1207.709048 575.133892 
L 1208.428876 550.824237 
L 1209.148703 576.674644 
L 1209.868531 580.440929 
L 1210.588359 542.2645 
L 1211.308186 549.454679 
L 1212.028014 566.916544 
L 1212.747842 537.813436 
L 1213.467669 569.142075 
L 1214.187497 569.998049 
L 1214.907325 579.41376 
L 1215.627152 537.642241 
L 1216.34698 548.256316 
L 1217.066808 560.753533 
L 1217.786636 562.979064 
L 1218.506463 558.356806 
L 1219.226291 580.612124 
L 1219.946119 580.783318 
L 1220.665946 547.400342 
L 1221.385774 555.275301 
L 1222.105602 570.682828 
L 1222.825429 562.636675 
L 1223.545257 548.256316 
L 1224.265085 571.538802 
L 1224.984913 579.584955 
L 1225.70474 574.449113 
L 1226.424568 571.025218 
L 1227.144396 569.484465 
L 1227.864223 549.454679 
L 1228.584051 573.593139 
L 1229.303879 568.457296 
L 1230.023706 580.783318 
L 1230.743534 568.628491 
L 1231.463362 563.492649 
L 1232.183189 572.90836 
L 1232.903017 562.294285 
L 1233.622845 580.783318 
L 1234.342673 580.783318 
L 1234.342673 580.783318 
" style="fill:none;stroke:#1f77b4;stroke-linecap:square;stroke-width:1.5;"/>
   </g>
   <g id="line2d_17">
    <path clip-path="url(#pd41d5d0b54)" d="M 183.394238 580.783318 
L 184.833894 580.783318 
L 185.553721 572.100321 
L 186.273549 580.240631 
L 186.993377 578.069882 
L 187.713204 554.260424 
L 188.433032 580.783318 
L 189.872688 580.783318 
L 190.592515 570.206907 
L 191.312343 569.678086 
L 192.032171 577.081574 
L 192.751998 580.783318 
L 196.351137 580.783318 
L 197.070964 576.01854 
L 197.790792 577.563042 
L 198.51062 580.783318 
L 199.230448 580.783318 
L 199.950275 577.547429 
L 200.670103 580.783318 
L 205.708897 580.783318 
L 206.428724 580.256997 
L 207.148552 546.046123 
L 207.86838 580.783318 
L 208.588208 580.783318 
L 209.308035 554.889565 
L 210.027863 574.967045 
L 210.747691 568.555083 
L 211.467518 577.593344 
L 212.187346 564.833446 
L 212.907174 580.783318 
L 214.346829 580.783318 
L 215.066657 558.343487 
L 215.786485 564.6578 
L 216.506312 574.333111 
L 217.22614 580.783318 
L 217.945968 580.783318 
L 218.665795 576.488384 
L 219.385623 577.598891 
L 220.105451 580.783318 
L 220.825278 580.245031 
L 221.545106 580.783318 
L 222.984761 580.783318 
L 223.704589 575.894048 
L 224.424417 575.877408 
L 225.144245 580.783318 
L 225.864072 580.783318 
L 226.5839 578.063975 
L 227.303728 578.063975 
L 228.023555 579.14822 
L 228.743383 580.783318 
L 229.463211 577.531303 
L 230.183038 569.348057 
L 230.902866 580.783318 
L 231.622694 579.15577 
L 232.342521 580.783318 
L 233.062349 580.783318 
L 233.782177 558.94777 
L 234.502005 571.510195 
L 235.221832 564.896446 
L 235.94166 564.961979 
L 236.661488 527.318102 
L 237.381315 578.055501 
L 238.101143 575.850598 
L 238.820971 556.637668 
L 239.540798 571.971856 
L 240.260626 580.783318 
L 240.980454 580.783318 
L 241.700282 580.229315 
L 242.420109 580.783318 
L 243.139937 573.672744 
L 243.859765 578.007652 
L 244.579592 580.783318 
L 245.29942 580.783318 
L 246.019248 575.762005 
L 246.739075 580.783318 
L 247.458903 580.783318 
L 248.178731 578.551624 
L 248.898558 580.783318 
L 249.618386 569.589578 
L 250.338214 580.783318 
L 251.058042 580.783318 
L 251.777869 560.287095 
L 252.497697 580.783318 
L 257.536491 580.783318 
L 258.256319 575.390341 
L 258.976146 580.783318 
L 259.695974 580.783318 
L 260.415802 573.766439 
L 261.135629 578.09479 
L 261.855457 561.425917 
L 262.575285 580.783318 
L 263.295112 569.47748 
L 264.01494 580.783318 
L 270.493389 580.783318 
L 271.933045 551.131361 
L 272.652872 580.244192 
L 273.3727 580.783318 
L 274.092528 537.276569 
L 274.812355 580.783318 
L 284.170116 580.783318 
L 284.889943 575.803297 
L 285.609771 580.783318 
L 286.329599 556.377795 
L 287.049426 580.783318 
L 288.489082 580.783318 
L 289.928737 560.549537 
L 290.648565 546.4983 
L 291.368392 580.783318 
L 292.08822 580.783318 
L 292.808048 540.729516 
L 294.247703 580.783318 
L 294.967531 579.118227 
L 295.687359 580.783318 
L 296.407186 577.997552 
L 297.127014 580.783318 
L 297.846842 567.411639 
L 298.566669 578.026227 
L 299.286497 580.783318 
L 302.885636 580.783318 
L 303.605463 565.035952 
L 304.325291 580.240939 
L 305.045119 546.510968 
L 305.764946 580.783318 
L 306.484774 577.420061 
L 307.204602 580.783318 
L 308.644257 580.783318 
L 309.364085 527.936184 
L 310.083913 580.214284 
L 310.80374 580.783318 
L 315.842534 580.783318 
L 316.562362 575.661086 
L 317.282189 580.214181 
L 318.002017 579.645044 
L 318.721845 549.169126 
L 319.441673 580.783318 
L 320.881328 580.783318 
L 321.601156 578.509784 
L 322.320983 577.9414 
L 323.040811 579.078167 
L 323.760639 580.783318 
L 328.079605 580.783318 
L 328.799433 578.582302 
L 329.51926 580.783318 
L 330.239088 580.783318 
L 330.958916 579.682776 
L 331.678743 568.249928 
L 332.398571 571.519508 
L 333.118399 578.058668 
L 333.838226 575.874634 
L 334.558054 580.783318 
L 335.277882 580.783318 
L 335.99771 580.236163 
L 336.717537 580.783318 
L 337.437365 576.373205 
L 338.157193 580.783318 
L 341.036503 580.783318 
L 341.756331 573.809392 
L 342.476159 580.783318 
L 343.915814 580.783318 
L 344.635642 580.244243 
L 345.35547 580.783318 
L 346.075297 578.074761 
L 346.795125 580.783318 
L 348.954608 580.783318 
L 349.674436 569.364954 
L 350.394263 580.783318 
L 355.433057 580.783318 
L 356.152885 578.021177 
L 356.872713 577.474911 
L 357.59254 580.783318 
L 362.631334 580.783318 
L 363.351162 579.102254 
L 364.07099 580.783318 
L 366.9503 580.783318 
L 367.670128 576.984986 
L 368.389956 579.155462 
L 369.109783 580.783318 
L 371.269267 580.783318 
L 371.989094 577.583483 
L 372.708922 554.65133 
L 373.42875 580.783318 
L 377.027888 580.783318 
L 377.747716 575.956448 
L 378.467544 580.783318 
L 379.187371 580.783318 
L 379.907199 574.913564 
L 380.627027 580.783318 
L 381.346854 580.783318 
L 382.066682 571.26085 
L 382.78651 558.564226 
L 383.506337 576.022084 
L 384.226165 580.783318 
L 384.945993 574.969493 
L 385.66582 580.783318 
L 386.385648 578.130313 
L 387.105476 577.614504 
L 387.825304 580.783318 
L 392.864097 580.783318 
L 393.583925 545.792789 
L 394.303753 580.783318 
L 395.02358 569.272046 
L 395.743408 580.783318 
L 397.902891 580.783318 
L 398.622719 574.034171 
L 399.342547 544.507664 
L 400.062374 580.783318 
L 400.782202 557.338454 
L 401.50203 580.783318 
L 402.941685 580.783318 
L 403.661513 578.171999 
L 404.381341 580.783318 
L 405.101168 580.783318 
L 405.820996 577.080855 
L 406.540824 580.783318 
L 407.980479 580.783318 
L 408.700307 579.717357 
L 409.420134 580.783318 
L 410.139962 559.786762 
L 410.85979 580.246486 
L 411.579617 580.783318 
L 412.299445 580.783318 
L 413.019273 556.235498 
L 413.739101 580.783318 
L 414.458928 580.783318 
L 415.178756 555.900589 
L 415.898584 546.876349 
L 416.618411 567.953162 
L 417.338239 580.783318 
L 418.058067 577.591187 
L 418.777894 580.251296 
L 419.497722 577.597144 
L 420.21755 580.783318 
L 422.377033 580.783318 
L 423.096861 562.829029 
L 423.816688 565.997433 
L 424.536516 580.783318 
L 425.256344 570.178488 
L 425.976171 573.373599 
L 426.695999 554.887887 
L 427.415827 580.783318 
L 428.135654 569.230994 
L 428.855482 577.632684 
L 429.57531 570.328797 
L 430.295138 580.783318 
L 431.014965 575.061202 
L 431.734793 521.424792 
L 432.454621 580.783318 
L 433.174448 577.136459 
L 433.894276 579.220379 
L 434.614104 545.971722 
L 435.333931 577.664835 
L 436.053759 580.783318 
L 440.372725 580.783318 
L 441.092553 539.222711 
L 441.812381 577.666273 
L 442.532208 577.691028 
L 443.252036 580.783318 
L 443.971864 580.783318 
L 444.691691 576.649992 
L 445.411519 580.26768 
L 446.131347 580.783318 
L 447.571002 580.783318 
L 448.29083 575.036533 
L 449.010658 580.783318 
L 456.928762 580.783318 
L 457.64859 578.164381 
L 458.368418 580.783318 
L 460.527901 580.783318 
L 461.247728 580.256706 
L 461.967556 580.783318 
L 462.687384 578.679198 
L 463.407211 580.783318 
L 467.726178 580.783318 
L 468.446005 575.426977 
L 469.165833 580.783318 
L 469.885661 575.412939 
L 470.605488 580.783318 
L 477.803765 580.783318 
L 478.523593 577.667505 
L 479.243421 580.783318 
L 479.963248 580.783318 
L 480.683076 544.472912 
L 481.402904 580.783318 
L 492.920147 580.783318 
L 493.639975 570.448291 
L 494.359802 578.199562 
L 495.07963 576.120076 
L 495.799458 580.783318 
L 505.157218 580.783318 
L 505.877045 576.627805 
L 506.596873 580.783318 
L 513.075322 580.783318 
L 513.79515 577.140654 
L 514.514978 580.783318 
L 515.234806 580.262099 
L 515.954633 580.783318 
L 526.752049 580.783318 
L 527.471876 579.227928 
L 528.191704 575.582764 
L 528.911532 579.743208 
L 529.631359 579.223152 
L 530.351187 580.783318 
L 533.230498 580.783318 
L 533.950326 570.412683 
L 534.670153 580.783318 
L 536.109809 580.783318 
L 536.829636 579.749747 
L 537.549464 580.783318 
L 541.86843 580.783318 
L 542.588258 573.975639 
L 543.308086 580.783318 
L 550.506363 580.783318 
L 551.22619 573.988325 
L 551.946018 577.116566 
L 552.665846 580.783318 
L 564.183089 580.783318 
L 564.902916 579.743071 
L 565.622744 580.783318 
L 576.42016 580.783318 
L 577.139987 534.484674 
L 577.859815 580.783318 
L 578.579643 541.106881 
L 579.29947 544.761289 
L 580.019298 580.783318 
L 580.739126 555.722872 
L 581.458953 550.55755 
L 582.178781 522.644486 
L 582.898609 572.996611 
L 583.618437 501.089115 
L 584.338264 565.157004 
L 585.058092 572.970161 
L 585.77792 451.852033 
L 586.497747 535.94666 
L 587.217575 522.29744 
L 587.937403 489.69494 
L 588.65723 557.169742 
L 589.377058 538.803627 
L 590.096886 577.110095 
L 591.536541 522.880461 
L 592.256369 533.997111 
L 592.976197 532.953525 
L 593.696024 557.031844 
L 594.415852 575.505213 
L 595.13568 568.115866 
L 595.855507 541.6886 
L 596.575335 551.159779 
L 597.295163 543.660422 
L 598.01499 558.958487 
L 598.734818 571.679866 
L 599.454646 571.144369 
L 600.174473 549.724482 
L 600.894301 571.728177 
L 601.614129 508.325894 
L 602.333957 545.868064 
L 603.053784 513.595799 
L 603.773612 567.837297 
L 604.49344 540.327003 
L 605.213267 569.994968 
L 605.933095 478.182915 
L 606.652923 513.450283 
L 607.37275 556.561144 
L 608.092578 543.292524 
L 608.812406 543.828107 
L 609.532234 565.787001 
L 610.252061 565.251418 
L 610.971889 474.544719 
L 611.691717 523.882703 
L 612.411544 509.668335 
L 613.131372 557.003751 
L 613.8512 548.406967 
L 614.571027 550.565391 
L 615.290855 577.006077 
L 616.010683 539.565101 
L 616.73051 524.911207 
L 617.450338 567.732526 
L 618.170166 542.089641 
L 618.889994 551.233221 
L 619.609821 576.405526 
L 620.329649 535.363725 
L 621.049477 580.783318 
L 622.489132 513.040049 
L 623.20896 556.172104 
L 624.648615 578.013901 
L 625.368443 569.705648 
L 626.088271 513.86906 
L 626.808098 532.779797 
L 627.527926 555.739923 
L 628.247754 528.587922 
L 628.967581 567.443276 
L 629.687409 563.55243 
L 630.407237 579.671648 
L 631.127064 519.539766 
L 631.846892 554.143498 
L 632.56672 476.173756 
L 633.286547 504.58231 
L 634.006375 484.508339 
L 634.726203 460.578719 
L 635.446031 569.653263 
L 636.165858 454.769945 
L 636.885686 501.947109 
L 637.605514 497.26168 
L 639.045169 534.211362 
L 639.764997 576.294455 
L 640.484824 580.783318 
L 641.204652 529.373535 
L 641.92448 524.899754 
L 642.644307 483.106716 
L 643.364135 548.543529 
L 644.083963 487.344625 
L 644.803791 513.3942 
L 645.523618 580.783318 
L 646.243446 463.1955 
L 646.963274 532.042187 
L 647.683101 494.216125 
L 648.402929 534.77247 
L 649.122757 505.11541 
L 649.842584 569.489601 
L 650.562412 573.442402 
L 651.28224 557.577151 
L 652.002068 504.2965 
L 652.721895 515.299101 
L 653.441723 535.608448 
L 654.161551 453.809884 
L 654.881378 568.932464 
L 655.601206 519.271744 
L 656.321034 520.134788 
L 657.040861 562.712274 
L 657.760689 535.780926 
L 658.480517 527.051107 
L 659.920172 575.639207 
L 660.64 577.925479 
L 661.359828 539.752456 
L 662.079655 514.094147 
L 662.799483 504.64055 
L 663.519311 453.116135 
L 664.239138 551.570492 
L 664.958966 500.018446 
L 665.678794 576.200914 
L 666.398621 505.044501 
L 667.118449 494.627438 
L 667.838277 554.097446 
L 668.558104 527.597424 
L 669.277932 513.097297 
L 669.99776 580.783318 
L 670.717588 555.10931 
L 671.437415 541.476661 
L 672.157243 477.892363 
L 672.877071 514.494588 
L 673.596898 562.81369 
L 674.316726 441.944599 
L 675.036554 572.069591 
L 675.756381 544.766579 
L 676.476209 493.359826 
L 677.196037 497.691139 
L 677.915865 474.770627 
L 678.635692 513.323 
L 679.35552 522.29417 
L 680.075348 572.096811 
L 680.795175 565.726706 
L 681.515003 507.204945 
L 682.234831 521.349329 
L 682.954658 547.474504 
L 683.674486 511.905507 
L 684.394314 520.376823 
L 685.114141 568.702019 
L 685.833969 552.59362 
L 686.553797 500.447443 
L 687.273625 501.72031 
L 687.993452 486.083176 
L 688.71328 505.720584 
L 690.152935 572.150224 
L 690.872763 573.876843 
L 691.592591 356.834393 
L 692.312418 460.248656 
L 693.032246 359.510338 
L 693.752074 535.326507 
L 694.471902 493.249251 
L 695.191729 538.743931 
L 695.911557 549.685689 
L 696.631385 535.888557 
L 697.351212 442.47847 
L 698.07104 570.328386 
L 699.510695 540.28227 
L 700.230523 531.943819 
L 700.950351 578.400904 
L 701.670178 476.624581 
L 703.109834 569.304539 
L 703.829662 564.471369 
L 704.549489 516.743814 
L 705.269317 556.013321 
L 705.989145 546.346981 
L 706.708972 558.442575 
L 707.4288 562.572648 
L 708.148628 432.481004 
L 708.868455 490.721184 
L 709.588283 580.783318 
L 710.308111 580.783318 
L 711.027938 577.725352 
L 711.747766 580.783318 
L 713.187422 580.783318 
L 713.907249 575.162344 
L 714.627077 580.783318 
L 718.946043 580.783318 
L 719.665871 569.32813 
L 720.385699 580.783318 
L 731.183114 580.783318 
L 731.902942 577.633249 
L 732.622769 568.153939 
L 733.342597 580.783318 
L 739.101219 580.783318 
L 739.821046 568.268297 
L 740.540874 580.783318 
L 749.178806 580.783318 
L 749.898634 568.121755 
L 750.618462 580.783318 
L 757.816739 580.783318 
L 758.536566 578.106449 
L 759.256394 580.783318 
L 761.415877 580.783318 
L 762.135705 579.439097 
L 762.855533 580.783318 
L 763.57536 580.783318 
L 764.295188 579.461832 
L 765.015016 580.783318 
L 767.894326 580.783318 
L 768.614154 577.585828 
L 769.333982 580.783318 
L 781.571053 580.783318 
L 782.29088 575.566946 
L 783.010708 580.783318 
L 789.489157 580.783318 
L 790.208985 579.520072 
L 790.928813 580.783318 
L 802.446056 580.783318 
L 803.165883 573.91983 
L 803.885711 580.783318 
L 804.605539 580.16837 
L 805.325366 580.783318 
L 811.083988 580.783318 
L 811.803816 568.221048 
L 812.523643 580.783318 
L 838.43744 580.783318 
L 839.157268 383.038403 
L 839.877096 508.84131 
L 840.596924 533.636318 
L 841.316751 563.991236 
L 842.036579 579.49162 
L 842.756407 399.473698 
L 843.476234 286.284917 
L 844.196062 551.990073 
L 844.91589 470.658529 
L 845.635717 450.380545 
L 846.355545 561.41657 
L 847.075373 553.66987 
L 847.7952 427.816803 
L 848.515028 478.958222 
L 849.234856 470.451041 
L 849.954684 491.086411 
L 850.674511 396.315223 
L 851.394339 551.113625 
L 852.114167 537.568765 
L 852.833994 464.741149 
L 853.553822 265.660863 
L 854.27365 401.054664 
L 854.993477 418.749747 
L 855.713305 519.544731 
L 856.433133 580.783318 
L 857.152961 563.378667 
L 857.872788 378.802189 
L 858.592616 480.521898 
L 859.312444 396.677454 
L 860.032271 516.796781 
L 860.752099 500.267072 
L 861.471927 576.238046 
L 862.191754 499.617748 
L 862.911582 281.276049 
L 863.63141 526.437066 
L 864.351237 447.476072 
L 865.071065 389.558184 
L 866.510721 551.257873 
L 867.230548 514.515098 
L 867.950376 383.048383 
L 868.670204 384.522456 
L 869.390031 508.296722 
L 870.109859 429.415061 
L 870.829687 468.908953 
L 872.269342 559.565766 
L 872.98917 455.863845 
L 873.708997 456.623402 
L 874.428825 427.103777 
L 875.148653 458.934582 
L 875.868481 534.158702 
L 876.588308 479.869766 
L 877.308136 558.42905 
L 878.027964 487.743474 
L 878.747791 538.788031 
L 879.467619 518.813798 
L 880.187447 466.022062 
L 880.907274 438.932153 
L 881.627102 570.513551 
L 882.34693 525.583317 
L 883.066758 579.489771 
L 883.786585 512.08593 
L 884.506413 428.122763 
L 885.226241 497.003176 
L 885.946068 435.246416 
L 886.665896 570.387825 
L 887.385724 576.885008 
L 888.105551 444.428754 
L 889.545207 482.209347 
L 890.265034 454.458576 
L 890.984862 458.298816 
L 891.70469 569.938336 
L 892.424518 571.852157 
L 893.144345 297.330967 
L 893.864173 220.598638 
L 894.584001 396.805114 
L 895.303828 388.823364 
L 896.023656 370.718938 
L 896.743484 561.286325 
L 897.463311 552.481231 
L 898.183139 460.173193 
L 898.902967 408.376133 
L 899.622795 472.712062 
L 900.342622 351.09865 
L 901.782278 557.476043 
L 902.502105 577.546197 
L 903.941761 304.472031 
L 904.661588 454.102901 
L 905.381416 484.490723 
L 906.101244 493.546719 
L 906.821071 515.03036 
L 907.540899 531.305844 
L 908.980555 360.23997 
L 909.700382 432.718349 
L 911.140038 494.712248 
L 911.859865 565.481795 
L 912.579693 553.368088 
L 913.299521 392.540858 
L 914.019348 385.914149 
L 914.739176 386.916478 
L 915.459004 477.048339 
L 916.178831 453.904778 
L 916.898659 543.803643 
L 917.618487 546.991546 
L 918.338315 458.933486 
L 919.058142 438.060738 
L 919.77797 468.700438 
L 920.497798 469.461673 
L 921.217625 476.149087 
L 921.937453 559.202508 
L 922.657281 565.742148 
L 923.377108 479.561255 
L 924.096936 435.806856 
L 924.816764 489.722058 
L 925.536592 441.335505 
L 926.256419 441.480781 
L 926.976247 499.191832 
L 927.696075 572.159828 
L 928.415902 369.378346 
L 929.13573 463.58329 
L 929.855558 445.01383 
L 930.575385 401.528292 
L 931.295213 382.107103 
L 932.015041 552.687692 
L 932.734868 489.807004 
L 933.454696 452.638142 
L 934.174524 316.590445 
L 934.894352 502.880291 
L 935.614179 389.057936 
L 936.334007 421.648075 
L 937.053835 538.3023 
L 937.773662 477.615131 
L 938.49349 479.142427 
L 939.933145 332.757598 
L 940.652973 512.726558 
L 941.372801 464.546774 
L 942.092628 529.122632 
L 942.812456 511.449239 
L 943.532284 470.864648 
L 944.252112 407.443276 
L 944.971939 448.599059 
L 945.691767 550.428572 
L 946.411595 404.710973 
L 947.131422 485.497108 
L 947.85125 506.211502 
L 948.571078 437.266788 
L 949.290905 463.649131 
L 950.010733 426.91322 
L 950.730561 406.493368 
L 951.450389 467.548794 
L 952.170216 515.012367 
L 952.890044 570.612553 
L 953.609872 313.336443 
L 954.329699 298.839244 
L 955.049527 412.890316 
L 955.769355 472.311586 
L 956.489182 454.992327 
L 957.20901 553.585266 
L 957.928838 562.424633 
L 958.648665 372.159148 
L 959.368493 538.833312 
L 960.088321 376.499294 
L 960.808149 449.11189 
L 961.527976 462.271185 
L 962.247804 544.891072 
L 962.967632 577.397257 
L 963.687459 390.866711 
L 964.407287 465.909056 
L 965.127115 576.790509 
L 965.846942 495.328805 
L 966.56677 499.303434 
L 967.286598 559.5853 
L 968.006426 531.100462 
L 968.726253 511.946731 
L 969.446081 420.622447 
L 970.165909 350.287615 
L 970.885736 533.366122 
L 971.605564 297.615835 
L 972.325392 544.051687 
L 973.045219 542.715992 
L 973.765047 276.826835 
L 974.484875 401.729822 
L 975.204702 369.486472 
L 975.92453 350.208642 
L 976.644358 310.545815 
L 977.364186 506.21145 
L 978.084013 580.099173 
L 978.803841 240.411178 
L 979.523669 258.944721 
L 980.243496 429.875831 
L 980.963324 360.339605 
L 981.683152 422.35766 
L 982.402979 509.526363 
L 983.122807 580.783318 
L 983.842635 378.684989 
L 984.562462 344.722381 
L 986.002118 95.01546 
L 986.721946 408.68817 
L 987.441773 454.346066 
L 988.161601 574.461456 
L 988.881429 301.901524 
L 989.601256 238.54875 
L 990.321084 358.204396 
L 991.040912 292.50396 
L 991.760739 451.112232 
L 992.480567 518.736401 
L 993.200395 468.541141 
L 993.920223 319.199658 
L 994.64005 125.066661 
L 995.359878 221.114705 
L 996.079706 280.602775 
L 996.799533 325.69013 
L 997.519361 492.378007 
L 998.239189 551.089931 
L 998.959016 262.759112 
L 999.678844 95.331109 
L 1000.398672 358.966161 
L 1001.118499 406.217059 
L 1001.838327 400.842126 
L 1002.558155 396.828568 
L 1003.277983 564.729086 
L 1003.99781 330.341492 
L 1004.717638 376.386853 
L 1005.437466 196.686686 
L 1006.157293 350.008139 
L 1006.877121 285.720334 
L 1007.596949 482.654573 
L 1008.316776 536.117821 
L 1009.036604 219.329982 
L 1010.476259 451.997497 
L 1011.196087 427.844349 
L 1011.915915 437.261515 
L 1012.635743 580.783318 
L 1013.35557 502.92951 
L 1014.075398 463.192726 
L 1014.795226 580.783318 
L 1100.454721 580.783318 
L 1101.174549 510.418595 
L 1101.894377 578.739099 
L 1102.614204 538.806777 
L 1103.334032 573.335867 
L 1104.05386 576.044031 
L 1104.773688 536.399539 
L 1105.493515 427.534709 
L 1106.933171 571.187784 
L 1107.652998 552.706677 
L 1108.372826 549.282697 
L 1109.092654 544.489124 
L 1109.812481 499.172384 
L 1110.532309 548.753996 
L 1111.252137 528.307112 
L 1111.971964 571.272868 
L 1112.691792 555.70113 
L 1113.41162 567.903276 
L 1114.131448 577.393833 
L 1114.851275 475.714903 
L 1115.571103 503.53429 
L 1116.290931 443.184169 
L 1117.010758 418.409977 
L 1117.730586 508.42053 
L 1119.170241 566.581276 
L 1119.890069 515.542506 
L 1120.609897 535.947208 
L 1121.329724 535.202494 
L 1122.049552 522.791884 
L 1122.76938 563.936043 
L 1123.489208 573.370517 
L 1124.209035 557.197133 
L 1124.928863 467.833131 
L 1125.648691 463.817587 
L 1126.368518 541.88027 
L 1127.088346 514.062082 
L 1127.808174 519.42017 
L 1128.528001 567.586942 
L 1129.247829 573.525311 
L 1129.967657 506.569162 
L 1130.687485 557.725611 
L 1131.407312 550.661602 
L 1132.12714 460.148404 
L 1132.846968 532.365916 
L 1133.566795 551.340304 
L 1134.286623 575.549005 
L 1135.006451 521.897289 
L 1135.726278 545.070467 
L 1136.446106 524.074629 
L 1137.165934 375.506399 
L 1137.885761 551.582202 
L 1138.605589 571.049613 
L 1139.325417 580.134405 
L 1140.045245 518.835642 
L 1140.765072 565.145294 
L 1141.4849 516.084953 
L 1142.204728 547.439888 
L 1142.924555 545.350936 
L 1143.644383 570.94099 
L 1144.364211 566.347903 
L 1145.084038 554.221426 
L 1145.803866 516.921377 
L 1146.523694 544.653899 
L 1147.243521 543.283177 
L 1147.963349 550.612298 
L 1148.683177 573.40818 
L 1149.403005 574.749114 
L 1150.122832 516.124962 
L 1150.84266 567.474981 
L 1151.562488 523.419296 
L 1152.282315 546.728232 
L 1153.002143 549.898159 
L 1153.721971 567.640697 
L 1154.441798 576.183401 
L 1155.161626 488.768674 
L 1155.881454 465.402919 
L 1156.601282 381.94404 
L 1158.040937 524.105154 
L 1158.760765 552.444236 
L 1159.480592 561.011865 
L 1160.20042 495.569522 
L 1160.920248 490.63206 
L 1161.640075 494.214739 
L 1162.359903 537.050318 
L 1163.079731 548.631712 
L 1163.799558 568.972524 
L 1164.519386 559.786351 
L 1165.239214 555.195935 
L 1165.959042 463.641034 
L 1166.678869 522.483015 
L 1167.398697 410.067229 
L 1168.118525 519.394696 
L 1168.838352 512.793769 
L 1169.55818 576.822762 
L 1170.278008 542.801777 
L 1170.997835 454.986814 
L 1172.437491 528.842917 
L 1173.157319 558.371015 
L 1173.877146 564.303684 
L 1174.596974 539.913825 
L 1175.316802 423.392344 
L 1176.036629 418.040642 
L 1176.756457 513.607337 
L 1177.476285 464.12204 
L 1178.196112 454.708914 
L 1178.91594 532.087913 
L 1179.635768 507.406681 
L 1180.355595 438.277727 
L 1181.075423 299.972365 
L 1181.795251 510.839307 
L 1182.515079 547.093048 
L 1183.234906 441.105522 
L 1183.954734 543.308788 
L 1184.674562 576.695188 
L 1185.394389 497.887739 
L 1186.114217 494.133027 
L 1186.834045 465.776569 
L 1187.553872 485.489473 
L 1188.2737 520.980747 
L 1188.993528 563.793951 
L 1189.713355 568.550974 
L 1190.433183 455.044746 
L 1191.153011 557.122834 
L 1191.872839 450.076401 
L 1192.592666 494.732534 
L 1193.312494 510.261832 
L 1194.032322 573.465051 
L 1194.752149 578.787427 
L 1195.471977 427.3718 
L 1196.191805 553.290657 
L 1196.911632 562.615532 
L 1197.63146 546.667629 
L 1198.351288 518.010449 
L 1199.071116 579.418691 
L 1199.790943 533.021353 
L 1200.510771 554.238032 
L 1201.230599 515.067166 
L 1201.950426 503.567296 
L 1202.670254 356.246425 
L 1203.390082 572.880147 
L 1204.109909 576.472498 
L 1204.829737 574.317087 
L 1205.549565 549.336349 
L 1206.269392 541.701526 
L 1206.98922 538.7774 
L 1207.709048 557.123519 
L 1208.428876 456.069655 
L 1209.148703 563.67973 
L 1209.868531 579.358019 
L 1210.588359 420.849331 
L 1211.308186 449.745019 
L 1212.028014 522.929747 
L 1212.747842 400.365674 
L 1213.467669 531.715479 
L 1214.187497 535.323409 
L 1214.907325 575.010631 
L 1215.627152 398.67189 
L 1216.34698 444.739131 
L 1217.066808 498.124399 
L 1217.786636 507.595372 
L 1218.506463 487.103292 
L 1219.226291 580.068204 
L 1219.946119 580.783318 
L 1220.665946 440.274372 
L 1221.385774 473.89197 
L 1222.105602 538.595591 
L 1222.825429 503.970391 
L 1223.545257 443.207109 
L 1224.265085 541.682711 
L 1224.984913 575.714721 
L 1225.70474 554.018132 
L 1226.424568 539.318221 
L 1227.144396 532.781269 
L 1227.864223 448.507538 
L 1228.584051 550.44148 
L 1229.303879 528.768738 
L 1230.023706 580.783318 
L 1230.743534 529.491163 
L 1231.463362 507.955017 
L 1232.183189 547.503744 
L 1232.903017 502.831706 
L 1233.622845 580.783318 
L 1234.342673 580.783318 
L 1234.342673 580.783318 
" style="fill:none;stroke:#ff7f0e;stroke-linecap:square;stroke-width:1.5;"/>
   </g>
   <g id="patch_3">
    <path d="M 172.8 594.6624 
L 172.8 80.1792 
" style="fill:none;stroke:#000000;stroke-linecap:square;stroke-linejoin:miter;stroke-width:0.8;"/>
   </g>
   <g id="patch_4">
    <path d="M 1244.16 594.6624 
L 1244.16 80.1792 
" style="fill:none;stroke:#000000;stroke-linecap:square;stroke-linejoin:miter;stroke-width:0.8;"/>
   </g>
   <g id="patch_5">
    <path d="M 172.8 594.6624 
L 1244.16 594.6624 
" style="fill:none;stroke:#000000;stroke-linecap:square;stroke-linejoin:miter;stroke-width:0.8;"/>
   </g>
   <g id="patch_6">
    <path d="M 172.8 80.1792 
L 1244.16 80.1792 
" style="fill:none;stroke:#000000;stroke-linecap:square;stroke-linejoin:miter;stroke-width:0.8;"/>
   </g>
   <g id="text_18">
    <!-- Łączna sprzedaż -->
    <defs>
     <path d="M 10.296875 72.90625 
L 20.21875 72.90625 
L 20.21875 42.828125 
L 35.5 53.515625 
L 39.40625 48.09375 
L 20.21875 34.71875 
L 20.21875 8.296875 
L 55.71875 8.296875 
L 55.71875 0 
L 10.296875 0 
L 10.296875 27.875 
L 3.078125 22.703125 
L -0.6875 28.078125 
L 10.296875 35.796875 
z
" id="DejaVuSans-321"/>
     <path d="M 34.28125 27.484375 
Q 23.390625 27.484375 19.1875 25 
Q 14.984375 22.515625 14.984375 16.5 
Q 14.984375 11.71875 18.140625 8.90625 
Q 21.296875 6.109375 26.703125 6.109375 
Q 34.1875 6.109375 38.703125 11.40625 
Q 43.21875 16.703125 43.21875 25.484375 
L 43.21875 27.484375 
z
M 52.203125 31.203125 
L 52.203125 0 
L 43.21875 0 
L 43.21875 8.296875 
Q 40.140625 3.328125 35.546875 0.953125 
Q 30.953125 -1.421875 24.3125 -1.421875 
Q 15.921875 -1.421875 10.953125 3.296875 
Q 6 8.015625 6 15.921875 
Q 6 25.140625 12.171875 29.828125 
Q 18.359375 34.515625 30.609375 34.515625 
L 43.21875 34.515625 
L 43.21875 35.40625 
Q 43.21875 41.609375 39.140625 45 
Q 35.0625 48.390625 27.6875 48.390625 
Q 23 48.390625 18.546875 47.265625 
Q 14.109375 46.140625 10.015625 43.890625 
L 10.015625 52.203125 
Q 14.9375 54.109375 19.578125 55.046875 
Q 24.21875 56 28.609375 56 
Q 40.484375 56 46.34375 49.84375 
Q 52.203125 43.703125 52.203125 31.203125 
z
M 43.3125 0 
L 49.125 0 
Q 46.921875 -2.984375 45.875 -5.125 
Q 44.828125 -7.28125 44.828125 -8.796875 
Q 44.828125 -11.03125 46.171875 -12.15625 
Q 47.515625 -13.28125 50.140625 -13.28125 
Q 51.703125 -13.28125 53.21875 -12.90625 
Q 54.734375 -12.546875 56.25 -11.8125 
L 56.25 -18.3125 
Q 54.390625 -18.796875 52.734375 -19.03125 
Q 51.078125 -19.28125 49.609375 -19.28125 
Q 43.65625 -19.28125 40.84375 -17.15625 
Q 38.03125 -15.046875 38.03125 -10.5 
Q 38.03125 -8.15625 39.328125 -5.59375 
Q 40.625 -3.03125 43.3125 0 
z
" id="DejaVuSans-261"/>
     <path d="M 21.53125 75.984375 
L 30.515625 75.984375 
L 30.515625 64.59375 
L 21.53125 64.59375 
z
M 26.125 56 
z
M 5.515625 54.6875 
L 48.1875 54.6875 
L 48.1875 46.484375 
L 14.40625 7.171875 
L 48.1875 7.171875 
L 48.1875 0 
L 4.296875 0 
L 4.296875 8.203125 
L 38.09375 47.515625 
L 5.515625 47.515625 
z
" id="DejaVuSans-380"/>
    </defs>
    <g transform="translate(658.719375 74.1792)scale(0.12 -0.12)">
     <use xlink:href="#DejaVuSans-321"/>
     <use x="56.201172" xlink:href="#DejaVuSans-261"/>
     <use x="117.480469" xlink:href="#DejaVuSans-99"/>
     <use x="172.460938" xlink:href="#DejaVuSans-122"/>
     <use x="224.951172" xlink:href="#DejaVuSans-110"/>
     <use x="288.330078" xlink:href="#DejaVuSans-97"/>
     <use x="349.609375" xlink:href="#DejaVuSans-32"/>
     <use x="381.396484" xlink:href="#DejaVuSans-115"/>
     <use x="433.496094" xlink:href="#DejaVuSans-112"/>
     <use x="496.972656" xlink:href="#DejaVuSans-114"/>
     <use x="538.085938" xlink:href="#DejaVuSans-122"/>
     <use x="590.576172" xlink:href="#DejaVuSans-101"/>
     <use x="652.099609" xlink:href="#DejaVuSans-100"/>
     <use x="715.576172" xlink:href="#DejaVuSans-97"/>
     <use x="776.855469" xlink:href="#DejaVuSans-380"/>
    </g>
   </g>
   <g id="legend_1">
    <g id="patch_7">
     <path d="M 1183.792812 117.53545 
L 1237.16 117.53545 
Q 1239.16 117.53545 1239.16 115.53545 
L 1239.16 87.1792 
Q 1239.16 85.1792 1237.16 85.1792 
L 1183.792812 85.1792 
Q 1181.792812 85.1792 1181.792812 87.1792 
L 1181.792812 115.53545 
Q 1181.792812 117.53545 1183.792812 117.53545 
z
" style="fill:#ffffff;opacity:0.8;stroke:#cccccc;stroke-linejoin:miter;"/>
    </g>
    <g id="line2d_18">
     <path d="M 1185.792812 93.277637 
L 1205.792812 93.277637 
" style="fill:none;stroke:#1f77b4;stroke-linecap:square;stroke-width:1.5;"/>
    </g>
    <g id="line2d_19"/>
    <g id="text_19">
     <!-- USD -->
     <defs>
      <path d="M 8.6875 72.90625 
L 18.609375 72.90625 
L 18.609375 28.609375 
Q 18.609375 16.890625 22.84375 11.734375 
Q 27.09375 6.59375 36.625 6.59375 
Q 46.09375 6.59375 50.34375 11.734375 
Q 54.59375 16.890625 54.59375 28.609375 
L 54.59375 72.90625 
L 64.5 72.90625 
L 64.5 27.390625 
Q 64.5 13.140625 57.4375 5.859375 
Q 50.390625 -1.421875 36.625 -1.421875 
Q 22.796875 -1.421875 15.734375 5.859375 
Q 8.6875 13.140625 8.6875 27.390625 
z
" id="DejaVuSans-85"/>
      <path d="M 53.515625 70.515625 
L 53.515625 60.890625 
Q 47.90625 63.578125 42.921875 64.890625 
Q 37.9375 66.21875 33.296875 66.21875 
Q 25.25 66.21875 20.875 63.09375 
Q 16.5 59.96875 16.5 54.203125 
Q 16.5 49.359375 19.40625 46.890625 
Q 22.3125 44.4375 30.421875 42.921875 
L 36.375 41.703125 
Q 47.40625 39.59375 52.65625 34.296875 
Q 57.90625 29 57.90625 20.125 
Q 57.90625 9.515625 50.796875 4.046875 
Q 43.703125 -1.421875 29.984375 -1.421875 
Q 24.8125 -1.421875 18.96875 -0.25 
Q 13.140625 0.921875 6.890625 3.21875 
L 6.890625 13.375 
Q 12.890625 10.015625 18.65625 8.296875 
Q 24.421875 6.59375 29.984375 6.59375 
Q 38.421875 6.59375 43.015625 9.90625 
Q 47.609375 13.234375 47.609375 19.390625 
Q 47.609375 24.75 44.3125 27.78125 
Q 41.015625 30.8125 33.5 32.328125 
L 27.484375 33.5 
Q 16.453125 35.6875 11.515625 40.375 
Q 6.59375 45.0625 6.59375 53.421875 
Q 6.59375 63.09375 13.40625 68.65625 
Q 20.21875 74.21875 32.171875 74.21875 
Q 37.3125 74.21875 42.625 73.28125 
Q 47.953125 72.359375 53.515625 70.515625 
z
" id="DejaVuSans-83"/>
      <path d="M 19.671875 64.796875 
L 19.671875 8.109375 
L 31.59375 8.109375 
Q 46.6875 8.109375 53.6875 14.9375 
Q 60.6875 21.78125 60.6875 36.53125 
Q 60.6875 51.171875 53.6875 57.984375 
Q 46.6875 64.796875 31.59375 64.796875 
z
M 9.8125 72.90625 
L 30.078125 72.90625 
Q 51.265625 72.90625 61.171875 64.09375 
Q 71.09375 55.28125 71.09375 36.53125 
Q 71.09375 17.671875 61.125 8.828125 
Q 51.171875 0 30.078125 0 
L 9.8125 0 
z
" id="DejaVuSans-68"/>
     </defs>
     <g transform="translate(1213.792812 96.777637)scale(0.1 -0.1)">
      <use xlink:href="#DejaVuSans-85"/>
      <use x="73.193359" xlink:href="#DejaVuSans-83"/>
      <use x="136.669922" xlink:href="#DejaVuSans-68"/>
     </g>
    </g>
    <g id="line2d_20">
     <path d="M 1185.792812 107.955762 
L 1205.792812 107.955762 
" style="fill:none;stroke:#ff7f0e;stroke-linecap:square;stroke-width:1.5;"/>
    </g>
    <g id="line2d_21"/>
    <g id="text_20">
     <!-- PLN -->
     <defs>
      <path d="M 19.671875 64.796875 
L 19.671875 37.40625 
L 32.078125 37.40625 
Q 38.96875 37.40625 42.71875 40.96875 
Q 46.484375 44.53125 46.484375 51.125 
Q 46.484375 57.671875 42.71875 61.234375 
Q 38.96875 64.796875 32.078125 64.796875 
z
M 9.8125 72.90625 
L 32.078125 72.90625 
Q 44.34375 72.90625 50.609375 67.359375 
Q 56.890625 61.8125 56.890625 51.125 
Q 56.890625 40.328125 50.609375 34.8125 
Q 44.34375 29.296875 32.078125 29.296875 
L 19.671875 29.296875 
L 19.671875 0 
L 9.8125 0 
z
" id="DejaVuSans-80"/>
      <path d="M 9.8125 72.90625 
L 19.671875 72.90625 
L 19.671875 8.296875 
L 55.171875 8.296875 
L 55.171875 0 
L 9.8125 0 
z
" id="DejaVuSans-76"/>
      <path d="M 9.8125 72.90625 
L 23.09375 72.90625 
L 55.421875 11.921875 
L 55.421875 72.90625 
L 64.984375 72.90625 
L 64.984375 0 
L 51.703125 0 
L 19.390625 60.984375 
L 19.390625 0 
L 9.8125 0 
z
" id="DejaVuSans-78"/>
     </defs>
     <g transform="translate(1213.792812 111.455762)scale(0.1 -0.1)">
      <use xlink:href="#DejaVuSans-80"/>
      <use x="60.302734" xlink:href="#DejaVuSans-76"/>
      <use x="116.015625" xlink:href="#DejaVuSans-78"/>
     </g>
    </g>
   </g>
  </g>
 </g>
 <defs>
  <clipPath id="pd41d5d0b54">
   <rect height="514.4832" width="1071.36" x="172.8" y="80.1792"/>
  </clipPath>
 </defs>
</svg>
