<?xml version="1.0" encoding="utf-8" standalone="no"?>
<!DOCTYPE svg PUBLIC "-//W3C//DTD SVG 1.1//EN"
  "http://www.w3.org/Graphics/SVG/1.1/DTD/svg11.dtd">
<!-- Created with matplotlib (https://matplotlib.org/) -->
<svg height="345.6pt" version="1.1" viewBox="0 0 460.8 345.6" width="460.8pt" xmlns="http://www.w3.org/2000/svg" xmlns:xlink="http://www.w3.org/1999/xlink">
 <defs>
  <style type="text/css">
*{stroke-linecap:butt;stroke-linejoin:round;}
  </style>
 </defs>
 <g id="figure_1">
  <g id="patch_1">
   <path d="M 0 345.6 
L 460.8 345.6 
L 460.8 0 
L 0 0 
z
" style="fill:#ffffff;"/>
  </g>
  <g id="axes_1">
   <g id="patch_2">
    <path d="M 57.6 276.48 
L 414.72 276.48 
L 414.72 41.472 
L 57.6 41.472 
z
" style="fill:#ffffff;"/>
   </g>
   <g id="matplotlib.axis_1">
    <g id="xtick_1">
     <g id="line2d_1">
      <path clip-path="url(#pd01cb2ceba)" d="M 73.832727 276.48 
L 73.832727 41.472 
" style="fill:none;stroke:#b0b0b0;stroke-linecap:square;stroke-width:0.8;"/>
     </g>
     <g id="line2d_2">
      <defs>
       <path d="M 0 0 
L 0 3.5 
" id="mb1a465bb36" style="stroke:#000000;stroke-width:0.8;"/>
      </defs>
      <g>
       <use style="stroke:#000000;stroke-width:0.8;" x="73.832727" xlink:href="#mb1a465bb36" y="276.48"/>
      </g>
     </g>
     <g id="text_1">
      <!-- 2014-03-25 -->
      <defs>
       <path d="M 19.1875 8.296875 
L 53.609375 8.296875 
L 53.609375 0 
L 7.328125 0 
L 7.328125 8.296875 
Q 12.9375 14.109375 22.625 23.890625 
Q 32.328125 33.6875 34.8125 36.53125 
Q 39.546875 41.84375 41.421875 45.53125 
Q 43.3125 49.21875 43.3125 52.78125 
Q 43.3125 58.59375 39.234375 62.25 
Q 35.15625 65.921875 28.609375 65.921875 
Q 23.96875 65.921875 18.8125 64.3125 
Q 13.671875 62.703125 7.8125 59.421875 
L 7.8125 69.390625 
Q 13.765625 71.78125 18.9375 73 
Q 24.125 74.21875 28.421875 74.21875 
Q 39.75 74.21875 46.484375 68.546875 
Q 53.21875 62.890625 53.21875 53.421875 
Q 53.21875 48.921875 51.53125 44.890625 
Q 49.859375 40.875 45.40625 35.40625 
Q 44.1875 33.984375 37.640625 27.21875 
Q 31.109375 20.453125 19.1875 8.296875 
z
" id="DejaVuSans-50"/>
       <path d="M 31.78125 66.40625 
Q 24.171875 66.40625 20.328125 58.90625 
Q 16.5 51.421875 16.5 36.375 
Q 16.5 21.390625 20.328125 13.890625 
Q 24.171875 6.390625 31.78125 6.390625 
Q 39.453125 6.390625 43.28125 13.890625 
Q 47.125 21.390625 47.125 36.375 
Q 47.125 51.421875 43.28125 58.90625 
Q 39.453125 66.40625 31.78125 66.40625 
z
M 31.78125 74.21875 
Q 44.046875 74.21875 50.515625 64.515625 
Q 56.984375 54.828125 56.984375 36.375 
Q 56.984375 17.96875 50.515625 8.265625 
Q 44.046875 -1.421875 31.78125 -1.421875 
Q 19.53125 -1.421875 13.0625 8.265625 
Q 6.59375 17.96875 6.59375 36.375 
Q 6.59375 54.828125 13.0625 64.515625 
Q 19.53125 74.21875 31.78125 74.21875 
z
" id="DejaVuSans-48"/>
       <path d="M 12.40625 8.296875 
L 28.515625 8.296875 
L 28.515625 63.921875 
L 10.984375 60.40625 
L 10.984375 69.390625 
L 28.421875 72.90625 
L 38.28125 72.90625 
L 38.28125 8.296875 
L 54.390625 8.296875 
L 54.390625 0 
L 12.40625 0 
z
" id="DejaVuSans-49"/>
       <path d="M 37.796875 64.3125 
L 12.890625 25.390625 
L 37.796875 25.390625 
z
M 35.203125 72.90625 
L 47.609375 72.90625 
L 47.609375 25.390625 
L 58.015625 25.390625 
L 58.015625 17.1875 
L 47.609375 17.1875 
L 47.609375 0 
L 37.796875 0 
L 37.796875 17.1875 
L 4.890625 17.1875 
L 4.890625 26.703125 
z
" id="DejaVuSans-52"/>
       <path d="M 4.890625 31.390625 
L 31.203125 31.390625 
L 31.203125 23.390625 
L 4.890625 23.390625 
z
" id="DejaVuSans-45"/>
       <path d="M 40.578125 39.3125 
Q 47.65625 37.796875 51.625 33 
Q 55.609375 28.21875 55.609375 21.1875 
Q 55.609375 10.40625 48.1875 4.484375 
Q 40.765625 -1.421875 27.09375 -1.421875 
Q 22.515625 -1.421875 17.65625 -0.515625 
Q 12.796875 0.390625 7.625 2.203125 
L 7.625 11.71875 
Q 11.71875 9.328125 16.59375 8.109375 
Q 21.484375 6.890625 26.8125 6.890625 
Q 36.078125 6.890625 40.9375 10.546875 
Q 45.796875 14.203125 45.796875 21.1875 
Q 45.796875 27.640625 41.28125 31.265625 
Q 36.765625 34.90625 28.71875 34.90625 
L 20.21875 34.90625 
L 20.21875 43.015625 
L 29.109375 43.015625 
Q 36.375 43.015625 40.234375 45.921875 
Q 44.09375 48.828125 44.09375 54.296875 
Q 44.09375 59.90625 40.109375 62.90625 
Q 36.140625 65.921875 28.71875 65.921875 
Q 24.65625 65.921875 20.015625 65.03125 
Q 15.375 64.15625 9.8125 62.3125 
L 9.8125 71.09375 
Q 15.4375 72.65625 20.34375 73.4375 
Q 25.25 74.21875 29.59375 74.21875 
Q 40.828125 74.21875 47.359375 69.109375 
Q 53.90625 64.015625 53.90625 55.328125 
Q 53.90625 49.265625 50.4375 45.09375 
Q 46.96875 40.921875 40.578125 39.3125 
z
" id="DejaVuSans-51"/>
       <path d="M 10.796875 72.90625 
L 49.515625 72.90625 
L 49.515625 64.59375 
L 19.828125 64.59375 
L 19.828125 46.734375 
Q 21.96875 47.46875 24.109375 47.828125 
Q 26.265625 48.1875 28.421875 48.1875 
Q 40.625 48.1875 47.75 41.5 
Q 54.890625 34.8125 54.890625 23.390625 
Q 54.890625 11.625 47.5625 5.09375 
Q 40.234375 -1.421875 26.90625 -1.421875 
Q 22.3125 -1.421875 17.546875 -0.640625 
Q 12.796875 0.140625 7.71875 1.703125 
L 7.71875 11.625 
Q 12.109375 9.234375 16.796875 8.0625 
Q 21.484375 6.890625 26.703125 6.890625 
Q 35.15625 6.890625 40.078125 11.328125 
Q 45.015625 15.765625 45.015625 23.390625 
Q 45.015625 31 40.078125 35.4375 
Q 35.15625 39.890625 26.703125 39.890625 
Q 22.75 39.890625 18.8125 39.015625 
Q 14.890625 38.140625 10.796875 36.28125 
z
" id="DejaVuSans-53"/>
      </defs>
      <g transform="translate(20.28317 314.927247)rotate(-25)scale(0.1 -0.1)">
       <use xlink:href="#DejaVuSans-50"/>
       <use x="63.623047" xlink:href="#DejaVuSans-48"/>
       <use x="127.246094" xlink:href="#DejaVuSans-49"/>
       <use x="190.869141" xlink:href="#DejaVuSans-52"/>
       <use x="254.492188" xlink:href="#DejaVuSans-45"/>
       <use x="290.576172" xlink:href="#DejaVuSans-48"/>
       <use x="354.199219" xlink:href="#DejaVuSans-51"/>
       <use x="417.822266" xlink:href="#DejaVuSans-45"/>
       <use x="453.90625" xlink:href="#DejaVuSans-50"/>
       <use x="517.529297" xlink:href="#DejaVuSans-53"/>
      </g>
     </g>
    </g>
    <g id="xtick_2">
     <g id="line2d_3">
      <path clip-path="url(#pd01cb2ceba)" d="M 95.00585 276.48 
L 95.00585 41.472 
" style="fill:none;stroke:#b0b0b0;stroke-linecap:square;stroke-width:0.8;"/>
     </g>
     <g id="line2d_4">
      <g>
       <use style="stroke:#000000;stroke-width:0.8;" x="95.00585" xlink:href="#mb1a465bb36" y="276.48"/>
      </g>
     </g>
     <g id="text_2">
      <!-- 2014-07-21 -->
      <defs>
       <path d="M 8.203125 72.90625 
L 55.078125 72.90625 
L 55.078125 68.703125 
L 28.609375 0 
L 18.3125 0 
L 43.21875 64.59375 
L 8.203125 64.59375 
z
" id="DejaVuSans-55"/>
      </defs>
      <g transform="translate(41.456292 314.927247)rotate(-25)scale(0.1 -0.1)">
       <use xlink:href="#DejaVuSans-50"/>
       <use x="63.623047" xlink:href="#DejaVuSans-48"/>
       <use x="127.246094" xlink:href="#DejaVuSans-49"/>
       <use x="190.869141" xlink:href="#DejaVuSans-52"/>
       <use x="254.492188" xlink:href="#DejaVuSans-45"/>
       <use x="290.576172" xlink:href="#DejaVuSans-48"/>
       <use x="354.199219" xlink:href="#DejaVuSans-55"/>
       <use x="417.822266" xlink:href="#DejaVuSans-45"/>
       <use x="453.90625" xlink:href="#DejaVuSans-50"/>
       <use x="517.529297" xlink:href="#DejaVuSans-49"/>
      </g>
     </g>
    </g>
    <g id="xtick_3">
     <g id="line2d_5">
      <path clip-path="url(#pd01cb2ceba)" d="M 116.178972 276.48 
L 116.178972 41.472 
" style="fill:none;stroke:#b0b0b0;stroke-linecap:square;stroke-width:0.8;"/>
     </g>
     <g id="line2d_6">
      <g>
       <use style="stroke:#000000;stroke-width:0.8;" x="116.178972" xlink:href="#mb1a465bb36" y="276.48"/>
      </g>
     </g>
     <g id="text_3">
      <!-- 2014-08-20 -->
      <defs>
       <path d="M 31.78125 34.625 
Q 24.75 34.625 20.71875 30.859375 
Q 16.703125 27.09375 16.703125 20.515625 
Q 16.703125 13.921875 20.71875 10.15625 
Q 24.75 6.390625 31.78125 6.390625 
Q 38.8125 6.390625 42.859375 10.171875 
Q 46.921875 13.96875 46.921875 20.515625 
Q 46.921875 27.09375 42.890625 30.859375 
Q 38.875 34.625 31.78125 34.625 
z
M 21.921875 38.8125 
Q 15.578125 40.375 12.03125 44.71875 
Q 8.5 49.078125 8.5 55.328125 
Q 8.5 64.0625 14.71875 69.140625 
Q 20.953125 74.21875 31.78125 74.21875 
Q 42.671875 74.21875 48.875 69.140625 
Q 55.078125 64.0625 55.078125 55.328125 
Q 55.078125 49.078125 51.53125 44.71875 
Q 48 40.375 41.703125 38.8125 
Q 48.828125 37.15625 52.796875 32.3125 
Q 56.78125 27.484375 56.78125 20.515625 
Q 56.78125 9.90625 50.3125 4.234375 
Q 43.84375 -1.421875 31.78125 -1.421875 
Q 19.734375 -1.421875 13.25 4.234375 
Q 6.78125 9.90625 6.78125 20.515625 
Q 6.78125 27.484375 10.78125 32.3125 
Q 14.796875 37.15625 21.921875 38.8125 
z
M 18.3125 54.390625 
Q 18.3125 48.734375 21.84375 45.5625 
Q 25.390625 42.390625 31.78125 42.390625 
Q 38.140625 42.390625 41.71875 45.5625 
Q 45.3125 48.734375 45.3125 54.390625 
Q 45.3125 60.0625 41.71875 63.234375 
Q 38.140625 66.40625 31.78125 66.40625 
Q 25.390625 66.40625 21.84375 63.234375 
Q 18.3125 60.0625 18.3125 54.390625 
z
" id="DejaVuSans-56"/>
      </defs>
      <g transform="translate(62.629415 314.927247)rotate(-25)scale(0.1 -0.1)">
       <use xlink:href="#DejaVuSans-50"/>
       <use x="63.623047" xlink:href="#DejaVuSans-48"/>
       <use x="127.246094" xlink:href="#DejaVuSans-49"/>
       <use x="190.869141" xlink:href="#DejaVuSans-52"/>
       <use x="254.492188" xlink:href="#DejaVuSans-45"/>
       <use x="290.576172" xlink:href="#DejaVuSans-48"/>
       <use x="354.199219" xlink:href="#DejaVuSans-56"/>
       <use x="417.822266" xlink:href="#DejaVuSans-45"/>
       <use x="453.90625" xlink:href="#DejaVuSans-50"/>
       <use x="517.529297" xlink:href="#DejaVuSans-48"/>
      </g>
     </g>
    </g>
    <g id="xtick_4">
     <g id="line2d_7">
      <path clip-path="url(#pd01cb2ceba)" d="M 137.352095 276.48 
L 137.352095 41.472 
" style="fill:none;stroke:#b0b0b0;stroke-linecap:square;stroke-width:0.8;"/>
     </g>
     <g id="line2d_8">
      <g>
       <use style="stroke:#000000;stroke-width:0.8;" x="137.352095" xlink:href="#mb1a465bb36" y="276.48"/>
      </g>
     </g>
     <g id="text_4">
      <!-- 2014-09-20 -->
      <defs>
       <path d="M 10.984375 1.515625 
L 10.984375 10.5 
Q 14.703125 8.734375 18.5 7.8125 
Q 22.3125 6.890625 25.984375 6.890625 
Q 35.75 6.890625 40.890625 13.453125 
Q 46.046875 20.015625 46.78125 33.40625 
Q 43.953125 29.203125 39.59375 26.953125 
Q 35.25 24.703125 29.984375 24.703125 
Q 19.046875 24.703125 12.671875 31.3125 
Q 6.296875 37.9375 6.296875 49.421875 
Q 6.296875 60.640625 12.9375 67.421875 
Q 19.578125 74.21875 30.609375 74.21875 
Q 43.265625 74.21875 49.921875 64.515625 
Q 56.59375 54.828125 56.59375 36.375 
Q 56.59375 19.140625 48.40625 8.859375 
Q 40.234375 -1.421875 26.421875 -1.421875 
Q 22.703125 -1.421875 18.890625 -0.6875 
Q 15.09375 0.046875 10.984375 1.515625 
z
M 30.609375 32.421875 
Q 37.25 32.421875 41.125 36.953125 
Q 45.015625 41.5 45.015625 49.421875 
Q 45.015625 57.28125 41.125 61.84375 
Q 37.25 66.40625 30.609375 66.40625 
Q 23.96875 66.40625 20.09375 61.84375 
Q 16.21875 57.28125 16.21875 49.421875 
Q 16.21875 41.5 20.09375 36.953125 
Q 23.96875 32.421875 30.609375 32.421875 
z
" id="DejaVuSans-57"/>
      </defs>
      <g transform="translate(83.802537 314.927247)rotate(-25)scale(0.1 -0.1)">
       <use xlink:href="#DejaVuSans-50"/>
       <use x="63.623047" xlink:href="#DejaVuSans-48"/>
       <use x="127.246094" xlink:href="#DejaVuSans-49"/>
       <use x="190.869141" xlink:href="#DejaVuSans-52"/>
       <use x="254.492188" xlink:href="#DejaVuSans-45"/>
       <use x="290.576172" xlink:href="#DejaVuSans-48"/>
       <use x="354.199219" xlink:href="#DejaVuSans-57"/>
       <use x="417.822266" xlink:href="#DejaVuSans-45"/>
       <use x="453.90625" xlink:href="#DejaVuSans-50"/>
       <use x="517.529297" xlink:href="#DejaVuSans-48"/>
      </g>
     </g>
    </g>
    <g id="xtick_5">
     <g id="line2d_9">
      <path clip-path="url(#pd01cb2ceba)" d="M 158.525217 276.48 
L 158.525217 41.472 
" style="fill:none;stroke:#b0b0b0;stroke-linecap:square;stroke-width:0.8;"/>
     </g>
     <g id="line2d_10">
      <g>
       <use style="stroke:#000000;stroke-width:0.8;" x="158.525217" xlink:href="#mb1a465bb36" y="276.48"/>
      </g>
     </g>
     <g id="text_5">
      <!-- 2014-10-22 -->
      <g transform="translate(104.97566 314.927247)rotate(-25)scale(0.1 -0.1)">
       <use xlink:href="#DejaVuSans-50"/>
       <use x="63.623047" xlink:href="#DejaVuSans-48"/>
       <use x="127.246094" xlink:href="#DejaVuSans-49"/>
       <use x="190.869141" xlink:href="#DejaVuSans-52"/>
       <use x="254.492188" xlink:href="#DejaVuSans-45"/>
       <use x="290.576172" xlink:href="#DejaVuSans-49"/>
       <use x="354.199219" xlink:href="#DejaVuSans-48"/>
       <use x="417.822266" xlink:href="#DejaVuSans-45"/>
       <use x="453.90625" xlink:href="#DejaVuSans-50"/>
       <use x="517.529297" xlink:href="#DejaVuSans-50"/>
      </g>
     </g>
    </g>
    <g id="xtick_6">
     <g id="line2d_11">
      <path clip-path="url(#pd01cb2ceba)" d="M 179.69834 276.48 
L 179.69834 41.472 
" style="fill:none;stroke:#b0b0b0;stroke-linecap:square;stroke-width:0.8;"/>
     </g>
     <g id="line2d_12">
      <g>
       <use style="stroke:#000000;stroke-width:0.8;" x="179.69834" xlink:href="#mb1a465bb36" y="276.48"/>
      </g>
     </g>
     <g id="text_6">
      <!-- 2014-11-22 -->
      <g transform="translate(126.148783 314.927247)rotate(-25)scale(0.1 -0.1)">
       <use xlink:href="#DejaVuSans-50"/>
       <use x="63.623047" xlink:href="#DejaVuSans-48"/>
       <use x="127.246094" xlink:href="#DejaVuSans-49"/>
       <use x="190.869141" xlink:href="#DejaVuSans-52"/>
       <use x="254.492188" xlink:href="#DejaVuSans-45"/>
       <use x="290.576172" xlink:href="#DejaVuSans-49"/>
       <use x="354.199219" xlink:href="#DejaVuSans-49"/>
       <use x="417.822266" xlink:href="#DejaVuSans-45"/>
       <use x="453.90625" xlink:href="#DejaVuSans-50"/>
       <use x="517.529297" xlink:href="#DejaVuSans-50"/>
      </g>
     </g>
    </g>
    <g id="xtick_7">
     <g id="line2d_13">
      <path clip-path="url(#pd01cb2ceba)" d="M 200.871462 276.48 
L 200.871462 41.472 
" style="fill:none;stroke:#b0b0b0;stroke-linecap:square;stroke-width:0.8;"/>
     </g>
     <g id="line2d_14">
      <g>
       <use style="stroke:#000000;stroke-width:0.8;" x="200.871462" xlink:href="#mb1a465bb36" y="276.48"/>
      </g>
     </g>
     <g id="text_7">
      <!-- 2014-12-22 -->
      <g transform="translate(147.321905 314.927247)rotate(-25)scale(0.1 -0.1)">
       <use xlink:href="#DejaVuSans-50"/>
       <use x="63.623047" xlink:href="#DejaVuSans-48"/>
       <use x="127.246094" xlink:href="#DejaVuSans-49"/>
       <use x="190.869141" xlink:href="#DejaVuSans-52"/>
       <use x="254.492188" xlink:href="#DejaVuSans-45"/>
       <use x="290.576172" xlink:href="#DejaVuSans-49"/>
       <use x="354.199219" xlink:href="#DejaVuSans-50"/>
       <use x="417.822266" xlink:href="#DejaVuSans-45"/>
       <use x="453.90625" xlink:href="#DejaVuSans-50"/>
       <use x="517.529297" xlink:href="#DejaVuSans-50"/>
      </g>
     </g>
    </g>
    <g id="xtick_8">
     <g id="line2d_15">
      <path clip-path="url(#pd01cb2ceba)" d="M 222.044585 276.48 
L 222.044585 41.472 
" style="fill:none;stroke:#b0b0b0;stroke-linecap:square;stroke-width:0.8;"/>
     </g>
     <g id="line2d_16">
      <g>
       <use style="stroke:#000000;stroke-width:0.8;" x="222.044585" xlink:href="#mb1a465bb36" y="276.48"/>
      </g>
     </g>
     <g id="text_8">
      <!-- 2015-07-04 -->
      <g transform="translate(168.495028 314.927247)rotate(-25)scale(0.1 -0.1)">
       <use xlink:href="#DejaVuSans-50"/>
       <use x="63.623047" xlink:href="#DejaVuSans-48"/>
       <use x="127.246094" xlink:href="#DejaVuSans-49"/>
       <use x="190.869141" xlink:href="#DejaVuSans-53"/>
       <use x="254.492188" xlink:href="#DejaVuSans-45"/>
       <use x="290.576172" xlink:href="#DejaVuSans-48"/>
       <use x="354.199219" xlink:href="#DejaVuSans-55"/>
       <use x="417.822266" xlink:href="#DejaVuSans-45"/>
       <use x="453.90625" xlink:href="#DejaVuSans-48"/>
       <use x="517.529297" xlink:href="#DejaVuSans-52"/>
      </g>
     </g>
    </g>
    <g id="xtick_9">
     <g id="line2d_17">
      <path clip-path="url(#pd01cb2ceba)" d="M 243.217708 276.48 
L 243.217708 41.472 
" style="fill:none;stroke:#b0b0b0;stroke-linecap:square;stroke-width:0.8;"/>
     </g>
     <g id="line2d_18">
      <g>
       <use style="stroke:#000000;stroke-width:0.8;" x="243.217708" xlink:href="#mb1a465bb36" y="276.48"/>
      </g>
     </g>
     <g id="text_9">
      <!-- 2015-08-04 -->
      <g transform="translate(189.66815 314.927247)rotate(-25)scale(0.1 -0.1)">
       <use xlink:href="#DejaVuSans-50"/>
       <use x="63.623047" xlink:href="#DejaVuSans-48"/>
       <use x="127.246094" xlink:href="#DejaVuSans-49"/>
       <use x="190.869141" xlink:href="#DejaVuSans-53"/>
       <use x="254.492188" xlink:href="#DejaVuSans-45"/>
       <use x="290.576172" xlink:href="#DejaVuSans-48"/>
       <use x="354.199219" xlink:href="#DejaVuSans-56"/>
       <use x="417.822266" xlink:href="#DejaVuSans-45"/>
       <use x="453.90625" xlink:href="#DejaVuSans-48"/>
       <use x="517.529297" xlink:href="#DejaVuSans-52"/>
      </g>
     </g>
    </g>
    <g id="xtick_10">
     <g id="line2d_19">
      <path clip-path="url(#pd01cb2ceba)" d="M 264.39083 276.48 
L 264.39083 41.472 
" style="fill:none;stroke:#b0b0b0;stroke-linecap:square;stroke-width:0.8;"/>
     </g>
     <g id="line2d_20">
      <g>
       <use style="stroke:#000000;stroke-width:0.8;" x="264.39083" xlink:href="#mb1a465bb36" y="276.48"/>
      </g>
     </g>
     <g id="text_10">
      <!-- 2015-09-03 -->
      <g transform="translate(210.841273 314.927247)rotate(-25)scale(0.1 -0.1)">
       <use xlink:href="#DejaVuSans-50"/>
       <use x="63.623047" xlink:href="#DejaVuSans-48"/>
       <use x="127.246094" xlink:href="#DejaVuSans-49"/>
       <use x="190.869141" xlink:href="#DejaVuSans-53"/>
       <use x="254.492188" xlink:href="#DejaVuSans-45"/>
       <use x="290.576172" xlink:href="#DejaVuSans-48"/>
       <use x="354.199219" xlink:href="#DejaVuSans-57"/>
       <use x="417.822266" xlink:href="#DejaVuSans-45"/>
       <use x="453.90625" xlink:href="#DejaVuSans-48"/>
       <use x="517.529297" xlink:href="#DejaVuSans-51"/>
      </g>
     </g>
    </g>
    <g id="xtick_11">
     <g id="line2d_21">
      <path clip-path="url(#pd01cb2ceba)" d="M 285.563953 276.48 
L 285.563953 41.472 
" style="fill:none;stroke:#b0b0b0;stroke-linecap:square;stroke-width:0.8;"/>
     </g>
     <g id="line2d_22">
      <g>
       <use style="stroke:#000000;stroke-width:0.8;" x="285.563953" xlink:href="#mb1a465bb36" y="276.48"/>
      </g>
     </g>
     <g id="text_11">
      <!-- 2015-10-03 -->
      <g transform="translate(232.014395 314.927247)rotate(-25)scale(0.1 -0.1)">
       <use xlink:href="#DejaVuSans-50"/>
       <use x="63.623047" xlink:href="#DejaVuSans-48"/>
       <use x="127.246094" xlink:href="#DejaVuSans-49"/>
       <use x="190.869141" xlink:href="#DejaVuSans-53"/>
       <use x="254.492188" xlink:href="#DejaVuSans-45"/>
       <use x="290.576172" xlink:href="#DejaVuSans-49"/>
       <use x="354.199219" xlink:href="#DejaVuSans-48"/>
       <use x="417.822266" xlink:href="#DejaVuSans-45"/>
       <use x="453.90625" xlink:href="#DejaVuSans-48"/>
       <use x="517.529297" xlink:href="#DejaVuSans-51"/>
      </g>
     </g>
    </g>
    <g id="xtick_12">
     <g id="line2d_23">
      <path clip-path="url(#pd01cb2ceba)" d="M 306.737075 276.48 
L 306.737075 41.472 
" style="fill:none;stroke:#b0b0b0;stroke-linecap:square;stroke-width:0.8;"/>
     </g>
     <g id="line2d_24">
      <g>
       <use style="stroke:#000000;stroke-width:0.8;" x="306.737075" xlink:href="#mb1a465bb36" y="276.48"/>
      </g>
     </g>
     <g id="text_12">
      <!-- 2015-11-02 -->
      <g transform="translate(253.187518 314.927247)rotate(-25)scale(0.1 -0.1)">
       <use xlink:href="#DejaVuSans-50"/>
       <use x="63.623047" xlink:href="#DejaVuSans-48"/>
       <use x="127.246094" xlink:href="#DejaVuSans-49"/>
       <use x="190.869141" xlink:href="#DejaVuSans-53"/>
       <use x="254.492188" xlink:href="#DejaVuSans-45"/>
       <use x="290.576172" xlink:href="#DejaVuSans-49"/>
       <use x="354.199219" xlink:href="#DejaVuSans-49"/>
       <use x="417.822266" xlink:href="#DejaVuSans-45"/>
       <use x="453.90625" xlink:href="#DejaVuSans-48"/>
       <use x="517.529297" xlink:href="#DejaVuSans-50"/>
      </g>
     </g>
    </g>
    <g id="xtick_13">
     <g id="line2d_25">
      <path clip-path="url(#pd01cb2ceba)" d="M 327.910198 276.48 
L 327.910198 41.472 
" style="fill:none;stroke:#b0b0b0;stroke-linecap:square;stroke-width:0.8;"/>
     </g>
     <g id="line2d_26">
      <g>
       <use style="stroke:#000000;stroke-width:0.8;" x="327.910198" xlink:href="#mb1a465bb36" y="276.48"/>
      </g>
     </g>
     <g id="text_13">
      <!-- 2015-12-02 -->
      <g transform="translate(274.36064 314.927247)rotate(-25)scale(0.1 -0.1)">
       <use xlink:href="#DejaVuSans-50"/>
       <use x="63.623047" xlink:href="#DejaVuSans-48"/>
       <use x="127.246094" xlink:href="#DejaVuSans-49"/>
       <use x="190.869141" xlink:href="#DejaVuSans-53"/>
       <use x="254.492188" xlink:href="#DejaVuSans-45"/>
       <use x="290.576172" xlink:href="#DejaVuSans-49"/>
       <use x="354.199219" xlink:href="#DejaVuSans-50"/>
       <use x="417.822266" xlink:href="#DejaVuSans-45"/>
       <use x="453.90625" xlink:href="#DejaVuSans-48"/>
       <use x="517.529297" xlink:href="#DejaVuSans-50"/>
      </g>
     </g>
    </g>
    <g id="xtick_14">
     <g id="line2d_27">
      <path clip-path="url(#pd01cb2ceba)" d="M 349.08332 276.48 
L 349.08332 41.472 
" style="fill:none;stroke:#b0b0b0;stroke-linecap:square;stroke-width:0.8;"/>
     </g>
     <g id="line2d_28">
      <g>
       <use style="stroke:#000000;stroke-width:0.8;" x="349.08332" xlink:href="#mb1a465bb36" y="276.48"/>
      </g>
     </g>
     <g id="text_14">
      <!-- 2016-01-01 -->
      <defs>
       <path d="M 33.015625 40.375 
Q 26.375 40.375 22.484375 35.828125 
Q 18.609375 31.296875 18.609375 23.390625 
Q 18.609375 15.53125 22.484375 10.953125 
Q 26.375 6.390625 33.015625 6.390625 
Q 39.65625 6.390625 43.53125 10.953125 
Q 47.40625 15.53125 47.40625 23.390625 
Q 47.40625 31.296875 43.53125 35.828125 
Q 39.65625 40.375 33.015625 40.375 
z
M 52.59375 71.296875 
L 52.59375 62.3125 
Q 48.875 64.0625 45.09375 64.984375 
Q 41.3125 65.921875 37.59375 65.921875 
Q 27.828125 65.921875 22.671875 59.328125 
Q 17.53125 52.734375 16.796875 39.40625 
Q 19.671875 43.65625 24.015625 45.921875 
Q 28.375 48.1875 33.59375 48.1875 
Q 44.578125 48.1875 50.953125 41.515625 
Q 57.328125 34.859375 57.328125 23.390625 
Q 57.328125 12.15625 50.6875 5.359375 
Q 44.046875 -1.421875 33.015625 -1.421875 
Q 20.359375 -1.421875 13.671875 8.265625 
Q 6.984375 17.96875 6.984375 36.375 
Q 6.984375 53.65625 15.1875 63.9375 
Q 23.390625 74.21875 37.203125 74.21875 
Q 40.921875 74.21875 44.703125 73.484375 
Q 48.484375 72.75 52.59375 71.296875 
z
" id="DejaVuSans-54"/>
      </defs>
      <g transform="translate(295.533763 314.927247)rotate(-25)scale(0.1 -0.1)">
       <use xlink:href="#DejaVuSans-50"/>
       <use x="63.623047" xlink:href="#DejaVuSans-48"/>
       <use x="127.246094" xlink:href="#DejaVuSans-49"/>
       <use x="190.869141" xlink:href="#DejaVuSans-54"/>
       <use x="254.492188" xlink:href="#DejaVuSans-45"/>
       <use x="290.576172" xlink:href="#DejaVuSans-48"/>
       <use x="354.199219" xlink:href="#DejaVuSans-49"/>
       <use x="417.822266" xlink:href="#DejaVuSans-45"/>
       <use x="453.90625" xlink:href="#DejaVuSans-48"/>
       <use x="517.529297" xlink:href="#DejaVuSans-49"/>
      </g>
     </g>
    </g>
    <g id="xtick_15">
     <g id="line2d_29">
      <path clip-path="url(#pd01cb2ceba)" d="M 370.256443 276.48 
L 370.256443 41.472 
" style="fill:none;stroke:#b0b0b0;stroke-linecap:square;stroke-width:0.8;"/>
     </g>
     <g id="line2d_30">
      <g>
       <use style="stroke:#000000;stroke-width:0.8;" x="370.256443" xlink:href="#mb1a465bb36" y="276.48"/>
      </g>
     </g>
     <g id="text_15">
      <!-- 2016-02-01 -->
      <g transform="translate(316.706885 314.927247)rotate(-25)scale(0.1 -0.1)">
       <use xlink:href="#DejaVuSans-50"/>
       <use x="63.623047" xlink:href="#DejaVuSans-48"/>
       <use x="127.246094" xlink:href="#DejaVuSans-49"/>
       <use x="190.869141" xlink:href="#DejaVuSans-54"/>
       <use x="254.492188" xlink:href="#DejaVuSans-45"/>
       <use x="290.576172" xlink:href="#DejaVuSans-48"/>
       <use x="354.199219" xlink:href="#DejaVuSans-50"/>
       <use x="417.822266" xlink:href="#DejaVuSans-45"/>
       <use x="453.90625" xlink:href="#DejaVuSans-48"/>
       <use x="517.529297" xlink:href="#DejaVuSans-49"/>
      </g>
     </g>
    </g>
    <g id="xtick_16">
     <g id="line2d_31">
      <path clip-path="url(#pd01cb2ceba)" d="M 391.429565 276.48 
L 391.429565 41.472 
" style="fill:none;stroke:#b0b0b0;stroke-linecap:square;stroke-width:0.8;"/>
     </g>
     <g id="line2d_32">
      <g>
       <use style="stroke:#000000;stroke-width:0.8;" x="391.429565" xlink:href="#mb1a465bb36" y="276.48"/>
      </g>
     </g>
     <g id="text_16">
      <!-- 2016-07-01 -->
      <g transform="translate(337.880008 314.927247)rotate(-25)scale(0.1 -0.1)">
       <use xlink:href="#DejaVuSans-50"/>
       <use x="63.623047" xlink:href="#DejaVuSans-48"/>
       <use x="127.246094" xlink:href="#DejaVuSans-49"/>
       <use x="190.869141" xlink:href="#DejaVuSans-54"/>
       <use x="254.492188" xlink:href="#DejaVuSans-45"/>
       <use x="290.576172" xlink:href="#DejaVuSans-48"/>
       <use x="354.199219" xlink:href="#DejaVuSans-55"/>
       <use x="417.822266" xlink:href="#DejaVuSans-45"/>
       <use x="453.90625" xlink:href="#DejaVuSans-48"/>
       <use x="517.529297" xlink:href="#DejaVuSans-49"/>
      </g>
     </g>
    </g>
    <g id="text_17">
     <!-- Dates -->
     <defs>
      <path d="M 19.671875 64.796875 
L 19.671875 8.109375 
L 31.59375 8.109375 
Q 46.6875 8.109375 53.6875 14.9375 
Q 60.6875 21.78125 60.6875 36.53125 
Q 60.6875 51.171875 53.6875 57.984375 
Q 46.6875 64.796875 31.59375 64.796875 
z
M 9.8125 72.90625 
L 30.078125 72.90625 
Q 51.265625 72.90625 61.171875 64.09375 
Q 71.09375 55.28125 71.09375 36.53125 
Q 71.09375 17.671875 61.125 8.828125 
Q 51.171875 0 30.078125 0 
L 9.8125 0 
z
" id="DejaVuSans-68"/>
      <path d="M 34.28125 27.484375 
Q 23.390625 27.484375 19.1875 25 
Q 14.984375 22.515625 14.984375 16.5 
Q 14.984375 11.71875 18.140625 8.90625 
Q 21.296875 6.109375 26.703125 6.109375 
Q 34.1875 6.109375 38.703125 11.40625 
Q 43.21875 16.703125 43.21875 25.484375 
L 43.21875 27.484375 
z
M 52.203125 31.203125 
L 52.203125 0 
L 43.21875 0 
L 43.21875 8.296875 
Q 40.140625 3.328125 35.546875 0.953125 
Q 30.953125 -1.421875 24.3125 -1.421875 
Q 15.921875 -1.421875 10.953125 3.296875 
Q 6 8.015625 6 15.921875 
Q 6 25.140625 12.171875 29.828125 
Q 18.359375 34.515625 30.609375 34.515625 
L 43.21875 34.515625 
L 43.21875 35.40625 
Q 43.21875 41.609375 39.140625 45 
Q 35.0625 48.390625 27.6875 48.390625 
Q 23 48.390625 18.546875 47.265625 
Q 14.109375 46.140625 10.015625 43.890625 
L 10.015625 52.203125 
Q 14.9375 54.109375 19.578125 55.046875 
Q 24.21875 56 28.609375 56 
Q 40.484375 56 46.34375 49.84375 
Q 52.203125 43.703125 52.203125 31.203125 
z
" id="DejaVuSans-97"/>
      <path d="M 18.3125 70.21875 
L 18.3125 54.6875 
L 36.8125 54.6875 
L 36.8125 47.703125 
L 18.3125 47.703125 
L 18.3125 18.015625 
Q 18.3125 11.328125 20.140625 9.421875 
Q 21.96875 7.515625 27.59375 7.515625 
L 36.8125 7.515625 
L 36.8125 0 
L 27.59375 0 
Q 17.1875 0 13.234375 3.875 
Q 9.28125 7.765625 9.28125 18.015625 
L 9.28125 47.703125 
L 2.6875 47.703125 
L 2.6875 54.6875 
L 9.28125 54.6875 
L 9.28125 70.21875 
z
" id="DejaVuSans-116"/>
      <path d="M 56.203125 29.59375 
L 56.203125 25.203125 
L 14.890625 25.203125 
Q 15.484375 15.921875 20.484375 11.0625 
Q 25.484375 6.203125 34.421875 6.203125 
Q 39.59375 6.203125 44.453125 7.46875 
Q 49.3125 8.734375 54.109375 11.28125 
L 54.109375 2.78125 
Q 49.265625 0.734375 44.1875 -0.34375 
Q 39.109375 -1.421875 33.890625 -1.421875 
Q 20.796875 -1.421875 13.15625 6.1875 
Q 5.515625 13.8125 5.515625 26.8125 
Q 5.515625 40.234375 12.765625 48.109375 
Q 20.015625 56 32.328125 56 
Q 43.359375 56 49.78125 48.890625 
Q 56.203125 41.796875 56.203125 29.59375 
z
M 47.21875 32.234375 
Q 47.125 39.59375 43.09375 43.984375 
Q 39.0625 48.390625 32.421875 48.390625 
Q 24.90625 48.390625 20.390625 44.140625 
Q 15.875 39.890625 15.1875 32.171875 
z
" id="DejaVuSans-101"/>
      <path d="M 44.28125 53.078125 
L 44.28125 44.578125 
Q 40.484375 46.53125 36.375 47.5 
Q 32.28125 48.484375 27.875 48.484375 
Q 21.1875 48.484375 17.84375 46.4375 
Q 14.5 44.390625 14.5 40.28125 
Q 14.5 37.15625 16.890625 35.375 
Q 19.28125 33.59375 26.515625 31.984375 
L 29.59375 31.296875 
Q 39.15625 29.25 43.1875 25.515625 
Q 47.21875 21.78125 47.21875 15.09375 
Q 47.21875 7.46875 41.1875 3.015625 
Q 35.15625 -1.421875 24.609375 -1.421875 
Q 20.21875 -1.421875 15.453125 -0.5625 
Q 10.6875 0.296875 5.421875 2 
L 5.421875 11.28125 
Q 10.40625 8.6875 15.234375 7.390625 
Q 20.0625 6.109375 24.8125 6.109375 
Q 31.15625 6.109375 34.5625 8.28125 
Q 37.984375 10.453125 37.984375 14.40625 
Q 37.984375 18.0625 35.515625 20.015625 
Q 33.0625 21.96875 24.703125 23.78125 
L 21.578125 24.515625 
Q 13.234375 26.265625 9.515625 29.90625 
Q 5.8125 33.546875 5.8125 39.890625 
Q 5.8125 47.609375 11.28125 51.796875 
Q 16.75 56 26.8125 56 
Q 31.78125 56 36.171875 55.265625 
Q 40.578125 54.546875 44.28125 53.078125 
z
" id="DejaVuSans-115"/>
     </defs>
     <g transform="translate(221.604531 328.410522)scale(0.1 -0.1)">
      <use xlink:href="#DejaVuSans-68"/>
      <use x="77.001953" xlink:href="#DejaVuSans-97"/>
      <use x="138.28125" xlink:href="#DejaVuSans-116"/>
      <use x="177.490234" xlink:href="#DejaVuSans-101"/>
      <use x="239.013672" xlink:href="#DejaVuSans-115"/>
     </g>
    </g>
   </g>
   <g id="matplotlib.axis_2">
    <g id="ytick_1">
     <g id="line2d_33">
      <path clip-path="url(#pd01cb2ceba)" d="M 57.6 265.873137 
L 414.72 265.873137 
" style="fill:none;stroke:#b0b0b0;stroke-linecap:square;stroke-width:0.8;"/>
     </g>
     <g id="line2d_34">
      <defs>
       <path d="M 0 0 
L -3.5 0 
" id="m382f13154e" style="stroke:#000000;stroke-width:0.8;"/>
      </defs>
      <g>
       <use style="stroke:#000000;stroke-width:0.8;" x="57.6" xlink:href="#m382f13154e" y="265.873137"/>
      </g>
     </g>
     <g id="text_18">
      <!-- 0 -->
      <g transform="translate(44.2375 269.672356)scale(0.1 -0.1)">
       <use xlink:href="#DejaVuSans-48"/>
      </g>
     </g>
    </g>
    <g id="ytick_2">
     <g id="line2d_35">
      <path clip-path="url(#pd01cb2ceba)" d="M 57.6 228.213623 
L 414.72 228.213623 
" style="fill:none;stroke:#b0b0b0;stroke-linecap:square;stroke-width:0.8;"/>
     </g>
     <g id="line2d_36">
      <g>
       <use style="stroke:#000000;stroke-width:0.8;" x="57.6" xlink:href="#m382f13154e" y="228.213623"/>
      </g>
     </g>
     <g id="text_19">
      <!-- 500 -->
      <g transform="translate(31.5125 232.012842)scale(0.1 -0.1)">
       <use xlink:href="#DejaVuSans-53"/>
       <use x="63.623047" xlink:href="#DejaVuSans-48"/>
       <use x="127.246094" xlink:href="#DejaVuSans-48"/>
      </g>
     </g>
    </g>
    <g id="ytick_3">
     <g id="line2d_37">
      <path clip-path="url(#pd01cb2ceba)" d="M 57.6 190.554109 
L 414.72 190.554109 
" style="fill:none;stroke:#b0b0b0;stroke-linecap:square;stroke-width:0.8;"/>
     </g>
     <g id="line2d_38">
      <g>
       <use style="stroke:#000000;stroke-width:0.8;" x="57.6" xlink:href="#m382f13154e" y="190.554109"/>
      </g>
     </g>
     <g id="text_20">
      <!-- 1000 -->
      <g transform="translate(25.15 194.353328)scale(0.1 -0.1)">
       <use xlink:href="#DejaVuSans-49"/>
       <use x="63.623047" xlink:href="#DejaVuSans-48"/>
       <use x="127.246094" xlink:href="#DejaVuSans-48"/>
       <use x="190.869141" xlink:href="#DejaVuSans-48"/>
      </g>
     </g>
    </g>
    <g id="ytick_4">
     <g id="line2d_39">
      <path clip-path="url(#pd01cb2ceba)" d="M 57.6 152.894595 
L 414.72 152.894595 
" style="fill:none;stroke:#b0b0b0;stroke-linecap:square;stroke-width:0.8;"/>
     </g>
     <g id="line2d_40">
      <g>
       <use style="stroke:#000000;stroke-width:0.8;" x="57.6" xlink:href="#m382f13154e" y="152.894595"/>
      </g>
     </g>
     <g id="text_21">
      <!-- 1500 -->
      <g transform="translate(25.15 156.693814)scale(0.1 -0.1)">
       <use xlink:href="#DejaVuSans-49"/>
       <use x="63.623047" xlink:href="#DejaVuSans-53"/>
       <use x="127.246094" xlink:href="#DejaVuSans-48"/>
       <use x="190.869141" xlink:href="#DejaVuSans-48"/>
      </g>
     </g>
    </g>
    <g id="ytick_5">
     <g id="line2d_41">
      <path clip-path="url(#pd01cb2ceba)" d="M 57.6 115.235081 
L 414.72 115.235081 
" style="fill:none;stroke:#b0b0b0;stroke-linecap:square;stroke-width:0.8;"/>
     </g>
     <g id="line2d_42">
      <g>
       <use style="stroke:#000000;stroke-width:0.8;" x="57.6" xlink:href="#m382f13154e" y="115.235081"/>
      </g>
     </g>
     <g id="text_22">
      <!-- 2000 -->
      <g transform="translate(25.15 119.034299)scale(0.1 -0.1)">
       <use xlink:href="#DejaVuSans-50"/>
       <use x="63.623047" xlink:href="#DejaVuSans-48"/>
       <use x="127.246094" xlink:href="#DejaVuSans-48"/>
       <use x="190.869141" xlink:href="#DejaVuSans-48"/>
      </g>
     </g>
    </g>
    <g id="ytick_6">
     <g id="line2d_43">
      <path clip-path="url(#pd01cb2ceba)" d="M 57.6 77.575567 
L 414.72 77.575567 
" style="fill:none;stroke:#b0b0b0;stroke-linecap:square;stroke-width:0.8;"/>
     </g>
     <g id="line2d_44">
      <g>
       <use style="stroke:#000000;stroke-width:0.8;" x="57.6" xlink:href="#m382f13154e" y="77.575567"/>
      </g>
     </g>
     <g id="text_23">
      <!-- 2500 -->
      <g transform="translate(25.15 81.374785)scale(0.1 -0.1)">
       <use xlink:href="#DejaVuSans-50"/>
       <use x="63.623047" xlink:href="#DejaVuSans-53"/>
       <use x="127.246094" xlink:href="#DejaVuSans-48"/>
       <use x="190.869141" xlink:href="#DejaVuSans-48"/>
      </g>
     </g>
    </g>
    <g id="text_24">
     <!-- Sales values -->
     <defs>
      <path d="M 53.515625 70.515625 
L 53.515625 60.890625 
Q 47.90625 63.578125 42.921875 64.890625 
Q 37.9375 66.21875 33.296875 66.21875 
Q 25.25 66.21875 20.875 63.09375 
Q 16.5 59.96875 16.5 54.203125 
Q 16.5 49.359375 19.40625 46.890625 
Q 22.3125 44.4375 30.421875 42.921875 
L 36.375 41.703125 
Q 47.40625 39.59375 52.65625 34.296875 
Q 57.90625 29 57.90625 20.125 
Q 57.90625 9.515625 50.796875 4.046875 
Q 43.703125 -1.421875 29.984375 -1.421875 
Q 24.8125 -1.421875 18.96875 -0.25 
Q 13.140625 0.921875 6.890625 3.21875 
L 6.890625 13.375 
Q 12.890625 10.015625 18.65625 8.296875 
Q 24.421875 6.59375 29.984375 6.59375 
Q 38.421875 6.59375 43.015625 9.90625 
Q 47.609375 13.234375 47.609375 19.390625 
Q 47.609375 24.75 44.3125 27.78125 
Q 41.015625 30.8125 33.5 32.328125 
L 27.484375 33.5 
Q 16.453125 35.6875 11.515625 40.375 
Q 6.59375 45.0625 6.59375 53.421875 
Q 6.59375 63.09375 13.40625 68.65625 
Q 20.21875 74.21875 32.171875 74.21875 
Q 37.3125 74.21875 42.625 73.28125 
Q 47.953125 72.359375 53.515625 70.515625 
z
" id="DejaVuSans-83"/>
      <path d="M 9.421875 75.984375 
L 18.40625 75.984375 
L 18.40625 0 
L 9.421875 0 
z
" id="DejaVuSans-108"/>
      <path id="DejaVuSans-32"/>
      <path d="M 2.984375 54.6875 
L 12.5 54.6875 
L 29.59375 8.796875 
L 46.6875 54.6875 
L 56.203125 54.6875 
L 35.6875 0 
L 23.484375 0 
z
" id="DejaVuSans-118"/>
      <path d="M 8.5 21.578125 
L 8.5 54.6875 
L 17.484375 54.6875 
L 17.484375 21.921875 
Q 17.484375 14.15625 20.5 10.265625 
Q 23.53125 6.390625 29.59375 6.390625 
Q 36.859375 6.390625 41.078125 11.03125 
Q 45.3125 15.671875 45.3125 23.6875 
L 45.3125 54.6875 
L 54.296875 54.6875 
L 54.296875 0 
L 45.3125 0 
L 45.3125 8.40625 
Q 42.046875 3.421875 37.71875 1 
Q 33.40625 -1.421875 27.6875 -1.421875 
Q 18.265625 -1.421875 13.375 4.4375 
Q 8.5 10.296875 8.5 21.578125 
z
M 31.109375 56 
z
" id="DejaVuSans-117"/>
     </defs>
     <g transform="translate(19.070312 190.136156)rotate(-90)scale(0.1 -0.1)">
      <use xlink:href="#DejaVuSans-83"/>
      <use x="63.476562" xlink:href="#DejaVuSans-97"/>
      <use x="124.755859" xlink:href="#DejaVuSans-108"/>
      <use x="152.539062" xlink:href="#DejaVuSans-101"/>
      <use x="214.0625" xlink:href="#DejaVuSans-115"/>
      <use x="266.162109" xlink:href="#DejaVuSans-32"/>
      <use x="297.949219" xlink:href="#DejaVuSans-118"/>
      <use x="357.128906" xlink:href="#DejaVuSans-97"/>
      <use x="418.408203" xlink:href="#DejaVuSans-108"/>
      <use x="446.191406" xlink:href="#DejaVuSans-117"/>
      <use x="509.570312" xlink:href="#DejaVuSans-101"/>
      <use x="571.09375" xlink:href="#DejaVuSans-115"/>
     </g>
    </g>
   </g>
   <g id="line2d_45">
    <path clip-path="url(#pd01cb2ceba)" d="M 73.832727 265.270585 
L 74.538498 265.345904 
L 75.244269 265.797818 
L 75.95004 265.64718 
L 76.65581 265.119947 
L 77.361581 265.722499 
L 78.067352 265.64718 
L 78.773123 264.366757 
L 79.478893 265.722499 
L 80.184664 264.89399 
L 80.890435 264.89399 
L 82.301976 265.722499 
L 83.007747 259.169744 
L 83.713518 260.148891 
L 84.419289 260.676124 
L 85.125059 262.257824 
L 85.83083 261.504634 
L 86.536601 257.437406 
L 87.242372 264.743352 
L 87.948142 254.349326 
L 88.653913 263.613566 
L 89.359684 264.743352 
L 90.065455 247.194018 
L 90.771225 259.395701 
L 91.476996 257.437406 
L 92.182767 252.767626 
L 92.888538 262.483781 
L 93.594308 259.847615 
L 94.300079 265.345904 
L 95.711621 257.588044 
L 96.417391 259.169744 
L 97.123162 259.019106 
L 97.828933 262.483781 
L 98.534704 265.119947 
L 99.240474 264.065481 
L 99.946245 260.299529 
L 100.652016 261.655272 
L 101.357787 260.600805 
L 102.063557 262.785057 
L 102.769328 264.592714 
L 103.475099 264.517395 
L 104.18087 261.504634 
L 104.88664 264.592714 
L 105.592411 255.629749 
L 106.298182 260.9774 
L 107.003953 256.458259 
L 107.709723 264.065481 
L 108.415494 260.22421 
L 109.121265 264.366757 
L 109.827036 251.487203 
L 110.532806 256.458259 
L 111.238577 262.483781 
L 111.944348 260.600805 
L 112.650119 260.676124 
L 113.355889 263.764204 
L 114.06166 263.688885 
L 114.767431 250.95997 
L 115.473202 257.88932 
L 116.178972 255.931025 
L 116.884743 262.5591 
L 117.590514 261.353996 
L 118.296285 261.655272 
L 119.002055 265.345904 
L 119.707826 260.148891 
L 120.413597 258.115277 
L 121.119368 264.065481 
L 121.825138 260.525486 
L 122.530909 261.80591 
L 123.23668 265.270585 
L 123.942451 259.621658 
L 124.648221 260.902081 
L 125.353992 256.533578 
L 126.059763 262.483781 
L 127.471304 265.496542 
L 128.177075 264.366757 
L 128.882846 256.759535 
L 129.588617 259.395701 
L 130.294387 262.483781 
L 131.000158 258.793149 
L 131.705929 264.065481 
L 132.4117 263.538247 
L 133.11747 265.722499 
L 133.823241 257.588044 
L 134.529012 262.257824 
L 135.234783 251.637841 
L 135.940553 255.55443 
L 136.646324 252.842945 
L 137.352095 249.604227 
L 138.057866 264.366757 
L 138.763636 248.851037 
L 139.469407 255.177835 
L 140.175178 254.575283 
L 141.586719 259.621658 
L 142.29249 265.270585 
L 142.998261 259.019106 
L 143.704032 258.416553 
L 144.409802 252.918264 
L 145.115573 261.579953 
L 145.821344 253.445498 
L 146.527115 256.910173 
L 147.232885 250.357417 
L 147.938656 259.395701 
L 148.644427 254.349326 
L 149.350198 259.696977 
L 150.055968 255.780387 
L 150.761739 264.366757 
L 151.46751 264.89399 
L 152.173281 262.785057 
L 152.879051 255.705068 
L 153.584822 257.211449 
L 154.290593 259.847615 
L 154.996364 248.926356 
L 155.702134 264.291438 
L 156.407905 257.663363 
L 157.113676 257.814001 
L 157.819447 263.462928 
L 158.525217 259.922934 
L 159.230988 258.793149 
L 160.64253 265.195266 
L 161.3483 265.496542 
L 162.054071 260.450167 
L 162.759842 257.060811 
L 163.465613 255.780387 
L 164.171383 249.152313 
L 164.877154 262.031867 
L 165.582925 255.253154 
L 166.288696 265.270585 
L 166.994466 256.006345 
L 167.700237 254.650602 
L 168.406008 262.408462 
L 169.111779 258.943787 
L 169.817549 257.13613 
L 170.52332 262.5591 
L 171.229091 260.751443 
L 171.934862 252.46635 
L 172.640632 257.286768 
L 173.346403 263.538247 
L 174.052174 247.871889 
L 174.757945 264.743352 
L 175.463715 261.203357 
L 176.169486 254.499964 
L 176.875257 255.027197 
L 177.581028 252.014436 
L 178.286798 257.060811 
L 178.992569 258.265915 
L 179.69834 264.743352 
L 180.404111 263.914842 
L 181.109881 256.307621 
L 181.815652 258.115277 
L 182.521423 261.504634 
L 183.227194 256.834854 
L 183.932964 257.964639 
L 184.638735 264.291438 
L 185.344506 262.182505 
L 186.050277 255.328473 
L 186.756047 255.479111 
L 187.461818 253.520817 
L 188.167589 256.081664 
L 189.57913 264.743352 
L 190.284901 264.969309 
L 190.990672 236.875311 
L 191.696443 250.13146 
L 192.402213 236.875311 
L 193.107984 259.922934 
L 193.813755 254.424645 
L 194.519526 260.374848 
L 195.225296 261.80591 
L 195.931067 259.998253 
L 196.636838 247.721251 
L 197.342609 264.517395 
L 198.75415 260.751443 
L 199.459921 259.696977 
L 200.165692 265.571861 
L 200.871462 252.692307 
L 202.283004 264.442076 
L 202.988775 263.839523 
L 203.694545 257.88932 
L 204.400316 262.785057 
L 205.106087 261.579953 
L 205.811858 263.086333 
L 206.517628 263.613566 
L 207.223399 247.269337 
L 207.92917 254.575283 
L 208.634941 265.496542 
L 209.340711 265.195266 
L 210.046482 264.517395 
L 210.752253 265.496542 
L 211.458024 264.366757 
L 212.869565 264.366757 
L 213.575336 265.571861 
L 214.281107 265.722499 
L 214.986877 265.722499 
L 216.398419 265.270585 
L 217.10419 265.722499 
L 217.80996 265.044628 
L 218.515731 265.797818 
L 219.221502 264.366757 
L 219.927273 242.750196 
L 220.633043 257.512725 
L 221.338814 260.374848 
L 222.044585 263.914842 
L 222.750356 265.722499 
L 223.456126 244.859128 
L 224.161897 232.054894 
L 224.867668 262.5591 
L 225.573439 253.21954 
L 226.279209 250.658693 
L 226.98498 263.613566 
L 227.690751 262.709738 
L 228.396522 247.947208 
L 229.102292 253.972731 
L 229.808063 252.918264 
L 230.513834 255.403792 
L 231.219605 244.331895 
L 231.925375 262.408462 
L 232.631146 260.826762 
L 233.336917 252.391031 
L 234.042688 229.268089 
L 234.748458 244.859128 
L 235.454229 246.892742 
L 236.16 258.71783 
L 236.865771 263.839523 
L 237.571542 242.147643 
L 238.277312 254.04805 
L 238.983083 244.256576 
L 239.688854 258.416553 
L 240.394625 256.533578 
L 241.100395 265.345904 
L 241.806166 256.458259 
L 242.511937 230.925108 
L 243.217708 259.546339 
L 243.923478 250.583374 
L 244.629249 243.9553 
L 246.040791 262.483781 
L 246.746561 258.265915 
L 247.452332 243.126791 
L 248.158103 243.20211 
L 248.863874 257.437406 
L 249.569644 248.173166 
L 250.275415 252.767626 
L 251.686957 263.387609 
L 252.392727 251.261246 
L 253.098498 251.336565 
L 253.804269 247.947208 
L 254.51004 251.637841 
L 255.21581 260.374848 
L 255.921581 253.972731 
L 256.627352 263.236971 
L 257.333123 254.80124 
L 258.038893 260.826762 
L 258.744664 258.491872 
L 259.450435 252.391031 
L 260.156206 249.227632 
L 260.861976 264.668033 
L 261.567747 259.395701 
L 262.273518 265.722499 
L 262.979289 257.814001 
L 263.685059 248.022528 
L 264.39083 256.081664 
L 265.096601 249.001675 
L 265.802372 264.668033 
L 266.508142 265.421223 
L 267.213913 250.056141 
L 268.625455 254.349326 
L 269.331225 251.110608 
L 270.036996 251.411884 
L 270.742767 264.592714 
L 271.448538 264.818671 
L 272.154308 232.280851 
L 272.860079 223.317886 
L 273.56585 244.181257 
L 274.271621 243.126791 
L 274.977391 240.716582 
L 275.683162 263.538247 
L 276.388933 262.483781 
L 277.094704 251.562522 
L 277.800474 245.612319 
L 278.506245 253.294859 
L 279.212016 239.059563 
L 280.623557 263.161652 
L 281.329328 265.496542 
L 282.74087 233.711912 
L 283.44664 251.110608 
L 284.152411 254.725921 
L 284.858182 255.780387 
L 285.563953 258.265915 
L 286.269723 260.148891 
L 287.681265 240.264668 
L 288.387036 248.549761 
L 289.798577 255.705068 
L 290.504348 264.065481 
L 291.210119 262.634419 
L 291.915889 243.578705 
L 292.62166 242.825515 
L 293.327431 242.900834 
L 294.033202 253.520817 
L 294.738972 250.884651 
L 295.444743 261.504634 
L 296.150514 261.881229 
L 296.856285 251.487203 
L 297.562055 249.076994 
L 298.267826 252.767626 
L 298.973597 252.918264 
L 299.679368 253.822093 
L 300.385138 263.387609 
L 301.090909 264.1408 
L 301.79668 254.349326 
L 302.502451 249.37827 
L 303.208221 255.55443 
L 303.913992 250.13146 
L 304.619763 250.056141 
L 305.325534 256.608897 
L 306.031304 264.89399 
L 306.737075 241.771048 
L 307.442846 252.541669 
L 308.148617 250.508055 
L 308.854387 245.612319 
L 309.560158 243.503386 
L 310.265929 262.709738 
L 310.9717 255.629749 
L 311.67747 251.637841 
L 312.383241 236.498716 
L 313.089012 257.211449 
L 313.794783 244.482533 
L 314.500553 248.097847 
L 315.206324 261.128038 
L 315.912095 254.349326 
L 316.617866 254.575283 
L 318.029407 238.457011 
L 318.735178 258.341234 
L 319.440949 252.993583 
L 320.146719 260.148891 
L 320.85249 258.190596 
L 321.558261 253.746774 
L 322.264032 246.817423 
L 322.969802 251.411884 
L 323.675573 262.5591 
L 324.381344 246.666785 
L 325.087115 255.479111 
L 325.792885 257.738682 
L 326.498656 250.206779 
L 327.204427 253.068902 
L 327.910198 249.076994 
L 328.615968 246.892742 
L 329.321739 253.294859 
L 330.02751 258.567191 
L 330.733281 264.743352 
L 331.439051 236.348078 
L 332.144822 234.766379 
L 332.850593 247.269337 
L 333.556364 253.822093 
L 334.262134 251.939117 
L 334.967905 262.860376 
L 335.673676 263.839523 
L 336.379447 242.750196 
L 337.085217 261.203357 
L 337.790988 243.20211 
L 338.496759 251.261246 
L 339.20253 252.692307 
L 339.9083 261.881229 
L 340.614071 265.496542 
L 341.319842 244.557852 
L 342.025613 252.842945 
L 342.731383 265.421223 
L 343.437154 256.156983 
L 344.142925 256.608897 
L 344.848696 263.462928 
L 345.554466 260.22421 
L 346.260237 258.039958 
L 346.966008 247.645932 
L 347.671779 239.737434 
L 348.377549 260.525486 
L 349.08332 233.937869 
L 349.789091 261.730591 
L 350.494862 261.579953 
L 351.200632 231.828936 
L 351.906403 246.214871 
L 352.612174 242.674876 
L 353.317945 240.565944 
L 354.023715 236.122121 
L 354.729486 257.663363 
L 355.435257 265.797818 
L 356.141028 228.514899 
L 356.846798 230.623832 
L 357.552569 249.302951 
L 358.25834 241.62041 
L 358.964111 248.62508 
L 359.669881 258.115277 
L 360.375652 244.256576 
L 361.081423 240.490625 
L 361.787194 226.10469 
L 362.492964 214.128965 
L 363.198735 247.419975 
L 363.904506 252.315712 
L 364.610277 265.195266 
L 365.316047 236.19744 
L 366.021818 229.569366 
L 366.727589 242.072324 
L 367.43336 234.841698 
L 368.13913 251.863798 
L 368.844901 259.169744 
L 369.550672 253.746774 
L 370.256443 237.553183 
L 370.962213 216.162579 
L 371.667984 226.631923 
L 373.079526 237.402545 
L 373.785296 256.006345 
L 374.491067 262.5591 
L 375.196838 230.473194 
L 375.902609 212.17067 
L 376.608379 241.093177 
L 377.31415 246.29019 
L 378.019921 245.612319 
L 378.725692 245.160404 
L 379.431462 264.065481 
L 380.137233 237.77914 
L 380.843004 243.051472 
L 381.548775 223.01661 
L 382.254545 240.11403 
L 382.960316 233.034041 
L 383.666087 254.951878 
L 384.371858 260.902081 
L 385.077628 225.502138 
L 386.48917 251.637841 
L 387.194941 248.926356 
L 387.900711 249.905503 
L 388.606482 257.211449 
L 389.312253 252.918264 
L 390.018024 258.115277 
L 390.723794 265.64718 
L 391.429565 261.203357 
L 392.135336 265.044628 
L 392.841107 265.345904 
L 393.546877 260.9774 
L 394.252648 249.001675 
L 395.66419 264.818671 
L 396.36996 262.785057 
L 397.075731 262.408462 
L 397.781502 261.881229 
L 398.487273 256.910173 
L 398.487273 256.910173 
" style="fill:none;stroke:#1f77b4;stroke-linecap:square;stroke-width:1.5;"/>
   </g>
   <g id="line2d_46">
    <path clip-path="url(#pd01cb2ceba)" d="M 73.832727 264.044873 
L 74.538498 264.267923 
L 75.244269 265.643821 
L 75.95004 265.188826 
L 76.65581 263.585096 
L 77.361581 265.41568 
L 78.067352 265.186951 
L 78.773123 261.307298 
L 79.478893 265.418406 
L 80.184664 262.878023 
L 80.890435 262.883604 
L 82.301976 265.411371 
L 83.007747 245.503535 
L 83.713518 248.417049 
L 84.419289 250.023807 
L 85.125059 254.847516 
L 85.83083 252.574975 
L 86.536601 240.294313 
L 87.242372 262.447289 
L 87.948142 230.810789 
L 88.653913 259.011272 
L 89.359684 262.442205 
L 90.065455 209.148389 
L 90.771225 246.146752 
L 91.476996 240.141626 
L 92.182767 225.797795 
L 92.888538 255.484082 
L 93.594308 247.374784 
L 94.300079 264.254531 
L 95.711621 240.398133 
L 96.417391 245.289027 
L 97.123162 244.829889 
L 97.828933 255.423413 
L 98.534704 263.548792 
L 99.240474 260.294709 
L 99.946245 248.672983 
L 100.652016 252.839933 
L 101.357787 249.540507 
L 102.063557 256.271061 
L 102.769328 261.867973 
L 103.475099 261.65488 
L 104.18087 252.280975 
L 104.88664 261.889228 
L 105.592411 233.99469 
L 106.298182 250.511784 
L 107.003953 236.313243 
L 107.709723 260.177392 
L 108.415494 248.147934 
L 109.121265 261.146416 
L 109.827036 220.732952 
L 110.532806 236.249222 
L 111.238577 255.216323 
L 111.944348 249.378647 
L 112.650119 249.584659 
L 113.355889 259.26332 
L 114.06166 259.027255 
L 114.767431 219.132287 
L 115.473202 240.839081 
L 116.178972 234.585312 
L 116.884743 255.411053 
L 117.590514 251.628803 
L 118.296285 252.510939 
L 119.002055 264.202862 
L 119.707826 247.738725 
L 120.413597 241.291582 
L 121.119368 260.131297 
L 121.825138 248.849425 
L 122.530909 252.872244 
L 123.23668 263.942861 
L 123.942451 245.846523 
L 124.648221 249.910083 
L 125.353992 236.068735 
L 126.059763 255.045161 
L 127.471304 264.656622 
L 128.177075 261.007076 
L 128.882846 236.433467 
L 129.588617 244.753456 
L 130.294387 254.855018 
L 131.000158 242.909194 
L 131.705929 260.004038 
L 132.4117 258.279608 
L 133.11747 265.383232 
L 133.823241 238.928357 
L 134.529012 254.152653 
L 135.234783 219.849001 
L 135.940553 232.347659 
L 136.646324 223.515892 
L 137.352095 212.885297 
L 138.057866 260.966856 
L 138.763636 210.432156 
L 139.469407 231.188273 
L 140.175178 229.126866 
L 141.586719 245.383289 
L 142.29249 263.884715 
L 142.998261 243.254833 
L 143.704032 241.286543 
L 144.409802 222.899233 
L 145.115573 251.688885 
L 145.821344 224.763748 
L 146.527115 235.987925 
L 147.232885 214.139073 
L 147.938656 244.428936 
L 148.644427 227.786941 
L 149.350198 245.630154 
L 150.055968 232.582202 
L 150.761739 260.892742 
L 151.46751 262.63588 
L 152.173281 255.663327 
L 152.879051 232.221913 
L 153.584822 237.06263 
L 154.290593 245.997952 
L 154.996364 210.009767 
L 155.702134 260.636288 
L 156.407905 238.691396 
L 157.113676 239.190144 
L 157.819447 257.922581 
L 158.525217 246.073836 
L 159.230988 242.233055 
L 160.64253 263.616639 
L 161.3483 264.619527 
L 162.054071 247.821155 
L 162.759842 236.532497 
L 163.465613 232.373282 
L 164.171383 209.704544 
L 164.877154 253.02063 
L 165.582925 230.007331 
L 166.288696 263.838198 
L 166.994466 232.551005 
L 167.700237 227.967902 
L 168.406008 254.132392 
L 169.111779 242.473413 
L 169.817549 236.093922 
L 170.52332 254.68329 
L 171.229091 248.579738 
L 171.934862 220.335644 
L 172.640632 236.708676 
L 173.346403 257.9672 
L 174.052174 204.789503 
L 174.757945 262.052316 
L 175.463715 250.080409 
L 176.169486 227.410203 
L 176.875257 229.315812 
L 177.581028 219.231678 
L 178.286798 236.193222 
L 178.992569 240.140188 
L 179.69834 262.049717 
L 180.404111 259.245876 
L 181.109881 233.501516 
L 181.815652 239.724495 
L 182.521423 251.218555 
L 183.227194 235.569581 
L 183.932964 239.29663 
L 184.638735 260.571438 
L 185.344506 253.502507 
L 186.050277 230.528478 
L 186.756047 231.08849 
L 187.461818 224.20876 
L 188.167589 232.848455 
L 189.57913 262.034352 
L 190.284901 262.802109 
L 190.990672 167.344324 
L 191.696443 212.842576 
L 192.402213 168.521636 
L 193.107984 245.873909 
L 193.813755 227.361554 
L 194.519526 247.38734 
L 195.225296 252.198712 
L 195.931067 246.121189 
L 196.636838 205.024386 
L 197.342609 261.273374 
L 198.75415 248.054252 
L 199.459921 244.400481 
L 200.165692 264.825691 
L 200.871462 220.047346 
L 202.283004 260.822921 
L 202.988775 258.700581 
L 203.694545 237.714215 
L 204.400316 254.981478 
L 205.106087 250.731075 
L 205.811858 256.044079 
L 206.517628 257.861151 
L 207.223399 200.62589 
L 207.92917 225.511553 
L 208.634941 264.518336 
L 209.340711 263.400127 
L 210.046482 260.8333 
L 210.752253 264.487229 
L 211.458024 260.316702 
L 212.163794 260.367015 
L 212.869565 260.302542 
L 213.575336 264.695419 
L 214.281107 265.281732 
L 214.986877 265.291735 
L 216.398419 263.578136 
L 217.10419 265.317358 
L 217.80996 262.853469 
L 218.515731 265.602584 
L 219.221502 260.22421 
L 219.927273 178.873069 
L 220.633043 234.221453 
L 221.338814 245.130292 
L 222.044585 258.43945 
L 222.750356 265.301315 
L 223.456126 186.103959 
L 224.161897 136.3053 
L 224.867668 253.20523 
L 225.573439 217.422515 
L 226.279209 208.500991 
L 226.98498 257.39003 
L 227.690751 253.996788 
L 228.396522 198.573823 
L 229.102292 221.074057 
L 229.808063 217.331229 
L 230.513834 226.409988 
L 231.219605 184.714354 
L 231.925375 252.753105 
L 232.631146 246.763525 
L 233.336917 214.819098 
L 234.042688 127.231519 
L 234.748458 186.799523 
L 235.454229 194.584671 
L 236.16 238.930542 
L 236.865771 258.256237 
L 237.571542 177.0093 
L 238.277312 221.762014 
L 238.983083 184.873721 
L 239.688854 237.721551 
L 240.394625 230.449122 
L 241.100395 263.885204 
L 241.806166 230.374338 
L 242.511937 134.101593 
L 243.217708 241.962901 
L 243.923478 207.223136 
L 244.629249 181.741519 
L 246.040791 252.910205 
L 246.746561 236.778556 
L 247.452332 178.87746 
L 248.158103 179.525995 
L 248.863874 233.981856 
L 249.569644 199.276994 
L 250.275415 216.65277 
L 251.686957 256.524321 
L 252.392727 210.91343 
L 253.098498 211.247605 
L 253.804269 198.260119 
L 254.51004 212.264435 
L 255.21581 245.36012 
L 255.921581 221.876144 
L 256.627352 256.126968 
L 257.333123 224.939226 
L 258.038893 247.396845 
L 258.744664 238.60896 
L 259.450435 215.38265 
L 260.156206 203.464144 
L 260.861976 261.320253 
L 261.567747 241.401382 
L 262.273518 265.304027 
L 262.979289 235.648959 
L 263.685059 198.708433 
L 264.39083 229.013135 
L 265.096601 201.842563 
L 265.802372 261.302417 
L 266.508142 264.159117 
L 267.213913 205.882435 
L 268.625455 222.504426 
L 269.331225 210.295166 
L 270.036996 211.984722 
L 270.742767 261.119693 
L 271.448538 261.958536 
L 272.154308 141.165132 
L 272.860079 107.405894 
L 273.56585 184.929886 
L 274.271621 181.418227 
L 274.977391 173.452984 
L 275.683162 257.215366 
L 276.388933 253.305404 
L 277.094704 212.809375 
L 277.800474 190.020685 
L 278.506245 218.32599 
L 279.212016 164.820821 
L 280.623557 255.607184 
L 281.329328 264.44731 
L 282.74087 144.306923 
L 283.44664 210.138683 
L 284.152411 223.508142 
L 284.858182 227.492428 
L 285.563953 237.171089 
L 286.269723 244.275556 
L 287.681265 168.842646 
L 288.387036 200.730312 
L 289.798577 228.005215 
L 290.504348 259.158054 
L 291.210119 253.841947 
L 291.915889 183.05378 
L 292.62166 180.138286 
L 293.327431 180.579271 
L 294.033202 220.233783 
L 294.738972 210.051516 
L 295.444743 249.593908 
L 296.150514 250.99729 
L 296.856285 212.263953 
L 297.562055 203.080755 
L 298.267826 216.561031 
L 298.973597 216.895945 
L 299.679368 219.838147 
L 300.385138 256.267815 
L 301.090909 259.178518 
L 301.79668 221.339368 
L 302.502451 202.089135 
L 303.208221 225.809726 
L 303.913992 204.521526 
L 304.619763 204.585441 
L 305.325534 230.122433 
L 306.031304 262.094608 
L 306.737075 172.863176 
L 307.442846 214.309685 
L 308.148617 206.139845 
L 308.854387 187.007901 
L 309.560158 178.463334 
L 310.265929 253.344495 
L 310.9717 225.3042 
L 311.67747 209.494246 
L 312.383241 149.638553 
L 313.089012 231.716636 
L 313.794783 181.521429 
L 314.500553 195.859822 
L 315.206324 247.091562 
L 315.912095 220.26074 
L 316.617866 221.1551 
L 318.029407 156.751471 
L 318.735178 235.930811 
L 319.440949 214.733581 
L 320.146719 243.044844 
L 320.85249 235.235164 
L 321.558261 217.513199 
L 322.264032 189.610264 
L 322.969802 207.717207 
L 323.675573 252.51823 
L 324.381344 188.408157 
L 325.087115 223.981055 
L 325.792885 233.08803 
L 326.498656 202.731448 
L 327.204427 214.338653 
L 327.910198 198.176282 
L 328.615968 189.192341 
L 329.321739 216.054353 
L 330.02751 236.756752 
L 330.733281 261.370603 
L 331.439051 148.206919 
L 332.144822 141.828716 
L 332.850593 192.006749 
L 333.556364 218.149796 
L 334.262134 210.529996 
L 334.967905 253.913982 
L 335.673676 257.800707 
L 336.379447 174.08662 
L 337.085217 247.416767 
L 337.790988 175.996116 
L 338.496759 207.942832 
L 339.20253 213.73241 
L 339.9083 250.224856 
L 340.614071 264.396884 
L 341.319842 182.31722 
L 342.025613 215.332932 
L 342.731383 264.116456 
L 343.437154 228.276477 
L 344.142925 230.054804 
L 344.848696 256.554547 
L 345.554466 244.03269 
L 346.260237 235.587717 
L 346.966008 195.408586 
L 347.671779 164.463997 
L 348.377549 245.011416 
L 349.08332 140.428211 
L 349.789091 249.6008 
L 350.494862 249.009079 
L 351.200632 132.144112 
L 351.906403 187.096566 
L 352.612174 172.882909 
L 353.317945 164.429252 
L 354.023715 146.979151 
L 354.729486 232.964258 
L 355.435257 265.571221 
L 356.141028 116.12264 
L 356.846798 124.276678 
L 357.552569 199.479715 
L 358.25834 168.886482 
L 358.964111 196.172012 
L 359.669881 233.962732 
L 360.375652 176.957736 
L 361.081423 162.015511 
L 362.492964 52.154182 
L 363.198735 190.157968 
L 363.904506 209.818607 
L 364.610277 263.070411 
L 365.316047 143.176 
L 366.021818 115.303244 
L 366.727589 167.947072 
L 367.43336 139.041437 
L 368.13913 208.822905 
L 368.844901 238.631887 
L 369.550672 216.594021 
L 370.256443 150.786506 
L 370.962213 65.375541 
L 371.667984 107.632943 
L 372.373755 133.805379 
L 373.079526 153.642061 
L 373.785296 226.874639 
L 374.491067 252.774405 
L 375.196838 125.954861 
L 375.902609 52.293055 
L 376.608379 168.28222 
L 377.31415 189.070776 
L 378.725692 184.637799 
L 379.431462 258.783508 
L 380.137233 155.688479 
L 380.843004 175.946646 
L 381.548775 96.885565 
L 382.254545 164.341038 
L 382.960316 136.056906 
L 383.666087 222.853205 
L 384.371858 246.291651 
L 385.077628 106.847734 
L 386.48917 209.212387 
L 387.194941 198.585942 
L 387.900711 202.729129 
L 388.606482 231.282685 
L 389.312253 214.137852 
L 390.018024 234.915397 
L 390.723794 264.97376 
L 391.429565 247.405092 
L 392.135336 262.568545 
L 392.841107 263.770215 
L 393.546877 246.346001 
L 394.252648 198.449712 
L 395.66419 261.651476 
L 396.36996 253.520508 
L 397.075731 251.993648 
L 397.781502 249.881552 
L 398.487273 229.967502 
L 398.487273 229.967502 
" style="fill:none;stroke:#ff7f0e;stroke-linecap:square;stroke-width:1.5;"/>
   </g>
   <g id="patch_3">
    <path d="M 57.6 276.48 
L 57.6 41.472 
" style="fill:none;stroke:#000000;stroke-linecap:square;stroke-linejoin:miter;stroke-width:0.8;"/>
   </g>
   <g id="patch_4">
    <path d="M 414.72 276.48 
L 414.72 41.472 
" style="fill:none;stroke:#000000;stroke-linecap:square;stroke-linejoin:miter;stroke-width:0.8;"/>
   </g>
   <g id="patch_5">
    <path d="M 57.6 276.48 
L 414.72 276.48 
" style="fill:none;stroke:#000000;stroke-linecap:square;stroke-linejoin:miter;stroke-width:0.8;"/>
   </g>
   <g id="patch_6">
    <path d="M 57.6 41.472 
L 414.72 41.472 
" style="fill:none;stroke:#000000;stroke-linecap:square;stroke-linejoin:miter;stroke-width:0.8;"/>
   </g>
   <g id="text_25">
    <!-- Comparision of sales in USD and PLN -->
    <defs>
     <path d="M 64.40625 67.28125 
L 64.40625 56.890625 
Q 59.421875 61.53125 53.78125 63.8125 
Q 48.140625 66.109375 41.796875 66.109375 
Q 29.296875 66.109375 22.65625 58.46875 
Q 16.015625 50.828125 16.015625 36.375 
Q 16.015625 21.96875 22.65625 14.328125 
Q 29.296875 6.6875 41.796875 6.6875 
Q 48.140625 6.6875 53.78125 8.984375 
Q 59.421875 11.28125 64.40625 15.921875 
L 64.40625 5.609375 
Q 59.234375 2.09375 53.4375 0.328125 
Q 47.65625 -1.421875 41.21875 -1.421875 
Q 24.65625 -1.421875 15.125 8.703125 
Q 5.609375 18.84375 5.609375 36.375 
Q 5.609375 53.953125 15.125 64.078125 
Q 24.65625 74.21875 41.21875 74.21875 
Q 47.75 74.21875 53.53125 72.484375 
Q 59.328125 70.75 64.40625 67.28125 
z
" id="DejaVuSans-67"/>
     <path d="M 30.609375 48.390625 
Q 23.390625 48.390625 19.1875 42.75 
Q 14.984375 37.109375 14.984375 27.296875 
Q 14.984375 17.484375 19.15625 11.84375 
Q 23.34375 6.203125 30.609375 6.203125 
Q 37.796875 6.203125 41.984375 11.859375 
Q 46.1875 17.53125 46.1875 27.296875 
Q 46.1875 37.015625 41.984375 42.703125 
Q 37.796875 48.390625 30.609375 48.390625 
z
M 30.609375 56 
Q 42.328125 56 49.015625 48.375 
Q 55.71875 40.765625 55.71875 27.296875 
Q 55.71875 13.875 49.015625 6.21875 
Q 42.328125 -1.421875 30.609375 -1.421875 
Q 18.84375 -1.421875 12.171875 6.21875 
Q 5.515625 13.875 5.515625 27.296875 
Q 5.515625 40.765625 12.171875 48.375 
Q 18.84375 56 30.609375 56 
z
" id="DejaVuSans-111"/>
     <path d="M 52 44.1875 
Q 55.375 50.25 60.0625 53.125 
Q 64.75 56 71.09375 56 
Q 79.640625 56 84.28125 50.015625 
Q 88.921875 44.046875 88.921875 33.015625 
L 88.921875 0 
L 79.890625 0 
L 79.890625 32.71875 
Q 79.890625 40.578125 77.09375 44.375 
Q 74.3125 48.1875 68.609375 48.1875 
Q 61.625 48.1875 57.5625 43.546875 
Q 53.515625 38.921875 53.515625 30.90625 
L 53.515625 0 
L 44.484375 0 
L 44.484375 32.71875 
Q 44.484375 40.625 41.703125 44.40625 
Q 38.921875 48.1875 33.109375 48.1875 
Q 26.21875 48.1875 22.15625 43.53125 
Q 18.109375 38.875 18.109375 30.90625 
L 18.109375 0 
L 9.078125 0 
L 9.078125 54.6875 
L 18.109375 54.6875 
L 18.109375 46.1875 
Q 21.1875 51.21875 25.484375 53.609375 
Q 29.78125 56 35.6875 56 
Q 41.65625 56 45.828125 52.96875 
Q 50 49.953125 52 44.1875 
z
" id="DejaVuSans-109"/>
     <path d="M 18.109375 8.203125 
L 18.109375 -20.796875 
L 9.078125 -20.796875 
L 9.078125 54.6875 
L 18.109375 54.6875 
L 18.109375 46.390625 
Q 20.953125 51.265625 25.265625 53.625 
Q 29.59375 56 35.59375 56 
Q 45.5625 56 51.78125 48.09375 
Q 58.015625 40.1875 58.015625 27.296875 
Q 58.015625 14.40625 51.78125 6.484375 
Q 45.5625 -1.421875 35.59375 -1.421875 
Q 29.59375 -1.421875 25.265625 0.953125 
Q 20.953125 3.328125 18.109375 8.203125 
z
M 48.6875 27.296875 
Q 48.6875 37.203125 44.609375 42.84375 
Q 40.53125 48.484375 33.40625 48.484375 
Q 26.265625 48.484375 22.1875 42.84375 
Q 18.109375 37.203125 18.109375 27.296875 
Q 18.109375 17.390625 22.1875 11.75 
Q 26.265625 6.109375 33.40625 6.109375 
Q 40.53125 6.109375 44.609375 11.75 
Q 48.6875 17.390625 48.6875 27.296875 
z
" id="DejaVuSans-112"/>
     <path d="M 41.109375 46.296875 
Q 39.59375 47.171875 37.8125 47.578125 
Q 36.03125 48 33.890625 48 
Q 26.265625 48 22.1875 43.046875 
Q 18.109375 38.09375 18.109375 28.8125 
L 18.109375 0 
L 9.078125 0 
L 9.078125 54.6875 
L 18.109375 54.6875 
L 18.109375 46.1875 
Q 20.953125 51.171875 25.484375 53.578125 
Q 30.03125 56 36.53125 56 
Q 37.453125 56 38.578125 55.875 
Q 39.703125 55.765625 41.0625 55.515625 
z
" id="DejaVuSans-114"/>
     <path d="M 9.421875 54.6875 
L 18.40625 54.6875 
L 18.40625 0 
L 9.421875 0 
z
M 9.421875 75.984375 
L 18.40625 75.984375 
L 18.40625 64.59375 
L 9.421875 64.59375 
z
" id="DejaVuSans-105"/>
     <path d="M 54.890625 33.015625 
L 54.890625 0 
L 45.90625 0 
L 45.90625 32.71875 
Q 45.90625 40.484375 42.875 44.328125 
Q 39.84375 48.1875 33.796875 48.1875 
Q 26.515625 48.1875 22.3125 43.546875 
Q 18.109375 38.921875 18.109375 30.90625 
L 18.109375 0 
L 9.078125 0 
L 9.078125 54.6875 
L 18.109375 54.6875 
L 18.109375 46.1875 
Q 21.34375 51.125 25.703125 53.5625 
Q 30.078125 56 35.796875 56 
Q 45.21875 56 50.046875 50.171875 
Q 54.890625 44.34375 54.890625 33.015625 
z
" id="DejaVuSans-110"/>
     <path d="M 37.109375 75.984375 
L 37.109375 68.5 
L 28.515625 68.5 
Q 23.6875 68.5 21.796875 66.546875 
Q 19.921875 64.59375 19.921875 59.515625 
L 19.921875 54.6875 
L 34.71875 54.6875 
L 34.71875 47.703125 
L 19.921875 47.703125 
L 19.921875 0 
L 10.890625 0 
L 10.890625 47.703125 
L 2.296875 47.703125 
L 2.296875 54.6875 
L 10.890625 54.6875 
L 10.890625 58.5 
Q 10.890625 67.625 15.140625 71.796875 
Q 19.390625 75.984375 28.609375 75.984375 
z
" id="DejaVuSans-102"/>
     <path d="M 8.6875 72.90625 
L 18.609375 72.90625 
L 18.609375 28.609375 
Q 18.609375 16.890625 22.84375 11.734375 
Q 27.09375 6.59375 36.625 6.59375 
Q 46.09375 6.59375 50.34375 11.734375 
Q 54.59375 16.890625 54.59375 28.609375 
L 54.59375 72.90625 
L 64.5 72.90625 
L 64.5 27.390625 
Q 64.5 13.140625 57.4375 5.859375 
Q 50.390625 -1.421875 36.625 -1.421875 
Q 22.796875 -1.421875 15.734375 5.859375 
Q 8.6875 13.140625 8.6875 27.390625 
z
" id="DejaVuSans-85"/>
     <path d="M 45.40625 46.390625 
L 45.40625 75.984375 
L 54.390625 75.984375 
L 54.390625 0 
L 45.40625 0 
L 45.40625 8.203125 
Q 42.578125 3.328125 38.25 0.953125 
Q 33.9375 -1.421875 27.875 -1.421875 
Q 17.96875 -1.421875 11.734375 6.484375 
Q 5.515625 14.40625 5.515625 27.296875 
Q 5.515625 40.1875 11.734375 48.09375 
Q 17.96875 56 27.875 56 
Q 33.9375 56 38.25 53.625 
Q 42.578125 51.265625 45.40625 46.390625 
z
M 14.796875 27.296875 
Q 14.796875 17.390625 18.875 11.75 
Q 22.953125 6.109375 30.078125 6.109375 
Q 37.203125 6.109375 41.296875 11.75 
Q 45.40625 17.390625 45.40625 27.296875 
Q 45.40625 37.203125 41.296875 42.84375 
Q 37.203125 48.484375 30.078125 48.484375 
Q 22.953125 48.484375 18.875 42.84375 
Q 14.796875 37.203125 14.796875 27.296875 
z
" id="DejaVuSans-100"/>
     <path d="M 19.671875 64.796875 
L 19.671875 37.40625 
L 32.078125 37.40625 
Q 38.96875 37.40625 42.71875 40.96875 
Q 46.484375 44.53125 46.484375 51.125 
Q 46.484375 57.671875 42.71875 61.234375 
Q 38.96875 64.796875 32.078125 64.796875 
z
M 9.8125 72.90625 
L 32.078125 72.90625 
Q 44.34375 72.90625 50.609375 67.359375 
Q 56.890625 61.8125 56.890625 51.125 
Q 56.890625 40.328125 50.609375 34.8125 
Q 44.34375 29.296875 32.078125 29.296875 
L 19.671875 29.296875 
L 19.671875 0 
L 9.8125 0 
z
" id="DejaVuSans-80"/>
     <path d="M 9.8125 72.90625 
L 19.671875 72.90625 
L 19.671875 8.296875 
L 55.171875 8.296875 
L 55.171875 0 
L 9.8125 0 
z
" id="DejaVuSans-76"/>
     <path d="M 9.8125 72.90625 
L 23.09375 72.90625 
L 55.421875 11.921875 
L 55.421875 72.90625 
L 64.984375 72.90625 
L 64.984375 0 
L 51.703125 0 
L 19.390625 60.984375 
L 19.390625 0 
L 9.8125 0 
z
" id="DejaVuSans-78"/>
    </defs>
    <g transform="translate(125.029687 35.472)scale(0.12 -0.12)">
     <use xlink:href="#DejaVuSans-67"/>
     <use x="69.824219" xlink:href="#DejaVuSans-111"/>
     <use x="131.005859" xlink:href="#DejaVuSans-109"/>
     <use x="228.417969" xlink:href="#DejaVuSans-112"/>
     <use x="291.894531" xlink:href="#DejaVuSans-97"/>
     <use x="353.173828" xlink:href="#DejaVuSans-114"/>
     <use x="394.287109" xlink:href="#DejaVuSans-105"/>
     <use x="422.070312" xlink:href="#DejaVuSans-115"/>
     <use x="474.169922" xlink:href="#DejaVuSans-105"/>
     <use x="501.953125" xlink:href="#DejaVuSans-111"/>
     <use x="563.134766" xlink:href="#DejaVuSans-110"/>
     <use x="626.513672" xlink:href="#DejaVuSans-32"/>
     <use x="658.300781" xlink:href="#DejaVuSans-111"/>
     <use x="719.482422" xlink:href="#DejaVuSans-102"/>
     <use x="754.6875" xlink:href="#DejaVuSans-32"/>
     <use x="786.474609" xlink:href="#DejaVuSans-115"/>
     <use x="838.574219" xlink:href="#DejaVuSans-97"/>
     <use x="899.853516" xlink:href="#DejaVuSans-108"/>
     <use x="927.636719" xlink:href="#DejaVuSans-101"/>
     <use x="989.160156" xlink:href="#DejaVuSans-115"/>
     <use x="1041.259766" xlink:href="#DejaVuSans-32"/>
     <use x="1073.046875" xlink:href="#DejaVuSans-105"/>
     <use x="1100.830078" xlink:href="#DejaVuSans-110"/>
     <use x="1164.208984" xlink:href="#DejaVuSans-32"/>
     <use x="1195.996094" xlink:href="#DejaVuSans-85"/>
     <use x="1269.189453" xlink:href="#DejaVuSans-83"/>
     <use x="1332.666016" xlink:href="#DejaVuSans-68"/>
     <use x="1409.667969" xlink:href="#DejaVuSans-32"/>
     <use x="1441.455078" xlink:href="#DejaVuSans-97"/>
     <use x="1502.734375" xlink:href="#DejaVuSans-110"/>
     <use x="1566.113281" xlink:href="#DejaVuSans-100"/>
     <use x="1629.589844" xlink:href="#DejaVuSans-32"/>
     <use x="1661.376953" xlink:href="#DejaVuSans-80"/>
     <use x="1721.679688" xlink:href="#DejaVuSans-76"/>
     <use x="1777.392578" xlink:href="#DejaVuSans-78"/>
    </g>
   </g>
   <g id="legend_1">
    <g id="patch_7">
     <path d="M 64.6 78.82825 
L 160.05625 78.82825 
Q 162.05625 78.82825 162.05625 76.82825 
L 162.05625 48.472 
Q 162.05625 46.472 160.05625 46.472 
L 64.6 46.472 
Q 62.6 46.472 62.6 48.472 
L 62.6 76.82825 
Q 62.6 78.82825 64.6 78.82825 
z
" style="fill:#ffffff;opacity:0.8;stroke:#cccccc;stroke-linejoin:miter;"/>
    </g>
    <g id="line2d_47">
     <path d="M 66.6 54.570437 
L 86.6 54.570437 
" style="fill:none;stroke:#1f77b4;stroke-linecap:square;stroke-width:1.5;"/>
    </g>
    <g id="line2d_48"/>
    <g id="text_26">
     <!-- Sales in USD -->
     <g transform="translate(94.6 58.070437)scale(0.1 -0.1)">
      <use xlink:href="#DejaVuSans-83"/>
      <use x="63.476562" xlink:href="#DejaVuSans-97"/>
      <use x="124.755859" xlink:href="#DejaVuSans-108"/>
      <use x="152.539062" xlink:href="#DejaVuSans-101"/>
      <use x="214.0625" xlink:href="#DejaVuSans-115"/>
      <use x="266.162109" xlink:href="#DejaVuSans-32"/>
      <use x="297.949219" xlink:href="#DejaVuSans-105"/>
      <use x="325.732422" xlink:href="#DejaVuSans-110"/>
      <use x="389.111328" xlink:href="#DejaVuSans-32"/>
      <use x="420.898438" xlink:href="#DejaVuSans-85"/>
      <use x="494.091797" xlink:href="#DejaVuSans-83"/>
      <use x="557.568359" xlink:href="#DejaVuSans-68"/>
     </g>
    </g>
    <g id="line2d_49">
     <path d="M 66.6 69.248562 
L 86.6 69.248562 
" style="fill:none;stroke:#ff7f0e;stroke-linecap:square;stroke-width:1.5;"/>
    </g>
    <g id="line2d_50"/>
    <g id="text_27">
     <!-- Sales in PLN -->
     <g transform="translate(94.6 72.748562)scale(0.1 -0.1)">
      <use xlink:href="#DejaVuSans-83"/>
      <use x="63.476562" xlink:href="#DejaVuSans-97"/>
      <use x="124.755859" xlink:href="#DejaVuSans-108"/>
      <use x="152.539062" xlink:href="#DejaVuSans-101"/>
      <use x="214.0625" xlink:href="#DejaVuSans-115"/>
      <use x="266.162109" xlink:href="#DejaVuSans-32"/>
      <use x="297.949219" xlink:href="#DejaVuSans-105"/>
      <use x="325.732422" xlink:href="#DejaVuSans-110"/>
      <use x="389.111328" xlink:href="#DejaVuSans-32"/>
      <use x="420.898438" xlink:href="#DejaVuSans-80"/>
      <use x="481.201172" xlink:href="#DejaVuSans-76"/>
      <use x="536.914062" xlink:href="#DejaVuSans-78"/>
     </g>
    </g>
   </g>
  </g>
 </g>
 <defs>
  <clipPath id="pd01cb2ceba">
   <rect height="235.008" width="357.12" x="57.6" y="41.472"/>
  </clipPath>
 </defs>
</svg>
