<?xml version="1.0" encoding="utf-8" standalone="no"?>
<!DOCTYPE svg PUBLIC "-//W3C//DTD SVG 1.1//EN"
  "http://www.w3.org/Graphics/SVG/1.1/DTD/svg11.dtd">
<!-- Created with matplotlib (https://matplotlib.org/) -->
<svg height="345.6pt" version="1.1" viewBox="0 0 460.8 345.6" width="460.8pt" xmlns="http://www.w3.org/2000/svg" xmlns:xlink="http://www.w3.org/1999/xlink">
 <defs>
  <style type="text/css">
*{stroke-linecap:butt;stroke-linejoin:round;}
  </style>
 </defs>
 <g id="figure_1">
  <g id="patch_1">
   <path d="M 0 345.6 
L 460.8 345.6 
L 460.8 0 
L 0 0 
z
" style="fill:#ffffff;"/>
  </g>
  <g id="axes_1">
   <g id="patch_2">
    <path d="M 57.6 307.584 
L 414.72 307.584 
L 414.72 41.472 
L 57.6 41.472 
z
" style="fill:#ffffff;"/>
   </g>
   <g id="matplotlib.axis_1">
    <g id="xtick_1">
     <g id="line2d_1">
      <path clip-path="url(#p30d040e06f)" d="M 73.832727 307.584 
L 73.832727 41.472 
" style="fill:none;stroke:#b0b0b0;stroke-linecap:square;stroke-width:0.8;"/>
     </g>
     <g id="line2d_2">
      <defs>
       <path d="M 0 0 
L 0 3.5 
" id="mfccc3b7422" style="stroke:#000000;stroke-width:0.8;"/>
      </defs>
      <g>
       <use style="stroke:#000000;stroke-width:0.8;" x="73.832727" xlink:href="#mfccc3b7422" y="307.584"/>
      </g>
     </g>
     <g id="text_1">
      <!-- 2016-07-11 -->
      <defs>
       <path d="M 19.1875 8.296875 
L 53.609375 8.296875 
L 53.609375 0 
L 7.328125 0 
L 7.328125 8.296875 
Q 12.9375 14.109375 22.625 23.890625 
Q 32.328125 33.6875 34.8125 36.53125 
Q 39.546875 41.84375 41.421875 45.53125 
Q 43.3125 49.21875 43.3125 52.78125 
Q 43.3125 58.59375 39.234375 62.25 
Q 35.15625 65.921875 28.609375 65.921875 
Q 23.96875 65.921875 18.8125 64.3125 
Q 13.671875 62.703125 7.8125 59.421875 
L 7.8125 69.390625 
Q 13.765625 71.78125 18.9375 73 
Q 24.125 74.21875 28.421875 74.21875 
Q 39.75 74.21875 46.484375 68.546875 
Q 53.21875 62.890625 53.21875 53.421875 
Q 53.21875 48.921875 51.53125 44.890625 
Q 49.859375 40.875 45.40625 35.40625 
Q 44.1875 33.984375 37.640625 27.21875 
Q 31.109375 20.453125 19.1875 8.296875 
z
" id="DejaVuSans-50"/>
       <path d="M 31.78125 66.40625 
Q 24.171875 66.40625 20.328125 58.90625 
Q 16.5 51.421875 16.5 36.375 
Q 16.5 21.390625 20.328125 13.890625 
Q 24.171875 6.390625 31.78125 6.390625 
Q 39.453125 6.390625 43.28125 13.890625 
Q 47.125 21.390625 47.125 36.375 
Q 47.125 51.421875 43.28125 58.90625 
Q 39.453125 66.40625 31.78125 66.40625 
z
M 31.78125 74.21875 
Q 44.046875 74.21875 50.515625 64.515625 
Q 56.984375 54.828125 56.984375 36.375 
Q 56.984375 17.96875 50.515625 8.265625 
Q 44.046875 -1.421875 31.78125 -1.421875 
Q 19.53125 -1.421875 13.0625 8.265625 
Q 6.59375 17.96875 6.59375 36.375 
Q 6.59375 54.828125 13.0625 64.515625 
Q 19.53125 74.21875 31.78125 74.21875 
z
" id="DejaVuSans-48"/>
       <path d="M 12.40625 8.296875 
L 28.515625 8.296875 
L 28.515625 63.921875 
L 10.984375 60.40625 
L 10.984375 69.390625 
L 28.421875 72.90625 
L 38.28125 72.90625 
L 38.28125 8.296875 
L 54.390625 8.296875 
L 54.390625 0 
L 12.40625 0 
z
" id="DejaVuSans-49"/>
       <path d="M 33.015625 40.375 
Q 26.375 40.375 22.484375 35.828125 
Q 18.609375 31.296875 18.609375 23.390625 
Q 18.609375 15.53125 22.484375 10.953125 
Q 26.375 6.390625 33.015625 6.390625 
Q 39.65625 6.390625 43.53125 10.953125 
Q 47.40625 15.53125 47.40625 23.390625 
Q 47.40625 31.296875 43.53125 35.828125 
Q 39.65625 40.375 33.015625 40.375 
z
M 52.59375 71.296875 
L 52.59375 62.3125 
Q 48.875 64.0625 45.09375 64.984375 
Q 41.3125 65.921875 37.59375 65.921875 
Q 27.828125 65.921875 22.671875 59.328125 
Q 17.53125 52.734375 16.796875 39.40625 
Q 19.671875 43.65625 24.015625 45.921875 
Q 28.375 48.1875 33.59375 48.1875 
Q 44.578125 48.1875 50.953125 41.515625 
Q 57.328125 34.859375 57.328125 23.390625 
Q 57.328125 12.15625 50.6875 5.359375 
Q 44.046875 -1.421875 33.015625 -1.421875 
Q 20.359375 -1.421875 13.671875 8.265625 
Q 6.984375 17.96875 6.984375 36.375 
Q 6.984375 53.65625 15.1875 63.9375 
Q 23.390625 74.21875 37.203125 74.21875 
Q 40.921875 74.21875 44.703125 73.484375 
Q 48.484375 72.75 52.59375 71.296875 
z
" id="DejaVuSans-54"/>
       <path d="M 4.890625 31.390625 
L 31.203125 31.390625 
L 31.203125 23.390625 
L 4.890625 23.390625 
z
" id="DejaVuSans-45"/>
       <path d="M 8.203125 72.90625 
L 55.078125 72.90625 
L 55.078125 68.703125 
L 28.609375 0 
L 18.3125 0 
L 43.21875 64.59375 
L 8.203125 64.59375 
z
" id="DejaVuSans-55"/>
      </defs>
      <g transform="translate(44.774915 322.182437)scale(0.1 -0.1)">
       <use xlink:href="#DejaVuSans-50"/>
       <use x="63.623047" xlink:href="#DejaVuSans-48"/>
       <use x="127.246094" xlink:href="#DejaVuSans-49"/>
       <use x="190.869141" xlink:href="#DejaVuSans-54"/>
       <use x="254.492188" xlink:href="#DejaVuSans-45"/>
       <use x="290.576172" xlink:href="#DejaVuSans-48"/>
       <use x="354.199219" xlink:href="#DejaVuSans-55"/>
       <use x="417.822266" xlink:href="#DejaVuSans-45"/>
       <use x="453.90625" xlink:href="#DejaVuSans-49"/>
       <use x="517.529297" xlink:href="#DejaVuSans-49"/>
      </g>
     </g>
    </g>
    <g id="xtick_2">
     <g id="line2d_3">
      <path clip-path="url(#p30d040e06f)" d="M 95.00585 307.584 
L 95.00585 41.472 
" style="fill:none;stroke:#b0b0b0;stroke-linecap:square;stroke-width:0.8;"/>
     </g>
     <g id="line2d_4">
      <g>
       <use style="stroke:#000000;stroke-width:0.8;" x="95.00585" xlink:href="#mfccc3b7422" y="307.584"/>
      </g>
     </g>
     <g id="text_2">
      <!-- 2016-02-11 -->
      <g transform="translate(65.948037 322.182437)scale(0.1 -0.1)">
       <use xlink:href="#DejaVuSans-50"/>
       <use x="63.623047" xlink:href="#DejaVuSans-48"/>
       <use x="127.246094" xlink:href="#DejaVuSans-49"/>
       <use x="190.869141" xlink:href="#DejaVuSans-54"/>
       <use x="254.492188" xlink:href="#DejaVuSans-45"/>
       <use x="290.576172" xlink:href="#DejaVuSans-48"/>
       <use x="354.199219" xlink:href="#DejaVuSans-50"/>
       <use x="417.822266" xlink:href="#DejaVuSans-45"/>
       <use x="453.90625" xlink:href="#DejaVuSans-49"/>
       <use x="517.529297" xlink:href="#DejaVuSans-49"/>
      </g>
     </g>
    </g>
    <g id="xtick_3">
     <g id="line2d_5">
      <path clip-path="url(#p30d040e06f)" d="M 116.178972 307.584 
L 116.178972 41.472 
" style="fill:none;stroke:#b0b0b0;stroke-linecap:square;stroke-width:0.8;"/>
     </g>
     <g id="line2d_6">
      <g>
       <use style="stroke:#000000;stroke-width:0.8;" x="116.178972" xlink:href="#mfccc3b7422" y="307.584"/>
      </g>
     </g>
     <g id="text_3">
      <!-- 2016-01-11 -->
      <g transform="translate(87.12116 322.182437)scale(0.1 -0.1)">
       <use xlink:href="#DejaVuSans-50"/>
       <use x="63.623047" xlink:href="#DejaVuSans-48"/>
       <use x="127.246094" xlink:href="#DejaVuSans-49"/>
       <use x="190.869141" xlink:href="#DejaVuSans-54"/>
       <use x="254.492188" xlink:href="#DejaVuSans-45"/>
       <use x="290.576172" xlink:href="#DejaVuSans-48"/>
       <use x="354.199219" xlink:href="#DejaVuSans-49"/>
       <use x="417.822266" xlink:href="#DejaVuSans-45"/>
       <use x="453.90625" xlink:href="#DejaVuSans-49"/>
       <use x="517.529297" xlink:href="#DejaVuSans-49"/>
      </g>
     </g>
    </g>
    <g id="xtick_4">
     <g id="line2d_7">
      <path clip-path="url(#p30d040e06f)" d="M 137.352095 307.584 
L 137.352095 41.472 
" style="fill:none;stroke:#b0b0b0;stroke-linecap:square;stroke-width:0.8;"/>
     </g>
     <g id="line2d_8">
      <g>
       <use style="stroke:#000000;stroke-width:0.8;" x="137.352095" xlink:href="#mfccc3b7422" y="307.584"/>
      </g>
     </g>
     <g id="text_4">
      <!-- 2015-12-12 -->
      <defs>
       <path d="M 10.796875 72.90625 
L 49.515625 72.90625 
L 49.515625 64.59375 
L 19.828125 64.59375 
L 19.828125 46.734375 
Q 21.96875 47.46875 24.109375 47.828125 
Q 26.265625 48.1875 28.421875 48.1875 
Q 40.625 48.1875 47.75 41.5 
Q 54.890625 34.8125 54.890625 23.390625 
Q 54.890625 11.625 47.5625 5.09375 
Q 40.234375 -1.421875 26.90625 -1.421875 
Q 22.3125 -1.421875 17.546875 -0.640625 
Q 12.796875 0.140625 7.71875 1.703125 
L 7.71875 11.625 
Q 12.109375 9.234375 16.796875 8.0625 
Q 21.484375 6.890625 26.703125 6.890625 
Q 35.15625 6.890625 40.078125 11.328125 
Q 45.015625 15.765625 45.015625 23.390625 
Q 45.015625 31 40.078125 35.4375 
Q 35.15625 39.890625 26.703125 39.890625 
Q 22.75 39.890625 18.8125 39.015625 
Q 14.890625 38.140625 10.796875 36.28125 
z
" id="DejaVuSans-53"/>
      </defs>
      <g transform="translate(108.294282 322.182437)scale(0.1 -0.1)">
       <use xlink:href="#DejaVuSans-50"/>
       <use x="63.623047" xlink:href="#DejaVuSans-48"/>
       <use x="127.246094" xlink:href="#DejaVuSans-49"/>
       <use x="190.869141" xlink:href="#DejaVuSans-53"/>
       <use x="254.492188" xlink:href="#DejaVuSans-45"/>
       <use x="290.576172" xlink:href="#DejaVuSans-49"/>
       <use x="354.199219" xlink:href="#DejaVuSans-50"/>
       <use x="417.822266" xlink:href="#DejaVuSans-45"/>
       <use x="453.90625" xlink:href="#DejaVuSans-49"/>
       <use x="517.529297" xlink:href="#DejaVuSans-50"/>
      </g>
     </g>
    </g>
    <g id="xtick_5">
     <g id="line2d_9">
      <path clip-path="url(#p30d040e06f)" d="M 158.525217 307.584 
L 158.525217 41.472 
" style="fill:none;stroke:#b0b0b0;stroke-linecap:square;stroke-width:0.8;"/>
     </g>
     <g id="line2d_10">
      <g>
       <use style="stroke:#000000;stroke-width:0.8;" x="158.525217" xlink:href="#mfccc3b7422" y="307.584"/>
      </g>
     </g>
     <g id="text_5">
      <!-- 2015-11-12 -->
      <g transform="translate(129.467405 322.182437)scale(0.1 -0.1)">
       <use xlink:href="#DejaVuSans-50"/>
       <use x="63.623047" xlink:href="#DejaVuSans-48"/>
       <use x="127.246094" xlink:href="#DejaVuSans-49"/>
       <use x="190.869141" xlink:href="#DejaVuSans-53"/>
       <use x="254.492188" xlink:href="#DejaVuSans-45"/>
       <use x="290.576172" xlink:href="#DejaVuSans-49"/>
       <use x="354.199219" xlink:href="#DejaVuSans-49"/>
       <use x="417.822266" xlink:href="#DejaVuSans-45"/>
       <use x="453.90625" xlink:href="#DejaVuSans-49"/>
       <use x="517.529297" xlink:href="#DejaVuSans-50"/>
      </g>
     </g>
    </g>
    <g id="xtick_6">
     <g id="line2d_11">
      <path clip-path="url(#p30d040e06f)" d="M 179.69834 307.584 
L 179.69834 41.472 
" style="fill:none;stroke:#b0b0b0;stroke-linecap:square;stroke-width:0.8;"/>
     </g>
     <g id="line2d_12">
      <g>
       <use style="stroke:#000000;stroke-width:0.8;" x="179.69834" xlink:href="#mfccc3b7422" y="307.584"/>
      </g>
     </g>
     <g id="text_6">
      <!-- 2015-10-13 -->
      <defs>
       <path d="M 40.578125 39.3125 
Q 47.65625 37.796875 51.625 33 
Q 55.609375 28.21875 55.609375 21.1875 
Q 55.609375 10.40625 48.1875 4.484375 
Q 40.765625 -1.421875 27.09375 -1.421875 
Q 22.515625 -1.421875 17.65625 -0.515625 
Q 12.796875 0.390625 7.625 2.203125 
L 7.625 11.71875 
Q 11.71875 9.328125 16.59375 8.109375 
Q 21.484375 6.890625 26.8125 6.890625 
Q 36.078125 6.890625 40.9375 10.546875 
Q 45.796875 14.203125 45.796875 21.1875 
Q 45.796875 27.640625 41.28125 31.265625 
Q 36.765625 34.90625 28.71875 34.90625 
L 20.21875 34.90625 
L 20.21875 43.015625 
L 29.109375 43.015625 
Q 36.375 43.015625 40.234375 45.921875 
Q 44.09375 48.828125 44.09375 54.296875 
Q 44.09375 59.90625 40.109375 62.90625 
Q 36.140625 65.921875 28.71875 65.921875 
Q 24.65625 65.921875 20.015625 65.03125 
Q 15.375 64.15625 9.8125 62.3125 
L 9.8125 71.09375 
Q 15.4375 72.65625 20.34375 73.4375 
Q 25.25 74.21875 29.59375 74.21875 
Q 40.828125 74.21875 47.359375 69.109375 
Q 53.90625 64.015625 53.90625 55.328125 
Q 53.90625 49.265625 50.4375 45.09375 
Q 46.96875 40.921875 40.578125 39.3125 
z
" id="DejaVuSans-51"/>
      </defs>
      <g transform="translate(150.640527 322.182437)scale(0.1 -0.1)">
       <use xlink:href="#DejaVuSans-50"/>
       <use x="63.623047" xlink:href="#DejaVuSans-48"/>
       <use x="127.246094" xlink:href="#DejaVuSans-49"/>
       <use x="190.869141" xlink:href="#DejaVuSans-53"/>
       <use x="254.492188" xlink:href="#DejaVuSans-45"/>
       <use x="290.576172" xlink:href="#DejaVuSans-49"/>
       <use x="354.199219" xlink:href="#DejaVuSans-48"/>
       <use x="417.822266" xlink:href="#DejaVuSans-45"/>
       <use x="453.90625" xlink:href="#DejaVuSans-49"/>
       <use x="517.529297" xlink:href="#DejaVuSans-51"/>
      </g>
     </g>
    </g>
    <g id="xtick_7">
     <g id="line2d_13">
      <path clip-path="url(#p30d040e06f)" d="M 200.871462 307.584 
L 200.871462 41.472 
" style="fill:none;stroke:#b0b0b0;stroke-linecap:square;stroke-width:0.8;"/>
     </g>
     <g id="line2d_14">
      <g>
       <use style="stroke:#000000;stroke-width:0.8;" x="200.871462" xlink:href="#mfccc3b7422" y="307.584"/>
      </g>
     </g>
     <g id="text_7">
      <!-- 2015-09-13 -->
      <defs>
       <path d="M 10.984375 1.515625 
L 10.984375 10.5 
Q 14.703125 8.734375 18.5 7.8125 
Q 22.3125 6.890625 25.984375 6.890625 
Q 35.75 6.890625 40.890625 13.453125 
Q 46.046875 20.015625 46.78125 33.40625 
Q 43.953125 29.203125 39.59375 26.953125 
Q 35.25 24.703125 29.984375 24.703125 
Q 19.046875 24.703125 12.671875 31.3125 
Q 6.296875 37.9375 6.296875 49.421875 
Q 6.296875 60.640625 12.9375 67.421875 
Q 19.578125 74.21875 30.609375 74.21875 
Q 43.265625 74.21875 49.921875 64.515625 
Q 56.59375 54.828125 56.59375 36.375 
Q 56.59375 19.140625 48.40625 8.859375 
Q 40.234375 -1.421875 26.421875 -1.421875 
Q 22.703125 -1.421875 18.890625 -0.6875 
Q 15.09375 0.046875 10.984375 1.515625 
z
M 30.609375 32.421875 
Q 37.25 32.421875 41.125 36.953125 
Q 45.015625 41.5 45.015625 49.421875 
Q 45.015625 57.28125 41.125 61.84375 
Q 37.25 66.40625 30.609375 66.40625 
Q 23.96875 66.40625 20.09375 61.84375 
Q 16.21875 57.28125 16.21875 49.421875 
Q 16.21875 41.5 20.09375 36.953125 
Q 23.96875 32.421875 30.609375 32.421875 
z
" id="DejaVuSans-57"/>
      </defs>
      <g transform="translate(171.81365 322.182437)scale(0.1 -0.1)">
       <use xlink:href="#DejaVuSans-50"/>
       <use x="63.623047" xlink:href="#DejaVuSans-48"/>
       <use x="127.246094" xlink:href="#DejaVuSans-49"/>
       <use x="190.869141" xlink:href="#DejaVuSans-53"/>
       <use x="254.492188" xlink:href="#DejaVuSans-45"/>
       <use x="290.576172" xlink:href="#DejaVuSans-48"/>
       <use x="354.199219" xlink:href="#DejaVuSans-57"/>
       <use x="417.822266" xlink:href="#DejaVuSans-45"/>
       <use x="453.90625" xlink:href="#DejaVuSans-49"/>
       <use x="517.529297" xlink:href="#DejaVuSans-51"/>
      </g>
     </g>
    </g>
    <g id="xtick_8">
     <g id="line2d_15">
      <path clip-path="url(#p30d040e06f)" d="M 222.044585 307.584 
L 222.044585 41.472 
" style="fill:none;stroke:#b0b0b0;stroke-linecap:square;stroke-width:0.8;"/>
     </g>
     <g id="line2d_16">
      <g>
       <use style="stroke:#000000;stroke-width:0.8;" x="222.044585" xlink:href="#mfccc3b7422" y="307.584"/>
      </g>
     </g>
     <g id="text_8">
      <!-- 2015-08-14 -->
      <defs>
       <path d="M 31.78125 34.625 
Q 24.75 34.625 20.71875 30.859375 
Q 16.703125 27.09375 16.703125 20.515625 
Q 16.703125 13.921875 20.71875 10.15625 
Q 24.75 6.390625 31.78125 6.390625 
Q 38.8125 6.390625 42.859375 10.171875 
Q 46.921875 13.96875 46.921875 20.515625 
Q 46.921875 27.09375 42.890625 30.859375 
Q 38.875 34.625 31.78125 34.625 
z
M 21.921875 38.8125 
Q 15.578125 40.375 12.03125 44.71875 
Q 8.5 49.078125 8.5 55.328125 
Q 8.5 64.0625 14.71875 69.140625 
Q 20.953125 74.21875 31.78125 74.21875 
Q 42.671875 74.21875 48.875 69.140625 
Q 55.078125 64.0625 55.078125 55.328125 
Q 55.078125 49.078125 51.53125 44.71875 
Q 48 40.375 41.703125 38.8125 
Q 48.828125 37.15625 52.796875 32.3125 
Q 56.78125 27.484375 56.78125 20.515625 
Q 56.78125 9.90625 50.3125 4.234375 
Q 43.84375 -1.421875 31.78125 -1.421875 
Q 19.734375 -1.421875 13.25 4.234375 
Q 6.78125 9.90625 6.78125 20.515625 
Q 6.78125 27.484375 10.78125 32.3125 
Q 14.796875 37.15625 21.921875 38.8125 
z
M 18.3125 54.390625 
Q 18.3125 48.734375 21.84375 45.5625 
Q 25.390625 42.390625 31.78125 42.390625 
Q 38.140625 42.390625 41.71875 45.5625 
Q 45.3125 48.734375 45.3125 54.390625 
Q 45.3125 60.0625 41.71875 63.234375 
Q 38.140625 66.40625 31.78125 66.40625 
Q 25.390625 66.40625 21.84375 63.234375 
Q 18.3125 60.0625 18.3125 54.390625 
z
" id="DejaVuSans-56"/>
       <path d="M 37.796875 64.3125 
L 12.890625 25.390625 
L 37.796875 25.390625 
z
M 35.203125 72.90625 
L 47.609375 72.90625 
L 47.609375 25.390625 
L 58.015625 25.390625 
L 58.015625 17.1875 
L 47.609375 17.1875 
L 47.609375 0 
L 37.796875 0 
L 37.796875 17.1875 
L 4.890625 17.1875 
L 4.890625 26.703125 
z
" id="DejaVuSans-52"/>
      </defs>
      <g transform="translate(192.986772 322.182437)scale(0.1 -0.1)">
       <use xlink:href="#DejaVuSans-50"/>
       <use x="63.623047" xlink:href="#DejaVuSans-48"/>
       <use x="127.246094" xlink:href="#DejaVuSans-49"/>
       <use x="190.869141" xlink:href="#DejaVuSans-53"/>
       <use x="254.492188" xlink:href="#DejaVuSans-45"/>
       <use x="290.576172" xlink:href="#DejaVuSans-48"/>
       <use x="354.199219" xlink:href="#DejaVuSans-56"/>
       <use x="417.822266" xlink:href="#DejaVuSans-45"/>
       <use x="453.90625" xlink:href="#DejaVuSans-49"/>
       <use x="517.529297" xlink:href="#DejaVuSans-52"/>
      </g>
     </g>
    </g>
    <g id="xtick_9">
     <g id="line2d_17">
      <path clip-path="url(#p30d040e06f)" d="M 243.217708 307.584 
L 243.217708 41.472 
" style="fill:none;stroke:#b0b0b0;stroke-linecap:square;stroke-width:0.8;"/>
     </g>
     <g id="line2d_18">
      <g>
       <use style="stroke:#000000;stroke-width:0.8;" x="243.217708" xlink:href="#mfccc3b7422" y="307.584"/>
      </g>
     </g>
     <g id="text_9">
      <!-- 2015-07-14 -->
      <g transform="translate(214.159895 322.182437)scale(0.1 -0.1)">
       <use xlink:href="#DejaVuSans-50"/>
       <use x="63.623047" xlink:href="#DejaVuSans-48"/>
       <use x="127.246094" xlink:href="#DejaVuSans-49"/>
       <use x="190.869141" xlink:href="#DejaVuSans-53"/>
       <use x="254.492188" xlink:href="#DejaVuSans-45"/>
       <use x="290.576172" xlink:href="#DejaVuSans-48"/>
       <use x="354.199219" xlink:href="#DejaVuSans-55"/>
       <use x="417.822266" xlink:href="#DejaVuSans-45"/>
       <use x="453.90625" xlink:href="#DejaVuSans-49"/>
       <use x="517.529297" xlink:href="#DejaVuSans-52"/>
      </g>
     </g>
    </g>
    <g id="xtick_10">
     <g id="line2d_19">
      <path clip-path="url(#p30d040e06f)" d="M 264.39083 307.584 
L 264.39083 41.472 
" style="fill:none;stroke:#b0b0b0;stroke-linecap:square;stroke-width:0.8;"/>
     </g>
     <g id="line2d_20">
      <g>
       <use style="stroke:#000000;stroke-width:0.8;" x="264.39083" xlink:href="#mfccc3b7422" y="307.584"/>
      </g>
     </g>
     <g id="text_10">
      <!-- 2015-01-01 -->
      <g transform="translate(235.333018 322.182437)scale(0.1 -0.1)">
       <use xlink:href="#DejaVuSans-50"/>
       <use x="63.623047" xlink:href="#DejaVuSans-48"/>
       <use x="127.246094" xlink:href="#DejaVuSans-49"/>
       <use x="190.869141" xlink:href="#DejaVuSans-53"/>
       <use x="254.492188" xlink:href="#DejaVuSans-45"/>
       <use x="290.576172" xlink:href="#DejaVuSans-48"/>
       <use x="354.199219" xlink:href="#DejaVuSans-49"/>
       <use x="417.822266" xlink:href="#DejaVuSans-45"/>
       <use x="453.90625" xlink:href="#DejaVuSans-48"/>
       <use x="517.529297" xlink:href="#DejaVuSans-49"/>
      </g>
     </g>
    </g>
    <g id="xtick_11">
     <g id="line2d_21">
      <path clip-path="url(#p30d040e06f)" d="M 285.563953 307.584 
L 285.563953 41.472 
" style="fill:none;stroke:#b0b0b0;stroke-linecap:square;stroke-width:0.8;"/>
     </g>
     <g id="line2d_22">
      <g>
       <use style="stroke:#000000;stroke-width:0.8;" x="285.563953" xlink:href="#mfccc3b7422" y="307.584"/>
      </g>
     </g>
     <g id="text_11">
      <!-- 2014-12-02 -->
      <g transform="translate(256.50614 322.182437)scale(0.1 -0.1)">
       <use xlink:href="#DejaVuSans-50"/>
       <use x="63.623047" xlink:href="#DejaVuSans-48"/>
       <use x="127.246094" xlink:href="#DejaVuSans-49"/>
       <use x="190.869141" xlink:href="#DejaVuSans-52"/>
       <use x="254.492188" xlink:href="#DejaVuSans-45"/>
       <use x="290.576172" xlink:href="#DejaVuSans-49"/>
       <use x="354.199219" xlink:href="#DejaVuSans-50"/>
       <use x="417.822266" xlink:href="#DejaVuSans-45"/>
       <use x="453.90625" xlink:href="#DejaVuSans-48"/>
       <use x="517.529297" xlink:href="#DejaVuSans-50"/>
      </g>
     </g>
    </g>
    <g id="xtick_12">
     <g id="line2d_23">
      <path clip-path="url(#p30d040e06f)" d="M 306.737075 307.584 
L 306.737075 41.472 
" style="fill:none;stroke:#b0b0b0;stroke-linecap:square;stroke-width:0.8;"/>
     </g>
     <g id="line2d_24">
      <g>
       <use style="stroke:#000000;stroke-width:0.8;" x="306.737075" xlink:href="#mfccc3b7422" y="307.584"/>
      </g>
     </g>
     <g id="text_12">
      <!-- 2014-11-01 -->
      <g transform="translate(277.679263 322.182437)scale(0.1 -0.1)">
       <use xlink:href="#DejaVuSans-50"/>
       <use x="63.623047" xlink:href="#DejaVuSans-48"/>
       <use x="127.246094" xlink:href="#DejaVuSans-49"/>
       <use x="190.869141" xlink:href="#DejaVuSans-52"/>
       <use x="254.492188" xlink:href="#DejaVuSans-45"/>
       <use x="290.576172" xlink:href="#DejaVuSans-49"/>
       <use x="354.199219" xlink:href="#DejaVuSans-49"/>
       <use x="417.822266" xlink:href="#DejaVuSans-45"/>
       <use x="453.90625" xlink:href="#DejaVuSans-48"/>
       <use x="517.529297" xlink:href="#DejaVuSans-49"/>
      </g>
     </g>
    </g>
    <g id="xtick_13">
     <g id="line2d_25">
      <path clip-path="url(#p30d040e06f)" d="M 327.910198 307.584 
L 327.910198 41.472 
" style="fill:none;stroke:#b0b0b0;stroke-linecap:square;stroke-width:0.8;"/>
     </g>
     <g id="line2d_26">
      <g>
       <use style="stroke:#000000;stroke-width:0.8;" x="327.910198" xlink:href="#mfccc3b7422" y="307.584"/>
      </g>
     </g>
     <g id="text_13">
      <!-- 2014-10-01 -->
      <g transform="translate(298.852385 322.182437)scale(0.1 -0.1)">
       <use xlink:href="#DejaVuSans-50"/>
       <use x="63.623047" xlink:href="#DejaVuSans-48"/>
       <use x="127.246094" xlink:href="#DejaVuSans-49"/>
       <use x="190.869141" xlink:href="#DejaVuSans-52"/>
       <use x="254.492188" xlink:href="#DejaVuSans-45"/>
       <use x="290.576172" xlink:href="#DejaVuSans-49"/>
       <use x="354.199219" xlink:href="#DejaVuSans-48"/>
       <use x="417.822266" xlink:href="#DejaVuSans-45"/>
       <use x="453.90625" xlink:href="#DejaVuSans-48"/>
       <use x="517.529297" xlink:href="#DejaVuSans-49"/>
      </g>
     </g>
    </g>
    <g id="xtick_14">
     <g id="line2d_27">
      <path clip-path="url(#p30d040e06f)" d="M 349.08332 307.584 
L 349.08332 41.472 
" style="fill:none;stroke:#b0b0b0;stroke-linecap:square;stroke-width:0.8;"/>
     </g>
     <g id="line2d_28">
      <g>
       <use style="stroke:#000000;stroke-width:0.8;" x="349.08332" xlink:href="#mfccc3b7422" y="307.584"/>
      </g>
     </g>
     <g id="text_14">
      <!-- 2014-08-30 -->
      <g transform="translate(320.025508 322.182437)scale(0.1 -0.1)">
       <use xlink:href="#DejaVuSans-50"/>
       <use x="63.623047" xlink:href="#DejaVuSans-48"/>
       <use x="127.246094" xlink:href="#DejaVuSans-49"/>
       <use x="190.869141" xlink:href="#DejaVuSans-52"/>
       <use x="254.492188" xlink:href="#DejaVuSans-45"/>
       <use x="290.576172" xlink:href="#DejaVuSans-48"/>
       <use x="354.199219" xlink:href="#DejaVuSans-56"/>
       <use x="417.822266" xlink:href="#DejaVuSans-45"/>
       <use x="453.90625" xlink:href="#DejaVuSans-51"/>
       <use x="517.529297" xlink:href="#DejaVuSans-48"/>
      </g>
     </g>
    </g>
    <g id="xtick_15">
     <g id="line2d_29">
      <path clip-path="url(#p30d040e06f)" d="M 370.256443 307.584 
L 370.256443 41.472 
" style="fill:none;stroke:#b0b0b0;stroke-linecap:square;stroke-width:0.8;"/>
     </g>
     <g id="line2d_30">
      <g>
       <use style="stroke:#000000;stroke-width:0.8;" x="370.256443" xlink:href="#mfccc3b7422" y="307.584"/>
      </g>
     </g>
     <g id="text_15">
      <!-- 2014-07-31 -->
      <g transform="translate(341.19863 322.182437)scale(0.1 -0.1)">
       <use xlink:href="#DejaVuSans-50"/>
       <use x="63.623047" xlink:href="#DejaVuSans-48"/>
       <use x="127.246094" xlink:href="#DejaVuSans-49"/>
       <use x="190.869141" xlink:href="#DejaVuSans-52"/>
       <use x="254.492188" xlink:href="#DejaVuSans-45"/>
       <use x="290.576172" xlink:href="#DejaVuSans-48"/>
       <use x="354.199219" xlink:href="#DejaVuSans-55"/>
       <use x="417.822266" xlink:href="#DejaVuSans-45"/>
       <use x="453.90625" xlink:href="#DejaVuSans-51"/>
       <use x="517.529297" xlink:href="#DejaVuSans-49"/>
      </g>
     </g>
    </g>
    <g id="xtick_16">
     <g id="line2d_31">
      <path clip-path="url(#p30d040e06f)" d="M 391.429565 307.584 
L 391.429565 41.472 
" style="fill:none;stroke:#b0b0b0;stroke-linecap:square;stroke-width:0.8;"/>
     </g>
     <g id="line2d_32">
      <g>
       <use style="stroke:#000000;stroke-width:0.8;" x="391.429565" xlink:href="#mfccc3b7422" y="307.584"/>
      </g>
     </g>
     <g id="text_16">
      <!-- 2014-05-27 -->
      <g transform="translate(362.371753 322.182437)scale(0.1 -0.1)">
       <use xlink:href="#DejaVuSans-50"/>
       <use x="63.623047" xlink:href="#DejaVuSans-48"/>
       <use x="127.246094" xlink:href="#DejaVuSans-49"/>
       <use x="190.869141" xlink:href="#DejaVuSans-52"/>
       <use x="254.492188" xlink:href="#DejaVuSans-45"/>
       <use x="290.576172" xlink:href="#DejaVuSans-48"/>
       <use x="354.199219" xlink:href="#DejaVuSans-53"/>
       <use x="417.822266" xlink:href="#DejaVuSans-45"/>
       <use x="453.90625" xlink:href="#DejaVuSans-50"/>
       <use x="517.529297" xlink:href="#DejaVuSans-55"/>
      </g>
     </g>
    </g>
    <g id="text_17">
     <!-- Dates -->
     <defs>
      <path d="M 19.671875 64.796875 
L 19.671875 8.109375 
L 31.59375 8.109375 
Q 46.6875 8.109375 53.6875 14.9375 
Q 60.6875 21.78125 60.6875 36.53125 
Q 60.6875 51.171875 53.6875 57.984375 
Q 46.6875 64.796875 31.59375 64.796875 
z
M 9.8125 72.90625 
L 30.078125 72.90625 
Q 51.265625 72.90625 61.171875 64.09375 
Q 71.09375 55.28125 71.09375 36.53125 
Q 71.09375 17.671875 61.125 8.828125 
Q 51.171875 0 30.078125 0 
L 9.8125 0 
z
" id="DejaVuSans-68"/>
      <path d="M 34.28125 27.484375 
Q 23.390625 27.484375 19.1875 25 
Q 14.984375 22.515625 14.984375 16.5 
Q 14.984375 11.71875 18.140625 8.90625 
Q 21.296875 6.109375 26.703125 6.109375 
Q 34.1875 6.109375 38.703125 11.40625 
Q 43.21875 16.703125 43.21875 25.484375 
L 43.21875 27.484375 
z
M 52.203125 31.203125 
L 52.203125 0 
L 43.21875 0 
L 43.21875 8.296875 
Q 40.140625 3.328125 35.546875 0.953125 
Q 30.953125 -1.421875 24.3125 -1.421875 
Q 15.921875 -1.421875 10.953125 3.296875 
Q 6 8.015625 6 15.921875 
Q 6 25.140625 12.171875 29.828125 
Q 18.359375 34.515625 30.609375 34.515625 
L 43.21875 34.515625 
L 43.21875 35.40625 
Q 43.21875 41.609375 39.140625 45 
Q 35.0625 48.390625 27.6875 48.390625 
Q 23 48.390625 18.546875 47.265625 
Q 14.109375 46.140625 10.015625 43.890625 
L 10.015625 52.203125 
Q 14.9375 54.109375 19.578125 55.046875 
Q 24.21875 56 28.609375 56 
Q 40.484375 56 46.34375 49.84375 
Q 52.203125 43.703125 52.203125 31.203125 
z
" id="DejaVuSans-97"/>
      <path d="M 18.3125 70.21875 
L 18.3125 54.6875 
L 36.8125 54.6875 
L 36.8125 47.703125 
L 18.3125 47.703125 
L 18.3125 18.015625 
Q 18.3125 11.328125 20.140625 9.421875 
Q 21.96875 7.515625 27.59375 7.515625 
L 36.8125 7.515625 
L 36.8125 0 
L 27.59375 0 
Q 17.1875 0 13.234375 3.875 
Q 9.28125 7.765625 9.28125 18.015625 
L 9.28125 47.703125 
L 2.6875 47.703125 
L 2.6875 54.6875 
L 9.28125 54.6875 
L 9.28125 70.21875 
z
" id="DejaVuSans-116"/>
      <path d="M 56.203125 29.59375 
L 56.203125 25.203125 
L 14.890625 25.203125 
Q 15.484375 15.921875 20.484375 11.0625 
Q 25.484375 6.203125 34.421875 6.203125 
Q 39.59375 6.203125 44.453125 7.46875 
Q 49.3125 8.734375 54.109375 11.28125 
L 54.109375 2.78125 
Q 49.265625 0.734375 44.1875 -0.34375 
Q 39.109375 -1.421875 33.890625 -1.421875 
Q 20.796875 -1.421875 13.15625 6.1875 
Q 5.515625 13.8125 5.515625 26.8125 
Q 5.515625 40.234375 12.765625 48.109375 
Q 20.015625 56 32.328125 56 
Q 43.359375 56 49.78125 48.890625 
Q 56.203125 41.796875 56.203125 29.59375 
z
M 47.21875 32.234375 
Q 47.125 39.59375 43.09375 43.984375 
Q 39.0625 48.390625 32.421875 48.390625 
Q 24.90625 48.390625 20.390625 44.140625 
Q 15.875 39.890625 15.1875 32.171875 
z
" id="DejaVuSans-101"/>
      <path d="M 44.28125 53.078125 
L 44.28125 44.578125 
Q 40.484375 46.53125 36.375 47.5 
Q 32.28125 48.484375 27.875 48.484375 
Q 21.1875 48.484375 17.84375 46.4375 
Q 14.5 44.390625 14.5 40.28125 
Q 14.5 37.15625 16.890625 35.375 
Q 19.28125 33.59375 26.515625 31.984375 
L 29.59375 31.296875 
Q 39.15625 29.25 43.1875 25.515625 
Q 47.21875 21.78125 47.21875 15.09375 
Q 47.21875 7.46875 41.1875 3.015625 
Q 35.15625 -1.421875 24.609375 -1.421875 
Q 20.21875 -1.421875 15.453125 -0.5625 
Q 10.6875 0.296875 5.421875 2 
L 5.421875 11.28125 
Q 10.40625 8.6875 15.234375 7.390625 
Q 20.0625 6.109375 24.8125 6.109375 
Q 31.15625 6.109375 34.5625 8.28125 
Q 37.984375 10.453125 37.984375 14.40625 
Q 37.984375 18.0625 35.515625 20.015625 
Q 33.0625 21.96875 24.703125 23.78125 
L 21.578125 24.515625 
Q 13.234375 26.265625 9.515625 29.90625 
Q 5.8125 33.546875 5.8125 39.890625 
Q 5.8125 47.609375 11.28125 51.796875 
Q 16.75 56 26.8125 56 
Q 31.78125 56 36.171875 55.265625 
Q 40.578125 54.546875 44.28125 53.078125 
z
" id="DejaVuSans-115"/>
     </defs>
     <g transform="translate(221.604531 335.860562)scale(0.1 -0.1)">
      <use xlink:href="#DejaVuSans-68"/>
      <use x="77.001953" xlink:href="#DejaVuSans-97"/>
      <use x="138.28125" xlink:href="#DejaVuSans-116"/>
      <use x="177.490234" xlink:href="#DejaVuSans-101"/>
      <use x="239.013672" xlink:href="#DejaVuSans-115"/>
     </g>
    </g>
   </g>
   <g id="matplotlib.axis_2">
    <g id="ytick_1">
     <g id="line2d_33">
      <path clip-path="url(#p30d040e06f)" d="M 57.6 295.573288 
L 414.72 295.573288 
" style="fill:none;stroke:#b0b0b0;stroke-linecap:square;stroke-width:0.8;"/>
     </g>
     <g id="line2d_34">
      <defs>
       <path d="M 0 0 
L -3.5 0 
" id="m9fcee5f56e" style="stroke:#000000;stroke-width:0.8;"/>
      </defs>
      <g>
       <use style="stroke:#000000;stroke-width:0.8;" x="57.6" xlink:href="#m9fcee5f56e" y="295.573288"/>
      </g>
     </g>
     <g id="text_18">
      <!-- 0 -->
      <g transform="translate(44.2375 299.372506)scale(0.1 -0.1)">
       <use xlink:href="#DejaVuSans-48"/>
      </g>
     </g>
    </g>
    <g id="ytick_2">
     <g id="line2d_35">
      <path clip-path="url(#p30d040e06f)" d="M 57.6 252.929426 
L 414.72 252.929426 
" style="fill:none;stroke:#b0b0b0;stroke-linecap:square;stroke-width:0.8;"/>
     </g>
     <g id="line2d_36">
      <g>
       <use style="stroke:#000000;stroke-width:0.8;" x="57.6" xlink:href="#m9fcee5f56e" y="252.929426"/>
      </g>
     </g>
     <g id="text_19">
      <!-- 500 -->
      <g transform="translate(31.5125 256.728645)scale(0.1 -0.1)">
       <use xlink:href="#DejaVuSans-53"/>
       <use x="63.623047" xlink:href="#DejaVuSans-48"/>
       <use x="127.246094" xlink:href="#DejaVuSans-48"/>
      </g>
     </g>
    </g>
    <g id="ytick_3">
     <g id="line2d_37">
      <path clip-path="url(#p30d040e06f)" d="M 57.6 210.285565 
L 414.72 210.285565 
" style="fill:none;stroke:#b0b0b0;stroke-linecap:square;stroke-width:0.8;"/>
     </g>
     <g id="line2d_38">
      <g>
       <use style="stroke:#000000;stroke-width:0.8;" x="57.6" xlink:href="#m9fcee5f56e" y="210.285565"/>
      </g>
     </g>
     <g id="text_20">
      <!-- 1000 -->
      <g transform="translate(25.15 214.084783)scale(0.1 -0.1)">
       <use xlink:href="#DejaVuSans-49"/>
       <use x="63.623047" xlink:href="#DejaVuSans-48"/>
       <use x="127.246094" xlink:href="#DejaVuSans-48"/>
       <use x="190.869141" xlink:href="#DejaVuSans-48"/>
      </g>
     </g>
    </g>
    <g id="ytick_4">
     <g id="line2d_39">
      <path clip-path="url(#p30d040e06f)" d="M 57.6 167.641703 
L 414.72 167.641703 
" style="fill:none;stroke:#b0b0b0;stroke-linecap:square;stroke-width:0.8;"/>
     </g>
     <g id="line2d_40">
      <g>
       <use style="stroke:#000000;stroke-width:0.8;" x="57.6" xlink:href="#m9fcee5f56e" y="167.641703"/>
      </g>
     </g>
     <g id="text_21">
      <!-- 1500 -->
      <g transform="translate(25.15 171.440922)scale(0.1 -0.1)">
       <use xlink:href="#DejaVuSans-49"/>
       <use x="63.623047" xlink:href="#DejaVuSans-53"/>
       <use x="127.246094" xlink:href="#DejaVuSans-48"/>
       <use x="190.869141" xlink:href="#DejaVuSans-48"/>
      </g>
     </g>
    </g>
    <g id="ytick_5">
     <g id="line2d_41">
      <path clip-path="url(#p30d040e06f)" d="M 57.6 124.997841 
L 414.72 124.997841 
" style="fill:none;stroke:#b0b0b0;stroke-linecap:square;stroke-width:0.8;"/>
     </g>
     <g id="line2d_42">
      <g>
       <use style="stroke:#000000;stroke-width:0.8;" x="57.6" xlink:href="#m9fcee5f56e" y="124.997841"/>
      </g>
     </g>
     <g id="text_22">
      <!-- 2000 -->
      <g transform="translate(25.15 128.79706)scale(0.1 -0.1)">
       <use xlink:href="#DejaVuSans-50"/>
       <use x="63.623047" xlink:href="#DejaVuSans-48"/>
       <use x="127.246094" xlink:href="#DejaVuSans-48"/>
       <use x="190.869141" xlink:href="#DejaVuSans-48"/>
      </g>
     </g>
    </g>
    <g id="ytick_6">
     <g id="line2d_43">
      <path clip-path="url(#p30d040e06f)" d="M 57.6 82.35398 
L 414.72 82.35398 
" style="fill:none;stroke:#b0b0b0;stroke-linecap:square;stroke-width:0.8;"/>
     </g>
     <g id="line2d_44">
      <g>
       <use style="stroke:#000000;stroke-width:0.8;" x="57.6" xlink:href="#m9fcee5f56e" y="82.35398"/>
      </g>
     </g>
     <g id="text_23">
      <!-- 2500 -->
      <g transform="translate(25.15 86.153198)scale(0.1 -0.1)">
       <use xlink:href="#DejaVuSans-50"/>
       <use x="63.623047" xlink:href="#DejaVuSans-53"/>
       <use x="127.246094" xlink:href="#DejaVuSans-48"/>
       <use x="190.869141" xlink:href="#DejaVuSans-48"/>
      </g>
     </g>
    </g>
    <g id="text_24">
     <!-- Sales values -->
     <defs>
      <path d="M 53.515625 70.515625 
L 53.515625 60.890625 
Q 47.90625 63.578125 42.921875 64.890625 
Q 37.9375 66.21875 33.296875 66.21875 
Q 25.25 66.21875 20.875 63.09375 
Q 16.5 59.96875 16.5 54.203125 
Q 16.5 49.359375 19.40625 46.890625 
Q 22.3125 44.4375 30.421875 42.921875 
L 36.375 41.703125 
Q 47.40625 39.59375 52.65625 34.296875 
Q 57.90625 29 57.90625 20.125 
Q 57.90625 9.515625 50.796875 4.046875 
Q 43.703125 -1.421875 29.984375 -1.421875 
Q 24.8125 -1.421875 18.96875 -0.25 
Q 13.140625 0.921875 6.890625 3.21875 
L 6.890625 13.375 
Q 12.890625 10.015625 18.65625 8.296875 
Q 24.421875 6.59375 29.984375 6.59375 
Q 38.421875 6.59375 43.015625 9.90625 
Q 47.609375 13.234375 47.609375 19.390625 
Q 47.609375 24.75 44.3125 27.78125 
Q 41.015625 30.8125 33.5 32.328125 
L 27.484375 33.5 
Q 16.453125 35.6875 11.515625 40.375 
Q 6.59375 45.0625 6.59375 53.421875 
Q 6.59375 63.09375 13.40625 68.65625 
Q 20.21875 74.21875 32.171875 74.21875 
Q 37.3125 74.21875 42.625 73.28125 
Q 47.953125 72.359375 53.515625 70.515625 
z
" id="DejaVuSans-83"/>
      <path d="M 9.421875 75.984375 
L 18.40625 75.984375 
L 18.40625 0 
L 9.421875 0 
z
" id="DejaVuSans-108"/>
      <path id="DejaVuSans-32"/>
      <path d="M 2.984375 54.6875 
L 12.5 54.6875 
L 29.59375 8.796875 
L 46.6875 54.6875 
L 56.203125 54.6875 
L 35.6875 0 
L 23.484375 0 
z
" id="DejaVuSans-118"/>
      <path d="M 8.5 21.578125 
L 8.5 54.6875 
L 17.484375 54.6875 
L 17.484375 21.921875 
Q 17.484375 14.15625 20.5 10.265625 
Q 23.53125 6.390625 29.59375 6.390625 
Q 36.859375 6.390625 41.078125 11.03125 
Q 45.3125 15.671875 45.3125 23.6875 
L 45.3125 54.6875 
L 54.296875 54.6875 
L 54.296875 0 
L 45.3125 0 
L 45.3125 8.40625 
Q 42.046875 3.421875 37.71875 1 
Q 33.40625 -1.421875 27.6875 -1.421875 
Q 18.265625 -1.421875 13.375 4.4375 
Q 8.5 10.296875 8.5 21.578125 
z
M 31.109375 56 
z
" id="DejaVuSans-117"/>
     </defs>
     <g transform="translate(19.070312 205.688156)rotate(-90)scale(0.1 -0.1)">
      <use xlink:href="#DejaVuSans-83"/>
      <use x="63.476562" xlink:href="#DejaVuSans-97"/>
      <use x="124.755859" xlink:href="#DejaVuSans-108"/>
      <use x="152.539062" xlink:href="#DejaVuSans-101"/>
      <use x="214.0625" xlink:href="#DejaVuSans-115"/>
      <use x="266.162109" xlink:href="#DejaVuSans-32"/>
      <use x="297.949219" xlink:href="#DejaVuSans-118"/>
      <use x="357.128906" xlink:href="#DejaVuSans-97"/>
      <use x="418.408203" xlink:href="#DejaVuSans-108"/>
      <use x="446.191406" xlink:href="#DejaVuSans-117"/>
      <use x="509.570312" xlink:href="#DejaVuSans-101"/>
      <use x="571.09375" xlink:href="#DejaVuSans-115"/>
     </g>
    </g>
   </g>
   <g id="line2d_45">
    <path clip-path="url(#p30d040e06f)" d="M 73.832727 285.424049 
L 74.538498 291.053038 
L 75.244269 291.650052 
L 75.95004 292.076491 
L 76.65581 294.37926 
L 78.067352 276.468838 
L 78.773123 290.029586 
L 79.478893 294.976274 
L 80.184664 294.635123 
L 80.890435 290.285449 
L 81.596206 295.317425 
L 82.301976 286.788652 
L 83.007747 280.903799 
L 83.713518 285.7652 
L 84.419289 277.49229 
L 85.125059 276.38355 
L 85.83083 279.453908 
L 87.242372 249.859068 
L 87.948142 289.944298 
L 88.653913 283.206568 
L 89.359684 258.38784 
L 90.065455 266.404886 
L 90.771225 247.044573 
L 91.476996 269.731108 
L 92.182767 263.760967 
L 92.888538 293.526382 
L 93.594308 272.119164 
L 94.300079 272.63089 
L 95.00585 273.39848 
L 95.711621 267.513627 
L 96.417391 234.763141 
L 97.123162 255.488058 
L 97.828933 291.820628 
L 98.534704 284.400596 
L 99.240474 263.334528 
L 99.946245 257.705539 
L 100.652016 251.138384 
L 101.357787 239.28339 
L 102.063557 263.505104 
L 102.769328 281.841964 
L 103.475099 287.98268 
L 104.18087 279.709771 
L 104.88664 260.434746 
L 105.592411 268.622367 
L 106.298182 254.464605 
L 107.003953 261.969925 
L 107.709723 294.805698 
L 108.415494 280.221498 
L 109.121265 274.677796 
L 109.827036 236.980622 
L 110.532806 250.54137 
L 111.238577 266.831325 
L 111.944348 271.095711 
L 112.650119 286.788652 
L 113.355889 276.042399 
L 114.06166 268.110641 
L 114.767431 276.809989 
L 115.473202 255.658633 
L 116.178972 253.270577 
L 116.884743 295.488 
L 117.590514 286.276926 
L 118.296285 261.884637 
L 119.002055 266.916613 
L 119.707826 269.304669 
L 120.413597 273.313192 
L 121.119368 257.023237 
L 121.825138 290.711888 
L 122.530909 290.882463 
L 123.23668 259.411293 
L 123.942451 289.517859 
L 124.648221 265.978448 
L 125.353992 274.933659 
L 126.059763 286.703365 
L 126.765534 289.176708 
L 127.471304 292.844081 
L 128.177075 285.082898 
L 128.882846 284.571171 
L 129.588617 295.061561 
L 130.294387 280.818512 
L 131.000158 271.436862 
L 131.705929 295.146849 
L 132.4117 291.053038 
L 133.11747 280.647936 
L 133.823241 279.027469 
L 134.529012 269.901683 
L 135.234783 290.285449 
L 135.940553 269.389957 
L 136.646324 293.270519 
L 137.352095 292.161779 
L 138.057866 279.795059 
L 138.763636 281.927252 
L 139.469407 274.50722 
L 140.175178 260.349458 
L 140.880949 262.1405 
L 141.586719 294.293972 
L 143.704032 274.080781 
L 144.409802 276.554125 
L 145.115573 281.074375 
L 145.821344 277.833441 
L 146.527115 286.362214 
L 147.232885 283.803582 
L 147.938656 273.824918 
L 148.644427 291.820628 
L 149.350198 279.198045 
L 150.055968 273.995494 
L 150.761739 281.841964 
L 151.46751 286.87394 
L 152.173281 289.091421 
L 152.879051 280.989087 
L 153.584822 287.044515 
L 154.290593 264.528556 
L 155.702134 282.780129 
L 156.407905 282.524266 
L 157.113676 290.200161 
L 157.819447 275.445385 
L 158.525217 271.351574 
L 159.230988 285.7652 
L 159.936759 262.311076 
L 160.64253 279.453908 
L 161.3483 283.974157 
L 162.054071 291.991203 
L 162.759842 270.242834 
L 163.465613 272.63089 
L 164.171383 278.174592 
L 164.877154 280.477361 
L 165.582925 268.281216 
L 166.288696 294.464547 
L 166.994466 285.082898 
L 167.700237 277.662866 
L 168.406008 277.748154 
L 169.111779 283.88887 
L 169.817549 276.895276 
L 170.52332 282.524266 
L 171.229091 293.61167 
L 171.934862 292.758793 
L 172.640632 281.927252 
L 173.346403 280.903799 
L 174.052174 280.733224 
L 174.757945 276.554125 
L 175.463715 279.283333 
L 176.169486 291.053038 
L 176.875257 290.6266 
L 177.581028 278.601031 
L 178.286798 281.586101 
L 178.992569 269.560532 
L 179.69834 269.475244 
L 180.404111 270.328122 
L 181.109881 291.905916 
L 181.815652 293.526382 
L 182.521423 284.059445 
L 183.932964 275.957111 
L 184.638735 266.575462 
L 186.050277 289.091421 
L 186.756047 286.959228 
L 187.461818 284.144733 
L 188.167589 282.950705 
L 188.87336 278.856894 
L 189.57913 259.15543 
L 190.990672 295.146849 
L 191.696443 292.50293 
L 192.402213 279.880347 
L 193.107984 265.210858 
L 193.813755 281.330238 
L 194.519526 272.63089 
L 195.225296 279.36862 
L 195.931067 291.73534 
L 196.636838 292.929368 
L 197.342609 267.087188 
L 198.048379 269.816395 
L 198.75415 271.010423 
L 199.459921 247.385724 
L 200.165692 257.534963 
L 200.871462 294.37926 
L 201.577233 294.123396 
L 202.283004 279.198045 
L 202.988775 278.856894 
L 203.694545 282.524266 
L 205.106087 277.662866 
L 205.811858 295.061561 
L 206.517628 294.208684 
L 207.223399 276.468838 
L 207.92917 284.485884 
L 208.634941 275.360097 
L 209.340711 286.447501 
L 210.046482 295.402712 
L 210.752253 288.238544 
L 211.458024 294.208684 
L 212.163794 276.724701 
L 212.869565 280.306785 
L 213.575336 287.215091 
L 214.281107 289.85901 
L 214.986877 283.035992 
L 215.692648 292.588217 
L 216.398419 282.097827 
L 217.10419 289.347284 
L 217.80996 279.453908 
L 218.515731 275.27481 
L 219.221502 279.112757 
L 219.927273 279.027469 
L 220.633043 292.758793 
L 222.750356 275.530673 
L 223.456126 286.021063 
L 224.161897 269.901683 
L 224.867668 269.816395 
L 225.573439 286.959228 
L 226.279209 291.73534 
L 227.690751 270.75456 
L 228.396522 278.25988 
L 229.102292 288.409119 
L 229.808063 255.999784 
L 230.513834 284.912322 
L 231.219605 294.976274 
L 231.925375 284.99761 
L 232.631146 287.129803 
L 233.336917 271.095711 
L 234.042688 282.183115 
L 234.748458 268.707655 
L 235.454229 293.270519 
L 236.16 287.470954 
L 236.865771 274.080781 
L 237.571542 271.778013 
L 238.277312 254.123454 
L 238.983083 280.306785 
L 239.688854 289.85901 
L 240.394625 291.650052 
L 241.100395 271.180999 
L 241.806166 283.718294 
L 242.511937 280.903799 
L 243.217708 282.097827 
L 243.923478 275.27481 
L 244.629249 291.991203 
L 245.33502 293.014656 
L 246.040791 278.345168 
L 246.746561 281.24495 
L 247.452332 291.820628 
L 248.158103 257.2791 
L 248.863874 271.778013 
L 249.569644 295.402712 
L 250.275415 293.355807 
L 250.981186 289.347284 
L 251.686957 286.10635 
L 252.392727 269.389957 
L 253.098498 293.867533 
L 253.804269 295.488 
L 254.51004 294.635123 
L 255.21581 295.402712 
L 255.921581 294.890986 
L 257.333123 295.402712 
L 258.038893 295.402712 
L 258.744664 295.232137 
L 259.450435 293.867533 
L 260.861976 293.867533 
L 261.567747 295.146849 
L 262.273518 294.038109 
L 262.979289 294.805698 
L 263.685059 295.146849 
L 264.39083 282.780129 
L 265.096601 274.50722 
L 265.802372 293.014656 
L 266.508142 292.417642 
L 267.213913 290.711888 
L 267.919684 292.076491 
L 268.625455 286.532789 
L 269.331225 293.270519 
L 270.036996 293.952821 
L 270.742767 287.812105 
L 271.448538 280.647936 
L 272.154308 295.232137 
L 272.860079 288.579694 
L 273.56585 289.773723 
L 274.977391 294.038109 
L 275.683162 275.018946 
L 276.388933 288.920845 
L 277.094704 290.967751 
L 277.800474 289.347284 
L 278.506245 282.609554 
L 279.212016 288.835558 
L 279.917787 262.737514 
L 280.623557 277.748154 
L 281.329328 262.737514 
L 282.035099 294.549835 
L 282.74087 294.293972 
L 284.152411 284.485884 
L 284.858182 281.586101 
L 285.563953 283.803582 
L 286.269723 283.633006 
L 286.975494 291.394189 
L 287.681265 293.782246 
L 288.387036 286.618077 
L 289.092806 285.338761 
L 289.798577 290.6266 
L 290.504348 286.788652 
L 291.210119 284.741747 
L 291.915889 293.355807 
L 292.62166 294.293972 
L 293.327431 286.959228 
L 294.033202 285.594624 
L 294.738972 279.880347 
L 295.444743 283.291856 
L 296.150514 282.694842 
L 296.856285 290.285449 
L 297.562055 294.293972 
L 298.267826 275.189522 
L 298.973597 292.929368 
L 299.679368 285.850487 
L 300.385138 280.392073 
L 301.090909 289.773723 
L 301.79668 291.820628 
L 302.502451 285.679912 
L 303.208221 287.726817 
L 303.913992 291.650052 
L 304.619763 282.865417 
L 305.325534 284.400596 
L 306.031304 294.890986 
L 306.737075 283.547719 
L 307.442846 291.223614 
L 308.148617 276.639413 
L 308.854387 284.144733 
L 309.560158 285.594624 
L 310.265929 289.432572 
L 310.9717 295.146849 
L 311.67747 294.805698 
L 313.089012 287.556242 
L 313.794783 288.835558 
L 314.500553 292.844081 
L 315.206324 286.447501 
L 315.912095 286.276926 
L 316.617866 293.782246 
L 317.323636 276.38355 
L 318.029407 288.75027 
L 318.735178 285.7652 
L 319.440949 284.059445 
L 320.146719 292.076491 
L 320.85249 294.464547 
L 321.558261 293.867533 
L 322.264032 284.144733 
L 322.969802 288.579694 
L 323.675573 282.524266 
L 324.381344 288.238544 
L 325.087115 278.004017 
L 325.792885 285.424049 
L 326.498656 281.500813 
L 327.204427 290.711888 
L 327.910198 280.903799 
L 328.615968 287.129803 
L 329.321739 287.812105 
L 330.02751 294.890986 
L 330.733281 288.494407 
L 332.144822 282.780129 
L 332.850593 283.462431 
L 333.556364 276.298262 
L 334.262134 293.867533 
L 334.967905 277.15114 
L 335.673676 280.818512 
L 336.379447 283.88887 
L 337.085217 279.453908 
L 337.790988 291.479477 
L 338.496759 286.191638 
L 339.20253 295.402712 
L 339.9083 292.929368 
L 340.614071 293.526382 
L 341.319842 287.556242 
L 342.025613 291.73534 
L 343.437154 285.253473 
L 344.142925 293.867533 
L 344.848696 295.146849 
L 346.260237 291.73534 
L 346.966008 284.99761 
L 347.671779 289.944298 
L 348.377549 288.494407 
L 349.08332 294.890986 
L 349.789091 290.967751 
L 350.494862 289.517859 
L 351.200632 293.526382 
L 351.906403 286.788652 
L 352.612174 289.091421 
L 353.317945 294.976274 
L 354.023715 290.797175 
L 354.729486 290.456024 
L 355.435257 291.820628 
L 356.141028 284.315308 
L 356.846798 286.532789 
L 357.552569 278.686319 
L 358.25834 293.099944 
L 358.964111 293.185231 
L 359.669881 289.688435 
L 360.375652 289.603147 
L 361.081423 291.73534 
L 361.787194 284.912322 
L 362.492964 279.283333 
L 363.198735 293.867533 
L 363.904506 289.176708 
L 364.610277 293.526382 
L 365.316047 284.912322 
L 366.021818 290.029586 
L 366.727589 283.974157 
L 367.43336 294.123396 
L 368.13913 290.6266 
L 368.844901 294.038109 
L 369.550672 294.123396 
L 370.256443 292.076491 
L 370.962213 289.603147 
L 371.667984 290.797175 
L 372.373755 289.261996 
L 373.079526 293.526382 
L 373.785296 294.72041 
L 374.491067 291.73534 
L 375.196838 287.812105 
L 375.902609 287.98268 
L 376.608379 286.191638 
L 378.019921 294.976274 
L 378.725692 288.75027 
L 379.431462 291.73534 
L 380.137233 280.733224 
L 380.843004 286.021063 
L 381.548775 288.238544 
L 382.254545 274.421932 
L 382.960316 294.293972 
L 383.666087 293.014656 
L 384.371858 282.524266 
L 385.077628 294.293972 
L 385.783399 286.021063 
L 386.48917 290.6266 
L 387.194941 291.479477 
L 387.900711 289.688435 
L 388.606482 289.091421 
L 389.312253 287.98268 
L 390.018024 295.402712 
L 391.429565 294.464547 
L 392.135336 294.464547 
L 392.841107 295.402712 
L 393.546877 293.867533 
L 394.252648 295.317425 
L 394.958419 295.402712 
L 395.66419 294.72041 
L 396.36996 295.317425 
L 397.075731 295.488 
L 397.781502 294.976274 
L 398.487273 294.890986 
L 398.487273 294.890986 
" style="fill:none;stroke:#1f77b4;stroke-linecap:square;stroke-width:1.5;"/>
   </g>
   <g id="line2d_46">
    <path clip-path="url(#p30d040e06f)" d="M 73.832727 254.915436 
L 74.538498 277.465169 
L 75.244269 279.856807 
L 75.95004 281.585751 
L 76.65581 290.792877 
L 78.067352 219.226174 
L 78.773123 273.461678 
L 79.478893 293.192037 
L 80.184664 291.831323 
L 80.890435 274.660943 
L 81.596206 294.554876 
L 82.301976 260.5182 
L 83.007747 236.990686 
L 83.713518 256.404688 
L 84.419289 224.071984 
L 85.125059 219.380434 
L 85.83083 231.413321 
L 87.242372 115.500405 
L 87.948142 273.400134 
L 88.653913 246.859542 
L 89.359684 148.575496 
L 90.065455 180.603117 
L 90.771225 104.219714 
L 91.476996 193.744761 
L 92.182767 170.805366 
L 92.888538 287.545325 
L 93.594308 203.586214 
L 95.00585 208.605908 
L 95.711621 185.065925 
L 96.417391 53.725254 
L 97.123162 137.136417 
L 97.828933 280.7409 
L 98.534704 251.413224 
L 99.240474 168.488098 
L 99.946245 146.025973 
L 100.652016 116.389538 
L 101.357787 68.539245 
L 102.063557 165.254602 
L 102.769328 239.771936 
L 103.475099 264.726578 
L 104.18087 230.972289 
L 104.88664 151.955039 
L 105.592411 184.68642 
L 106.298182 125.075027 
L 107.003953 156.636823 
L 107.709723 292.399612 
L 108.415494 232.099776 
L 109.121265 209.836994 
L 109.827036 53.568 
L 111.238577 177.969799 
L 111.944348 194.889672 
L 112.650119 259.439447 
L 113.355889 216.647014 
L 114.06166 185.750163 
L 114.767431 220.392501 
L 115.473202 135.236121 
L 116.178972 126.002872 
L 116.884743 295.231412 
L 117.590514 258.308821 
L 118.296285 160.943333 
L 119.002055 180.703006 
L 119.707826 190.275529 
L 120.413597 206.370406 
L 121.119368 144.144833 
L 121.825138 276.477222 
L 122.530909 277.147259 
L 123.23668 153.525357 
L 123.942451 271.950456 
L 124.648221 180.742349 
L 125.353992 215.782546 
L 126.059763 261.279504 
L 126.765534 270.842193 
L 127.471304 285.021354 
L 128.177075 255.014293 
L 128.882846 253.000599 
L 129.588617 293.584105 
L 130.294387 238.343938 
L 131.000158 200.958499 
L 131.705929 293.901648 
L 132.4117 277.85391 
L 133.11747 236.531582 
L 133.823241 229.975736 
L 134.529012 193.800778 
L 135.234783 274.674162 
L 135.940553 191.638555 
L 136.646324 286.432448 
L 137.352095 282.031303 
L 138.057866 232.905319 
L 138.763636 241.533622 
L 139.469407 211.930466 
L 140.175178 155.111222 
L 140.880949 162.3336 
L 141.586719 290.47483 
L 142.29249 262.603263 
L 142.998261 239.16084 
L 143.704032 208.743562 
L 144.409802 218.916554 
L 145.115573 237.218063 
L 145.821344 224.074611 
L 146.527115 258.448975 
L 147.232885 248.136665 
L 147.938656 207.855589 
L 148.644427 280.450819 
L 149.350198 229.720249 
L 150.055968 209.216798 
L 150.761739 240.81277 
L 151.46751 260.880289 
L 152.173281 269.723602 
L 152.879051 237.665261 
L 153.584822 261.668006 
L 154.290593 172.009048 
L 155.702134 244.936687 
L 156.407905 243.923955 
L 157.113676 274.305915 
L 157.819447 216.293505 
L 158.525217 200.057383 
L 159.230988 256.896073 
L 159.936759 163.954715 
L 160.64253 231.732484 
L 161.3483 249.634932 
L 162.054071 281.386443 
L 162.759842 196.59454 
L 163.465613 206.270005 
L 164.171383 227.934119 
L 164.877154 237.185261 
L 165.582925 190.253184 
L 166.288696 291.294659 
L 166.994466 255.090873 
L 167.700237 226.173985 
L 168.406008 226.10161 
L 169.111779 250.207366 
L 169.817549 223.347286 
L 170.52332 245.145344 
L 171.229091 287.992616 
L 171.934862 284.696672 
L 172.640632 243.445431 
L 173.346403 240.11382 
L 174.052174 239.73458 
L 174.757945 224.47015 
L 175.463715 234.86877 
L 176.169486 278.728579 
L 176.875257 277.139455 
L 177.581028 232.363511 
L 178.286798 243.893431 
L 178.992569 198.990528 
L 179.69834 198.491176 
L 180.404111 201.792545 
L 181.109881 281.949734 
L 181.815652 287.969444 
L 182.521423 252.693435 
L 183.932964 221.808618 
L 184.638735 185.700525 
L 186.050277 271.117204 
L 186.756047 263.072439 
L 187.461818 252.112779 
L 188.167589 247.601161 
L 188.87336 232.462215 
L 189.57913 157.917427 
L 190.990672 293.958748 
L 191.696443 283.948605 
L 193.107984 181.1464 
L 193.813755 241.733135 
L 194.519526 209.68154 
L 195.225296 235.486381 
L 195.931067 281.342178 
L 196.636838 285.769635 
L 197.342609 190.921055 
L 198.048379 199.940522 
L 198.75415 203.91696 
L 199.459921 116.132438 
L 200.165692 154.359812 
L 200.871462 291.140578 
L 201.577233 290.190711 
L 202.283004 234.552583 
L 202.988775 232.639409 
L 203.694545 246.4646 
L 205.106087 227.64264 
L 205.811858 293.632412 
L 206.517628 290.397619 
L 207.223399 223.068079 
L 207.92917 253.834755 
L 208.634941 219.519138 
L 209.340711 261.348851 
L 210.046482 294.928854 
L 210.752253 267.862624 
L 211.458024 290.417815 
L 212.163794 224.904281 
L 212.869565 238.400236 
L 213.575336 264.700616 
L 214.281107 274.651604 
L 214.986877 249.221653 
L 215.692648 284.537184 
L 216.398419 245.753164 
L 217.10419 272.345313 
L 217.80996 234.869316 
L 218.515731 219.011488 
L 219.221502 233.717906 
L 219.927273 233.339501 
L 220.633043 284.987128 
L 222.750356 220.162949 
L 223.456126 259.461101 
L 224.161897 197.797847 
L 224.867668 197.063477 
L 225.573439 262.627954 
L 226.279209 280.894674 
L 227.690751 200.306602 
L 228.396522 229.160787 
L 229.102292 268.498461 
L 229.808063 146.361393 
L 230.513834 255.376118 
L 231.219605 293.322246 
L 231.925375 255.4608 
L 232.631146 263.695756 
L 233.336917 203.853361 
L 234.042688 245.623927 
L 234.748458 194.94806 
L 235.454229 286.948268 
L 236.16 265.06476 
L 236.865771 214.849584 
L 237.571542 206.034048 
L 238.277312 138.582043 
L 238.983083 237.762096 
L 239.688854 273.934462 
L 240.394625 280.71678 
L 241.100395 203.6729 
L 241.806166 250.887075 
L 242.511937 240.606715 
L 243.217708 244.844918 
L 243.923478 219.366711 
L 244.629249 282.125068 
L 245.33502 285.967417 
L 246.040791 230.60777 
L 246.746561 240.710083 
L 247.452332 281.228746 
L 248.158103 148.856766 
L 248.863874 205.246425 
L 249.569644 294.925783 
L 250.275415 287.155731 
L 250.981186 272.085066 
L 251.686957 259.73241 
L 252.392727 197.058505 
L 253.098498 289.176708 
L 253.804269 295.266926 
L 254.51004 292.153958 
L 255.21581 294.94395 
L 255.921581 292.974537 
L 257.333123 294.914935 
L 258.038893 294.903609 
L 258.744664 294.239695 
L 259.450435 289.265408 
L 260.156206 289.338414 
L 260.861976 289.281442 
L 261.567747 294.003951 
L 262.273518 289.866413 
L 262.979289 292.772968 
L 263.685059 294.039175 
L 264.39083 249.869729 
L 265.096601 221.690375 
L 265.802372 286.500891 
L 266.508142 284.443325 
L 267.213913 278.427129 
L 267.919684 283.240086 
L 268.625455 263.687449 
L 269.331225 287.451423 
L 270.036996 289.854661 
L 270.742767 268.458043 
L 271.448538 243.682318 
L 272.154308 294.387208 
L 272.860079 271.258662 
L 273.56585 275.396021 
L 274.977391 290.364732 
L 275.683162 226.671025 
L 276.388933 273.207111 
L 277.094704 280.089012 
L 277.800474 274.64084 
L 278.506245 251.964583 
L 279.212016 272.927103 
L 279.917787 185.337029 
L 280.623557 235.523976 
L 281.329328 184.003897 
L 282.035099 292.0958 
L 282.74087 291.226428 
L 284.152411 258.177691 
L 284.858182 248.394507 
L 285.563953 256.18479 
L 286.269723 255.550659 
L 286.975494 281.565368 
L 287.681265 289.569893 
L 288.387036 265.479301 
L 289.092806 261.258966 
L 289.798577 278.979128 
L 290.504348 265.963795 
L 291.210119 258.917187 
L 291.915889 288.068889 
L 292.62166 291.243827 
L 293.327431 266.434507 
L 294.033202 261.965149 
L 294.738972 242.758695 
L 295.444743 254.177493 
L 296.150514 252.019671 
L 296.856285 277.690346 
L 297.562055 291.246769 
L 298.267826 226.405055 
L 298.973597 286.620977 
L 299.679368 262.548824 
L 300.385138 244.008774 
L 301.090909 275.991056 
L 301.79668 282.902432 
L 302.502451 261.852705 
L 303.208221 269.076541 
L 303.913992 282.27862 
L 304.619763 252.651183 
L 305.325534 257.840873 
L 306.031304 293.269018 
L 306.737075 254.960536 
L 307.442846 281.019714 
L 308.148617 231.970616 
L 308.854387 257.639628 
L 309.560158 262.349327 
L 310.265929 275.132072 
L 310.9717 294.153759 
L 311.67747 293.018136 
L 313.089012 268.804371 
L 313.794783 273.153491 
L 314.500553 286.570452 
L 315.206324 265.358722 
L 315.912095 264.793963 
L 316.617866 289.643326 
L 317.323636 232.316236 
L 318.029407 273.067563 
L 318.735178 262.949625 
L 319.440949 257.468226 
L 320.146719 284.012179 
L 320.85249 291.90757 
L 321.558261 289.933722 
L 322.264032 257.876199 
L 322.969802 272.651086 
L 323.675573 252.446271 
L 324.381344 271.290884 
L 325.087115 236.992067 
L 325.792885 261.73268 
L 326.498656 249.02295 
L 327.204427 279.511708 
L 327.910198 246.911661 
L 328.615968 267.732586 
L 329.321739 269.961384 
L 330.02751 293.321692 
L 330.733281 272.371547 
L 332.144822 253.96354 
L 332.850593 256.297779 
L 333.556364 232.79453 
L 334.262134 290.017645 
L 334.967905 235.572351 
L 335.673676 247.609937 
L 336.379447 257.610613 
L 337.085217 243.457721 
L 337.790988 282.301563 
L 338.496759 265.062287 
L 339.20253 295.018542 
L 339.9083 286.974733 
L 340.614071 288.927395 
L 341.319842 269.569999 
L 342.025613 283.096888 
L 342.731383 271.658354 
L 343.437154 262.237191 
L 344.142925 290.063189 
L 344.848696 294.195763 
L 346.260237 283.312197 
L 346.966008 261.824185 
L 347.671779 277.497476 
L 348.377549 272.896092 
L 349.08332 293.387534 
L 349.789091 280.851689 
L 350.494862 276.296437 
L 351.200632 289.071498 
L 351.906403 267.738292 
L 352.612174 275.038733 
L 353.317945 293.681947 
L 354.023715 280.442563 
L 354.729486 279.443674 
L 355.435257 283.726516 
L 356.141028 260.144426 
L 356.846798 267.2259 
L 357.552569 242.646149 
L 358.25834 287.821333 
L 358.964111 288.088642 
L 359.669881 277.128982 
L 360.375652 276.895703 
L 361.081423 283.506013 
L 361.787194 262.02856 
L 362.492964 244.458667 
L 363.198735 290.220971 
L 363.904506 275.502101 
L 364.610277 289.123694 
L 365.316047 262.101055 
L 366.021818 278.178814 
L 366.727589 259.475634 
L 367.43336 291.062096 
L 368.13913 280.182163 
L 368.844901 290.796732 
L 369.550672 291.038028 
L 370.256443 284.700348 
L 370.962213 277.078986 
L 371.667984 280.8151 
L 372.373755 276.096642 
L 373.079526 289.256538 
L 373.785296 292.941309 
L 374.491067 283.740512 
L 375.196838 271.744904 
L 375.902609 272.26481 
L 376.608379 266.726592 
L 378.019921 293.740455 
L 378.725692 274.626623 
L 379.431462 283.809211 
L 380.137233 250.193857 
L 380.843004 266.436136 
L 381.548775 273.236058 
L 382.254545 231.340852 
L 382.960316 291.688261 
L 383.666087 287.803235 
L 384.371858 255.870334 
L 385.077628 291.694018 
L 385.783399 266.609031 
L 386.48917 280.515075 
L 387.194941 283.088393 
L 387.900711 277.626252 
L 388.606482 275.806834 
L 389.312253 272.507709 
L 390.018024 295.050406 
L 390.723794 293.746544 
L 391.429565 292.188082 
L 392.135336 292.181762 
L 392.841107 295.058372 
L 393.546877 290.403146 
L 394.252648 294.796282 
L 394.958419 295.055284 
L 395.66419 292.982417 
L 396.36996 294.798406 
L 397.075731 295.313621 
L 397.781502 293.755619 
L 398.487273 293.503048 
L 398.487273 293.503048 
" style="fill:none;stroke:#ff7f0e;stroke-linecap:square;stroke-width:1.5;"/>
   </g>
   <g id="patch_3">
    <path d="M 57.6 307.584 
L 57.6 41.472 
" style="fill:none;stroke:#000000;stroke-linecap:square;stroke-linejoin:miter;stroke-width:0.8;"/>
   </g>
   <g id="patch_4">
    <path d="M 414.72 307.584 
L 414.72 41.472 
" style="fill:none;stroke:#000000;stroke-linecap:square;stroke-linejoin:miter;stroke-width:0.8;"/>
   </g>
   <g id="patch_5">
    <path d="M 57.6 307.584 
L 414.72 307.584 
" style="fill:none;stroke:#000000;stroke-linecap:square;stroke-linejoin:miter;stroke-width:0.8;"/>
   </g>
   <g id="patch_6">
    <path d="M 57.6 41.472 
L 414.72 41.472 
" style="fill:none;stroke:#000000;stroke-linecap:square;stroke-linejoin:miter;stroke-width:0.8;"/>
   </g>
   <g id="text_25">
    <!-- Comparision of sales in USD and PLN -->
    <defs>
     <path d="M 64.40625 67.28125 
L 64.40625 56.890625 
Q 59.421875 61.53125 53.78125 63.8125 
Q 48.140625 66.109375 41.796875 66.109375 
Q 29.296875 66.109375 22.65625 58.46875 
Q 16.015625 50.828125 16.015625 36.375 
Q 16.015625 21.96875 22.65625 14.328125 
Q 29.296875 6.6875 41.796875 6.6875 
Q 48.140625 6.6875 53.78125 8.984375 
Q 59.421875 11.28125 64.40625 15.921875 
L 64.40625 5.609375 
Q 59.234375 2.09375 53.4375 0.328125 
Q 47.65625 -1.421875 41.21875 -1.421875 
Q 24.65625 -1.421875 15.125 8.703125 
Q 5.609375 18.84375 5.609375 36.375 
Q 5.609375 53.953125 15.125 64.078125 
Q 24.65625 74.21875 41.21875 74.21875 
Q 47.75 74.21875 53.53125 72.484375 
Q 59.328125 70.75 64.40625 67.28125 
z
" id="DejaVuSans-67"/>
     <path d="M 30.609375 48.390625 
Q 23.390625 48.390625 19.1875 42.75 
Q 14.984375 37.109375 14.984375 27.296875 
Q 14.984375 17.484375 19.15625 11.84375 
Q 23.34375 6.203125 30.609375 6.203125 
Q 37.796875 6.203125 41.984375 11.859375 
Q 46.1875 17.53125 46.1875 27.296875 
Q 46.1875 37.015625 41.984375 42.703125 
Q 37.796875 48.390625 30.609375 48.390625 
z
M 30.609375 56 
Q 42.328125 56 49.015625 48.375 
Q 55.71875 40.765625 55.71875 27.296875 
Q 55.71875 13.875 49.015625 6.21875 
Q 42.328125 -1.421875 30.609375 -1.421875 
Q 18.84375 -1.421875 12.171875 6.21875 
Q 5.515625 13.875 5.515625 27.296875 
Q 5.515625 40.765625 12.171875 48.375 
Q 18.84375 56 30.609375 56 
z
" id="DejaVuSans-111"/>
     <path d="M 52 44.1875 
Q 55.375 50.25 60.0625 53.125 
Q 64.75 56 71.09375 56 
Q 79.640625 56 84.28125 50.015625 
Q 88.921875 44.046875 88.921875 33.015625 
L 88.921875 0 
L 79.890625 0 
L 79.890625 32.71875 
Q 79.890625 40.578125 77.09375 44.375 
Q 74.3125 48.1875 68.609375 48.1875 
Q 61.625 48.1875 57.5625 43.546875 
Q 53.515625 38.921875 53.515625 30.90625 
L 53.515625 0 
L 44.484375 0 
L 44.484375 32.71875 
Q 44.484375 40.625 41.703125 44.40625 
Q 38.921875 48.1875 33.109375 48.1875 
Q 26.21875 48.1875 22.15625 43.53125 
Q 18.109375 38.875 18.109375 30.90625 
L 18.109375 0 
L 9.078125 0 
L 9.078125 54.6875 
L 18.109375 54.6875 
L 18.109375 46.1875 
Q 21.1875 51.21875 25.484375 53.609375 
Q 29.78125 56 35.6875 56 
Q 41.65625 56 45.828125 52.96875 
Q 50 49.953125 52 44.1875 
z
" id="DejaVuSans-109"/>
     <path d="M 18.109375 8.203125 
L 18.109375 -20.796875 
L 9.078125 -20.796875 
L 9.078125 54.6875 
L 18.109375 54.6875 
L 18.109375 46.390625 
Q 20.953125 51.265625 25.265625 53.625 
Q 29.59375 56 35.59375 56 
Q 45.5625 56 51.78125 48.09375 
Q 58.015625 40.1875 58.015625 27.296875 
Q 58.015625 14.40625 51.78125 6.484375 
Q 45.5625 -1.421875 35.59375 -1.421875 
Q 29.59375 -1.421875 25.265625 0.953125 
Q 20.953125 3.328125 18.109375 8.203125 
z
M 48.6875 27.296875 
Q 48.6875 37.203125 44.609375 42.84375 
Q 40.53125 48.484375 33.40625 48.484375 
Q 26.265625 48.484375 22.1875 42.84375 
Q 18.109375 37.203125 18.109375 27.296875 
Q 18.109375 17.390625 22.1875 11.75 
Q 26.265625 6.109375 33.40625 6.109375 
Q 40.53125 6.109375 44.609375 11.75 
Q 48.6875 17.390625 48.6875 27.296875 
z
" id="DejaVuSans-112"/>
     <path d="M 41.109375 46.296875 
Q 39.59375 47.171875 37.8125 47.578125 
Q 36.03125 48 33.890625 48 
Q 26.265625 48 22.1875 43.046875 
Q 18.109375 38.09375 18.109375 28.8125 
L 18.109375 0 
L 9.078125 0 
L 9.078125 54.6875 
L 18.109375 54.6875 
L 18.109375 46.1875 
Q 20.953125 51.171875 25.484375 53.578125 
Q 30.03125 56 36.53125 56 
Q 37.453125 56 38.578125 55.875 
Q 39.703125 55.765625 41.0625 55.515625 
z
" id="DejaVuSans-114"/>
     <path d="M 9.421875 54.6875 
L 18.40625 54.6875 
L 18.40625 0 
L 9.421875 0 
z
M 9.421875 75.984375 
L 18.40625 75.984375 
L 18.40625 64.59375 
L 9.421875 64.59375 
z
" id="DejaVuSans-105"/>
     <path d="M 54.890625 33.015625 
L 54.890625 0 
L 45.90625 0 
L 45.90625 32.71875 
Q 45.90625 40.484375 42.875 44.328125 
Q 39.84375 48.1875 33.796875 48.1875 
Q 26.515625 48.1875 22.3125 43.546875 
Q 18.109375 38.921875 18.109375 30.90625 
L 18.109375 0 
L 9.078125 0 
L 9.078125 54.6875 
L 18.109375 54.6875 
L 18.109375 46.1875 
Q 21.34375 51.125 25.703125 53.5625 
Q 30.078125 56 35.796875 56 
Q 45.21875 56 50.046875 50.171875 
Q 54.890625 44.34375 54.890625 33.015625 
z
" id="DejaVuSans-110"/>
     <path d="M 37.109375 75.984375 
L 37.109375 68.5 
L 28.515625 68.5 
Q 23.6875 68.5 21.796875 66.546875 
Q 19.921875 64.59375 19.921875 59.515625 
L 19.921875 54.6875 
L 34.71875 54.6875 
L 34.71875 47.703125 
L 19.921875 47.703125 
L 19.921875 0 
L 10.890625 0 
L 10.890625 47.703125 
L 2.296875 47.703125 
L 2.296875 54.6875 
L 10.890625 54.6875 
L 10.890625 58.5 
Q 10.890625 67.625 15.140625 71.796875 
Q 19.390625 75.984375 28.609375 75.984375 
z
" id="DejaVuSans-102"/>
     <path d="M 8.6875 72.90625 
L 18.609375 72.90625 
L 18.609375 28.609375 
Q 18.609375 16.890625 22.84375 11.734375 
Q 27.09375 6.59375 36.625 6.59375 
Q 46.09375 6.59375 50.34375 11.734375 
Q 54.59375 16.890625 54.59375 28.609375 
L 54.59375 72.90625 
L 64.5 72.90625 
L 64.5 27.390625 
Q 64.5 13.140625 57.4375 5.859375 
Q 50.390625 -1.421875 36.625 -1.421875 
Q 22.796875 -1.421875 15.734375 5.859375 
Q 8.6875 13.140625 8.6875 27.390625 
z
" id="DejaVuSans-85"/>
     <path d="M 45.40625 46.390625 
L 45.40625 75.984375 
L 54.390625 75.984375 
L 54.390625 0 
L 45.40625 0 
L 45.40625 8.203125 
Q 42.578125 3.328125 38.25 0.953125 
Q 33.9375 -1.421875 27.875 -1.421875 
Q 17.96875 -1.421875 11.734375 6.484375 
Q 5.515625 14.40625 5.515625 27.296875 
Q 5.515625 40.1875 11.734375 48.09375 
Q 17.96875 56 27.875 56 
Q 33.9375 56 38.25 53.625 
Q 42.578125 51.265625 45.40625 46.390625 
z
M 14.796875 27.296875 
Q 14.796875 17.390625 18.875 11.75 
Q 22.953125 6.109375 30.078125 6.109375 
Q 37.203125 6.109375 41.296875 11.75 
Q 45.40625 17.390625 45.40625 27.296875 
Q 45.40625 37.203125 41.296875 42.84375 
Q 37.203125 48.484375 30.078125 48.484375 
Q 22.953125 48.484375 18.875 42.84375 
Q 14.796875 37.203125 14.796875 27.296875 
z
" id="DejaVuSans-100"/>
     <path d="M 19.671875 64.796875 
L 19.671875 37.40625 
L 32.078125 37.40625 
Q 38.96875 37.40625 42.71875 40.96875 
Q 46.484375 44.53125 46.484375 51.125 
Q 46.484375 57.671875 42.71875 61.234375 
Q 38.96875 64.796875 32.078125 64.796875 
z
M 9.8125 72.90625 
L 32.078125 72.90625 
Q 44.34375 72.90625 50.609375 67.359375 
Q 56.890625 61.8125 56.890625 51.125 
Q 56.890625 40.328125 50.609375 34.8125 
Q 44.34375 29.296875 32.078125 29.296875 
L 19.671875 29.296875 
L 19.671875 0 
L 9.8125 0 
z
" id="DejaVuSans-80"/>
     <path d="M 9.8125 72.90625 
L 19.671875 72.90625 
L 19.671875 8.296875 
L 55.171875 8.296875 
L 55.171875 0 
L 9.8125 0 
z
" id="DejaVuSans-76"/>
     <path d="M 9.8125 72.90625 
L 23.09375 72.90625 
L 55.421875 11.921875 
L 55.421875 72.90625 
L 64.984375 72.90625 
L 64.984375 0 
L 51.703125 0 
L 19.390625 60.984375 
L 19.390625 0 
L 9.8125 0 
z
" id="DejaVuSans-78"/>
    </defs>
    <g transform="translate(125.029687 35.472)scale(0.12 -0.12)">
     <use xlink:href="#DejaVuSans-67"/>
     <use x="69.824219" xlink:href="#DejaVuSans-111"/>
     <use x="131.005859" xlink:href="#DejaVuSans-109"/>
     <use x="228.417969" xlink:href="#DejaVuSans-112"/>
     <use x="291.894531" xlink:href="#DejaVuSans-97"/>
     <use x="353.173828" xlink:href="#DejaVuSans-114"/>
     <use x="394.287109" xlink:href="#DejaVuSans-105"/>
     <use x="422.070312" xlink:href="#DejaVuSans-115"/>
     <use x="474.169922" xlink:href="#DejaVuSans-105"/>
     <use x="501.953125" xlink:href="#DejaVuSans-111"/>
     <use x="563.134766" xlink:href="#DejaVuSans-110"/>
     <use x="626.513672" xlink:href="#DejaVuSans-32"/>
     <use x="658.300781" xlink:href="#DejaVuSans-111"/>
     <use x="719.482422" xlink:href="#DejaVuSans-102"/>
     <use x="754.6875" xlink:href="#DejaVuSans-32"/>
     <use x="786.474609" xlink:href="#DejaVuSans-115"/>
     <use x="838.574219" xlink:href="#DejaVuSans-97"/>
     <use x="899.853516" xlink:href="#DejaVuSans-108"/>
     <use x="927.636719" xlink:href="#DejaVuSans-101"/>
     <use x="989.160156" xlink:href="#DejaVuSans-115"/>
     <use x="1041.259766" xlink:href="#DejaVuSans-32"/>
     <use x="1073.046875" xlink:href="#DejaVuSans-105"/>
     <use x="1100.830078" xlink:href="#DejaVuSans-110"/>
     <use x="1164.208984" xlink:href="#DejaVuSans-32"/>
     <use x="1195.996094" xlink:href="#DejaVuSans-85"/>
     <use x="1269.189453" xlink:href="#DejaVuSans-83"/>
     <use x="1332.666016" xlink:href="#DejaVuSans-68"/>
     <use x="1409.667969" xlink:href="#DejaVuSans-32"/>
     <use x="1441.455078" xlink:href="#DejaVuSans-97"/>
     <use x="1502.734375" xlink:href="#DejaVuSans-110"/>
     <use x="1566.113281" xlink:href="#DejaVuSans-100"/>
     <use x="1629.589844" xlink:href="#DejaVuSans-32"/>
     <use x="1661.376953" xlink:href="#DejaVuSans-80"/>
     <use x="1721.679688" xlink:href="#DejaVuSans-76"/>
     <use x="1777.392578" xlink:href="#DejaVuSans-78"/>
    </g>
   </g>
   <g id="legend_1">
    <g id="patch_7">
     <path d="M 312.26375 78.82825 
L 407.72 78.82825 
Q 409.72 78.82825 409.72 76.82825 
L 409.72 48.472 
Q 409.72 46.472 407.72 46.472 
L 312.26375 46.472 
Q 310.26375 46.472 310.26375 48.472 
L 310.26375 76.82825 
Q 310.26375 78.82825 312.26375 78.82825 
z
" style="fill:#ffffff;opacity:0.8;stroke:#cccccc;stroke-linejoin:miter;"/>
    </g>
    <g id="line2d_47">
     <path d="M 314.26375 54.570437 
L 334.26375 54.570437 
" style="fill:none;stroke:#1f77b4;stroke-linecap:square;stroke-width:1.5;"/>
    </g>
    <g id="line2d_48"/>
    <g id="text_26">
     <!-- Sales in USD -->
     <g transform="translate(342.26375 58.070437)scale(0.1 -0.1)">
      <use xlink:href="#DejaVuSans-83"/>
      <use x="63.476562" xlink:href="#DejaVuSans-97"/>
      <use x="124.755859" xlink:href="#DejaVuSans-108"/>
      <use x="152.539062" xlink:href="#DejaVuSans-101"/>
      <use x="214.0625" xlink:href="#DejaVuSans-115"/>
      <use x="266.162109" xlink:href="#DejaVuSans-32"/>
      <use x="297.949219" xlink:href="#DejaVuSans-105"/>
      <use x="325.732422" xlink:href="#DejaVuSans-110"/>
      <use x="389.111328" xlink:href="#DejaVuSans-32"/>
      <use x="420.898438" xlink:href="#DejaVuSans-85"/>
      <use x="494.091797" xlink:href="#DejaVuSans-83"/>
      <use x="557.568359" xlink:href="#DejaVuSans-68"/>
     </g>
    </g>
    <g id="line2d_49">
     <path d="M 314.26375 69.248562 
L 334.26375 69.248562 
" style="fill:none;stroke:#ff7f0e;stroke-linecap:square;stroke-width:1.5;"/>
    </g>
    <g id="line2d_50"/>
    <g id="text_27">
     <!-- Sales in PLN -->
     <g transform="translate(342.26375 72.748562)scale(0.1 -0.1)">
      <use xlink:href="#DejaVuSans-83"/>
      <use x="63.476562" xlink:href="#DejaVuSans-97"/>
      <use x="124.755859" xlink:href="#DejaVuSans-108"/>
      <use x="152.539062" xlink:href="#DejaVuSans-101"/>
      <use x="214.0625" xlink:href="#DejaVuSans-115"/>
      <use x="266.162109" xlink:href="#DejaVuSans-32"/>
      <use x="297.949219" xlink:href="#DejaVuSans-105"/>
      <use x="325.732422" xlink:href="#DejaVuSans-110"/>
      <use x="389.111328" xlink:href="#DejaVuSans-32"/>
      <use x="420.898438" xlink:href="#DejaVuSans-80"/>
      <use x="481.201172" xlink:href="#DejaVuSans-76"/>
      <use x="536.914062" xlink:href="#DejaVuSans-78"/>
     </g>
    </g>
   </g>
  </g>
 </g>
 <defs>
  <clipPath id="p30d040e06f">
   <rect height="266.112" width="357.12" x="57.6" y="41.472"/>
  </clipPath>
 </defs>
</svg>
