<?xml version="1.0" encoding="utf-8" standalone="no"?>
<!DOCTYPE svg PUBLIC "-//W3C//DTD SVG 1.1//EN"
  "http://www.w3.org/Graphics/SVG/1.1/DTD/svg11.dtd">
<!-- Created with matplotlib (https://matplotlib.org/) -->
<svg height="668.16pt" version="1.1" viewBox="0 0 1382.4 668.16" width="1382.4pt" xmlns="http://www.w3.org/2000/svg" xmlns:xlink="http://www.w3.org/1999/xlink">
 <defs>
  <style type="text/css">
*{stroke-linecap:butt;stroke-linejoin:round;}
  </style>
 </defs>
 <g id="figure_1">
  <g id="patch_1">
   <path d="M 0 668.16 
L 1382.4 668.16 
L 1382.4 0 
L 0 0 
z
" style="fill:#ffffff;"/>
  </g>
  <g id="axes_1">
   <g id="patch_2">
    <path d="M 172.8 594.6624 
L 1244.16 594.6624 
L 1244.16 80.1792 
L 172.8 80.1792 
z
" style="fill:#ffffff;"/>
   </g>
   <g id="matplotlib.axis_1">
    <g id="xtick_1">
     <g id="line2d_1">
      <defs>
       <path d="M 0 0 
L 0 3.5 
" id="m2c1006aaba" style="stroke:#000000;stroke-width:0.8;"/>
      </defs>
      <g>
       <use style="stroke:#000000;stroke-width:0.8;" x="201.512608" xlink:href="#m2c1006aaba" y="594.6624"/>
      </g>
     </g>
     <g id="text_1">
      <!-- 2014-10 -->
      <defs>
       <path d="M 19.1875 8.296875 
L 53.609375 8.296875 
L 53.609375 0 
L 7.328125 0 
L 7.328125 8.296875 
Q 12.9375 14.109375 22.625 23.890625 
Q 32.328125 33.6875 34.8125 36.53125 
Q 39.546875 41.84375 41.421875 45.53125 
Q 43.3125 49.21875 43.3125 52.78125 
Q 43.3125 58.59375 39.234375 62.25 
Q 35.15625 65.921875 28.609375 65.921875 
Q 23.96875 65.921875 18.8125 64.3125 
Q 13.671875 62.703125 7.8125 59.421875 
L 7.8125 69.390625 
Q 13.765625 71.78125 18.9375 73 
Q 24.125 74.21875 28.421875 74.21875 
Q 39.75 74.21875 46.484375 68.546875 
Q 53.21875 62.890625 53.21875 53.421875 
Q 53.21875 48.921875 51.53125 44.890625 
Q 49.859375 40.875 45.40625 35.40625 
Q 44.1875 33.984375 37.640625 27.21875 
Q 31.109375 20.453125 19.1875 8.296875 
z
" id="DejaVuSans-50"/>
       <path d="M 31.78125 66.40625 
Q 24.171875 66.40625 20.328125 58.90625 
Q 16.5 51.421875 16.5 36.375 
Q 16.5 21.390625 20.328125 13.890625 
Q 24.171875 6.390625 31.78125 6.390625 
Q 39.453125 6.390625 43.28125 13.890625 
Q 47.125 21.390625 47.125 36.375 
Q 47.125 51.421875 43.28125 58.90625 
Q 39.453125 66.40625 31.78125 66.40625 
z
M 31.78125 74.21875 
Q 44.046875 74.21875 50.515625 64.515625 
Q 56.984375 54.828125 56.984375 36.375 
Q 56.984375 17.96875 50.515625 8.265625 
Q 44.046875 -1.421875 31.78125 -1.421875 
Q 19.53125 -1.421875 13.0625 8.265625 
Q 6.59375 17.96875 6.59375 36.375 
Q 6.59375 54.828125 13.0625 64.515625 
Q 19.53125 74.21875 31.78125 74.21875 
z
" id="DejaVuSans-48"/>
       <path d="M 12.40625 8.296875 
L 28.515625 8.296875 
L 28.515625 63.921875 
L 10.984375 60.40625 
L 10.984375 69.390625 
L 28.421875 72.90625 
L 38.28125 72.90625 
L 38.28125 8.296875 
L 54.390625 8.296875 
L 54.390625 0 
L 12.40625 0 
z
" id="DejaVuSans-49"/>
       <path d="M 37.796875 64.3125 
L 12.890625 25.390625 
L 37.796875 25.390625 
z
M 35.203125 72.90625 
L 47.609375 72.90625 
L 47.609375 25.390625 
L 58.015625 25.390625 
L 58.015625 17.1875 
L 47.609375 17.1875 
L 47.609375 0 
L 37.796875 0 
L 37.796875 17.1875 
L 4.890625 17.1875 
L 4.890625 26.703125 
z
" id="DejaVuSans-52"/>
       <path d="M 4.890625 31.390625 
L 31.203125 31.390625 
L 31.203125 23.390625 
L 4.890625 23.390625 
z
" id="DejaVuSans-45"/>
      </defs>
      <g transform="translate(180.621202 609.260837)scale(0.1 -0.1)">
       <use xlink:href="#DejaVuSans-50"/>
       <use x="63.623047" xlink:href="#DejaVuSans-48"/>
       <use x="127.246094" xlink:href="#DejaVuSans-49"/>
       <use x="190.869141" xlink:href="#DejaVuSans-52"/>
       <use x="254.492188" xlink:href="#DejaVuSans-45"/>
       <use x="290.576172" xlink:href="#DejaVuSans-49"/>
       <use x="354.199219" xlink:href="#DejaVuSans-48"/>
      </g>
     </g>
    </g>
    <g id="xtick_2">
     <g id="line2d_2">
      <g>
       <use style="stroke:#000000;stroke-width:0.8;" x="324.090795" xlink:href="#m2c1006aaba" y="594.6624"/>
      </g>
     </g>
     <g id="text_2">
      <!-- 2015-01 -->
      <defs>
       <path d="M 10.796875 72.90625 
L 49.515625 72.90625 
L 49.515625 64.59375 
L 19.828125 64.59375 
L 19.828125 46.734375 
Q 21.96875 47.46875 24.109375 47.828125 
Q 26.265625 48.1875 28.421875 48.1875 
Q 40.625 48.1875 47.75 41.5 
Q 54.890625 34.8125 54.890625 23.390625 
Q 54.890625 11.625 47.5625 5.09375 
Q 40.234375 -1.421875 26.90625 -1.421875 
Q 22.3125 -1.421875 17.546875 -0.640625 
Q 12.796875 0.140625 7.71875 1.703125 
L 7.71875 11.625 
Q 12.109375 9.234375 16.796875 8.0625 
Q 21.484375 6.890625 26.703125 6.890625 
Q 35.15625 6.890625 40.078125 11.328125 
Q 45.015625 15.765625 45.015625 23.390625 
Q 45.015625 31 40.078125 35.4375 
Q 35.15625 39.890625 26.703125 39.890625 
Q 22.75 39.890625 18.8125 39.015625 
Q 14.890625 38.140625 10.796875 36.28125 
z
" id="DejaVuSans-53"/>
      </defs>
      <g transform="translate(303.199388 609.260837)scale(0.1 -0.1)">
       <use xlink:href="#DejaVuSans-50"/>
       <use x="63.623047" xlink:href="#DejaVuSans-48"/>
       <use x="127.246094" xlink:href="#DejaVuSans-49"/>
       <use x="190.869141" xlink:href="#DejaVuSans-53"/>
       <use x="254.492188" xlink:href="#DejaVuSans-45"/>
       <use x="290.576172" xlink:href="#DejaVuSans-48"/>
       <use x="354.199219" xlink:href="#DejaVuSans-49"/>
      </g>
     </g>
    </g>
    <g id="xtick_3">
     <g id="line2d_3">
      <g>
       <use style="stroke:#000000;stroke-width:0.8;" x="444.004238" xlink:href="#m2c1006aaba" y="594.6624"/>
      </g>
     </g>
     <g id="text_3">
      <!-- 2015-04 -->
      <g transform="translate(423.112832 609.260837)scale(0.1 -0.1)">
       <use xlink:href="#DejaVuSans-50"/>
       <use x="63.623047" xlink:href="#DejaVuSans-48"/>
       <use x="127.246094" xlink:href="#DejaVuSans-49"/>
       <use x="190.869141" xlink:href="#DejaVuSans-53"/>
       <use x="254.492188" xlink:href="#DejaVuSans-45"/>
       <use x="290.576172" xlink:href="#DejaVuSans-48"/>
       <use x="354.199219" xlink:href="#DejaVuSans-52"/>
      </g>
     </g>
    </g>
    <g id="xtick_4">
     <g id="line2d_4">
      <g>
       <use style="stroke:#000000;stroke-width:0.8;" x="565.250053" xlink:href="#m2c1006aaba" y="594.6624"/>
      </g>
     </g>
     <g id="text_4">
      <!-- 2015-07 -->
      <defs>
       <path d="M 8.203125 72.90625 
L 55.078125 72.90625 
L 55.078125 68.703125 
L 28.609375 0 
L 18.3125 0 
L 43.21875 64.59375 
L 8.203125 64.59375 
z
" id="DejaVuSans-55"/>
      </defs>
      <g transform="translate(544.358647 609.260837)scale(0.1 -0.1)">
       <use xlink:href="#DejaVuSans-50"/>
       <use x="63.623047" xlink:href="#DejaVuSans-48"/>
       <use x="127.246094" xlink:href="#DejaVuSans-49"/>
       <use x="190.869141" xlink:href="#DejaVuSans-53"/>
       <use x="254.492188" xlink:href="#DejaVuSans-45"/>
       <use x="290.576172" xlink:href="#DejaVuSans-48"/>
       <use x="354.199219" xlink:href="#DejaVuSans-55"/>
      </g>
     </g>
    </g>
    <g id="xtick_5">
     <g id="line2d_5">
      <g>
       <use style="stroke:#000000;stroke-width:0.8;" x="687.82824" xlink:href="#m2c1006aaba" y="594.6624"/>
      </g>
     </g>
     <g id="text_5">
      <!-- 2015-10 -->
      <g transform="translate(666.936834 609.260837)scale(0.1 -0.1)">
       <use xlink:href="#DejaVuSans-50"/>
       <use x="63.623047" xlink:href="#DejaVuSans-48"/>
       <use x="127.246094" xlink:href="#DejaVuSans-49"/>
       <use x="190.869141" xlink:href="#DejaVuSans-53"/>
       <use x="254.492188" xlink:href="#DejaVuSans-45"/>
       <use x="290.576172" xlink:href="#DejaVuSans-49"/>
       <use x="354.199219" xlink:href="#DejaVuSans-48"/>
      </g>
     </g>
    </g>
    <g id="xtick_6">
     <g id="line2d_6">
      <g>
       <use style="stroke:#000000;stroke-width:0.8;" x="810.406427" xlink:href="#m2c1006aaba" y="594.6624"/>
      </g>
     </g>
     <g id="text_6">
      <!-- 2016-01 -->
      <defs>
       <path d="M 33.015625 40.375 
Q 26.375 40.375 22.484375 35.828125 
Q 18.609375 31.296875 18.609375 23.390625 
Q 18.609375 15.53125 22.484375 10.953125 
Q 26.375 6.390625 33.015625 6.390625 
Q 39.65625 6.390625 43.53125 10.953125 
Q 47.40625 15.53125 47.40625 23.390625 
Q 47.40625 31.296875 43.53125 35.828125 
Q 39.65625 40.375 33.015625 40.375 
z
M 52.59375 71.296875 
L 52.59375 62.3125 
Q 48.875 64.0625 45.09375 64.984375 
Q 41.3125 65.921875 37.59375 65.921875 
Q 27.828125 65.921875 22.671875 59.328125 
Q 17.53125 52.734375 16.796875 39.40625 
Q 19.671875 43.65625 24.015625 45.921875 
Q 28.375 48.1875 33.59375 48.1875 
Q 44.578125 48.1875 50.953125 41.515625 
Q 57.328125 34.859375 57.328125 23.390625 
Q 57.328125 12.15625 50.6875 5.359375 
Q 44.046875 -1.421875 33.015625 -1.421875 
Q 20.359375 -1.421875 13.671875 8.265625 
Q 6.984375 17.96875 6.984375 36.375 
Q 6.984375 53.65625 15.1875 63.9375 
Q 23.390625 74.21875 37.203125 74.21875 
Q 40.921875 74.21875 44.703125 73.484375 
Q 48.484375 72.75 52.59375 71.296875 
z
" id="DejaVuSans-54"/>
      </defs>
      <g transform="translate(789.515021 609.260837)scale(0.1 -0.1)">
       <use xlink:href="#DejaVuSans-50"/>
       <use x="63.623047" xlink:href="#DejaVuSans-48"/>
       <use x="127.246094" xlink:href="#DejaVuSans-49"/>
       <use x="190.869141" xlink:href="#DejaVuSans-54"/>
       <use x="254.492188" xlink:href="#DejaVuSans-45"/>
       <use x="290.576172" xlink:href="#DejaVuSans-48"/>
       <use x="354.199219" xlink:href="#DejaVuSans-49"/>
      </g>
     </g>
    </g>
    <g id="xtick_7">
     <g id="line2d_7">
      <g>
       <use style="stroke:#000000;stroke-width:0.8;" x="931.652242" xlink:href="#m2c1006aaba" y="594.6624"/>
      </g>
     </g>
     <g id="text_7">
      <!-- 2016-04 -->
      <g transform="translate(910.760836 609.260837)scale(0.1 -0.1)">
       <use xlink:href="#DejaVuSans-50"/>
       <use x="63.623047" xlink:href="#DejaVuSans-48"/>
       <use x="127.246094" xlink:href="#DejaVuSans-49"/>
       <use x="190.869141" xlink:href="#DejaVuSans-54"/>
       <use x="254.492188" xlink:href="#DejaVuSans-45"/>
       <use x="290.576172" xlink:href="#DejaVuSans-48"/>
       <use x="354.199219" xlink:href="#DejaVuSans-52"/>
      </g>
     </g>
    </g>
    <g id="xtick_8">
     <g id="line2d_8">
      <g>
       <use style="stroke:#000000;stroke-width:0.8;" x="1052.898057" xlink:href="#m2c1006aaba" y="594.6624"/>
      </g>
     </g>
     <g id="text_8">
      <!-- 2016-07 -->
      <g transform="translate(1032.006651 609.260837)scale(0.1 -0.1)">
       <use xlink:href="#DejaVuSans-50"/>
       <use x="63.623047" xlink:href="#DejaVuSans-48"/>
       <use x="127.246094" xlink:href="#DejaVuSans-49"/>
       <use x="190.869141" xlink:href="#DejaVuSans-54"/>
       <use x="254.492188" xlink:href="#DejaVuSans-45"/>
       <use x="290.576172" xlink:href="#DejaVuSans-48"/>
       <use x="354.199219" xlink:href="#DejaVuSans-55"/>
      </g>
     </g>
    </g>
    <g id="xtick_9">
     <g id="line2d_9">
      <g>
       <use style="stroke:#000000;stroke-width:0.8;" x="1175.476244" xlink:href="#m2c1006aaba" y="594.6624"/>
      </g>
     </g>
     <g id="text_9">
      <!-- 2016-10 -->
      <g transform="translate(1154.584838 609.260837)scale(0.1 -0.1)">
       <use xlink:href="#DejaVuSans-50"/>
       <use x="63.623047" xlink:href="#DejaVuSans-48"/>
       <use x="127.246094" xlink:href="#DejaVuSans-49"/>
       <use x="190.869141" xlink:href="#DejaVuSans-54"/>
       <use x="254.492188" xlink:href="#DejaVuSans-45"/>
       <use x="290.576172" xlink:href="#DejaVuSans-49"/>
       <use x="354.199219" xlink:href="#DejaVuSans-48"/>
      </g>
     </g>
    </g>
    <g id="text_10">
     <!-- data -->
     <defs>
      <path d="M 45.40625 46.390625 
L 45.40625 75.984375 
L 54.390625 75.984375 
L 54.390625 0 
L 45.40625 0 
L 45.40625 8.203125 
Q 42.578125 3.328125 38.25 0.953125 
Q 33.9375 -1.421875 27.875 -1.421875 
Q 17.96875 -1.421875 11.734375 6.484375 
Q 5.515625 14.40625 5.515625 27.296875 
Q 5.515625 40.1875 11.734375 48.09375 
Q 17.96875 56 27.875 56 
Q 33.9375 56 38.25 53.625 
Q 42.578125 51.265625 45.40625 46.390625 
z
M 14.796875 27.296875 
Q 14.796875 17.390625 18.875 11.75 
Q 22.953125 6.109375 30.078125 6.109375 
Q 37.203125 6.109375 41.296875 11.75 
Q 45.40625 17.390625 45.40625 27.296875 
Q 45.40625 37.203125 41.296875 42.84375 
Q 37.203125 48.484375 30.078125 48.484375 
Q 22.953125 48.484375 18.875 42.84375 
Q 14.796875 37.203125 14.796875 27.296875 
z
" id="DejaVuSans-100"/>
      <path d="M 34.28125 27.484375 
Q 23.390625 27.484375 19.1875 25 
Q 14.984375 22.515625 14.984375 16.5 
Q 14.984375 11.71875 18.140625 8.90625 
Q 21.296875 6.109375 26.703125 6.109375 
Q 34.1875 6.109375 38.703125 11.40625 
Q 43.21875 16.703125 43.21875 25.484375 
L 43.21875 27.484375 
z
M 52.203125 31.203125 
L 52.203125 0 
L 43.21875 0 
L 43.21875 8.296875 
Q 40.140625 3.328125 35.546875 0.953125 
Q 30.953125 -1.421875 24.3125 -1.421875 
Q 15.921875 -1.421875 10.953125 3.296875 
Q 6 8.015625 6 15.921875 
Q 6 25.140625 12.171875 29.828125 
Q 18.359375 34.515625 30.609375 34.515625 
L 43.21875 34.515625 
L 43.21875 35.40625 
Q 43.21875 41.609375 39.140625 45 
Q 35.0625 48.390625 27.6875 48.390625 
Q 23 48.390625 18.546875 47.265625 
Q 14.109375 46.140625 10.015625 43.890625 
L 10.015625 52.203125 
Q 14.9375 54.109375 19.578125 55.046875 
Q 24.21875 56 28.609375 56 
Q 40.484375 56 46.34375 49.84375 
Q 52.203125 43.703125 52.203125 31.203125 
z
" id="DejaVuSans-97"/>
      <path d="M 18.3125 70.21875 
L 18.3125 54.6875 
L 36.8125 54.6875 
L 36.8125 47.703125 
L 18.3125 47.703125 
L 18.3125 18.015625 
Q 18.3125 11.328125 20.140625 9.421875 
Q 21.96875 7.515625 27.59375 7.515625 
L 36.8125 7.515625 
L 36.8125 0 
L 27.59375 0 
Q 17.1875 0 13.234375 3.875 
Q 9.28125 7.765625 9.28125 18.015625 
L 9.28125 47.703125 
L 2.6875 47.703125 
L 2.6875 54.6875 
L 9.28125 54.6875 
L 9.28125 70.21875 
z
" id="DejaVuSans-116"/>
     </defs>
     <g transform="translate(697.2175 622.938963)scale(0.1 -0.1)">
      <use xlink:href="#DejaVuSans-100"/>
      <use x="63.476562" xlink:href="#DejaVuSans-97"/>
      <use x="124.755859" xlink:href="#DejaVuSans-116"/>
      <use x="163.964844" xlink:href="#DejaVuSans-97"/>
     </g>
    </g>
   </g>
   <g id="matplotlib.axis_2">
    <g id="ytick_1">
     <g id="line2d_10">
      <defs>
       <path d="M 0 0 
L -3.5 0 
" id="m7a93989c95" style="stroke:#000000;stroke-width:0.8;"/>
      </defs>
      <g>
       <use style="stroke:#000000;stroke-width:0.8;" x="172.8" xlink:href="#m7a93989c95" y="571.2768"/>
      </g>
     </g>
     <g id="text_11">
      <!-- 0 -->
      <g transform="translate(159.4375 575.076019)scale(0.1 -0.1)">
       <use xlink:href="#DejaVuSans-48"/>
      </g>
     </g>
    </g>
    <g id="ytick_2">
     <g id="line2d_11">
      <g>
       <use style="stroke:#000000;stroke-width:0.8;" x="172.8" xlink:href="#m7a93989c95" y="488.861056"/>
      </g>
     </g>
     <g id="text_12">
      <!-- 500 -->
      <g transform="translate(146.7125 492.660275)scale(0.1 -0.1)">
       <use xlink:href="#DejaVuSans-53"/>
       <use x="63.623047" xlink:href="#DejaVuSans-48"/>
       <use x="127.246094" xlink:href="#DejaVuSans-48"/>
      </g>
     </g>
    </g>
    <g id="ytick_3">
     <g id="line2d_12">
      <g>
       <use style="stroke:#000000;stroke-width:0.8;" x="172.8" xlink:href="#m7a93989c95" y="406.445312"/>
      </g>
     </g>
     <g id="text_13">
      <!-- 1000 -->
      <g transform="translate(140.35 410.244531)scale(0.1 -0.1)">
       <use xlink:href="#DejaVuSans-49"/>
       <use x="63.623047" xlink:href="#DejaVuSans-48"/>
       <use x="127.246094" xlink:href="#DejaVuSans-48"/>
       <use x="190.869141" xlink:href="#DejaVuSans-48"/>
      </g>
     </g>
    </g>
    <g id="ytick_4">
     <g id="line2d_13">
      <g>
       <use style="stroke:#000000;stroke-width:0.8;" x="172.8" xlink:href="#m7a93989c95" y="324.029569"/>
      </g>
     </g>
     <g id="text_14">
      <!-- 1500 -->
      <g transform="translate(140.35 327.828787)scale(0.1 -0.1)">
       <use xlink:href="#DejaVuSans-49"/>
       <use x="63.623047" xlink:href="#DejaVuSans-53"/>
       <use x="127.246094" xlink:href="#DejaVuSans-48"/>
       <use x="190.869141" xlink:href="#DejaVuSans-48"/>
      </g>
     </g>
    </g>
    <g id="ytick_5">
     <g id="line2d_14">
      <g>
       <use style="stroke:#000000;stroke-width:0.8;" x="172.8" xlink:href="#m7a93989c95" y="241.613825"/>
      </g>
     </g>
     <g id="text_15">
      <!-- 2000 -->
      <g transform="translate(140.35 245.413043)scale(0.1 -0.1)">
       <use xlink:href="#DejaVuSans-50"/>
       <use x="63.623047" xlink:href="#DejaVuSans-48"/>
       <use x="127.246094" xlink:href="#DejaVuSans-48"/>
       <use x="190.869141" xlink:href="#DejaVuSans-48"/>
      </g>
     </g>
    </g>
    <g id="ytick_6">
     <g id="line2d_15">
      <g>
       <use style="stroke:#000000;stroke-width:0.8;" x="172.8" xlink:href="#m7a93989c95" y="159.198081"/>
      </g>
     </g>
     <g id="text_16">
      <!-- 2500 -->
      <g transform="translate(140.35 162.9973)scale(0.1 -0.1)">
       <use xlink:href="#DejaVuSans-50"/>
       <use x="63.623047" xlink:href="#DejaVuSans-53"/>
       <use x="127.246094" xlink:href="#DejaVuSans-48"/>
       <use x="190.869141" xlink:href="#DejaVuSans-48"/>
      </g>
     </g>
    </g>
    <g id="text_17">
     <!-- kwota -->
     <defs>
      <path d="M 9.078125 75.984375 
L 18.109375 75.984375 
L 18.109375 31.109375 
L 44.921875 54.6875 
L 56.390625 54.6875 
L 27.390625 29.109375 
L 57.625 0 
L 45.90625 0 
L 18.109375 26.703125 
L 18.109375 0 
L 9.078125 0 
z
" id="DejaVuSans-107"/>
      <path d="M 4.203125 54.6875 
L 13.1875 54.6875 
L 24.421875 12.015625 
L 35.59375 54.6875 
L 46.1875 54.6875 
L 57.421875 12.015625 
L 68.609375 54.6875 
L 77.59375 54.6875 
L 63.28125 0 
L 52.6875 0 
L 40.921875 44.828125 
L 29.109375 0 
L 18.5 0 
z
" id="DejaVuSans-119"/>
      <path d="M 30.609375 48.390625 
Q 23.390625 48.390625 19.1875 42.75 
Q 14.984375 37.109375 14.984375 27.296875 
Q 14.984375 17.484375 19.15625 11.84375 
Q 23.34375 6.203125 30.609375 6.203125 
Q 37.796875 6.203125 41.984375 11.859375 
Q 46.1875 17.53125 46.1875 27.296875 
Q 46.1875 37.015625 41.984375 42.703125 
Q 37.796875 48.390625 30.609375 48.390625 
z
M 30.609375 56 
Q 42.328125 56 49.015625 48.375 
Q 55.71875 40.765625 55.71875 27.296875 
Q 55.71875 13.875 49.015625 6.21875 
Q 42.328125 -1.421875 30.609375 -1.421875 
Q 18.84375 -1.421875 12.171875 6.21875 
Q 5.515625 13.875 5.515625 27.296875 
Q 5.515625 40.765625 12.171875 48.375 
Q 18.84375 56 30.609375 56 
z
" id="DejaVuSans-111"/>
     </defs>
     <g transform="translate(134.270312 352.488769)rotate(-90)scale(0.1 -0.1)">
      <use xlink:href="#DejaVuSans-107"/>
      <use x="57.910156" xlink:href="#DejaVuSans-119"/>
      <use x="139.697266" xlink:href="#DejaVuSans-111"/>
      <use x="200.878906" xlink:href="#DejaVuSans-116"/>
      <use x="240.087891" xlink:href="#DejaVuSans-97"/>
     </g>
    </g>
   </g>
   <g id="line2d_16">
    <path clip-path="url(#p58c68c63cc)" d="M 221.498182 527.781067 
L 222.830553 449.022934 
L 224.162925 559.866439 
L 225.495297 512.051594 
L 226.827668 512.882559 
L 228.16004 553.877452 
L 229.492411 527.947135 
L 230.824783 519.5418 
L 233.489526 566.323894 
L 234.821898 568.525186 
L 236.154269 531.771044 
L 237.486641 507.066447 
L 238.819013 497.964238 
L 240.151384 448.354971 
L 241.483756 543.149807 
L 242.816127 493.513936 
L 244.148499 566.864723 
L 245.480871 498.353174 
L 246.813242 488.32331 
L 248.145614 545.582835 
L 249.477985 520.067811 
L 250.810357 506.106649 
L 252.142729 571.2768 
L 253.4751 546.557088 
L 254.807472 533.431161 
L 256.139843 472.210274 
L 257.472215 507.452004 
L 258.804586 553.975098 
L 260.136958 437.598678 
L 261.46933 562.88696 
L 262.801701 536.598793 
L 264.134073 487.102815 
L 265.466444 491.273134 
L 266.798816 469.204572 
L 268.131188 506.323963 
L 269.463559 514.961677 
L 270.795931 562.913168 
L 272.128302 556.779838 
L 273.460674 500.433314 
L 274.793046 514.051956 
L 276.125417 539.206065 
L 277.457789 504.959159 
L 278.79016 513.115598 
L 280.122532 559.64456 
L 281.454904 544.134906 
L 282.787275 493.926987 
L 284.119647 495.152542 
L 285.452018 480.096636 
L 286.78439 499.004127 
L 289.449133 562.964595 
L 290.781505 564.627036 
L 292.113876 355.651995 
L 293.446248 455.222378 
L 294.77862 358.228476 
L 296.110991 527.509606 
L 297.443363 486.996351 
L 298.775734 530.800005 
L 300.108106 541.335061 
L 301.440478 528.050764 
L 302.772849 438.112705 
L 304.105221 561.210475 
L 306.769964 532.281164 
L 308.102336 524.252651 
L 309.434707 568.982939 
L 310.767079 470.989614 
L 312.09945 518.872469 
L 313.431822 560.224684 
L 314.764194 555.571161 
L 316.096565 509.617626 
L 317.428937 547.427497 
L 318.761308 538.120452 
L 320.09368 549.766456 
L 321.426051 553.743015 
L 322.758423 428.486843 
L 324.090795 484.562251 
L 325.423166 571.2768 
L 328.087909 568.332498 
L 329.420281 571.2768 
L 332.085024 571.2768 
L 333.417396 565.864756 
L 334.749767 571.2768 
L 342.743997 571.2768 
L 344.076369 560.247398 
L 345.40874 571.2768 
L 362.729571 571.2768 
L 366.726686 568.243818 
L 368.059057 559.116851 
L 369.391429 571.2768 
L 380.050402 571.2768 
L 381.382773 559.226959 
L 382.715145 571.2768 
L 398.703604 571.2768 
L 400.035976 559.085863 
L 401.368347 571.2768 
L 414.692063 571.2768 
L 416.024435 568.699429 
L 417.356806 571.2768 
L 418.689178 571.2768 
L 422.686293 569.982543 
L 424.018664 571.2768 
L 425.351036 571.2768 
L 426.683408 570.004433 
L 428.015779 571.2768 
L 433.345266 571.2768 
L 434.677637 568.19816 
L 436.010009 571.2768 
L 455.995583 571.2768 
L 459.992697 566.254319 
L 461.325069 571.2768 
L 473.316413 571.2768 
L 474.648785 570.060508 
L 478.6459 571.2768 
L 497.299102 571.2768 
L 498.631474 564.668425 
L 499.963845 571.2768 
L 501.296217 570.684709 
L 502.628588 571.2768 
L 511.95519 571.2768 
L 514.619933 559.181465 
L 515.952304 571.2768 
L 563.917682 571.2768 
L 565.250053 380.882009 
L 566.582425 502.008856 
L 567.914797 525.882241 
L 569.247168 555.108875 
L 570.57954 570.033113 
L 571.911911 396.706409 
L 573.244283 287.724823 
L 574.576655 543.553792 
L 575.909026 465.245319 
L 577.241398 445.721063 
L 578.573769 552.629908 
L 579.906141 545.171152 
L 581.238513 423.996009 
L 582.570884 473.236515 
L 583.903256 465.045544 
L 585.235627 484.913902 
L 586.567999 393.665334 
L 587.900371 542.709921 
L 589.232742 529.668519 
L 590.565114 459.547886 
L 591.897485 267.86736 
L 593.229857 398.228611 
L 594.562229 415.265973 
L 595.8946 512.314434 
L 597.226972 571.2768 
L 598.559343 554.519075 
L 599.891715 376.803254 
L 601.224087 474.742069 
L 602.556458 394.014101 
L 603.88883 509.668625 
L 605.221201 493.753321 
L 606.553573 566.900475 
L 607.885945 493.128131 
L 609.218316 282.902134 
L 610.550688 518.950583 
L 611.883059 442.924548 
L 613.215431 387.159451 
L 614.547803 461.35523 
L 615.880174 542.848808 
L 617.212546 507.471751 
L 618.544917 380.891619 
L 619.877289 382.3109 
L 621.20966 501.484511 
L 622.542032 425.534859 
L 623.874404 463.560774 
L 626.539147 550.847899 
L 627.871518 451.000549 
L 629.20389 451.731873 
L 630.536262 423.309486 
L 631.868633 453.957148 
L 633.201005 526.385208 
L 634.533376 474.114176 
L 635.865748 549.753434 
L 637.19812 481.695222 
L 638.530491 530.842466 
L 639.862863 511.61067 
L 641.195234 460.781188 
L 642.527606 434.698204 
L 643.859978 561.388757 
L 645.192349 518.128568 
L 646.524721 570.031333 
L 647.857092 505.132874 
L 649.189464 424.290596 
L 650.521836 490.610742 
L 651.854207 431.149465 
L 653.186579 561.267705 
L 654.51895 567.523389 
L 655.851322 439.990498 
L 658.516065 476.366796 
L 659.848437 449.647513 
L 661.180808 453.345013 
L 662.51318 560.834923 
L 663.845552 562.677607 
L 665.177923 298.360295 
L 666.510295 224.480086 
L 667.842666 394.137016 
L 669.175038 386.451945 
L 670.50741 369.020455 
L 671.839781 552.504505 
L 673.172153 544.026694 
L 674.504524 455.14972 
L 675.836896 405.277943 
L 677.169268 467.222522 
L 678.501639 350.129448 
L 679.834011 456.578612 
L 681.166382 548.83585 
L 682.498754 568.160001 
L 685.163497 305.235927 
L 686.495869 449.305059 
L 687.82824 478.563374 
L 689.160612 487.282762 
L 690.492983 507.967861 
L 691.825355 523.63839 
L 694.490098 358.930988 
L 695.82247 428.715365 
L 697.154841 456.793832 
L 698.487213 488.404967 
L 699.819585 556.54403 
L 701.151956 544.880587 
L 702.484328 390.031261 
L 703.816699 383.650865 
L 705.149071 384.615937 
L 706.481443 471.397622 
L 707.813814 449.1143 
L 709.146186 535.671649 
L 710.478557 538.741059 
L 711.810929 453.956093 
L 713.143301 433.859179 
L 714.475672 463.36001 
L 715.808044 464.092949 
L 717.140415 470.531795 
L 718.472787 550.498143 
L 719.805159 556.794705 
L 721.13753 473.817134 
L 722.469902 431.689073 
L 723.802273 483.600261 
L 725.134645 437.012224 
L 726.467017 437.1521 
L 727.799388 492.718047 
L 729.13176 562.973842 
L 730.464131 367.729693 
L 731.796503 458.433065 
L 733.128875 440.553826 
L 734.461246 398.684634 
L 735.793618 379.985326 
L 737.125989 544.22548 
L 738.458361 483.682051 
L 739.790732 447.894745 
L 741.123104 316.903903 
L 742.455476 496.269407 
L 743.787847 386.677797 
L 745.120219 418.05657 
L 746.45259 530.374789 
L 747.784962 471.943346 
L 749.117334 473.413873 
L 751.782077 332.470127 
L 753.114448 505.74969 
L 754.44682 459.360736 
L 755.779192 521.536327 
L 757.111563 504.51985 
L 758.443935 465.443776 
L 759.776306 404.37976 
L 761.108678 444.005793 
L 762.44105 542.050331 
L 763.773421 401.749016 
L 765.105793 479.532352 
L 766.438164 499.476797 
L 767.770536 433.09474 
L 769.102908 458.496459 
L 770.435279 423.126012 
L 771.767651 403.465159 
L 773.100022 462.251172 
L 774.432394 507.950537 
L 775.764766 561.484079 
L 777.097137 313.770852 
L 778.429509 299.81251 
L 779.76188 409.624335 
L 781.094252 466.836932 
L 782.426624 450.161425 
L 783.758995 545.089692 
L 785.091367 553.600502 
L 786.423738 370.407133 
L 787.75611 530.886064 
L 789.088482 374.585957 
L 790.420853 444.499562 
L 791.753225 457.16973 
L 793.085596 536.718659 
L 794.417968 568.016598 
L 795.75034 388.419341 
L 797.082711 460.672383 
L 798.415083 567.432402 
L 799.747454 488.998608 
L 801.079826 492.825501 
L 802.412197 550.866706 
L 803.744569 523.440642 
L 805.076941 504.99885 
L 806.409312 417.069064 
L 807.741684 349.348559 
L 809.074055 525.622088 
L 810.406427 298.634575 
L 811.738799 535.910474 
L 813.07117 534.624425 
L 814.403542 278.618296 
L 815.735913 398.878673 
L 817.068285 367.8338 
L 818.400657 349.272522 
L 819.733028 311.083951 
L 821.0654 499.476748 
L 822.397771 570.618084 
L 823.730143 243.556199 
L 825.062515 261.400856 
L 826.394886 425.978503 
L 827.727258 359.02692 
L 829.059629 418.73978 
L 830.392001 502.668446 
L 831.724373 571.2768 
L 833.056744 376.69041 
L 834.389116 343.990184 
L 835.721487 215.520077 
L 837.053859 103.5648 
L 838.386231 405.578381 
L 839.718602 449.539186 
L 841.050974 565.189919 
L 842.383345 302.760966 
L 843.715717 241.762997 
L 845.048089 356.971075 
L 846.38046 293.712706 
L 847.712832 446.425552 
L 849.045203 511.536149 
L 850.377575 463.206634 
L 851.709947 319.416133 
L 853.042318 132.499006 
L 854.37469 224.976971 
L 855.707061 282.253885 
L 857.039433 325.665356 
L 858.371805 486.15749 
L 859.704176 542.687108 
L 861.036548 265.073466 
L 862.368919 103.868716 
L 863.701291 357.704526 
L 865.033662 403.199121 
L 866.366034 398.023973 
L 867.698406 394.159597 
L 869.030777 555.819299 
L 870.363149 330.143828 
L 871.69552 374.477696 
L 873.027892 201.456935 
L 874.360264 349.079471 
L 875.692635 287.181226 
L 877.025007 476.795474 
L 878.357378 528.271507 
L 879.68975 223.258586 
L 881.022122 329.986595 
L 882.354493 447.277912 
L 883.686865 424.02253 
L 885.019236 433.089663 
L 886.351608 571.2768 
L 887.68398 496.316796 
L 889.016351 458.057018 
L 890.348723 571.2768 
L 1048.900943 571.2768 
L 1050.233314 503.527515 
L 1051.565686 569.308564 
L 1052.898057 530.860515 
L 1054.230429 564.106169 
L 1055.562801 566.713671 
L 1056.895172 528.542753 
L 1058.227544 423.724399 
L 1060.892287 562.037929 
L 1062.224659 544.24376 
L 1063.55703 540.947048 
L 1064.889402 536.331651 
L 1066.221773 492.699322 
L 1067.554145 540.437999 
L 1068.886517 520.751119 
L 1070.218888 562.11985 
L 1071.55126 547.12691 
L 1072.883631 558.875505 
L 1074.216003 568.013301 
L 1075.548375 470.113749 
L 1076.880746 496.899097 
L 1078.213118 438.792173 
L 1079.545489 414.938832 
L 1080.877861 501.603717 
L 1083.542604 557.602644 
L 1084.874976 508.460971 
L 1086.207347 528.107236 
L 1087.539719 527.390202 
L 1088.872091 515.440892 
L 1090.204462 555.055733 
L 1091.536834 564.139531 
L 1092.869205 548.567307 
L 1094.201577 462.52494 
L 1095.533949 458.658653 
L 1096.86632 533.819767 
L 1098.198692 507.035574 
L 1099.531063 512.194503 
L 1100.863435 558.57093 
L 1102.195806 564.288571 
L 1103.528178 499.821163 
L 1104.86055 549.076141 
L 1106.192921 542.2747 
L 1107.525293 455.125853 
L 1108.857664 524.65906 
L 1110.190036 542.928174 
L 1111.522408 566.237044 
L 1112.854779 514.579548 
L 1114.187151 536.891386 
L 1115.519522 516.675958 
L 1116.851894 373.629967 
L 1118.184266 543.161081 
L 1119.516637 561.904894 
L 1120.849009 570.652006 
L 1122.18138 511.631702 
L 1123.513752 556.220037 
L 1124.846124 508.983256 
L 1126.178495 539.172736 
L 1127.510867 537.161429 
L 1128.843238 561.800308 
L 1130.17561 557.377945 
L 1131.507982 545.702206 
L 1132.840353 509.788589 
L 1134.172725 536.490301 
L 1135.505096 535.170529 
L 1136.837468 542.227228 
L 1138.16984 564.175794 
L 1139.502211 565.466886 
L 1140.834583 509.021777 
L 1142.166954 558.46313 
L 1143.499326 516.044983 
L 1144.831698 538.487531 
L 1146.164069 541.539634 
L 1147.496441 558.622687 
L 1148.828812 566.84786 
L 1150.161184 482.682315 
L 1151.493556 460.185059 
L 1152.825927 379.828324 
L 1154.158299 443.433712 
L 1155.49067 516.705347 
L 1156.823042 543.991074 
L 1158.155414 552.240247 
L 1159.487785 489.230378 
L 1160.820157 484.47644 
L 1162.152528 487.925951 
L 1163.4849 529.169344 
L 1164.817271 540.32026 
L 1166.149643 559.90501 
L 1167.482015 551.060284 
L 1168.814386 546.640492 
L 1170.146758 458.488662 
L 1171.479129 515.143503 
L 1172.811501 406.906181 
L 1174.143873 512.169976 
L 1175.476244 505.814403 
L 1176.808616 567.463456 
L 1178.140987 534.707022 
L 1179.473359 450.156117 
L 1180.805731 488.560783 
L 1182.138102 521.267009 
L 1183.470474 549.697556 
L 1184.802845 555.409709 
L 1186.135217 531.926414 
L 1187.467589 419.736005 
L 1188.79996 414.583224 
L 1190.132332 506.597732 
L 1191.464703 458.951789 
L 1192.797075 449.888546 
L 1194.129447 524.39139 
L 1195.461818 500.627552 
L 1195.461818 500.627552 
" style="fill:none;stroke:#1f77b4;stroke-linecap:square;stroke-width:1.5;"/>
   </g>
   <g id="line2d_17">
    <path clip-path="url(#p58c68c63cc)" d="M 221.498182 558.090281 
L 222.830553 534.189715 
L 224.162925 567.815339 
L 225.495297 553.310168 
L 226.827668 553.639831 
L 228.16004 566.002192 
L 229.492411 558.255112 
L 230.824783 555.78264 
L 233.489526 569.793317 
L 234.821898 570.452643 
L 236.154269 559.408933 
L 237.486641 551.991516 
L 238.819013 549.189381 
L 240.151384 534.68421 
L 241.483756 562.870394 
L 242.816127 548.03556 
L 244.148499 569.958148 
L 245.480871 549.683875 
L 246.813242 546.716908 
L 248.145614 563.694552 
L 249.477985 556.112303 
L 250.810357 552.156347 
L 252.142729 571.2768 
L 253.4751 564.024215 
L 254.807472 560.068259 
L 256.139843 541.936795 
L 257.472215 552.48601 
L 258.804586 566.167024 
L 260.136958 531.882074 
L 261.46933 568.804328 
L 262.801701 561.057248 
L 264.134073 546.387245 
L 265.466444 547.541066 
L 266.798816 540.947806 
L 268.131188 551.991516 
L 269.463559 554.62882 
L 270.795931 568.804328 
L 272.128302 566.991181 
L 273.460674 550.343201 
L 274.793046 554.299157 
L 276.125417 561.716574 
L 277.457789 551.497021 
L 278.79016 553.969494 
L 280.122532 567.815339 
L 281.454904 563.200057 
L 282.787275 548.200392 
L 284.119647 548.530055 
L 285.452018 544.244436 
L 286.78439 549.848707 
L 289.449133 568.804328 
L 290.781505 569.298822 
L 292.113876 507.816677 
L 293.446248 536.827019 
L 294.77862 507.816677 
L 296.110991 558.255112 
L 297.443363 546.222414 
L 298.775734 559.244101 
L 300.108106 562.3759 
L 301.440478 558.419944 
L 302.772849 531.552411 
L 304.105221 568.309833 
L 306.769964 560.068259 
L 308.102336 557.760618 
L 309.434707 570.617474 
L 310.767079 542.43129 
L 312.09945 556.277135 
L 313.431822 568.145002 
L 314.764194 566.82635 
L 316.096565 553.804662 
L 317.428937 564.518709 
L 318.761308 561.881405 
L 320.09368 565.178035 
L 321.426051 566.331855 
L 322.758423 530.563423 
L 324.090795 546.552077 
L 325.423166 571.2768 
L 328.087909 570.452643 
L 329.420281 571.2768 
L 332.085024 571.2768 
L 333.417396 569.793317 
L 334.749767 571.2768 
L 342.743997 571.2768 
L 344.076369 568.309833 
L 345.40874 571.2768 
L 362.729571 571.2768 
L 366.726686 570.452643 
L 368.059057 567.98017 
L 369.391429 571.2768 
L 380.050402 571.2768 
L 381.382773 567.98017 
L 382.715145 571.2768 
L 398.703604 571.2768 
L 400.035976 567.98017 
L 401.368347 571.2768 
L 414.692063 571.2768 
L 416.024435 570.617474 
L 417.356806 571.2768 
L 418.689178 571.2768 
L 422.686293 570.947137 
L 424.018664 571.2768 
L 425.351036 571.2768 
L 426.683408 570.947137 
L 428.015779 571.2768 
L 433.345266 571.2768 
L 434.677637 570.452643 
L 436.010009 571.2768 
L 455.995583 571.2768 
L 459.992697 569.958148 
L 461.325069 571.2768 
L 473.316413 571.2768 
L 474.648785 570.947137 
L 479.978271 571.2768 
L 497.299102 571.2768 
L 498.631474 569.463654 
L 499.963845 571.2768 
L 501.296217 571.111969 
L 502.628588 571.2768 
L 511.95519 571.2768 
L 514.619933 567.98017 
L 515.952304 571.2768 
L 563.917682 571.2768 
L 565.250053 520.673533 
L 566.582425 552.980505 
L 567.914797 559.244101 
L 569.247168 566.991181 
L 570.57954 570.947137 
L 571.911911 525.288815 
L 573.244283 497.267462 
L 574.576655 564.024215 
L 575.909026 543.58511 
L 577.241398 537.980839 
L 578.573769 566.331855 
L 579.906141 564.353878 
L 581.238513 532.046906 
L 582.570884 545.233425 
L 583.903256 542.925784 
L 585.235627 548.365223 
L 586.567999 524.134995 
L 587.900371 563.694552 
L 589.232742 560.23309 
L 590.565114 541.771964 
L 591.897485 491.168697 
L 593.229857 525.288815 
L 594.562229 529.739265 
L 595.8946 555.617809 
L 597.226972 571.2768 
L 598.559343 566.82635 
L 599.891715 519.354881 
L 601.224087 545.398256 
L 602.556458 523.970163 
L 603.88883 554.958483 
L 605.221201 550.837696 
L 606.553573 570.12298 
L 607.885945 550.672864 
L 609.218316 494.79499 
L 610.550688 557.430955 
L 611.883059 537.816008 
L 613.215431 523.310837 
L 614.547803 542.596121 
L 615.880174 563.859383 
L 617.212546 554.62882 
L 618.544917 521.497691 
L 619.877289 521.662522 
L 621.20966 552.815673 
L 622.542032 532.5414 
L 623.874404 542.596121 
L 626.539147 565.837361 
L 627.871518 539.299491 
L 629.20389 539.464323 
L 630.536262 532.046906 
L 631.868633 540.123649 
L 633.201005 559.244101 
L 634.533376 545.233425 
L 635.865748 565.507698 
L 637.19812 547.046571 
L 638.530491 560.23309 
L 639.862863 555.123314 
L 641.195234 541.771964 
L 642.527606 534.849041 
L 643.859978 568.639496 
L 645.192349 557.101292 
L 646.524721 570.947137 
L 647.857092 553.639831 
L 649.189464 532.211737 
L 650.521836 549.848707 
L 651.854207 534.354547 
L 653.186579 568.639496 
L 654.51895 570.287811 
L 655.851322 536.662188 
L 657.183694 541.607132 
L 658.516065 546.057582 
L 659.848437 538.969828 
L 661.180808 539.629154 
L 662.51318 568.474665 
L 663.845552 568.969159 
L 665.177923 497.761957 
L 666.510295 478.147009 
L 667.842666 523.805332 
L 669.175038 521.497691 
L 670.50741 516.223083 
L 671.839781 566.167024 
L 673.172153 563.859383 
L 674.504524 539.958817 
L 675.836896 526.93713 
L 677.169268 543.749942 
L 678.501639 512.59679 
L 679.834011 540.947806 
L 681.166382 565.342866 
L 682.498754 570.452643 
L 685.163497 500.893755 
L 686.495869 538.969828 
L 687.82824 546.88174 
L 689.160612 549.189381 
L 690.492983 554.62882 
L 691.825355 558.749607 
L 694.490098 515.234094 
L 695.82247 533.365558 
L 697.154841 540.782975 
L 698.487213 549.024549 
L 699.819585 567.320844 
L 701.151956 564.189046 
L 702.484328 522.48668 
L 703.816699 520.838365 
L 705.149071 521.003196 
L 706.481443 544.244436 
L 707.813814 538.475334 
L 709.146186 561.716574 
L 710.478557 562.540731 
L 711.810929 539.793986 
L 713.143301 534.519378 
L 714.475672 542.596121 
L 715.808044 542.925784 
L 717.140415 544.903762 
L 718.472787 565.837361 
L 719.805159 567.485676 
L 721.13753 546.057582 
L 722.469902 535.178704 
L 723.802273 548.694886 
L 725.134645 536.827019 
L 726.467017 536.662188 
L 727.799388 551.002527 
L 729.13176 569.133991 
L 730.464131 518.530724 
L 731.796503 542.101627 
L 733.128875 537.651177 
L 734.461246 526.93713 
L 735.793618 522.321848 
L 737.125989 564.353878 
L 738.458361 548.859718 
L 739.790732 540.123649 
L 741.123104 506.99252 
L 742.455476 552.321179 
L 743.787847 524.464658 
L 745.120219 532.376569 
L 746.45259 560.892416 
L 747.784962 546.057582 
L 749.117334 546.552077 
L 751.782077 511.278138 
L 753.114448 554.793651 
L 754.44682 543.090616 
L 755.779192 558.749607 
L 757.111563 554.463988 
L 758.443935 544.73893 
L 759.776306 529.574434 
L 761.108678 539.629154 
L 762.44105 564.024215 
L 763.773421 529.244771 
L 765.105793 548.530055 
L 766.438164 553.474999 
L 767.770536 536.991851 
L 769.102908 543.255447 
L 770.435279 534.519378 
L 771.767651 529.739265 
L 773.100022 543.749942 
L 774.432394 555.288146 
L 775.764766 568.804328 
L 777.097137 506.662857 
L 778.429509 503.201396 
L 779.76188 530.563423 
L 781.094252 544.903762 
L 782.426624 540.782975 
L 783.758995 564.68354 
L 785.091367 566.82635 
L 786.423738 520.673533 
L 787.75611 561.057248 
L 789.088482 521.662522 
L 790.420853 539.299491 
L 791.753225 542.43129 
L 793.085596 562.540731 
L 794.417968 570.452643 
L 795.75034 524.629489 
L 797.082711 542.760953 
L 798.415083 570.287811 
L 799.747454 550.013538 
L 801.079826 551.002527 
L 802.412197 566.002192 
L 803.744569 558.914438 
L 805.076941 554.134325 
L 806.409312 531.38758 
L 807.741684 514.080274 
L 809.074055 559.573764 
L 810.406427 501.388249 
L 811.738799 562.211068 
L 813.07117 561.881405 
L 814.403542 496.772968 
L 815.735913 528.255782 
L 817.068285 520.508702 
L 818.400657 515.89342 
L 819.733028 506.168362 
L 821.0654 553.310168 
L 822.397771 571.111969 
L 823.730143 489.520382 
L 825.062515 494.135664 
L 826.394886 535.013873 
L 827.727258 518.201061 
L 829.059629 533.530389 
L 830.392001 554.299157 
L 831.724373 571.2768 
L 833.056744 523.970163 
L 834.389116 515.728589 
L 835.721487 484.245775 
L 837.053859 458.037568 
L 838.386231 530.893086 
L 839.718602 541.607132 
L 841.050974 569.793317 
L 842.383345 506.333194 
L 843.715717 491.828023 
L 845.048089 519.19005 
L 846.38046 503.366227 
L 847.712832 540.618143 
L 849.045203 556.606798 
L 850.377575 544.73893 
L 851.709947 509.300161 
L 853.042318 462.488018 
L 854.37469 485.399595 
L 855.707061 498.091619 
L 857.039433 508.970498 
L 858.371805 549.683875 
L 859.704176 564.024215 
L 861.036548 493.806001 
L 862.368919 453.751949 
L 863.701291 517.047241 
L 865.033662 528.420613 
L 866.366034 526.93713 
L 867.698406 525.948141 
L 869.030777 567.320844 
L 870.363149 509.794655 
L 871.69552 521.332859 
L 873.027892 477.487684 
L 874.360264 514.904431 
L 875.692635 499.410271 
L 877.025007 547.376234 
L 878.357378 560.397922 
L 879.68975 482.927123 
L 882.354493 540.123649 
L 883.686865 534.189715 
L 885.019236 536.332525 
L 886.351608 571.2768 
L 887.68398 552.321179 
L 889.016351 542.925784 
L 890.348723 571.2768 
L 1048.900943 571.2768 
L 1050.233314 554.299157 
L 1051.565686 570.782306 
L 1052.898057 561.057248 
L 1054.230429 569.463654 
L 1055.562801 570.12298 
L 1056.895172 560.562753 
L 1058.227544 534.354547 
L 1060.892287 568.969159 
L 1062.224659 564.518709 
L 1063.55703 563.694552 
L 1064.889402 562.540731 
L 1066.221773 551.661853 
L 1067.554145 563.52972 
L 1068.886517 558.584775 
L 1070.218888 568.969159 
L 1071.55126 565.178035 
L 1072.883631 568.145002 
L 1074.216003 570.452643 
L 1075.548375 545.892751 
L 1076.880746 552.48601 
L 1078.213118 537.980839 
L 1079.545489 531.882074 
L 1080.877861 553.639831 
L 1083.542604 567.815339 
L 1084.874976 555.452977 
L 1086.207347 560.397922 
L 1087.539719 560.23309 
L 1088.872091 557.101292 
L 1090.204462 567.156013 
L 1091.536834 569.463654 
L 1092.869205 565.507698 
L 1094.201577 543.420279 
L 1095.533949 542.266458 
L 1096.86632 561.551742 
L 1098.198692 554.62882 
L 1099.531063 555.947472 
L 1100.863435 567.98017 
L 1102.195806 569.463654 
L 1103.528178 552.815673 
L 1104.86055 565.507698 
L 1106.192921 563.694552 
L 1107.525293 540.947806 
L 1108.857664 559.07927 
L 1110.190036 563.859383 
L 1111.522408 569.958148 
L 1112.854779 556.441966 
L 1114.187151 562.211068 
L 1115.519522 556.936461 
L 1116.851894 519.025218 
L 1118.184266 563.859383 
L 1119.516637 568.804328 
L 1120.849009 571.111969 
L 1122.18138 555.617809 
L 1123.513752 567.320844 
L 1124.846124 554.958483 
L 1126.178495 562.870394 
L 1127.510867 562.3759 
L 1128.843238 568.804328 
L 1130.17561 567.650507 
L 1131.507982 564.68354 
L 1132.840353 555.452977 
L 1134.172725 562.3759 
L 1135.505096 562.046237 
L 1136.837468 563.859383 
L 1138.16984 569.463654 
L 1139.502211 569.793317 
L 1140.834583 555.288146 
L 1142.166954 567.98017 
L 1143.499326 556.936461 
L 1144.831698 562.705563 
L 1146.164069 563.52972 
L 1147.496441 567.98017 
L 1148.828812 570.12298 
L 1150.161184 548.365223 
L 1151.493556 542.596121 
L 1152.825927 521.827354 
L 1154.158299 538.145671 
L 1155.49067 557.101292 
L 1156.823042 564.189046 
L 1158.155414 566.331855 
L 1159.487785 550.013538 
L 1160.820157 548.694886 
L 1162.152528 549.683875 
L 1163.4849 560.23309 
L 1164.817271 563.200057 
L 1166.149643 568.309833 
L 1167.482015 566.002192 
L 1168.814386 564.848372 
L 1170.146758 541.771964 
L 1171.479129 556.606798 
L 1172.811501 528.420613 
L 1174.143873 555.947472 
L 1175.476244 554.299157 
L 1176.808616 570.287811 
L 1178.140987 561.716574 
L 1179.473359 539.793986 
L 1180.805731 549.683875 
L 1182.138102 558.255112 
L 1183.470474 565.672529 
L 1184.802845 567.156013 
L 1186.135217 561.057248 
L 1187.467589 531.717243 
L 1188.79996 530.563423 
L 1190.132332 554.62882 
L 1191.464703 542.596121 
L 1192.797075 540.123649 
L 1194.129447 559.244101 
L 1195.461818 553.145336 
L 1195.461818 553.145336 
" style="fill:none;stroke:#ff7f0e;stroke-linecap:square;stroke-width:1.5;"/>
   </g>
   <g id="patch_3">
    <path d="M 172.8 594.6624 
L 172.8 80.1792 
" style="fill:none;stroke:#000000;stroke-linecap:square;stroke-linejoin:miter;stroke-width:0.8;"/>
   </g>
   <g id="patch_4">
    <path d="M 1244.16 594.6624 
L 1244.16 80.1792 
" style="fill:none;stroke:#000000;stroke-linecap:square;stroke-linejoin:miter;stroke-width:0.8;"/>
   </g>
   <g id="patch_5">
    <path d="M 172.8 594.6624 
L 1244.16 594.6624 
" style="fill:none;stroke:#000000;stroke-linecap:square;stroke-linejoin:miter;stroke-width:0.8;"/>
   </g>
   <g id="patch_6">
    <path d="M 172.8 80.1792 
L 1244.16 80.1792 
" style="fill:none;stroke:#000000;stroke-linecap:square;stroke-linejoin:miter;stroke-width:0.8;"/>
   </g>
   <g id="text_18">
    <!-- sprzedaż z dni 2014-10-16 - 2016-10-16 -->
    <defs>
     <path d="M 44.28125 53.078125 
L 44.28125 44.578125 
Q 40.484375 46.53125 36.375 47.5 
Q 32.28125 48.484375 27.875 48.484375 
Q 21.1875 48.484375 17.84375 46.4375 
Q 14.5 44.390625 14.5 40.28125 
Q 14.5 37.15625 16.890625 35.375 
Q 19.28125 33.59375 26.515625 31.984375 
L 29.59375 31.296875 
Q 39.15625 29.25 43.1875 25.515625 
Q 47.21875 21.78125 47.21875 15.09375 
Q 47.21875 7.46875 41.1875 3.015625 
Q 35.15625 -1.421875 24.609375 -1.421875 
Q 20.21875 -1.421875 15.453125 -0.5625 
Q 10.6875 0.296875 5.421875 2 
L 5.421875 11.28125 
Q 10.40625 8.6875 15.234375 7.390625 
Q 20.0625 6.109375 24.8125 6.109375 
Q 31.15625 6.109375 34.5625 8.28125 
Q 37.984375 10.453125 37.984375 14.40625 
Q 37.984375 18.0625 35.515625 20.015625 
Q 33.0625 21.96875 24.703125 23.78125 
L 21.578125 24.515625 
Q 13.234375 26.265625 9.515625 29.90625 
Q 5.8125 33.546875 5.8125 39.890625 
Q 5.8125 47.609375 11.28125 51.796875 
Q 16.75 56 26.8125 56 
Q 31.78125 56 36.171875 55.265625 
Q 40.578125 54.546875 44.28125 53.078125 
z
" id="DejaVuSans-115"/>
     <path d="M 18.109375 8.203125 
L 18.109375 -20.796875 
L 9.078125 -20.796875 
L 9.078125 54.6875 
L 18.109375 54.6875 
L 18.109375 46.390625 
Q 20.953125 51.265625 25.265625 53.625 
Q 29.59375 56 35.59375 56 
Q 45.5625 56 51.78125 48.09375 
Q 58.015625 40.1875 58.015625 27.296875 
Q 58.015625 14.40625 51.78125 6.484375 
Q 45.5625 -1.421875 35.59375 -1.421875 
Q 29.59375 -1.421875 25.265625 0.953125 
Q 20.953125 3.328125 18.109375 8.203125 
z
M 48.6875 27.296875 
Q 48.6875 37.203125 44.609375 42.84375 
Q 40.53125 48.484375 33.40625 48.484375 
Q 26.265625 48.484375 22.1875 42.84375 
Q 18.109375 37.203125 18.109375 27.296875 
Q 18.109375 17.390625 22.1875 11.75 
Q 26.265625 6.109375 33.40625 6.109375 
Q 40.53125 6.109375 44.609375 11.75 
Q 48.6875 17.390625 48.6875 27.296875 
z
" id="DejaVuSans-112"/>
     <path d="M 41.109375 46.296875 
Q 39.59375 47.171875 37.8125 47.578125 
Q 36.03125 48 33.890625 48 
Q 26.265625 48 22.1875 43.046875 
Q 18.109375 38.09375 18.109375 28.8125 
L 18.109375 0 
L 9.078125 0 
L 9.078125 54.6875 
L 18.109375 54.6875 
L 18.109375 46.1875 
Q 20.953125 51.171875 25.484375 53.578125 
Q 30.03125 56 36.53125 56 
Q 37.453125 56 38.578125 55.875 
Q 39.703125 55.765625 41.0625 55.515625 
z
" id="DejaVuSans-114"/>
     <path d="M 5.515625 54.6875 
L 48.1875 54.6875 
L 48.1875 46.484375 
L 14.40625 7.171875 
L 48.1875 7.171875 
L 48.1875 0 
L 4.296875 0 
L 4.296875 8.203125 
L 38.09375 47.515625 
L 5.515625 47.515625 
z
" id="DejaVuSans-122"/>
     <path d="M 56.203125 29.59375 
L 56.203125 25.203125 
L 14.890625 25.203125 
Q 15.484375 15.921875 20.484375 11.0625 
Q 25.484375 6.203125 34.421875 6.203125 
Q 39.59375 6.203125 44.453125 7.46875 
Q 49.3125 8.734375 54.109375 11.28125 
L 54.109375 2.78125 
Q 49.265625 0.734375 44.1875 -0.34375 
Q 39.109375 -1.421875 33.890625 -1.421875 
Q 20.796875 -1.421875 13.15625 6.1875 
Q 5.515625 13.8125 5.515625 26.8125 
Q 5.515625 40.234375 12.765625 48.109375 
Q 20.015625 56 32.328125 56 
Q 43.359375 56 49.78125 48.890625 
Q 56.203125 41.796875 56.203125 29.59375 
z
M 47.21875 32.234375 
Q 47.125 39.59375 43.09375 43.984375 
Q 39.0625 48.390625 32.421875 48.390625 
Q 24.90625 48.390625 20.390625 44.140625 
Q 15.875 39.890625 15.1875 32.171875 
z
" id="DejaVuSans-101"/>
     <path d="M 21.53125 75.984375 
L 30.515625 75.984375 
L 30.515625 64.59375 
L 21.53125 64.59375 
z
M 26.125 56 
z
M 5.515625 54.6875 
L 48.1875 54.6875 
L 48.1875 46.484375 
L 14.40625 7.171875 
L 48.1875 7.171875 
L 48.1875 0 
L 4.296875 0 
L 4.296875 8.203125 
L 38.09375 47.515625 
L 5.515625 47.515625 
z
" id="DejaVuSans-380"/>
     <path id="DejaVuSans-32"/>
     <path d="M 54.890625 33.015625 
L 54.890625 0 
L 45.90625 0 
L 45.90625 32.71875 
Q 45.90625 40.484375 42.875 44.328125 
Q 39.84375 48.1875 33.796875 48.1875 
Q 26.515625 48.1875 22.3125 43.546875 
Q 18.109375 38.921875 18.109375 30.90625 
L 18.109375 0 
L 9.078125 0 
L 9.078125 54.6875 
L 18.109375 54.6875 
L 18.109375 46.1875 
Q 21.34375 51.125 25.703125 53.5625 
Q 30.078125 56 35.796875 56 
Q 45.21875 56 50.046875 50.171875 
Q 54.890625 44.34375 54.890625 33.015625 
z
" id="DejaVuSans-110"/>
     <path d="M 9.421875 54.6875 
L 18.40625 54.6875 
L 18.40625 0 
L 9.421875 0 
z
M 9.421875 75.984375 
L 18.40625 75.984375 
L 18.40625 64.59375 
L 9.421875 64.59375 
z
" id="DejaVuSans-105"/>
    </defs>
    <g transform="translate(587.7375 74.1792)scale(0.12 -0.12)">
     <use xlink:href="#DejaVuSans-115"/>
     <use x="52.099609" xlink:href="#DejaVuSans-112"/>
     <use x="115.576172" xlink:href="#DejaVuSans-114"/>
     <use x="156.689453" xlink:href="#DejaVuSans-122"/>
     <use x="209.179688" xlink:href="#DejaVuSans-101"/>
     <use x="270.703125" xlink:href="#DejaVuSans-100"/>
     <use x="334.179688" xlink:href="#DejaVuSans-97"/>
     <use x="395.458984" xlink:href="#DejaVuSans-380"/>
     <use x="447.949219" xlink:href="#DejaVuSans-32"/>
     <use x="479.736328" xlink:href="#DejaVuSans-122"/>
     <use x="532.226562" xlink:href="#DejaVuSans-32"/>
     <use x="564.013672" xlink:href="#DejaVuSans-100"/>
     <use x="627.490234" xlink:href="#DejaVuSans-110"/>
     <use x="690.869141" xlink:href="#DejaVuSans-105"/>
     <use x="718.652344" xlink:href="#DejaVuSans-32"/>
     <use x="750.439453" xlink:href="#DejaVuSans-50"/>
     <use x="814.0625" xlink:href="#DejaVuSans-48"/>
     <use x="877.685547" xlink:href="#DejaVuSans-49"/>
     <use x="941.308594" xlink:href="#DejaVuSans-52"/>
     <use x="1004.931641" xlink:href="#DejaVuSans-45"/>
     <use x="1041.015625" xlink:href="#DejaVuSans-49"/>
     <use x="1104.638672" xlink:href="#DejaVuSans-48"/>
     <use x="1168.261719" xlink:href="#DejaVuSans-45"/>
     <use x="1204.345703" xlink:href="#DejaVuSans-49"/>
     <use x="1267.96875" xlink:href="#DejaVuSans-54"/>
     <use x="1331.591797" xlink:href="#DejaVuSans-32"/>
     <use x="1363.378906" xlink:href="#DejaVuSans-45"/>
     <use x="1399.462891" xlink:href="#DejaVuSans-32"/>
     <use x="1431.25" xlink:href="#DejaVuSans-50"/>
     <use x="1494.873047" xlink:href="#DejaVuSans-48"/>
     <use x="1558.496094" xlink:href="#DejaVuSans-49"/>
     <use x="1622.119141" xlink:href="#DejaVuSans-54"/>
     <use x="1685.742188" xlink:href="#DejaVuSans-45"/>
     <use x="1721.826172" xlink:href="#DejaVuSans-49"/>
     <use x="1785.449219" xlink:href="#DejaVuSans-48"/>
     <use x="1849.072266" xlink:href="#DejaVuSans-45"/>
     <use x="1885.15625" xlink:href="#DejaVuSans-49"/>
     <use x="1948.779297" xlink:href="#DejaVuSans-54"/>
    </g>
   </g>
   <g id="legend_1">
    <g id="patch_7">
     <path d="M 1183.792812 117.53545 
L 1237.16 117.53545 
Q 1239.16 117.53545 1239.16 115.53545 
L 1239.16 87.1792 
Q 1239.16 85.1792 1237.16 85.1792 
L 1183.792812 85.1792 
Q 1181.792812 85.1792 1181.792812 87.1792 
L 1181.792812 115.53545 
Q 1181.792812 117.53545 1183.792812 117.53545 
z
" style="fill:#ffffff;opacity:0.8;stroke:#cccccc;stroke-linejoin:miter;"/>
    </g>
    <g id="line2d_18">
     <path d="M 1185.792812 93.277637 
L 1205.792812 93.277637 
" style="fill:none;stroke:#1f77b4;stroke-linecap:square;stroke-width:1.5;"/>
    </g>
    <g id="line2d_19"/>
    <g id="text_19">
     <!-- PLN -->
     <defs>
      <path d="M 19.671875 64.796875 
L 19.671875 37.40625 
L 32.078125 37.40625 
Q 38.96875 37.40625 42.71875 40.96875 
Q 46.484375 44.53125 46.484375 51.125 
Q 46.484375 57.671875 42.71875 61.234375 
Q 38.96875 64.796875 32.078125 64.796875 
z
M 9.8125 72.90625 
L 32.078125 72.90625 
Q 44.34375 72.90625 50.609375 67.359375 
Q 56.890625 61.8125 56.890625 51.125 
Q 56.890625 40.328125 50.609375 34.8125 
Q 44.34375 29.296875 32.078125 29.296875 
L 19.671875 29.296875 
L 19.671875 0 
L 9.8125 0 
z
" id="DejaVuSans-80"/>
      <path d="M 9.8125 72.90625 
L 19.671875 72.90625 
L 19.671875 8.296875 
L 55.171875 8.296875 
L 55.171875 0 
L 9.8125 0 
z
" id="DejaVuSans-76"/>
      <path d="M 9.8125 72.90625 
L 23.09375 72.90625 
L 55.421875 11.921875 
L 55.421875 72.90625 
L 64.984375 72.90625 
L 64.984375 0 
L 51.703125 0 
L 19.390625 60.984375 
L 19.390625 0 
L 9.8125 0 
z
" id="DejaVuSans-78"/>
     </defs>
     <g transform="translate(1213.792812 96.777637)scale(0.1 -0.1)">
      <use xlink:href="#DejaVuSans-80"/>
      <use x="60.302734" xlink:href="#DejaVuSans-76"/>
      <use x="116.015625" xlink:href="#DejaVuSans-78"/>
     </g>
    </g>
    <g id="line2d_20">
     <path d="M 1185.792812 107.955762 
L 1205.792812 107.955762 
" style="fill:none;stroke:#ff7f0e;stroke-linecap:square;stroke-width:1.5;"/>
    </g>
    <g id="line2d_21"/>
    <g id="text_20">
     <!-- USD -->
     <defs>
      <path d="M 8.6875 72.90625 
L 18.609375 72.90625 
L 18.609375 28.609375 
Q 18.609375 16.890625 22.84375 11.734375 
Q 27.09375 6.59375 36.625 6.59375 
Q 46.09375 6.59375 50.34375 11.734375 
Q 54.59375 16.890625 54.59375 28.609375 
L 54.59375 72.90625 
L 64.5 72.90625 
L 64.5 27.390625 
Q 64.5 13.140625 57.4375 5.859375 
Q 50.390625 -1.421875 36.625 -1.421875 
Q 22.796875 -1.421875 15.734375 5.859375 
Q 8.6875 13.140625 8.6875 27.390625 
z
" id="DejaVuSans-85"/>
      <path d="M 53.515625 70.515625 
L 53.515625 60.890625 
Q 47.90625 63.578125 42.921875 64.890625 
Q 37.9375 66.21875 33.296875 66.21875 
Q 25.25 66.21875 20.875 63.09375 
Q 16.5 59.96875 16.5 54.203125 
Q 16.5 49.359375 19.40625 46.890625 
Q 22.3125 44.4375 30.421875 42.921875 
L 36.375 41.703125 
Q 47.40625 39.59375 52.65625 34.296875 
Q 57.90625 29 57.90625 20.125 
Q 57.90625 9.515625 50.796875 4.046875 
Q 43.703125 -1.421875 29.984375 -1.421875 
Q 24.8125 -1.421875 18.96875 -0.25 
Q 13.140625 0.921875 6.890625 3.21875 
L 6.890625 13.375 
Q 12.890625 10.015625 18.65625 8.296875 
Q 24.421875 6.59375 29.984375 6.59375 
Q 38.421875 6.59375 43.015625 9.90625 
Q 47.609375 13.234375 47.609375 19.390625 
Q 47.609375 24.75 44.3125 27.78125 
Q 41.015625 30.8125 33.5 32.328125 
L 27.484375 33.5 
Q 16.453125 35.6875 11.515625 40.375 
Q 6.59375 45.0625 6.59375 53.421875 
Q 6.59375 63.09375 13.40625 68.65625 
Q 20.21875 74.21875 32.171875 74.21875 
Q 37.3125 74.21875 42.625 73.28125 
Q 47.953125 72.359375 53.515625 70.515625 
z
" id="DejaVuSans-83"/>
      <path d="M 19.671875 64.796875 
L 19.671875 8.109375 
L 31.59375 8.109375 
Q 46.6875 8.109375 53.6875 14.9375 
Q 60.6875 21.78125 60.6875 36.53125 
Q 60.6875 51.171875 53.6875 57.984375 
Q 46.6875 64.796875 31.59375 64.796875 
z
M 9.8125 72.90625 
L 30.078125 72.90625 
Q 51.265625 72.90625 61.171875 64.09375 
Q 71.09375 55.28125 71.09375 36.53125 
Q 71.09375 17.671875 61.125 8.828125 
Q 51.171875 0 30.078125 0 
L 9.8125 0 
z
" id="DejaVuSans-68"/>
     </defs>
     <g transform="translate(1213.792812 111.455762)scale(0.1 -0.1)">
      <use xlink:href="#DejaVuSans-85"/>
      <use x="73.193359" xlink:href="#DejaVuSans-83"/>
      <use x="136.669922" xlink:href="#DejaVuSans-68"/>
     </g>
    </g>
   </g>
  </g>
 </g>
 <defs>
  <clipPath id="p58c68c63cc">
   <rect height="514.4832" width="1071.36" x="172.8" y="80.1792"/>
  </clipPath>
 </defs>
</svg>
