<?xml version="1.0" encoding="utf-8" standalone="no"?>
<!DOCTYPE svg PUBLIC "-//W3C//DTD SVG 1.1//EN"
  "http://www.w3.org/Graphics/SVG/1.1/DTD/svg11.dtd">
<!-- Created with matplotlib (https://matplotlib.org/) -->
<svg height="345.6pt" version="1.1" viewBox="0 0 460.8 345.6" width="460.8pt" xmlns="http://www.w3.org/2000/svg" xmlns:xlink="http://www.w3.org/1999/xlink">
 <defs>
  <style type="text/css">
*{stroke-linecap:butt;stroke-linejoin:round;}
  </style>
 </defs>
 <g id="figure_1">
  <g id="patch_1">
   <path d="M 0 345.6 
L 460.8 345.6 
L 460.8 0 
L 0 0 
z
" style="fill:#ffffff;"/>
  </g>
  <g id="axes_1">
   <g id="patch_2">
    <path d="M 57.6 276.48 
L 414.72 276.48 
L 414.72 41.472 
L 57.6 41.472 
z
" style="fill:#ffffff;"/>
   </g>
   <g id="matplotlib.axis_1">
    <g id="xtick_1">
     <g id="line2d_1">
      <path clip-path="url(#p57e22e2509)" d="M 73.832727 276.48 
L 73.832727 41.472 
" style="fill:none;stroke:#b0b0b0;stroke-linecap:square;stroke-width:0.8;"/>
     </g>
     <g id="line2d_2">
      <defs>
       <path d="M 0 0 
L 0 3.5 
" id="m306d75cb21" style="stroke:#000000;stroke-width:0.8;"/>
      </defs>
      <g>
       <use style="stroke:#000000;stroke-width:0.8;" x="73.832727" xlink:href="#m306d75cb21" y="276.48"/>
      </g>
     </g>
     <g id="text_1">
      <!-- 2014-08-19 -->
      <defs>
       <path d="M 19.1875 8.296875 
L 53.609375 8.296875 
L 53.609375 0 
L 7.328125 0 
L 7.328125 8.296875 
Q 12.9375 14.109375 22.625 23.890625 
Q 32.328125 33.6875 34.8125 36.53125 
Q 39.546875 41.84375 41.421875 45.53125 
Q 43.3125 49.21875 43.3125 52.78125 
Q 43.3125 58.59375 39.234375 62.25 
Q 35.15625 65.921875 28.609375 65.921875 
Q 23.96875 65.921875 18.8125 64.3125 
Q 13.671875 62.703125 7.8125 59.421875 
L 7.8125 69.390625 
Q 13.765625 71.78125 18.9375 73 
Q 24.125 74.21875 28.421875 74.21875 
Q 39.75 74.21875 46.484375 68.546875 
Q 53.21875 62.890625 53.21875 53.421875 
Q 53.21875 48.921875 51.53125 44.890625 
Q 49.859375 40.875 45.40625 35.40625 
Q 44.1875 33.984375 37.640625 27.21875 
Q 31.109375 20.453125 19.1875 8.296875 
z
" id="DejaVuSans-50"/>
       <path d="M 31.78125 66.40625 
Q 24.171875 66.40625 20.328125 58.90625 
Q 16.5 51.421875 16.5 36.375 
Q 16.5 21.390625 20.328125 13.890625 
Q 24.171875 6.390625 31.78125 6.390625 
Q 39.453125 6.390625 43.28125 13.890625 
Q 47.125 21.390625 47.125 36.375 
Q 47.125 51.421875 43.28125 58.90625 
Q 39.453125 66.40625 31.78125 66.40625 
z
M 31.78125 74.21875 
Q 44.046875 74.21875 50.515625 64.515625 
Q 56.984375 54.828125 56.984375 36.375 
Q 56.984375 17.96875 50.515625 8.265625 
Q 44.046875 -1.421875 31.78125 -1.421875 
Q 19.53125 -1.421875 13.0625 8.265625 
Q 6.59375 17.96875 6.59375 36.375 
Q 6.59375 54.828125 13.0625 64.515625 
Q 19.53125 74.21875 31.78125 74.21875 
z
" id="DejaVuSans-48"/>
       <path d="M 12.40625 8.296875 
L 28.515625 8.296875 
L 28.515625 63.921875 
L 10.984375 60.40625 
L 10.984375 69.390625 
L 28.421875 72.90625 
L 38.28125 72.90625 
L 38.28125 8.296875 
L 54.390625 8.296875 
L 54.390625 0 
L 12.40625 0 
z
" id="DejaVuSans-49"/>
       <path d="M 37.796875 64.3125 
L 12.890625 25.390625 
L 37.796875 25.390625 
z
M 35.203125 72.90625 
L 47.609375 72.90625 
L 47.609375 25.390625 
L 58.015625 25.390625 
L 58.015625 17.1875 
L 47.609375 17.1875 
L 47.609375 0 
L 37.796875 0 
L 37.796875 17.1875 
L 4.890625 17.1875 
L 4.890625 26.703125 
z
" id="DejaVuSans-52"/>
       <path d="M 4.890625 31.390625 
L 31.203125 31.390625 
L 31.203125 23.390625 
L 4.890625 23.390625 
z
" id="DejaVuSans-45"/>
       <path d="M 31.78125 34.625 
Q 24.75 34.625 20.71875 30.859375 
Q 16.703125 27.09375 16.703125 20.515625 
Q 16.703125 13.921875 20.71875 10.15625 
Q 24.75 6.390625 31.78125 6.390625 
Q 38.8125 6.390625 42.859375 10.171875 
Q 46.921875 13.96875 46.921875 20.515625 
Q 46.921875 27.09375 42.890625 30.859375 
Q 38.875 34.625 31.78125 34.625 
z
M 21.921875 38.8125 
Q 15.578125 40.375 12.03125 44.71875 
Q 8.5 49.078125 8.5 55.328125 
Q 8.5 64.0625 14.71875 69.140625 
Q 20.953125 74.21875 31.78125 74.21875 
Q 42.671875 74.21875 48.875 69.140625 
Q 55.078125 64.0625 55.078125 55.328125 
Q 55.078125 49.078125 51.53125 44.71875 
Q 48 40.375 41.703125 38.8125 
Q 48.828125 37.15625 52.796875 32.3125 
Q 56.78125 27.484375 56.78125 20.515625 
Q 56.78125 9.90625 50.3125 4.234375 
Q 43.84375 -1.421875 31.78125 -1.421875 
Q 19.734375 -1.421875 13.25 4.234375 
Q 6.78125 9.90625 6.78125 20.515625 
Q 6.78125 27.484375 10.78125 32.3125 
Q 14.796875 37.15625 21.921875 38.8125 
z
M 18.3125 54.390625 
Q 18.3125 48.734375 21.84375 45.5625 
Q 25.390625 42.390625 31.78125 42.390625 
Q 38.140625 42.390625 41.71875 45.5625 
Q 45.3125 48.734375 45.3125 54.390625 
Q 45.3125 60.0625 41.71875 63.234375 
Q 38.140625 66.40625 31.78125 66.40625 
Q 25.390625 66.40625 21.84375 63.234375 
Q 18.3125 60.0625 18.3125 54.390625 
z
" id="DejaVuSans-56"/>
       <path d="M 10.984375 1.515625 
L 10.984375 10.5 
Q 14.703125 8.734375 18.5 7.8125 
Q 22.3125 6.890625 25.984375 6.890625 
Q 35.75 6.890625 40.890625 13.453125 
Q 46.046875 20.015625 46.78125 33.40625 
Q 43.953125 29.203125 39.59375 26.953125 
Q 35.25 24.703125 29.984375 24.703125 
Q 19.046875 24.703125 12.671875 31.3125 
Q 6.296875 37.9375 6.296875 49.421875 
Q 6.296875 60.640625 12.9375 67.421875 
Q 19.578125 74.21875 30.609375 74.21875 
Q 43.265625 74.21875 49.921875 64.515625 
Q 56.59375 54.828125 56.59375 36.375 
Q 56.59375 19.140625 48.40625 8.859375 
Q 40.234375 -1.421875 26.421875 -1.421875 
Q 22.703125 -1.421875 18.890625 -0.6875 
Q 15.09375 0.046875 10.984375 1.515625 
z
M 30.609375 32.421875 
Q 37.25 32.421875 41.125 36.953125 
Q 45.015625 41.5 45.015625 49.421875 
Q 45.015625 57.28125 41.125 61.84375 
Q 37.25 66.40625 30.609375 66.40625 
Q 23.96875 66.40625 20.09375 61.84375 
Q 16.21875 57.28125 16.21875 49.421875 
Q 16.21875 41.5 20.09375 36.953125 
Q 23.96875 32.421875 30.609375 32.421875 
z
" id="DejaVuSans-57"/>
      </defs>
      <g transform="translate(20.28317 314.927247)rotate(-25)scale(0.1 -0.1)">
       <use xlink:href="#DejaVuSans-50"/>
       <use x="63.623047" xlink:href="#DejaVuSans-48"/>
       <use x="127.246094" xlink:href="#DejaVuSans-49"/>
       <use x="190.869141" xlink:href="#DejaVuSans-52"/>
       <use x="254.492188" xlink:href="#DejaVuSans-45"/>
       <use x="290.576172" xlink:href="#DejaVuSans-48"/>
       <use x="354.199219" xlink:href="#DejaVuSans-56"/>
       <use x="417.822266" xlink:href="#DejaVuSans-45"/>
       <use x="453.90625" xlink:href="#DejaVuSans-49"/>
       <use x="517.529297" xlink:href="#DejaVuSans-57"/>
      </g>
     </g>
    </g>
    <g id="xtick_2">
     <g id="line2d_3">
      <path clip-path="url(#p57e22e2509)" d="M 92.671482 276.48 
L 92.671482 41.472 
" style="fill:none;stroke:#b0b0b0;stroke-linecap:square;stroke-width:0.8;"/>
     </g>
     <g id="line2d_4">
      <g>
       <use style="stroke:#000000;stroke-width:0.8;" x="92.671482" xlink:href="#m306d75cb21" y="276.48"/>
      </g>
     </g>
     <g id="text_2">
      <!-- 2014-09-19 -->
      <g transform="translate(39.121925 314.927247)rotate(-25)scale(0.1 -0.1)">
       <use xlink:href="#DejaVuSans-50"/>
       <use x="63.623047" xlink:href="#DejaVuSans-48"/>
       <use x="127.246094" xlink:href="#DejaVuSans-49"/>
       <use x="190.869141" xlink:href="#DejaVuSans-52"/>
       <use x="254.492188" xlink:href="#DejaVuSans-45"/>
       <use x="290.576172" xlink:href="#DejaVuSans-48"/>
       <use x="354.199219" xlink:href="#DejaVuSans-57"/>
       <use x="417.822266" xlink:href="#DejaVuSans-45"/>
       <use x="453.90625" xlink:href="#DejaVuSans-49"/>
       <use x="517.529297" xlink:href="#DejaVuSans-57"/>
      </g>
     </g>
    </g>
    <g id="xtick_3">
     <g id="line2d_5">
      <path clip-path="url(#p57e22e2509)" d="M 111.510237 276.48 
L 111.510237 41.472 
" style="fill:none;stroke:#b0b0b0;stroke-linecap:square;stroke-width:0.8;"/>
     </g>
     <g id="line2d_6">
      <g>
       <use style="stroke:#000000;stroke-width:0.8;" x="111.510237" xlink:href="#m306d75cb21" y="276.48"/>
      </g>
     </g>
     <g id="text_3">
      <!-- 2014-10-21 -->
      <g transform="translate(57.96068 314.927247)rotate(-25)scale(0.1 -0.1)">
       <use xlink:href="#DejaVuSans-50"/>
       <use x="63.623047" xlink:href="#DejaVuSans-48"/>
       <use x="127.246094" xlink:href="#DejaVuSans-49"/>
       <use x="190.869141" xlink:href="#DejaVuSans-52"/>
       <use x="254.492188" xlink:href="#DejaVuSans-45"/>
       <use x="290.576172" xlink:href="#DejaVuSans-49"/>
       <use x="354.199219" xlink:href="#DejaVuSans-48"/>
       <use x="417.822266" xlink:href="#DejaVuSans-45"/>
       <use x="453.90625" xlink:href="#DejaVuSans-50"/>
       <use x="517.529297" xlink:href="#DejaVuSans-49"/>
      </g>
     </g>
    </g>
    <g id="xtick_4">
     <g id="line2d_7">
      <path clip-path="url(#p57e22e2509)" d="M 130.348992 276.48 
L 130.348992 41.472 
" style="fill:none;stroke:#b0b0b0;stroke-linecap:square;stroke-width:0.8;"/>
     </g>
     <g id="line2d_8">
      <g>
       <use style="stroke:#000000;stroke-width:0.8;" x="130.348992" xlink:href="#m306d75cb21" y="276.48"/>
      </g>
     </g>
     <g id="text_4">
      <!-- 2014-11-21 -->
      <g transform="translate(76.799435 314.927247)rotate(-25)scale(0.1 -0.1)">
       <use xlink:href="#DejaVuSans-50"/>
       <use x="63.623047" xlink:href="#DejaVuSans-48"/>
       <use x="127.246094" xlink:href="#DejaVuSans-49"/>
       <use x="190.869141" xlink:href="#DejaVuSans-52"/>
       <use x="254.492188" xlink:href="#DejaVuSans-45"/>
       <use x="290.576172" xlink:href="#DejaVuSans-49"/>
       <use x="354.199219" xlink:href="#DejaVuSans-49"/>
       <use x="417.822266" xlink:href="#DejaVuSans-45"/>
       <use x="453.90625" xlink:href="#DejaVuSans-50"/>
       <use x="517.529297" xlink:href="#DejaVuSans-49"/>
      </g>
     </g>
    </g>
    <g id="xtick_5">
     <g id="line2d_9">
      <path clip-path="url(#p57e22e2509)" d="M 149.187747 276.48 
L 149.187747 41.472 
" style="fill:none;stroke:#b0b0b0;stroke-linecap:square;stroke-width:0.8;"/>
     </g>
     <g id="line2d_10">
      <g>
       <use style="stroke:#000000;stroke-width:0.8;" x="149.187747" xlink:href="#m306d75cb21" y="276.48"/>
      </g>
     </g>
     <g id="text_5">
      <!-- 2014-12-21 -->
      <g transform="translate(95.63819 314.927247)rotate(-25)scale(0.1 -0.1)">
       <use xlink:href="#DejaVuSans-50"/>
       <use x="63.623047" xlink:href="#DejaVuSans-48"/>
       <use x="127.246094" xlink:href="#DejaVuSans-49"/>
       <use x="190.869141" xlink:href="#DejaVuSans-52"/>
       <use x="254.492188" xlink:href="#DejaVuSans-45"/>
       <use x="290.576172" xlink:href="#DejaVuSans-49"/>
       <use x="354.199219" xlink:href="#DejaVuSans-50"/>
       <use x="417.822266" xlink:href="#DejaVuSans-45"/>
       <use x="453.90625" xlink:href="#DejaVuSans-50"/>
       <use x="517.529297" xlink:href="#DejaVuSans-49"/>
      </g>
     </g>
    </g>
    <g id="xtick_6">
     <g id="line2d_11">
      <path clip-path="url(#p57e22e2509)" d="M 168.026503 276.48 
L 168.026503 41.472 
" style="fill:none;stroke:#b0b0b0;stroke-linecap:square;stroke-width:0.8;"/>
     </g>
     <g id="line2d_12">
      <g>
       <use style="stroke:#000000;stroke-width:0.8;" x="168.026503" xlink:href="#m306d75cb21" y="276.48"/>
      </g>
     </g>
     <g id="text_6">
      <!-- 2015-07-03 -->
      <defs>
       <path d="M 10.796875 72.90625 
L 49.515625 72.90625 
L 49.515625 64.59375 
L 19.828125 64.59375 
L 19.828125 46.734375 
Q 21.96875 47.46875 24.109375 47.828125 
Q 26.265625 48.1875 28.421875 48.1875 
Q 40.625 48.1875 47.75 41.5 
Q 54.890625 34.8125 54.890625 23.390625 
Q 54.890625 11.625 47.5625 5.09375 
Q 40.234375 -1.421875 26.90625 -1.421875 
Q 22.3125 -1.421875 17.546875 -0.640625 
Q 12.796875 0.140625 7.71875 1.703125 
L 7.71875 11.625 
Q 12.109375 9.234375 16.796875 8.0625 
Q 21.484375 6.890625 26.703125 6.890625 
Q 35.15625 6.890625 40.078125 11.328125 
Q 45.015625 15.765625 45.015625 23.390625 
Q 45.015625 31 40.078125 35.4375 
Q 35.15625 39.890625 26.703125 39.890625 
Q 22.75 39.890625 18.8125 39.015625 
Q 14.890625 38.140625 10.796875 36.28125 
z
" id="DejaVuSans-53"/>
       <path d="M 8.203125 72.90625 
L 55.078125 72.90625 
L 55.078125 68.703125 
L 28.609375 0 
L 18.3125 0 
L 43.21875 64.59375 
L 8.203125 64.59375 
z
" id="DejaVuSans-55"/>
       <path d="M 40.578125 39.3125 
Q 47.65625 37.796875 51.625 33 
Q 55.609375 28.21875 55.609375 21.1875 
Q 55.609375 10.40625 48.1875 4.484375 
Q 40.765625 -1.421875 27.09375 -1.421875 
Q 22.515625 -1.421875 17.65625 -0.515625 
Q 12.796875 0.390625 7.625 2.203125 
L 7.625 11.71875 
Q 11.71875 9.328125 16.59375 8.109375 
Q 21.484375 6.890625 26.8125 6.890625 
Q 36.078125 6.890625 40.9375 10.546875 
Q 45.796875 14.203125 45.796875 21.1875 
Q 45.796875 27.640625 41.28125 31.265625 
Q 36.765625 34.90625 28.71875 34.90625 
L 20.21875 34.90625 
L 20.21875 43.015625 
L 29.109375 43.015625 
Q 36.375 43.015625 40.234375 45.921875 
Q 44.09375 48.828125 44.09375 54.296875 
Q 44.09375 59.90625 40.109375 62.90625 
Q 36.140625 65.921875 28.71875 65.921875 
Q 24.65625 65.921875 20.015625 65.03125 
Q 15.375 64.15625 9.8125 62.3125 
L 9.8125 71.09375 
Q 15.4375 72.65625 20.34375 73.4375 
Q 25.25 74.21875 29.59375 74.21875 
Q 40.828125 74.21875 47.359375 69.109375 
Q 53.90625 64.015625 53.90625 55.328125 
Q 53.90625 49.265625 50.4375 45.09375 
Q 46.96875 40.921875 40.578125 39.3125 
z
" id="DejaVuSans-51"/>
      </defs>
      <g transform="translate(114.476945 314.927247)rotate(-25)scale(0.1 -0.1)">
       <use xlink:href="#DejaVuSans-50"/>
       <use x="63.623047" xlink:href="#DejaVuSans-48"/>
       <use x="127.246094" xlink:href="#DejaVuSans-49"/>
       <use x="190.869141" xlink:href="#DejaVuSans-53"/>
       <use x="254.492188" xlink:href="#DejaVuSans-45"/>
       <use x="290.576172" xlink:href="#DejaVuSans-48"/>
       <use x="354.199219" xlink:href="#DejaVuSans-55"/>
       <use x="417.822266" xlink:href="#DejaVuSans-45"/>
       <use x="453.90625" xlink:href="#DejaVuSans-48"/>
       <use x="517.529297" xlink:href="#DejaVuSans-51"/>
      </g>
     </g>
    </g>
    <g id="xtick_7">
     <g id="line2d_13">
      <path clip-path="url(#p57e22e2509)" d="M 186.865258 276.48 
L 186.865258 41.472 
" style="fill:none;stroke:#b0b0b0;stroke-linecap:square;stroke-width:0.8;"/>
     </g>
     <g id="line2d_14">
      <g>
       <use style="stroke:#000000;stroke-width:0.8;" x="186.865258" xlink:href="#m306d75cb21" y="276.48"/>
      </g>
     </g>
     <g id="text_7">
      <!-- 2015-08-03 -->
      <g transform="translate(133.3157 314.927247)rotate(-25)scale(0.1 -0.1)">
       <use xlink:href="#DejaVuSans-50"/>
       <use x="63.623047" xlink:href="#DejaVuSans-48"/>
       <use x="127.246094" xlink:href="#DejaVuSans-49"/>
       <use x="190.869141" xlink:href="#DejaVuSans-53"/>
       <use x="254.492188" xlink:href="#DejaVuSans-45"/>
       <use x="290.576172" xlink:href="#DejaVuSans-48"/>
       <use x="354.199219" xlink:href="#DejaVuSans-56"/>
       <use x="417.822266" xlink:href="#DejaVuSans-45"/>
       <use x="453.90625" xlink:href="#DejaVuSans-48"/>
       <use x="517.529297" xlink:href="#DejaVuSans-51"/>
      </g>
     </g>
    </g>
    <g id="xtick_8">
     <g id="line2d_15">
      <path clip-path="url(#p57e22e2509)" d="M 205.704013 276.48 
L 205.704013 41.472 
" style="fill:none;stroke:#b0b0b0;stroke-linecap:square;stroke-width:0.8;"/>
     </g>
     <g id="line2d_16">
      <g>
       <use style="stroke:#000000;stroke-width:0.8;" x="205.704013" xlink:href="#m306d75cb21" y="276.48"/>
      </g>
     </g>
     <g id="text_8">
      <!-- 2015-09-02 -->
      <g transform="translate(152.154455 314.927247)rotate(-25)scale(0.1 -0.1)">
       <use xlink:href="#DejaVuSans-50"/>
       <use x="63.623047" xlink:href="#DejaVuSans-48"/>
       <use x="127.246094" xlink:href="#DejaVuSans-49"/>
       <use x="190.869141" xlink:href="#DejaVuSans-53"/>
       <use x="254.492188" xlink:href="#DejaVuSans-45"/>
       <use x="290.576172" xlink:href="#DejaVuSans-48"/>
       <use x="354.199219" xlink:href="#DejaVuSans-57"/>
       <use x="417.822266" xlink:href="#DejaVuSans-45"/>
       <use x="453.90625" xlink:href="#DejaVuSans-48"/>
       <use x="517.529297" xlink:href="#DejaVuSans-50"/>
      </g>
     </g>
    </g>
    <g id="xtick_9">
     <g id="line2d_17">
      <path clip-path="url(#p57e22e2509)" d="M 224.542768 276.48 
L 224.542768 41.472 
" style="fill:none;stroke:#b0b0b0;stroke-linecap:square;stroke-width:0.8;"/>
     </g>
     <g id="line2d_18">
      <g>
       <use style="stroke:#000000;stroke-width:0.8;" x="224.542768" xlink:href="#m306d75cb21" y="276.48"/>
      </g>
     </g>
     <g id="text_9">
      <!-- 2015-10-02 -->
      <g transform="translate(170.99321 314.927247)rotate(-25)scale(0.1 -0.1)">
       <use xlink:href="#DejaVuSans-50"/>
       <use x="63.623047" xlink:href="#DejaVuSans-48"/>
       <use x="127.246094" xlink:href="#DejaVuSans-49"/>
       <use x="190.869141" xlink:href="#DejaVuSans-53"/>
       <use x="254.492188" xlink:href="#DejaVuSans-45"/>
       <use x="290.576172" xlink:href="#DejaVuSans-49"/>
       <use x="354.199219" xlink:href="#DejaVuSans-48"/>
       <use x="417.822266" xlink:href="#DejaVuSans-45"/>
       <use x="453.90625" xlink:href="#DejaVuSans-48"/>
       <use x="517.529297" xlink:href="#DejaVuSans-50"/>
      </g>
     </g>
    </g>
    <g id="xtick_10">
     <g id="line2d_19">
      <path clip-path="url(#p57e22e2509)" d="M 243.381523 276.48 
L 243.381523 41.472 
" style="fill:none;stroke:#b0b0b0;stroke-linecap:square;stroke-width:0.8;"/>
     </g>
     <g id="line2d_20">
      <g>
       <use style="stroke:#000000;stroke-width:0.8;" x="243.381523" xlink:href="#m306d75cb21" y="276.48"/>
      </g>
     </g>
     <g id="text_10">
      <!-- 2015-11-01 -->
      <g transform="translate(189.831965 314.927247)rotate(-25)scale(0.1 -0.1)">
       <use xlink:href="#DejaVuSans-50"/>
       <use x="63.623047" xlink:href="#DejaVuSans-48"/>
       <use x="127.246094" xlink:href="#DejaVuSans-49"/>
       <use x="190.869141" xlink:href="#DejaVuSans-53"/>
       <use x="254.492188" xlink:href="#DejaVuSans-45"/>
       <use x="290.576172" xlink:href="#DejaVuSans-49"/>
       <use x="354.199219" xlink:href="#DejaVuSans-49"/>
       <use x="417.822266" xlink:href="#DejaVuSans-45"/>
       <use x="453.90625" xlink:href="#DejaVuSans-48"/>
       <use x="517.529297" xlink:href="#DejaVuSans-49"/>
      </g>
     </g>
    </g>
    <g id="xtick_11">
     <g id="line2d_21">
      <path clip-path="url(#p57e22e2509)" d="M 262.220278 276.48 
L 262.220278 41.472 
" style="fill:none;stroke:#b0b0b0;stroke-linecap:square;stroke-width:0.8;"/>
     </g>
     <g id="line2d_22">
      <g>
       <use style="stroke:#000000;stroke-width:0.8;" x="262.220278" xlink:href="#m306d75cb21" y="276.48"/>
      </g>
     </g>
     <g id="text_11">
      <!-- 2015-12-01 -->
      <g transform="translate(208.67072 314.927247)rotate(-25)scale(0.1 -0.1)">
       <use xlink:href="#DejaVuSans-50"/>
       <use x="63.623047" xlink:href="#DejaVuSans-48"/>
       <use x="127.246094" xlink:href="#DejaVuSans-49"/>
       <use x="190.869141" xlink:href="#DejaVuSans-53"/>
       <use x="254.492188" xlink:href="#DejaVuSans-45"/>
       <use x="290.576172" xlink:href="#DejaVuSans-49"/>
       <use x="354.199219" xlink:href="#DejaVuSans-50"/>
       <use x="417.822266" xlink:href="#DejaVuSans-45"/>
       <use x="453.90625" xlink:href="#DejaVuSans-48"/>
       <use x="517.529297" xlink:href="#DejaVuSans-49"/>
      </g>
     </g>
    </g>
    <g id="xtick_12">
     <g id="line2d_23">
      <path clip-path="url(#p57e22e2509)" d="M 281.059033 276.48 
L 281.059033 41.472 
" style="fill:none;stroke:#b0b0b0;stroke-linecap:square;stroke-width:0.8;"/>
     </g>
     <g id="line2d_24">
      <g>
       <use style="stroke:#000000;stroke-width:0.8;" x="281.059033" xlink:href="#m306d75cb21" y="276.48"/>
      </g>
     </g>
     <g id="text_12">
      <!-- 2015-12-31 -->
      <g transform="translate(227.509475 314.927247)rotate(-25)scale(0.1 -0.1)">
       <use xlink:href="#DejaVuSans-50"/>
       <use x="63.623047" xlink:href="#DejaVuSans-48"/>
       <use x="127.246094" xlink:href="#DejaVuSans-49"/>
       <use x="190.869141" xlink:href="#DejaVuSans-53"/>
       <use x="254.492188" xlink:href="#DejaVuSans-45"/>
       <use x="290.576172" xlink:href="#DejaVuSans-49"/>
       <use x="354.199219" xlink:href="#DejaVuSans-50"/>
       <use x="417.822266" xlink:href="#DejaVuSans-45"/>
       <use x="453.90625" xlink:href="#DejaVuSans-51"/>
       <use x="517.529297" xlink:href="#DejaVuSans-49"/>
      </g>
     </g>
    </g>
    <g id="xtick_13">
     <g id="line2d_25">
      <path clip-path="url(#p57e22e2509)" d="M 299.897788 276.48 
L 299.897788 41.472 
" style="fill:none;stroke:#b0b0b0;stroke-linecap:square;stroke-width:0.8;"/>
     </g>
     <g id="line2d_26">
      <g>
       <use style="stroke:#000000;stroke-width:0.8;" x="299.897788" xlink:href="#m306d75cb21" y="276.48"/>
      </g>
     </g>
     <g id="text_13">
      <!-- 2016-01-31 -->
      <defs>
       <path d="M 33.015625 40.375 
Q 26.375 40.375 22.484375 35.828125 
Q 18.609375 31.296875 18.609375 23.390625 
Q 18.609375 15.53125 22.484375 10.953125 
Q 26.375 6.390625 33.015625 6.390625 
Q 39.65625 6.390625 43.53125 10.953125 
Q 47.40625 15.53125 47.40625 23.390625 
Q 47.40625 31.296875 43.53125 35.828125 
Q 39.65625 40.375 33.015625 40.375 
z
M 52.59375 71.296875 
L 52.59375 62.3125 
Q 48.875 64.0625 45.09375 64.984375 
Q 41.3125 65.921875 37.59375 65.921875 
Q 27.828125 65.921875 22.671875 59.328125 
Q 17.53125 52.734375 16.796875 39.40625 
Q 19.671875 43.65625 24.015625 45.921875 
Q 28.375 48.1875 33.59375 48.1875 
Q 44.578125 48.1875 50.953125 41.515625 
Q 57.328125 34.859375 57.328125 23.390625 
Q 57.328125 12.15625 50.6875 5.359375 
Q 44.046875 -1.421875 33.015625 -1.421875 
Q 20.359375 -1.421875 13.671875 8.265625 
Q 6.984375 17.96875 6.984375 36.375 
Q 6.984375 53.65625 15.1875 63.9375 
Q 23.390625 74.21875 37.203125 74.21875 
Q 40.921875 74.21875 44.703125 73.484375 
Q 48.484375 72.75 52.59375 71.296875 
z
" id="DejaVuSans-54"/>
      </defs>
      <g transform="translate(246.348231 314.927247)rotate(-25)scale(0.1 -0.1)">
       <use xlink:href="#DejaVuSans-50"/>
       <use x="63.623047" xlink:href="#DejaVuSans-48"/>
       <use x="127.246094" xlink:href="#DejaVuSans-49"/>
       <use x="190.869141" xlink:href="#DejaVuSans-54"/>
       <use x="254.492188" xlink:href="#DejaVuSans-45"/>
       <use x="290.576172" xlink:href="#DejaVuSans-48"/>
       <use x="354.199219" xlink:href="#DejaVuSans-49"/>
       <use x="417.822266" xlink:href="#DejaVuSans-45"/>
       <use x="453.90625" xlink:href="#DejaVuSans-51"/>
       <use x="517.529297" xlink:href="#DejaVuSans-49"/>
      </g>
     </g>
    </g>
    <g id="xtick_14">
     <g id="line2d_27">
      <path clip-path="url(#p57e22e2509)" d="M 318.736543 276.48 
L 318.736543 41.472 
" style="fill:none;stroke:#b0b0b0;stroke-linecap:square;stroke-width:0.8;"/>
     </g>
     <g id="line2d_28">
      <g>
       <use style="stroke:#000000;stroke-width:0.8;" x="318.736543" xlink:href="#m306d75cb21" y="276.48"/>
      </g>
     </g>
     <g id="text_14">
      <!-- 2016-06-30 -->
      <g transform="translate(265.186986 314.927247)rotate(-25)scale(0.1 -0.1)">
       <use xlink:href="#DejaVuSans-50"/>
       <use x="63.623047" xlink:href="#DejaVuSans-48"/>
       <use x="127.246094" xlink:href="#DejaVuSans-49"/>
       <use x="190.869141" xlink:href="#DejaVuSans-54"/>
       <use x="254.492188" xlink:href="#DejaVuSans-45"/>
       <use x="290.576172" xlink:href="#DejaVuSans-48"/>
       <use x="354.199219" xlink:href="#DejaVuSans-54"/>
       <use x="417.822266" xlink:href="#DejaVuSans-45"/>
       <use x="453.90625" xlink:href="#DejaVuSans-51"/>
       <use x="517.529297" xlink:href="#DejaVuSans-48"/>
      </g>
     </g>
    </g>
    <g id="xtick_15">
     <g id="line2d_29">
      <path clip-path="url(#p57e22e2509)" d="M 337.575298 276.48 
L 337.575298 41.472 
" style="fill:none;stroke:#b0b0b0;stroke-linecap:square;stroke-width:0.8;"/>
     </g>
     <g id="line2d_30">
      <g>
       <use style="stroke:#000000;stroke-width:0.8;" x="337.575298" xlink:href="#m306d75cb21" y="276.48"/>
      </g>
     </g>
     <g id="text_15">
      <!-- 2016-07-30 -->
      <g transform="translate(284.025741 314.927247)rotate(-25)scale(0.1 -0.1)">
       <use xlink:href="#DejaVuSans-50"/>
       <use x="63.623047" xlink:href="#DejaVuSans-48"/>
       <use x="127.246094" xlink:href="#DejaVuSans-49"/>
       <use x="190.869141" xlink:href="#DejaVuSans-54"/>
       <use x="254.492188" xlink:href="#DejaVuSans-45"/>
       <use x="290.576172" xlink:href="#DejaVuSans-48"/>
       <use x="354.199219" xlink:href="#DejaVuSans-55"/>
       <use x="417.822266" xlink:href="#DejaVuSans-45"/>
       <use x="453.90625" xlink:href="#DejaVuSans-51"/>
       <use x="517.529297" xlink:href="#DejaVuSans-48"/>
      </g>
     </g>
    </g>
    <g id="xtick_16">
     <g id="line2d_31">
      <path clip-path="url(#p57e22e2509)" d="M 356.414053 276.48 
L 356.414053 41.472 
" style="fill:none;stroke:#b0b0b0;stroke-linecap:square;stroke-width:0.8;"/>
     </g>
     <g id="line2d_32">
      <g>
       <use style="stroke:#000000;stroke-width:0.8;" x="356.414053" xlink:href="#m306d75cb21" y="276.48"/>
      </g>
     </g>
     <g id="text_16">
      <!-- 2016-08-29 -->
      <g transform="translate(302.864496 314.927247)rotate(-25)scale(0.1 -0.1)">
       <use xlink:href="#DejaVuSans-50"/>
       <use x="63.623047" xlink:href="#DejaVuSans-48"/>
       <use x="127.246094" xlink:href="#DejaVuSans-49"/>
       <use x="190.869141" xlink:href="#DejaVuSans-54"/>
       <use x="254.492188" xlink:href="#DejaVuSans-45"/>
       <use x="290.576172" xlink:href="#DejaVuSans-48"/>
       <use x="354.199219" xlink:href="#DejaVuSans-56"/>
       <use x="417.822266" xlink:href="#DejaVuSans-45"/>
       <use x="453.90625" xlink:href="#DejaVuSans-50"/>
       <use x="517.529297" xlink:href="#DejaVuSans-57"/>
      </g>
     </g>
    </g>
    <g id="xtick_17">
     <g id="line2d_33">
      <path clip-path="url(#p57e22e2509)" d="M 375.252808 276.48 
L 375.252808 41.472 
" style="fill:none;stroke:#b0b0b0;stroke-linecap:square;stroke-width:0.8;"/>
     </g>
     <g id="line2d_34">
      <g>
       <use style="stroke:#000000;stroke-width:0.8;" x="375.252808" xlink:href="#m306d75cb21" y="276.48"/>
      </g>
     </g>
     <g id="text_17">
      <!-- 2016-09-28 -->
      <g transform="translate(321.703251 314.927247)rotate(-25)scale(0.1 -0.1)">
       <use xlink:href="#DejaVuSans-50"/>
       <use x="63.623047" xlink:href="#DejaVuSans-48"/>
       <use x="127.246094" xlink:href="#DejaVuSans-49"/>
       <use x="190.869141" xlink:href="#DejaVuSans-54"/>
       <use x="254.492188" xlink:href="#DejaVuSans-45"/>
       <use x="290.576172" xlink:href="#DejaVuSans-48"/>
       <use x="354.199219" xlink:href="#DejaVuSans-57"/>
       <use x="417.822266" xlink:href="#DejaVuSans-45"/>
       <use x="453.90625" xlink:href="#DejaVuSans-50"/>
       <use x="517.529297" xlink:href="#DejaVuSans-56"/>
      </g>
     </g>
    </g>
    <g id="xtick_18">
     <g id="line2d_35">
      <path clip-path="url(#p57e22e2509)" d="M 394.091563 276.48 
L 394.091563 41.472 
" style="fill:none;stroke:#b0b0b0;stroke-linecap:square;stroke-width:0.8;"/>
     </g>
     <g id="line2d_36">
      <g>
       <use style="stroke:#000000;stroke-width:0.8;" x="394.091563" xlink:href="#m306d75cb21" y="276.48"/>
      </g>
     </g>
     <g id="text_18">
      <!-- 2016-10-28 -->
      <g transform="translate(340.542006 314.927247)rotate(-25)scale(0.1 -0.1)">
       <use xlink:href="#DejaVuSans-50"/>
       <use x="63.623047" xlink:href="#DejaVuSans-48"/>
       <use x="127.246094" xlink:href="#DejaVuSans-49"/>
       <use x="190.869141" xlink:href="#DejaVuSans-54"/>
       <use x="254.492188" xlink:href="#DejaVuSans-45"/>
       <use x="290.576172" xlink:href="#DejaVuSans-49"/>
       <use x="354.199219" xlink:href="#DejaVuSans-48"/>
       <use x="417.822266" xlink:href="#DejaVuSans-45"/>
       <use x="453.90625" xlink:href="#DejaVuSans-50"/>
       <use x="517.529297" xlink:href="#DejaVuSans-56"/>
      </g>
     </g>
    </g>
    <g id="text_19">
     <!-- Daty sprzedaży -->
     <defs>
      <path d="M 19.671875 64.796875 
L 19.671875 8.109375 
L 31.59375 8.109375 
Q 46.6875 8.109375 53.6875 14.9375 
Q 60.6875 21.78125 60.6875 36.53125 
Q 60.6875 51.171875 53.6875 57.984375 
Q 46.6875 64.796875 31.59375 64.796875 
z
M 9.8125 72.90625 
L 30.078125 72.90625 
Q 51.265625 72.90625 61.171875 64.09375 
Q 71.09375 55.28125 71.09375 36.53125 
Q 71.09375 17.671875 61.125 8.828125 
Q 51.171875 0 30.078125 0 
L 9.8125 0 
z
" id="DejaVuSans-68"/>
      <path d="M 34.28125 27.484375 
Q 23.390625 27.484375 19.1875 25 
Q 14.984375 22.515625 14.984375 16.5 
Q 14.984375 11.71875 18.140625 8.90625 
Q 21.296875 6.109375 26.703125 6.109375 
Q 34.1875 6.109375 38.703125 11.40625 
Q 43.21875 16.703125 43.21875 25.484375 
L 43.21875 27.484375 
z
M 52.203125 31.203125 
L 52.203125 0 
L 43.21875 0 
L 43.21875 8.296875 
Q 40.140625 3.328125 35.546875 0.953125 
Q 30.953125 -1.421875 24.3125 -1.421875 
Q 15.921875 -1.421875 10.953125 3.296875 
Q 6 8.015625 6 15.921875 
Q 6 25.140625 12.171875 29.828125 
Q 18.359375 34.515625 30.609375 34.515625 
L 43.21875 34.515625 
L 43.21875 35.40625 
Q 43.21875 41.609375 39.140625 45 
Q 35.0625 48.390625 27.6875 48.390625 
Q 23 48.390625 18.546875 47.265625 
Q 14.109375 46.140625 10.015625 43.890625 
L 10.015625 52.203125 
Q 14.9375 54.109375 19.578125 55.046875 
Q 24.21875 56 28.609375 56 
Q 40.484375 56 46.34375 49.84375 
Q 52.203125 43.703125 52.203125 31.203125 
z
" id="DejaVuSans-97"/>
      <path d="M 18.3125 70.21875 
L 18.3125 54.6875 
L 36.8125 54.6875 
L 36.8125 47.703125 
L 18.3125 47.703125 
L 18.3125 18.015625 
Q 18.3125 11.328125 20.140625 9.421875 
Q 21.96875 7.515625 27.59375 7.515625 
L 36.8125 7.515625 
L 36.8125 0 
L 27.59375 0 
Q 17.1875 0 13.234375 3.875 
Q 9.28125 7.765625 9.28125 18.015625 
L 9.28125 47.703125 
L 2.6875 47.703125 
L 2.6875 54.6875 
L 9.28125 54.6875 
L 9.28125 70.21875 
z
" id="DejaVuSans-116"/>
      <path d="M 32.171875 -5.078125 
Q 28.375 -14.84375 24.75 -17.8125 
Q 21.140625 -20.796875 15.09375 -20.796875 
L 7.90625 -20.796875 
L 7.90625 -13.28125 
L 13.1875 -13.28125 
Q 16.890625 -13.28125 18.9375 -11.515625 
Q 21 -9.765625 23.484375 -3.21875 
L 25.09375 0.875 
L 2.984375 54.6875 
L 12.5 54.6875 
L 29.59375 11.921875 
L 46.6875 54.6875 
L 56.203125 54.6875 
z
" id="DejaVuSans-121"/>
      <path id="DejaVuSans-32"/>
      <path d="M 44.28125 53.078125 
L 44.28125 44.578125 
Q 40.484375 46.53125 36.375 47.5 
Q 32.28125 48.484375 27.875 48.484375 
Q 21.1875 48.484375 17.84375 46.4375 
Q 14.5 44.390625 14.5 40.28125 
Q 14.5 37.15625 16.890625 35.375 
Q 19.28125 33.59375 26.515625 31.984375 
L 29.59375 31.296875 
Q 39.15625 29.25 43.1875 25.515625 
Q 47.21875 21.78125 47.21875 15.09375 
Q 47.21875 7.46875 41.1875 3.015625 
Q 35.15625 -1.421875 24.609375 -1.421875 
Q 20.21875 -1.421875 15.453125 -0.5625 
Q 10.6875 0.296875 5.421875 2 
L 5.421875 11.28125 
Q 10.40625 8.6875 15.234375 7.390625 
Q 20.0625 6.109375 24.8125 6.109375 
Q 31.15625 6.109375 34.5625 8.28125 
Q 37.984375 10.453125 37.984375 14.40625 
Q 37.984375 18.0625 35.515625 20.015625 
Q 33.0625 21.96875 24.703125 23.78125 
L 21.578125 24.515625 
Q 13.234375 26.265625 9.515625 29.90625 
Q 5.8125 33.546875 5.8125 39.890625 
Q 5.8125 47.609375 11.28125 51.796875 
Q 16.75 56 26.8125 56 
Q 31.78125 56 36.171875 55.265625 
Q 40.578125 54.546875 44.28125 53.078125 
z
" id="DejaVuSans-115"/>
      <path d="M 18.109375 8.203125 
L 18.109375 -20.796875 
L 9.078125 -20.796875 
L 9.078125 54.6875 
L 18.109375 54.6875 
L 18.109375 46.390625 
Q 20.953125 51.265625 25.265625 53.625 
Q 29.59375 56 35.59375 56 
Q 45.5625 56 51.78125 48.09375 
Q 58.015625 40.1875 58.015625 27.296875 
Q 58.015625 14.40625 51.78125 6.484375 
Q 45.5625 -1.421875 35.59375 -1.421875 
Q 29.59375 -1.421875 25.265625 0.953125 
Q 20.953125 3.328125 18.109375 8.203125 
z
M 48.6875 27.296875 
Q 48.6875 37.203125 44.609375 42.84375 
Q 40.53125 48.484375 33.40625 48.484375 
Q 26.265625 48.484375 22.1875 42.84375 
Q 18.109375 37.203125 18.109375 27.296875 
Q 18.109375 17.390625 22.1875 11.75 
Q 26.265625 6.109375 33.40625 6.109375 
Q 40.53125 6.109375 44.609375 11.75 
Q 48.6875 17.390625 48.6875 27.296875 
z
" id="DejaVuSans-112"/>
      <path d="M 41.109375 46.296875 
Q 39.59375 47.171875 37.8125 47.578125 
Q 36.03125 48 33.890625 48 
Q 26.265625 48 22.1875 43.046875 
Q 18.109375 38.09375 18.109375 28.8125 
L 18.109375 0 
L 9.078125 0 
L 9.078125 54.6875 
L 18.109375 54.6875 
L 18.109375 46.1875 
Q 20.953125 51.171875 25.484375 53.578125 
Q 30.03125 56 36.53125 56 
Q 37.453125 56 38.578125 55.875 
Q 39.703125 55.765625 41.0625 55.515625 
z
" id="DejaVuSans-114"/>
      <path d="M 5.515625 54.6875 
L 48.1875 54.6875 
L 48.1875 46.484375 
L 14.40625 7.171875 
L 48.1875 7.171875 
L 48.1875 0 
L 4.296875 0 
L 4.296875 8.203125 
L 38.09375 47.515625 
L 5.515625 47.515625 
z
" id="DejaVuSans-122"/>
      <path d="M 56.203125 29.59375 
L 56.203125 25.203125 
L 14.890625 25.203125 
Q 15.484375 15.921875 20.484375 11.0625 
Q 25.484375 6.203125 34.421875 6.203125 
Q 39.59375 6.203125 44.453125 7.46875 
Q 49.3125 8.734375 54.109375 11.28125 
L 54.109375 2.78125 
Q 49.265625 0.734375 44.1875 -0.34375 
Q 39.109375 -1.421875 33.890625 -1.421875 
Q 20.796875 -1.421875 13.15625 6.1875 
Q 5.515625 13.8125 5.515625 26.8125 
Q 5.515625 40.234375 12.765625 48.109375 
Q 20.015625 56 32.328125 56 
Q 43.359375 56 49.78125 48.890625 
Q 56.203125 41.796875 56.203125 29.59375 
z
M 47.21875 32.234375 
Q 47.125 39.59375 43.09375 43.984375 
Q 39.0625 48.390625 32.421875 48.390625 
Q 24.90625 48.390625 20.390625 44.140625 
Q 15.875 39.890625 15.1875 32.171875 
z
" id="DejaVuSans-101"/>
      <path d="M 45.40625 46.390625 
L 45.40625 75.984375 
L 54.390625 75.984375 
L 54.390625 0 
L 45.40625 0 
L 45.40625 8.203125 
Q 42.578125 3.328125 38.25 0.953125 
Q 33.9375 -1.421875 27.875 -1.421875 
Q 17.96875 -1.421875 11.734375 6.484375 
Q 5.515625 14.40625 5.515625 27.296875 
Q 5.515625 40.1875 11.734375 48.09375 
Q 17.96875 56 27.875 56 
Q 33.9375 56 38.25 53.625 
Q 42.578125 51.265625 45.40625 46.390625 
z
M 14.796875 27.296875 
Q 14.796875 17.390625 18.875 11.75 
Q 22.953125 6.109375 30.078125 6.109375 
Q 37.203125 6.109375 41.296875 11.75 
Q 45.40625 17.390625 45.40625 27.296875 
Q 45.40625 37.203125 41.296875 42.84375 
Q 37.203125 48.484375 30.078125 48.484375 
Q 22.953125 48.484375 18.875 42.84375 
Q 14.796875 37.203125 14.796875 27.296875 
z
" id="DejaVuSans-100"/>
      <path d="M 21.53125 75.984375 
L 30.515625 75.984375 
L 30.515625 64.59375 
L 21.53125 64.59375 
z
M 26.125 56 
z
M 5.515625 54.6875 
L 48.1875 54.6875 
L 48.1875 46.484375 
L 14.40625 7.171875 
L 48.1875 7.171875 
L 48.1875 0 
L 4.296875 0 
L 4.296875 8.203125 
L 38.09375 47.515625 
L 5.515625 47.515625 
z
" id="DejaVuSans-380"/>
     </defs>
     <g transform="translate(197.380313 328.410522)scale(0.1 -0.1)">
      <use xlink:href="#DejaVuSans-68"/>
      <use x="77.001953" xlink:href="#DejaVuSans-97"/>
      <use x="138.28125" xlink:href="#DejaVuSans-116"/>
      <use x="177.490234" xlink:href="#DejaVuSans-121"/>
      <use x="236.669922" xlink:href="#DejaVuSans-32"/>
      <use x="268.457031" xlink:href="#DejaVuSans-115"/>
      <use x="320.556641" xlink:href="#DejaVuSans-112"/>
      <use x="384.033203" xlink:href="#DejaVuSans-114"/>
      <use x="425.146484" xlink:href="#DejaVuSans-122"/>
      <use x="477.636719" xlink:href="#DejaVuSans-101"/>
      <use x="539.160156" xlink:href="#DejaVuSans-100"/>
      <use x="602.636719" xlink:href="#DejaVuSans-97"/>
      <use x="663.916016" xlink:href="#DejaVuSans-380"/>
      <use x="716.40625" xlink:href="#DejaVuSans-121"/>
     </g>
    </g>
   </g>
   <g id="matplotlib.axis_2">
    <g id="ytick_1">
     <g id="line2d_37">
      <path clip-path="url(#p57e22e2509)" d="M 57.6 265.873137 
L 414.72 265.873137 
" style="fill:none;stroke:#b0b0b0;stroke-linecap:square;stroke-width:0.8;"/>
     </g>
     <g id="line2d_38">
      <defs>
       <path d="M 0 0 
L -3.5 0 
" id="mde2f85f0e0" style="stroke:#000000;stroke-width:0.8;"/>
      </defs>
      <g>
       <use style="stroke:#000000;stroke-width:0.8;" x="57.6" xlink:href="#mde2f85f0e0" y="265.873137"/>
      </g>
     </g>
     <g id="text_20">
      <!-- 0 -->
      <g transform="translate(44.2375 269.672356)scale(0.1 -0.1)">
       <use xlink:href="#DejaVuSans-48"/>
      </g>
     </g>
    </g>
    <g id="ytick_2">
     <g id="line2d_39">
      <path clip-path="url(#p57e22e2509)" d="M 57.6 228.213623 
L 414.72 228.213623 
" style="fill:none;stroke:#b0b0b0;stroke-linecap:square;stroke-width:0.8;"/>
     </g>
     <g id="line2d_40">
      <g>
       <use style="stroke:#000000;stroke-width:0.8;" x="57.6" xlink:href="#mde2f85f0e0" y="228.213623"/>
      </g>
     </g>
     <g id="text_21">
      <!-- 500 -->
      <g transform="translate(31.5125 232.012842)scale(0.1 -0.1)">
       <use xlink:href="#DejaVuSans-53"/>
       <use x="63.623047" xlink:href="#DejaVuSans-48"/>
       <use x="127.246094" xlink:href="#DejaVuSans-48"/>
      </g>
     </g>
    </g>
    <g id="ytick_3">
     <g id="line2d_41">
      <path clip-path="url(#p57e22e2509)" d="M 57.6 190.554109 
L 414.72 190.554109 
" style="fill:none;stroke:#b0b0b0;stroke-linecap:square;stroke-width:0.8;"/>
     </g>
     <g id="line2d_42">
      <g>
       <use style="stroke:#000000;stroke-width:0.8;" x="57.6" xlink:href="#mde2f85f0e0" y="190.554109"/>
      </g>
     </g>
     <g id="text_22">
      <!-- 1000 -->
      <g transform="translate(25.15 194.353328)scale(0.1 -0.1)">
       <use xlink:href="#DejaVuSans-49"/>
       <use x="63.623047" xlink:href="#DejaVuSans-48"/>
       <use x="127.246094" xlink:href="#DejaVuSans-48"/>
       <use x="190.869141" xlink:href="#DejaVuSans-48"/>
      </g>
     </g>
    </g>
    <g id="ytick_4">
     <g id="line2d_43">
      <path clip-path="url(#p57e22e2509)" d="M 57.6 152.894595 
L 414.72 152.894595 
" style="fill:none;stroke:#b0b0b0;stroke-linecap:square;stroke-width:0.8;"/>
     </g>
     <g id="line2d_44">
      <g>
       <use style="stroke:#000000;stroke-width:0.8;" x="57.6" xlink:href="#mde2f85f0e0" y="152.894595"/>
      </g>
     </g>
     <g id="text_23">
      <!-- 1500 -->
      <g transform="translate(25.15 156.693814)scale(0.1 -0.1)">
       <use xlink:href="#DejaVuSans-49"/>
       <use x="63.623047" xlink:href="#DejaVuSans-53"/>
       <use x="127.246094" xlink:href="#DejaVuSans-48"/>
       <use x="190.869141" xlink:href="#DejaVuSans-48"/>
      </g>
     </g>
    </g>
    <g id="ytick_5">
     <g id="line2d_45">
      <path clip-path="url(#p57e22e2509)" d="M 57.6 115.235081 
L 414.72 115.235081 
" style="fill:none;stroke:#b0b0b0;stroke-linecap:square;stroke-width:0.8;"/>
     </g>
     <g id="line2d_46">
      <g>
       <use style="stroke:#000000;stroke-width:0.8;" x="57.6" xlink:href="#mde2f85f0e0" y="115.235081"/>
      </g>
     </g>
     <g id="text_24">
      <!-- 2000 -->
      <g transform="translate(25.15 119.034299)scale(0.1 -0.1)">
       <use xlink:href="#DejaVuSans-50"/>
       <use x="63.623047" xlink:href="#DejaVuSans-48"/>
       <use x="127.246094" xlink:href="#DejaVuSans-48"/>
       <use x="190.869141" xlink:href="#DejaVuSans-48"/>
      </g>
     </g>
    </g>
    <g id="ytick_6">
     <g id="line2d_47">
      <path clip-path="url(#p57e22e2509)" d="M 57.6 77.575567 
L 414.72 77.575567 
" style="fill:none;stroke:#b0b0b0;stroke-linecap:square;stroke-width:0.8;"/>
     </g>
     <g id="line2d_48">
      <g>
       <use style="stroke:#000000;stroke-width:0.8;" x="57.6" xlink:href="#mde2f85f0e0" y="77.575567"/>
      </g>
     </g>
     <g id="text_25">
      <!-- 2500 -->
      <g transform="translate(25.15 81.374785)scale(0.1 -0.1)">
       <use xlink:href="#DejaVuSans-50"/>
       <use x="63.623047" xlink:href="#DejaVuSans-53"/>
       <use x="127.246094" xlink:href="#DejaVuSans-48"/>
       <use x="190.869141" xlink:href="#DejaVuSans-48"/>
      </g>
     </g>
    </g>
    <g id="text_26">
     <!-- Wartości sprzedaży -->
     <defs>
      <path d="M 3.328125 72.90625 
L 13.28125 72.90625 
L 28.609375 11.28125 
L 43.890625 72.90625 
L 54.984375 72.90625 
L 70.3125 11.28125 
L 85.59375 72.90625 
L 95.609375 72.90625 
L 77.296875 0 
L 64.890625 0 
L 49.515625 63.28125 
L 33.984375 0 
L 21.578125 0 
z
" id="DejaVuSans-87"/>
      <path d="M 30.609375 48.390625 
Q 23.390625 48.390625 19.1875 42.75 
Q 14.984375 37.109375 14.984375 27.296875 
Q 14.984375 17.484375 19.15625 11.84375 
Q 23.34375 6.203125 30.609375 6.203125 
Q 37.796875 6.203125 41.984375 11.859375 
Q 46.1875 17.53125 46.1875 27.296875 
Q 46.1875 37.015625 41.984375 42.703125 
Q 37.796875 48.390625 30.609375 48.390625 
z
M 30.609375 56 
Q 42.328125 56 49.015625 48.375 
Q 55.71875 40.765625 55.71875 27.296875 
Q 55.71875 13.875 49.015625 6.21875 
Q 42.328125 -1.421875 30.609375 -1.421875 
Q 18.84375 -1.421875 12.171875 6.21875 
Q 5.515625 13.875 5.515625 27.296875 
Q 5.515625 40.765625 12.171875 48.375 
Q 18.84375 56 30.609375 56 
z
" id="DejaVuSans-111"/>
      <path d="M 35.015625 80.328125 
L 44.734375 80.328125 
L 28.8125 61.96875 
L 21.34375 61.96875 
z
M 44.28125 53.078125 
L 44.28125 44.578125 
Q 40.484375 46.53125 36.375 47.5 
Q 32.28125 48.484375 27.875 48.484375 
Q 21.1875 48.484375 17.84375 46.4375 
Q 14.5 44.390625 14.5 40.28125 
Q 14.5 37.15625 16.890625 35.375 
Q 19.28125 33.59375 26.515625 31.984375 
L 29.59375 31.296875 
Q 39.15625 29.25 43.1875 25.515625 
Q 47.21875 21.78125 47.21875 15.09375 
Q 47.21875 7.46875 41.1875 3.015625 
Q 35.15625 -1.421875 24.609375 -1.421875 
Q 20.21875 -1.421875 15.453125 -0.5625 
Q 10.6875 0.296875 5.421875 2 
L 5.421875 11.28125 
Q 10.40625 8.6875 15.234375 7.390625 
Q 20.0625 6.109375 24.8125 6.109375 
Q 31.15625 6.109375 34.5625 8.28125 
Q 37.984375 10.453125 37.984375 14.40625 
Q 37.984375 18.0625 35.515625 20.015625 
Q 33.0625 21.96875 24.703125 23.78125 
L 21.578125 24.515625 
Q 13.234375 26.265625 9.515625 29.90625 
Q 5.8125 33.546875 5.8125 39.890625 
Q 5.8125 47.609375 11.28125 51.796875 
Q 16.75 56 26.8125 56 
Q 31.78125 56 36.171875 55.265625 
Q 40.578125 54.546875 44.28125 53.078125 
z
" id="DejaVuSans-347"/>
      <path d="M 48.78125 52.59375 
L 48.78125 44.1875 
Q 44.96875 46.296875 41.140625 47.34375 
Q 37.3125 48.390625 33.40625 48.390625 
Q 24.65625 48.390625 19.8125 42.84375 
Q 14.984375 37.3125 14.984375 27.296875 
Q 14.984375 17.28125 19.8125 11.734375 
Q 24.65625 6.203125 33.40625 6.203125 
Q 37.3125 6.203125 41.140625 7.25 
Q 44.96875 8.296875 48.78125 10.40625 
L 48.78125 2.09375 
Q 45.015625 0.34375 40.984375 -0.53125 
Q 36.96875 -1.421875 32.421875 -1.421875 
Q 20.0625 -1.421875 12.78125 6.34375 
Q 5.515625 14.109375 5.515625 27.296875 
Q 5.515625 40.671875 12.859375 48.328125 
Q 20.21875 56 33.015625 56 
Q 37.15625 56 41.109375 55.140625 
Q 45.0625 54.296875 48.78125 52.59375 
z
" id="DejaVuSans-99"/>
      <path d="M 9.421875 54.6875 
L 18.40625 54.6875 
L 18.40625 0 
L 9.421875 0 
z
M 9.421875 75.984375 
L 18.40625 75.984375 
L 18.40625 64.59375 
L 9.421875 64.59375 
z
" id="DejaVuSans-105"/>
     </defs>
     <g transform="translate(19.070312 207.743187)rotate(-90)scale(0.1 -0.1)">
      <use xlink:href="#DejaVuSans-87"/>
      <use x="98.783203" xlink:href="#DejaVuSans-97"/>
      <use x="160.0625" xlink:href="#DejaVuSans-114"/>
      <use x="201.175781" xlink:href="#DejaVuSans-116"/>
      <use x="240.384766" xlink:href="#DejaVuSans-111"/>
      <use x="301.566406" xlink:href="#DejaVuSans-347"/>
      <use x="353.666016" xlink:href="#DejaVuSans-99"/>
      <use x="408.646484" xlink:href="#DejaVuSans-105"/>
      <use x="436.429688" xlink:href="#DejaVuSans-32"/>
      <use x="468.216797" xlink:href="#DejaVuSans-115"/>
      <use x="520.316406" xlink:href="#DejaVuSans-112"/>
      <use x="583.792969" xlink:href="#DejaVuSans-114"/>
      <use x="624.90625" xlink:href="#DejaVuSans-122"/>
      <use x="677.396484" xlink:href="#DejaVuSans-101"/>
      <use x="738.919922" xlink:href="#DejaVuSans-100"/>
      <use x="802.396484" xlink:href="#DejaVuSans-97"/>
      <use x="863.675781" xlink:href="#DejaVuSans-380"/>
      <use x="916.166016" xlink:href="#DejaVuSans-121"/>
     </g>
    </g>
   </g>
   <g id="line2d_49">
    <path clip-path="url(#p57e22e2509)" d="M 73.832727 257.88932 
L 74.460686 255.931025 
L 75.088644 262.5591 
L 75.716603 261.353996 
L 76.344561 261.655272 
L 76.97252 265.345904 
L 77.600478 260.148891 
L 78.228437 258.115277 
L 78.856395 264.065481 
L 79.484354 260.525486 
L 80.112312 261.80591 
L 80.740271 265.270585 
L 81.368229 259.621658 
L 81.996188 260.902081 
L 82.624146 256.533578 
L 83.252105 262.483781 
L 84.508022 265.496542 
L 85.13598 264.366757 
L 85.763939 256.759535 
L 87.019856 262.483781 
L 87.647814 258.793149 
L 88.275773 264.065481 
L 88.903731 263.538247 
L 89.53169 265.722499 
L 90.159648 257.588044 
L 90.787607 262.257824 
L 91.415565 251.637841 
L 92.043524 255.55443 
L 92.671482 252.842945 
L 93.299441 249.604227 
L 93.927399 264.366757 
L 94.555358 248.851037 
L 95.183316 255.177835 
L 95.811275 254.575283 
L 97.067192 259.621658 
L 97.69515 265.270585 
L 98.323109 259.019106 
L 98.951067 258.416553 
L 99.579026 252.918264 
L 100.206984 261.579953 
L 100.834943 253.445498 
L 101.462901 256.910173 
L 102.09086 250.357417 
L 102.718818 259.395701 
L 103.346777 254.349326 
L 103.974735 259.696977 
L 104.602694 255.780387 
L 105.230652 264.366757 
L 105.858611 264.89399 
L 106.486569 262.785057 
L 107.114528 255.705068 
L 107.742486 257.211449 
L 108.370445 259.847615 
L 108.998403 248.926356 
L 109.626362 264.291438 
L 110.25432 257.663363 
L 110.882279 257.814001 
L 111.510237 263.462928 
L 112.138196 259.922934 
L 112.766154 258.793149 
L 114.022071 265.195266 
L 114.65003 265.496542 
L 115.277988 260.450167 
L 115.905947 257.060811 
L 116.533905 255.780387 
L 117.161864 249.152313 
L 117.789822 262.031867 
L 118.417781 255.253154 
L 119.045739 265.270585 
L 119.673698 256.006345 
L 120.301656 254.650602 
L 120.929615 262.408462 
L 121.557573 258.943787 
L 122.185532 257.13613 
L 122.81349 262.5591 
L 123.441449 260.751443 
L 124.069407 252.46635 
L 124.697366 257.286768 
L 125.325324 263.538247 
L 125.953283 247.871889 
L 126.581241 264.743352 
L 127.2092 261.203357 
L 127.837158 254.499964 
L 128.465117 255.027197 
L 129.093075 252.014436 
L 129.721034 257.060811 
L 130.348992 258.265915 
L 130.976951 264.743352 
L 131.604909 263.914842 
L 132.232868 256.307621 
L 132.860826 258.115277 
L 133.488785 261.504634 
L 134.116743 256.834854 
L 134.744702 257.964639 
L 135.37266 264.291438 
L 136.000619 262.182505 
L 136.628577 255.328473 
L 137.256536 255.479111 
L 137.884494 253.520817 
L 138.512453 256.081664 
L 139.76837 264.743352 
L 140.396328 264.969309 
L 141.024287 236.875311 
L 141.652245 250.13146 
L 142.280204 236.875311 
L 142.908162 259.922934 
L 143.536121 254.424645 
L 144.164079 260.374848 
L 144.792038 261.80591 
L 145.419996 259.998253 
L 146.047955 247.721251 
L 146.675913 264.517395 
L 147.93183 260.751443 
L 148.559789 259.696977 
L 149.187747 265.571861 
L 149.815706 252.692307 
L 151.071623 264.442076 
L 151.699582 263.839523 
L 152.32754 257.88932 
L 152.955499 262.785057 
L 153.583457 261.579953 
L 154.211416 263.086333 
L 154.839374 263.613566 
L 155.467333 247.269337 
L 156.095291 254.575283 
L 156.72325 265.496542 
L 157.351208 265.195266 
L 157.979167 264.517395 
L 158.607125 265.496542 
L 159.235084 264.366757 
L 160.491001 264.366757 
L 161.118959 265.571861 
L 161.746918 265.722499 
L 162.374876 265.722499 
L 163.630793 265.270585 
L 164.258752 265.722499 
L 164.88671 265.044628 
L 165.514669 265.797818 
L 166.142627 264.366757 
L 166.770586 242.750196 
L 167.398544 257.512725 
L 168.026503 260.374848 
L 168.654461 263.914842 
L 169.28242 265.722499 
L 169.910378 244.859128 
L 170.538337 232.054894 
L 171.166295 262.5591 
L 171.794254 253.21954 
L 172.422212 250.658693 
L 173.050171 263.613566 
L 173.678129 262.709738 
L 174.306088 247.947208 
L 174.934046 253.972731 
L 175.562005 252.918264 
L 176.189963 255.403792 
L 176.817922 244.331895 
L 177.44588 262.408462 
L 178.073839 260.826762 
L 178.701797 252.391031 
L 179.329756 229.268089 
L 179.957714 244.859128 
L 180.585673 246.892742 
L 181.213631 258.71783 
L 181.84159 263.839523 
L 182.469548 242.147643 
L 183.097507 254.04805 
L 183.725465 244.256576 
L 184.353424 258.416553 
L 184.981382 256.533578 
L 185.609341 265.345904 
L 186.237299 256.458259 
L 186.865258 230.925108 
L 187.493216 259.546339 
L 188.121175 250.583374 
L 188.749133 243.9553 
L 190.00505 262.483781 
L 190.633009 258.265915 
L 191.260967 243.126791 
L 191.888926 243.20211 
L 192.516884 257.437406 
L 193.144843 248.173166 
L 193.772801 252.767626 
L 195.028718 263.387609 
L 195.656677 251.261246 
L 196.284635 251.336565 
L 196.912594 247.947208 
L 197.540552 251.637841 
L 198.168511 260.374848 
L 198.796469 253.972731 
L 199.424428 263.236971 
L 200.052386 254.80124 
L 200.680345 260.826762 
L 201.308303 258.491872 
L 201.936262 252.391031 
L 202.56422 249.227632 
L 203.192179 264.668033 
L 203.820137 259.395701 
L 204.448096 265.722499 
L 205.076054 257.814001 
L 205.704013 248.022528 
L 206.331971 256.081664 
L 206.95993 249.001675 
L 207.587888 264.668033 
L 208.215847 265.421223 
L 208.843805 250.056141 
L 210.099722 254.349326 
L 210.727681 251.110608 
L 211.355639 251.411884 
L 211.983598 264.592714 
L 212.611556 264.818671 
L 213.239515 232.280851 
L 213.867473 223.317886 
L 214.495432 244.181257 
L 215.12339 243.126791 
L 215.751349 240.716582 
L 216.379307 263.538247 
L 217.007266 262.483781 
L 217.635224 251.562522 
L 218.263183 245.612319 
L 218.891141 253.294859 
L 219.5191 239.059563 
L 220.775017 263.161652 
L 221.402975 265.496542 
L 222.658892 233.711912 
L 223.286851 251.110608 
L 223.914809 254.725921 
L 224.542768 255.780387 
L 225.170726 258.265915 
L 225.798685 260.148891 
L 227.054602 240.264668 
L 227.68256 248.549761 
L 228.938477 255.705068 
L 229.566436 264.065481 
L 230.194394 262.634419 
L 230.822353 243.578705 
L 231.450311 242.825515 
L 232.07827 242.900834 
L 232.706228 253.520817 
L 233.334187 250.884651 
L 233.962145 261.504634 
L 234.590104 261.881229 
L 235.218062 251.487203 
L 235.846021 249.076994 
L 236.473979 252.767626 
L 237.101938 252.918264 
L 237.729896 253.822093 
L 238.357855 263.387609 
L 238.985813 264.1408 
L 239.613772 254.349326 
L 240.24173 249.37827 
L 240.869689 255.55443 
L 241.497647 250.13146 
L 242.125606 250.056141 
L 242.753564 256.608897 
L 243.381523 264.89399 
L 244.009481 241.771048 
L 244.63744 252.541669 
L 245.265398 250.508055 
L 245.893357 245.612319 
L 246.521315 243.503386 
L 247.149274 262.709738 
L 247.777232 255.629749 
L 248.405191 251.637841 
L 249.033149 236.498716 
L 249.661108 257.211449 
L 250.289066 244.482533 
L 250.917025 248.097847 
L 251.544983 261.128038 
L 252.172942 254.349326 
L 252.8009 254.575283 
L 254.056817 238.457011 
L 254.684776 258.341234 
L 255.312734 252.993583 
L 255.940693 260.148891 
L 256.568651 258.190596 
L 257.19661 253.746774 
L 257.824568 246.817423 
L 258.452527 251.411884 
L 259.080485 262.5591 
L 259.708444 246.666785 
L 260.336402 255.479111 
L 260.964361 257.738682 
L 261.592319 250.206779 
L 262.220278 253.068902 
L 262.848236 249.076994 
L 263.476195 246.892742 
L 264.732112 258.567191 
L 265.36007 264.743352 
L 265.988029 236.348078 
L 266.615987 234.766379 
L 267.243946 247.269337 
L 267.871904 253.822093 
L 268.499863 251.939117 
L 269.127821 262.860376 
L 269.75578 263.839523 
L 270.383738 242.750196 
L 271.011697 261.203357 
L 271.639655 243.20211 
L 272.267614 251.261246 
L 272.895572 252.692307 
L 273.523531 261.881229 
L 274.151489 265.496542 
L 274.779448 244.557852 
L 275.407406 252.842945 
L 276.035365 265.421223 
L 276.663323 256.156983 
L 277.291282 256.608897 
L 277.91924 263.462928 
L 278.547199 260.22421 
L 279.175157 258.039958 
L 279.803116 247.645932 
L 280.431074 239.737434 
L 281.059033 260.525486 
L 281.686991 233.937869 
L 282.31495 261.730591 
L 282.942908 261.579953 
L 283.570867 231.828936 
L 284.198825 246.214871 
L 284.826784 242.674876 
L 285.454742 240.565944 
L 286.082701 236.122121 
L 286.710659 257.663363 
L 287.338618 265.797818 
L 287.966576 228.514899 
L 288.594535 230.623832 
L 289.222493 249.302951 
L 289.850452 241.62041 
L 290.47841 248.62508 
L 291.106369 258.115277 
L 291.734327 244.256576 
L 292.362286 240.490625 
L 293.618203 214.128965 
L 294.246161 247.419975 
L 294.87412 252.315712 
L 295.502078 265.195266 
L 296.130037 236.19744 
L 296.757995 229.569366 
L 297.385954 242.072324 
L 298.013912 234.841698 
L 298.641871 251.863798 
L 299.269829 259.169744 
L 299.897788 253.746774 
L 300.525746 237.553183 
L 301.153705 216.162579 
L 301.781663 226.631923 
L 303.03758 237.402545 
L 303.665539 256.006345 
L 304.293497 262.5591 
L 304.921456 230.473194 
L 305.549414 212.17067 
L 306.177373 241.093177 
L 306.805331 246.29019 
L 307.43329 245.612319 
L 308.061248 245.160404 
L 308.689207 264.065481 
L 309.317165 237.77914 
L 309.945124 243.051472 
L 310.573082 223.01661 
L 311.201041 240.11403 
L 311.828999 233.034041 
L 312.456958 254.951878 
L 313.084916 260.902081 
L 313.712875 225.502138 
L 314.968792 251.637841 
L 315.59675 248.926356 
L 316.224709 249.905503 
L 316.852667 257.211449 
L 317.480626 252.918264 
L 318.108584 258.115277 
L 318.736543 265.64718 
L 319.364501 261.203357 
L 319.99246 265.044628 
L 320.620418 265.345904 
L 321.248377 260.9774 
L 321.876336 249.001675 
L 323.132253 264.818671 
L 323.760211 262.785057 
L 324.38817 262.408462 
L 325.016128 261.881229 
L 325.644087 256.910173 
L 326.272045 262.333143 
L 326.900004 260.073572 
L 327.527962 264.818671 
L 328.155921 263.086333 
L 328.783879 264.442076 
L 329.411838 265.496542 
L 330.039796 254.274007 
L 330.667755 257.286768 
L 331.295713 250.658693 
L 331.923672 247.871889 
L 332.55163 257.814001 
L 333.807547 264.291438 
L 334.435506 258.64251 
L 335.063464 260.902081 
L 335.691423 260.826762 
L 336.319381 259.395701 
L 336.94734 263.990162 
L 337.575298 265.044628 
L 338.203257 263.236971 
L 338.831215 253.144221 
L 339.459174 252.616988 
L 340.087132 261.429315 
L 340.715091 258.265915 
L 341.343049 258.868468 
L 341.971008 264.366757 
L 342.598966 265.044628 
L 343.226925 257.437406 
L 343.854883 263.236971 
L 344.482842 262.408462 
L 345.1108 252.014436 
L 345.738759 260.299529 
L 346.366717 262.483781 
L 346.994676 265.270585 
L 347.622634 259.094425 
L 348.250593 261.730591 
L 348.878551 259.320382 
L 349.50651 241.997005 
L 350.134468 262.483781 
L 350.762427 264.743352 
L 351.390385 265.797818 
L 352.018344 258.71783 
L 352.646302 264.065481 
L 353.274261 258.416553 
L 353.902219 262.031867 
L 354.530178 261.80591 
L 355.158136 264.743352 
L 355.786095 264.216119 
L 356.414053 262.860376 
L 357.042012 258.64251 
L 357.66997 261.80591 
L 358.297929 261.655272 
L 358.925887 262.483781 
L 359.553846 265.044628 
L 360.181804 265.195266 
L 360.809763 258.567191 
L 361.437721 264.366757 
L 362.06568 259.320382 
L 362.693638 261.956548 
L 363.321597 262.333143 
L 363.949555 264.366757 
L 364.577514 265.345904 
L 365.205472 255.403792 
L 365.833431 252.767626 
L 366.461389 243.277429 
L 367.717306 259.395701 
L 368.345265 262.634419 
L 368.973223 263.613566 
L 369.601182 256.156983 
L 370.22914 255.55443 
L 370.857099 256.006345 
L 371.485057 260.826762 
L 372.113016 262.182505 
L 372.740974 264.517395 
L 373.368933 263.462928 
L 373.996891 262.935695 
L 374.62485 252.391031 
L 375.252808 259.169744 
L 375.880767 246.29019 
L 376.508725 258.868468 
L 377.136684 258.115277 
L 377.764642 265.421223 
L 378.392601 261.504634 
L 379.020559 251.487203 
L 380.276476 259.922934 
L 380.904435 263.31229 
L 381.532393 263.990162 
L 382.160352 261.203357 
L 382.78831 247.79657 
L 383.416269 247.269337 
L 384.044227 258.265915 
L 384.672186 252.767626 
L 385.300144 251.637841 
L 385.928103 260.374848 
L 386.556061 257.588044 
L 387.18402 249.905503 
L 387.811978 234.314464 
L 388.439937 258.039958 
L 389.067895 262.107186 
L 389.695854 250.432736 
L 390.323812 261.730591 
L 390.951771 265.421223 
L 391.579729 256.684216 
L 392.207688 256.232302 
L 392.835646 253.068902 
L 393.463605 255.328473 
L 394.091563 259.245063 
L 394.719522 263.990162 
L 395.34748 264.517395 
L 395.975439 251.863798 
L 396.603397 263.236971 
L 397.231356 251.110608 
L 397.859314 256.156983 
L 398.487273 257.88932 
L 398.487273 257.88932 
" style="fill:none;stroke:#1f77b4;stroke-linecap:square;stroke-width:1.5;"/>
   </g>
   <g id="line2d_50">
    <path clip-path="url(#p57e22e2509)" d="M 73.832727 240.839081 
L 74.460686 234.585312 
L 75.088644 255.411053 
L 75.716603 251.628803 
L 76.344561 252.510939 
L 76.97252 264.202862 
L 77.600478 247.738725 
L 78.228437 241.291582 
L 78.856395 260.131297 
L 79.484354 248.849425 
L 80.112312 252.872244 
L 80.740271 263.942861 
L 81.368229 245.846523 
L 81.996188 249.910083 
L 82.624146 236.068735 
L 83.252105 255.045161 
L 84.508022 264.656622 
L 85.13598 261.007076 
L 85.763939 236.433467 
L 86.391897 244.753456 
L 87.019856 254.855018 
L 87.647814 242.909194 
L 88.275773 260.004038 
L 88.903731 258.279608 
L 89.53169 265.383232 
L 90.159648 238.928357 
L 90.787607 254.152653 
L 91.415565 219.849001 
L 92.043524 232.347659 
L 92.671482 223.515892 
L 93.299441 212.885297 
L 93.927399 260.966856 
L 94.555358 210.432156 
L 95.183316 231.188273 
L 95.811275 229.126866 
L 97.067192 245.383289 
L 97.69515 263.884715 
L 98.323109 243.254833 
L 98.951067 241.286543 
L 99.579026 222.899233 
L 100.206984 251.688885 
L 100.834943 224.763748 
L 101.462901 235.987925 
L 102.09086 214.139073 
L 102.718818 244.428936 
L 103.346777 227.786941 
L 103.974735 245.630154 
L 104.602694 232.582202 
L 105.230652 260.892742 
L 105.858611 262.63588 
L 106.486569 255.663327 
L 107.114528 232.221913 
L 107.742486 237.06263 
L 108.370445 245.997952 
L 108.998403 210.009767 
L 109.626362 260.636288 
L 110.25432 238.691396 
L 110.882279 239.190144 
L 111.510237 257.922581 
L 112.138196 246.073836 
L 112.766154 242.233055 
L 114.022071 263.616639 
L 114.65003 264.619527 
L 115.277988 247.821155 
L 115.905947 236.532497 
L 116.533905 232.373282 
L 117.161864 209.704544 
L 117.789822 253.02063 
L 118.417781 230.007331 
L 119.045739 263.838198 
L 119.673698 232.551005 
L 120.301656 227.967902 
L 120.929615 254.132392 
L 121.557573 242.473413 
L 122.185532 236.093922 
L 122.81349 254.68329 
L 123.441449 248.579738 
L 124.069407 220.335644 
L 124.697366 236.708676 
L 125.325324 257.9672 
L 125.953283 204.789503 
L 126.581241 262.052316 
L 127.2092 250.080409 
L 127.837158 227.410203 
L 128.465117 229.315812 
L 129.093075 219.231678 
L 129.721034 236.193222 
L 130.348992 240.140188 
L 130.976951 262.049717 
L 131.604909 259.245876 
L 132.232868 233.501516 
L 132.860826 239.724495 
L 133.488785 251.218555 
L 134.116743 235.569581 
L 134.744702 239.29663 
L 135.37266 260.571438 
L 136.000619 253.502507 
L 136.628577 230.528478 
L 137.256536 231.08849 
L 137.884494 224.20876 
L 138.512453 232.848455 
L 139.76837 262.034352 
L 140.396328 262.802109 
L 141.024287 167.344324 
L 141.652245 212.842576 
L 142.280204 168.521636 
L 142.908162 245.873909 
L 143.536121 227.361554 
L 144.164079 247.38734 
L 144.792038 252.198712 
L 145.419996 246.121189 
L 146.047955 205.024386 
L 146.675913 261.273374 
L 147.93183 248.054252 
L 148.559789 244.400481 
L 149.187747 264.825691 
L 149.815706 220.047346 
L 151.071623 260.822921 
L 151.699582 258.700581 
L 152.32754 237.714215 
L 152.955499 254.981478 
L 153.583457 250.731075 
L 154.211416 256.044079 
L 154.839374 257.861151 
L 155.467333 200.62589 
L 156.095291 225.511553 
L 156.72325 264.518336 
L 157.351208 263.400127 
L 157.979167 260.8333 
L 158.607125 264.487229 
L 159.235084 260.316702 
L 159.863042 260.367015 
L 160.491001 260.302542 
L 161.118959 264.695419 
L 161.746918 265.281732 
L 162.374876 265.291735 
L 163.630793 263.578136 
L 164.258752 265.317358 
L 164.88671 262.853469 
L 165.514669 265.602584 
L 166.142627 260.22421 
L 166.770586 178.873069 
L 167.398544 234.221453 
L 168.026503 245.130292 
L 168.654461 258.43945 
L 169.28242 265.301315 
L 169.910378 186.103959 
L 170.538337 136.3053 
L 171.166295 253.20523 
L 171.794254 217.422515 
L 172.422212 208.500991 
L 173.050171 257.39003 
L 173.678129 253.996788 
L 174.306088 198.573823 
L 174.934046 221.074057 
L 175.562005 217.331229 
L 176.189963 226.409988 
L 176.817922 184.714354 
L 177.44588 252.753105 
L 178.073839 246.763525 
L 178.701797 214.819098 
L 179.329756 127.231519 
L 179.957714 186.799523 
L 180.585673 194.584671 
L 181.213631 238.930542 
L 181.84159 258.256237 
L 182.469548 177.0093 
L 183.097507 221.762014 
L 183.725465 184.873721 
L 184.353424 237.721551 
L 184.981382 230.449122 
L 185.609341 263.885204 
L 186.237299 230.374338 
L 186.865258 134.101593 
L 187.493216 241.962901 
L 188.121175 207.223136 
L 188.749133 181.741519 
L 190.00505 252.910205 
L 190.633009 236.778556 
L 191.260967 178.87746 
L 191.888926 179.525995 
L 192.516884 233.981856 
L 193.144843 199.276994 
L 194.40076 236.976796 
L 195.028718 256.524321 
L 195.656677 210.91343 
L 196.284635 211.247605 
L 196.912594 198.260119 
L 197.540552 212.264435 
L 198.168511 245.36012 
L 198.796469 221.876144 
L 199.424428 256.126968 
L 200.052386 224.939226 
L 200.680345 247.396845 
L 201.308303 238.60896 
L 201.936262 215.38265 
L 202.56422 203.464144 
L 203.192179 261.320253 
L 203.820137 241.401382 
L 204.448096 265.304027 
L 205.076054 235.648959 
L 205.704013 198.708433 
L 206.331971 229.013135 
L 206.95993 201.842563 
L 207.587888 261.302417 
L 208.215847 264.159117 
L 208.843805 205.882435 
L 210.099722 222.504426 
L 210.727681 210.295166 
L 211.355639 211.984722 
L 211.983598 261.119693 
L 212.611556 261.958536 
L 213.239515 141.165132 
L 213.867473 107.405894 
L 214.495432 184.929886 
L 215.12339 181.418227 
L 215.751349 173.452984 
L 216.379307 257.215366 
L 217.007266 253.305404 
L 217.635224 212.809375 
L 218.263183 190.020685 
L 218.891141 218.32599 
L 219.5191 164.820821 
L 220.775017 255.607184 
L 221.402975 264.44731 
L 222.658892 144.306923 
L 223.286851 210.138683 
L 223.914809 223.508142 
L 224.542768 227.492428 
L 225.170726 237.171089 
L 225.798685 244.275556 
L 227.054602 168.842646 
L 227.68256 200.730312 
L 228.938477 228.005215 
L 229.566436 259.158054 
L 230.194394 253.841947 
L 230.822353 183.05378 
L 231.450311 180.138286 
L 232.07827 180.579271 
L 232.706228 220.233783 
L 233.334187 210.051516 
L 233.962145 249.593908 
L 234.590104 250.99729 
L 235.218062 212.263953 
L 235.846021 203.080755 
L 236.473979 216.561031 
L 237.101938 216.895945 
L 237.729896 219.838147 
L 238.357855 256.267815 
L 238.985813 259.178518 
L 239.613772 221.339368 
L 240.24173 202.089135 
L 240.869689 225.809726 
L 241.497647 204.521526 
L 242.125606 204.585441 
L 242.753564 230.122433 
L 243.381523 262.094608 
L 244.009481 172.863176 
L 244.63744 214.309685 
L 245.265398 206.139845 
L 245.893357 187.007901 
L 246.521315 178.463334 
L 247.149274 253.344495 
L 247.777232 225.3042 
L 248.405191 209.494246 
L 249.033149 149.638553 
L 249.661108 231.716636 
L 250.289066 181.521429 
L 250.917025 195.859822 
L 251.544983 247.091562 
L 252.172942 220.26074 
L 252.8009 221.1551 
L 254.056817 156.751471 
L 254.684776 235.930811 
L 255.312734 214.733581 
L 255.940693 243.044844 
L 256.568651 235.235164 
L 257.19661 217.513199 
L 257.824568 189.610264 
L 258.452527 207.717207 
L 259.080485 252.51823 
L 259.708444 188.408157 
L 260.336402 223.981055 
L 260.964361 233.08803 
L 261.592319 202.731448 
L 262.220278 214.338653 
L 262.848236 198.176282 
L 263.476195 189.192341 
L 264.104153 216.054353 
L 264.732112 236.756752 
L 265.36007 261.370603 
L 265.988029 148.206919 
L 266.615987 141.828716 
L 267.243946 192.006749 
L 267.871904 218.149796 
L 268.499863 210.529996 
L 269.127821 253.913982 
L 269.75578 257.800707 
L 270.383738 174.08662 
L 271.011697 247.416767 
L 271.639655 175.996116 
L 272.267614 207.942832 
L 272.895572 213.73241 
L 273.523531 250.224856 
L 274.151489 264.396884 
L 274.779448 182.31722 
L 275.407406 215.332932 
L 276.035365 264.116456 
L 276.663323 228.276477 
L 277.291282 230.054804 
L 277.91924 256.554547 
L 278.547199 244.03269 
L 279.175157 235.587717 
L 279.803116 195.408586 
L 280.431074 164.463997 
L 281.059033 245.011416 
L 281.686991 140.428211 
L 282.31495 249.6008 
L 282.942908 249.009079 
L 283.570867 132.144112 
L 284.198825 187.096566 
L 284.826784 172.882909 
L 285.454742 164.429252 
L 286.082701 146.979151 
L 286.710659 232.964258 
L 287.338618 265.571221 
L 287.966576 116.12264 
L 288.594535 124.276678 
L 289.222493 199.479715 
L 289.850452 168.886482 
L 290.47841 196.172012 
L 291.106369 233.962732 
L 291.734327 176.957736 
L 292.362286 162.015511 
L 293.618203 52.154182 
L 294.246161 190.157968 
L 294.87412 209.818607 
L 295.502078 263.070411 
L 296.130037 143.176 
L 296.757995 115.303244 
L 297.385954 167.947072 
L 298.013912 139.041437 
L 298.641871 208.822905 
L 299.269829 238.631887 
L 299.897788 216.594021 
L 300.525746 150.786506 
L 301.153705 65.375541 
L 301.781663 107.632943 
L 302.409622 133.805379 
L 303.03758 153.642061 
L 303.665539 226.874639 
L 304.293497 252.774405 
L 304.921456 125.954861 
L 305.549414 52.293055 
L 306.177373 168.28222 
L 306.805331 189.070776 
L 308.061248 184.637799 
L 308.689207 258.783508 
L 309.317165 155.688479 
L 309.945124 175.946646 
L 310.573082 96.885565 
L 311.201041 164.341038 
L 311.828999 136.056906 
L 312.456958 222.853205 
L 313.084916 246.291651 
L 313.712875 106.847734 
L 314.968792 209.212387 
L 315.59675 198.585942 
L 316.224709 202.729129 
L 316.852667 231.282685 
L 317.480626 214.137852 
L 318.108584 234.915397 
L 318.736543 264.97376 
L 319.364501 247.405092 
L 319.99246 262.568545 
L 320.620418 263.770215 
L 321.248377 246.346001 
L 321.876336 198.449712 
L 323.132253 261.651476 
L 323.760211 253.520508 
L 324.38817 251.993648 
L 325.016128 249.881552 
L 325.644087 229.967502 
L 326.272045 251.781482 
L 326.900004 242.785648 
L 327.527962 261.688909 
L 328.155921 254.837951 
L 328.783879 260.169928 
L 329.411838 264.372293 
L 330.039796 219.647123 
L 330.667755 231.886571 
L 331.295713 205.334866 
L 331.923672 194.435185 
L 332.55163 234.036326 
L 333.807547 259.594264 
L 334.435506 237.169718 
L 335.063464 246.146993 
L 335.691423 245.819348 
L 336.319381 240.359163 
L 336.94734 258.460992 
L 337.575298 262.638637 
L 338.203257 255.581545 
L 338.831215 216.17945 
L 339.459174 214.412767 
L 340.087132 248.75731 
L 340.715091 236.51839 
L 341.343049 238.87574 
L 341.971008 260.042541 
L 342.598966 262.666309 
L 343.226925 233.221796 
L 343.854883 255.728643 
L 344.482842 252.620754 
L 345.1108 212.798469 
L 345.738759 244.571364 
L 346.366717 253.017648 
L 346.994676 263.587717 
L 347.622634 240.162158 
L 348.250593 250.160872 
L 348.878551 240.923521 
L 349.50651 175.55928 
L 350.134468 253.025782 
L 350.762427 261.569785 
L 351.390385 265.586247 
L 352.018344 238.61857 
L 352.646302 258.993015 
L 353.274261 237.408374 
L 353.902219 251.203325 
L 354.530178 250.284268 
L 355.158136 261.490813 
L 355.786095 259.445728 
L 356.414053 254.186938 
L 357.042012 237.776368 
L 357.66997 249.977599 
L 358.297929 249.374534 
L 358.925887 252.599062 
L 359.553846 262.647171 
L 360.181804 263.23371 
L 360.809763 237.425976 
L 361.437721 260.017987 
L 362.06568 240.6352 
L 362.693638 250.890224 
L 363.321597 252.284869 
L 363.949555 260.048265 
L 364.577514 263.834432 
L 365.205472 225.390274 
L 365.833431 215.110251 
L 366.461389 178.391592 
L 367.717306 240.93695 
L 368.345265 253.376219 
L 368.973223 257.154357 
L 369.601182 228.382383 
L 370.22914 226.210092 
L 370.857099 227.786331 
L 371.485057 246.632319 
L 372.113016 251.727681 
L 372.740974 260.67739 
L 373.368933 256.636253 
L 373.996891 254.615684 
L 374.62485 214.33509 
L 375.252808 240.223272 
L 375.880767 190.764701 
L 376.508725 238.864532 
L 377.136684 236.197771 
L 377.764642 264.144475 
L 378.392601 249.162737 
L 379.020559 210.52757 
L 380.276476 243.021382 
L 380.904435 256.012596 
L 381.532393 258.660022 
L 382.160352 247.984612 
L 382.78831 196.627233 
L 383.416269 194.272692 
L 384.044227 236.31832 
L 384.672186 214.546714 
L 385.300144 210.405305 
L 385.928103 244.284105 
L 386.556061 233.341719 
L 387.18402 203.176222 
L 387.811978 142.327245 
L 388.439937 235.100494 
L 389.067895 251.050729 
L 389.695854 204.420342 
L 390.323812 249.43137 
L 390.951771 264.07949 
L 391.579729 229.402308 
L 392.207688 227.750381 
L 392.835646 215.274643 
L 393.463605 223.947553 
L 394.091563 239.562333 
L 394.719522 258.437643 
L 395.34748 260.519581 
L 395.975439 210.553058 
L 396.603397 255.604216 
L 397.231356 208.36718 
L 397.859314 228.014141 
L 398.487273 234.846428 
L 398.487273 234.846428 
" style="fill:none;stroke:#ff7f0e;stroke-linecap:square;stroke-width:1.5;"/>
   </g>
   <g id="patch_3">
    <path d="M 57.6 276.48 
L 57.6 41.472 
" style="fill:none;stroke:#000000;stroke-linecap:square;stroke-linejoin:miter;stroke-width:0.8;"/>
   </g>
   <g id="patch_4">
    <path d="M 414.72 276.48 
L 414.72 41.472 
" style="fill:none;stroke:#000000;stroke-linecap:square;stroke-linejoin:miter;stroke-width:0.8;"/>
   </g>
   <g id="patch_5">
    <path d="M 57.6 276.48 
L 414.72 276.48 
" style="fill:none;stroke:#000000;stroke-linecap:square;stroke-linejoin:miter;stroke-width:0.8;"/>
   </g>
   <g id="patch_6">
    <path d="M 57.6 41.472 
L 414.72 41.472 
" style="fill:none;stroke:#000000;stroke-linecap:square;stroke-linejoin:miter;stroke-width:0.8;"/>
   </g>
   <g id="text_27">
    <!-- Wykres sprzedaży -->
    <defs>
     <path d="M 9.078125 75.984375 
L 18.109375 75.984375 
L 18.109375 31.109375 
L 44.921875 54.6875 
L 56.390625 54.6875 
L 27.390625 29.109375 
L 57.625 0 
L 45.90625 0 
L 18.109375 26.703125 
L 18.109375 0 
L 9.078125 0 
z
" id="DejaVuSans-107"/>
    </defs>
    <g transform="translate(181.585312 35.472)scale(0.12 -0.12)">
     <use xlink:href="#DejaVuSans-87"/>
     <use x="98.861328" xlink:href="#DejaVuSans-121"/>
     <use x="158.041016" xlink:href="#DejaVuSans-107"/>
     <use x="215.951172" xlink:href="#DejaVuSans-114"/>
     <use x="257.033203" xlink:href="#DejaVuSans-101"/>
     <use x="318.556641" xlink:href="#DejaVuSans-115"/>
     <use x="370.65625" xlink:href="#DejaVuSans-32"/>
     <use x="402.443359" xlink:href="#DejaVuSans-115"/>
     <use x="454.542969" xlink:href="#DejaVuSans-112"/>
     <use x="518.019531" xlink:href="#DejaVuSans-114"/>
     <use x="559.132812" xlink:href="#DejaVuSans-122"/>
     <use x="611.623047" xlink:href="#DejaVuSans-101"/>
     <use x="673.146484" xlink:href="#DejaVuSans-100"/>
     <use x="736.623047" xlink:href="#DejaVuSans-97"/>
     <use x="797.902344" xlink:href="#DejaVuSans-380"/>
     <use x="850.392578" xlink:href="#DejaVuSans-121"/>
    </g>
   </g>
   <g id="legend_1">
    <g id="patch_7">
     <path d="M 64.6 79.262625 
L 198.225 79.262625 
Q 200.225 79.262625 200.225 77.262625 
L 200.225 48.472 
Q 200.225 46.472 198.225 46.472 
L 64.6 46.472 
Q 62.6 46.472 62.6 48.472 
L 62.6 77.262625 
Q 62.6 79.262625 64.6 79.262625 
z
" style="fill:#ffffff;opacity:0.8;stroke:#cccccc;stroke-linejoin:miter;"/>
    </g>
    <g id="line2d_51">
     <path d="M 66.6 54.570437 
L 86.6 54.570437 
" style="fill:none;stroke:#1f77b4;stroke-linecap:square;stroke-width:1.5;"/>
    </g>
    <g id="line2d_52"/>
    <g id="text_28">
     <!-- Wartości w dolarach -->
     <defs>
      <path d="M 4.203125 54.6875 
L 13.1875 54.6875 
L 24.421875 12.015625 
L 35.59375 54.6875 
L 46.1875 54.6875 
L 57.421875 12.015625 
L 68.609375 54.6875 
L 77.59375 54.6875 
L 63.28125 0 
L 52.6875 0 
L 40.921875 44.828125 
L 29.109375 0 
L 18.5 0 
z
" id="DejaVuSans-119"/>
      <path d="M 9.421875 75.984375 
L 18.40625 75.984375 
L 18.40625 0 
L 9.421875 0 
z
" id="DejaVuSans-108"/>
      <path d="M 54.890625 33.015625 
L 54.890625 0 
L 45.90625 0 
L 45.90625 32.71875 
Q 45.90625 40.484375 42.875 44.328125 
Q 39.84375 48.1875 33.796875 48.1875 
Q 26.515625 48.1875 22.3125 43.546875 
Q 18.109375 38.921875 18.109375 30.90625 
L 18.109375 0 
L 9.078125 0 
L 9.078125 75.984375 
L 18.109375 75.984375 
L 18.109375 46.1875 
Q 21.34375 51.125 25.703125 53.5625 
Q 30.078125 56 35.796875 56 
Q 45.21875 56 50.046875 50.171875 
Q 54.890625 44.34375 54.890625 33.015625 
z
" id="DejaVuSans-104"/>
     </defs>
     <g transform="translate(94.6 58.070437)scale(0.1 -0.1)">
      <use xlink:href="#DejaVuSans-87"/>
      <use x="98.783203" xlink:href="#DejaVuSans-97"/>
      <use x="160.0625" xlink:href="#DejaVuSans-114"/>
      <use x="201.175781" xlink:href="#DejaVuSans-116"/>
      <use x="240.384766" xlink:href="#DejaVuSans-111"/>
      <use x="301.566406" xlink:href="#DejaVuSans-347"/>
      <use x="353.666016" xlink:href="#DejaVuSans-99"/>
      <use x="408.646484" xlink:href="#DejaVuSans-105"/>
      <use x="436.429688" xlink:href="#DejaVuSans-32"/>
      <use x="468.216797" xlink:href="#DejaVuSans-119"/>
      <use x="550.003906" xlink:href="#DejaVuSans-32"/>
      <use x="581.791016" xlink:href="#DejaVuSans-100"/>
      <use x="645.267578" xlink:href="#DejaVuSans-111"/>
      <use x="706.449219" xlink:href="#DejaVuSans-108"/>
      <use x="734.232422" xlink:href="#DejaVuSans-97"/>
      <use x="795.511719" xlink:href="#DejaVuSans-114"/>
      <use x="836.625" xlink:href="#DejaVuSans-97"/>
      <use x="897.904297" xlink:href="#DejaVuSans-99"/>
      <use x="952.884766" xlink:href="#DejaVuSans-104"/>
     </g>
    </g>
    <g id="line2d_53">
     <path d="M 66.6 69.682937 
L 86.6 69.682937 
" style="fill:none;stroke:#ff7f0e;stroke-linecap:square;stroke-width:1.5;"/>
    </g>
    <g id="line2d_54"/>
    <g id="text_29">
     <!-- Wartości w złotych -->
     <defs>
      <path d="M 9.71875 75.984375 
L 18.703125 75.984375 
L 18.703125 46.578125 
L 24.8125 50.984375 
L 28.515625 45.796875 
L 18.703125 38.921875 
L 18.703125 0 
L 9.71875 0 
L 9.71875 32.515625 
L 3.71875 28.21875 
L 0.09375 33.40625 
L 9.71875 40.28125 
z
" id="DejaVuSans-322"/>
     </defs>
     <g transform="translate(94.6 73.182937)scale(0.1 -0.1)">
      <use xlink:href="#DejaVuSans-87"/>
      <use x="98.783203" xlink:href="#DejaVuSans-97"/>
      <use x="160.0625" xlink:href="#DejaVuSans-114"/>
      <use x="201.175781" xlink:href="#DejaVuSans-116"/>
      <use x="240.384766" xlink:href="#DejaVuSans-111"/>
      <use x="301.566406" xlink:href="#DejaVuSans-347"/>
      <use x="353.666016" xlink:href="#DejaVuSans-99"/>
      <use x="408.646484" xlink:href="#DejaVuSans-105"/>
      <use x="436.429688" xlink:href="#DejaVuSans-32"/>
      <use x="468.216797" xlink:href="#DejaVuSans-119"/>
      <use x="550.003906" xlink:href="#DejaVuSans-32"/>
      <use x="581.791016" xlink:href="#DejaVuSans-122"/>
      <use x="634.28125" xlink:href="#DejaVuSans-322"/>
      <use x="662.699219" xlink:href="#DejaVuSans-111"/>
      <use x="723.880859" xlink:href="#DejaVuSans-116"/>
      <use x="763.089844" xlink:href="#DejaVuSans-121"/>
      <use x="822.269531" xlink:href="#DejaVuSans-99"/>
      <use x="877.25" xlink:href="#DejaVuSans-104"/>
     </g>
    </g>
   </g>
  </g>
 </g>
 <defs>
  <clipPath id="p57e22e2509">
   <rect height="235.008" width="357.12" x="57.6" y="41.472"/>
  </clipPath>
 </defs>
</svg>
