<?xml version="1.0" encoding="utf-8" standalone="no"?>
<!DOCTYPE svg PUBLIC "-//W3C//DTD SVG 1.1//EN"
  "http://www.w3.org/Graphics/SVG/1.1/DTD/svg11.dtd">
<!-- Created with matplotlib (https://matplotlib.org/) -->
<svg height="693.36pt" version="1.1" viewBox="0 0 1382.4 693.36" width="1382.4pt" xmlns="http://www.w3.org/2000/svg" xmlns:xlink="http://www.w3.org/1999/xlink">
 <defs>
  <style type="text/css">
*{stroke-linecap:butt;stroke-linejoin:round;}
  </style>
 </defs>
 <g id="figure_1">
  <g id="patch_1">
   <path d="M 0 693.36 
L 1382.4 693.36 
L 1382.4 0 
L 0 0 
z
" style="fill:#ffffff;"/>
  </g>
  <g id="axes_1">
   <g id="patch_2">
    <path d="M 172.8 554.688 
L 1244.16 554.688 
L 1244.16 83.2032 
L 172.8 83.2032 
z
" style="fill:#ffffff;"/>
   </g>
   <g id="matplotlib.axis_1">
    <g id="xtick_1">
     <g id="line2d_1">
      <defs>
       <path d="M 0 0 
L 0 3.5 
" id="m97063409da" style="stroke:#000000;stroke-width:0.8;"/>
      </defs>
      <g>
       <use style="stroke:#000000;stroke-width:0.8;" x="207.3612" xlink:href="#m97063409da" y="554.688"/>
      </g>
     </g>
     <g id="text_1">
      <!-- 2012-07 -->
      <defs>
       <path d="M 19.1875 8.296875 
L 53.609375 8.296875 
L 53.609375 0 
L 7.328125 0 
L 7.328125 8.296875 
Q 12.9375 14.109375 22.625 23.890625 
Q 32.328125 33.6875 34.8125 36.53125 
Q 39.546875 41.84375 41.421875 45.53125 
Q 43.3125 49.21875 43.3125 52.78125 
Q 43.3125 58.59375 39.234375 62.25 
Q 35.15625 65.921875 28.609375 65.921875 
Q 23.96875 65.921875 18.8125 64.3125 
Q 13.671875 62.703125 7.8125 59.421875 
L 7.8125 69.390625 
Q 13.765625 71.78125 18.9375 73 
Q 24.125 74.21875 28.421875 74.21875 
Q 39.75 74.21875 46.484375 68.546875 
Q 53.21875 62.890625 53.21875 53.421875 
Q 53.21875 48.921875 51.53125 44.890625 
Q 49.859375 40.875 45.40625 35.40625 
Q 44.1875 33.984375 37.640625 27.21875 
Q 31.109375 20.453125 19.1875 8.296875 
z
" id="DejaVuSans-50"/>
       <path d="M 31.78125 66.40625 
Q 24.171875 66.40625 20.328125 58.90625 
Q 16.5 51.421875 16.5 36.375 
Q 16.5 21.390625 20.328125 13.890625 
Q 24.171875 6.390625 31.78125 6.390625 
Q 39.453125 6.390625 43.28125 13.890625 
Q 47.125 21.390625 47.125 36.375 
Q 47.125 51.421875 43.28125 58.90625 
Q 39.453125 66.40625 31.78125 66.40625 
z
M 31.78125 74.21875 
Q 44.046875 74.21875 50.515625 64.515625 
Q 56.984375 54.828125 56.984375 36.375 
Q 56.984375 17.96875 50.515625 8.265625 
Q 44.046875 -1.421875 31.78125 -1.421875 
Q 19.53125 -1.421875 13.0625 8.265625 
Q 6.59375 17.96875 6.59375 36.375 
Q 6.59375 54.828125 13.0625 64.515625 
Q 19.53125 74.21875 31.78125 74.21875 
z
" id="DejaVuSans-48"/>
       <path d="M 12.40625 8.296875 
L 28.515625 8.296875 
L 28.515625 63.921875 
L 10.984375 60.40625 
L 10.984375 69.390625 
L 28.421875 72.90625 
L 38.28125 72.90625 
L 38.28125 8.296875 
L 54.390625 8.296875 
L 54.390625 0 
L 12.40625 0 
z
" id="DejaVuSans-49"/>
       <path d="M 4.890625 31.390625 
L 31.203125 31.390625 
L 31.203125 23.390625 
L 4.890625 23.390625 
z
" id="DejaVuSans-45"/>
       <path d="M 8.203125 72.90625 
L 55.078125 72.90625 
L 55.078125 68.703125 
L 28.609375 0 
L 18.3125 0 
L 43.21875 64.59375 
L 8.203125 64.59375 
z
" id="DejaVuSans-55"/>
      </defs>
      <g transform="translate(170.136379 589.159846)rotate(-30)scale(0.1 -0.1)">
       <use xlink:href="#DejaVuSans-50"/>
       <use x="63.623047" xlink:href="#DejaVuSans-48"/>
       <use x="127.246094" xlink:href="#DejaVuSans-49"/>
       <use x="190.869141" xlink:href="#DejaVuSans-50"/>
       <use x="254.492188" xlink:href="#DejaVuSans-45"/>
       <use x="290.576172" xlink:href="#DejaVuSans-48"/>
       <use x="354.199219" xlink:href="#DejaVuSans-55"/>
      </g>
     </g>
    </g>
    <g id="xtick_2">
     <g id="line2d_2">
      <g>
       <use style="stroke:#000000;stroke-width:0.8;" x="344.266707" xlink:href="#m97063409da" y="554.688"/>
      </g>
     </g>
     <g id="text_2">
      <!-- 2013-01 -->
      <defs>
       <path d="M 40.578125 39.3125 
Q 47.65625 37.796875 51.625 33 
Q 55.609375 28.21875 55.609375 21.1875 
Q 55.609375 10.40625 48.1875 4.484375 
Q 40.765625 -1.421875 27.09375 -1.421875 
Q 22.515625 -1.421875 17.65625 -0.515625 
Q 12.796875 0.390625 7.625 2.203125 
L 7.625 11.71875 
Q 11.71875 9.328125 16.59375 8.109375 
Q 21.484375 6.890625 26.8125 6.890625 
Q 36.078125 6.890625 40.9375 10.546875 
Q 45.796875 14.203125 45.796875 21.1875 
Q 45.796875 27.640625 41.28125 31.265625 
Q 36.765625 34.90625 28.71875 34.90625 
L 20.21875 34.90625 
L 20.21875 43.015625 
L 29.109375 43.015625 
Q 36.375 43.015625 40.234375 45.921875 
Q 44.09375 48.828125 44.09375 54.296875 
Q 44.09375 59.90625 40.109375 62.90625 
Q 36.140625 65.921875 28.71875 65.921875 
Q 24.65625 65.921875 20.015625 65.03125 
Q 15.375 64.15625 9.8125 62.3125 
L 9.8125 71.09375 
Q 15.4375 72.65625 20.34375 73.4375 
Q 25.25 74.21875 29.59375 74.21875 
Q 40.828125 74.21875 47.359375 69.109375 
Q 53.90625 64.015625 53.90625 55.328125 
Q 53.90625 49.265625 50.4375 45.09375 
Q 46.96875 40.921875 40.578125 39.3125 
z
" id="DejaVuSans-51"/>
      </defs>
      <g transform="translate(307.041887 589.159846)rotate(-30)scale(0.1 -0.1)">
       <use xlink:href="#DejaVuSans-50"/>
       <use x="63.623047" xlink:href="#DejaVuSans-48"/>
       <use x="127.246094" xlink:href="#DejaVuSans-49"/>
       <use x="190.869141" xlink:href="#DejaVuSans-51"/>
       <use x="254.492188" xlink:href="#DejaVuSans-45"/>
       <use x="290.576172" xlink:href="#DejaVuSans-48"/>
       <use x="354.199219" xlink:href="#DejaVuSans-49"/>
      </g>
     </g>
    </g>
    <g id="xtick_3">
     <g id="line2d_3">
      <g>
       <use style="stroke:#000000;stroke-width:0.8;" x="478.94006" xlink:href="#m97063409da" y="554.688"/>
      </g>
     </g>
     <g id="text_3">
      <!-- 2013-07 -->
      <g transform="translate(441.715239 589.159846)rotate(-30)scale(0.1 -0.1)">
       <use xlink:href="#DejaVuSans-50"/>
       <use x="63.623047" xlink:href="#DejaVuSans-48"/>
       <use x="127.246094" xlink:href="#DejaVuSans-49"/>
       <use x="190.869141" xlink:href="#DejaVuSans-51"/>
       <use x="254.492188" xlink:href="#DejaVuSans-45"/>
       <use x="290.576172" xlink:href="#DejaVuSans-48"/>
       <use x="354.199219" xlink:href="#DejaVuSans-55"/>
      </g>
     </g>
    </g>
    <g id="xtick_4">
     <g id="line2d_4">
      <g>
       <use style="stroke:#000000;stroke-width:0.8;" x="615.845567" xlink:href="#m97063409da" y="554.688"/>
      </g>
     </g>
     <g id="text_4">
      <!-- 2014-01 -->
      <defs>
       <path d="M 37.796875 64.3125 
L 12.890625 25.390625 
L 37.796875 25.390625 
z
M 35.203125 72.90625 
L 47.609375 72.90625 
L 47.609375 25.390625 
L 58.015625 25.390625 
L 58.015625 17.1875 
L 47.609375 17.1875 
L 47.609375 0 
L 37.796875 0 
L 37.796875 17.1875 
L 4.890625 17.1875 
L 4.890625 26.703125 
z
" id="DejaVuSans-52"/>
      </defs>
      <g transform="translate(578.620746 589.159846)rotate(-30)scale(0.1 -0.1)">
       <use xlink:href="#DejaVuSans-50"/>
       <use x="63.623047" xlink:href="#DejaVuSans-48"/>
       <use x="127.246094" xlink:href="#DejaVuSans-49"/>
       <use x="190.869141" xlink:href="#DejaVuSans-52"/>
       <use x="254.492188" xlink:href="#DejaVuSans-45"/>
       <use x="290.576172" xlink:href="#DejaVuSans-48"/>
       <use x="354.199219" xlink:href="#DejaVuSans-49"/>
      </g>
     </g>
    </g>
    <g id="xtick_5">
     <g id="line2d_5">
      <g>
       <use style="stroke:#000000;stroke-width:0.8;" x="750.518919" xlink:href="#m97063409da" y="554.688"/>
      </g>
     </g>
     <g id="text_5">
      <!-- 2014-07 -->
      <g transform="translate(713.294099 589.159846)rotate(-30)scale(0.1 -0.1)">
       <use xlink:href="#DejaVuSans-50"/>
       <use x="63.623047" xlink:href="#DejaVuSans-48"/>
       <use x="127.246094" xlink:href="#DejaVuSans-49"/>
       <use x="190.869141" xlink:href="#DejaVuSans-52"/>
       <use x="254.492188" xlink:href="#DejaVuSans-45"/>
       <use x="290.576172" xlink:href="#DejaVuSans-48"/>
       <use x="354.199219" xlink:href="#DejaVuSans-55"/>
      </g>
     </g>
    </g>
    <g id="xtick_6">
     <g id="line2d_6">
      <g>
       <use style="stroke:#000000;stroke-width:0.8;" x="887.424427" xlink:href="#m97063409da" y="554.688"/>
      </g>
     </g>
     <g id="text_6">
      <!-- 2015-01 -->
      <defs>
       <path d="M 10.796875 72.90625 
L 49.515625 72.90625 
L 49.515625 64.59375 
L 19.828125 64.59375 
L 19.828125 46.734375 
Q 21.96875 47.46875 24.109375 47.828125 
Q 26.265625 48.1875 28.421875 48.1875 
Q 40.625 48.1875 47.75 41.5 
Q 54.890625 34.8125 54.890625 23.390625 
Q 54.890625 11.625 47.5625 5.09375 
Q 40.234375 -1.421875 26.90625 -1.421875 
Q 22.3125 -1.421875 17.546875 -0.640625 
Q 12.796875 0.140625 7.71875 1.703125 
L 7.71875 11.625 
Q 12.109375 9.234375 16.796875 8.0625 
Q 21.484375 6.890625 26.703125 6.890625 
Q 35.15625 6.890625 40.078125 11.328125 
Q 45.015625 15.765625 45.015625 23.390625 
Q 45.015625 31 40.078125 35.4375 
Q 35.15625 39.890625 26.703125 39.890625 
Q 22.75 39.890625 18.8125 39.015625 
Q 14.890625 38.140625 10.796875 36.28125 
z
" id="DejaVuSans-53"/>
      </defs>
      <g transform="translate(850.199606 589.159846)rotate(-30)scale(0.1 -0.1)">
       <use xlink:href="#DejaVuSans-50"/>
       <use x="63.623047" xlink:href="#DejaVuSans-48"/>
       <use x="127.246094" xlink:href="#DejaVuSans-49"/>
       <use x="190.869141" xlink:href="#DejaVuSans-53"/>
       <use x="254.492188" xlink:href="#DejaVuSans-45"/>
       <use x="290.576172" xlink:href="#DejaVuSans-48"/>
       <use x="354.199219" xlink:href="#DejaVuSans-49"/>
      </g>
     </g>
    </g>
    <g id="xtick_7">
     <g id="line2d_7">
      <g>
       <use style="stroke:#000000;stroke-width:0.8;" x="1022.097779" xlink:href="#m97063409da" y="554.688"/>
      </g>
     </g>
     <g id="text_7">
      <!-- 2015-07 -->
      <g transform="translate(984.872958 589.159846)rotate(-30)scale(0.1 -0.1)">
       <use xlink:href="#DejaVuSans-50"/>
       <use x="63.623047" xlink:href="#DejaVuSans-48"/>
       <use x="127.246094" xlink:href="#DejaVuSans-49"/>
       <use x="190.869141" xlink:href="#DejaVuSans-53"/>
       <use x="254.492188" xlink:href="#DejaVuSans-45"/>
       <use x="290.576172" xlink:href="#DejaVuSans-48"/>
       <use x="354.199219" xlink:href="#DejaVuSans-55"/>
      </g>
     </g>
    </g>
    <g id="xtick_8">
     <g id="line2d_8">
      <g>
       <use style="stroke:#000000;stroke-width:0.8;" x="1159.003286" xlink:href="#m97063409da" y="554.688"/>
      </g>
     </g>
     <g id="text_8">
      <!-- 2016-01 -->
      <defs>
       <path d="M 33.015625 40.375 
Q 26.375 40.375 22.484375 35.828125 
Q 18.609375 31.296875 18.609375 23.390625 
Q 18.609375 15.53125 22.484375 10.953125 
Q 26.375 6.390625 33.015625 6.390625 
Q 39.65625 6.390625 43.53125 10.953125 
Q 47.40625 15.53125 47.40625 23.390625 
Q 47.40625 31.296875 43.53125 35.828125 
Q 39.65625 40.375 33.015625 40.375 
z
M 52.59375 71.296875 
L 52.59375 62.3125 
Q 48.875 64.0625 45.09375 64.984375 
Q 41.3125 65.921875 37.59375 65.921875 
Q 27.828125 65.921875 22.671875 59.328125 
Q 17.53125 52.734375 16.796875 39.40625 
Q 19.671875 43.65625 24.015625 45.921875 
Q 28.375 48.1875 33.59375 48.1875 
Q 44.578125 48.1875 50.953125 41.515625 
Q 57.328125 34.859375 57.328125 23.390625 
Q 57.328125 12.15625 50.6875 5.359375 
Q 44.046875 -1.421875 33.015625 -1.421875 
Q 20.359375 -1.421875 13.671875 8.265625 
Q 6.984375 17.96875 6.984375 36.375 
Q 6.984375 53.65625 15.1875 63.9375 
Q 23.390625 74.21875 37.203125 74.21875 
Q 40.921875 74.21875 44.703125 73.484375 
Q 48.484375 72.75 52.59375 71.296875 
z
" id="DejaVuSans-54"/>
      </defs>
      <g transform="translate(1121.778466 589.159846)rotate(-30)scale(0.1 -0.1)">
       <use xlink:href="#DejaVuSans-50"/>
       <use x="63.623047" xlink:href="#DejaVuSans-48"/>
       <use x="127.246094" xlink:href="#DejaVuSans-49"/>
       <use x="190.869141" xlink:href="#DejaVuSans-54"/>
       <use x="254.492188" xlink:href="#DejaVuSans-45"/>
       <use x="290.576172" xlink:href="#DejaVuSans-48"/>
       <use x="354.199219" xlink:href="#DejaVuSans-49"/>
      </g>
     </g>
    </g>
    <g id="text_9">
     <!-- Date [YYYY-MM-DD] -->
     <defs>
      <path d="M 19.671875 64.796875 
L 19.671875 8.109375 
L 31.59375 8.109375 
Q 46.6875 8.109375 53.6875 14.9375 
Q 60.6875 21.78125 60.6875 36.53125 
Q 60.6875 51.171875 53.6875 57.984375 
Q 46.6875 64.796875 31.59375 64.796875 
z
M 9.8125 72.90625 
L 30.078125 72.90625 
Q 51.265625 72.90625 61.171875 64.09375 
Q 71.09375 55.28125 71.09375 36.53125 
Q 71.09375 17.671875 61.125 8.828125 
Q 51.171875 0 30.078125 0 
L 9.8125 0 
z
" id="DejaVuSans-68"/>
      <path d="M 34.28125 27.484375 
Q 23.390625 27.484375 19.1875 25 
Q 14.984375 22.515625 14.984375 16.5 
Q 14.984375 11.71875 18.140625 8.90625 
Q 21.296875 6.109375 26.703125 6.109375 
Q 34.1875 6.109375 38.703125 11.40625 
Q 43.21875 16.703125 43.21875 25.484375 
L 43.21875 27.484375 
z
M 52.203125 31.203125 
L 52.203125 0 
L 43.21875 0 
L 43.21875 8.296875 
Q 40.140625 3.328125 35.546875 0.953125 
Q 30.953125 -1.421875 24.3125 -1.421875 
Q 15.921875 -1.421875 10.953125 3.296875 
Q 6 8.015625 6 15.921875 
Q 6 25.140625 12.171875 29.828125 
Q 18.359375 34.515625 30.609375 34.515625 
L 43.21875 34.515625 
L 43.21875 35.40625 
Q 43.21875 41.609375 39.140625 45 
Q 35.0625 48.390625 27.6875 48.390625 
Q 23 48.390625 18.546875 47.265625 
Q 14.109375 46.140625 10.015625 43.890625 
L 10.015625 52.203125 
Q 14.9375 54.109375 19.578125 55.046875 
Q 24.21875 56 28.609375 56 
Q 40.484375 56 46.34375 49.84375 
Q 52.203125 43.703125 52.203125 31.203125 
z
" id="DejaVuSans-97"/>
      <path d="M 18.3125 70.21875 
L 18.3125 54.6875 
L 36.8125 54.6875 
L 36.8125 47.703125 
L 18.3125 47.703125 
L 18.3125 18.015625 
Q 18.3125 11.328125 20.140625 9.421875 
Q 21.96875 7.515625 27.59375 7.515625 
L 36.8125 7.515625 
L 36.8125 0 
L 27.59375 0 
Q 17.1875 0 13.234375 3.875 
Q 9.28125 7.765625 9.28125 18.015625 
L 9.28125 47.703125 
L 2.6875 47.703125 
L 2.6875 54.6875 
L 9.28125 54.6875 
L 9.28125 70.21875 
z
" id="DejaVuSans-116"/>
      <path d="M 56.203125 29.59375 
L 56.203125 25.203125 
L 14.890625 25.203125 
Q 15.484375 15.921875 20.484375 11.0625 
Q 25.484375 6.203125 34.421875 6.203125 
Q 39.59375 6.203125 44.453125 7.46875 
Q 49.3125 8.734375 54.109375 11.28125 
L 54.109375 2.78125 
Q 49.265625 0.734375 44.1875 -0.34375 
Q 39.109375 -1.421875 33.890625 -1.421875 
Q 20.796875 -1.421875 13.15625 6.1875 
Q 5.515625 13.8125 5.515625 26.8125 
Q 5.515625 40.234375 12.765625 48.109375 
Q 20.015625 56 32.328125 56 
Q 43.359375 56 49.78125 48.890625 
Q 56.203125 41.796875 56.203125 29.59375 
z
M 47.21875 32.234375 
Q 47.125 39.59375 43.09375 43.984375 
Q 39.0625 48.390625 32.421875 48.390625 
Q 24.90625 48.390625 20.390625 44.140625 
Q 15.875 39.890625 15.1875 32.171875 
z
" id="DejaVuSans-101"/>
      <path id="DejaVuSans-32"/>
      <path d="M 8.59375 75.984375 
L 29.296875 75.984375 
L 29.296875 69 
L 17.578125 69 
L 17.578125 -6.203125 
L 29.296875 -6.203125 
L 29.296875 -13.1875 
L 8.59375 -13.1875 
z
" id="DejaVuSans-91"/>
      <path d="M -0.203125 72.90625 
L 10.40625 72.90625 
L 30.609375 42.921875 
L 50.6875 72.90625 
L 61.28125 72.90625 
L 35.5 34.71875 
L 35.5 0 
L 25.59375 0 
L 25.59375 34.71875 
z
" id="DejaVuSans-89"/>
      <path d="M 9.8125 72.90625 
L 24.515625 72.90625 
L 43.109375 23.296875 
L 61.8125 72.90625 
L 76.515625 72.90625 
L 76.515625 0 
L 66.890625 0 
L 66.890625 64.015625 
L 48.09375 14.015625 
L 38.1875 14.015625 
L 19.390625 64.015625 
L 19.390625 0 
L 9.8125 0 
z
" id="DejaVuSans-77"/>
      <path d="M 30.421875 75.984375 
L 30.421875 -13.1875 
L 9.71875 -13.1875 
L 9.71875 -6.203125 
L 21.390625 -6.203125 
L 21.390625 69 
L 9.71875 69 
L 9.71875 75.984375 
z
" id="DejaVuSans-93"/>
     </defs>
     <g transform="translate(658.895625 602.559346)scale(0.1 -0.1)">
      <use xlink:href="#DejaVuSans-68"/>
      <use x="77.001953" xlink:href="#DejaVuSans-97"/>
      <use x="138.28125" xlink:href="#DejaVuSans-116"/>
      <use x="177.490234" xlink:href="#DejaVuSans-101"/>
      <use x="239.013672" xlink:href="#DejaVuSans-32"/>
      <use x="270.800781" xlink:href="#DejaVuSans-91"/>
      <use x="309.814453" xlink:href="#DejaVuSans-89"/>
      <use x="370.898438" xlink:href="#DejaVuSans-89"/>
      <use x="431.982422" xlink:href="#DejaVuSans-89"/>
      <use x="493.066406" xlink:href="#DejaVuSans-89"/>
      <use x="553.978516" xlink:href="#DejaVuSans-45"/>
      <use x="590.0625" xlink:href="#DejaVuSans-77"/>
      <use x="676.341797" xlink:href="#DejaVuSans-77"/>
      <use x="762.621094" xlink:href="#DejaVuSans-45"/>
      <use x="798.705078" xlink:href="#DejaVuSans-68"/>
      <use x="875.707031" xlink:href="#DejaVuSans-68"/>
      <use x="952.708984" xlink:href="#DejaVuSans-93"/>
     </g>
    </g>
   </g>
   <g id="matplotlib.axis_2">
    <g id="ytick_1">
     <g id="line2d_9">
      <defs>
       <path d="M 0 0 
L -3.5 0 
" id="mbbdbb8d858" style="stroke:#000000;stroke-width:0.8;"/>
      </defs>
      <g>
       <use style="stroke:#000000;stroke-width:0.8;" x="172.8" xlink:href="#mbbdbb8d858" y="540.076161"/>
      </g>
     </g>
     <g id="text_10">
      <!-- 0 -->
      <g transform="translate(159.4375 543.875379)scale(0.1 -0.1)">
       <use xlink:href="#DejaVuSans-48"/>
      </g>
     </g>
    </g>
    <g id="ytick_2">
     <g id="line2d_10">
      <g>
       <use style="stroke:#000000;stroke-width:0.8;" x="172.8" xlink:href="#mbbdbb8d858" y="465.156828"/>
      </g>
     </g>
     <g id="text_11">
      <!-- 500000 -->
      <g transform="translate(127.625 468.956047)scale(0.1 -0.1)">
       <use xlink:href="#DejaVuSans-53"/>
       <use x="63.623047" xlink:href="#DejaVuSans-48"/>
       <use x="127.246094" xlink:href="#DejaVuSans-48"/>
       <use x="190.869141" xlink:href="#DejaVuSans-48"/>
       <use x="254.492188" xlink:href="#DejaVuSans-48"/>
       <use x="318.115234" xlink:href="#DejaVuSans-48"/>
      </g>
     </g>
    </g>
    <g id="ytick_3">
     <g id="line2d_11">
      <g>
       <use style="stroke:#000000;stroke-width:0.8;" x="172.8" xlink:href="#mbbdbb8d858" y="390.237496"/>
      </g>
     </g>
     <g id="text_12">
      <!-- 1000000 -->
      <g transform="translate(121.2625 394.036714)scale(0.1 -0.1)">
       <use xlink:href="#DejaVuSans-49"/>
       <use x="63.623047" xlink:href="#DejaVuSans-48"/>
       <use x="127.246094" xlink:href="#DejaVuSans-48"/>
       <use x="190.869141" xlink:href="#DejaVuSans-48"/>
       <use x="254.492188" xlink:href="#DejaVuSans-48"/>
       <use x="318.115234" xlink:href="#DejaVuSans-48"/>
       <use x="381.738281" xlink:href="#DejaVuSans-48"/>
      </g>
     </g>
    </g>
    <g id="ytick_4">
     <g id="line2d_12">
      <g>
       <use style="stroke:#000000;stroke-width:0.8;" x="172.8" xlink:href="#mbbdbb8d858" y="315.318163"/>
      </g>
     </g>
     <g id="text_13">
      <!-- 1500000 -->
      <g transform="translate(121.2625 319.117382)scale(0.1 -0.1)">
       <use xlink:href="#DejaVuSans-49"/>
       <use x="63.623047" xlink:href="#DejaVuSans-53"/>
       <use x="127.246094" xlink:href="#DejaVuSans-48"/>
       <use x="190.869141" xlink:href="#DejaVuSans-48"/>
       <use x="254.492188" xlink:href="#DejaVuSans-48"/>
       <use x="318.115234" xlink:href="#DejaVuSans-48"/>
       <use x="381.738281" xlink:href="#DejaVuSans-48"/>
      </g>
     </g>
    </g>
    <g id="ytick_5">
     <g id="line2d_13">
      <g>
       <use style="stroke:#000000;stroke-width:0.8;" x="172.8" xlink:href="#mbbdbb8d858" y="240.398831"/>
      </g>
     </g>
     <g id="text_14">
      <!-- 2000000 -->
      <g transform="translate(121.2625 244.19805)scale(0.1 -0.1)">
       <use xlink:href="#DejaVuSans-50"/>
       <use x="63.623047" xlink:href="#DejaVuSans-48"/>
       <use x="127.246094" xlink:href="#DejaVuSans-48"/>
       <use x="190.869141" xlink:href="#DejaVuSans-48"/>
       <use x="254.492188" xlink:href="#DejaVuSans-48"/>
       <use x="318.115234" xlink:href="#DejaVuSans-48"/>
       <use x="381.738281" xlink:href="#DejaVuSans-48"/>
      </g>
     </g>
    </g>
    <g id="ytick_6">
     <g id="line2d_14">
      <g>
       <use style="stroke:#000000;stroke-width:0.8;" x="172.8" xlink:href="#mbbdbb8d858" y="165.479498"/>
      </g>
     </g>
     <g id="text_15">
      <!-- 2500000 -->
      <g transform="translate(121.2625 169.278717)scale(0.1 -0.1)">
       <use xlink:href="#DejaVuSans-50"/>
       <use x="63.623047" xlink:href="#DejaVuSans-53"/>
       <use x="127.246094" xlink:href="#DejaVuSans-48"/>
       <use x="190.869141" xlink:href="#DejaVuSans-48"/>
       <use x="254.492188" xlink:href="#DejaVuSans-48"/>
       <use x="318.115234" xlink:href="#DejaVuSans-48"/>
       <use x="381.738281" xlink:href="#DejaVuSans-48"/>
      </g>
     </g>
    </g>
    <g id="ytick_7">
     <g id="line2d_15">
      <g>
       <use style="stroke:#000000;stroke-width:0.8;" x="172.8" xlink:href="#mbbdbb8d858" y="90.560166"/>
      </g>
     </g>
     <g id="text_16">
      <!-- 3000000 -->
      <g transform="translate(121.2625 94.359385)scale(0.1 -0.1)">
       <use xlink:href="#DejaVuSans-51"/>
       <use x="63.623047" xlink:href="#DejaVuSans-48"/>
       <use x="127.246094" xlink:href="#DejaVuSans-48"/>
       <use x="190.869141" xlink:href="#DejaVuSans-48"/>
       <use x="254.492188" xlink:href="#DejaVuSans-48"/>
       <use x="318.115234" xlink:href="#DejaVuSans-48"/>
       <use x="381.738281" xlink:href="#DejaVuSans-48"/>
      </g>
     </g>
    </g>
    <g id="text_17">
     <!-- Earnings [USD/PLN] -->
     <defs>
      <path d="M 9.8125 72.90625 
L 55.90625 72.90625 
L 55.90625 64.59375 
L 19.671875 64.59375 
L 19.671875 43.015625 
L 54.390625 43.015625 
L 54.390625 34.71875 
L 19.671875 34.71875 
L 19.671875 8.296875 
L 56.78125 8.296875 
L 56.78125 0 
L 9.8125 0 
z
" id="DejaVuSans-69"/>
      <path d="M 41.109375 46.296875 
Q 39.59375 47.171875 37.8125 47.578125 
Q 36.03125 48 33.890625 48 
Q 26.265625 48 22.1875 43.046875 
Q 18.109375 38.09375 18.109375 28.8125 
L 18.109375 0 
L 9.078125 0 
L 9.078125 54.6875 
L 18.109375 54.6875 
L 18.109375 46.1875 
Q 20.953125 51.171875 25.484375 53.578125 
Q 30.03125 56 36.53125 56 
Q 37.453125 56 38.578125 55.875 
Q 39.703125 55.765625 41.0625 55.515625 
z
" id="DejaVuSans-114"/>
      <path d="M 54.890625 33.015625 
L 54.890625 0 
L 45.90625 0 
L 45.90625 32.71875 
Q 45.90625 40.484375 42.875 44.328125 
Q 39.84375 48.1875 33.796875 48.1875 
Q 26.515625 48.1875 22.3125 43.546875 
Q 18.109375 38.921875 18.109375 30.90625 
L 18.109375 0 
L 9.078125 0 
L 9.078125 54.6875 
L 18.109375 54.6875 
L 18.109375 46.1875 
Q 21.34375 51.125 25.703125 53.5625 
Q 30.078125 56 35.796875 56 
Q 45.21875 56 50.046875 50.171875 
Q 54.890625 44.34375 54.890625 33.015625 
z
" id="DejaVuSans-110"/>
      <path d="M 9.421875 54.6875 
L 18.40625 54.6875 
L 18.40625 0 
L 9.421875 0 
z
M 9.421875 75.984375 
L 18.40625 75.984375 
L 18.40625 64.59375 
L 9.421875 64.59375 
z
" id="DejaVuSans-105"/>
      <path d="M 45.40625 27.984375 
Q 45.40625 37.75 41.375 43.109375 
Q 37.359375 48.484375 30.078125 48.484375 
Q 22.859375 48.484375 18.828125 43.109375 
Q 14.796875 37.75 14.796875 27.984375 
Q 14.796875 18.265625 18.828125 12.890625 
Q 22.859375 7.515625 30.078125 7.515625 
Q 37.359375 7.515625 41.375 12.890625 
Q 45.40625 18.265625 45.40625 27.984375 
z
M 54.390625 6.78125 
Q 54.390625 -7.171875 48.1875 -13.984375 
Q 42 -20.796875 29.203125 -20.796875 
Q 24.46875 -20.796875 20.265625 -20.09375 
Q 16.0625 -19.390625 12.109375 -17.921875 
L 12.109375 -9.1875 
Q 16.0625 -11.328125 19.921875 -12.34375 
Q 23.78125 -13.375 27.78125 -13.375 
Q 36.625 -13.375 41.015625 -8.765625 
Q 45.40625 -4.15625 45.40625 5.171875 
L 45.40625 9.625 
Q 42.625 4.78125 38.28125 2.390625 
Q 33.9375 0 27.875 0 
Q 17.828125 0 11.671875 7.65625 
Q 5.515625 15.328125 5.515625 27.984375 
Q 5.515625 40.671875 11.671875 48.328125 
Q 17.828125 56 27.875 56 
Q 33.9375 56 38.28125 53.609375 
Q 42.625 51.21875 45.40625 46.390625 
L 45.40625 54.6875 
L 54.390625 54.6875 
z
" id="DejaVuSans-103"/>
      <path d="M 44.28125 53.078125 
L 44.28125 44.578125 
Q 40.484375 46.53125 36.375 47.5 
Q 32.28125 48.484375 27.875 48.484375 
Q 21.1875 48.484375 17.84375 46.4375 
Q 14.5 44.390625 14.5 40.28125 
Q 14.5 37.15625 16.890625 35.375 
Q 19.28125 33.59375 26.515625 31.984375 
L 29.59375 31.296875 
Q 39.15625 29.25 43.1875 25.515625 
Q 47.21875 21.78125 47.21875 15.09375 
Q 47.21875 7.46875 41.1875 3.015625 
Q 35.15625 -1.421875 24.609375 -1.421875 
Q 20.21875 -1.421875 15.453125 -0.5625 
Q 10.6875 0.296875 5.421875 2 
L 5.421875 11.28125 
Q 10.40625 8.6875 15.234375 7.390625 
Q 20.0625 6.109375 24.8125 6.109375 
Q 31.15625 6.109375 34.5625 8.28125 
Q 37.984375 10.453125 37.984375 14.40625 
Q 37.984375 18.0625 35.515625 20.015625 
Q 33.0625 21.96875 24.703125 23.78125 
L 21.578125 24.515625 
Q 13.234375 26.265625 9.515625 29.90625 
Q 5.8125 33.546875 5.8125 39.890625 
Q 5.8125 47.609375 11.28125 51.796875 
Q 16.75 56 26.8125 56 
Q 31.78125 56 36.171875 55.265625 
Q 40.578125 54.546875 44.28125 53.078125 
z
" id="DejaVuSans-115"/>
      <path d="M 8.6875 72.90625 
L 18.609375 72.90625 
L 18.609375 28.609375 
Q 18.609375 16.890625 22.84375 11.734375 
Q 27.09375 6.59375 36.625 6.59375 
Q 46.09375 6.59375 50.34375 11.734375 
Q 54.59375 16.890625 54.59375 28.609375 
L 54.59375 72.90625 
L 64.5 72.90625 
L 64.5 27.390625 
Q 64.5 13.140625 57.4375 5.859375 
Q 50.390625 -1.421875 36.625 -1.421875 
Q 22.796875 -1.421875 15.734375 5.859375 
Q 8.6875 13.140625 8.6875 27.390625 
z
" id="DejaVuSans-85"/>
      <path d="M 53.515625 70.515625 
L 53.515625 60.890625 
Q 47.90625 63.578125 42.921875 64.890625 
Q 37.9375 66.21875 33.296875 66.21875 
Q 25.25 66.21875 20.875 63.09375 
Q 16.5 59.96875 16.5 54.203125 
Q 16.5 49.359375 19.40625 46.890625 
Q 22.3125 44.4375 30.421875 42.921875 
L 36.375 41.703125 
Q 47.40625 39.59375 52.65625 34.296875 
Q 57.90625 29 57.90625 20.125 
Q 57.90625 9.515625 50.796875 4.046875 
Q 43.703125 -1.421875 29.984375 -1.421875 
Q 24.8125 -1.421875 18.96875 -0.25 
Q 13.140625 0.921875 6.890625 3.21875 
L 6.890625 13.375 
Q 12.890625 10.015625 18.65625 8.296875 
Q 24.421875 6.59375 29.984375 6.59375 
Q 38.421875 6.59375 43.015625 9.90625 
Q 47.609375 13.234375 47.609375 19.390625 
Q 47.609375 24.75 44.3125 27.78125 
Q 41.015625 30.8125 33.5 32.328125 
L 27.484375 33.5 
Q 16.453125 35.6875 11.515625 40.375 
Q 6.59375 45.0625 6.59375 53.421875 
Q 6.59375 63.09375 13.40625 68.65625 
Q 20.21875 74.21875 32.171875 74.21875 
Q 37.3125 74.21875 42.625 73.28125 
Q 47.953125 72.359375 53.515625 70.515625 
z
" id="DejaVuSans-83"/>
      <path d="M 25.390625 72.90625 
L 33.6875 72.90625 
L 8.296875 -9.28125 
L 0 -9.28125 
z
" id="DejaVuSans-47"/>
      <path d="M 19.671875 64.796875 
L 19.671875 37.40625 
L 32.078125 37.40625 
Q 38.96875 37.40625 42.71875 40.96875 
Q 46.484375 44.53125 46.484375 51.125 
Q 46.484375 57.671875 42.71875 61.234375 
Q 38.96875 64.796875 32.078125 64.796875 
z
M 9.8125 72.90625 
L 32.078125 72.90625 
Q 44.34375 72.90625 50.609375 67.359375 
Q 56.890625 61.8125 56.890625 51.125 
Q 56.890625 40.328125 50.609375 34.8125 
Q 44.34375 29.296875 32.078125 29.296875 
L 19.671875 29.296875 
L 19.671875 0 
L 9.8125 0 
z
" id="DejaVuSans-80"/>
      <path d="M 9.8125 72.90625 
L 19.671875 72.90625 
L 19.671875 8.296875 
L 55.171875 8.296875 
L 55.171875 0 
L 9.8125 0 
z
" id="DejaVuSans-76"/>
      <path d="M 9.8125 72.90625 
L 23.09375 72.90625 
L 55.421875 11.921875 
L 55.421875 72.90625 
L 64.984375 72.90625 
L 64.984375 0 
L 51.703125 0 
L 19.390625 60.984375 
L 19.390625 0 
L 9.8125 0 
z
" id="DejaVuSans-78"/>
     </defs>
     <g transform="translate(115.182812 368.129194)rotate(-90)scale(0.1 -0.1)">
      <use xlink:href="#DejaVuSans-69"/>
      <use x="63.183594" xlink:href="#DejaVuSans-97"/>
      <use x="124.462891" xlink:href="#DejaVuSans-114"/>
      <use x="165.560547" xlink:href="#DejaVuSans-110"/>
      <use x="228.939453" xlink:href="#DejaVuSans-105"/>
      <use x="256.722656" xlink:href="#DejaVuSans-110"/>
      <use x="320.101562" xlink:href="#DejaVuSans-103"/>
      <use x="383.578125" xlink:href="#DejaVuSans-115"/>
      <use x="435.677734" xlink:href="#DejaVuSans-32"/>
      <use x="467.464844" xlink:href="#DejaVuSans-91"/>
      <use x="506.478516" xlink:href="#DejaVuSans-85"/>
      <use x="579.671875" xlink:href="#DejaVuSans-83"/>
      <use x="643.148438" xlink:href="#DejaVuSans-68"/>
      <use x="720.150391" xlink:href="#DejaVuSans-47"/>
      <use x="753.841797" xlink:href="#DejaVuSans-80"/>
      <use x="814.144531" xlink:href="#DejaVuSans-76"/>
      <use x="869.857422" xlink:href="#DejaVuSans-78"/>
      <use x="944.662109" xlink:href="#DejaVuSans-93"/>
     </g>
    </g>
   </g>
   <g id="line2d_16">
    <path clip-path="url(#pd1452d3432)" d="M 221.498182 479.396365 
L 222.242233 463.356658 
L 222.986285 481.143034 
L 223.730337 503.032084 
L 224.474388 466.952983 
L 225.21844 505.577046 
L 225.962492 478.715606 
L 226.706544 442.648756 
L 227.450595 482.589893 
L 228.194647 503.276462 
L 229.68275 473.023683 
L 230.426802 509.81885 
L 231.170854 493.457555 
L 231.914905 488.125599 
L 232.658957 497.188772 
L 233.403009 494.291975 
L 234.14706 498.611123 
L 234.891112 512.809728 
L 235.635164 504.771786 
L 236.379215 508.334384 
L 237.867319 465.860841 
L 238.61137 495.040247 
L 239.355422 479.858992 
L 240.099474 498.70243 
L 240.843525 509.748661 
L 241.587577 499.047179 
L 242.331629 508.195006 
L 243.07568 485.962035 
L 243.819732 482.745775 
L 244.563784 501.624375 
L 245.307835 435.023077 
L 246.051887 504.382577 
L 246.795939 497.398619 
L 247.53999 505.860236 
L 248.284042 489.732208 
L 249.028094 481.284323 
L 249.772145 510.89204 
L 250.516197 490.690224 
L 251.260249 516.893752 
L 252.0043 461.511724 
L 252.748352 507.838558 
L 253.492404 470.894401 
L 254.236455 460.527226 
L 254.980507 472.224633 
L 255.724559 509.66074 
L 256.46861 501.322308 
L 257.956714 472.888189 
L 258.700765 485.962711 
L 259.444817 523.714201 
L 260.188869 486.213328 
L 260.93292 488.59902 
L 261.676972 499.267588 
L 262.421024 465.12844 
L 263.165075 513.488493 
L 263.909127 499.245835 
L 264.653179 518.323706 
L 265.39723 482.880532 
L 266.141282 473.624969 
L 266.885334 507.321148 
L 267.629385 474.978047 
L 268.373437 506.777645 
L 269.117489 504.439448 
L 269.86154 449.786092 
L 270.605592 490.480074 
L 272.093695 517.329429 
L 272.837747 472.761344 
L 274.32585 496.873456 
L 275.069902 459.383537 
L 275.813954 460.889132 
L 276.558005 496.543189 
L 277.302057 507.116367 
L 278.046109 474.500057 
L 278.79016 498.796446 
L 279.534212 484.356398 
L 280.278264 484.604841 
L 281.022315 484.516391 
L 281.766367 475.450551 
L 283.25447 508.864027 
L 283.998522 447.177786 
L 284.742574 503.374614 
L 285.486625 506.934206 
L 286.230677 516.606252 
L 286.974729 451.703077 
L 287.71878 519.197184 
L 288.462832 465.562912 
L 289.206884 511.291203 
L 289.950935 514.461933 
L 291.439039 481.164461 
L 292.18309 485.459852 
L 292.927142 485.696255 
L 293.671194 500.049586 
L 294.415246 481.941059 
L 295.159297 497.356405 
L 295.903349 496.006745 
L 296.647401 477.626252 
L 297.391452 479.769751 
L 298.135504 465.6186 
L 298.879556 489.102448 
L 299.623607 483.924027 
L 300.367659 462.385758 
L 301.111711 475.153234 
L 301.855762 481.117719 
L 302.599814 494.808928 
L 303.343866 491.417443 
L 304.087917 499.569443 
L 304.831969 497.994832 
L 305.576021 485.533514 
L 306.320072 478.984734 
L 307.064124 514.682659 
L 307.808176 483.666668 
L 308.552227 487.332038 
L 309.296279 507.500162 
L 310.040331 465.221224 
L 310.784382 480.74784 
L 311.528434 436.76511 
L 312.272486 481.220756 
L 313.016537 472.445321 
L 313.760589 474.484113 
L 314.504641 468.295998 
L 315.248692 514.714934 
L 315.992744 465.253996 
L 316.736796 494.932126 
L 317.480847 459.512142 
L 318.224899 479.608859 
L 318.968951 506.521999 
L 319.713002 478.165993 
L 320.457054 499.621335 
L 321.201106 468.709466 
L 321.945157 495.340765 
L 322.689209 479.76592 
L 323.433261 499.205383 
L 324.177312 480.628051 
L 324.921364 482.474553 
L 325.665416 499.069902 
L 326.409467 496.324922 
L 327.153519 489.198706 
L 327.897571 489.698825 
L 328.641622 488.385029 
L 329.385674 457.896603 
L 330.129726 481.76449 
L 330.873777 494.347053 
L 331.617829 491.736731 
L 332.361881 456.220915 
L 333.105932 505.386596 
L 333.849984 487.076328 
L 334.594036 502.937729 
L 335.338087 503.391444 
L 336.082139 486.299531 
L 336.826191 483.091673 
L 337.570242 480.781902 
L 338.314294 481.357018 
L 339.058346 501.03026 
L 339.802397 466.786396 
L 340.546449 497.042071 
L 341.290501 476.868136 
L 342.034552 509.306115 
L 342.778604 494.243634 
L 343.522656 493.904465 
L 344.266707 474.84964 
L 345.010759 469.645481 
L 345.754811 504.068286 
L 346.498862 465.014849 
L 347.242914 494.700996 
L 347.986966 464.481859 
L 348.731017 463.239365 
L 349.475069 515.892985 
L 350.219121 507.982138 
L 350.963172 484.794245 
L 351.707224 506.923643 
L 352.451276 513.649324 
L 353.195327 499.265408 
L 353.939379 489.08753 
L 354.683431 502.923897 
L 355.427482 486.506187 
L 356.171534 486.597749 
L 356.915586 499.550502 
L 357.659637 484.778603 
L 358.403689 497.177699 
L 359.147741 496.461808 
L 359.891792 486.386414 
L 360.635844 486.312895 
L 361.379896 506.367992 
L 362.123947 516.247138 
L 362.867999 497.256664 
L 363.612051 485.392723 
L 364.356103 457.795382 
L 365.844206 497.616961 
L 366.588258 492.400126 
L 367.332309 509.344504 
L 368.076361 492.021389 
L 368.820413 453.552609 
L 369.564464 473.746199 
L 370.308516 485.691975 
L 371.052568 482.260849 
L 371.796619 423.211105 
L 372.540671 515.260735 
L 373.284723 464.94948 
L 374.028774 508.587735 
L 374.772826 481.985998 
L 375.516878 490.453712 
L 376.260929 505.338793 
L 377.004981 469.288168 
L 377.749033 491.192212 
L 378.493084 502.268239 
L 379.237136 455.100794 
L 379.981188 488.829857 
L 380.725239 472.714547 
L 381.469291 499.013173 
L 382.213343 470.673103 
L 383.701446 506.895322 
L 384.445498 495.24619 
L 385.189549 492.826065 
L 385.933601 472.71624 
L 386.677653 482.884152 
L 387.421704 482.23689 
L 388.165756 442.866827 
L 388.909808 506.905361 
L 389.653859 474.581421 
L 390.397911 486.483133 
L 391.141963 524.04604 
L 391.886014 496.682512 
L 392.630066 496.168998 
L 393.374118 462.844659 
L 394.118169 479.560812 
L 394.862221 505.266531 
L 395.606273 516.089698 
L 396.350324 487.579013 
L 397.094376 505.828489 
L 397.838428 489.022981 
L 398.582479 494.590034 
L 399.326531 477.864731 
L 400.070583 488.808553 
L 400.814634 503.276475 
L 401.558686 500.553039 
L 402.302738 483.713374 
L 403.046789 458.815049 
L 403.790841 491.784854 
L 404.534893 512.860922 
L 405.278944 490.771715 
L 406.767048 478.240423 
L 407.511099 497.708535 
L 408.255151 500.902851 
L 408.999203 479.952526 
L 409.743254 502.39497 
L 410.487306 473.599001 
L 411.231358 490.093174 
L 411.975409 512.177677 
L 412.719461 505.226167 
L 413.463513 507.234498 
L 414.207564 516.241745 
L 414.951616 479.50927 
L 415.695668 519.953655 
L 416.439719 469.1775 
L 417.183771 509.656436 
L 417.927823 494.570569 
L 419.415926 511.168322 
L 420.159978 490.125118 
L 420.904029 511.544135 
L 421.648081 467.254859 
L 422.392133 500.953805 
L 423.136184 491.996489 
L 423.880236 526.743172 
L 424.624288 482.832358 
L 425.368339 494.56603 
L 426.112391 449.864544 
L 426.856443 485.15357 
L 427.600494 495.593526 
L 428.344546 463.402442 
L 429.088598 475.091983 
L 429.832649 473.530988 
L 430.576701 488.109903 
L 431.320753 485.475575 
L 432.064805 458.194949 
L 432.808856 468.825285 
L 433.552908 517.511057 
L 434.29696 505.050116 
L 435.041011 494.753586 
L 435.785063 507.38321 
L 436.529115 457.455148 
L 437.273166 503.945875 
L 438.017218 444.214738 
L 438.76127 502.079973 
L 439.505321 491.562869 
L 440.249373 476.618436 
L 440.993425 491.20676 
L 441.737476 479.093588 
L 442.481528 490.440771 
L 443.22558 457.74521 
L 443.969631 461.726981 
L 444.713683 479.858718 
L 445.457735 487.384423 
L 446.201786 483.867605 
L 446.945838 493.420561 
L 447.68989 505.155214 
L 448.433941 482.13329 
L 449.177993 463.107576 
L 449.922045 506.95057 
L 450.666096 477.659251 
L 451.410148 419.844464 
L 452.1542 493.432809 
L 452.898251 451.325629 
L 453.642303 452.912862 
L 454.386355 494.925779 
L 455.130406 486.123042 
L 455.874458 470.305309 
L 456.61851 482.888098 
L 457.362561 511.502049 
L 458.106613 469.873863 
L 458.850665 479.762043 
L 459.594716 457.392851 
L 460.338768 445.652602 
L 461.08282 502.935338 
L 461.826871 480.161377 
L 462.570923 477.086713 
L 463.314975 496.295807 
L 464.059026 485.179799 
L 464.803078 456.811871 
L 465.54713 481.122379 
L 466.291181 487.533913 
L 467.035233 501.849545 
L 467.779285 490.667595 
L 468.523336 487.804914 
L 469.267388 518.87485 
L 470.01144 480.468017 
L 470.755491 471.569144 
L 471.499543 523.923464 
L 472.243595 498.900582 
L 472.987646 485.785899 
L 473.731698 483.475627 
L 474.47575 483.159879 
L 475.219801 461.224792 
L 475.963853 487.876237 
L 476.707905 497.817739 
L 477.451956 484.407047 
L 478.196008 514.130694 
L 478.94006 439.157297 
L 479.684111 467.585782 
L 480.428163 481.285578 
L 481.172215 489.777792 
L 481.916266 476.761192 
L 482.660318 511.166855 
L 483.40437 474.137756 
L 484.148421 487.61735 
L 484.892473 468.138842 
L 485.636525 496.93426 
L 486.380576 485.821856 
L 487.124628 459.982904 
L 487.86868 490.654546 
L 488.612731 490.115661 
L 489.356783 485.81556 
L 490.100835 482.872866 
L 490.844886 500.014585 
L 491.588938 499.495046 
L 492.33299 477.621707 
L 493.077041 500.876553 
L 493.821093 494.451615 
L 494.565145 499.969557 
L 495.309196 492.251074 
L 496.053248 472.206835 
L 496.7973 493.470473 
L 497.541351 483.903548 
L 498.285403 505.216114 
L 499.029455 467.604116 
L 499.773506 508.070238 
L 500.517558 485.184604 
L 501.26161 486.962364 
L 502.005662 475.347233 
L 502.749713 501.797319 
L 503.493765 498.581546 
L 504.237817 479.733351 
L 504.981868 494.08381 
L 505.72592 485.237268 
L 506.469972 481.12346 
L 507.214023 481.884271 
L 507.958075 433.950701 
L 508.702127 496.77467 
L 509.446178 514.564718 
L 510.19023 481.699745 
L 510.934282 498.979252 
L 511.678333 478.038003 
L 512.422385 504.170642 
L 513.166437 498.369749 
L 513.910488 511.103247 
L 514.65454 506.079115 
L 515.398592 497.010495 
L 516.142643 504.793378 
L 516.886695 499.698033 
L 517.630747 506.425928 
L 518.374798 499.504389 
L 519.11885 514.035236 
L 519.862902 469.605045 
L 520.606953 483.019995 
L 521.351005 478.437552 
L 522.095057 493.830189 
L 522.839108 486.313607 
L 523.58316 506.287623 
L 524.327212 452.373615 
L 525.071263 451.850942 
L 525.815315 478.347157 
L 526.559367 509.96297 
L 527.303418 493.22256 
L 528.04747 491.378334 
L 528.791522 492.084084 
L 529.535573 494.559464 
L 530.279625 510.721632 
L 531.023677 504.440491 
L 531.767728 475.253026 
L 532.51178 489.321358 
L 533.255832 479.432461 
L 533.999883 509.183289 
L 534.743935 487.530962 
L 535.487987 492.704138 
L 536.232038 500.945276 
L 536.97609 495.187531 
L 537.720142 498.33579 
L 539.208245 506.585181 
L 540.696348 474.88249 
L 541.4404 473.589465 
L 542.184452 485.589016 
L 542.928503 503.220539 
L 543.672555 502.699137 
L 544.416607 491.390011 
L 545.160658 499.775825 
L 545.90471 506.476778 
L 546.648762 502.568958 
L 547.392813 492.509196 
L 548.136865 507.203224 
L 548.880917 486.534534 
L 549.624968 520.756948 
L 550.36902 509.400836 
L 551.113072 459.588651 
L 551.857123 495.614775 
L 553.345227 485.821201 
L 554.089278 492.178219 
L 554.83333 477.52836 
L 555.577382 506.751541 
L 556.321433 504.948278 
L 557.065485 479.901674 
L 557.809537 511.390064 
L 558.553588 473.832909 
L 559.29764 496.230387 
L 560.041692 505.836745 
L 560.785743 496.903278 
L 561.529795 494.348677 
L 562.273847 473.584419 
L 563.017898 492.70087 
L 563.76195 479.85487 
L 564.506002 478.374088 
L 565.250053 503.037854 
L 565.994105 474.854433 
L 566.738157 467.722622 
L 567.482208 499.334634 
L 568.22626 497.270071 
L 568.970312 506.066079 
L 569.714363 496.64522 
L 570.458415 506.246258 
L 571.202467 505.456378 
L 571.946519 447.079559 
L 572.69057 485.634529 
L 573.434622 467.785262 
L 574.178674 475.536566 
L 574.922725 481.760308 
L 575.666777 512.138406 
L 576.410829 471.715175 
L 577.15488 486.748767 
L 577.898932 480.749133 
L 578.642984 513.627774 
L 579.387035 449.552397 
L 580.131087 493.406815 
L 580.875139 459.039912 
L 581.61919 482.248319 
L 582.363242 474.878374 
L 583.107294 510.670732 
L 583.851345 498.264669 
L 584.595397 510.694832 
L 585.339449 498.517211 
L 586.0835 467.086542 
L 586.827552 481.152372 
L 587.571604 461.214384 
L 588.315655 493.630984 
L 589.059707 494.353562 
L 589.803759 459.674444 
L 590.54781 486.315392 
L 591.291862 524.828551 
L 592.035914 507.682941 
L 592.779965 451.960231 
L 593.524017 496.854548 
L 594.268069 475.319955 
L 595.01212 505.190526 
L 595.756172 483.852608 
L 596.500224 502.929866 
L 597.244275 496.552822 
L 597.988327 476.002179 
L 598.732379 483.025016 
L 599.47643 504.856749 
L 600.220482 501.05284 
L 600.964534 483.706277 
L 601.708585 471.580145 
L 602.452637 495.583528 
L 603.196689 468.385261 
L 603.94074 481.737976 
L 604.684792 499.989971 
L 605.428844 489.272774 
L 606.172895 512.600207 
L 606.916947 509.812944 
L 607.660999 498.343833 
L 608.40505 484.925099 
L 609.149102 442.770545 
L 609.893154 522.483696 
L 610.637205 468.882535 
L 611.381257 490.320041 
L 612.125309 501.743224 
L 612.86936 508.599459 
L 613.613412 480.642412 
L 614.357464 458.82773 
L 615.101515 475.058704 
L 615.845567 459.785681 
L 616.589619 513.270404 
L 617.33367 509.289387 
L 618.077722 469.065755 
L 618.821774 492.7773 
L 619.565825 479.708281 
L 620.309877 487.734751 
L 621.053929 479.216123 
L 621.79798 475.975667 
L 622.542032 445.731077 
L 623.286084 463.31063 
L 624.030135 477.590279 
L 624.774187 498.199017 
L 625.518239 510.335249 
L 626.26229 504.737922 
L 627.006342 470.726818 
L 627.750394 462.77011 
L 628.494445 488.186126 
L 629.238497 486.654125 
L 629.982549 489.706383 
L 630.7266 483.563136 
L 631.470652 493.410753 
L 632.214704 468.07938 
L 632.958755 515.81168 
L 633.702807 450.800655 
L 634.446859 513.186969 
L 635.19091 481.944881 
L 635.934962 488.599646 
L 636.679014 463.497062 
L 637.423065 492.039229 
L 638.167117 505.27689 
L 638.911169 474.754133 
L 639.655221 504.789465 
L 640.399272 483.781341 
L 641.143324 482.775584 
L 641.887376 447.145001 
L 642.631427 512.915856 
L 643.375479 489.820879 
L 644.119531 473.319663 
L 644.863582 494.338224 
L 645.607634 482.048698 
L 646.351686 482.420109 
L 647.095737 458.370343 
L 647.839789 476.418596 
L 648.583841 459.697588 
L 649.327892 467.989239 
L 650.071944 469.258097 
L 650.815996 482.602399 
L 651.560047 479.802486 
L 652.304099 485.388551 
L 653.792202 500.424265 
L 654.536254 522.008096 
L 656.024357 463.057064 
L 656.768409 512.624962 
L 657.512461 480.892841 
L 658.256512 503.218585 
L 659.000564 490.828469 
L 659.744616 503.479595 
L 660.488667 492.312149 
L 661.232719 477.884259 
L 661.976771 508.43053 
L 662.720822 495.761218 
L 663.464874 478.353208 
L 664.208926 509.026285 
L 664.952977 515.095039 
L 665.697029 488.162926 
L 666.441081 501.942451 
L 667.185132 500.433799 
L 667.929184 486.016921 
L 668.673236 476.56135 
L 669.417287 472.70305 
L 670.161339 471.753885 
L 670.905391 447.20128 
L 671.649442 484.110923 
L 672.393494 505.259999 
L 673.137546 502.32219 
L 673.881597 481.972228 
L 674.625649 507.865332 
L 675.369701 490.362987 
L 676.113752 487.078647 
L 676.857804 483.228618 
L 677.601856 494.597411 
L 678.345907 452.817818 
L 679.089959 460.309763 
L 679.834011 501.84183 
L 680.578062 457.769784 
L 681.322114 487.021781 
L 682.066166 507.235535 
L 682.810217 500.091529 
L 684.298321 470.53436 
L 685.042372 515.144717 
L 685.786424 480.266845 
L 686.530476 504.623086 
L 687.274527 495.435827 
L 688.762631 467.298451 
L 689.506682 486.300916 
L 690.250734 460.788979 
L 690.994786 465.051496 
L 691.738837 502.862294 
L 692.482889 485.912613 
L 693.226941 498.201485 
L 693.970992 479.749097 
L 694.715044 498.041895 
L 695.459096 487.769315 
L 696.203147 436.896426 
L 696.947199 464.754541 
L 697.691251 464.610118 
L 698.435302 487.674565 
L 699.179354 496.058157 
L 699.923406 479.064612 
L 700.667457 484.86289 
L 701.411509 501.80068 
L 702.155561 480.38103 
L 702.899612 499.736018 
L 703.643664 497.549896 
L 704.387716 484.524075 
L 705.131767 515.282778 
L 705.875819 497.70769 
L 706.619871 474.654878 
L 707.363922 494.055862 
L 708.107974 466.951001 
L 708.852026 468.773904 
L 709.596078 499.730061 
L 710.340129 485.077624 
L 711.084181 456.938657 
L 711.828233 487.05939 
L 712.572284 486.866945 
L 713.316336 495.935675 
L 714.060388 474.96489 
L 714.804439 482.429136 
L 715.548491 476.488069 
L 716.292543 486.042273 
L 717.036594 466.202922 
L 717.780646 501.699098 
L 718.524698 463.5758 
L 719.268749 501.494101 
L 720.012801 476.625848 
L 720.756853 505.444749 
L 721.500904 495.517234 
L 722.244956 467.844384 
L 723.733059 504.64191 
L 724.477111 491.77751 
L 725.221163 450.315845 
L 725.965214 474.841935 
L 726.709266 472.740388 
L 727.453318 494.612245 
L 728.197369 476.069153 
L 728.941421 462.332441 
L 729.685473 508.019002 
L 730.429524 476.603377 
L 731.173576 514.414831 
L 731.917628 486.654743 
L 732.661679 504.718924 
L 733.405731 475.592188 
L 734.149783 503.475482 
L 734.893834 459.884511 
L 735.637886 496.871736 
L 736.381938 505.384719 
L 737.125989 485.923158 
L 737.870041 479.026608 
L 738.614093 496.607739 
L 739.358144 477.159018 
L 740.102196 473.222404 
L 740.846248 491.904879 
L 741.590299 495.321493 
L 742.334351 505.415554 
L 743.078403 471.017597 
L 743.822454 509.356883 
L 744.566506 480.932125 
L 745.310558 512.47823 
L 746.054609 514.933396 
L 746.798661 461.502268 
L 747.542713 487.454758 
L 748.286764 467.795198 
L 749.030816 492.773318 
L 749.774868 510.169325 
L 750.518919 479.975959 
L 751.262971 482.529716 
L 752.007023 512.556872 
L 752.751074 475.481965 
L 753.495126 481.152425 
L 754.239178 495.415472 
L 754.983229 515.747513 
L 755.727281 486.784185 
L 756.471333 506.011257 
L 757.215384 494.850238 
L 757.959436 485.650397 
L 758.703488 517.46935 
L 760.191591 499.0572 
L 760.935643 507.358217 
L 761.679694 505.273419 
L 762.423746 497.667367 
L 763.167798 461.126938 
L 763.911849 478.247943 
L 764.655901 486.410382 
L 765.399953 488.271255 
L 766.144004 478.450067 
L 766.888056 445.227141 
L 767.632108 489.940349 
L 768.376159 499.344739 
L 769.120211 518.290383 
L 769.864263 463.740065 
L 770.608314 507.165893 
L 771.352366 472.01422 
L 772.096418 514.753524 
L 772.840469 482.967707 
L 773.584521 488.894767 
L 774.328573 508.281709 
L 775.072624 481.31262 
L 775.816676 482.211988 
L 777.304779 500.763026 
L 778.048831 490.606289 
L 778.792883 506.960251 
L 779.536935 480.857198 
L 780.280986 490.745251 
L 781.025038 469.073334 
L 781.76909 467.874257 
L 782.513141 499.667009 
L 784.001245 478.697189 
L 784.745296 507.188015 
L 785.489348 490.236785 
L 786.2334 511.312182 
L 786.977451 490.825507 
L 787.721503 457.54626 
L 788.465555 483.009925 
L 789.209606 476.094799 
L 789.953658 489.667969 
L 790.69771 483.489369 
L 791.441761 467.293065 
L 792.185813 467.32562 
L 792.929865 488.52779 
L 793.673916 484.328488 
L 794.417968 477.504683 
L 795.16202 462.166943 
L 795.906071 525.576272 
L 796.650123 492.43073 
L 797.394175 473.090859 
L 798.138226 478.492162 
L 798.882278 494.658548 
L 799.62633 481.951044 
L 800.370381 504.257015 
L 801.114433 478.351858 
L 801.858485 491.29885 
L 802.602536 497.467951 
L 803.346588 476.44579 
L 804.09064 476.573367 
L 804.834691 473.134732 
L 805.578743 501.601541 
L 806.322795 481.656577 
L 807.066846 467.67389 
L 807.810898 450.366582 
L 808.55495 447.926182 
L 809.299001 479.811639 
L 810.043053 471.109992 
L 810.787105 480.729505 
L 811.531156 491.800666 
L 812.275208 478.905709 
L 813.01926 475.143951 
L 813.763311 485.069401 
L 814.507363 481.711166 
L 815.251415 491.353339 
L 815.995466 472.334339 
L 817.48357 510.43369 
L 818.971673 437.63441 
L 819.715725 502.787747 
L 820.459776 476.060826 
L 821.203828 484.958343 
L 821.94788 501.924565 
L 822.691931 474.808548 
L 823.435983 479.690287 
L 824.180035 458.41292 
L 824.924086 487.056091 
L 825.668138 480.963794 
L 826.41219 507.085612 
L 827.156241 483.588205 
L 828.644345 490.059421 
L 829.388396 480.742738 
L 830.132448 466.474426 
L 830.8765 474.145065 
L 831.620551 494.522943 
L 832.364603 487.853355 
L 833.108655 501.495653 
L 833.852706 487.791716 
L 834.596758 480.299146 
L 835.34081 501.634638 
L 836.084861 506.654648 
L 836.828913 482.326907 
L 837.572965 515.08167 
L 838.317016 481.572363 
L 839.061068 483.771545 
L 839.80512 463.785425 
L 840.549171 504.378028 
L 841.293223 461.26601 
L 842.037275 450.581758 
L 842.781326 501.837074 
L 843.525378 465.624154 
L 844.26943 501.097557 
L 845.013481 473.203607 
L 845.757533 479.5024 
L 846.501585 510.13993 
L 847.245637 500.328067 
L 847.989688 499.415188 
L 848.73374 490.275671 
L 849.477792 456.771534 
L 850.221843 451.848534 
L 850.965895 488.804554 
L 851.709947 515.182951 
L 852.453998 520.154764 
L 853.19805 485.303945 
L 853.942102 509.344498 
L 854.686153 493.467994 
L 855.430205 515.890435 
L 856.174257 505.064112 
L 856.918308 465.007787 
L 857.66236 492.713877 
L 858.406412 501.821121 
L 859.150463 517.591275 
L 859.894515 488.109388 
L 860.638567 467.92708 
L 861.382618 529.575006 
L 862.12667 487.722747 
L 862.870722 513.588222 
L 863.614773 482.134607 
L 864.358825 485.18878 
L 865.102877 492.404994 
L 865.846928 472.824621 
L 866.59098 492.620068 
L 867.335032 475.231526 
L 868.079083 469.523992 
L 868.823135 515.436028 
L 869.567187 479.197628 
L 870.311238 503.834236 
L 871.05529 508.977024 
L 871.799342 501.838231 
L 872.543393 460.595676 
L 873.287445 492.2692 
L 874.031497 504.05989 
L 874.775548 503.148939 
L 875.5196 496.606428 
L 876.263652 481.999355 
L 877.007703 493.473496 
L 877.751755 513.152475 
L 878.495807 481.037837 
L 879.239858 506.485751 
L 879.98391 505.896613 
L 880.727962 512.589109 
L 881.472013 506.628533 
L 882.216065 492.896895 
L 882.960117 484.732805 
L 883.704168 509.973565 
L 884.44822 502.743913 
L 885.192272 479.357118 
L 885.936323 486.207497 
L 886.680375 474.29561 
L 887.424427 513.715883 
L 888.168478 487.389291 
L 888.91253 475.980628 
L 889.656582 492.452057 
L 890.400633 472.485412 
L 891.144685 470.445436 
L 891.888737 450.005797 
L 892.632788 504.620064 
L 893.37684 474.026213 
L 894.120892 497.680102 
L 894.864943 485.071229 
L 895.608995 462.011536 
L 896.353047 488.911263 
L 897.097098 472.622866 
L 897.84115 500.67591 
L 898.585202 468.998089 
L 899.329253 483.280047 
L 900.073305 479.090489 
L 900.817357 486.023046 
L 901.561408 503.282313 
L 902.30546 481.857467 
L 903.049512 501.09584 
L 903.793563 497.303164 
L 904.537615 501.583898 
L 905.281667 443.849058 
L 906.025718 485.84172 
L 906.76977 478.020094 
L 907.513822 456.911992 
L 908.257873 502.172172 
L 909.001925 498.397089 
L 909.745977 491.068088 
L 910.490028 485.096167 
L 911.23408 493.222052 
L 911.978132 480.688151 
L 913.466235 510.455668 
L 914.210287 493.24082 
L 914.954338 500.777731 
L 915.69839 521.08202 
L 916.442442 482.067533 
L 917.186494 490.706564 
L 917.930545 453.264538 
L 918.674597 472.372666 
L 919.418649 495.932355 
L 920.1627 457.96998 
L 920.906752 486.032588 
L 921.650804 509.533477 
L 922.394855 478.805698 
L 923.138907 485.926667 
L 923.882959 489.068064 
L 924.62701 508.170708 
L 925.371062 480.631896 
L 926.115114 501.351002 
L 926.859165 457.56084 
L 927.603217 461.708168 
L 928.347269 504.349738 
L 929.09132 492.036602 
L 929.835372 521.768904 
L 930.579424 516.781569 
L 931.323475 464.865356 
L 932.067527 524.060225 
L 932.811579 512.098413 
L 933.55563 488.832527 
L 934.299682 500.131324 
L 935.043734 518.260664 
L 935.787785 482.738819 
L 936.531837 506.895214 
L 938.01994 491.227105 
L 938.763992 473.356093 
L 939.508044 499.845305 
L 940.252095 497.363914 
L 940.996147 499.842416 
L 941.740199 483.404794 
L 942.48425 526.400264 
L 943.228302 506.209453 
L 943.972354 513.641938 
L 944.716405 493.815007 
L 945.460457 496.965097 
L 946.94856 479.492622 
L 947.692612 498.125328 
L 948.436664 477.848238 
L 949.180715 474.029396 
L 949.924767 486.410587 
L 950.668819 472.684648 
L 951.41287 493.471009 
L 952.156922 490.173568 
L 952.900974 502.970298 
L 954.389077 480.038229 
L 955.133129 487.859664 
L 955.87718 504.084245 
L 956.621232 497.340617 
L 957.365284 507.387726 
L 958.109335 492.077526 
L 958.853387 494.879076 
L 959.597439 447.566761 
L 960.34149 487.052017 
L 961.085542 493.775606 
L 961.829594 451.094162 
L 962.573645 490.751133 
L 963.317697 478.013419 
L 964.061749 485.699392 
L 964.8058 512.997672 
L 965.549852 466.015889 
L 966.293904 499.47669 
L 967.037955 500.95869 
L 967.782007 495.358939 
L 968.526059 461.106054 
L 969.27011 476.089625 
L 970.014162 434.385421 
L 970.758214 500.165359 
L 971.502265 476.506064 
L 972.246317 477.868639 
L 972.990369 482.531351 
L 973.73442 473.490077 
L 974.478472 477.430504 
L 975.222524 472.461709 
L 975.966575 521.203803 
L 976.710627 491.903862 
L 977.454679 533.256873 
L 978.19873 490.003456 
L 978.942782 505.046392 
L 979.686834 473.473667 
L 980.430885 497.011094 
L 981.174937 499.87801 
L 981.918989 510.25872 
L 982.66304 488.394086 
L 983.407092 499.004875 
L 984.151144 481.71913 
L 984.895195 500.694794 
L 985.639247 509.057026 
L 986.383299 494.15828 
L 987.127351 494.856022 
L 987.871402 516.608651 
L 988.615454 478.356671 
L 989.359506 491.046101 
L 990.103557 488.592462 
L 990.847609 465.813832 
L 991.591661 485.530279 
L 992.335712 473.172109 
L 993.079764 487.16249 
L 993.823816 474.818598 
L 994.567867 516.92336 
L 995.311919 510.535237 
L 996.055971 449.293037 
L 996.800022 496.782148 
L 997.544074 482.016838 
L 998.288126 492.02997 
L 999.032177 491.713078 
L 999.776229 450.41711 
L 1000.520281 511.706616 
L 1001.264332 466.384308 
L 1002.008384 462.605461 
L 1002.752436 478.981182 
L 1003.496487 478.842286 
L 1004.240539 495.805517 
L 1004.984591 490.798136 
L 1005.728642 510.527775 
L 1006.472694 497.43187 
L 1007.216746 499.406288 
L 1007.960797 449.992784 
L 1008.704849 499.996574 
L 1009.448901 493.480803 
L 1010.192952 501.173338 
L 1010.937004 495.960685 
L 1011.681056 486.186465 
L 1012.425107 497.161399 
L 1013.169159 480.508809 
L 1013.913211 468.515892 
L 1014.657262 486.30932 
L 1015.401314 452.770067 
L 1016.145366 500.324216 
L 1016.889417 492.418452 
L 1017.633469 504.185693 
L 1018.377521 477.9967 
L 1019.121572 471.940432 
L 1019.865624 469.204828 
L 1020.609676 502.974685 
L 1021.353727 521.853887 
L 1022.097779 511.007888 
L 1022.841831 502.384808 
L 1023.585882 527.090935 
L 1024.329934 472.97716 
L 1025.073986 508.150757 
L 1025.818037 471.943433 
L 1026.562089 501.099198 
L 1027.306141 495.485774 
L 1028.050192 478.257546 
L 1028.794244 487.776932 
L 1029.538296 492.463205 
L 1030.282347 510.336671 
L 1031.770451 480.48893 
L 1032.514502 511.194502 
L 1033.258554 480.924986 
L 1034.002606 491.183726 
L 1034.746657 495.962529 
L 1035.490709 496.525954 
L 1036.234761 533.13996 
L 1036.978812 511.661225 
L 1037.722864 494.871911 
L 1038.466916 483.407059 
L 1039.210967 468.39489 
L 1039.955019 480.694501 
L 1040.699071 510.527604 
L 1041.443122 490.713223 
L 1042.187174 496.512966 
L 1042.931226 496.123503 
L 1043.675277 488.798572 
L 1044.419329 495.850276 
L 1045.163381 498.509432 
L 1045.907432 509.846035 
L 1046.651484 477.53647 
L 1047.395536 466.756788 
L 1048.139587 508.669146 
L 1048.883639 484.154194 
L 1049.627691 473.752145 
L 1050.371742 460.919124 
L 1051.115794 461.044591 
L 1051.859846 483.347377 
L 1052.603897 464.470178 
L 1053.347949 503.090632 
L 1054.092001 491.821279 
L 1054.836053 460.521974 
L 1055.580104 459.68011 
L 1056.324156 481.96806 
L 1057.068208 498.178243 
L 1057.812259 495.848087 
L 1058.556311 496.741112 
L 1059.300363 492.358694 
L 1060.044414 487.181345 
L 1060.788466 495.689399 
L 1061.532518 464.91242 
L 1062.276569 489.58152 
L 1063.020621 501.1976 
L 1063.764673 470.470254 
L 1064.508724 495.634234 
L 1065.252776 471.613355 
L 1065.996828 481.071858 
L 1066.740879 488.896683 
L 1067.484931 523.786369 
L 1068.228983 476.792834 
L 1068.973034 494.585936 
L 1069.717086 492.041508 
L 1070.461138 494.37422 
L 1071.205189 480.629566 
L 1071.949241 476.780618 
L 1073.437344 490.45822 
L 1074.181396 486.902247 
L 1074.925448 505.567067 
L 1075.669499 484.317596 
L 1076.413551 484.511124 
L 1077.157603 500.90344 
L 1077.901654 455.632356 
L 1078.645706 520.841969 
L 1079.389758 480.171749 
L 1080.133809 486.025043 
L 1080.877861 504.876665 
L 1081.621913 490.372915 
L 1082.365964 488.879725 
L 1083.854068 505.102182 
L 1085.342171 484.845394 
L 1086.086223 501.847566 
L 1086.830274 499.323453 
L 1087.574326 483.646083 
L 1088.318378 510.837535 
L 1089.062429 489.817523 
L 1089.806481 459.102527 
L 1090.550533 461.559467 
L 1091.294584 482.010967 
L 1092.038636 492.46647 
L 1092.782688 488.251457 
L 1093.526739 497.734596 
L 1094.270791 495.591986 
L 1095.014843 505.964227 
L 1095.758894 499.230999 
L 1096.502946 503.488863 
L 1097.246998 491.513355 
L 1097.991049 486.71578 
L 1098.735101 465.760256 
L 1099.479153 496.145375 
L 1100.223204 502.731138 
L 1100.967256 522.199034 
L 1101.711308 449.088262 
L 1102.455359 477.44638 
L 1103.199411 444.642259 
L 1103.943463 486.197121 
L 1104.687514 518.275813 
L 1105.431566 503.852235 
L 1106.175618 500.079622 
L 1107.663721 478.419741 
L 1108.407773 511.358515 
L 1109.151824 526.035039 
L 1109.895876 485.329251 
L 1110.639928 482.044338 
L 1111.383979 495.083351 
L 1112.128031 523.633874 
L 1113.616134 485.14337 
L 1114.360186 483.248575 
L 1115.104238 506.98045 
L 1115.848289 483.994097 
L 1116.592341 499.163504 
L 1117.336393 506.710412 
L 1118.080444 475.632123 
L 1118.824496 481.332168 
L 1119.568548 514.769117 
L 1120.312599 489.666433 
L 1121.056651 496.45893 
L 1121.800703 491.845258 
L 1122.544754 483.216193 
L 1123.288806 486.214811 
L 1124.77691 498.298507 
L 1125.520961 457.107975 
L 1126.265013 483.7918 
L 1127.009065 483.436817 
L 1127.753116 477.777173 
L 1128.497168 492.550962 
L 1129.24122 443.887411 
L 1129.985271 468.165163 
L 1130.729323 482.230908 
L 1131.473375 487.008357 
L 1132.217426 514.227659 
L 1132.961478 470.399948 
L 1133.70553 486.015737 
L 1134.449581 481.958034 
L 1135.193633 485.488372 
L 1135.937685 478.253171 
L 1136.681736 457.89747 
L 1137.425788 459.659804 
L 1138.16984 500.123858 
L 1138.913891 449.056042 
L 1139.657943 477.172409 
L 1140.401995 468.469667 
L 1141.890098 497.02167 
L 1142.63415 483.256296 
L 1143.378201 477.843401 
L 1144.122253 465.741839 
L 1144.866305 437.940467 
L 1146.354408 494.9889 
L 1147.09846 498.99003 
L 1147.842511 465.956543 
L 1148.586563 506.656867 
L 1149.330615 429.999354 
L 1150.074666 502.268722 
L 1150.818718 503.799598 
L 1151.56277 499.067166 
L 1152.306821 509.988984 
L 1153.050873 496.112109 
L 1153.794925 486.678303 
L 1154.538976 447.587167 
L 1155.283028 457.359994 
L 1156.02708 491.606394 
L 1156.771131 493.451085 
L 1157.515183 490.473093 
L 1158.259235 511.246791 
L 1159.003286 498.460788 
L 1159.747338 518.734999 
L 1160.49139 486.800262 
L 1161.235441 498.980481 
L 1161.979493 473.031434 
L 1162.723545 470.885121 
L 1163.467596 486.772819 
L 1164.211648 494.333758 
L 1164.9557 477.153178 
L 1166.443803 491.339448 
L 1167.187855 515.639866 
L 1167.931906 491.233949 
L 1168.675958 478.520985 
L 1169.42001 476.273085 
L 1170.164061 516.568561 
L 1170.908113 480.832821 
L 1171.652165 456.300072 
L 1172.396216 488.98393 
L 1173.140268 496.618003 
L 1173.88432 483.568885 
L 1174.628371 516.85797 
L 1175.372423 491.61034 
L 1176.116475 489.478008 
L 1177.604578 474.975179 
L 1178.34863 482.073712 
L 1179.092681 476.031073 
L 1179.836733 518.164674 
L 1180.580785 483.735501 
L 1181.324836 504.560483 
L 1182.068888 483.944587 
L 1182.81294 483.725914 
L 1183.556991 484.365679 
L 1184.301043 502.678006 
L 1185.045095 496.476807 
L 1185.789146 516.050186 
L 1186.533198 478.569566 
L 1187.27725 489.420206 
L 1188.021301 508.300543 
L 1188.765353 485.846598 
L 1189.509405 490.969432 
L 1190.253456 510.833762 
L 1190.997508 515.595866 
L 1191.74156 518.417912 
L 1192.485612 488.681651 
L 1193.229663 499.673772 
L 1193.973715 476.935599 
L 1194.717767 509.718501 
L 1195.461818 488.77859 
L 1195.461818 488.77859 
" style="fill:none;stroke:#1f77b4;stroke-linecap:square;stroke-width:1.5;"/>
   </g>
   <g id="line2d_17">
    <path clip-path="url(#pd1452d3432)" d="M 221.498182 334.001507 
L 222.242233 279.529056 
L 222.986285 339.933371 
L 223.730337 412.166668 
L 224.474388 286.499606 
L 225.21844 420.298683 
L 225.962492 328.241119 
L 226.706544 210.352596 
L 227.450595 345.525385 
L 228.194647 415.53494 
L 229.68275 315.396719 
L 230.426802 438.956227 
L 231.170854 384.080983 
L 231.914905 365.792416 
L 232.658957 396.197547 
L 233.403009 386.479376 
L 234.14706 404.269869 
L 234.891112 451.17123 
L 235.635164 423.430506 
L 236.379215 435.598104 
L 237.867319 293.718406 
L 238.61137 390.579446 
L 239.355422 340.143117 
L 240.099474 403.298743 
L 240.843525 439.816477 
L 241.587577 403.642487 
L 242.331629 435.231795 
L 243.07568 362.116446 
L 243.819732 351.539453 
L 244.563784 413.400598 
L 245.307835 195.607099 
L 246.051887 423.575872 
L 246.795939 401.425364 
L 247.53999 428.258521 
L 248.284042 375.552123 
L 249.028094 347.944436 
L 249.772145 445.023482 
L 250.516197 378.658226 
L 251.260249 463.386433 
L 252.0043 277.694512 
L 252.748352 432.554083 
L 253.492404 309.334238 
L 254.236455 274.756597 
L 254.980507 313.465627 
L 255.724559 438.850598 
L 256.46861 409.502804 
L 257.212662 368.764656 
L 257.956714 321.191186 
L 258.700765 363.785363 
L 259.444817 486.772169 
L 260.188869 366.697088 
L 260.93292 374.844835 
L 261.676972 410.794604 
L 262.421024 301.35268 
L 263.165075 457.306091 
L 263.909127 412.967274 
L 264.653179 472.358593 
L 265.39723 361.585763 
L 266.141282 330.695102 
L 266.885334 436.468782 
L 267.629385 331.163293 
L 268.373437 434.479906 
L 269.117489 427.065018 
L 269.86154 253.748295 
L 270.605592 380.475952 
L 272.093695 466.861255 
L 272.837747 323.080118 
L 274.32585 402.777964 
L 275.069902 283.635002 
L 275.813954 288.190143 
L 276.558005 401.497651 
L 277.302057 434.947602 
L 278.046109 332.554024 
L 278.79016 410.651872 
L 279.534212 365.377989 
L 280.278264 366.156933 
L 281.022315 365.451806 
L 281.766367 336.499029 
L 283.25447 440.762271 
L 283.998522 246.730962 
L 284.742574 424.183685 
L 285.486625 435.423812 
L 286.230677 465.993394 
L 286.974729 262.248859 
L 287.71878 474.806392 
L 288.462832 306.745373 
L 289.206884 449.406423 
L 289.950935 459.393906 
L 291.439039 354.681043 
L 292.18309 367.150004 
L 292.927142 366.082216 
L 293.671194 412.587516 
L 294.415246 353.352026 
L 295.159297 402.864578 
L 295.903349 398.529605 
L 296.647401 339.33093 
L 297.391452 346.878546 
L 298.135504 303.256441 
L 298.879556 377.94917 
L 299.623607 360.585864 
L 300.367659 291.73879 
L 301.111711 332.550025 
L 301.855762 350.165124 
L 302.599814 394.211556 
L 303.343866 384.217423 
L 304.087917 407.801473 
L 304.831969 402.941526 
L 305.576021 362.332584 
L 306.320072 340.991421 
L 307.064124 456.777858 
L 307.808176 354.235088 
L 308.552227 367.33916 
L 309.296279 433.624312 
L 310.040331 295.435257 
L 310.784382 346.179341 
L 311.528434 202.434986 
L 312.272486 348.778438 
L 313.016537 321.405367 
L 313.760589 328.299115 
L 314.504641 310.2289 
L 315.248692 459.059722 
L 315.992744 301.056754 
L 316.736796 395.863544 
L 317.480847 284.33374 
L 318.224899 348.793898 
L 318.968951 433.377281 
L 319.713002 344.712437 
L 320.457054 412.299594 
L 321.201106 314.664455 
L 321.945157 398.779413 
L 322.689209 350.110963 
L 323.433261 411.02668 
L 324.177312 352.719499 
L 324.921364 358.412211 
L 325.665416 409.143175 
L 326.409467 400.378455 
L 327.153519 377.624447 
L 327.897571 378.979517 
L 328.641622 376.499575 
L 329.385674 281.547489 
L 330.129726 357.368204 
L 330.873777 397.076667 
L 331.617829 388.913932 
L 332.361881 277.852421 
L 333.105932 432.417098 
L 333.849984 375.54348 
L 334.594036 426.098315 
L 335.338087 427.200955 
L 336.082139 374.492542 
L 336.826191 364.615223 
L 337.570242 357.503209 
L 338.314294 359.221199 
L 339.058346 419.814788 
L 339.802397 314.343684 
L 340.546449 407.462309 
L 341.290501 344.80761 
L 342.034552 445.018258 
L 342.778604 398.485737 
L 343.522656 396.962373 
L 344.266707 337.900037 
L 345.010759 324.135695 
L 345.754811 428.433745 
L 346.498862 302.131802 
L 347.242914 396.236888 
L 347.986966 300.442224 
L 348.731017 297.133581 
L 349.475069 464.003145 
L 350.219121 438.928638 
L 350.963172 368.03331 
L 351.707224 437.668034 
L 352.451276 458.44366 
L 353.195327 414.011746 
L 353.939379 382.88841 
L 354.683431 425.832952 
L 355.427482 373.489615 
L 356.171534 375.079219 
L 356.915586 414.75056 
L 357.659637 369.068463 
L 358.403689 407.412666 
L 359.147741 403.340805 
L 359.891792 371.807124 
L 360.635844 372.361655 
L 361.379896 433.885316 
L 362.123947 465.762971 
L 362.867999 406.539277 
L 363.612051 369.54039 
L 364.356103 284.396869 
L 365.844206 408.715889 
L 366.588258 392.88117 
L 367.332309 445.594755 
L 368.076361 392.336571 
L 368.820413 274.068153 
L 369.564464 337.3519 
L 370.308516 372.404276 
L 371.052568 361.611856 
L 371.796619 179.126748 
L 372.540671 463.009375 
L 373.284723 306.762741 
L 374.028774 442.285705 
L 374.772826 360.048938 
L 375.516878 385.457573 
L 376.260929 432.348637 
L 377.004981 319.153915 
L 377.749033 386.590337 
L 378.493084 421.36685 
L 379.237136 273.270506 
L 379.981188 379.111521 
L 380.725239 328.830139 
L 381.469291 412.772686 
L 382.213343 320.533467 
L 383.701446 435.745648 
L 384.445498 399.117283 
L 385.189549 391.654159 
L 385.933601 326.322923 
L 386.677653 357.971086 
L 387.421704 356.847134 
L 388.165756 231.251828 
L 388.909808 434.695847 
L 389.653859 332.005922 
L 390.397911 369.452039 
L 391.141963 489.316783 
L 391.886014 402.691868 
L 392.630066 400.416258 
L 393.374118 295.329531 
L 394.118169 348.303019 
L 394.862221 429.764443 
L 395.606273 463.732047 
L 396.350324 372.678505 
L 397.094376 430.952803 
L 397.838428 376.705985 
L 398.582479 395.120973 
L 399.326531 341.820775 
L 400.070583 376.696549 
L 400.814634 422.261968 
L 401.558686 413.384794 
L 402.302738 358.762714 
L 403.046789 276.895799 
L 403.790841 383.800662 
L 404.534893 452.004927 
L 405.278944 380.522044 
L 406.022996 362.745655 
L 406.767048 339.561413 
L 407.511099 401.809414 
L 408.255151 411.693473 
L 408.999203 344.133235 
L 409.743254 417.27316 
L 410.487306 323.427096 
L 411.231358 377.181606 
L 411.975409 449.261017 
L 412.719461 426.141077 
L 413.463513 432.519716 
L 414.207564 462.95276 
L 414.951616 344.093816 
L 415.695668 474.963757 
L 416.439719 313.959062 
L 417.183771 443.657803 
L 417.927823 397.165848 
L 419.415926 448.90951 
L 420.159978 382.545556 
L 420.904029 450.094713 
L 421.648081 310.674495 
L 422.392133 416.609919 
L 423.136184 390.264711 
L 423.880236 498.03858 
L 424.624288 360.279099 
L 425.368339 397.133392 
L 426.112391 256.730495 
L 426.856443 367.355597 
L 427.600494 398.572453 
L 428.344546 296.077386 
L 429.088598 333.478463 
L 429.832649 327.510915 
L 430.576701 374.080345 
L 431.320753 365.665509 
L 432.064805 280.414463 
L 432.808856 314.061257 
L 433.552908 468.497396 
L 434.29696 429.77214 
L 435.041011 397.34631 
L 435.785063 437.119521 
L 436.529115 279.886067 
L 437.273166 425.738258 
L 438.017218 235.55318 
L 438.76127 419.974011 
L 439.505321 387.783236 
L 440.249373 337.893504 
L 440.993425 384.373362 
L 441.737476 345.779585 
L 442.481528 380.989772 
L 443.22558 276.633584 
L 443.969631 286.694913 
L 444.713683 344.243015 
L 445.457735 368.722631 
L 446.201786 357.285937 
L 446.945838 388.352152 
L 447.68989 427.002135 
L 448.433941 351.819773 
L 449.177993 291.298302 
L 449.922045 432.129799 
L 450.666096 337.845374 
L 451.410148 150.525462 
L 452.1542 388.951702 
L 452.898251 252.382436 
L 453.642303 257.100512 
L 454.386355 391.842944 
L 455.130406 362.942678 
L 455.874458 310.160273 
L 456.61851 351.624335 
L 457.362561 445.915889 
L 458.106613 309.356311 
L 458.850665 343.910526 
L 459.594716 272.008602 
L 460.338768 232.595284 
L 461.08282 419.201352 
L 461.826871 345.083497 
L 462.570923 335.077003 
L 463.314975 399.05964 
L 464.059026 363.304387 
L 464.803078 273.61378 
L 465.54713 351.42406 
L 466.291181 373.758929 
L 467.035233 419.073632 
L 467.779285 383.678287 
L 468.523336 374.276993 
L 469.267388 472.906168 
L 470.01144 350.659364 
L 470.755491 316.106171 
L 471.499543 487.187387 
L 472.243595 405.254965 
L 472.987646 362.313558 
L 473.731698 352.518971 
L 474.47575 353.163093 
L 475.219801 277.982096 
L 475.963853 366.558396 
L 476.707905 399.883847 
L 477.451956 355.393875 
L 478.196008 454.002074 
L 478.94006 204.924612 
L 479.684111 299.248624 
L 480.428163 343.033641 
L 481.172215 372.854203 
L 481.916266 329.585546 
L 482.660318 443.967175 
L 483.40437 320.863935 
L 484.148421 363.940459 
L 484.892473 298.453096 
L 485.636525 394.584416 
L 486.380576 359.816234 
L 487.124628 274.158538 
L 487.86868 375.991457 
L 488.612731 374.202307 
L 489.356783 361.260351 
L 490.100835 352.821176 
L 490.844886 410.236594 
L 491.588938 408.747559 
L 492.33299 338.048495 
L 493.077041 413.27327 
L 493.821093 392.48988 
L 494.565145 411.165515 
L 495.309196 387.0311 
L 496.053248 324.251705 
L 496.7973 390.271497 
L 497.541351 361.273118 
L 498.285403 429.113148 
L 499.029455 309.390396 
L 499.773506 438.108492 
L 500.517558 365.53199 
L 501.26161 370.489118 
L 502.005662 333.196035 
L 502.749713 416.814462 
L 503.493765 406.459352 
L 504.237817 345.766279 
L 504.981868 393.953865 
L 505.72592 365.995581 
L 506.469972 353.048717 
L 507.214023 356.754251 
L 507.958075 207.521421 
L 508.702127 404.38661 
L 509.446178 460.133503 
L 510.19023 356.132074 
L 510.934282 410.666105 
L 511.678333 343.768817 
L 512.422385 426.460328 
L 513.166437 408.012809 
L 513.910488 448.33343 
L 514.65454 432.424515 
L 515.398592 402.812965 
L 516.142643 428.014513 
L 516.886695 412.08557 
L 517.630747 433.031406 
L 518.374798 411.573188 
L 519.11885 457.596741 
L 519.862902 316.872997 
L 520.606953 359.447749 
L 521.351005 343.763356 
L 522.095057 392.828987 
L 522.839108 366.589776 
L 523.58316 431.246659 
L 524.327212 257.595032 
L 525.071263 255.911554 
L 525.815315 341.530995 
L 526.559367 442.41005 
L 527.303418 388.331404 
L 528.04747 381.988405 
L 528.791522 382.988497 
L 529.535573 391.090909 
L 530.279625 443.992917 
L 531.023677 424.769824 
L 531.767728 331.468832 
L 532.51178 377.889188 
L 533.255832 347.338355 
L 533.999883 442.158116 
L 534.743935 373.528901 
L 535.487987 389.925797 
L 536.232038 417.068226 
L 536.97609 398.443556 
L 537.720142 407.805099 
L 538.464193 423.874983 
L 539.208245 435.745061 
L 540.696348 336.984839 
L 541.4404 332.23875 
L 542.184452 369.324347 
L 542.928503 424.961312 
L 543.672555 423.172042 
L 544.416607 387.552191 
L 545.160658 413.823267 
L 545.90471 434.816013 
L 546.648762 422.952419 
L 547.392813 391.809933 
L 548.136865 437.47315 
L 548.880917 374.359472 
L 549.624968 480.375928 
L 550.36902 445.283271 
L 551.113072 291.353658 
L 551.857123 402.352572 
L 553.345227 371.576533 
L 554.089278 391.621281 
L 554.83333 347.116194 
L 555.577382 437.26971 
L 556.321433 431.706642 
L 557.065485 353.920367 
L 557.809537 451.456201 
L 558.553588 335.689233 
L 559.29764 405.798479 
L 560.041692 435.625398 
L 560.785743 408.372965 
L 561.529795 400.5799 
L 562.273847 336.478445 
L 563.017898 395.278322 
L 563.76195 357.093769 
L 564.506002 352.976965 
L 565.250053 427.753792 
L 565.994105 342.284749 
L 566.738157 320.656819 
L 567.482208 416.747484 
L 568.22626 409.791546 
L 568.970312 436.573278 
L 569.714363 407.58139 
L 570.458415 436.871277 
L 571.202467 434.461588 
L 571.946519 256.371427 
L 572.69057 371.443208 
L 573.434622 316.111728 
L 574.178674 340.674629 
L 574.922725 360.206745 
L 575.666777 453.097549 
L 576.410829 327.247904 
L 577.15488 374.051986 
L 577.898932 355.373324 
L 578.642984 456.901274 
L 579.387035 256.211744 
L 580.131087 394.701149 
L 580.875139 287.469966 
L 581.61919 359.815214 
L 582.363242 336.841621 
L 583.107294 449.057537 
L 583.851345 410.774121 
L 584.595397 449.149763 
L 585.339449 410.30003 
L 586.0835 313.246323 
L 586.827552 356.958704 
L 587.571604 294.997418 
L 588.315655 396.007868 
L 589.059707 398.587579 
L 589.803759 291.642897 
L 590.54781 374.105915 
L 591.291862 493.043385 
L 592.035914 440.156036 
L 592.779965 268.273766 
L 593.524017 406.240436 
L 594.268069 339.506764 
L 595.01212 432.223734 
L 595.756172 366.514052 
L 596.500224 426.13733 
L 597.244275 406.577023 
L 597.988327 343.542038 
L 598.732379 365.876194 
L 599.47643 432.9211 
L 600.220482 421.499898 
L 600.964534 368.627158 
L 601.708585 331.629086 
L 602.452637 404.676179 
L 603.196689 321.906415 
L 603.94074 363.019771 
L 604.684792 418.374489 
L 605.428844 385.669427 
L 606.172895 456.301979 
L 606.916947 447.697693 
L 607.660999 412.68823 
L 608.40505 371.727543 
L 609.149102 243.848676 
L 609.893154 486.690068 
L 610.637205 324.031984 
L 611.381257 389.08624 
L 612.125309 424.674856 
L 612.86936 445.315552 
L 613.613412 361.150859 
L 614.357464 294.868397 
L 615.101515 344.24358 
L 615.845567 298.241238 
L 616.589619 458.81451 
L 617.33367 446.124164 
L 618.077722 323.373706 
L 618.821774 395.734227 
L 619.565825 355.851503 
L 620.309877 379.450841 
L 621.053929 353.132382 
L 621.79798 343.319695 
L 622.542032 250.436754 
L 623.286084 304.405981 
L 624.030135 348.244503 
L 624.774187 412.560258 
L 625.518239 449.663789 
L 626.26229 432.312202 
L 627.006342 328.102962 
L 627.750394 303.550567 
L 628.494445 381.313411 
L 629.238497 376.626099 
L 629.982549 385.541682 
L 630.7266 366.225142 
L 631.470652 396.5287 
L 632.214704 320.0612 
L 632.958755 465.51869 
L 633.702807 265.759315 
L 634.446859 457.453742 
L 635.19091 360.543516 
L 635.934962 382.377858 
L 636.679014 303.990459 
L 637.423065 390.364259 
L 638.167117 431.196203 
L 638.911169 335.696599 
L 639.655221 429.671149 
L 640.399272 363.479311 
L 641.143324 361.361391 
L 641.887376 252.110377 
L 642.631427 456.015017 
L 643.375479 385.003439 
L 644.119531 334.085634 
L 644.863582 398.942611 
L 645.607634 362.030497 
L 646.351686 363.75819 
L 647.095737 290.448545 
L 647.839789 345.716883 
L 648.583841 296.255799 
L 649.327892 321.407692 
L 650.071944 325.256646 
L 650.815996 366.218031 
L 651.560047 357.446928 
L 652.304099 374.449267 
L 653.792202 419.578015 
L 654.536254 485.169119 
L 656.024357 307.054885 
L 656.768409 456.997854 
L 657.512461 360.987436 
L 658.256512 427.089264 
L 659.000564 391.082196 
L 659.744616 429.356911 
L 660.488667 395.570921 
L 661.232719 350.627191 
L 661.976771 443.591797 
L 662.720822 405.01751 
L 663.464874 352.271731 
L 664.208926 446.352112 
L 664.952977 464.670645 
L 665.697029 383.376063 
L 666.441081 424.660675 
L 667.185132 419.369133 
L 667.929184 375.15223 
L 668.673236 347.727908 
L 669.417287 334.716181 
L 670.161339 331.82303 
L 670.905391 256.984237 
L 671.649442 369.773944 
L 672.393494 434.248957 
L 673.137546 425.889278 
L 673.881597 362.859167 
L 674.625649 442.074715 
L 675.369701 388.823828 
L 676.113752 378.831227 
L 676.857804 366.787796 
L 677.601856 402.084538 
L 678.345907 275.526317 
L 679.089959 297.578335 
L 679.834011 423.943204 
L 680.578062 290.078771 
L 681.322114 378.928787 
L 682.066166 440.424566 
L 682.810217 419.010692 
L 684.298321 329.155878 
L 685.042372 464.292049 
L 685.786424 358.273784 
L 686.530476 432.309449 
L 687.274527 404.164201 
L 688.762631 320.134645 
L 689.506682 378.255693 
L 690.250734 301.532745 
L 690.994786 314.356954 
L 691.738837 428.114523 
L 692.482889 376.025609 
L 693.226941 413.091205 
L 693.970992 357.454074 
L 694.715044 412.640875 
L 695.459096 381.769492 
L 696.203147 227.802693 
L 696.947199 312.115279 
L 697.691251 311.678182 
L 698.435302 381.089719 
L 699.179354 406.820457 
L 699.923406 355.302684 
L 700.667457 372.349287 
L 701.411509 423.802905 
L 702.155561 358.734293 
L 702.899612 417.571216 
L 703.643664 411.145032 
L 704.387716 370.975612 
L 705.131767 464.605103 
L 705.875819 411.7463 
L 706.619871 341.921638 
L 707.363922 400.68528 
L 708.107974 318.433801 
L 708.852026 324.771865 
L 709.596078 418.283389 
L 710.340129 374.849556 
L 711.084181 288.610152 
L 711.828233 379.716336 
L 712.572284 379.134245 
L 713.316336 406.056819 
L 714.060388 342.261608 
L 714.804439 364.368029 
L 715.548491 345.566546 
L 716.292543 374.910777 
L 717.036594 314.267833 
L 717.780646 422.768994 
L 718.524698 306.306356 
L 719.268749 421.937894 
L 720.012801 346.298906 
L 720.756853 434.363775 
L 721.500904 404.215994 
L 722.244956 319.841473 
L 723.733059 432.122173 
L 724.477111 392.61072 
L 725.221163 265.427546 
L 725.965214 341.796732 
L 726.709266 335.139736 
L 727.453318 401.706733 
L 728.197369 345.270831 
L 728.941421 303.634186 
L 729.685473 442.465319 
L 730.429524 346.541296 
L 731.173576 462.386487 
L 731.917628 378.625954 
L 732.661679 433.21952 
L 733.405731 345.192698 
L 734.149783 430.0289 
L 734.893834 297.071404 
L 735.637886 408.600774 
L 736.381938 434.704375 
L 737.125989 375.548507 
L 737.870041 354.59541 
L 738.614093 408.010402 
L 739.358144 347.209951 
L 740.102196 336.20563 
L 740.846248 392.725027 
L 741.590299 403.176106 
L 742.334351 434.37864 
L 743.078403 329.482071 
L 743.822454 446.397724 
L 744.566506 358.935721 
L 745.310558 455.830717 
L 746.054609 463.513928 
L 746.798661 301.517964 
L 747.542713 379.659813 
L 748.286764 319.727645 
L 749.030816 395.873446 
L 749.774868 448.94106 
L 750.518919 357.641999 
L 751.262971 365.20978 
L 752.007023 456.367989 
L 752.751074 343.09616 
L 753.495126 360.388228 
L 754.239178 403.883388 
L 754.983229 465.881084 
L 755.727281 377.850056 
L 756.471333 436.784561 
L 757.215384 402.937596 
L 757.959436 374.480333 
L 758.703488 471.292677 
L 760.191591 415.509781 
L 760.935643 440.436935 
L 761.679694 433.917356 
L 762.423746 410.39431 
L 763.167798 298.081005 
L 763.911849 350.560309 
L 764.655901 375.579816 
L 765.399953 381.035102 
L 766.144004 350.588246 
L 766.888056 248.823276 
L 767.632108 386.149191 
L 768.376159 414.497114 
L 769.120211 472.908429 
L 769.864263 304.724343 
L 770.608314 438.515075 
L 771.352366 329.764765 
L 772.096418 461.631695 
L 772.840469 362.503134 
L 773.584521 379.98076 
L 774.328573 440.623114 
L 775.072624 356.263807 
L 775.816676 360.037574 
L 777.304779 416.723338 
L 778.048831 384.755603 
L 778.792883 435.731241 
L 779.536935 353.483131 
L 780.280986 384.639396 
L 781.025038 317.283491 
L 781.76909 312.892872 
L 782.513141 413.021705 
L 784.001245 348.05205 
L 784.745296 437.185598 
L 785.489348 384.153674 
L 786.2334 449.924099 
L 786.977451 385.645811 
L 787.721503 280.354563 
L 788.465555 359.923763 
L 789.209606 338.406908 
L 789.953658 381.18954 
L 790.69771 361.714593 
L 791.441761 309.499312 
L 792.185813 309.558798 
L 792.929865 376.337914 
L 793.673916 362.609019 
L 794.417968 340.066434 
L 795.16202 291.039346 
L 795.906071 493.727265 
L 796.650123 387.444024 
L 797.394175 324.972959 
L 798.138226 343.549305 
L 798.882278 394.980513 
L 799.62633 352.018158 
L 800.370381 424.186898 
L 801.114433 340.373352 
L 801.858485 382.510815 
L 802.602536 401.152093 
L 803.346588 333.226552 
L 804.09064 334.10485 
L 804.834691 322.730728 
L 805.578743 415.156767 
L 806.322795 350.399455 
L 807.066846 304.609497 
L 807.810898 249.246677 
L 808.55495 242.146063 
L 809.299001 344.276728 
L 810.043053 315.887835 
L 810.787105 347.157988 
L 811.531156 383.14701 
L 812.275208 340.844001 
L 813.01926 329.501006 
L 813.763311 361.166675 
L 814.507363 348.504738 
L 815.251415 380.382241 
L 815.995466 318.045564 
L 817.48357 442.256008 
L 818.971673 200.256384 
L 819.715725 416.878969 
L 820.459776 328.319835 
L 821.203828 357.751932 
L 821.94788 413.874497 
L 822.691931 322.45436 
L 823.435983 340.162688 
L 824.180035 270.179149 
L 824.924086 366.297579 
L 825.668138 345.09402 
L 826.41219 431.256837 
L 827.156241 353.750639 
L 828.644345 374.54576 
L 829.388396 342.721328 
L 830.132448 297.300837 
L 830.8765 322.740898 
L 831.620551 389.914532 
L 832.364603 367.928905 
L 833.108655 412.339959 
L 833.852706 367.605464 
L 834.596758 341.168144 
L 835.34081 411.719915 
L 836.084861 428.491756 
L 836.828913 347.268726 
L 837.572965 456.627055 
L 838.317016 345.328719 
L 839.061068 352.609943 
L 839.80512 286.851952 
L 840.549171 420.158993 
L 841.293223 276.385276 
L 842.037275 240.636837 
L 842.781326 412.132001 
L 843.525378 288.636843 
L 844.26943 408.42203 
L 845.013481 313.465137 
L 845.757533 335.524628 
L 846.501585 438.041511 
L 847.245637 404.598759 
L 847.989688 401.487303 
L 848.73374 371.924807 
L 849.477792 258.79809 
L 850.221843 240.402204 
L 850.965895 366.470499 
L 851.709947 455.606032 
L 852.453998 472.476886 
L 853.19805 354.217601 
L 853.942102 436.14475 
L 854.686153 382.978675 
L 855.430205 458.6791 
L 856.174257 422.155581 
L 856.918308 286.142373 
L 857.66236 379.863765 
L 858.406412 410.670837 
L 859.150463 463.982809 
L 859.894515 364.916955 
L 860.638567 298.044855 
L 861.382618 504.867888 
L 862.12667 364.142514 
L 862.870722 451.063444 
L 863.614773 345.36357 
L 864.358825 356.09915 
L 865.102877 380.539834 
L 865.846928 313.236718 
L 866.59098 380.016251 
L 867.335032 322.074984 
L 868.079083 302.886822 
L 868.823135 457.238499 
L 869.567187 333.223082 
L 870.311238 417.984365 
L 871.05529 435.67014 
L 871.799342 411.554655 
L 872.543393 272.711759 
L 873.287445 379.258324 
L 874.031497 418.921029 
L 874.775548 415.923147 
L 875.5196 394.356923 
L 876.263652 343.033174 
L 877.007703 379.632508 
L 877.751755 446.405967 
L 878.495807 334.67593 
L 879.239858 423.211767 
L 879.98391 421.244126 
L 880.727962 444.044647 
L 881.472013 422.039482 
L 882.216065 373.580531 
L 882.960117 344.769458 
L 883.704168 433.844101 
L 884.44822 408.330658 
L 885.192272 325.920097 
L 885.936323 349.068654 
L 886.680375 309.370613 
L 887.424427 447.625396 
L 888.168478 351.852321 
L 888.91253 311.094871 
L 889.656582 369.93905 
L 890.400633 296.918441 
L 891.144685 289.57963 
L 891.888737 212.445214 
L 892.632788 410.725227 
L 893.37684 300.631891 
L 894.120892 386.381967 
L 894.864943 340.672281 
L 895.608995 257.341704 
L 896.353047 354.593173 
L 897.097098 293.703002 
L 897.84115 395.918524 
L 898.585202 275.850538 
L 899.329253 328.942287 
L 900.073305 313.368025 
L 900.817357 339.128302 
L 901.561408 402.665858 
L 902.30546 322.582764 
L 903.049512 395.872363 
L 903.793563 378.87757 
L 904.537615 395.01037 
L 905.281667 177.42508 
L 906.025718 336.149241 
L 906.76977 308.309163 
L 907.513822 230.073403 
L 908.257873 398.247015 
L 909.001925 385.013341 
L 909.745977 357.746529 
L 910.490028 335.52859 
L 911.23408 367.648357 
L 911.978132 321.01755 
L 913.466235 431.499284 
L 914.210287 369.618936 
L 914.954338 397.049527 
L 915.69839 470.946984 
L 916.442442 326.540601 
L 917.186494 356.322521 
L 917.930545 218.057128 
L 918.674597 290.074235 
L 919.418649 378.721722 
L 920.1627 239.961649 
L 920.906752 342.536093 
L 921.650804 428.091411 
L 922.394855 314.674383 
L 923.138907 340.892663 
L 923.882959 353.228403 
L 924.62701 422.360994 
L 925.371062 320.756546 
L 926.115114 397.199688 
L 926.859165 235.322325 
L 927.603217 250.522103 
L 928.347269 409.142394 
L 929.09132 364.640497 
L 929.835372 472.375926 
L 930.579424 453.932761 
L 931.323475 261.946605 
L 932.067527 480.732315 
L 932.811579 436.026915 
L 933.55563 347.989399 
L 934.299682 390.183163 
L 935.043734 457.942997 
L 935.787785 324.206804 
L 936.531837 415.153214 
L 938.01994 352.764455 
L 938.763992 279.260744 
L 939.508044 383.465485 
L 940.252095 372.896155 
L 940.996147 382.59726 
L 941.740199 318.258764 
L 942.48425 486.384592 
L 943.228302 407.880855 
L 943.972354 436.789723 
L 944.716405 361.526612 
L 945.460457 373.473455 
L 946.94856 305.951074 
L 947.692612 379.90788 
L 948.436664 307.013922 
L 949.180715 293.358471 
L 949.924767 341.24521 
L 950.668819 284.729719 
L 951.41287 363.489241 
L 952.156922 350.995238 
L 952.900974 400.242718 
L 953.645025 351.678418 
L 954.389077 312.592438 
L 955.133129 344.138977 
L 955.87718 405.290036 
L 956.621232 380.035822 
L 957.365284 417.661242 
L 958.109335 360.326074 
L 958.853387 370.880874 
L 959.597439 196.542504 
L 960.34149 341.691628 
L 961.085542 364.624837 
L 961.829594 202.887776 
L 962.573645 353.163901 
L 963.317697 303.691589 
L 964.061749 333.439 
L 964.8058 437.516386 
L 965.549852 260.52826 
L 966.293904 388.733513 
L 967.037955 394.257965 
L 967.782007 373.383773 
L 968.526059 245.501868 
L 969.27011 301.56635 
L 970.014162 147.699289 
L 970.758214 390.925502 
L 971.502265 305.53429 
L 972.246317 310.561508 
L 972.990369 327.764585 
L 973.73442 292.941912 
L 974.478472 309.847109 
L 975.222524 293.986602 
L 975.966575 472.160205 
L 976.710627 366.718507 
L 977.454679 515.535589 
L 978.19873 359.879518 
L 978.942782 412.848041 
L 979.686834 298.941831 
L 980.430885 384.542368 
L 981.174937 396.046186 
L 981.918989 432.45011 
L 982.66304 353.529711 
L 983.407092 391.829353 
L 984.151144 327.13719 
L 984.895195 396.542894 
L 985.639247 427.476703 
L 986.383299 375.134542 
L 987.127351 378.554347 
L 987.871402 456.252562 
L 988.615454 319.620315 
L 989.359506 365.774299 
L 990.103557 353.952292 
L 990.847609 268.736463 
L 991.591661 340.410961 
L 992.335712 294.605194 
L 993.079764 345.935902 
L 993.823816 300.646162 
L 994.567867 453.253158 
L 995.311919 428.121968 
L 996.055971 195.953653 
L 996.800022 376.17369 
L 997.544074 321.360887 
L 998.288126 359.081356 
L 999.032177 357.887592 
L 999.776229 200.716656 
L 1000.520281 433.191064 
L 1001.264332 266.620434 
L 1002.008384 252.597887 
L 1002.752436 314.336323 
L 1003.496487 313.823117 
L 1004.240539 376.500558 
L 1004.984591 355.869977 
L 1005.728642 430.821006 
L 1006.472694 383.315748 
L 1007.216746 390.34189 
L 1007.960797 205.920882 
L 1008.704849 391.404943 
L 1009.448901 367.23534 
L 1010.192952 396.505295 
L 1010.937004 377.144473 
L 1011.681056 341.368684 
L 1012.425107 383.196957 
L 1013.169159 320.397725 
L 1013.913211 276.169045 
L 1014.657262 341.78943 
L 1015.401314 218.798468 
L 1016.145366 392.834958 
L 1016.889417 363.251766 
L 1017.633469 406.186773 
L 1018.377521 308.67497 
L 1019.121572 286.100232 
L 1019.865624 275.903267 
L 1020.609676 400.311193 
L 1021.353727 471.478409 
L 1022.097779 430.706785 
L 1022.841831 397.380468 
L 1023.585882 491.088099 
L 1024.329934 286.93847 
L 1025.073986 419.634382 
L 1025.818037 281.444328 
L 1026.562089 390.743724 
L 1027.306141 369.629408 
L 1028.050192 303.372686 
L 1028.794244 342.860997 
L 1029.538296 360.532466 
L 1030.282347 427.931519 
L 1031.770451 315.760031 
L 1032.514502 431.856584 
L 1033.258554 317.111723 
L 1034.002606 355.869025 
L 1034.746657 373.873644 
L 1035.490709 375.996403 
L 1036.234761 513.810154 
L 1036.978812 432.454592 
L 1037.722864 369.977089 
L 1038.466916 327.232682 
L 1039.210967 270.167503 
L 1039.955019 316.48046 
L 1040.699071 428.814026 
L 1041.443122 355.187276 
L 1042.187174 377.572377 
L 1042.931226 375.381155 
L 1043.675277 346.482752 
L 1044.419329 372.331804 
L 1045.163381 382.417714 
L 1045.907432 425.416316 
L 1046.651484 304.270257 
L 1047.395536 262.987585 
L 1048.139587 419.601995 
L 1048.883639 325.419691 
L 1049.627691 285.882738 
L 1050.371742 236.698902 
L 1051.115794 237.179769 
L 1051.859846 323.111254 
L 1052.603897 252.115652 
L 1053.347949 400.252369 
L 1054.092001 358.51717 
L 1054.836053 241.2945 
L 1055.580104 238.132711 
L 1056.324156 321.839566 
L 1057.068208 382.485523 
L 1057.812259 373.875906 
L 1058.556311 376.625025 
L 1060.044414 342.736183 
L 1060.788466 374.47803 
L 1061.532518 259.655278 
L 1062.276569 353.392423 
L 1063.020621 397.730087 
L 1063.764673 282.972823 
L 1064.508724 373.641146 
L 1065.252776 283.388564 
L 1065.996828 318.851329 
L 1066.740879 348.188947 
L 1067.484931 478.533329 
L 1068.228983 302.744702 
L 1068.973034 368.914642 
L 1069.717086 359.249711 
L 1070.461138 366.628156 
L 1071.205189 314.464444 
L 1071.949241 299.856917 
L 1073.437344 352.133324 
L 1074.181396 339.961453 
L 1074.925448 410.156323 
L 1075.669499 332.297445 
L 1076.413551 333.018609 
L 1077.157603 394.102935 
L 1077.901654 226.58698 
L 1078.645706 468.451878 
L 1079.389758 316.542847 
L 1080.133809 339.389767 
L 1080.877861 410.760255 
L 1081.621913 357.476376 
L 1082.365964 351.990694 
L 1083.854068 409.140578 
L 1084.598119 367.109851 
L 1085.342171 331.927968 
L 1086.086223 395.503261 
L 1086.830274 385.95757 
L 1087.574326 326.668895 
L 1088.318378 429.3758 
L 1089.062429 350.103536 
L 1089.806481 234.368302 
L 1090.550533 241.673466 
L 1091.294584 319.265844 
L 1092.038636 359.026028 
L 1092.782688 342.997178 
L 1093.526739 380.321438 
L 1094.270791 371.525622 
L 1095.014843 411.801647 
L 1095.758894 386.731171 
L 1096.502946 403.817746 
L 1097.246998 359.218559 
L 1097.991049 341.351431 
L 1098.735101 264.007436 
L 1099.479153 376.65803 
L 1100.223204 401.417825 
L 1100.967256 474.023753 
L 1101.711308 201.209929 
L 1102.455359 306.824067 
L 1103.199411 184.651682 
L 1103.943463 339.29592 
L 1104.687514 458.575559 
L 1105.431566 403.776395 
L 1106.175618 388.865248 
L 1107.663721 304.548637 
L 1108.407773 430.374755 
L 1109.151824 485.814244 
L 1109.895876 328.375335 
L 1110.639928 314.761806 
L 1111.383979 364.721185 
L 1112.128031 476.365589 
L 1113.616134 327.222584 
L 1114.360186 320.778507 
L 1115.104238 412.06857 
L 1115.848289 322.051531 
L 1116.592341 380.823646 
L 1117.336393 409.699498 
L 1118.080444 288.261082 
L 1118.824496 310.534011 
L 1119.568548 439.847615 
L 1120.312599 340.604869 
L 1121.056651 367.482779 
L 1121.800703 349.882419 
L 1122.544754 316.116122 
L 1123.288806 327.927076 
L 1124.77691 374.716029 
L 1125.520961 210.070201 
L 1126.265013 316.053149 
L 1127.009065 314.912114 
L 1127.753116 292.711799 
L 1128.497168 351.372608 
L 1129.24122 158.149111 
L 1129.985271 253.295102 
L 1130.729323 308.573675 
L 1131.473375 326.663986 
L 1132.217426 435.911869 
L 1132.961478 259.051094 
L 1133.70553 322.034253 
L 1134.449581 305.668319 
L 1135.193633 320.065538 
L 1135.937685 291.250991 
L 1136.681736 208.854948 
L 1137.425788 215.194078 
L 1138.16984 381.837074 
L 1138.913891 179.572776 
L 1139.657943 290.933271 
L 1140.401995 254.7028 
L 1141.890098 369.128306 
L 1142.63415 315.063815 
L 1143.378201 292.900087 
L 1144.122253 244.835101 
L 1144.866305 134.413614 
L 1146.354408 361.877782 
L 1147.09846 377.194305 
L 1147.842511 246.221522 
L 1148.586563 407.876118 
L 1149.330615 104.634327 
L 1150.074666 390.517495 
L 1150.818718 397.872035 
L 1151.56277 381.014571 
L 1152.306821 423.121287 
L 1153.050873 369.957262 
L 1153.794925 333.453149 
L 1154.538976 182.190001 
L 1155.283028 220.005955 
L 1156.02708 352.677504 
L 1156.771131 359.828281 
L 1157.515183 347.611296 
L 1158.259235 427.609906 
L 1159.003286 377.730431 
L 1159.747338 456.822156 
L 1160.49139 332.241553 
L 1161.235441 378.648221 
L 1161.979493 271.407829 
L 1162.723545 262.806909 
L 1163.467596 326.409717 
L 1164.211648 357.275796 
L 1164.9557 288.617047 
L 1166.443803 344.715047 
L 1167.187855 441.915564 
L 1167.931906 344.375189 
L 1168.675958 293.917014 
L 1169.42001 282.241549 
L 1170.164061 445.079601 
L 1170.908113 300.667899 
L 1171.652165 195.479973 
L 1172.396216 331.022081 
L 1173.140268 362.432251 
L 1173.88432 306.68416 
L 1174.628371 444.809604 
L 1175.372423 341.21605 
L 1176.116475 332.466881 
L 1177.604578 270.06984 
L 1178.34863 301.430888 
L 1179.092681 278.311077 
L 1179.836733 450.846015 
L 1180.580785 310.640092 
L 1181.324836 395.445667 
L 1182.068888 311.968673 
L 1182.81294 312.798713 
L 1183.556991 315.423644 
L 1184.301043 392.38337 
L 1185.045095 368.207509 
L 1185.789146 445.365767 
L 1186.533198 297.617164 
L 1187.27725 339.8585 
L 1188.021301 413.701353 
L 1188.765353 326.503871 
L 1189.509405 347.48448 
L 1190.253456 425.814412 
L 1190.997508 444.421856 
L 1191.74156 455.44872 
L 1192.485612 338.506895 
L 1193.229663 380.87459 
L 1193.973715 291.106613 
L 1194.717767 420.418409 
L 1195.461818 337.291732 
L 1195.461818 337.291732 
" style="fill:none;stroke:#ff7f0e;stroke-linecap:square;stroke-width:1.5;"/>
   </g>
   <g id="patch_3">
    <path d="M 172.8 554.688 
L 172.8 83.2032 
" style="fill:none;stroke:#000000;stroke-linecap:square;stroke-linejoin:miter;stroke-width:0.8;"/>
   </g>
   <g id="patch_4">
    <path d="M 1244.16 554.688 
L 1244.16 83.2032 
" style="fill:none;stroke:#000000;stroke-linecap:square;stroke-linejoin:miter;stroke-width:0.8;"/>
   </g>
   <g id="patch_5">
    <path d="M 172.8 554.688 
L 1244.16 554.688 
" style="fill:none;stroke:#000000;stroke-linecap:square;stroke-linejoin:miter;stroke-width:0.8;"/>
   </g>
   <g id="patch_6">
    <path d="M 172.8 83.2032 
L 1244.16 83.2032 
" style="fill:none;stroke:#000000;stroke-linecap:square;stroke-linejoin:miter;stroke-width:0.8;"/>
   </g>
   <g id="text_18">
    <!-- Daily earnings in USD and PLN -->
    <defs>
     <path d="M 9.421875 75.984375 
L 18.40625 75.984375 
L 18.40625 0 
L 9.421875 0 
z
" id="DejaVuSans-108"/>
     <path d="M 32.171875 -5.078125 
Q 28.375 -14.84375 24.75 -17.8125 
Q 21.140625 -20.796875 15.09375 -20.796875 
L 7.90625 -20.796875 
L 7.90625 -13.28125 
L 13.1875 -13.28125 
Q 16.890625 -13.28125 18.9375 -11.515625 
Q 21 -9.765625 23.484375 -3.21875 
L 25.09375 0.875 
L 2.984375 54.6875 
L 12.5 54.6875 
L 29.59375 11.921875 
L 46.6875 54.6875 
L 56.203125 54.6875 
z
" id="DejaVuSans-121"/>
     <path d="M 45.40625 46.390625 
L 45.40625 75.984375 
L 54.390625 75.984375 
L 54.390625 0 
L 45.40625 0 
L 45.40625 8.203125 
Q 42.578125 3.328125 38.25 0.953125 
Q 33.9375 -1.421875 27.875 -1.421875 
Q 17.96875 -1.421875 11.734375 6.484375 
Q 5.515625 14.40625 5.515625 27.296875 
Q 5.515625 40.1875 11.734375 48.09375 
Q 17.96875 56 27.875 56 
Q 33.9375 56 38.25 53.625 
Q 42.578125 51.265625 45.40625 46.390625 
z
M 14.796875 27.296875 
Q 14.796875 17.390625 18.875 11.75 
Q 22.953125 6.109375 30.078125 6.109375 
Q 37.203125 6.109375 41.296875 11.75 
Q 45.40625 17.390625 45.40625 27.296875 
Q 45.40625 37.203125 41.296875 42.84375 
Q 37.203125 48.484375 30.078125 48.484375 
Q 22.953125 48.484375 18.875 42.84375 
Q 14.796875 37.203125 14.796875 27.296875 
z
" id="DejaVuSans-100"/>
    </defs>
    <g transform="translate(616.695 77.2032)scale(0.12 -0.12)">
     <use xlink:href="#DejaVuSans-68"/>
     <use x="77.001953" xlink:href="#DejaVuSans-97"/>
     <use x="138.28125" xlink:href="#DejaVuSans-105"/>
     <use x="166.064453" xlink:href="#DejaVuSans-108"/>
     <use x="193.847656" xlink:href="#DejaVuSans-121"/>
     <use x="253.027344" xlink:href="#DejaVuSans-32"/>
     <use x="284.814453" xlink:href="#DejaVuSans-101"/>
     <use x="346.337891" xlink:href="#DejaVuSans-97"/>
     <use x="407.617188" xlink:href="#DejaVuSans-114"/>
     <use x="448.714844" xlink:href="#DejaVuSans-110"/>
     <use x="512.09375" xlink:href="#DejaVuSans-105"/>
     <use x="539.876953" xlink:href="#DejaVuSans-110"/>
     <use x="603.255859" xlink:href="#DejaVuSans-103"/>
     <use x="666.732422" xlink:href="#DejaVuSans-115"/>
     <use x="718.832031" xlink:href="#DejaVuSans-32"/>
     <use x="750.619141" xlink:href="#DejaVuSans-105"/>
     <use x="778.402344" xlink:href="#DejaVuSans-110"/>
     <use x="841.78125" xlink:href="#DejaVuSans-32"/>
     <use x="873.568359" xlink:href="#DejaVuSans-85"/>
     <use x="946.761719" xlink:href="#DejaVuSans-83"/>
     <use x="1010.238281" xlink:href="#DejaVuSans-68"/>
     <use x="1087.240234" xlink:href="#DejaVuSans-32"/>
     <use x="1119.027344" xlink:href="#DejaVuSans-97"/>
     <use x="1180.306641" xlink:href="#DejaVuSans-110"/>
     <use x="1243.685547" xlink:href="#DejaVuSans-100"/>
     <use x="1307.162109" xlink:href="#DejaVuSans-32"/>
     <use x="1338.949219" xlink:href="#DejaVuSans-80"/>
     <use x="1399.251953" xlink:href="#DejaVuSans-76"/>
     <use x="1454.964844" xlink:href="#DejaVuSans-78"/>
    </g>
   </g>
   <g id="legend_1">
    <g id="patch_7">
     <path d="M 179.8 120.55945 
L 292.20625 120.55945 
Q 294.20625 120.55945 294.20625 118.55945 
L 294.20625 90.2032 
Q 294.20625 88.2032 292.20625 88.2032 
L 179.8 88.2032 
Q 177.8 88.2032 177.8 90.2032 
L 177.8 118.55945 
Q 177.8 120.55945 179.8 120.55945 
z
" style="fill:#ffffff;opacity:0.8;stroke:#cccccc;stroke-linejoin:miter;"/>
    </g>
    <g id="line2d_18">
     <path d="M 181.8 96.301637 
L 201.8 96.301637 
" style="fill:none;stroke:#1f77b4;stroke-linecap:square;stroke-width:1.5;"/>
    </g>
    <g id="line2d_19"/>
    <g id="text_19">
     <!-- Earnings in USD -->
     <g transform="translate(209.8 99.801637)scale(0.1 -0.1)">
      <use xlink:href="#DejaVuSans-69"/>
      <use x="63.183594" xlink:href="#DejaVuSans-97"/>
      <use x="124.462891" xlink:href="#DejaVuSans-114"/>
      <use x="165.560547" xlink:href="#DejaVuSans-110"/>
      <use x="228.939453" xlink:href="#DejaVuSans-105"/>
      <use x="256.722656" xlink:href="#DejaVuSans-110"/>
      <use x="320.101562" xlink:href="#DejaVuSans-103"/>
      <use x="383.578125" xlink:href="#DejaVuSans-115"/>
      <use x="435.677734" xlink:href="#DejaVuSans-32"/>
      <use x="467.464844" xlink:href="#DejaVuSans-105"/>
      <use x="495.248047" xlink:href="#DejaVuSans-110"/>
      <use x="558.626953" xlink:href="#DejaVuSans-32"/>
      <use x="590.414062" xlink:href="#DejaVuSans-85"/>
      <use x="663.607422" xlink:href="#DejaVuSans-83"/>
      <use x="727.083984" xlink:href="#DejaVuSans-68"/>
     </g>
    </g>
    <g id="line2d_20">
     <path d="M 181.8 110.979762 
L 201.8 110.979762 
" style="fill:none;stroke:#ff7f0e;stroke-linecap:square;stroke-width:1.5;"/>
    </g>
    <g id="line2d_21"/>
    <g id="text_20">
     <!-- Earnings in PLN -->
     <g transform="translate(209.8 114.479762)scale(0.1 -0.1)">
      <use xlink:href="#DejaVuSans-69"/>
      <use x="63.183594" xlink:href="#DejaVuSans-97"/>
      <use x="124.462891" xlink:href="#DejaVuSans-114"/>
      <use x="165.560547" xlink:href="#DejaVuSans-110"/>
      <use x="228.939453" xlink:href="#DejaVuSans-105"/>
      <use x="256.722656" xlink:href="#DejaVuSans-110"/>
      <use x="320.101562" xlink:href="#DejaVuSans-103"/>
      <use x="383.578125" xlink:href="#DejaVuSans-115"/>
      <use x="435.677734" xlink:href="#DejaVuSans-32"/>
      <use x="467.464844" xlink:href="#DejaVuSans-105"/>
      <use x="495.248047" xlink:href="#DejaVuSans-110"/>
      <use x="558.626953" xlink:href="#DejaVuSans-32"/>
      <use x="590.414062" xlink:href="#DejaVuSans-80"/>
      <use x="650.716797" xlink:href="#DejaVuSans-76"/>
      <use x="706.429688" xlink:href="#DejaVuSans-78"/>
     </g>
    </g>
   </g>
  </g>
 </g>
 <defs>
  <clipPath id="pd1452d3432">
   <rect height="471.4848" width="1071.36" x="172.8" y="83.2032"/>
  </clipPath>
 </defs>
</svg>
