<?xml version="1.0" encoding="utf-8" standalone="no"?>
<!DOCTYPE svg PUBLIC "-//W3C//DTD SVG 1.1//EN"
  "http://www.w3.org/Graphics/SVG/1.1/DTD/svg11.dtd">
<!-- Created with matplotlib (https://matplotlib.org/) -->
<svg height="345.6pt" version="1.1" viewBox="0 0 460.8 345.6" width="460.8pt" xmlns="http://www.w3.org/2000/svg" xmlns:xlink="http://www.w3.org/1999/xlink">
 <metadata>
  <rdf:RDF xmlns:cc="http://creativecommons.org/ns#" xmlns:dc="http://purl.org/dc/elements/1.1/" xmlns:rdf="http://www.w3.org/1999/02/22-rdf-syntax-ns#">
   <cc:Work>
    <dc:type rdf:resource="http://purl.org/dc/dcmitype/StillImage"/>
    <dc:date>2020-11-22T04:19:08.423609</dc:date>
    <dc:format>image/svg+xml</dc:format>
    <dc:creator>
     <cc:Agent>
      <dc:title>Matplotlib v3.3.3, https://matplotlib.org/</dc:title>
     </cc:Agent>
    </dc:creator>
   </cc:Work>
  </rdf:RDF>
 </metadata>
 <defs>
  <style type="text/css">*{stroke-linecap:butt;stroke-linejoin:round;}</style>
 </defs>
 <g id="figure_1">
  <g id="patch_1">
   <path d="M 0 345.6 
L 460.8 345.6 
L 460.8 0 
L 0 0 
z
" style="fill:#ffffff;"/>
  </g>
  <g id="axes_1">
   <g id="patch_2">
    <path d="M 57.6 307.584 
L 414.72 307.584 
L 414.72 41.472 
L 57.6 41.472 
z
" style="fill:#ffffff;"/>
   </g>
   <g id="matplotlib.axis_1">
    <g id="xtick_1">
     <g id="line2d_1">
      <defs>
       <path d="M 0 0 
L 0 3.5 
" id="mc62835241b" style="stroke:#000000;stroke-width:0.8;"/>
      </defs>
      <g>
       <use style="stroke:#000000;stroke-width:0.8;" x="73.832727" xlink:href="#mc62835241b" y="307.584"/>
      </g>
     </g>
     <g id="text_1">
      <!-- 2011-10-03 -->
      <g transform="translate(44.774915 322.182437)scale(0.1 -0.1)">
       <defs>
        <path d="M 19.1875 8.296875 
L 53.609375 8.296875 
L 53.609375 0 
L 7.328125 0 
L 7.328125 8.296875 
Q 12.9375 14.109375 22.625 23.890625 
Q 32.328125 33.6875 34.8125 36.53125 
Q 39.546875 41.84375 41.421875 45.53125 
Q 43.3125 49.21875 43.3125 52.78125 
Q 43.3125 58.59375 39.234375 62.25 
Q 35.15625 65.921875 28.609375 65.921875 
Q 23.96875 65.921875 18.8125 64.3125 
Q 13.671875 62.703125 7.8125 59.421875 
L 7.8125 69.390625 
Q 13.765625 71.78125 18.9375 73 
Q 24.125 74.21875 28.421875 74.21875 
Q 39.75 74.21875 46.484375 68.546875 
Q 53.21875 62.890625 53.21875 53.421875 
Q 53.21875 48.921875 51.53125 44.890625 
Q 49.859375 40.875 45.40625 35.40625 
Q 44.1875 33.984375 37.640625 27.21875 
Q 31.109375 20.453125 19.1875 8.296875 
z
" id="DejaVuSans-50"/>
        <path d="M 31.78125 66.40625 
Q 24.171875 66.40625 20.328125 58.90625 
Q 16.5 51.421875 16.5 36.375 
Q 16.5 21.390625 20.328125 13.890625 
Q 24.171875 6.390625 31.78125 6.390625 
Q 39.453125 6.390625 43.28125 13.890625 
Q 47.125 21.390625 47.125 36.375 
Q 47.125 51.421875 43.28125 58.90625 
Q 39.453125 66.40625 31.78125 66.40625 
z
M 31.78125 74.21875 
Q 44.046875 74.21875 50.515625 64.515625 
Q 56.984375 54.828125 56.984375 36.375 
Q 56.984375 17.96875 50.515625 8.265625 
Q 44.046875 -1.421875 31.78125 -1.421875 
Q 19.53125 -1.421875 13.0625 8.265625 
Q 6.59375 17.96875 6.59375 36.375 
Q 6.59375 54.828125 13.0625 64.515625 
Q 19.53125 74.21875 31.78125 74.21875 
z
" id="DejaVuSans-48"/>
        <path d="M 12.40625 8.296875 
L 28.515625 8.296875 
L 28.515625 63.921875 
L 10.984375 60.40625 
L 10.984375 69.390625 
L 28.421875 72.90625 
L 38.28125 72.90625 
L 38.28125 8.296875 
L 54.390625 8.296875 
L 54.390625 0 
L 12.40625 0 
z
" id="DejaVuSans-49"/>
        <path d="M 4.890625 31.390625 
L 31.203125 31.390625 
L 31.203125 23.390625 
L 4.890625 23.390625 
z
" id="DejaVuSans-45"/>
        <path d="M 40.578125 39.3125 
Q 47.65625 37.796875 51.625 33 
Q 55.609375 28.21875 55.609375 21.1875 
Q 55.609375 10.40625 48.1875 4.484375 
Q 40.765625 -1.421875 27.09375 -1.421875 
Q 22.515625 -1.421875 17.65625 -0.515625 
Q 12.796875 0.390625 7.625 2.203125 
L 7.625 11.71875 
Q 11.71875 9.328125 16.59375 8.109375 
Q 21.484375 6.890625 26.8125 6.890625 
Q 36.078125 6.890625 40.9375 10.546875 
Q 45.796875 14.203125 45.796875 21.1875 
Q 45.796875 27.640625 41.28125 31.265625 
Q 36.765625 34.90625 28.71875 34.90625 
L 20.21875 34.90625 
L 20.21875 43.015625 
L 29.109375 43.015625 
Q 36.375 43.015625 40.234375 45.921875 
Q 44.09375 48.828125 44.09375 54.296875 
Q 44.09375 59.90625 40.109375 62.90625 
Q 36.140625 65.921875 28.71875 65.921875 
Q 24.65625 65.921875 20.015625 65.03125 
Q 15.375 64.15625 9.8125 62.3125 
L 9.8125 71.09375 
Q 15.4375 72.65625 20.34375 73.4375 
Q 25.25 74.21875 29.59375 74.21875 
Q 40.828125 74.21875 47.359375 69.109375 
Q 53.90625 64.015625 53.90625 55.328125 
Q 53.90625 49.265625 50.4375 45.09375 
Q 46.96875 40.921875 40.578125 39.3125 
z
" id="DejaVuSans-51"/>
       </defs>
       <use xlink:href="#DejaVuSans-50"/>
       <use x="63.623047" xlink:href="#DejaVuSans-48"/>
       <use x="127.246094" xlink:href="#DejaVuSans-49"/>
       <use x="190.869141" xlink:href="#DejaVuSans-49"/>
       <use x="254.492188" xlink:href="#DejaVuSans-45"/>
       <use x="290.576172" xlink:href="#DejaVuSans-49"/>
       <use x="354.199219" xlink:href="#DejaVuSans-48"/>
       <use x="417.822266" xlink:href="#DejaVuSans-45"/>
       <use x="453.90625" xlink:href="#DejaVuSans-48"/>
       <use x="517.529297" xlink:href="#DejaVuSans-51"/>
      </g>
     </g>
    </g>
    <g id="xtick_2">
     <g id="line2d_2">
      <g>
       <use style="stroke:#000000;stroke-width:0.8;" x="139.266977" xlink:href="#mc62835241b" y="307.584"/>
      </g>
     </g>
     <g id="text_2">
      <!-- 2011-12-16 -->
      <g transform="translate(110.209164 322.182437)scale(0.1 -0.1)">
       <defs>
        <path d="M 33.015625 40.375 
Q 26.375 40.375 22.484375 35.828125 
Q 18.609375 31.296875 18.609375 23.390625 
Q 18.609375 15.53125 22.484375 10.953125 
Q 26.375 6.390625 33.015625 6.390625 
Q 39.65625 6.390625 43.53125 10.953125 
Q 47.40625 15.53125 47.40625 23.390625 
Q 47.40625 31.296875 43.53125 35.828125 
Q 39.65625 40.375 33.015625 40.375 
z
M 52.59375 71.296875 
L 52.59375 62.3125 
Q 48.875 64.0625 45.09375 64.984375 
Q 41.3125 65.921875 37.59375 65.921875 
Q 27.828125 65.921875 22.671875 59.328125 
Q 17.53125 52.734375 16.796875 39.40625 
Q 19.671875 43.65625 24.015625 45.921875 
Q 28.375 48.1875 33.59375 48.1875 
Q 44.578125 48.1875 50.953125 41.515625 
Q 57.328125 34.859375 57.328125 23.390625 
Q 57.328125 12.15625 50.6875 5.359375 
Q 44.046875 -1.421875 33.015625 -1.421875 
Q 20.359375 -1.421875 13.671875 8.265625 
Q 6.984375 17.96875 6.984375 36.375 
Q 6.984375 53.65625 15.1875 63.9375 
Q 23.390625 74.21875 37.203125 74.21875 
Q 40.921875 74.21875 44.703125 73.484375 
Q 48.484375 72.75 52.59375 71.296875 
z
" id="DejaVuSans-54"/>
       </defs>
       <use xlink:href="#DejaVuSans-50"/>
       <use x="63.623047" xlink:href="#DejaVuSans-48"/>
       <use x="127.246094" xlink:href="#DejaVuSans-49"/>
       <use x="190.869141" xlink:href="#DejaVuSans-49"/>
       <use x="254.492188" xlink:href="#DejaVuSans-45"/>
       <use x="290.576172" xlink:href="#DejaVuSans-49"/>
       <use x="354.199219" xlink:href="#DejaVuSans-50"/>
       <use x="417.822266" xlink:href="#DejaVuSans-45"/>
       <use x="453.90625" xlink:href="#DejaVuSans-49"/>
       <use x="517.529297" xlink:href="#DejaVuSans-54"/>
      </g>
     </g>
    </g>
    <g id="xtick_3">
     <g id="line2d_3">
      <g>
       <use style="stroke:#000000;stroke-width:0.8;" x="204.701226" xlink:href="#mc62835241b" y="307.584"/>
      </g>
     </g>
     <g id="text_3">
      <!-- 2012-03-01 -->
      <g transform="translate(175.643414 322.182437)scale(0.1 -0.1)">
       <use xlink:href="#DejaVuSans-50"/>
       <use x="63.623047" xlink:href="#DejaVuSans-48"/>
       <use x="127.246094" xlink:href="#DejaVuSans-49"/>
       <use x="190.869141" xlink:href="#DejaVuSans-50"/>
       <use x="254.492188" xlink:href="#DejaVuSans-45"/>
       <use x="290.576172" xlink:href="#DejaVuSans-48"/>
       <use x="354.199219" xlink:href="#DejaVuSans-51"/>
       <use x="417.822266" xlink:href="#DejaVuSans-45"/>
       <use x="453.90625" xlink:href="#DejaVuSans-48"/>
       <use x="517.529297" xlink:href="#DejaVuSans-49"/>
      </g>
     </g>
    </g>
    <g id="xtick_4">
     <g id="line2d_4">
      <g>
       <use style="stroke:#000000;stroke-width:0.8;" x="270.135476" xlink:href="#mc62835241b" y="307.584"/>
      </g>
     </g>
     <g id="text_4">
      <!-- 2012-05-17 -->
      <g transform="translate(241.077663 322.182437)scale(0.1 -0.1)">
       <defs>
        <path d="M 10.796875 72.90625 
L 49.515625 72.90625 
L 49.515625 64.59375 
L 19.828125 64.59375 
L 19.828125 46.734375 
Q 21.96875 47.46875 24.109375 47.828125 
Q 26.265625 48.1875 28.421875 48.1875 
Q 40.625 48.1875 47.75 41.5 
Q 54.890625 34.8125 54.890625 23.390625 
Q 54.890625 11.625 47.5625 5.09375 
Q 40.234375 -1.421875 26.90625 -1.421875 
Q 22.3125 -1.421875 17.546875 -0.640625 
Q 12.796875 0.140625 7.71875 1.703125 
L 7.71875 11.625 
Q 12.109375 9.234375 16.796875 8.0625 
Q 21.484375 6.890625 26.703125 6.890625 
Q 35.15625 6.890625 40.078125 11.328125 
Q 45.015625 15.765625 45.015625 23.390625 
Q 45.015625 31 40.078125 35.4375 
Q 35.15625 39.890625 26.703125 39.890625 
Q 22.75 39.890625 18.8125 39.015625 
Q 14.890625 38.140625 10.796875 36.28125 
z
" id="DejaVuSans-53"/>
        <path d="M 8.203125 72.90625 
L 55.078125 72.90625 
L 55.078125 68.703125 
L 28.609375 0 
L 18.3125 0 
L 43.21875 64.59375 
L 8.203125 64.59375 
z
" id="DejaVuSans-55"/>
       </defs>
       <use xlink:href="#DejaVuSans-50"/>
       <use x="63.623047" xlink:href="#DejaVuSans-48"/>
       <use x="127.246094" xlink:href="#DejaVuSans-49"/>
       <use x="190.869141" xlink:href="#DejaVuSans-50"/>
       <use x="254.492188" xlink:href="#DejaVuSans-45"/>
       <use x="290.576172" xlink:href="#DejaVuSans-48"/>
       <use x="354.199219" xlink:href="#DejaVuSans-53"/>
       <use x="417.822266" xlink:href="#DejaVuSans-45"/>
       <use x="453.90625" xlink:href="#DejaVuSans-49"/>
       <use x="517.529297" xlink:href="#DejaVuSans-55"/>
      </g>
     </g>
    </g>
    <g id="xtick_5">
     <g id="line2d_5">
      <g>
       <use style="stroke:#000000;stroke-width:0.8;" x="335.569725" xlink:href="#mc62835241b" y="307.584"/>
      </g>
     </g>
     <g id="text_5">
      <!-- 2012-07-31 -->
      <g transform="translate(306.511913 322.182437)scale(0.1 -0.1)">
       <use xlink:href="#DejaVuSans-50"/>
       <use x="63.623047" xlink:href="#DejaVuSans-48"/>
       <use x="127.246094" xlink:href="#DejaVuSans-49"/>
       <use x="190.869141" xlink:href="#DejaVuSans-50"/>
       <use x="254.492188" xlink:href="#DejaVuSans-45"/>
       <use x="290.576172" xlink:href="#DejaVuSans-48"/>
       <use x="354.199219" xlink:href="#DejaVuSans-55"/>
       <use x="417.822266" xlink:href="#DejaVuSans-45"/>
       <use x="453.90625" xlink:href="#DejaVuSans-51"/>
       <use x="517.529297" xlink:href="#DejaVuSans-49"/>
      </g>
     </g>
    </g>
    <g id="xtick_6">
     <g id="line2d_6">
      <g>
       <use style="stroke:#000000;stroke-width:0.8;" x="401.003975" xlink:href="#mc62835241b" y="307.584"/>
      </g>
     </g>
    </g>
    <g id="text_6">
     <!-- Data -->
     <g transform="translate(224.221719 335.860562)scale(0.1 -0.1)">
      <defs>
       <path d="M 19.671875 64.796875 
L 19.671875 8.109375 
L 31.59375 8.109375 
Q 46.6875 8.109375 53.6875 14.9375 
Q 60.6875 21.78125 60.6875 36.53125 
Q 60.6875 51.171875 53.6875 57.984375 
Q 46.6875 64.796875 31.59375 64.796875 
z
M 9.8125 72.90625 
L 30.078125 72.90625 
Q 51.265625 72.90625 61.171875 64.09375 
Q 71.09375 55.28125 71.09375 36.53125 
Q 71.09375 17.671875 61.125 8.828125 
Q 51.171875 0 30.078125 0 
L 9.8125 0 
z
" id="DejaVuSans-68"/>
       <path d="M 34.28125 27.484375 
Q 23.390625 27.484375 19.1875 25 
Q 14.984375 22.515625 14.984375 16.5 
Q 14.984375 11.71875 18.140625 8.90625 
Q 21.296875 6.109375 26.703125 6.109375 
Q 34.1875 6.109375 38.703125 11.40625 
Q 43.21875 16.703125 43.21875 25.484375 
L 43.21875 27.484375 
z
M 52.203125 31.203125 
L 52.203125 0 
L 43.21875 0 
L 43.21875 8.296875 
Q 40.140625 3.328125 35.546875 0.953125 
Q 30.953125 -1.421875 24.3125 -1.421875 
Q 15.921875 -1.421875 10.953125 3.296875 
Q 6 8.015625 6 15.921875 
Q 6 25.140625 12.171875 29.828125 
Q 18.359375 34.515625 30.609375 34.515625 
L 43.21875 34.515625 
L 43.21875 35.40625 
Q 43.21875 41.609375 39.140625 45 
Q 35.0625 48.390625 27.6875 48.390625 
Q 23 48.390625 18.546875 47.265625 
Q 14.109375 46.140625 10.015625 43.890625 
L 10.015625 52.203125 
Q 14.9375 54.109375 19.578125 55.046875 
Q 24.21875 56 28.609375 56 
Q 40.484375 56 46.34375 49.84375 
Q 52.203125 43.703125 52.203125 31.203125 
z
" id="DejaVuSans-97"/>
       <path d="M 18.3125 70.21875 
L 18.3125 54.6875 
L 36.8125 54.6875 
L 36.8125 47.703125 
L 18.3125 47.703125 
L 18.3125 18.015625 
Q 18.3125 11.328125 20.140625 9.421875 
Q 21.96875 7.515625 27.59375 7.515625 
L 36.8125 7.515625 
L 36.8125 0 
L 27.59375 0 
Q 17.1875 0 13.234375 3.875 
Q 9.28125 7.765625 9.28125 18.015625 
L 9.28125 47.703125 
L 2.6875 47.703125 
L 2.6875 54.6875 
L 9.28125 54.6875 
L 9.28125 70.21875 
z
" id="DejaVuSans-116"/>
      </defs>
      <use xlink:href="#DejaVuSans-68"/>
      <use x="77.001953" xlink:href="#DejaVuSans-97"/>
      <use x="138.28125" xlink:href="#DejaVuSans-116"/>
      <use x="177.490234" xlink:href="#DejaVuSans-97"/>
     </g>
    </g>
   </g>
   <g id="matplotlib.axis_2">
    <g id="ytick_1">
     <g id="line2d_7">
      <defs>
       <path d="M 0 0 
L -3.5 0 
" id="m32d8dbb922" style="stroke:#000000;stroke-width:0.8;"/>
      </defs>
      <g>
       <use style="stroke:#000000;stroke-width:0.8;" x="57.6" xlink:href="#m32d8dbb922" y="302.834362"/>
      </g>
     </g>
     <g id="text_7">
      <!-- 3.0 -->
      <g transform="translate(34.696875 306.633581)scale(0.1 -0.1)">
       <defs>
        <path d="M 10.6875 12.40625 
L 21 12.40625 
L 21 0 
L 10.6875 0 
z
" id="DejaVuSans-46"/>
       </defs>
       <use xlink:href="#DejaVuSans-51"/>
       <use x="63.623047" xlink:href="#DejaVuSans-46"/>
       <use x="95.410156" xlink:href="#DejaVuSans-48"/>
      </g>
     </g>
    </g>
    <g id="ytick_2">
     <g id="line2d_8">
      <g>
       <use style="stroke:#000000;stroke-width:0.8;" x="57.6" xlink:href="#m32d8dbb922" y="270.962944"/>
      </g>
     </g>
     <g id="text_8">
      <!-- 3.2 -->
      <g transform="translate(34.696875 274.762162)scale(0.1 -0.1)">
       <use xlink:href="#DejaVuSans-51"/>
       <use x="63.623047" xlink:href="#DejaVuSans-46"/>
       <use x="95.410156" xlink:href="#DejaVuSans-50"/>
      </g>
     </g>
    </g>
    <g id="ytick_3">
     <g id="line2d_9">
      <g>
       <use style="stroke:#000000;stroke-width:0.8;" x="57.6" xlink:href="#m32d8dbb922" y="239.091525"/>
      </g>
     </g>
     <g id="text_9">
      <!-- 3.4 -->
      <g transform="translate(34.696875 242.890744)scale(0.1 -0.1)">
       <defs>
        <path d="M 37.796875 64.3125 
L 12.890625 25.390625 
L 37.796875 25.390625 
z
M 35.203125 72.90625 
L 47.609375 72.90625 
L 47.609375 25.390625 
L 58.015625 25.390625 
L 58.015625 17.1875 
L 47.609375 17.1875 
L 47.609375 0 
L 37.796875 0 
L 37.796875 17.1875 
L 4.890625 17.1875 
L 4.890625 26.703125 
z
" id="DejaVuSans-52"/>
       </defs>
       <use xlink:href="#DejaVuSans-51"/>
       <use x="63.623047" xlink:href="#DejaVuSans-46"/>
       <use x="95.410156" xlink:href="#DejaVuSans-52"/>
      </g>
     </g>
    </g>
    <g id="ytick_4">
     <g id="line2d_10">
      <g>
       <use style="stroke:#000000;stroke-width:0.8;" x="57.6" xlink:href="#m32d8dbb922" y="207.220107"/>
      </g>
     </g>
     <g id="text_10">
      <!-- 3.6 -->
      <g transform="translate(34.696875 211.019326)scale(0.1 -0.1)">
       <use xlink:href="#DejaVuSans-51"/>
       <use x="63.623047" xlink:href="#DejaVuSans-46"/>
       <use x="95.410156" xlink:href="#DejaVuSans-54"/>
      </g>
     </g>
    </g>
    <g id="ytick_5">
     <g id="line2d_11">
      <g>
       <use style="stroke:#000000;stroke-width:0.8;" x="57.6" xlink:href="#m32d8dbb922" y="175.348689"/>
      </g>
     </g>
     <g id="text_11">
      <!-- 3.8 -->
      <g transform="translate(34.696875 179.147908)scale(0.1 -0.1)">
       <defs>
        <path d="M 31.78125 34.625 
Q 24.75 34.625 20.71875 30.859375 
Q 16.703125 27.09375 16.703125 20.515625 
Q 16.703125 13.921875 20.71875 10.15625 
Q 24.75 6.390625 31.78125 6.390625 
Q 38.8125 6.390625 42.859375 10.171875 
Q 46.921875 13.96875 46.921875 20.515625 
Q 46.921875 27.09375 42.890625 30.859375 
Q 38.875 34.625 31.78125 34.625 
z
M 21.921875 38.8125 
Q 15.578125 40.375 12.03125 44.71875 
Q 8.5 49.078125 8.5 55.328125 
Q 8.5 64.0625 14.71875 69.140625 
Q 20.953125 74.21875 31.78125 74.21875 
Q 42.671875 74.21875 48.875 69.140625 
Q 55.078125 64.0625 55.078125 55.328125 
Q 55.078125 49.078125 51.53125 44.71875 
Q 48 40.375 41.703125 38.8125 
Q 48.828125 37.15625 52.796875 32.3125 
Q 56.78125 27.484375 56.78125 20.515625 
Q 56.78125 9.90625 50.3125 4.234375 
Q 43.84375 -1.421875 31.78125 -1.421875 
Q 19.734375 -1.421875 13.25 4.234375 
Q 6.78125 9.90625 6.78125 20.515625 
Q 6.78125 27.484375 10.78125 32.3125 
Q 14.796875 37.15625 21.921875 38.8125 
z
M 18.3125 54.390625 
Q 18.3125 48.734375 21.84375 45.5625 
Q 25.390625 42.390625 31.78125 42.390625 
Q 38.140625 42.390625 41.71875 45.5625 
Q 45.3125 48.734375 45.3125 54.390625 
Q 45.3125 60.0625 41.71875 63.234375 
Q 38.140625 66.40625 31.78125 66.40625 
Q 25.390625 66.40625 21.84375 63.234375 
Q 18.3125 60.0625 18.3125 54.390625 
z
" id="DejaVuSans-56"/>
       </defs>
       <use xlink:href="#DejaVuSans-51"/>
       <use x="63.623047" xlink:href="#DejaVuSans-46"/>
       <use x="95.410156" xlink:href="#DejaVuSans-56"/>
      </g>
     </g>
    </g>
    <g id="ytick_6">
     <g id="line2d_12">
      <g>
       <use style="stroke:#000000;stroke-width:0.8;" x="57.6" xlink:href="#m32d8dbb922" y="143.477271"/>
      </g>
     </g>
     <g id="text_12">
      <!-- 4.0 -->
      <g transform="translate(34.696875 147.27649)scale(0.1 -0.1)">
       <use xlink:href="#DejaVuSans-52"/>
       <use x="63.623047" xlink:href="#DejaVuSans-46"/>
       <use x="95.410156" xlink:href="#DejaVuSans-48"/>
      </g>
     </g>
    </g>
    <g id="ytick_7">
     <g id="line2d_13">
      <g>
       <use style="stroke:#000000;stroke-width:0.8;" x="57.6" xlink:href="#m32d8dbb922" y="111.605853"/>
      </g>
     </g>
     <g id="text_13">
      <!-- 4.2 -->
      <g transform="translate(34.696875 115.405071)scale(0.1 -0.1)">
       <use xlink:href="#DejaVuSans-52"/>
       <use x="63.623047" xlink:href="#DejaVuSans-46"/>
       <use x="95.410156" xlink:href="#DejaVuSans-50"/>
      </g>
     </g>
    </g>
    <g id="ytick_8">
     <g id="line2d_14">
      <g>
       <use style="stroke:#000000;stroke-width:0.8;" x="57.6" xlink:href="#m32d8dbb922" y="79.734434"/>
      </g>
     </g>
     <g id="text_14">
      <!-- 4.4 -->
      <g transform="translate(34.696875 83.533653)scale(0.1 -0.1)">
       <use xlink:href="#DejaVuSans-52"/>
       <use x="63.623047" xlink:href="#DejaVuSans-46"/>
       <use x="95.410156" xlink:href="#DejaVuSans-52"/>
      </g>
     </g>
    </g>
    <g id="ytick_9">
     <g id="line2d_15">
      <g>
       <use style="stroke:#000000;stroke-width:0.8;" x="57.6" xlink:href="#m32d8dbb922" y="47.863016"/>
      </g>
     </g>
     <g id="text_15">
      <!-- 4.6 -->
      <g transform="translate(34.696875 51.662235)scale(0.1 -0.1)">
       <use xlink:href="#DejaVuSans-52"/>
       <use x="63.623047" xlink:href="#DejaVuSans-46"/>
       <use x="95.410156" xlink:href="#DejaVuSans-54"/>
      </g>
     </g>
    </g>
    <g id="text_16">
     <!-- Wartość w PLN -->
     <g transform="translate(28.617187 211.454563)rotate(-90)scale(0.1 -0.1)">
      <defs>
       <path d="M 3.328125 72.90625 
L 13.28125 72.90625 
L 28.609375 11.28125 
L 43.890625 72.90625 
L 54.984375 72.90625 
L 70.3125 11.28125 
L 85.59375 72.90625 
L 95.609375 72.90625 
L 77.296875 0 
L 64.890625 0 
L 49.515625 63.28125 
L 33.984375 0 
L 21.578125 0 
z
" id="DejaVuSans-87"/>
       <path d="M 41.109375 46.296875 
Q 39.59375 47.171875 37.8125 47.578125 
Q 36.03125 48 33.890625 48 
Q 26.265625 48 22.1875 43.046875 
Q 18.109375 38.09375 18.109375 28.8125 
L 18.109375 0 
L 9.078125 0 
L 9.078125 54.6875 
L 18.109375 54.6875 
L 18.109375 46.1875 
Q 20.953125 51.171875 25.484375 53.578125 
Q 30.03125 56 36.53125 56 
Q 37.453125 56 38.578125 55.875 
Q 39.703125 55.765625 41.0625 55.515625 
z
" id="DejaVuSans-114"/>
       <path d="M 30.609375 48.390625 
Q 23.390625 48.390625 19.1875 42.75 
Q 14.984375 37.109375 14.984375 27.296875 
Q 14.984375 17.484375 19.15625 11.84375 
Q 23.34375 6.203125 30.609375 6.203125 
Q 37.796875 6.203125 41.984375 11.859375 
Q 46.1875 17.53125 46.1875 27.296875 
Q 46.1875 37.015625 41.984375 42.703125 
Q 37.796875 48.390625 30.609375 48.390625 
z
M 30.609375 56 
Q 42.328125 56 49.015625 48.375 
Q 55.71875 40.765625 55.71875 27.296875 
Q 55.71875 13.875 49.015625 6.21875 
Q 42.328125 -1.421875 30.609375 -1.421875 
Q 18.84375 -1.421875 12.171875 6.21875 
Q 5.515625 13.875 5.515625 27.296875 
Q 5.515625 40.765625 12.171875 48.375 
Q 18.84375 56 30.609375 56 
z
" id="DejaVuSans-111"/>
       <path d="M 35.03125 79.984375 
L 44.75 79.984375 
L 28.84375 61.625 
L 21.359375 61.625 
z
M 44.28125 53.078125 
L 44.28125 44.578125 
Q 40.484375 46.53125 36.375 47.5 
Q 32.28125 48.484375 27.875 48.484375 
Q 21.1875 48.484375 17.84375 46.4375 
Q 14.5 44.390625 14.5 40.28125 
Q 14.5 37.15625 16.890625 35.375 
Q 19.28125 33.59375 26.515625 31.984375 
L 29.59375 31.296875 
Q 39.15625 29.25 43.1875 25.515625 
Q 47.21875 21.78125 47.21875 15.09375 
Q 47.21875 7.46875 41.1875 3.015625 
Q 35.15625 -1.421875 24.609375 -1.421875 
Q 20.21875 -1.421875 15.453125 -0.5625 
Q 10.6875 0.296875 5.421875 2 
L 5.421875 11.28125 
Q 10.40625 8.6875 15.234375 7.390625 
Q 20.0625 6.109375 24.8125 6.109375 
Q 31.15625 6.109375 34.5625 8.28125 
Q 37.984375 10.453125 37.984375 14.40625 
Q 37.984375 18.0625 35.515625 20.015625 
Q 33.0625 21.96875 24.703125 23.78125 
L 21.578125 24.515625 
Q 13.234375 26.265625 9.515625 29.90625 
Q 5.8125 33.546875 5.8125 39.890625 
Q 5.8125 47.609375 11.28125 51.796875 
Q 16.75 56 26.8125 56 
Q 31.78125 56 36.171875 55.265625 
Q 40.578125 54.546875 44.28125 53.078125 
z
" id="DejaVuSans-347"/>
       <path d="M 48.78125 52.59375 
L 48.78125 44.1875 
Q 44.96875 46.296875 41.140625 47.34375 
Q 37.3125 48.390625 33.40625 48.390625 
Q 24.65625 48.390625 19.8125 42.84375 
Q 14.984375 37.3125 14.984375 27.296875 
Q 14.984375 17.28125 19.8125 11.734375 
Q 24.65625 6.203125 33.40625 6.203125 
Q 37.3125 6.203125 41.140625 7.25 
Q 44.96875 8.296875 48.78125 10.40625 
L 48.78125 2.09375 
Q 45.015625 0.34375 40.984375 -0.53125 
Q 36.96875 -1.421875 32.421875 -1.421875 
Q 20.0625 -1.421875 12.78125 6.34375 
Q 5.515625 14.109375 5.515625 27.296875 
Q 5.515625 40.671875 12.859375 48.328125 
Q 20.21875 56 33.015625 56 
Q 37.15625 56 41.109375 55.140625 
Q 45.0625 54.296875 48.78125 52.59375 
z
M 38.53125 79.984375 
L 48.25 79.984375 
L 32.34375 61.625 
L 24.859375 61.625 
z
" id="DejaVuSans-263"/>
       <path id="DejaVuSans-32"/>
       <path d="M 4.203125 54.6875 
L 13.1875 54.6875 
L 24.421875 12.015625 
L 35.59375 54.6875 
L 46.1875 54.6875 
L 57.421875 12.015625 
L 68.609375 54.6875 
L 77.59375 54.6875 
L 63.28125 0 
L 52.6875 0 
L 40.921875 44.828125 
L 29.109375 0 
L 18.5 0 
z
" id="DejaVuSans-119"/>
       <path d="M 19.671875 64.796875 
L 19.671875 37.40625 
L 32.078125 37.40625 
Q 38.96875 37.40625 42.71875 40.96875 
Q 46.484375 44.53125 46.484375 51.125 
Q 46.484375 57.671875 42.71875 61.234375 
Q 38.96875 64.796875 32.078125 64.796875 
z
M 9.8125 72.90625 
L 32.078125 72.90625 
Q 44.34375 72.90625 50.609375 67.359375 
Q 56.890625 61.8125 56.890625 51.125 
Q 56.890625 40.328125 50.609375 34.8125 
Q 44.34375 29.296875 32.078125 29.296875 
L 19.671875 29.296875 
L 19.671875 0 
L 9.8125 0 
z
" id="DejaVuSans-80"/>
       <path d="M 9.8125 72.90625 
L 19.671875 72.90625 
L 19.671875 8.296875 
L 55.171875 8.296875 
L 55.171875 0 
L 9.8125 0 
z
" id="DejaVuSans-76"/>
       <path d="M 9.8125 72.90625 
L 23.09375 72.90625 
L 55.421875 11.921875 
L 55.421875 72.90625 
L 64.984375 72.90625 
L 64.984375 0 
L 51.703125 0 
L 19.390625 60.984375 
L 19.390625 0 
L 9.8125 0 
z
" id="DejaVuSans-78"/>
      </defs>
      <use xlink:href="#DejaVuSans-87"/>
      <use x="92.501953" xlink:href="#DejaVuSans-97"/>
      <use x="153.78125" xlink:href="#DejaVuSans-114"/>
      <use x="194.894531" xlink:href="#DejaVuSans-116"/>
      <use x="234.103516" xlink:href="#DejaVuSans-111"/>
      <use x="295.285156" xlink:href="#DejaVuSans-347"/>
      <use x="347.384766" xlink:href="#DejaVuSans-263"/>
      <use x="402.365234" xlink:href="#DejaVuSans-32"/>
      <use x="434.152344" xlink:href="#DejaVuSans-119"/>
      <use x="515.939453" xlink:href="#DejaVuSans-32"/>
      <use x="547.726562" xlink:href="#DejaVuSans-80"/>
      <use x="608.029297" xlink:href="#DejaVuSans-76"/>
      <use x="663.742188" xlink:href="#DejaVuSans-78"/>
     </g>
    </g>
   </g>
   <g id="line2d_16">
    <path clip-path="url(#pa15916263e)" d="M 73.832727 250.804272 
L 75.091078 249.656901 
L 76.349429 255.569049 
L 77.60778 259.31394 
L 78.866131 261.513068 
L 80.124482 273.114264 
L 81.382833 271.982829 
L 82.641184 281.289283 
L 83.899535 280.380948 
L 85.157886 285.193532 
L 86.416237 290.739159 
L 87.674588 274.341314 
L 88.932939 281.368962 
L 90.19129 274.484735 
L 91.449641 271.456951 
L 93.966342 279.807262 
L 95.224693 278.96267 
L 96.483044 285.575989 
L 97.741395 295.488 
L 98.999746 286.516196 
L 100.258097 269.480923 
L 101.516448 274.150086 
L 102.774799 280.763405 
L 104.03315 272.34935 
L 105.291501 276.046435 
L 106.549852 272.158122 
L 107.808203 267.568638 
L 109.066554 268.85943 
L 110.324905 262.580761 
L 111.583256 261.066868 
L 112.841607 255.584984 
L 114.099958 259.521105 
L 115.358309 255.282206 
L 116.61666 256.93952 
L 119.133362 247.28248 
L 120.391712 239.07559 
L 121.650063 243.79256 
L 122.908414 240.302639 
L 124.166765 235.13947 
L 125.425116 248.652951 
L 126.683467 251.282343 
L 127.941818 250.628979 
L 129.200169 248.190815 
L 130.45852 250.087165 
L 131.716871 249.306315 
L 132.975222 241.083489 
L 134.233573 237.227047 
L 135.491924 229.737264 
L 136.750275 223.522338 
L 138.008626 222.10406 
L 139.266977 229.7532 
L 140.525328 231.601742 
L 141.783679 236.733041 
L 143.04203 242.390217 
L 144.300381 240.159218 
L 145.558732 239.41024 
L 148.075433 245.338323 
L 149.333784 237.083626 
L 150.592135 236.318712 
L 151.850486 231.856714 
L 153.108837 234.677334 
L 154.367188 233.992099 
L 155.625539 221.865024 
L 156.88389 220.76546 
L 158.142241 221.833152 
L 159.400592 224.446609 
L 160.658943 224.03228 
L 161.917294 233.944291 
L 163.175645 226.37483 
L 164.433996 235.665348 
L 165.692347 239.091525 
L 166.950698 244.222824 
L 168.209049 246.469759 
L 169.4674 249.401929 
L 170.725751 255.505306 
L 171.984101 255.186592 
L 173.242452 267.249923 
L 174.500803 268.365423 
L 175.759154 264.062782 
L 177.017505 270.453001 
L 178.275856 272.34935 
L 179.534207 271.680051 
L 180.792558 273.385171 
L 182.050909 269.624344 
L 183.30926 274.054471 
L 184.567611 279.552291 
L 185.825962 279.137962 
L 187.084313 275.695849 
L 188.342664 276.651992 
L 189.601015 274.13415 
L 190.859366 276.381085 
L 192.117717 262.963218 
L 193.376068 274.309443 
L 194.634419 277.369099 
L 195.89277 279.122027 
L 197.151121 276.779478 
L 199.667822 285.257275 
L 200.926173 284.093968 
L 202.184524 287.265174 
L 203.442875 291.201294 
L 204.701226 288.699388 
L 205.959577 286.532131 
L 207.217928 281.241476 
L 208.476279 278.022463 
L 209.73463 276.84322 
L 210.992981 283.392797 
L 212.251332 284.890753 
L 213.509683 282.356976 
L 214.768034 282.309169 
L 216.026385 275.759592 
L 217.284736 275.377135 
L 218.543087 275.934885 
L 219.801438 281.145862 
L 221.059789 282.309169 
L 222.31814 284.141775 
L 223.57649 276.062371 
L 224.834841 280.253462 
L 226.093192 281.353026 
L 227.351543 287.870731 
L 228.609894 285.305082 
L 229.868245 283.169697 
L 231.126596 283.854932 
L 232.384947 286.627746 
L 233.643298 287.05801 
L 234.901649 278.882991 
L 236.16 276.094242 
L 237.418351 273.926986 
L 238.676702 272.492772 
L 239.935053 270.42113 
L 241.193404 273.863243 
L 242.451755 274.707835 
L 243.710106 266.357524 
L 244.968457 273.002714 
L 246.226808 272.524643 
L 247.485159 272.891164 
L 248.74351 273.703886 
L 250.00186 271.409144 
L 251.260211 271.823472 
L 252.518562 276.142049 
L 253.776913 277.353163 
L 255.035264 276.285471 
L 256.293615 278.787377 
L 257.551966 277.448777 
L 258.810317 272.699936 
L 260.068668 266.516881 
L 261.327019 267.170245 
L 262.58537 264.397432 
L 263.843721 259.250197 
L 265.102072 258.772126 
L 266.360423 248.302365 
L 267.618774 245.800459 
L 268.877125 233.46622 
L 270.135476 235.999998 
L 271.393827 232.223235 
L 272.652178 240.238897 
L 273.910529 242.103374 
L 275.168879 231.761099 
L 276.42723 226.677608 
L 277.685581 229.705393 
L 278.943932 230.565921 
L 280.202283 228.334922 
L 281.460634 220.940753 
L 282.718985 217.227733 
L 283.977336 210.77377 
L 285.235687 216.287526 
L 286.494038 217.434897 
L 287.752389 227.888722 
L 289.01074 230.071914 
L 290.269091 237.944154 
L 291.527442 230.295014 
L 292.785793 229.673521 
L 294.044144 232.398528 
L 295.302495 239.553661 
L 296.560846 243.218874 
L 297.819197 240.430125 
L 299.077548 247.521516 
L 300.335899 245.194902 
L 301.594249 238.693133 
L 302.8526 237.418276 
L 304.110951 237.689183 
L 305.369302 238.85249 
L 306.627653 232.589756 
L 307.886004 240.924132 
L 309.144355 247.760551 
L 310.402706 248.222687 
L 311.661057 248.413915 
L 314.177759 238.18319 
L 315.43611 230.518114 
L 316.694461 236.780848 
L 317.952812 238.979975 
L 319.211163 232.988149 
L 320.469514 231.713292 
L 321.727865 233.46622 
L 322.986216 239.52179 
L 324.244567 239.888311 
L 325.502918 240.685096 
L 326.761268 239.713018 
L 328.019619 230.661535 
L 329.27797 228.287115 
L 330.536321 227.633751 
L 331.794672 230.75715 
L 333.053023 241.593432 
L 334.311374 242.597381 
L 335.569725 246.931894 
L 336.828076 248.334237 
L 338.086427 247.664937 
L 339.344778 246.294466 
L 340.603129 258.97929 
L 341.86148 261.305904 
L 343.119831 254.389806 
L 344.378182 256.38177 
L 345.636533 251.919771 
L 346.894884 251.808221 
L 348.153235 254.087028 
L 349.411586 250.9955 
L 350.669937 256.843905 
L 351.928288 255.919634 
L 355.70334 263.186318 
L 356.961691 260.126661 
L 358.220042 261.879589 
L 359.478393 260.046983 
L 360.736744 253.736442 
L 361.995095 248.700758 
L 363.253446 249.401929 
L 364.511797 248.684822 
L 365.770148 250.5493 
L 367.028499 243.983788 
L 368.28685 255.744341 
L 370.803552 267.951095 
L 372.061903 269.401244 
L 373.320254 276.062371 
L 374.578605 273.321429 
L 375.836956 284.811075 
L 377.095307 283.599961 
L 378.353658 278.787377 
L 379.612008 276.84322 
L 380.870359 269.496858 
L 382.12871 275.552428 
L 383.387061 268.094516 
L 384.645412 268.795687 
L 387.162114 267.202116 
L 388.420465 274.4688 
L 390.937167 273.624207 
L 392.195518 272.620257 
L 393.453869 276.604185 
L 394.71222 281.273347 
L 397.228922 278.914863 
L 398.487273 275.823335 
L 398.487273 275.823335 
" style="fill:none;stroke:#1f77b4;stroke-linecap:square;stroke-width:1.5;"/>
   </g>
   <g id="line2d_17">
    <path clip-path="url(#pa15916263e)" d="M 73.832727 73.838222 
L 75.091078 80.41967 
L 76.349429 81.041163 
L 77.60778 83.479326 
L 78.866131 83.256226 
L 80.124482 91.925252 
L 81.382833 89.136503 
L 82.641184 93.279787 
L 83.899535 93.104494 
L 85.157886 96.865322 
L 86.416237 100.195885 
L 87.674588 87.718225 
L 88.932939 90.347617 
L 90.19129 85.662518 
L 91.449641 80.371863 
L 92.707992 80.786191 
L 93.966342 83.12874 
L 95.224693 82.029176 
L 96.483044 87.893517 
L 97.741395 92.642359 
L 98.999746 88.769981 
L 100.258097 77.407821 
L 102.774799 88.275974 
L 104.03315 83.495262 
L 105.291501 85.80594 
L 106.549852 83.606812 
L 107.808203 82.810026 
L 109.066554 79.383849 
L 110.324905 78.714549 
L 111.583256 77.264399 
L 112.841607 73.567315 
L 114.099958 75.224629 
L 116.61666 72.611172 
L 117.875011 69.583388 
L 119.133362 66.109403 
L 120.391712 61.727083 
L 121.650063 62.66729 
L 124.166765 55.926485 
L 125.425116 62.476061 
L 126.683467 66.794639 
L 127.941818 67.416131 
L 129.200169 68.404145 
L 130.45852 68.738795 
L 131.716871 68.706924 
L 132.975222 60.691262 
L 134.233573 59.735119 
L 135.491924 54.2373 
L 136.750275 53.568 
L 138.008626 56.133649 
L 139.266977 62.300769 
L 140.525328 65.232939 
L 141.783679 69.615259 
L 143.04203 72.977694 
L 144.300381 72.754594 
L 145.558732 73.344215 
L 146.817082 76.945685 
L 148.075433 81.104905 
L 149.333784 78.475513 
L 150.592135 77.057235 
L 151.850486 69.535581 
L 153.108837 70.220816 
L 154.367188 67.734845 
L 155.625539 61.647405 
L 156.88389 65.360425 
L 158.142241 65.663203 
L 159.400592 69.455902 
L 160.658943 71.256637 
L 161.917294 79.097006 
L 163.175645 78.842035 
L 164.433996 84.387661 
L 165.692347 87.84571 
L 166.950698 89.439281 
L 168.209049 91.526859 
L 169.4674 93.90128 
L 170.725751 97.50275 
L 171.984101 97.980821 
L 173.242452 104.737562 
L 174.500803 108.052189 
L 175.759154 102.21972 
L 178.275856 112.673545 
L 179.534207 111.685531 
L 180.792558 112.689481 
L 182.050909 114.203373 
L 183.30926 114.506152 
L 184.567611 116.227208 
L 185.825962 115.287001 
L 187.084313 110.840939 
L 188.342664 112.434509 
L 189.601015 112.641674 
L 190.859366 116.466244 
L 192.117717 107.207597 
L 193.376068 114.155566 
L 194.634419 115.191387 
L 195.89277 115.828815 
L 197.151121 113.884659 
L 198.409471 114.633637 
L 199.667822 117.119608 
L 200.926173 114.075887 
L 202.184524 117.502065 
L 203.442875 121.725028 
L 204.701226 124.386291 
L 205.959577 125.549598 
L 208.476279 118.458207 
L 209.73463 118.330722 
L 210.992981 123.477956 
L 212.251332 125.262755 
L 213.509683 126.553548 
L 214.768034 125.438048 
L 216.026385 121.246957 
L 217.284736 120.848564 
L 218.543087 121.693156 
L 219.801438 123.23892 
L 221.059789 123.047692 
L 222.31814 121.740964 
L 223.57649 116.48218 
L 224.834841 117.199286 
L 226.093192 121.023857 
L 227.351543 122.760849 
L 228.609894 119.5259 
L 229.868245 117.980136 
L 231.126596 117.725165 
L 232.384947 120.721078 
L 233.643298 122.330585 
L 234.901649 119.653386 
L 236.16 118.872536 
L 237.418351 118.537886 
L 238.676702 115.494166 
L 239.935053 111.478367 
L 241.193404 115.749137 
L 242.451755 115.127644 
L 243.710106 111.159653 
L 246.226808 115.430423 
L 247.485159 113.757173 
L 248.74351 113.438459 
L 250.00186 111.079974 
L 251.260211 110.665646 
L 252.518562 113.677495 
L 253.776913 114.394602 
L 255.035264 114.47428 
L 256.293615 116.051915 
L 257.551966 117.980136 
L 258.810317 113.518138 
L 260.068668 111.749274 
L 261.327019 112.418574 
L 262.58537 110.856874 
L 263.843721 105.566219 
L 265.102072 105.024405 
L 266.360423 95.670143 
L 267.618774 93.12043 
L 268.877125 84.80199 
L 270.135476 87.861646 
L 271.393827 84.786054 
L 272.652178 90.538845 
L 273.910529 92.403323 
L 275.168879 86.491175 
L 276.42723 85.072897 
L 277.685581 87.542932 
L 278.943932 88.62656 
L 280.202283 87.526996 
L 281.460634 84.02114 
L 282.718985 81.503298 
L 283.977336 77.726535 
L 285.235687 79.622884 
L 286.494038 80.97742 
L 287.752389 88.929339 
L 289.01074 94.427158 
L 290.269091 96.913129 
L 291.527442 92.132416 
L 292.785793 90.730074 
L 294.044144 92.371452 
L 295.302495 96.865322 
L 296.560846 100.76957 
L 297.819197 99.924978 
L 299.077548 103.590191 
L 300.335899 102.283463 
L 301.594249 100.291499 
L 304.110951 102.363141 
L 305.369302 103.637998 
L 306.627653 99.494714 
L 307.886004 101.837263 
L 309.144355 106.697654 
L 310.402706 109.852925 
L 311.661057 110.87281 
L 312.919408 108.084061 
L 314.177759 108.769296 
L 315.43611 105.215633 
L 316.694461 110.952489 
L 317.952812 114.777059 
L 319.211163 111.478367 
L 320.469514 110.729389 
L 321.727865 112.577931 
L 322.986216 115.079837 
L 324.244567 116.306887 
L 325.502918 118.043879 
L 326.761268 117.518001 
L 328.019619 114.792994 
L 329.27797 111.43056 
L 330.536321 110.219446 
L 331.794672 113.948402 
L 333.053023 120.227071 
L 334.311374 120.991985 
L 335.569725 126.171091 
L 336.828076 125.199012 
L 338.086427 126.537612 
L 339.344778 128.06744 
L 340.603129 135.732516 
L 341.86148 136.067166 
L 343.119831 128.84829 
L 344.378182 133.67681 
L 345.636533 131.190839 
L 346.894884 130.362182 
L 348.153235 129.326361 
L 349.411586 130.409989 
L 350.669937 132.640989 
L 353.186638 132.593181 
L 354.444989 131.860139 
L 355.70334 131.429875 
L 356.961691 127.350333 
L 358.220042 130.999611 
L 359.478393 128.338347 
L 360.736744 118.936279 
L 361.995095 112.896645 
L 363.253446 114.187437 
L 364.511797 111.908631 
L 365.770148 112.498252 
L 367.028499 109.103946 
L 368.28685 118.29885 
L 369.545201 123.159242 
L 370.803552 125.294627 
L 372.061903 126.187026 
L 373.320254 130.712768 
L 374.578605 125.214948 
L 375.836956 134.170817 
L 378.353658 124.083513 
L 379.612008 124.083513 
L 380.870359 117.422386 
L 382.12871 122.123421 
L 383.387061 119.127507 
L 385.903763 120.928242 
L 387.162114 119.286864 
L 388.420465 125.342434 
L 389.678816 127.222848 
L 392.195518 124.322548 
L 393.453869 128.609254 
L 394.71222 131.270518 
L 395.970571 131.206775 
L 397.228922 131.987625 
L 398.487273 130.919932 
L 398.487273 130.919932 
" style="fill:none;stroke:#ff7f0e;stroke-linecap:square;stroke-width:1.5;"/>
   </g>
   <g id="patch_3">
    <path d="M 57.6 307.584 
L 57.6 41.472 
" style="fill:none;stroke:#000000;stroke-linecap:square;stroke-linejoin:miter;stroke-width:0.8;"/>
   </g>
   <g id="patch_4">
    <path d="M 414.72 307.584 
L 414.72 41.472 
" style="fill:none;stroke:#000000;stroke-linecap:square;stroke-linejoin:miter;stroke-width:0.8;"/>
   </g>
   <g id="patch_5">
    <path d="M 57.6 307.584 
L 414.72 307.584 
" style="fill:none;stroke:#000000;stroke-linecap:square;stroke-linejoin:miter;stroke-width:0.8;"/>
   </g>
   <g id="patch_6">
    <path d="M 57.6 41.472 
L 414.72 41.472 
" style="fill:none;stroke:#000000;stroke-linecap:square;stroke-linejoin:miter;stroke-width:0.8;"/>
   </g>
   <g id="text_17">
    <!-- Ceny walut przedstawione na przestrzeni czasu -->
    <g transform="translate(57.6 35.472)scale(0.12 -0.12)">
     <defs>
      <path d="M 64.40625 67.28125 
L 64.40625 56.890625 
Q 59.421875 61.53125 53.78125 63.8125 
Q 48.140625 66.109375 41.796875 66.109375 
Q 29.296875 66.109375 22.65625 58.46875 
Q 16.015625 50.828125 16.015625 36.375 
Q 16.015625 21.96875 22.65625 14.328125 
Q 29.296875 6.6875 41.796875 6.6875 
Q 48.140625 6.6875 53.78125 8.984375 
Q 59.421875 11.28125 64.40625 15.921875 
L 64.40625 5.609375 
Q 59.234375 2.09375 53.4375 0.328125 
Q 47.65625 -1.421875 41.21875 -1.421875 
Q 24.65625 -1.421875 15.125 8.703125 
Q 5.609375 18.84375 5.609375 36.375 
Q 5.609375 53.953125 15.125 64.078125 
Q 24.65625 74.21875 41.21875 74.21875 
Q 47.75 74.21875 53.53125 72.484375 
Q 59.328125 70.75 64.40625 67.28125 
z
" id="DejaVuSans-67"/>
      <path d="M 56.203125 29.59375 
L 56.203125 25.203125 
L 14.890625 25.203125 
Q 15.484375 15.921875 20.484375 11.0625 
Q 25.484375 6.203125 34.421875 6.203125 
Q 39.59375 6.203125 44.453125 7.46875 
Q 49.3125 8.734375 54.109375 11.28125 
L 54.109375 2.78125 
Q 49.265625 0.734375 44.1875 -0.34375 
Q 39.109375 -1.421875 33.890625 -1.421875 
Q 20.796875 -1.421875 13.15625 6.1875 
Q 5.515625 13.8125 5.515625 26.8125 
Q 5.515625 40.234375 12.765625 48.109375 
Q 20.015625 56 32.328125 56 
Q 43.359375 56 49.78125 48.890625 
Q 56.203125 41.796875 56.203125 29.59375 
z
M 47.21875 32.234375 
Q 47.125 39.59375 43.09375 43.984375 
Q 39.0625 48.390625 32.421875 48.390625 
Q 24.90625 48.390625 20.390625 44.140625 
Q 15.875 39.890625 15.1875 32.171875 
z
" id="DejaVuSans-101"/>
      <path d="M 54.890625 33.015625 
L 54.890625 0 
L 45.90625 0 
L 45.90625 32.71875 
Q 45.90625 40.484375 42.875 44.328125 
Q 39.84375 48.1875 33.796875 48.1875 
Q 26.515625 48.1875 22.3125 43.546875 
Q 18.109375 38.921875 18.109375 30.90625 
L 18.109375 0 
L 9.078125 0 
L 9.078125 54.6875 
L 18.109375 54.6875 
L 18.109375 46.1875 
Q 21.34375 51.125 25.703125 53.5625 
Q 30.078125 56 35.796875 56 
Q 45.21875 56 50.046875 50.171875 
Q 54.890625 44.34375 54.890625 33.015625 
z
" id="DejaVuSans-110"/>
      <path d="M 32.171875 -5.078125 
Q 28.375 -14.84375 24.75 -17.8125 
Q 21.140625 -20.796875 15.09375 -20.796875 
L 7.90625 -20.796875 
L 7.90625 -13.28125 
L 13.1875 -13.28125 
Q 16.890625 -13.28125 18.9375 -11.515625 
Q 21 -9.765625 23.484375 -3.21875 
L 25.09375 0.875 
L 2.984375 54.6875 
L 12.5 54.6875 
L 29.59375 11.921875 
L 46.6875 54.6875 
L 56.203125 54.6875 
z
" id="DejaVuSans-121"/>
      <path d="M 9.421875 75.984375 
L 18.40625 75.984375 
L 18.40625 0 
L 9.421875 0 
z
" id="DejaVuSans-108"/>
      <path d="M 8.5 21.578125 
L 8.5 54.6875 
L 17.484375 54.6875 
L 17.484375 21.921875 
Q 17.484375 14.15625 20.5 10.265625 
Q 23.53125 6.390625 29.59375 6.390625 
Q 36.859375 6.390625 41.078125 11.03125 
Q 45.3125 15.671875 45.3125 23.6875 
L 45.3125 54.6875 
L 54.296875 54.6875 
L 54.296875 0 
L 45.3125 0 
L 45.3125 8.40625 
Q 42.046875 3.421875 37.71875 1 
Q 33.40625 -1.421875 27.6875 -1.421875 
Q 18.265625 -1.421875 13.375 4.4375 
Q 8.5 10.296875 8.5 21.578125 
z
M 31.109375 56 
z
" id="DejaVuSans-117"/>
      <path d="M 18.109375 8.203125 
L 18.109375 -20.796875 
L 9.078125 -20.796875 
L 9.078125 54.6875 
L 18.109375 54.6875 
L 18.109375 46.390625 
Q 20.953125 51.265625 25.265625 53.625 
Q 29.59375 56 35.59375 56 
Q 45.5625 56 51.78125 48.09375 
Q 58.015625 40.1875 58.015625 27.296875 
Q 58.015625 14.40625 51.78125 6.484375 
Q 45.5625 -1.421875 35.59375 -1.421875 
Q 29.59375 -1.421875 25.265625 0.953125 
Q 20.953125 3.328125 18.109375 8.203125 
z
M 48.6875 27.296875 
Q 48.6875 37.203125 44.609375 42.84375 
Q 40.53125 48.484375 33.40625 48.484375 
Q 26.265625 48.484375 22.1875 42.84375 
Q 18.109375 37.203125 18.109375 27.296875 
Q 18.109375 17.390625 22.1875 11.75 
Q 26.265625 6.109375 33.40625 6.109375 
Q 40.53125 6.109375 44.609375 11.75 
Q 48.6875 17.390625 48.6875 27.296875 
z
" id="DejaVuSans-112"/>
      <path d="M 5.515625 54.6875 
L 48.1875 54.6875 
L 48.1875 46.484375 
L 14.40625 7.171875 
L 48.1875 7.171875 
L 48.1875 0 
L 4.296875 0 
L 4.296875 8.203125 
L 38.09375 47.515625 
L 5.515625 47.515625 
z
" id="DejaVuSans-122"/>
      <path d="M 45.40625 46.390625 
L 45.40625 75.984375 
L 54.390625 75.984375 
L 54.390625 0 
L 45.40625 0 
L 45.40625 8.203125 
Q 42.578125 3.328125 38.25 0.953125 
Q 33.9375 -1.421875 27.875 -1.421875 
Q 17.96875 -1.421875 11.734375 6.484375 
Q 5.515625 14.40625 5.515625 27.296875 
Q 5.515625 40.1875 11.734375 48.09375 
Q 17.96875 56 27.875 56 
Q 33.9375 56 38.25 53.625 
Q 42.578125 51.265625 45.40625 46.390625 
z
M 14.796875 27.296875 
Q 14.796875 17.390625 18.875 11.75 
Q 22.953125 6.109375 30.078125 6.109375 
Q 37.203125 6.109375 41.296875 11.75 
Q 45.40625 17.390625 45.40625 27.296875 
Q 45.40625 37.203125 41.296875 42.84375 
Q 37.203125 48.484375 30.078125 48.484375 
Q 22.953125 48.484375 18.875 42.84375 
Q 14.796875 37.203125 14.796875 27.296875 
z
" id="DejaVuSans-100"/>
      <path d="M 44.28125 53.078125 
L 44.28125 44.578125 
Q 40.484375 46.53125 36.375 47.5 
Q 32.28125 48.484375 27.875 48.484375 
Q 21.1875 48.484375 17.84375 46.4375 
Q 14.5 44.390625 14.5 40.28125 
Q 14.5 37.15625 16.890625 35.375 
Q 19.28125 33.59375 26.515625 31.984375 
L 29.59375 31.296875 
Q 39.15625 29.25 43.1875 25.515625 
Q 47.21875 21.78125 47.21875 15.09375 
Q 47.21875 7.46875 41.1875 3.015625 
Q 35.15625 -1.421875 24.609375 -1.421875 
Q 20.21875 -1.421875 15.453125 -0.5625 
Q 10.6875 0.296875 5.421875 2 
L 5.421875 11.28125 
Q 10.40625 8.6875 15.234375 7.390625 
Q 20.0625 6.109375 24.8125 6.109375 
Q 31.15625 6.109375 34.5625 8.28125 
Q 37.984375 10.453125 37.984375 14.40625 
Q 37.984375 18.0625 35.515625 20.015625 
Q 33.0625 21.96875 24.703125 23.78125 
L 21.578125 24.515625 
Q 13.234375 26.265625 9.515625 29.90625 
Q 5.8125 33.546875 5.8125 39.890625 
Q 5.8125 47.609375 11.28125 51.796875 
Q 16.75 56 26.8125 56 
Q 31.78125 56 36.171875 55.265625 
Q 40.578125 54.546875 44.28125 53.078125 
z
" id="DejaVuSans-115"/>
      <path d="M 9.421875 54.6875 
L 18.40625 54.6875 
L 18.40625 0 
L 9.421875 0 
z
M 9.421875 75.984375 
L 18.40625 75.984375 
L 18.40625 64.59375 
L 9.421875 64.59375 
z
" id="DejaVuSans-105"/>
      <path d="M 48.78125 52.59375 
L 48.78125 44.1875 
Q 44.96875 46.296875 41.140625 47.34375 
Q 37.3125 48.390625 33.40625 48.390625 
Q 24.65625 48.390625 19.8125 42.84375 
Q 14.984375 37.3125 14.984375 27.296875 
Q 14.984375 17.28125 19.8125 11.734375 
Q 24.65625 6.203125 33.40625 6.203125 
Q 37.3125 6.203125 41.140625 7.25 
Q 44.96875 8.296875 48.78125 10.40625 
L 48.78125 2.09375 
Q 45.015625 0.34375 40.984375 -0.53125 
Q 36.96875 -1.421875 32.421875 -1.421875 
Q 20.0625 -1.421875 12.78125 6.34375 
Q 5.515625 14.109375 5.515625 27.296875 
Q 5.515625 40.671875 12.859375 48.328125 
Q 20.21875 56 33.015625 56 
Q 37.15625 56 41.109375 55.140625 
Q 45.0625 54.296875 48.78125 52.59375 
z
" id="DejaVuSans-99"/>
     </defs>
     <use xlink:href="#DejaVuSans-67"/>
     <use x="69.824219" xlink:href="#DejaVuSans-101"/>
     <use x="131.347656" xlink:href="#DejaVuSans-110"/>
     <use x="194.726562" xlink:href="#DejaVuSans-121"/>
     <use x="253.90625" xlink:href="#DejaVuSans-32"/>
     <use x="285.693359" xlink:href="#DejaVuSans-119"/>
     <use x="367.480469" xlink:href="#DejaVuSans-97"/>
     <use x="428.759766" xlink:href="#DejaVuSans-108"/>
     <use x="456.542969" xlink:href="#DejaVuSans-117"/>
     <use x="519.921875" xlink:href="#DejaVuSans-116"/>
     <use x="559.130859" xlink:href="#DejaVuSans-32"/>
     <use x="590.917969" xlink:href="#DejaVuSans-112"/>
     <use x="654.394531" xlink:href="#DejaVuSans-114"/>
     <use x="695.507812" xlink:href="#DejaVuSans-122"/>
     <use x="747.998047" xlink:href="#DejaVuSans-101"/>
     <use x="809.521484" xlink:href="#DejaVuSans-100"/>
     <use x="872.998047" xlink:href="#DejaVuSans-115"/>
     <use x="925.097656" xlink:href="#DejaVuSans-116"/>
     <use x="964.306641" xlink:href="#DejaVuSans-97"/>
     <use x="1025.585938" xlink:href="#DejaVuSans-119"/>
     <use x="1107.373047" xlink:href="#DejaVuSans-105"/>
     <use x="1135.15625" xlink:href="#DejaVuSans-111"/>
     <use x="1196.337891" xlink:href="#DejaVuSans-110"/>
     <use x="1259.716797" xlink:href="#DejaVuSans-101"/>
     <use x="1321.240234" xlink:href="#DejaVuSans-32"/>
     <use x="1353.027344" xlink:href="#DejaVuSans-110"/>
     <use x="1416.40625" xlink:href="#DejaVuSans-97"/>
     <use x="1477.685547" xlink:href="#DejaVuSans-32"/>
     <use x="1509.472656" xlink:href="#DejaVuSans-112"/>
     <use x="1572.949219" xlink:href="#DejaVuSans-114"/>
     <use x="1614.0625" xlink:href="#DejaVuSans-122"/>
     <use x="1666.552734" xlink:href="#DejaVuSans-101"/>
     <use x="1728.076172" xlink:href="#DejaVuSans-115"/>
     <use x="1780.175781" xlink:href="#DejaVuSans-116"/>
     <use x="1819.384766" xlink:href="#DejaVuSans-114"/>
     <use x="1860.498047" xlink:href="#DejaVuSans-122"/>
     <use x="1912.988281" xlink:href="#DejaVuSans-101"/>
     <use x="1974.511719" xlink:href="#DejaVuSans-110"/>
     <use x="2037.890625" xlink:href="#DejaVuSans-105"/>
     <use x="2065.673828" xlink:href="#DejaVuSans-32"/>
     <use x="2097.460938" xlink:href="#DejaVuSans-99"/>
     <use x="2152.441406" xlink:href="#DejaVuSans-122"/>
     <use x="2204.931641" xlink:href="#DejaVuSans-97"/>
     <use x="2266.210938" xlink:href="#DejaVuSans-115"/>
     <use x="2318.310547" xlink:href="#DejaVuSans-117"/>
    </g>
   </g>
   <g id="legend_1">
    <g id="patch_7">
     <path d="M 64.6 64.150125 
L 186.553125 64.150125 
Q 188.553125 64.150125 188.553125 62.150125 
L 188.553125 48.472 
Q 188.553125 46.472 186.553125 46.472 
L 64.6 46.472 
Q 62.6 46.472 62.6 48.472 
L 62.6 62.150125 
Q 62.6 64.150125 64.6 64.150125 
z
" style="fill:#ffffff;opacity:0.8;stroke:#cccccc;stroke-linejoin:miter;"/>
    </g>
    <g id="line2d_18">
     <path d="M 66.6 54.570438 
L 86.6 54.570438 
" style="fill:none;stroke:#1f77b4;stroke-linecap:square;stroke-width:1.5;"/>
    </g>
    <g id="line2d_19"/>
    <g id="text_18">
     <!-- USD -->
     <g transform="translate(94.6 58.070438)scale(0.1 -0.1)">
      <defs>
       <path d="M 8.6875 72.90625 
L 18.609375 72.90625 
L 18.609375 28.609375 
Q 18.609375 16.890625 22.84375 11.734375 
Q 27.09375 6.59375 36.625 6.59375 
Q 46.09375 6.59375 50.34375 11.734375 
Q 54.59375 16.890625 54.59375 28.609375 
L 54.59375 72.90625 
L 64.5 72.90625 
L 64.5 27.390625 
Q 64.5 13.140625 57.4375 5.859375 
Q 50.390625 -1.421875 36.625 -1.421875 
Q 22.796875 -1.421875 15.734375 5.859375 
Q 8.6875 13.140625 8.6875 27.390625 
z
" id="DejaVuSans-85"/>
       <path d="M 53.515625 70.515625 
L 53.515625 60.890625 
Q 47.90625 63.578125 42.921875 64.890625 
Q 37.9375 66.21875 33.296875 66.21875 
Q 25.25 66.21875 20.875 63.09375 
Q 16.5 59.96875 16.5 54.203125 
Q 16.5 49.359375 19.40625 46.890625 
Q 22.3125 44.4375 30.421875 42.921875 
L 36.375 41.703125 
Q 47.40625 39.59375 52.65625 34.296875 
Q 57.90625 29 57.90625 20.125 
Q 57.90625 9.515625 50.796875 4.046875 
Q 43.703125 -1.421875 29.984375 -1.421875 
Q 24.8125 -1.421875 18.96875 -0.25 
Q 13.140625 0.921875 6.890625 3.21875 
L 6.890625 13.375 
Q 12.890625 10.015625 18.65625 8.296875 
Q 24.421875 6.59375 29.984375 6.59375 
Q 38.421875 6.59375 43.015625 9.90625 
Q 47.609375 13.234375 47.609375 19.390625 
Q 47.609375 24.75 44.3125 27.78125 
Q 41.015625 30.8125 33.5 32.328125 
L 27.484375 33.5 
Q 16.453125 35.6875 11.515625 40.375 
Q 6.59375 45.0625 6.59375 53.421875 
Q 6.59375 63.09375 13.40625 68.65625 
Q 20.21875 74.21875 32.171875 74.21875 
Q 37.3125 74.21875 42.625 73.28125 
Q 47.953125 72.359375 53.515625 70.515625 
z
" id="DejaVuSans-83"/>
      </defs>
      <use xlink:href="#DejaVuSans-85"/>
      <use x="73.193359" xlink:href="#DejaVuSans-83"/>
      <use x="136.669922" xlink:href="#DejaVuSans-68"/>
     </g>
    </g>
    <g id="line2d_20">
     <path d="M 135.967187 54.570438 
L 155.967187 54.570438 
" style="fill:none;stroke:#ff7f0e;stroke-linecap:square;stroke-width:1.5;"/>
    </g>
    <g id="line2d_21"/>
    <g id="text_19">
     <!-- EUR -->
     <g transform="translate(163.967187 58.070438)scale(0.1 -0.1)">
      <defs>
       <path d="M 9.8125 72.90625 
L 55.90625 72.90625 
L 55.90625 64.59375 
L 19.671875 64.59375 
L 19.671875 43.015625 
L 54.390625 43.015625 
L 54.390625 34.71875 
L 19.671875 34.71875 
L 19.671875 8.296875 
L 56.78125 8.296875 
L 56.78125 0 
L 9.8125 0 
z
" id="DejaVuSans-69"/>
       <path d="M 44.390625 34.1875 
Q 47.5625 33.109375 50.5625 29.59375 
Q 53.5625 26.078125 56.59375 19.921875 
L 66.609375 0 
L 56 0 
L 46.6875 18.703125 
Q 43.0625 26.03125 39.671875 28.421875 
Q 36.28125 30.8125 30.421875 30.8125 
L 19.671875 30.8125 
L 19.671875 0 
L 9.8125 0 
L 9.8125 72.90625 
L 32.078125 72.90625 
Q 44.578125 72.90625 50.734375 67.671875 
Q 56.890625 62.453125 56.890625 51.90625 
Q 56.890625 45.015625 53.6875 40.46875 
Q 50.484375 35.9375 44.390625 34.1875 
z
M 19.671875 64.796875 
L 19.671875 38.921875 
L 32.078125 38.921875 
Q 39.203125 38.921875 42.84375 42.21875 
Q 46.484375 45.515625 46.484375 51.90625 
Q 46.484375 58.296875 42.84375 61.546875 
Q 39.203125 64.796875 32.078125 64.796875 
z
" id="DejaVuSans-82"/>
      </defs>
      <use xlink:href="#DejaVuSans-69"/>
      <use x="63.183594" xlink:href="#DejaVuSans-85"/>
      <use x="136.376953" xlink:href="#DejaVuSans-82"/>
     </g>
    </g>
   </g>
  </g>
 </g>
 <defs>
  <clipPath id="pa15916263e">
   <rect height="266.112" width="357.12" x="57.6" y="41.472"/>
  </clipPath>
 </defs>
</svg>
