<?xml version="1.0" encoding="utf-8" standalone="no"?>
<!DOCTYPE svg PUBLIC "-//W3C//DTD SVG 1.1//EN"
  "http://www.w3.org/Graphics/SVG/1.1/DTD/svg11.dtd">
<!-- Created with matplotlib (https://matplotlib.org/) -->
<svg height="504pt" version="1.1" viewBox="0 0 1800 504" width="1800pt" xmlns="http://www.w3.org/2000/svg" xmlns:xlink="http://www.w3.org/1999/xlink">
 <metadata>
  <rdf:RDF xmlns:cc="http://creativecommons.org/ns#" xmlns:dc="http://purl.org/dc/elements/1.1/" xmlns:rdf="http://www.w3.org/1999/02/22-rdf-syntax-ns#">
   <cc:Work>
    <dc:type rdf:resource="http://purl.org/dc/dcmitype/StillImage"/>
    <dc:date>2020-11-21T10:04:08.656466</dc:date>
    <dc:format>image/svg+xml</dc:format>
    <dc:creator>
     <cc:Agent>
      <dc:title>Matplotlib v3.3.3, https://matplotlib.org/</dc:title>
     </cc:Agent>
    </dc:creator>
   </cc:Work>
  </rdf:RDF>
 </metadata>
 <defs>
  <style type="text/css">*{stroke-linecap:butt;stroke-linejoin:round;}</style>
 </defs>
 <g id="figure_1">
  <g id="patch_1">
   <path d="M 0 504 
L 1800 504 
L 1800 0 
L 0 0 
z
" style="fill:#ffffff;"/>
  </g>
  <g id="axes_1">
   <g id="patch_2">
    <path d="M 225 448.56 
L 1620 448.56 
L 1620 60.48 
L 225 60.48 
z
" style="fill:#ffffff;"/>
   </g>
   <g id="matplotlib.axis_1">
    <g id="xtick_1">
     <g id="line2d_1">
      <defs>
       <path d="M 0 0 
L 0 3.5 
" id="md4948a2542" style="stroke:#000000;stroke-width:0.8;"/>
      </defs>
      <g>
       <use style="stroke:#000000;stroke-width:0.8;" x="288.409091" xlink:href="#md4948a2542" y="448.56"/>
      </g>
     </g>
     <g id="text_1">
      <!-- 2013-01-01 -->
      <g transform="translate(269.813287 502.026859)rotate(-45)scale(0.1 -0.1)">
       <defs>
        <path d="M 19.1875 8.296875 
L 53.609375 8.296875 
L 53.609375 0 
L 7.328125 0 
L 7.328125 8.296875 
Q 12.9375 14.109375 22.625 23.890625 
Q 32.328125 33.6875 34.8125 36.53125 
Q 39.546875 41.84375 41.421875 45.53125 
Q 43.3125 49.21875 43.3125 52.78125 
Q 43.3125 58.59375 39.234375 62.25 
Q 35.15625 65.921875 28.609375 65.921875 
Q 23.96875 65.921875 18.8125 64.3125 
Q 13.671875 62.703125 7.8125 59.421875 
L 7.8125 69.390625 
Q 13.765625 71.78125 18.9375 73 
Q 24.125 74.21875 28.421875 74.21875 
Q 39.75 74.21875 46.484375 68.546875 
Q 53.21875 62.890625 53.21875 53.421875 
Q 53.21875 48.921875 51.53125 44.890625 
Q 49.859375 40.875 45.40625 35.40625 
Q 44.1875 33.984375 37.640625 27.21875 
Q 31.109375 20.453125 19.1875 8.296875 
z
" id="DejaVuSans-50"/>
        <path d="M 31.78125 66.40625 
Q 24.171875 66.40625 20.328125 58.90625 
Q 16.5 51.421875 16.5 36.375 
Q 16.5 21.390625 20.328125 13.890625 
Q 24.171875 6.390625 31.78125 6.390625 
Q 39.453125 6.390625 43.28125 13.890625 
Q 47.125 21.390625 47.125 36.375 
Q 47.125 51.421875 43.28125 58.90625 
Q 39.453125 66.40625 31.78125 66.40625 
z
M 31.78125 74.21875 
Q 44.046875 74.21875 50.515625 64.515625 
Q 56.984375 54.828125 56.984375 36.375 
Q 56.984375 17.96875 50.515625 8.265625 
Q 44.046875 -1.421875 31.78125 -1.421875 
Q 19.53125 -1.421875 13.0625 8.265625 
Q 6.59375 17.96875 6.59375 36.375 
Q 6.59375 54.828125 13.0625 64.515625 
Q 19.53125 74.21875 31.78125 74.21875 
z
" id="DejaVuSans-48"/>
        <path d="M 12.40625 8.296875 
L 28.515625 8.296875 
L 28.515625 63.921875 
L 10.984375 60.40625 
L 10.984375 69.390625 
L 28.421875 72.90625 
L 38.28125 72.90625 
L 38.28125 8.296875 
L 54.390625 8.296875 
L 54.390625 0 
L 12.40625 0 
z
" id="DejaVuSans-49"/>
        <path d="M 40.578125 39.3125 
Q 47.65625 37.796875 51.625 33 
Q 55.609375 28.21875 55.609375 21.1875 
Q 55.609375 10.40625 48.1875 4.484375 
Q 40.765625 -1.421875 27.09375 -1.421875 
Q 22.515625 -1.421875 17.65625 -0.515625 
Q 12.796875 0.390625 7.625 2.203125 
L 7.625 11.71875 
Q 11.71875 9.328125 16.59375 8.109375 
Q 21.484375 6.890625 26.8125 6.890625 
Q 36.078125 6.890625 40.9375 10.546875 
Q 45.796875 14.203125 45.796875 21.1875 
Q 45.796875 27.640625 41.28125 31.265625 
Q 36.765625 34.90625 28.71875 34.90625 
L 20.21875 34.90625 
L 20.21875 43.015625 
L 29.109375 43.015625 
Q 36.375 43.015625 40.234375 45.921875 
Q 44.09375 48.828125 44.09375 54.296875 
Q 44.09375 59.90625 40.109375 62.90625 
Q 36.140625 65.921875 28.71875 65.921875 
Q 24.65625 65.921875 20.015625 65.03125 
Q 15.375 64.15625 9.8125 62.3125 
L 9.8125 71.09375 
Q 15.4375 72.65625 20.34375 73.4375 
Q 25.25 74.21875 29.59375 74.21875 
Q 40.828125 74.21875 47.359375 69.109375 
Q 53.90625 64.015625 53.90625 55.328125 
Q 53.90625 49.265625 50.4375 45.09375 
Q 46.96875 40.921875 40.578125 39.3125 
z
" id="DejaVuSans-51"/>
        <path d="M 4.890625 31.390625 
L 31.203125 31.390625 
L 31.203125 23.390625 
L 4.890625 23.390625 
z
" id="DejaVuSans-45"/>
       </defs>
       <use xlink:href="#DejaVuSans-50"/>
       <use x="63.623047" xlink:href="#DejaVuSans-48"/>
       <use x="127.246094" xlink:href="#DejaVuSans-49"/>
       <use x="190.869141" xlink:href="#DejaVuSans-51"/>
       <use x="254.492188" xlink:href="#DejaVuSans-45"/>
       <use x="290.576172" xlink:href="#DejaVuSans-48"/>
       <use x="354.199219" xlink:href="#DejaVuSans-49"/>
       <use x="417.822266" xlink:href="#DejaVuSans-45"/>
       <use x="453.90625" xlink:href="#DejaVuSans-48"/>
       <use x="517.529297" xlink:href="#DejaVuSans-49"/>
      </g>
     </g>
    </g>
    <g id="xtick_2">
     <g id="line2d_2">
      <g>
       <use style="stroke:#000000;stroke-width:0.8;" x="340.597643" xlink:href="#md4948a2542" y="448.56"/>
      </g>
     </g>
     <g id="text_2">
      <!-- 2013-01-31 -->
      <g transform="translate(322.00184 502.026859)rotate(-45)scale(0.1 -0.1)">
       <use xlink:href="#DejaVuSans-50"/>
       <use x="63.623047" xlink:href="#DejaVuSans-48"/>
       <use x="127.246094" xlink:href="#DejaVuSans-49"/>
       <use x="190.869141" xlink:href="#DejaVuSans-51"/>
       <use x="254.492188" xlink:href="#DejaVuSans-45"/>
       <use x="290.576172" xlink:href="#DejaVuSans-48"/>
       <use x="354.199219" xlink:href="#DejaVuSans-49"/>
       <use x="417.822266" xlink:href="#DejaVuSans-45"/>
       <use x="453.90625" xlink:href="#DejaVuSans-51"/>
       <use x="517.529297" xlink:href="#DejaVuSans-49"/>
      </g>
     </g>
    </g>
    <g id="xtick_3">
     <g id="line2d_3">
      <g>
       <use style="stroke:#000000;stroke-width:0.8;" x="392.786195" xlink:href="#md4948a2542" y="448.56"/>
      </g>
     </g>
     <g id="text_3">
      <!-- 2013-03-02 -->
      <g transform="translate(374.190392 502.026859)rotate(-45)scale(0.1 -0.1)">
       <use xlink:href="#DejaVuSans-50"/>
       <use x="63.623047" xlink:href="#DejaVuSans-48"/>
       <use x="127.246094" xlink:href="#DejaVuSans-49"/>
       <use x="190.869141" xlink:href="#DejaVuSans-51"/>
       <use x="254.492188" xlink:href="#DejaVuSans-45"/>
       <use x="290.576172" xlink:href="#DejaVuSans-48"/>
       <use x="354.199219" xlink:href="#DejaVuSans-51"/>
       <use x="417.822266" xlink:href="#DejaVuSans-45"/>
       <use x="453.90625" xlink:href="#DejaVuSans-48"/>
       <use x="517.529297" xlink:href="#DejaVuSans-50"/>
      </g>
     </g>
    </g>
    <g id="xtick_4">
     <g id="line2d_4">
      <g>
       <use style="stroke:#000000;stroke-width:0.8;" x="444.974747" xlink:href="#md4948a2542" y="448.56"/>
      </g>
     </g>
     <g id="text_4">
      <!-- 2013-04-01 -->
      <g transform="translate(426.378944 502.026859)rotate(-45)scale(0.1 -0.1)">
       <defs>
        <path d="M 37.796875 64.3125 
L 12.890625 25.390625 
L 37.796875 25.390625 
z
M 35.203125 72.90625 
L 47.609375 72.90625 
L 47.609375 25.390625 
L 58.015625 25.390625 
L 58.015625 17.1875 
L 47.609375 17.1875 
L 47.609375 0 
L 37.796875 0 
L 37.796875 17.1875 
L 4.890625 17.1875 
L 4.890625 26.703125 
z
" id="DejaVuSans-52"/>
       </defs>
       <use xlink:href="#DejaVuSans-50"/>
       <use x="63.623047" xlink:href="#DejaVuSans-48"/>
       <use x="127.246094" xlink:href="#DejaVuSans-49"/>
       <use x="190.869141" xlink:href="#DejaVuSans-51"/>
       <use x="254.492188" xlink:href="#DejaVuSans-45"/>
       <use x="290.576172" xlink:href="#DejaVuSans-48"/>
       <use x="354.199219" xlink:href="#DejaVuSans-52"/>
       <use x="417.822266" xlink:href="#DejaVuSans-45"/>
       <use x="453.90625" xlink:href="#DejaVuSans-48"/>
       <use x="517.529297" xlink:href="#DejaVuSans-49"/>
      </g>
     </g>
    </g>
    <g id="xtick_5">
     <g id="line2d_5">
      <g>
       <use style="stroke:#000000;stroke-width:0.8;" x="497.1633" xlink:href="#md4948a2542" y="448.56"/>
      </g>
     </g>
     <g id="text_5">
      <!-- 2013-05-01 -->
      <g transform="translate(478.567496 502.026859)rotate(-45)scale(0.1 -0.1)">
       <defs>
        <path d="M 10.796875 72.90625 
L 49.515625 72.90625 
L 49.515625 64.59375 
L 19.828125 64.59375 
L 19.828125 46.734375 
Q 21.96875 47.46875 24.109375 47.828125 
Q 26.265625 48.1875 28.421875 48.1875 
Q 40.625 48.1875 47.75 41.5 
Q 54.890625 34.8125 54.890625 23.390625 
Q 54.890625 11.625 47.5625 5.09375 
Q 40.234375 -1.421875 26.90625 -1.421875 
Q 22.3125 -1.421875 17.546875 -0.640625 
Q 12.796875 0.140625 7.71875 1.703125 
L 7.71875 11.625 
Q 12.109375 9.234375 16.796875 8.0625 
Q 21.484375 6.890625 26.703125 6.890625 
Q 35.15625 6.890625 40.078125 11.328125 
Q 45.015625 15.765625 45.015625 23.390625 
Q 45.015625 31 40.078125 35.4375 
Q 35.15625 39.890625 26.703125 39.890625 
Q 22.75 39.890625 18.8125 39.015625 
Q 14.890625 38.140625 10.796875 36.28125 
z
" id="DejaVuSans-53"/>
       </defs>
       <use xlink:href="#DejaVuSans-50"/>
       <use x="63.623047" xlink:href="#DejaVuSans-48"/>
       <use x="127.246094" xlink:href="#DejaVuSans-49"/>
       <use x="190.869141" xlink:href="#DejaVuSans-51"/>
       <use x="254.492188" xlink:href="#DejaVuSans-45"/>
       <use x="290.576172" xlink:href="#DejaVuSans-48"/>
       <use x="354.199219" xlink:href="#DejaVuSans-53"/>
       <use x="417.822266" xlink:href="#DejaVuSans-45"/>
       <use x="453.90625" xlink:href="#DejaVuSans-48"/>
       <use x="517.529297" xlink:href="#DejaVuSans-49"/>
      </g>
     </g>
    </g>
    <g id="xtick_6">
     <g id="line2d_6">
      <g>
       <use style="stroke:#000000;stroke-width:0.8;" x="549.351852" xlink:href="#md4948a2542" y="448.56"/>
      </g>
     </g>
     <g id="text_6">
      <!-- 2013-05-31 -->
      <g transform="translate(530.756048 502.026859)rotate(-45)scale(0.1 -0.1)">
       <use xlink:href="#DejaVuSans-50"/>
       <use x="63.623047" xlink:href="#DejaVuSans-48"/>
       <use x="127.246094" xlink:href="#DejaVuSans-49"/>
       <use x="190.869141" xlink:href="#DejaVuSans-51"/>
       <use x="254.492188" xlink:href="#DejaVuSans-45"/>
       <use x="290.576172" xlink:href="#DejaVuSans-48"/>
       <use x="354.199219" xlink:href="#DejaVuSans-53"/>
       <use x="417.822266" xlink:href="#DejaVuSans-45"/>
       <use x="453.90625" xlink:href="#DejaVuSans-51"/>
       <use x="517.529297" xlink:href="#DejaVuSans-49"/>
      </g>
     </g>
    </g>
    <g id="xtick_7">
     <g id="line2d_7">
      <g>
       <use style="stroke:#000000;stroke-width:0.8;" x="601.540404" xlink:href="#md4948a2542" y="448.56"/>
      </g>
     </g>
     <g id="text_7">
      <!-- 2013-06-30 -->
      <g transform="translate(582.944601 502.026859)rotate(-45)scale(0.1 -0.1)">
       <defs>
        <path d="M 33.015625 40.375 
Q 26.375 40.375 22.484375 35.828125 
Q 18.609375 31.296875 18.609375 23.390625 
Q 18.609375 15.53125 22.484375 10.953125 
Q 26.375 6.390625 33.015625 6.390625 
Q 39.65625 6.390625 43.53125 10.953125 
Q 47.40625 15.53125 47.40625 23.390625 
Q 47.40625 31.296875 43.53125 35.828125 
Q 39.65625 40.375 33.015625 40.375 
z
M 52.59375 71.296875 
L 52.59375 62.3125 
Q 48.875 64.0625 45.09375 64.984375 
Q 41.3125 65.921875 37.59375 65.921875 
Q 27.828125 65.921875 22.671875 59.328125 
Q 17.53125 52.734375 16.796875 39.40625 
Q 19.671875 43.65625 24.015625 45.921875 
Q 28.375 48.1875 33.59375 48.1875 
Q 44.578125 48.1875 50.953125 41.515625 
Q 57.328125 34.859375 57.328125 23.390625 
Q 57.328125 12.15625 50.6875 5.359375 
Q 44.046875 -1.421875 33.015625 -1.421875 
Q 20.359375 -1.421875 13.671875 8.265625 
Q 6.984375 17.96875 6.984375 36.375 
Q 6.984375 53.65625 15.1875 63.9375 
Q 23.390625 74.21875 37.203125 74.21875 
Q 40.921875 74.21875 44.703125 73.484375 
Q 48.484375 72.75 52.59375 71.296875 
z
" id="DejaVuSans-54"/>
       </defs>
       <use xlink:href="#DejaVuSans-50"/>
       <use x="63.623047" xlink:href="#DejaVuSans-48"/>
       <use x="127.246094" xlink:href="#DejaVuSans-49"/>
       <use x="190.869141" xlink:href="#DejaVuSans-51"/>
       <use x="254.492188" xlink:href="#DejaVuSans-45"/>
       <use x="290.576172" xlink:href="#DejaVuSans-48"/>
       <use x="354.199219" xlink:href="#DejaVuSans-54"/>
       <use x="417.822266" xlink:href="#DejaVuSans-45"/>
       <use x="453.90625" xlink:href="#DejaVuSans-51"/>
       <use x="517.529297" xlink:href="#DejaVuSans-48"/>
      </g>
     </g>
    </g>
    <g id="xtick_8">
     <g id="line2d_8">
      <g>
       <use style="stroke:#000000;stroke-width:0.8;" x="653.728956" xlink:href="#md4948a2542" y="448.56"/>
      </g>
     </g>
     <g id="text_8">
      <!-- 2013-07-30 -->
      <g transform="translate(635.133153 502.026859)rotate(-45)scale(0.1 -0.1)">
       <defs>
        <path d="M 8.203125 72.90625 
L 55.078125 72.90625 
L 55.078125 68.703125 
L 28.609375 0 
L 18.3125 0 
L 43.21875 64.59375 
L 8.203125 64.59375 
z
" id="DejaVuSans-55"/>
       </defs>
       <use xlink:href="#DejaVuSans-50"/>
       <use x="63.623047" xlink:href="#DejaVuSans-48"/>
       <use x="127.246094" xlink:href="#DejaVuSans-49"/>
       <use x="190.869141" xlink:href="#DejaVuSans-51"/>
       <use x="254.492188" xlink:href="#DejaVuSans-45"/>
       <use x="290.576172" xlink:href="#DejaVuSans-48"/>
       <use x="354.199219" xlink:href="#DejaVuSans-55"/>
       <use x="417.822266" xlink:href="#DejaVuSans-45"/>
       <use x="453.90625" xlink:href="#DejaVuSans-51"/>
       <use x="517.529297" xlink:href="#DejaVuSans-48"/>
      </g>
     </g>
    </g>
    <g id="xtick_9">
     <g id="line2d_9">
      <g>
       <use style="stroke:#000000;stroke-width:0.8;" x="705.917508" xlink:href="#md4948a2542" y="448.56"/>
      </g>
     </g>
     <g id="text_9">
      <!-- 2013-08-29 -->
      <g transform="translate(687.321705 502.026859)rotate(-45)scale(0.1 -0.1)">
       <defs>
        <path d="M 31.78125 34.625 
Q 24.75 34.625 20.71875 30.859375 
Q 16.703125 27.09375 16.703125 20.515625 
Q 16.703125 13.921875 20.71875 10.15625 
Q 24.75 6.390625 31.78125 6.390625 
Q 38.8125 6.390625 42.859375 10.171875 
Q 46.921875 13.96875 46.921875 20.515625 
Q 46.921875 27.09375 42.890625 30.859375 
Q 38.875 34.625 31.78125 34.625 
z
M 21.921875 38.8125 
Q 15.578125 40.375 12.03125 44.71875 
Q 8.5 49.078125 8.5 55.328125 
Q 8.5 64.0625 14.71875 69.140625 
Q 20.953125 74.21875 31.78125 74.21875 
Q 42.671875 74.21875 48.875 69.140625 
Q 55.078125 64.0625 55.078125 55.328125 
Q 55.078125 49.078125 51.53125 44.71875 
Q 48 40.375 41.703125 38.8125 
Q 48.828125 37.15625 52.796875 32.3125 
Q 56.78125 27.484375 56.78125 20.515625 
Q 56.78125 9.90625 50.3125 4.234375 
Q 43.84375 -1.421875 31.78125 -1.421875 
Q 19.734375 -1.421875 13.25 4.234375 
Q 6.78125 9.90625 6.78125 20.515625 
Q 6.78125 27.484375 10.78125 32.3125 
Q 14.796875 37.15625 21.921875 38.8125 
z
M 18.3125 54.390625 
Q 18.3125 48.734375 21.84375 45.5625 
Q 25.390625 42.390625 31.78125 42.390625 
Q 38.140625 42.390625 41.71875 45.5625 
Q 45.3125 48.734375 45.3125 54.390625 
Q 45.3125 60.0625 41.71875 63.234375 
Q 38.140625 66.40625 31.78125 66.40625 
Q 25.390625 66.40625 21.84375 63.234375 
Q 18.3125 60.0625 18.3125 54.390625 
z
" id="DejaVuSans-56"/>
        <path d="M 10.984375 1.515625 
L 10.984375 10.5 
Q 14.703125 8.734375 18.5 7.8125 
Q 22.3125 6.890625 25.984375 6.890625 
Q 35.75 6.890625 40.890625 13.453125 
Q 46.046875 20.015625 46.78125 33.40625 
Q 43.953125 29.203125 39.59375 26.953125 
Q 35.25 24.703125 29.984375 24.703125 
Q 19.046875 24.703125 12.671875 31.3125 
Q 6.296875 37.9375 6.296875 49.421875 
Q 6.296875 60.640625 12.9375 67.421875 
Q 19.578125 74.21875 30.609375 74.21875 
Q 43.265625 74.21875 49.921875 64.515625 
Q 56.59375 54.828125 56.59375 36.375 
Q 56.59375 19.140625 48.40625 8.859375 
Q 40.234375 -1.421875 26.421875 -1.421875 
Q 22.703125 -1.421875 18.890625 -0.6875 
Q 15.09375 0.046875 10.984375 1.515625 
z
M 30.609375 32.421875 
Q 37.25 32.421875 41.125 36.953125 
Q 45.015625 41.5 45.015625 49.421875 
Q 45.015625 57.28125 41.125 61.84375 
Q 37.25 66.40625 30.609375 66.40625 
Q 23.96875 66.40625 20.09375 61.84375 
Q 16.21875 57.28125 16.21875 49.421875 
Q 16.21875 41.5 20.09375 36.953125 
Q 23.96875 32.421875 30.609375 32.421875 
z
" id="DejaVuSans-57"/>
       </defs>
       <use xlink:href="#DejaVuSans-50"/>
       <use x="63.623047" xlink:href="#DejaVuSans-48"/>
       <use x="127.246094" xlink:href="#DejaVuSans-49"/>
       <use x="190.869141" xlink:href="#DejaVuSans-51"/>
       <use x="254.492188" xlink:href="#DejaVuSans-45"/>
       <use x="290.576172" xlink:href="#DejaVuSans-48"/>
       <use x="354.199219" xlink:href="#DejaVuSans-56"/>
       <use x="417.822266" xlink:href="#DejaVuSans-45"/>
       <use x="453.90625" xlink:href="#DejaVuSans-50"/>
       <use x="517.529297" xlink:href="#DejaVuSans-57"/>
      </g>
     </g>
    </g>
    <g id="xtick_10">
     <g id="line2d_10">
      <g>
       <use style="stroke:#000000;stroke-width:0.8;" x="758.106061" xlink:href="#md4948a2542" y="448.56"/>
      </g>
     </g>
     <g id="text_10">
      <!-- 2013-09-28 -->
      <g transform="translate(739.510257 502.026859)rotate(-45)scale(0.1 -0.1)">
       <use xlink:href="#DejaVuSans-50"/>
       <use x="63.623047" xlink:href="#DejaVuSans-48"/>
       <use x="127.246094" xlink:href="#DejaVuSans-49"/>
       <use x="190.869141" xlink:href="#DejaVuSans-51"/>
       <use x="254.492188" xlink:href="#DejaVuSans-45"/>
       <use x="290.576172" xlink:href="#DejaVuSans-48"/>
       <use x="354.199219" xlink:href="#DejaVuSans-57"/>
       <use x="417.822266" xlink:href="#DejaVuSans-45"/>
       <use x="453.90625" xlink:href="#DejaVuSans-50"/>
       <use x="517.529297" xlink:href="#DejaVuSans-56"/>
      </g>
     </g>
    </g>
    <g id="xtick_11">
     <g id="line2d_11">
      <g>
       <use style="stroke:#000000;stroke-width:0.8;" x="810.294613" xlink:href="#md4948a2542" y="448.56"/>
      </g>
     </g>
     <g id="text_11">
      <!-- 2013-10-28 -->
      <g transform="translate(791.698809 502.026859)rotate(-45)scale(0.1 -0.1)">
       <use xlink:href="#DejaVuSans-50"/>
       <use x="63.623047" xlink:href="#DejaVuSans-48"/>
       <use x="127.246094" xlink:href="#DejaVuSans-49"/>
       <use x="190.869141" xlink:href="#DejaVuSans-51"/>
       <use x="254.492188" xlink:href="#DejaVuSans-45"/>
       <use x="290.576172" xlink:href="#DejaVuSans-49"/>
       <use x="354.199219" xlink:href="#DejaVuSans-48"/>
       <use x="417.822266" xlink:href="#DejaVuSans-45"/>
       <use x="453.90625" xlink:href="#DejaVuSans-50"/>
       <use x="517.529297" xlink:href="#DejaVuSans-56"/>
      </g>
     </g>
    </g>
    <g id="xtick_12">
     <g id="line2d_12">
      <g>
       <use style="stroke:#000000;stroke-width:0.8;" x="862.483165" xlink:href="#md4948a2542" y="448.56"/>
      </g>
     </g>
     <g id="text_12">
      <!-- 2013-11-27 -->
      <g transform="translate(843.887361 502.026859)rotate(-45)scale(0.1 -0.1)">
       <use xlink:href="#DejaVuSans-50"/>
       <use x="63.623047" xlink:href="#DejaVuSans-48"/>
       <use x="127.246094" xlink:href="#DejaVuSans-49"/>
       <use x="190.869141" xlink:href="#DejaVuSans-51"/>
       <use x="254.492188" xlink:href="#DejaVuSans-45"/>
       <use x="290.576172" xlink:href="#DejaVuSans-49"/>
       <use x="354.199219" xlink:href="#DejaVuSans-49"/>
       <use x="417.822266" xlink:href="#DejaVuSans-45"/>
       <use x="453.90625" xlink:href="#DejaVuSans-50"/>
       <use x="517.529297" xlink:href="#DejaVuSans-55"/>
      </g>
     </g>
    </g>
    <g id="xtick_13">
     <g id="line2d_13">
      <g>
       <use style="stroke:#000000;stroke-width:0.8;" x="914.671717" xlink:href="#md4948a2542" y="448.56"/>
      </g>
     </g>
     <g id="text_13">
      <!-- 2013-12-27 -->
      <g transform="translate(896.075914 502.026859)rotate(-45)scale(0.1 -0.1)">
       <use xlink:href="#DejaVuSans-50"/>
       <use x="63.623047" xlink:href="#DejaVuSans-48"/>
       <use x="127.246094" xlink:href="#DejaVuSans-49"/>
       <use x="190.869141" xlink:href="#DejaVuSans-51"/>
       <use x="254.492188" xlink:href="#DejaVuSans-45"/>
       <use x="290.576172" xlink:href="#DejaVuSans-49"/>
       <use x="354.199219" xlink:href="#DejaVuSans-50"/>
       <use x="417.822266" xlink:href="#DejaVuSans-45"/>
       <use x="453.90625" xlink:href="#DejaVuSans-50"/>
       <use x="517.529297" xlink:href="#DejaVuSans-55"/>
      </g>
     </g>
    </g>
    <g id="xtick_14">
     <g id="line2d_14">
      <g>
       <use style="stroke:#000000;stroke-width:0.8;" x="966.860269" xlink:href="#md4948a2542" y="448.56"/>
      </g>
     </g>
     <g id="text_14">
      <!-- 2014-01-26 -->
      <g transform="translate(948.264466 502.026859)rotate(-45)scale(0.1 -0.1)">
       <use xlink:href="#DejaVuSans-50"/>
       <use x="63.623047" xlink:href="#DejaVuSans-48"/>
       <use x="127.246094" xlink:href="#DejaVuSans-49"/>
       <use x="190.869141" xlink:href="#DejaVuSans-52"/>
       <use x="254.492188" xlink:href="#DejaVuSans-45"/>
       <use x="290.576172" xlink:href="#DejaVuSans-48"/>
       <use x="354.199219" xlink:href="#DejaVuSans-49"/>
       <use x="417.822266" xlink:href="#DejaVuSans-45"/>
       <use x="453.90625" xlink:href="#DejaVuSans-50"/>
       <use x="517.529297" xlink:href="#DejaVuSans-54"/>
      </g>
     </g>
    </g>
    <g id="xtick_15">
     <g id="line2d_15">
      <g>
       <use style="stroke:#000000;stroke-width:0.8;" x="1019.048822" xlink:href="#md4948a2542" y="448.56"/>
      </g>
     </g>
     <g id="text_15">
      <!-- 2014-02-25 -->
      <g transform="translate(1000.453018 502.026859)rotate(-45)scale(0.1 -0.1)">
       <use xlink:href="#DejaVuSans-50"/>
       <use x="63.623047" xlink:href="#DejaVuSans-48"/>
       <use x="127.246094" xlink:href="#DejaVuSans-49"/>
       <use x="190.869141" xlink:href="#DejaVuSans-52"/>
       <use x="254.492188" xlink:href="#DejaVuSans-45"/>
       <use x="290.576172" xlink:href="#DejaVuSans-48"/>
       <use x="354.199219" xlink:href="#DejaVuSans-50"/>
       <use x="417.822266" xlink:href="#DejaVuSans-45"/>
       <use x="453.90625" xlink:href="#DejaVuSans-50"/>
       <use x="517.529297" xlink:href="#DejaVuSans-53"/>
      </g>
     </g>
    </g>
    <g id="xtick_16">
     <g id="line2d_16">
      <g>
       <use style="stroke:#000000;stroke-width:0.8;" x="1071.237374" xlink:href="#md4948a2542" y="448.56"/>
      </g>
     </g>
     <g id="text_16">
      <!-- 2014-03-27 -->
      <g transform="translate(1052.64157 502.026859)rotate(-45)scale(0.1 -0.1)">
       <use xlink:href="#DejaVuSans-50"/>
       <use x="63.623047" xlink:href="#DejaVuSans-48"/>
       <use x="127.246094" xlink:href="#DejaVuSans-49"/>
       <use x="190.869141" xlink:href="#DejaVuSans-52"/>
       <use x="254.492188" xlink:href="#DejaVuSans-45"/>
       <use x="290.576172" xlink:href="#DejaVuSans-48"/>
       <use x="354.199219" xlink:href="#DejaVuSans-51"/>
       <use x="417.822266" xlink:href="#DejaVuSans-45"/>
       <use x="453.90625" xlink:href="#DejaVuSans-50"/>
       <use x="517.529297" xlink:href="#DejaVuSans-55"/>
      </g>
     </g>
    </g>
    <g id="xtick_17">
     <g id="line2d_17">
      <g>
       <use style="stroke:#000000;stroke-width:0.8;" x="1123.425926" xlink:href="#md4948a2542" y="448.56"/>
      </g>
     </g>
     <g id="text_17">
      <!-- 2014-04-26 -->
      <g transform="translate(1104.830122 502.026859)rotate(-45)scale(0.1 -0.1)">
       <use xlink:href="#DejaVuSans-50"/>
       <use x="63.623047" xlink:href="#DejaVuSans-48"/>
       <use x="127.246094" xlink:href="#DejaVuSans-49"/>
       <use x="190.869141" xlink:href="#DejaVuSans-52"/>
       <use x="254.492188" xlink:href="#DejaVuSans-45"/>
       <use x="290.576172" xlink:href="#DejaVuSans-48"/>
       <use x="354.199219" xlink:href="#DejaVuSans-52"/>
       <use x="417.822266" xlink:href="#DejaVuSans-45"/>
       <use x="453.90625" xlink:href="#DejaVuSans-50"/>
       <use x="517.529297" xlink:href="#DejaVuSans-54"/>
      </g>
     </g>
    </g>
    <g id="xtick_18">
     <g id="line2d_18">
      <g>
       <use style="stroke:#000000;stroke-width:0.8;" x="1175.614478" xlink:href="#md4948a2542" y="448.56"/>
      </g>
     </g>
     <g id="text_18">
      <!-- 2014-05-26 -->
      <g transform="translate(1157.018675 502.026859)rotate(-45)scale(0.1 -0.1)">
       <use xlink:href="#DejaVuSans-50"/>
       <use x="63.623047" xlink:href="#DejaVuSans-48"/>
       <use x="127.246094" xlink:href="#DejaVuSans-49"/>
       <use x="190.869141" xlink:href="#DejaVuSans-52"/>
       <use x="254.492188" xlink:href="#DejaVuSans-45"/>
       <use x="290.576172" xlink:href="#DejaVuSans-48"/>
       <use x="354.199219" xlink:href="#DejaVuSans-53"/>
       <use x="417.822266" xlink:href="#DejaVuSans-45"/>
       <use x="453.90625" xlink:href="#DejaVuSans-50"/>
       <use x="517.529297" xlink:href="#DejaVuSans-54"/>
      </g>
     </g>
    </g>
    <g id="xtick_19">
     <g id="line2d_19">
      <g>
       <use style="stroke:#000000;stroke-width:0.8;" x="1227.80303" xlink:href="#md4948a2542" y="448.56"/>
      </g>
     </g>
     <g id="text_19">
      <!-- 2014-06-25 -->
      <g transform="translate(1209.207227 502.026859)rotate(-45)scale(0.1 -0.1)">
       <use xlink:href="#DejaVuSans-50"/>
       <use x="63.623047" xlink:href="#DejaVuSans-48"/>
       <use x="127.246094" xlink:href="#DejaVuSans-49"/>
       <use x="190.869141" xlink:href="#DejaVuSans-52"/>
       <use x="254.492188" xlink:href="#DejaVuSans-45"/>
       <use x="290.576172" xlink:href="#DejaVuSans-48"/>
       <use x="354.199219" xlink:href="#DejaVuSans-54"/>
       <use x="417.822266" xlink:href="#DejaVuSans-45"/>
       <use x="453.90625" xlink:href="#DejaVuSans-50"/>
       <use x="517.529297" xlink:href="#DejaVuSans-53"/>
      </g>
     </g>
    </g>
    <g id="xtick_20">
     <g id="line2d_20">
      <g>
       <use style="stroke:#000000;stroke-width:0.8;" x="1279.991582" xlink:href="#md4948a2542" y="448.56"/>
      </g>
     </g>
     <g id="text_20">
      <!-- 2014-07-25 -->
      <g transform="translate(1261.395779 502.026859)rotate(-45)scale(0.1 -0.1)">
       <use xlink:href="#DejaVuSans-50"/>
       <use x="63.623047" xlink:href="#DejaVuSans-48"/>
       <use x="127.246094" xlink:href="#DejaVuSans-49"/>
       <use x="190.869141" xlink:href="#DejaVuSans-52"/>
       <use x="254.492188" xlink:href="#DejaVuSans-45"/>
       <use x="290.576172" xlink:href="#DejaVuSans-48"/>
       <use x="354.199219" xlink:href="#DejaVuSans-55"/>
       <use x="417.822266" xlink:href="#DejaVuSans-45"/>
       <use x="453.90625" xlink:href="#DejaVuSans-50"/>
       <use x="517.529297" xlink:href="#DejaVuSans-53"/>
      </g>
     </g>
    </g>
    <g id="xtick_21">
     <g id="line2d_21">
      <g>
       <use style="stroke:#000000;stroke-width:0.8;" x="1332.180135" xlink:href="#md4948a2542" y="448.56"/>
      </g>
     </g>
     <g id="text_21">
      <!-- 2014-08-24 -->
      <g transform="translate(1313.584331 502.026859)rotate(-45)scale(0.1 -0.1)">
       <use xlink:href="#DejaVuSans-50"/>
       <use x="63.623047" xlink:href="#DejaVuSans-48"/>
       <use x="127.246094" xlink:href="#DejaVuSans-49"/>
       <use x="190.869141" xlink:href="#DejaVuSans-52"/>
       <use x="254.492188" xlink:href="#DejaVuSans-45"/>
       <use x="290.576172" xlink:href="#DejaVuSans-48"/>
       <use x="354.199219" xlink:href="#DejaVuSans-56"/>
       <use x="417.822266" xlink:href="#DejaVuSans-45"/>
       <use x="453.90625" xlink:href="#DejaVuSans-50"/>
       <use x="517.529297" xlink:href="#DejaVuSans-52"/>
      </g>
     </g>
    </g>
    <g id="xtick_22">
     <g id="line2d_22">
      <g>
       <use style="stroke:#000000;stroke-width:0.8;" x="1384.368687" xlink:href="#md4948a2542" y="448.56"/>
      </g>
     </g>
     <g id="text_22">
      <!-- 2014-09-23 -->
      <g transform="translate(1365.772883 502.026859)rotate(-45)scale(0.1 -0.1)">
       <use xlink:href="#DejaVuSans-50"/>
       <use x="63.623047" xlink:href="#DejaVuSans-48"/>
       <use x="127.246094" xlink:href="#DejaVuSans-49"/>
       <use x="190.869141" xlink:href="#DejaVuSans-52"/>
       <use x="254.492188" xlink:href="#DejaVuSans-45"/>
       <use x="290.576172" xlink:href="#DejaVuSans-48"/>
       <use x="354.199219" xlink:href="#DejaVuSans-57"/>
       <use x="417.822266" xlink:href="#DejaVuSans-45"/>
       <use x="453.90625" xlink:href="#DejaVuSans-50"/>
       <use x="517.529297" xlink:href="#DejaVuSans-51"/>
      </g>
     </g>
    </g>
    <g id="xtick_23">
     <g id="line2d_23">
      <g>
       <use style="stroke:#000000;stroke-width:0.8;" x="1436.557239" xlink:href="#md4948a2542" y="448.56"/>
      </g>
     </g>
     <g id="text_23">
      <!-- 2014-10-23 -->
      <g transform="translate(1417.961436 502.026859)rotate(-45)scale(0.1 -0.1)">
       <use xlink:href="#DejaVuSans-50"/>
       <use x="63.623047" xlink:href="#DejaVuSans-48"/>
       <use x="127.246094" xlink:href="#DejaVuSans-49"/>
       <use x="190.869141" xlink:href="#DejaVuSans-52"/>
       <use x="254.492188" xlink:href="#DejaVuSans-45"/>
       <use x="290.576172" xlink:href="#DejaVuSans-49"/>
       <use x="354.199219" xlink:href="#DejaVuSans-48"/>
       <use x="417.822266" xlink:href="#DejaVuSans-45"/>
       <use x="453.90625" xlink:href="#DejaVuSans-50"/>
       <use x="517.529297" xlink:href="#DejaVuSans-51"/>
      </g>
     </g>
    </g>
    <g id="xtick_24">
     <g id="line2d_24">
      <g>
       <use style="stroke:#000000;stroke-width:0.8;" x="1488.745791" xlink:href="#md4948a2542" y="448.56"/>
      </g>
     </g>
     <g id="text_24">
      <!-- 2014-11-22 -->
      <g transform="translate(1470.149988 502.026859)rotate(-45)scale(0.1 -0.1)">
       <use xlink:href="#DejaVuSans-50"/>
       <use x="63.623047" xlink:href="#DejaVuSans-48"/>
       <use x="127.246094" xlink:href="#DejaVuSans-49"/>
       <use x="190.869141" xlink:href="#DejaVuSans-52"/>
       <use x="254.492188" xlink:href="#DejaVuSans-45"/>
       <use x="290.576172" xlink:href="#DejaVuSans-49"/>
       <use x="354.199219" xlink:href="#DejaVuSans-49"/>
       <use x="417.822266" xlink:href="#DejaVuSans-45"/>
       <use x="453.90625" xlink:href="#DejaVuSans-50"/>
       <use x="517.529297" xlink:href="#DejaVuSans-50"/>
      </g>
     </g>
    </g>
    <g id="xtick_25">
     <g id="line2d_25">
      <g>
       <use style="stroke:#000000;stroke-width:0.8;" x="1540.934343" xlink:href="#md4948a2542" y="448.56"/>
      </g>
     </g>
     <g id="text_25">
      <!-- 2014-12-22 -->
      <g transform="translate(1522.33854 502.026859)rotate(-45)scale(0.1 -0.1)">
       <use xlink:href="#DejaVuSans-50"/>
       <use x="63.623047" xlink:href="#DejaVuSans-48"/>
       <use x="127.246094" xlink:href="#DejaVuSans-49"/>
       <use x="190.869141" xlink:href="#DejaVuSans-52"/>
       <use x="254.492188" xlink:href="#DejaVuSans-45"/>
       <use x="290.576172" xlink:href="#DejaVuSans-49"/>
       <use x="354.199219" xlink:href="#DejaVuSans-50"/>
       <use x="417.822266" xlink:href="#DejaVuSans-45"/>
       <use x="453.90625" xlink:href="#DejaVuSans-50"/>
       <use x="517.529297" xlink:href="#DejaVuSans-50"/>
      </g>
     </g>
    </g>
    <g id="text_26">
     <!-- Dates -->
     <g transform="translate(907.944531 515.095858)scale(0.1 -0.1)">
      <defs>
       <path d="M 19.671875 64.796875 
L 19.671875 8.109375 
L 31.59375 8.109375 
Q 46.6875 8.109375 53.6875 14.9375 
Q 60.6875 21.78125 60.6875 36.53125 
Q 60.6875 51.171875 53.6875 57.984375 
Q 46.6875 64.796875 31.59375 64.796875 
z
M 9.8125 72.90625 
L 30.078125 72.90625 
Q 51.265625 72.90625 61.171875 64.09375 
Q 71.09375 55.28125 71.09375 36.53125 
Q 71.09375 17.671875 61.125 8.828125 
Q 51.171875 0 30.078125 0 
L 9.8125 0 
z
" id="DejaVuSans-68"/>
       <path d="M 34.28125 27.484375 
Q 23.390625 27.484375 19.1875 25 
Q 14.984375 22.515625 14.984375 16.5 
Q 14.984375 11.71875 18.140625 8.90625 
Q 21.296875 6.109375 26.703125 6.109375 
Q 34.1875 6.109375 38.703125 11.40625 
Q 43.21875 16.703125 43.21875 25.484375 
L 43.21875 27.484375 
z
M 52.203125 31.203125 
L 52.203125 0 
L 43.21875 0 
L 43.21875 8.296875 
Q 40.140625 3.328125 35.546875 0.953125 
Q 30.953125 -1.421875 24.3125 -1.421875 
Q 15.921875 -1.421875 10.953125 3.296875 
Q 6 8.015625 6 15.921875 
Q 6 25.140625 12.171875 29.828125 
Q 18.359375 34.515625 30.609375 34.515625 
L 43.21875 34.515625 
L 43.21875 35.40625 
Q 43.21875 41.609375 39.140625 45 
Q 35.0625 48.390625 27.6875 48.390625 
Q 23 48.390625 18.546875 47.265625 
Q 14.109375 46.140625 10.015625 43.890625 
L 10.015625 52.203125 
Q 14.9375 54.109375 19.578125 55.046875 
Q 24.21875 56 28.609375 56 
Q 40.484375 56 46.34375 49.84375 
Q 52.203125 43.703125 52.203125 31.203125 
z
" id="DejaVuSans-97"/>
       <path d="M 18.3125 70.21875 
L 18.3125 54.6875 
L 36.8125 54.6875 
L 36.8125 47.703125 
L 18.3125 47.703125 
L 18.3125 18.015625 
Q 18.3125 11.328125 20.140625 9.421875 
Q 21.96875 7.515625 27.59375 7.515625 
L 36.8125 7.515625 
L 36.8125 0 
L 27.59375 0 
Q 17.1875 0 13.234375 3.875 
Q 9.28125 7.765625 9.28125 18.015625 
L 9.28125 47.703125 
L 2.6875 47.703125 
L 2.6875 54.6875 
L 9.28125 54.6875 
L 9.28125 70.21875 
z
" id="DejaVuSans-116"/>
       <path d="M 56.203125 29.59375 
L 56.203125 25.203125 
L 14.890625 25.203125 
Q 15.484375 15.921875 20.484375 11.0625 
Q 25.484375 6.203125 34.421875 6.203125 
Q 39.59375 6.203125 44.453125 7.46875 
Q 49.3125 8.734375 54.109375 11.28125 
L 54.109375 2.78125 
Q 49.265625 0.734375 44.1875 -0.34375 
Q 39.109375 -1.421875 33.890625 -1.421875 
Q 20.796875 -1.421875 13.15625 6.1875 
Q 5.515625 13.8125 5.515625 26.8125 
Q 5.515625 40.234375 12.765625 48.109375 
Q 20.015625 56 32.328125 56 
Q 43.359375 56 49.78125 48.890625 
Q 56.203125 41.796875 56.203125 29.59375 
z
M 47.21875 32.234375 
Q 47.125 39.59375 43.09375 43.984375 
Q 39.0625 48.390625 32.421875 48.390625 
Q 24.90625 48.390625 20.390625 44.140625 
Q 15.875 39.890625 15.1875 32.171875 
z
" id="DejaVuSans-101"/>
       <path d="M 44.28125 53.078125 
L 44.28125 44.578125 
Q 40.484375 46.53125 36.375 47.5 
Q 32.28125 48.484375 27.875 48.484375 
Q 21.1875 48.484375 17.84375 46.4375 
Q 14.5 44.390625 14.5 40.28125 
Q 14.5 37.15625 16.890625 35.375 
Q 19.28125 33.59375 26.515625 31.984375 
L 29.59375 31.296875 
Q 39.15625 29.25 43.1875 25.515625 
Q 47.21875 21.78125 47.21875 15.09375 
Q 47.21875 7.46875 41.1875 3.015625 
Q 35.15625 -1.421875 24.609375 -1.421875 
Q 20.21875 -1.421875 15.453125 -0.5625 
Q 10.6875 0.296875 5.421875 2 
L 5.421875 11.28125 
Q 10.40625 8.6875 15.234375 7.390625 
Q 20.0625 6.109375 24.8125 6.109375 
Q 31.15625 6.109375 34.5625 8.28125 
Q 37.984375 10.453125 37.984375 14.40625 
Q 37.984375 18.0625 35.515625 20.015625 
Q 33.0625 21.96875 24.703125 23.78125 
L 21.578125 24.515625 
Q 13.234375 26.265625 9.515625 29.90625 
Q 5.8125 33.546875 5.8125 39.890625 
Q 5.8125 47.609375 11.28125 51.796875 
Q 16.75 56 26.8125 56 
Q 31.78125 56 36.171875 55.265625 
Q 40.578125 54.546875 44.28125 53.078125 
z
" id="DejaVuSans-115"/>
      </defs>
      <use xlink:href="#DejaVuSans-68"/>
      <use x="77.001953" xlink:href="#DejaVuSans-97"/>
      <use x="138.28125" xlink:href="#DejaVuSans-116"/>
      <use x="177.490234" xlink:href="#DejaVuSans-101"/>
      <use x="239.013672" xlink:href="#DejaVuSans-115"/>
     </g>
    </g>
   </g>
   <g id="matplotlib.axis_2">
    <g id="ytick_1">
     <g id="line2d_26">
      <defs>
       <path d="M 0 0 
L -3.5 0 
" id="mb61bba73bd" style="stroke:#000000;stroke-width:0.8;"/>
      </defs>
      <g>
       <use style="stroke:#000000;stroke-width:0.8;" x="225" xlink:href="#mb61bba73bd" y="440.69394"/>
      </g>
     </g>
     <g id="text_27">
      <!-- 0.0 -->
      <g transform="translate(202.096875 444.493159)scale(0.1 -0.1)">
       <defs>
        <path d="M 10.6875 12.40625 
L 21 12.40625 
L 21 0 
L 10.6875 0 
z
" id="DejaVuSans-46"/>
       </defs>
       <use xlink:href="#DejaVuSans-48"/>
       <use x="63.623047" xlink:href="#DejaVuSans-46"/>
       <use x="95.410156" xlink:href="#DejaVuSans-48"/>
      </g>
     </g>
    </g>
    <g id="ytick_2">
     <g id="line2d_27">
      <g>
       <use style="stroke:#000000;stroke-width:0.8;" x="225" xlink:href="#mb61bba73bd" y="370.962843"/>
      </g>
     </g>
     <g id="text_28">
      <!-- 0.5 -->
      <g transform="translate(202.096875 374.762062)scale(0.1 -0.1)">
       <use xlink:href="#DejaVuSans-48"/>
       <use x="63.623047" xlink:href="#DejaVuSans-46"/>
       <use x="95.410156" xlink:href="#DejaVuSans-53"/>
      </g>
     </g>
    </g>
    <g id="ytick_3">
     <g id="line2d_28">
      <g>
       <use style="stroke:#000000;stroke-width:0.8;" x="225" xlink:href="#mb61bba73bd" y="301.231746"/>
      </g>
     </g>
     <g id="text_29">
      <!-- 1.0 -->
      <g transform="translate(202.096875 305.030965)scale(0.1 -0.1)">
       <use xlink:href="#DejaVuSans-49"/>
       <use x="63.623047" xlink:href="#DejaVuSans-46"/>
       <use x="95.410156" xlink:href="#DejaVuSans-48"/>
      </g>
     </g>
    </g>
    <g id="ytick_4">
     <g id="line2d_29">
      <g>
       <use style="stroke:#000000;stroke-width:0.8;" x="225" xlink:href="#mb61bba73bd" y="231.500649"/>
      </g>
     </g>
     <g id="text_30">
      <!-- 1.5 -->
      <g transform="translate(202.096875 235.299868)scale(0.1 -0.1)">
       <use xlink:href="#DejaVuSans-49"/>
       <use x="63.623047" xlink:href="#DejaVuSans-46"/>
       <use x="95.410156" xlink:href="#DejaVuSans-53"/>
      </g>
     </g>
    </g>
    <g id="ytick_5">
     <g id="line2d_30">
      <g>
       <use style="stroke:#000000;stroke-width:0.8;" x="225" xlink:href="#mb61bba73bd" y="161.769552"/>
      </g>
     </g>
     <g id="text_31">
      <!-- 2.0 -->
      <g transform="translate(202.096875 165.568771)scale(0.1 -0.1)">
       <use xlink:href="#DejaVuSans-50"/>
       <use x="63.623047" xlink:href="#DejaVuSans-46"/>
       <use x="95.410156" xlink:href="#DejaVuSans-48"/>
      </g>
     </g>
    </g>
    <g id="ytick_6">
     <g id="line2d_31">
      <g>
       <use style="stroke:#000000;stroke-width:0.8;" x="225" xlink:href="#mb61bba73bd" y="92.038455"/>
      </g>
     </g>
     <g id="text_32">
      <!-- 2.5 -->
      <g transform="translate(202.096875 95.837673)scale(0.1 -0.1)">
       <use xlink:href="#DejaVuSans-50"/>
       <use x="63.623047" xlink:href="#DejaVuSans-46"/>
       <use x="95.410156" xlink:href="#DejaVuSans-53"/>
      </g>
     </g>
    </g>
    <g id="text_33">
     <!-- Earnings in Mln $ -->
     <g transform="translate(196.017188 297.595)rotate(-90)scale(0.1 -0.1)">
      <defs>
       <path d="M 9.8125 72.90625 
L 55.90625 72.90625 
L 55.90625 64.59375 
L 19.671875 64.59375 
L 19.671875 43.015625 
L 54.390625 43.015625 
L 54.390625 34.71875 
L 19.671875 34.71875 
L 19.671875 8.296875 
L 56.78125 8.296875 
L 56.78125 0 
L 9.8125 0 
z
" id="DejaVuSans-69"/>
       <path d="M 41.109375 46.296875 
Q 39.59375 47.171875 37.8125 47.578125 
Q 36.03125 48 33.890625 48 
Q 26.265625 48 22.1875 43.046875 
Q 18.109375 38.09375 18.109375 28.8125 
L 18.109375 0 
L 9.078125 0 
L 9.078125 54.6875 
L 18.109375 54.6875 
L 18.109375 46.1875 
Q 20.953125 51.171875 25.484375 53.578125 
Q 30.03125 56 36.53125 56 
Q 37.453125 56 38.578125 55.875 
Q 39.703125 55.765625 41.0625 55.515625 
z
" id="DejaVuSans-114"/>
       <path d="M 54.890625 33.015625 
L 54.890625 0 
L 45.90625 0 
L 45.90625 32.71875 
Q 45.90625 40.484375 42.875 44.328125 
Q 39.84375 48.1875 33.796875 48.1875 
Q 26.515625 48.1875 22.3125 43.546875 
Q 18.109375 38.921875 18.109375 30.90625 
L 18.109375 0 
L 9.078125 0 
L 9.078125 54.6875 
L 18.109375 54.6875 
L 18.109375 46.1875 
Q 21.34375 51.125 25.703125 53.5625 
Q 30.078125 56 35.796875 56 
Q 45.21875 56 50.046875 50.171875 
Q 54.890625 44.34375 54.890625 33.015625 
z
" id="DejaVuSans-110"/>
       <path d="M 9.421875 54.6875 
L 18.40625 54.6875 
L 18.40625 0 
L 9.421875 0 
z
M 9.421875 75.984375 
L 18.40625 75.984375 
L 18.40625 64.59375 
L 9.421875 64.59375 
z
" id="DejaVuSans-105"/>
       <path d="M 45.40625 27.984375 
Q 45.40625 37.75 41.375 43.109375 
Q 37.359375 48.484375 30.078125 48.484375 
Q 22.859375 48.484375 18.828125 43.109375 
Q 14.796875 37.75 14.796875 27.984375 
Q 14.796875 18.265625 18.828125 12.890625 
Q 22.859375 7.515625 30.078125 7.515625 
Q 37.359375 7.515625 41.375 12.890625 
Q 45.40625 18.265625 45.40625 27.984375 
z
M 54.390625 6.78125 
Q 54.390625 -7.171875 48.1875 -13.984375 
Q 42 -20.796875 29.203125 -20.796875 
Q 24.46875 -20.796875 20.265625 -20.09375 
Q 16.0625 -19.390625 12.109375 -17.921875 
L 12.109375 -9.1875 
Q 16.0625 -11.328125 19.921875 -12.34375 
Q 23.78125 -13.375 27.78125 -13.375 
Q 36.625 -13.375 41.015625 -8.765625 
Q 45.40625 -4.15625 45.40625 5.171875 
L 45.40625 9.625 
Q 42.625 4.78125 38.28125 2.390625 
Q 33.9375 0 27.875 0 
Q 17.828125 0 11.671875 7.65625 
Q 5.515625 15.328125 5.515625 27.984375 
Q 5.515625 40.671875 11.671875 48.328125 
Q 17.828125 56 27.875 56 
Q 33.9375 56 38.28125 53.609375 
Q 42.625 51.21875 45.40625 46.390625 
L 45.40625 54.6875 
L 54.390625 54.6875 
z
" id="DejaVuSans-103"/>
       <path id="DejaVuSans-32"/>
       <path d="M 9.8125 72.90625 
L 24.515625 72.90625 
L 43.109375 23.296875 
L 61.8125 72.90625 
L 76.515625 72.90625 
L 76.515625 0 
L 66.890625 0 
L 66.890625 64.015625 
L 48.09375 14.015625 
L 38.1875 14.015625 
L 19.390625 64.015625 
L 19.390625 0 
L 9.8125 0 
z
" id="DejaVuSans-77"/>
       <path d="M 9.421875 75.984375 
L 18.40625 75.984375 
L 18.40625 0 
L 9.421875 0 
z
" id="DejaVuSans-108"/>
       <path d="M 33.796875 -14.703125 
L 28.90625 -14.703125 
L 28.859375 0 
Q 23.734375 0.09375 18.609375 1.1875 
Q 13.484375 2.296875 8.296875 4.5 
L 8.296875 13.28125 
Q 13.28125 10.15625 18.375 8.5625 
Q 23.484375 6.984375 28.90625 6.9375 
L 28.90625 29.203125 
Q 18.109375 30.953125 13.203125 35.15625 
Q 8.296875 39.359375 8.296875 46.6875 
Q 8.296875 54.640625 13.625 59.21875 
Q 18.953125 63.8125 28.90625 64.5 
L 28.90625 75.984375 
L 33.796875 75.984375 
L 33.796875 64.65625 
Q 38.328125 64.453125 42.578125 63.6875 
Q 46.828125 62.9375 50.875 61.625 
L 50.875 53.078125 
Q 46.828125 55.125 42.546875 56.25 
Q 38.28125 57.375 33.796875 57.5625 
L 33.796875 36.71875 
Q 44.875 35.015625 50.09375 30.609375 
Q 55.328125 26.21875 55.328125 18.609375 
Q 55.328125 10.359375 49.78125 5.59375 
Q 44.234375 0.828125 33.796875 0.09375 
z
M 28.90625 37.59375 
L 28.90625 57.625 
Q 23.25 56.984375 20.265625 54.390625 
Q 17.28125 51.8125 17.28125 47.515625 
Q 17.28125 43.3125 20.03125 40.96875 
Q 22.796875 38.625 28.90625 37.59375 
z
M 33.796875 28.21875 
L 33.796875 7.078125 
Q 39.984375 7.90625 43.140625 10.59375 
Q 46.296875 13.28125 46.296875 17.671875 
Q 46.296875 21.96875 43.28125 24.5 
Q 40.28125 27.046875 33.796875 28.21875 
z
" id="DejaVuSans-36"/>
      </defs>
      <use xlink:href="#DejaVuSans-69"/>
      <use x="63.183594" xlink:href="#DejaVuSans-97"/>
      <use x="124.462891" xlink:href="#DejaVuSans-114"/>
      <use x="163.826172" xlink:href="#DejaVuSans-110"/>
      <use x="227.205078" xlink:href="#DejaVuSans-105"/>
      <use x="254.988281" xlink:href="#DejaVuSans-110"/>
      <use x="318.367188" xlink:href="#DejaVuSans-103"/>
      <use x="381.84375" xlink:href="#DejaVuSans-115"/>
      <use x="433.943359" xlink:href="#DejaVuSans-32"/>
      <use x="465.730469" xlink:href="#DejaVuSans-105"/>
      <use x="493.513672" xlink:href="#DejaVuSans-110"/>
      <use x="556.892578" xlink:href="#DejaVuSans-32"/>
      <use x="588.679688" xlink:href="#DejaVuSans-77"/>
      <use x="674.958984" xlink:href="#DejaVuSans-108"/>
      <use x="702.742188" xlink:href="#DejaVuSans-110"/>
      <use x="766.121094" xlink:href="#DejaVuSans-32"/>
      <use x="797.908203" xlink:href="#DejaVuSans-36"/>
     </g>
    </g>
    <g id="text_34">
     <!-- 1e6 -->
     <g transform="translate(225 57.48)scale(0.1 -0.1)">
      <use xlink:href="#DejaVuSans-49"/>
      <use x="63.623047" xlink:href="#DejaVuSans-101"/>
      <use x="125.146484" xlink:href="#DejaVuSans-54"/>
     </g>
    </g>
   </g>
   <g id="line2d_32">
    <path clip-path="url(#p5344cb960a)" d="M 288.409091 380.951114 
L 290.148709 375.140652 
L 291.888328 407.179645 
L 293.627946 370.830696 
L 295.367565 398.461049 
L 297.107183 370.334616 
L 298.846801 369.178166 
L 300.58642 418.185473 
L 302.326038 410.822459 
L 304.065657 389.24035 
L 305.805275 409.837266 
L 307.544893 416.097187 
L 309.284512 402.709371 
L 311.02413 393.236321 
L 312.763749 406.114507 
L 314.503367 390.833739 
L 316.242985 390.91896 
L 317.982604 402.974722 
L 319.722222 389.225791 
L 321.461841 400.766237 
L 323.201459 400.099923 
L 324.941077 390.72226 
L 326.680696 390.653832 
L 328.420314 409.320094 
L 330.159933 418.5151 
L 331.899551 400.839734 
L 333.639169 389.797382 
L 335.378788 364.111184 
L 338.858025 401.175081 
L 340.597643 396.319516 
L 342.337262 412.09048 
L 344.07688 395.967007 
L 345.816498 360.162227 
L 347.556117 378.957392 
L 349.295735 390.075911 
L 351.035354 386.882394 
L 352.774972 331.921901 
L 354.51459 417.597006 
L 356.254209 370.769854 
L 357.993827 411.386118 
L 359.733446 386.626577 
L 361.473064 394.507894 
L 363.212682 408.362169 
L 364.952301 374.808083 
L 366.691919 395.195251 
L 368.431538 405.504254 
L 370.171156 361.603199 
L 371.910774 392.996492 
L 373.650393 377.997182 
L 375.390011 402.474603 
L 377.12963 376.09711 
L 378.869248 391.928955 
L 380.608866 409.810906 
L 382.348485 398.968488 
L 384.088103 396.715958 
L 385.827722 377.998758 
L 387.56734 387.462533 
L 389.306958 386.860094 
L 391.046577 350.216446 
L 392.786195 409.82025 
L 394.525814 379.734774 
L 396.265432 390.812281 
L 398.005051 425.77392 
L 399.744669 400.305343 
L 401.484287 399.827391 
L 403.223906 368.810794 
L 404.963524 384.369337 
L 406.703143 408.29491 
L 408.442761 418.368563 
L 410.182379 391.83227 
L 411.921998 408.817952 
L 413.661616 393.176242 
L 415.401235 398.357771 
L 417.140853 382.790711 
L 418.880471 392.976663 
L 420.62009 406.442668 
L 422.359708 403.907833 
L 424.099327 388.234331 
L 425.838945 365.060238 
L 427.578563 395.746852 
L 429.318182 415.363383 
L 431.0578 394.803874 
L 434.537037 383.140386 
L 436.276655 401.260313 
L 438.016274 404.23342 
L 439.755892 384.733924 
L 441.495511 405.622208 
L 443.235129 378.820387 
L 444.974747 394.172323 
L 446.714366 414.727453 
L 448.453984 408.257342 
L 450.193603 410.126594 
L 451.933221 418.510081 
L 453.67284 384.321365 
L 455.412458 421.964937 
L 457.152076 374.705079 
L 458.891695 412.380811 
L 460.631313 398.339654 
L 464.11055 413.787997 
L 465.850168 394.202055 
L 467.589787 414.137785 
L 469.329405 372.915583 
L 471.069024 404.280845 
L 472.808642 395.943831 
L 474.54826 428.284273 
L 476.287879 387.414325 
L 478.027497 398.33543 
L 479.767116 356.729564 
L 481.506734 389.574791 
L 483.246352 399.291771 
L 484.985971 369.32995 
L 486.725589 380.209979 
L 488.465208 378.757084 
L 490.204826 392.326395 
L 491.944444 389.874497 
L 493.684063 364.483081 
L 495.423681 374.377255 
L 497.1633 419.691492 
L 498.902918 408.093482 
L 500.642536 398.509997 
L 502.382155 410.265008 
L 504.121773 363.794511 
L 505.861392 407.065711 
L 507.60101 351.471013 
L 509.340629 405.329025 
L 511.080247 395.54024 
L 512.819865 381.630723 
L 514.559484 395.208792 
L 516.299102 383.934469 
L 518.038721 394.495848 
L 519.778339 364.064486 
L 521.517957 367.770516 
L 523.257576 384.646613 
L 524.997194 391.651156 
L 526.736813 388.37788 
L 528.476431 397.269286 
L 530.216049 408.191302 
L 531.955668 386.763668 
L 533.695286 369.055504 
L 535.434905 409.862329 
L 537.174523 382.599461 
L 538.914141 328.788403 
L 540.65376 397.280685 
L 542.393378 358.089467 
L 544.132997 359.566783 
L 545.872615 398.670266 
L 547.612233 390.477127 
L 549.351852 375.754786 
L 551.09147 387.466205 
L 552.831089 414.098613 
L 554.570707 375.353219 
L 556.310325 384.556633 
L 558.049944 363.736529 
L 559.789562 352.809303 
L 561.529181 406.125155 
L 563.268799 384.928312 
L 565.008418 382.066572 
L 566.748036 399.945417 
L 568.487654 389.599204 
L 570.227273 363.195782 
L 571.966891 385.822764 
L 573.70651 391.790293 
L 575.446128 405.114554 
L 577.185746 394.706965 
L 578.925365 392.042527 
L 580.664983 420.96084 
L 582.404602 385.213718 
L 584.14422 376.9311 
L 585.883838 425.659833 
L 587.623457 402.36981 
L 589.363075 390.163331 
L 591.102694 388.013047 
L 592.842312 387.719166 
L 594.58193 367.303104 
L 596.321549 392.108911 
L 598.061167 401.361954 
L 599.800786 388.879965 
L 601.540404 416.545222 
L 603.280022 346.763804 
L 605.019641 373.223589 
L 606.759259 385.974661 
L 608.498878 393.878781 
L 610.238496 381.763593 
L 611.978114 413.786632 
L 613.717733 379.321833 
L 615.457351 391.867953 
L 617.19697 373.73835 
L 618.936588 400.539657 
L 620.676207 390.196798 
L 622.415825 366.147218 
L 624.155443 394.694819 
L 625.895062 394.193253 
L 627.63468 390.190938 
L 629.374299 387.452029 
L 631.113917 403.406667 
L 632.853535 402.923107 
L 634.593154 382.564517 
L 636.332772 404.208943 
L 638.072391 398.228938 
L 639.812009 403.364757 
L 641.551627 396.180786 
L 643.291246 377.52463 
L 645.030864 397.315741 
L 646.770483 388.411335 
L 648.510101 408.247985 
L 650.249719 373.240654 
L 651.989338 410.904458 
L 653.728956 389.603676 
L 655.468575 391.258324 
L 657.208193 380.447552 
L 658.947811 405.065945 
L 660.68743 402.072867 
L 662.427048 384.529927 
L 664.166667 397.886604 
L 665.906285 389.652693 
L 667.645903 385.82377 
L 669.385522 386.531895 
L 671.12514 341.91777 
L 672.864759 400.391119 
L 674.604377 416.949189 
L 676.343996 386.360147 
L 678.083614 402.443032 
L 679.823232 382.951984 
L 681.562851 407.274913 
L 683.302469 401.875737 
L 685.042088 413.727428 
L 686.781706 409.051222 
L 688.521324 400.610613 
L 690.260943 407.854523 
L 692.000561 403.112036 
L 693.74018 409.374018 
L 695.479798 402.931802 
L 697.219416 416.456374 
L 698.959035 375.103017 
L 700.698653 387.588968 
L 702.438272 383.323864 
L 704.17789 397.650546 
L 705.917508 390.654495 
L 707.657127 409.245291 
L 709.396745 359.06488 
L 711.136364 358.578402 
L 712.875982 383.239729 
L 714.6156 412.666117 
L 716.355219 397.084996 
L 718.094837 395.368484 
L 719.834456 396.025361 
L 721.574074 398.329318 
L 723.313692 413.372241 
L 725.053311 407.526075 
L 726.792929 380.35987 
L 728.532548 393.453956 
L 730.272166 384.249875 
L 732.011785 411.94043 
L 733.751403 391.787547 
L 735.491021 396.602475 
L 737.23064 404.272907 
L 738.970258 398.913891 
L 740.709877 401.84413 
L 744.189113 409.522243 
L 745.928732 394.164995 
L 747.66835 380.014994 
L 749.407969 378.811512 
L 751.147587 389.980082 
L 752.887205 406.390606 
L 754.626824 405.905311 
L 756.366442 395.379353 
L 758.106061 403.184441 
L 759.845679 409.421346 
L 761.585297 405.784147 
L 763.324916 396.421033 
L 765.064534 410.097486 
L 766.804153 390.860122 
L 768.543771 422.712601 
L 770.283389 412.142911 
L 772.023008 365.780268 
L 773.762626 399.311548 
L 775.502245 394.551016 
L 777.241863 390.196189 
L 778.981481 396.112977 
L 780.7211 382.477634 
L 782.460718 409.677082 
L 784.200337 407.998697 
L 785.939955 384.686594 
L 787.679574 413.994383 
L 789.419192 379.038097 
L 791.15881 399.884528 
L 792.898429 408.825636 
L 794.638047 400.510821 
L 796.377666 398.133128 
L 798.117284 378.806815 
L 799.856902 396.599433 
L 801.596521 384.643031 
L 803.336139 383.264795 
L 805.075758 406.220572 
L 806.815376 379.988879 
L 808.554994 373.350953 
L 810.294613 402.773803 
L 812.034231 400.852213 
L 813.77385 409.039089 
L 815.513468 400.270633 
L 817.253086 409.206791 
L 818.992705 408.47161 
L 820.732323 354.137442 
L 822.471942 390.022444 
L 824.21156 373.409255 
L 825.951178 380.623774 
L 827.690797 386.416516 
L 829.430415 414.690902 
L 831.170034 377.067018 
L 832.909652 391.05952 
L 834.64927 385.475365 
L 836.388889 416.077129 
L 838.128507 356.439034 
L 839.868126 397.256491 
L 841.607744 365.269529 
L 843.347363 386.870732 
L 845.086981 380.011163 
L 846.826599 413.324865 
L 848.566218 401.777934 
L 850.305836 413.347296 
L 852.045455 402.012988 
L 853.785073 372.758922 
L 855.524691 385.85068 
L 857.26431 367.293417 
L 859.003928 397.465137 
L 860.743547 398.137675 
L 862.483165 365.860119 
L 864.222783 390.656156 
L 865.962402 426.502242 
L 867.70202 410.543982 
L 869.441639 358.680123 
L 871.181257 400.465465 
L 872.920875 380.422163 
L 874.660494 408.224169 
L 876.400112 388.363922 
L 878.139731 406.120061 
L 879.879349 400.184634 
L 881.618967 381.057143 
L 883.358586 387.593641 
L 885.098204 407.913506 
L 886.837823 404.373021 
L 888.577441 388.227724 
L 890.317059 376.941339 
L 892.056678 399.282464 
L 893.796296 373.967704 
L 895.535915 386.395731 
L 897.275533 403.383757 
L 899.015152 393.408736 
L 900.75477 415.120723 
L 902.494388 412.52648 
L 904.234007 401.851616 
L 905.973625 389.362142 
L 907.713244 350.126831 
L 909.452862 424.31977 
L 911.19248 374.430541 
L 912.932099 394.38348 
L 914.671717 405.015596 
L 916.411336 411.397031 
L 918.150954 385.376035 
L 919.890572 365.072041 
L 921.630191 380.179004 
L 923.369809 365.963653 
L 925.109428 415.744508 
L 926.849046 412.03918 
L 928.588664 374.601073 
L 930.328283 396.67057 
L 932.067901 384.506594 
L 933.80752 391.977223 
L 935.547138 384.048518 
L 937.286756 381.032467 
L 939.026375 352.882344 
L 940.765993 369.244496 
L 942.505612 382.535265 
L 944.24523 401.716829 
L 945.984848 413.012615 
L 947.724467 407.802908 
L 949.464085 376.147106 
L 951.203704 368.741407 
L 952.943322 392.39734 
L 954.682941 390.971431 
L 956.422559 393.812318 
L 958.162177 388.094496 
L 959.901796 397.260157 
L 961.641414 373.683006 
L 963.381033 418.109798 
L 965.120651 357.600849 
L 966.860269 415.666851 
L 968.599888 386.588307 
L 970.339506 392.782223 
L 972.079125 369.418018 
L 973.818743 395.983612 
L 975.558361 408.304553 
L 977.29798 379.895525 
L 979.037598 407.850882 
L 980.777217 388.297591 
L 982.516835 387.361483 
L 984.256453 354.198352 
L 985.996072 415.414512 
L 987.73569 393.918885 
L 989.475309 378.560393 
L 991.214927 398.1234 
L 992.954545 386.684935 
L 994.694164 387.030625 
L 996.433782 364.646328 
L 998.173401 381.444723 
L 999.913019 365.881661 
L 1001.652637 373.599107 
L 1003.392256 374.780095 
L 1005.131874 387.200291 
L 1006.871493 384.594275 
L 1008.611111 389.7935 
L 1010.35073 397.092148 
L 1012.090348 403.787976 
L 1013.829966 423.877106 
L 1015.569585 394.99843 
L 1017.309203 369.00849 
L 1019.048822 415.143763 
L 1020.78844 385.609122 
L 1022.528058 406.388787 
L 1024.267677 394.856699 
L 1026.007295 406.631722 
L 1027.746914 396.237632 
L 1029.486532 382.808887 
L 1031.22615 411.239799 
L 1032.965769 399.44785 
L 1034.705387 383.245361 
L 1036.445006 411.794298 
L 1038.184624 417.442785 
L 1039.924242 392.375747 
L 1041.663861 405.201026 
L 1043.403479 403.79685 
L 1045.143098 390.378354 
L 1046.882716 381.577591 
L 1048.622334 377.986481 
L 1050.361953 377.103047 
L 1052.101571 354.250734 
L 1053.84119 388.604349 
L 1055.580808 408.288831 
L 1057.320426 405.554468 
L 1059.060045 386.61376 
L 1060.799663 410.713742 
L 1062.539282 394.423451 
L 1064.2789 391.366555 
L 1066.018519 387.783144 
L 1067.758137 398.364637 
L 1069.497755 359.478321 
L 1071.237374 366.451442 
L 1072.976992 405.107373 
L 1074.716611 364.087358 
L 1076.456229 391.313627 
L 1078.195847 410.127559 
L 1079.935466 403.478282 
L 1083.414703 375.967975 
L 1085.154321 417.489022 
L 1086.893939 385.026477 
L 1088.633558 407.696025 
L 1090.373176 399.144992 
L 1093.852413 372.956157 
L 1095.592031 390.642682 
L 1097.33165 366.897471 
L 1099.071268 370.864805 
L 1100.810887 406.05717 
L 1102.550505 390.28127 
L 1104.290123 401.719125 
L 1106.029742 384.544584 
L 1107.76936 401.570587 
L 1109.508979 392.009394 
L 1111.248597 344.659501 
L 1112.988215 370.588415 
L 1114.727834 370.453993 
L 1116.467452 391.921205 
L 1118.207071 399.724225 
L 1119.946689 383.907499 
L 1121.686308 389.304241 
L 1123.425926 405.069073 
L 1125.165544 385.132754 
L 1126.905163 403.147391 
L 1128.644781 401.11266 
L 1130.3844 388.988889 
L 1132.124018 417.617523 
L 1133.863636 401.259526 
L 1135.603255 379.803144 
L 1137.342873 397.860591 
L 1139.082492 372.632768 
L 1140.82211 374.329432 
L 1142.561728 403.141846 
L 1144.301347 389.504105 
L 1146.040965 363.313788 
L 1147.780584 391.348632 
L 1149.520202 391.169513 
L 1151.25982 399.610226 
L 1152.999439 380.091687 
L 1154.739057 387.039027 
L 1156.478676 381.509384 
L 1158.218294 390.401951 
L 1159.957912 371.936494 
L 1161.697531 404.974526 
L 1163.437149 369.491302 
L 1165.176768 404.783725 
L 1166.916386 381.637622 
L 1168.656004 408.460787 
L 1170.395623 399.220762 
L 1172.135241 373.464283 
L 1175.614478 407.713545 
L 1177.354097 395.740017 
L 1179.093715 357.149612 
L 1180.833333 379.977247 
L 1182.572952 378.021234 
L 1184.31257 398.378444 
L 1186.052189 381.119479 
L 1187.791807 368.334048 
L 1189.531425 410.856771 
L 1191.271044 381.616707 
L 1193.010662 416.809682 
L 1194.750281 390.972007 
L 1196.489899 407.785226 
L 1198.229517 380.675544 
L 1199.969136 406.627893 
L 1201.708754 366.055638 
L 1203.448373 400.481463 
L 1205.187991 408.404914 
L 1206.927609 390.291084 
L 1208.667228 383.872128 
L 1210.406846 400.235748 
L 1212.146465 382.133869 
L 1213.886083 378.46987 
L 1215.625701 395.858566 
L 1217.36532 399.038576 
L 1219.104938 408.433614 
L 1220.844557 376.417748 
L 1222.584175 412.102002 
L 1224.323793 385.645685 
L 1226.063412 415.007192 
L 1227.80303 417.292336 
L 1229.542649 367.561364 
L 1231.282267 391.716619 
L 1233.021886 373.418503 
L 1234.761504 396.666865 
L 1236.501122 412.858182 
L 1238.240741 384.755735 
L 1239.980359 387.132642 
L 1241.719978 415.080389 
L 1243.459596 380.572954 
L 1245.199214 385.850729 
L 1246.938833 399.126046 
L 1248.678451 418.050074 
L 1250.41807 391.092484 
L 1252.157688 408.988064 
L 1253.897306 398.599956 
L 1255.636925 390.037213 
L 1257.376543 419.652672 
L 1259.116162 410.626315 
L 1260.85578 402.515582 
L 1262.595398 410.241745 
L 1264.335017 408.301321 
L 1266.074635 401.221996 
L 1267.814254 367.212027 
L 1269.553872 383.147386 
L 1271.29349 390.744568 
L 1273.033109 392.476574 
L 1274.772727 383.335512 
L 1276.512346 352.413306 
L 1278.251964 394.030081 
L 1279.991582 402.783208 
L 1281.731201 420.416848 
L 1283.470819 369.644192 
L 1285.210438 410.06274 
L 1286.950056 377.345354 
L 1288.689675 417.12492 
L 1290.429293 387.540301 
L 1292.168911 393.056907 
L 1293.90853 411.101284 
L 1295.648148 385.999831 
L 1297.387767 386.836917 
L 1299.127385 395.180256 
L 1300.867003 404.103278 
L 1302.606622 394.649904 
L 1304.34624 409.871339 
L 1306.085859 385.575947 
L 1307.825477 394.779243 
L 1309.565095 374.608127 
L 1311.304714 373.492088 
L 1313.044332 403.083161 
L 1314.783951 392.963424 
L 1316.523569 383.565521 
L 1318.263187 410.08333 
L 1320.002806 394.305989 
L 1321.742424 413.921895 
L 1323.482043 394.853941 
L 1325.221661 363.879314 
L 1326.961279 387.579596 
L 1328.700898 381.143349 
L 1330.440516 393.776564 
L 1332.180135 388.025837 
L 1333.919753 372.951143 
L 1335.659371 372.981444 
L 1337.39899 392.715343 
L 1339.138608 388.806847 
L 1340.878227 382.455597 
L 1342.617845 368.18001 
L 1344.357464 427.198182 
L 1346.097082 396.348001 
L 1347.8367 378.347435 
L 1349.576319 383.374692 
L 1351.315937 398.42154 
L 1353.055556 386.594043 
L 1354.795174 407.355305 
L 1356.534792 383.244104 
L 1358.274411 395.294505 
L 1360.014029 401.03639 
L 1361.753648 381.470034 
L 1363.493266 381.588776 
L 1365.232884 378.388269 
L 1366.972503 404.883725 
L 1368.712121 386.319968 
L 1370.45174 373.305596 
L 1372.191358 357.196835 
L 1373.930976 354.925435 
L 1375.670595 384.602794 
L 1377.410213 376.503744 
L 1379.149832 385.457097 
L 1380.88945 395.76157 
L 1382.629068 383.759601 
L 1384.368687 380.258348 
L 1386.108305 389.496451 
L 1387.847924 386.370777 
L 1389.587542 395.345221 
L 1391.32716 377.643304 
L 1394.806397 413.104239 
L 1396.546016 376.593004 
L 1398.285634 345.346378 
L 1400.025253 405.987784 
L 1401.764871 381.111729 
L 1403.504489 389.393084 
L 1405.244108 405.184379 
L 1406.983726 379.946172 
L 1408.723345 384.489846 
L 1410.462963 364.685956 
L 1412.202581 391.345561 
L 1413.9422 385.675162 
L 1415.681818 409.988019 
L 1417.421437 388.11783 
L 1419.161055 391.321768 
L 1420.900673 394.140907 
L 1422.640292 385.469413 
L 1424.37991 372.189195 
L 1426.119529 379.328636 
L 1427.859147 398.295326 
L 1429.598765 392.087614 
L 1431.338384 404.78517 
L 1433.078002 392.030243 
L 1434.817621 385.056541 
L 1436.557239 404.914529 
L 1438.296857 409.586899 
L 1440.036476 386.943877 
L 1441.776094 417.430342 
L 1443.515713 386.241586 
L 1445.255331 388.288473 
L 1446.994949 369.686411 
L 1448.734568 407.467937 
L 1450.474186 367.341467 
L 1452.213805 357.39711 
L 1453.953423 405.102947 
L 1455.693042 371.397806 
L 1457.43266 404.414642 
L 1459.172278 378.452374 
L 1460.911897 384.31497 
L 1462.651515 412.830822 
L 1464.391134 403.69844 
L 1466.130752 402.848779 
L 1467.87037 394.342182 
L 1469.609989 363.158239 
L 1471.349607 358.576161 
L 1473.089226 392.972941 
L 1474.828844 417.524609 
L 1476.568462 422.152119 
L 1478.308081 389.714753 
L 1480.047699 412.090474 
L 1481.787318 397.313434 
L 1483.526936 418.183099 
L 1485.266554 408.106509 
L 1487.006173 370.824123 
L 1488.745791 396.61154 
L 1490.48541 405.088098 
L 1492.225028 419.766154 
L 1493.964646 392.325916 
L 1495.704265 373.541252 
L 1497.443883 430.92 
L 1499.183502 391.96605 
L 1500.92312 416.040317 
L 1502.662738 386.764894 
L 1504.402357 389.607563 
L 1506.141975 396.324047 
L 1507.881594 378.099634 
L 1509.621212 396.524227 
L 1511.360831 380.339858 
L 1513.100449 375.027576 
L 1514.840067 417.76016 
L 1516.579686 384.031304 
L 1518.319304 406.961804 
L 1520.058923 411.748449 
L 1521.798541 405.104024 
L 1523.538159 366.717555 
L 1525.277778 396.197657 
L 1527.017396 407.171831 
L 1528.757015 406.323964 
L 1530.496633 400.234528 
L 1532.236251 386.639009 
L 1533.97587 397.318555 
L 1535.715488 415.634745 
L 1537.455107 385.744077 
L 1539.194725 409.429699 
L 1540.934343 408.881358 
L 1542.673962 415.110393 
L 1544.41358 409.562592 
L 1546.153199 396.781883 
L 1547.892817 389.183164 
L 1549.632435 412.675978 
L 1551.372054 405.946986 
L 1553.111672 384.179749 
L 1554.851291 390.555733 
L 1556.590909 379.468755 
L 1556.590909 379.468755 
" style="fill:none;stroke:#008000;stroke-linecap:square;stroke-width:1.5;"/>
   </g>
   <g id="line2d_33">
    <path clip-path="url(#p5344cb960a)" d="M 288.409091 255.515077 
L 290.148709 239.707559 
L 291.888328 336.782868 
L 293.627946 219.227455 
L 295.367565 306.815674 
L 297.107183 217.654883 
L 298.846801 214.575366 
L 300.58642 369.889054 
L 302.326038 346.55098 
L 304.065657 280.565221 
L 305.805275 345.377673 
L 307.544893 364.714569 
L 309.284512 323.359607 
L 311.02413 294.391591 
L 312.763749 334.362182 
L 314.503367 285.643671 
L 316.242985 287.123193 
L 317.982604 324.047257 
L 319.722222 281.528689 
L 321.461841 317.21752 
L 323.201459 313.427638 
L 324.941077 284.077696 
L 326.680696 284.593824 
L 328.420314 341.856913 
L 330.159933 371.527009 
L 331.899551 316.404613 
L 333.639169 281.967936 
L 335.378788 202.720684 
L 337.118406 258.110379 
L 338.858025 318.430493 
L 340.597643 303.692343 
L 342.337262 352.755462 
L 344.07688 303.185458 
L 345.816498 193.107241 
L 347.556117 252.008528 
L 349.295735 284.633494 
L 351.035354 274.588459 
L 352.774972 104.74062 
L 354.51459 368.964103 
L 356.254209 223.537698 
L 357.993827 349.675567 
L 359.733446 273.133775 
L 361.473064 296.782838 
L 363.212682 340.42665 
L 364.952301 235.07077 
L 366.691919 297.837157 
L 368.431538 330.205362 
L 370.171156 192.364831 
L 371.910774 290.876255 
L 373.650393 244.076907 
L 375.390011 322.206352 
L 377.12963 236.354788 
L 378.869248 287.362197 
L 380.608866 343.588416 
L 382.348485 309.496599 
L 384.088103 302.550304 
L 385.827722 241.743319 
L 387.56734 271.199817 
L 389.306958 270.153699 
L 391.046577 153.255988 
L 392.786195 342.611314 
L 394.525814 247.032765 
L 396.265432 281.885702 
L 398.005051 393.449698 
L 399.744669 312.823641 
L 401.484287 310.705619 
L 403.223906 212.896249 
L 404.963524 262.201272 
L 406.703143 338.021414 
L 408.442761 369.63673 
L 410.182379 284.888732 
L 411.921998 339.127479 
L 413.661616 288.637306 
L 415.401235 305.777038 
L 417.140853 256.16793 
L 418.880471 288.628522 
L 420.62009 331.038493 
L 422.359708 322.776072 
L 424.099327 271.936622 
L 425.838945 195.73907 
L 427.578563 295.240669 
L 429.318182 358.721723 
L 431.0578 292.189099 
L 432.797419 275.643742 
L 434.537037 254.065031 
L 436.276655 312.002298 
L 438.016274 321.201876 
L 439.755892 258.320249 
L 441.495511 326.395165 
L 443.235129 239.048031 
L 444.974747 289.079989 
L 446.714366 356.167832 
L 448.453984 334.648969 
L 450.193603 340.585882 
L 451.933221 368.911408 
L 453.67284 258.28356 
L 455.412458 380.090633 
L 457.152076 230.235667 
L 458.891695 350.952645 
L 460.631313 307.680304 
L 462.370932 332.695774 
L 464.11055 355.840667 
L 465.850168 294.072481 
L 467.589787 356.943793 
L 469.329405 227.178559 
L 471.069024 325.777854 
L 472.808642 301.257076 
L 474.54826 401.567502 
L 476.287879 273.347997 
L 478.027497 307.650094 
L 479.767116 176.970232 
L 481.506734 279.93444 
L 483.246352 308.989499 
L 484.985971 213.592314 
L 486.725589 248.40333 
L 488.465208 242.84904 
L 490.204826 286.193492 
L 491.944444 278.361392 
L 493.684063 199.014063 
L 495.423681 230.330785 
L 497.1633 374.072073 
L 498.902918 338.028578 
L 500.642536 307.848267 
L 502.382155 344.867146 
L 504.121773 198.522259 
L 505.861392 334.274047 
L 507.60101 157.259466 
L 509.340629 328.90898 
L 511.080247 298.947446 
L 512.819865 252.512625 
L 514.559484 295.773709 
L 516.299102 259.852588 
L 518.038721 292.624437 
L 519.778339 195.495014 
L 521.517957 204.859586 
L 523.257576 258.422427 
L 524.997194 281.206806 
L 526.736813 270.562114 
L 528.476431 299.476964 
L 530.216049 335.450399 
L 531.955668 265.474487 
L 533.695286 209.144186 
L 535.434905 340.222968 
L 537.174523 252.467828 
L 538.914141 78.12 
L 540.65376 300.034995 
L 542.393378 172.923281 
L 544.132997 177.314625 
L 545.872615 302.726015 
L 547.612233 275.82712 
L 549.351852 226.699947 
L 551.09147 265.292585 
L 552.831089 353.054358 
L 554.570707 225.95166 
L 556.310325 258.112963 
L 558.049944 191.190316 
L 559.789562 154.506408 
L 561.529181 328.189828 
L 563.268799 259.204705 
L 565.008418 249.89117 
L 566.748036 309.442948 
L 568.487654 276.16378 
L 570.227273 192.684335 
L 571.966891 265.106178 
L 573.70651 285.894336 
L 575.446128 328.070952 
L 577.185746 295.126769 
L 578.925365 286.376523 
L 580.664983 378.175533 
L 582.404602 264.394437 
L 584.14422 232.234086 
L 585.883838 391.467764 
L 587.623457 315.209241 
L 589.363075 275.241568 
L 591.102694 266.125266 
L 592.842312 266.724781 
L 594.58193 196.75014 
L 596.321549 279.192445 
L 598.061167 310.210078 
L 599.800786 268.801079 
L 601.540404 360.580567 
L 603.280022 128.751957 
L 605.019641 216.543941 
L 606.759259 257.296804 
L 608.498878 285.052263 
L 610.238496 244.780001 
L 611.978114 351.240593 
L 613.717733 236.662371 
L 615.457351 276.755804 
L 617.19697 215.803504 
L 618.936588 305.277637 
L 620.676207 272.917186 
L 622.415825 193.191367 
L 624.155443 287.972259 
L 625.895062 286.307009 
L 627.63468 274.261296 
L 629.374299 266.406543 
L 631.113917 319.845887 
L 632.853535 318.459969 
L 634.593154 252.656884 
L 636.332772 322.67227 
L 638.072391 303.32815 
L 639.812009 320.71048 
L 641.551627 298.247396 
L 643.291246 239.815534 
L 645.030864 301.263393 
L 646.770483 274.273179 
L 648.510101 337.415221 
L 650.249719 225.983385 
L 651.989338 345.78763 
L 653.728956 278.23712 
L 655.468575 282.850962 
L 657.208193 248.140461 
L 658.947811 325.968232 
L 660.68743 316.330223 
L 662.427048 259.840203 
L 664.166667 304.690752 
L 665.906285 278.668606 
L 667.645903 266.618325 
L 669.385522 270.067249 
L 671.12514 131.168934 
L 672.864759 314.40102 
L 674.604377 366.287389 
L 676.343996 269.488158 
L 678.083614 320.245655 
L 679.823232 257.981068 
L 681.562851 334.946113 
L 683.302469 317.776101 
L 685.042088 355.304481 
L 686.781706 340.497273 
L 688.521324 312.936352 
L 690.260943 336.392669 
L 692.000561 321.566821 
L 693.74018 341.062137 
L 695.479798 321.089921 
L 697.219416 363.926298 
L 698.959035 232.947809 
L 700.698653 272.574219 
L 702.438272 257.975985 
L 704.17789 303.643773 
L 705.917508 279.221654 
L 707.657127 339.400985 
L 709.396745 177.7749 
L 711.136364 176.208004 
L 712.875982 255.898216 
L 714.6156 349.791301 
L 716.355219 299.457653 
L 718.094837 293.553913 
L 719.834456 294.484747 
L 721.574074 302.02606 
L 723.313692 351.264553 
L 725.053311 333.372678 
L 726.792929 246.532869 
L 728.532548 289.73857 
L 730.272166 261.303412 
L 732.011785 349.556813 
L 733.751403 285.680237 
L 735.491021 300.941633 
L 737.23064 326.204422 
L 738.970258 308.869529 
L 740.709877 317.582776 
L 742.449495 332.539806 
L 744.189113 343.587869 
L 745.928732 295.746971 
L 747.66835 251.666886 
L 749.407969 247.249469 
L 751.147587 281.766852 
L 752.887205 333.550905 
L 754.626824 331.885543 
L 756.366442 298.7324 
L 758.106061 323.184181 
L 759.845679 342.723158 
L 761.585297 331.68113 
L 763.324916 302.69529 
L 765.064534 345.196286 
L 766.804153 286.45329 
L 768.543771 385.128006 
L 770.283389 352.465549 
L 772.023008 209.195709 
L 773.762626 312.507842 
L 777.241863 283.863073 
L 778.981481 302.519702 
L 780.7211 261.096636 
L 782.460718 345.006934 
L 784.200337 339.829114 
L 785.939955 267.429613 
L 787.679574 358.210998 
L 789.419192 250.461003 
L 791.15881 315.715116 
L 792.898429 343.476493 
L 794.638047 318.111316 
L 796.377666 310.857928 
L 798.117284 251.195562 
L 799.856902 305.92349 
L 801.596521 270.383254 
L 803.336139 266.551543 
L 805.075758 336.150003 
L 806.815376 256.599773 
L 808.554994 236.469598 
L 810.294613 325.905892 
L 812.034231 319.43166 
L 813.77385 344.358731 
L 815.513468 317.374559 
L 817.253086 344.636093 
L 818.992705 342.393278 
L 820.732323 176.636031 
L 822.471942 283.73898 
L 824.21156 232.239258 
L 825.951178 255.101155 
L 827.690797 273.280654 
L 829.430415 359.73868 
L 831.170034 242.604244 
L 832.909652 286.167099 
L 834.64927 268.781952 
L 836.388889 363.278994 
L 838.128507 176.487405 
L 839.868126 305.386288 
L 841.607744 205.580966 
L 843.347363 272.916236 
L 845.086981 251.533586 
L 846.826599 355.978443 
L 848.566218 320.346191 
L 850.305836 356.064282 
L 852.045455 319.90493 
L 853.785073 229.572285 
L 855.524691 270.257542 
L 857.26431 212.587134 
L 859.003928 306.602515 
L 860.743547 309.003578 
L 862.483165 209.464917 
L 864.222783 286.217292 
L 865.962402 396.918229 
L 867.70202 347.69338 
L 869.441639 187.71412 
L 871.181257 316.126467 
L 872.920875 254.014166 
L 874.660494 340.310397 
L 876.400112 279.151173 
L 878.139731 334.645482 
L 879.879349 316.439746 
L 881.618967 257.769993 
L 883.358586 278.557488 
L 885.098204 340.95947 
L 886.837823 330.329196 
L 888.577441 281.117945 
L 890.317059 246.682025 
L 892.056678 314.670537 
L 893.796296 237.632658 
L 895.535915 275.898875 
L 897.275533 327.420225 
L 899.015152 296.980021 
L 900.75477 362.7212 
L 902.494388 354.712769 
L 904.234007 322.127746 
L 905.973625 284.003626 
L 907.713244 164.980491 
L 909.452862 391.004885 
L 911.19248 239.61103 
L 912.932099 300.160217 
L 914.671717 333.284286 
L 916.411336 352.495594 
L 918.150954 274.159386 
L 919.890572 212.467048 
L 921.630191 258.422953 
L 923.369809 215.606316 
L 925.109428 365.059736 
L 926.849046 353.248209 
L 928.588664 238.998337 
L 930.328283 306.347823 
L 932.067901 269.227016 
L 933.80752 291.192077 
L 935.547138 266.696197 
L 937.286756 257.563047 
L 939.026375 171.112339 
L 940.765993 221.344146 
L 942.505612 262.146808 
L 944.24523 322.008635 
L 945.984848 356.542712 
L 947.724467 340.392739 
L 949.464085 243.400087 
L 951.203704 220.54797 
L 952.943322 292.925662 
L 954.682941 288.562951 
L 956.422559 296.861123 
L 958.162177 278.882271 
L 959.901796 307.087278 
L 961.641414 235.915226 
L 963.381033 371.299646 
L 965.120651 185.373799 
L 966.860269 363.793204 
L 968.599888 273.594103 
L 970.339506 293.916396 
L 972.079125 220.957398 
L 973.818743 301.34973 
L 975.558361 339.354024 
L 977.29798 250.467858 
L 979.037598 337.93458 
L 980.777217 276.326592 
L 982.516835 274.355339 
L 984.256453 172.670061 
L 985.996072 362.454111 
L 987.73569 296.360153 
L 989.475309 248.968455 
L 991.214927 309.334023 
L 992.954545 274.97811 
L 994.694164 276.586158 
L 996.433782 208.353276 
L 998.173401 259.794229 
L 999.913019 213.758372 
L 1001.652637 237.168472 
L 1003.392256 240.750882 
L 1005.131874 278.875652 
L 1006.871493 270.711956 
L 1008.611111 286.536867 
L 1012.090348 328.540406 
L 1013.829966 389.589264 
L 1015.569585 301.829854 
L 1017.309203 223.809609 
L 1019.048822 363.368885 
L 1020.78844 274.007281 
L 1022.528058 335.531493 
L 1024.267677 302.017949 
L 1026.007295 337.642105 
L 1027.746914 306.195826 
L 1029.486532 264.364492 
L 1031.22615 350.891211 
L 1032.965769 314.988231 
L 1034.705387 265.895148 
L 1036.445006 353.460371 
L 1038.184624 370.510328 
L 1039.924242 294.845474 
L 1041.663861 333.271088 
L 1043.403479 328.34599 
L 1045.143098 287.19115 
L 1046.882716 261.665988 
L 1048.622334 249.555335 
L 1050.361953 246.862538 
L 1052.101571 177.206404 
L 1053.84119 282.185314 
L 1055.580808 342.19537 
L 1057.320426 334.414608 
L 1059.060045 275.749392 
L 1060.799663 349.479189 
L 1062.539282 299.915977 
L 1064.2789 290.615372 
L 1066.018519 279.40596 
L 1067.758137 312.258369 
L 1069.497755 194.464426 
L 1071.237374 214.989321 
L 1072.976992 332.603302 
L 1074.716611 208.009108 
L 1076.456229 290.706176 
L 1078.195847 347.943314 
L 1079.935466 328.012371 
L 1083.414703 244.380089 
L 1085.154321 370.157951 
L 1086.893939 271.481553 
L 1088.633558 340.390176 
L 1090.373176 314.194013 
L 1093.852413 235.983585 
L 1095.592031 290.079695 
L 1097.33165 218.669884 
L 1099.071268 230.606005 
L 1100.810887 336.485752 
L 1102.550505 288.004046 
L 1104.290123 322.502815 
L 1106.029742 270.718608 
L 1107.76936 322.083671 
L 1109.508979 293.350161 
L 1111.248597 150.045709 
L 1112.988215 228.519568 
L 1114.727834 228.11274 
L 1116.467452 292.717461 
L 1118.207071 316.666321 
L 1119.946689 268.716204 
L 1121.686308 284.582313 
L 1123.425926 332.472719 
L 1125.165544 271.91017 
L 1126.905163 326.672581 
L 1128.644781 320.691416 
L 1130.3844 283.303766 
L 1132.124018 370.449326 
L 1133.863636 321.251044 
L 1135.603255 256.261807 
L 1137.342873 310.95601 
L 1139.082492 234.400526 
L 1140.82211 240.299673 
L 1142.561728 327.335434 
L 1144.301347 286.909436 
L 1146.040965 206.642194 
L 1147.780584 291.439186 
L 1149.520202 290.897407 
L 1151.25982 315.955566 
L 1152.999439 256.578234 
L 1154.739057 277.153764 
L 1156.478676 259.654302 
L 1158.218294 286.966417 
L 1159.957912 230.523055 
L 1161.697531 331.510407 
L 1163.437149 223.112919 
L 1165.176768 330.736861 
L 1166.916386 260.335946 
L 1168.656004 342.302239 
L 1170.395623 314.24222 
L 1172.135241 235.710715 
L 1175.614478 340.215869 
L 1177.354097 303.440623 
L 1179.093715 185.065005 
L 1180.833333 256.145551 
L 1182.572952 249.949559 
L 1184.31257 311.906727 
L 1186.052189 259.379066 
L 1187.791807 220.625799 
L 1189.531425 349.842743 
L 1191.271044 260.56155 
L 1193.010662 368.38435 
L 1194.750281 290.424314 
L 1196.489899 341.237224 
L 1198.229517 259.306343 
L 1199.969136 338.267558 
L 1201.708754 214.517494 
L 1203.448373 318.32335 
L 1205.187991 342.619251 
L 1206.927609 287.559983 
L 1208.667228 268.057909 
L 1210.406846 317.773862 
L 1212.146465 261.183899 
L 1213.886083 250.941638 
L 1215.625701 303.547013 
L 1217.36532 313.274346 
L 1219.104938 342.316075 
L 1220.844557 244.683692 
L 1222.584175 353.502825 
L 1224.323793 272.097649 
L 1226.063412 362.282573 
L 1227.80303 369.433715 
L 1229.542649 218.656127 
L 1231.282267 291.386578 
L 1233.021886 235.60477 
L 1234.761504 306.477401 
L 1236.501122 355.870033 
L 1238.240741 270.893518 
L 1239.980359 277.937224 
L 1241.719978 362.78264 
L 1243.459596 257.354993 
L 1245.199214 273.449569 
L 1246.938833 313.932648 
L 1248.678451 371.636943 
L 1250.41807 289.702148 
L 1252.157688 344.555382 
L 1253.897306 313.052352 
L 1255.636925 286.565782 
L 1257.376543 376.673778 
L 1259.116162 349.210184 
L 1260.85578 324.753901 
L 1262.595398 347.954826 
L 1264.335017 341.886735 
L 1266.074635 319.992681 
L 1267.814254 215.45718 
L 1269.553872 264.302242 
L 1271.29349 287.589124 
L 1273.033109 292.666626 
L 1274.772727 264.328245 
L 1276.512346 169.610596 
L 1278.251964 297.42656 
L 1279.991582 323.811362 
L 1281.731201 378.177638 
L 1283.470819 221.640461 
L 1285.210438 346.166056 
L 1286.950056 244.946809 
L 1288.689675 367.681829 
L 1290.429293 275.418015 
L 1292.168911 291.6853 
L 1293.90853 348.128112 
L 1295.648148 269.610767 
L 1297.387767 273.123197 
L 1300.867003 325.883419 
L 1302.606622 296.12948 
L 1304.34624 343.575007 
L 1306.085859 267.022655 
L 1307.825477 296.02132 
L 1309.565095 233.329875 
L 1311.304714 229.243311 
L 1313.044332 322.438127 
L 1316.523569 261.967682 
L 1318.263187 344.928647 
L 1320.002806 295.569235 
L 1321.742424 356.784995 
L 1323.482043 296.95804 
L 1325.221661 198.958312 
L 1326.961279 273.017268 
L 1328.700898 252.990477 
L 1330.440516 292.81037 
L 1332.180135 274.684081 
L 1333.919753 226.084759 
L 1335.659371 226.140125 
L 1337.39899 288.294724 
L 1339.138608 275.516567 
L 1340.878227 254.535078 
L 1342.617845 208.903163 
L 1344.357464 397.55475 
L 1346.097082 298.631725 
L 1347.8367 240.486841 
L 1349.576319 257.776757 
L 1351.315937 305.646305 
L 1353.055556 265.659134 
L 1354.795174 332.830119 
L 1356.534792 254.820741 
L 1358.274411 294.040146 
L 1360.014029 311.390497 
L 1361.753648 248.168865 
L 1363.493266 248.98634 
L 1365.232884 238.399887 
L 1366.972503 324.425333 
L 1368.712121 264.152527 
L 1370.45174 221.533567 
L 1372.191358 170.004676 
L 1373.930976 163.395788 
L 1375.670595 258.453805 
L 1377.410213 232.030871 
L 1379.149832 261.135535 
L 1380.88945 294.632284 
L 1382.629068 255.258798 
L 1384.368687 244.701316 
L 1386.108305 274.174107 
L 1387.847924 262.389021 
L 1389.587542 292.058977 
L 1391.32716 234.039175 
L 1394.806397 349.647926 
L 1396.546016 229.333925 
L 1398.285634 124.407008 
L 1400.025253 326.028272 
L 1401.764871 243.601943 
L 1403.504489 270.995839 
L 1405.244108 323.231862 
L 1406.983726 238.142657 
L 1408.723345 254.624666 
L 1410.462963 189.487554 
L 1412.202581 278.949692 
L 1413.9422 259.2145 
L 1415.681818 339.410459 
L 1417.421437 267.271639 
L 1419.161055 277.459666 
L 1420.900673 286.626678 
L 1422.640292 257.006119 
L 1424.37991 214.73104 
L 1426.119529 238.409352 
L 1427.859147 300.931148 
L 1429.598765 280.468046 
L 1431.338384 321.803592 
L 1433.078002 280.167004 
L 1434.817621 255.560494 
L 1436.557239 321.226487 
L 1438.296857 336.836862 
L 1440.036476 261.238605 
L 1441.776094 363.023766 
L 1443.515713 259.432944 
L 1445.255331 266.209936 
L 1446.994949 205.00575 
L 1448.734568 329.081151 
L 1450.474186 195.263901 
L 1452.213805 161.991076 
L 1453.953423 321.610036 
L 1455.693042 206.667036 
L 1457.43266 318.156984 
L 1459.172278 229.775946 
L 1460.911897 250.307797 
L 1462.651515 345.725288 
L 1464.391134 314.598477 
L 1466.130752 311.702493 
L 1467.87037 284.187229 
L 1469.609989 178.894645 
L 1471.349607 161.772692 
L 1473.089226 279.110637 
L 1474.828844 362.073448 
L 1476.568462 377.775979 
L 1478.308081 267.706263 
L 1480.047699 343.959879 
L 1481.787318 294.475606 
L 1483.526936 364.933705 
L 1485.266554 330.939473 
L 1487.006173 204.345309 
L 1488.745791 291.576406 
L 1490.48541 320.250059 
L 1492.225028 369.870126 
L 1493.964646 277.664677 
L 1495.704265 215.423533 
L 1497.443883 407.923874 
L 1499.183502 276.943866 
L 1500.92312 357.845439 
L 1502.662738 259.465381 
L 1504.402357 269.457514 
L 1506.141975 292.205657 
L 1507.881594 229.563345 
L 1509.621212 291.718332 
L 1511.360831 237.789553 
L 1513.100449 219.930191 
L 1514.840067 363.592866 
L 1516.579686 248.165636 
L 1518.319304 327.057119 
L 1520.058923 343.518136 
L 1521.798541 321.072672 
L 1523.538159 191.844779 
L 1525.277778 291.012893 
L 1527.017396 327.928917 
L 1528.757015 325.138642 
L 1530.496633 305.065899 
L 1532.236251 257.296369 
L 1533.97587 291.361164 
L 1535.715488 353.510496 
L 1537.455107 249.517871 
L 1539.194725 331.922518 
L 1540.934343 330.091137 
L 1542.673962 351.312701 
L 1544.41358 330.831413 
L 1546.153199 285.728292 
L 1547.892817 258.912413 
L 1549.632435 341.818553 
L 1551.372054 318.071939 
L 1553.111672 241.368388 
L 1554.851291 262.913886 
L 1556.590909 225.964972 
L 1556.590909 225.964972 
" style="fill:none;stroke:#ff0000;stroke-linecap:square;stroke-width:1.5;"/>
   </g>
   <g id="patch_3">
    <path d="M 225 448.56 
L 225 60.48 
" style="fill:none;stroke:#000000;stroke-linecap:square;stroke-linejoin:miter;stroke-width:0.8;"/>
   </g>
   <g id="patch_4">
    <path d="M 1620 448.56 
L 1620 60.48 
" style="fill:none;stroke:#000000;stroke-linecap:square;stroke-linejoin:miter;stroke-width:0.8;"/>
   </g>
   <g id="patch_5">
    <path d="M 225 448.56 
L 1620 448.56 
" style="fill:none;stroke:#000000;stroke-linecap:square;stroke-linejoin:miter;stroke-width:0.8;"/>
   </g>
   <g id="patch_6">
    <path d="M 225 60.48 
L 1620 60.48 
" style="fill:none;stroke:#000000;stroke-linecap:square;stroke-linejoin:miter;stroke-width:0.8;"/>
   </g>
   <g id="text_35">
    <!-- Daily earnings in USD and PLN -->
    <g transform="translate(830.819062 54.48)scale(0.12 -0.12)">
     <defs>
      <path d="M 32.171875 -5.078125 
Q 28.375 -14.84375 24.75 -17.8125 
Q 21.140625 -20.796875 15.09375 -20.796875 
L 7.90625 -20.796875 
L 7.90625 -13.28125 
L 13.1875 -13.28125 
Q 16.890625 -13.28125 18.9375 -11.515625 
Q 21 -9.765625 23.484375 -3.21875 
L 25.09375 0.875 
L 2.984375 54.6875 
L 12.5 54.6875 
L 29.59375 11.921875 
L 46.6875 54.6875 
L 56.203125 54.6875 
z
" id="DejaVuSans-121"/>
      <path d="M 8.6875 72.90625 
L 18.609375 72.90625 
L 18.609375 28.609375 
Q 18.609375 16.890625 22.84375 11.734375 
Q 27.09375 6.59375 36.625 6.59375 
Q 46.09375 6.59375 50.34375 11.734375 
Q 54.59375 16.890625 54.59375 28.609375 
L 54.59375 72.90625 
L 64.5 72.90625 
L 64.5 27.390625 
Q 64.5 13.140625 57.4375 5.859375 
Q 50.390625 -1.421875 36.625 -1.421875 
Q 22.796875 -1.421875 15.734375 5.859375 
Q 8.6875 13.140625 8.6875 27.390625 
z
" id="DejaVuSans-85"/>
      <path d="M 53.515625 70.515625 
L 53.515625 60.890625 
Q 47.90625 63.578125 42.921875 64.890625 
Q 37.9375 66.21875 33.296875 66.21875 
Q 25.25 66.21875 20.875 63.09375 
Q 16.5 59.96875 16.5 54.203125 
Q 16.5 49.359375 19.40625 46.890625 
Q 22.3125 44.4375 30.421875 42.921875 
L 36.375 41.703125 
Q 47.40625 39.59375 52.65625 34.296875 
Q 57.90625 29 57.90625 20.125 
Q 57.90625 9.515625 50.796875 4.046875 
Q 43.703125 -1.421875 29.984375 -1.421875 
Q 24.8125 -1.421875 18.96875 -0.25 
Q 13.140625 0.921875 6.890625 3.21875 
L 6.890625 13.375 
Q 12.890625 10.015625 18.65625 8.296875 
Q 24.421875 6.59375 29.984375 6.59375 
Q 38.421875 6.59375 43.015625 9.90625 
Q 47.609375 13.234375 47.609375 19.390625 
Q 47.609375 24.75 44.3125 27.78125 
Q 41.015625 30.8125 33.5 32.328125 
L 27.484375 33.5 
Q 16.453125 35.6875 11.515625 40.375 
Q 6.59375 45.0625 6.59375 53.421875 
Q 6.59375 63.09375 13.40625 68.65625 
Q 20.21875 74.21875 32.171875 74.21875 
Q 37.3125 74.21875 42.625 73.28125 
Q 47.953125 72.359375 53.515625 70.515625 
z
" id="DejaVuSans-83"/>
      <path d="M 45.40625 46.390625 
L 45.40625 75.984375 
L 54.390625 75.984375 
L 54.390625 0 
L 45.40625 0 
L 45.40625 8.203125 
Q 42.578125 3.328125 38.25 0.953125 
Q 33.9375 -1.421875 27.875 -1.421875 
Q 17.96875 -1.421875 11.734375 6.484375 
Q 5.515625 14.40625 5.515625 27.296875 
Q 5.515625 40.1875 11.734375 48.09375 
Q 17.96875 56 27.875 56 
Q 33.9375 56 38.25 53.625 
Q 42.578125 51.265625 45.40625 46.390625 
z
M 14.796875 27.296875 
Q 14.796875 17.390625 18.875 11.75 
Q 22.953125 6.109375 30.078125 6.109375 
Q 37.203125 6.109375 41.296875 11.75 
Q 45.40625 17.390625 45.40625 27.296875 
Q 45.40625 37.203125 41.296875 42.84375 
Q 37.203125 48.484375 30.078125 48.484375 
Q 22.953125 48.484375 18.875 42.84375 
Q 14.796875 37.203125 14.796875 27.296875 
z
" id="DejaVuSans-100"/>
      <path d="M 19.671875 64.796875 
L 19.671875 37.40625 
L 32.078125 37.40625 
Q 38.96875 37.40625 42.71875 40.96875 
Q 46.484375 44.53125 46.484375 51.125 
Q 46.484375 57.671875 42.71875 61.234375 
Q 38.96875 64.796875 32.078125 64.796875 
z
M 9.8125 72.90625 
L 32.078125 72.90625 
Q 44.34375 72.90625 50.609375 67.359375 
Q 56.890625 61.8125 56.890625 51.125 
Q 56.890625 40.328125 50.609375 34.8125 
Q 44.34375 29.296875 32.078125 29.296875 
L 19.671875 29.296875 
L 19.671875 0 
L 9.8125 0 
z
" id="DejaVuSans-80"/>
      <path d="M 9.8125 72.90625 
L 19.671875 72.90625 
L 19.671875 8.296875 
L 55.171875 8.296875 
L 55.171875 0 
L 9.8125 0 
z
" id="DejaVuSans-76"/>
      <path d="M 9.8125 72.90625 
L 23.09375 72.90625 
L 55.421875 11.921875 
L 55.421875 72.90625 
L 64.984375 72.90625 
L 64.984375 0 
L 51.703125 0 
L 19.390625 60.984375 
L 19.390625 0 
L 9.8125 0 
z
" id="DejaVuSans-78"/>
     </defs>
     <use xlink:href="#DejaVuSans-68"/>
     <use x="77.001953" xlink:href="#DejaVuSans-97"/>
     <use x="138.28125" xlink:href="#DejaVuSans-105"/>
     <use x="166.064453" xlink:href="#DejaVuSans-108"/>
     <use x="193.847656" xlink:href="#DejaVuSans-121"/>
     <use x="253.027344" xlink:href="#DejaVuSans-32"/>
     <use x="284.814453" xlink:href="#DejaVuSans-101"/>
     <use x="346.337891" xlink:href="#DejaVuSans-97"/>
     <use x="407.617188" xlink:href="#DejaVuSans-114"/>
     <use x="446.980469" xlink:href="#DejaVuSans-110"/>
     <use x="510.359375" xlink:href="#DejaVuSans-105"/>
     <use x="538.142578" xlink:href="#DejaVuSans-110"/>
     <use x="601.521484" xlink:href="#DejaVuSans-103"/>
     <use x="664.998047" xlink:href="#DejaVuSans-115"/>
     <use x="717.097656" xlink:href="#DejaVuSans-32"/>
     <use x="748.884766" xlink:href="#DejaVuSans-105"/>
     <use x="776.667969" xlink:href="#DejaVuSans-110"/>
     <use x="840.046875" xlink:href="#DejaVuSans-32"/>
     <use x="871.833984" xlink:href="#DejaVuSans-85"/>
     <use x="945.027344" xlink:href="#DejaVuSans-83"/>
     <use x="1008.503906" xlink:href="#DejaVuSans-68"/>
     <use x="1085.505859" xlink:href="#DejaVuSans-32"/>
     <use x="1117.292969" xlink:href="#DejaVuSans-97"/>
     <use x="1178.572266" xlink:href="#DejaVuSans-110"/>
     <use x="1241.951172" xlink:href="#DejaVuSans-100"/>
     <use x="1305.427734" xlink:href="#DejaVuSans-32"/>
     <use x="1337.214844" xlink:href="#DejaVuSans-80"/>
     <use x="1397.517578" xlink:href="#DejaVuSans-76"/>
     <use x="1453.230469" xlink:href="#DejaVuSans-78"/>
    </g>
   </g>
   <g id="legend_1">
    <g id="patch_7">
     <path d="M 1559.632812 97.83625 
L 1613 97.83625 
Q 1615 97.83625 1615 95.83625 
L 1615 67.48 
Q 1615 65.48 1613 65.48 
L 1559.632812 65.48 
Q 1557.632812 65.48 1557.632812 67.48 
L 1557.632812 95.83625 
Q 1557.632812 97.83625 1559.632812 97.83625 
z
" style="fill:#ffffff;opacity:0.8;stroke:#cccccc;stroke-linejoin:miter;"/>
    </g>
    <g id="line2d_34">
     <path d="M 1561.632812 73.578438 
L 1581.632812 73.578438 
" style="fill:none;stroke:#008000;stroke-linecap:square;stroke-width:1.5;"/>
    </g>
    <g id="line2d_35"/>
    <g id="text_36">
     <!-- USD -->
     <g transform="translate(1589.632812 77.078438)scale(0.1 -0.1)">
      <use xlink:href="#DejaVuSans-85"/>
      <use x="73.193359" xlink:href="#DejaVuSans-83"/>
      <use x="136.669922" xlink:href="#DejaVuSans-68"/>
     </g>
    </g>
    <g id="line2d_36">
     <path d="M 1561.632812 88.256563 
L 1581.632812 88.256563 
" style="fill:none;stroke:#ff0000;stroke-linecap:square;stroke-width:1.5;"/>
    </g>
    <g id="line2d_37"/>
    <g id="text_37">
     <!-- PLN -->
     <g transform="translate(1589.632812 91.756563)scale(0.1 -0.1)">
      <use xlink:href="#DejaVuSans-80"/>
      <use x="60.302734" xlink:href="#DejaVuSans-76"/>
      <use x="116.015625" xlink:href="#DejaVuSans-78"/>
     </g>
    </g>
   </g>
  </g>
 </g>
 <defs>
  <clipPath id="p5344cb960a">
   <rect height="388.08" width="1395" x="225" y="60.48"/>
  </clipPath>
 </defs>
</svg>
