<?xml version="1.0" encoding="utf-8" standalone="no"?>
<!DOCTYPE svg PUBLIC "-//W3C//DTD SVG 1.1//EN"
  "http://www.w3.org/Graphics/SVG/1.1/DTD/svg11.dtd">
<!-- Created with matplotlib (https://matplotlib.org/) -->
<svg height="720pt" version="1.1" viewBox="0 0 1440 720" width="1440pt" xmlns="http://www.w3.org/2000/svg" xmlns:xlink="http://www.w3.org/1999/xlink">
 <defs>
  <style type="text/css">
*{stroke-linecap:butt;stroke-linejoin:round;}
  </style>
 </defs>
 <g id="figure_1">
  <g id="patch_1">
   <path d="M 0 720 
L 1440 720 
L 1440 0 
L 0 0 
z
" style="fill:#ffffff;"/>
  </g>
  <g id="axes_1">
   <g id="patch_2">
    <path d="M 180 640.8 
L 1296 640.8 
L 1296 86.4 
L 180 86.4 
z
" style="fill:#ffffff;"/>
   </g>
   <g id="matplotlib.axis_1">
    <g id="xtick_1">
     <g id="line2d_1">
      <defs>
       <path d="M 0 0 
L 0 3.5 
" id="m8c829c22ff" style="stroke:#000000;stroke-width:0.8;"/>
      </defs>
      <g>
       <use style="stroke:#000000;stroke-width:0.8;" x="230.727273" xlink:href="#m8c829c22ff" y="640.8"/>
      </g>
     </g>
     <g id="text_1">
      <!-- 2013-01-01 -->
      <defs>
       <path d="M 19.1875 8.296875 
L 53.609375 8.296875 
L 53.609375 0 
L 7.328125 0 
L 7.328125 8.296875 
Q 12.9375 14.109375 22.625 23.890625 
Q 32.328125 33.6875 34.8125 36.53125 
Q 39.546875 41.84375 41.421875 45.53125 
Q 43.3125 49.21875 43.3125 52.78125 
Q 43.3125 58.59375 39.234375 62.25 
Q 35.15625 65.921875 28.609375 65.921875 
Q 23.96875 65.921875 18.8125 64.3125 
Q 13.671875 62.703125 7.8125 59.421875 
L 7.8125 69.390625 
Q 13.765625 71.78125 18.9375 73 
Q 24.125 74.21875 28.421875 74.21875 
Q 39.75 74.21875 46.484375 68.546875 
Q 53.21875 62.890625 53.21875 53.421875 
Q 53.21875 48.921875 51.53125 44.890625 
Q 49.859375 40.875 45.40625 35.40625 
Q 44.1875 33.984375 37.640625 27.21875 
Q 31.109375 20.453125 19.1875 8.296875 
z
" id="DejaVuSans-50"/>
       <path d="M 31.78125 66.40625 
Q 24.171875 66.40625 20.328125 58.90625 
Q 16.5 51.421875 16.5 36.375 
Q 16.5 21.390625 20.328125 13.890625 
Q 24.171875 6.390625 31.78125 6.390625 
Q 39.453125 6.390625 43.28125 13.890625 
Q 47.125 21.390625 47.125 36.375 
Q 47.125 51.421875 43.28125 58.90625 
Q 39.453125 66.40625 31.78125 66.40625 
z
M 31.78125 74.21875 
Q 44.046875 74.21875 50.515625 64.515625 
Q 56.984375 54.828125 56.984375 36.375 
Q 56.984375 17.96875 50.515625 8.265625 
Q 44.046875 -1.421875 31.78125 -1.421875 
Q 19.53125 -1.421875 13.0625 8.265625 
Q 6.59375 17.96875 6.59375 36.375 
Q 6.59375 54.828125 13.0625 64.515625 
Q 19.53125 74.21875 31.78125 74.21875 
z
" id="DejaVuSans-48"/>
       <path d="M 12.40625 8.296875 
L 28.515625 8.296875 
L 28.515625 63.921875 
L 10.984375 60.40625 
L 10.984375 69.390625 
L 28.421875 72.90625 
L 38.28125 72.90625 
L 38.28125 8.296875 
L 54.390625 8.296875 
L 54.390625 0 
L 12.40625 0 
z
" id="DejaVuSans-49"/>
       <path d="M 40.578125 39.3125 
Q 47.65625 37.796875 51.625 33 
Q 55.609375 28.21875 55.609375 21.1875 
Q 55.609375 10.40625 48.1875 4.484375 
Q 40.765625 -1.421875 27.09375 -1.421875 
Q 22.515625 -1.421875 17.65625 -0.515625 
Q 12.796875 0.390625 7.625 2.203125 
L 7.625 11.71875 
Q 11.71875 9.328125 16.59375 8.109375 
Q 21.484375 6.890625 26.8125 6.890625 
Q 36.078125 6.890625 40.9375 10.546875 
Q 45.796875 14.203125 45.796875 21.1875 
Q 45.796875 27.640625 41.28125 31.265625 
Q 36.765625 34.90625 28.71875 34.90625 
L 20.21875 34.90625 
L 20.21875 43.015625 
L 29.109375 43.015625 
Q 36.375 43.015625 40.234375 45.921875 
Q 44.09375 48.828125 44.09375 54.296875 
Q 44.09375 59.90625 40.109375 62.90625 
Q 36.140625 65.921875 28.71875 65.921875 
Q 24.65625 65.921875 20.015625 65.03125 
Q 15.375 64.15625 9.8125 62.3125 
L 9.8125 71.09375 
Q 15.4375 72.65625 20.34375 73.4375 
Q 25.25 74.21875 29.59375 74.21875 
Q 40.828125 74.21875 47.359375 69.109375 
Q 53.90625 64.015625 53.90625 55.328125 
Q 53.90625 49.265625 50.4375 45.09375 
Q 46.96875 40.921875 40.578125 39.3125 
z
" id="DejaVuSans-51"/>
       <path d="M 4.890625 31.390625 
L 31.203125 31.390625 
L 31.203125 23.390625 
L 4.890625 23.390625 
z
" id="DejaVuSans-45"/>
      </defs>
      <g transform="translate(214.163075 697.203333)rotate(-50)scale(0.1 -0.1)">
       <use xlink:href="#DejaVuSans-50"/>
       <use x="63.623047" xlink:href="#DejaVuSans-48"/>
       <use x="127.246094" xlink:href="#DejaVuSans-49"/>
       <use x="190.869141" xlink:href="#DejaVuSans-51"/>
       <use x="254.492188" xlink:href="#DejaVuSans-45"/>
       <use x="290.576172" xlink:href="#DejaVuSans-48"/>
       <use x="354.199219" xlink:href="#DejaVuSans-49"/>
       <use x="417.822266" xlink:href="#DejaVuSans-45"/>
       <use x="453.90625" xlink:href="#DejaVuSans-48"/>
       <use x="517.529297" xlink:href="#DejaVuSans-49"/>
      </g>
     </g>
    </g>
    <g id="xtick_2">
     <g id="line2d_2">
      <g>
       <use style="stroke:#000000;stroke-width:0.8;" x="343.557587" xlink:href="#m8c829c22ff" y="640.8"/>
      </g>
     </g>
     <g id="text_2">
      <!-- 2013-05-03 -->
      <defs>
       <path d="M 10.796875 72.90625 
L 49.515625 72.90625 
L 49.515625 64.59375 
L 19.828125 64.59375 
L 19.828125 46.734375 
Q 21.96875 47.46875 24.109375 47.828125 
Q 26.265625 48.1875 28.421875 48.1875 
Q 40.625 48.1875 47.75 41.5 
Q 54.890625 34.8125 54.890625 23.390625 
Q 54.890625 11.625 47.5625 5.09375 
Q 40.234375 -1.421875 26.90625 -1.421875 
Q 22.3125 -1.421875 17.546875 -0.640625 
Q 12.796875 0.140625 7.71875 1.703125 
L 7.71875 11.625 
Q 12.109375 9.234375 16.796875 8.0625 
Q 21.484375 6.890625 26.703125 6.890625 
Q 35.15625 6.890625 40.078125 11.328125 
Q 45.015625 15.765625 45.015625 23.390625 
Q 45.015625 31 40.078125 35.4375 
Q 35.15625 39.890625 26.703125 39.890625 
Q 22.75 39.890625 18.8125 39.015625 
Q 14.890625 38.140625 10.796875 36.28125 
z
" id="DejaVuSans-53"/>
      </defs>
      <g transform="translate(326.993389 697.203333)rotate(-50)scale(0.1 -0.1)">
       <use xlink:href="#DejaVuSans-50"/>
       <use x="63.623047" xlink:href="#DejaVuSans-48"/>
       <use x="127.246094" xlink:href="#DejaVuSans-49"/>
       <use x="190.869141" xlink:href="#DejaVuSans-51"/>
       <use x="254.492188" xlink:href="#DejaVuSans-45"/>
       <use x="290.576172" xlink:href="#DejaVuSans-48"/>
       <use x="354.199219" xlink:href="#DejaVuSans-53"/>
       <use x="417.822266" xlink:href="#DejaVuSans-45"/>
       <use x="453.90625" xlink:href="#DejaVuSans-48"/>
       <use x="517.529297" xlink:href="#DejaVuSans-51"/>
      </g>
     </g>
    </g>
    <g id="xtick_3">
     <g id="line2d_3">
      <g>
       <use style="stroke:#000000;stroke-width:0.8;" x="456.387901" xlink:href="#m8c829c22ff" y="640.8"/>
      </g>
     </g>
     <g id="text_3">
      <!-- 2013-09-01 -->
      <defs>
       <path d="M 10.984375 1.515625 
L 10.984375 10.5 
Q 14.703125 8.734375 18.5 7.8125 
Q 22.3125 6.890625 25.984375 6.890625 
Q 35.75 6.890625 40.890625 13.453125 
Q 46.046875 20.015625 46.78125 33.40625 
Q 43.953125 29.203125 39.59375 26.953125 
Q 35.25 24.703125 29.984375 24.703125 
Q 19.046875 24.703125 12.671875 31.3125 
Q 6.296875 37.9375 6.296875 49.421875 
Q 6.296875 60.640625 12.9375 67.421875 
Q 19.578125 74.21875 30.609375 74.21875 
Q 43.265625 74.21875 49.921875 64.515625 
Q 56.59375 54.828125 56.59375 36.375 
Q 56.59375 19.140625 48.40625 8.859375 
Q 40.234375 -1.421875 26.421875 -1.421875 
Q 22.703125 -1.421875 18.890625 -0.6875 
Q 15.09375 0.046875 10.984375 1.515625 
z
M 30.609375 32.421875 
Q 37.25 32.421875 41.125 36.953125 
Q 45.015625 41.5 45.015625 49.421875 
Q 45.015625 57.28125 41.125 61.84375 
Q 37.25 66.40625 30.609375 66.40625 
Q 23.96875 66.40625 20.09375 61.84375 
Q 16.21875 57.28125 16.21875 49.421875 
Q 16.21875 41.5 20.09375 36.953125 
Q 23.96875 32.421875 30.609375 32.421875 
z
" id="DejaVuSans-57"/>
      </defs>
      <g transform="translate(439.823703 697.203333)rotate(-50)scale(0.1 -0.1)">
       <use xlink:href="#DejaVuSans-50"/>
       <use x="63.623047" xlink:href="#DejaVuSans-48"/>
       <use x="127.246094" xlink:href="#DejaVuSans-49"/>
       <use x="190.869141" xlink:href="#DejaVuSans-51"/>
       <use x="254.492188" xlink:href="#DejaVuSans-45"/>
       <use x="290.576172" xlink:href="#DejaVuSans-48"/>
       <use x="354.199219" xlink:href="#DejaVuSans-57"/>
       <use x="417.822266" xlink:href="#DejaVuSans-45"/>
       <use x="453.90625" xlink:href="#DejaVuSans-48"/>
       <use x="517.529297" xlink:href="#DejaVuSans-49"/>
      </g>
     </g>
    </g>
    <g id="xtick_4">
     <g id="line2d_4">
      <g>
       <use style="stroke:#000000;stroke-width:0.8;" x="569.218215" xlink:href="#m8c829c22ff" y="640.8"/>
      </g>
     </g>
     <g id="text_4">
      <!-- 2014-01-01 -->
      <defs>
       <path d="M 37.796875 64.3125 
L 12.890625 25.390625 
L 37.796875 25.390625 
z
M 35.203125 72.90625 
L 47.609375 72.90625 
L 47.609375 25.390625 
L 58.015625 25.390625 
L 58.015625 17.1875 
L 47.609375 17.1875 
L 47.609375 0 
L 37.796875 0 
L 37.796875 17.1875 
L 4.890625 17.1875 
L 4.890625 26.703125 
z
" id="DejaVuSans-52"/>
      </defs>
      <g transform="translate(552.654017 697.203333)rotate(-50)scale(0.1 -0.1)">
       <use xlink:href="#DejaVuSans-50"/>
       <use x="63.623047" xlink:href="#DejaVuSans-48"/>
       <use x="127.246094" xlink:href="#DejaVuSans-49"/>
       <use x="190.869141" xlink:href="#DejaVuSans-52"/>
       <use x="254.492188" xlink:href="#DejaVuSans-45"/>
       <use x="290.576172" xlink:href="#DejaVuSans-48"/>
       <use x="354.199219" xlink:href="#DejaVuSans-49"/>
       <use x="417.822266" xlink:href="#DejaVuSans-45"/>
       <use x="453.90625" xlink:href="#DejaVuSans-48"/>
       <use x="517.529297" xlink:href="#DejaVuSans-49"/>
      </g>
     </g>
    </g>
    <g id="xtick_5">
     <g id="line2d_5">
      <g>
       <use style="stroke:#000000;stroke-width:0.8;" x="682.048529" xlink:href="#m8c829c22ff" y="640.8"/>
      </g>
     </g>
     <g id="text_5">
      <!-- 2014-05-03 -->
      <g transform="translate(665.484331 697.203333)rotate(-50)scale(0.1 -0.1)">
       <use xlink:href="#DejaVuSans-50"/>
       <use x="63.623047" xlink:href="#DejaVuSans-48"/>
       <use x="127.246094" xlink:href="#DejaVuSans-49"/>
       <use x="190.869141" xlink:href="#DejaVuSans-52"/>
       <use x="254.492188" xlink:href="#DejaVuSans-45"/>
       <use x="290.576172" xlink:href="#DejaVuSans-48"/>
       <use x="354.199219" xlink:href="#DejaVuSans-53"/>
       <use x="417.822266" xlink:href="#DejaVuSans-45"/>
       <use x="453.90625" xlink:href="#DejaVuSans-48"/>
       <use x="517.529297" xlink:href="#DejaVuSans-51"/>
      </g>
     </g>
    </g>
    <g id="xtick_6">
     <g id="line2d_6">
      <g>
       <use style="stroke:#000000;stroke-width:0.8;" x="794.878843" xlink:href="#m8c829c22ff" y="640.8"/>
      </g>
     </g>
     <g id="text_6">
      <!-- 2014-09-01 -->
      <g transform="translate(778.314645 697.203333)rotate(-50)scale(0.1 -0.1)">
       <use xlink:href="#DejaVuSans-50"/>
       <use x="63.623047" xlink:href="#DejaVuSans-48"/>
       <use x="127.246094" xlink:href="#DejaVuSans-49"/>
       <use x="190.869141" xlink:href="#DejaVuSans-52"/>
       <use x="254.492188" xlink:href="#DejaVuSans-45"/>
       <use x="290.576172" xlink:href="#DejaVuSans-48"/>
       <use x="354.199219" xlink:href="#DejaVuSans-57"/>
       <use x="417.822266" xlink:href="#DejaVuSans-45"/>
       <use x="453.90625" xlink:href="#DejaVuSans-48"/>
       <use x="517.529297" xlink:href="#DejaVuSans-49"/>
      </g>
     </g>
    </g>
    <g id="xtick_7">
     <g id="line2d_7">
      <g>
       <use style="stroke:#000000;stroke-width:0.8;" x="907.709157" xlink:href="#m8c829c22ff" y="640.8"/>
      </g>
     </g>
     <g id="text_7">
      <!-- 2015-01-01 -->
      <g transform="translate(891.144959 697.203333)rotate(-50)scale(0.1 -0.1)">
       <use xlink:href="#DejaVuSans-50"/>
       <use x="63.623047" xlink:href="#DejaVuSans-48"/>
       <use x="127.246094" xlink:href="#DejaVuSans-49"/>
       <use x="190.869141" xlink:href="#DejaVuSans-53"/>
       <use x="254.492188" xlink:href="#DejaVuSans-45"/>
       <use x="290.576172" xlink:href="#DejaVuSans-48"/>
       <use x="354.199219" xlink:href="#DejaVuSans-49"/>
       <use x="417.822266" xlink:href="#DejaVuSans-45"/>
       <use x="453.90625" xlink:href="#DejaVuSans-48"/>
       <use x="517.529297" xlink:href="#DejaVuSans-49"/>
      </g>
     </g>
    </g>
    <g id="xtick_8">
     <g id="line2d_8">
      <g>
       <use style="stroke:#000000;stroke-width:0.8;" x="1020.539471" xlink:href="#m8c829c22ff" y="640.8"/>
      </g>
     </g>
     <g id="text_8">
      <!-- 2015-05-03 -->
      <g transform="translate(1003.975274 697.203333)rotate(-50)scale(0.1 -0.1)">
       <use xlink:href="#DejaVuSans-50"/>
       <use x="63.623047" xlink:href="#DejaVuSans-48"/>
       <use x="127.246094" xlink:href="#DejaVuSans-49"/>
       <use x="190.869141" xlink:href="#DejaVuSans-53"/>
       <use x="254.492188" xlink:href="#DejaVuSans-45"/>
       <use x="290.576172" xlink:href="#DejaVuSans-48"/>
       <use x="354.199219" xlink:href="#DejaVuSans-53"/>
       <use x="417.822266" xlink:href="#DejaVuSans-45"/>
       <use x="453.90625" xlink:href="#DejaVuSans-48"/>
       <use x="517.529297" xlink:href="#DejaVuSans-51"/>
      </g>
     </g>
    </g>
    <g id="xtick_9">
     <g id="line2d_9">
      <g>
       <use style="stroke:#000000;stroke-width:0.8;" x="1133.369786" xlink:href="#m8c829c22ff" y="640.8"/>
      </g>
     </g>
     <g id="text_9">
      <!-- 2015-09-01 -->
      <g transform="translate(1116.805588 697.203333)rotate(-50)scale(0.1 -0.1)">
       <use xlink:href="#DejaVuSans-50"/>
       <use x="63.623047" xlink:href="#DejaVuSans-48"/>
       <use x="127.246094" xlink:href="#DejaVuSans-49"/>
       <use x="190.869141" xlink:href="#DejaVuSans-53"/>
       <use x="254.492188" xlink:href="#DejaVuSans-45"/>
       <use x="290.576172" xlink:href="#DejaVuSans-48"/>
       <use x="354.199219" xlink:href="#DejaVuSans-57"/>
       <use x="417.822266" xlink:href="#DejaVuSans-45"/>
       <use x="453.90625" xlink:href="#DejaVuSans-48"/>
       <use x="517.529297" xlink:href="#DejaVuSans-49"/>
      </g>
     </g>
    </g>
    <g id="text_10">
     <!-- Date -->
     <defs>
      <path d="M 19.671875 64.796875 
L 19.671875 8.109375 
L 31.59375 8.109375 
Q 46.6875 8.109375 53.6875 14.9375 
Q 60.6875 21.78125 60.6875 36.53125 
Q 60.6875 51.171875 53.6875 57.984375 
Q 46.6875 64.796875 31.59375 64.796875 
z
M 9.8125 72.90625 
L 30.078125 72.90625 
Q 51.265625 72.90625 61.171875 64.09375 
Q 71.09375 55.28125 71.09375 36.53125 
Q 71.09375 17.671875 61.125 8.828125 
Q 51.171875 0 30.078125 0 
L 9.8125 0 
z
" id="DejaVuSans-68"/>
      <path d="M 34.28125 27.484375 
Q 23.390625 27.484375 19.1875 25 
Q 14.984375 22.515625 14.984375 16.5 
Q 14.984375 11.71875 18.140625 8.90625 
Q 21.296875 6.109375 26.703125 6.109375 
Q 34.1875 6.109375 38.703125 11.40625 
Q 43.21875 16.703125 43.21875 25.484375 
L 43.21875 27.484375 
z
M 52.203125 31.203125 
L 52.203125 0 
L 43.21875 0 
L 43.21875 8.296875 
Q 40.140625 3.328125 35.546875 0.953125 
Q 30.953125 -1.421875 24.3125 -1.421875 
Q 15.921875 -1.421875 10.953125 3.296875 
Q 6 8.015625 6 15.921875 
Q 6 25.140625 12.171875 29.828125 
Q 18.359375 34.515625 30.609375 34.515625 
L 43.21875 34.515625 
L 43.21875 35.40625 
Q 43.21875 41.609375 39.140625 45 
Q 35.0625 48.390625 27.6875 48.390625 
Q 23 48.390625 18.546875 47.265625 
Q 14.109375 46.140625 10.015625 43.890625 
L 10.015625 52.203125 
Q 14.9375 54.109375 19.578125 55.046875 
Q 24.21875 56 28.609375 56 
Q 40.484375 56 46.34375 49.84375 
Q 52.203125 43.703125 52.203125 31.203125 
z
" id="DejaVuSans-97"/>
      <path d="M 18.3125 70.21875 
L 18.3125 54.6875 
L 36.8125 54.6875 
L 36.8125 47.703125 
L 18.3125 47.703125 
L 18.3125 18.015625 
Q 18.3125 11.328125 20.140625 9.421875 
Q 21.96875 7.515625 27.59375 7.515625 
L 36.8125 7.515625 
L 36.8125 0 
L 27.59375 0 
Q 17.1875 0 13.234375 3.875 
Q 9.28125 7.765625 9.28125 18.015625 
L 9.28125 47.703125 
L 2.6875 47.703125 
L 2.6875 54.6875 
L 9.28125 54.6875 
L 9.28125 70.21875 
z
" id="DejaVuSans-116"/>
      <path d="M 56.203125 29.59375 
L 56.203125 25.203125 
L 14.890625 25.203125 
Q 15.484375 15.921875 20.484375 11.0625 
Q 25.484375 6.203125 34.421875 6.203125 
Q 39.59375 6.203125 44.453125 7.46875 
Q 49.3125 8.734375 54.109375 11.28125 
L 54.109375 2.78125 
Q 49.265625 0.734375 44.1875 -0.34375 
Q 39.109375 -1.421875 33.890625 -1.421875 
Q 20.796875 -1.421875 13.15625 6.1875 
Q 5.515625 13.8125 5.515625 26.8125 
Q 5.515625 40.234375 12.765625 48.109375 
Q 20.015625 56 32.328125 56 
Q 43.359375 56 49.78125 48.890625 
Q 56.203125 41.796875 56.203125 29.59375 
z
M 47.21875 32.234375 
Q 47.125 39.59375 43.09375 43.984375 
Q 39.0625 48.390625 32.421875 48.390625 
Q 24.90625 48.390625 20.390625 44.140625 
Q 15.875 39.890625 15.1875 32.171875 
z
" id="DejaVuSans-101"/>
     </defs>
     <g transform="translate(726.049219 710.138568)scale(0.1 -0.1)">
      <use xlink:href="#DejaVuSans-68"/>
      <use x="77.001953" xlink:href="#DejaVuSans-97"/>
      <use x="138.28125" xlink:href="#DejaVuSans-116"/>
      <use x="177.490234" xlink:href="#DejaVuSans-101"/>
     </g>
    </g>
   </g>
   <g id="matplotlib.axis_2">
    <g id="ytick_1">
     <g id="line2d_10">
      <defs>
       <path d="M 0 0 
L -3.5 0 
" id="mff974eca0c" style="stroke:#000000;stroke-width:0.8;"/>
      </defs>
      <g>
       <use style="stroke:#000000;stroke-width:0.8;" x="180" xlink:href="#mff974eca0c" y="623.618526"/>
      </g>
     </g>
     <g id="text_11">
      <!-- 0 -->
      <g transform="translate(166.6375 627.417745)scale(0.1 -0.1)">
       <use xlink:href="#DejaVuSans-48"/>
      </g>
     </g>
    </g>
    <g id="ytick_2">
     <g id="line2d_11">
      <g>
       <use style="stroke:#000000;stroke-width:0.8;" x="180" xlink:href="#mff974eca0c" y="535.523899"/>
      </g>
     </g>
     <g id="text_12">
      <!-- 500000 -->
      <g transform="translate(134.825 539.323117)scale(0.1 -0.1)">
       <use xlink:href="#DejaVuSans-53"/>
       <use x="63.623047" xlink:href="#DejaVuSans-48"/>
       <use x="127.246094" xlink:href="#DejaVuSans-48"/>
       <use x="190.869141" xlink:href="#DejaVuSans-48"/>
       <use x="254.492188" xlink:href="#DejaVuSans-48"/>
       <use x="318.115234" xlink:href="#DejaVuSans-48"/>
      </g>
     </g>
    </g>
    <g id="ytick_3">
     <g id="line2d_12">
      <g>
       <use style="stroke:#000000;stroke-width:0.8;" x="180" xlink:href="#mff974eca0c" y="447.429271"/>
      </g>
     </g>
     <g id="text_13">
      <!-- 1000000 -->
      <g transform="translate(128.4625 451.22849)scale(0.1 -0.1)">
       <use xlink:href="#DejaVuSans-49"/>
       <use x="63.623047" xlink:href="#DejaVuSans-48"/>
       <use x="127.246094" xlink:href="#DejaVuSans-48"/>
       <use x="190.869141" xlink:href="#DejaVuSans-48"/>
       <use x="254.492188" xlink:href="#DejaVuSans-48"/>
       <use x="318.115234" xlink:href="#DejaVuSans-48"/>
       <use x="381.738281" xlink:href="#DejaVuSans-48"/>
      </g>
     </g>
    </g>
    <g id="ytick_4">
     <g id="line2d_13">
      <g>
       <use style="stroke:#000000;stroke-width:0.8;" x="180" xlink:href="#mff974eca0c" y="359.334643"/>
      </g>
     </g>
     <g id="text_14">
      <!-- 1500000 -->
      <g transform="translate(128.4625 363.133862)scale(0.1 -0.1)">
       <use xlink:href="#DejaVuSans-49"/>
       <use x="63.623047" xlink:href="#DejaVuSans-53"/>
       <use x="127.246094" xlink:href="#DejaVuSans-48"/>
       <use x="190.869141" xlink:href="#DejaVuSans-48"/>
       <use x="254.492188" xlink:href="#DejaVuSans-48"/>
       <use x="318.115234" xlink:href="#DejaVuSans-48"/>
       <use x="381.738281" xlink:href="#DejaVuSans-48"/>
      </g>
     </g>
    </g>
    <g id="ytick_5">
     <g id="line2d_14">
      <g>
       <use style="stroke:#000000;stroke-width:0.8;" x="180" xlink:href="#mff974eca0c" y="271.240015"/>
      </g>
     </g>
     <g id="text_15">
      <!-- 2000000 -->
      <g transform="translate(128.4625 275.039234)scale(0.1 -0.1)">
       <use xlink:href="#DejaVuSans-50"/>
       <use x="63.623047" xlink:href="#DejaVuSans-48"/>
       <use x="127.246094" xlink:href="#DejaVuSans-48"/>
       <use x="190.869141" xlink:href="#DejaVuSans-48"/>
       <use x="254.492188" xlink:href="#DejaVuSans-48"/>
       <use x="318.115234" xlink:href="#DejaVuSans-48"/>
       <use x="381.738281" xlink:href="#DejaVuSans-48"/>
      </g>
     </g>
    </g>
    <g id="ytick_6">
     <g id="line2d_15">
      <g>
       <use style="stroke:#000000;stroke-width:0.8;" x="180" xlink:href="#mff974eca0c" y="183.145388"/>
      </g>
     </g>
     <g id="text_16">
      <!-- 2500000 -->
      <g transform="translate(128.4625 186.944606)scale(0.1 -0.1)">
       <use xlink:href="#DejaVuSans-50"/>
       <use x="63.623047" xlink:href="#DejaVuSans-53"/>
       <use x="127.246094" xlink:href="#DejaVuSans-48"/>
       <use x="190.869141" xlink:href="#DejaVuSans-48"/>
       <use x="254.492188" xlink:href="#DejaVuSans-48"/>
       <use x="318.115234" xlink:href="#DejaVuSans-48"/>
       <use x="381.738281" xlink:href="#DejaVuSans-48"/>
      </g>
     </g>
    </g>
    <g id="ytick_7">
     <g id="line2d_16">
      <g>
       <use style="stroke:#000000;stroke-width:0.8;" x="180" xlink:href="#mff974eca0c" y="95.05076"/>
      </g>
     </g>
     <g id="text_17">
      <!-- 3000000 -->
      <g transform="translate(128.4625 98.849979)scale(0.1 -0.1)">
       <use xlink:href="#DejaVuSans-51"/>
       <use x="63.623047" xlink:href="#DejaVuSans-48"/>
       <use x="127.246094" xlink:href="#DejaVuSans-48"/>
       <use x="190.869141" xlink:href="#DejaVuSans-48"/>
       <use x="254.492188" xlink:href="#DejaVuSans-48"/>
       <use x="318.115234" xlink:href="#DejaVuSans-48"/>
       <use x="381.738281" xlink:href="#DejaVuSans-48"/>
      </g>
     </g>
    </g>
    <g id="text_18">
     <!-- Price -->
     <defs>
      <path d="M 19.671875 64.796875 
L 19.671875 37.40625 
L 32.078125 37.40625 
Q 38.96875 37.40625 42.71875 40.96875 
Q 46.484375 44.53125 46.484375 51.125 
Q 46.484375 57.671875 42.71875 61.234375 
Q 38.96875 64.796875 32.078125 64.796875 
z
M 9.8125 72.90625 
L 32.078125 72.90625 
Q 44.34375 72.90625 50.609375 67.359375 
Q 56.890625 61.8125 56.890625 51.125 
Q 56.890625 40.328125 50.609375 34.8125 
Q 44.34375 29.296875 32.078125 29.296875 
L 19.671875 29.296875 
L 19.671875 0 
L 9.8125 0 
z
" id="DejaVuSans-80"/>
      <path d="M 41.109375 46.296875 
Q 39.59375 47.171875 37.8125 47.578125 
Q 36.03125 48 33.890625 48 
Q 26.265625 48 22.1875 43.046875 
Q 18.109375 38.09375 18.109375 28.8125 
L 18.109375 0 
L 9.078125 0 
L 9.078125 54.6875 
L 18.109375 54.6875 
L 18.109375 46.1875 
Q 20.953125 51.171875 25.484375 53.578125 
Q 30.03125 56 36.53125 56 
Q 37.453125 56 38.578125 55.875 
Q 39.703125 55.765625 41.0625 55.515625 
z
" id="DejaVuSans-114"/>
      <path d="M 9.421875 54.6875 
L 18.40625 54.6875 
L 18.40625 0 
L 9.421875 0 
z
M 9.421875 75.984375 
L 18.40625 75.984375 
L 18.40625 64.59375 
L 9.421875 64.59375 
z
" id="DejaVuSans-105"/>
      <path d="M 48.78125 52.59375 
L 48.78125 44.1875 
Q 44.96875 46.296875 41.140625 47.34375 
Q 37.3125 48.390625 33.40625 48.390625 
Q 24.65625 48.390625 19.8125 42.84375 
Q 14.984375 37.3125 14.984375 27.296875 
Q 14.984375 17.28125 19.8125 11.734375 
Q 24.65625 6.203125 33.40625 6.203125 
Q 37.3125 6.203125 41.140625 7.25 
Q 44.96875 8.296875 48.78125 10.40625 
L 48.78125 2.09375 
Q 45.015625 0.34375 40.984375 -0.53125 
Q 36.96875 -1.421875 32.421875 -1.421875 
Q 20.0625 -1.421875 12.78125 6.34375 
Q 5.515625 14.109375 5.515625 27.296875 
Q 5.515625 40.671875 12.859375 48.328125 
Q 20.21875 56 33.015625 56 
Q 37.15625 56 41.109375 55.140625 
Q 45.0625 54.296875 48.78125 52.59375 
z
" id="DejaVuSans-99"/>
     </defs>
     <g transform="translate(122.382812 375.884375)rotate(-90)scale(0.1 -0.1)">
      <use xlink:href="#DejaVuSans-80"/>
      <use x="60.287109" xlink:href="#DejaVuSans-114"/>
      <use x="101.400391" xlink:href="#DejaVuSans-105"/>
      <use x="129.183594" xlink:href="#DejaVuSans-99"/>
      <use x="184.164062" xlink:href="#DejaVuSans-101"/>
     </g>
    </g>
   </g>
   <g id="line2d_17">
    <path clip-path="url(#pf8d98eb337)" d="M 230.727273 546.921286 
L 231.654645 540.801924 
L 232.582018 581.278315 
L 233.50939 535.35695 
L 234.436763 570.263696 
L 235.364135 534.730229 
L 236.291507 533.269231 
L 237.21888 595.182504 
L 238.146252 585.880456 
L 239.073625 558.614746 
L 240.000997 584.635815 
L 240.92837 592.544272 
L 241.855742 575.630805 
L 242.783115 563.663048 
L 243.710487 579.932675 
L 244.637859 560.627751 
L 245.565232 560.735415 
L 246.492604 575.966035 
L 247.419977 558.596354 
L 248.347349 573.175951 
L 249.274722 572.334165 
L 250.202094 560.486914 
L 251.129467 560.400467 
L 252.056839 583.982447 
L 252.984211 595.598938 
L 253.911584 573.268803 
L 254.838956 559.318472 
L 255.766329 526.86787 
L 257.621074 573.692462 
L 258.548446 567.558196 
L 259.475819 587.482408 
L 260.403191 567.112854 
L 261.330563 521.878964 
L 262.257936 545.623794 
L 263.185308 559.670351 
L 264.112681 555.635828 
L 265.040053 486.201611 
L 265.967426 594.439066 
L 266.894798 535.280086 
L 267.822171 586.592553 
L 268.749543 555.312642 
L 269.676915 565.269487 
L 270.604288 582.772254 
L 271.53166 540.381775 
L 272.459033 566.137858 
L 273.386405 579.161713 
L 274.313778 523.699413 
L 275.24115 563.36006 
L 276.168523 544.410715 
L 277.095895 575.334211 
L 278.023267 542.010264 
L 278.95064 562.01139 
L 279.878012 584.602513 
L 280.805385 570.904768 
L 281.732757 568.05904 
L 282.66013 544.412706 
L 283.587502 556.368745 
L 284.514875 555.607655 
L 285.442247 509.313983 
L 286.369619 584.614318 
L 287.296992 546.605898 
L 288.224364 560.600642 
L 289.151737 604.769352 
L 290.079109 572.593681 
L 291.006482 571.989861 
L 291.933854 532.805112 
L 292.861227 552.460963 
L 293.788599 582.687283 
L 294.715971 595.41381 
L 295.643344 561.889243 
L 296.570716 583.348067 
L 297.498089 563.587147 
L 298.425461 570.133221 
L 299.352834 550.46661 
L 300.280206 563.33501 
L 301.207579 580.347257 
L 302.134951 577.144878 
L 303.062323 557.343794 
L 303.989696 528.066856 
L 304.917068 566.834722 
L 305.844441 591.617222 
L 306.771813 565.643413 
L 308.626558 550.908371 
L 309.553931 573.80014 
L 310.481303 577.556208 
L 311.408675 552.921564 
L 312.336048 579.310731 
L 313.26342 545.45071 
L 314.190793 564.845544 
L 315.118165 590.813822 
L 316.045538 582.639821 
L 316.97291 585.001337 
L 317.900283 595.592597 
L 318.827655 552.400357 
L 319.755027 599.957282 
L 320.6824 540.251645 
L 321.609772 587.849197 
L 322.537145 570.110332 
L 324.39189 589.626962 
L 325.319262 564.883105 
L 326.246635 590.068866 
L 327.174007 537.990888 
L 328.101379 577.616123 
L 329.028752 567.083575 
L 329.956124 607.940801 
L 330.883497 556.307842 
L 331.810869 570.104995 
L 332.738242 517.542317 
L 333.665614 559.037262 
L 334.592987 571.313187 
L 335.520359 533.460987 
L 336.447731 547.206247 
L 337.375104 545.370735 
L 338.302476 562.513495 
L 339.229849 559.415895 
L 340.157221 527.337705 
L 341.084594 539.837489 
L 342.011966 597.085129 
L 342.939339 582.43281 
L 343.866711 570.325535 
L 344.794083 585.176201 
L 345.721456 526.467803 
L 346.648828 581.134378 
L 347.576201 510.898938 
L 348.503573 578.940339 
L 349.430946 566.573699 
L 350.358318 549.001142 
L 351.285691 566.154964 
L 352.213063 551.911573 
L 353.140435 565.254269 
L 354.067808 526.808875 
L 354.99518 531.490879 
L 355.922553 552.811259 
L 356.849925 561.660433 
L 357.777298 557.525148 
L 358.70467 568.758085 
L 359.632043 582.556391 
L 360.559415 555.485836 
L 361.486787 533.114266 
L 362.41416 584.667478 
L 363.341532 550.224994 
L 364.268905 482.242913 
L 365.196277 568.772487 
L 366.12365 519.260348 
L 367.051022 521.126712 
L 367.978395 570.52801 
L 368.905767 560.177226 
L 369.833139 541.57779 
L 370.760512 556.373384 
L 371.687884 590.019378 
L 372.615257 541.07047 
L 373.542629 552.697583 
L 374.470002 526.39455 
L 375.397374 512.589664 
L 376.324747 579.946127 
L 377.252119 553.167144 
L 378.179491 549.55177 
L 379.106864 572.13897 
L 380.034236 559.068104 
L 380.961609 525.711399 
L 381.888981 554.297147 
L 382.816354 561.836212 
L 383.743726 578.669388 
L 384.671099 565.520983 
L 385.598471 562.154871 
L 386.525843 598.688758 
L 387.453216 553.52771 
L 388.380588 543.063883 
L 389.307961 604.625221 
L 390.235333 575.201821 
L 391.162706 559.780793 
L 392.090078 557.064237 
L 393.017451 556.692962 
L 393.944823 530.900375 
L 394.872195 562.238737 
L 395.799568 573.928549 
L 396.72694 558.159455 
L 397.654313 593.110296 
L 398.581685 504.952096 
L 399.509058 538.380007 
L 400.43643 554.489046 
L 401.363803 564.474699 
L 402.291175 549.169002 
L 403.218547 589.625237 
L 404.14592 546.08421 
L 405.073292 561.934323 
L 406.000665 539.030329 
L 406.928037 572.889702 
L 407.85541 559.823073 
L 408.782782 529.440089 
L 409.710155 565.505638 
L 410.637527 564.871986 
L 411.564899 559.81567 
L 412.492272 556.355475 
L 413.419644 576.511732 
L 414.347017 575.900827 
L 415.274389 550.180848 
L 416.201762 577.525285 
L 417.129134 569.970459 
L 418.056507 576.458785 
L 418.983879 567.382931 
L 419.911251 543.813718 
L 420.838624 568.816774 
L 421.765996 557.567412 
L 422.693369 582.628001 
L 423.620741 538.401566 
L 424.548114 585.98405 
L 425.475486 559.073754 
L 426.402859 561.16415 
L 427.330231 547.506385 
L 428.257603 578.607977 
L 429.184976 574.826679 
L 430.112348 552.663845 
L 431.039721 569.537973 
L 431.967093 559.13568 
L 432.894466 554.298418 
L 433.821838 555.193026 
L 434.749211 498.82987 
L 435.676583 572.702046 
L 436.603955 593.620648 
L 437.531328 554.976049 
L 438.4587 575.294326 
L 439.386073 550.670353 
L 440.313445 581.398672 
L 441.240818 574.577635 
L 442.16819 589.550443 
L 443.095563 583.642768 
L 444.022935 572.979343 
L 444.950307 582.130922 
L 445.87768 576.139511 
L 446.805052 584.050572 
L 447.732425 575.911813 
L 448.659797 592.998051 
L 449.58717 540.754378 
L 450.514542 556.528477 
L 451.441915 551.140167 
L 452.369287 569.239749 
L 453.296659 560.401303 
L 454.224032 583.887944 
L 455.151404 520.492633 
L 456.078777 519.878042 
L 457.006149 551.033876 
L 457.933522 588.209638 
L 458.860894 568.525263 
L 459.788267 566.356712 
L 460.715639 567.186575 
L 461.643011 570.097275 
L 462.570384 589.101717 
L 463.497756 581.715977 
L 464.425129 547.395612 
L 465.352501 563.937996 
L 466.279874 552.310041 
L 467.207246 587.292842 
L 468.134619 561.832742 
L 469.061991 567.915671 
L 469.989363 577.606094 
L 470.916736 570.835793 
L 471.844108 574.537704 
L 473.698853 584.237832 
L 475.553598 546.959913 
L 476.480971 545.439497 
L 477.408343 559.549286 
L 478.335715 580.281484 
L 479.263088 579.668388 
L 480.19046 566.370442 
L 481.117833 576.230983 
L 482.045205 584.110364 
L 482.972578 579.515316 
L 483.89995 567.686447 
L 484.827323 584.964563 
L 485.754695 560.661082 
L 486.682067 600.901841 
L 487.60944 587.548646 
L 488.536812 528.976503 
L 489.464185 571.338172 
L 491.31893 559.822303 
L 492.246302 567.297265 
L 493.173675 550.071084 
L 494.101047 584.433447 
L 495.028419 582.313063 
L 495.955792 552.861769 
L 496.883164 589.887699 
L 497.810537 545.725753 
L 498.737909 572.062046 
L 499.665282 583.357775 
L 500.592654 572.853271 
L 501.520027 569.849419 
L 502.447399 545.433563 
L 503.374771 567.911829 
L 504.302144 552.806734 
L 505.229516 551.065542 
L 506.156889 580.066672 
L 507.084261 546.926922 
L 508.011634 538.540912 
L 508.939006 575.712204 
L 509.866379 573.284568 
L 510.793751 583.62744 
L 511.721123 572.549831 
L 512.648496 583.839306 
L 513.575868 582.910517 
L 514.503241 514.267565 
L 515.430613 559.602803 
L 516.357986 538.614568 
L 517.285358 547.729015 
L 518.212731 555.047263 
L 519.140103 590.767645 
L 520.067475 543.235595 
L 520.994848 560.912991 
L 521.92222 553.858262 
L 522.849593 592.518933 
L 523.776965 517.175276 
L 524.704338 568.741921 
L 525.63171 528.331263 
L 526.559083 555.621095 
L 527.486455 546.955073 
L 528.413827 589.041866 
L 529.3412 574.454076 
L 530.268572 589.070204 
L 531.195945 574.75103 
L 532.123317 537.792971 
L 533.05069 554.332415 
L 533.978062 530.888137 
L 534.905435 569.005513 
L 535.832807 569.855163 
L 536.760179 529.077384 
L 537.687552 560.403402 
L 538.614924 605.689476 
L 539.542297 585.528643 
L 540.469669 520.006551 
L 541.397042 572.795971 
L 542.324414 547.47431 
L 543.251787 582.597913 
L 544.179159 557.507513 
L 545.106531 579.939693 
L 546.033904 572.441184 
L 546.961276 548.27651 
L 547.888649 556.534381 
L 548.816021 582.205437 
L 549.743394 577.732574 
L 550.670766 557.335448 
L 551.598139 543.076818 
L 552.525511 571.30143 
L 553.452883 539.320083 
L 554.380256 555.021003 
L 555.307628 576.482789 
L 556.235001 563.880869 
L 557.162373 591.310658 
L 558.089746 588.033228 
L 559.017118 574.547162 
L 559.944491 558.768612 
L 560.871863 509.200769 
L 561.799235 602.932255 
L 562.726608 539.904807 
L 563.65398 565.112308 
L 564.581353 578.544369 
L 565.508725 586.60634 
L 566.436098 553.732773 
L 567.36347 528.081767 
L 568.290843 547.167115 
L 569.218215 529.208183 
L 570.145588 592.098716 
L 571.07296 587.417598 
L 572.000332 540.120248 
L 572.927705 568.001699 
L 573.855077 552.634367 
L 574.78245 562.072369 
L 575.709822 552.055657 
L 576.637195 548.245335 
L 577.564567 512.681939 
L 578.49194 533.353028 
L 579.419312 550.143893 
L 580.346684 574.376878 
L 581.274057 588.647385 
L 582.201429 582.065714 
L 583.128802 542.073426 
L 584.056174 532.717452 
L 584.983547 562.603123 
L 585.910919 560.801704 
L 586.838292 564.390732 
L 587.765664 557.167135 
L 588.693036 568.746552 
L 589.620409 538.96041 
L 590.547781 595.0869 
L 591.475154 518.643053 
L 592.402526 592.000609 
L 593.329899 555.264294 
L 594.257271 563.089365 
L 595.184644 533.572247 
L 596.112016 567.133831 
L 597.039388 582.699465 
L 597.966761 546.808982 
L 598.894133 582.126321 
L 599.821506 557.423714 
L 600.748878 556.241084 
L 601.676251 514.344516 
L 602.603623 591.681817 
L 603.530996 564.525364 
L 604.458368 545.122247 
L 605.38574 569.837128 
L 606.313113 555.386369 
L 607.240485 555.823096 
L 608.167858 527.543944 
L 609.09523 548.766158 
L 610.022603 529.104598 
L 610.949975 538.854416 
L 611.877348 540.346415 
L 612.80472 556.037443 
L 613.732092 552.745139 
L 614.659465 559.313567 
L 616.51421 576.993458 
L 617.441582 602.373016 
L 619.296327 533.05487 
L 620.2237 591.339767 
L 621.151072 554.027243 
L 622.078444 580.279187 
L 623.005817 565.710148 
L 623.933189 580.586098 
L 624.860562 567.454748 
L 625.787934 550.489572 
L 626.715307 586.407703 
L 627.642679 571.510369 
L 628.570052 551.04099 
L 629.497424 587.108228 
L 630.424796 594.244231 
L 631.352169 562.575844 
L 632.279541 578.778632 
L 633.206914 577.004669 
L 634.134286 560.052442 
L 635.061659 548.934017 
L 635.989031 544.397196 
L 636.916404 543.281112 
L 637.843776 514.410693 
L 638.771148 557.811256 
L 639.698521 582.679603 
L 640.625893 579.225152 
L 641.553266 555.296451 
L 642.480638 585.74311 
L 643.408011 565.162806 
L 644.335383 561.300883 
L 645.262756 556.773789 
L 646.190128 570.141895 
L 647.1175 521.014953 
L 648.044873 529.82443 
L 648.972245 578.660316 
L 649.899618 526.83777 
L 650.82699 561.234016 
L 651.754363 585.002556 
L 652.681735 576.602207 
L 654.53648 541.847121 
L 655.463852 594.302645 
L 656.391225 553.29116 
L 657.318597 581.930683 
L 658.24597 571.127755 
L 660.100715 538.042147 
L 661.028087 560.38638 
L 661.95546 530.38792 
L 662.882832 535.400043 
L 663.810204 579.860239 
L 664.737577 559.929791 
L 665.664949 574.37978 
L 666.592322 552.682361 
L 667.519694 574.192125 
L 668.447067 562.113012 
L 669.374439 502.293629 
L 670.301812 535.050866 
L 671.229184 534.881044 
L 672.156556 562.001599 
L 673.083929 571.859527 
L 674.011301 551.877502 
L 674.938674 558.695464 
L 675.866046 578.611929 
L 676.793419 553.425425 
L 677.720791 576.184177 
L 678.648164 573.613604 
L 679.575536 558.297065 
L 680.502908 594.464985 
L 681.430281 573.799147 
L 682.357653 546.692273 
L 683.285026 569.50511 
L 684.212398 537.633594 
L 685.139771 539.777072 
L 686.067143 576.177171 
L 686.994516 558.947961 
L 687.921888 525.860482 
L 688.84926 561.27824 
L 689.776633 561.051951 
L 690.704005 571.715506 
L 691.631378 547.056803 
L 692.55875 555.83371 
L 693.486123 548.847848 
L 694.413495 560.082253 
L 695.340868 536.753959 
L 696.26824 578.492483 
L 697.195612 533.664831 
L 698.122985 578.251435 
L 699.050357 549.009858 
L 699.97773 582.896843 
L 700.905102 571.223478 
L 701.832475 538.684087 
L 703.68722 581.952817 
L 704.614592 566.826087 
L 705.541964 518.072984 
L 706.469337 546.912226 
L 707.396709 544.441101 
L 708.324082 570.159337 
L 709.251454 548.355262 
L 710.178827 532.202816 
L 711.106199 585.923804 
L 712.033572 548.983435 
L 712.960944 593.444402 
L 713.888316 560.802432 
L 714.815689 582.043375 
L 715.743061 547.794418 
L 716.670434 580.581261 
L 717.597806 529.324392 
L 718.525179 572.816182 
L 719.452551 582.826256 
L 720.379924 559.942189 
L 721.307296 551.832815 
L 722.234668 572.505759 
L 723.162041 549.63679 
L 724.089413 545.007884 
L 725.016786 566.975855 
L 725.944158 570.993313 
L 726.871531 582.862514 
L 727.798903 542.41534 
L 728.726276 587.496965 
L 729.653648 554.073435 
L 730.58102 591.16723 
L 731.508393 594.054161 
L 732.435765 531.226648 
L 733.363138 561.743136 
L 734.29051 538.626251 
L 735.217883 567.997018 
L 736.145255 588.452282 
L 737.072628 552.949118 
L 738 555.951979 
L 738.927372 591.259703 
L 739.854745 547.664811 
L 740.782117 554.332477 
L 741.70949 571.103819 
L 742.636862 595.011449 
L 743.564235 560.954636 
L 744.491607 583.562977 
L 745.41898 570.439184 
L 746.346352 559.621462 
L 747.273724 597.036087 
L 749.128469 575.385981 
L 750.055842 585.146813 
L 750.983214 582.695383 
L 751.910587 573.751732 
L 752.837959 530.785313 
L 753.765332 550.917214 
L 754.692704 560.515097 
L 755.620076 562.703223 
L 756.547449 551.154883 
L 757.474821 512.089381 
L 758.402194 564.665843 
L 759.329566 575.724087 
L 760.256939 598.001507 
L 761.184311 533.857983 
L 762.111684 584.920667 
L 763.039056 543.58723 
L 763.966428 593.842657 
L 764.893801 556.466994 
L 765.821173 563.436385 
L 766.748546 586.23271 
L 767.675918 554.520844 
L 768.603291 555.578375 
L 770.458036 577.391794 
L 771.385408 565.448895 
L 772.31278 584.678861 
L 773.240153 553.985331 
L 774.167525 565.612294 
L 775.094898 540.12916 
L 776.02227 538.719214 
L 776.949643 576.103031 
L 778.804388 551.445464 
L 779.73176 584.94668 
L 780.659132 565.01441 
L 781.586505 589.796122 
L 782.513877 565.706665 
L 783.44125 526.574938 
L 784.368622 556.516637 
L 785.295995 548.385418 
L 786.223367 564.345562 
L 787.15074 557.080395 
L 788.078112 538.035813 
L 789.005484 538.074094 
L 789.932857 563.004871 
L 790.860229 558.067081 
L 791.787602 550.043245 
L 792.714974 532.008213 
L 793.642347 606.56869 
L 794.569719 567.594182 
L 795.497092 544.853206 
L 796.424464 551.204381 
L 797.351836 570.213783 
L 798.279209 555.271541 
L 799.206581 581.500235 
L 800.133954 551.039403 
L 801.061326 566.26325 
L 801.988699 573.517247 
L 802.916071 548.798134 
L 803.843444 548.948147 
L 804.770816 544.904794 
L 805.698188 578.37777 
L 806.625561 554.925289 
L 807.552933 538.48361 
L 808.480306 518.132643 
L 809.407678 515.263075 
L 810.335051 552.7559 
L 811.262423 542.523984 
L 812.189796 553.835183 
L 813.117168 566.853315 
L 814.04454 551.690655 
L 814.971913 547.267355 
L 815.899285 558.938291 
L 816.826658 554.989478 
L 817.75403 566.327322 
L 818.681403 543.963644 
L 820.536148 588.763138 
L 821.46352 542.63675 
L 822.390892 503.161394 
L 823.318265 579.772581 
L 824.245637 548.345471 
L 825.17301 558.807703 
L 826.100382 578.7576 
L 827.027755 546.872967 
L 827.955127 552.613208 
L 828.8825 527.594008 
L 829.809872 561.27436 
L 830.737244 554.110674 
L 831.664617 584.826268 
L 832.591989 557.196613 
L 834.446734 564.805855 
L 835.374107 553.850742 
L 836.301479 537.073208 
L 837.228852 546.092805 
L 838.156224 570.05433 
L 839.083596 562.211831 
L 840.010969 578.25326 
L 840.938341 562.139352 
L 841.865714 553.329141 
L 842.793086 578.416687 
L 843.720459 584.319515 
L 844.647831 555.713503 
L 845.575204 594.228511 
L 846.502576 554.826265 
L 847.429948 557.412195 
L 848.357321 533.911321 
L 849.284693 581.642529 
L 850.212066 530.948841 
L 851.139438 518.38566 
L 852.066811 578.654723 
L 852.994183 536.073408 
L 853.921556 577.785156 
L 854.848928 544.985781 
L 855.7763 552.392279 
L 856.703673 588.417717 
L 857.631045 576.880343 
L 858.558418 575.806925 
L 859.48579 565.060135 
L 860.413163 525.663969 
L 861.340535 519.875211 
L 862.267908 563.330307 
L 863.19528 594.347603 
L 864.122652 600.193758 
L 865.050025 559.214082 
L 865.977397 587.482401 
L 866.90477 568.813859 
L 867.832142 595.179505 
L 868.759515 582.449267 
L 869.686887 535.348647 
L 870.61426 567.927124 
L 871.541632 578.635965 
L 872.469004 597.179454 
L 873.396377 562.512889 
L 874.323749 538.781326 
L 875.251122 611.270641 
L 876.178494 562.058254 
L 877.105867 592.472426 
L 878.033239 555.487385 
L 878.960612 559.078665 
L 879.887984 567.56392 
L 880.815356 544.540148 
L 881.742729 567.816817 
L 882.670101 547.37033 
L 883.597474 540.65907 
L 884.524846 594.645186 
L 885.452219 552.03391 
L 886.379591 581.003106 
L 887.306964 587.050304 
L 888.234336 578.656084 
L 889.161708 530.160624 
L 890.089081 567.404245 
L 891.016453 581.268444 
L 891.943826 580.197292 
L 892.871198 572.504217 
L 893.798571 555.328348 
L 894.725943 568.820329 
L 895.653316 591.960048 
L 896.580688 554.197738 
L 897.50806 584.120916 
L 898.435433 583.428171 
L 899.362805 591.297608 
L 900.290178 584.288807 
L 901.21755 568.142326 
L 902.144923 558.542502 
L 903.072295 588.222096 
L 903.999668 579.721038 
L 904.92704 552.221448 
L 905.854412 560.276533 
L 906.781785 546.269824 
L 907.709157 592.622537 
L 908.63653 561.666157 
L 909.563902 548.251169 
L 910.491275 567.619259 
L 911.418647 544.141285 
L 912.34602 541.74256 
L 913.273392 517.708411 
L 914.200765 581.927129 
L 915.128137 545.953052 
L 916.055509 573.766707 
L 916.982882 558.940441 
L 917.910254 531.825476 
L 918.837627 563.455782 
L 919.764999 544.302912 
L 920.692372 577.289357 
L 921.619744 540.040683 
L 922.547117 556.834262 
L 923.474489 551.907929 
L 924.401861 560.059644 
L 925.329234 580.354122 
L 926.256606 555.161507 
L 927.183979 577.783136 
L 928.111351 573.323482 
L 929.038724 578.357024 
L 929.966096 510.46895 
L 930.893469 559.846431 
L 931.820841 550.649295 
L 932.748213 525.829127 
L 933.675586 579.048751 
L 934.602958 574.609783 
L 935.530331 565.991907 
L 936.457703 558.969764 
L 937.385076 568.524666 
L 938.312448 553.786556 
L 940.167193 588.788981 
L 941.094565 568.546734 
L 942.021938 577.409085 
L 942.94931 601.28408 
L 943.876683 555.408516 
L 944.804055 565.566804 
L 945.731428 521.540233 
L 946.6588 544.008711 
L 947.586173 571.711602 
L 948.513545 527.073173 
L 949.440917 560.070864 
L 950.36829 587.704614 
L 951.295662 551.573055 
L 952.223035 559.946316 
L 953.150407 563.640159 
L 954.07778 586.102189 
L 955.005152 553.720408 
L 955.932525 578.083171 
L 956.859897 526.592081 
L 957.787269 531.468758 
L 958.714642 581.609264 
L 959.642014 567.130743 
L 960.569387 602.09176 
L 961.496759 596.227354 
L 962.424132 535.181168 
L 963.351504 604.786032 
L 964.278877 590.720618 
L 965.206249 563.3632 
L 966.133621 576.649001 
L 967.060994 597.966562 
L 967.988366 556.197854 
L 968.915739 584.602386 
L 970.770484 566.178887 
L 971.697856 545.165084 
L 972.625229 576.312682 
L 973.552601 573.394914 
L 974.479973 576.309285 
L 975.407346 556.980947 
L 976.334718 607.53759 
L 977.262091 583.796028 
L 978.189463 592.535588 
L 979.116836 569.221898 
L 980.044208 572.925962 
L 981.898953 552.380781 
L 982.826325 574.29023 
L 983.753698 550.447217 
L 984.68107 545.956794 
L 985.608443 560.515338 
L 986.535815 544.375559 
L 987.463188 568.817404 
L 988.39056 564.940076 
L 989.317933 579.987236 
L 990.245305 565.512474 
L 991.172677 553.022339 
L 992.10005 562.219249 
L 993.027422 581.297081 
L 993.954795 573.36752 
L 994.882167 585.181512 
L 995.80954 567.178864 
L 996.736912 570.473094 
L 997.664285 514.840446 
L 998.591657 561.269569 
L 999.519029 569.175567 
L 1000.446402 518.988176 
L 1001.373774 565.619212 
L 1002.301147 550.641446 
L 1003.228519 559.679072 
L 1004.155892 591.778022 
L 1005.083264 536.534034 
L 1006.010637 575.879242 
L 1006.938009 577.621867 
L 1007.865381 571.037345 
L 1008.792754 530.760756 
L 1009.720126 548.379334 
L 1010.647499 499.341039 
L 1011.574871 576.68902 
L 1012.502244 548.869008 
L 1013.429616 550.471205 
L 1014.356989 555.953901 
L 1015.284361 545.322631 
L 1016.211733 549.95602 
L 1017.139106 544.113414 
L 1018.066478 601.42728 
L 1018.993851 566.974659 
L 1019.921223 615.6 
L 1020.848596 564.740048 
L 1021.775968 582.428431 
L 1022.703341 545.303334 
L 1023.630713 572.980048 
L 1024.558085 576.351139 
L 1025.485458 588.557398 
L 1026.41283 562.847654 
L 1027.340203 575.324454 
L 1028.267575 554.998842 
L 1029.194948 577.311562 
L 1030.12232 587.144375 
L 1031.049693 569.625539 
L 1031.977065 570.445985 
L 1032.904437 596.024026 
L 1033.83181 551.045062 
L 1034.759182 565.966053 
L 1035.686555 563.080916 
L 1036.613927 536.296443 
L 1037.5413 559.480219 
L 1038.468672 544.948745 
L 1039.396045 561.39947 
L 1040.323417 546.884784 
L 1041.250789 596.39408 
L 1042.178162 588.882543 
L 1043.105534 516.870305 
L 1044.032907 572.71084 
L 1044.960279 555.348906 
L 1045.887652 567.122945 
L 1046.815024 566.750324 
L 1047.742397 518.192058 
L 1048.669769 590.25992 
L 1049.597141 536.967243 
L 1050.524514 532.523848 
L 1051.451886 551.779399 
L 1052.379259 551.616077 
L 1053.306631 571.562458 
L 1054.234004 565.67448 
L 1055.161376 588.873769 
L 1056.088749 573.474821 
L 1057.016121 575.79646 
L 1057.943493 517.693109 
L 1058.870866 576.490554 
L 1059.798238 568.82892 
L 1060.725611 577.874263 
L 1061.652983 571.744914 
L 1062.580356 560.251802 
L 1063.507728 573.156785 
L 1064.435101 553.575675 
L 1065.362473 539.473686 
L 1066.289845 560.396263 
L 1067.217218 520.958805 
L 1068.14459 576.875815 
L 1069.071963 567.579745 
L 1069.999335 581.41637 
L 1070.926708 550.621787 
L 1071.85408 543.500465 
L 1072.781453 540.283778 
L 1073.708825 579.992395 
L 1074.636197 602.191688 
L 1075.56357 589.438315 
L 1076.490942 579.298782 
L 1077.418315 608.349722 
L 1078.345687 544.719512 
L 1079.27306 586.078729 
L 1080.200432 543.503994 
L 1081.127805 577.787085 
L 1082.055177 571.186486 
L 1082.982549 550.928506 
L 1083.909922 562.121968 
L 1084.837294 567.632368 
L 1085.764667 588.649057 
L 1087.619412 553.5523 
L 1088.546784 589.657746 
L 1089.474157 554.065041 
L 1090.401529 566.127881 
L 1091.328901 571.747083 
L 1092.256274 572.409591 
L 1093.183646 615.462527 
L 1094.111019 590.206547 
L 1095.038391 570.464668 
L 1095.965764 556.983611 
L 1096.893136 539.331405 
L 1097.820509 553.794023 
L 1098.747881 588.873568 
L 1099.675253 565.574634 
L 1100.602626 572.394319 
L 1101.529998 571.936365 
L 1102.457371 563.323274 
L 1103.384743 571.615089 
L 1104.312116 574.741883 
L 1105.239488 588.072138 
L 1106.166861 550.080621 
L 1107.094233 537.405226 
L 1108.021605 586.688282 
L 1108.948978 557.862136 
L 1109.87635 545.630786 
L 1110.803723 530.540953 
L 1111.731095 530.688485 
L 1112.658468 556.913433 
L 1113.58584 534.716494 
L 1114.513213 580.128732 
L 1115.440585 566.877554 
L 1116.367957 530.07396 
L 1117.29533 529.084046 
L 1118.222702 555.291549 
L 1119.150075 574.352451 
L 1120.077447 571.612515 
L 1121.00482 572.662587 
L 1121.932192 567.509477 
L 1122.859565 561.421642 
L 1123.786937 571.42592 
L 1124.714309 535.236509 
L 1125.641682 564.24391 
L 1126.569054 577.902792 
L 1127.496427 541.771742 
L 1128.423799 571.361054 
L 1129.351172 543.115869 
L 1130.278544 554.237742 
L 1131.205917 563.438639 
L 1132.133289 604.464016 
L 1133.060661 549.20621 
L 1133.988034 570.128402 
L 1134.915406 567.136511 
L 1135.842779 569.879454 
L 1136.770151 553.717668 
L 1137.697524 549.191845 
L 1138.624896 557.762524 
L 1139.552269 565.274786 
L 1140.479641 561.093461 
L 1141.407013 583.040671 
L 1142.334386 558.054274 
L 1143.261758 558.281837 
L 1144.189131 577.556901 
L 1145.116503 524.324455 
L 1146.043876 601.001815 
L 1146.971248 553.179339 
L 1147.898621 560.061993 
L 1148.825993 582.228856 
L 1149.753365 565.17448 
L 1150.680738 563.418698 
L 1152.535483 582.494032 
L 1153.462855 569.814627 
L 1154.390228 558.67489 
L 1155.3176 578.66706 
L 1156.244973 575.699057 
L 1157.172345 557.26467 
L 1158.099717 589.238003 
L 1159.02709 564.521417 
L 1159.954462 528.404889 
L 1160.881835 531.293906 
L 1161.809207 555.342003 
L 1162.73658 567.636207 
L 1163.663952 562.679943 
L 1164.591325 573.830785 
L 1165.518697 571.311376 
L 1166.446069 583.507677 
L 1167.373442 575.590345 
L 1168.300814 580.596995 
L 1169.228187 566.515478 
L 1170.155559 560.874202 
L 1171.082932 536.233444 
L 1172.010304 571.962083 
L 1172.937677 579.706017 
L 1173.865049 602.597532 
L 1174.792421 516.629518 
L 1175.719794 549.974688 
L 1176.647166 511.401643 
L 1177.574539 560.264332 
L 1178.501911 597.984374 
L 1179.429284 581.02427 
L 1180.356656 576.588207 
L 1182.211401 551.119224 
L 1183.138773 589.850603 
L 1184.066146 607.108136 
L 1184.993518 559.243839 
L 1185.920891 555.381242 
L 1186.848263 570.713292 
L 1187.775636 604.284703 
L 1189.630381 559.025269 
L 1190.557753 556.797255 
L 1191.485125 584.702612 
L 1192.412498 557.673885 
L 1193.33987 575.51098 
L 1194.267243 584.385085 
L 1195.194615 547.841376 
L 1196.121988 554.54383 
L 1197.04936 593.860993 
L 1197.976733 564.343757 
L 1198.904105 572.33078 
L 1199.831477 566.905749 
L 1200.75885 556.759179 
L 1201.686222 560.285133 
L 1203.540967 574.493864 
L 1204.46834 526.059576 
L 1205.395712 557.436012 
L 1206.323085 557.018602 
L 1207.250457 550.363654 
L 1208.177829 567.735558 
L 1209.105202 510.514047 
L 1210.032574 539.061278 
L 1210.959947 555.600622 
L 1211.887319 561.218231 
L 1212.814692 593.224313 
L 1213.742064 541.689072 
L 1214.669437 560.05105 
L 1215.596809 555.27976 
L 1216.524181 559.430943 
L 1217.451554 550.923361 
L 1218.378926 526.987911 
L 1219.306299 529.060168 
L 1220.233671 576.640221 
L 1221.161044 516.591632 
L 1222.088416 549.652536 
L 1223.015789 539.419332 
L 1223.943161 555.210625 
L 1224.870533 572.992484 
L 1225.797906 556.806334 
L 1226.725278 550.441529 
L 1227.652651 536.211789 
L 1228.580023 503.521275 
L 1230.434768 570.602231 
L 1231.362141 575.306999 
L 1232.289513 536.464251 
L 1233.216885 584.322124 
L 1234.144258 494.183639 
L 1235.07163 579.162281 
L 1235.999003 580.962376 
L 1236.926375 575.397699 
L 1237.853748 588.240226 
L 1238.78112 571.922967 
L 1239.708493 560.830134 
L 1240.635865 514.864442 
L 1241.563237 526.355915 
L 1242.49061 566.624879 
L 1243.417982 568.793976 
L 1244.345355 565.292275 
L 1245.272727 589.719231 
L 1245.272727 589.719231 
" style="fill:none;stroke:#1f77b4;stroke-linecap:square;stroke-width:1.5;"/>
   </g>
   <g id="line2d_18">
    <path clip-path="url(#pf8d98eb337)" d="M 230.727273 385.887759 
L 231.654645 369.702825 
L 232.582018 492.342702 
L 233.50939 343.829331 
L 234.436763 454.483715 
L 235.364135 341.842625 
L 236.291507 337.952125 
L 237.21888 534.16733 
L 238.146252 504.683225 
L 239.073625 421.320262 
L 240.000997 503.200931 
L 240.92837 527.630155 
L 241.855742 475.384455 
L 242.783115 438.787776 
L 243.710487 489.284534 
L 244.637859 427.736111 
L 245.565232 429.605262 
L 246.492604 476.253197 
L 247.419977 422.537458 
L 248.347349 467.624863 
L 249.274722 462.836924 
L 250.202094 425.75774 
L 251.129467 426.409789 
L 252.056839 498.752986 
L 252.984211 536.236637 
L 253.911584 466.597879 
L 254.838956 423.092378 
L 255.766329 322.975538 
L 257.621074 469.15727 
L 258.548446 450.537861 
L 259.475819 512.521643 
L 260.403191 449.897488 
L 261.330563 310.830416 
L 262.257936 385.243227 
L 263.185308 426.459906 
L 264.112681 413.769533 
L 265.040053 199.19264 
L 265.967426 532.998795 
L 266.894798 349.274666 
L 267.822171 508.630665 
L 268.749543 411.931761 
L 269.676915 441.808753 
L 270.604288 496.946067 
L 271.53166 363.844948 
L 272.459033 443.140725 
L 273.386405 484.033025 
L 274.313778 309.892494 
L 275.24115 434.346684 
L 276.168523 375.222832 
L 277.095895 473.927493 
L 278.023267 365.467109 
L 279.878012 500.940477 
L 280.805385 457.870655 
L 281.732757 449.095068 
L 282.66013 372.274698 
L 283.587502 409.488499 
L 284.514875 408.166888 
L 285.442247 260.484423 
L 286.369619 499.706057 
L 287.296992 378.957107 
L 288.224364 422.988489 
L 289.151737 563.932617 
L 290.079109 462.073866 
L 291.006482 459.398068 
L 291.933854 335.830815 
L 292.861227 398.120208 
L 293.788599 493.907417 
L 294.715971 533.848556 
L 295.643344 426.78236 
L 296.570716 495.304762 
L 297.498089 431.518112 
L 298.425461 453.171555 
L 299.352834 390.497999 
L 300.280206 431.507015 
L 301.207579 485.085559 
L 302.134951 474.647248 
L 303.062323 410.419341 
L 303.989696 314.155331 
L 304.917068 439.860457 
L 305.844441 520.059107 
L 306.771813 436.005262 
L 307.699186 415.102722 
L 308.626558 387.841305 
L 309.553931 461.036224 
L 310.481303 472.658491 
L 311.408675 393.217126 
L 312.336048 479.21942 
L 313.26342 368.869612 
L 314.190793 432.077375 
L 315.118165 516.832654 
L 316.045538 489.646846 
L 316.97291 497.147232 
L 317.900283 532.932223 
L 318.827655 393.170775 
L 319.755027 547.055472 
L 320.6824 357.736531 
L 321.609772 510.244059 
L 322.537145 455.576043 
L 324.39189 516.419331 
L 325.319262 438.384629 
L 326.246635 517.812963 
L 327.174007 353.874341 
L 328.101379 478.439542 
L 329.028752 447.461272 
L 329.956124 574.188227 
L 330.883497 412.202398 
L 331.810869 455.537877 
L 332.738242 290.443762 
L 333.665614 420.523367 
L 334.592987 457.230011 
L 335.520359 336.710188 
L 336.447731 380.688608 
L 337.375104 373.671608 
L 338.302476 428.430726 
L 339.229849 418.53606 
L 340.157221 318.292787 
L 341.084594 357.856698 
L 342.011966 539.451937 
L 342.939339 493.916467 
L 343.866711 455.788238 
L 344.794083 502.555957 
L 345.721456 317.671467 
L 346.648828 489.173189 
L 347.576201 265.542209 
L 348.503573 482.395243 
L 349.430946 444.543406 
L 350.358318 385.880077 
L 351.285691 440.533872 
L 352.213063 395.153003 
L 353.140435 436.555246 
L 354.067808 313.847004 
L 354.99518 325.677715 
L 355.922553 393.346212 
L 356.849925 422.130807 
L 357.777298 408.682859 
L 358.70467 445.212371 
L 359.632043 490.659331 
L 360.559415 402.255417 
L 361.486787 331.090655 
L 362.41416 496.688745 
L 363.341532 385.823483 
L 364.268905 165.561539 
L 365.196277 445.917358 
L 366.12365 285.331054 
L 367.051022 290.87885 
L 367.978395 449.317052 
L 368.905767 415.334393 
L 369.833139 353.269687 
L 370.760512 402.02561 
L 371.687884 512.899253 
L 372.615257 352.32434 
L 373.542629 392.955251 
L 374.470002 308.408673 
L 375.397374 262.064139 
L 376.324747 481.486704 
L 377.252119 394.334501 
L 378.179491 382.568268 
L 379.106864 457.802875 
L 380.034236 415.759711 
L 380.961609 310.296138 
L 381.888981 401.790114 
L 382.816354 428.052787 
L 383.743726 481.336523 
L 384.671099 439.716562 
L 385.598471 428.661958 
L 386.525843 544.636034 
L 387.453216 400.890938 
L 388.380588 360.261229 
L 389.307961 561.428745 
L 390.235333 465.087708 
L 391.162706 414.594636 
L 392.090078 403.077577 
L 393.017451 403.834973 
L 393.944823 315.432664 
L 394.872195 419.585969 
L 395.799568 458.772026 
L 396.72694 406.458059 
L 397.654313 522.407472 
L 398.581685 229.52731 
L 399.509058 340.439119 
L 400.43643 391.924159 
L 401.363803 426.988957 
L 402.291175 376.111084 
L 403.218547 510.607837 
L 404.14592 365.855693 
L 405.073292 416.507644 
L 406.000665 339.503689 
L 406.928037 452.540639 
L 407.85541 411.658133 
L 408.782782 310.936696 
L 409.710155 430.677927 
L 410.637527 428.574138 
L 411.564899 413.356212 
L 412.492272 403.432927 
L 413.419644 470.945405 
L 414.347017 469.194509 
L 415.274389 386.062326 
L 416.201762 474.51611 
L 417.129134 450.077758 
L 418.056507 472.037686 
L 418.983879 443.658999 
L 419.911251 369.839234 
L 420.838624 447.469252 
L 421.765996 413.371224 
L 422.693369 493.141585 
L 423.620741 352.36442 
L 424.548114 503.718849 
L 425.475486 418.379061 
L 426.402859 424.207948 
L 427.330231 380.356513 
L 428.257603 478.680056 
L 429.184976 466.503899 
L 430.112348 395.137356 
L 431.039721 451.799199 
L 431.967093 418.924178 
L 432.894466 403.700482 
L 433.821838 408.057672 
L 434.749211 232.580792 
L 435.676583 464.066644 
L 436.603955 529.617174 
L 437.531328 407.326079 
L 438.4587 471.450451 
L 439.386073 392.788622 
L 440.313445 490.022242 
L 441.240818 468.330545 
L 442.16819 515.741941 
L 443.095563 497.035288 
L 444.022935 462.216259 
L 444.950307 491.849745 
L 445.87768 473.119543 
L 446.805052 497.748908 
L 447.732425 472.517052 
L 448.659797 526.634295 
L 449.58717 361.162909 
L 450.514542 411.224848 
L 451.441915 392.7822 
L 452.369287 450.4765 
L 453.296659 419.62287 
L 454.224032 495.650295 
L 455.151404 291.460336 
L 456.078777 289.480802 
L 457.006149 390.157256 
L 457.933522 508.776878 
L 458.860894 445.187975 
L 459.788267 437.729498 
L 460.715639 438.905465 
L 461.643011 448.432766 
L 462.570384 510.638107 
L 463.497756 488.034446 
L 464.425129 378.325565 
L 465.352501 432.909392 
L 466.279874 396.985898 
L 467.207246 508.480638 
L 468.134619 427.782306 
L 469.061991 447.062757 
L 469.989363 478.978447 
L 470.916736 457.078447 
L 471.844108 468.086308 
L 472.771481 486.982239 
L 473.698853 500.939786 
L 475.553598 384.811615 
L 476.480971 379.23088 
L 477.408343 422.83834 
L 478.335715 488.259609 
L 479.263088 486.155678 
L 480.19046 444.271728 
L 481.117833 475.162831 
L 482.045205 499.847355 
L 482.972578 485.897433 
L 483.89995 449.278236 
L 484.827323 502.971776 
L 485.754695 428.758941 
L 486.682067 553.419426 
L 487.60944 512.155383 
L 488.536812 331.155747 
L 489.464185 461.674901 
L 491.31893 425.486596 
L 492.246302 449.056408 
L 493.173675 396.724668 
L 494.101047 502.732558 
L 495.028419 496.191171 
L 495.955792 404.725421 
L 496.883164 519.413883 
L 497.810537 383.288165 
L 498.737909 465.726805 
L 499.665282 500.799078 
L 500.592654 468.754039 
L 501.520027 459.590487 
L 502.447399 384.216168 
L 503.374771 453.356575 
L 504.302144 408.456896 
L 505.229516 403.616113 
L 506.156889 491.543174 
L 507.084261 391.043566 
L 508.011634 365.612154 
L 508.939006 478.601299 
L 509.866379 470.422092 
L 510.793751 501.913652 
L 511.721123 467.823257 
L 512.648496 502.264057 
L 513.575868 499.430602 
L 514.503241 290.021549 
L 515.430613 425.329824 
L 516.357986 360.267764 
L 517.285358 389.150291 
L 518.212731 412.11732 
L 519.140103 521.343877 
L 520.067475 373.362346 
L 520.994848 428.397382 
L 521.92222 406.433895 
L 522.849593 525.816524 
L 523.776965 289.833783 
L 524.704338 452.677902 
L 525.63171 326.589069 
L 526.559083 411.656934 
L 527.486455 384.643211 
L 528.413827 516.593389 
L 529.3412 471.577463 
L 530.268572 516.701834 
L 531.195945 471.019997 
L 532.123317 356.898449 
L 533.05069 408.298079 
L 533.978062 335.440296 
L 534.905435 454.21442 
L 535.832807 457.247797 
L 536.760179 331.49585 
L 537.687552 428.460794 
L 538.614924 568.314578 
L 539.542297 506.126473 
L 540.469669 304.017029 
L 541.397042 466.246483 
L 542.324414 387.777045 
L 543.251787 496.799198 
L 544.179159 419.533828 
L 545.106531 489.642441 
L 546.033904 466.642264 
L 546.961276 392.521961 
L 547.888649 418.783797 
L 548.816021 497.619203 
L 549.743394 484.18947 
L 550.670766 422.018545 
L 551.598139 378.514001 
L 552.525511 464.407138 
L 553.452883 367.081503 
L 554.380256 415.425044 
L 555.307628 480.514428 
L 556.235001 442.057863 
L 557.162373 525.111837 
L 558.089746 514.994404 
L 559.017118 473.828186 
L 559.944491 425.664164 
L 560.871863 275.296548 
L 561.799235 560.843968 
L 562.726608 369.580875 
L 563.65398 446.075557 
L 564.581353 487.922776 
L 565.508725 512.19334 
L 566.436098 413.227465 
L 567.36347 335.288586 
L 568.290843 393.346876 
L 569.218215 339.254573 
L 570.145588 528.066221 
L 571.07296 513.144154 
L 572.000332 368.806831 
L 572.927705 453.892655 
L 573.855077 406.996166 
L 574.78245 434.745678 
L 575.709822 403.798861 
L 576.637195 392.260517 
L 577.564567 283.043205 
L 578.49194 346.503448 
L 579.419312 398.051401 
L 580.346684 473.677708 
L 581.274057 517.306257 
L 582.201429 496.903225 
L 583.128802 374.367772 
L 584.056174 345.4976 
L 584.983547 436.935798 
L 585.910919 431.424177 
L 586.838292 441.907654 
L 587.765664 419.19411 
L 588.693036 454.826845 
L 589.620409 364.911789 
L 590.547781 535.949398 
L 591.475154 301.060389 
L 592.402526 526.46615 
L 593.329899 412.513316 
L 594.257271 438.18744 
L 595.184644 346.014851 
L 596.112016 447.578326 
L 597.039388 495.590967 
L 597.966761 383.296826 
L 598.894133 493.797715 
L 599.821506 415.9654 
L 600.748878 413.475021 
L 601.676251 285.01115 
L 602.603623 524.774411 
L 603.530996 441.274754 
L 604.458368 381.402557 
L 605.38574 457.665265 
L 606.313113 414.261797 
L 607.240485 416.293321 
L 608.167858 330.091461 
L 609.09523 395.079275 
L 610.022603 336.919976 
L 610.949975 366.495075 
L 611.877348 371.020904 
L 612.80472 419.185748 
L 613.732092 408.872161 
L 614.659465 428.864528 
L 616.51421 481.929606 
L 617.441582 559.055546 
L 619.296327 349.618185 
L 620.2237 525.930088 
L 621.151072 413.035303 
L 622.078444 490.761781 
L 623.005817 448.422519 
L 623.933189 493.428217 
L 624.860562 453.700631 
L 625.787934 400.853107 
L 626.715307 510.166446 
L 627.642679 464.808495 
L 628.570052 402.786857 
L 629.497424 513.41219 
L 630.424796 534.952215 
L 631.352169 439.361188 
L 632.279541 487.906103 
L 633.206914 481.683992 
L 634.134286 429.691115 
L 635.061659 397.443958 
L 635.989031 382.143991 
L 636.916404 378.742052 
L 637.843776 290.742128 
L 638.771148 423.367003 
L 639.698521 499.180576 
L 640.625893 489.350766 
L 641.553266 415.236195 
L 642.480638 508.382571 
L 643.408011 445.766996 
L 644.335383 434.017098 
L 645.262756 419.855713 
L 646.190128 461.359731 
L 647.1175 312.545013 
L 648.044873 338.475094 
L 648.972245 487.062458 
L 649.899618 329.656657 
L 650.82699 434.131815 
L 651.754363 506.442227 
L 652.681735 481.262514 
L 654.53648 375.605855 
L 655.463852 534.50704 
L 656.391225 409.84443 
L 657.318597 496.899988 
L 658.24597 463.805123 
L 660.100715 364.99815 
L 661.028087 433.340352 
L 661.95546 343.124924 
L 662.882832 358.204397 
L 663.810204 491.967342 
L 664.737577 430.718085 
L 665.664949 474.302029 
L 666.592322 408.880565 
L 667.519694 473.772504 
L 668.447067 437.472087 
L 669.374439 256.428724 
L 670.301812 355.568501 
L 671.229184 355.054536 
L 672.156556 436.672768 
L 673.083929 466.928507 
L 674.011301 406.350833 
L 674.938674 426.395247 
L 675.866046 486.897485 
L 676.793419 410.385922 
L 677.720791 479.569893 
L 678.648164 472.013602 
L 679.575536 424.779997 
L 680.502908 534.875147 
L 681.430281 472.720607 
L 682.357653 390.616598 
L 683.285026 459.714399 
L 684.212398 362.998196 
L 685.139771 370.450871 
L 686.067143 480.407308 
L 686.994516 429.335213 
L 687.921888 327.929769 
L 688.84926 435.057861 
L 689.776633 434.373406 
L 690.704005 466.030577 
L 691.631378 391.016355 
L 692.55875 417.010405 
L 693.486123 394.902499 
L 694.413495 429.407199 
L 695.340868 358.099602 
L 696.26824 485.68175 
L 697.195612 348.738023 
L 698.122985 484.704493 
L 699.050357 395.763652 
L 699.97773 499.315587 
L 700.905102 463.866025 
L 701.832475 364.653421 
L 703.68722 496.679777 
L 704.614592 450.21985 
L 705.541964 300.670275 
L 706.469337 390.469726 
L 707.396709 382.642033 
L 708.324082 460.915485 
L 709.251454 394.55478 
L 710.178827 345.595926 
L 711.106199 508.841867 
L 712.033572 396.048668 
L 712.960944 532.266365 
L 713.888316 433.775725 
L 714.815689 497.970104 
L 715.743061 394.462906 
L 716.670434 494.218382 
L 717.597806 337.879012 
L 718.525179 469.021911 
L 719.452551 499.716085 
L 720.379924 430.15708 
L 721.307296 405.519177 
L 722.234668 468.327717 
L 723.162041 396.834912 
L 724.089413 383.895373 
L 725.016786 450.354259 
L 725.944158 462.643263 
L 726.871531 499.333067 
L 727.798903 375.989411 
L 728.726276 513.465824 
L 729.653648 410.622774 
L 730.58102 524.557699 
L 731.508393 533.592078 
L 732.435765 343.107544 
L 733.363138 434.991399 
L 734.29051 364.519576 
L 735.217883 454.056358 
L 736.145255 516.45643 
L 737.072628 409.101538 
L 738 418.000188 
L 738.927372 525.189457 
L 739.854745 391.997672 
L 740.782117 412.330719 
L 741.70949 463.474927 
L 742.636862 536.375521 
L 743.564235 432.863379 
L 744.491607 502.162091 
L 745.41898 462.362807 
L 746.346352 428.901057 
L 747.273724 542.738796 
L 749.128469 477.145933 
L 750.055842 506.456771 
L 750.983214 498.790661 
L 751.910587 471.130857 
L 752.837959 339.066162 
L 753.765332 400.774463 
L 754.692704 430.193895 
L 755.620076 436.608546 
L 756.547449 400.807314 
L 757.474821 281.145981 
L 758.402194 442.621997 
L 759.329566 475.955179 
L 760.256939 544.638694 
L 761.184311 346.877796 
L 762.111684 504.196933 
L 763.039056 376.32182 
L 763.966428 531.378837 
L 764.893801 414.817551 
L 765.821173 435.368789 
L 766.748546 506.675692 
L 767.675918 407.480977 
L 768.603291 411.918398 
L 770.458036 478.572907 
L 771.385408 440.983334 
L 772.31278 500.923536 
L 773.240153 404.211292 
L 774.167525 440.84669 
L 775.094898 361.645592 
L 776.02227 356.48284 
L 776.949643 474.220306 
L 778.804388 397.825102 
L 779.73176 502.633654 
L 780.659132 440.27555 
L 781.586505 517.612345 
L 782.513877 442.030094 
L 783.44125 318.222354 
L 784.368622 411.784572 
L 785.295995 386.48377 
L 786.223367 436.790144 
L 787.15074 413.890336 
L 788.078112 352.49249 
L 789.005484 352.562437 
L 789.932857 431.085313 
L 790.860229 414.942056 
L 791.787602 388.435138 
L 792.714974 330.786159 
L 793.642347 569.118725 
L 794.569719 444.14454 
L 795.497092 370.68733 
L 796.424464 392.530506 
L 797.351836 453.006394 
L 798.279209 402.48869 
L 799.206581 487.349005 
L 800.133954 388.79603 
L 801.061326 438.343778 
L 801.988699 460.263307 
L 802.916071 380.392397 
L 803.843444 381.425152 
L 804.770816 368.050781 
L 805.698188 476.730838 
L 806.625561 400.585322 
L 807.552933 346.742752 
L 808.480306 281.643841 
L 809.407678 273.294517 
L 810.335051 393.385854 
L 811.262423 360.004498 
L 812.189796 396.773811 
L 813.117168 439.091855 
L 814.04454 389.349448 
L 814.971913 376.011677 
L 815.899285 413.246062 
L 816.826658 398.3574 
L 817.75403 435.840874 
L 818.681403 362.541684 
L 820.536148 508.595745 
L 821.46352 356.597317 
L 822.390892 224.038129 
L 823.318265 478.755907 
L 824.245637 374.622786 
L 825.17301 409.230805 
L 826.100382 475.22307 
L 827.027755 367.725809 
L 827.955127 388.54832 
L 828.8825 306.257493 
L 829.809872 419.279287 
L 830.737244 394.346875 
L 831.664617 495.662264 
L 832.591989 404.525845 
L 834.446734 428.977991 
L 835.374107 391.556922 
L 836.301479 338.148795 
L 837.228852 368.062738 
L 838.156224 447.049511 
L 839.083596 421.197497 
L 840.010969 473.418667 
L 840.938341 420.817175 
L 841.865714 389.730596 
L 842.793086 472.689583 
L 843.720459 492.410916 
L 844.647831 396.904025 
L 845.575204 525.494083 
L 846.502576 394.622846 
L 847.429948 403.184545 
L 848.357321 325.862371 
L 849.284693 482.612755 
L 850.212066 313.555028 
L 851.139438 271.519878 
L 852.066811 473.174138 
L 852.994183 327.961153 
L 853.921556 468.811733 
L 854.848928 357.155743 
L 855.7763 383.094612 
L 856.703673 503.640089 
L 857.631045 464.316101 
L 858.558418 460.657466 
L 859.48579 425.896118 
L 860.413163 292.874964 
L 861.340535 271.243982 
L 862.267908 419.482616 
L 863.19528 524.293501 
L 864.122652 544.131259 
L 865.050025 405.074926 
L 865.977397 501.409763 
L 866.90477 438.893916 
L 867.832142 527.907 
L 868.759515 484.960462 
L 869.686887 325.028004 
L 870.61426 435.231218 
L 871.541632 471.456015 
L 872.469004 534.143417 
L 873.396377 417.655866 
L 874.323749 339.023654 
L 875.251122 582.218535 
L 876.178494 416.745232 
L 877.105867 518.952055 
L 878.033239 394.663826 
L 878.960612 407.287365 
L 879.887984 436.026181 
L 880.815356 356.887155 
L 881.742729 435.41052 
L 882.670101 367.279716 
L 883.597474 344.71713 
L 884.524846 526.213055 
L 885.452219 380.388317 
L 886.379591 480.055699 
L 887.306964 500.851689 
L 888.234336 472.49526 
L 889.161708 309.235487 
L 890.089081 434.519305 
L 891.016453 481.157083 
L 891.943826 477.631995 
L 892.871198 452.27314 
L 893.798571 391.923609 
L 894.725943 434.959293 
L 895.653316 513.475515 
L 896.580688 382.096661 
L 897.50806 486.20239 
L 898.435433 483.888719 
L 899.362805 510.698935 
L 900.290178 484.823945 
L 901.21755 427.843017 
L 902.144923 393.965235 
L 903.072295 498.704524 
L 903.999668 468.704292 
L 904.92704 371.80103 
L 905.854412 399.020487 
L 906.781785 352.341157 
L 907.709157 514.909393 
L 908.63653 402.293688 
L 909.563902 354.368643 
L 910.491275 423.561145 
L 911.418647 337.699151 
L 912.34602 329.069738 
L 913.273392 238.370482 
L 914.200765 471.51997 
L 915.128137 342.065647 
L 916.055509 442.89571 
L 916.982882 389.147531 
L 917.910254 291.162458 
L 918.837627 405.516546 
L 919.764999 333.918246 
L 920.692372 454.109362 
L 921.619744 312.926251 
L 922.547117 375.354703 
L 923.474489 357.041554 
L 924.401861 387.332027 
L 925.329234 462.043281 
L 926.256606 367.876794 
L 927.183979 454.055085 
L 928.111351 434.071591 
L 929.038724 453.041501 
L 929.966096 197.191716 
L 930.893469 383.829069 
L 931.820841 351.093042 
L 932.748213 259.098762 
L 933.675586 456.847343 
L 934.602958 441.286397 
L 935.530331 409.22445 
L 936.457703 383.099271 
L 937.385076 420.867611 
L 938.312448 366.036321 
L 940.167193 495.947347 
L 941.094565 423.184737 
L 942.021938 455.439264 
L 942.94931 542.33231 
L 943.876683 372.530656 
L 944.804055 407.550017 
L 945.731428 244.969305 
L 946.6588 329.651324 
L 947.586173 433.888336 
L 948.513545 270.725951 
L 949.440917 391.339111 
L 950.36829 491.940167 
L 951.295662 358.577648 
L 952.223035 389.406667 
L 953.150407 403.911768 
L 954.07778 485.201999 
L 955.005152 365.729418 
L 955.932525 455.615832 
L 956.859897 265.270756 
L 957.787269 283.143564 
L 958.714642 469.658781 
L 959.642014 417.33079 
L 960.569387 544.012545 
L 961.496759 522.325969 
L 962.424132 296.577176 
L 963.351504 553.838485 
L 964.278877 501.271206 
L 965.206249 397.751435 
L 966.133621 447.365382 
L 967.060994 527.041445 
L 967.988366 369.786438 
L 968.915739 476.726661 
L 970.770484 403.366231 
L 971.697856 316.936174 
L 972.625229 439.466336 
L 973.552601 427.038285 
L 974.479973 438.445425 
L 975.407346 362.792376 
L 976.334718 560.484771 
L 977.262091 468.175387 
L 978.189463 502.168161 
L 979.116836 413.669299 
L 980.044208 427.71711 
L 981.898953 348.320259 
L 982.826325 435.283092 
L 983.753698 349.57002 
L 984.68107 333.513125 
L 985.608443 389.821215 
L 986.535815 323.366922 
L 987.463188 415.977075 
L 988.39056 401.285878 
L 989.317933 459.194008 
L 990.245305 402.089204 
L 991.172677 356.129572 
L 992.10005 393.223878 
L 993.027422 465.128947 
L 993.954795 435.433533 
L 994.882167 479.675751 
L 995.80954 412.257634 
L 996.736912 424.668599 
L 997.664285 219.671126 
L 998.591657 390.346139 
L 999.519029 417.312377 
L 1000.446402 227.132276 
L 1001.373774 403.835923 
L 1002.301147 345.663422 
L 1003.228519 380.642206 
L 1004.155892 503.022615 
L 1005.083264 294.909401 
L 1006.010637 445.660797 
L 1006.938009 452.156779 
L 1007.865381 427.611656 
L 1008.792754 277.240471 
L 1009.720126 343.164438 
L 1010.647499 162.238354 
L 1011.574871 448.23827 
L 1012.502244 347.83018 
L 1013.429616 353.741483 
L 1014.356989 373.96989 
L 1015.284361 333.023309 
L 1016.211733 352.901451 
L 1017.139106 334.251719 
L 1018.066478 543.758888 
L 1018.993851 419.774239 
L 1019.921223 594.762256 
L 1020.848596 411.732548 
L 1021.775968 474.016101 
L 1022.703341 340.078374 
L 1023.630713 440.732599 
L 1024.558085 454.259477 
L 1025.485458 497.065385 
L 1026.41283 404.266064 
L 1027.340203 449.301073 
L 1028.267575 373.232161 
L 1029.194948 454.843535 
L 1030.12232 491.217356 
L 1031.049693 429.670315 
L 1031.977065 433.691526 
L 1032.904437 525.05373 
L 1033.83181 364.393369 
L 1034.759182 418.663982 
L 1035.686555 404.762959 
L 1036.613927 304.561097 
L 1037.5413 388.840254 
L 1038.468672 334.979097 
L 1039.396045 395.336809 
L 1040.323417 342.082427 
L 1041.250789 521.526851 
L 1042.178162 491.976098 
L 1043.105534 218.978719 
L 1044.032907 430.892207 
L 1044.960279 366.440038 
L 1045.887652 410.794021 
L 1046.815024 409.390321 
L 1047.742397 224.579342 
L 1048.669769 497.936643 
L 1049.597141 302.072943 
L 1050.524514 285.584395 
L 1051.451886 358.180136 
L 1052.379259 357.576677 
L 1053.306631 431.276558 
L 1054.234004 407.017889 
L 1055.161376 495.149786 
L 1056.088749 439.290266 
L 1057.016121 447.552024 
L 1057.943493 230.698783 
L 1058.870866 448.802025 
L 1059.798238 420.381961 
L 1060.725611 454.799323 
L 1061.652983 432.033714 
L 1062.580356 389.966402 
L 1063.507728 439.150586 
L 1064.435101 365.307496 
L 1065.362473 313.300771 
L 1066.289845 390.46114 
L 1067.217218 245.841018 
L 1068.14459 450.483522 
L 1069.071963 415.697837 
L 1069.999335 466.183383 
L 1070.926708 351.523179 
L 1071.85408 324.978454 
L 1072.781453 312.988253 
L 1073.708825 459.274526 
L 1074.636197 542.957192 
L 1075.56357 495.01548 
L 1076.490942 455.828405 
L 1077.418315 566.015436 
L 1078.345687 325.964104 
L 1079.27306 481.995887 
L 1080.200432 319.503763 
L 1081.127805 448.024524 
L 1082.055177 423.197051 
L 1082.982549 345.288438 
L 1083.909922 391.721154 
L 1084.837294 412.500321 
L 1085.764667 491.752155 
L 1087.619412 359.854218 
L 1088.546784 496.367483 
L 1089.474157 361.443619 
L 1090.401529 407.01677 
L 1091.328901 428.187676 
L 1092.256274 430.683743 
L 1093.183646 592.733387 
L 1094.111019 497.070656 
L 1095.038391 423.605873 
L 1095.965764 373.344447 
L 1096.893136 306.243799 
L 1097.820509 360.701342 
L 1098.747881 492.789861 
L 1099.675253 406.215128 
L 1100.602626 432.536867 
L 1101.529998 429.960298 
L 1102.457371 395.979829 
L 1103.384743 426.374688 
L 1104.312116 438.234304 
L 1105.239488 488.79463 
L 1106.166861 346.343856 
L 1107.094233 297.801223 
L 1108.021605 481.957803 
L 1108.948978 371.212623 
L 1109.87635 324.722711 
L 1110.803723 266.889418 
L 1111.731095 267.45485 
L 1112.658468 368.498225 
L 1113.58584 285.017355 
L 1114.513213 459.205357 
L 1115.440585 410.130616 
L 1116.367957 272.293197 
L 1117.29533 268.575377 
L 1118.222702 367.002898 
L 1119.150075 438.314039 
L 1120.077447 428.190336 
L 1121.00482 431.422914 
L 1122.859565 391.57439 
L 1123.786937 428.89835 
L 1124.714309 293.882897 
L 1125.641682 404.104633 
L 1126.569054 456.239508 
L 1127.496427 321.30106 
L 1128.423799 427.914292 
L 1129.351172 321.789913 
L 1130.278544 363.48915 
L 1131.205917 397.986074 
L 1132.133289 551.252787 
L 1133.060661 344.550016 
L 1133.988034 422.356585 
L 1134.915406 410.991981 
L 1135.842779 419.667998 
L 1136.770151 358.330789 
L 1137.697524 341.154386 
L 1139.552269 402.624108 
L 1140.479641 388.311696 
L 1141.407013 470.851018 
L 1142.334386 379.299897 
L 1143.261758 380.147886 
L 1144.189131 451.974484 
L 1145.116503 254.999216 
L 1146.043876 539.398415 
L 1146.971248 360.7747 
L 1147.898621 387.639473 
L 1148.825993 471.561157 
L 1149.753365 408.906789 
L 1150.680738 402.456396 
L 1152.535483 469.656644 
L 1153.462855 420.234405 
L 1154.390228 378.865445 
L 1155.3176 453.621072 
L 1156.244973 442.396678 
L 1157.172345 372.681511 
L 1158.099717 493.450428 
L 1159.02709 400.237363 
L 1159.954462 264.14896 
L 1160.881835 272.738808 
L 1161.809207 363.976562 
L 1162.73658 410.728962 
L 1163.663952 391.881283 
L 1164.591325 435.769378 
L 1165.518697 425.426732 
L 1166.446069 472.785688 
L 1167.373442 443.306325 
L 1168.300814 463.39774 
L 1169.228187 410.955352 
L 1170.155559 389.946115 
L 1171.082932 299.000424 
L 1172.010304 431.461723 
L 1172.937677 460.575769 
L 1173.865049 545.950158 
L 1174.792421 225.159362 
L 1175.719794 349.346778 
L 1176.647166 205.689186 
L 1177.574539 387.529122 
L 1178.501911 527.78525 
L 1179.429284 463.349118 
L 1180.356656 445.8157 
L 1182.211401 346.67119 
L 1183.138773 494.625058 
L 1184.066146 559.814123 
L 1184.993518 374.688047 
L 1185.920891 358.680445 
L 1186.848263 417.425667 
L 1187.775636 548.703828 
L 1189.630381 373.332572 
L 1190.557753 365.755242 
L 1191.485125 473.099552 
L 1192.412498 367.252139 
L 1193.33987 436.359904 
L 1194.267243 470.313855 
L 1195.194615 327.519311 
L 1196.121988 353.70915 
L 1197.04936 505.763814 
L 1197.976733 389.068262 
L 1198.904105 420.672915 
L 1199.831477 399.977361 
L 1200.75885 360.272929 
L 1201.686222 374.160957 
L 1203.540967 429.178202 
L 1204.46834 235.5778 
L 1205.395712 360.198882 
L 1206.323085 358.857187 
L 1207.250457 332.752729 
L 1208.177829 401.729613 
L 1209.105202 174.525881 
L 1210.032574 286.404222 
L 1210.959947 351.404071 
L 1211.887319 372.67574 
L 1212.814692 501.135927 
L 1213.742064 293.17246 
L 1214.669437 367.231823 
L 1215.596809 347.987781 
L 1216.524181 364.91689 
L 1217.451554 331.035025 
L 1218.378926 234.148833 
L 1219.306299 241.602761 
L 1220.233671 437.551554 
L 1221.161044 199.717106 
L 1222.088416 330.661429 
L 1223.015789 288.059477 
L 1223.943161 350.828339 
L 1224.870533 422.607824 
L 1225.797906 359.035565 
L 1226.725278 332.974129 
L 1227.652651 276.456447 
L 1228.580023 146.616264 
L 1230.434768 414.082224 
L 1231.362141 432.092308 
L 1232.289513 278.086685 
L 1233.216885 468.169818 
L 1234.144258 111.6 
L 1235.07163 447.75851 
L 1235.999003 456.406419 
L 1236.926375 436.584405 
L 1237.853748 486.095997 
L 1238.78112 423.58256 
L 1239.708493 380.658842 
L 1240.635865 202.794595 
L 1241.563237 247.260853 
L 1242.49061 403.263987 
L 1243.417982 411.672299 
L 1244.345355 397.306838 
L 1245.272727 491.373985 
L 1245.272727 491.373985 
" style="fill:none;stroke:#ff7f0e;stroke-linecap:square;stroke-width:1.5;"/>
   </g>
   <g id="patch_3">
    <path d="M 180 640.8 
L 180 86.4 
" style="fill:none;stroke:#000000;stroke-linecap:square;stroke-linejoin:miter;stroke-width:0.8;"/>
   </g>
   <g id="patch_4">
    <path d="M 1296 640.8 
L 1296 86.4 
" style="fill:none;stroke:#000000;stroke-linecap:square;stroke-linejoin:miter;stroke-width:0.8;"/>
   </g>
   <g id="patch_5">
    <path d="M 180 640.8 
L 1296 640.8 
" style="fill:none;stroke:#000000;stroke-linecap:square;stroke-linejoin:miter;stroke-width:0.8;"/>
   </g>
   <g id="patch_6">
    <path d="M 180 86.4 
L 1296 86.4 
" style="fill:none;stroke:#000000;stroke-linecap:square;stroke-linejoin:miter;stroke-width:0.8;"/>
   </g>
   <g id="text_19">
    <!-- Total price each day -->
    <defs>
     <path d="M -0.296875 72.90625 
L 61.375 72.90625 
L 61.375 64.59375 
L 35.5 64.59375 
L 35.5 0 
L 25.59375 0 
L 25.59375 64.59375 
L -0.296875 64.59375 
z
" id="DejaVuSans-84"/>
     <path d="M 30.609375 48.390625 
Q 23.390625 48.390625 19.1875 42.75 
Q 14.984375 37.109375 14.984375 27.296875 
Q 14.984375 17.484375 19.15625 11.84375 
Q 23.34375 6.203125 30.609375 6.203125 
Q 37.796875 6.203125 41.984375 11.859375 
Q 46.1875 17.53125 46.1875 27.296875 
Q 46.1875 37.015625 41.984375 42.703125 
Q 37.796875 48.390625 30.609375 48.390625 
z
M 30.609375 56 
Q 42.328125 56 49.015625 48.375 
Q 55.71875 40.765625 55.71875 27.296875 
Q 55.71875 13.875 49.015625 6.21875 
Q 42.328125 -1.421875 30.609375 -1.421875 
Q 18.84375 -1.421875 12.171875 6.21875 
Q 5.515625 13.875 5.515625 27.296875 
Q 5.515625 40.765625 12.171875 48.375 
Q 18.84375 56 30.609375 56 
z
" id="DejaVuSans-111"/>
     <path d="M 9.421875 75.984375 
L 18.40625 75.984375 
L 18.40625 0 
L 9.421875 0 
z
" id="DejaVuSans-108"/>
     <path id="DejaVuSans-32"/>
     <path d="M 18.109375 8.203125 
L 18.109375 -20.796875 
L 9.078125 -20.796875 
L 9.078125 54.6875 
L 18.109375 54.6875 
L 18.109375 46.390625 
Q 20.953125 51.265625 25.265625 53.625 
Q 29.59375 56 35.59375 56 
Q 45.5625 56 51.78125 48.09375 
Q 58.015625 40.1875 58.015625 27.296875 
Q 58.015625 14.40625 51.78125 6.484375 
Q 45.5625 -1.421875 35.59375 -1.421875 
Q 29.59375 -1.421875 25.265625 0.953125 
Q 20.953125 3.328125 18.109375 8.203125 
z
M 48.6875 27.296875 
Q 48.6875 37.203125 44.609375 42.84375 
Q 40.53125 48.484375 33.40625 48.484375 
Q 26.265625 48.484375 22.1875 42.84375 
Q 18.109375 37.203125 18.109375 27.296875 
Q 18.109375 17.390625 22.1875 11.75 
Q 26.265625 6.109375 33.40625 6.109375 
Q 40.53125 6.109375 44.609375 11.75 
Q 48.6875 17.390625 48.6875 27.296875 
z
" id="DejaVuSans-112"/>
     <path d="M 54.890625 33.015625 
L 54.890625 0 
L 45.90625 0 
L 45.90625 32.71875 
Q 45.90625 40.484375 42.875 44.328125 
Q 39.84375 48.1875 33.796875 48.1875 
Q 26.515625 48.1875 22.3125 43.546875 
Q 18.109375 38.921875 18.109375 30.90625 
L 18.109375 0 
L 9.078125 0 
L 9.078125 75.984375 
L 18.109375 75.984375 
L 18.109375 46.1875 
Q 21.34375 51.125 25.703125 53.5625 
Q 30.078125 56 35.796875 56 
Q 45.21875 56 50.046875 50.171875 
Q 54.890625 44.34375 54.890625 33.015625 
z
" id="DejaVuSans-104"/>
     <path d="M 45.40625 46.390625 
L 45.40625 75.984375 
L 54.390625 75.984375 
L 54.390625 0 
L 45.40625 0 
L 45.40625 8.203125 
Q 42.578125 3.328125 38.25 0.953125 
Q 33.9375 -1.421875 27.875 -1.421875 
Q 17.96875 -1.421875 11.734375 6.484375 
Q 5.515625 14.40625 5.515625 27.296875 
Q 5.515625 40.1875 11.734375 48.09375 
Q 17.96875 56 27.875 56 
Q 33.9375 56 38.25 53.625 
Q 42.578125 51.265625 45.40625 46.390625 
z
M 14.796875 27.296875 
Q 14.796875 17.390625 18.875 11.75 
Q 22.953125 6.109375 30.078125 6.109375 
Q 37.203125 6.109375 41.296875 11.75 
Q 45.40625 17.390625 45.40625 27.296875 
Q 45.40625 37.203125 41.296875 42.84375 
Q 37.203125 48.484375 30.078125 48.484375 
Q 22.953125 48.484375 18.875 42.84375 
Q 14.796875 37.203125 14.796875 27.296875 
z
" id="DejaVuSans-100"/>
     <path d="M 32.171875 -5.078125 
Q 28.375 -14.84375 24.75 -17.8125 
Q 21.140625 -20.796875 15.09375 -20.796875 
L 7.90625 -20.796875 
L 7.90625 -13.28125 
L 13.1875 -13.28125 
Q 16.890625 -13.28125 18.9375 -11.515625 
Q 21 -9.765625 23.484375 -3.21875 
L 25.09375 0.875 
L 2.984375 54.6875 
L 12.5 54.6875 
L 29.59375 11.921875 
L 46.6875 54.6875 
L 56.203125 54.6875 
z
" id="DejaVuSans-121"/>
    </defs>
    <g transform="translate(676.8225 80.4)scale(0.12 -0.12)">
     <use xlink:href="#DejaVuSans-84"/>
     <use x="60.818359" xlink:href="#DejaVuSans-111"/>
     <use x="122" xlink:href="#DejaVuSans-116"/>
     <use x="161.208984" xlink:href="#DejaVuSans-97"/>
     <use x="222.488281" xlink:href="#DejaVuSans-108"/>
     <use x="250.271484" xlink:href="#DejaVuSans-32"/>
     <use x="282.058594" xlink:href="#DejaVuSans-112"/>
     <use x="345.535156" xlink:href="#DejaVuSans-114"/>
     <use x="386.648438" xlink:href="#DejaVuSans-105"/>
     <use x="414.431641" xlink:href="#DejaVuSans-99"/>
     <use x="469.412109" xlink:href="#DejaVuSans-101"/>
     <use x="530.935547" xlink:href="#DejaVuSans-32"/>
     <use x="562.722656" xlink:href="#DejaVuSans-101"/>
     <use x="624.246094" xlink:href="#DejaVuSans-97"/>
     <use x="685.525391" xlink:href="#DejaVuSans-99"/>
     <use x="740.505859" xlink:href="#DejaVuSans-104"/>
     <use x="803.884766" xlink:href="#DejaVuSans-32"/>
     <use x="835.671875" xlink:href="#DejaVuSans-100"/>
     <use x="899.148438" xlink:href="#DejaVuSans-97"/>
     <use x="960.427734" xlink:href="#DejaVuSans-121"/>
    </g>
   </g>
   <g id="legend_1">
    <g id="patch_7">
     <path d="M 187 123.75625 
L 240.367188 123.75625 
Q 242.367188 123.75625 242.367188 121.75625 
L 242.367188 93.4 
Q 242.367188 91.4 240.367188 91.4 
L 187 91.4 
Q 185 91.4 185 93.4 
L 185 121.75625 
Q 185 123.75625 187 123.75625 
z
" style="fill:#ffffff;opacity:0.8;stroke:#cccccc;stroke-linejoin:miter;"/>
    </g>
    <g id="line2d_19">
     <path d="M 189 99.498437 
L 209 99.498437 
" style="fill:none;stroke:#1f77b4;stroke-linecap:square;stroke-width:1.5;"/>
    </g>
    <g id="line2d_20"/>
    <g id="text_20">
     <!-- USD -->
     <defs>
      <path d="M 8.6875 72.90625 
L 18.609375 72.90625 
L 18.609375 28.609375 
Q 18.609375 16.890625 22.84375 11.734375 
Q 27.09375 6.59375 36.625 6.59375 
Q 46.09375 6.59375 50.34375 11.734375 
Q 54.59375 16.890625 54.59375 28.609375 
L 54.59375 72.90625 
L 64.5 72.90625 
L 64.5 27.390625 
Q 64.5 13.140625 57.4375 5.859375 
Q 50.390625 -1.421875 36.625 -1.421875 
Q 22.796875 -1.421875 15.734375 5.859375 
Q 8.6875 13.140625 8.6875 27.390625 
z
" id="DejaVuSans-85"/>
      <path d="M 53.515625 70.515625 
L 53.515625 60.890625 
Q 47.90625 63.578125 42.921875 64.890625 
Q 37.9375 66.21875 33.296875 66.21875 
Q 25.25 66.21875 20.875 63.09375 
Q 16.5 59.96875 16.5 54.203125 
Q 16.5 49.359375 19.40625 46.890625 
Q 22.3125 44.4375 30.421875 42.921875 
L 36.375 41.703125 
Q 47.40625 39.59375 52.65625 34.296875 
Q 57.90625 29 57.90625 20.125 
Q 57.90625 9.515625 50.796875 4.046875 
Q 43.703125 -1.421875 29.984375 -1.421875 
Q 24.8125 -1.421875 18.96875 -0.25 
Q 13.140625 0.921875 6.890625 3.21875 
L 6.890625 13.375 
Q 12.890625 10.015625 18.65625 8.296875 
Q 24.421875 6.59375 29.984375 6.59375 
Q 38.421875 6.59375 43.015625 9.90625 
Q 47.609375 13.234375 47.609375 19.390625 
Q 47.609375 24.75 44.3125 27.78125 
Q 41.015625 30.8125 33.5 32.328125 
L 27.484375 33.5 
Q 16.453125 35.6875 11.515625 40.375 
Q 6.59375 45.0625 6.59375 53.421875 
Q 6.59375 63.09375 13.40625 68.65625 
Q 20.21875 74.21875 32.171875 74.21875 
Q 37.3125 74.21875 42.625 73.28125 
Q 47.953125 72.359375 53.515625 70.515625 
z
" id="DejaVuSans-83"/>
     </defs>
     <g transform="translate(217 102.998437)scale(0.1 -0.1)">
      <use xlink:href="#DejaVuSans-85"/>
      <use x="73.193359" xlink:href="#DejaVuSans-83"/>
      <use x="136.669922" xlink:href="#DejaVuSans-68"/>
     </g>
    </g>
    <g id="line2d_21">
     <path d="M 189 114.176562 
L 209 114.176562 
" style="fill:none;stroke:#ff7f0e;stroke-linecap:square;stroke-width:1.5;"/>
    </g>
    <g id="line2d_22"/>
    <g id="text_21">
     <!-- PLN -->
     <defs>
      <path d="M 9.8125 72.90625 
L 19.671875 72.90625 
L 19.671875 8.296875 
L 55.171875 8.296875 
L 55.171875 0 
L 9.8125 0 
z
" id="DejaVuSans-76"/>
      <path d="M 9.8125 72.90625 
L 23.09375 72.90625 
L 55.421875 11.921875 
L 55.421875 72.90625 
L 64.984375 72.90625 
L 64.984375 0 
L 51.703125 0 
L 19.390625 60.984375 
L 19.390625 0 
L 9.8125 0 
z
" id="DejaVuSans-78"/>
     </defs>
     <g transform="translate(217 117.676562)scale(0.1 -0.1)">
      <use xlink:href="#DejaVuSans-80"/>
      <use x="60.302734" xlink:href="#DejaVuSans-76"/>
      <use x="116.015625" xlink:href="#DejaVuSans-78"/>
     </g>
    </g>
   </g>
  </g>
 </g>
 <defs>
  <clipPath id="pf8d98eb337">
   <rect height="554.4" width="1116" x="180" y="86.4"/>
  </clipPath>
 </defs>
</svg>
