<?xml version="1.0" encoding="utf-8" standalone="no"?>
<!DOCTYPE svg PUBLIC "-//W3C//DTD SVG 1.1//EN"
  "http://www.w3.org/Graphics/SVG/1.1/DTD/svg11.dtd">
<!-- Created with matplotlib (https://matplotlib.org/) -->
<svg height="345.6pt" version="1.1" viewBox="0 0 460.8 345.6" width="460.8pt" xmlns="http://www.w3.org/2000/svg" xmlns:xlink="http://www.w3.org/1999/xlink">
 <metadata>
  <rdf:RDF xmlns:cc="http://creativecommons.org/ns#" xmlns:dc="http://purl.org/dc/elements/1.1/" xmlns:rdf="http://www.w3.org/1999/02/22-rdf-syntax-ns#">
   <cc:Work>
    <dc:type rdf:resource="http://purl.org/dc/dcmitype/StillImage"/>
    <dc:date>2020-11-22T04:19:16.152036</dc:date>
    <dc:format>image/svg+xml</dc:format>
    <dc:creator>
     <cc:Agent>
      <dc:title>Matplotlib v3.3.3, https://matplotlib.org/</dc:title>
     </cc:Agent>
    </dc:creator>
   </cc:Work>
  </rdf:RDF>
 </metadata>
 <defs>
  <style type="text/css">*{stroke-linecap:butt;stroke-linejoin:round;}</style>
 </defs>
 <g id="figure_1">
  <g id="patch_1">
   <path d="M 0 345.6 
L 460.8 345.6 
L 460.8 0 
L 0 0 
z
" style="fill:#ffffff;"/>
  </g>
  <g id="axes_1">
   <g id="patch_2">
    <path d="M 57.6 307.584 
L 414.72 307.584 
L 414.72 41.472 
L 57.6 41.472 
z
" style="fill:#ffffff;"/>
   </g>
   <g id="matplotlib.axis_1">
    <g id="xtick_1">
     <g id="line2d_1">
      <defs>
       <path d="M 0 0 
L 0 3.5 
" id="mc34389b7a8" style="stroke:#000000;stroke-width:0.8;"/>
      </defs>
      <g>
       <use style="stroke:#000000;stroke-width:0.8;" x="98.0736" xlink:href="#mc34389b7a8" y="307.584"/>
      </g>
     </g>
     <g id="text_1">
      <!-- 2011-10-29 -->
      <g transform="translate(69.015787 322.182437)scale(0.1 -0.1)">
       <defs>
        <path d="M 19.1875 8.296875 
L 53.609375 8.296875 
L 53.609375 0 
L 7.328125 0 
L 7.328125 8.296875 
Q 12.9375 14.109375 22.625 23.890625 
Q 32.328125 33.6875 34.8125 36.53125 
Q 39.546875 41.84375 41.421875 45.53125 
Q 43.3125 49.21875 43.3125 52.78125 
Q 43.3125 58.59375 39.234375 62.25 
Q 35.15625 65.921875 28.609375 65.921875 
Q 23.96875 65.921875 18.8125 64.3125 
Q 13.671875 62.703125 7.8125 59.421875 
L 7.8125 69.390625 
Q 13.765625 71.78125 18.9375 73 
Q 24.125 74.21875 28.421875 74.21875 
Q 39.75 74.21875 46.484375 68.546875 
Q 53.21875 62.890625 53.21875 53.421875 
Q 53.21875 48.921875 51.53125 44.890625 
Q 49.859375 40.875 45.40625 35.40625 
Q 44.1875 33.984375 37.640625 27.21875 
Q 31.109375 20.453125 19.1875 8.296875 
z
" id="DejaVuSans-50"/>
        <path d="M 31.78125 66.40625 
Q 24.171875 66.40625 20.328125 58.90625 
Q 16.5 51.421875 16.5 36.375 
Q 16.5 21.390625 20.328125 13.890625 
Q 24.171875 6.390625 31.78125 6.390625 
Q 39.453125 6.390625 43.28125 13.890625 
Q 47.125 21.390625 47.125 36.375 
Q 47.125 51.421875 43.28125 58.90625 
Q 39.453125 66.40625 31.78125 66.40625 
z
M 31.78125 74.21875 
Q 44.046875 74.21875 50.515625 64.515625 
Q 56.984375 54.828125 56.984375 36.375 
Q 56.984375 17.96875 50.515625 8.265625 
Q 44.046875 -1.421875 31.78125 -1.421875 
Q 19.53125 -1.421875 13.0625 8.265625 
Q 6.59375 17.96875 6.59375 36.375 
Q 6.59375 54.828125 13.0625 64.515625 
Q 19.53125 74.21875 31.78125 74.21875 
z
" id="DejaVuSans-48"/>
        <path d="M 12.40625 8.296875 
L 28.515625 8.296875 
L 28.515625 63.921875 
L 10.984375 60.40625 
L 10.984375 69.390625 
L 28.421875 72.90625 
L 38.28125 72.90625 
L 38.28125 8.296875 
L 54.390625 8.296875 
L 54.390625 0 
L 12.40625 0 
z
" id="DejaVuSans-49"/>
        <path d="M 4.890625 31.390625 
L 31.203125 31.390625 
L 31.203125 23.390625 
L 4.890625 23.390625 
z
" id="DejaVuSans-45"/>
        <path d="M 10.984375 1.515625 
L 10.984375 10.5 
Q 14.703125 8.734375 18.5 7.8125 
Q 22.3125 6.890625 25.984375 6.890625 
Q 35.75 6.890625 40.890625 13.453125 
Q 46.046875 20.015625 46.78125 33.40625 
Q 43.953125 29.203125 39.59375 26.953125 
Q 35.25 24.703125 29.984375 24.703125 
Q 19.046875 24.703125 12.671875 31.3125 
Q 6.296875 37.9375 6.296875 49.421875 
Q 6.296875 60.640625 12.9375 67.421875 
Q 19.578125 74.21875 30.609375 74.21875 
Q 43.265625 74.21875 49.921875 64.515625 
Q 56.59375 54.828125 56.59375 36.375 
Q 56.59375 19.140625 48.40625 8.859375 
Q 40.234375 -1.421875 26.421875 -1.421875 
Q 22.703125 -1.421875 18.890625 -0.6875 
Q 15.09375 0.046875 10.984375 1.515625 
z
M 30.609375 32.421875 
Q 37.25 32.421875 41.125 36.953125 
Q 45.015625 41.5 45.015625 49.421875 
Q 45.015625 57.28125 41.125 61.84375 
Q 37.25 66.40625 30.609375 66.40625 
Q 23.96875 66.40625 20.09375 61.84375 
Q 16.21875 57.28125 16.21875 49.421875 
Q 16.21875 41.5 20.09375 36.953125 
Q 23.96875 32.421875 30.609375 32.421875 
z
" id="DejaVuSans-57"/>
       </defs>
       <use xlink:href="#DejaVuSans-50"/>
       <use x="63.623047" xlink:href="#DejaVuSans-48"/>
       <use x="127.246094" xlink:href="#DejaVuSans-49"/>
       <use x="190.869141" xlink:href="#DejaVuSans-49"/>
       <use x="254.492188" xlink:href="#DejaVuSans-45"/>
       <use x="290.576172" xlink:href="#DejaVuSans-49"/>
       <use x="354.199219" xlink:href="#DejaVuSans-48"/>
       <use x="417.822266" xlink:href="#DejaVuSans-45"/>
       <use x="453.90625" xlink:href="#DejaVuSans-50"/>
       <use x="517.529297" xlink:href="#DejaVuSans-57"/>
      </g>
     </g>
    </g>
    <g id="xtick_2">
     <g id="line2d_2">
      <g>
       <use style="stroke:#000000;stroke-width:0.8;" x="163.870255" xlink:href="#mc34389b7a8" y="307.584"/>
      </g>
     </g>
     <g id="text_2">
      <!-- 2012-01-13 -->
      <g transform="translate(134.812442 322.182437)scale(0.1 -0.1)">
       <defs>
        <path d="M 40.578125 39.3125 
Q 47.65625 37.796875 51.625 33 
Q 55.609375 28.21875 55.609375 21.1875 
Q 55.609375 10.40625 48.1875 4.484375 
Q 40.765625 -1.421875 27.09375 -1.421875 
Q 22.515625 -1.421875 17.65625 -0.515625 
Q 12.796875 0.390625 7.625 2.203125 
L 7.625 11.71875 
Q 11.71875 9.328125 16.59375 8.109375 
Q 21.484375 6.890625 26.8125 6.890625 
Q 36.078125 6.890625 40.9375 10.546875 
Q 45.796875 14.203125 45.796875 21.1875 
Q 45.796875 27.640625 41.28125 31.265625 
Q 36.765625 34.90625 28.71875 34.90625 
L 20.21875 34.90625 
L 20.21875 43.015625 
L 29.109375 43.015625 
Q 36.375 43.015625 40.234375 45.921875 
Q 44.09375 48.828125 44.09375 54.296875 
Q 44.09375 59.90625 40.109375 62.90625 
Q 36.140625 65.921875 28.71875 65.921875 
Q 24.65625 65.921875 20.015625 65.03125 
Q 15.375 64.15625 9.8125 62.3125 
L 9.8125 71.09375 
Q 15.4375 72.65625 20.34375 73.4375 
Q 25.25 74.21875 29.59375 74.21875 
Q 40.828125 74.21875 47.359375 69.109375 
Q 53.90625 64.015625 53.90625 55.328125 
Q 53.90625 49.265625 50.4375 45.09375 
Q 46.96875 40.921875 40.578125 39.3125 
z
" id="DejaVuSans-51"/>
       </defs>
       <use xlink:href="#DejaVuSans-50"/>
       <use x="63.623047" xlink:href="#DejaVuSans-48"/>
       <use x="127.246094" xlink:href="#DejaVuSans-49"/>
       <use x="190.869141" xlink:href="#DejaVuSans-50"/>
       <use x="254.492188" xlink:href="#DejaVuSans-45"/>
       <use x="290.576172" xlink:href="#DejaVuSans-48"/>
       <use x="354.199219" xlink:href="#DejaVuSans-49"/>
       <use x="417.822266" xlink:href="#DejaVuSans-45"/>
       <use x="453.90625" xlink:href="#DejaVuSans-49"/>
       <use x="517.529297" xlink:href="#DejaVuSans-51"/>
      </g>
     </g>
    </g>
    <g id="xtick_3">
     <g id="line2d_3">
      <g>
       <use style="stroke:#000000;stroke-width:0.8;" x="229.666909" xlink:href="#mc34389b7a8" y="307.584"/>
      </g>
     </g>
     <g id="text_3">
      <!-- 2012-03-29 -->
      <g transform="translate(200.609097 322.182437)scale(0.1 -0.1)">
       <use xlink:href="#DejaVuSans-50"/>
       <use x="63.623047" xlink:href="#DejaVuSans-48"/>
       <use x="127.246094" xlink:href="#DejaVuSans-49"/>
       <use x="190.869141" xlink:href="#DejaVuSans-50"/>
       <use x="254.492188" xlink:href="#DejaVuSans-45"/>
       <use x="290.576172" xlink:href="#DejaVuSans-48"/>
       <use x="354.199219" xlink:href="#DejaVuSans-51"/>
       <use x="417.822266" xlink:href="#DejaVuSans-45"/>
       <use x="453.90625" xlink:href="#DejaVuSans-50"/>
       <use x="517.529297" xlink:href="#DejaVuSans-57"/>
      </g>
     </g>
    </g>
    <g id="xtick_4">
     <g id="line2d_4">
      <g>
       <use style="stroke:#000000;stroke-width:0.8;" x="295.463564" xlink:href="#mc34389b7a8" y="307.584"/>
      </g>
     </g>
     <g id="text_4">
      <!-- 2012-06-13 -->
      <g transform="translate(266.405751 322.182437)scale(0.1 -0.1)">
       <defs>
        <path d="M 33.015625 40.375 
Q 26.375 40.375 22.484375 35.828125 
Q 18.609375 31.296875 18.609375 23.390625 
Q 18.609375 15.53125 22.484375 10.953125 
Q 26.375 6.390625 33.015625 6.390625 
Q 39.65625 6.390625 43.53125 10.953125 
Q 47.40625 15.53125 47.40625 23.390625 
Q 47.40625 31.296875 43.53125 35.828125 
Q 39.65625 40.375 33.015625 40.375 
z
M 52.59375 71.296875 
L 52.59375 62.3125 
Q 48.875 64.0625 45.09375 64.984375 
Q 41.3125 65.921875 37.59375 65.921875 
Q 27.828125 65.921875 22.671875 59.328125 
Q 17.53125 52.734375 16.796875 39.40625 
Q 19.671875 43.65625 24.015625 45.921875 
Q 28.375 48.1875 33.59375 48.1875 
Q 44.578125 48.1875 50.953125 41.515625 
Q 57.328125 34.859375 57.328125 23.390625 
Q 57.328125 12.15625 50.6875 5.359375 
Q 44.046875 -1.421875 33.015625 -1.421875 
Q 20.359375 -1.421875 13.671875 8.265625 
Q 6.984375 17.96875 6.984375 36.375 
Q 6.984375 53.65625 15.1875 63.9375 
Q 23.390625 74.21875 37.203125 74.21875 
Q 40.921875 74.21875 44.703125 73.484375 
Q 48.484375 72.75 52.59375 71.296875 
z
" id="DejaVuSans-54"/>
       </defs>
       <use xlink:href="#DejaVuSans-50"/>
       <use x="63.623047" xlink:href="#DejaVuSans-48"/>
       <use x="127.246094" xlink:href="#DejaVuSans-49"/>
       <use x="190.869141" xlink:href="#DejaVuSans-50"/>
       <use x="254.492188" xlink:href="#DejaVuSans-45"/>
       <use x="290.576172" xlink:href="#DejaVuSans-48"/>
       <use x="354.199219" xlink:href="#DejaVuSans-54"/>
       <use x="417.822266" xlink:href="#DejaVuSans-45"/>
       <use x="453.90625" xlink:href="#DejaVuSans-49"/>
       <use x="517.529297" xlink:href="#DejaVuSans-51"/>
      </g>
     </g>
    </g>
    <g id="xtick_5">
     <g id="line2d_5">
      <g>
       <use style="stroke:#000000;stroke-width:0.8;" x="361.260218" xlink:href="#mc34389b7a8" y="307.584"/>
      </g>
     </g>
     <g id="text_5">
      <!-- 2012-08-28 -->
      <g transform="translate(332.202406 322.182437)scale(0.1 -0.1)">
       <defs>
        <path d="M 31.78125 34.625 
Q 24.75 34.625 20.71875 30.859375 
Q 16.703125 27.09375 16.703125 20.515625 
Q 16.703125 13.921875 20.71875 10.15625 
Q 24.75 6.390625 31.78125 6.390625 
Q 38.8125 6.390625 42.859375 10.171875 
Q 46.921875 13.96875 46.921875 20.515625 
Q 46.921875 27.09375 42.890625 30.859375 
Q 38.875 34.625 31.78125 34.625 
z
M 21.921875 38.8125 
Q 15.578125 40.375 12.03125 44.71875 
Q 8.5 49.078125 8.5 55.328125 
Q 8.5 64.0625 14.71875 69.140625 
Q 20.953125 74.21875 31.78125 74.21875 
Q 42.671875 74.21875 48.875 69.140625 
Q 55.078125 64.0625 55.078125 55.328125 
Q 55.078125 49.078125 51.53125 44.71875 
Q 48 40.375 41.703125 38.8125 
Q 48.828125 37.15625 52.796875 32.3125 
Q 56.78125 27.484375 56.78125 20.515625 
Q 56.78125 9.90625 50.3125 4.234375 
Q 43.84375 -1.421875 31.78125 -1.421875 
Q 19.734375 -1.421875 13.25 4.234375 
Q 6.78125 9.90625 6.78125 20.515625 
Q 6.78125 27.484375 10.78125 32.3125 
Q 14.796875 37.15625 21.921875 38.8125 
z
M 18.3125 54.390625 
Q 18.3125 48.734375 21.84375 45.5625 
Q 25.390625 42.390625 31.78125 42.390625 
Q 38.140625 42.390625 41.71875 45.5625 
Q 45.3125 48.734375 45.3125 54.390625 
Q 45.3125 60.0625 41.71875 63.234375 
Q 38.140625 66.40625 31.78125 66.40625 
Q 25.390625 66.40625 21.84375 63.234375 
Q 18.3125 60.0625 18.3125 54.390625 
z
" id="DejaVuSans-56"/>
       </defs>
       <use xlink:href="#DejaVuSans-50"/>
       <use x="63.623047" xlink:href="#DejaVuSans-48"/>
       <use x="127.246094" xlink:href="#DejaVuSans-49"/>
       <use x="190.869141" xlink:href="#DejaVuSans-50"/>
       <use x="254.492188" xlink:href="#DejaVuSans-45"/>
       <use x="290.576172" xlink:href="#DejaVuSans-48"/>
       <use x="354.199219" xlink:href="#DejaVuSans-56"/>
       <use x="417.822266" xlink:href="#DejaVuSans-45"/>
       <use x="453.90625" xlink:href="#DejaVuSans-50"/>
       <use x="517.529297" xlink:href="#DejaVuSans-56"/>
      </g>
     </g>
    </g>
    <g id="text_6">
     <!-- Data -->
     <g transform="translate(224.221719 335.860562)scale(0.1 -0.1)">
      <defs>
       <path d="M 19.671875 64.796875 
L 19.671875 8.109375 
L 31.59375 8.109375 
Q 46.6875 8.109375 53.6875 14.9375 
Q 60.6875 21.78125 60.6875 36.53125 
Q 60.6875 51.171875 53.6875 57.984375 
Q 46.6875 64.796875 31.59375 64.796875 
z
M 9.8125 72.90625 
L 30.078125 72.90625 
Q 51.265625 72.90625 61.171875 64.09375 
Q 71.09375 55.28125 71.09375 36.53125 
Q 71.09375 17.671875 61.125 8.828125 
Q 51.171875 0 30.078125 0 
L 9.8125 0 
z
" id="DejaVuSans-68"/>
       <path d="M 34.28125 27.484375 
Q 23.390625 27.484375 19.1875 25 
Q 14.984375 22.515625 14.984375 16.5 
Q 14.984375 11.71875 18.140625 8.90625 
Q 21.296875 6.109375 26.703125 6.109375 
Q 34.1875 6.109375 38.703125 11.40625 
Q 43.21875 16.703125 43.21875 25.484375 
L 43.21875 27.484375 
z
M 52.203125 31.203125 
L 52.203125 0 
L 43.21875 0 
L 43.21875 8.296875 
Q 40.140625 3.328125 35.546875 0.953125 
Q 30.953125 -1.421875 24.3125 -1.421875 
Q 15.921875 -1.421875 10.953125 3.296875 
Q 6 8.015625 6 15.921875 
Q 6 25.140625 12.171875 29.828125 
Q 18.359375 34.515625 30.609375 34.515625 
L 43.21875 34.515625 
L 43.21875 35.40625 
Q 43.21875 41.609375 39.140625 45 
Q 35.0625 48.390625 27.6875 48.390625 
Q 23 48.390625 18.546875 47.265625 
Q 14.109375 46.140625 10.015625 43.890625 
L 10.015625 52.203125 
Q 14.9375 54.109375 19.578125 55.046875 
Q 24.21875 56 28.609375 56 
Q 40.484375 56 46.34375 49.84375 
Q 52.203125 43.703125 52.203125 31.203125 
z
" id="DejaVuSans-97"/>
       <path d="M 18.3125 70.21875 
L 18.3125 54.6875 
L 36.8125 54.6875 
L 36.8125 47.703125 
L 18.3125 47.703125 
L 18.3125 18.015625 
Q 18.3125 11.328125 20.140625 9.421875 
Q 21.96875 7.515625 27.59375 7.515625 
L 36.8125 7.515625 
L 36.8125 0 
L 27.59375 0 
Q 17.1875 0 13.234375 3.875 
Q 9.28125 7.765625 9.28125 18.015625 
L 9.28125 47.703125 
L 2.6875 47.703125 
L 2.6875 54.6875 
L 9.28125 54.6875 
L 9.28125 70.21875 
z
" id="DejaVuSans-116"/>
      </defs>
      <use xlink:href="#DejaVuSans-68"/>
      <use x="77.001953" xlink:href="#DejaVuSans-97"/>
      <use x="138.28125" xlink:href="#DejaVuSans-116"/>
      <use x="177.490234" xlink:href="#DejaVuSans-97"/>
     </g>
    </g>
   </g>
   <g id="matplotlib.axis_2">
    <g id="ytick_1">
     <g id="line2d_6">
      <defs>
       <path d="M 0 0 
L -3.5 0 
" id="mcb4b68ba21" style="stroke:#000000;stroke-width:0.8;"/>
      </defs>
      <g>
       <use style="stroke:#000000;stroke-width:0.8;" x="57.6" xlink:href="#mcb4b68ba21" y="307.584"/>
      </g>
     </g>
     <g id="text_7">
      <!-- 0 -->
      <g transform="translate(44.2375 311.383219)scale(0.1 -0.1)">
       <use xlink:href="#DejaVuSans-48"/>
      </g>
     </g>
    </g>
    <g id="ytick_2">
     <g id="line2d_7">
      <g>
       <use style="stroke:#000000;stroke-width:0.8;" x="57.6" xlink:href="#mcb4b68ba21" y="254.3616"/>
      </g>
     </g>
     <g id="text_8">
      <!-- 100000 -->
      <g transform="translate(12.425 258.160819)scale(0.1 -0.1)">
       <use xlink:href="#DejaVuSans-49"/>
       <use x="63.623047" xlink:href="#DejaVuSans-48"/>
       <use x="127.246094" xlink:href="#DejaVuSans-48"/>
       <use x="190.869141" xlink:href="#DejaVuSans-48"/>
       <use x="254.492188" xlink:href="#DejaVuSans-48"/>
       <use x="318.115234" xlink:href="#DejaVuSans-48"/>
      </g>
     </g>
    </g>
    <g id="ytick_3">
     <g id="line2d_8">
      <g>
       <use style="stroke:#000000;stroke-width:0.8;" x="57.6" xlink:href="#mcb4b68ba21" y="201.1392"/>
      </g>
     </g>
     <g id="text_9">
      <!-- 200000 -->
      <g transform="translate(12.425 204.938419)scale(0.1 -0.1)">
       <use xlink:href="#DejaVuSans-50"/>
       <use x="63.623047" xlink:href="#DejaVuSans-48"/>
       <use x="127.246094" xlink:href="#DejaVuSans-48"/>
       <use x="190.869141" xlink:href="#DejaVuSans-48"/>
       <use x="254.492188" xlink:href="#DejaVuSans-48"/>
       <use x="318.115234" xlink:href="#DejaVuSans-48"/>
      </g>
     </g>
    </g>
    <g id="ytick_4">
     <g id="line2d_9">
      <g>
       <use style="stroke:#000000;stroke-width:0.8;" x="57.6" xlink:href="#mcb4b68ba21" y="147.9168"/>
      </g>
     </g>
     <g id="text_10">
      <!-- 300000 -->
      <g transform="translate(12.425 151.716019)scale(0.1 -0.1)">
       <use xlink:href="#DejaVuSans-51"/>
       <use x="63.623047" xlink:href="#DejaVuSans-48"/>
       <use x="127.246094" xlink:href="#DejaVuSans-48"/>
       <use x="190.869141" xlink:href="#DejaVuSans-48"/>
       <use x="254.492188" xlink:href="#DejaVuSans-48"/>
       <use x="318.115234" xlink:href="#DejaVuSans-48"/>
      </g>
     </g>
    </g>
    <g id="ytick_5">
     <g id="line2d_10">
      <g>
       <use style="stroke:#000000;stroke-width:0.8;" x="57.6" xlink:href="#mcb4b68ba21" y="94.6944"/>
      </g>
     </g>
     <g id="text_11">
      <!-- 400000 -->
      <g transform="translate(12.425 98.493619)scale(0.1 -0.1)">
       <defs>
        <path d="M 37.796875 64.3125 
L 12.890625 25.390625 
L 37.796875 25.390625 
z
M 35.203125 72.90625 
L 47.609375 72.90625 
L 47.609375 25.390625 
L 58.015625 25.390625 
L 58.015625 17.1875 
L 47.609375 17.1875 
L 47.609375 0 
L 37.796875 0 
L 37.796875 17.1875 
L 4.890625 17.1875 
L 4.890625 26.703125 
z
" id="DejaVuSans-52"/>
       </defs>
       <use xlink:href="#DejaVuSans-52"/>
       <use x="63.623047" xlink:href="#DejaVuSans-48"/>
       <use x="127.246094" xlink:href="#DejaVuSans-48"/>
       <use x="190.869141" xlink:href="#DejaVuSans-48"/>
       <use x="254.492188" xlink:href="#DejaVuSans-48"/>
       <use x="318.115234" xlink:href="#DejaVuSans-48"/>
      </g>
     </g>
    </g>
    <g id="ytick_6">
     <g id="line2d_11">
      <g>
       <use style="stroke:#000000;stroke-width:0.8;" x="57.6" xlink:href="#mcb4b68ba21" y="41.472"/>
      </g>
     </g>
     <g id="text_12">
      <!-- 500000 -->
      <g transform="translate(12.425 45.271219)scale(0.1 -0.1)">
       <defs>
        <path d="M 10.796875 72.90625 
L 49.515625 72.90625 
L 49.515625 64.59375 
L 19.828125 64.59375 
L 19.828125 46.734375 
Q 21.96875 47.46875 24.109375 47.828125 
Q 26.265625 48.1875 28.421875 48.1875 
Q 40.625 48.1875 47.75 41.5 
Q 54.890625 34.8125 54.890625 23.390625 
Q 54.890625 11.625 47.5625 5.09375 
Q 40.234375 -1.421875 26.90625 -1.421875 
Q 22.3125 -1.421875 17.546875 -0.640625 
Q 12.796875 0.140625 7.71875 1.703125 
L 7.71875 11.625 
Q 12.109375 9.234375 16.796875 8.0625 
Q 21.484375 6.890625 26.703125 6.890625 
Q 35.15625 6.890625 40.078125 11.328125 
Q 45.015625 15.765625 45.015625 23.390625 
Q 45.015625 31 40.078125 35.4375 
Q 35.15625 39.890625 26.703125 39.890625 
Q 22.75 39.890625 18.8125 39.015625 
Q 14.890625 38.140625 10.796875 36.28125 
z
" id="DejaVuSans-53"/>
       </defs>
       <use xlink:href="#DejaVuSans-53"/>
       <use x="63.623047" xlink:href="#DejaVuSans-48"/>
       <use x="127.246094" xlink:href="#DejaVuSans-48"/>
       <use x="190.869141" xlink:href="#DejaVuSans-48"/>
       <use x="254.492188" xlink:href="#DejaVuSans-48"/>
       <use x="318.115234" xlink:href="#DejaVuSans-48"/>
      </g>
     </g>
    </g>
    <g id="text_13">
     <!-- Suma -->
     <g transform="translate(6.345312 188.805344)rotate(-90)scale(0.1 -0.1)">
      <defs>
       <path d="M 53.515625 70.515625 
L 53.515625 60.890625 
Q 47.90625 63.578125 42.921875 64.890625 
Q 37.9375 66.21875 33.296875 66.21875 
Q 25.25 66.21875 20.875 63.09375 
Q 16.5 59.96875 16.5 54.203125 
Q 16.5 49.359375 19.40625 46.890625 
Q 22.3125 44.4375 30.421875 42.921875 
L 36.375 41.703125 
Q 47.40625 39.59375 52.65625 34.296875 
Q 57.90625 29 57.90625 20.125 
Q 57.90625 9.515625 50.796875 4.046875 
Q 43.703125 -1.421875 29.984375 -1.421875 
Q 24.8125 -1.421875 18.96875 -0.25 
Q 13.140625 0.921875 6.890625 3.21875 
L 6.890625 13.375 
Q 12.890625 10.015625 18.65625 8.296875 
Q 24.421875 6.59375 29.984375 6.59375 
Q 38.421875 6.59375 43.015625 9.90625 
Q 47.609375 13.234375 47.609375 19.390625 
Q 47.609375 24.75 44.3125 27.78125 
Q 41.015625 30.8125 33.5 32.328125 
L 27.484375 33.5 
Q 16.453125 35.6875 11.515625 40.375 
Q 6.59375 45.0625 6.59375 53.421875 
Q 6.59375 63.09375 13.40625 68.65625 
Q 20.21875 74.21875 32.171875 74.21875 
Q 37.3125 74.21875 42.625 73.28125 
Q 47.953125 72.359375 53.515625 70.515625 
z
" id="DejaVuSans-83"/>
       <path d="M 8.5 21.578125 
L 8.5 54.6875 
L 17.484375 54.6875 
L 17.484375 21.921875 
Q 17.484375 14.15625 20.5 10.265625 
Q 23.53125 6.390625 29.59375 6.390625 
Q 36.859375 6.390625 41.078125 11.03125 
Q 45.3125 15.671875 45.3125 23.6875 
L 45.3125 54.6875 
L 54.296875 54.6875 
L 54.296875 0 
L 45.3125 0 
L 45.3125 8.40625 
Q 42.046875 3.421875 37.71875 1 
Q 33.40625 -1.421875 27.6875 -1.421875 
Q 18.265625 -1.421875 13.375 4.4375 
Q 8.5 10.296875 8.5 21.578125 
z
M 31.109375 56 
z
" id="DejaVuSans-117"/>
       <path d="M 52 44.1875 
Q 55.375 50.25 60.0625 53.125 
Q 64.75 56 71.09375 56 
Q 79.640625 56 84.28125 50.015625 
Q 88.921875 44.046875 88.921875 33.015625 
L 88.921875 0 
L 79.890625 0 
L 79.890625 32.71875 
Q 79.890625 40.578125 77.09375 44.375 
Q 74.3125 48.1875 68.609375 48.1875 
Q 61.625 48.1875 57.5625 43.546875 
Q 53.515625 38.921875 53.515625 30.90625 
L 53.515625 0 
L 44.484375 0 
L 44.484375 32.71875 
Q 44.484375 40.625 41.703125 44.40625 
Q 38.921875 48.1875 33.109375 48.1875 
Q 26.21875 48.1875 22.15625 43.53125 
Q 18.109375 38.875 18.109375 30.90625 
L 18.109375 0 
L 9.078125 0 
L 9.078125 54.6875 
L 18.109375 54.6875 
L 18.109375 46.1875 
Q 21.1875 51.21875 25.484375 53.609375 
Q 29.78125 56 35.6875 56 
Q 41.65625 56 45.828125 52.96875 
Q 50 49.953125 52 44.1875 
z
" id="DejaVuSans-109"/>
      </defs>
      <use xlink:href="#DejaVuSans-83"/>
      <use x="63.476562" xlink:href="#DejaVuSans-117"/>
      <use x="126.855469" xlink:href="#DejaVuSans-109"/>
      <use x="224.267578" xlink:href="#DejaVuSans-97"/>
     </g>
    </g>
   </g>
   <g id="line2d_12">
    <path clip-path="url(#p81e609c404)" d="M 74.511426 -1 
L 74.698473 301.270777 
L 75.564218 299.390768 
L 76.429964 296.755665 
L 77.295709 294.651258 
L 78.161455 297.286361 
L 79.0272 292.030857 
L 79.892945 290.74874 
L 80.758691 299.16637 
L 81.624436 294.785511 
L 82.490182 294.957555 
L 83.355927 296.239672 
L 84.221673 291.287682 
L 85.087418 290.681544 
L 85.953164 298.46363 
L 86.818909 292.972698 
L 87.684655 300.859632 
L 88.5504 301.375625 
L 89.416145 296.650817 
L 90.281891 298.860073 
L 91.147636 295.16725 
L 92.013382 305.068448 
L 92.879127 300.859632 
L 93.744873 293.092248 
L 94.610618 301.390328 
L 95.476364 296.650817 
L 96.342109 302.96404 
L 97.207855 294.860953 
L 98.0736 297.061962 
L 98.939345 296.650817 
L 99.19192 -1 
M 100.42073 -1 
L 100.670836 292.561553 
L 101.536582 286.764323 
L 102.402327 298.860073 
L 103.268073 295.196656 
L 104.133818 297.061962 
L 104.999564 295.062403 
L 105.865309 274.97106 
L 106.731055 297.16681 
L 107.5968 303.375185 
L 108.462545 286.12878 
L 109.328291 299.16637 
L 110.194036 285.123415 
L 111.059782 297.181513 
L 111.925527 284.248771 
L 112.791273 294.66596 
L 113.657018 300.979183 
L 114.522764 294.957555 
L 115.388509 283.426481 
L 116.254255 290.696246 
L 117.12 291.72456 
L 117.985745 294.54641 
L 118.851491 292.442002 
L 119.717236 298.755225 
L 120.582982 296.359223 
L 121.448727 292.561553 
L 122.314473 299.16637 
L 123.180218 291.72456 
L 124.045964 290.987841 
L 124.911709 293.182393 
L 125.777455 294.54641 
L 126.384672 -1 
M 126.898924 -1 
L 127.508945 299.16637 
L 128.374691 291.092689 
L 130.106182 302.96404 
L 130.971927 295.077105 
L 131.837673 302.552895 
L 132.703418 292.666401 
L 133.569164 297.061962 
L 134.434909 299.28592 
L 135.300655 288.988281 
L 136.1664 292.853147 
L 137.032145 302.96404 
L 137.897891 288.958876 
L 138.763636 295.009909 
L 139.629382 293.077546 
L 140.495127 292.666401 
L 141.360873 298.34408 
L 143.958109 293.062843 
L 144.823855 288.973578 
L 145.6896 301.270777 
L 146.555345 292.54685 
L 147.421091 304.246158 
L 148.286836 297.286361 
L 149.152582 298.860073 
L 150.018327 298.46363 
L 150.884073 300.96448 
L 151.749818 291.619712 
L 152.615564 294.785511 
L 152.840717 -1 
M 154.120852 -1 
L 154.347055 296.650817 
L 155.2128 292.972698 
L 156.078545 297.932935 
L 156.944291 295.301504 
L 157.810036 293.417823 
L 158.675782 295.181953 
L 159.541527 299.28592 
L 160.407273 301.270777 
L 161.273018 286.764323 
L 162.138764 284.024372 
L 163.004509 301.390328 
L 163.870255 293.077546 
L 164.736 294.135265 
L 165.601745 294.957555 
L 166.467491 303.068888 
L 167.333236 299.16637 
L 168.198982 303.375185 
L 169.064727 296.650817 
L 169.930473 298.755225 
L 170.796218 305.479592 
L 171.661964 286.764323 
L 172.527709 297.061962 
L 173.393455 290.337595 
L 174.2592 302.14175 
L 175.124945 284.143923 
L 175.990691 301.270777 
L 176.856436 297.181513 
L 177.152269 -1 
M 178.293752 -1 
L 178.587927 294.651258 
L 179.453673 293.84367 
L 180.319418 292.561553 
L 181.185164 301.270777 
L 182.050909 290.442443 
L 182.916655 290.666841 
L 183.7824 299.405471 
L 184.648145 296.650817 
L 185.513891 303.375185 
L 186.379636 295.301504 
L 187.245382 298.860073 
L 188.111127 288.696687 
L 188.976873 300.96448 
L 189.842618 290.165551 
L 190.708364 297.061962 
L 191.574109 292.450249 
L 192.439855 294.135265 
L 193.3056 300.859632 
L 194.171345 288.854028 
L 195.037091 299.16637 
L 195.902836 295.301504 
L 196.768582 297.181513 
L 197.634327 282.675059 
L 198.500073 297.181513 
L 199.365818 292.135705 
L 200.231564 301.270777 
L 201.097309 290.74874 
L 202.8288 299.16637 
L 203.694545 299.390768 
L 204.186959 -1 
M 204.932225 -1 
L 205.426036 301.375625 
L 206.291782 290.457145 
L 207.157527 293.092248 
L 208.023273 297.181513 
L 208.889018 298.860073 
L 209.754764 292.269958 
L 210.620509 301.270777 
L 211.486255 297.061962 
L 212.352 298.874775 
L 213.217745 295.301504 
L 214.083491 285.956736 
L 214.949236 299.390768 
L 215.814982 302.96404 
L 216.680727 280.451101 
L 217.546473 293.287241 
L 218.412218 288.854028 
L 219.277964 294.54641 
L 220.143709 300.979183 
L 221.009455 288.061143 
L 221.8752 298.979623 
L 222.740945 299.271218 
L 223.606691 288.338035 
L 224.472436 300.979183 
L 225.338182 294.464511 
L 226.203927 299.16637 
L 227.069673 288.763883 
L 227.935418 297.932935 
L 228.801164 284.659916 
L 229.666909 283.957176 
L 229.848527 -1 
M 231.210245 -1 
L 231.3984 297.061962 
L 232.264145 300.448488 
L 233.129891 284.659916 
L 233.995636 300.672886 
L 234.861382 294.068069 
L 235.727127 298.979623 
L 236.592873 288.457586 
L 237.458618 295.077105 
L 238.324364 303.08359 
L 239.190109 299.390768 
L 240.055855 288.763883 
L 240.9216 284.047321 
L 241.787345 295.196656 
L 242.653091 294.54641 
L 243.518836 289.754406 
L 244.384582 288.973578 
L 245.250327 290.853588 
L 246.116073 298.568478 
L 246.981818 295.062403 
L 248.713309 295.077105 
L 249.579055 293.092248 
L 250.4448 294.158214 
L 251.310545 290.561993 
L 252.176291 296.650817 
L 253.042036 298.874775 
L 253.907782 298.874775 
L 254.773527 305.479592 
L 255.639273 294.66596 
L 256.505018 303.08359 
L 256.924189 -1 
M 257.831235 -1 
L 258.236509 284.12922 
L 259.102255 303.08359 
L 259.968 294.770808 
L 260.833745 296.755665 
L 261.699491 293.077546 
L 262.565236 292.771249 
L 263.430982 290.86829 
L 264.296727 297.271658 
L 265.162473 292.666401 
L 266.028218 297.16681 
L 266.893964 287.635296 
L 267.759709 302.777293 
L 268.625455 299.376066 
L 269.4912 298.34408 
L 270.356945 303.375185 
L 271.222691 296.650817 
L 272.088436 291.432966 
L 272.954182 283.852328 
L 273.819927 294.770808 
L 274.685673 290.457145 
L 275.551418 297.16681 
L 276.417164 281.546471 
L 277.282909 294.651258 
L 278.148655 297.16681 
L 279.880145 288.763883 
L 280.745891 298.874775 
L 281.611636 290.987841 
L 282.477382 296.860513 
L 282.657073 -1 
M 284.025193 -1 
L 284.208873 305.25216 
L 285.074618 290.881746 
L 285.940364 297.979609 
L 286.806109 295.129497 
L 287.671855 294.374223 
L 289.403345 299.656025 
L 290.269091 301.081697 
L 291.134836 301.765208 
L 292.000582 295.957534 
L 292.866327 297.308773 
L 293.732073 294.105333 
L 294.597818 294.679858 
L 295.463564 302.966619 
L 296.329309 300.697271 
L 297.195055 292.766053 
L 298.0608 301.150152 
L 299.792291 296.19515 
L 300.658036 295.270507 
L 301.523782 298.141169 
L 302.389527 298.450935 
L 303.255273 300.967379 
L 304.121018 297.581619 
L 304.986764 301.915488 
L 305.852509 296.453473 
L 306.718255 301.928438 
L 307.584 300.118791 
L 308.449745 297.442182 
L 309.315491 295.949724 
L 309.434574 -1 
M 310.926653 -1 
L 311.046982 299.557571 
L 311.912727 300.554592 
L 312.778473 296.451189 
L 313.644218 298.219072 
L 314.509964 293.361614 
L 315.375709 293.922559 
L 316.241455 298.20734 
L 317.1072 298.953795 
L 317.972945 303.224558 
L 318.838691 302.58404 
L 319.704436 295.808892 
L 320.570182 292.063209 
L 321.435927 296.865371 
L 322.301673 294.323792 
L 323.167418 301.967137 
L 324.033164 296.852422 
L 324.898909 297.940473 
L 325.764655 293.705672 
L 326.6304 294.710502 
L 327.496145 296.400758 
L 328.361891 295.656328 
L 329.227636 301.07985 
L 330.093382 295.736515 
L 331.824873 295.33047 
L 333.556364 297.834646 
L 334.422109 300.041846 
L 335.287855 298.632749 
L 336.1536 293.875318 
L 336.302143 -1 
M 337.733675 -1 
L 337.885091 300.788738 
L 338.750836 297.695483 
L 339.616582 301.441879 
L 340.482327 302.452027 
L 341.348073 302.298067 
L 342.213818 305.686565 
L 343.079564 296.5535 
L 343.945309 298.21314 
L 344.811055 297.670802 
L 345.6768 298.544071 
L 346.542545 301.829984 
L 347.408291 296.725935 
L 348.274036 297.956775 
L 349.139782 302.375971 
L 350.005527 302.724872 
L 350.871273 301.863662 
L 351.737018 296.605148 
L 353.468509 301.780005 
L 354.334255 301.170881 
L 355.2 302.686173 
L 356.065745 302.524613 
L 356.931491 298.352303 
L 357.797236 302.071731 
L 358.662982 296.196315 
L 359.528727 304.635434 
L 360.394473 305.9053 
L 361.260218 299.967896 
L 362.125964 299.585932 
L 362.366915 -1 
M 363.616206 -1 
L 363.857455 300.099199 
L 364.7232 298.437807 
L 365.588945 300.05708 
L 366.454691 304.622307 
L 367.320436 300.418672 
L 368.186182 300.827437 
L 369.051927 299.427227 
L 369.917673 303.491877 
L 370.783418 302.52993 
L 371.649164 298.42468 
L 372.514909 297.04709 
L 373.380655 293.427785 
L 374.2464 300.15749 
L 375.112145 301.199241 
L 375.977891 299.534559 
L 376.843636 301.147088 
L 377.709382 299.866722 
L 378.575127 295.007416 
L 379.440873 299.149242 
L 380.306618 296.339499 
L 381.172364 300.04413 
L 382.038109 300.418672 
L 382.903855 296.837011 
L 383.7696 300.27784 
L 384.635345 298.482538 
L 385.501091 303.581061 
L 386.366836 301.24922 
L 387.232582 301.660614 
L 388.098327 293.837507 
L 388.964073 303.354725 
L 389.107851 -1 
M 390.552145 -1 
L 390.695564 302.440747 
L 391.561309 301.391899 
L 392.427055 306.147047 
L 393.2928 303.048202 
L 394.158545 298.146695 
L 395.024291 303.445577 
L 395.890036 299.351171 
L 396.755782 303.185354 
L 397.621527 299.492181 
L 398.487273 295.182718 
L 398.487273 295.182718 
" style="fill:none;stroke:#1f77b4;stroke-linecap:square;stroke-width:1.5;"/>
   </g>
   <g id="line2d_13">
    <path clip-path="url(#p81e609c404)" d="M 74.644976 -1 
L 74.698473 286.583066 
L 75.564218 280.329215 
L 76.429964 271.485581 
L 77.295709 264.94992 
L 78.161455 273.878798 
L 79.0272 256.891643 
L 79.892945 253.938442 
L 80.758691 280.761221 
L 81.624436 266.801614 
L 82.490182 267.260186 
L 83.355927 272.017264 
L 84.221673 256.398895 
L 85.087418 255.005531 
L 85.953164 279.530655 
L 86.818909 262.641095 
L 87.684655 286.900517 
L 88.5504 287.848818 
L 89.416145 273.311752 
L 90.281891 279.860231 
L 91.147636 267.888895 
L 92.013382 299.608441 
L 92.879127 286.264393 
L 93.744873 261.637901 
L 94.610618 288.107998 
L 95.476364 273.146661 
L 96.342109 293.223778 
L 97.207855 268.828329 
L 98.0736 274.94043 
L 98.939345 273.664894 
L 99.014471 -1 
M 100.599297 -1 
L 100.670836 259.37246 
L 101.536582 240.76741 
L 102.402327 279.841911 
L 103.268073 268.706321 
L 104.133818 274.005022 
L 104.999564 267.623828 
L 105.865309 203.506327 
L 106.731055 274.5813 
L 107.5968 294.147357 
L 108.462545 238.470302 
L 109.328291 280.53647 
L 110.194036 235.413646 
L 111.059782 274.158727 
L 111.925527 232.603239 
L 112.791273 265.566785 
L 113.657018 286.038427 
L 114.522764 265.960924 
L 115.388509 228.545427 
L 116.254255 251.881435 
L 117.12 255.273225 
L 117.985745 264.580814 
L 118.851491 257.79711 
L 119.717236 278.280414 
L 120.582982 269.996713 
L 121.448727 256.506178 
L 122.314473 279.212377 
L 123.180218 254.129757 
L 124.045964 251.646644 
L 124.911709 258.72799 
L 125.777455 262.932863 
L 125.939937 -1 
M 127.338222 -1 
L 127.508945 279.608007 
L 128.374691 252.707512 
L 130.106182 292.210621 
L 130.971927 265.774701 
L 131.837673 290.825389 
L 132.703418 257.820379 
L 133.569164 271.940597 
L 134.434909 279.273442 
L 135.300655 244.140986 
L 136.1664 257.32675 
L 137.032145 291.604945 
L 137.897891 242.438903 
L 138.763636 263.491694 
L 139.629382 257.411976 
L 140.495127 256.163035 
L 141.360873 275.733996 
L 143.958109 258.512652 
L 144.823855 244.433255 
L 145.6896 286.13167 
L 146.555345 256.77648 
L 147.421091 296.306098 
L 148.286836 272.790337 
L 149.152582 278.107595 
L 150.018327 276.932262 
L 150.884073 284.994227 
L 151.749818 253.027646 
L 152.615564 263.488086 
L 152.673998 -1 
M 154.287298 -1 
L 154.347055 269.914813 
L 155.2128 257.500839 
L 156.078545 274.461546 
L 156.944291 264.495774 
L 157.810036 257.789886 
L 158.675782 263.990804 
L 159.541527 278.416249 
L 160.407273 285.393022 
L 161.273018 234.542326 
L 162.138764 225.316137 
L 163.004509 285.940213 
L 163.870255 257.793495 
L 165.601745 263.646496 
L 166.467491 291.872313 
L 167.333236 278.783079 
L 168.198982 293.274028 
L 169.064727 270.763228 
L 169.930473 277.974938 
L 170.796218 300.56517 
L 171.661964 238.144132 
L 172.527709 272.489848 
L 173.393455 250.722603 
L 174.2592 289.630017 
L 175.124945 232.0296 
L 175.990691 287.278782 
L 176.856436 273.845614 
L 176.940511 -1 
M 178.506125 -1 
L 178.587927 265.639237 
L 179.453673 263.570975 
L 180.319418 259.642866 
L 181.185164 287.410098 
L 182.050909 252.99157 
L 182.916655 253.306987 
L 183.7824 281.344007 
L 184.648145 272.505977 
L 185.513891 294.197443 
L 186.379636 268.942038 
L 187.245382 280.11497 
L 188.111127 247.70555 
L 188.976873 286.637854 
L 189.842618 252.466802 
L 190.708364 274.289117 
L 191.574109 259.457158 
L 192.439855 265.005306 
L 193.3056 285.72846 
L 194.171345 248.041421 
L 195.037091 280.985972 
L 195.902836 268.773767 
L 196.768582 274.714221 
L 197.634327 229.150728 
L 198.500073 274.675731 
L 199.365818 259.107251 
L 200.231564 287.947983 
L 201.097309 255.098393 
L 202.8288 281.341197 
L 203.694545 282.203825 
L 203.845635 -1 
M 205.272225 -1 
L 205.426036 288.408193 
L 206.291782 254.45136 
L 207.157527 262.145113 
L 208.023273 274.967002 
L 208.889018 280.230127 
L 209.754764 259.257479 
L 210.620509 287.614646 
L 211.486255 274.734199 
L 212.352 280.475667 
L 213.217745 269.15821 
L 214.083491 239.923104 
L 214.949236 281.951474 
L 215.814982 293.12907 
L 216.680727 221.575424 
L 217.546473 262.230391 
L 218.412218 248.232462 
L 220.143709 286.870633 
L 221.009455 246.358368 
L 221.8752 280.662627 
L 222.740945 281.670564 
L 223.606691 246.612784 
L 224.472436 286.833646 
L 225.338182 266.457027 
L 226.203927 281.196414 
L 227.069673 248.586697 
L 227.935418 277.72457 
L 228.801164 236.2901 
L 229.666909 233.787979 
L 229.714886 -1 
M 231.342554 -1 
L 231.3984 274.947795 
L 232.264145 285.45178 
L 233.129891 236.480366 
L 233.995636 286.166457 
L 234.861382 265.004762 
L 235.727127 280.327056 
L 236.592873 246.735224 
L 237.458618 267.682005 
L 238.324364 293.225894 
L 239.190109 281.444314 
L 240.055855 247.5403 
L 240.9216 232.186606 
L 241.787345 268.16995 
L 242.653091 266.170094 
L 243.518836 250.014025 
L 244.384582 247.492811 
L 245.250327 253.563172 
L 246.116073 278.849729 
L 246.981818 267.637599 
L 248.713309 267.777055 
L 249.579055 261.250971 
L 250.4448 264.659076 
L 251.310545 253.161239 
L 252.176291 272.656854 
L 253.042036 279.997531 
L 253.907782 280.063722 
L 254.773527 300.920183 
L 255.639273 266.880551 
L 256.505018 293.40366 
L 256.633815 -1 
M 258.130723 -1 
L 258.236509 233.483312 
L 259.102255 293.365856 
L 259.968 266.72145 
L 260.833745 273.051357 
L 261.699491 260.758616 
L 262.565236 259.769919 
L 263.430982 253.62736 
L 264.296727 274.339072 
L 265.162473 259.233078 
L 266.028218 273.48333 
L 266.893964 242.222071 
L 267.759709 291.519025 
L 268.625455 280.151441 
L 269.4912 276.702339 
L 270.356945 293.45122 
L 271.222691 270.025237 
L 272.088436 252.357154 
L 272.954182 225.873482 
L 273.819927 264.111402 
L 274.685673 249.476006 
L 275.551418 272.240557 
L 276.417164 219.548514 
L 277.282909 263.017769 
L 278.148655 271.354055 
L 279.880145 242.588725 
L 280.745891 277.506693 
L 281.611636 250.269164 
L 282.477382 270.400309 
L 282.523972 -1 
M 284.15761 -1 
L 284.208873 299.335814 
L 285.074618 247.828346 
L 285.940364 273.55468 
L 286.806109 263.456448 
L 287.671855 260.780439 
L 289.403345 280.071548 
L 290.269091 285.108141 
L 291.134836 287.470765 
L 292.000582 267.970304 
L 292.866327 272.574246 
L 293.732073 261.659484 
L 294.597818 262.997609 
L 295.463564 291.612018 
L 296.329309 283.879879 
L 297.195055 257.245953 
L 298.0608 285.875554 
L 299.792291 269.156882 
L 300.658036 265.821557 
L 301.523782 275.9779 
L 302.389527 276.881374 
L 303.255273 285.070946 
L 304.121018 273.470878 
L 304.986764 288.251541 
L 305.852509 269.623337 
L 306.718255 288.30532 
L 307.584 282.191091 
L 308.449745 272.688033 
L 309.315491 268.161256 
L 309.347756 -1 
M 311.013268 -1 
L 311.046982 280.730781 
L 311.912727 284.066413 
L 312.778473 270.370353 
L 313.644218 276.291094 
L 314.509964 259.593401 
L 315.375709 261.057232 
L 316.241455 275.198893 
L 317.1072 277.776999 
L 317.972945 292.527361 
L 318.838691 290.511637 
L 319.704436 267.540389 
L 320.570182 254.218866 
L 321.435927 270.64439 
L 322.301673 262.031206 
L 323.167418 288.288389 
L 324.033164 270.717809 
L 324.898909 274.822046 
L 325.764655 260.467075 
L 326.6304 263.942841 
L 327.496145 269.604591 
L 328.361891 266.398943 
L 329.227636 285.125821 
L 330.093382 266.67582 
L 330.959127 265.740147 
L 331.824873 265.04097 
L 333.556364 274.589261 
L 334.422109 282.106605 
L 335.287855 277.346675 
L 336.1536 261.276071 
L 336.193032 -1 
M 337.842286 -1 
L 337.885091 284.874234 
L 338.750836 274.495046 
L 339.616582 286.978411 
L 340.482327 290.775762 
L 341.348073 290.271514 
L 342.213818 301.369522 
L 343.079564 271.61795 
L 343.945309 276.622681 
L 344.811055 274.954708 
L 345.6768 277.575956 
L 346.542545 288.479517 
L 347.408291 271.533052 
L 348.274036 275.619686 
L 349.139782 290.366775 
L 350.005527 291.425942 
L 350.871273 288.56216 
L 351.737018 271.478949 
L 353.468509 288.463318 
L 354.334255 286.45662 
L 355.2 291.524025 
L 356.065745 291.070665 
L 356.931491 277.592063 
L 357.797236 289.569907 
L 358.662982 270.494309 
L 359.528727 297.980521 
L 360.394473 302.116475 
L 361.260218 282.690764 
L 362.125964 281.12559 
L 362.193676 -1 
M 363.789412 -1 
L 363.857455 282.619944 
L 364.7232 277.037547 
L 365.588945 282.445592 
L 366.454691 297.692538 
L 367.320436 283.737071 
L 368.186182 284.819113 
L 369.051927 280.703354 
L 369.917673 294.252683 
L 370.783418 291.315454 
L 371.649164 278.101065 
L 372.514909 273.666741 
L 373.380655 262.14538 
L 374.2464 284.056817 
L 375.112145 287.247266 
L 375.977891 282.525285 
L 376.843636 287.496328 
L 377.709382 283.500692 
L 378.575127 268.336257 
L 379.440873 281.006923 
L 380.306618 272.016518 
L 381.172364 283.387051 
L 382.038109 284.861311 
L 382.903855 273.000189 
L 383.7696 284.072777 
L 384.635345 278.295495 
L 385.501091 294.720155 
L 386.366836 287.194245 
L 387.232582 288.489373 
L 388.098327 263.897646 
L 388.964073 294.131098 
L 389.007903 -1 
M 390.652143 -1 
L 390.695564 291.223825 
L 391.561309 287.872686 
L 392.427055 303.000696 
L 393.2928 293.230013 
L 394.158545 277.99522 
L 395.024291 294.576938 
L 395.890036 281.708219 
L 396.755782 293.759057 
L 397.621527 282.09396 
L 398.487273 268.278137 
L 398.487273 268.278137 
" style="fill:none;stroke:#ff7f0e;stroke-linecap:square;stroke-width:1.5;"/>
   </g>
   <g id="patch_3">
    <path d="M 57.6 307.584 
L 57.6 41.472 
" style="fill:none;stroke:#000000;stroke-linecap:square;stroke-linejoin:miter;stroke-width:0.8;"/>
   </g>
   <g id="patch_4">
    <path d="M 414.72 307.584 
L 414.72 41.472 
" style="fill:none;stroke:#000000;stroke-linecap:square;stroke-linejoin:miter;stroke-width:0.8;"/>
   </g>
   <g id="patch_5">
    <path d="M 57.6 307.584 
L 414.72 307.584 
" style="fill:none;stroke:#000000;stroke-linecap:square;stroke-linejoin:miter;stroke-width:0.8;"/>
   </g>
   <g id="patch_6">
    <path d="M 57.6 41.472 
L 414.72 41.472 
" style="fill:none;stroke:#000000;stroke-linecap:square;stroke-linejoin:miter;stroke-width:0.8;"/>
   </g>
   <g id="text_14">
    <!-- Całkowita sprzedaż w okresie 2011-10-01 - 2012-10-10 -->
    <g transform="translate(82.95 35.472)scale(0.12 -0.12)">
     <defs>
      <path d="M 64.40625 67.28125 
L 64.40625 56.890625 
Q 59.421875 61.53125 53.78125 63.8125 
Q 48.140625 66.109375 41.796875 66.109375 
Q 29.296875 66.109375 22.65625 58.46875 
Q 16.015625 50.828125 16.015625 36.375 
Q 16.015625 21.96875 22.65625 14.328125 
Q 29.296875 6.6875 41.796875 6.6875 
Q 48.140625 6.6875 53.78125 8.984375 
Q 59.421875 11.28125 64.40625 15.921875 
L 64.40625 5.609375 
Q 59.234375 2.09375 53.4375 0.328125 
Q 47.65625 -1.421875 41.21875 -1.421875 
Q 24.65625 -1.421875 15.125 8.703125 
Q 5.609375 18.84375 5.609375 36.375 
Q 5.609375 53.953125 15.125 64.078125 
Q 24.65625 74.21875 41.21875 74.21875 
Q 47.75 74.21875 53.53125 72.484375 
Q 59.328125 70.75 64.40625 67.28125 
z
" id="DejaVuSans-67"/>
      <path d="M 9.71875 75.984375 
L 18.703125 75.984375 
L 18.703125 46.578125 
L 24.8125 50.984375 
L 28.515625 45.796875 
L 18.703125 38.921875 
L 18.703125 0 
L 9.71875 0 
L 9.71875 32.515625 
L 3.71875 28.21875 
L 0.09375 33.40625 
L 9.71875 40.28125 
z
" id="DejaVuSans-322"/>
      <path d="M 9.078125 75.984375 
L 18.109375 75.984375 
L 18.109375 31.109375 
L 44.921875 54.6875 
L 56.390625 54.6875 
L 27.390625 29.109375 
L 57.625 0 
L 45.90625 0 
L 18.109375 26.703125 
L 18.109375 0 
L 9.078125 0 
z
" id="DejaVuSans-107"/>
      <path d="M 30.609375 48.390625 
Q 23.390625 48.390625 19.1875 42.75 
Q 14.984375 37.109375 14.984375 27.296875 
Q 14.984375 17.484375 19.15625 11.84375 
Q 23.34375 6.203125 30.609375 6.203125 
Q 37.796875 6.203125 41.984375 11.859375 
Q 46.1875 17.53125 46.1875 27.296875 
Q 46.1875 37.015625 41.984375 42.703125 
Q 37.796875 48.390625 30.609375 48.390625 
z
M 30.609375 56 
Q 42.328125 56 49.015625 48.375 
Q 55.71875 40.765625 55.71875 27.296875 
Q 55.71875 13.875 49.015625 6.21875 
Q 42.328125 -1.421875 30.609375 -1.421875 
Q 18.84375 -1.421875 12.171875 6.21875 
Q 5.515625 13.875 5.515625 27.296875 
Q 5.515625 40.765625 12.171875 48.375 
Q 18.84375 56 30.609375 56 
z
" id="DejaVuSans-111"/>
      <path d="M 4.203125 54.6875 
L 13.1875 54.6875 
L 24.421875 12.015625 
L 35.59375 54.6875 
L 46.1875 54.6875 
L 57.421875 12.015625 
L 68.609375 54.6875 
L 77.59375 54.6875 
L 63.28125 0 
L 52.6875 0 
L 40.921875 44.828125 
L 29.109375 0 
L 18.5 0 
z
" id="DejaVuSans-119"/>
      <path d="M 9.421875 54.6875 
L 18.40625 54.6875 
L 18.40625 0 
L 9.421875 0 
z
M 9.421875 75.984375 
L 18.40625 75.984375 
L 18.40625 64.59375 
L 9.421875 64.59375 
z
" id="DejaVuSans-105"/>
      <path id="DejaVuSans-32"/>
      <path d="M 44.28125 53.078125 
L 44.28125 44.578125 
Q 40.484375 46.53125 36.375 47.5 
Q 32.28125 48.484375 27.875 48.484375 
Q 21.1875 48.484375 17.84375 46.4375 
Q 14.5 44.390625 14.5 40.28125 
Q 14.5 37.15625 16.890625 35.375 
Q 19.28125 33.59375 26.515625 31.984375 
L 29.59375 31.296875 
Q 39.15625 29.25 43.1875 25.515625 
Q 47.21875 21.78125 47.21875 15.09375 
Q 47.21875 7.46875 41.1875 3.015625 
Q 35.15625 -1.421875 24.609375 -1.421875 
Q 20.21875 -1.421875 15.453125 -0.5625 
Q 10.6875 0.296875 5.421875 2 
L 5.421875 11.28125 
Q 10.40625 8.6875 15.234375 7.390625 
Q 20.0625 6.109375 24.8125 6.109375 
Q 31.15625 6.109375 34.5625 8.28125 
Q 37.984375 10.453125 37.984375 14.40625 
Q 37.984375 18.0625 35.515625 20.015625 
Q 33.0625 21.96875 24.703125 23.78125 
L 21.578125 24.515625 
Q 13.234375 26.265625 9.515625 29.90625 
Q 5.8125 33.546875 5.8125 39.890625 
Q 5.8125 47.609375 11.28125 51.796875 
Q 16.75 56 26.8125 56 
Q 31.78125 56 36.171875 55.265625 
Q 40.578125 54.546875 44.28125 53.078125 
z
" id="DejaVuSans-115"/>
      <path d="M 18.109375 8.203125 
L 18.109375 -20.796875 
L 9.078125 -20.796875 
L 9.078125 54.6875 
L 18.109375 54.6875 
L 18.109375 46.390625 
Q 20.953125 51.265625 25.265625 53.625 
Q 29.59375 56 35.59375 56 
Q 45.5625 56 51.78125 48.09375 
Q 58.015625 40.1875 58.015625 27.296875 
Q 58.015625 14.40625 51.78125 6.484375 
Q 45.5625 -1.421875 35.59375 -1.421875 
Q 29.59375 -1.421875 25.265625 0.953125 
Q 20.953125 3.328125 18.109375 8.203125 
z
M 48.6875 27.296875 
Q 48.6875 37.203125 44.609375 42.84375 
Q 40.53125 48.484375 33.40625 48.484375 
Q 26.265625 48.484375 22.1875 42.84375 
Q 18.109375 37.203125 18.109375 27.296875 
Q 18.109375 17.390625 22.1875 11.75 
Q 26.265625 6.109375 33.40625 6.109375 
Q 40.53125 6.109375 44.609375 11.75 
Q 48.6875 17.390625 48.6875 27.296875 
z
" id="DejaVuSans-112"/>
      <path d="M 41.109375 46.296875 
Q 39.59375 47.171875 37.8125 47.578125 
Q 36.03125 48 33.890625 48 
Q 26.265625 48 22.1875 43.046875 
Q 18.109375 38.09375 18.109375 28.8125 
L 18.109375 0 
L 9.078125 0 
L 9.078125 54.6875 
L 18.109375 54.6875 
L 18.109375 46.1875 
Q 20.953125 51.171875 25.484375 53.578125 
Q 30.03125 56 36.53125 56 
Q 37.453125 56 38.578125 55.875 
Q 39.703125 55.765625 41.0625 55.515625 
z
" id="DejaVuSans-114"/>
      <path d="M 5.515625 54.6875 
L 48.1875 54.6875 
L 48.1875 46.484375 
L 14.40625 7.171875 
L 48.1875 7.171875 
L 48.1875 0 
L 4.296875 0 
L 4.296875 8.203125 
L 38.09375 47.515625 
L 5.515625 47.515625 
z
" id="DejaVuSans-122"/>
      <path d="M 56.203125 29.59375 
L 56.203125 25.203125 
L 14.890625 25.203125 
Q 15.484375 15.921875 20.484375 11.0625 
Q 25.484375 6.203125 34.421875 6.203125 
Q 39.59375 6.203125 44.453125 7.46875 
Q 49.3125 8.734375 54.109375 11.28125 
L 54.109375 2.78125 
Q 49.265625 0.734375 44.1875 -0.34375 
Q 39.109375 -1.421875 33.890625 -1.421875 
Q 20.796875 -1.421875 13.15625 6.1875 
Q 5.515625 13.8125 5.515625 26.8125 
Q 5.515625 40.234375 12.765625 48.109375 
Q 20.015625 56 32.328125 56 
Q 43.359375 56 49.78125 48.890625 
Q 56.203125 41.796875 56.203125 29.59375 
z
M 47.21875 32.234375 
Q 47.125 39.59375 43.09375 43.984375 
Q 39.0625 48.390625 32.421875 48.390625 
Q 24.90625 48.390625 20.390625 44.140625 
Q 15.875 39.890625 15.1875 32.171875 
z
" id="DejaVuSans-101"/>
      <path d="M 45.40625 46.390625 
L 45.40625 75.984375 
L 54.390625 75.984375 
L 54.390625 0 
L 45.40625 0 
L 45.40625 8.203125 
Q 42.578125 3.328125 38.25 0.953125 
Q 33.9375 -1.421875 27.875 -1.421875 
Q 17.96875 -1.421875 11.734375 6.484375 
Q 5.515625 14.40625 5.515625 27.296875 
Q 5.515625 40.1875 11.734375 48.09375 
Q 17.96875 56 27.875 56 
Q 33.9375 56 38.25 53.625 
Q 42.578125 51.265625 45.40625 46.390625 
z
M 14.796875 27.296875 
Q 14.796875 17.390625 18.875 11.75 
Q 22.953125 6.109375 30.078125 6.109375 
Q 37.203125 6.109375 41.296875 11.75 
Q 45.40625 17.390625 45.40625 27.296875 
Q 45.40625 37.203125 41.296875 42.84375 
Q 37.203125 48.484375 30.078125 48.484375 
Q 22.953125 48.484375 18.875 42.84375 
Q 14.796875 37.203125 14.796875 27.296875 
z
" id="DejaVuSans-100"/>
      <path d="M 21.53125 75.984375 
L 30.515625 75.984375 
L 30.515625 64.59375 
L 21.53125 64.59375 
z
M 26.125 56 
z
M 5.515625 54.6875 
L 48.1875 54.6875 
L 48.1875 46.484375 
L 14.40625 7.171875 
L 48.1875 7.171875 
L 48.1875 0 
L 4.296875 0 
L 4.296875 8.203125 
L 38.09375 47.515625 
L 5.515625 47.515625 
z
" id="DejaVuSans-380"/>
     </defs>
     <use xlink:href="#DejaVuSans-67"/>
     <use x="69.824219" xlink:href="#DejaVuSans-97"/>
     <use x="131.103516" xlink:href="#DejaVuSans-322"/>
     <use x="159.521484" xlink:href="#DejaVuSans-107"/>
     <use x="213.806641" xlink:href="#DejaVuSans-111"/>
     <use x="274.988281" xlink:href="#DejaVuSans-119"/>
     <use x="356.775391" xlink:href="#DejaVuSans-105"/>
     <use x="384.558594" xlink:href="#DejaVuSans-116"/>
     <use x="423.767578" xlink:href="#DejaVuSans-97"/>
     <use x="485.046875" xlink:href="#DejaVuSans-32"/>
     <use x="516.833984" xlink:href="#DejaVuSans-115"/>
     <use x="568.933594" xlink:href="#DejaVuSans-112"/>
     <use x="632.410156" xlink:href="#DejaVuSans-114"/>
     <use x="673.523438" xlink:href="#DejaVuSans-122"/>
     <use x="726.013672" xlink:href="#DejaVuSans-101"/>
     <use x="787.537109" xlink:href="#DejaVuSans-100"/>
     <use x="851.013672" xlink:href="#DejaVuSans-97"/>
     <use x="912.292969" xlink:href="#DejaVuSans-380"/>
     <use x="964.783203" xlink:href="#DejaVuSans-32"/>
     <use x="996.570312" xlink:href="#DejaVuSans-119"/>
     <use x="1078.357422" xlink:href="#DejaVuSans-32"/>
     <use x="1110.144531" xlink:href="#DejaVuSans-111"/>
     <use x="1171.326172" xlink:href="#DejaVuSans-107"/>
     <use x="1229.236328" xlink:href="#DejaVuSans-114"/>
     <use x="1268.099609" xlink:href="#DejaVuSans-101"/>
     <use x="1329.623047" xlink:href="#DejaVuSans-115"/>
     <use x="1381.722656" xlink:href="#DejaVuSans-105"/>
     <use x="1409.505859" xlink:href="#DejaVuSans-101"/>
     <use x="1471.029297" xlink:href="#DejaVuSans-32"/>
     <use x="1502.816406" xlink:href="#DejaVuSans-50"/>
     <use x="1566.439453" xlink:href="#DejaVuSans-48"/>
     <use x="1630.0625" xlink:href="#DejaVuSans-49"/>
     <use x="1693.685547" xlink:href="#DejaVuSans-49"/>
     <use x="1757.308594" xlink:href="#DejaVuSans-45"/>
     <use x="1793.392578" xlink:href="#DejaVuSans-49"/>
     <use x="1857.015625" xlink:href="#DejaVuSans-48"/>
     <use x="1920.638672" xlink:href="#DejaVuSans-45"/>
     <use x="1956.722656" xlink:href="#DejaVuSans-48"/>
     <use x="2020.345703" xlink:href="#DejaVuSans-49"/>
     <use x="2083.96875" xlink:href="#DejaVuSans-32"/>
     <use x="2115.755859" xlink:href="#DejaVuSans-45"/>
     <use x="2151.839844" xlink:href="#DejaVuSans-32"/>
     <use x="2183.626953" xlink:href="#DejaVuSans-50"/>
     <use x="2247.25" xlink:href="#DejaVuSans-48"/>
     <use x="2310.873047" xlink:href="#DejaVuSans-49"/>
     <use x="2374.496094" xlink:href="#DejaVuSans-50"/>
     <use x="2438.119141" xlink:href="#DejaVuSans-45"/>
     <use x="2474.203125" xlink:href="#DejaVuSans-49"/>
     <use x="2537.826172" xlink:href="#DejaVuSans-48"/>
     <use x="2601.449219" xlink:href="#DejaVuSans-45"/>
     <use x="2637.533203" xlink:href="#DejaVuSans-49"/>
     <use x="2701.15625" xlink:href="#DejaVuSans-48"/>
    </g>
   </g>
   <g id="legend_1">
    <g id="patch_7">
     <path d="M 64.6 64.150125 
L 379.0125 64.150125 
Q 381.0125 64.150125 381.0125 62.150125 
L 381.0125 48.472 
Q 381.0125 46.472 379.0125 46.472 
L 64.6 46.472 
Q 62.6 46.472 62.6 48.472 
L 62.6 62.150125 
Q 62.6 64.150125 64.6 64.150125 
z
" style="fill:#ffffff;opacity:0.8;stroke:#cccccc;stroke-linejoin:miter;"/>
    </g>
    <g id="line2d_14">
     <path d="M 66.6 54.570438 
L 86.6 54.570438 
" style="fill:none;stroke:#1f77b4;stroke-linecap:square;stroke-width:1.5;"/>
    </g>
    <g id="line2d_15"/>
    <g id="text_15">
     <!-- Suma sprzedaży w USD -->
     <g transform="translate(94.6 58.070438)scale(0.1 -0.1)">
      <defs>
       <path d="M 32.171875 -5.078125 
Q 28.375 -14.84375 24.75 -17.8125 
Q 21.140625 -20.796875 15.09375 -20.796875 
L 7.90625 -20.796875 
L 7.90625 -13.28125 
L 13.1875 -13.28125 
Q 16.890625 -13.28125 18.9375 -11.515625 
Q 21 -9.765625 23.484375 -3.21875 
L 25.09375 0.875 
L 2.984375 54.6875 
L 12.5 54.6875 
L 29.59375 11.921875 
L 46.6875 54.6875 
L 56.203125 54.6875 
z
" id="DejaVuSans-121"/>
       <path d="M 8.6875 72.90625 
L 18.609375 72.90625 
L 18.609375 28.609375 
Q 18.609375 16.890625 22.84375 11.734375 
Q 27.09375 6.59375 36.625 6.59375 
Q 46.09375 6.59375 50.34375 11.734375 
Q 54.59375 16.890625 54.59375 28.609375 
L 54.59375 72.90625 
L 64.5 72.90625 
L 64.5 27.390625 
Q 64.5 13.140625 57.4375 5.859375 
Q 50.390625 -1.421875 36.625 -1.421875 
Q 22.796875 -1.421875 15.734375 5.859375 
Q 8.6875 13.140625 8.6875 27.390625 
z
" id="DejaVuSans-85"/>
      </defs>
      <use xlink:href="#DejaVuSans-83"/>
      <use x="63.476562" xlink:href="#DejaVuSans-117"/>
      <use x="126.855469" xlink:href="#DejaVuSans-109"/>
      <use x="224.267578" xlink:href="#DejaVuSans-97"/>
      <use x="285.546875" xlink:href="#DejaVuSans-32"/>
      <use x="317.333984" xlink:href="#DejaVuSans-115"/>
      <use x="369.433594" xlink:href="#DejaVuSans-112"/>
      <use x="432.910156" xlink:href="#DejaVuSans-114"/>
      <use x="474.023438" xlink:href="#DejaVuSans-122"/>
      <use x="526.513672" xlink:href="#DejaVuSans-101"/>
      <use x="588.037109" xlink:href="#DejaVuSans-100"/>
      <use x="651.513672" xlink:href="#DejaVuSans-97"/>
      <use x="712.792969" xlink:href="#DejaVuSans-380"/>
      <use x="765.283203" xlink:href="#DejaVuSans-121"/>
      <use x="824.462891" xlink:href="#DejaVuSans-32"/>
      <use x="856.25" xlink:href="#DejaVuSans-119"/>
      <use x="938.037109" xlink:href="#DejaVuSans-32"/>
      <use x="969.824219" xlink:href="#DejaVuSans-85"/>
      <use x="1043.017578" xlink:href="#DejaVuSans-83"/>
      <use x="1106.494141" xlink:href="#DejaVuSans-68"/>
     </g>
    </g>
    <g id="line2d_16">
     <path d="M 232.948437 54.570438 
L 252.948437 54.570438 
" style="fill:none;stroke:#ff7f0e;stroke-linecap:square;stroke-width:1.5;"/>
    </g>
    <g id="line2d_17"/>
    <g id="text_16">
     <!-- Suma sprzedaży w PLN -->
     <g transform="translate(260.948437 58.070438)scale(0.1 -0.1)">
      <defs>
       <path d="M 19.671875 64.796875 
L 19.671875 37.40625 
L 32.078125 37.40625 
Q 38.96875 37.40625 42.71875 40.96875 
Q 46.484375 44.53125 46.484375 51.125 
Q 46.484375 57.671875 42.71875 61.234375 
Q 38.96875 64.796875 32.078125 64.796875 
z
M 9.8125 72.90625 
L 32.078125 72.90625 
Q 44.34375 72.90625 50.609375 67.359375 
Q 56.890625 61.8125 56.890625 51.125 
Q 56.890625 40.328125 50.609375 34.8125 
Q 44.34375 29.296875 32.078125 29.296875 
L 19.671875 29.296875 
L 19.671875 0 
L 9.8125 0 
z
" id="DejaVuSans-80"/>
       <path d="M 9.8125 72.90625 
L 19.671875 72.90625 
L 19.671875 8.296875 
L 55.171875 8.296875 
L 55.171875 0 
L 9.8125 0 
z
" id="DejaVuSans-76"/>
       <path d="M 9.8125 72.90625 
L 23.09375 72.90625 
L 55.421875 11.921875 
L 55.421875 72.90625 
L 64.984375 72.90625 
L 64.984375 0 
L 51.703125 0 
L 19.390625 60.984375 
L 19.390625 0 
L 9.8125 0 
z
" id="DejaVuSans-78"/>
      </defs>
      <use xlink:href="#DejaVuSans-83"/>
      <use x="63.476562" xlink:href="#DejaVuSans-117"/>
      <use x="126.855469" xlink:href="#DejaVuSans-109"/>
      <use x="224.267578" xlink:href="#DejaVuSans-97"/>
      <use x="285.546875" xlink:href="#DejaVuSans-32"/>
      <use x="317.333984" xlink:href="#DejaVuSans-115"/>
      <use x="369.433594" xlink:href="#DejaVuSans-112"/>
      <use x="432.910156" xlink:href="#DejaVuSans-114"/>
      <use x="474.023438" xlink:href="#DejaVuSans-122"/>
      <use x="526.513672" xlink:href="#DejaVuSans-101"/>
      <use x="588.037109" xlink:href="#DejaVuSans-100"/>
      <use x="651.513672" xlink:href="#DejaVuSans-97"/>
      <use x="712.792969" xlink:href="#DejaVuSans-380"/>
      <use x="765.283203" xlink:href="#DejaVuSans-121"/>
      <use x="824.462891" xlink:href="#DejaVuSans-32"/>
      <use x="856.25" xlink:href="#DejaVuSans-119"/>
      <use x="938.037109" xlink:href="#DejaVuSans-32"/>
      <use x="969.824219" xlink:href="#DejaVuSans-80"/>
      <use x="1030.126953" xlink:href="#DejaVuSans-76"/>
      <use x="1085.839844" xlink:href="#DejaVuSans-78"/>
     </g>
    </g>
   </g>
  </g>
 </g>
 <defs>
  <clipPath id="p81e609c404">
   <rect height="266.112" width="357.12" x="57.6" y="41.472"/>
  </clipPath>
 </defs>
</svg>
