<?xml version="1.0" encoding="utf-8" standalone="no"?>
<!DOCTYPE svg PUBLIC "-//W3C//DTD SVG 1.1//EN"
  "http://www.w3.org/Graphics/SVG/1.1/DTD/svg11.dtd">
<!-- Created with matplotlib (https://matplotlib.org/) -->
<svg height="720pt" version="1.1" viewBox="0 0 1080 720" width="1080pt" xmlns="http://www.w3.org/2000/svg" xmlns:xlink="http://www.w3.org/1999/xlink">
 <metadata>
  <rdf:RDF xmlns:cc="http://creativecommons.org/ns#" xmlns:dc="http://purl.org/dc/elements/1.1/" xmlns:rdf="http://www.w3.org/1999/02/22-rdf-syntax-ns#">
   <cc:Work>
    <dc:type rdf:resource="http://purl.org/dc/dcmitype/StillImage"/>
    <dc:date>2020-11-02T13:50:02.502001</dc:date>
    <dc:format>image/svg+xml</dc:format>
    <dc:creator>
     <cc:Agent>
      <dc:title>Matplotlib v3.3.2, https://matplotlib.org/</dc:title>
     </cc:Agent>
    </dc:creator>
   </cc:Work>
  </rdf:RDF>
 </metadata>
 <defs>
  <style type="text/css">*{stroke-linecap:butt;stroke-linejoin:round;}</style>
 </defs>
 <g id="figure_1">
  <g id="patch_1">
   <path d="M 0 720 
L 1080 720 
L 1080 0 
L 0 0 
z
" style="fill:#ffffff;"/>
  </g>
  <g id="axes_1">
   <g id="patch_2">
    <path d="M 47.72 640.199373 
L 1069.2 640.199373 
L 1069.2 27.24 
L 47.72 27.24 
z
" style="fill:#ffffff;"/>
   </g>
   <g id="matplotlib.axis_1">
    <g id="xtick_1">
     <g id="line2d_1">
      <defs>
       <path d="M 0 0 
L 0 3.5 
" id="m564a1461b9" style="stroke:#000000;stroke-width:0.8;"/>
      </defs>
      <g>
       <use style="stroke:#000000;stroke-width:0.8;" x="53.107012" xlink:href="#m564a1461b9" y="640.199373"/>
      </g>
     </g>
    </g>
    <g id="xtick_2">
     <g id="line2d_2">
      <g>
       <use style="stroke:#000000;stroke-width:0.8;" x="94.150909" xlink:href="#m564a1461b9" y="640.199373"/>
      </g>
     </g>
     <g id="text_1">
      <!-- 2020-02-18 -->
      <g transform="translate(51.586395 693.666233)rotate(-45)scale(0.1 -0.1)">
       <defs>
        <path d="M 19.1875 8.296875 
L 53.609375 8.296875 
L 53.609375 0 
L 7.328125 0 
L 7.328125 8.296875 
Q 12.9375 14.109375 22.625 23.890625 
Q 32.328125 33.6875 34.8125 36.53125 
Q 39.546875 41.84375 41.421875 45.53125 
Q 43.3125 49.21875 43.3125 52.78125 
Q 43.3125 58.59375 39.234375 62.25 
Q 35.15625 65.921875 28.609375 65.921875 
Q 23.96875 65.921875 18.8125 64.3125 
Q 13.671875 62.703125 7.8125 59.421875 
L 7.8125 69.390625 
Q 13.765625 71.78125 18.9375 73 
Q 24.125 74.21875 28.421875 74.21875 
Q 39.75 74.21875 46.484375 68.546875 
Q 53.21875 62.890625 53.21875 53.421875 
Q 53.21875 48.921875 51.53125 44.890625 
Q 49.859375 40.875 45.40625 35.40625 
Q 44.1875 33.984375 37.640625 27.21875 
Q 31.109375 20.453125 19.1875 8.296875 
z
" id="DejaVuSans-50"/>
        <path d="M 31.78125 66.40625 
Q 24.171875 66.40625 20.328125 58.90625 
Q 16.5 51.421875 16.5 36.375 
Q 16.5 21.390625 20.328125 13.890625 
Q 24.171875 6.390625 31.78125 6.390625 
Q 39.453125 6.390625 43.28125 13.890625 
Q 47.125 21.390625 47.125 36.375 
Q 47.125 51.421875 43.28125 58.90625 
Q 39.453125 66.40625 31.78125 66.40625 
z
M 31.78125 74.21875 
Q 44.046875 74.21875 50.515625 64.515625 
Q 56.984375 54.828125 56.984375 36.375 
Q 56.984375 17.96875 50.515625 8.265625 
Q 44.046875 -1.421875 31.78125 -1.421875 
Q 19.53125 -1.421875 13.0625 8.265625 
Q 6.59375 17.96875 6.59375 36.375 
Q 6.59375 54.828125 13.0625 64.515625 
Q 19.53125 74.21875 31.78125 74.21875 
z
" id="DejaVuSans-48"/>
        <path d="M 4.890625 31.390625 
L 31.203125 31.390625 
L 31.203125 23.390625 
L 4.890625 23.390625 
z
" id="DejaVuSans-45"/>
        <path d="M 12.40625 8.296875 
L 28.515625 8.296875 
L 28.515625 63.921875 
L 10.984375 60.40625 
L 10.984375 69.390625 
L 28.421875 72.90625 
L 38.28125 72.90625 
L 38.28125 8.296875 
L 54.390625 8.296875 
L 54.390625 0 
L 12.40625 0 
z
" id="DejaVuSans-49"/>
        <path d="M 31.78125 34.625 
Q 24.75 34.625 20.71875 30.859375 
Q 16.703125 27.09375 16.703125 20.515625 
Q 16.703125 13.921875 20.71875 10.15625 
Q 24.75 6.390625 31.78125 6.390625 
Q 38.8125 6.390625 42.859375 10.171875 
Q 46.921875 13.96875 46.921875 20.515625 
Q 46.921875 27.09375 42.890625 30.859375 
Q 38.875 34.625 31.78125 34.625 
z
M 21.921875 38.8125 
Q 15.578125 40.375 12.03125 44.71875 
Q 8.5 49.078125 8.5 55.328125 
Q 8.5 64.0625 14.71875 69.140625 
Q 20.953125 74.21875 31.78125 74.21875 
Q 42.671875 74.21875 48.875 69.140625 
Q 55.078125 64.0625 55.078125 55.328125 
Q 55.078125 49.078125 51.53125 44.71875 
Q 48 40.375 41.703125 38.8125 
Q 48.828125 37.15625 52.796875 32.3125 
Q 56.78125 27.484375 56.78125 20.515625 
Q 56.78125 9.90625 50.3125 4.234375 
Q 43.84375 -1.421875 31.78125 -1.421875 
Q 19.734375 -1.421875 13.25 4.234375 
Q 6.78125 9.90625 6.78125 20.515625 
Q 6.78125 27.484375 10.78125 32.3125 
Q 14.796875 37.15625 21.921875 38.8125 
z
M 18.3125 54.390625 
Q 18.3125 48.734375 21.84375 45.5625 
Q 25.390625 42.390625 31.78125 42.390625 
Q 38.140625 42.390625 41.71875 45.5625 
Q 45.3125 48.734375 45.3125 54.390625 
Q 45.3125 60.0625 41.71875 63.234375 
Q 38.140625 66.40625 31.78125 66.40625 
Q 25.390625 66.40625 21.84375 63.234375 
Q 18.3125 60.0625 18.3125 54.390625 
z
" id="DejaVuSans-56"/>
       </defs>
       <use xlink:href="#DejaVuSans-50"/>
       <use x="63.623047" xlink:href="#DejaVuSans-48"/>
       <use x="127.246094" xlink:href="#DejaVuSans-50"/>
       <use x="190.869141" xlink:href="#DejaVuSans-48"/>
       <use x="254.492188" xlink:href="#DejaVuSans-45"/>
       <use x="290.576172" xlink:href="#DejaVuSans-48"/>
       <use x="354.199219" xlink:href="#DejaVuSans-50"/>
       <use x="417.822266" xlink:href="#DejaVuSans-45"/>
       <use x="453.90625" xlink:href="#DejaVuSans-49"/>
       <use x="517.529297" xlink:href="#DejaVuSans-56"/>
      </g>
     </g>
    </g>
    <g id="xtick_3">
     <g id="line2d_3">
      <g>
       <use style="stroke:#000000;stroke-width:0.8;" x="135.194807" xlink:href="#m564a1461b9" y="640.199373"/>
      </g>
     </g>
     <g id="text_2">
      <!-- 2020-02-28 -->
      <g transform="translate(92.630293 693.666233)rotate(-45)scale(0.1 -0.1)">
       <use xlink:href="#DejaVuSans-50"/>
       <use x="63.623047" xlink:href="#DejaVuSans-48"/>
       <use x="127.246094" xlink:href="#DejaVuSans-50"/>
       <use x="190.869141" xlink:href="#DejaVuSans-48"/>
       <use x="254.492188" xlink:href="#DejaVuSans-45"/>
       <use x="290.576172" xlink:href="#DejaVuSans-48"/>
       <use x="354.199219" xlink:href="#DejaVuSans-50"/>
       <use x="417.822266" xlink:href="#DejaVuSans-45"/>
       <use x="453.90625" xlink:href="#DejaVuSans-50"/>
       <use x="517.529297" xlink:href="#DejaVuSans-56"/>
      </g>
     </g>
    </g>
    <g id="xtick_4">
     <g id="line2d_4">
      <g>
       <use style="stroke:#000000;stroke-width:0.8;" x="176.238704" xlink:href="#m564a1461b9" y="640.199373"/>
      </g>
     </g>
     <g id="text_3">
      <!-- 2020-03-11 -->
      <g transform="translate(133.674191 693.666233)rotate(-45)scale(0.1 -0.1)">
       <defs>
        <path d="M 40.578125 39.3125 
Q 47.65625 37.796875 51.625 33 
Q 55.609375 28.21875 55.609375 21.1875 
Q 55.609375 10.40625 48.1875 4.484375 
Q 40.765625 -1.421875 27.09375 -1.421875 
Q 22.515625 -1.421875 17.65625 -0.515625 
Q 12.796875 0.390625 7.625 2.203125 
L 7.625 11.71875 
Q 11.71875 9.328125 16.59375 8.109375 
Q 21.484375 6.890625 26.8125 6.890625 
Q 36.078125 6.890625 40.9375 10.546875 
Q 45.796875 14.203125 45.796875 21.1875 
Q 45.796875 27.640625 41.28125 31.265625 
Q 36.765625 34.90625 28.71875 34.90625 
L 20.21875 34.90625 
L 20.21875 43.015625 
L 29.109375 43.015625 
Q 36.375 43.015625 40.234375 45.921875 
Q 44.09375 48.828125 44.09375 54.296875 
Q 44.09375 59.90625 40.109375 62.90625 
Q 36.140625 65.921875 28.71875 65.921875 
Q 24.65625 65.921875 20.015625 65.03125 
Q 15.375 64.15625 9.8125 62.3125 
L 9.8125 71.09375 
Q 15.4375 72.65625 20.34375 73.4375 
Q 25.25 74.21875 29.59375 74.21875 
Q 40.828125 74.21875 47.359375 69.109375 
Q 53.90625 64.015625 53.90625 55.328125 
Q 53.90625 49.265625 50.4375 45.09375 
Q 46.96875 40.921875 40.578125 39.3125 
z
" id="DejaVuSans-51"/>
       </defs>
       <use xlink:href="#DejaVuSans-50"/>
       <use x="63.623047" xlink:href="#DejaVuSans-48"/>
       <use x="127.246094" xlink:href="#DejaVuSans-50"/>
       <use x="190.869141" xlink:href="#DejaVuSans-48"/>
       <use x="254.492188" xlink:href="#DejaVuSans-45"/>
       <use x="290.576172" xlink:href="#DejaVuSans-48"/>
       <use x="354.199219" xlink:href="#DejaVuSans-51"/>
       <use x="417.822266" xlink:href="#DejaVuSans-45"/>
       <use x="453.90625" xlink:href="#DejaVuSans-49"/>
       <use x="517.529297" xlink:href="#DejaVuSans-49"/>
      </g>
     </g>
    </g>
    <g id="xtick_5">
     <g id="line2d_5">
      <g>
       <use style="stroke:#000000;stroke-width:0.8;" x="217.282602" xlink:href="#m564a1461b9" y="640.199373"/>
      </g>
     </g>
     <g id="text_4">
      <!-- 2020-03-23 -->
      <g transform="translate(174.718088 693.666233)rotate(-45)scale(0.1 -0.1)">
       <use xlink:href="#DejaVuSans-50"/>
       <use x="63.623047" xlink:href="#DejaVuSans-48"/>
       <use x="127.246094" xlink:href="#DejaVuSans-50"/>
       <use x="190.869141" xlink:href="#DejaVuSans-48"/>
       <use x="254.492188" xlink:href="#DejaVuSans-45"/>
       <use x="290.576172" xlink:href="#DejaVuSans-48"/>
       <use x="354.199219" xlink:href="#DejaVuSans-51"/>
       <use x="417.822266" xlink:href="#DejaVuSans-45"/>
       <use x="453.90625" xlink:href="#DejaVuSans-50"/>
       <use x="517.529297" xlink:href="#DejaVuSans-51"/>
      </g>
     </g>
    </g>
    <g id="xtick_6">
     <g id="line2d_6">
      <g>
       <use style="stroke:#000000;stroke-width:0.8;" x="258.326499" xlink:href="#m564a1461b9" y="640.199373"/>
      </g>
     </g>
     <g id="text_5">
      <!-- 2020-04-02 -->
      <g transform="translate(215.761986 693.666233)rotate(-45)scale(0.1 -0.1)">
       <defs>
        <path d="M 37.796875 64.3125 
L 12.890625 25.390625 
L 37.796875 25.390625 
z
M 35.203125 72.90625 
L 47.609375 72.90625 
L 47.609375 25.390625 
L 58.015625 25.390625 
L 58.015625 17.1875 
L 47.609375 17.1875 
L 47.609375 0 
L 37.796875 0 
L 37.796875 17.1875 
L 4.890625 17.1875 
L 4.890625 26.703125 
z
" id="DejaVuSans-52"/>
       </defs>
       <use xlink:href="#DejaVuSans-50"/>
       <use x="63.623047" xlink:href="#DejaVuSans-48"/>
       <use x="127.246094" xlink:href="#DejaVuSans-50"/>
       <use x="190.869141" xlink:href="#DejaVuSans-48"/>
       <use x="254.492188" xlink:href="#DejaVuSans-45"/>
       <use x="290.576172" xlink:href="#DejaVuSans-48"/>
       <use x="354.199219" xlink:href="#DejaVuSans-52"/>
       <use x="417.822266" xlink:href="#DejaVuSans-45"/>
       <use x="453.90625" xlink:href="#DejaVuSans-48"/>
       <use x="517.529297" xlink:href="#DejaVuSans-50"/>
      </g>
     </g>
    </g>
    <g id="xtick_7">
     <g id="line2d_7">
      <g>
       <use style="stroke:#000000;stroke-width:0.8;" x="299.370397" xlink:href="#m564a1461b9" y="640.199373"/>
      </g>
     </g>
     <g id="text_6">
      <!-- 2020-04-15 -->
      <g transform="translate(256.805883 693.666233)rotate(-45)scale(0.1 -0.1)">
       <defs>
        <path d="M 10.796875 72.90625 
L 49.515625 72.90625 
L 49.515625 64.59375 
L 19.828125 64.59375 
L 19.828125 46.734375 
Q 21.96875 47.46875 24.109375 47.828125 
Q 26.265625 48.1875 28.421875 48.1875 
Q 40.625 48.1875 47.75 41.5 
Q 54.890625 34.8125 54.890625 23.390625 
Q 54.890625 11.625 47.5625 5.09375 
Q 40.234375 -1.421875 26.90625 -1.421875 
Q 22.3125 -1.421875 17.546875 -0.640625 
Q 12.796875 0.140625 7.71875 1.703125 
L 7.71875 11.625 
Q 12.109375 9.234375 16.796875 8.0625 
Q 21.484375 6.890625 26.703125 6.890625 
Q 35.15625 6.890625 40.078125 11.328125 
Q 45.015625 15.765625 45.015625 23.390625 
Q 45.015625 31 40.078125 35.4375 
Q 35.15625 39.890625 26.703125 39.890625 
Q 22.75 39.890625 18.8125 39.015625 
Q 14.890625 38.140625 10.796875 36.28125 
z
" id="DejaVuSans-53"/>
       </defs>
       <use xlink:href="#DejaVuSans-50"/>
       <use x="63.623047" xlink:href="#DejaVuSans-48"/>
       <use x="127.246094" xlink:href="#DejaVuSans-50"/>
       <use x="190.869141" xlink:href="#DejaVuSans-48"/>
       <use x="254.492188" xlink:href="#DejaVuSans-45"/>
       <use x="290.576172" xlink:href="#DejaVuSans-48"/>
       <use x="354.199219" xlink:href="#DejaVuSans-52"/>
       <use x="417.822266" xlink:href="#DejaVuSans-45"/>
       <use x="453.90625" xlink:href="#DejaVuSans-49"/>
       <use x="517.529297" xlink:href="#DejaVuSans-53"/>
      </g>
     </g>
    </g>
    <g id="xtick_8">
     <g id="line2d_8">
      <g>
       <use style="stroke:#000000;stroke-width:0.8;" x="340.414294" xlink:href="#m564a1461b9" y="640.199373"/>
      </g>
     </g>
     <g id="text_7">
      <!-- 2020-04-27 -->
      <g transform="translate(297.849781 693.666233)rotate(-45)scale(0.1 -0.1)">
       <defs>
        <path d="M 8.203125 72.90625 
L 55.078125 72.90625 
L 55.078125 68.703125 
L 28.609375 0 
L 18.3125 0 
L 43.21875 64.59375 
L 8.203125 64.59375 
z
" id="DejaVuSans-55"/>
       </defs>
       <use xlink:href="#DejaVuSans-50"/>
       <use x="63.623047" xlink:href="#DejaVuSans-48"/>
       <use x="127.246094" xlink:href="#DejaVuSans-50"/>
       <use x="190.869141" xlink:href="#DejaVuSans-48"/>
       <use x="254.492188" xlink:href="#DejaVuSans-45"/>
       <use x="290.576172" xlink:href="#DejaVuSans-48"/>
       <use x="354.199219" xlink:href="#DejaVuSans-52"/>
       <use x="417.822266" xlink:href="#DejaVuSans-45"/>
       <use x="453.90625" xlink:href="#DejaVuSans-50"/>
       <use x="517.529297" xlink:href="#DejaVuSans-55"/>
      </g>
     </g>
    </g>
    <g id="xtick_9">
     <g id="line2d_9">
      <g>
       <use style="stroke:#000000;stroke-width:0.8;" x="381.458192" xlink:href="#m564a1461b9" y="640.199373"/>
      </g>
     </g>
     <g id="text_8">
      <!-- 2020-05-08 -->
      <g transform="translate(338.893678 693.666233)rotate(-45)scale(0.1 -0.1)">
       <use xlink:href="#DejaVuSans-50"/>
       <use x="63.623047" xlink:href="#DejaVuSans-48"/>
       <use x="127.246094" xlink:href="#DejaVuSans-50"/>
       <use x="190.869141" xlink:href="#DejaVuSans-48"/>
       <use x="254.492188" xlink:href="#DejaVuSans-45"/>
       <use x="290.576172" xlink:href="#DejaVuSans-48"/>
       <use x="354.199219" xlink:href="#DejaVuSans-53"/>
       <use x="417.822266" xlink:href="#DejaVuSans-45"/>
       <use x="453.90625" xlink:href="#DejaVuSans-48"/>
       <use x="517.529297" xlink:href="#DejaVuSans-56"/>
      </g>
     </g>
    </g>
    <g id="xtick_10">
     <g id="line2d_10">
      <g>
       <use style="stroke:#000000;stroke-width:0.8;" x="422.502089" xlink:href="#m564a1461b9" y="640.199373"/>
      </g>
     </g>
     <g id="text_9">
      <!-- 2020-05-20 -->
      <g transform="translate(379.937576 693.666233)rotate(-45)scale(0.1 -0.1)">
       <use xlink:href="#DejaVuSans-50"/>
       <use x="63.623047" xlink:href="#DejaVuSans-48"/>
       <use x="127.246094" xlink:href="#DejaVuSans-50"/>
       <use x="190.869141" xlink:href="#DejaVuSans-48"/>
       <use x="254.492188" xlink:href="#DejaVuSans-45"/>
       <use x="290.576172" xlink:href="#DejaVuSans-48"/>
       <use x="354.199219" xlink:href="#DejaVuSans-53"/>
       <use x="417.822266" xlink:href="#DejaVuSans-45"/>
       <use x="453.90625" xlink:href="#DejaVuSans-50"/>
       <use x="517.529297" xlink:href="#DejaVuSans-48"/>
      </g>
     </g>
    </g>
    <g id="xtick_11">
     <g id="line2d_11">
      <g>
       <use style="stroke:#000000;stroke-width:0.8;" x="463.545987" xlink:href="#m564a1461b9" y="640.199373"/>
      </g>
     </g>
     <g id="text_10">
      <!-- 2020-06-01 -->
      <g transform="translate(420.981473 693.666233)rotate(-45)scale(0.1 -0.1)">
       <defs>
        <path d="M 33.015625 40.375 
Q 26.375 40.375 22.484375 35.828125 
Q 18.609375 31.296875 18.609375 23.390625 
Q 18.609375 15.53125 22.484375 10.953125 
Q 26.375 6.390625 33.015625 6.390625 
Q 39.65625 6.390625 43.53125 10.953125 
Q 47.40625 15.53125 47.40625 23.390625 
Q 47.40625 31.296875 43.53125 35.828125 
Q 39.65625 40.375 33.015625 40.375 
z
M 52.59375 71.296875 
L 52.59375 62.3125 
Q 48.875 64.0625 45.09375 64.984375 
Q 41.3125 65.921875 37.59375 65.921875 
Q 27.828125 65.921875 22.671875 59.328125 
Q 17.53125 52.734375 16.796875 39.40625 
Q 19.671875 43.65625 24.015625 45.921875 
Q 28.375 48.1875 33.59375 48.1875 
Q 44.578125 48.1875 50.953125 41.515625 
Q 57.328125 34.859375 57.328125 23.390625 
Q 57.328125 12.15625 50.6875 5.359375 
Q 44.046875 -1.421875 33.015625 -1.421875 
Q 20.359375 -1.421875 13.671875 8.265625 
Q 6.984375 17.96875 6.984375 36.375 
Q 6.984375 53.65625 15.1875 63.9375 
Q 23.390625 74.21875 37.203125 74.21875 
Q 40.921875 74.21875 44.703125 73.484375 
Q 48.484375 72.75 52.59375 71.296875 
z
" id="DejaVuSans-54"/>
       </defs>
       <use xlink:href="#DejaVuSans-50"/>
       <use x="63.623047" xlink:href="#DejaVuSans-48"/>
       <use x="127.246094" xlink:href="#DejaVuSans-50"/>
       <use x="190.869141" xlink:href="#DejaVuSans-48"/>
       <use x="254.492188" xlink:href="#DejaVuSans-45"/>
       <use x="290.576172" xlink:href="#DejaVuSans-48"/>
       <use x="354.199219" xlink:href="#DejaVuSans-54"/>
       <use x="417.822266" xlink:href="#DejaVuSans-45"/>
       <use x="453.90625" xlink:href="#DejaVuSans-48"/>
       <use x="517.529297" xlink:href="#DejaVuSans-49"/>
      </g>
     </g>
    </g>
    <g id="xtick_12">
     <g id="line2d_12">
      <g>
       <use style="stroke:#000000;stroke-width:0.8;" x="504.589884" xlink:href="#m564a1461b9" y="640.199373"/>
      </g>
     </g>
     <g id="text_11">
      <!-- 2020-06-12 -->
      <g transform="translate(462.025371 693.666233)rotate(-45)scale(0.1 -0.1)">
       <use xlink:href="#DejaVuSans-50"/>
       <use x="63.623047" xlink:href="#DejaVuSans-48"/>
       <use x="127.246094" xlink:href="#DejaVuSans-50"/>
       <use x="190.869141" xlink:href="#DejaVuSans-48"/>
       <use x="254.492188" xlink:href="#DejaVuSans-45"/>
       <use x="290.576172" xlink:href="#DejaVuSans-48"/>
       <use x="354.199219" xlink:href="#DejaVuSans-54"/>
       <use x="417.822266" xlink:href="#DejaVuSans-45"/>
       <use x="453.90625" xlink:href="#DejaVuSans-49"/>
       <use x="517.529297" xlink:href="#DejaVuSans-50"/>
      </g>
     </g>
    </g>
    <g id="xtick_13">
     <g id="line2d_13">
      <g>
       <use style="stroke:#000000;stroke-width:0.8;" x="545.633782" xlink:href="#m564a1461b9" y="640.199373"/>
      </g>
     </g>
     <g id="text_12">
      <!-- 2020-06-24 -->
      <g transform="translate(503.069268 693.666233)rotate(-45)scale(0.1 -0.1)">
       <use xlink:href="#DejaVuSans-50"/>
       <use x="63.623047" xlink:href="#DejaVuSans-48"/>
       <use x="127.246094" xlink:href="#DejaVuSans-50"/>
       <use x="190.869141" xlink:href="#DejaVuSans-48"/>
       <use x="254.492188" xlink:href="#DejaVuSans-45"/>
       <use x="290.576172" xlink:href="#DejaVuSans-48"/>
       <use x="354.199219" xlink:href="#DejaVuSans-54"/>
       <use x="417.822266" xlink:href="#DejaVuSans-45"/>
       <use x="453.90625" xlink:href="#DejaVuSans-50"/>
       <use x="517.529297" xlink:href="#DejaVuSans-52"/>
      </g>
     </g>
    </g>
    <g id="xtick_14">
     <g id="line2d_14">
      <g>
       <use style="stroke:#000000;stroke-width:0.8;" x="586.67768" xlink:href="#m564a1461b9" y="640.199373"/>
      </g>
     </g>
     <g id="text_13">
      <!-- 2020-07-06 -->
      <g transform="translate(544.113166 693.666233)rotate(-45)scale(0.1 -0.1)">
       <use xlink:href="#DejaVuSans-50"/>
       <use x="63.623047" xlink:href="#DejaVuSans-48"/>
       <use x="127.246094" xlink:href="#DejaVuSans-50"/>
       <use x="190.869141" xlink:href="#DejaVuSans-48"/>
       <use x="254.492188" xlink:href="#DejaVuSans-45"/>
       <use x="290.576172" xlink:href="#DejaVuSans-48"/>
       <use x="354.199219" xlink:href="#DejaVuSans-55"/>
       <use x="417.822266" xlink:href="#DejaVuSans-45"/>
       <use x="453.90625" xlink:href="#DejaVuSans-48"/>
       <use x="517.529297" xlink:href="#DejaVuSans-54"/>
      </g>
     </g>
    </g>
    <g id="xtick_15">
     <g id="line2d_15">
      <g>
       <use style="stroke:#000000;stroke-width:0.8;" x="627.721577" xlink:href="#m564a1461b9" y="640.199373"/>
      </g>
     </g>
     <g id="text_14">
      <!-- 2020-07-16 -->
      <g transform="translate(585.157063 693.666233)rotate(-45)scale(0.1 -0.1)">
       <use xlink:href="#DejaVuSans-50"/>
       <use x="63.623047" xlink:href="#DejaVuSans-48"/>
       <use x="127.246094" xlink:href="#DejaVuSans-50"/>
       <use x="190.869141" xlink:href="#DejaVuSans-48"/>
       <use x="254.492188" xlink:href="#DejaVuSans-45"/>
       <use x="290.576172" xlink:href="#DejaVuSans-48"/>
       <use x="354.199219" xlink:href="#DejaVuSans-55"/>
       <use x="417.822266" xlink:href="#DejaVuSans-45"/>
       <use x="453.90625" xlink:href="#DejaVuSans-49"/>
       <use x="517.529297" xlink:href="#DejaVuSans-54"/>
      </g>
     </g>
    </g>
    <g id="xtick_16">
     <g id="line2d_16">
      <g>
       <use style="stroke:#000000;stroke-width:0.8;" x="668.765475" xlink:href="#m564a1461b9" y="640.199373"/>
      </g>
     </g>
     <g id="text_15">
      <!-- 2020-07-28 -->
      <g transform="translate(626.200961 693.666233)rotate(-45)scale(0.1 -0.1)">
       <use xlink:href="#DejaVuSans-50"/>
       <use x="63.623047" xlink:href="#DejaVuSans-48"/>
       <use x="127.246094" xlink:href="#DejaVuSans-50"/>
       <use x="190.869141" xlink:href="#DejaVuSans-48"/>
       <use x="254.492188" xlink:href="#DejaVuSans-45"/>
       <use x="290.576172" xlink:href="#DejaVuSans-48"/>
       <use x="354.199219" xlink:href="#DejaVuSans-55"/>
       <use x="417.822266" xlink:href="#DejaVuSans-45"/>
       <use x="453.90625" xlink:href="#DejaVuSans-50"/>
       <use x="517.529297" xlink:href="#DejaVuSans-56"/>
      </g>
     </g>
    </g>
    <g id="xtick_17">
     <g id="line2d_17">
      <g>
       <use style="stroke:#000000;stroke-width:0.8;" x="709.809372" xlink:href="#m564a1461b9" y="640.199373"/>
      </g>
     </g>
     <g id="text_16">
      <!-- 2020-08-07 -->
      <g transform="translate(667.244859 693.666233)rotate(-45)scale(0.1 -0.1)">
       <use xlink:href="#DejaVuSans-50"/>
       <use x="63.623047" xlink:href="#DejaVuSans-48"/>
       <use x="127.246094" xlink:href="#DejaVuSans-50"/>
       <use x="190.869141" xlink:href="#DejaVuSans-48"/>
       <use x="254.492188" xlink:href="#DejaVuSans-45"/>
       <use x="290.576172" xlink:href="#DejaVuSans-48"/>
       <use x="354.199219" xlink:href="#DejaVuSans-56"/>
       <use x="417.822266" xlink:href="#DejaVuSans-45"/>
       <use x="453.90625" xlink:href="#DejaVuSans-48"/>
       <use x="517.529297" xlink:href="#DejaVuSans-55"/>
      </g>
     </g>
    </g>
    <g id="xtick_18">
     <g id="line2d_18">
      <g>
       <use style="stroke:#000000;stroke-width:0.8;" x="750.85327" xlink:href="#m564a1461b9" y="640.199373"/>
      </g>
     </g>
     <g id="text_17">
      <!-- 2020-08-19 -->
      <g transform="translate(708.288756 693.666233)rotate(-45)scale(0.1 -0.1)">
       <defs>
        <path d="M 10.984375 1.515625 
L 10.984375 10.5 
Q 14.703125 8.734375 18.5 7.8125 
Q 22.3125 6.890625 25.984375 6.890625 
Q 35.75 6.890625 40.890625 13.453125 
Q 46.046875 20.015625 46.78125 33.40625 
Q 43.953125 29.203125 39.59375 26.953125 
Q 35.25 24.703125 29.984375 24.703125 
Q 19.046875 24.703125 12.671875 31.3125 
Q 6.296875 37.9375 6.296875 49.421875 
Q 6.296875 60.640625 12.9375 67.421875 
Q 19.578125 74.21875 30.609375 74.21875 
Q 43.265625 74.21875 49.921875 64.515625 
Q 56.59375 54.828125 56.59375 36.375 
Q 56.59375 19.140625 48.40625 8.859375 
Q 40.234375 -1.421875 26.421875 -1.421875 
Q 22.703125 -1.421875 18.890625 -0.6875 
Q 15.09375 0.046875 10.984375 1.515625 
z
M 30.609375 32.421875 
Q 37.25 32.421875 41.125 36.953125 
Q 45.015625 41.5 45.015625 49.421875 
Q 45.015625 57.28125 41.125 61.84375 
Q 37.25 66.40625 30.609375 66.40625 
Q 23.96875 66.40625 20.09375 61.84375 
Q 16.21875 57.28125 16.21875 49.421875 
Q 16.21875 41.5 20.09375 36.953125 
Q 23.96875 32.421875 30.609375 32.421875 
z
" id="DejaVuSans-57"/>
       </defs>
       <use xlink:href="#DejaVuSans-50"/>
       <use x="63.623047" xlink:href="#DejaVuSans-48"/>
       <use x="127.246094" xlink:href="#DejaVuSans-50"/>
       <use x="190.869141" xlink:href="#DejaVuSans-48"/>
       <use x="254.492188" xlink:href="#DejaVuSans-45"/>
       <use x="290.576172" xlink:href="#DejaVuSans-48"/>
       <use x="354.199219" xlink:href="#DejaVuSans-56"/>
       <use x="417.822266" xlink:href="#DejaVuSans-45"/>
       <use x="453.90625" xlink:href="#DejaVuSans-49"/>
       <use x="517.529297" xlink:href="#DejaVuSans-57"/>
      </g>
     </g>
    </g>
    <g id="xtick_19">
     <g id="line2d_19">
      <g>
       <use style="stroke:#000000;stroke-width:0.8;" x="791.897167" xlink:href="#m564a1461b9" y="640.199373"/>
      </g>
     </g>
     <g id="text_18">
      <!-- 2020-08-31 -->
      <g transform="translate(749.332654 693.666233)rotate(-45)scale(0.1 -0.1)">
       <use xlink:href="#DejaVuSans-50"/>
       <use x="63.623047" xlink:href="#DejaVuSans-48"/>
       <use x="127.246094" xlink:href="#DejaVuSans-50"/>
       <use x="190.869141" xlink:href="#DejaVuSans-48"/>
       <use x="254.492188" xlink:href="#DejaVuSans-45"/>
       <use x="290.576172" xlink:href="#DejaVuSans-48"/>
       <use x="354.199219" xlink:href="#DejaVuSans-56"/>
       <use x="417.822266" xlink:href="#DejaVuSans-45"/>
       <use x="453.90625" xlink:href="#DejaVuSans-51"/>
       <use x="517.529297" xlink:href="#DejaVuSans-49"/>
      </g>
     </g>
    </g>
    <g id="xtick_20">
     <g id="line2d_20">
      <g>
       <use style="stroke:#000000;stroke-width:0.8;" x="832.941065" xlink:href="#m564a1461b9" y="640.199373"/>
      </g>
     </g>
     <g id="text_19">
      <!-- 2020-09-10 -->
      <g transform="translate(790.376551 693.666233)rotate(-45)scale(0.1 -0.1)">
       <use xlink:href="#DejaVuSans-50"/>
       <use x="63.623047" xlink:href="#DejaVuSans-48"/>
       <use x="127.246094" xlink:href="#DejaVuSans-50"/>
       <use x="190.869141" xlink:href="#DejaVuSans-48"/>
       <use x="254.492188" xlink:href="#DejaVuSans-45"/>
       <use x="290.576172" xlink:href="#DejaVuSans-48"/>
       <use x="354.199219" xlink:href="#DejaVuSans-57"/>
       <use x="417.822266" xlink:href="#DejaVuSans-45"/>
       <use x="453.90625" xlink:href="#DejaVuSans-49"/>
       <use x="517.529297" xlink:href="#DejaVuSans-48"/>
      </g>
     </g>
    </g>
    <g id="xtick_21">
     <g id="line2d_21">
      <g>
       <use style="stroke:#000000;stroke-width:0.8;" x="873.984962" xlink:href="#m564a1461b9" y="640.199373"/>
      </g>
     </g>
     <g id="text_20">
      <!-- 2020-09-22 -->
      <g transform="translate(831.420449 693.666233)rotate(-45)scale(0.1 -0.1)">
       <use xlink:href="#DejaVuSans-50"/>
       <use x="63.623047" xlink:href="#DejaVuSans-48"/>
       <use x="127.246094" xlink:href="#DejaVuSans-50"/>
       <use x="190.869141" xlink:href="#DejaVuSans-48"/>
       <use x="254.492188" xlink:href="#DejaVuSans-45"/>
       <use x="290.576172" xlink:href="#DejaVuSans-48"/>
       <use x="354.199219" xlink:href="#DejaVuSans-57"/>
       <use x="417.822266" xlink:href="#DejaVuSans-45"/>
       <use x="453.90625" xlink:href="#DejaVuSans-50"/>
       <use x="517.529297" xlink:href="#DejaVuSans-50"/>
      </g>
     </g>
    </g>
    <g id="xtick_22">
     <g id="line2d_22">
      <g>
       <use style="stroke:#000000;stroke-width:0.8;" x="915.02886" xlink:href="#m564a1461b9" y="640.199373"/>
      </g>
     </g>
     <g id="text_21">
      <!-- 2020-10-02 -->
      <g transform="translate(872.464346 693.666233)rotate(-45)scale(0.1 -0.1)">
       <use xlink:href="#DejaVuSans-50"/>
       <use x="63.623047" xlink:href="#DejaVuSans-48"/>
       <use x="127.246094" xlink:href="#DejaVuSans-50"/>
       <use x="190.869141" xlink:href="#DejaVuSans-48"/>
       <use x="254.492188" xlink:href="#DejaVuSans-45"/>
       <use x="290.576172" xlink:href="#DejaVuSans-49"/>
       <use x="354.199219" xlink:href="#DejaVuSans-48"/>
       <use x="417.822266" xlink:href="#DejaVuSans-45"/>
       <use x="453.90625" xlink:href="#DejaVuSans-48"/>
       <use x="517.529297" xlink:href="#DejaVuSans-50"/>
      </g>
     </g>
    </g>
    <g id="xtick_23">
     <g id="line2d_23">
      <g>
       <use style="stroke:#000000;stroke-width:0.8;" x="956.072757" xlink:href="#m564a1461b9" y="640.199373"/>
      </g>
     </g>
     <g id="text_22">
      <!-- 2020-10-14 -->
      <g transform="translate(913.508244 693.666233)rotate(-45)scale(0.1 -0.1)">
       <use xlink:href="#DejaVuSans-50"/>
       <use x="63.623047" xlink:href="#DejaVuSans-48"/>
       <use x="127.246094" xlink:href="#DejaVuSans-50"/>
       <use x="190.869141" xlink:href="#DejaVuSans-48"/>
       <use x="254.492188" xlink:href="#DejaVuSans-45"/>
       <use x="290.576172" xlink:href="#DejaVuSans-49"/>
       <use x="354.199219" xlink:href="#DejaVuSans-48"/>
       <use x="417.822266" xlink:href="#DejaVuSans-45"/>
       <use x="453.90625" xlink:href="#DejaVuSans-49"/>
       <use x="517.529297" xlink:href="#DejaVuSans-52"/>
      </g>
     </g>
    </g>
    <g id="xtick_24">
     <g id="line2d_24">
      <g>
       <use style="stroke:#000000;stroke-width:0.8;" x="997.116655" xlink:href="#m564a1461b9" y="640.199373"/>
      </g>
     </g>
     <g id="text_23">
      <!-- 2020-10-26 -->
      <g transform="translate(954.552141 693.666233)rotate(-45)scale(0.1 -0.1)">
       <use xlink:href="#DejaVuSans-50"/>
       <use x="63.623047" xlink:href="#DejaVuSans-48"/>
       <use x="127.246094" xlink:href="#DejaVuSans-50"/>
       <use x="190.869141" xlink:href="#DejaVuSans-48"/>
       <use x="254.492188" xlink:href="#DejaVuSans-45"/>
       <use x="290.576172" xlink:href="#DejaVuSans-49"/>
       <use x="354.199219" xlink:href="#DejaVuSans-48"/>
       <use x="417.822266" xlink:href="#DejaVuSans-45"/>
       <use x="453.90625" xlink:href="#DejaVuSans-50"/>
       <use x="517.529297" xlink:href="#DejaVuSans-54"/>
      </g>
     </g>
    </g>
    <g id="xtick_25">
     <g id="line2d_25">
      <g>
       <use style="stroke:#000000;stroke-width:0.8;" x="1038.160552" xlink:href="#m564a1461b9" y="640.199373"/>
      </g>
     </g>
    </g>
    <g id="text_24">
     <!-- Dzień -->
     <g transform="translate(544.351406 706.735231)scale(0.1 -0.1)">
      <defs>
       <path d="M 19.671875 64.796875 
L 19.671875 8.109375 
L 31.59375 8.109375 
Q 46.6875 8.109375 53.6875 14.9375 
Q 60.6875 21.78125 60.6875 36.53125 
Q 60.6875 51.171875 53.6875 57.984375 
Q 46.6875 64.796875 31.59375 64.796875 
z
M 9.8125 72.90625 
L 30.078125 72.90625 
Q 51.265625 72.90625 61.171875 64.09375 
Q 71.09375 55.28125 71.09375 36.53125 
Q 71.09375 17.671875 61.125 8.828125 
Q 51.171875 0 30.078125 0 
L 9.8125 0 
z
" id="DejaVuSans-68"/>
       <path d="M 5.515625 54.6875 
L 48.1875 54.6875 
L 48.1875 46.484375 
L 14.40625 7.171875 
L 48.1875 7.171875 
L 48.1875 0 
L 4.296875 0 
L 4.296875 8.203125 
L 38.09375 47.515625 
L 5.515625 47.515625 
z
" id="DejaVuSans-122"/>
       <path d="M 9.421875 54.6875 
L 18.40625 54.6875 
L 18.40625 0 
L 9.421875 0 
z
M 9.421875 75.984375 
L 18.40625 75.984375 
L 18.40625 64.59375 
L 9.421875 64.59375 
z
" id="DejaVuSans-105"/>
       <path d="M 56.203125 29.59375 
L 56.203125 25.203125 
L 14.890625 25.203125 
Q 15.484375 15.921875 20.484375 11.0625 
Q 25.484375 6.203125 34.421875 6.203125 
Q 39.59375 6.203125 44.453125 7.46875 
Q 49.3125 8.734375 54.109375 11.28125 
L 54.109375 2.78125 
Q 49.265625 0.734375 44.1875 -0.34375 
Q 39.109375 -1.421875 33.890625 -1.421875 
Q 20.796875 -1.421875 13.15625 6.1875 
Q 5.515625 13.8125 5.515625 26.8125 
Q 5.515625 40.234375 12.765625 48.109375 
Q 20.015625 56 32.328125 56 
Q 43.359375 56 49.78125 48.890625 
Q 56.203125 41.796875 56.203125 29.59375 
z
M 47.21875 32.234375 
Q 47.125 39.59375 43.09375 43.984375 
Q 39.0625 48.390625 32.421875 48.390625 
Q 24.90625 48.390625 20.390625 44.140625 
Q 15.875 39.890625 15.1875 32.171875 
z
" id="DejaVuSans-101"/>
       <path d="M 35.03125 79.984375 
L 44.75 79.984375 
L 28.84375 61.625 
L 21.359375 61.625 
z
M 54.890625 33.015625 
L 54.890625 0 
L 45.90625 0 
L 45.90625 32.71875 
Q 45.90625 40.484375 42.875 44.328125 
Q 39.84375 48.1875 33.796875 48.1875 
Q 26.515625 48.1875 22.3125 43.546875 
Q 18.109375 38.921875 18.109375 30.90625 
L 18.109375 0 
L 9.078125 0 
L 9.078125 54.6875 
L 18.109375 54.6875 
L 18.109375 46.1875 
Q 21.34375 51.125 25.703125 53.5625 
Q 30.078125 56 35.796875 56 
Q 45.21875 56 50.046875 50.171875 
Q 54.890625 44.34375 54.890625 33.015625 
z
" id="DejaVuSans-324"/>
      </defs>
      <use xlink:href="#DejaVuSans-68"/>
      <use x="77.001953" xlink:href="#DejaVuSans-122"/>
      <use x="129.492188" xlink:href="#DejaVuSans-105"/>
      <use x="157.275391" xlink:href="#DejaVuSans-101"/>
      <use x="218.798828" xlink:href="#DejaVuSans-324"/>
     </g>
    </g>
   </g>
   <g id="matplotlib.axis_2">
    <g id="ytick_1">
     <g id="line2d_26">
      <defs>
       <path d="M 0 0 
L -3.5 0 
" id="m7f6f68fa63" style="stroke:#000000;stroke-width:0.8;"/>
      </defs>
      <g>
       <use style="stroke:#000000;stroke-width:0.8;" x="47.72" xlink:href="#m7f6f68fa63" y="537.464272"/>
      </g>
     </g>
     <g id="text_25">
      <!-- 3.8 -->
      <g transform="translate(24.816875 541.26349)scale(0.1 -0.1)">
       <defs>
        <path d="M 10.6875 12.40625 
L 21 12.40625 
L 21 0 
L 10.6875 0 
z
" id="DejaVuSans-46"/>
       </defs>
       <use xlink:href="#DejaVuSans-51"/>
       <use x="63.623047" xlink:href="#DejaVuSans-46"/>
       <use x="95.410156" xlink:href="#DejaVuSans-56"/>
      </g>
     </g>
    </g>
    <g id="ytick_2">
     <g id="line2d_27">
      <g>
       <use style="stroke:#000000;stroke-width:0.8;" x="47.72" xlink:href="#m7f6f68fa63" y="421.650951"/>
      </g>
     </g>
     <g id="text_26">
      <!-- 4.0 -->
      <g transform="translate(24.816875 425.450169)scale(0.1 -0.1)">
       <use xlink:href="#DejaVuSans-52"/>
       <use x="63.623047" xlink:href="#DejaVuSans-46"/>
       <use x="95.410156" xlink:href="#DejaVuSans-48"/>
      </g>
     </g>
    </g>
    <g id="ytick_3">
     <g id="line2d_28">
      <g>
       <use style="stroke:#000000;stroke-width:0.8;" x="47.72" xlink:href="#m7f6f68fa63" y="305.83763"/>
      </g>
     </g>
     <g id="text_27">
      <!-- 4.2 -->
      <g transform="translate(24.816875 309.636848)scale(0.1 -0.1)">
       <use xlink:href="#DejaVuSans-52"/>
       <use x="63.623047" xlink:href="#DejaVuSans-46"/>
       <use x="95.410156" xlink:href="#DejaVuSans-50"/>
      </g>
     </g>
    </g>
    <g id="ytick_4">
     <g id="line2d_29">
      <g>
       <use style="stroke:#000000;stroke-width:0.8;" x="47.72" xlink:href="#m7f6f68fa63" y="190.024309"/>
      </g>
     </g>
     <g id="text_28">
      <!-- 4.4 -->
      <g transform="translate(24.816875 193.823527)scale(0.1 -0.1)">
       <use xlink:href="#DejaVuSans-52"/>
       <use x="63.623047" xlink:href="#DejaVuSans-46"/>
       <use x="95.410156" xlink:href="#DejaVuSans-52"/>
      </g>
     </g>
    </g>
    <g id="ytick_5">
     <g id="line2d_30">
      <g>
       <use style="stroke:#000000;stroke-width:0.8;" x="47.72" xlink:href="#m7f6f68fa63" y="74.210988"/>
      </g>
     </g>
     <g id="text_29">
      <!-- 4.6 -->
      <g transform="translate(24.816875 78.010206)scale(0.1 -0.1)">
       <use xlink:href="#DejaVuSans-52"/>
       <use x="63.623047" xlink:href="#DejaVuSans-46"/>
       <use x="95.410156" xlink:href="#DejaVuSans-54"/>
      </g>
     </g>
    </g>
    <g id="text_30">
     <!-- Kurs waluty -->
     <g transform="translate(18.737187 362.79703)rotate(-90)scale(0.1 -0.1)">
      <defs>
       <path d="M 9.8125 72.90625 
L 19.671875 72.90625 
L 19.671875 42.09375 
L 52.390625 72.90625 
L 65.09375 72.90625 
L 28.90625 38.921875 
L 67.671875 0 
L 54.6875 0 
L 19.671875 35.109375 
L 19.671875 0 
L 9.8125 0 
z
" id="DejaVuSans-75"/>
       <path d="M 8.5 21.578125 
L 8.5 54.6875 
L 17.484375 54.6875 
L 17.484375 21.921875 
Q 17.484375 14.15625 20.5 10.265625 
Q 23.53125 6.390625 29.59375 6.390625 
Q 36.859375 6.390625 41.078125 11.03125 
Q 45.3125 15.671875 45.3125 23.6875 
L 45.3125 54.6875 
L 54.296875 54.6875 
L 54.296875 0 
L 45.3125 0 
L 45.3125 8.40625 
Q 42.046875 3.421875 37.71875 1 
Q 33.40625 -1.421875 27.6875 -1.421875 
Q 18.265625 -1.421875 13.375 4.4375 
Q 8.5 10.296875 8.5 21.578125 
z
M 31.109375 56 
z
" id="DejaVuSans-117"/>
       <path d="M 41.109375 46.296875 
Q 39.59375 47.171875 37.8125 47.578125 
Q 36.03125 48 33.890625 48 
Q 26.265625 48 22.1875 43.046875 
Q 18.109375 38.09375 18.109375 28.8125 
L 18.109375 0 
L 9.078125 0 
L 9.078125 54.6875 
L 18.109375 54.6875 
L 18.109375 46.1875 
Q 20.953125 51.171875 25.484375 53.578125 
Q 30.03125 56 36.53125 56 
Q 37.453125 56 38.578125 55.875 
Q 39.703125 55.765625 41.0625 55.515625 
z
" id="DejaVuSans-114"/>
       <path d="M 44.28125 53.078125 
L 44.28125 44.578125 
Q 40.484375 46.53125 36.375 47.5 
Q 32.28125 48.484375 27.875 48.484375 
Q 21.1875 48.484375 17.84375 46.4375 
Q 14.5 44.390625 14.5 40.28125 
Q 14.5 37.15625 16.890625 35.375 
Q 19.28125 33.59375 26.515625 31.984375 
L 29.59375 31.296875 
Q 39.15625 29.25 43.1875 25.515625 
Q 47.21875 21.78125 47.21875 15.09375 
Q 47.21875 7.46875 41.1875 3.015625 
Q 35.15625 -1.421875 24.609375 -1.421875 
Q 20.21875 -1.421875 15.453125 -0.5625 
Q 10.6875 0.296875 5.421875 2 
L 5.421875 11.28125 
Q 10.40625 8.6875 15.234375 7.390625 
Q 20.0625 6.109375 24.8125 6.109375 
Q 31.15625 6.109375 34.5625 8.28125 
Q 37.984375 10.453125 37.984375 14.40625 
Q 37.984375 18.0625 35.515625 20.015625 
Q 33.0625 21.96875 24.703125 23.78125 
L 21.578125 24.515625 
Q 13.234375 26.265625 9.515625 29.90625 
Q 5.8125 33.546875 5.8125 39.890625 
Q 5.8125 47.609375 11.28125 51.796875 
Q 16.75 56 26.8125 56 
Q 31.78125 56 36.171875 55.265625 
Q 40.578125 54.546875 44.28125 53.078125 
z
" id="DejaVuSans-115"/>
       <path id="DejaVuSans-32"/>
       <path d="M 4.203125 54.6875 
L 13.1875 54.6875 
L 24.421875 12.015625 
L 35.59375 54.6875 
L 46.1875 54.6875 
L 57.421875 12.015625 
L 68.609375 54.6875 
L 77.59375 54.6875 
L 63.28125 0 
L 52.6875 0 
L 40.921875 44.828125 
L 29.109375 0 
L 18.5 0 
z
" id="DejaVuSans-119"/>
       <path d="M 34.28125 27.484375 
Q 23.390625 27.484375 19.1875 25 
Q 14.984375 22.515625 14.984375 16.5 
Q 14.984375 11.71875 18.140625 8.90625 
Q 21.296875 6.109375 26.703125 6.109375 
Q 34.1875 6.109375 38.703125 11.40625 
Q 43.21875 16.703125 43.21875 25.484375 
L 43.21875 27.484375 
z
M 52.203125 31.203125 
L 52.203125 0 
L 43.21875 0 
L 43.21875 8.296875 
Q 40.140625 3.328125 35.546875 0.953125 
Q 30.953125 -1.421875 24.3125 -1.421875 
Q 15.921875 -1.421875 10.953125 3.296875 
Q 6 8.015625 6 15.921875 
Q 6 25.140625 12.171875 29.828125 
Q 18.359375 34.515625 30.609375 34.515625 
L 43.21875 34.515625 
L 43.21875 35.40625 
Q 43.21875 41.609375 39.140625 45 
Q 35.0625 48.390625 27.6875 48.390625 
Q 23 48.390625 18.546875 47.265625 
Q 14.109375 46.140625 10.015625 43.890625 
L 10.015625 52.203125 
Q 14.9375 54.109375 19.578125 55.046875 
Q 24.21875 56 28.609375 56 
Q 40.484375 56 46.34375 49.84375 
Q 52.203125 43.703125 52.203125 31.203125 
z
" id="DejaVuSans-97"/>
       <path d="M 9.421875 75.984375 
L 18.40625 75.984375 
L 18.40625 0 
L 9.421875 0 
z
" id="DejaVuSans-108"/>
       <path d="M 18.3125 70.21875 
L 18.3125 54.6875 
L 36.8125 54.6875 
L 36.8125 47.703125 
L 18.3125 47.703125 
L 18.3125 18.015625 
Q 18.3125 11.328125 20.140625 9.421875 
Q 21.96875 7.515625 27.59375 7.515625 
L 36.8125 7.515625 
L 36.8125 0 
L 27.59375 0 
Q 17.1875 0 13.234375 3.875 
Q 9.28125 7.765625 9.28125 18.015625 
L 9.28125 47.703125 
L 2.6875 47.703125 
L 2.6875 54.6875 
L 9.28125 54.6875 
L 9.28125 70.21875 
z
" id="DejaVuSans-116"/>
       <path d="M 32.171875 -5.078125 
Q 28.375 -14.84375 24.75 -17.8125 
Q 21.140625 -20.796875 15.09375 -20.796875 
L 7.90625 -20.796875 
L 7.90625 -13.28125 
L 13.1875 -13.28125 
Q 16.890625 -13.28125 18.9375 -11.515625 
Q 21 -9.765625 23.484375 -3.21875 
L 25.09375 0.875 
L 2.984375 54.6875 
L 12.5 54.6875 
L 29.59375 11.921875 
L 46.6875 54.6875 
L 56.203125 54.6875 
z
" id="DejaVuSans-121"/>
      </defs>
      <use xlink:href="#DejaVuSans-75"/>
      <use x="60.576172" xlink:href="#DejaVuSans-117"/>
      <use x="123.955078" xlink:href="#DejaVuSans-114"/>
      <use x="165.068359" xlink:href="#DejaVuSans-115"/>
      <use x="217.167969" xlink:href="#DejaVuSans-32"/>
      <use x="248.955078" xlink:href="#DejaVuSans-119"/>
      <use x="330.742188" xlink:href="#DejaVuSans-97"/>
      <use x="392.021484" xlink:href="#DejaVuSans-108"/>
      <use x="419.804688" xlink:href="#DejaVuSans-117"/>
      <use x="483.183594" xlink:href="#DejaVuSans-116"/>
      <use x="522.392578" xlink:href="#DejaVuSans-121"/>
     </g>
    </g>
   </g>
   <g id="line2d_31">
    <path clip-path="url(#p0cf4a20bc0)" d="M 94.150909 264.492274 
L 99.281396 263.449954 
L 104.411883 260.149275 
L 109.542371 257.717195 
L 114.672858 246.946556 
L 119.803345 248.162596 
L 124.933832 242.54565 
L 130.064319 242.140303 
L 135.194807 227.374105 
L 140.325294 234.207091 
L 145.455781 237.913117 
L 150.586268 248.336316 
L 155.716755 248.278409 
L 160.847243 237.623584 
L 165.97773 237.739397 
L 171.108217 236.349637 
L 176.238704 238.260557 
L 181.369191 221.815065 
L 186.499679 212.144653 
L 191.630166 195.178001 
L 196.760653 138.719007 
L 201.89114 143.35154 
L 207.021627 79.01724 
L 212.152115 105.538491 
L 217.282602 99.052945 
L 222.413089 71.663095 
L 227.543576 87.00836 
L 232.674063 76.411441 
L 237.80455 117.87261 
L 242.935038 109.244517 
L 248.065525 101.832465 
L 253.196012 91.930426 
L 258.326499 87.587426 
L 263.456986 86.255573 
L 268.587474 96.678772 
L 273.717961 112.31357 
L 278.848448 111.155437 
L 283.978935 110.692184 
L 289.109422 104.090824 
L 294.23991 102.469438 
L 299.370397 109.591957 
L 304.500884 113.240077 
L 309.631371 110.865904 
L 314.761858 121.983983 
L 319.892346 116.13541 
L 325.022833 113.066357 
L 330.15332 106.407091 
L 335.283807 113.00845 
L 340.414294 118.22005 
L 345.544782 109.012891 
L 350.675269 107.101971 
L 355.805756 107.565224 
L 360.936243 98.415972 
L 366.06673 104.554078 
L 371.197217 109.534051 
L 376.327705 102.874785 
L 381.458192 98.705505 
L 386.588679 98.995038 
L 391.719166 100.326892 
L 396.849653 93.841346 
L 401.980141 91.988332 
L 407.110628 100.153172 
L 412.241115 94.825759 
L 417.371602 96.794585 
L 422.502089 100.848052 
L 427.632577 110.981717 
L 432.763064 118.56749 
L 437.893551 125.690009 
L 443.024038 143.69898 
L 448.154525 168.135591 
L 453.285013 174.73695 
L 458.4155 160.897258 
L 468.676474 195.699161 
L 473.806961 198.189148 
L 478.937449 169.930697 
L 484.067936 164.371658 
L 489.198423 173.17347 
L 494.32891 164.777005 
L 499.459397 158.523085 
L 504.589884 160.723538 
L 509.720372 166.687924 
L 514.850859 173.926257 
L 519.981346 160.897258 
L 525.111833 159.102152 
L 530.24232 156.843792 
L 535.372808 159.681219 
L 540.503295 167.672338 
L 545.633782 159.217965 
L 550.764269 161.360512 
L 555.894756 154.353806 
L 561.025244 153.485206 
L 566.155731 151.805913 
L 571.286218 163.097712 
L 576.416705 151.863819 
L 581.547192 151.168939 
L 586.67768 149.663366 
L 591.808167 148.91058 
L 596.938654 147.231287 
L 602.069141 147.289193 
L 607.199628 146.883847 
L 612.330116 146.883847 
L 617.460603 136.981808 
L 622.59109 147.289193 
L 627.721577 137.155528 
L 632.852064 142.1355 
L 637.982551 150.47406 
L 643.113039 165.877231 
L 648.243526 166.803738 
L 653.374013 183.770389 
L 658.5045 183.249229 
L 663.634987 188.692455 
L 668.765475 190.777095 
L 673.895962 178.790417 
L 679.026449 184.812709 
L 684.156936 185.855029 
L 689.287423 180.29599 
L 694.417911 186.549909 
L 699.548398 191.240349 
L 704.678885 184.175736 
L 709.809372 181.975283 
L 714.939859 188.692455 
L 720.070347 189.097802 
L 725.200834 182.901789 
L 730.331321 189.387335 
L 735.461808 190.719189 
L 740.592295 196.278228 
L 745.722783 192.745922 
L 750.85327 197.899615 
L 755.983757 190.545469 
L 761.114244 195.699161 
L 766.244731 186.318282 
L 771.375218 194.946375 
L 776.505706 188.171296 
L 781.636193 182.843883 
L 786.76668 187.534322 
L 791.897167 191.819415 
L 797.027654 193.151268 
L 802.158142 184.407363 
L 807.288629 179.543203 
L 812.419116 160.607725 
L 817.549603 157.017512 
L 822.68009 163.329338 
L 827.810578 158.175645 
L 832.941065 160.839352 
L 838.071552 160.839352 
L 843.202039 161.650045 
L 848.332526 161.534232 
L 853.463014 159.449592 
L 858.593501 160.260285 
L 863.723988 156.785886 
L 868.854475 143.69898 
L 873.984962 128.932782 
L 879.11545 135.244608 
L 884.245937 116.367037 
L 889.376424 104.496171 
L 894.506911 103.338038 
L 899.637398 83.823493 
L 904.767885 116.598663 
L 909.898373 123.257929 
L 915.02886 135.592048 
L 920.159347 135.360421 
L 925.289834 134.376008 
L 930.420321 141.845967 
L 935.550809 137.908314 
L 940.681296 146.883847 
L 945.811783 143.814794 
L 950.94227 147.3471 
L 956.072757 134.260195 
L 961.203245 100.558518 
L 966.333732 96.157612 
L 971.464219 103.280131 
L 976.594706 82.028387 
L 981.725193 81.79676 
L 986.855681 81.333507 
L 991.986168 87.413706 
L 997.116655 87.297893 
L 1002.247142 80.58072 
L 1007.377629 63.266629 
L 1012.508117 55.10179 
L 1022.769091 71.431468 
L 1022.769091 71.431468 
" style="fill:none;stroke:#1f77b4;stroke-linecap:square;stroke-width:1.5;"/>
   </g>
   <g id="line2d_32">
    <path clip-path="url(#p0cf4a20bc0)" d="M 94.150909 453.615427 
L 99.281396 447.361508 
L 104.411883 443.597575 
L 109.542371 443.481762 
L 114.672858 434.853669 
L 119.803345 443.423855 
L 124.933832 446.377095 
L 135.194807 464.791413 
L 140.325294 478.225758 
L 145.455781 490.907317 
L 150.586268 506.426302 
L 155.716755 509.726981 
L 160.847243 524.087833 
L 165.97773 543.312844 
L 171.108217 534.105685 
L 176.238704 526.693633 
L 181.369191 500.288196 
L 186.499679 475.677865 
L 191.630166 466.181173 
L 196.760653 395.013887 
L 201.89114 378.278862 
L 207.021627 281.458926 
L 212.152115 282.674965 
L 217.282602 267.966674 
L 222.413089 281.458926 
L 227.543576 293.098164 
L 232.674063 306.53251 
L 237.80455 356.390144 
L 242.935038 367.624036 
L 248.065525 336.759786 
L 253.196012 323.151721 
L 258.326499 310.643883 
L 263.456986 282.906592 
L 268.587474 290.955618 
L 273.717961 322.225215 
L 278.848448 317.361055 
L 283.978935 320.661735 
L 289.109422 330.96912 
L 294.23991 325.178454 
L 299.370397 333.690733 
L 304.500884 327.205187 
L 309.631371 312.438989 
L 314.761858 333.343293 
L 319.892346 318.635002 
L 325.022833 321.124988 
L 330.15332 300.45231 
L 335.283807 297.614884 
L 340.414294 323.441254 
L 345.544782 315.102695 
L 350.675269 317.013615 
L 355.805756 321.530335 
L 360.936243 326.336588 
L 366.06673 310.064816 
L 371.197217 304.563683 
L 376.327705 296.456751 
L 381.458192 302.073697 
L 386.588679 298.54139 
L 391.719166 300.336497 
L 396.849653 299.40999 
L 401.980141 290.260738 
L 407.110628 298.020231 
L 412.241115 292.866538 
L 417.371602 326.394494 
L 422.502089 327.900067 
L 427.632577 343.708586 
L 432.763064 334.61724 
L 437.893551 338.960239 
L 443.024038 370.403556 
L 448.154525 392.465994 
L 453.285013 407.521726 
L 458.4155 419.855844 
L 463.545987 440.181082 
L 468.676474 462.011893 
L 473.806961 472.550905 
L 478.937449 446.377095 
L 484.067936 466.991866 
L 489.198423 468.149999 
L 494.32891 453.325894 
L 499.459397 469.134412 
L 504.589884 462.24352 
L 509.720372 455.64216 
L 514.850859 476.199025 
L 519.981346 448.751268 
L 525.111833 445.450588 
L 530.24232 436.648776 
L 535.372808 440.933869 
L 540.503295 461.54864 
L 545.633782 456.68448 
L 550.764269 443.481762 
L 555.894756 439.196669 
L 561.025244 441.570842 
L 566.155731 432.884843 
L 571.286218 445.334775 
L 576.416705 448.982894 
L 581.547192 435.316923 
L 586.67768 445.508495 
L 591.808167 439.659922 
L 596.938654 440.991775 
L 602.069141 451.414974 
L 607.199628 442.149909 
L 612.330116 446.898255 
L 617.460603 446.550815 
L 622.59109 472.782532 
L 627.721577 455.121 
L 632.852064 464.328159 
L 637.982551 479.731331 
L 643.113039 490.444063 
L 648.243526 506.542115 
L 653.374013 533.989872 
L 658.5045 535.784979 
L 663.634987 558.13695 
L 668.765475 564.564589 
L 673.895962 560.047869 
L 679.026449 563.580176 
L 684.156936 585.758427 
L 689.287423 566.475509 
L 694.417911 574.292908 
L 699.548398 587.09028 
L 704.678885 581.473334 
L 709.809372 577.883121 
L 714.939859 572.613615 
L 720.070347 572.787335 
L 725.200834 563.059016 
L 730.331321 585.17936 
L 735.461808 582.22612 
L 740.592295 590.970026 
L 745.722783 601.451132 
L 750.85327 610.889917 
L 755.983757 585.87424 
L 761.114244 585.87424 
L 766.244731 579.562414 
L 771.375218 587.032373 
L 776.505706 579.794041 
L 781.636193 578.809627 
L 786.76668 596.355345 
L 791.897167 599.771838 
L 797.027654 612.337584 
L 802.158142 584.31076 
L 807.288629 575.856388 
L 812.419116 564.506682 
L 817.549603 556.805096 
L 822.68009 557.61579 
L 827.810578 544.934231 
L 832.941065 560.047869 
L 838.071552 564.448775 
L 843.202039 565.143655 
L 848.332526 569.602468 
L 853.463014 564.912029 
L 858.593501 554.083483 
L 863.723988 561.495536 
L 868.854475 539.606818 
L 873.984962 516.675781 
L 879.11545 514.359514 
L 884.245937 489.228024 
L 889.376424 478.631105 
L 894.506911 474.751358 
L 899.637398 466.354893 
L 904.767885 499.361689 
L 915.02886 516.270434 
L 920.159347 522.871793 
L 925.289834 527.041073 
L 930.420321 530.168032 
L 935.550809 527.330606 
L 940.681296 542.502151 
L 945.811783 541.691458 
L 950.94227 541.401925 
L 956.072757 520.034367 
L 961.203245 485.116651 
L 966.333732 480.947371 
L 971.464219 493.397303 
L 976.594706 483.842704 
L 981.725193 496.582169 
L 986.855681 494.960783 
L 991.986168 498.956342 
L 997.116655 493.513116 
L 1002.247142 487.664544 
L 1007.377629 461.432826 
L 1012.508117 450.314748 
L 1017.638604 446.956161 
L 1022.769091 447.303601 
L 1022.769091 447.303601 
" style="fill:none;stroke:#ff7f0e;stroke-linecap:square;stroke-width:1.5;"/>
   </g>
   <g id="patch_3">
    <path d="M 47.72 640.199373 
L 47.72 27.24 
" style="fill:none;stroke:#000000;stroke-linecap:square;stroke-linejoin:miter;stroke-width:0.8;"/>
   </g>
   <g id="patch_4">
    <path d="M 1069.2 640.199373 
L 1069.2 27.24 
" style="fill:none;stroke:#000000;stroke-linecap:square;stroke-linejoin:miter;stroke-width:0.8;"/>
   </g>
   <g id="patch_5">
    <path d="M 47.72 640.199373 
L 1069.2 640.199373 
" style="fill:none;stroke:#000000;stroke-linecap:square;stroke-linejoin:miter;stroke-width:0.8;"/>
   </g>
   <g id="patch_6">
    <path d="M 47.72 27.24 
L 1069.2 27.24 
" style="fill:none;stroke:#000000;stroke-linecap:square;stroke-linejoin:miter;stroke-width:0.8;"/>
   </g>
   <g id="text_31">
    <!-- Kursy euro oraz dolara amerykańskiego z ostatnich 6 miesięcy -->
    <g transform="translate(370.42375 21.24)scale(0.12 -0.12)">
     <defs>
      <path d="M 30.609375 48.390625 
Q 23.390625 48.390625 19.1875 42.75 
Q 14.984375 37.109375 14.984375 27.296875 
Q 14.984375 17.484375 19.15625 11.84375 
Q 23.34375 6.203125 30.609375 6.203125 
Q 37.796875 6.203125 41.984375 11.859375 
Q 46.1875 17.53125 46.1875 27.296875 
Q 46.1875 37.015625 41.984375 42.703125 
Q 37.796875 48.390625 30.609375 48.390625 
z
M 30.609375 56 
Q 42.328125 56 49.015625 48.375 
Q 55.71875 40.765625 55.71875 27.296875 
Q 55.71875 13.875 49.015625 6.21875 
Q 42.328125 -1.421875 30.609375 -1.421875 
Q 18.84375 -1.421875 12.171875 6.21875 
Q 5.515625 13.875 5.515625 27.296875 
Q 5.515625 40.765625 12.171875 48.375 
Q 18.84375 56 30.609375 56 
z
" id="DejaVuSans-111"/>
      <path d="M 45.40625 46.390625 
L 45.40625 75.984375 
L 54.390625 75.984375 
L 54.390625 0 
L 45.40625 0 
L 45.40625 8.203125 
Q 42.578125 3.328125 38.25 0.953125 
Q 33.9375 -1.421875 27.875 -1.421875 
Q 17.96875 -1.421875 11.734375 6.484375 
Q 5.515625 14.40625 5.515625 27.296875 
Q 5.515625 40.1875 11.734375 48.09375 
Q 17.96875 56 27.875 56 
Q 33.9375 56 38.25 53.625 
Q 42.578125 51.265625 45.40625 46.390625 
z
M 14.796875 27.296875 
Q 14.796875 17.390625 18.875 11.75 
Q 22.953125 6.109375 30.078125 6.109375 
Q 37.203125 6.109375 41.296875 11.75 
Q 45.40625 17.390625 45.40625 27.296875 
Q 45.40625 37.203125 41.296875 42.84375 
Q 37.203125 48.484375 30.078125 48.484375 
Q 22.953125 48.484375 18.875 42.84375 
Q 14.796875 37.203125 14.796875 27.296875 
z
" id="DejaVuSans-100"/>
      <path d="M 52 44.1875 
Q 55.375 50.25 60.0625 53.125 
Q 64.75 56 71.09375 56 
Q 79.640625 56 84.28125 50.015625 
Q 88.921875 44.046875 88.921875 33.015625 
L 88.921875 0 
L 79.890625 0 
L 79.890625 32.71875 
Q 79.890625 40.578125 77.09375 44.375 
Q 74.3125 48.1875 68.609375 48.1875 
Q 61.625 48.1875 57.5625 43.546875 
Q 53.515625 38.921875 53.515625 30.90625 
L 53.515625 0 
L 44.484375 0 
L 44.484375 32.71875 
Q 44.484375 40.625 41.703125 44.40625 
Q 38.921875 48.1875 33.109375 48.1875 
Q 26.21875 48.1875 22.15625 43.53125 
Q 18.109375 38.875 18.109375 30.90625 
L 18.109375 0 
L 9.078125 0 
L 9.078125 54.6875 
L 18.109375 54.6875 
L 18.109375 46.1875 
Q 21.1875 51.21875 25.484375 53.609375 
Q 29.78125 56 35.6875 56 
Q 41.65625 56 45.828125 52.96875 
Q 50 49.953125 52 44.1875 
z
" id="DejaVuSans-109"/>
      <path d="M 9.078125 75.984375 
L 18.109375 75.984375 
L 18.109375 31.109375 
L 44.921875 54.6875 
L 56.390625 54.6875 
L 27.390625 29.109375 
L 57.625 0 
L 45.90625 0 
L 18.109375 26.703125 
L 18.109375 0 
L 9.078125 0 
z
" id="DejaVuSans-107"/>
      <path d="M 45.40625 27.984375 
Q 45.40625 37.75 41.375 43.109375 
Q 37.359375 48.484375 30.078125 48.484375 
Q 22.859375 48.484375 18.828125 43.109375 
Q 14.796875 37.75 14.796875 27.984375 
Q 14.796875 18.265625 18.828125 12.890625 
Q 22.859375 7.515625 30.078125 7.515625 
Q 37.359375 7.515625 41.375 12.890625 
Q 45.40625 18.265625 45.40625 27.984375 
z
M 54.390625 6.78125 
Q 54.390625 -7.171875 48.1875 -13.984375 
Q 42 -20.796875 29.203125 -20.796875 
Q 24.46875 -20.796875 20.265625 -20.09375 
Q 16.0625 -19.390625 12.109375 -17.921875 
L 12.109375 -9.1875 
Q 16.0625 -11.328125 19.921875 -12.34375 
Q 23.78125 -13.375 27.78125 -13.375 
Q 36.625 -13.375 41.015625 -8.765625 
Q 45.40625 -4.15625 45.40625 5.171875 
L 45.40625 9.625 
Q 42.625 4.78125 38.28125 2.390625 
Q 33.9375 0 27.875 0 
Q 17.828125 0 11.671875 7.65625 
Q 5.515625 15.328125 5.515625 27.984375 
Q 5.515625 40.671875 11.671875 48.328125 
Q 17.828125 56 27.875 56 
Q 33.9375 56 38.28125 53.609375 
Q 42.625 51.21875 45.40625 46.390625 
L 45.40625 54.6875 
L 54.390625 54.6875 
z
" id="DejaVuSans-103"/>
      <path d="M 54.890625 33.015625 
L 54.890625 0 
L 45.90625 0 
L 45.90625 32.71875 
Q 45.90625 40.484375 42.875 44.328125 
Q 39.84375 48.1875 33.796875 48.1875 
Q 26.515625 48.1875 22.3125 43.546875 
Q 18.109375 38.921875 18.109375 30.90625 
L 18.109375 0 
L 9.078125 0 
L 9.078125 54.6875 
L 18.109375 54.6875 
L 18.109375 46.1875 
Q 21.34375 51.125 25.703125 53.5625 
Q 30.078125 56 35.796875 56 
Q 45.21875 56 50.046875 50.171875 
Q 54.890625 44.34375 54.890625 33.015625 
z
" id="DejaVuSans-110"/>
      <path d="M 48.78125 52.59375 
L 48.78125 44.1875 
Q 44.96875 46.296875 41.140625 47.34375 
Q 37.3125 48.390625 33.40625 48.390625 
Q 24.65625 48.390625 19.8125 42.84375 
Q 14.984375 37.3125 14.984375 27.296875 
Q 14.984375 17.28125 19.8125 11.734375 
Q 24.65625 6.203125 33.40625 6.203125 
Q 37.3125 6.203125 41.140625 7.25 
Q 44.96875 8.296875 48.78125 10.40625 
L 48.78125 2.09375 
Q 45.015625 0.34375 40.984375 -0.53125 
Q 36.96875 -1.421875 32.421875 -1.421875 
Q 20.0625 -1.421875 12.78125 6.34375 
Q 5.515625 14.109375 5.515625 27.296875 
Q 5.515625 40.671875 12.859375 48.328125 
Q 20.21875 56 33.015625 56 
Q 37.15625 56 41.109375 55.140625 
Q 45.0625 54.296875 48.78125 52.59375 
z
" id="DejaVuSans-99"/>
      <path d="M 54.890625 33.015625 
L 54.890625 0 
L 45.90625 0 
L 45.90625 32.71875 
Q 45.90625 40.484375 42.875 44.328125 
Q 39.84375 48.1875 33.796875 48.1875 
Q 26.515625 48.1875 22.3125 43.546875 
Q 18.109375 38.921875 18.109375 30.90625 
L 18.109375 0 
L 9.078125 0 
L 9.078125 75.984375 
L 18.109375 75.984375 
L 18.109375 46.1875 
Q 21.34375 51.125 25.703125 53.5625 
Q 30.078125 56 35.796875 56 
Q 45.21875 56 50.046875 50.171875 
Q 54.890625 44.34375 54.890625 33.015625 
z
" id="DejaVuSans-104"/>
      <path d="M 56.203125 29.59375 
L 56.203125 25.203125 
L 14.890625 25.203125 
Q 15.484375 15.921875 20.484375 11.0625 
Q 25.484375 6.203125 34.421875 6.203125 
Q 39.59375 6.203125 44.453125 7.46875 
Q 49.3125 8.734375 54.109375 11.28125 
L 54.109375 2.78125 
Q 49.265625 0.734375 44.1875 -0.34375 
Q 39.109375 -1.421875 33.890625 -1.421875 
Q 20.796875 -1.421875 13.15625 6.1875 
Q 5.515625 13.8125 5.515625 26.8125 
Q 5.515625 40.234375 12.765625 48.109375 
Q 20.015625 56 32.328125 56 
Q 43.359375 56 49.78125 48.890625 
Q 56.203125 41.796875 56.203125 29.59375 
z
M 47.21875 32.234375 
Q 47.125 39.59375 43.09375 43.984375 
Q 39.0625 48.390625 32.421875 48.390625 
Q 24.90625 48.390625 20.390625 44.140625 
Q 15.875 39.890625 15.1875 32.171875 
z
M 39.859375 0 
L 45.671875 0 
Q 43.46875 -2.984375 42.421875 -5.125 
Q 41.375 -7.28125 41.375 -8.796875 
Q 41.375 -11.03125 42.71875 -12.15625 
Q 44.0625 -13.28125 46.703125 -13.28125 
Q 48.265625 -13.28125 49.765625 -12.90625 
Q 51.28125 -12.546875 52.796875 -11.8125 
L 52.796875 -18.3125 
Q 50.9375 -18.796875 49.28125 -19.03125 
Q 47.625 -19.28125 46.15625 -19.28125 
Q 40.203125 -19.28125 37.390625 -17.15625 
Q 34.59375 -15.046875 34.59375 -10.5 
Q 34.59375 -8.15625 35.875 -5.59375 
Q 37.171875 -3.03125 39.859375 0 
z
" id="DejaVuSans-281"/>
     </defs>
     <use xlink:href="#DejaVuSans-75"/>
     <use x="60.576172" xlink:href="#DejaVuSans-117"/>
     <use x="123.955078" xlink:href="#DejaVuSans-114"/>
     <use x="165.068359" xlink:href="#DejaVuSans-115"/>
     <use x="217.167969" xlink:href="#DejaVuSans-121"/>
     <use x="276.347656" xlink:href="#DejaVuSans-32"/>
     <use x="308.134766" xlink:href="#DejaVuSans-101"/>
     <use x="369.658203" xlink:href="#DejaVuSans-117"/>
     <use x="433.037109" xlink:href="#DejaVuSans-114"/>
     <use x="471.900391" xlink:href="#DejaVuSans-111"/>
     <use x="533.082031" xlink:href="#DejaVuSans-32"/>
     <use x="564.869141" xlink:href="#DejaVuSans-111"/>
     <use x="626.050781" xlink:href="#DejaVuSans-114"/>
     <use x="667.164062" xlink:href="#DejaVuSans-97"/>
     <use x="728.443359" xlink:href="#DejaVuSans-122"/>
     <use x="780.933594" xlink:href="#DejaVuSans-32"/>
     <use x="812.720703" xlink:href="#DejaVuSans-100"/>
     <use x="876.197266" xlink:href="#DejaVuSans-111"/>
     <use x="937.378906" xlink:href="#DejaVuSans-108"/>
     <use x="965.162109" xlink:href="#DejaVuSans-97"/>
     <use x="1026.441406" xlink:href="#DejaVuSans-114"/>
     <use x="1067.554688" xlink:href="#DejaVuSans-97"/>
     <use x="1128.833984" xlink:href="#DejaVuSans-32"/>
     <use x="1160.621094" xlink:href="#DejaVuSans-97"/>
     <use x="1221.900391" xlink:href="#DejaVuSans-109"/>
     <use x="1319.3125" xlink:href="#DejaVuSans-101"/>
     <use x="1380.835938" xlink:href="#DejaVuSans-114"/>
     <use x="1421.949219" xlink:href="#DejaVuSans-121"/>
     <use x="1481.128906" xlink:href="#DejaVuSans-107"/>
     <use x="1537.289062" xlink:href="#DejaVuSans-97"/>
     <use x="1598.568359" xlink:href="#DejaVuSans-324"/>
     <use x="1661.947266" xlink:href="#DejaVuSans-115"/>
     <use x="1714.046875" xlink:href="#DejaVuSans-107"/>
     <use x="1771.957031" xlink:href="#DejaVuSans-105"/>
     <use x="1799.740234" xlink:href="#DejaVuSans-101"/>
     <use x="1861.263672" xlink:href="#DejaVuSans-103"/>
     <use x="1924.740234" xlink:href="#DejaVuSans-111"/>
     <use x="1985.921875" xlink:href="#DejaVuSans-32"/>
     <use x="2017.708984" xlink:href="#DejaVuSans-122"/>
     <use x="2070.199219" xlink:href="#DejaVuSans-32"/>
     <use x="2101.986328" xlink:href="#DejaVuSans-111"/>
     <use x="2163.167969" xlink:href="#DejaVuSans-115"/>
     <use x="2215.267578" xlink:href="#DejaVuSans-116"/>
     <use x="2254.476562" xlink:href="#DejaVuSans-97"/>
     <use x="2315.755859" xlink:href="#DejaVuSans-116"/>
     <use x="2354.964844" xlink:href="#DejaVuSans-110"/>
     <use x="2418.34375" xlink:href="#DejaVuSans-105"/>
     <use x="2446.126953" xlink:href="#DejaVuSans-99"/>
     <use x="2501.107422" xlink:href="#DejaVuSans-104"/>
     <use x="2564.486328" xlink:href="#DejaVuSans-32"/>
     <use x="2596.273438" xlink:href="#DejaVuSans-54"/>
     <use x="2659.896484" xlink:href="#DejaVuSans-32"/>
     <use x="2691.683594" xlink:href="#DejaVuSans-109"/>
     <use x="2789.095703" xlink:href="#DejaVuSans-105"/>
     <use x="2816.878906" xlink:href="#DejaVuSans-101"/>
     <use x="2878.402344" xlink:href="#DejaVuSans-115"/>
     <use x="2930.501953" xlink:href="#DejaVuSans-105"/>
     <use x="2958.285156" xlink:href="#DejaVuSans-281"/>
     <use x="3019.808594" xlink:href="#DejaVuSans-99"/>
     <use x="3074.789062" xlink:href="#DejaVuSans-121"/>
    </g>
   </g>
   <g id="legend_1">
    <g id="patch_7">
     <path d="M 54.72 64.99625 
L 228.935625 64.99625 
Q 230.935625 64.99625 230.935625 62.99625 
L 230.935625 34.24 
Q 230.935625 32.24 228.935625 32.24 
L 54.72 32.24 
Q 52.72 32.24 52.72 34.24 
L 52.72 62.99625 
Q 52.72 64.99625 54.72 64.99625 
z
" style="fill:#ffffff;opacity:0.8;stroke:#cccccc;stroke-linejoin:miter;"/>
    </g>
    <g id="line2d_33">
     <path d="M 56.72 40.338438 
L 76.72 40.338438 
" style="fill:none;stroke:#1f77b4;stroke-linecap:square;stroke-width:1.5;"/>
    </g>
    <g id="line2d_34"/>
    <g id="text_32">
     <!-- Kurs euro -->
     <g transform="translate(84.72 43.838438)scale(0.1 -0.1)">
      <use xlink:href="#DejaVuSans-75"/>
      <use x="60.576172" xlink:href="#DejaVuSans-117"/>
      <use x="123.955078" xlink:href="#DejaVuSans-114"/>
      <use x="165.068359" xlink:href="#DejaVuSans-115"/>
      <use x="217.167969" xlink:href="#DejaVuSans-32"/>
      <use x="248.955078" xlink:href="#DejaVuSans-101"/>
      <use x="310.478516" xlink:href="#DejaVuSans-117"/>
      <use x="373.857422" xlink:href="#DejaVuSans-114"/>
      <use x="412.720703" xlink:href="#DejaVuSans-111"/>
     </g>
    </g>
    <g id="line2d_35">
     <path d="M 56.72 55.416563 
L 76.72 55.416563 
" style="fill:none;stroke:#ff7f0e;stroke-linecap:square;stroke-width:1.5;"/>
    </g>
    <g id="line2d_36"/>
    <g id="text_33">
     <!-- Kurs dolara amerykańskiego -->
     <g transform="translate(84.72 58.916563)scale(0.1 -0.1)">
      <use xlink:href="#DejaVuSans-75"/>
      <use x="60.576172" xlink:href="#DejaVuSans-117"/>
      <use x="123.955078" xlink:href="#DejaVuSans-114"/>
      <use x="165.068359" xlink:href="#DejaVuSans-115"/>
      <use x="217.167969" xlink:href="#DejaVuSans-32"/>
      <use x="248.955078" xlink:href="#DejaVuSans-100"/>
      <use x="312.431641" xlink:href="#DejaVuSans-111"/>
      <use x="373.613281" xlink:href="#DejaVuSans-108"/>
      <use x="401.396484" xlink:href="#DejaVuSans-97"/>
      <use x="462.675781" xlink:href="#DejaVuSans-114"/>
      <use x="503.789062" xlink:href="#DejaVuSans-97"/>
      <use x="565.068359" xlink:href="#DejaVuSans-32"/>
      <use x="596.855469" xlink:href="#DejaVuSans-97"/>
      <use x="658.134766" xlink:href="#DejaVuSans-109"/>
      <use x="755.546875" xlink:href="#DejaVuSans-101"/>
      <use x="817.070312" xlink:href="#DejaVuSans-114"/>
      <use x="858.183594" xlink:href="#DejaVuSans-121"/>
      <use x="917.363281" xlink:href="#DejaVuSans-107"/>
      <use x="973.523438" xlink:href="#DejaVuSans-97"/>
      <use x="1034.802734" xlink:href="#DejaVuSans-324"/>
      <use x="1098.181641" xlink:href="#DejaVuSans-115"/>
      <use x="1150.28125" xlink:href="#DejaVuSans-107"/>
      <use x="1208.191406" xlink:href="#DejaVuSans-105"/>
      <use x="1235.974609" xlink:href="#DejaVuSans-101"/>
      <use x="1297.498047" xlink:href="#DejaVuSans-103"/>
      <use x="1360.974609" xlink:href="#DejaVuSans-111"/>
     </g>
    </g>
   </g>
  </g>
 </g>
 <defs>
  <clipPath id="p0cf4a20bc0">
   <rect height="612.959373" width="1021.48" x="47.72" y="27.24"/>
  </clipPath>
 </defs>
</svg>
