<?xml version="1.0" encoding="utf-8" standalone="no"?>
<!DOCTYPE svg PUBLIC "-//W3C//DTD SVG 1.1//EN"
  "http://www.w3.org/Graphics/SVG/1.1/DTD/svg11.dtd">
<!-- Created with matplotlib (https://matplotlib.org/) -->
<svg height="345.6pt" version="1.1" viewBox="0 0 460.8 345.6" width="460.8pt" xmlns="http://www.w3.org/2000/svg" xmlns:xlink="http://www.w3.org/1999/xlink">
 <metadata>
  <rdf:RDF xmlns:cc="http://creativecommons.org/ns#" xmlns:dc="http://purl.org/dc/elements/1.1/" xmlns:rdf="http://www.w3.org/1999/02/22-rdf-syntax-ns#">
   <cc:Work>
    <dc:type rdf:resource="http://purl.org/dc/dcmitype/StillImage"/>
    <dc:date>2020-11-20T20:29:49.453595</dc:date>
    <dc:format>image/svg+xml</dc:format>
    <dc:creator>
     <cc:Agent>
      <dc:title>Matplotlib v3.3.2, https://matplotlib.org/</dc:title>
     </cc:Agent>
    </dc:creator>
   </cc:Work>
  </rdf:RDF>
 </metadata>
 <defs>
  <style type="text/css">*{stroke-linecap:butt;stroke-linejoin:round;}</style>
 </defs>
 <g id="figure_1">
  <g id="patch_1">
   <path d="M 0 345.6 
L 460.8 345.6 
L 460.8 0 
L 0 0 
z
" style="fill:#ffffff;"/>
  </g>
  <g id="axes_1">
   <g id="patch_2">
    <path d="M 57.6 293.76 
L 414.72 293.76 
L 414.72 41.472 
L 57.6 41.472 
z
" style="fill:#ffffff;"/>
   </g>
   <g id="matplotlib.axis_1">
    <g id="xtick_1">
     <g id="line2d_1">
      <defs>
       <path d="M 0 0 
L 0 3.5 
" id="m11b70e774c" style="stroke:#000000;stroke-width:0.8;"/>
      </defs>
      <g>
       <use style="stroke:#000000;stroke-width:0.8;" x="73.832727" xlink:href="#m11b70e774c" y="293.76"/>
      </g>
     </g>
     <g id="text_1">
      <!-- 2011-07-04 -->
      <g transform="translate(47.471077 327.77691)rotate(-20)scale(0.1 -0.1)">
       <defs>
        <path d="M 19.1875 8.296875 
L 53.609375 8.296875 
L 53.609375 0 
L 7.328125 0 
L 7.328125 8.296875 
Q 12.9375 14.109375 22.625 23.890625 
Q 32.328125 33.6875 34.8125 36.53125 
Q 39.546875 41.84375 41.421875 45.53125 
Q 43.3125 49.21875 43.3125 52.78125 
Q 43.3125 58.59375 39.234375 62.25 
Q 35.15625 65.921875 28.609375 65.921875 
Q 23.96875 65.921875 18.8125 64.3125 
Q 13.671875 62.703125 7.8125 59.421875 
L 7.8125 69.390625 
Q 13.765625 71.78125 18.9375 73 
Q 24.125 74.21875 28.421875 74.21875 
Q 39.75 74.21875 46.484375 68.546875 
Q 53.21875 62.890625 53.21875 53.421875 
Q 53.21875 48.921875 51.53125 44.890625 
Q 49.859375 40.875 45.40625 35.40625 
Q 44.1875 33.984375 37.640625 27.21875 
Q 31.109375 20.453125 19.1875 8.296875 
z
" id="DejaVuSans-50"/>
        <path d="M 31.78125 66.40625 
Q 24.171875 66.40625 20.328125 58.90625 
Q 16.5 51.421875 16.5 36.375 
Q 16.5 21.390625 20.328125 13.890625 
Q 24.171875 6.390625 31.78125 6.390625 
Q 39.453125 6.390625 43.28125 13.890625 
Q 47.125 21.390625 47.125 36.375 
Q 47.125 51.421875 43.28125 58.90625 
Q 39.453125 66.40625 31.78125 66.40625 
z
M 31.78125 74.21875 
Q 44.046875 74.21875 50.515625 64.515625 
Q 56.984375 54.828125 56.984375 36.375 
Q 56.984375 17.96875 50.515625 8.265625 
Q 44.046875 -1.421875 31.78125 -1.421875 
Q 19.53125 -1.421875 13.0625 8.265625 
Q 6.59375 17.96875 6.59375 36.375 
Q 6.59375 54.828125 13.0625 64.515625 
Q 19.53125 74.21875 31.78125 74.21875 
z
" id="DejaVuSans-48"/>
        <path d="M 12.40625 8.296875 
L 28.515625 8.296875 
L 28.515625 63.921875 
L 10.984375 60.40625 
L 10.984375 69.390625 
L 28.421875 72.90625 
L 38.28125 72.90625 
L 38.28125 8.296875 
L 54.390625 8.296875 
L 54.390625 0 
L 12.40625 0 
z
" id="DejaVuSans-49"/>
        <path d="M 4.890625 31.390625 
L 31.203125 31.390625 
L 31.203125 23.390625 
L 4.890625 23.390625 
z
" id="DejaVuSans-45"/>
        <path d="M 8.203125 72.90625 
L 55.078125 72.90625 
L 55.078125 68.703125 
L 28.609375 0 
L 18.3125 0 
L 43.21875 64.59375 
L 8.203125 64.59375 
z
" id="DejaVuSans-55"/>
        <path d="M 37.796875 64.3125 
L 12.890625 25.390625 
L 37.796875 25.390625 
z
M 35.203125 72.90625 
L 47.609375 72.90625 
L 47.609375 25.390625 
L 58.015625 25.390625 
L 58.015625 17.1875 
L 47.609375 17.1875 
L 47.609375 0 
L 37.796875 0 
L 37.796875 17.1875 
L 4.890625 17.1875 
L 4.890625 26.703125 
z
" id="DejaVuSans-52"/>
       </defs>
       <use xlink:href="#DejaVuSans-50"/>
       <use x="63.623047" xlink:href="#DejaVuSans-48"/>
       <use x="127.246094" xlink:href="#DejaVuSans-49"/>
       <use x="190.869141" xlink:href="#DejaVuSans-49"/>
       <use x="254.492188" xlink:href="#DejaVuSans-45"/>
       <use x="290.576172" xlink:href="#DejaVuSans-48"/>
       <use x="354.199219" xlink:href="#DejaVuSans-55"/>
       <use x="417.822266" xlink:href="#DejaVuSans-45"/>
       <use x="453.90625" xlink:href="#DejaVuSans-48"/>
       <use x="517.529297" xlink:href="#DejaVuSans-52"/>
      </g>
     </g>
    </g>
    <g id="xtick_2">
     <g id="line2d_2">
      <g>
       <use style="stroke:#000000;stroke-width:0.8;" x="154.996364" xlink:href="#m11b70e774c" y="293.76"/>
      </g>
     </g>
     <g id="text_2">
      <!-- 2012-02-19 -->
      <g transform="translate(128.634713 327.77691)rotate(-20)scale(0.1 -0.1)">
       <defs>
        <path d="M 10.984375 1.515625 
L 10.984375 10.5 
Q 14.703125 8.734375 18.5 7.8125 
Q 22.3125 6.890625 25.984375 6.890625 
Q 35.75 6.890625 40.890625 13.453125 
Q 46.046875 20.015625 46.78125 33.40625 
Q 43.953125 29.203125 39.59375 26.953125 
Q 35.25 24.703125 29.984375 24.703125 
Q 19.046875 24.703125 12.671875 31.3125 
Q 6.296875 37.9375 6.296875 49.421875 
Q 6.296875 60.640625 12.9375 67.421875 
Q 19.578125 74.21875 30.609375 74.21875 
Q 43.265625 74.21875 49.921875 64.515625 
Q 56.59375 54.828125 56.59375 36.375 
Q 56.59375 19.140625 48.40625 8.859375 
Q 40.234375 -1.421875 26.421875 -1.421875 
Q 22.703125 -1.421875 18.890625 -0.6875 
Q 15.09375 0.046875 10.984375 1.515625 
z
M 30.609375 32.421875 
Q 37.25 32.421875 41.125 36.953125 
Q 45.015625 41.5 45.015625 49.421875 
Q 45.015625 57.28125 41.125 61.84375 
Q 37.25 66.40625 30.609375 66.40625 
Q 23.96875 66.40625 20.09375 61.84375 
Q 16.21875 57.28125 16.21875 49.421875 
Q 16.21875 41.5 20.09375 36.953125 
Q 23.96875 32.421875 30.609375 32.421875 
z
" id="DejaVuSans-57"/>
       </defs>
       <use xlink:href="#DejaVuSans-50"/>
       <use x="63.623047" xlink:href="#DejaVuSans-48"/>
       <use x="127.246094" xlink:href="#DejaVuSans-49"/>
       <use x="190.869141" xlink:href="#DejaVuSans-50"/>
       <use x="254.492188" xlink:href="#DejaVuSans-45"/>
       <use x="290.576172" xlink:href="#DejaVuSans-48"/>
       <use x="354.199219" xlink:href="#DejaVuSans-50"/>
       <use x="417.822266" xlink:href="#DejaVuSans-45"/>
       <use x="453.90625" xlink:href="#DejaVuSans-49"/>
       <use x="517.529297" xlink:href="#DejaVuSans-57"/>
      </g>
     </g>
    </g>
    <g id="xtick_3">
     <g id="line2d_3">
      <g>
       <use style="stroke:#000000;stroke-width:0.8;" x="236.16" xlink:href="#m11b70e774c" y="293.76"/>
      </g>
     </g>
     <g id="text_3">
      <!-- 2012-07-16 -->
      <g transform="translate(209.79835 327.77691)rotate(-20)scale(0.1 -0.1)">
       <defs>
        <path d="M 33.015625 40.375 
Q 26.375 40.375 22.484375 35.828125 
Q 18.609375 31.296875 18.609375 23.390625 
Q 18.609375 15.53125 22.484375 10.953125 
Q 26.375 6.390625 33.015625 6.390625 
Q 39.65625 6.390625 43.53125 10.953125 
Q 47.40625 15.53125 47.40625 23.390625 
Q 47.40625 31.296875 43.53125 35.828125 
Q 39.65625 40.375 33.015625 40.375 
z
M 52.59375 71.296875 
L 52.59375 62.3125 
Q 48.875 64.0625 45.09375 64.984375 
Q 41.3125 65.921875 37.59375 65.921875 
Q 27.828125 65.921875 22.671875 59.328125 
Q 17.53125 52.734375 16.796875 39.40625 
Q 19.671875 43.65625 24.015625 45.921875 
Q 28.375 48.1875 33.59375 48.1875 
Q 44.578125 48.1875 50.953125 41.515625 
Q 57.328125 34.859375 57.328125 23.390625 
Q 57.328125 12.15625 50.6875 5.359375 
Q 44.046875 -1.421875 33.015625 -1.421875 
Q 20.359375 -1.421875 13.671875 8.265625 
Q 6.984375 17.96875 6.984375 36.375 
Q 6.984375 53.65625 15.1875 63.9375 
Q 23.390625 74.21875 37.203125 74.21875 
Q 40.921875 74.21875 44.703125 73.484375 
Q 48.484375 72.75 52.59375 71.296875 
z
" id="DejaVuSans-54"/>
       </defs>
       <use xlink:href="#DejaVuSans-50"/>
       <use x="63.623047" xlink:href="#DejaVuSans-48"/>
       <use x="127.246094" xlink:href="#DejaVuSans-49"/>
       <use x="190.869141" xlink:href="#DejaVuSans-50"/>
       <use x="254.492188" xlink:href="#DejaVuSans-45"/>
       <use x="290.576172" xlink:href="#DejaVuSans-48"/>
       <use x="354.199219" xlink:href="#DejaVuSans-55"/>
       <use x="417.822266" xlink:href="#DejaVuSans-45"/>
       <use x="453.90625" xlink:href="#DejaVuSans-49"/>
       <use x="517.529297" xlink:href="#DejaVuSans-54"/>
      </g>
     </g>
    </g>
    <g id="xtick_4">
     <g id="line2d_4">
      <g>
       <use style="stroke:#000000;stroke-width:0.8;" x="317.323636" xlink:href="#m11b70e774c" y="293.76"/>
      </g>
     </g>
     <g id="text_4">
      <!-- 2012-12-10 -->
      <g transform="translate(290.961986 327.77691)rotate(-20)scale(0.1 -0.1)">
       <use xlink:href="#DejaVuSans-50"/>
       <use x="63.623047" xlink:href="#DejaVuSans-48"/>
       <use x="127.246094" xlink:href="#DejaVuSans-49"/>
       <use x="190.869141" xlink:href="#DejaVuSans-50"/>
       <use x="254.492188" xlink:href="#DejaVuSans-45"/>
       <use x="290.576172" xlink:href="#DejaVuSans-49"/>
       <use x="354.199219" xlink:href="#DejaVuSans-50"/>
       <use x="417.822266" xlink:href="#DejaVuSans-45"/>
       <use x="453.90625" xlink:href="#DejaVuSans-49"/>
       <use x="517.529297" xlink:href="#DejaVuSans-48"/>
      </g>
     </g>
    </g>
    <g id="xtick_5">
     <g id="line2d_5">
      <g>
       <use style="stroke:#000000;stroke-width:0.8;" x="398.487273" xlink:href="#m11b70e774c" y="293.76"/>
      </g>
     </g>
     <g id="text_5">
      <!-- 2013-05-06 -->
      <g transform="translate(372.125623 327.77691)rotate(-20)scale(0.1 -0.1)">
       <defs>
        <path d="M 40.578125 39.3125 
Q 47.65625 37.796875 51.625 33 
Q 55.609375 28.21875 55.609375 21.1875 
Q 55.609375 10.40625 48.1875 4.484375 
Q 40.765625 -1.421875 27.09375 -1.421875 
Q 22.515625 -1.421875 17.65625 -0.515625 
Q 12.796875 0.390625 7.625 2.203125 
L 7.625 11.71875 
Q 11.71875 9.328125 16.59375 8.109375 
Q 21.484375 6.890625 26.8125 6.890625 
Q 36.078125 6.890625 40.9375 10.546875 
Q 45.796875 14.203125 45.796875 21.1875 
Q 45.796875 27.640625 41.28125 31.265625 
Q 36.765625 34.90625 28.71875 34.90625 
L 20.21875 34.90625 
L 20.21875 43.015625 
L 29.109375 43.015625 
Q 36.375 43.015625 40.234375 45.921875 
Q 44.09375 48.828125 44.09375 54.296875 
Q 44.09375 59.90625 40.109375 62.90625 
Q 36.140625 65.921875 28.71875 65.921875 
Q 24.65625 65.921875 20.015625 65.03125 
Q 15.375 64.15625 9.8125 62.3125 
L 9.8125 71.09375 
Q 15.4375 72.65625 20.34375 73.4375 
Q 25.25 74.21875 29.59375 74.21875 
Q 40.828125 74.21875 47.359375 69.109375 
Q 53.90625 64.015625 53.90625 55.328125 
Q 53.90625 49.265625 50.4375 45.09375 
Q 46.96875 40.921875 40.578125 39.3125 
z
" id="DejaVuSans-51"/>
        <path d="M 10.796875 72.90625 
L 49.515625 72.90625 
L 49.515625 64.59375 
L 19.828125 64.59375 
L 19.828125 46.734375 
Q 21.96875 47.46875 24.109375 47.828125 
Q 26.265625 48.1875 28.421875 48.1875 
Q 40.625 48.1875 47.75 41.5 
Q 54.890625 34.8125 54.890625 23.390625 
Q 54.890625 11.625 47.5625 5.09375 
Q 40.234375 -1.421875 26.90625 -1.421875 
Q 22.3125 -1.421875 17.546875 -0.640625 
Q 12.796875 0.140625 7.71875 1.703125 
L 7.71875 11.625 
Q 12.109375 9.234375 16.796875 8.0625 
Q 21.484375 6.890625 26.703125 6.890625 
Q 35.15625 6.890625 40.078125 11.328125 
Q 45.015625 15.765625 45.015625 23.390625 
Q 45.015625 31 40.078125 35.4375 
Q 35.15625 39.890625 26.703125 39.890625 
Q 22.75 39.890625 18.8125 39.015625 
Q 14.890625 38.140625 10.796875 36.28125 
z
" id="DejaVuSans-53"/>
       </defs>
       <use xlink:href="#DejaVuSans-50"/>
       <use x="63.623047" xlink:href="#DejaVuSans-48"/>
       <use x="127.246094" xlink:href="#DejaVuSans-49"/>
       <use x="190.869141" xlink:href="#DejaVuSans-51"/>
       <use x="254.492188" xlink:href="#DejaVuSans-45"/>
       <use x="290.576172" xlink:href="#DejaVuSans-48"/>
       <use x="354.199219" xlink:href="#DejaVuSans-53"/>
       <use x="417.822266" xlink:href="#DejaVuSans-45"/>
       <use x="453.90625" xlink:href="#DejaVuSans-48"/>
       <use x="517.529297" xlink:href="#DejaVuSans-54"/>
      </g>
     </g>
    </g>
    <g id="text_6">
     <!-- days -->
     <g transform="translate(224.357656 341.329615)scale(0.1 -0.1)">
      <defs>
       <path d="M 45.40625 46.390625 
L 45.40625 75.984375 
L 54.390625 75.984375 
L 54.390625 0 
L 45.40625 0 
L 45.40625 8.203125 
Q 42.578125 3.328125 38.25 0.953125 
Q 33.9375 -1.421875 27.875 -1.421875 
Q 17.96875 -1.421875 11.734375 6.484375 
Q 5.515625 14.40625 5.515625 27.296875 
Q 5.515625 40.1875 11.734375 48.09375 
Q 17.96875 56 27.875 56 
Q 33.9375 56 38.25 53.625 
Q 42.578125 51.265625 45.40625 46.390625 
z
M 14.796875 27.296875 
Q 14.796875 17.390625 18.875 11.75 
Q 22.953125 6.109375 30.078125 6.109375 
Q 37.203125 6.109375 41.296875 11.75 
Q 45.40625 17.390625 45.40625 27.296875 
Q 45.40625 37.203125 41.296875 42.84375 
Q 37.203125 48.484375 30.078125 48.484375 
Q 22.953125 48.484375 18.875 42.84375 
Q 14.796875 37.203125 14.796875 27.296875 
z
" id="DejaVuSans-100"/>
       <path d="M 34.28125 27.484375 
Q 23.390625 27.484375 19.1875 25 
Q 14.984375 22.515625 14.984375 16.5 
Q 14.984375 11.71875 18.140625 8.90625 
Q 21.296875 6.109375 26.703125 6.109375 
Q 34.1875 6.109375 38.703125 11.40625 
Q 43.21875 16.703125 43.21875 25.484375 
L 43.21875 27.484375 
z
M 52.203125 31.203125 
L 52.203125 0 
L 43.21875 0 
L 43.21875 8.296875 
Q 40.140625 3.328125 35.546875 0.953125 
Q 30.953125 -1.421875 24.3125 -1.421875 
Q 15.921875 -1.421875 10.953125 3.296875 
Q 6 8.015625 6 15.921875 
Q 6 25.140625 12.171875 29.828125 
Q 18.359375 34.515625 30.609375 34.515625 
L 43.21875 34.515625 
L 43.21875 35.40625 
Q 43.21875 41.609375 39.140625 45 
Q 35.0625 48.390625 27.6875 48.390625 
Q 23 48.390625 18.546875 47.265625 
Q 14.109375 46.140625 10.015625 43.890625 
L 10.015625 52.203125 
Q 14.9375 54.109375 19.578125 55.046875 
Q 24.21875 56 28.609375 56 
Q 40.484375 56 46.34375 49.84375 
Q 52.203125 43.703125 52.203125 31.203125 
z
" id="DejaVuSans-97"/>
       <path d="M 32.171875 -5.078125 
Q 28.375 -14.84375 24.75 -17.8125 
Q 21.140625 -20.796875 15.09375 -20.796875 
L 7.90625 -20.796875 
L 7.90625 -13.28125 
L 13.1875 -13.28125 
Q 16.890625 -13.28125 18.9375 -11.515625 
Q 21 -9.765625 23.484375 -3.21875 
L 25.09375 0.875 
L 2.984375 54.6875 
L 12.5 54.6875 
L 29.59375 11.921875 
L 46.6875 54.6875 
L 56.203125 54.6875 
z
" id="DejaVuSans-121"/>
       <path d="M 44.28125 53.078125 
L 44.28125 44.578125 
Q 40.484375 46.53125 36.375 47.5 
Q 32.28125 48.484375 27.875 48.484375 
Q 21.1875 48.484375 17.84375 46.4375 
Q 14.5 44.390625 14.5 40.28125 
Q 14.5 37.15625 16.890625 35.375 
Q 19.28125 33.59375 26.515625 31.984375 
L 29.59375 31.296875 
Q 39.15625 29.25 43.1875 25.515625 
Q 47.21875 21.78125 47.21875 15.09375 
Q 47.21875 7.46875 41.1875 3.015625 
Q 35.15625 -1.421875 24.609375 -1.421875 
Q 20.21875 -1.421875 15.453125 -0.5625 
Q 10.6875 0.296875 5.421875 2 
L 5.421875 11.28125 
Q 10.40625 8.6875 15.234375 7.390625 
Q 20.0625 6.109375 24.8125 6.109375 
Q 31.15625 6.109375 34.5625 8.28125 
Q 37.984375 10.453125 37.984375 14.40625 
Q 37.984375 18.0625 35.515625 20.015625 
Q 33.0625 21.96875 24.703125 23.78125 
L 21.578125 24.515625 
Q 13.234375 26.265625 9.515625 29.90625 
Q 5.8125 33.546875 5.8125 39.890625 
Q 5.8125 47.609375 11.28125 51.796875 
Q 16.75 56 26.8125 56 
Q 31.78125 56 36.171875 55.265625 
Q 40.578125 54.546875 44.28125 53.078125 
z
" id="DejaVuSans-115"/>
      </defs>
      <use xlink:href="#DejaVuSans-100"/>
      <use x="63.476562" xlink:href="#DejaVuSans-97"/>
      <use x="124.755859" xlink:href="#DejaVuSans-121"/>
      <use x="183.935547" xlink:href="#DejaVuSans-115"/>
     </g>
    </g>
   </g>
   <g id="matplotlib.axis_2">
    <g id="ytick_1">
     <g id="line2d_6">
      <defs>
       <path d="M 0 0 
L -3.5 0 
" id="m6b55349872" style="stroke:#000000;stroke-width:0.8;"/>
      </defs>
      <g>
       <use style="stroke:#000000;stroke-width:0.8;" x="57.6" xlink:href="#m6b55349872" y="282.354106"/>
      </g>
     </g>
     <g id="text_7">
      <!-- 0 -->
      <g transform="translate(44.2375 286.153325)scale(0.1 -0.1)">
       <use xlink:href="#DejaVuSans-48"/>
      </g>
     </g>
    </g>
    <g id="ytick_2">
     <g id="line2d_7">
      <g>
       <use style="stroke:#000000;stroke-width:0.8;" x="57.6" xlink:href="#m6b55349872" y="230.90186"/>
      </g>
     </g>
     <g id="text_8">
      <!-- 5000 -->
      <g transform="translate(25.15 234.701079)scale(0.1 -0.1)">
       <use xlink:href="#DejaVuSans-53"/>
       <use x="63.623047" xlink:href="#DejaVuSans-48"/>
       <use x="127.246094" xlink:href="#DejaVuSans-48"/>
       <use x="190.869141" xlink:href="#DejaVuSans-48"/>
      </g>
     </g>
    </g>
    <g id="ytick_3">
     <g id="line2d_8">
      <g>
       <use style="stroke:#000000;stroke-width:0.8;" x="57.6" xlink:href="#m6b55349872" y="179.449614"/>
      </g>
     </g>
     <g id="text_9">
      <!-- 10000 -->
      <g transform="translate(18.7875 183.248833)scale(0.1 -0.1)">
       <use xlink:href="#DejaVuSans-49"/>
       <use x="63.623047" xlink:href="#DejaVuSans-48"/>
       <use x="127.246094" xlink:href="#DejaVuSans-48"/>
       <use x="190.869141" xlink:href="#DejaVuSans-48"/>
       <use x="254.492188" xlink:href="#DejaVuSans-48"/>
      </g>
     </g>
    </g>
    <g id="ytick_4">
     <g id="line2d_9">
      <g>
       <use style="stroke:#000000;stroke-width:0.8;" x="57.6" xlink:href="#m6b55349872" y="127.997368"/>
      </g>
     </g>
     <g id="text_10">
      <!-- 15000 -->
      <g transform="translate(18.7875 131.796587)scale(0.1 -0.1)">
       <use xlink:href="#DejaVuSans-49"/>
       <use x="63.623047" xlink:href="#DejaVuSans-53"/>
       <use x="127.246094" xlink:href="#DejaVuSans-48"/>
       <use x="190.869141" xlink:href="#DejaVuSans-48"/>
       <use x="254.492188" xlink:href="#DejaVuSans-48"/>
      </g>
     </g>
    </g>
    <g id="ytick_5">
     <g id="line2d_10">
      <g>
       <use style="stroke:#000000;stroke-width:0.8;" x="57.6" xlink:href="#m6b55349872" y="76.545122"/>
      </g>
     </g>
     <g id="text_11">
      <!-- 20000 -->
      <g transform="translate(18.7875 80.34434)scale(0.1 -0.1)">
       <use xlink:href="#DejaVuSans-50"/>
       <use x="63.623047" xlink:href="#DejaVuSans-48"/>
       <use x="127.246094" xlink:href="#DejaVuSans-48"/>
       <use x="190.869141" xlink:href="#DejaVuSans-48"/>
       <use x="254.492188" xlink:href="#DejaVuSans-48"/>
      </g>
     </g>
    </g>
    <g id="text_12">
     <!-- avg currency -->
     <g transform="translate(12.707812 200.185531)rotate(-90)scale(0.1 -0.1)">
      <defs>
       <path d="M 2.984375 54.6875 
L 12.5 54.6875 
L 29.59375 8.796875 
L 46.6875 54.6875 
L 56.203125 54.6875 
L 35.6875 0 
L 23.484375 0 
z
" id="DejaVuSans-118"/>
       <path d="M 45.40625 27.984375 
Q 45.40625 37.75 41.375 43.109375 
Q 37.359375 48.484375 30.078125 48.484375 
Q 22.859375 48.484375 18.828125 43.109375 
Q 14.796875 37.75 14.796875 27.984375 
Q 14.796875 18.265625 18.828125 12.890625 
Q 22.859375 7.515625 30.078125 7.515625 
Q 37.359375 7.515625 41.375 12.890625 
Q 45.40625 18.265625 45.40625 27.984375 
z
M 54.390625 6.78125 
Q 54.390625 -7.171875 48.1875 -13.984375 
Q 42 -20.796875 29.203125 -20.796875 
Q 24.46875 -20.796875 20.265625 -20.09375 
Q 16.0625 -19.390625 12.109375 -17.921875 
L 12.109375 -9.1875 
Q 16.0625 -11.328125 19.921875 -12.34375 
Q 23.78125 -13.375 27.78125 -13.375 
Q 36.625 -13.375 41.015625 -8.765625 
Q 45.40625 -4.15625 45.40625 5.171875 
L 45.40625 9.625 
Q 42.625 4.78125 38.28125 2.390625 
Q 33.9375 0 27.875 0 
Q 17.828125 0 11.671875 7.65625 
Q 5.515625 15.328125 5.515625 27.984375 
Q 5.515625 40.671875 11.671875 48.328125 
Q 17.828125 56 27.875 56 
Q 33.9375 56 38.28125 53.609375 
Q 42.625 51.21875 45.40625 46.390625 
L 45.40625 54.6875 
L 54.390625 54.6875 
z
" id="DejaVuSans-103"/>
       <path id="DejaVuSans-32"/>
       <path d="M 48.78125 52.59375 
L 48.78125 44.1875 
Q 44.96875 46.296875 41.140625 47.34375 
Q 37.3125 48.390625 33.40625 48.390625 
Q 24.65625 48.390625 19.8125 42.84375 
Q 14.984375 37.3125 14.984375 27.296875 
Q 14.984375 17.28125 19.8125 11.734375 
Q 24.65625 6.203125 33.40625 6.203125 
Q 37.3125 6.203125 41.140625 7.25 
Q 44.96875 8.296875 48.78125 10.40625 
L 48.78125 2.09375 
Q 45.015625 0.34375 40.984375 -0.53125 
Q 36.96875 -1.421875 32.421875 -1.421875 
Q 20.0625 -1.421875 12.78125 6.34375 
Q 5.515625 14.109375 5.515625 27.296875 
Q 5.515625 40.671875 12.859375 48.328125 
Q 20.21875 56 33.015625 56 
Q 37.15625 56 41.109375 55.140625 
Q 45.0625 54.296875 48.78125 52.59375 
z
" id="DejaVuSans-99"/>
       <path d="M 8.5 21.578125 
L 8.5 54.6875 
L 17.484375 54.6875 
L 17.484375 21.921875 
Q 17.484375 14.15625 20.5 10.265625 
Q 23.53125 6.390625 29.59375 6.390625 
Q 36.859375 6.390625 41.078125 11.03125 
Q 45.3125 15.671875 45.3125 23.6875 
L 45.3125 54.6875 
L 54.296875 54.6875 
L 54.296875 0 
L 45.3125 0 
L 45.3125 8.40625 
Q 42.046875 3.421875 37.71875 1 
Q 33.40625 -1.421875 27.6875 -1.421875 
Q 18.265625 -1.421875 13.375 4.4375 
Q 8.5 10.296875 8.5 21.578125 
z
M 31.109375 56 
z
" id="DejaVuSans-117"/>
       <path d="M 41.109375 46.296875 
Q 39.59375 47.171875 37.8125 47.578125 
Q 36.03125 48 33.890625 48 
Q 26.265625 48 22.1875 43.046875 
Q 18.109375 38.09375 18.109375 28.8125 
L 18.109375 0 
L 9.078125 0 
L 9.078125 54.6875 
L 18.109375 54.6875 
L 18.109375 46.1875 
Q 20.953125 51.171875 25.484375 53.578125 
Q 30.03125 56 36.53125 56 
Q 37.453125 56 38.578125 55.875 
Q 39.703125 55.765625 41.0625 55.515625 
z
" id="DejaVuSans-114"/>
       <path d="M 56.203125 29.59375 
L 56.203125 25.203125 
L 14.890625 25.203125 
Q 15.484375 15.921875 20.484375 11.0625 
Q 25.484375 6.203125 34.421875 6.203125 
Q 39.59375 6.203125 44.453125 7.46875 
Q 49.3125 8.734375 54.109375 11.28125 
L 54.109375 2.78125 
Q 49.265625 0.734375 44.1875 -0.34375 
Q 39.109375 -1.421875 33.890625 -1.421875 
Q 20.796875 -1.421875 13.15625 6.1875 
Q 5.515625 13.8125 5.515625 26.8125 
Q 5.515625 40.234375 12.765625 48.109375 
Q 20.015625 56 32.328125 56 
Q 43.359375 56 49.78125 48.890625 
Q 56.203125 41.796875 56.203125 29.59375 
z
M 47.21875 32.234375 
Q 47.125 39.59375 43.09375 43.984375 
Q 39.0625 48.390625 32.421875 48.390625 
Q 24.90625 48.390625 20.390625 44.140625 
Q 15.875 39.890625 15.1875 32.171875 
z
" id="DejaVuSans-101"/>
       <path d="M 54.890625 33.015625 
L 54.890625 0 
L 45.90625 0 
L 45.90625 32.71875 
Q 45.90625 40.484375 42.875 44.328125 
Q 39.84375 48.1875 33.796875 48.1875 
Q 26.515625 48.1875 22.3125 43.546875 
Q 18.109375 38.921875 18.109375 30.90625 
L 18.109375 0 
L 9.078125 0 
L 9.078125 54.6875 
L 18.109375 54.6875 
L 18.109375 46.1875 
Q 21.34375 51.125 25.703125 53.5625 
Q 30.078125 56 35.796875 56 
Q 45.21875 56 50.046875 50.171875 
Q 54.890625 44.34375 54.890625 33.015625 
z
" id="DejaVuSans-110"/>
      </defs>
      <use xlink:href="#DejaVuSans-97"/>
      <use x="61.279297" xlink:href="#DejaVuSans-118"/>
      <use x="120.458984" xlink:href="#DejaVuSans-103"/>
      <use x="183.935547" xlink:href="#DejaVuSans-32"/>
      <use x="215.722656" xlink:href="#DejaVuSans-99"/>
      <use x="270.703125" xlink:href="#DejaVuSans-117"/>
      <use x="334.082031" xlink:href="#DejaVuSans-114"/>
      <use x="373.445312" xlink:href="#DejaVuSans-114"/>
      <use x="412.308594" xlink:href="#DejaVuSans-101"/>
      <use x="473.832031" xlink:href="#DejaVuSans-110"/>
      <use x="537.210938" xlink:href="#DejaVuSans-99"/>
      <use x="592.191406" xlink:href="#DejaVuSans-121"/>
     </g>
    </g>
   </g>
   <g id="line2d_11">
    <path clip-path="url(#p09cca201ef)" d="M 73.832727 280.751472 
L 74.605714 281.487445 
L 75.378701 277.855019 
L 76.151688 281.330824 
L 76.924675 275.33993 
L 77.697662 281.689961 
L 78.470649 281.990853 
L 79.243636 279.032246 
L 80.016623 280.130649 
L 80.78961 280.771847 
L 81.562597 281.777018 
L 82.335584 275.165816 
L 83.108571 278.941588 
L 83.881558 278.271988 
L 84.654545 277.764051 
L 85.427532 281.764669 
L 86.200519 278.985631 
L 86.973506 277.441857 
L 87.746494 278.094478 
L 88.519481 278.294627 
L 89.292468 281.606196 
L 90.065455 282.039219 
L 90.838442 281.52943 
L 91.611429 280.505736 
L 92.384416 273.585615 
L 93.157403 282.029443 
L 93.93039 274.263961 
L 94.703377 281.543013 
L 95.476364 280.355495 
L 96.249351 279.5904 
L 97.022338 272.722657 
L 97.795325 281.577383 
L 98.568312 278.862557 
L 99.341299 280.525288 
L 100.114286 279.610261 
L 100.887273 281.25591 
L 101.66026 278.779204 
L 102.433247 282.075338 
L 103.206234 281.637891 
L 103.979221 282.292364 
L 104.752208 281.812417 
L 105.525195 279.543167 
L 106.298182 279.102942 
L 107.071169 278.938809 
L 107.844156 280.021056 
L 108.617143 281.887229 
L 109.39013 282.017403 
L 110.163117 275.797032 
L 110.936104 280.086915 
L 111.709091 280.963558 
L 112.482078 278.422537 
L 113.255065 274.145621 
L 114.028052 282.117323 
L 114.801039 282.204586 
L 115.574026 280.079917 
L 116.347013 281.293161 
L 117.12 280.623973 
L 117.892987 272.925585 
L 118.665974 267.594103 
L 119.438961 278.77694 
L 120.211948 280.851907 
L 120.984935 277.269595 
L 121.757922 276.997825 
L 123.303896 281.687903 
L 124.076883 281.065125 
L 124.84987 279.864744 
L 125.622857 275.666858 
L 126.395844 276.383588 
L 127.168831 280.876604 
L 127.941818 279.420505 
L 128.714805 280.521789 
L 129.487792 275.240936 
L 130.260779 281.913469 
L 131.033766 272.416208 
L 131.806753 281.326296 
L 132.57974 281.466452 
L 133.352727 280.4159 
L 134.125714 282.124938 
L 134.898701 278.16188 
L 135.671688 282.008347 
L 136.444675 275.781391 
L 137.217662 281.080149 
L 137.990649 278.952084 
L 138.763636 274.659423 
L 139.536623 282.066797 
L 140.30961 267.438821 
L 141.082597 281.850286 
L 141.855584 280.869503 
L 142.628571 282.141197 
L 143.401558 280.696212 
L 144.174545 260.39861 
L 144.947532 281.947839 
L 145.720519 280.593205 
L 146.493506 281.454412 
L 147.266494 274.684532 
L 148.039481 281.754996 
L 148.812468 281.374661 
L 149.585455 276.133118 
L 150.358442 280.500591 
L 151.131429 280.57283 
L 151.904416 281.953808 
L 152.677403 278.936648 
L 153.45039 281.147654 
L 154.223377 279.99039 
L 154.996364 273.363135 
L 155.769351 278.93387 
L 156.542338 281.264965 
L 157.315325 274.09705 
L 158.088312 281.371266 
L 158.861299 273.288221 
L 159.634286 280.94874 
L 160.407273 276.784709 
L 161.18026 282.103637 
L 161.953247 277.047733 
L 162.726234 273.474478 
L 163.499221 281.583146 
L 165.045195 280.041945 
L 165.818182 278.000629 
L 166.591169 281.79482 
L 167.364156 277.601977 
L 168.137143 279.852395 
L 168.91013 281.167309 
L 169.683117 282.049921 
L 170.456104 250.007108 
L 171.229091 280.026818 
L 172.002078 282.125864 
L 172.775065 280.936082 
L 173.548052 279.145544 
L 174.321039 278.136566 
L 175.094026 281.678435 
L 175.867013 281.931889 
L 176.64 274.633285 
L 177.412987 280.830297 
L 178.185974 280.427631 
L 178.958961 281.950206 
L 179.731948 279.946656 
L 180.504935 281.055966 
L 181.277922 279.57939 
L 182.050909 280.680262 
L 182.823896 279.634752 
L 183.596883 278.190591 
L 184.36987 281.773416 
L 185.142857 280.043592 
L 185.915844 282.004437 
L 186.688831 281.883318 
L 187.461818 261.668554 
L 188.234805 281.597553 
L 189.007792 235.738371 
L 189.780779 269.833202 
L 190.553766 277.74913 
L 191.326753 272.661532 
L 192.09974 278.462464 
L 192.872727 280.75034 
L 193.645714 279.441806 
L 194.418701 266.349679 
L 195.191688 281.742648 
L 195.964675 278.628243 
L 196.737662 281.652812 
L 197.510649 279.549239 
L 198.283636 266.388474 
L 199.056623 280.380295 
L 199.82961 274.420376 
L 200.602597 280.54237 
L 201.375584 273.660529 
L 202.148571 281.741413 
L 202.921558 281.449164 
L 203.694545 231.596054 
L 204.467532 281.837011 
L 205.240519 279.75618 
L 206.013506 282.015345 
L 206.786494 271.146058 
L 207.559481 282.083879 
L 208.332468 276.300544 
L 209.105455 278.473269 
L 209.878442 280.191157 
L 210.651429 267.846322 
L 211.424416 268.056556 
L 212.197403 279.482659 
L 212.97039 277.392566 
L 213.743377 281.843186 
L 214.516364 275.098208 
L 215.289351 281.350788 
L 216.062338 279.642985 
L 216.835325 281.820547 
L 217.608312 276.299103 
L 218.381299 281.967803 
L 219.154286 280.828444 
L 219.927273 276.941845 
L 220.70026 276.786767 
L 221.473247 276.23983 
L 222.246234 275.551502 
L 223.019221 280.08393 
L 223.792208 281.35902 
L 224.565195 281.832278 
L 225.338182 279.348986 
L 226.111169 281.397918 
L 226.884156 279.401571 
L 227.657143 282.118352 
L 229.203117 277.56452 
L 229.976104 282.123394 
L 230.749091 278.899603 
L 231.522078 281.213616 
L 232.295065 275.277056 
L 233.068052 278.525133 
L 233.841039 279.389634 
L 234.614026 280.766907 
L 235.387013 281.53828 
L 236.16 279.366686 
L 236.932987 282.192855 
L 237.705974 280.461075 
L 238.478961 265.433829 
L 239.251948 267.342399 
L 240.024935 281.677098 
L 240.797922 281.689858 
L 241.570909 278.665186 
L 242.343896 253.104533 
L 243.116883 281.482917 
L 243.88987 282.099418 
L 244.662857 273.325781 
L 246.208831 280.161212 
L 246.981818 280.676763 
L 247.754805 280.983007 
L 248.527792 271.818847 
L 249.300779 280.26566 
L 250.073766 274.292157 
L 250.846753 278.481604 
L 251.61974 281.25663 
L 252.392727 281.194579 
L 253.165714 239.76914 
L 253.938701 280.22882 
L 254.711688 274.980279 
L 255.484675 275.749593 
L 256.257662 281.349758 
L 257.030649 277.018508 
L 257.803636 279.432133 
L 258.576623 281.260026 
L 259.34961 274.429431 
L 260.122597 280.845012 
L 260.895584 276.215648 
L 261.668571 281.069652 
L 262.441558 277.716407 
L 263.214545 282.211481 
L 263.987532 257.058741 
L 264.760519 262.853396 
L 265.533506 280.375356 
L 266.306494 281.533649 
L 267.079481 277.022522 
L 267.852468 280.245285 
L 268.625455 273.885478 
L 269.398442 279.735187 
L 270.171429 271.29033 
L 270.944416 275.611598 
L 271.717403 280.752604 
L 272.49039 280.657726 
L 273.263377 281.251279 
L 274.036364 264.896771 
L 274.809351 281.088072 
L 275.582338 278.070398 
L 276.355325 277.104022 
L 277.128312 280.796132 
L 277.901299 268.033814 
L 278.674286 271.869785 
L 279.447273 281.50926 
L 280.22026 236.955629 
L 280.993247 261.696647 
L 281.766234 280.988975 
L 282.539221 277.284722 
L 283.312208 265.970991 
L 284.085195 279.003536 
L 284.858182 273.804184 
L 285.631169 276.185085 
L 286.404156 281.823737 
L 287.177143 275.676531 
L 287.95013 274.0634 
L 288.723117 282.059182 
L 289.496104 277.625748 
L 290.269091 272.147216 
L 291.042078 280.513145 
L 291.815065 278.337641 
L 292.588052 271.480394 
L 293.361039 281.751498 
L 294.134026 278.048685 
L 294.907013 280.008398 
L 295.68 281.601463 
L 296.452987 277.438667 
L 297.225974 274.090464 
L 297.998961 281.209705 
L 299.544935 277.415102 
L 300.317922 280.983007 
L 301.090909 280.828753 
L 301.863896 281.649005 
L 303.40987 273.712702 
L 304.182857 281.087764 
L 304.955844 280.441832 
L 305.728831 274.097153 
L 306.501818 271.460225 
L 307.274805 279.007652 
L 308.047792 275.478954 
L 308.820779 281.781134 
L 309.593766 280.616667 
L 310.366753 276.114492 
L 311.13974 277.088175 
L 311.912727 276.485257 
L 312.685714 266.997875 
L 313.458701 277.556184 
L 314.231688 281.698708 
L 315.777662 271.766572 
L 316.550649 282.085834 
L 317.323636 278.299258 
L 318.096623 277.478594 
L 318.86961 281.474273 
L 319.642597 266.797726 
L 320.415584 279.14647 
L 321.188571 279.389119 
L 321.961558 273.61237 
L 322.734545 271.567657 
L 323.507532 274.474606 
L 324.280519 279.499947 
L 325.053506 278.150561 
L 325.826494 279.47525 
L 326.599481 274.742158 
L 327.372468 266.540773 
L 328.145455 270.269414 
L 328.918442 280.95831 
L 329.691429 280.227894 
L 330.464416 278.549727 
L 331.237403 274.503626 
L 332.01039 247.999236 
L 332.783377 278.840947 
L 333.556364 280.062835 
L 334.329351 271.922472 
L 335.102338 280.066951 
L 335.875325 265.262699 
L 336.648312 273.395241 
L 337.421299 275.094503 
L 338.194286 258.790727 
L 338.967273 277.905339 
L 339.74026 260.266892 
L 340.513247 269.385773 
L 341.286234 248.81959 
L 342.059221 278.076881 
L 342.832208 268.164091 
L 345.924156 278.52184 
L 346.697143 270.960212 
L 347.47013 278.127819 
L 348.243117 268.239315 
L 349.016104 269.524077 
L 349.789091 279.848073 
L 350.562078 279.041508 
L 351.335065 276.935979 
L 352.108052 281.033945 
L 352.881039 278.022856 
L 353.654026 281.461719 
L 354.427013 270.603545 
L 355.2 280.075492 
L 355.972987 264.5931 
L 356.745974 267.23579 
L 357.518961 281.914293 
L 359.064935 276.490608 
L 359.837922 281.615972 
L 360.610909 260.546792 
L 361.383896 278.624539 
L 362.156883 278.908041 
L 362.92987 273.011613 
L 363.702857 274.125554 
L 364.475844 278.977501 
L 365.248831 271.830476 
L 366.021818 278.842388 
L 366.794805 276.776271 
L 367.567792 263.104895 
L 368.340779 278.178757 
L 369.113766 275.523924 
L 369.886753 277.939195 
L 370.65974 278.218375 
L 371.432727 275.761736 
L 372.205714 263.93163 
L 372.978701 271.898084 
L 373.751688 277.564931 
L 374.524675 278.194192 
L 375.297662 279.753504 
L 376.070649 246.663741 
L 376.843636 262.698011 
L 377.616623 261.101962 
L 378.38961 271.768836 
L 379.162597 273.061316 
L 379.935584 279.116731 
L 380.708571 274.443118 
L 381.481558 263.882441 
L 382.254545 278.183079 
L 383.027532 268.580649 
L 383.800519 271.040786 
L 384.573506 280.497915 
L 385.346494 256.066433 
L 386.119481 260.126942 
L 386.892468 275.505401 
L 387.665455 277.475404 
L 388.438442 208.727074 
L 389.211429 276.211943 
L 389.984416 277.036311 
L 390.757403 279.002404 
L 391.53039 276.617695 
L 392.303377 279.863921 
L 393.076364 276.390585 
L 393.849351 266.746376 
L 394.622338 276.988152 
L 396.168312 277.192726 
L 396.941299 278.230723 
L 397.714286 263.457034 
L 398.487273 271.431721 
L 398.487273 271.431721 
" style="fill:none;stroke:#1f77b4;stroke-linecap:square;stroke-width:1.5;"/>
   </g>
   <g id="line2d_12">
    <path clip-path="url(#p09cca201ef)" d="M 73.832727 278.001992 
L 74.605714 279.991067 
L 75.378701 269.979367 
L 76.151688 279.47633 
L 76.924675 261.985641 
L 77.697662 280.458303 
L 78.470649 281.309645 
L 79.243636 272.929325 
L 80.016623 276.217142 
L 80.78961 277.943083 
L 81.562597 280.758226 
L 82.335584 262.148541 
L 83.108571 272.907231 
L 83.881558 270.789057 
L 84.654545 269.239402 
L 85.427532 280.686766 
L 86.200519 272.642454 
L 86.973506 268.017217 
L 87.746494 270.037816 
L 88.519481 270.47201 
L 89.292468 280.189431 
L 90.065455 281.449969 
L 90.838442 279.976069 
L 91.611429 277.057046 
L 92.384416 257.140308 
L 93.157403 281.403588 
L 93.93039 258.287542 
L 94.703377 279.945322 
L 95.476364 276.128833 
L 96.249351 273.570772 
L 97.022338 251.49976 
L 97.795325 279.906963 
L 98.568312 271.227586 
L 99.341299 276.489634 
L 100.114286 273.252497 
L 100.887273 278.755755 
L 101.66026 270.713153 
L 102.433247 281.446047 
L 103.206234 279.971616 
L 103.979221 282.148275 
L 104.752208 280.588579 
L 105.525195 273.397049 
L 106.298182 271.971187 
L 107.071169 271.730141 
L 107.844156 275.177876 
L 108.617143 280.869996 
L 109.39013 281.277699 
L 110.163117 261.564902 
L 110.936104 275.224922 
L 111.709091 278.118357 
L 112.482078 270.156807 
L 113.255065 256.591774 
L 114.028052 281.59846 
L 114.801039 281.880411 
L 115.574026 275.046681 
L 116.347013 278.903276 
L 117.12 276.693456 
L 117.892987 251.255072 
L 118.665974 233.823217 
L 119.438961 270.191384 
L 120.211948 277.290942 
L 120.984935 265.105411 
L 121.757922 264.552504 
L 123.303896 280.127054 
L 124.076883 277.987681 
L 124.84987 273.861148 
L 125.622857 259.22492 
L 126.395844 261.704471 
L 127.168831 277.261155 
L 127.941818 272.336445 
L 128.714805 276.04104 
L 129.487792 257.972293 
L 130.260779 280.808308 
L 131.033766 247.490965 
L 131.806753 278.748446 
L 132.57974 279.234002 
L 133.352727 275.554298 
L 134.125714 281.567532 
L 134.898701 267.965129 
L 135.671688 281.167357 
L 136.444675 259.48237 
L 137.217662 277.99526 
L 137.990649 270.944743 
L 138.763636 256.548447 
L 139.536623 281.390557 
L 140.30961 232.607154 
L 141.082597 280.69301 
L 141.855584 277.579177 
L 142.628571 281.669326 
L 143.401558 277.021821 
L 144.174545 211.145844 
L 144.947532 281.052752 
L 145.720519 276.745987 
L 146.493506 279.488761 
L 147.266494 257.928045 
L 148.039481 280.431922 
L 148.812468 279.238884 
L 149.585455 262.631708 
L 150.358442 276.477905 
L 151.131429 276.706925 
L 151.904416 281.087442 
L 152.677403 271.486248 
L 153.45039 278.518795 
L 154.223377 274.839853 
L 154.996364 253.771809 
L 155.769351 271.546843 
L 156.542338 278.924619 
L 157.315325 256.672184 
L 158.088312 279.297177 
L 158.861299 254.156482 
L 159.634286 277.972735 
L 160.407273 265.101785 
L 161.18026 281.577075 
L 161.953247 265.892145 
L 162.726234 254.512031 
L 163.499221 279.921186 
L 165.045195 275.157274 
L 165.818182 268.803472 
L 166.591169 280.60438 
L 167.364156 267.485644 
L 168.137143 274.423932 
L 168.91013 278.593382 
L 169.683117 281.390203 
L 170.456104 180.910686 
L 171.229091 275.072488 
L 172.002078 281.642607 
L 172.775065 277.899101 
L 173.548052 272.273767 
L 174.321039 269.13296 
L 175.094026 280.263648 
L 175.867013 281.041011 
L 176.64 258.272093 
L 177.412987 277.601191 
L 178.185974 276.378759 
L 178.958961 281.10242 
L 179.731948 274.769915 
L 180.504935 278.224203 
L 181.277922 273.526623 
L 182.050909 277.028938 
L 182.823896 273.678279 
L 183.596883 269.0167 
L 184.36987 280.509544 
L 185.142857 275.014757 
L 185.915844 281.225059 
L 186.688831 280.853611 
L 187.461818 216.363057 
L 188.234805 279.946147 
L 189.007792 133.985545 
L 189.780779 242.322272 
L 190.553766 267.64305 
L 191.326753 251.652878 
L 192.09974 270.030832 
L 192.872727 277.275619 
L 193.645714 273.17774 
L 194.418701 231.925757 
L 195.191688 280.422326 
L 195.964675 270.471957 
L 196.737662 280.117609 
L 197.510649 273.300274 
L 198.283636 230.884102 
L 199.056623 275.95659 
L 199.82961 256.359238 
L 200.602597 276.417952 
L 201.375584 253.298432 
L 202.148571 280.296743 
L 202.921558 279.245359 
L 203.694545 107.589056 
L 204.467532 280.573696 
L 205.240519 273.53986 
L 206.013506 281.20872 
L 206.786494 243.731171 
L 207.559481 281.419417 
L 208.332468 261.415439 
L 209.105455 268.951635 
L 209.878442 274.854079 
L 210.651429 231.375204 
L 211.424416 231.201761 
L 212.197403 272.080931 
L 212.97039 264.774874 
L 213.743377 280.547541 
L 214.516364 257.173961 
L 215.289351 278.886035 
L 216.062338 272.982843 
L 216.835325 280.536161 
L 217.608312 261.432859 
L 218.381299 281.017844 
L 219.154286 277.17128 
L 219.927273 263.968112 
L 220.70026 263.569348 
L 222.246234 259.585109 
L 223.019221 274.629832 
L 223.792208 278.968325 
L 224.565195 280.57441 
L 225.338182 272.110254 
L 226.111169 279.101631 
L 226.884156 272.349439 
L 227.657143 281.555253 
L 229.203117 266.343955 
L 229.976104 281.583183 
L 230.749091 270.589103 
L 231.522078 278.469938 
L 232.295065 257.911389 
L 233.068052 269.280077 
L 233.841039 272.272824 
L 234.614026 276.884143 
L 235.387013 279.542522 
L 236.16 272.091421 
L 236.932987 281.806287 
L 237.705974 275.927266 
L 238.478961 224.891154 
L 239.251948 231.372847 
L 240.024935 280.016463 
L 240.797922 280.050625 
L 241.570909 269.546544 
L 242.343896 183.364777 
L 243.116883 279.40574 
L 243.88987 281.493768 
L 244.662857 252.101993 
L 246.208831 274.997383 
L 246.981818 276.726955 
L 247.754805 277.863481 
L 248.527792 248.002841 
L 249.300779 275.453879 
L 250.073766 255.592465 
L 250.846753 269.499336 
L 251.61974 278.710265 
L 252.392727 278.520823 
L 253.165714 141.572467 
L 253.938701 275.364889 
L 254.711688 258.104538 
L 255.484675 260.596198 
L 256.257662 279.06085 
L 257.030649 264.939248 
L 257.803636 272.805098 
L 258.576623 278.778651 
L 259.34961 256.54344 
L 260.122597 277.421631 
L 260.895584 262.047471 
L 261.668571 278.070067 
L 262.441558 266.885987 
L 263.214545 281.877765 
L 263.987532 198.168602 
L 264.760519 216.650364 
L 265.533506 275.907733 
L 266.306494 279.68122 
L 267.079481 265.192268 
L 267.852468 275.58521 
L 268.625455 255.525493 
L 269.398442 274.201149 
L 270.171429 247.911464 
L 270.944416 261.312761 
L 271.717403 277.307932 
L 272.49039 276.988285 
L 273.263377 278.85682 
L 274.036364 226.993404 
L 274.809351 278.280009 
L 275.582338 268.587982 
L 276.355325 265.45566 
L 277.128312 277.402865 
L 277.901299 236.844218 
L 278.674286 249.004529 
L 279.447273 279.664708 
L 280.22026 137.551122 
L 280.993247 217.586774 
L 281.766234 278.074011 
L 282.539221 266.421032 
L 283.312208 230.745654 
L 284.085195 271.734474 
L 284.858182 255.356016 
L 285.631169 262.874187 
L 286.404156 280.679994 
L 287.177143 261.361145 
L 287.95013 256.43653 
L 288.723117 281.425124 
L 289.496104 267.46025 
L 290.269091 250.233021 
L 291.042078 276.525254 
L 291.815065 269.503024 
L 292.588052 247.428831 
L 293.361039 280.418587 
L 294.134026 268.51433 
L 294.907013 274.839396 
L 295.68 279.960249 
L 296.452987 266.641906 
L 297.225974 255.939374 
L 297.998961 278.667877 
L 299.544935 266.533983 
L 300.317922 277.885967 
L 301.090909 277.383285 
L 301.863896 280.041162 
L 303.40987 254.053506 
L 304.182857 278.215445 
L 304.955844 276.104412 
L 305.728831 255.51653 
L 306.501818 247.13092 
L 307.274805 271.54941 
L 308.047792 260.391433 
L 308.820779 280.523747 
L 309.593766 276.838779 
L 310.366753 262.615712 
L 311.13974 265.60897 
L 311.912727 263.817347 
L 312.685714 233.851449 
L 313.458701 267.241612 
L 314.231688 280.284685 
L 315.777662 248.548109 
L 316.550649 281.497514 
L 317.323636 269.387511 
L 318.096623 266.925549 
L 318.86961 279.586238 
L 319.642597 233.707748 
L 320.415584 272.323508 
L 321.188571 273.152269 
L 321.961558 255.216259 
L 322.734545 249.250495 
L 323.507532 258.092338 
L 324.280519 273.565865 
L 325.053506 269.407186 
L 325.826494 273.48723 
L 326.599481 258.909306 
L 327.372468 233.501976 
L 328.145455 245.020867 
L 328.918442 278.027695 
L 329.691429 275.763698 
L 330.464416 270.68988 
L 331.237403 257.468082 
L 332.01039 173.449167 
L 332.783377 271.246199 
L 333.556364 275.146454 
L 334.329351 249.477768 
L 335.102338 275.289084 
L 335.875325 229.55875 
L 336.648312 254.735717 
L 337.421299 260.030826 
L 338.194286 209.079066 
L 338.967273 268.596294 
L 339.74026 214.049396 
L 340.513247 241.697086 
L 341.286234 177.25358 
L 342.059221 269.011302 
L 342.832208 238.101126 
L 345.924156 270.497841 
L 346.697143 247.324718 
L 347.47013 269.360808 
L 348.243117 239.215068 
L 349.016104 242.797843 
L 349.789091 274.618483 
L 350.562078 272.0665 
L 351.335065 265.52757 
L 352.108052 278.262793 
L 352.881039 268.858364 
L 353.654026 279.586633 
L 354.427013 245.459695 
L 355.2 275.199714 
L 355.972987 226.566784 
L 356.745974 234.943066 
L 357.518961 280.990596 
L 359.064935 263.91751 
L 359.837922 280.03548 
L 360.610909 213.152956 
L 361.383896 270.47879 
L 362.156883 271.4063 
L 362.92987 252.67394 
L 363.702857 256.156866 
L 364.475844 271.662086 
L 365.248831 249.036291 
L 366.021818 271.22547 
L 366.794805 264.677947 
L 367.567792 221.087716 
L 368.340779 269.040169 
L 369.113766 260.591095 
L 369.886753 268.284667 
L 370.65974 269.174357 
L 371.432727 261.248632 
L 372.205714 223.300857 
L 372.978701 248.718127 
L 373.751688 266.855857 
L 374.524675 268.892208 
L 375.297662 274.045182 
L 376.070649 166.62096 
L 376.843636 218.206438 
L 377.616623 213.093368 
L 378.38961 247.856709 
L 379.162597 252.068903 
L 379.935584 271.815802 
L 380.708571 256.490711 
L 381.481558 222.583492 
L 382.254545 268.857495 
L 383.027532 238.426418 
L 383.800519 246.495408 
L 384.573506 276.524738 
L 385.346494 199.450672 
L 386.119481 212.256298 
L 386.892468 260.779314 
L 387.665455 266.957411 
L 388.438442 52.939636 
L 389.211429 263.062186 
L 389.984416 265.651443 
L 390.757403 271.813673 
L 391.53039 264.10601 
L 392.303377 274.429588 
L 393.076364 263.304831 
L 393.849351 232.498334 
L 394.622338 265.337591 
L 396.168312 265.981691 
L 396.941299 269.368749 
L 397.714286 222.843446 
L 398.487273 247.789124 
L 398.487273 247.789124 
" style="fill:none;stroke:#ff7f0e;stroke-linecap:square;stroke-width:1.5;"/>
   </g>
   <g id="patch_3">
    <path d="M 57.6 293.76 
L 57.6 41.472 
" style="fill:none;stroke:#000000;stroke-linecap:square;stroke-linejoin:miter;stroke-width:0.8;"/>
   </g>
   <g id="patch_4">
    <path d="M 414.72 293.76 
L 414.72 41.472 
" style="fill:none;stroke:#000000;stroke-linecap:square;stroke-linejoin:miter;stroke-width:0.8;"/>
   </g>
   <g id="patch_5">
    <path d="M 57.6 293.76 
L 414.72 293.76 
" style="fill:none;stroke:#000000;stroke-linecap:square;stroke-linejoin:miter;stroke-width:0.8;"/>
   </g>
   <g id="patch_6">
    <path d="M 57.6 41.472 
L 414.72 41.472 
" style="fill:none;stroke:#000000;stroke-linecap:square;stroke-linejoin:miter;stroke-width:0.8;"/>
   </g>
   <g id="text_13">
    <!-- Sales values (EUR, USD) from 2011-07-04 to 2013-05-06 -->
    <g transform="translate(65.844375 35.472)scale(0.12 -0.12)">
     <defs>
      <path d="M 53.515625 70.515625 
L 53.515625 60.890625 
Q 47.90625 63.578125 42.921875 64.890625 
Q 37.9375 66.21875 33.296875 66.21875 
Q 25.25 66.21875 20.875 63.09375 
Q 16.5 59.96875 16.5 54.203125 
Q 16.5 49.359375 19.40625 46.890625 
Q 22.3125 44.4375 30.421875 42.921875 
L 36.375 41.703125 
Q 47.40625 39.59375 52.65625 34.296875 
Q 57.90625 29 57.90625 20.125 
Q 57.90625 9.515625 50.796875 4.046875 
Q 43.703125 -1.421875 29.984375 -1.421875 
Q 24.8125 -1.421875 18.96875 -0.25 
Q 13.140625 0.921875 6.890625 3.21875 
L 6.890625 13.375 
Q 12.890625 10.015625 18.65625 8.296875 
Q 24.421875 6.59375 29.984375 6.59375 
Q 38.421875 6.59375 43.015625 9.90625 
Q 47.609375 13.234375 47.609375 19.390625 
Q 47.609375 24.75 44.3125 27.78125 
Q 41.015625 30.8125 33.5 32.328125 
L 27.484375 33.5 
Q 16.453125 35.6875 11.515625 40.375 
Q 6.59375 45.0625 6.59375 53.421875 
Q 6.59375 63.09375 13.40625 68.65625 
Q 20.21875 74.21875 32.171875 74.21875 
Q 37.3125 74.21875 42.625 73.28125 
Q 47.953125 72.359375 53.515625 70.515625 
z
" id="DejaVuSans-83"/>
      <path d="M 9.421875 75.984375 
L 18.40625 75.984375 
L 18.40625 0 
L 9.421875 0 
z
" id="DejaVuSans-108"/>
      <path d="M 31 75.875 
Q 24.46875 64.65625 21.28125 53.65625 
Q 18.109375 42.671875 18.109375 31.390625 
Q 18.109375 20.125 21.3125 9.0625 
Q 24.515625 -2 31 -13.1875 
L 23.1875 -13.1875 
Q 15.875 -1.703125 12.234375 9.375 
Q 8.59375 20.453125 8.59375 31.390625 
Q 8.59375 42.28125 12.203125 53.3125 
Q 15.828125 64.359375 23.1875 75.875 
z
" id="DejaVuSans-40"/>
      <path d="M 9.8125 72.90625 
L 55.90625 72.90625 
L 55.90625 64.59375 
L 19.671875 64.59375 
L 19.671875 43.015625 
L 54.390625 43.015625 
L 54.390625 34.71875 
L 19.671875 34.71875 
L 19.671875 8.296875 
L 56.78125 8.296875 
L 56.78125 0 
L 9.8125 0 
z
" id="DejaVuSans-69"/>
      <path d="M 8.6875 72.90625 
L 18.609375 72.90625 
L 18.609375 28.609375 
Q 18.609375 16.890625 22.84375 11.734375 
Q 27.09375 6.59375 36.625 6.59375 
Q 46.09375 6.59375 50.34375 11.734375 
Q 54.59375 16.890625 54.59375 28.609375 
L 54.59375 72.90625 
L 64.5 72.90625 
L 64.5 27.390625 
Q 64.5 13.140625 57.4375 5.859375 
Q 50.390625 -1.421875 36.625 -1.421875 
Q 22.796875 -1.421875 15.734375 5.859375 
Q 8.6875 13.140625 8.6875 27.390625 
z
" id="DejaVuSans-85"/>
      <path d="M 44.390625 34.1875 
Q 47.5625 33.109375 50.5625 29.59375 
Q 53.5625 26.078125 56.59375 19.921875 
L 66.609375 0 
L 56 0 
L 46.6875 18.703125 
Q 43.0625 26.03125 39.671875 28.421875 
Q 36.28125 30.8125 30.421875 30.8125 
L 19.671875 30.8125 
L 19.671875 0 
L 9.8125 0 
L 9.8125 72.90625 
L 32.078125 72.90625 
Q 44.578125 72.90625 50.734375 67.671875 
Q 56.890625 62.453125 56.890625 51.90625 
Q 56.890625 45.015625 53.6875 40.46875 
Q 50.484375 35.9375 44.390625 34.1875 
z
M 19.671875 64.796875 
L 19.671875 38.921875 
L 32.078125 38.921875 
Q 39.203125 38.921875 42.84375 42.21875 
Q 46.484375 45.515625 46.484375 51.90625 
Q 46.484375 58.296875 42.84375 61.546875 
Q 39.203125 64.796875 32.078125 64.796875 
z
" id="DejaVuSans-82"/>
      <path d="M 11.71875 12.40625 
L 22.015625 12.40625 
L 22.015625 4 
L 14.015625 -11.625 
L 7.71875 -11.625 
L 11.71875 4 
z
" id="DejaVuSans-44"/>
      <path d="M 19.671875 64.796875 
L 19.671875 8.109375 
L 31.59375 8.109375 
Q 46.6875 8.109375 53.6875 14.9375 
Q 60.6875 21.78125 60.6875 36.53125 
Q 60.6875 51.171875 53.6875 57.984375 
Q 46.6875 64.796875 31.59375 64.796875 
z
M 9.8125 72.90625 
L 30.078125 72.90625 
Q 51.265625 72.90625 61.171875 64.09375 
Q 71.09375 55.28125 71.09375 36.53125 
Q 71.09375 17.671875 61.125 8.828125 
Q 51.171875 0 30.078125 0 
L 9.8125 0 
z
" id="DejaVuSans-68"/>
      <path d="M 8.015625 75.875 
L 15.828125 75.875 
Q 23.140625 64.359375 26.78125 53.3125 
Q 30.421875 42.28125 30.421875 31.390625 
Q 30.421875 20.453125 26.78125 9.375 
Q 23.140625 -1.703125 15.828125 -13.1875 
L 8.015625 -13.1875 
Q 14.5 -2 17.703125 9.0625 
Q 20.90625 20.125 20.90625 31.390625 
Q 20.90625 42.671875 17.703125 53.65625 
Q 14.5 64.65625 8.015625 75.875 
z
" id="DejaVuSans-41"/>
      <path d="M 37.109375 75.984375 
L 37.109375 68.5 
L 28.515625 68.5 
Q 23.6875 68.5 21.796875 66.546875 
Q 19.921875 64.59375 19.921875 59.515625 
L 19.921875 54.6875 
L 34.71875 54.6875 
L 34.71875 47.703125 
L 19.921875 47.703125 
L 19.921875 0 
L 10.890625 0 
L 10.890625 47.703125 
L 2.296875 47.703125 
L 2.296875 54.6875 
L 10.890625 54.6875 
L 10.890625 58.5 
Q 10.890625 67.625 15.140625 71.796875 
Q 19.390625 75.984375 28.609375 75.984375 
z
" id="DejaVuSans-102"/>
      <path d="M 30.609375 48.390625 
Q 23.390625 48.390625 19.1875 42.75 
Q 14.984375 37.109375 14.984375 27.296875 
Q 14.984375 17.484375 19.15625 11.84375 
Q 23.34375 6.203125 30.609375 6.203125 
Q 37.796875 6.203125 41.984375 11.859375 
Q 46.1875 17.53125 46.1875 27.296875 
Q 46.1875 37.015625 41.984375 42.703125 
Q 37.796875 48.390625 30.609375 48.390625 
z
M 30.609375 56 
Q 42.328125 56 49.015625 48.375 
Q 55.71875 40.765625 55.71875 27.296875 
Q 55.71875 13.875 49.015625 6.21875 
Q 42.328125 -1.421875 30.609375 -1.421875 
Q 18.84375 -1.421875 12.171875 6.21875 
Q 5.515625 13.875 5.515625 27.296875 
Q 5.515625 40.765625 12.171875 48.375 
Q 18.84375 56 30.609375 56 
z
" id="DejaVuSans-111"/>
      <path d="M 52 44.1875 
Q 55.375 50.25 60.0625 53.125 
Q 64.75 56 71.09375 56 
Q 79.640625 56 84.28125 50.015625 
Q 88.921875 44.046875 88.921875 33.015625 
L 88.921875 0 
L 79.890625 0 
L 79.890625 32.71875 
Q 79.890625 40.578125 77.09375 44.375 
Q 74.3125 48.1875 68.609375 48.1875 
Q 61.625 48.1875 57.5625 43.546875 
Q 53.515625 38.921875 53.515625 30.90625 
L 53.515625 0 
L 44.484375 0 
L 44.484375 32.71875 
Q 44.484375 40.625 41.703125 44.40625 
Q 38.921875 48.1875 33.109375 48.1875 
Q 26.21875 48.1875 22.15625 43.53125 
Q 18.109375 38.875 18.109375 30.90625 
L 18.109375 0 
L 9.078125 0 
L 9.078125 54.6875 
L 18.109375 54.6875 
L 18.109375 46.1875 
Q 21.1875 51.21875 25.484375 53.609375 
Q 29.78125 56 35.6875 56 
Q 41.65625 56 45.828125 52.96875 
Q 50 49.953125 52 44.1875 
z
" id="DejaVuSans-109"/>
      <path d="M 18.3125 70.21875 
L 18.3125 54.6875 
L 36.8125 54.6875 
L 36.8125 47.703125 
L 18.3125 47.703125 
L 18.3125 18.015625 
Q 18.3125 11.328125 20.140625 9.421875 
Q 21.96875 7.515625 27.59375 7.515625 
L 36.8125 7.515625 
L 36.8125 0 
L 27.59375 0 
Q 17.1875 0 13.234375 3.875 
Q 9.28125 7.765625 9.28125 18.015625 
L 9.28125 47.703125 
L 2.6875 47.703125 
L 2.6875 54.6875 
L 9.28125 54.6875 
L 9.28125 70.21875 
z
" id="DejaVuSans-116"/>
     </defs>
     <use xlink:href="#DejaVuSans-83"/>
     <use x="63.476562" xlink:href="#DejaVuSans-97"/>
     <use x="124.755859" xlink:href="#DejaVuSans-108"/>
     <use x="152.539062" xlink:href="#DejaVuSans-101"/>
     <use x="214.0625" xlink:href="#DejaVuSans-115"/>
     <use x="266.162109" xlink:href="#DejaVuSans-32"/>
     <use x="297.949219" xlink:href="#DejaVuSans-118"/>
     <use x="357.128906" xlink:href="#DejaVuSans-97"/>
     <use x="418.408203" xlink:href="#DejaVuSans-108"/>
     <use x="446.191406" xlink:href="#DejaVuSans-117"/>
     <use x="509.570312" xlink:href="#DejaVuSans-101"/>
     <use x="571.09375" xlink:href="#DejaVuSans-115"/>
     <use x="623.193359" xlink:href="#DejaVuSans-32"/>
     <use x="654.980469" xlink:href="#DejaVuSans-40"/>
     <use x="693.994141" xlink:href="#DejaVuSans-69"/>
     <use x="757.177734" xlink:href="#DejaVuSans-85"/>
     <use x="830.371094" xlink:href="#DejaVuSans-82"/>
     <use x="899.853516" xlink:href="#DejaVuSans-44"/>
     <use x="931.640625" xlink:href="#DejaVuSans-32"/>
     <use x="963.427734" xlink:href="#DejaVuSans-85"/>
     <use x="1036.621094" xlink:href="#DejaVuSans-83"/>
     <use x="1100.097656" xlink:href="#DejaVuSans-68"/>
     <use x="1177.099609" xlink:href="#DejaVuSans-41"/>
     <use x="1216.113281" xlink:href="#DejaVuSans-32"/>
     <use x="1247.900391" xlink:href="#DejaVuSans-102"/>
     <use x="1283.105469" xlink:href="#DejaVuSans-114"/>
     <use x="1321.96875" xlink:href="#DejaVuSans-111"/>
     <use x="1383.150391" xlink:href="#DejaVuSans-109"/>
     <use x="1480.5625" xlink:href="#DejaVuSans-32"/>
     <use x="1512.349609" xlink:href="#DejaVuSans-50"/>
     <use x="1575.972656" xlink:href="#DejaVuSans-48"/>
     <use x="1639.595703" xlink:href="#DejaVuSans-49"/>
     <use x="1703.21875" xlink:href="#DejaVuSans-49"/>
     <use x="1766.841797" xlink:href="#DejaVuSans-45"/>
     <use x="1802.925781" xlink:href="#DejaVuSans-48"/>
     <use x="1866.548828" xlink:href="#DejaVuSans-55"/>
     <use x="1930.171875" xlink:href="#DejaVuSans-45"/>
     <use x="1966.255859" xlink:href="#DejaVuSans-48"/>
     <use x="2029.878906" xlink:href="#DejaVuSans-52"/>
     <use x="2093.501953" xlink:href="#DejaVuSans-32"/>
     <use x="2125.289062" xlink:href="#DejaVuSans-116"/>
     <use x="2164.498047" xlink:href="#DejaVuSans-111"/>
     <use x="2225.679688" xlink:href="#DejaVuSans-32"/>
     <use x="2257.466797" xlink:href="#DejaVuSans-50"/>
     <use x="2321.089844" xlink:href="#DejaVuSans-48"/>
     <use x="2384.712891" xlink:href="#DejaVuSans-49"/>
     <use x="2448.335938" xlink:href="#DejaVuSans-51"/>
     <use x="2511.958984" xlink:href="#DejaVuSans-45"/>
     <use x="2548.042969" xlink:href="#DejaVuSans-48"/>
     <use x="2611.666016" xlink:href="#DejaVuSans-53"/>
     <use x="2675.289062" xlink:href="#DejaVuSans-45"/>
     <use x="2711.373047" xlink:href="#DejaVuSans-48"/>
     <use x="2774.996094" xlink:href="#DejaVuSans-54"/>
    </g>
   </g>
   <g id="legend_1">
    <g id="patch_7">
     <path d="M 64.6 78.82825 
L 117.967187 78.82825 
Q 119.967187 78.82825 119.967187 76.82825 
L 119.967187 48.472 
Q 119.967187 46.472 117.967187 46.472 
L 64.6 46.472 
Q 62.6 46.472 62.6 48.472 
L 62.6 76.82825 
Q 62.6 78.82825 64.6 78.82825 
z
" style="fill:#ffffff;opacity:0.8;stroke:#cccccc;stroke-linejoin:miter;"/>
    </g>
    <g id="line2d_13">
     <path d="M 66.6 54.570437 
L 86.6 54.570437 
" style="fill:none;stroke:#1f77b4;stroke-linecap:square;stroke-width:1.5;"/>
    </g>
    <g id="line2d_14"/>
    <g id="text_14">
     <!-- USD -->
     <g transform="translate(94.6 58.070437)scale(0.1 -0.1)">
      <use xlink:href="#DejaVuSans-85"/>
      <use x="73.193359" xlink:href="#DejaVuSans-83"/>
      <use x="136.669922" xlink:href="#DejaVuSans-68"/>
     </g>
    </g>
    <g id="line2d_15">
     <path d="M 66.6 69.248562 
L 86.6 69.248562 
" style="fill:none;stroke:#ff7f0e;stroke-linecap:square;stroke-width:1.5;"/>
    </g>
    <g id="line2d_16"/>
    <g id="text_15">
     <!-- PLN -->
     <g transform="translate(94.6 72.748562)scale(0.1 -0.1)">
      <defs>
       <path d="M 19.671875 64.796875 
L 19.671875 37.40625 
L 32.078125 37.40625 
Q 38.96875 37.40625 42.71875 40.96875 
Q 46.484375 44.53125 46.484375 51.125 
Q 46.484375 57.671875 42.71875 61.234375 
Q 38.96875 64.796875 32.078125 64.796875 
z
M 9.8125 72.90625 
L 32.078125 72.90625 
Q 44.34375 72.90625 50.609375 67.359375 
Q 56.890625 61.8125 56.890625 51.125 
Q 56.890625 40.328125 50.609375 34.8125 
Q 44.34375 29.296875 32.078125 29.296875 
L 19.671875 29.296875 
L 19.671875 0 
L 9.8125 0 
z
" id="DejaVuSans-80"/>
       <path d="M 9.8125 72.90625 
L 19.671875 72.90625 
L 19.671875 8.296875 
L 55.171875 8.296875 
L 55.171875 0 
L 9.8125 0 
z
" id="DejaVuSans-76"/>
       <path d="M 9.8125 72.90625 
L 23.09375 72.90625 
L 55.421875 11.921875 
L 55.421875 72.90625 
L 64.984375 72.90625 
L 64.984375 0 
L 51.703125 0 
L 19.390625 60.984375 
L 19.390625 0 
L 9.8125 0 
z
" id="DejaVuSans-78"/>
      </defs>
      <use xlink:href="#DejaVuSans-80"/>
      <use x="60.302734" xlink:href="#DejaVuSans-76"/>
      <use x="116.015625" xlink:href="#DejaVuSans-78"/>
     </g>
    </g>
   </g>
  </g>
 </g>
 <defs>
  <clipPath id="p09cca201ef">
   <rect height="252.288" width="357.12" x="57.6" y="41.472"/>
  </clipPath>
 </defs>
</svg>
