<?xml version="1.0" encoding="utf-8" standalone="no"?>
<!DOCTYPE svg PUBLIC "-//W3C//DTD SVG 1.1//EN"
  "http://www.w3.org/Graphics/SVG/1.1/DTD/svg11.dtd">
<!-- Created with matplotlib (https://matplotlib.org/) -->
<svg height="432pt" version="1.1" viewBox="0 0 1800 432" width="1800pt" xmlns="http://www.w3.org/2000/svg" xmlns:xlink="http://www.w3.org/1999/xlink">
 <metadata>
  <rdf:RDF xmlns:cc="http://creativecommons.org/ns#" xmlns:dc="http://purl.org/dc/elements/1.1/" xmlns:rdf="http://www.w3.org/1999/02/22-rdf-syntax-ns#">
   <cc:Work>
    <dc:type rdf:resource="http://purl.org/dc/dcmitype/StillImage"/>
    <dc:date>2020-11-17T11:09:52.025110</dc:date>
    <dc:format>image/svg+xml</dc:format>
    <dc:creator>
     <cc:Agent>
      <dc:title>Matplotlib v3.3.2, https://matplotlib.org/</dc:title>
     </cc:Agent>
    </dc:creator>
   </cc:Work>
  </rdf:RDF>
 </metadata>
 <defs>
  <style type="text/css">*{stroke-linecap:butt;stroke-linejoin:round;}</style>
 </defs>
 <g id="figure_1">
  <g id="patch_1">
   <path d="M 0 432 
L 1800 432 
L 1800 0 
L 0 0 
z
" style="fill:#ffffff;"/>
  </g>
  <g id="axes_1">
   <g id="patch_2">
    <path d="M 225 345.6 
L 1620 345.6 
L 1620 51.84 
L 225 51.84 
z
" style="fill:#ffffff;"/>
   </g>
   <g id="matplotlib.axis_1">
    <g id="xtick_1">
     <g id="line2d_1">
      <defs>
       <path d="M 0 0 
L 0 3.5 
" id="m652a97bf38" style="stroke:#000000;stroke-width:0.8;"/>
      </defs>
      <g>
       <use style="stroke:#000000;stroke-width:0.8;" x="288.409091" xlink:href="#m652a97bf38" y="345.6"/>
      </g>
     </g>
     <g id="text_1">
      <!-- 2013-01-01 -->
      <g transform="translate(264.623975 388.238252)rotate(-30)scale(0.1 -0.1)">
       <defs>
        <path d="M 19.1875 8.296875 
L 53.609375 8.296875 
L 53.609375 0 
L 7.328125 0 
L 7.328125 8.296875 
Q 12.9375 14.109375 22.625 23.890625 
Q 32.328125 33.6875 34.8125 36.53125 
Q 39.546875 41.84375 41.421875 45.53125 
Q 43.3125 49.21875 43.3125 52.78125 
Q 43.3125 58.59375 39.234375 62.25 
Q 35.15625 65.921875 28.609375 65.921875 
Q 23.96875 65.921875 18.8125 64.3125 
Q 13.671875 62.703125 7.8125 59.421875 
L 7.8125 69.390625 
Q 13.765625 71.78125 18.9375 73 
Q 24.125 74.21875 28.421875 74.21875 
Q 39.75 74.21875 46.484375 68.546875 
Q 53.21875 62.890625 53.21875 53.421875 
Q 53.21875 48.921875 51.53125 44.890625 
Q 49.859375 40.875 45.40625 35.40625 
Q 44.1875 33.984375 37.640625 27.21875 
Q 31.109375 20.453125 19.1875 8.296875 
z
" id="DejaVuSans-50"/>
        <path d="M 31.78125 66.40625 
Q 24.171875 66.40625 20.328125 58.90625 
Q 16.5 51.421875 16.5 36.375 
Q 16.5 21.390625 20.328125 13.890625 
Q 24.171875 6.390625 31.78125 6.390625 
Q 39.453125 6.390625 43.28125 13.890625 
Q 47.125 21.390625 47.125 36.375 
Q 47.125 51.421875 43.28125 58.90625 
Q 39.453125 66.40625 31.78125 66.40625 
z
M 31.78125 74.21875 
Q 44.046875 74.21875 50.515625 64.515625 
Q 56.984375 54.828125 56.984375 36.375 
Q 56.984375 17.96875 50.515625 8.265625 
Q 44.046875 -1.421875 31.78125 -1.421875 
Q 19.53125 -1.421875 13.0625 8.265625 
Q 6.59375 17.96875 6.59375 36.375 
Q 6.59375 54.828125 13.0625 64.515625 
Q 19.53125 74.21875 31.78125 74.21875 
z
" id="DejaVuSans-48"/>
        <path d="M 12.40625 8.296875 
L 28.515625 8.296875 
L 28.515625 63.921875 
L 10.984375 60.40625 
L 10.984375 69.390625 
L 28.421875 72.90625 
L 38.28125 72.90625 
L 38.28125 8.296875 
L 54.390625 8.296875 
L 54.390625 0 
L 12.40625 0 
z
" id="DejaVuSans-49"/>
        <path d="M 40.578125 39.3125 
Q 47.65625 37.796875 51.625 33 
Q 55.609375 28.21875 55.609375 21.1875 
Q 55.609375 10.40625 48.1875 4.484375 
Q 40.765625 -1.421875 27.09375 -1.421875 
Q 22.515625 -1.421875 17.65625 -0.515625 
Q 12.796875 0.390625 7.625 2.203125 
L 7.625 11.71875 
Q 11.71875 9.328125 16.59375 8.109375 
Q 21.484375 6.890625 26.8125 6.890625 
Q 36.078125 6.890625 40.9375 10.546875 
Q 45.796875 14.203125 45.796875 21.1875 
Q 45.796875 27.640625 41.28125 31.265625 
Q 36.765625 34.90625 28.71875 34.90625 
L 20.21875 34.90625 
L 20.21875 43.015625 
L 29.109375 43.015625 
Q 36.375 43.015625 40.234375 45.921875 
Q 44.09375 48.828125 44.09375 54.296875 
Q 44.09375 59.90625 40.109375 62.90625 
Q 36.140625 65.921875 28.71875 65.921875 
Q 24.65625 65.921875 20.015625 65.03125 
Q 15.375 64.15625 9.8125 62.3125 
L 9.8125 71.09375 
Q 15.4375 72.65625 20.34375 73.4375 
Q 25.25 74.21875 29.59375 74.21875 
Q 40.828125 74.21875 47.359375 69.109375 
Q 53.90625 64.015625 53.90625 55.328125 
Q 53.90625 49.265625 50.4375 45.09375 
Q 46.96875 40.921875 40.578125 39.3125 
z
" id="DejaVuSans-51"/>
        <path d="M 4.890625 31.390625 
L 31.203125 31.390625 
L 31.203125 23.390625 
L 4.890625 23.390625 
z
" id="DejaVuSans-45"/>
       </defs>
       <use xlink:href="#DejaVuSans-50"/>
       <use x="63.623047" xlink:href="#DejaVuSans-48"/>
       <use x="127.246094" xlink:href="#DejaVuSans-49"/>
       <use x="190.869141" xlink:href="#DejaVuSans-51"/>
       <use x="254.492188" xlink:href="#DejaVuSans-45"/>
       <use x="290.576172" xlink:href="#DejaVuSans-48"/>
       <use x="354.199219" xlink:href="#DejaVuSans-49"/>
       <use x="417.822266" xlink:href="#DejaVuSans-45"/>
       <use x="453.90625" xlink:href="#DejaVuSans-48"/>
       <use x="517.529297" xlink:href="#DejaVuSans-49"/>
      </g>
     </g>
    </g>
    <g id="xtick_2">
     <g id="line2d_2">
      <g>
       <use style="stroke:#000000;stroke-width:0.8;" x="462.370932" xlink:href="#m652a97bf38" y="345.6"/>
      </g>
     </g>
     <g id="text_2">
      <!-- 2013-04-11 -->
      <g transform="translate(438.585815 388.238252)rotate(-30)scale(0.1 -0.1)">
       <defs>
        <path d="M 37.796875 64.3125 
L 12.890625 25.390625 
L 37.796875 25.390625 
z
M 35.203125 72.90625 
L 47.609375 72.90625 
L 47.609375 25.390625 
L 58.015625 25.390625 
L 58.015625 17.1875 
L 47.609375 17.1875 
L 47.609375 0 
L 37.796875 0 
L 37.796875 17.1875 
L 4.890625 17.1875 
L 4.890625 26.703125 
z
" id="DejaVuSans-52"/>
       </defs>
       <use xlink:href="#DejaVuSans-50"/>
       <use x="63.623047" xlink:href="#DejaVuSans-48"/>
       <use x="127.246094" xlink:href="#DejaVuSans-49"/>
       <use x="190.869141" xlink:href="#DejaVuSans-51"/>
       <use x="254.492188" xlink:href="#DejaVuSans-45"/>
       <use x="290.576172" xlink:href="#DejaVuSans-48"/>
       <use x="354.199219" xlink:href="#DejaVuSans-52"/>
       <use x="417.822266" xlink:href="#DejaVuSans-45"/>
       <use x="453.90625" xlink:href="#DejaVuSans-49"/>
       <use x="517.529297" xlink:href="#DejaVuSans-49"/>
      </g>
     </g>
    </g>
    <g id="xtick_3">
     <g id="line2d_3">
      <g>
       <use style="stroke:#000000;stroke-width:0.8;" x="636.332772" xlink:href="#m652a97bf38" y="345.6"/>
      </g>
     </g>
     <g id="text_3">
      <!-- 2013-07-20 -->
      <g transform="translate(612.547656 388.238252)rotate(-30)scale(0.1 -0.1)">
       <defs>
        <path d="M 8.203125 72.90625 
L 55.078125 72.90625 
L 55.078125 68.703125 
L 28.609375 0 
L 18.3125 0 
L 43.21875 64.59375 
L 8.203125 64.59375 
z
" id="DejaVuSans-55"/>
       </defs>
       <use xlink:href="#DejaVuSans-50"/>
       <use x="63.623047" xlink:href="#DejaVuSans-48"/>
       <use x="127.246094" xlink:href="#DejaVuSans-49"/>
       <use x="190.869141" xlink:href="#DejaVuSans-51"/>
       <use x="254.492188" xlink:href="#DejaVuSans-45"/>
       <use x="290.576172" xlink:href="#DejaVuSans-48"/>
       <use x="354.199219" xlink:href="#DejaVuSans-55"/>
       <use x="417.822266" xlink:href="#DejaVuSans-45"/>
       <use x="453.90625" xlink:href="#DejaVuSans-50"/>
       <use x="517.529297" xlink:href="#DejaVuSans-48"/>
      </g>
     </g>
    </g>
    <g id="xtick_4">
     <g id="line2d_4">
      <g>
       <use style="stroke:#000000;stroke-width:0.8;" x="810.294613" xlink:href="#m652a97bf38" y="345.6"/>
      </g>
     </g>
     <g id="text_4">
      <!-- 2013-10-28 -->
      <g transform="translate(786.509496 388.238252)rotate(-30)scale(0.1 -0.1)">
       <defs>
        <path d="M 31.78125 34.625 
Q 24.75 34.625 20.71875 30.859375 
Q 16.703125 27.09375 16.703125 20.515625 
Q 16.703125 13.921875 20.71875 10.15625 
Q 24.75 6.390625 31.78125 6.390625 
Q 38.8125 6.390625 42.859375 10.171875 
Q 46.921875 13.96875 46.921875 20.515625 
Q 46.921875 27.09375 42.890625 30.859375 
Q 38.875 34.625 31.78125 34.625 
z
M 21.921875 38.8125 
Q 15.578125 40.375 12.03125 44.71875 
Q 8.5 49.078125 8.5 55.328125 
Q 8.5 64.0625 14.71875 69.140625 
Q 20.953125 74.21875 31.78125 74.21875 
Q 42.671875 74.21875 48.875 69.140625 
Q 55.078125 64.0625 55.078125 55.328125 
Q 55.078125 49.078125 51.53125 44.71875 
Q 48 40.375 41.703125 38.8125 
Q 48.828125 37.15625 52.796875 32.3125 
Q 56.78125 27.484375 56.78125 20.515625 
Q 56.78125 9.90625 50.3125 4.234375 
Q 43.84375 -1.421875 31.78125 -1.421875 
Q 19.734375 -1.421875 13.25 4.234375 
Q 6.78125 9.90625 6.78125 20.515625 
Q 6.78125 27.484375 10.78125 32.3125 
Q 14.796875 37.15625 21.921875 38.8125 
z
M 18.3125 54.390625 
Q 18.3125 48.734375 21.84375 45.5625 
Q 25.390625 42.390625 31.78125 42.390625 
Q 38.140625 42.390625 41.71875 45.5625 
Q 45.3125 48.734375 45.3125 54.390625 
Q 45.3125 60.0625 41.71875 63.234375 
Q 38.140625 66.40625 31.78125 66.40625 
Q 25.390625 66.40625 21.84375 63.234375 
Q 18.3125 60.0625 18.3125 54.390625 
z
" id="DejaVuSans-56"/>
       </defs>
       <use xlink:href="#DejaVuSans-50"/>
       <use x="63.623047" xlink:href="#DejaVuSans-48"/>
       <use x="127.246094" xlink:href="#DejaVuSans-49"/>
       <use x="190.869141" xlink:href="#DejaVuSans-51"/>
       <use x="254.492188" xlink:href="#DejaVuSans-45"/>
       <use x="290.576172" xlink:href="#DejaVuSans-49"/>
       <use x="354.199219" xlink:href="#DejaVuSans-48"/>
       <use x="417.822266" xlink:href="#DejaVuSans-45"/>
       <use x="453.90625" xlink:href="#DejaVuSans-50"/>
       <use x="517.529297" xlink:href="#DejaVuSans-56"/>
      </g>
     </g>
    </g>
    <g id="xtick_5">
     <g id="line2d_5">
      <g>
       <use style="stroke:#000000;stroke-width:0.8;" x="984.256453" xlink:href="#m652a97bf38" y="345.6"/>
      </g>
     </g>
     <g id="text_5">
      <!-- 2014-02-05 -->
      <g transform="translate(960.471337 388.238252)rotate(-30)scale(0.1 -0.1)">
       <defs>
        <path d="M 10.796875 72.90625 
L 49.515625 72.90625 
L 49.515625 64.59375 
L 19.828125 64.59375 
L 19.828125 46.734375 
Q 21.96875 47.46875 24.109375 47.828125 
Q 26.265625 48.1875 28.421875 48.1875 
Q 40.625 48.1875 47.75 41.5 
Q 54.890625 34.8125 54.890625 23.390625 
Q 54.890625 11.625 47.5625 5.09375 
Q 40.234375 -1.421875 26.90625 -1.421875 
Q 22.3125 -1.421875 17.546875 -0.640625 
Q 12.796875 0.140625 7.71875 1.703125 
L 7.71875 11.625 
Q 12.109375 9.234375 16.796875 8.0625 
Q 21.484375 6.890625 26.703125 6.890625 
Q 35.15625 6.890625 40.078125 11.328125 
Q 45.015625 15.765625 45.015625 23.390625 
Q 45.015625 31 40.078125 35.4375 
Q 35.15625 39.890625 26.703125 39.890625 
Q 22.75 39.890625 18.8125 39.015625 
Q 14.890625 38.140625 10.796875 36.28125 
z
" id="DejaVuSans-53"/>
       </defs>
       <use xlink:href="#DejaVuSans-50"/>
       <use x="63.623047" xlink:href="#DejaVuSans-48"/>
       <use x="127.246094" xlink:href="#DejaVuSans-49"/>
       <use x="190.869141" xlink:href="#DejaVuSans-52"/>
       <use x="254.492188" xlink:href="#DejaVuSans-45"/>
       <use x="290.576172" xlink:href="#DejaVuSans-48"/>
       <use x="354.199219" xlink:href="#DejaVuSans-50"/>
       <use x="417.822266" xlink:href="#DejaVuSans-45"/>
       <use x="453.90625" xlink:href="#DejaVuSans-48"/>
       <use x="517.529297" xlink:href="#DejaVuSans-53"/>
      </g>
     </g>
    </g>
    <g id="xtick_6">
     <g id="line2d_6">
      <g>
       <use style="stroke:#000000;stroke-width:0.8;" x="1158.218294" xlink:href="#m652a97bf38" y="345.6"/>
      </g>
     </g>
     <g id="text_6">
      <!-- 2014-05-16 -->
      <g transform="translate(1134.433178 388.238252)rotate(-30)scale(0.1 -0.1)">
       <defs>
        <path d="M 33.015625 40.375 
Q 26.375 40.375 22.484375 35.828125 
Q 18.609375 31.296875 18.609375 23.390625 
Q 18.609375 15.53125 22.484375 10.953125 
Q 26.375 6.390625 33.015625 6.390625 
Q 39.65625 6.390625 43.53125 10.953125 
Q 47.40625 15.53125 47.40625 23.390625 
Q 47.40625 31.296875 43.53125 35.828125 
Q 39.65625 40.375 33.015625 40.375 
z
M 52.59375 71.296875 
L 52.59375 62.3125 
Q 48.875 64.0625 45.09375 64.984375 
Q 41.3125 65.921875 37.59375 65.921875 
Q 27.828125 65.921875 22.671875 59.328125 
Q 17.53125 52.734375 16.796875 39.40625 
Q 19.671875 43.65625 24.015625 45.921875 
Q 28.375 48.1875 33.59375 48.1875 
Q 44.578125 48.1875 50.953125 41.515625 
Q 57.328125 34.859375 57.328125 23.390625 
Q 57.328125 12.15625 50.6875 5.359375 
Q 44.046875 -1.421875 33.015625 -1.421875 
Q 20.359375 -1.421875 13.671875 8.265625 
Q 6.984375 17.96875 6.984375 36.375 
Q 6.984375 53.65625 15.1875 63.9375 
Q 23.390625 74.21875 37.203125 74.21875 
Q 40.921875 74.21875 44.703125 73.484375 
Q 48.484375 72.75 52.59375 71.296875 
z
" id="DejaVuSans-54"/>
       </defs>
       <use xlink:href="#DejaVuSans-50"/>
       <use x="63.623047" xlink:href="#DejaVuSans-48"/>
       <use x="127.246094" xlink:href="#DejaVuSans-49"/>
       <use x="190.869141" xlink:href="#DejaVuSans-52"/>
       <use x="254.492188" xlink:href="#DejaVuSans-45"/>
       <use x="290.576172" xlink:href="#DejaVuSans-48"/>
       <use x="354.199219" xlink:href="#DejaVuSans-53"/>
       <use x="417.822266" xlink:href="#DejaVuSans-45"/>
       <use x="453.90625" xlink:href="#DejaVuSans-49"/>
       <use x="517.529297" xlink:href="#DejaVuSans-54"/>
      </g>
     </g>
    </g>
    <g id="xtick_7">
     <g id="line2d_7">
      <g>
       <use style="stroke:#000000;stroke-width:0.8;" x="1332.180135" xlink:href="#m652a97bf38" y="345.6"/>
      </g>
     </g>
     <g id="text_7">
      <!-- 2014-08-24 -->
      <g transform="translate(1308.395018 388.238252)rotate(-30)scale(0.1 -0.1)">
       <use xlink:href="#DejaVuSans-50"/>
       <use x="63.623047" xlink:href="#DejaVuSans-48"/>
       <use x="127.246094" xlink:href="#DejaVuSans-49"/>
       <use x="190.869141" xlink:href="#DejaVuSans-52"/>
       <use x="254.492188" xlink:href="#DejaVuSans-45"/>
       <use x="290.576172" xlink:href="#DejaVuSans-48"/>
       <use x="354.199219" xlink:href="#DejaVuSans-56"/>
       <use x="417.822266" xlink:href="#DejaVuSans-45"/>
       <use x="453.90625" xlink:href="#DejaVuSans-50"/>
       <use x="517.529297" xlink:href="#DejaVuSans-52"/>
      </g>
     </g>
    </g>
    <g id="xtick_8">
     <g id="line2d_8">
      <g>
       <use style="stroke:#000000;stroke-width:0.8;" x="1506.141975" xlink:href="#m652a97bf38" y="345.6"/>
      </g>
     </g>
     <g id="text_8">
      <!-- 2014-12-02 -->
      <g transform="translate(1482.356859 388.238252)rotate(-30)scale(0.1 -0.1)">
       <use xlink:href="#DejaVuSans-50"/>
       <use x="63.623047" xlink:href="#DejaVuSans-48"/>
       <use x="127.246094" xlink:href="#DejaVuSans-49"/>
       <use x="190.869141" xlink:href="#DejaVuSans-52"/>
       <use x="254.492188" xlink:href="#DejaVuSans-45"/>
       <use x="290.576172" xlink:href="#DejaVuSans-49"/>
       <use x="354.199219" xlink:href="#DejaVuSans-50"/>
       <use x="417.822266" xlink:href="#DejaVuSans-45"/>
       <use x="453.90625" xlink:href="#DejaVuSans-48"/>
       <use x="517.529297" xlink:href="#DejaVuSans-50"/>
      </g>
     </g>
    </g>
    <g id="text_9">
     <!-- Date -->
     <g transform="translate(910.549219 401.637752)scale(0.1 -0.1)">
      <defs>
       <path d="M 19.671875 64.796875 
L 19.671875 8.109375 
L 31.59375 8.109375 
Q 46.6875 8.109375 53.6875 14.9375 
Q 60.6875 21.78125 60.6875 36.53125 
Q 60.6875 51.171875 53.6875 57.984375 
Q 46.6875 64.796875 31.59375 64.796875 
z
M 9.8125 72.90625 
L 30.078125 72.90625 
Q 51.265625 72.90625 61.171875 64.09375 
Q 71.09375 55.28125 71.09375 36.53125 
Q 71.09375 17.671875 61.125 8.828125 
Q 51.171875 0 30.078125 0 
L 9.8125 0 
z
" id="DejaVuSans-68"/>
       <path d="M 34.28125 27.484375 
Q 23.390625 27.484375 19.1875 25 
Q 14.984375 22.515625 14.984375 16.5 
Q 14.984375 11.71875 18.140625 8.90625 
Q 21.296875 6.109375 26.703125 6.109375 
Q 34.1875 6.109375 38.703125 11.40625 
Q 43.21875 16.703125 43.21875 25.484375 
L 43.21875 27.484375 
z
M 52.203125 31.203125 
L 52.203125 0 
L 43.21875 0 
L 43.21875 8.296875 
Q 40.140625 3.328125 35.546875 0.953125 
Q 30.953125 -1.421875 24.3125 -1.421875 
Q 15.921875 -1.421875 10.953125 3.296875 
Q 6 8.015625 6 15.921875 
Q 6 25.140625 12.171875 29.828125 
Q 18.359375 34.515625 30.609375 34.515625 
L 43.21875 34.515625 
L 43.21875 35.40625 
Q 43.21875 41.609375 39.140625 45 
Q 35.0625 48.390625 27.6875 48.390625 
Q 23 48.390625 18.546875 47.265625 
Q 14.109375 46.140625 10.015625 43.890625 
L 10.015625 52.203125 
Q 14.9375 54.109375 19.578125 55.046875 
Q 24.21875 56 28.609375 56 
Q 40.484375 56 46.34375 49.84375 
Q 52.203125 43.703125 52.203125 31.203125 
z
" id="DejaVuSans-97"/>
       <path d="M 18.3125 70.21875 
L 18.3125 54.6875 
L 36.8125 54.6875 
L 36.8125 47.703125 
L 18.3125 47.703125 
L 18.3125 18.015625 
Q 18.3125 11.328125 20.140625 9.421875 
Q 21.96875 7.515625 27.59375 7.515625 
L 36.8125 7.515625 
L 36.8125 0 
L 27.59375 0 
Q 17.1875 0 13.234375 3.875 
Q 9.28125 7.765625 9.28125 18.015625 
L 9.28125 47.703125 
L 2.6875 47.703125 
L 2.6875 54.6875 
L 9.28125 54.6875 
L 9.28125 70.21875 
z
" id="DejaVuSans-116"/>
       <path d="M 56.203125 29.59375 
L 56.203125 25.203125 
L 14.890625 25.203125 
Q 15.484375 15.921875 20.484375 11.0625 
Q 25.484375 6.203125 34.421875 6.203125 
Q 39.59375 6.203125 44.453125 7.46875 
Q 49.3125 8.734375 54.109375 11.28125 
L 54.109375 2.78125 
Q 49.265625 0.734375 44.1875 -0.34375 
Q 39.109375 -1.421875 33.890625 -1.421875 
Q 20.796875 -1.421875 13.15625 6.1875 
Q 5.515625 13.8125 5.515625 26.8125 
Q 5.515625 40.234375 12.765625 48.109375 
Q 20.015625 56 32.328125 56 
Q 43.359375 56 49.78125 48.890625 
Q 56.203125 41.796875 56.203125 29.59375 
z
M 47.21875 32.234375 
Q 47.125 39.59375 43.09375 43.984375 
Q 39.0625 48.390625 32.421875 48.390625 
Q 24.90625 48.390625 20.390625 44.140625 
Q 15.875 39.890625 15.1875 32.171875 
z
" id="DejaVuSans-101"/>
      </defs>
      <use xlink:href="#DejaVuSans-68"/>
      <use x="77.001953" xlink:href="#DejaVuSans-97"/>
      <use x="138.28125" xlink:href="#DejaVuSans-116"/>
      <use x="177.490234" xlink:href="#DejaVuSans-101"/>
     </g>
    </g>
   </g>
   <g id="matplotlib.axis_2">
    <g id="ytick_1">
     <g id="line2d_9">
      <defs>
       <path d="M 0 0 
L -3.5 0 
" id="m88d4dd0e29" style="stroke:#000000;stroke-width:0.8;"/>
      </defs>
      <g>
       <use style="stroke:#000000;stroke-width:0.8;" x="225" xlink:href="#m88d4dd0e29" y="339.645728"/>
      </g>
     </g>
     <g id="text_10">
      <!-- 0.0 -->
      <g transform="translate(202.096875 343.444947)scale(0.1 -0.1)">
       <defs>
        <path d="M 10.6875 12.40625 
L 21 12.40625 
L 21 0 
L 10.6875 0 
z
" id="DejaVuSans-46"/>
       </defs>
       <use xlink:href="#DejaVuSans-48"/>
       <use x="63.623047" xlink:href="#DejaVuSans-46"/>
       <use x="95.410156" xlink:href="#DejaVuSans-48"/>
      </g>
     </g>
    </g>
    <g id="ytick_2">
     <g id="line2d_10">
      <g>
       <use style="stroke:#000000;stroke-width:0.8;" x="225" xlink:href="#m88d4dd0e29" y="286.862263"/>
      </g>
     </g>
     <g id="text_11">
      <!-- 0.5 -->
      <g transform="translate(202.096875 290.661482)scale(0.1 -0.1)">
       <use xlink:href="#DejaVuSans-48"/>
       <use x="63.623047" xlink:href="#DejaVuSans-46"/>
       <use x="95.410156" xlink:href="#DejaVuSans-53"/>
      </g>
     </g>
    </g>
    <g id="ytick_3">
     <g id="line2d_11">
      <g>
       <use style="stroke:#000000;stroke-width:0.8;" x="225" xlink:href="#m88d4dd0e29" y="234.078798"/>
      </g>
     </g>
     <g id="text_12">
      <!-- 1.0 -->
      <g transform="translate(202.096875 237.878017)scale(0.1 -0.1)">
       <use xlink:href="#DejaVuSans-49"/>
       <use x="63.623047" xlink:href="#DejaVuSans-46"/>
       <use x="95.410156" xlink:href="#DejaVuSans-48"/>
      </g>
     </g>
    </g>
    <g id="ytick_4">
     <g id="line2d_12">
      <g>
       <use style="stroke:#000000;stroke-width:0.8;" x="225" xlink:href="#m88d4dd0e29" y="181.295333"/>
      </g>
     </g>
     <g id="text_13">
      <!-- 1.5 -->
      <g transform="translate(202.096875 185.094552)scale(0.1 -0.1)">
       <use xlink:href="#DejaVuSans-49"/>
       <use x="63.623047" xlink:href="#DejaVuSans-46"/>
       <use x="95.410156" xlink:href="#DejaVuSans-53"/>
      </g>
     </g>
    </g>
    <g id="ytick_5">
     <g id="line2d_13">
      <g>
       <use style="stroke:#000000;stroke-width:0.8;" x="225" xlink:href="#m88d4dd0e29" y="128.511868"/>
      </g>
     </g>
     <g id="text_14">
      <!-- 2.0 -->
      <g transform="translate(202.096875 132.311087)scale(0.1 -0.1)">
       <use xlink:href="#DejaVuSans-50"/>
       <use x="63.623047" xlink:href="#DejaVuSans-46"/>
       <use x="95.410156" xlink:href="#DejaVuSans-48"/>
      </g>
     </g>
    </g>
    <g id="ytick_6">
     <g id="line2d_14">
      <g>
       <use style="stroke:#000000;stroke-width:0.8;" x="225" xlink:href="#m88d4dd0e29" y="75.728404"/>
      </g>
     </g>
     <g id="text_15">
      <!-- 2.5 -->
      <g transform="translate(202.096875 79.527622)scale(0.1 -0.1)">
       <use xlink:href="#DejaVuSans-50"/>
       <use x="63.623047" xlink:href="#DejaVuSans-46"/>
       <use x="95.410156" xlink:href="#DejaVuSans-53"/>
      </g>
     </g>
    </g>
    <g id="text_16">
     <!-- Value -->
     <g transform="translate(196.017188 212.45125)rotate(-90)scale(0.1 -0.1)">
      <defs>
       <path d="M 28.609375 0 
L 0.78125 72.90625 
L 11.078125 72.90625 
L 34.1875 11.53125 
L 57.328125 72.90625 
L 67.578125 72.90625 
L 39.796875 0 
z
" id="DejaVuSans-86"/>
       <path d="M 9.421875 75.984375 
L 18.40625 75.984375 
L 18.40625 0 
L 9.421875 0 
z
" id="DejaVuSans-108"/>
       <path d="M 8.5 21.578125 
L 8.5 54.6875 
L 17.484375 54.6875 
L 17.484375 21.921875 
Q 17.484375 14.15625 20.5 10.265625 
Q 23.53125 6.390625 29.59375 6.390625 
Q 36.859375 6.390625 41.078125 11.03125 
Q 45.3125 15.671875 45.3125 23.6875 
L 45.3125 54.6875 
L 54.296875 54.6875 
L 54.296875 0 
L 45.3125 0 
L 45.3125 8.40625 
Q 42.046875 3.421875 37.71875 1 
Q 33.40625 -1.421875 27.6875 -1.421875 
Q 18.265625 -1.421875 13.375 4.4375 
Q 8.5 10.296875 8.5 21.578125 
z
M 31.109375 56 
z
" id="DejaVuSans-117"/>
      </defs>
      <use xlink:href="#DejaVuSans-86"/>
      <use x="60.658203" xlink:href="#DejaVuSans-97"/>
      <use x="121.9375" xlink:href="#DejaVuSans-108"/>
      <use x="149.720703" xlink:href="#DejaVuSans-117"/>
      <use x="213.099609" xlink:href="#DejaVuSans-101"/>
     </g>
    </g>
    <g id="text_17">
     <!-- 1e6 -->
     <g transform="translate(225 48.84)scale(0.1 -0.1)">
      <use xlink:href="#DejaVuSans-49"/>
      <use x="63.623047" xlink:href="#DejaVuSans-101"/>
      <use x="125.146484" xlink:href="#DejaVuSans-54"/>
     </g>
    </g>
   </g>
   <g id="line2d_15">
    <path clip-path="url(#pcfcf8aac57)" d="M 288.409091 294.422958 
L 290.148709 290.024686 
L 291.888328 314.276837 
L 293.627946 286.762233 
L 295.367565 307.677232 
L 297.107183 286.386722 
L 298.846801 285.511339 
L 300.58642 322.607779 
L 302.326038 317.034292 
L 304.065657 300.697556 
L 305.805275 316.288543 
L 307.544893 321.027036 
L 309.284512 310.893031 
L 311.02413 303.722336 
L 312.763749 313.470573 
L 314.503367 301.903683 
L 316.242985 301.968192 
L 317.982604 311.09389 
L 319.722222 300.686536 
L 321.461841 309.422161 
L 323.201459 308.91779 
L 324.941077 301.819298 
L 326.680696 301.767502 
L 328.420314 315.897066 
L 330.159933 322.857293 
L 331.899551 309.477795 
L 333.639169 301.119206 
L 335.378788 281.67585 
L 338.858025 309.731638 
L 340.597643 306.056183 
L 342.337262 317.994129 
L 344.07688 305.789349 
L 345.816498 278.686658 
L 347.556117 292.913796 
L 349.295735 301.33004 
L 351.035354 298.912684 
L 352.774972 257.309936 
L 354.51459 322.162335 
L 356.254209 286.716179 
L 357.993827 317.460957 
L 359.733446 298.719042 
L 361.473064 304.684862 
L 363.212682 315.171957 
L 364.952301 289.772946 
L 366.691919 305.205162 
L 368.431538 313.008637 
L 370.171156 279.777412 
L 371.910774 303.540795 
L 373.650393 292.186958 
L 375.390011 310.715321 
L 377.12963 290.748685 
L 378.869248 302.732715 
L 380.608866 316.268589 
L 382.348485 308.061341 
L 384.088103 306.356273 
L 385.827722 292.188151 
L 387.56734 299.351825 
L 389.306958 298.895804 
L 391.046577 271.158126 
L 392.786195 316.275662 
L 394.525814 293.502241 
L 396.265432 301.887441 
L 398.005051 328.35191 
L 399.744669 309.073284 
L 401.484287 308.711494 
L 403.223906 285.233254 
L 404.963524 297.010407 
L 406.703143 315.121045 
L 408.442761 322.74637 
L 410.182379 302.659529 
L 411.921998 315.516966 
L 413.661616 303.676858 
L 415.401235 307.599055 
L 417.140853 295.815455 
L 418.880471 303.525786 
L 420.62009 313.718977 
L 422.359708 311.800215 
L 424.099327 299.936043 
L 425.838945 282.394243 
L 427.578563 305.622701 
L 429.318182 320.471577 
L 431.0578 304.908907 
L 434.537037 296.080144 
L 436.276655 309.796155 
L 438.016274 312.04667 
L 439.755892 297.286384 
L 441.495511 313.097924 
L 443.235129 292.810089 
L 444.974747 304.430849 
L 446.714366 319.990206 
L 448.453984 315.092608 
L 450.193603 316.507552 
L 451.933221 322.853493 
L 453.67284 296.974094 
L 455.412458 325.468672 
L 457.152076 289.694977 
L 458.891695 318.213898 
L 460.631313 307.585341 
L 464.11055 319.279077 
L 465.850168 304.453355 
L 467.589787 319.543852 
L 469.329405 288.340404 
L 471.069024 312.082569 
L 472.808642 305.771806 
L 474.54826 330.25214 
L 476.287879 299.315333 
L 478.027497 307.582143 
L 479.767116 276.088279 
L 481.506734 300.950714 
L 483.246352 308.306053 
L 484.985971 285.626233 
L 486.725589 293.86195 
L 488.465208 292.762171 
L 490.204826 303.033561 
L 491.944444 301.177578 
L 493.684063 281.95736 
L 495.423681 289.446828 
L 497.1633 323.747771 
L 498.902918 314.968573 
L 500.642536 307.714284 
L 502.382155 316.612325 
L 504.121773 281.436142 
L 505.861392 314.190594 
L 507.60101 272.10778 
L 509.340629 312.875997 
L 511.080247 305.466304 
L 512.819865 294.937393 
L 514.559484 305.215412 
L 516.299102 296.68123 
L 518.038721 304.675744 
L 519.778339 281.640502 
L 521.517957 284.445808 
L 523.257576 297.220293 
L 524.997194 302.522433 
L 526.736813 300.044704 
L 528.476431 306.775118 
L 530.216049 315.042618 
L 531.955668 298.822814 
L 533.695286 285.418489 
L 535.434905 316.307514 
L 537.174523 295.670687 
L 538.914141 254.938012 
L 540.65376 306.783747 
L 542.393378 277.117667 
L 544.132997 278.235932 
L 545.872615 307.8356 
L 547.612233 301.633743 
L 549.351852 290.48956 
L 551.09147 299.354604 
L 552.831089 319.5142 
L 554.570707 290.185591 
L 556.310325 297.152182 
L 558.049944 281.392252 
L 559.789562 273.120808 
L 561.529181 313.478633 
L 563.268799 297.433528 
L 565.008418 295.267312 
L 566.748036 308.800835 
L 568.487654 300.969193 
L 570.227273 280.98293 
L 571.966891 298.11059 
L 573.70651 302.627754 
L 575.446128 312.713652 
L 577.185746 304.83555 
L 578.925365 302.818685 
L 580.664983 324.708614 
L 582.404602 297.649567 
L 584.14422 291.379979 
L 585.883838 328.265551 
L 587.623457 310.635997 
L 589.363075 301.396214 
L 591.102694 299.768541 
L 592.842312 299.546085 
L 594.58193 284.091997 
L 596.321549 302.868935 
L 598.061167 309.873094 
L 599.800786 300.42476 
L 601.540404 321.366179 
L 603.280022 268.544623 
L 605.019641 288.573552 
L 606.759259 298.225569 
L 608.498878 304.208651 
L 610.238496 295.03797 
L 611.978114 319.278044 
L 613.717733 293.189662 
L 615.457351 302.686539 
L 617.19697 288.963204 
L 618.936588 309.25065 
L 620.676207 301.421547 
L 622.415825 283.21704 
L 624.155443 304.826357 
L 625.895062 304.446693 
L 627.63468 301.417111 
L 629.374299 299.343873 
L 631.113917 311.420854 
L 632.853535 311.054819 
L 634.593154 295.644236 
L 636.332772 312.028142 
L 638.072391 307.501533 
L 639.812009 311.38913 
L 641.551627 305.95117 
L 643.291246 291.829256 
L 645.030864 306.810282 
L 646.770483 300.070027 
L 648.510101 315.085525 
L 650.249719 288.586469 
L 651.989338 317.096362 
L 653.728956 300.972579 
L 655.468575 302.225077 
L 657.208193 294.041784 
L 658.947811 312.676856 
L 660.68743 310.411224 
L 662.427048 297.131967 
L 664.166667 307.242402 
L 665.906285 301.009682 
L 667.645903 298.111351 
L 669.385522 298.647371 
L 671.12514 264.876383 
L 672.864759 309.138213 
L 674.604377 321.671965 
L 676.343996 298.517365 
L 678.083614 310.691423 
L 679.823232 295.937531 
L 681.562851 314.348951 
L 683.302469 310.262005 
L 685.042088 319.23323 
L 686.781706 315.693541 
L 688.521324 309.30436 
L 690.260943 314.787691 
L 692.000561 311.197831 
L 693.74018 315.937884 
L 695.479798 311.061401 
L 697.219416 321.298925 
L 698.959035 289.996198 
L 700.698653 299.44753 
L 702.438272 296.219029 
L 704.17789 307.063716 
L 705.917508 301.768004 
L 707.657127 315.840443 
L 709.396745 277.856013 
L 711.136364 277.48777 
L 712.875982 296.155342 
L 714.6156 318.429862 
L 716.355219 306.635619 
L 718.094837 305.336292 
L 719.834456 305.83352 
L 721.574074 307.577517 
L 723.313692 318.964368 
L 725.053311 314.539069 
L 726.792929 293.975412 
L 728.532548 303.887076 
L 730.272166 296.919979 
L 732.011785 317.880548 
L 733.751403 302.625676 
L 735.491021 306.270371 
L 737.23064 312.07656 
L 738.970258 308.020014 
L 740.709877 310.23808 
L 744.189113 316.050084 
L 745.928732 304.425303 
L 747.66835 293.714355 
L 749.407969 292.803371 
L 751.147587 301.257502 
L 752.887205 313.679568 
L 754.626824 313.31222 
L 756.366442 305.344519 
L 758.106061 311.252638 
L 759.845679 315.973709 
L 761.585297 313.220505 
L 763.324916 306.133027 
L 765.064534 316.485518 
L 766.804153 301.923655 
L 768.543771 326.034622 
L 770.283389 318.033817 
L 772.023008 282.939275 
L 773.762626 308.321023 
L 775.502245 304.717503 
L 777.241863 301.421085 
L 778.981481 305.899841 
L 780.7211 295.578469 
L 782.460718 316.167291 
L 784.200337 314.896824 
L 785.939955 297.250557 
L 787.679574 319.435303 
L 789.419192 292.974886 
L 791.15881 308.754745 
L 792.898429 315.522782 
L 794.638047 309.228822 
L 796.377666 307.42901 
L 798.117284 292.799815 
L 799.856902 306.268068 
L 801.596521 297.217582 
L 803.336139 296.174316 
L 805.075758 313.55086 
L 806.815376 293.694588 
L 808.554994 288.669961 
L 810.294613 310.941802 
L 812.034231 309.487241 
L 813.77385 315.684357 
L 815.513468 309.04701 
L 817.253086 315.8113 
L 818.992705 315.2548 
L 820.732323 274.126153 
L 822.471942 301.289568 
L 824.21156 288.714093 
L 825.951178 294.175176 
L 827.690797 298.560035 
L 829.430415 319.962538 
L 831.170034 291.482863 
L 832.909652 302.07459 
L 834.64927 297.847624 
L 836.388889 321.011853 
L 838.128507 275.86836 
L 839.868126 306.765433 
L 841.607744 282.552668 
L 843.347363 298.903857 
L 845.086981 293.711455 
L 846.826599 318.928507 
L 848.566218 310.187972 
L 850.305836 318.945486 
L 852.045455 310.365898 
L 853.785073 288.221819 
L 855.524691 298.131721 
L 857.26431 284.084664 
L 859.003928 306.923369 
L 860.743547 307.432452 
L 862.483165 282.999719 
L 864.222783 301.769261 
L 865.962402 328.903219 
L 867.70202 316.823497 
L 869.441639 277.564768 
L 871.181257 309.194489 
L 872.920875 294.022565 
L 874.660494 315.067497 
L 876.400112 300.034137 
L 878.139731 313.474777 
L 879.879349 308.981912 
L 881.618967 294.503218 
L 883.358586 299.451068 
L 885.098204 314.832339 
L 886.837823 312.152343 
L 888.577441 299.931042 
L 890.317059 291.38773 
L 892.056678 308.299008 
L 893.796296 289.136815 
L 895.535915 298.544301 
L 897.275533 311.403512 
L 899.015152 303.852847 
L 900.75477 320.287894 
L 902.494388 318.324163 
L 904.234007 310.243746 
L 905.973625 300.789747 
L 907.713244 271.090292 
L 909.452862 327.251181 
L 911.19248 289.487163 
L 912.932099 304.590686 
L 914.671717 312.638744 
L 916.411336 317.469218 
L 918.150954 297.772435 
L 919.890572 282.403177 
L 921.630191 293.838504 
L 923.369809 283.07809 
L 925.109428 320.760073 
L 926.849046 317.955298 
L 928.588664 289.616248 
L 930.328283 306.321916 
L 932.067901 297.114305 
L 933.80752 302.769252 
L 935.547138 296.767561 
L 937.286756 294.484539 
L 939.026375 273.176097 
L 940.765993 285.561548 
L 942.505612 295.622093 
L 944.24523 310.141718 
L 945.984848 318.692146 
L 947.724467 314.748621 
L 949.464085 290.786529 
L 951.203704 285.180731 
L 952.943322 303.087263 
L 954.682941 302.007911 
L 956.422559 304.158341 
L 958.162177 299.830194 
L 959.901796 306.768208 
L 961.641414 288.92131 
L 963.381033 322.550496 
L 965.120651 276.747804 
L 966.860269 320.70129 
L 968.599888 298.690073 
L 970.339506 303.378603 
L 972.079125 285.692896 
L 973.818743 305.801918 
L 975.558361 315.128344 
L 977.29798 293.623922 
L 979.037598 314.784935 
L 980.777217 299.983928 
L 982.516835 299.275334 
L 984.256453 274.172259 
L 985.996072 320.51028 
L 987.73569 304.239008 
L 989.475309 292.613285 
L 991.214927 307.421646 
L 992.954545 298.763216 
L 994.694164 299.024889 
L 996.433782 282.080931 
L 998.173401 294.796599 
L 999.913019 283.016025 
L 1001.652637 288.857802 
L 1003.392256 289.75176 
L 1005.131874 299.153319 
L 1006.871493 297.180676 
L 1008.611111 301.116267 
L 1010.35073 306.641032 
L 1012.090348 311.709488 
L 1013.829966 326.916103 
L 1015.569585 305.056177 
L 1017.309203 285.382901 
L 1019.048822 320.305335 
L 1020.78844 297.948872 
L 1022.528058 313.678191 
L 1024.267677 304.948892 
L 1026.007295 313.862082 
L 1027.746914 305.9942 
L 1029.486532 295.829213 
L 1031.22615 317.350201 
L 1032.965769 308.424198 
L 1034.705387 296.159605 
L 1036.445006 317.769933 
L 1038.184624 322.045596 
L 1039.924242 303.070918 
L 1041.663861 312.779107 
L 1043.403479 311.716206 
L 1045.143098 301.558977 
L 1046.882716 294.897175 
L 1048.622334 292.178858 
L 1050.361953 291.510136 
L 1052.101571 274.21191 
L 1053.84119 300.216131 
L 1055.580808 315.116444 
L 1057.320426 313.046648 
L 1059.060045 298.70934 
L 1060.799663 316.951998 
L 1062.539282 304.620942 
L 1064.2789 302.307003 
L 1066.018519 299.594513 
L 1067.758137 307.604252 
L 1069.497755 278.16897 
L 1071.237374 283.447325 
L 1072.976992 312.708216 
L 1074.716611 281.657815 
L 1076.456229 302.266938 
L 1078.195847 316.508282 
L 1079.935466 311.475063 
L 1083.414703 290.650935 
L 1085.154321 322.080596 
L 1086.893939 297.507834 
L 1088.633558 314.667714 
L 1090.373176 308.194948 
L 1093.852413 288.371117 
L 1095.592031 301.759062 
L 1097.33165 283.78495 
L 1099.071268 286.788053 
L 1100.810887 313.427171 
L 1102.550505 301.485488 
L 1104.290123 310.143457 
L 1106.029742 297.143061 
L 1107.76936 310.03102 
L 1109.508979 302.793604 
L 1111.248597 266.951756 
L 1112.988215 286.578837 
L 1114.727834 286.477086 
L 1116.467452 302.726849 
L 1118.207071 308.633402 
L 1119.946689 296.660816 
L 1121.686308 300.745919 
L 1123.425926 312.679224 
L 1125.165544 297.588281 
L 1126.905163 311.224593 
L 1128.644781 309.684388 
L 1130.3844 300.507211 
L 1132.124018 322.177865 
L 1133.863636 309.79556 
L 1135.603255 293.553994 
L 1137.342873 307.222711 
L 1139.082492 288.126325 
L 1140.82211 289.410628 
L 1142.561728 311.220396 
L 1144.301347 300.897207 
L 1146.040965 281.072255 
L 1147.780584 302.293435 
L 1149.520202 302.157851 
L 1151.25982 308.54711 
L 1152.999439 293.772409 
L 1154.739057 299.031248 
L 1156.478676 294.845545 
L 1158.218294 301.576839 
L 1159.957912 287.599276 
L 1161.697531 312.607656 
L 1163.437149 285.74837 
L 1165.176768 312.463228 
L 1166.916386 294.942616 
L 1168.656004 315.246606 
L 1170.395623 308.252302 
L 1172.135241 288.755747 
L 1175.614478 314.680977 
L 1177.354097 305.617527 
L 1179.093715 276.406237 
L 1180.833333 293.685782 
L 1182.572952 292.205164 
L 1184.31257 307.614703 
L 1186.052189 294.550403 
L 1187.791807 284.872377 
L 1189.531425 317.060264 
L 1191.271044 294.926784 
L 1193.010662 321.566364 
L 1194.750281 302.008347 
L 1196.489899 314.735236 
L 1198.229517 294.214363 
L 1199.969136 313.859185 
L 1201.708754 283.147719 
L 1203.448373 309.206599 
L 1205.187991 315.204313 
L 1206.927609 301.492917 
L 1208.667228 296.634041 
L 1210.406846 309.020604 
L 1212.146465 295.318254 
L 1213.886083 292.544762 
L 1215.625701 305.707263 
L 1217.36532 308.114395 
L 1219.104938 315.226038 
L 1220.844557 290.991393 
L 1222.584175 318.002851 
L 1224.323793 297.976548 
L 1226.063412 320.201956 
L 1227.80303 321.931713 
L 1229.542649 284.287489 
L 1231.282267 302.571986 
L 1233.021886 288.721093 
L 1234.761504 306.319111 
L 1236.501122 318.575247 
L 1238.240741 297.302894 
L 1239.980359 299.102111 
L 1241.719978 320.257363 
L 1243.459596 294.136707 
L 1245.199214 298.131758 
L 1246.938833 308.180606 
L 1248.678451 322.505288 
L 1250.41807 302.099543 
L 1252.157688 315.645733 
L 1253.897306 307.782378 
L 1255.636925 301.300747 
L 1257.376543 323.718386 
L 1259.116162 316.885819 
L 1260.85578 310.74634 
L 1262.595398 316.594716 
L 1264.335017 315.125898 
L 1266.074635 309.767151 
L 1267.814254 284.023056 
L 1269.553872 296.085442 
L 1271.29349 301.836185 
L 1273.033109 303.14724 
L 1274.772727 296.227846 
L 1276.512346 272.821055 
L 1278.251964 304.323178 
L 1279.991582 310.948922 
L 1281.731201 324.296835 
L 1283.470819 285.864101 
L 1285.210438 316.459217 
L 1286.950056 291.693552 
L 1288.689675 321.804986 
L 1290.429293 299.410692 
L 1292.168911 303.586527 
L 1293.90853 317.245351 
L 1295.648148 298.244622 
L 1297.387767 298.87826 
L 1299.127385 305.193812 
L 1300.867003 311.948158 
L 1302.606622 304.792358 
L 1304.34624 316.314335 
L 1306.085859 297.923759 
L 1307.825477 304.890262 
L 1309.565095 289.621588 
L 1311.304714 288.776794 
L 1313.044332 311.175973 
L 1314.783951 303.515764 
L 1316.523569 296.401953 
L 1318.263187 316.474803 
L 1320.002806 304.532029 
L 1321.742424 319.380432 
L 1323.482043 304.946805 
L 1325.221661 281.500334 
L 1326.961279 299.440436 
L 1328.700898 294.568472 
L 1330.440516 304.131277 
L 1332.180135 299.778222 
L 1333.919753 288.367322 
L 1335.659371 288.390258 
L 1337.39899 303.327978 
L 1339.138608 300.369413 
L 1340.878227 295.561788 
L 1342.617845 284.755778 
L 1344.357464 329.430015 
L 1346.097082 306.077745 
L 1347.8367 292.452084 
L 1349.576319 296.257504 
L 1351.315937 307.647326 
L 1353.055556 298.694415 
L 1354.795174 314.409804 
L 1356.534792 296.158654 
L 1358.274411 305.280293 
L 1360.014029 309.626655 
L 1361.753648 294.815758 
L 1363.493266 294.905641 
L 1365.232884 292.482994 
L 1366.972503 312.538923 
L 1368.712121 298.486952 
L 1370.45174 288.635627 
L 1372.191358 276.441983 
L 1373.930976 274.72263 
L 1375.670595 297.187124 
L 1377.410213 291.056489 
L 1379.149832 297.833795 
L 1380.88945 305.633841 
L 1382.629068 296.548863 
L 1384.368687 293.898564 
L 1386.108305 300.891414 
L 1387.847924 298.525412 
L 1389.587542 305.318683 
L 1391.32716 291.919087 
L 1394.806397 318.761502 
L 1396.546016 291.124055 
L 1398.285634 267.471693 
L 1400.025253 313.374649 
L 1401.764871 294.544537 
L 1403.504489 300.81317 
L 1405.244108 312.766506 
L 1406.983726 293.66226 
L 1408.723345 297.101627 
L 1410.462963 282.110928 
L 1412.202581 302.291111 
L 1413.9422 297.998861 
L 1415.681818 316.402656 
L 1417.421437 299.847856 
L 1419.161055 302.273101 
L 1420.900673 304.407069 
L 1422.640292 297.843118 
L 1424.37991 287.79056 
L 1426.119529 293.194812 
L 1427.859147 307.551787 
L 1429.598765 302.852813 
L 1431.338384 312.464321 
L 1433.078002 302.809386 
L 1434.817621 297.530591 
L 1436.557239 312.562241 
L 1438.296857 316.099026 
L 1440.036476 298.959224 
L 1441.776094 322.036177 
L 1443.515713 298.42762 
L 1445.255331 299.977026 
L 1446.994949 285.896059 
L 1448.734568 314.495062 
L 1450.474186 284.121036 
L 1452.213805 276.593582 
L 1453.953423 312.704865 
L 1455.693042 287.191512 
L 1457.43266 312.183848 
L 1459.172278 292.531519 
L 1460.911897 296.969254 
L 1462.651515 318.554537 
L 1464.391134 311.641713 
L 1466.130752 310.998556 
L 1467.87037 304.559425 
L 1469.609989 280.954511 
L 1471.349607 277.486074 
L 1473.089226 303.522968 
L 1474.828844 322.107533 
L 1476.568462 325.610361 
L 1478.308081 301.056659 
L 1480.047699 317.994125 
L 1481.787318 306.808536 
L 1483.526936 322.605982 
L 1485.266554 314.978434 
L 1487.006173 286.757258 
L 1488.745791 306.277233 
L 1490.48541 312.693625 
L 1492.225028 323.804287 
L 1493.964646 303.033198 
L 1495.704265 288.814009 
L 1497.443883 332.247273 
L 1499.183502 302.760795 
L 1500.92312 320.983988 
L 1502.662738 298.823742 
L 1504.402357 300.975521 
L 1506.141975 306.059613 
L 1507.881594 292.26451 
L 1509.621212 306.21114 
L 1511.360831 293.960264 
L 1513.100449 289.939093 
L 1514.840067 322.285836 
L 1516.579686 296.754531 
L 1518.319304 314.11194 
L 1520.058923 317.735227 
L 1521.798541 312.70568 
L 1523.538159 283.648762 
L 1525.277778 305.963941 
L 1527.017396 314.270922 
L 1528.757015 313.629123 
L 1530.496633 309.01968 
L 1532.236251 298.728452 
L 1533.97587 306.812413 
L 1535.715488 320.676987 
L 1537.455107 298.051027 
L 1539.194725 315.980032 
L 1540.934343 315.564962 
L 1542.673962 320.280075 
L 1544.41358 316.080626 
L 1546.153199 306.406175 
L 1547.892817 300.654269 
L 1549.632435 318.437327 
L 1551.372054 313.343767 
L 1553.111672 296.866897 
L 1554.851291 301.693245 
L 1556.590909 293.300876 
L 1556.590909 293.300876 
" style="fill:none;stroke:#1f77b4;stroke-linecap:square;stroke-width:1.5;"/>
   </g>
   <g id="line2d_16">
    <path clip-path="url(#pcfcf8aac57)" d="M 288.409091 200.992716 
L 290.148709 187.507614 
L 291.888328 260.989481 
L 293.627946 172.005049 
L 295.367565 238.305594 
L 297.107183 170.814679 
L 298.846801 168.483617 
L 300.58642 286.049451 
L 302.326038 268.383525 
L 304.065657 218.435121 
L 305.805275 267.495382 
L 307.544893 282.132587 
L 309.284512 250.828645 
L 311.02413 228.901093 
L 312.763749 259.157125 
L 314.503367 222.279291 
L 316.242985 223.399226 
L 317.982604 251.349167 
L 319.722222 219.164425 
L 321.461841 246.179347 
L 323.201459 243.310568 
L 324.941077 221.093915 
L 326.680696 221.484601 
L 328.420314 264.830316 
L 330.159933 287.289313 
L 331.899551 245.564011 
L 333.639169 219.496916 
L 335.378788 159.510128 
L 337.118406 201.437764 
L 338.858025 247.097516 
L 340.597643 235.941366 
L 342.337262 273.080053 
L 344.07688 235.557675 
L 345.816498 152.233162 
L 347.556117 196.818923 
L 349.295735 221.51463 
L 351.035354 213.910967 
L 352.774972 85.343401 
L 354.51459 285.349302 
L 356.254209 175.267719 
L 357.993827 270.748703 
L 359.733446 212.809834 
L 361.473064 230.711165 
L 363.212682 263.747669 
L 364.952301 183.997763 
L 366.691919 231.50924 
L 368.431538 256.01059 
L 370.171156 151.67119 
L 371.910774 226.240134 
L 373.650393 190.815024 
L 375.390011 249.95568 
L 377.12963 184.96971 
L 378.869248 223.580141 
L 380.608866 266.14099 
L 382.348485 240.33494 
L 384.088103 235.07689 
L 385.827722 189.048598 
L 387.56734 211.345909 
L 389.306958 210.554043 
L 391.046577 122.067464 
L 392.786195 265.401366 
L 394.525814 193.052482 
L 396.265432 219.434669 
L 398.005051 303.883853 
L 399.744669 242.853368 
L 401.484287 241.250116 
L 403.223906 167.212596 
L 404.963524 204.534395 
L 406.703143 261.927007 
L 408.442761 285.858452 
L 410.182379 221.707834 
L 411.921998 262.764251 
L 413.661616 224.545345 
L 415.401235 237.51939 
L 417.140853 199.967413 
L 418.880471 224.538695 
L 420.62009 256.641234 
L 422.359708 250.386934 
L 424.099327 211.90364 
L 425.838945 154.225344 
L 427.578563 229.543809 
L 429.318182 277.596258 
L 431.0578 227.2339 
L 432.797419 214.709771 
L 434.537037 198.375608 
L 436.276655 242.231647 
L 438.016274 249.195335 
L 439.755892 201.596626 
L 441.495511 253.126433 
L 443.235129 187.00838 
L 444.974747 224.880437 
L 446.714366 275.663071 
L 448.453984 259.374211 
L 450.193603 263.8682 
L 451.933221 285.309415 
L 453.67284 201.568854 
L 455.412458 293.771611 
L 457.152076 180.337796 
L 458.891695 271.715398 
L 460.631313 238.960082 
L 462.370932 257.895725 
L 464.11055 275.415421 
L 465.850168 228.65954 
L 467.589787 276.250441 
L 469.329405 178.023696 
L 471.069024 252.659155 
L 472.808642 234.097973 
L 474.54826 310.028684 
L 476.287879 212.97199 
L 478.027497 238.937214 
L 479.767116 140.018135 
L 481.506734 217.957647 
L 483.246352 239.951086 
L 484.985971 167.739488 
L 486.725589 194.089942 
L 488.465208 189.885581 
L 490.204826 222.695482 
L 491.944444 216.766916 
L 493.684063 156.704374 
L 495.423681 180.409796 
L 497.1633 289.215818 
L 498.902918 261.93243 
L 500.642536 239.087223 
L 502.382155 267.108934 
L 504.121773 156.3321 
L 505.861392 259.090411 
L 507.60101 125.097926 
L 509.340629 255.029283 
L 511.080247 232.349681 
L 512.819865 197.200503 
L 514.559484 229.947297 
L 516.299102 202.756541 
L 518.038721 227.563433 
L 519.778339 154.040604 
L 521.517957 161.129185 
L 523.257576 201.67397 
L 524.997194 218.920773 
L 526.736813 210.863196 
L 528.476431 232.750503 
L 530.216049 259.980859 
L 531.955668 207.012079 
L 533.695286 164.372445 
L 535.434905 263.593489 
L 537.174523 197.166593 
L 538.914141 65.192727 
L 540.65376 233.172909 
L 542.393378 136.954765 
L 544.132997 140.278826 
L 545.872615 235.209896 
L 547.612233 214.848581 
L 549.351852 177.661407 
L 551.09147 206.874387 
L 552.831089 273.306304 
L 554.570707 177.094986 
L 556.310325 201.43972 
L 558.049944 150.782132 
L 559.789562 123.013979 
L 561.529181 254.484916 
L 563.268799 202.266122 
L 565.008418 195.216173 
L 566.748036 240.294328 
L 568.487654 215.103418 
L 570.227273 151.91304 
L 571.966891 206.733285 
L 573.70651 222.469033 
L 575.446128 254.394932 
L 577.185746 229.457591 
L 578.925365 222.834029 
L 580.664983 292.321962 
L 582.404602 206.194527 
L 584.14422 181.850514 
L 585.883838 302.383614 
L 587.623457 244.659166 
L 589.363075 214.405342 
L 591.102694 207.504691 
L 592.842312 207.958498 
L 594.58193 154.990681 
L 596.321549 217.395988 
L 598.061167 240.875012 
L 599.800786 209.530167 
L 601.540404 279.003323 
L 603.280022 103.518958 
L 605.019641 169.973744 
L 606.759259 200.821922 
L 608.498878 221.83162 
L 610.238496 191.347237 
L 611.978114 271.933361 
L 613.717733 185.202537 
L 615.457351 215.551555 
L 617.19697 169.413264 
L 618.936588 237.141365 
L 620.676207 212.645884 
L 622.415825 152.296842 
L 624.155443 224.041932 
L 625.895062 222.78141 
L 627.63468 213.663319 
L 629.374299 207.717606 
L 631.113917 248.168909 
L 632.853535 247.119828 
L 634.593154 197.309701 
L 636.332772 250.30836 
L 638.072391 235.665687 
L 639.812009 248.823369 
L 641.551627 231.819773 
L 643.291246 187.589346 
L 645.030864 234.102754 
L 646.770483 213.672313 
L 648.510101 261.468145 
L 650.249719 177.119 
L 651.989338 267.805702 
L 653.728956 216.672848 
L 655.468575 220.16533 
L 657.208193 193.890961 
L 658.947811 252.803263 
L 660.68743 245.507701 
L 662.427048 202.747167 
L 664.166667 236.697119 
L 665.906285 216.999464 
L 667.645903 207.877916 
L 669.385522 210.488604 
L 671.12514 105.348506 
L 672.864759 244.047377 
L 674.604377 283.323144 
L 676.343996 210.050257 
L 678.083614 248.471516 
L 679.823232 201.339881 
L 681.562851 259.599135 
L 683.302469 246.602169 
L 685.042088 275.009551 
L 686.781706 263.801127 
L 688.521324 242.938685 
L 690.260943 260.694117 
L 692.000561 249.471583 
L 693.74018 264.228705 
L 695.479798 249.110589 
L 697.219416 281.535899 
L 698.959035 182.390772 
L 700.698653 212.386274 
L 702.438272 201.336033 
L 704.17789 235.9046 
L 705.917508 217.418098 
L 707.657127 262.971284 
L 709.396745 140.627234 
L 711.136364 139.441161 
L 712.875982 199.763251 
L 714.6156 270.83631 
L 716.355219 232.735886 
L 718.094837 228.267007 
L 719.834456 228.971608 
L 721.574074 234.68006 
L 723.313692 271.951498 
L 725.053311 258.408112 
L 726.792929 192.674082 
L 728.532548 225.378955 
L 730.272166 203.854753 
L 732.011785 270.658812 
L 733.751403 222.306969 
L 735.491021 233.859195 
L 737.23064 252.982049 
L 738.970258 239.860274 
L 740.709877 246.45583 
L 742.449495 257.777664 
L 744.189113 266.140576 
L 745.928732 229.927058 
L 747.66835 196.560315 
L 749.407969 193.216518 
L 751.147587 219.344704 
L 752.887205 258.543023 
L 754.626824 257.282415 
L 756.366442 232.186901 
L 758.106061 250.695855 
L 759.845679 265.486027 
L 761.585297 257.127683 
L 763.324916 235.186639 
L 765.064534 267.358079 
L 766.804153 222.892138 
L 768.543771 297.584687 
L 770.283389 272.860601 
L 772.023008 164.411446 
L 773.762626 242.614322 
L 777.241863 220.931454 
L 778.981481 235.053726 
L 780.7211 203.698232 
L 782.460718 267.214748 
L 784.200337 263.295359 
L 785.939955 208.492026 
L 787.679574 277.209661 
L 789.419192 195.647512 
L 791.15881 245.042092 
L 792.898429 266.056269 
L 794.638047 246.855913 
L 796.377666 241.365408 
L 798.117284 196.203542 
L 799.856902 237.630248 
L 801.596521 210.727806 
L 803.336139 207.827364 
L 805.075758 260.510429 
L 806.815376 200.2943 
L 808.554994 185.056616 
L 810.294613 252.756074 
L 812.034231 247.855357 
L 813.77385 266.724086 
L 815.513468 246.298219 
L 817.253086 266.934037 
L 818.992705 265.236322 
L 820.732323 139.765159 
L 822.471942 220.837521 
L 824.21156 181.854429 
L 825.951178 199.15991 
L 827.690797 212.921015 
L 829.430415 278.366051 
L 831.170034 189.700281 
L 832.909652 222.675503 
L 834.64927 209.515689 
L 836.388889 281.045917 
L 838.128507 139.652656 
L 839.868126 237.223609 
L 841.607744 161.67524 
L 843.347363 212.645166 
L 845.086981 196.459412 
L 846.826599 275.519712 
L 848.566218 248.547618 
L 850.305836 275.584688 
L 852.045455 248.213602 
L 853.785073 179.835644 
L 855.524691 210.632648 
L 857.26431 166.97861 
L 859.003928 238.144241 
L 860.743547 239.961743 
L 862.483165 164.615225 
L 864.222783 222.713498 
L 865.962402 306.509383 
L 867.70202 269.248273 
L 869.441639 148.1508 
L 871.181257 245.353466 
L 872.920875 198.337105 
L 874.660494 263.65967 
L 876.400112 217.364747 
L 878.139731 259.371571 
L 879.879349 245.590605 
L 881.618967 201.180106 
L 883.358586 216.915353 
L 885.098204 264.15099 
L 886.837823 256.104327 
L 888.577441 218.853509 
L 890.317059 192.786987 
L 892.056678 244.25139 
L 893.796296 185.937003 
L 895.535915 214.902896 
L 897.275533 253.90236 
L 899.015152 230.860424 
L 900.75477 280.623691 
L 902.494388 274.561651 
L 904.234007 249.896178 
L 905.973625 221.037847 
L 907.713244 130.942413 
L 909.452862 302.033234 
L 911.19248 187.434546 
L 912.932099 233.267696 
L 914.671717 258.341203 
L 916.411336 272.883344 
L 918.150954 213.586177 
L 919.890572 166.88771 
L 921.630191 201.674369 
L 923.369809 169.264002 
L 925.109428 282.393863 
L 926.849046 273.453041 
L 928.588664 186.970763 
L 930.328283 237.95145 
L 932.067901 209.852584 
L 933.80752 226.479198 
L 935.547138 207.936861 
L 937.286756 201.023457 
L 939.026375 135.58396 
L 940.765993 173.607294 
L 942.505612 204.493168 
L 944.24523 249.806017 
L 945.984848 275.946839 
L 947.724467 263.721999 
L 949.464085 190.3027 
L 951.203704 173.004623 
L 952.943322 227.791447 
L 954.682941 224.489061 
L 956.422559 230.770423 
L 958.162177 217.161199 
L 959.901796 238.511187 
L 961.641414 184.63698 
L 963.381033 287.117209 
L 965.120651 146.379276 
L 966.860269 281.435152 
L 968.599888 213.158282 
L 970.339506 228.541391 
L 972.079125 173.314543 
L 973.818743 234.168108 
L 975.558361 262.935736 
L 977.29798 195.652702 
L 979.037598 261.861278 
L 980.777217 215.22666 
L 982.516835 213.734505 
L 984.256453 136.763089 
L 985.996072 280.421516 
L 987.73569 230.39121 
L 989.475309 194.517717 
L 991.214927 240.211877 
L 992.954545 214.205916 
L 994.694164 215.42314 
L 996.433782 163.77376 
L 998.173401 202.712366 
L 999.913019 167.865187 
L 1001.652637 185.585634 
L 1003.392256 188.297365 
L 1005.131874 217.156189 
L 1006.871493 210.97662 
L 1008.611111 222.955402 
L 1012.090348 254.750289 
L 1013.829966 300.961669 
L 1015.569585 234.531541 
L 1017.309203 175.473545 
L 1019.048822 281.113961 
L 1020.78844 213.47104 
L 1022.528058 260.042243 
L 1024.267677 234.673921 
L 1026.007295 261.639886 
L 1027.746914 237.836395 
L 1029.486532 206.171861 
L 1031.22615 271.668894 
L 1032.965769 244.49187 
L 1034.705387 207.330501 
L 1036.445006 273.613639 
L 1038.184624 286.519729 
L 1039.924242 229.244663 
L 1041.663861 258.331213 
L 1043.403479 254.603124 
L 1045.143098 223.450667 
L 1046.882716 204.129208 
L 1048.622334 194.96196 
L 1050.361953 192.923628 
L 1052.101571 140.196907 
L 1053.84119 219.661462 
L 1055.580808 265.086514 
L 1057.320426 259.196809 
L 1059.060045 214.789744 
L 1060.799663 270.600054 
L 1062.539282 233.082817 
L 1064.2789 226.042656 
L 1066.018519 217.55761 
L 1067.758137 242.425482 
L 1069.497755 153.260493 
L 1071.237374 168.796963 
L 1072.976992 257.825728 
L 1074.716611 163.51324 
L 1076.456229 226.111391 
L 1078.195847 269.437462 
L 1079.935466 254.350589 
L 1083.414703 191.04452 
L 1085.154321 286.252995 
L 1086.893939 211.559172 
L 1088.633558 263.720059 
L 1090.373176 243.890682 
L 1093.852413 184.688725 
L 1095.592031 225.637172 
L 1097.33165 171.582992 
L 1099.071268 180.618126 
L 1100.810887 260.764577 
L 1102.550505 224.065994 
L 1104.290123 250.18009 
L 1106.029742 210.981655 
L 1107.76936 249.862816 
L 1109.508979 228.112775 
L 1111.248597 119.63742 
L 1112.988215 179.038783 
L 1114.727834 178.730831 
L 1116.467452 227.633848 
L 1118.207071 245.762113 
L 1119.946689 209.465921 
L 1121.686308 221.475888 
L 1123.425926 257.726882 
L 1125.165544 211.883616 
L 1126.905163 253.336425 
L 1128.644781 248.808938 
L 1130.3844 220.508083 
L 1132.124018 286.473553 
L 1133.863636 249.232553 
L 1135.603255 200.038473 
L 1137.342873 241.439652 
L 1139.082492 183.490417 
L 1140.82211 187.955819 
L 1142.561728 253.838177 
L 1144.301347 223.237421 
L 1146.040965 162.478544 
L 1147.780584 226.666248 
L 1149.520202 226.256144 
L 1151.25982 245.224102 
L 1152.999439 200.277996 
L 1154.739057 215.852794 
L 1156.478676 202.606447 
L 1158.218294 223.280553 
L 1159.957912 180.555337 
L 1161.697531 256.998453 
L 1163.437149 174.94618 
L 1165.176768 256.412912 
L 1166.916386 203.122423 
L 1168.656004 265.167409 
L 1170.395623 243.927172 
L 1172.135241 184.482174 
L 1175.614478 263.588116 
L 1177.354097 235.750824 
L 1179.093715 146.145532 
L 1180.833333 199.950473 
L 1182.572952 195.260371 
L 1184.31257 242.159304 
L 1186.052189 202.398106 
L 1187.791807 173.063536 
L 1189.531425 270.875249 
L 1191.271044 203.293195 
L 1193.010662 284.910454 
L 1194.750281 225.898034 
L 1196.489899 264.361239 
L 1198.229517 202.343057 
L 1199.969136 262.113327 
L 1201.708754 168.43981 
L 1203.448373 247.016413 
L 1205.187991 265.407374 
L 1206.927609 223.729858 
L 1208.667228 208.96762 
L 1210.406846 246.600474 
L 1212.146465 203.764287 
L 1213.886083 196.011332 
L 1215.625701 235.831357 
L 1217.36532 243.194533 
L 1219.104938 265.177882 
L 1220.844557 191.274334 
L 1222.584175 273.645775 
L 1224.323793 212.02553 
L 1226.063412 280.291669 
L 1227.80303 285.704779 
L 1229.542649 171.572578 
L 1231.282267 226.626426 
L 1233.021886 184.401978 
L 1234.761504 238.049536 
L 1236.501122 275.43765 
L 1238.240741 211.114055 
L 1239.980359 216.445839 
L 1241.719978 280.670199 
L 1243.459596 200.865969 
L 1245.199214 213.048876 
L 1246.938833 243.692839 
L 1248.678451 287.372528 
L 1250.41807 225.351385 
L 1252.157688 266.872942 
L 1253.897306 243.026493 
L 1255.636925 222.977289 
L 1257.376543 291.185198 
L 1259.116162 270.396429 
L 1260.85578 251.884066 
L 1262.595398 269.446176 
L 1264.335017 264.85289 
L 1266.074635 248.280026 
L 1267.814254 169.151112 
L 1269.553872 206.12474 
L 1271.29349 223.751916 
L 1273.033109 227.595368 
L 1274.772727 206.144423 
L 1276.512346 134.447204 
L 1278.251964 231.198435 
L 1279.991582 251.170604 
L 1281.731201 292.323556 
L 1283.470819 173.831592 
L 1285.210438 268.092154 
L 1286.950056 191.473503 
L 1288.689675 284.378676 
L 1290.429293 214.538906 
L 1292.168911 226.852546 
L 1293.90853 269.577347 
L 1295.648148 210.143067 
L 1297.387767 212.801827 
L 1300.867003 252.739063 
L 1302.606622 230.216601 
L 1304.34624 266.13084 
L 1306.085859 208.183977 
L 1307.825477 230.134728 
L 1309.565095 182.67998 
L 1311.304714 179.586625 
L 1313.044332 250.131124 
L 1316.523569 204.357577 
L 1318.263187 267.155488 
L 1320.002806 229.792519 
L 1321.742424 276.130237 
L 1323.482043 230.843785 
L 1325.221661 156.662173 
L 1326.961279 212.721642 
L 1328.700898 197.562216 
L 1330.440516 227.704176 
L 1332.180135 213.983349 
L 1333.919753 177.195736 
L 1335.659371 177.237645 
L 1337.39899 224.286025 
L 1339.138608 214.613505 
L 1340.878227 198.731413 
L 1342.617845 164.190001 
L 1344.357464 306.991202 
L 1346.097082 232.110693 
L 1347.8367 188.097498 
L 1349.576319 201.185226 
L 1351.315937 237.420431 
L 1353.055556 207.151849 
L 1354.795174 257.997418 
L 1356.534792 198.947648 
L 1358.274411 228.635064 
L 1360.014029 241.768539 
L 1361.753648 193.912461 
L 1363.493266 194.531255 
L 1365.232884 186.517763 
L 1366.972503 251.635354 
L 1368.712121 206.011412 
L 1370.45174 173.750678 
L 1372.191358 134.745506 
L 1373.930976 129.74286 
L 1375.670595 201.697723 
L 1377.410213 181.696689 
L 1379.149832 203.727678 
L 1380.88945 229.083287 
L 1382.629068 199.279238 
L 1384.368687 191.287675 
L 1386.108305 213.59732 
L 1387.847924 204.676513 
L 1389.587542 227.135404 
L 1391.32716 183.216889 
L 1394.806397 270.727781 
L 1396.546016 179.655216 
L 1398.285634 100.230017 
L 1400.025253 252.84871 
L 1401.764871 190.455497 
L 1403.504489 211.191507 
L 1405.244108 250.731948 
L 1406.983726 186.32305 
L 1408.723345 198.799228 
L 1410.462963 149.493214 
L 1412.202581 217.212234 
L 1413.9422 202.273536 
L 1415.681818 262.978455 
L 1417.421437 208.372447 
L 1419.161055 216.084348 
L 1420.900673 223.023386 
L 1422.640292 200.601886 
L 1424.37991 168.601455 
L 1426.119529 186.524927 
L 1427.859147 233.851259 
L 1429.598765 218.361564 
L 1431.338384 249.650808 
L 1433.078002 218.133687 
L 1434.817621 199.50761 
L 1436.557239 249.213964 
L 1438.296857 261.030352 
L 1440.036476 203.805697 
L 1441.776094 280.852721 
L 1443.515713 202.438889 
L 1445.255331 207.568783 
L 1446.994949 161.239825 
L 1448.734568 255.159609 
L 1450.474186 153.865662 
L 1452.213805 128.679553 
L 1453.953423 249.504294 
L 1455.693042 162.497348 
L 1457.43266 246.890481 
L 1459.172278 179.989807 
L 1460.911897 195.531542 
L 1462.651515 267.758511 
L 1464.391134 244.196843 
L 1466.130752 242.004707 
L 1467.87037 221.176826 
L 1469.609989 141.474833 
L 1471.349607 128.514245 
L 1473.089226 217.334063 
L 1474.828844 280.133371 
L 1476.568462 292.019517 
L 1478.308081 208.701438 
L 1480.047699 266.422172 
L 1481.787318 228.964689 
L 1483.526936 282.298463 
L 1485.266554 256.56628 
L 1487.006173 160.7399 
L 1488.745791 226.770118 
L 1490.48541 248.47485 
L 1492.225028 286.035123 
L 1493.964646 216.239533 
L 1495.704265 169.125643 
L 1497.443883 314.840186 
L 1499.183502 215.69391 
L 1500.92312 276.932948 
L 1502.662738 202.463443 
L 1504.402357 210.02706 
L 1506.141975 227.246434 
L 1507.881594 179.828877 
L 1509.621212 226.87755 
L 1511.360831 186.055765 
L 1513.100449 172.53699 
L 1514.840067 281.283506 
L 1516.579686 193.910017 
L 1518.319304 253.627504 
L 1520.058923 266.087792 
L 1521.798541 249.097532 
L 1523.538159 151.277532 
L 1525.277778 226.343563 
L 1527.017396 254.287418 
L 1528.757015 252.175298 
L 1530.496633 236.981089 
L 1532.236251 200.821593 
L 1533.97587 226.607189 
L 1535.715488 273.651581 
L 1537.455107 194.933602 
L 1539.194725 257.310403 
L 1540.934343 255.924126 
L 1542.673962 271.987944 
L 1544.41358 256.484484 
L 1546.153199 222.343346 
L 1547.892817 202.044869 
L 1549.632435 264.801279 
L 1551.372054 246.826106 
L 1553.111672 188.764791 
L 1554.851291 205.073814 
L 1556.590909 177.105062 
L 1556.590909 177.105062 
" style="fill:none;stroke:#ff7f0e;stroke-linecap:square;stroke-width:1.5;"/>
   </g>
   <g id="patch_3">
    <path d="M 225 345.6 
L 225 51.84 
" style="fill:none;stroke:#000000;stroke-linecap:square;stroke-linejoin:miter;stroke-width:0.8;"/>
   </g>
   <g id="patch_4">
    <path d="M 1620 345.6 
L 1620 51.84 
" style="fill:none;stroke:#000000;stroke-linecap:square;stroke-linejoin:miter;stroke-width:0.8;"/>
   </g>
   <g id="patch_5">
    <path d="M 225 345.6 
L 1620 345.6 
" style="fill:none;stroke:#000000;stroke-linecap:square;stroke-linejoin:miter;stroke-width:0.8;"/>
   </g>
   <g id="patch_6">
    <path d="M 225 51.84 
L 1620 51.84 
" style="fill:none;stroke:#000000;stroke-linecap:square;stroke-linejoin:miter;stroke-width:0.8;"/>
   </g>
   <g id="text_18">
    <!-- Orders value daily -->
    <g transform="translate(867.748125 45.84)scale(0.12 -0.12)">
     <defs>
      <path d="M 39.40625 66.21875 
Q 28.65625 66.21875 22.328125 58.203125 
Q 16.015625 50.203125 16.015625 36.375 
Q 16.015625 22.609375 22.328125 14.59375 
Q 28.65625 6.59375 39.40625 6.59375 
Q 50.140625 6.59375 56.421875 14.59375 
Q 62.703125 22.609375 62.703125 36.375 
Q 62.703125 50.203125 56.421875 58.203125 
Q 50.140625 66.21875 39.40625 66.21875 
z
M 39.40625 74.21875 
Q 54.734375 74.21875 63.90625 63.9375 
Q 73.09375 53.65625 73.09375 36.375 
Q 73.09375 19.140625 63.90625 8.859375 
Q 54.734375 -1.421875 39.40625 -1.421875 
Q 24.03125 -1.421875 14.8125 8.828125 
Q 5.609375 19.09375 5.609375 36.375 
Q 5.609375 53.65625 14.8125 63.9375 
Q 24.03125 74.21875 39.40625 74.21875 
z
" id="DejaVuSans-79"/>
      <path d="M 41.109375 46.296875 
Q 39.59375 47.171875 37.8125 47.578125 
Q 36.03125 48 33.890625 48 
Q 26.265625 48 22.1875 43.046875 
Q 18.109375 38.09375 18.109375 28.8125 
L 18.109375 0 
L 9.078125 0 
L 9.078125 54.6875 
L 18.109375 54.6875 
L 18.109375 46.1875 
Q 20.953125 51.171875 25.484375 53.578125 
Q 30.03125 56 36.53125 56 
Q 37.453125 56 38.578125 55.875 
Q 39.703125 55.765625 41.0625 55.515625 
z
" id="DejaVuSans-114"/>
      <path d="M 45.40625 46.390625 
L 45.40625 75.984375 
L 54.390625 75.984375 
L 54.390625 0 
L 45.40625 0 
L 45.40625 8.203125 
Q 42.578125 3.328125 38.25 0.953125 
Q 33.9375 -1.421875 27.875 -1.421875 
Q 17.96875 -1.421875 11.734375 6.484375 
Q 5.515625 14.40625 5.515625 27.296875 
Q 5.515625 40.1875 11.734375 48.09375 
Q 17.96875 56 27.875 56 
Q 33.9375 56 38.25 53.625 
Q 42.578125 51.265625 45.40625 46.390625 
z
M 14.796875 27.296875 
Q 14.796875 17.390625 18.875 11.75 
Q 22.953125 6.109375 30.078125 6.109375 
Q 37.203125 6.109375 41.296875 11.75 
Q 45.40625 17.390625 45.40625 27.296875 
Q 45.40625 37.203125 41.296875 42.84375 
Q 37.203125 48.484375 30.078125 48.484375 
Q 22.953125 48.484375 18.875 42.84375 
Q 14.796875 37.203125 14.796875 27.296875 
z
" id="DejaVuSans-100"/>
      <path d="M 44.28125 53.078125 
L 44.28125 44.578125 
Q 40.484375 46.53125 36.375 47.5 
Q 32.28125 48.484375 27.875 48.484375 
Q 21.1875 48.484375 17.84375 46.4375 
Q 14.5 44.390625 14.5 40.28125 
Q 14.5 37.15625 16.890625 35.375 
Q 19.28125 33.59375 26.515625 31.984375 
L 29.59375 31.296875 
Q 39.15625 29.25 43.1875 25.515625 
Q 47.21875 21.78125 47.21875 15.09375 
Q 47.21875 7.46875 41.1875 3.015625 
Q 35.15625 -1.421875 24.609375 -1.421875 
Q 20.21875 -1.421875 15.453125 -0.5625 
Q 10.6875 0.296875 5.421875 2 
L 5.421875 11.28125 
Q 10.40625 8.6875 15.234375 7.390625 
Q 20.0625 6.109375 24.8125 6.109375 
Q 31.15625 6.109375 34.5625 8.28125 
Q 37.984375 10.453125 37.984375 14.40625 
Q 37.984375 18.0625 35.515625 20.015625 
Q 33.0625 21.96875 24.703125 23.78125 
L 21.578125 24.515625 
Q 13.234375 26.265625 9.515625 29.90625 
Q 5.8125 33.546875 5.8125 39.890625 
Q 5.8125 47.609375 11.28125 51.796875 
Q 16.75 56 26.8125 56 
Q 31.78125 56 36.171875 55.265625 
Q 40.578125 54.546875 44.28125 53.078125 
z
" id="DejaVuSans-115"/>
      <path id="DejaVuSans-32"/>
      <path d="M 2.984375 54.6875 
L 12.5 54.6875 
L 29.59375 8.796875 
L 46.6875 54.6875 
L 56.203125 54.6875 
L 35.6875 0 
L 23.484375 0 
z
" id="DejaVuSans-118"/>
      <path d="M 9.421875 54.6875 
L 18.40625 54.6875 
L 18.40625 0 
L 9.421875 0 
z
M 9.421875 75.984375 
L 18.40625 75.984375 
L 18.40625 64.59375 
L 9.421875 64.59375 
z
" id="DejaVuSans-105"/>
      <path d="M 32.171875 -5.078125 
Q 28.375 -14.84375 24.75 -17.8125 
Q 21.140625 -20.796875 15.09375 -20.796875 
L 7.90625 -20.796875 
L 7.90625 -13.28125 
L 13.1875 -13.28125 
Q 16.890625 -13.28125 18.9375 -11.515625 
Q 21 -9.765625 23.484375 -3.21875 
L 25.09375 0.875 
L 2.984375 54.6875 
L 12.5 54.6875 
L 29.59375 11.921875 
L 46.6875 54.6875 
L 56.203125 54.6875 
z
" id="DejaVuSans-121"/>
     </defs>
     <use xlink:href="#DejaVuSans-79"/>
     <use x="78.710938" xlink:href="#DejaVuSans-114"/>
     <use x="118.074219" xlink:href="#DejaVuSans-100"/>
     <use x="181.550781" xlink:href="#DejaVuSans-101"/>
     <use x="243.074219" xlink:href="#DejaVuSans-114"/>
     <use x="284.1875" xlink:href="#DejaVuSans-115"/>
     <use x="336.287109" xlink:href="#DejaVuSans-32"/>
     <use x="368.074219" xlink:href="#DejaVuSans-118"/>
     <use x="427.253906" xlink:href="#DejaVuSans-97"/>
     <use x="488.533203" xlink:href="#DejaVuSans-108"/>
     <use x="516.316406" xlink:href="#DejaVuSans-117"/>
     <use x="579.695312" xlink:href="#DejaVuSans-101"/>
     <use x="641.21875" xlink:href="#DejaVuSans-32"/>
     <use x="673.005859" xlink:href="#DejaVuSans-100"/>
     <use x="736.482422" xlink:href="#DejaVuSans-97"/>
     <use x="797.761719" xlink:href="#DejaVuSans-105"/>
     <use x="825.544922" xlink:href="#DejaVuSans-108"/>
     <use x="853.328125" xlink:href="#DejaVuSans-121"/>
    </g>
   </g>
   <g id="legend_1">
    <g id="patch_7">
     <path d="M 1559.632812 103.874375 
L 1613 103.874375 
Q 1615 103.874375 1615 101.874375 
L 1615 58.84 
Q 1615 56.84 1613 56.84 
L 1559.632812 56.84 
Q 1557.632812 56.84 1557.632812 58.84 
L 1557.632812 101.874375 
Q 1557.632812 103.874375 1559.632812 103.874375 
z
" style="fill:#ffffff;opacity:0.8;stroke:#cccccc;stroke-linejoin:miter;"/>
    </g>
    <g id="text_19">
     <!-- Currency -->
     <g transform="translate(1563.791406 68.438437)scale(0.1 -0.1)">
      <defs>
       <path d="M 64.40625 67.28125 
L 64.40625 56.890625 
Q 59.421875 61.53125 53.78125 63.8125 
Q 48.140625 66.109375 41.796875 66.109375 
Q 29.296875 66.109375 22.65625 58.46875 
Q 16.015625 50.828125 16.015625 36.375 
Q 16.015625 21.96875 22.65625 14.328125 
Q 29.296875 6.6875 41.796875 6.6875 
Q 48.140625 6.6875 53.78125 8.984375 
Q 59.421875 11.28125 64.40625 15.921875 
L 64.40625 5.609375 
Q 59.234375 2.09375 53.4375 0.328125 
Q 47.65625 -1.421875 41.21875 -1.421875 
Q 24.65625 -1.421875 15.125 8.703125 
Q 5.609375 18.84375 5.609375 36.375 
Q 5.609375 53.953125 15.125 64.078125 
Q 24.65625 74.21875 41.21875 74.21875 
Q 47.75 74.21875 53.53125 72.484375 
Q 59.328125 70.75 64.40625 67.28125 
z
" id="DejaVuSans-67"/>
       <path d="M 54.890625 33.015625 
L 54.890625 0 
L 45.90625 0 
L 45.90625 32.71875 
Q 45.90625 40.484375 42.875 44.328125 
Q 39.84375 48.1875 33.796875 48.1875 
Q 26.515625 48.1875 22.3125 43.546875 
Q 18.109375 38.921875 18.109375 30.90625 
L 18.109375 0 
L 9.078125 0 
L 9.078125 54.6875 
L 18.109375 54.6875 
L 18.109375 46.1875 
Q 21.34375 51.125 25.703125 53.5625 
Q 30.078125 56 35.796875 56 
Q 45.21875 56 50.046875 50.171875 
Q 54.890625 44.34375 54.890625 33.015625 
z
" id="DejaVuSans-110"/>
       <path d="M 48.78125 52.59375 
L 48.78125 44.1875 
Q 44.96875 46.296875 41.140625 47.34375 
Q 37.3125 48.390625 33.40625 48.390625 
Q 24.65625 48.390625 19.8125 42.84375 
Q 14.984375 37.3125 14.984375 27.296875 
Q 14.984375 17.28125 19.8125 11.734375 
Q 24.65625 6.203125 33.40625 6.203125 
Q 37.3125 6.203125 41.140625 7.25 
Q 44.96875 8.296875 48.78125 10.40625 
L 48.78125 2.09375 
Q 45.015625 0.34375 40.984375 -0.53125 
Q 36.96875 -1.421875 32.421875 -1.421875 
Q 20.0625 -1.421875 12.78125 6.34375 
Q 5.515625 14.109375 5.515625 27.296875 
Q 5.515625 40.671875 12.859375 48.328125 
Q 20.21875 56 33.015625 56 
Q 37.15625 56 41.109375 55.140625 
Q 45.0625 54.296875 48.78125 52.59375 
z
" id="DejaVuSans-99"/>
      </defs>
      <use xlink:href="#DejaVuSans-67"/>
      <use x="69.824219" xlink:href="#DejaVuSans-117"/>
      <use x="133.203125" xlink:href="#DejaVuSans-114"/>
      <use x="172.566406" xlink:href="#DejaVuSans-114"/>
      <use x="211.429688" xlink:href="#DejaVuSans-101"/>
      <use x="272.953125" xlink:href="#DejaVuSans-110"/>
      <use x="336.332031" xlink:href="#DejaVuSans-99"/>
      <use x="391.3125" xlink:href="#DejaVuSans-121"/>
     </g>
    </g>
    <g id="line2d_17">
     <path d="M 1561.632812 79.616562 
L 1581.632812 79.616562 
" style="fill:none;stroke:#1f77b4;stroke-linecap:square;stroke-width:1.5;"/>
    </g>
    <g id="line2d_18"/>
    <g id="text_20">
     <!-- USD -->
     <g transform="translate(1589.632812 83.116562)scale(0.1 -0.1)">
      <defs>
       <path d="M 8.6875 72.90625 
L 18.609375 72.90625 
L 18.609375 28.609375 
Q 18.609375 16.890625 22.84375 11.734375 
Q 27.09375 6.59375 36.625 6.59375 
Q 46.09375 6.59375 50.34375 11.734375 
Q 54.59375 16.890625 54.59375 28.609375 
L 54.59375 72.90625 
L 64.5 72.90625 
L 64.5 27.390625 
Q 64.5 13.140625 57.4375 5.859375 
Q 50.390625 -1.421875 36.625 -1.421875 
Q 22.796875 -1.421875 15.734375 5.859375 
Q 8.6875 13.140625 8.6875 27.390625 
z
" id="DejaVuSans-85"/>
       <path d="M 53.515625 70.515625 
L 53.515625 60.890625 
Q 47.90625 63.578125 42.921875 64.890625 
Q 37.9375 66.21875 33.296875 66.21875 
Q 25.25 66.21875 20.875 63.09375 
Q 16.5 59.96875 16.5 54.203125 
Q 16.5 49.359375 19.40625 46.890625 
Q 22.3125 44.4375 30.421875 42.921875 
L 36.375 41.703125 
Q 47.40625 39.59375 52.65625 34.296875 
Q 57.90625 29 57.90625 20.125 
Q 57.90625 9.515625 50.796875 4.046875 
Q 43.703125 -1.421875 29.984375 -1.421875 
Q 24.8125 -1.421875 18.96875 -0.25 
Q 13.140625 0.921875 6.890625 3.21875 
L 6.890625 13.375 
Q 12.890625 10.015625 18.65625 8.296875 
Q 24.421875 6.59375 29.984375 6.59375 
Q 38.421875 6.59375 43.015625 9.90625 
Q 47.609375 13.234375 47.609375 19.390625 
Q 47.609375 24.75 44.3125 27.78125 
Q 41.015625 30.8125 33.5 32.328125 
L 27.484375 33.5 
Q 16.453125 35.6875 11.515625 40.375 
Q 6.59375 45.0625 6.59375 53.421875 
Q 6.59375 63.09375 13.40625 68.65625 
Q 20.21875 74.21875 32.171875 74.21875 
Q 37.3125 74.21875 42.625 73.28125 
Q 47.953125 72.359375 53.515625 70.515625 
z
" id="DejaVuSans-83"/>
      </defs>
      <use xlink:href="#DejaVuSans-85"/>
      <use x="73.193359" xlink:href="#DejaVuSans-83"/>
      <use x="136.669922" xlink:href="#DejaVuSans-68"/>
     </g>
    </g>
    <g id="line2d_19">
     <path d="M 1561.632812 94.294688 
L 1581.632812 94.294688 
" style="fill:none;stroke:#ff7f0e;stroke-linecap:square;stroke-width:1.5;"/>
    </g>
    <g id="line2d_20"/>
    <g id="text_21">
     <!-- PLN -->
     <g transform="translate(1589.632812 97.794688)scale(0.1 -0.1)">
      <defs>
       <path d="M 19.671875 64.796875 
L 19.671875 37.40625 
L 32.078125 37.40625 
Q 38.96875 37.40625 42.71875 40.96875 
Q 46.484375 44.53125 46.484375 51.125 
Q 46.484375 57.671875 42.71875 61.234375 
Q 38.96875 64.796875 32.078125 64.796875 
z
M 9.8125 72.90625 
L 32.078125 72.90625 
Q 44.34375 72.90625 50.609375 67.359375 
Q 56.890625 61.8125 56.890625 51.125 
Q 56.890625 40.328125 50.609375 34.8125 
Q 44.34375 29.296875 32.078125 29.296875 
L 19.671875 29.296875 
L 19.671875 0 
L 9.8125 0 
z
" id="DejaVuSans-80"/>
       <path d="M 9.8125 72.90625 
L 19.671875 72.90625 
L 19.671875 8.296875 
L 55.171875 8.296875 
L 55.171875 0 
L 9.8125 0 
z
" id="DejaVuSans-76"/>
       <path d="M 9.8125 72.90625 
L 23.09375 72.90625 
L 55.421875 11.921875 
L 55.421875 72.90625 
L 64.984375 72.90625 
L 64.984375 0 
L 51.703125 0 
L 19.390625 60.984375 
L 19.390625 0 
L 9.8125 0 
z
" id="DejaVuSans-78"/>
      </defs>
      <use xlink:href="#DejaVuSans-80"/>
      <use x="60.302734" xlink:href="#DejaVuSans-76"/>
      <use x="116.015625" xlink:href="#DejaVuSans-78"/>
     </g>
    </g>
   </g>
  </g>
 </g>
 <defs>
  <clipPath id="pcfcf8aac57">
   <rect height="293.76" width="1395" x="225" y="51.84"/>
  </clipPath>
 </defs>
</svg>
