<?xml version="1.0" encoding="utf-8" standalone="no"?>
<!DOCTYPE svg PUBLIC "-//W3C//DTD SVG 1.1//EN"
  "http://www.w3.org/Graphics/SVG/1.1/DTD/svg11.dtd">
<!-- Created with matplotlib (https://matplotlib.org/) -->
<svg height="360pt" version="1.1" viewBox="0 0 720 360" width="720pt" xmlns="http://www.w3.org/2000/svg" xmlns:xlink="http://www.w3.org/1999/xlink">
 <metadata>
  <rdf:RDF xmlns:cc="http://creativecommons.org/ns#" xmlns:dc="http://purl.org/dc/elements/1.1/" xmlns:rdf="http://www.w3.org/1999/02/22-rdf-syntax-ns#">
   <cc:Work>
    <dc:type rdf:resource="http://purl.org/dc/dcmitype/StillImage"/>
    <dc:date>2020-11-19T21:49:10.901986</dc:date>
    <dc:format>image/svg+xml</dc:format>
    <dc:creator>
     <cc:Agent>
      <dc:title>Matplotlib v3.3.3, https://matplotlib.org/</dc:title>
     </cc:Agent>
    </dc:creator>
   </cc:Work>
  </rdf:RDF>
 </metadata>
 <defs>
  <style type="text/css">*{stroke-linecap:butt;stroke-linejoin:round;}</style>
 </defs>
 <g id="figure_1">
  <g id="patch_1">
   <path d="M 0 360 
L 720 360 
L 720 0 
L 0 0 
z
" style="fill:#ffffff;"/>
  </g>
  <g id="axes_1">
   <g id="patch_2">
    <path d="M 69.77 290.500464 
L 709.2 290.500464 
L 709.2 26.88 
L 69.77 26.88 
z
" style="fill:#ffffff;"/>
   </g>
   <g id="matplotlib.axis_1">
    <g id="xtick_1">
     <g id="line2d_1">
      <defs>
       <path d="M 0 0 
L 0 3.5 
" id="m085007535f" style="stroke:#000000;stroke-width:0.8;"/>
      </defs>
      <g>
       <use style="stroke:#000000;stroke-width:0.8;" x="69.77" xlink:href="#m085007535f" y="290.500464"/>
      </g>
     </g>
     <g id="text_1">
      <!-- 2016-01-01 -->
      <g transform="translate(18.400549 333.138716)rotate(-30)scale(0.1 -0.1)">
       <defs>
        <path d="M 19.1875 8.296875 
L 53.609375 8.296875 
L 53.609375 0 
L 7.328125 0 
L 7.328125 8.296875 
Q 12.9375 14.109375 22.625 23.890625 
Q 32.328125 33.6875 34.8125 36.53125 
Q 39.546875 41.84375 41.421875 45.53125 
Q 43.3125 49.21875 43.3125 52.78125 
Q 43.3125 58.59375 39.234375 62.25 
Q 35.15625 65.921875 28.609375 65.921875 
Q 23.96875 65.921875 18.8125 64.3125 
Q 13.671875 62.703125 7.8125 59.421875 
L 7.8125 69.390625 
Q 13.765625 71.78125 18.9375 73 
Q 24.125 74.21875 28.421875 74.21875 
Q 39.75 74.21875 46.484375 68.546875 
Q 53.21875 62.890625 53.21875 53.421875 
Q 53.21875 48.921875 51.53125 44.890625 
Q 49.859375 40.875 45.40625 35.40625 
Q 44.1875 33.984375 37.640625 27.21875 
Q 31.109375 20.453125 19.1875 8.296875 
z
" id="DejaVuSans-50"/>
        <path d="M 31.78125 66.40625 
Q 24.171875 66.40625 20.328125 58.90625 
Q 16.5 51.421875 16.5 36.375 
Q 16.5 21.390625 20.328125 13.890625 
Q 24.171875 6.390625 31.78125 6.390625 
Q 39.453125 6.390625 43.28125 13.890625 
Q 47.125 21.390625 47.125 36.375 
Q 47.125 51.421875 43.28125 58.90625 
Q 39.453125 66.40625 31.78125 66.40625 
z
M 31.78125 74.21875 
Q 44.046875 74.21875 50.515625 64.515625 
Q 56.984375 54.828125 56.984375 36.375 
Q 56.984375 17.96875 50.515625 8.265625 
Q 44.046875 -1.421875 31.78125 -1.421875 
Q 19.53125 -1.421875 13.0625 8.265625 
Q 6.59375 17.96875 6.59375 36.375 
Q 6.59375 54.828125 13.0625 64.515625 
Q 19.53125 74.21875 31.78125 74.21875 
z
" id="DejaVuSans-48"/>
        <path d="M 12.40625 8.296875 
L 28.515625 8.296875 
L 28.515625 63.921875 
L 10.984375 60.40625 
L 10.984375 69.390625 
L 28.421875 72.90625 
L 38.28125 72.90625 
L 38.28125 8.296875 
L 54.390625 8.296875 
L 54.390625 0 
L 12.40625 0 
z
" id="DejaVuSans-49"/>
        <path d="M 33.015625 40.375 
Q 26.375 40.375 22.484375 35.828125 
Q 18.609375 31.296875 18.609375 23.390625 
Q 18.609375 15.53125 22.484375 10.953125 
Q 26.375 6.390625 33.015625 6.390625 
Q 39.65625 6.390625 43.53125 10.953125 
Q 47.40625 15.53125 47.40625 23.390625 
Q 47.40625 31.296875 43.53125 35.828125 
Q 39.65625 40.375 33.015625 40.375 
z
M 52.59375 71.296875 
L 52.59375 62.3125 
Q 48.875 64.0625 45.09375 64.984375 
Q 41.3125 65.921875 37.59375 65.921875 
Q 27.828125 65.921875 22.671875 59.328125 
Q 17.53125 52.734375 16.796875 39.40625 
Q 19.671875 43.65625 24.015625 45.921875 
Q 28.375 48.1875 33.59375 48.1875 
Q 44.578125 48.1875 50.953125 41.515625 
Q 57.328125 34.859375 57.328125 23.390625 
Q 57.328125 12.15625 50.6875 5.359375 
Q 44.046875 -1.421875 33.015625 -1.421875 
Q 20.359375 -1.421875 13.671875 8.265625 
Q 6.984375 17.96875 6.984375 36.375 
Q 6.984375 53.65625 15.1875 63.9375 
Q 23.390625 74.21875 37.203125 74.21875 
Q 40.921875 74.21875 44.703125 73.484375 
Q 48.484375 72.75 52.59375 71.296875 
z
" id="DejaVuSans-54"/>
        <path d="M 4.890625 31.390625 
L 31.203125 31.390625 
L 31.203125 23.390625 
L 4.890625 23.390625 
z
" id="DejaVuSans-45"/>
       </defs>
       <use xlink:href="#DejaVuSans-50"/>
       <use x="63.623047" xlink:href="#DejaVuSans-48"/>
       <use x="127.246094" xlink:href="#DejaVuSans-49"/>
       <use x="190.869141" xlink:href="#DejaVuSans-54"/>
       <use x="254.492188" xlink:href="#DejaVuSans-45"/>
       <use x="290.576172" xlink:href="#DejaVuSans-48"/>
       <use x="354.199219" xlink:href="#DejaVuSans-49"/>
       <use x="417.822266" xlink:href="#DejaVuSans-45"/>
       <use x="453.90625" xlink:href="#DejaVuSans-48"/>
       <use x="517.529297" xlink:href="#DejaVuSans-49"/>
      </g>
     </g>
    </g>
    <g id="xtick_2">
     <g id="line2d_2">
      <g>
       <use style="stroke:#000000;stroke-width:0.8;" x="149.370725" xlink:href="#m085007535f" y="290.500464"/>
      </g>
     </g>
     <g id="text_2">
      <!-- 2016-04-01 -->
      <g transform="translate(98.001274 333.138716)rotate(-30)scale(0.1 -0.1)">
       <defs>
        <path d="M 37.796875 64.3125 
L 12.890625 25.390625 
L 37.796875 25.390625 
z
M 35.203125 72.90625 
L 47.609375 72.90625 
L 47.609375 25.390625 
L 58.015625 25.390625 
L 58.015625 17.1875 
L 47.609375 17.1875 
L 47.609375 0 
L 37.796875 0 
L 37.796875 17.1875 
L 4.890625 17.1875 
L 4.890625 26.703125 
z
" id="DejaVuSans-52"/>
       </defs>
       <use xlink:href="#DejaVuSans-50"/>
       <use x="63.623047" xlink:href="#DejaVuSans-48"/>
       <use x="127.246094" xlink:href="#DejaVuSans-49"/>
       <use x="190.869141" xlink:href="#DejaVuSans-54"/>
       <use x="254.492188" xlink:href="#DejaVuSans-45"/>
       <use x="290.576172" xlink:href="#DejaVuSans-48"/>
       <use x="354.199219" xlink:href="#DejaVuSans-52"/>
       <use x="417.822266" xlink:href="#DejaVuSans-45"/>
       <use x="453.90625" xlink:href="#DejaVuSans-48"/>
       <use x="517.529297" xlink:href="#DejaVuSans-49"/>
      </g>
     </g>
    </g>
    <g id="xtick_3">
     <g id="line2d_3">
      <g>
       <use style="stroke:#000000;stroke-width:0.8;" x="228.97145" xlink:href="#m085007535f" y="290.500464"/>
      </g>
     </g>
     <g id="text_3">
      <!-- 2016-07-01 -->
      <g transform="translate(177.601999 333.138716)rotate(-30)scale(0.1 -0.1)">
       <defs>
        <path d="M 8.203125 72.90625 
L 55.078125 72.90625 
L 55.078125 68.703125 
L 28.609375 0 
L 18.3125 0 
L 43.21875 64.59375 
L 8.203125 64.59375 
z
" id="DejaVuSans-55"/>
       </defs>
       <use xlink:href="#DejaVuSans-50"/>
       <use x="63.623047" xlink:href="#DejaVuSans-48"/>
       <use x="127.246094" xlink:href="#DejaVuSans-49"/>
       <use x="190.869141" xlink:href="#DejaVuSans-54"/>
       <use x="254.492188" xlink:href="#DejaVuSans-45"/>
       <use x="290.576172" xlink:href="#DejaVuSans-48"/>
       <use x="354.199219" xlink:href="#DejaVuSans-55"/>
       <use x="417.822266" xlink:href="#DejaVuSans-45"/>
       <use x="453.90625" xlink:href="#DejaVuSans-48"/>
       <use x="517.529297" xlink:href="#DejaVuSans-49"/>
      </g>
     </g>
    </g>
    <g id="xtick_4">
     <g id="line2d_4">
      <g>
       <use style="stroke:#000000;stroke-width:0.8;" x="309.446908" xlink:href="#m085007535f" y="290.500464"/>
      </g>
     </g>
     <g id="text_4">
      <!-- 2016-10-01 -->
      <g transform="translate(258.077457 333.138716)rotate(-30)scale(0.1 -0.1)">
       <use xlink:href="#DejaVuSans-50"/>
       <use x="63.623047" xlink:href="#DejaVuSans-48"/>
       <use x="127.246094" xlink:href="#DejaVuSans-49"/>
       <use x="190.869141" xlink:href="#DejaVuSans-54"/>
       <use x="254.492188" xlink:href="#DejaVuSans-45"/>
       <use x="290.576172" xlink:href="#DejaVuSans-49"/>
       <use x="354.199219" xlink:href="#DejaVuSans-48"/>
       <use x="417.822266" xlink:href="#DejaVuSans-45"/>
       <use x="453.90625" xlink:href="#DejaVuSans-48"/>
       <use x="517.529297" xlink:href="#DejaVuSans-49"/>
      </g>
     </g>
    </g>
    <g id="xtick_5">
     <g id="line2d_5">
      <g>
       <use style="stroke:#000000;stroke-width:0.8;" x="389.922367" xlink:href="#m085007535f" y="290.500464"/>
      </g>
     </g>
     <g id="text_5">
      <!-- 2017-01-01 -->
      <g transform="translate(338.552915 333.138716)rotate(-30)scale(0.1 -0.1)">
       <use xlink:href="#DejaVuSans-50"/>
       <use x="63.623047" xlink:href="#DejaVuSans-48"/>
       <use x="127.246094" xlink:href="#DejaVuSans-49"/>
       <use x="190.869141" xlink:href="#DejaVuSans-55"/>
       <use x="254.492188" xlink:href="#DejaVuSans-45"/>
       <use x="290.576172" xlink:href="#DejaVuSans-48"/>
       <use x="354.199219" xlink:href="#DejaVuSans-49"/>
       <use x="417.822266" xlink:href="#DejaVuSans-45"/>
       <use x="453.90625" xlink:href="#DejaVuSans-48"/>
       <use x="517.529297" xlink:href="#DejaVuSans-49"/>
      </g>
     </g>
    </g>
    <g id="xtick_6">
     <g id="line2d_6">
      <g>
       <use style="stroke:#000000;stroke-width:0.8;" x="468.648358" xlink:href="#m085007535f" y="290.500464"/>
      </g>
     </g>
     <g id="text_6">
      <!-- 2017-04-01 -->
      <g transform="translate(417.278907 333.138716)rotate(-30)scale(0.1 -0.1)">
       <use xlink:href="#DejaVuSans-50"/>
       <use x="63.623047" xlink:href="#DejaVuSans-48"/>
       <use x="127.246094" xlink:href="#DejaVuSans-49"/>
       <use x="190.869141" xlink:href="#DejaVuSans-55"/>
       <use x="254.492188" xlink:href="#DejaVuSans-45"/>
       <use x="290.576172" xlink:href="#DejaVuSans-48"/>
       <use x="354.199219" xlink:href="#DejaVuSans-52"/>
       <use x="417.822266" xlink:href="#DejaVuSans-45"/>
       <use x="453.90625" xlink:href="#DejaVuSans-48"/>
       <use x="517.529297" xlink:href="#DejaVuSans-49"/>
      </g>
     </g>
    </g>
    <g id="xtick_7">
     <g id="line2d_7">
      <g>
       <use style="stroke:#000000;stroke-width:0.8;" x="548.249083" xlink:href="#m085007535f" y="290.500464"/>
      </g>
     </g>
     <g id="text_7">
      <!-- 2017-07-01 -->
      <g transform="translate(496.879632 333.138716)rotate(-30)scale(0.1 -0.1)">
       <use xlink:href="#DejaVuSans-50"/>
       <use x="63.623047" xlink:href="#DejaVuSans-48"/>
       <use x="127.246094" xlink:href="#DejaVuSans-49"/>
       <use x="190.869141" xlink:href="#DejaVuSans-55"/>
       <use x="254.492188" xlink:href="#DejaVuSans-45"/>
       <use x="290.576172" xlink:href="#DejaVuSans-48"/>
       <use x="354.199219" xlink:href="#DejaVuSans-55"/>
       <use x="417.822266" xlink:href="#DejaVuSans-45"/>
       <use x="453.90625" xlink:href="#DejaVuSans-48"/>
       <use x="517.529297" xlink:href="#DejaVuSans-49"/>
      </g>
     </g>
    </g>
    <g id="xtick_8">
     <g id="line2d_8">
      <g>
       <use style="stroke:#000000;stroke-width:0.8;" x="628.724542" xlink:href="#m085007535f" y="290.500464"/>
      </g>
     </g>
     <g id="text_8">
      <!-- 2017-10-01 -->
      <g transform="translate(577.35509 333.138716)rotate(-30)scale(0.1 -0.1)">
       <use xlink:href="#DejaVuSans-50"/>
       <use x="63.623047" xlink:href="#DejaVuSans-48"/>
       <use x="127.246094" xlink:href="#DejaVuSans-49"/>
       <use x="190.869141" xlink:href="#DejaVuSans-55"/>
       <use x="254.492188" xlink:href="#DejaVuSans-45"/>
       <use x="290.576172" xlink:href="#DejaVuSans-49"/>
       <use x="354.199219" xlink:href="#DejaVuSans-48"/>
       <use x="417.822266" xlink:href="#DejaVuSans-45"/>
       <use x="453.90625" xlink:href="#DejaVuSans-48"/>
       <use x="517.529297" xlink:href="#DejaVuSans-49"/>
      </g>
     </g>
    </g>
    <g id="xtick_9">
     <g id="line2d_9">
      <g>
       <use style="stroke:#000000;stroke-width:0.8;" x="709.2" xlink:href="#m085007535f" y="290.500464"/>
      </g>
     </g>
     <g id="text_9">
      <!-- 2018-01-01 -->
      <g transform="translate(657.830549 333.138716)rotate(-30)scale(0.1 -0.1)">
       <defs>
        <path d="M 31.78125 34.625 
Q 24.75 34.625 20.71875 30.859375 
Q 16.703125 27.09375 16.703125 20.515625 
Q 16.703125 13.921875 20.71875 10.15625 
Q 24.75 6.390625 31.78125 6.390625 
Q 38.8125 6.390625 42.859375 10.171875 
Q 46.921875 13.96875 46.921875 20.515625 
Q 46.921875 27.09375 42.890625 30.859375 
Q 38.875 34.625 31.78125 34.625 
z
M 21.921875 38.8125 
Q 15.578125 40.375 12.03125 44.71875 
Q 8.5 49.078125 8.5 55.328125 
Q 8.5 64.0625 14.71875 69.140625 
Q 20.953125 74.21875 31.78125 74.21875 
Q 42.671875 74.21875 48.875 69.140625 
Q 55.078125 64.0625 55.078125 55.328125 
Q 55.078125 49.078125 51.53125 44.71875 
Q 48 40.375 41.703125 38.8125 
Q 48.828125 37.15625 52.796875 32.3125 
Q 56.78125 27.484375 56.78125 20.515625 
Q 56.78125 9.90625 50.3125 4.234375 
Q 43.84375 -1.421875 31.78125 -1.421875 
Q 19.734375 -1.421875 13.25 4.234375 
Q 6.78125 9.90625 6.78125 20.515625 
Q 6.78125 27.484375 10.78125 32.3125 
Q 14.796875 37.15625 21.921875 38.8125 
z
M 18.3125 54.390625 
Q 18.3125 48.734375 21.84375 45.5625 
Q 25.390625 42.390625 31.78125 42.390625 
Q 38.140625 42.390625 41.71875 45.5625 
Q 45.3125 48.734375 45.3125 54.390625 
Q 45.3125 60.0625 41.71875 63.234375 
Q 38.140625 66.40625 31.78125 66.40625 
Q 25.390625 66.40625 21.84375 63.234375 
Q 18.3125 60.0625 18.3125 54.390625 
z
" id="DejaVuSans-56"/>
       </defs>
       <use xlink:href="#DejaVuSans-50"/>
       <use x="63.623047" xlink:href="#DejaVuSans-48"/>
       <use x="127.246094" xlink:href="#DejaVuSans-49"/>
       <use x="190.869141" xlink:href="#DejaVuSans-56"/>
       <use x="254.492188" xlink:href="#DejaVuSans-45"/>
       <use x="290.576172" xlink:href="#DejaVuSans-48"/>
       <use x="354.199219" xlink:href="#DejaVuSans-49"/>
       <use x="417.822266" xlink:href="#DejaVuSans-45"/>
       <use x="453.90625" xlink:href="#DejaVuSans-48"/>
       <use x="517.529297" xlink:href="#DejaVuSans-49"/>
      </g>
     </g>
    </g>
    <g id="text_10">
     <!-- Date [YYYY-MM-DD] -->
     <g transform="translate(340.485781 346.538216)scale(0.1 -0.1)">
      <defs>
       <path d="M 19.671875 64.796875 
L 19.671875 8.109375 
L 31.59375 8.109375 
Q 46.6875 8.109375 53.6875 14.9375 
Q 60.6875 21.78125 60.6875 36.53125 
Q 60.6875 51.171875 53.6875 57.984375 
Q 46.6875 64.796875 31.59375 64.796875 
z
M 9.8125 72.90625 
L 30.078125 72.90625 
Q 51.265625 72.90625 61.171875 64.09375 
Q 71.09375 55.28125 71.09375 36.53125 
Q 71.09375 17.671875 61.125 8.828125 
Q 51.171875 0 30.078125 0 
L 9.8125 0 
z
" id="DejaVuSans-68"/>
       <path d="M 34.28125 27.484375 
Q 23.390625 27.484375 19.1875 25 
Q 14.984375 22.515625 14.984375 16.5 
Q 14.984375 11.71875 18.140625 8.90625 
Q 21.296875 6.109375 26.703125 6.109375 
Q 34.1875 6.109375 38.703125 11.40625 
Q 43.21875 16.703125 43.21875 25.484375 
L 43.21875 27.484375 
z
M 52.203125 31.203125 
L 52.203125 0 
L 43.21875 0 
L 43.21875 8.296875 
Q 40.140625 3.328125 35.546875 0.953125 
Q 30.953125 -1.421875 24.3125 -1.421875 
Q 15.921875 -1.421875 10.953125 3.296875 
Q 6 8.015625 6 15.921875 
Q 6 25.140625 12.171875 29.828125 
Q 18.359375 34.515625 30.609375 34.515625 
L 43.21875 34.515625 
L 43.21875 35.40625 
Q 43.21875 41.609375 39.140625 45 
Q 35.0625 48.390625 27.6875 48.390625 
Q 23 48.390625 18.546875 47.265625 
Q 14.109375 46.140625 10.015625 43.890625 
L 10.015625 52.203125 
Q 14.9375 54.109375 19.578125 55.046875 
Q 24.21875 56 28.609375 56 
Q 40.484375 56 46.34375 49.84375 
Q 52.203125 43.703125 52.203125 31.203125 
z
" id="DejaVuSans-97"/>
       <path d="M 18.3125 70.21875 
L 18.3125 54.6875 
L 36.8125 54.6875 
L 36.8125 47.703125 
L 18.3125 47.703125 
L 18.3125 18.015625 
Q 18.3125 11.328125 20.140625 9.421875 
Q 21.96875 7.515625 27.59375 7.515625 
L 36.8125 7.515625 
L 36.8125 0 
L 27.59375 0 
Q 17.1875 0 13.234375 3.875 
Q 9.28125 7.765625 9.28125 18.015625 
L 9.28125 47.703125 
L 2.6875 47.703125 
L 2.6875 54.6875 
L 9.28125 54.6875 
L 9.28125 70.21875 
z
" id="DejaVuSans-116"/>
       <path d="M 56.203125 29.59375 
L 56.203125 25.203125 
L 14.890625 25.203125 
Q 15.484375 15.921875 20.484375 11.0625 
Q 25.484375 6.203125 34.421875 6.203125 
Q 39.59375 6.203125 44.453125 7.46875 
Q 49.3125 8.734375 54.109375 11.28125 
L 54.109375 2.78125 
Q 49.265625 0.734375 44.1875 -0.34375 
Q 39.109375 -1.421875 33.890625 -1.421875 
Q 20.796875 -1.421875 13.15625 6.1875 
Q 5.515625 13.8125 5.515625 26.8125 
Q 5.515625 40.234375 12.765625 48.109375 
Q 20.015625 56 32.328125 56 
Q 43.359375 56 49.78125 48.890625 
Q 56.203125 41.796875 56.203125 29.59375 
z
M 47.21875 32.234375 
Q 47.125 39.59375 43.09375 43.984375 
Q 39.0625 48.390625 32.421875 48.390625 
Q 24.90625 48.390625 20.390625 44.140625 
Q 15.875 39.890625 15.1875 32.171875 
z
" id="DejaVuSans-101"/>
       <path id="DejaVuSans-32"/>
       <path d="M 8.59375 75.984375 
L 29.296875 75.984375 
L 29.296875 69 
L 17.578125 69 
L 17.578125 -6.203125 
L 29.296875 -6.203125 
L 29.296875 -13.1875 
L 8.59375 -13.1875 
z
" id="DejaVuSans-91"/>
       <path d="M -0.203125 72.90625 
L 10.40625 72.90625 
L 30.609375 42.921875 
L 50.6875 72.90625 
L 61.28125 72.90625 
L 35.5 34.71875 
L 35.5 0 
L 25.59375 0 
L 25.59375 34.71875 
z
" id="DejaVuSans-89"/>
       <path d="M 9.8125 72.90625 
L 24.515625 72.90625 
L 43.109375 23.296875 
L 61.8125 72.90625 
L 76.515625 72.90625 
L 76.515625 0 
L 66.890625 0 
L 66.890625 64.015625 
L 48.09375 14.015625 
L 38.1875 14.015625 
L 19.390625 64.015625 
L 19.390625 0 
L 9.8125 0 
z
" id="DejaVuSans-77"/>
       <path d="M 30.421875 75.984375 
L 30.421875 -13.1875 
L 9.71875 -13.1875 
L 9.71875 -6.203125 
L 21.390625 -6.203125 
L 21.390625 69 
L 9.71875 69 
L 9.71875 75.984375 
z
" id="DejaVuSans-93"/>
      </defs>
      <use xlink:href="#DejaVuSans-68"/>
      <use x="77.001953" xlink:href="#DejaVuSans-97"/>
      <use x="138.28125" xlink:href="#DejaVuSans-116"/>
      <use x="177.490234" xlink:href="#DejaVuSans-101"/>
      <use x="239.013672" xlink:href="#DejaVuSans-32"/>
      <use x="270.800781" xlink:href="#DejaVuSans-91"/>
      <use x="309.814453" xlink:href="#DejaVuSans-89"/>
      <use x="370.898438" xlink:href="#DejaVuSans-89"/>
      <use x="431.982422" xlink:href="#DejaVuSans-89"/>
      <use x="493.066406" xlink:href="#DejaVuSans-89"/>
      <use x="542.275391" xlink:href="#DejaVuSans-45"/>
      <use x="578.359375" xlink:href="#DejaVuSans-77"/>
      <use x="664.638672" xlink:href="#DejaVuSans-77"/>
      <use x="750.917969" xlink:href="#DejaVuSans-45"/>
      <use x="787.001953" xlink:href="#DejaVuSans-68"/>
      <use x="864.003906" xlink:href="#DejaVuSans-68"/>
      <use x="941.005859" xlink:href="#DejaVuSans-93"/>
     </g>
    </g>
   </g>
   <g id="matplotlib.axis_2">
    <g id="ytick_1">
     <g id="line2d_10">
      <defs>
       <path d="M 0 0 
L -3.5 0 
" id="mbbbd9d035a" style="stroke:#000000;stroke-width:0.8;"/>
      </defs>
      <g>
       <use style="stroke:#000000;stroke-width:0.8;" x="69.77" xlink:href="#mbbbd9d035a" y="278.766211"/>
      </g>
     </g>
     <g id="text_11">
      <!-- 0 -->
      <g transform="translate(56.4075 282.56543)scale(0.1 -0.1)">
       <use xlink:href="#DejaVuSans-48"/>
      </g>
     </g>
    </g>
    <g id="ytick_2">
     <g id="line2d_11">
      <g>
       <use style="stroke:#000000;stroke-width:0.8;" x="69.77" xlink:href="#mbbbd9d035a" y="242.434328"/>
      </g>
     </g>
     <g id="text_12">
      <!-- 25000 -->
      <g transform="translate(30.9575 246.233546)scale(0.1 -0.1)">
       <defs>
        <path d="M 10.796875 72.90625 
L 49.515625 72.90625 
L 49.515625 64.59375 
L 19.828125 64.59375 
L 19.828125 46.734375 
Q 21.96875 47.46875 24.109375 47.828125 
Q 26.265625 48.1875 28.421875 48.1875 
Q 40.625 48.1875 47.75 41.5 
Q 54.890625 34.8125 54.890625 23.390625 
Q 54.890625 11.625 47.5625 5.09375 
Q 40.234375 -1.421875 26.90625 -1.421875 
Q 22.3125 -1.421875 17.546875 -0.640625 
Q 12.796875 0.140625 7.71875 1.703125 
L 7.71875 11.625 
Q 12.109375 9.234375 16.796875 8.0625 
Q 21.484375 6.890625 26.703125 6.890625 
Q 35.15625 6.890625 40.078125 11.328125 
Q 45.015625 15.765625 45.015625 23.390625 
Q 45.015625 31 40.078125 35.4375 
Q 35.15625 39.890625 26.703125 39.890625 
Q 22.75 39.890625 18.8125 39.015625 
Q 14.890625 38.140625 10.796875 36.28125 
z
" id="DejaVuSans-53"/>
       </defs>
       <use xlink:href="#DejaVuSans-50"/>
       <use x="63.623047" xlink:href="#DejaVuSans-53"/>
       <use x="127.246094" xlink:href="#DejaVuSans-48"/>
       <use x="190.869141" xlink:href="#DejaVuSans-48"/>
       <use x="254.492188" xlink:href="#DejaVuSans-48"/>
      </g>
     </g>
    </g>
    <g id="ytick_3">
     <g id="line2d_12">
      <g>
       <use style="stroke:#000000;stroke-width:0.8;" x="69.77" xlink:href="#mbbbd9d035a" y="206.102444"/>
      </g>
     </g>
     <g id="text_13">
      <!-- 50000 -->
      <g transform="translate(30.9575 209.901663)scale(0.1 -0.1)">
       <use xlink:href="#DejaVuSans-53"/>
       <use x="63.623047" xlink:href="#DejaVuSans-48"/>
       <use x="127.246094" xlink:href="#DejaVuSans-48"/>
       <use x="190.869141" xlink:href="#DejaVuSans-48"/>
       <use x="254.492188" xlink:href="#DejaVuSans-48"/>
      </g>
     </g>
    </g>
    <g id="ytick_4">
     <g id="line2d_13">
      <g>
       <use style="stroke:#000000;stroke-width:0.8;" x="69.77" xlink:href="#mbbbd9d035a" y="169.770561"/>
      </g>
     </g>
     <g id="text_14">
      <!-- 75000 -->
      <g transform="translate(30.9575 173.56978)scale(0.1 -0.1)">
       <use xlink:href="#DejaVuSans-55"/>
       <use x="63.623047" xlink:href="#DejaVuSans-53"/>
       <use x="127.246094" xlink:href="#DejaVuSans-48"/>
       <use x="190.869141" xlink:href="#DejaVuSans-48"/>
       <use x="254.492188" xlink:href="#DejaVuSans-48"/>
      </g>
     </g>
    </g>
    <g id="ytick_5">
     <g id="line2d_14">
      <g>
       <use style="stroke:#000000;stroke-width:0.8;" x="69.77" xlink:href="#mbbbd9d035a" y="133.438678"/>
      </g>
     </g>
     <g id="text_15">
      <!-- 100000 -->
      <g transform="translate(24.595 137.237896)scale(0.1 -0.1)">
       <use xlink:href="#DejaVuSans-49"/>
       <use x="63.623047" xlink:href="#DejaVuSans-48"/>
       <use x="127.246094" xlink:href="#DejaVuSans-48"/>
       <use x="190.869141" xlink:href="#DejaVuSans-48"/>
       <use x="254.492188" xlink:href="#DejaVuSans-48"/>
       <use x="318.115234" xlink:href="#DejaVuSans-48"/>
      </g>
     </g>
    </g>
    <g id="ytick_6">
     <g id="line2d_15">
      <g>
       <use style="stroke:#000000;stroke-width:0.8;" x="69.77" xlink:href="#mbbbd9d035a" y="97.106794"/>
      </g>
     </g>
     <g id="text_16">
      <!-- 125000 -->
      <g transform="translate(24.595 100.906013)scale(0.1 -0.1)">
       <use xlink:href="#DejaVuSans-49"/>
       <use x="63.623047" xlink:href="#DejaVuSans-50"/>
       <use x="127.246094" xlink:href="#DejaVuSans-53"/>
       <use x="190.869141" xlink:href="#DejaVuSans-48"/>
       <use x="254.492188" xlink:href="#DejaVuSans-48"/>
       <use x="318.115234" xlink:href="#DejaVuSans-48"/>
      </g>
     </g>
    </g>
    <g id="ytick_7">
     <g id="line2d_16">
      <g>
       <use style="stroke:#000000;stroke-width:0.8;" x="69.77" xlink:href="#mbbbd9d035a" y="60.774911"/>
      </g>
     </g>
     <g id="text_17">
      <!-- 150000 -->
      <g transform="translate(24.595 64.57413)scale(0.1 -0.1)">
       <use xlink:href="#DejaVuSans-49"/>
       <use x="63.623047" xlink:href="#DejaVuSans-53"/>
       <use x="127.246094" xlink:href="#DejaVuSans-48"/>
       <use x="190.869141" xlink:href="#DejaVuSans-48"/>
       <use x="254.492188" xlink:href="#DejaVuSans-48"/>
       <use x="318.115234" xlink:href="#DejaVuSans-48"/>
      </g>
     </g>
    </g>
    <g id="text_18">
     <!-- Sales -->
     <g transform="translate(18.515313 171.998826)rotate(-90)scale(0.1 -0.1)">
      <defs>
       <path d="M 53.515625 70.515625 
L 53.515625 60.890625 
Q 47.90625 63.578125 42.921875 64.890625 
Q 37.9375 66.21875 33.296875 66.21875 
Q 25.25 66.21875 20.875 63.09375 
Q 16.5 59.96875 16.5 54.203125 
Q 16.5 49.359375 19.40625 46.890625 
Q 22.3125 44.4375 30.421875 42.921875 
L 36.375 41.703125 
Q 47.40625 39.59375 52.65625 34.296875 
Q 57.90625 29 57.90625 20.125 
Q 57.90625 9.515625 50.796875 4.046875 
Q 43.703125 -1.421875 29.984375 -1.421875 
Q 24.8125 -1.421875 18.96875 -0.25 
Q 13.140625 0.921875 6.890625 3.21875 
L 6.890625 13.375 
Q 12.890625 10.015625 18.65625 8.296875 
Q 24.421875 6.59375 29.984375 6.59375 
Q 38.421875 6.59375 43.015625 9.90625 
Q 47.609375 13.234375 47.609375 19.390625 
Q 47.609375 24.75 44.3125 27.78125 
Q 41.015625 30.8125 33.5 32.328125 
L 27.484375 33.5 
Q 16.453125 35.6875 11.515625 40.375 
Q 6.59375 45.0625 6.59375 53.421875 
Q 6.59375 63.09375 13.40625 68.65625 
Q 20.21875 74.21875 32.171875 74.21875 
Q 37.3125 74.21875 42.625 73.28125 
Q 47.953125 72.359375 53.515625 70.515625 
z
" id="DejaVuSans-83"/>
       <path d="M 9.421875 75.984375 
L 18.40625 75.984375 
L 18.40625 0 
L 9.421875 0 
z
" id="DejaVuSans-108"/>
       <path d="M 44.28125 53.078125 
L 44.28125 44.578125 
Q 40.484375 46.53125 36.375 47.5 
Q 32.28125 48.484375 27.875 48.484375 
Q 21.1875 48.484375 17.84375 46.4375 
Q 14.5 44.390625 14.5 40.28125 
Q 14.5 37.15625 16.890625 35.375 
Q 19.28125 33.59375 26.515625 31.984375 
L 29.59375 31.296875 
Q 39.15625 29.25 43.1875 25.515625 
Q 47.21875 21.78125 47.21875 15.09375 
Q 47.21875 7.46875 41.1875 3.015625 
Q 35.15625 -1.421875 24.609375 -1.421875 
Q 20.21875 -1.421875 15.453125 -0.5625 
Q 10.6875 0.296875 5.421875 2 
L 5.421875 11.28125 
Q 10.40625 8.6875 15.234375 7.390625 
Q 20.0625 6.109375 24.8125 6.109375 
Q 31.15625 6.109375 34.5625 8.28125 
Q 37.984375 10.453125 37.984375 14.40625 
Q 37.984375 18.0625 35.515625 20.015625 
Q 33.0625 21.96875 24.703125 23.78125 
L 21.578125 24.515625 
Q 13.234375 26.265625 9.515625 29.90625 
Q 5.8125 33.546875 5.8125 39.890625 
Q 5.8125 47.609375 11.28125 51.796875 
Q 16.75 56 26.8125 56 
Q 31.78125 56 36.171875 55.265625 
Q 40.578125 54.546875 44.28125 53.078125 
z
" id="DejaVuSans-115"/>
      </defs>
      <use xlink:href="#DejaVuSans-83"/>
      <use x="63.476562" xlink:href="#DejaVuSans-97"/>
      <use x="124.755859" xlink:href="#DejaVuSans-108"/>
      <use x="152.539062" xlink:href="#DejaVuSans-101"/>
      <use x="214.0625" xlink:href="#DejaVuSans-115"/>
     </g>
    </g>
   </g>
   <g id="line2d_17">
    <path clip-path="url(#p80ef4dfb8d)" d="M 69.77 210.668078 
L 70.644733 270.089237 
L 71.519466 248.795776 
L 72.3942 204.6681 
L 73.268933 217.041114 
L 74.143666 239.066444 
L 75.893133 259.728201 
L 76.767866 252.822236 
L 79.392066 240.571717 
L 81.141532 143.249562 
L 82.016265 266.532165 
L 82.890999 235.480922 
L 84.640465 209.360622 
L 85.515198 202.692201 
L 86.389932 141.914688 
L 87.264665 222.169467 
L 88.139398 217.949174 
L 89.014131 245.105926 
L 90.763598 179.697088 
L 92.513064 230.644533 
L 93.387798 221.89807 
L 94.262531 264.233841 
L 95.137264 239.038403 
L 96.011997 261.010863 
L 96.886731 268.21564 
L 98.636197 248.017514 
L 99.51093 242.666803 
L 100.385663 262.128483 
L 101.260397 236.359201 
L 102.13513 224.731719 
L 103.009863 275.922954 
L 103.884596 245.16574 
L 104.75933 256.429879 
L 105.634063 251.332666 
L 106.508796 244.681187 
L 107.383529 269.810775 
L 108.258263 228.999818 
L 110.007729 225.755556 
L 110.882462 204.588346 
L 111.757196 258.204328 
L 112.631929 265.09342 
L 113.506662 235.843963 
L 114.381395 171.057899 
L 116.130862 271.057559 
L 117.880328 249.362044 
L 118.755062 252.13558 
L 119.629795 207.406569 
L 120.504528 252.869757 
L 121.379261 224.781018 
L 122.253995 201.594799 
L 123.128728 274.395004 
L 124.003461 186.615639 
L 124.878194 273.754387 
L 126.627661 249.075602 
L 127.502394 271.49623 
L 128.377127 221.482607 
L 129.25186 275.216085 
L 130.126594 266.111884 
L 131.87606 242.669688 
L 133.625527 192.292344 
L 134.50026 273.205727 
L 135.374993 183.298615 
L 136.249726 243.758837 
L 137.12446 233.017573 
L 137.999193 207.488737 
L 138.873926 232.178951 
L 139.748659 208.515358 
L 141.498126 244.446002 
L 143.247592 276.773465 
L 144.122326 232.612898 
L 144.997059 241.348026 
L 145.871792 237.118989 
L 146.746525 229.264718 
L 147.621259 261.116937 
L 148.495992 276.062149 
L 150.245458 270.009895 
L 151.120192 213.793077 
L 151.994925 207.125304 
L 153.744391 259.283931 
L 154.619124 231.483206 
L 155.493858 166.610615 
L 156.368591 251.346041 
L 157.243324 218.511201 
L 158.118057 255.029567 
L 158.992791 272.009302 
L 159.867524 260.693515 
L 161.61699 249.780283 
L 162.491724 248.815592 
L 163.366457 256.961756 
L 164.24119 240.925455 
L 165.115923 233.003949 
L 165.990657 266.392481 
L 166.86539 262.025117 
L 167.740123 230.244802 
L 168.614856 259.198705 
L 172.113789 200.352807 
L 172.988523 191.511091 
L 174.737989 244.791153 
L 175.612722 190.927328 
L 178.236922 255.921328 
L 179.111655 209.087743 
L 179.986389 218.987854 
L 180.861122 257.592707 
L 181.735855 245.876699 
L 183.485321 269.446584 
L 184.360055 249.306072 
L 185.234788 238.188264 
L 186.109521 245.684263 
L 187.858988 221.196931 
L 189.608454 178.944712 
L 191.357921 201.150298 
L 193.107387 263.043908 
L 193.98212 232.609361 
L 195.731587 229.326084 
L 196.60632 215.930502 
L 197.481053 243.644502 
L 198.355787 122.378085 
L 199.23052 272.694682 
L 200.105253 252.643034 
L 200.979986 244.002999 
L 202.729453 166.356136 
L 203.604186 260.952428 
L 204.478919 242.183895 
L 205.353653 268.639024 
L 206.228386 238.442677 
L 207.103119 195.816557 
L 209.727319 250.979534 
L 210.602052 213.750663 
L 211.476785 186.812945 
L 212.351518 253.894774 
L 213.226252 213.893739 
L 214.975718 261.848333 
L 215.850451 277.372437 
L 216.725185 174.807267 
L 217.599918 235.307562 
L 218.474651 266.177126 
L 219.349384 252.356375 
L 220.224118 219.795569 
L 221.098851 216.429782 
L 221.973584 249.769898 
L 223.723051 141.571443 
L 225.472517 272.714305 
L 226.34725 254.943649 
L 227.221984 233.279729 
L 228.096717 271.656575 
L 228.97145 224.296021 
L 231.59565 182.481956 
L 232.470383 184.472407 
L 233.345116 257.694499 
L 234.21985 179.039807 
L 235.969316 264.248965 
L 237.718782 243.795347 
L 238.593516 195.413893 
L 239.468249 263.220182 
L 240.342982 246.598575 
L 241.217715 209.995027 
L 242.092449 255.489798 
L 242.967182 220.334172 
L 243.841915 261.285066 
L 244.716648 224.578054 
L 245.591382 227.647314 
L 246.466115 255.52932 
L 248.215581 273.909424 
L 249.090315 233.760125 
L 249.965048 204.984862 
L 250.839781 242.829738 
L 252.589248 222.757596 
L 253.463981 242.058998 
L 255.213447 221.863249 
L 256.088181 249.096359 
L 256.962914 257.47109 
L 257.837647 193.301379 
L 258.71238 258.681746 
L 259.587114 221.257933 
L 261.33658 161.70818 
L 262.211313 259.619393 
L 263.086047 274.865502 
L 264.835513 269.337736 
L 265.710246 273.489763 
L 267.459713 230.292404 
L 268.334446 224.850383 
L 269.209179 232.513008 
L 270.083912 176.249691 
L 270.958646 260.79061 
L 271.833379 255.266077 
L 272.708112 144.191509 
L 273.582845 259.866287 
L 274.457579 174.386843 
L 275.332312 238.960019 
L 277.081778 274.592678 
L 277.956512 270.670274 
L 278.831245 264.831123 
L 279.705978 257.599835 
L 280.580711 199.759638 
L 281.455445 248.322042 
L 282.330178 163.734016 
L 283.204911 199.438198 
L 284.079644 204.803658 
L 285.829111 245.00001 
L 286.703844 221.322805 
L 287.578577 244.528432 
L 289.328044 256.498838 
L 290.202777 248.51724 
L 291.07751 221.940527 
L 291.952244 219.104191 
L 292.826977 196.970877 
L 293.70171 238.370488 
L 294.576443 258.887615 
L 296.32591 200.975345 
L 297.200643 196.506152 
L 298.075376 247.708161 
L 298.950109 218.623548 
L 299.824843 233.608404 
L 300.699576 199.840026 
L 301.574309 198.133598 
L 302.449042 243.341012 
L 303.323776 227.083076 
L 304.198509 222.689091 
L 305.073242 236.43136 
L 305.947975 270.476612 
L 306.822709 165.541613 
L 307.697442 188.011373 
L 308.572175 246.193063 
L 309.446908 201.635738 
L 310.321642 265.336097 
L 311.196375 243.545841 
L 312.071108 218.581955 
L 312.945841 276.211041 
L 313.820575 167.558786 
L 314.695308 270.231721 
L 315.570041 243.400803 
L 316.444774 258.19849 
L 317.319508 239.206781 
L 318.194241 234.363421 
L 319.068974 277.318038 
L 319.943707 267.532515 
L 320.81844 238.759665 
L 321.693174 214.66963 
L 323.44264 276.563014 
L 324.317373 274.465284 
L 325.192107 218.664118 
L 326.941573 240.129141 
L 327.816306 195.129516 
L 328.69104 221.816652 
L 329.565773 252.788357 
L 330.440506 237.93152 
L 331.315239 209.750123 
L 332.189973 230.464776 
L 333.064706 231.8598 
L 333.939439 182.638783 
L 335.688906 245.322367 
L 337.438372 236.946956 
L 338.313105 267.202664 
L 339.187839 248.091475 
L 340.937305 261.460189 
L 342.686772 262.867237 
L 343.561505 221.342483 
L 345.310971 251.272903 
L 346.185705 174.83445 
L 347.060438 173.971879 
L 347.935171 238.476705 
L 348.809904 217.210549 
L 349.684637 225.74413 
L 351.434104 268.702869 
L 352.308837 248.353751 
L 353.18357 251.304987 
L 354.058304 251.492806 
L 354.933037 199.72476 
L 355.80777 222.09346 
L 356.682503 216.804277 
L 358.43197 243.800065 
L 359.306703 140.26402 
L 361.930903 231.327413 
L 364.555103 258.257974 
L 365.429836 181.417719 
L 367.179302 162.609924 
L 368.054036 258.867275 
L 368.928769 194.843875 
L 369.803502 109.974334 
L 370.678235 213.048999 
L 371.552969 245.342946 
L 372.427702 162.238102 
L 373.302435 251.747538 
L 375.051902 271.901183 
L 375.926635 270.376234 
L 376.801368 237.185932 
L 377.676101 274.705714 
L 378.550834 257.258068 
L 379.425568 270.120771 
L 380.300301 239.806746 
L 381.175034 262.944056 
L 382.049767 226.72303 
L 382.924501 257.74315 
L 383.799234 215.071864 
L 384.673967 224.770018 
L 385.5487 236.775421 
L 386.423434 241.493502 
L 387.298167 241.972834 
L 388.1729 262.033301 
L 391.671833 253.960457 
L 392.546566 239.977123 
L 394.296033 192.528284 
L 395.170766 251.320524 
L 396.045499 163.967986 
L 396.920233 242.774941 
L 398.669699 261.398418 
L 399.544432 236.172661 
L 401.293899 207.016835 
L 403.043365 269.72165 
L 403.918098 79.81362 
L 404.792832 134.263827 
L 405.667565 235.019866 
L 406.542298 173.91195 
L 408.291765 246.211106 
L 409.166498 268.740188 
L 410.041231 248.274295 
L 410.915964 237.604897 
L 411.790698 175.228275 
L 412.665431 273.102741 
L 413.540164 148.345039 
L 414.414897 119.514247 
L 416.164364 146.583252 
L 417.039097 262.53075 
L 417.91383 232.288185 
L 418.788564 254.369913 
L 419.663297 233.71205 
L 420.53803 59.977304 
L 421.412763 172.069766 
L 422.287497 217.275276 
L 423.16223 152.727508 
L 424.036963 231.087645 
L 424.911696 243.748816 
L 425.78643 236.707341 
L 427.535896 126.948714 
L 428.410629 276.787491 
L 429.285363 92.03937 
L 430.160096 186.291194 
L 431.909562 265.047643 
L 432.784295 184.381869 
L 434.533762 241.896204 
L 438.032695 253.142948 
L 438.907428 185.946781 
L 439.782161 139.027259 
L 440.656895 110.691636 
L 441.531628 260.635825 
L 442.406361 277.166716 
L 444.155828 207.193375 
L 445.030561 188.458138 
L 445.905294 126.522556 
L 446.780027 221.280661 
L 447.654761 269.138253 
L 448.529494 93.067681 
L 450.27896 260.382673 
L 451.153694 198.797624 
L 452.028427 190.760084 
L 453.777893 144.160129 
L 454.652627 257.298362 
L 456.402093 137.213895 
L 457.276826 232.360566 
L 458.15156 258.569449 
L 459.901026 231.939293 
L 460.775759 215.980948 
L 461.650492 194.21914 
L 463.399959 255.239214 
L 464.274692 145.073307 
L 465.149425 208.653617 
L 466.024159 160.999946 
L 467.773625 257.55486 
L 468.648358 162.610056 
L 469.523092 268.708094 
L 470.397825 254.998334 
L 471.272558 223.180339 
L 472.147291 263.271905 
L 473.022025 206.142345 
L 473.896758 203.111575 
L 475.646224 234.483263 
L 477.395691 222.390396 
L 478.270424 250.316724 
L 479.145157 224.279777 
L 480.019891 248.486612 
L 480.894624 115.983127 
L 481.769357 206.145508 
L 482.64409 196.703242 
L 483.518824 200.580969 
L 484.393557 257.048999 
L 485.26829 273.015976 
L 486.143023 187.689486 
L 487.017756 272.518402 
L 487.89249 272.715783 
L 488.767223 274.225073 
L 491.391423 155.005105 
L 492.266156 269.795172 
L 493.140889 261.745054 
L 494.890356 193.985467 
L 495.765089 260.514905 
L 496.639822 233.627916 
L 497.514555 226.623692 
L 498.389289 243.982616 
L 499.264022 272.085819 
L 500.138755 265.958583 
L 501.013488 191.257771 
L 501.888222 217.116526 
L 503.637688 196.495026 
L 505.387155 148.007257 
L 506.261888 262.98563 
L 507.136621 118.282631 
L 508.011354 268.67844 
L 509.760821 276.459623 
L 510.635554 267.049621 
L 511.510287 124.756273 
L 512.385021 213.193545 
L 513.259754 246.659243 
L 514.134487 99.837408 
L 515.00922 275.889968 
L 515.883953 266.431686 
L 516.758687 247.932148 
L 517.63342 256.192251 
L 518.508153 236.901319 
L 519.382886 271.341497 
L 520.25762 189.145721 
L 521.132353 249.126737 
L 522.881819 239.974151 
L 523.756553 205.0591 
L 525.506019 101.706335 
L 527.255486 228.606852 
L 529.004952 186.959108 
L 529.879685 261.572242 
L 530.754419 104.980933 
L 531.629152 249.088169 
L 532.503885 250.268955 
L 533.378618 73.943367 
L 534.253352 233.064776 
L 535.128085 76.833944 
L 536.002818 153.02983 
L 536.877551 201.279696 
L 537.752285 203.001955 
L 538.627018 268.99424 
L 539.501751 190.031124 
L 540.376484 190.710147 
L 541.251218 258.719241 
L 542.125951 160.826992 
L 543.000684 261.019241 
L 543.875417 59.06153 
L 544.75015 225.730971 
L 547.37435 237.4504 
L 549.123817 169.546663 
L 550.873283 265.443797 
L 552.62275 248.920351 
L 553.497483 246.045298 
L 555.246949 217.681768 
L 556.996416 254.464303 
L 557.871149 240.873603 
L 558.745882 240.019827 
L 559.620616 177.14917 
L 560.495349 195.687835 
L 561.370082 246.146814 
L 563.119549 250.869872 
L 563.994282 211.007376 
L 564.869015 258.543071 
L 566.618482 258.889679 
L 567.493215 38.862748 
L 570.117415 233.517078 
L 570.992148 251.694688 
L 572.741614 215.191287 
L 573.616347 157.718396 
L 574.491081 249.040888 
L 576.240547 275.021996 
L 577.990014 175.050603 
L 579.73948 249.254324 
L 580.614213 228.315209 
L 581.488947 218.481298 
L 582.36368 216.979659 
L 583.238413 191.467814 
L 584.113146 267.804669 
L 584.98788 196.394116 
L 585.862613 240.715854 
L 586.737346 244.338479 
L 587.612079 167.487156 
L 588.486813 245.318118 
L 589.361546 131.361895 
L 590.236279 259.315377 
L 591.111012 98.053463 
L 591.985746 233.087184 
L 592.860479 213.573591 
L 593.735212 224.03833 
L 594.609945 262.278932 
L 595.484679 246.884953 
L 596.359412 228.905473 
L 597.234145 192.217595 
L 598.108878 249.964132 
L 598.983611 233.392765 
L 599.858345 242.797491 
L 601.607811 265.147621 
L 602.482544 179.986514 
L 603.357278 242.938544 
L 604.232011 259.463382 
L 605.106744 245.471066 
L 605.981477 221.465487 
L 606.856211 272.985522 
L 608.605677 98.906957 
L 610.355144 227.051955 
L 611.229877 258.656971 
L 612.10461 200.201969 
L 612.979343 169.405695 
L 613.854077 226.15998 
L 614.72881 258.406362 
L 616.478276 202.843902 
L 617.35301 231.468896 
L 618.227743 148.080163 
L 619.102476 219.588585 
L 619.977209 162.674021 
L 620.851943 270.372926 
L 621.726676 255.662672 
L 622.601409 266.501267 
L 623.476142 228.115518 
L 625.225609 238.417972 
L 626.100342 264.559564 
L 626.975075 238.259149 
L 627.849808 233.026817 
L 628.724542 81.054469 
L 629.599275 273.087912 
L 630.474008 273.284765 
L 631.348741 116.122133 
L 632.223475 169.919939 
L 633.972941 270.258492 
L 634.847674 259.806273 
L 635.722408 204.289562 
L 636.597141 277.859998 
L 638.346607 190.403036 
L 639.221341 237.122616 
L 640.096074 165.706988 
L 640.970807 176.294888 
L 641.84554 276.737097 
L 642.720274 210.716564 
L 644.46974 224.439944 
L 646.219207 239.428728 
L 647.09394 276.114682 
L 647.968673 237.412141 
L 648.843406 277.67193 
L 649.71814 257.071851 
L 650.592873 205.545643 
L 651.467606 214.54691 
L 652.342339 136.746766 
L 654.091806 191.590669 
L 654.966539 166.199219 
L 655.841272 277.279837 
L 656.716005 275.99482 
L 657.590739 226.339709 
L 658.465472 109.770813 
L 659.340205 203.780533 
L 660.214938 180.379746 
L 661.089672 200.968989 
L 661.964405 264.626231 
L 662.839138 199.760105 
L 663.713871 242.925635 
L 664.588605 259.586878 
L 665.463338 263.794572 
L 666.338071 256.361515 
L 668.962271 236.665983 
L 669.837004 125.692964 
L 670.711737 245.299568 
L 671.586471 152.671646 
L 672.461204 273.443482 
L 673.335937 269.526195 
L 674.21067 269.140875 
L 675.085404 175.127632 
L 675.960137 237.32634 
L 676.83487 259.551141 
L 677.709603 193.004273 
L 678.584337 174.934887 
L 679.45907 273.675704 
L 680.333803 250.225912 
L 681.208536 233.206815 
L 682.083269 120.239224 
L 682.958003 237.607153 
L 683.832736 227.146396 
L 684.707469 130.919122 
L 687.331669 186.309421 
L 688.206402 261.027249 
L 689.081135 219.962429 
L 689.955869 264.118619 
L 690.830602 237.189734 
L 693.454802 150.630743 
L 694.329535 211.610155 
L 695.204268 145.087855 
L 696.079001 251.119857 
L 698.703201 220.995425 
L 700.452668 217.73962 
L 702.202134 202.593945 
L 703.076867 232.380144 
L 703.951601 275.016698 
L 704.826334 234.398924 
L 705.701067 273.096161 
L 707.450534 259.419192 
L 708.325267 234.635464 
L 709.2 176.84292 
L 709.2 176.84292 
" style="fill:none;stroke:#1f77b4;stroke-linecap:square;stroke-opacity:0.9;stroke-width:0.9;"/>
   </g>
   <g id="line2d_18">
    <path clip-path="url(#p80ef4dfb8d)" d="M 69.77 261.430061 
L 70.644733 276.557262 
L 71.519466 271.136457 
L 72.3942 259.90261 
L 73.268933 263.363048 
L 74.143666 268.859349 
L 75.893133 274.002302 
L 76.767866 272.274212 
L 79.392066 269.257997 
L 81.141532 244.878577 
L 82.016265 275.738806 
L 82.890999 268.054947 
L 84.640465 261.892754 
L 85.515198 260.173937 
L 86.389932 245.287354 
L 87.264665 265.063394 
L 88.139398 263.943994 
L 89.014131 270.562588 
L 90.763598 254.805218 
L 92.513064 267.070295 
L 93.387798 264.852495 
L 94.262531 275.197621 
L 95.137264 269.010592 
L 96.011997 274.406182 
L 96.886731 276.169978 
L 98.636197 271.140992 
L 99.51093 269.625269 
L 100.385663 274.54558 
L 101.260397 268.008471 
L 102.13513 265.058831 
L 103.009863 278.046854 
L 103.884596 270.317726 
L 104.75933 273.094644 
L 105.634063 271.771248 
L 106.508796 270.043013 
L 107.383529 276.474294 
L 108.258263 266.029764 
L 110.007729 265.313096 
L 110.882462 259.954143 
L 111.757196 273.549578 
L 112.631929 275.307459 
L 113.506662 267.908341 
L 114.381395 251.519667 
L 116.130862 276.823066 
L 117.880328 271.360553 
L 118.755062 272.031951 
L 119.629795 260.721037 
L 120.504528 272.217607 
L 121.379261 265.247946 
L 122.253995 259.436632 
L 123.128728 277.669599 
L 124.003461 255.615709 
L 124.878194 277.498839 
L 126.627661 271.258155 
L 127.502394 276.926408 
L 128.377127 264.202459 
L 129.25186 277.86505 
L 130.126594 275.547918 
L 131.87606 269.487615 
L 133.625527 256.287951 
L 134.50026 277.327498 
L 135.374993 254.128776 
L 136.249726 269.562706 
L 137.12446 266.689595 
L 137.999193 259.950554 
L 138.873926 266.468217 
L 139.748659 260.199994 
L 141.498126 269.736953 
L 143.247592 278.244195 
L 144.122326 266.675963 
L 144.997059 268.964203 
L 145.871792 267.856371 
L 146.746525 265.752174 
L 147.621259 274.05911 
L 148.495992 278.046854 
L 150.245458 276.41192 
L 151.120192 261.297028 
L 151.994925 259.535818 
L 153.744391 273.572321 
L 154.619124 266.128427 
L 155.493858 249.017505 
L 156.368591 271.493149 
L 157.243324 262.783874 
L 158.118057 272.45109 
L 158.992791 276.963888 
L 159.867524 273.981404 
L 161.61699 271.173501 
L 162.491724 270.920806 
L 163.366457 273.05465 
L 164.24119 268.810737 
L 165.115923 266.699695 
L 165.990657 275.496371 
L 166.86539 274.358456 
L 167.740123 266.130098 
L 168.614856 273.670374 
L 172.113789 258.552924 
L 172.988523 256.216755 
L 174.737989 269.995738 
L 175.612722 256.09109 
L 178.236922 272.80149 
L 179.111655 260.656148 
L 179.986389 263.332369 
L 180.861122 273.299542 
L 181.735855 270.274651 
L 183.485321 276.367522 
L 184.360055 271.184139 
L 185.234788 268.310941 
L 186.109521 270.234439 
L 187.858988 263.919202 
L 189.608454 252.843936 
L 191.357921 258.946515 
L 193.107387 274.771521 
L 193.98212 267.038773 
L 195.731587 266.340634 
L 196.60632 262.932195 
L 197.481053 269.915866 
L 198.355787 239.06674 
L 199.23052 277.22494 
L 200.105253 272.134785 
L 200.979986 269.958709 
L 202.729453 250.199483 
L 203.604186 274.222342 
L 204.478919 269.477587 
L 205.353653 276.194815 
L 206.228386 268.527654 
L 207.103119 257.277777 
L 208.852585 266.33687 
L 209.727319 271.478093 
L 210.602052 261.898771 
L 211.476785 254.91013 
L 212.351518 272.31364 
L 213.226252 262.107897 
L 214.975718 274.466987 
L 215.850451 278.41308 
L 216.725185 252.388726 
L 217.599918 267.739455 
L 218.474651 275.571985 
L 219.349384 271.946193 
L 220.224118 263.544445 
L 221.098851 262.759938 
L 221.973584 271.25285 
L 223.723051 244.462373 
L 225.472517 277.263118 
L 226.34725 272.815034 
L 227.221984 267.367519 
L 228.096717 276.980005 
L 228.97145 264.993027 
L 231.59565 254.626349 
L 232.470383 255.170935 
L 233.345116 273.527749 
L 234.21985 253.857028 
L 235.969316 275.13699 
L 237.718782 270.03659 
L 238.593516 257.8271 
L 239.468249 274.861057 
L 240.342982 270.659652 
L 241.217715 261.398873 
L 242.092449 272.888032 
L 242.967182 264.0099 
L 243.841915 274.379805 
L 244.716648 265.07611 
L 245.591382 265.919039 
L 246.466115 272.910878 
L 248.215581 277.536769 
L 249.090315 267.373419 
L 249.965048 260.180084 
L 250.839781 269.710097 
L 252.589248 264.546857 
L 253.463981 269.441139 
L 255.213447 264.310627 
L 256.088181 271.166351 
L 256.962914 273.280605 
L 257.837647 256.576775 
L 258.71238 273.561364 
L 259.587114 263.845273 
L 261.33658 248.39466 
L 262.211313 273.81948 
L 263.086047 277.752566 
L 264.835513 276.304276 
L 265.710246 277.385629 
L 267.459713 266.083041 
L 268.334446 264.659137 
L 269.209179 266.571531 
L 270.083912 251.841321 
L 270.958646 274.01403 
L 271.833379 272.566466 
L 272.708112 243.263058 
L 273.582845 273.780082 
L 274.457579 251.362859 
L 275.332312 268.307686 
L 277.081778 277.673377 
L 277.956512 276.653934 
L 278.831245 275.130465 
L 279.705978 273.243779 
L 280.580711 258.397918 
L 281.455445 270.931488 
L 282.330178 249.332662 
L 283.204911 258.486015 
L 284.079644 259.880869 
L 285.829111 270.144466 
L 286.703844 264.013301 
L 287.578577 269.957706 
L 289.328044 272.945436 
L 290.202777 270.885797 
L 291.07751 263.962073 
L 291.952244 263.223155 
L 292.826977 257.612975 
L 293.70171 268.337202 
L 294.576443 273.631746 
L 296.32591 258.559217 
L 297.200643 257.398297 
L 298.075376 270.698557 
L 298.950109 263.179557 
L 299.824843 267.017991 
L 300.699576 258.319543 
L 301.574309 257.618337 
L 302.449042 269.523569 
L 303.323776 265.281778 
L 304.198509 264.135362 
L 305.073242 267.719647 
L 305.947975 276.597692 
L 306.822709 249.17584 
L 307.697442 255.103793 
L 308.572175 270.31838 
L 309.446908 258.762457 
L 310.321642 275.283117 
L 312.071108 263.12256 
L 312.945841 278.099187 
L 313.820575 249.809715 
L 314.695308 276.549748 
L 315.570041 269.581584 
L 316.444774 273.424639 
L 317.319508 268.439266 
L 318.194241 267.229123 
L 319.068974 278.393461 
L 319.943707 275.897838 
L 320.81844 268.498908 
L 321.693174 262.316428 
L 323.44264 278.205102 
L 324.317373 277.667579 
L 325.192107 263.467218 
L 326.941573 269.058405 
L 327.816306 257.751966 
L 328.69104 264.457277 
L 329.565773 272.221022 
L 330.440506 268.439556 
L 331.315239 261.3013 
L 332.189973 266.617963 
L 333.064706 266.949804 
L 333.939439 254.550313 
L 335.688906 270.296842 
L 337.438372 268.030663 
L 338.313105 275.798536 
L 339.187839 270.872964 
L 340.937305 274.313012 
L 342.686772 274.70714 
L 343.561505 264.156434 
L 345.310971 271.868051 
L 346.185705 252.689394 
L 347.060438 252.472972 
L 347.935171 268.892542 
L 348.809904 263.692709 
L 349.684637 265.952755 
L 351.434104 276.36835 
L 352.308837 271.519628 
L 353.18357 272.222839 
L 354.058304 272.233346 
L 354.933037 259.72329 
L 355.80777 265.139023 
L 356.682503 263.971098 
L 358.43197 270.366541 
L 359.306703 245.494809 
L 361.930903 267.395727 
L 364.555103 273.900674 
L 365.429836 255.670483 
L 367.179302 250.994236 
L 368.054036 273.944331 
L 368.928769 258.350628 
L 369.803502 238.358312 
L 370.678235 263.033852 
L 371.552969 270.764855 
L 372.427702 251.080749 
L 373.302435 272.31861 
L 375.051902 277.144385 
L 375.926635 276.782577 
L 376.801368 268.935428 
L 377.676101 277.806192 
L 378.550834 273.676129 
L 379.425568 276.731655 
L 380.300301 269.595826 
L 381.175034 275.018839 
L 382.049767 266.433411 
L 382.924501 273.784325 
L 383.799234 263.672406 
L 384.673967 265.970601 
L 385.5487 268.796888 
L 386.423434 269.946356 
L 387.298167 270.039336 
L 388.1729 274.762452 
L 391.671833 272.897943 
L 392.546566 269.538843 
L 394.296033 258.069274 
L 395.170766 272.179299 
L 396.045499 251.214857 
L 396.920233 270.112799 
L 398.669699 274.577668 
L 399.544432 268.403573 
L 401.293899 261.302143 
L 403.043365 276.579104 
L 403.918098 230.228166 
L 404.792832 243.409621 
L 405.667565 268.100013 
L 406.542298 253.195119 
L 408.291765 270.82691 
L 409.166498 276.306441 
L 410.041231 271.275812 
L 410.915964 268.624209 
L 411.790698 253.257974 
L 412.665431 277.371096 
L 413.540164 246.638813 
L 414.414897 239.536758 
L 416.164364 246.084868 
L 417.039097 274.714538 
L 417.91383 267.098576 
L 418.788564 272.669271 
L 419.663297 267.506612 
L 420.53803 224.088122 
L 421.412763 252.019885 
L 422.287497 263.500338 
L 423.16223 247.661672 
L 424.036963 266.944688 
L 424.911696 270.106042 
L 425.78643 268.364611 
L 427.535896 241.276707 
L 428.410629 278.27794 
L 429.285363 232.945922 
L 430.160096 255.970585 
L 431.909562 275.394976 
L 432.784295 255.571966 
L 434.533762 269.760787 
L 438.032695 272.467629 
L 438.907428 255.949803 
L 439.782161 244.470236 
L 440.656895 237.54115 
L 441.531628 274.317692 
L 442.406361 278.373841 
L 444.155828 261.290241 
L 445.030561 256.71565 
L 445.905294 241.325871 
L 446.780027 264.677651 
L 447.654761 276.407458 
L 448.529494 233.323149 
L 450.27896 274.256131 
L 451.153694 259.147314 
L 452.028427 257.168025 
L 453.777893 245.649525 
L 454.652627 273.439201 
L 456.402093 243.304549 
L 457.276826 267.140677 
L 458.15156 273.694324 
L 459.901026 266.980221 
L 460.775759 262.946103 
L 461.650492 257.351589 
L 463.399959 272.807143 
L 464.274692 244.712133 
L 465.149425 260.86619 
L 466.024159 248.773529 
L 467.773625 273.390124 
L 468.648358 249.32605 
L 469.523092 276.216948 
L 470.397825 272.773906 
L 471.272558 264.831422 
L 472.147291 274.871506 
L 473.022025 260.51534 
L 473.896758 259.735992 
L 475.646224 267.627248 
L 477.395691 264.675428 
L 478.270424 271.658459 
L 479.145157 265.10567 
L 480.019891 271.179431 
L 480.894624 237.97969 
L 481.769357 260.57055 
L 482.64409 258.204719 
L 483.518824 259.121678 
L 484.393557 273.278048 
L 485.26829 277.313691 
L 486.143023 255.906161 
L 487.017756 277.198025 
L 487.89249 277.247567 
L 488.767223 277.603605 
L 491.391423 246.849276 
L 492.266156 276.447874 
L 493.140889 274.367525 
L 494.890356 256.856777 
L 495.765089 274.047063 
L 496.639822 267.09503 
L 497.514555 265.268277 
L 498.389289 269.729164 
L 499.264022 277.030593 
L 500.138755 275.43869 
L 501.013488 255.972212 
L 501.888222 262.852919 
L 503.637688 257.531649 
L 505.387155 245.097557 
L 506.261888 274.702926 
L 507.136621 237.042066 
L 508.011354 276.106775 
L 509.760821 278.15803 
L 510.635554 275.661245 
L 511.510287 237.952659 
L 512.385021 261.389064 
L 513.259754 270.210285 
L 514.134487 230.86537 
L 515.00922 277.999928 
L 515.883953 275.448427 
L 516.758687 270.488166 
L 517.63342 272.705762 
L 518.508153 267.52671 
L 519.382886 276.779453 
L 520.25762 254.848918 
L 521.132353 270.831459 
L 522.881819 268.372604 
L 523.756553 259.017769 
L 525.506019 230.9974 
L 527.255486 265.297357 
L 529.004952 254.261446 
L 529.879685 274.176869 
L 530.754419 232.380177 
L 531.629152 270.820283 
L 532.503885 271.142343 
L 533.378618 224.142416 
L 534.253352 266.578187 
L 535.128085 225.272803 
L 536.002818 245.457678 
L 536.877551 258.239438 
L 537.752285 258.624178 
L 538.627018 276.185267 
L 539.501751 255.470048 
L 540.376484 255.594782 
L 541.251218 273.466145 
L 542.125951 247.585157 
L 543.000684 274.074225 
L 543.875417 220.416364 
L 544.75015 264.601572 
L 547.37435 267.618456 
L 549.123817 249.296796 
L 550.873283 275.201399 
L 552.62275 270.775566 
L 553.497483 269.938944 
L 555.246949 262.287188 
L 556.996416 272.239581 
L 557.871149 268.534368 
L 558.745882 268.331723 
L 559.620616 251.29175 
L 560.495349 256.304097 
L 561.370082 269.946821 
L 563.119549 271.116882 
L 563.994282 260.195024 
L 564.869015 273.241367 
L 566.618482 273.293598 
L 567.493215 212.713496 
L 570.117415 266.423631 
L 570.992148 271.322026 
L 572.741614 261.303451 
L 573.616347 245.516797 
L 574.491081 270.569288 
L 576.240547 277.722178 
L 577.990014 249.715848 
L 579.73948 270.500039 
L 580.614213 264.750097 
L 581.488947 262.032952 
L 582.36368 261.764793 
L 583.238413 254.8042 
L 584.113146 275.758847 
L 584.98788 256.166937 
L 585.862613 268.326869 
L 586.737346 269.276236 
L 587.612079 248.092234 
L 588.486813 269.586002 
L 589.361546 238.111924 
L 590.236279 273.431223 
L 591.111012 229.200192 
L 591.985746 266.237336 
L 592.860479 260.860086 
L 593.735212 263.703768 
L 594.609945 274.221005 
L 595.484679 269.990506 
L 596.359412 264.958962 
L 597.234145 254.799492 
L 598.108878 270.790447 
L 598.983611 266.069366 
L 599.858345 268.597513 
L 601.607811 274.964472 
L 602.482544 251.091402 
L 603.357278 268.728482 
L 604.232011 273.358196 
L 605.106744 269.44454 
L 605.981477 262.689469 
L 606.856211 277.139589 
L 608.605677 227.726382 
L 610.355144 264.090921 
L 611.229877 273.068413 
L 612.10461 256.667808 
L 612.979343 248.070246 
L 613.854077 264.146872 
L 614.72881 273.089093 
L 616.478276 257.596117 
L 617.35301 265.584495 
L 618.227743 242.283129 
L 619.102476 262.152149 
L 619.977209 246.495971 
L 620.851943 276.41192 
L 621.726676 272.285737 
L 622.601409 275.325931 
L 623.476142 264.644008 
L 625.225609 267.757142 
L 626.100342 274.89329 
L 626.975075 267.67416 
L 627.849808 266.24139 
L 628.724542 224.626793 
L 629.599275 277.220086 
L 630.474008 277.274133 
L 631.348741 234.324296 
L 633.972941 276.454268 
L 634.847674 273.613914 
L 635.722408 258.496595 
L 636.597141 278.517716 
L 638.346607 254.220885 
L 639.221341 267.201758 
L 640.096074 247.369593 
L 640.970807 250.309859 
L 641.84554 278.202631 
L 642.720274 259.84461 
L 644.46974 263.63186 
L 646.219207 267.828803 
L 647.09394 278.028979 
L 647.968673 267.298401 
L 648.843406 278.462506 
L 649.71814 272.741004 
L 650.592873 258.392642 
L 651.467606 261.204599 
L 652.342339 239.929128 
L 654.091806 254.836609 
L 654.966539 247.950423 
L 655.841272 278.359309 
L 656.716005 278.004128 
L 657.590739 264.366491 
L 658.465472 232.349106 
L 659.340205 258.170277 
L 660.214938 251.873642 
L 661.089672 257.540296 
L 661.964405 274.902301 
L 662.839138 257.100521 
L 663.713871 268.885697 
L 664.588605 273.478861 
L 665.463338 274.638837 
L 666.338071 272.60803 
L 668.962271 267.058044 
L 669.837004 236.204485 
L 670.711737 269.460875 
L 671.586471 243.705856 
L 672.461204 277.283928 
L 673.335937 276.203811 
L 674.21067 276.083639 
L 675.085404 249.619045 
L 675.960137 267.088403 
L 676.83487 273.35138 
L 677.709603 254.598388 
L 678.584337 249.332226 
L 679.45907 277.327483 
L 680.333803 270.700562 
L 681.208536 265.948105 
L 682.083269 233.923773 
L 682.958003 267.123572 
L 683.832736 264.164543 
L 684.707469 237.11797 
L 687.331669 252.883901 
L 688.206402 273.812301 
L 689.081135 262.344243 
L 689.955869 274.675619 
L 690.830602 267.098241 
L 693.454802 242.890002 
L 694.329535 260.000198 
L 695.204268 241.41128 
L 696.079001 271.040745 
L 698.703201 262.473934 
L 700.452668 261.523652 
L 702.202134 257.244366 
L 703.076867 265.660211 
L 703.951601 277.706817 
L 704.826334 266.180818 
L 705.701067 277.148323 
L 707.450534 273.208799 
L 708.325267 266.089697 
L 709.2 249.488846 
L 709.2 249.488846 
" style="fill:none;stroke:#ff7f0e;stroke-linecap:square;stroke-opacity:0.9;stroke-width:0.9;"/>
   </g>
   <g id="patch_3">
    <path d="M 69.77 290.500464 
L 69.77 26.88 
" style="fill:none;stroke:#000000;stroke-linecap:square;stroke-linejoin:miter;stroke-width:0.8;"/>
   </g>
   <g id="patch_4">
    <path d="M 709.2 290.500464 
L 709.2 26.88 
" style="fill:none;stroke:#000000;stroke-linecap:square;stroke-linejoin:miter;stroke-width:0.8;"/>
   </g>
   <g id="patch_5">
    <path d="M 69.77 290.500464 
L 709.2 290.500464 
" style="fill:none;stroke:#000000;stroke-linecap:square;stroke-linejoin:miter;stroke-width:0.8;"/>
   </g>
   <g id="patch_6">
    <path d="M 69.77 26.88 
L 709.2 26.88 
" style="fill:none;stroke:#000000;stroke-linecap:square;stroke-linejoin:miter;stroke-width:0.8;"/>
   </g>
   <g id="text_19">
    <!-- Sales in USD and PLN over time -->
    <g transform="translate(294.109375 20.88)scale(0.12 -0.12)">
     <defs>
      <path d="M 9.421875 54.6875 
L 18.40625 54.6875 
L 18.40625 0 
L 9.421875 0 
z
M 9.421875 75.984375 
L 18.40625 75.984375 
L 18.40625 64.59375 
L 9.421875 64.59375 
z
" id="DejaVuSans-105"/>
      <path d="M 54.890625 33.015625 
L 54.890625 0 
L 45.90625 0 
L 45.90625 32.71875 
Q 45.90625 40.484375 42.875 44.328125 
Q 39.84375 48.1875 33.796875 48.1875 
Q 26.515625 48.1875 22.3125 43.546875 
Q 18.109375 38.921875 18.109375 30.90625 
L 18.109375 0 
L 9.078125 0 
L 9.078125 54.6875 
L 18.109375 54.6875 
L 18.109375 46.1875 
Q 21.34375 51.125 25.703125 53.5625 
Q 30.078125 56 35.796875 56 
Q 45.21875 56 50.046875 50.171875 
Q 54.890625 44.34375 54.890625 33.015625 
z
" id="DejaVuSans-110"/>
      <path d="M 8.6875 72.90625 
L 18.609375 72.90625 
L 18.609375 28.609375 
Q 18.609375 16.890625 22.84375 11.734375 
Q 27.09375 6.59375 36.625 6.59375 
Q 46.09375 6.59375 50.34375 11.734375 
Q 54.59375 16.890625 54.59375 28.609375 
L 54.59375 72.90625 
L 64.5 72.90625 
L 64.5 27.390625 
Q 64.5 13.140625 57.4375 5.859375 
Q 50.390625 -1.421875 36.625 -1.421875 
Q 22.796875 -1.421875 15.734375 5.859375 
Q 8.6875 13.140625 8.6875 27.390625 
z
" id="DejaVuSans-85"/>
      <path d="M 45.40625 46.390625 
L 45.40625 75.984375 
L 54.390625 75.984375 
L 54.390625 0 
L 45.40625 0 
L 45.40625 8.203125 
Q 42.578125 3.328125 38.25 0.953125 
Q 33.9375 -1.421875 27.875 -1.421875 
Q 17.96875 -1.421875 11.734375 6.484375 
Q 5.515625 14.40625 5.515625 27.296875 
Q 5.515625 40.1875 11.734375 48.09375 
Q 17.96875 56 27.875 56 
Q 33.9375 56 38.25 53.625 
Q 42.578125 51.265625 45.40625 46.390625 
z
M 14.796875 27.296875 
Q 14.796875 17.390625 18.875 11.75 
Q 22.953125 6.109375 30.078125 6.109375 
Q 37.203125 6.109375 41.296875 11.75 
Q 45.40625 17.390625 45.40625 27.296875 
Q 45.40625 37.203125 41.296875 42.84375 
Q 37.203125 48.484375 30.078125 48.484375 
Q 22.953125 48.484375 18.875 42.84375 
Q 14.796875 37.203125 14.796875 27.296875 
z
" id="DejaVuSans-100"/>
      <path d="M 19.671875 64.796875 
L 19.671875 37.40625 
L 32.078125 37.40625 
Q 38.96875 37.40625 42.71875 40.96875 
Q 46.484375 44.53125 46.484375 51.125 
Q 46.484375 57.671875 42.71875 61.234375 
Q 38.96875 64.796875 32.078125 64.796875 
z
M 9.8125 72.90625 
L 32.078125 72.90625 
Q 44.34375 72.90625 50.609375 67.359375 
Q 56.890625 61.8125 56.890625 51.125 
Q 56.890625 40.328125 50.609375 34.8125 
Q 44.34375 29.296875 32.078125 29.296875 
L 19.671875 29.296875 
L 19.671875 0 
L 9.8125 0 
z
" id="DejaVuSans-80"/>
      <path d="M 9.8125 72.90625 
L 19.671875 72.90625 
L 19.671875 8.296875 
L 55.171875 8.296875 
L 55.171875 0 
L 9.8125 0 
z
" id="DejaVuSans-76"/>
      <path d="M 9.8125 72.90625 
L 23.09375 72.90625 
L 55.421875 11.921875 
L 55.421875 72.90625 
L 64.984375 72.90625 
L 64.984375 0 
L 51.703125 0 
L 19.390625 60.984375 
L 19.390625 0 
L 9.8125 0 
z
" id="DejaVuSans-78"/>
      <path d="M 30.609375 48.390625 
Q 23.390625 48.390625 19.1875 42.75 
Q 14.984375 37.109375 14.984375 27.296875 
Q 14.984375 17.484375 19.15625 11.84375 
Q 23.34375 6.203125 30.609375 6.203125 
Q 37.796875 6.203125 41.984375 11.859375 
Q 46.1875 17.53125 46.1875 27.296875 
Q 46.1875 37.015625 41.984375 42.703125 
Q 37.796875 48.390625 30.609375 48.390625 
z
M 30.609375 56 
Q 42.328125 56 49.015625 48.375 
Q 55.71875 40.765625 55.71875 27.296875 
Q 55.71875 13.875 49.015625 6.21875 
Q 42.328125 -1.421875 30.609375 -1.421875 
Q 18.84375 -1.421875 12.171875 6.21875 
Q 5.515625 13.875 5.515625 27.296875 
Q 5.515625 40.765625 12.171875 48.375 
Q 18.84375 56 30.609375 56 
z
" id="DejaVuSans-111"/>
      <path d="M 2.984375 54.6875 
L 12.5 54.6875 
L 29.59375 8.796875 
L 46.6875 54.6875 
L 56.203125 54.6875 
L 35.6875 0 
L 23.484375 0 
z
" id="DejaVuSans-118"/>
      <path d="M 41.109375 46.296875 
Q 39.59375 47.171875 37.8125 47.578125 
Q 36.03125 48 33.890625 48 
Q 26.265625 48 22.1875 43.046875 
Q 18.109375 38.09375 18.109375 28.8125 
L 18.109375 0 
L 9.078125 0 
L 9.078125 54.6875 
L 18.109375 54.6875 
L 18.109375 46.1875 
Q 20.953125 51.171875 25.484375 53.578125 
Q 30.03125 56 36.53125 56 
Q 37.453125 56 38.578125 55.875 
Q 39.703125 55.765625 41.0625 55.515625 
z
" id="DejaVuSans-114"/>
      <path d="M 52 44.1875 
Q 55.375 50.25 60.0625 53.125 
Q 64.75 56 71.09375 56 
Q 79.640625 56 84.28125 50.015625 
Q 88.921875 44.046875 88.921875 33.015625 
L 88.921875 0 
L 79.890625 0 
L 79.890625 32.71875 
Q 79.890625 40.578125 77.09375 44.375 
Q 74.3125 48.1875 68.609375 48.1875 
Q 61.625 48.1875 57.5625 43.546875 
Q 53.515625 38.921875 53.515625 30.90625 
L 53.515625 0 
L 44.484375 0 
L 44.484375 32.71875 
Q 44.484375 40.625 41.703125 44.40625 
Q 38.921875 48.1875 33.109375 48.1875 
Q 26.21875 48.1875 22.15625 43.53125 
Q 18.109375 38.875 18.109375 30.90625 
L 18.109375 0 
L 9.078125 0 
L 9.078125 54.6875 
L 18.109375 54.6875 
L 18.109375 46.1875 
Q 21.1875 51.21875 25.484375 53.609375 
Q 29.78125 56 35.6875 56 
Q 41.65625 56 45.828125 52.96875 
Q 50 49.953125 52 44.1875 
z
" id="DejaVuSans-109"/>
     </defs>
     <use xlink:href="#DejaVuSans-83"/>
     <use x="63.476562" xlink:href="#DejaVuSans-97"/>
     <use x="124.755859" xlink:href="#DejaVuSans-108"/>
     <use x="152.539062" xlink:href="#DejaVuSans-101"/>
     <use x="214.0625" xlink:href="#DejaVuSans-115"/>
     <use x="266.162109" xlink:href="#DejaVuSans-32"/>
     <use x="297.949219" xlink:href="#DejaVuSans-105"/>
     <use x="325.732422" xlink:href="#DejaVuSans-110"/>
     <use x="389.111328" xlink:href="#DejaVuSans-32"/>
     <use x="420.898438" xlink:href="#DejaVuSans-85"/>
     <use x="494.091797" xlink:href="#DejaVuSans-83"/>
     <use x="557.568359" xlink:href="#DejaVuSans-68"/>
     <use x="634.570312" xlink:href="#DejaVuSans-32"/>
     <use x="666.357422" xlink:href="#DejaVuSans-97"/>
     <use x="727.636719" xlink:href="#DejaVuSans-110"/>
     <use x="791.015625" xlink:href="#DejaVuSans-100"/>
     <use x="854.492188" xlink:href="#DejaVuSans-32"/>
     <use x="886.279297" xlink:href="#DejaVuSans-80"/>
     <use x="946.582031" xlink:href="#DejaVuSans-76"/>
     <use x="1002.294922" xlink:href="#DejaVuSans-78"/>
     <use x="1077.099609" xlink:href="#DejaVuSans-32"/>
     <use x="1108.886719" xlink:href="#DejaVuSans-111"/>
     <use x="1170.068359" xlink:href="#DejaVuSans-118"/>
     <use x="1229.248047" xlink:href="#DejaVuSans-101"/>
     <use x="1290.771484" xlink:href="#DejaVuSans-114"/>
     <use x="1331.884766" xlink:href="#DejaVuSans-32"/>
     <use x="1363.671875" xlink:href="#DejaVuSans-116"/>
     <use x="1402.880859" xlink:href="#DejaVuSans-105"/>
     <use x="1430.664062" xlink:href="#DejaVuSans-109"/>
     <use x="1528.076172" xlink:href="#DejaVuSans-101"/>
    </g>
   </g>
   <g id="legend_1">
    <g id="patch_7">
     <path d="M 611.234375 64.23625 
L 702.2 64.23625 
Q 704.2 64.23625 704.2 62.23625 
L 704.2 33.88 
Q 704.2 31.88 702.2 31.88 
L 611.234375 31.88 
Q 609.234375 31.88 609.234375 33.88 
L 609.234375 62.23625 
Q 609.234375 64.23625 611.234375 64.23625 
z
" style="fill:#ffffff;opacity:0.8;stroke:#cccccc;stroke-linejoin:miter;"/>
    </g>
    <g id="line2d_19">
     <path d="M 613.234375 39.978438 
L 633.234375 39.978438 
" style="fill:none;stroke:#1f77b4;stroke-linecap:square;stroke-opacity:0.9;stroke-width:0.9;"/>
    </g>
    <g id="line2d_20"/>
    <g id="text_20">
     <!-- Sales [PLN] -->
     <g transform="translate(641.234375 43.478438)scale(0.1 -0.1)">
      <use xlink:href="#DejaVuSans-83"/>
      <use x="63.476562" xlink:href="#DejaVuSans-97"/>
      <use x="124.755859" xlink:href="#DejaVuSans-108"/>
      <use x="152.539062" xlink:href="#DejaVuSans-101"/>
      <use x="214.0625" xlink:href="#DejaVuSans-115"/>
      <use x="266.162109" xlink:href="#DejaVuSans-32"/>
      <use x="297.949219" xlink:href="#DejaVuSans-91"/>
      <use x="336.962891" xlink:href="#DejaVuSans-80"/>
      <use x="397.265625" xlink:href="#DejaVuSans-76"/>
      <use x="452.978516" xlink:href="#DejaVuSans-78"/>
      <use x="527.783203" xlink:href="#DejaVuSans-93"/>
     </g>
    </g>
    <g id="line2d_21">
     <path d="M 613.234375 54.656563 
L 633.234375 54.656563 
" style="fill:none;stroke:#ff7f0e;stroke-linecap:square;stroke-opacity:0.9;stroke-width:0.9;"/>
    </g>
    <g id="line2d_22"/>
    <g id="text_21">
     <!-- Sales [USD] -->
     <g transform="translate(641.234375 58.156563)scale(0.1 -0.1)">
      <use xlink:href="#DejaVuSans-83"/>
      <use x="63.476562" xlink:href="#DejaVuSans-97"/>
      <use x="124.755859" xlink:href="#DejaVuSans-108"/>
      <use x="152.539062" xlink:href="#DejaVuSans-101"/>
      <use x="214.0625" xlink:href="#DejaVuSans-115"/>
      <use x="266.162109" xlink:href="#DejaVuSans-32"/>
      <use x="297.949219" xlink:href="#DejaVuSans-91"/>
      <use x="336.962891" xlink:href="#DejaVuSans-85"/>
      <use x="410.15625" xlink:href="#DejaVuSans-83"/>
      <use x="473.632812" xlink:href="#DejaVuSans-68"/>
      <use x="550.634766" xlink:href="#DejaVuSans-93"/>
     </g>
    </g>
   </g>
  </g>
 </g>
 <defs>
  <clipPath id="p80ef4dfb8d">
   <rect height="263.620464" width="639.43" x="69.77" y="26.88"/>
  </clipPath>
 </defs>
</svg>
