<?xml version="1.0" encoding="utf-8" standalone="no"?>
<!DOCTYPE svg PUBLIC "-//W3C//DTD SVG 1.1//EN"
  "http://www.w3.org/Graphics/SVG/1.1/DTD/svg11.dtd">
<!-- Created with matplotlib (https://matplotlib.org/) -->
<svg height="345.6pt" version="1.1" viewBox="0 0 460.8 345.6" width="460.8pt" xmlns="http://www.w3.org/2000/svg" xmlns:xlink="http://www.w3.org/1999/xlink">
 <metadata>
  <rdf:RDF xmlns:cc="http://creativecommons.org/ns#" xmlns:dc="http://purl.org/dc/elements/1.1/" xmlns:rdf="http://www.w3.org/1999/02/22-rdf-syntax-ns#">
   <cc:Work>
    <dc:type rdf:resource="http://purl.org/dc/dcmitype/StillImage"/>
    <dc:date>2020-11-15T18:49:37.394572</dc:date>
    <dc:format>image/svg+xml</dc:format>
    <dc:creator>
     <cc:Agent>
      <dc:title>Matplotlib v3.3.3, https://matplotlib.org/</dc:title>
     </cc:Agent>
    </dc:creator>
   </cc:Work>
  </rdf:RDF>
 </metadata>
 <defs>
  <style type="text/css">*{stroke-linecap:butt;stroke-linejoin:round;}</style>
 </defs>
 <g id="figure_1">
  <g id="patch_1">
   <path d="M 0 345.6 
L 460.8 345.6 
L 460.8 0 
L 0 0 
z
" style="fill:#ffffff;"/>
  </g>
  <g id="axes_1">
   <g id="patch_2">
    <path d="M 58.218044 276.100464 
L 450 276.100464 
L 450 26.88 
L 58.218044 26.88 
z
" style="fill:#ffffff;"/>
   </g>
   <g id="matplotlib.axis_1">
    <g id="xtick_1">
     <g id="line2d_1">
      <defs>
       <path d="M 0 0 
L 0 3.5 
" id="m1f95fbb16a" style="stroke:#000000;stroke-width:0.8;"/>
      </defs>
      <g>
       <use style="stroke:#000000;stroke-width:0.8;" x="90.576589" xlink:href="#m1f95fbb16a" y="276.100464"/>
      </g>
     </g>
     <g id="text_1">
      <!-- 2011-09-01 -->
      <g transform="translate(39.207138 318.738716)rotate(-30)scale(0.1 -0.1)">
       <defs>
        <path d="M 19.1875 8.296875 
L 53.609375 8.296875 
L 53.609375 0 
L 7.328125 0 
L 7.328125 8.296875 
Q 12.9375 14.109375 22.625 23.890625 
Q 32.328125 33.6875 34.8125 36.53125 
Q 39.546875 41.84375 41.421875 45.53125 
Q 43.3125 49.21875 43.3125 52.78125 
Q 43.3125 58.59375 39.234375 62.25 
Q 35.15625 65.921875 28.609375 65.921875 
Q 23.96875 65.921875 18.8125 64.3125 
Q 13.671875 62.703125 7.8125 59.421875 
L 7.8125 69.390625 
Q 13.765625 71.78125 18.9375 73 
Q 24.125 74.21875 28.421875 74.21875 
Q 39.75 74.21875 46.484375 68.546875 
Q 53.21875 62.890625 53.21875 53.421875 
Q 53.21875 48.921875 51.53125 44.890625 
Q 49.859375 40.875 45.40625 35.40625 
Q 44.1875 33.984375 37.640625 27.21875 
Q 31.109375 20.453125 19.1875 8.296875 
z
" id="DejaVuSans-50"/>
        <path d="M 31.78125 66.40625 
Q 24.171875 66.40625 20.328125 58.90625 
Q 16.5 51.421875 16.5 36.375 
Q 16.5 21.390625 20.328125 13.890625 
Q 24.171875 6.390625 31.78125 6.390625 
Q 39.453125 6.390625 43.28125 13.890625 
Q 47.125 21.390625 47.125 36.375 
Q 47.125 51.421875 43.28125 58.90625 
Q 39.453125 66.40625 31.78125 66.40625 
z
M 31.78125 74.21875 
Q 44.046875 74.21875 50.515625 64.515625 
Q 56.984375 54.828125 56.984375 36.375 
Q 56.984375 17.96875 50.515625 8.265625 
Q 44.046875 -1.421875 31.78125 -1.421875 
Q 19.53125 -1.421875 13.0625 8.265625 
Q 6.59375 17.96875 6.59375 36.375 
Q 6.59375 54.828125 13.0625 64.515625 
Q 19.53125 74.21875 31.78125 74.21875 
z
" id="DejaVuSans-48"/>
        <path d="M 12.40625 8.296875 
L 28.515625 8.296875 
L 28.515625 63.921875 
L 10.984375 60.40625 
L 10.984375 69.390625 
L 28.421875 72.90625 
L 38.28125 72.90625 
L 38.28125 8.296875 
L 54.390625 8.296875 
L 54.390625 0 
L 12.40625 0 
z
" id="DejaVuSans-49"/>
        <path d="M 4.890625 31.390625 
L 31.203125 31.390625 
L 31.203125 23.390625 
L 4.890625 23.390625 
z
" id="DejaVuSans-45"/>
        <path d="M 10.984375 1.515625 
L 10.984375 10.5 
Q 14.703125 8.734375 18.5 7.8125 
Q 22.3125 6.890625 25.984375 6.890625 
Q 35.75 6.890625 40.890625 13.453125 
Q 46.046875 20.015625 46.78125 33.40625 
Q 43.953125 29.203125 39.59375 26.953125 
Q 35.25 24.703125 29.984375 24.703125 
Q 19.046875 24.703125 12.671875 31.3125 
Q 6.296875 37.9375 6.296875 49.421875 
Q 6.296875 60.640625 12.9375 67.421875 
Q 19.578125 74.21875 30.609375 74.21875 
Q 43.265625 74.21875 49.921875 64.515625 
Q 56.59375 54.828125 56.59375 36.375 
Q 56.59375 19.140625 48.40625 8.859375 
Q 40.234375 -1.421875 26.421875 -1.421875 
Q 22.703125 -1.421875 18.890625 -0.6875 
Q 15.09375 0.046875 10.984375 1.515625 
z
M 30.609375 32.421875 
Q 37.25 32.421875 41.125 36.953125 
Q 45.015625 41.5 45.015625 49.421875 
Q 45.015625 57.28125 41.125 61.84375 
Q 37.25 66.40625 30.609375 66.40625 
Q 23.96875 66.40625 20.09375 61.84375 
Q 16.21875 57.28125 16.21875 49.421875 
Q 16.21875 41.5 20.09375 36.953125 
Q 23.96875 32.421875 30.609375 32.421875 
z
" id="DejaVuSans-57"/>
       </defs>
       <use xlink:href="#DejaVuSans-50"/>
       <use x="63.623047" xlink:href="#DejaVuSans-48"/>
       <use x="127.246094" xlink:href="#DejaVuSans-49"/>
       <use x="190.869141" xlink:href="#DejaVuSans-49"/>
       <use x="254.492188" xlink:href="#DejaVuSans-45"/>
       <use x="290.576172" xlink:href="#DejaVuSans-48"/>
       <use x="354.199219" xlink:href="#DejaVuSans-57"/>
       <use x="417.822266" xlink:href="#DejaVuSans-45"/>
       <use x="453.90625" xlink:href="#DejaVuSans-48"/>
       <use x="517.529297" xlink:href="#DejaVuSans-49"/>
      </g>
     </g>
    </g>
    <g id="xtick_2">
     <g id="line2d_2">
      <g>
       <use style="stroke:#000000;stroke-width:0.8;" x="133.025434" xlink:href="#m1f95fbb16a" y="276.100464"/>
      </g>
     </g>
     <g id="text_2">
      <!-- 2012-01-01 -->
      <g transform="translate(81.655982 318.738716)rotate(-30)scale(0.1 -0.1)">
       <use xlink:href="#DejaVuSans-50"/>
       <use x="63.623047" xlink:href="#DejaVuSans-48"/>
       <use x="127.246094" xlink:href="#DejaVuSans-49"/>
       <use x="190.869141" xlink:href="#DejaVuSans-50"/>
       <use x="254.492188" xlink:href="#DejaVuSans-45"/>
       <use x="290.576172" xlink:href="#DejaVuSans-48"/>
       <use x="354.199219" xlink:href="#DejaVuSans-49"/>
       <use x="417.822266" xlink:href="#DejaVuSans-45"/>
       <use x="453.90625" xlink:href="#DejaVuSans-48"/>
       <use x="517.529297" xlink:href="#DejaVuSans-49"/>
      </g>
     </g>
    </g>
    <g id="xtick_3">
     <g id="line2d_3">
      <g>
       <use style="stroke:#000000;stroke-width:0.8;" x="175.126336" xlink:href="#m1f95fbb16a" y="276.100464"/>
      </g>
     </g>
     <g id="text_3">
      <!-- 2012-05-01 -->
      <g transform="translate(123.756885 318.738716)rotate(-30)scale(0.1 -0.1)">
       <defs>
        <path d="M 10.796875 72.90625 
L 49.515625 72.90625 
L 49.515625 64.59375 
L 19.828125 64.59375 
L 19.828125 46.734375 
Q 21.96875 47.46875 24.109375 47.828125 
Q 26.265625 48.1875 28.421875 48.1875 
Q 40.625 48.1875 47.75 41.5 
Q 54.890625 34.8125 54.890625 23.390625 
Q 54.890625 11.625 47.5625 5.09375 
Q 40.234375 -1.421875 26.90625 -1.421875 
Q 22.3125 -1.421875 17.546875 -0.640625 
Q 12.796875 0.140625 7.71875 1.703125 
L 7.71875 11.625 
Q 12.109375 9.234375 16.796875 8.0625 
Q 21.484375 6.890625 26.703125 6.890625 
Q 35.15625 6.890625 40.078125 11.328125 
Q 45.015625 15.765625 45.015625 23.390625 
Q 45.015625 31 40.078125 35.4375 
Q 35.15625 39.890625 26.703125 39.890625 
Q 22.75 39.890625 18.8125 39.015625 
Q 14.890625 38.140625 10.796875 36.28125 
z
" id="DejaVuSans-53"/>
       </defs>
       <use xlink:href="#DejaVuSans-50"/>
       <use x="63.623047" xlink:href="#DejaVuSans-48"/>
       <use x="127.246094" xlink:href="#DejaVuSans-49"/>
       <use x="190.869141" xlink:href="#DejaVuSans-50"/>
       <use x="254.492188" xlink:href="#DejaVuSans-45"/>
       <use x="290.576172" xlink:href="#DejaVuSans-48"/>
       <use x="354.199219" xlink:href="#DejaVuSans-53"/>
       <use x="417.822266" xlink:href="#DejaVuSans-45"/>
       <use x="453.90625" xlink:href="#DejaVuSans-48"/>
       <use x="517.529297" xlink:href="#DejaVuSans-49"/>
      </g>
     </g>
    </g>
    <g id="xtick_4">
     <g id="line2d_4">
      <g>
       <use style="stroke:#000000;stroke-width:0.8;" x="217.923122" xlink:href="#m1f95fbb16a" y="276.100464"/>
      </g>
     </g>
     <g id="text_4">
      <!-- 2012-09-01 -->
      <g transform="translate(166.553671 318.738716)rotate(-30)scale(0.1 -0.1)">
       <use xlink:href="#DejaVuSans-50"/>
       <use x="63.623047" xlink:href="#DejaVuSans-48"/>
       <use x="127.246094" xlink:href="#DejaVuSans-49"/>
       <use x="190.869141" xlink:href="#DejaVuSans-50"/>
       <use x="254.492188" xlink:href="#DejaVuSans-45"/>
       <use x="290.576172" xlink:href="#DejaVuSans-48"/>
       <use x="354.199219" xlink:href="#DejaVuSans-57"/>
       <use x="417.822266" xlink:href="#DejaVuSans-45"/>
       <use x="453.90625" xlink:href="#DejaVuSans-48"/>
       <use x="517.529297" xlink:href="#DejaVuSans-49"/>
      </g>
     </g>
    </g>
    <g id="xtick_5">
     <g id="line2d_5">
      <g>
       <use style="stroke:#000000;stroke-width:0.8;" x="260.371966" xlink:href="#m1f95fbb16a" y="276.100464"/>
      </g>
     </g>
     <g id="text_5">
      <!-- 2013-01-01 -->
      <g transform="translate(209.002515 318.738716)rotate(-30)scale(0.1 -0.1)">
       <defs>
        <path d="M 40.578125 39.3125 
Q 47.65625 37.796875 51.625 33 
Q 55.609375 28.21875 55.609375 21.1875 
Q 55.609375 10.40625 48.1875 4.484375 
Q 40.765625 -1.421875 27.09375 -1.421875 
Q 22.515625 -1.421875 17.65625 -0.515625 
Q 12.796875 0.390625 7.625 2.203125 
L 7.625 11.71875 
Q 11.71875 9.328125 16.59375 8.109375 
Q 21.484375 6.890625 26.8125 6.890625 
Q 36.078125 6.890625 40.9375 10.546875 
Q 45.796875 14.203125 45.796875 21.1875 
Q 45.796875 27.640625 41.28125 31.265625 
Q 36.765625 34.90625 28.71875 34.90625 
L 20.21875 34.90625 
L 20.21875 43.015625 
L 29.109375 43.015625 
Q 36.375 43.015625 40.234375 45.921875 
Q 44.09375 48.828125 44.09375 54.296875 
Q 44.09375 59.90625 40.109375 62.90625 
Q 36.140625 65.921875 28.71875 65.921875 
Q 24.65625 65.921875 20.015625 65.03125 
Q 15.375 64.15625 9.8125 62.3125 
L 9.8125 71.09375 
Q 15.4375 72.65625 20.34375 73.4375 
Q 25.25 74.21875 29.59375 74.21875 
Q 40.828125 74.21875 47.359375 69.109375 
Q 53.90625 64.015625 53.90625 55.328125 
Q 53.90625 49.265625 50.4375 45.09375 
Q 46.96875 40.921875 40.578125 39.3125 
z
" id="DejaVuSans-51"/>
       </defs>
       <use xlink:href="#DejaVuSans-50"/>
       <use x="63.623047" xlink:href="#DejaVuSans-48"/>
       <use x="127.246094" xlink:href="#DejaVuSans-49"/>
       <use x="190.869141" xlink:href="#DejaVuSans-51"/>
       <use x="254.492188" xlink:href="#DejaVuSans-45"/>
       <use x="290.576172" xlink:href="#DejaVuSans-48"/>
       <use x="354.199219" xlink:href="#DejaVuSans-49"/>
       <use x="417.822266" xlink:href="#DejaVuSans-45"/>
       <use x="453.90625" xlink:href="#DejaVuSans-48"/>
       <use x="517.529297" xlink:href="#DejaVuSans-49"/>
      </g>
     </g>
    </g>
    <g id="xtick_6">
     <g id="line2d_6">
      <g>
       <use style="stroke:#000000;stroke-width:0.8;" x="302.124928" xlink:href="#m1f95fbb16a" y="276.100464"/>
      </g>
     </g>
     <g id="text_6">
      <!-- 2013-05-01 -->
      <g transform="translate(250.755476 318.738716)rotate(-30)scale(0.1 -0.1)">
       <use xlink:href="#DejaVuSans-50"/>
       <use x="63.623047" xlink:href="#DejaVuSans-48"/>
       <use x="127.246094" xlink:href="#DejaVuSans-49"/>
       <use x="190.869141" xlink:href="#DejaVuSans-51"/>
       <use x="254.492188" xlink:href="#DejaVuSans-45"/>
       <use x="290.576172" xlink:href="#DejaVuSans-48"/>
       <use x="354.199219" xlink:href="#DejaVuSans-53"/>
       <use x="417.822266" xlink:href="#DejaVuSans-45"/>
       <use x="453.90625" xlink:href="#DejaVuSans-48"/>
       <use x="517.529297" xlink:href="#DejaVuSans-49"/>
      </g>
     </g>
    </g>
    <g id="xtick_7">
     <g id="line2d_7">
      <g>
       <use style="stroke:#000000;stroke-width:0.8;" x="344.921713" xlink:href="#m1f95fbb16a" y="276.100464"/>
      </g>
     </g>
     <g id="text_7">
      <!-- 2013-09-01 -->
      <g transform="translate(293.552262 318.738716)rotate(-30)scale(0.1 -0.1)">
       <use xlink:href="#DejaVuSans-50"/>
       <use x="63.623047" xlink:href="#DejaVuSans-48"/>
       <use x="127.246094" xlink:href="#DejaVuSans-49"/>
       <use x="190.869141" xlink:href="#DejaVuSans-51"/>
       <use x="254.492188" xlink:href="#DejaVuSans-45"/>
       <use x="290.576172" xlink:href="#DejaVuSans-48"/>
       <use x="354.199219" xlink:href="#DejaVuSans-57"/>
       <use x="417.822266" xlink:href="#DejaVuSans-45"/>
       <use x="453.90625" xlink:href="#DejaVuSans-48"/>
       <use x="517.529297" xlink:href="#DejaVuSans-49"/>
      </g>
     </g>
    </g>
    <g id="xtick_8">
     <g id="line2d_8">
      <g>
       <use style="stroke:#000000;stroke-width:0.8;" x="387.370558" xlink:href="#m1f95fbb16a" y="276.100464"/>
      </g>
     </g>
     <g id="text_8">
      <!-- 2014-01-01 -->
      <g transform="translate(336.001106 318.738716)rotate(-30)scale(0.1 -0.1)">
       <defs>
        <path d="M 37.796875 64.3125 
L 12.890625 25.390625 
L 37.796875 25.390625 
z
M 35.203125 72.90625 
L 47.609375 72.90625 
L 47.609375 25.390625 
L 58.015625 25.390625 
L 58.015625 17.1875 
L 47.609375 17.1875 
L 47.609375 0 
L 37.796875 0 
L 37.796875 17.1875 
L 4.890625 17.1875 
L 4.890625 26.703125 
z
" id="DejaVuSans-52"/>
       </defs>
       <use xlink:href="#DejaVuSans-50"/>
       <use x="63.623047" xlink:href="#DejaVuSans-48"/>
       <use x="127.246094" xlink:href="#DejaVuSans-49"/>
       <use x="190.869141" xlink:href="#DejaVuSans-52"/>
       <use x="254.492188" xlink:href="#DejaVuSans-45"/>
       <use x="290.576172" xlink:href="#DejaVuSans-48"/>
       <use x="354.199219" xlink:href="#DejaVuSans-49"/>
       <use x="417.822266" xlink:href="#DejaVuSans-45"/>
       <use x="453.90625" xlink:href="#DejaVuSans-48"/>
       <use x="517.529297" xlink:href="#DejaVuSans-49"/>
      </g>
     </g>
    </g>
    <g id="xtick_9">
     <g id="line2d_9">
      <g>
       <use style="stroke:#000000;stroke-width:0.8;" x="429.123519" xlink:href="#m1f95fbb16a" y="276.100464"/>
      </g>
     </g>
     <g id="text_9">
      <!-- 2014-05-01 -->
      <g transform="translate(377.754068 318.738716)rotate(-30)scale(0.1 -0.1)">
       <use xlink:href="#DejaVuSans-50"/>
       <use x="63.623047" xlink:href="#DejaVuSans-48"/>
       <use x="127.246094" xlink:href="#DejaVuSans-49"/>
       <use x="190.869141" xlink:href="#DejaVuSans-52"/>
       <use x="254.492188" xlink:href="#DejaVuSans-45"/>
       <use x="290.576172" xlink:href="#DejaVuSans-48"/>
       <use x="354.199219" xlink:href="#DejaVuSans-53"/>
       <use x="417.822266" xlink:href="#DejaVuSans-45"/>
       <use x="453.90625" xlink:href="#DejaVuSans-48"/>
       <use x="517.529297" xlink:href="#DejaVuSans-49"/>
      </g>
     </g>
    </g>
    <g id="text_10">
     <!-- Date [YYYY-MM-DD] -->
     <g transform="translate(205.109803 332.138216)scale(0.1 -0.1)">
      <defs>
       <path d="M 19.671875 64.796875 
L 19.671875 8.109375 
L 31.59375 8.109375 
Q 46.6875 8.109375 53.6875 14.9375 
Q 60.6875 21.78125 60.6875 36.53125 
Q 60.6875 51.171875 53.6875 57.984375 
Q 46.6875 64.796875 31.59375 64.796875 
z
M 9.8125 72.90625 
L 30.078125 72.90625 
Q 51.265625 72.90625 61.171875 64.09375 
Q 71.09375 55.28125 71.09375 36.53125 
Q 71.09375 17.671875 61.125 8.828125 
Q 51.171875 0 30.078125 0 
L 9.8125 0 
z
" id="DejaVuSans-68"/>
       <path d="M 34.28125 27.484375 
Q 23.390625 27.484375 19.1875 25 
Q 14.984375 22.515625 14.984375 16.5 
Q 14.984375 11.71875 18.140625 8.90625 
Q 21.296875 6.109375 26.703125 6.109375 
Q 34.1875 6.109375 38.703125 11.40625 
Q 43.21875 16.703125 43.21875 25.484375 
L 43.21875 27.484375 
z
M 52.203125 31.203125 
L 52.203125 0 
L 43.21875 0 
L 43.21875 8.296875 
Q 40.140625 3.328125 35.546875 0.953125 
Q 30.953125 -1.421875 24.3125 -1.421875 
Q 15.921875 -1.421875 10.953125 3.296875 
Q 6 8.015625 6 15.921875 
Q 6 25.140625 12.171875 29.828125 
Q 18.359375 34.515625 30.609375 34.515625 
L 43.21875 34.515625 
L 43.21875 35.40625 
Q 43.21875 41.609375 39.140625 45 
Q 35.0625 48.390625 27.6875 48.390625 
Q 23 48.390625 18.546875 47.265625 
Q 14.109375 46.140625 10.015625 43.890625 
L 10.015625 52.203125 
Q 14.9375 54.109375 19.578125 55.046875 
Q 24.21875 56 28.609375 56 
Q 40.484375 56 46.34375 49.84375 
Q 52.203125 43.703125 52.203125 31.203125 
z
" id="DejaVuSans-97"/>
       <path d="M 18.3125 70.21875 
L 18.3125 54.6875 
L 36.8125 54.6875 
L 36.8125 47.703125 
L 18.3125 47.703125 
L 18.3125 18.015625 
Q 18.3125 11.328125 20.140625 9.421875 
Q 21.96875 7.515625 27.59375 7.515625 
L 36.8125 7.515625 
L 36.8125 0 
L 27.59375 0 
Q 17.1875 0 13.234375 3.875 
Q 9.28125 7.765625 9.28125 18.015625 
L 9.28125 47.703125 
L 2.6875 47.703125 
L 2.6875 54.6875 
L 9.28125 54.6875 
L 9.28125 70.21875 
z
" id="DejaVuSans-116"/>
       <path d="M 56.203125 29.59375 
L 56.203125 25.203125 
L 14.890625 25.203125 
Q 15.484375 15.921875 20.484375 11.0625 
Q 25.484375 6.203125 34.421875 6.203125 
Q 39.59375 6.203125 44.453125 7.46875 
Q 49.3125 8.734375 54.109375 11.28125 
L 54.109375 2.78125 
Q 49.265625 0.734375 44.1875 -0.34375 
Q 39.109375 -1.421875 33.890625 -1.421875 
Q 20.796875 -1.421875 13.15625 6.1875 
Q 5.515625 13.8125 5.515625 26.8125 
Q 5.515625 40.234375 12.765625 48.109375 
Q 20.015625 56 32.328125 56 
Q 43.359375 56 49.78125 48.890625 
Q 56.203125 41.796875 56.203125 29.59375 
z
M 47.21875 32.234375 
Q 47.125 39.59375 43.09375 43.984375 
Q 39.0625 48.390625 32.421875 48.390625 
Q 24.90625 48.390625 20.390625 44.140625 
Q 15.875 39.890625 15.1875 32.171875 
z
" id="DejaVuSans-101"/>
       <path id="DejaVuSans-32"/>
       <path d="M 8.59375 75.984375 
L 29.296875 75.984375 
L 29.296875 69 
L 17.578125 69 
L 17.578125 -6.203125 
L 29.296875 -6.203125 
L 29.296875 -13.1875 
L 8.59375 -13.1875 
z
" id="DejaVuSans-91"/>
       <path d="M -0.203125 72.90625 
L 10.40625 72.90625 
L 30.609375 42.921875 
L 50.6875 72.90625 
L 61.28125 72.90625 
L 35.5 34.71875 
L 35.5 0 
L 25.59375 0 
L 25.59375 34.71875 
z
" id="DejaVuSans-89"/>
       <path d="M 9.8125 72.90625 
L 24.515625 72.90625 
L 43.109375 23.296875 
L 61.8125 72.90625 
L 76.515625 72.90625 
L 76.515625 0 
L 66.890625 0 
L 66.890625 64.015625 
L 48.09375 14.015625 
L 38.1875 14.015625 
L 19.390625 64.015625 
L 19.390625 0 
L 9.8125 0 
z
" id="DejaVuSans-77"/>
       <path d="M 30.421875 75.984375 
L 30.421875 -13.1875 
L 9.71875 -13.1875 
L 9.71875 -6.203125 
L 21.390625 -6.203125 
L 21.390625 69 
L 9.71875 69 
L 9.71875 75.984375 
z
" id="DejaVuSans-93"/>
      </defs>
      <use xlink:href="#DejaVuSans-68"/>
      <use x="77.001953" xlink:href="#DejaVuSans-97"/>
      <use x="138.28125" xlink:href="#DejaVuSans-116"/>
      <use x="177.490234" xlink:href="#DejaVuSans-101"/>
      <use x="239.013672" xlink:href="#DejaVuSans-32"/>
      <use x="270.800781" xlink:href="#DejaVuSans-91"/>
      <use x="309.814453" xlink:href="#DejaVuSans-89"/>
      <use x="370.898438" xlink:href="#DejaVuSans-89"/>
      <use x="431.982422" xlink:href="#DejaVuSans-89"/>
      <use x="493.066406" xlink:href="#DejaVuSans-89"/>
      <use x="542.275391" xlink:href="#DejaVuSans-45"/>
      <use x="578.359375" xlink:href="#DejaVuSans-77"/>
      <use x="664.638672" xlink:href="#DejaVuSans-77"/>
      <use x="750.917969" xlink:href="#DejaVuSans-45"/>
      <use x="787.001953" xlink:href="#DejaVuSans-68"/>
      <use x="864.003906" xlink:href="#DejaVuSans-68"/>
      <use x="941.005859" xlink:href="#DejaVuSans-93"/>
     </g>
    </g>
   </g>
   <g id="matplotlib.axis_2">
    <g id="ytick_1">
     <g id="line2d_10">
      <defs>
       <path d="M 0 0 
L -3.5 0 
" id="m2a3fad54c3" style="stroke:#000000;stroke-width:0.8;"/>
      </defs>
      <g>
       <use style="stroke:#000000;stroke-width:0.8;" x="58.218044" xlink:href="#m2a3fad54c3" y="264.783251"/>
      </g>
     </g>
     <g id="text_11">
      <!-- 0.0 -->
      <g transform="translate(35.314919 268.58247)scale(0.1 -0.1)">
       <defs>
        <path d="M 10.6875 12.40625 
L 21 12.40625 
L 21 0 
L 10.6875 0 
z
" id="DejaVuSans-46"/>
       </defs>
       <use xlink:href="#DejaVuSans-48"/>
       <use x="63.623047" xlink:href="#DejaVuSans-46"/>
       <use x="95.410156" xlink:href="#DejaVuSans-48"/>
      </g>
     </g>
    </g>
    <g id="ytick_2">
     <g id="line2d_11">
      <g>
       <use style="stroke:#000000;stroke-width:0.8;" x="58.218044" xlink:href="#m2a3fad54c3" y="236.32982"/>
      </g>
     </g>
     <g id="text_12">
      <!-- 0.2 -->
      <g transform="translate(35.314919 240.129039)scale(0.1 -0.1)">
       <use xlink:href="#DejaVuSans-48"/>
       <use x="63.623047" xlink:href="#DejaVuSans-46"/>
       <use x="95.410156" xlink:href="#DejaVuSans-50"/>
      </g>
     </g>
    </g>
    <g id="ytick_3">
     <g id="line2d_12">
      <g>
       <use style="stroke:#000000;stroke-width:0.8;" x="58.218044" xlink:href="#m2a3fad54c3" y="207.876388"/>
      </g>
     </g>
     <g id="text_13">
      <!-- 0.4 -->
      <g transform="translate(35.314919 211.675607)scale(0.1 -0.1)">
       <use xlink:href="#DejaVuSans-48"/>
       <use x="63.623047" xlink:href="#DejaVuSans-46"/>
       <use x="95.410156" xlink:href="#DejaVuSans-52"/>
      </g>
     </g>
    </g>
    <g id="ytick_4">
     <g id="line2d_13">
      <g>
       <use style="stroke:#000000;stroke-width:0.8;" x="58.218044" xlink:href="#m2a3fad54c3" y="179.422957"/>
      </g>
     </g>
     <g id="text_14">
      <!-- 0.6 -->
      <g transform="translate(35.314919 183.222176)scale(0.1 -0.1)">
       <defs>
        <path d="M 33.015625 40.375 
Q 26.375 40.375 22.484375 35.828125 
Q 18.609375 31.296875 18.609375 23.390625 
Q 18.609375 15.53125 22.484375 10.953125 
Q 26.375 6.390625 33.015625 6.390625 
Q 39.65625 6.390625 43.53125 10.953125 
Q 47.40625 15.53125 47.40625 23.390625 
Q 47.40625 31.296875 43.53125 35.828125 
Q 39.65625 40.375 33.015625 40.375 
z
M 52.59375 71.296875 
L 52.59375 62.3125 
Q 48.875 64.0625 45.09375 64.984375 
Q 41.3125 65.921875 37.59375 65.921875 
Q 27.828125 65.921875 22.671875 59.328125 
Q 17.53125 52.734375 16.796875 39.40625 
Q 19.671875 43.65625 24.015625 45.921875 
Q 28.375 48.1875 33.59375 48.1875 
Q 44.578125 48.1875 50.953125 41.515625 
Q 57.328125 34.859375 57.328125 23.390625 
Q 57.328125 12.15625 50.6875 5.359375 
Q 44.046875 -1.421875 33.015625 -1.421875 
Q 20.359375 -1.421875 13.671875 8.265625 
Q 6.984375 17.96875 6.984375 36.375 
Q 6.984375 53.65625 15.1875 63.9375 
Q 23.390625 74.21875 37.203125 74.21875 
Q 40.921875 74.21875 44.703125 73.484375 
Q 48.484375 72.75 52.59375 71.296875 
z
" id="DejaVuSans-54"/>
       </defs>
       <use xlink:href="#DejaVuSans-48"/>
       <use x="63.623047" xlink:href="#DejaVuSans-46"/>
       <use x="95.410156" xlink:href="#DejaVuSans-54"/>
      </g>
     </g>
    </g>
    <g id="ytick_5">
     <g id="line2d_14">
      <g>
       <use style="stroke:#000000;stroke-width:0.8;" x="58.218044" xlink:href="#m2a3fad54c3" y="150.969526"/>
      </g>
     </g>
     <g id="text_15">
      <!-- 0.8 -->
      <g transform="translate(35.314919 154.768744)scale(0.1 -0.1)">
       <defs>
        <path d="M 31.78125 34.625 
Q 24.75 34.625 20.71875 30.859375 
Q 16.703125 27.09375 16.703125 20.515625 
Q 16.703125 13.921875 20.71875 10.15625 
Q 24.75 6.390625 31.78125 6.390625 
Q 38.8125 6.390625 42.859375 10.171875 
Q 46.921875 13.96875 46.921875 20.515625 
Q 46.921875 27.09375 42.890625 30.859375 
Q 38.875 34.625 31.78125 34.625 
z
M 21.921875 38.8125 
Q 15.578125 40.375 12.03125 44.71875 
Q 8.5 49.078125 8.5 55.328125 
Q 8.5 64.0625 14.71875 69.140625 
Q 20.953125 74.21875 31.78125 74.21875 
Q 42.671875 74.21875 48.875 69.140625 
Q 55.078125 64.0625 55.078125 55.328125 
Q 55.078125 49.078125 51.53125 44.71875 
Q 48 40.375 41.703125 38.8125 
Q 48.828125 37.15625 52.796875 32.3125 
Q 56.78125 27.484375 56.78125 20.515625 
Q 56.78125 9.90625 50.3125 4.234375 
Q 43.84375 -1.421875 31.78125 -1.421875 
Q 19.734375 -1.421875 13.25 4.234375 
Q 6.78125 9.90625 6.78125 20.515625 
Q 6.78125 27.484375 10.78125 32.3125 
Q 14.796875 37.15625 21.921875 38.8125 
z
M 18.3125 54.390625 
Q 18.3125 48.734375 21.84375 45.5625 
Q 25.390625 42.390625 31.78125 42.390625 
Q 38.140625 42.390625 41.71875 45.5625 
Q 45.3125 48.734375 45.3125 54.390625 
Q 45.3125 60.0625 41.71875 63.234375 
Q 38.140625 66.40625 31.78125 66.40625 
Q 25.390625 66.40625 21.84375 63.234375 
Q 18.3125 60.0625 18.3125 54.390625 
z
" id="DejaVuSans-56"/>
       </defs>
       <use xlink:href="#DejaVuSans-48"/>
       <use x="63.623047" xlink:href="#DejaVuSans-46"/>
       <use x="95.410156" xlink:href="#DejaVuSans-56"/>
      </g>
     </g>
    </g>
    <g id="ytick_6">
     <g id="line2d_15">
      <g>
       <use style="stroke:#000000;stroke-width:0.8;" x="58.218044" xlink:href="#m2a3fad54c3" y="122.516094"/>
      </g>
     </g>
     <g id="text_16">
      <!-- 1.0 -->
      <g transform="translate(35.314919 126.315313)scale(0.1 -0.1)">
       <use xlink:href="#DejaVuSans-49"/>
       <use x="63.623047" xlink:href="#DejaVuSans-46"/>
       <use x="95.410156" xlink:href="#DejaVuSans-48"/>
      </g>
     </g>
    </g>
    <g id="ytick_7">
     <g id="line2d_16">
      <g>
       <use style="stroke:#000000;stroke-width:0.8;" x="58.218044" xlink:href="#m2a3fad54c3" y="94.062663"/>
      </g>
     </g>
     <g id="text_17">
      <!-- 1.2 -->
      <g transform="translate(35.314919 97.861881)scale(0.1 -0.1)">
       <use xlink:href="#DejaVuSans-49"/>
       <use x="63.623047" xlink:href="#DejaVuSans-46"/>
       <use x="95.410156" xlink:href="#DejaVuSans-50"/>
      </g>
     </g>
    </g>
    <g id="ytick_8">
     <g id="line2d_17">
      <g>
       <use style="stroke:#000000;stroke-width:0.8;" x="58.218044" xlink:href="#m2a3fad54c3" y="65.609231"/>
      </g>
     </g>
     <g id="text_18">
      <!-- 1.4 -->
      <g transform="translate(35.314919 69.40845)scale(0.1 -0.1)">
       <use xlink:href="#DejaVuSans-49"/>
       <use x="63.623047" xlink:href="#DejaVuSans-46"/>
       <use x="95.410156" xlink:href="#DejaVuSans-52"/>
      </g>
     </g>
    </g>
    <g id="ytick_9">
     <g id="line2d_18">
      <g>
       <use style="stroke:#000000;stroke-width:0.8;" x="58.218044" xlink:href="#m2a3fad54c3" y="37.1558"/>
      </g>
     </g>
     <g id="text_19">
      <!-- 1.6 -->
      <g transform="translate(35.314919 40.955019)scale(0.1 -0.1)">
       <use xlink:href="#DejaVuSans-49"/>
       <use x="63.623047" xlink:href="#DejaVuSans-46"/>
       <use x="95.410156" xlink:href="#DejaVuSans-54"/>
      </g>
     </g>
    </g>
    <g id="text_20">
     <!-- Sales -->
     <g transform="translate(29.235232 164.798826)rotate(-90)scale(0.1 -0.1)">
      <defs>
       <path d="M 53.515625 70.515625 
L 53.515625 60.890625 
Q 47.90625 63.578125 42.921875 64.890625 
Q 37.9375 66.21875 33.296875 66.21875 
Q 25.25 66.21875 20.875 63.09375 
Q 16.5 59.96875 16.5 54.203125 
Q 16.5 49.359375 19.40625 46.890625 
Q 22.3125 44.4375 30.421875 42.921875 
L 36.375 41.703125 
Q 47.40625 39.59375 52.65625 34.296875 
Q 57.90625 29 57.90625 20.125 
Q 57.90625 9.515625 50.796875 4.046875 
Q 43.703125 -1.421875 29.984375 -1.421875 
Q 24.8125 -1.421875 18.96875 -0.25 
Q 13.140625 0.921875 6.890625 3.21875 
L 6.890625 13.375 
Q 12.890625 10.015625 18.65625 8.296875 
Q 24.421875 6.59375 29.984375 6.59375 
Q 38.421875 6.59375 43.015625 9.90625 
Q 47.609375 13.234375 47.609375 19.390625 
Q 47.609375 24.75 44.3125 27.78125 
Q 41.015625 30.8125 33.5 32.328125 
L 27.484375 33.5 
Q 16.453125 35.6875 11.515625 40.375 
Q 6.59375 45.0625 6.59375 53.421875 
Q 6.59375 63.09375 13.40625 68.65625 
Q 20.21875 74.21875 32.171875 74.21875 
Q 37.3125 74.21875 42.625 73.28125 
Q 47.953125 72.359375 53.515625 70.515625 
z
" id="DejaVuSans-83"/>
       <path d="M 9.421875 75.984375 
L 18.40625 75.984375 
L 18.40625 0 
L 9.421875 0 
z
" id="DejaVuSans-108"/>
       <path d="M 44.28125 53.078125 
L 44.28125 44.578125 
Q 40.484375 46.53125 36.375 47.5 
Q 32.28125 48.484375 27.875 48.484375 
Q 21.1875 48.484375 17.84375 46.4375 
Q 14.5 44.390625 14.5 40.28125 
Q 14.5 37.15625 16.890625 35.375 
Q 19.28125 33.59375 26.515625 31.984375 
L 29.59375 31.296875 
Q 39.15625 29.25 43.1875 25.515625 
Q 47.21875 21.78125 47.21875 15.09375 
Q 47.21875 7.46875 41.1875 3.015625 
Q 35.15625 -1.421875 24.609375 -1.421875 
Q 20.21875 -1.421875 15.453125 -0.5625 
Q 10.6875 0.296875 5.421875 2 
L 5.421875 11.28125 
Q 10.40625 8.6875 15.234375 7.390625 
Q 20.0625 6.109375 24.8125 6.109375 
Q 31.15625 6.109375 34.5625 8.28125 
Q 37.984375 10.453125 37.984375 14.40625 
Q 37.984375 18.0625 35.515625 20.015625 
Q 33.0625 21.96875 24.703125 23.78125 
L 21.578125 24.515625 
Q 13.234375 26.265625 9.515625 29.90625 
Q 5.8125 33.546875 5.8125 39.890625 
Q 5.8125 47.609375 11.28125 51.796875 
Q 16.75 56 26.8125 56 
Q 31.78125 56 36.171875 55.265625 
Q 40.578125 54.546875 44.28125 53.078125 
z
" id="DejaVuSans-115"/>
      </defs>
      <use xlink:href="#DejaVuSans-83"/>
      <use x="63.476562" xlink:href="#DejaVuSans-97"/>
      <use x="124.755859" xlink:href="#DejaVuSans-108"/>
      <use x="152.539062" xlink:href="#DejaVuSans-101"/>
      <use x="214.0625" xlink:href="#DejaVuSans-115"/>
     </g>
    </g>
    <g id="text_21">
     <!-- 1e7 -->
     <g transform="translate(58.218044 23.88)scale(0.1 -0.1)">
      <defs>
       <path d="M 8.203125 72.90625 
L 55.078125 72.90625 
L 55.078125 68.703125 
L 28.609375 0 
L 18.3125 0 
L 43.21875 64.59375 
L 8.203125 64.59375 
z
" id="DejaVuSans-55"/>
      </defs>
      <use xlink:href="#DejaVuSans-49"/>
      <use x="63.623047" xlink:href="#DejaVuSans-101"/>
      <use x="125.146484" xlink:href="#DejaVuSans-55"/>
     </g>
    </g>
   </g>
   <g id="line2d_19">
    <path clip-path="url(#pd9dbd2e789)" d="M 58.218044 242.625239 
L 58.565985 264.181432 
L 58.913927 264.132412 
L 59.261868 264.475945 
L 59.60981 264.138619 
L 59.957751 264.168639 
L 60.305692 264.448939 
L 60.653634 264.451162 
L 61.001575 263.897601 
L 61.349516 264.334511 
L 61.697458 264.170867 
L 62.045399 264.178494 
L 62.39334 264.477059 
L 62.741282 263.703309 
L 63.089223 264.302979 
L 63.437164 264.164499 
L 63.785106 264.15954 
L 64.133047 264.476345 
L 64.480988 263.654687 
L 64.82893 264.286445 
L 65.176871 264.151921 
L 65.524812 263.113433 
L 65.872754 264.130454 
L 66.220695 264.316453 
L 66.568636 264.281505 
L 66.916578 264.013785 
L 67.264519 263.552735 
L 67.61246 263.906098 
L 68.656285 264.133852 
L 69.004226 196.78103 
L 69.352167 264.323001 
L 69.700109 264.301743 
L 70.04805 264.03468 
L 70.395991 264.10981 
L 70.743933 263.684349 
L 71.091874 264.162294 
L 71.439815 264.296566 
L 71.787757 264.181943 
L 72.135698 263.871418 
L 72.483639 263.99226 
L 72.831581 263.803145 
L 73.179522 264.245795 
L 73.527463 264.146273 
L 73.875405 263.835819 
L 74.571287 264.622679 
L 74.919229 263.821987 
L 75.26717 264.02013 
L 75.963053 263.547225 
L 76.658935 264.326286 
L 77.006877 263.526293 
L 77.354818 264.447881 
L 77.70276 263.709832 
L 78.050701 264.472244 
L 78.398642 264.469589 
L 78.746584 263.908959 
L 79.094525 263.692171 
L 79.442466 263.861482 
L 79.790408 212.44466 
L 80.138349 263.189568 
L 80.48629 264.27543 
L 80.834232 263.846042 
L 81.182173 264.301079 
L 81.530114 263.787506 
L 82.225997 264.305889 
L 82.573938 263.674492 
L 82.92188 264.302547 
L 83.617762 264.463075 
L 83.965704 264.40007 
L 84.313645 263.962362 
L 84.661586 264.12654 
L 85.70541 263.975412 
L 86.053352 263.606734 
L 86.401293 264.45395 
L 86.749235 263.756773 
L 87.445117 263.782592 
L 87.793059 264.296843 
L 88.141 264.297687 
L 88.488941 264.102724 
L 88.836883 263.552714 
L 89.184824 264.589351 
L 89.532765 264.751756 
L 89.880707 263.165717 
L 90.228648 225.439602 
L 90.576589 264.30319 
L 90.924531 264.124492 
L 91.272472 264.453872 
L 91.620413 263.624013 
L 91.968355 264.425386 
L 92.316296 264.249439 
L 92.664237 263.218398 
L 93.012179 263.410546 
L 93.36012 263.907178 
L 93.708061 263.411396 
L 94.056003 262.69936 
L 94.403944 263.872261 
L 94.751885 264.242639 
L 95.099827 264.436338 
L 95.447768 263.872558 
L 95.79571 264.261634 
L 96.143651 263.374254 
L 96.491592 264.039712 
L 96.839534 263.707697 
L 97.187475 264.242099 
L 97.535416 264.214853 
L 97.883358 264.006412 
L 98.57924 264.596657 
L 98.927182 264.410062 
L 99.275123 263.236701 
L 99.623064 264.014767 
L 99.971006 263.564343 
L 100.318947 263.661416 
L 100.666888 264.437598 
L 101.01483 142.414143 
L 101.362771 264.233543 
L 102.406595 263.643613 
L 102.754536 263.882288 
L 103.102478 263.428209 
L 103.450419 263.316507 
L 103.79836 264.049879 
L 104.146302 263.69311 
L 104.494243 263.705368 
L 104.842185 263.832528 
L 105.190126 263.415038 
L 105.538067 263.377792 
L 105.886009 264.024882 
L 106.23395 263.568304 
L 106.581891 264.230367 
L 106.929833 264.255716 
L 107.277774 263.86713 
L 107.625715 264.042176 
L 107.973657 263.722174 
L 108.321598 264.568284 
L 108.669539 264.208618 
L 109.017481 263.55508 
L 109.365422 264.262644 
L 109.713363 263.862717 
L 110.061305 264.399393 
L 110.409246 263.747285 
L 110.757187 263.926501 
L 111.105129 263.893024 
L 111.45307 179.267662 
L 111.801011 263.53745 
L 112.148953 262.997198 
L 112.496894 264.041686 
L 112.844835 263.744024 
L 113.192777 263.900512 
L 113.540718 263.732761 
L 113.88866 262.001183 
L 114.236601 263.901066 
L 114.584542 264.42408 
L 114.932484 262.935794 
L 115.280425 264.058429 
L 115.628366 262.849225 
L 115.976308 263.887518 
L 116.324249 262.778964 
L 116.67219 263.660102 
L 117.020132 264.207323 
L 117.368073 263.670638 
L 117.716014 262.670496 
L 118.063956 263.306291 
L 118.411897 263.396225 
L 118.759838 263.633746 
L 119.10778 263.452413 
L 119.455721 263.999946 
L 119.803662 263.778517 
L 120.151604 263.417906 
L 120.499545 264.018198 
L 120.847486 263.341834 
L 121.195428 263.288007 
L 121.89131 263.589695 
L 122.239252 225.998438 
L 122.587193 264.035434 
L 122.935135 263.318172 
L 123.631017 264.37231 
L 123.978959 263.66566 
L 124.3269 264.335282 
L 124.674841 263.453035 
L 125.022783 263.830478 
L 125.370724 264.031858 
L 125.718665 263.099405 
L 126.066607 263.43984 
L 126.414548 264.35612 
L 126.762489 263.041878 
L 127.110431 263.604633 
L 127.458372 263.442118 
L 127.806313 263.404108 
L 128.154255 263.929013 
L 129.198079 263.47154 
L 129.54602 263.095188 
L 129.893961 264.209816 
L 130.241903 263.417414 
L 130.589844 264.480072 
L 130.937785 263.847907 
L 131.285727 263.995327 
L 131.633668 263.963909 
L 131.98161 264.179411 
L 132.329551 263.324922 
L 132.677492 263.614116 
L 133.025434 159.719196 
L 133.373375 263.776328 
L 133.721316 263.444494 
L 134.069258 263.897865 
L 134.76514 263.454833 
L 135.113082 263.620262 
L 135.461023 264.005108 
L 135.808964 264.190071 
L 136.156906 262.830797 
L 136.504847 262.584174 
L 136.852788 264.204698 
L 137.20073 263.452317 
L 137.896612 263.624803 
L 138.244554 264.363267 
L 138.592495 264.013383 
L 138.940436 264.400736 
L 139.288378 263.799006 
L 139.636319 263.99178 
L 139.984261 264.594598 
L 140.332202 262.916835 
L 140.680143 263.84516 
L 141.028085 263.263307 
L 141.376026 264.303329 
L 141.723967 262.76363 
L 142.071909 264.240479 
L 142.41985 263.888909 
L 142.767791 188.866416 
L 143.115733 263.662039 
L 143.811615 263.501751 
L 144.159557 264.243989 
L 144.507498 263.323958 
L 144.855439 263.343061 
L 145.203381 264.086997 
L 145.551322 263.845591 
L 145.899263 264.425419 
L 146.247205 263.750325 
L 146.595146 264.048985 
L 146.943087 263.182659 
L 147.291029 264.222285 
L 147.63897 263.307137 
L 147.986911 263.893256 
L 148.334853 263.496787 
L 148.682794 263.645093 
L 149.030736 264.199038 
L 149.378677 263.191637 
L 149.726618 264.067947 
L 150.07456 263.739523 
L 150.422501 263.904619 
L 150.770442 262.686676 
L 151.118384 263.90359 
L 151.466325 263.487434 
L 151.814266 264.258367 
L 152.162208 263.38356 
L 152.85809 264.081763 
L 153.206032 264.104822 
L 153.553973 220.727196 
L 153.901914 264.270669 
L 154.249856 263.362979 
L 155.29368 264.052063 
L 155.641621 263.49145 
L 155.989562 264.249457 
L 156.337504 263.905153 
L 156.685445 264.058627 
L 157.033386 263.761324 
L 157.381328 262.983821 
L 157.729269 264.098076 
L 158.077211 264.396861 
L 158.425152 262.484182 
L 158.773093 263.570918 
L 159.121035 263.196744 
L 159.816917 264.223795 
L 160.164859 263.146648 
L 160.5128 264.063624 
L 160.860741 264.090567 
L 161.208683 263.153448 
L 161.556624 264.22858 
L 161.904565 263.681479 
L 162.252507 264.07634 
L 162.600448 263.206212 
L 162.948389 263.985088 
L 163.296331 262.877516 
L 163.644272 262.810633 
L 163.992213 149.560097 
L 164.340155 263.905969 
L 164.688096 264.188323 
L 165.036037 262.882602 
L 165.383979 264.210745 
L 165.73192 263.645079 
L 166.079861 264.054654 
L 166.427803 263.156721 
L 167.123686 264.400532 
L 167.471627 264.08649 
L 167.819568 263.178242 
L 168.16751 262.767827 
L 168.515451 263.729686 
L 168.863392 263.676229 
L 169.211334 263.26934 
L 169.559275 263.20304 
L 169.907216 263.339237 
L 170.255158 264.015164 
L 170.603099 263.715456 
L 171.298982 263.719184 
L 171.646923 263.550316 
L 171.994864 263.641006 
L 172.342806 263.328493 
L 172.690747 263.849624 
L 173.038688 264.045846 
L 173.38663 264.047615 
L 173.734571 264.605123 
L 174.082512 263.689798 
L 174.430454 264.402312 
L 174.778395 211.506468 
L 175.126336 262.807755 
L 175.474278 264.40319 
L 175.822219 263.701174 
L 176.170161 263.86017 
L 176.518102 263.546622 
L 176.866043 263.520511 
L 177.213985 263.340953 
L 177.561926 263.894591 
L 177.909867 263.490798 
L 178.257809 263.871717 
L 178.60575 263.036082 
L 178.953691 264.362265 
L 179.301633 264.064375 
L 179.649574 263.957763 
L 179.997515 264.405472 
L 181.041339 262.599073 
L 181.389281 263.603971 
L 181.737222 263.206956 
L 182.085163 263.838497 
L 182.433105 262.430002 
L 182.781046 263.591965 
L 183.128987 263.8148 
L 183.82487 263.043166 
L 184.172811 263.978007 
L 184.520753 263.251186 
L 184.868694 263.789305 
L 185.216636 128.980241 
L 185.564577 264.562771 
L 185.912518 263.185941 
L 186.26046 263.864741 
L 186.608401 263.592172 
L 186.956342 263.53216 
L 188.000166 264.180075 
L 188.348108 264.245611 
L 188.696049 263.708997 
L 189.04399 263.833848 
L 189.391932 263.555657 
L 189.739873 263.591426 
L 190.087814 264.356309 
L 190.435756 264.149624 
L 190.783697 263.43768 
L 191.131638 264.199014 
L 191.827521 263.756068 
L 192.175462 263.666912 
L 192.523404 263.938398 
L 192.871345 263.962549 
L 193.219286 264.181462 
L 193.567228 263.873523 
L 193.915169 264.267693 
L 194.263111 263.768536 
L 194.611052 264.267919 
L 195.654876 263.729454 
L 196.002817 68.187192 
L 196.350759 264.056242 
L 196.6987 264.15461 
L 197.046641 263.788505 
L 197.394583 263.94677 
L 197.742524 263.500429 
L 198.090465 263.539559 
L 198.438407 263.929631 
L 198.786348 263.997586 
L 199.134289 264.380777 
L 199.482231 264.326895 
L 199.830172 263.712858 
L 200.178113 263.356764 
L 200.526055 263.79583 
L 200.873996 263.561695 
L 201.221937 264.265815 
L 201.569879 263.797792 
L 201.91782 263.907502 
L 202.265761 263.523783 
L 203.309586 263.700456 
L 203.657527 264.192804 
L 204.005468 263.689747 
L 204.701351 263.646047 
L 205.745175 264.100953 
L 206.093116 263.973479 
L 206.441058 263.545408 
L 206.788999 109.620811 
L 207.13694 264.176203 
L 207.484882 263.898761 
L 207.832823 264.23245 
L 208.876647 264.617134 
L 209.224588 263.821854 
L 209.57253 263.955634 
L 209.920471 263.911048 
L 210.268412 263.981115 
L 210.616354 264.272683 
L 210.964295 263.819788 
L 211.312236 263.928823 
L 211.660178 264.323023 
L 212.356061 264.274784 
L 212.704002 263.818138 
L 213.399885 264.273042 
L 213.747826 264.218502 
L 214.095767 264.353957 
L 214.443709 264.341838 
L 214.79165 263.981546 
L 215.139591 264.301722 
L 215.487533 263.78847 
L 215.835474 264.525677 
L 216.183415 264.6371 
L 216.531357 264.117838 
L 216.879298 264.076 
L 217.227239 167.653641 
L 217.575181 264.115945 
L 217.923122 263.967824 
L 218.271063 264.11219 
L 218.619005 264.518846 
L 218.966946 264.145806 
L 219.314887 264.17473 
L 219.662829 264.064713 
L 220.01077 264.426896 
L 220.358711 264.343126 
L 220.706653 263.985628 
L 221.054594 263.876619 
L 221.402536 263.568645 
L 221.750477 264.154353 
L 222.098418 264.239636 
L 222.44636 264.113414 
L 222.794301 264.247602 
L 223.142242 264.141056 
L 223.490184 263.734132 
L 223.838125 264.072828 
L 224.186066 263.832508 
L 224.534008 264.13645 
L 224.881949 264.175858 
L 225.22989 263.872246 
L 225.577832 264.16392 
L 225.925773 264.000349 
L 226.273714 264.439392 
L 226.621656 264.238219 
L 226.969597 264.272839 
L 227.317538 263.615485 
L 227.66548 264.423974 
L 228.013421 108.741125 
L 228.361362 264.345932 
L 228.709304 264.256354 
L 229.057245 264.660736 
L 229.405186 264.399559 
L 229.753128 263.992323 
L 230.101069 264.436415 
L 230.449011 264.093268 
L 230.796952 264.413701 
L 231.492835 263.732578 
L 231.840776 264.24445 
L 232.188717 264.343654 
L 232.536659 264.221257 
L 232.8846 264.520267 
L 233.232541 264.020503 
L 233.580483 264.350254 
L 233.928424 264.231519 
L 234.276365 264.423768 
L 234.624307 263.966037 
L 234.972248 264.282703 
L 235.668131 264.435121 
L 236.016072 263.898841 
L 236.364013 263.974784 
L 236.711955 264.265826 
L 237.059896 264.091023 
L 237.407837 264.230602 
L 237.755779 264.231713 
L 238.10372 263.992266 
L 238.451661 151.587019 
L 238.799603 264.055216 
L 239.147544 263.302716 
L 239.495486 264.590664 
L 239.843427 263.770297 
L 240.191368 264.198325 
L 240.53931 263.330349 
L 241.235192 264.284074 
L 241.931075 263.509991 
L 242.279016 263.141302 
L 242.626958 263.64737 
L 242.974899 263.444536 
L 243.32284 264.297616 
L 243.670782 263.989058 
L 244.366664 263.766149 
L 244.714606 263.323633 
L 245.062547 263.508612 
L 245.410488 264.521589 
L 245.75843 263.77509 
L 246.454312 263.649753 
L 246.802254 264.179206 
L 247.150195 263.993787 
L 247.498136 263.985147 
L 248.194019 263.639516 
L 248.889902 264.222097 
L 249.237843 197.495096 
L 249.585785 263.804909 
L 249.933726 264.111958 
L 250.281667 263.86081 
L 250.629609 264.113279 
L 250.97755 264.567081 
L 251.325491 264.058243 
L 252.021374 263.872618 
L 252.717257 264.080636 
L 253.065198 264.123863 
L 253.413139 263.75153 
L 253.761081 264.175456 
L 254.456963 263.797243 
L 254.804905 264.240174 
L 255.152846 264.150355 
L 255.500787 264.323613 
L 255.848729 264.051025 
L 256.19667 264.187512 
L 256.892553 263.749436 
L 257.588436 264.478298 
L 257.936377 263.800311 
L 258.284318 264.527819 
L 258.63226 264.228536 
L 258.980201 264.12887 
L 259.328142 264.334486 
L 259.676084 263.934885 
L 260.024025 145.471698 
L 260.371966 263.827031 
L 260.719908 264.238483 
L 261.067849 263.279525 
L 261.41579 263.944304 
L 261.763732 263.656933 
L 262.111673 263.989006 
L 262.807556 263.76991 
L 263.503438 264.37468 
L 263.85138 263.880164 
L 264.199321 263.79457 
L 264.895204 263.882221 
L 265.243145 264.384875 
L 265.591086 263.5712 
L 265.939028 263.59787 
L 266.286969 263.85359 
L 266.634911 263.933239 
L 267.330793 263.724551 
L 267.678735 264.585713 
L 268.026676 263.818973 
L 268.374617 263.35019 
L 268.722559 264.289669 
L 269.0705 264.520297 
L 269.418441 264.157112 
L 269.766383 186.436646 
L 270.114324 263.81573 
L 270.462265 264.232898 
L 270.810207 264.20543 
L 271.158148 263.185631 
L 271.506089 264.307086 
L 271.854031 264.155665 
L 272.201972 263.60819 
L 272.549913 264.340537 
L 272.897855 264.320874 
L 273.245796 264.147229 
L 273.593737 263.167712 
L 273.941679 264.055074 
L 274.28962 263.973243 
L 274.637561 264.237052 
L 275.333444 263.881755 
L 275.681386 263.314355 
L 276.029327 263.801055 
L 276.377268 264.003626 
L 276.72521 264.364696 
L 277.073151 264.354263 
L 277.421092 264.151167 
L 277.769034 264.451984 
L 278.464916 264.214536 
L 278.812858 264.502167 
L 279.160799 263.563225 
L 279.50874 263.916547 
L 279.856682 263.738907 
L 280.204623 263.741826 
L 280.552564 169.138899 
L 280.900506 263.467861 
L 281.248447 264.37394 
L 281.596388 263.815613 
L 281.94433 263.964277 
L 282.292271 264.364455 
L 282.640212 263.845985 
L 282.988154 263.597116 
L 283.684036 264.169643 
L 284.031978 263.584241 
L 284.379919 264.151676 
L 284.727861 263.30937 
L 285.075802 264.097336 
L 285.423743 263.94103 
L 285.771685 264.086334 
L 286.119626 263.492513 
L 286.467567 263.655817 
L 286.815509 264.224878 
L 287.16345 264.089251 
L 287.511391 264.503543 
L 288.207274 264.266392 
L 288.555215 263.360132 
L 288.903157 263.596946 
L 289.251098 264.208909 
L 289.599039 263.784085 
L 290.294922 264.19024 
L 290.642863 263.902375 
L 290.990805 113.221147 
L 291.338746 263.662741 
L 291.686687 263.69165 
L 292.034629 263.9097 
L 292.730512 263.497287 
L 293.078453 263.92262 
L 293.426394 263.466035 
L 293.774336 264.145883 
L 294.122277 264.268486 
L 294.470218 263.8213 
L 294.81816 263.712611 
L 295.166101 264.205103 
L 295.514042 263.957128 
L 295.861984 263.996587 
L 296.209925 264.180494 
L 296.557866 264.127984 
L 296.905808 264.553798 
L 297.253749 264.121166 
L 298.297573 263.77169 
L 298.645514 263.718668 
L 298.993456 263.491174 
L 299.341397 264.219779 
L 299.689338 263.798407 
L 300.03728 263.870224 
L 300.385221 263.767452 
L 300.733162 264.018097 
L 301.081104 263.423535 
L 301.429045 263.464331 
L 301.776987 162.458152 
L 302.124928 263.681288 
L 302.472869 264.296041 
L 302.820811 264.138243 
L 303.168752 264.191029 
L 303.516693 263.757861 
L 303.864635 263.92019 
L 304.212576 263.223118 
L 304.560517 264.100799 
L 304.908459 263.575215 
L 305.2564 263.764215 
L 305.604341 263.72074 
L 306.300224 263.914694 
L 306.648165 263.518752 
L 306.996107 264.261469 
L 307.344048 263.891783 
L 307.691989 264.019805 
L 308.039931 263.578516 
L 308.387872 263.948786 
L 308.735813 263.535248 
L 309.083755 264.316913 
L 309.779637 263.78723 
L 310.47552 264.188425 
L 310.823462 263.336939 
L 311.519344 264.109055 
L 311.867286 263.773887 
L 312.215227 122.531382 
L 312.563168 263.483992 
L 313.259051 262.533632 
L 313.954934 264.130056 
L 314.302875 263.116183 
L 314.650816 263.382152 
L 314.998758 263.111189 
L 315.346699 263.668574 
L 315.69464 262.568647 
L 316.042582 263.630497 
L 316.390523 263.278009 
L 316.738464 263.417682 
L 317.086406 263.234236 
L 317.434347 263.58142 
L 317.782288 263.323637 
L 318.13023 263.944061 
L 318.478171 263.898641 
L 318.826112 262.641252 
L 319.174054 264.250625 
L 319.521995 263.279886 
L 319.869937 263.343551 
L 320.217878 262.402516 
L 320.565819 263.522816 
L 320.913761 262.84678 
L 321.261702 263.747463 
L 321.609643 263.650898 
L 321.957585 262.365595 
L 322.305526 263.67523 
L 322.653467 263.071564 
L 323.001409 38.208203 
L 323.34935 263.867283 
L 323.697291 262.957493 
L 324.393174 264.227578 
L 324.741115 263.1296 
L 325.089057 262.702044 
L 325.436998 262.637854 
L 325.784939 262.856532 
L 326.132881 264.294469 
L 326.828763 262.747328 
L 327.176705 263.366418 
L 327.524646 263.616464 
L 327.872587 264.316873 
L 328.220529 263.502641 
L 328.56847 263.201972 
L 328.916412 262.550555 
L 329.612294 263.621342 
L 329.960236 263.653897 
L 330.308177 263.939977 
L 330.656118 263.582248 
L 331.00406 262.851734 
L 331.352001 263.079691 
L 331.699942 263.093218 
L 332.047884 263.954449 
L 332.395825 263.300223 
L 332.743766 263.088344 
L 333.091708 263.236332 
L 333.439649 263.516844 
L 333.78759 55.365023 
L 334.135532 262.784978 
L 334.483473 262.767263 
L 334.831414 263.372115 
L 335.179356 262.888953 
L 335.875238 263.237903 
L 336.571121 262.821554 
L 337.267004 263.698726 
L 337.962887 262.010096 
L 338.310828 262.985489 
L 338.658769 263.207815 
L 339.006711 263.677941 
L 339.354652 263.51759 
L 339.702593 263.18577 
L 340.050535 261.905536 
L 340.398476 262.444729 
L 340.746417 263.605749 
L 341.094359 262.71657 
L 341.4423 262.946876 
L 341.790241 263.50745 
L 342.138183 263.224945 
L 342.486124 263.356865 
L 342.834065 262.883548 
L 343.182007 263.665123 
L 343.529948 263.639415 
L 343.877889 263.25326 
L 344.225831 145.63133 
L 344.573772 262.86505 
L 344.921713 263.208368 
L 345.269655 263.051316 
L 345.965537 262.493592 
L 346.313479 263.485523 
L 346.66142 262.44291 
L 347.009362 262.773805 
L 347.357303 263.358222 
L 347.705244 262.765947 
L 348.401127 263.059202 
L 348.749068 262.924384 
L 349.09701 262.920772 
L 349.444951 263.446879 
L 350.140834 262.52734 
L 350.488775 262.831331 
L 350.836716 263.672254 
L 351.532599 262.661467 
L 351.88054 262.918537 
L 352.228482 263.901938 
L 352.576423 263.427716 
L 352.924364 262.581849 
L 353.272306 263.244764 
L 353.620247 263.016075 
L 353.968188 263.413462 
L 354.31613 263.006852 
L 354.664071 263.008234 
L 355.012012 88.949684 
L 355.359954 262.920071 
L 355.707895 262.37498 
L 356.055837 263.39768 
L 357.099661 262.873899 
L 357.447602 263.400764 
L 357.795543 262.52383 
L 358.143485 262.203258 
L 358.491426 263.884671 
L 358.839367 262.995202 
L 359.53525 263.03322 
L 359.883191 262.748495 
L 360.231133 262.928385 
L 360.579074 262.7705 
L 360.927015 262.891179 
L 361.274957 262.696597 
L 361.622898 263.490033 
L 361.970839 262.959661 
L 362.318781 261.971953 
L 362.666722 262.957383 
L 363.014663 261.869249 
L 363.362605 263.107729 
L 364.058487 262.383682 
L 364.406429 262.232894 
L 364.75437 262.611777 
L 365.102312 263.157007 
L 365.450253 90.534643 
L 365.798194 262.291726 
L 366.146136 261.764955 
L 366.494077 262.321844 
L 366.842018 262.106362 
L 367.18996 261.258929 
L 367.537901 261.015561 
L 367.885842 262.479181 
L 368.233784 262.518444 
L 368.581725 263.390241 
L 368.929666 261.954852 
L 369.277608 261.371334 
L 369.625549 261.888207 
L 369.97349 261.800772 
L 370.321432 261.940811 
L 370.669373 262.981516 
L 371.365256 261.496123 
L 371.713197 261.659219 
L 372.061138 261.4764 
L 372.40908 261.677915 
L 372.757021 263.095753 
L 373.104962 262.087703 
L 373.452904 262.669691 
L 374.148787 261.818279 
L 374.496728 262.423646 
L 374.844669 262.114618 
L 375.192611 262.162375 
L 375.540552 261.888141 
L 375.888493 261.945375 
L 376.236435 181.047742 
L 376.584376 262.744498 
L 376.932317 262.518768 
L 377.280259 262.846622 
L 377.976141 263.05757 
L 378.324083 262.217637 
L 378.672024 262.384636 
L 379.019965 263.078982 
L 379.367907 262.458833 
L 379.715848 262.449116 
L 380.063789 262.5565 
L 380.411731 262.785856 
L 381.107613 262.347751 
L 381.455555 262.687626 
L 381.803496 263.325877 
L 382.151437 263.383588 
L 382.499379 263.112772 
L 382.84732 261.92746 
L 383.195262 262.972318 
L 383.543203 262.717147 
L 383.891144 262.970629 
L 384.239086 261.482445 
L 384.587027 263.186838 
L 385.28291 262.244786 
L 385.630851 262.263194 
L 385.978792 262.848195 
L 386.326734 262.724819 
L 386.674675 263.055967 
L 387.022616 131.569675 
L 387.370558 262.443656 
L 387.718499 262.068082 
L 388.06644 262.436976 
L 388.414382 262.151913 
L 388.762323 262.505526 
L 389.110264 261.418206 
L 389.458206 261.578763 
L 389.806147 262.745504 
L 390.154088 262.44714 
L 390.50203 262.947861 
L 390.849971 263.167652 
L 391.545854 262.280361 
L 391.893795 261.650343 
L 392.241737 262.978703 
L 392.589678 261.869182 
L 392.937619 262.010828 
L 393.285561 262.77128 
L 393.633502 260.861083 
L 393.981443 262.643777 
L 394.329385 262.694598 
L 394.677326 262.573162 
L 395.025267 261.924022 
L 395.373209 263.401148 
L 395.72115 263.069087 
L 396.069091 262.580025 
L 396.417033 261.891233 
L 396.764974 262.402072 
L 397.112915 126.218164 
L 397.460857 262.797066 
L 397.808798 263.00021 
L 398.156739 263.011547 
L 398.504681 261.958042 
L 398.852622 263.309612 
L 399.200563 262.330701 
L 399.548505 262.336841 
L 399.896446 261.930087 
L 400.244387 262.489681 
L 400.592329 262.556622 
L 400.94027 261.054314 
L 401.636153 262.833793 
L 401.984094 263.001784 
L 402.332036 263.440078 
L 402.679977 262.575186 
L 403.027918 262.04604 
L 403.37586 262.043494 
L 403.723801 262.254896 
L 404.419684 263.046088 
L 404.767625 262.322376 
L 405.115566 262.472567 
L 405.463508 263.15511 
L 405.811449 262.695384 
L 406.15939 261.842202 
L 406.855273 263.231154 
L 407.203214 262.230183 
L 407.551156 262.183851 
L 407.899097 155.047526 
L 408.247038 262.244993 
L 408.59498 261.652462 
L 408.942921 261.953493 
L 409.290862 263.395981 
L 409.638804 261.779038 
L 409.986745 262.639228 
L 410.682628 262.284284 
L 411.030569 262.412798 
L 411.378511 262.779654 
L 411.726452 262.45902 
L 412.074393 263.618064 
L 412.422335 262.285409 
L 412.770276 262.455874 
L 413.118217 262.474285 
L 413.466159 262.616421 
L 413.8141 261.566396 
L 414.162041 261.489441 
L 414.509983 262.349747 
L 414.857924 262.621371 
L 415.553807 261.62436 
L 416.249689 262.352155 
L 416.597631 262.106143 
L 416.945572 260.853028 
L 417.293513 261.735374 
L 417.641455 262.174541 
L 417.989396 261.778596 
L 418.337337 99.544418 
L 418.685279 263.13896 
L 419.03322 261.899212 
L 419.381162 262.057683 
L 419.729103 261.406042 
L 420.077044 262.118869 
L 420.424986 261.428232 
L 420.772927 261.986246 
L 421.120868 261.495395 
L 421.46881 262.386141 
L 421.816751 261.932628 
L 422.164692 261.927383 
L 422.512634 262.634169 
L 422.860575 261.944862 
L 423.556458 261.467964 
L 423.904399 262.202335 
L 424.25234 262.510326 
L 424.948223 261.021424 
L 425.644106 261.932454 
L 426.68793 261.69596 
L 427.035871 262.532669 
L 427.731754 261.920814 
L 428.079695 261.713273 
L 428.427637 262.601746 
L 428.775578 261.177752 
L 429.123519 95.91316 
L 429.471461 263.093076 
L 429.819402 261.99636 
L 430.167343 262.427855 
L 430.863226 260.85047 
L 431.211167 260.555085 
L 431.559109 261.846309 
L 431.90705 261.764586 
L 432.254991 262.010868 
L 432.602933 260.986672 
L 432.950874 262.155501 
L 433.298815 262.026425 
L 433.646757 260.153995 
L 433.994698 261.630424 
L 434.342639 261.973884 
L 434.690581 261.371475 
L 435.038522 261.991978 
L 435.386463 261.323829 
L 435.734405 261.544863 
L 436.082346 260.792647 
L 436.778229 262.44457 
L 437.12617 261.623477 
L 437.474112 261.09659 
L 437.822053 261.452997 
L 438.169994 261.995496 
L 438.517936 260.987714 
L 439.213818 262.468714 
L 439.56176 264.695465 
L 441.649408 264.720608 
L 441.997349 264.663246 
L 442.693232 264.713745 
L 450 264.656609 
L 450 264.656609 
" style="fill:none;stroke:#1f77b4;stroke-linecap:square;stroke-opacity:0.7;stroke-width:0.8;"/>
   </g>
   <g id="line2d_20">
    <path clip-path="url(#pd9dbd2e789)" d="M 58.218044 256.716405 
L 58.565985 264.56424 
L 58.913927 264.547252 
L 59.261868 264.670747 
L 59.60981 264.547252 
L 60.653634 264.659756 
L 61.001575 264.454539 
L 61.349516 264.617297 
L 62.045399 264.561045 
L 62.39334 264.670747 
L 62.741282 264.389485 
L 63.089223 264.6067 
L 63.785106 264.561045 
L 64.133047 264.673942 
L 64.480988 264.381298 
L 64.82893 264.606307 
L 65.176871 264.558242 
L 65.524812 264.182078 
L 65.872754 264.547252 
L 66.568636 264.603504 
L 67.264519 264.342427 
L 67.960402 264.505186 
L 68.656285 264.547252 
L 69.004226 239.849353 
L 69.352167 264.614494 
L 70.395991 264.536262 
L 70.743933 264.3841 
L 71.091874 264.558242 
L 71.787757 264.564633 
L 72.135698 264.451736 
L 73.527463 264.558242 
L 73.875405 264.451343 
L 74.571287 264.726999 
L 74.919229 264.448933 
L 75.26717 264.514281 
L 75.963053 264.34282 
L 76.658935 264.61769 
L 77.006877 264.327848 
L 77.354818 264.662952 
L 77.70276 264.395091 
L 78.050701 264.670747 
L 78.398642 264.670747 
L 79.094525 264.395091 
L 79.442466 264.455325 
L 79.790408 245.87685 
L 80.138349 264.220729 
L 80.48629 264.603504 
L 80.834232 264.451343 
L 81.182173 264.614494 
L 81.530114 264.434747 
L 82.225997 264.614494 
L 82.573938 264.398679 
L 82.92188 264.614494 
L 83.965704 264.651962 
L 84.313645 264.50199 
L 85.357469 264.563847 
L 86.053352 264.381298 
L 86.401293 264.670747 
L 86.749235 264.432558 
L 87.445117 264.434747 
L 87.793059 264.614494 
L 88.488941 264.547252 
L 88.836883 264.356515 
L 89.184824 264.716009 
L 89.532765 264.772261 
L 89.880707 264.220729 
L 90.228648 251.072274 
L 90.576589 264.61769 
L 90.924531 264.558242 
L 91.272472 264.670747 
L 91.620413 264.387296 
L 91.968355 264.662952 
L 92.316296 264.603504 
L 92.664237 264.260606 
L 93.708061 264.34282 
L 94.056003 264.114222 
L 94.403944 264.496605 
L 95.099827 264.673942 
L 95.447768 264.497391 
L 95.79571 264.61769 
L 96.143651 264.336036 
L 96.491592 264.547252 
L 96.839534 264.445738 
L 97.187475 264.614494 
L 97.883358 264.547252 
L 98.57924 264.726999 
L 98.927182 264.670747 
L 99.275123 264.311253 
L 99.623064 264.547252 
L 99.971006 264.407775 
L 100.318947 264.43755 
L 100.666888 264.677138 
L 101.01483 227.216754 
L 101.362771 264.614494 
L 103.450419 264.333233 
L 103.79836 264.558242 
L 104.146302 264.441139 
L 105.190126 264.347639 
L 105.538067 264.331437 
L 105.886009 264.539457 
L 106.23395 264.392681 
L 106.581891 264.603504 
L 106.929833 264.617297 
L 107.277774 264.491 
L 107.625715 264.550055 
L 107.973657 264.451343 
L 108.321598 264.716009 
L 109.017481 264.395877 
L 109.365422 264.61769 
L 109.713363 264.491 
L 110.061305 264.659756 
L 110.409246 264.443155 
L 111.105129 264.491 
L 111.45307 237.218918 
L 111.801011 264.381691 
L 112.148953 264.226727 
L 112.496894 264.550055 
L 112.844835 264.452129 
L 113.540718 264.44854 
L 113.88866 263.911485 
L 114.236601 264.504793 
L 114.584542 264.670747 
L 114.932484 264.209738 
L 115.280425 264.558242 
L 115.628366 264.182864 
L 115.976308 264.505186 
L 116.324249 264.159484 
L 117.020132 264.6067 
L 117.368073 264.445738 
L 117.716014 264.137504 
L 118.063956 264.33183 
L 119.803662 264.483205 
L 120.151604 264.381691 
L 120.499545 264.558242 
L 120.847486 264.359317 
L 121.543369 264.398286 
L 121.89131 264.434747 
L 122.239252 253.171032 
L 122.587193 264.558242 
L 122.935135 264.342427 
L 123.631017 264.659756 
L 123.978959 264.448933 
L 124.3269 264.648766 
L 124.674841 264.384493 
L 125.370724 264.561438 
L 125.718665 264.286175 
L 126.066607 264.389485 
L 126.414548 264.659756 
L 126.762489 264.285389 
L 127.110431 264.447137 
L 127.806313 264.384493 
L 128.154255 264.536262 
L 129.54602 264.285782 
L 129.893961 264.614494 
L 130.241903 264.381298 
L 130.589844 264.694028 
L 130.937785 264.507988 
L 131.98161 264.606307 
L 132.329551 264.356515 
L 132.677492 264.441139 
L 133.025434 234.039395 
L 133.373375 264.491 
L 133.721316 264.392681 
L 134.069258 264.525272 
L 134.76514 264.404579 
L 135.808964 264.614494 
L 136.156906 264.226727 
L 136.504847 264.153486 
L 136.852788 264.61769 
L 137.20073 264.395484 
L 137.896612 264.445738 
L 138.244554 264.662559 
L 138.592495 264.558242 
L 138.940436 264.670747 
L 139.288378 264.491 
L 139.636319 264.547252 
L 139.984261 264.726999 
L 140.332202 264.226727 
L 140.680143 264.50199 
L 141.028085 264.322243 
L 141.376026 264.637776 
L 141.723967 264.156682 
L 142.071909 264.614494 
L 142.41985 264.505186 
L 142.767791 241.179472 
L 143.115733 264.43755 
L 143.811615 264.381691 
L 144.159557 264.614494 
L 144.507498 264.325046 
L 144.855439 264.331044 
L 145.203381 264.564633 
L 145.551322 264.491 
L 145.899263 264.670747 
L 146.247205 264.454932 
L 146.595146 264.550055 
L 146.943087 264.27838 
L 147.291029 264.606307 
L 147.63897 264.317644 
L 147.986911 264.50199 
L 148.334853 264.378716 
L 148.682794 264.423757 
L 149.030736 264.603504 
L 149.378677 264.282586 
L 149.726618 264.558242 
L 150.07456 264.454932 
L 150.422501 264.505186 
L 150.770442 264.117418 
L 151.118384 264.505186 
L 151.466325 264.370308 
L 151.814266 264.614494 
L 152.162208 264.333233 
L 153.206032 264.56424 
L 153.553973 250.446754 
L 153.901914 264.617297 
L 154.249856 264.325439 
L 155.29368 264.550055 
L 155.641621 264.373896 
L 155.989562 264.614494 
L 156.337504 264.50199 
L 156.685445 264.550448 
L 157.033386 264.454932 
L 157.381328 264.205139 
L 157.729269 264.56424 
L 158.077211 264.659756 
L 158.425152 264.05797 
L 158.773093 264.401089 
L 159.121035 264.282586 
L 159.816917 264.6067 
L 160.164859 264.261392 
L 160.5128 264.55325 
L 160.860741 264.561045 
L 161.208683 264.268793 
L 161.556624 264.6067 
L 161.904565 264.432558 
L 162.252507 264.558242 
L 162.600448 264.280176 
L 162.948389 264.525272 
L 163.296331 264.170475 
L 163.644272 264.15169 
L 163.992213 227.842097 
L 164.340155 264.50199 
L 164.688096 264.592514 
L 165.036037 264.170475 
L 165.383979 264.598512 
L 165.73192 264.421961 
L 166.079861 264.55325 
L 166.427803 264.271989 
L 167.123686 264.662952 
L 167.471627 264.56424 
L 167.819568 264.280176 
L 168.16751 264.1541 
L 168.515451 264.452129 
L 169.211334 264.306654 
L 169.907216 264.336036 
L 170.255158 264.54226 
L 170.95104 264.448933 
L 171.994864 264.424371 
L 172.342806 264.328241 
L 173.038688 264.550448 
L 173.38663 264.550448 
L 173.734571 264.726999 
L 174.082512 264.437943 
L 174.430454 264.662952 
L 174.778395 247.874818 
L 175.126336 264.156289 
L 175.474278 264.662952 
L 175.822219 264.440746 
L 176.170161 264.493802 
L 176.866043 264.387296 
L 177.213985 264.336429 
L 177.561926 264.507595 
L 177.909867 264.384493 
L 178.257809 264.504793 
L 178.60575 264.250009 
L 178.953691 264.654765 
L 179.649574 264.536262 
L 179.997515 264.670747 
L 181.041339 264.148887 
L 181.389281 264.440746 
L 181.737222 264.325439 
L 182.085163 264.504793 
L 182.433105 264.08725 
L 182.781046 264.43755 
L 183.128987 264.504793 
L 183.82487 264.280176 
L 184.172811 264.550448 
L 184.520753 264.339624 
L 184.868694 264.496605 
L 185.216636 226.135877 
L 185.564577 264.72092 
L 185.912518 264.336788 
L 186.26046 264.526519 
L 186.956342 264.430145 
L 188.348108 264.627711 
L 188.696049 264.472468 
L 189.04399 264.508587 
L 189.739873 264.438315 
L 190.087814 264.659825 
L 190.435756 264.599164 
L 190.783697 264.387157 
L 191.131638 264.61127 
L 192.175462 264.454103 
L 193.219286 264.606384 
L 193.567228 264.515881 
L 193.915169 264.631728 
L 194.263111 264.485725 
L 194.611052 264.632074 
L 195.654876 264.472259 
L 196.002817 206.764641 
L 196.350759 264.568699 
L 196.6987 264.59535 
L 197.046641 264.485663 
L 197.394583 264.53292 
L 197.742524 264.403077 
L 198.786348 264.55256 
L 199.134289 264.66672 
L 199.482231 264.649599 
L 200.178113 264.36837 
L 200.526055 264.496735 
L 200.873996 264.428797 
L 201.221937 264.633109 
L 201.569879 264.496389 
L 201.91782 264.525473 
L 202.265761 264.412274 
L 204.005468 264.46656 
L 205.397234 264.522644 
L 206.093116 264.543978 
L 206.441058 264.416809 
L 206.788999 218.477163 
L 207.13694 264.601609 
L 207.484882 264.518924 
L 208.180764 264.64607 
L 208.876647 264.732531 
L 209.224588 264.488398 
L 210.616354 264.629442 
L 210.964295 264.493008 
L 212.356061 264.630343 
L 212.704002 264.489779 
L 213.747826 264.611824 
L 214.443709 264.64801 
L 214.79165 264.536482 
L 215.139591 264.635904 
L 215.487533 264.478851 
L 215.835474 264.704434 
L 216.183415 264.738378 
L 216.531357 264.579667 
L 216.879298 264.569457 
L 217.227239 235.699917 
L 217.575181 264.583177 
L 218.271063 264.582051 
L 218.619005 264.704083 
L 218.966946 264.591717 
L 220.706653 264.538416 
L 221.402536 264.404846 
L 221.750477 264.584735 
L 222.794301 264.611188 
L 224.186066 264.482678 
L 224.881949 264.591717 
L 225.22989 264.495977 
L 225.577832 264.587952 
L 225.925773 264.539963 
L 226.273714 264.67625 
L 227.317538 264.415798 
L 227.66548 264.6702 
L 228.013421 215.682519 
L 228.361362 264.645768 
L 228.709304 264.617732 
L 229.057245 264.74484 
L 229.753128 264.530986 
L 230.101069 264.672628 
L 230.449011 264.563182 
L 230.796952 264.665672 
L 231.492835 264.451756 
L 231.840776 264.613918 
L 232.8846 264.699968 
L 233.232541 264.541608 
L 233.580483 264.645521 
L 234.624307 264.52381 
L 235.320189 264.665672 
L 235.668131 264.672628 
L 236.016072 264.503923 
L 237.755779 264.611534 
L 238.10372 264.537183 
L 238.451661 229.449179 
L 238.799603 264.554352 
L 239.147544 264.317762 
L 239.495486 264.723002 
L 239.843427 264.466357 
L 240.191368 264.600262 
L 240.53931 264.332193 
L 241.235192 264.627409 
L 242.279016 264.2794 
L 242.626958 264.434693 
L 242.974899 264.375144 
L 243.32284 264.635843 
L 244.018723 264.496075 
L 245.062547 264.393239 
L 245.410488 264.702747 
L 245.75843 264.471445 
L 246.454312 264.429265 
L 246.802254 264.594162 
L 248.194019 264.421699 
L 248.889902 264.605423 
L 249.237843 243.479419 
L 249.585785 264.473502 
L 249.933726 264.570716 
L 250.281667 264.490394 
L 250.97755 264.714661 
L 251.325491 264.553367 
L 253.413139 264.455294 
L 253.761081 264.589272 
L 254.456963 264.46794 
L 254.804905 264.609583 
L 256.892553 264.447499 
L 257.588436 264.68424 
L 257.936377 264.464115 
L 258.284318 264.700319 
L 258.980201 264.571429 
L 259.328142 264.637987 
L 259.676084 264.508637 
L 260.024025 226.290687 
L 260.371966 264.474753 
L 260.719908 264.605571 
L 261.067849 264.298256 
L 261.41579 264.518599 
L 261.763732 264.427946 
L 262.111673 264.532701 
L 263.155497 264.548428 
L 263.503438 264.651966 
L 263.85138 264.490895 
L 264.895204 264.490975 
L 265.243145 264.653698 
L 265.591086 264.393486 
L 267.330793 264.445559 
L 267.678735 264.720222 
L 268.374617 264.328354 
L 268.722559 264.624981 
L 269.0705 264.698933 
L 269.418441 264.582476 
L 269.766383 239.570339 
L 270.114324 264.473436 
L 270.462265 264.605362 
L 270.810207 264.596097 
L 271.158148 264.263599 
L 271.506089 264.628371 
L 271.854031 264.579118 
L 272.201972 264.398779 
L 272.549913 264.639657 
L 273.245796 264.577326 
L 273.593737 264.263049 
L 273.941679 264.548779 
L 276.029327 264.47043 
L 277.073151 264.646674 
L 277.421092 264.581694 
L 277.769034 264.676398 
L 278.812858 264.693857 
L 279.160799 264.395239 
L 279.50874 264.507336 
L 280.204623 264.456181 
L 280.552564 234.59153 
L 280.900506 264.369203 
L 281.248447 264.654411 
L 281.596388 264.478666 
L 282.292271 264.650993 
L 282.988154 264.410347 
L 283.684036 264.589623 
L 284.031978 264.404895 
L 284.379919 264.584817 
L 284.727861 264.321031 
L 285.075802 264.567981 
L 286.467567 264.429469 
L 286.815509 264.608841 
L 287.16345 264.566748 
L 287.511391 264.696301 
L 288.207274 264.623534 
L 288.555215 264.343487 
L 288.903157 264.416667 
L 289.251098 264.603488 
L 289.599039 264.475123 
L 290.294922 264.602306 
L 290.642863 264.512961 
L 290.990805 218.277543 
L 291.338746 264.439431 
L 293.078453 264.517279 
L 293.426394 264.376175 
L 293.774336 264.586277 
L 294.122277 264.621848 
L 294.81816 264.442337 
L 295.166101 264.599022 
L 295.861984 264.53381 
L 296.905808 264.710545 
L 297.60169 264.526952 
L 298.993456 264.37239 
L 299.341397 264.60612 
L 299.689338 264.473776 
L 300.733162 264.543714 
L 301.081104 264.357582 
L 301.429045 264.367346 
L 301.776987 232.52541 
L 302.124928 264.435859 
L 302.472869 264.628542 
L 304.212576 264.292134 
L 304.560517 264.567347 
L 304.908459 264.398428 
L 305.604341 264.449768 
L 306.300224 264.512259 
L 306.648165 264.38807 
L 306.996107 264.621909 
L 307.344048 264.509131 
L 307.691989 264.548489 
L 308.039931 264.412792 
L 308.387872 264.52665 
L 308.735813 264.397827 
L 309.083755 264.639718 
L 309.779637 264.477601 
L 310.47552 264.599663 
L 310.823462 264.336859 
L 311.519344 264.575582 
L 311.867286 264.475809 
L 312.215227 221.45473 
L 312.563168 264.388975 
L 313.259051 264.100576 
L 313.954934 264.582416 
L 314.302875 264.269057 
L 314.650816 264.352991 
L 314.998758 264.269482 
L 315.346699 264.440748 
L 315.69464 264.102777 
L 316.042582 264.425364 
L 316.390523 264.315799 
L 317.434347 264.403574 
L 317.782288 264.322136 
L 318.13023 264.518138 
L 318.478171 264.504362 
L 318.826112 264.107158 
L 319.174054 264.615637 
L 319.521995 264.323408 
L 319.869937 264.343554 
L 320.217878 264.056154 
L 320.565819 264.398303 
L 320.913761 264.198868 
L 321.261702 264.467847 
L 321.609643 264.442581 
L 321.957585 264.05594 
L 322.305526 264.449259 
L 322.653467 264.267294 
L 323.001409 196.486326 
L 323.34935 264.50744 
L 323.697291 264.233688 
L 324.393174 264.616111 
L 324.741115 264.285838 
L 325.436998 264.137922 
L 325.784939 264.209413 
L 326.132881 264.637728 
L 326.828763 264.170483 
L 327.872587 264.64278 
L 328.220529 264.394658 
L 328.916412 264.09436 
L 329.612294 264.424061 
L 330.656118 264.409596 
L 331.00406 264.179671 
L 331.699942 264.257465 
L 332.047884 264.522876 
L 332.395825 264.317344 
L 332.743766 264.25078 
L 333.439649 264.384985 
L 333.78759 199.19453 
L 334.135532 264.158029 
L 334.483473 264.157187 
L 334.831414 264.345024 
L 335.179356 264.194978 
L 336.22318 264.216877 
L 336.571121 264.160549 
L 337.267004 264.437155 
L 337.962887 263.903164 
L 338.310828 264.212334 
L 339.354652 264.383548 
L 339.702593 264.278757 
L 340.050535 263.874451 
L 340.398476 264.049551 
L 340.746417 264.412513 
L 341.094359 264.13126 
L 342.486124 264.332904 
L 342.834065 264.183181 
L 343.182007 264.432179 
L 343.877889 264.309115 
L 344.225831 227.789889 
L 344.573772 264.187703 
L 344.921713 264.294294 
L 345.965537 264.076283 
L 346.313479 264.383495 
L 346.66142 264.06825 
L 347.357303 264.347889 
L 347.705244 264.159799 
L 348.749068 264.198371 
L 349.09701 264.195644 
L 349.444951 264.361629 
L 350.140834 264.065608 
L 350.488775 264.164615 
L 350.836716 264.432657 
L 351.532599 264.102144 
L 351.88054 264.184666 
L 352.228482 264.500344 
L 352.924364 264.080781 
L 353.272306 264.290683 
L 353.620247 264.218243 
L 353.968188 264.34601 
L 354.31613 264.216219 
L 354.664071 264.21666 
L 355.012012 208.475067 
L 355.359954 264.185503 
L 355.707895 264.011666 
L 356.055837 264.335585 
L 357.099661 264.165378 
L 357.447602 264.336942 
L 357.795543 264.051407 
L 358.143485 263.952523 
L 358.491426 264.49333 
L 358.839367 264.203656 
L 359.53525 264.21598 
L 359.883191 264.12552 
L 360.579074 264.130904 
L 361.274957 264.099237 
L 361.622898 264.359328 
L 361.970839 264.185471 
L 362.318781 263.865126 
L 362.666722 264.185859 
L 363.014663 263.824225 
L 363.362605 264.230693 
L 364.406429 263.942271 
L 365.102312 264.248935 
L 365.450253 207.526784 
L 365.798194 263.966545 
L 366.146136 263.793873 
L 366.494077 263.976418 
L 366.842018 263.905784 
L 367.18996 263.645456 
L 367.537901 263.567122 
L 367.885842 264.037501 
L 368.233784 264.048973 
L 368.581725 264.335813 
L 368.929666 263.874762 
L 369.277608 263.687335 
L 369.625549 263.853356 
L 370.321432 263.876803 
L 370.669373 264.204845 
L 371.365256 263.728738 
L 371.713197 263.781059 
L 372.061138 263.714905 
L 372.40908 263.779101 
L 372.757021 264.237965 
L 373.104962 263.920041 
L 373.452904 264.103147 
L 374.148787 263.829178 
L 374.496728 264.022554 
L 374.844669 263.920872 
L 375.888493 263.863237 
L 376.236435 237.636941 
L 376.584376 264.122305 
L 376.932317 264.051947 
L 377.6282 264.174437 
L 377.976141 264.224236 
L 378.324083 263.946811 
L 378.672024 264.001256 
L 379.019965 264.227626 
L 379.367907 264.021995 
L 380.063789 264.05043 
L 380.411731 264.126537 
L 381.107613 263.982942 
L 382.151437 264.322229 
L 382.499379 264.233625 
L 382.84732 263.846619 
L 383.195262 264.189989 
L 383.543203 264.106395 
L 383.891144 264.189436 
L 384.239086 263.698993 
L 384.587027 264.257181 
L 385.28291 263.946744 
L 385.630851 263.946162 
L 385.978792 264.140482 
L 386.326734 264.0995 
L 386.674675 264.210924 
L 387.022616 220.555636 
L 387.370558 264.006493 
L 387.718499 263.887599 
L 388.06644 264.014409 
L 388.414382 263.920998 
L 388.762323 264.036872 
L 389.110264 263.680572 
L 389.458206 263.739036 
L 389.806147 264.119857 
L 390.154088 264.022179 
L 390.849971 264.256997 
L 391.545854 263.961284 
L 391.893795 263.752689 
L 392.241737 264.191499 
L 392.589678 263.829882 
L 392.937619 263.877112 
L 393.285561 264.125658 
L 393.633502 263.501329 
L 393.981443 264.0859 
L 394.677326 264.06478 
L 395.025267 263.847609 
L 395.373209 264.33345 
L 396.069091 264.066219 
L 396.417033 263.846838 
L 396.764974 264.005977 
L 397.112915 219.836906 
L 397.460857 264.145959 
L 398.156739 264.216995 
L 398.504681 263.880282 
L 398.852622 264.31349 
L 399.200563 263.9969 
L 399.548505 263.993755 
L 399.896446 263.861389 
L 400.244387 264.039961 
L 400.592329 264.061655 
L 400.94027 263.574794 
L 401.636153 264.145778 
L 402.332036 264.343328 
L 403.027918 263.880894 
L 403.723801 263.947431 
L 404.419684 264.209665 
L 404.767625 263.976142 
L 405.115566 264.022883 
L 405.463508 264.247485 
L 405.811449 264.096204 
L 406.15939 263.811164 
L 406.855273 264.270331 
L 407.203214 263.950412 
L 407.551156 263.924059 
L 407.899097 228.511775 
L 408.247038 263.944268 
L 408.59498 263.755483 
L 408.942921 263.855127 
L 409.290862 264.328065 
L 409.638804 263.7959 
L 409.986745 264.072957 
L 411.030569 264.000045 
L 411.378511 264.125234 
L 411.726452 264.021408 
L 412.074393 264.398498 
L 412.422335 263.963776 
L 413.466159 264.071181 
L 413.8141 263.724936 
L 414.162041 263.694208 
L 414.509983 263.985381 
L 414.857924 264.072691 
L 415.553807 263.744996 
L 416.249689 263.98202 
L 416.597631 263.900242 
L 416.945572 263.490457 
L 417.293513 263.779802 
L 417.641455 263.924388 
L 417.989396 263.794032 
L 418.337337 210.32806 
L 418.685279 264.240187 
L 419.03322 263.831046 
L 419.381162 263.884613 
L 419.729103 263.672218 
L 420.077044 263.906723 
L 420.424986 263.679518 
L 420.772927 263.864574 
L 421.120868 263.69729 
L 421.46881 263.990058 
L 421.816751 263.835949 
L 422.164692 263.834016 
L 422.512634 264.068938 
L 422.860575 263.839826 
L 423.556458 263.689999 
L 423.904399 263.930676 
L 424.25234 264.033532 
L 424.948223 263.540288 
L 425.644106 263.841306 
L 426.68793 263.763839 
L 427.035871 264.042392 
L 428.079695 263.772326 
L 428.427637 264.06371 
L 428.775578 263.59879 
L 429.123519 209.306874 
L 429.471461 264.225235 
L 429.819402 263.863151 
L 430.167343 264.00561 
L 430.863226 263.480833 
L 431.211167 263.382593 
L 431.559109 263.805639 
L 432.254991 263.86667 
L 432.602933 263.528059 
L 432.950874 263.917778 
L 433.298815 263.875833 
L 433.646757 263.264466 
L 433.994698 263.752545 
L 434.342639 263.864166 
L 434.690581 263.667088 
L 435.038522 263.870086 
L 435.386463 263.651167 
L 435.734405 263.725646 
L 436.082346 263.47657 
L 436.778229 264.016219 
L 437.474112 263.574113 
L 438.169994 263.870191 
L 438.517936 263.542798 
L 439.213818 264.022766 
L 439.56176 264.754407 
L 447.216469 264.759579 
L 450 264.741692 
L 450 264.741692 
" style="fill:none;stroke:#ff7f0e;stroke-linecap:square;stroke-opacity:0.7;stroke-width:0.8;"/>
   </g>
   <g id="patch_3">
    <path d="M 58.218044 276.100464 
L 58.218044 26.88 
" style="fill:none;stroke:#000000;stroke-linecap:square;stroke-linejoin:miter;stroke-width:0.8;"/>
   </g>
   <g id="patch_4">
    <path d="M 450 276.100464 
L 450 26.88 
" style="fill:none;stroke:#000000;stroke-linecap:square;stroke-linejoin:miter;stroke-width:0.8;"/>
   </g>
   <g id="patch_5">
    <path d="M 58.218044 276.100464 
L 450 276.100464 
" style="fill:none;stroke:#000000;stroke-linecap:square;stroke-linejoin:miter;stroke-width:0.8;"/>
   </g>
   <g id="patch_6">
    <path d="M 58.218044 26.88 
L 450 26.88 
" style="fill:none;stroke:#000000;stroke-linecap:square;stroke-linejoin:miter;stroke-width:0.8;"/>
   </g>
   <g id="text_22">
    <!-- Sales in USD and PLN over time -->
    <g transform="translate(158.733397 20.88)scale(0.12 -0.12)">
     <defs>
      <path d="M 9.421875 54.6875 
L 18.40625 54.6875 
L 18.40625 0 
L 9.421875 0 
z
M 9.421875 75.984375 
L 18.40625 75.984375 
L 18.40625 64.59375 
L 9.421875 64.59375 
z
" id="DejaVuSans-105"/>
      <path d="M 54.890625 33.015625 
L 54.890625 0 
L 45.90625 0 
L 45.90625 32.71875 
Q 45.90625 40.484375 42.875 44.328125 
Q 39.84375 48.1875 33.796875 48.1875 
Q 26.515625 48.1875 22.3125 43.546875 
Q 18.109375 38.921875 18.109375 30.90625 
L 18.109375 0 
L 9.078125 0 
L 9.078125 54.6875 
L 18.109375 54.6875 
L 18.109375 46.1875 
Q 21.34375 51.125 25.703125 53.5625 
Q 30.078125 56 35.796875 56 
Q 45.21875 56 50.046875 50.171875 
Q 54.890625 44.34375 54.890625 33.015625 
z
" id="DejaVuSans-110"/>
      <path d="M 8.6875 72.90625 
L 18.609375 72.90625 
L 18.609375 28.609375 
Q 18.609375 16.890625 22.84375 11.734375 
Q 27.09375 6.59375 36.625 6.59375 
Q 46.09375 6.59375 50.34375 11.734375 
Q 54.59375 16.890625 54.59375 28.609375 
L 54.59375 72.90625 
L 64.5 72.90625 
L 64.5 27.390625 
Q 64.5 13.140625 57.4375 5.859375 
Q 50.390625 -1.421875 36.625 -1.421875 
Q 22.796875 -1.421875 15.734375 5.859375 
Q 8.6875 13.140625 8.6875 27.390625 
z
" id="DejaVuSans-85"/>
      <path d="M 45.40625 46.390625 
L 45.40625 75.984375 
L 54.390625 75.984375 
L 54.390625 0 
L 45.40625 0 
L 45.40625 8.203125 
Q 42.578125 3.328125 38.25 0.953125 
Q 33.9375 -1.421875 27.875 -1.421875 
Q 17.96875 -1.421875 11.734375 6.484375 
Q 5.515625 14.40625 5.515625 27.296875 
Q 5.515625 40.1875 11.734375 48.09375 
Q 17.96875 56 27.875 56 
Q 33.9375 56 38.25 53.625 
Q 42.578125 51.265625 45.40625 46.390625 
z
M 14.796875 27.296875 
Q 14.796875 17.390625 18.875 11.75 
Q 22.953125 6.109375 30.078125 6.109375 
Q 37.203125 6.109375 41.296875 11.75 
Q 45.40625 17.390625 45.40625 27.296875 
Q 45.40625 37.203125 41.296875 42.84375 
Q 37.203125 48.484375 30.078125 48.484375 
Q 22.953125 48.484375 18.875 42.84375 
Q 14.796875 37.203125 14.796875 27.296875 
z
" id="DejaVuSans-100"/>
      <path d="M 19.671875 64.796875 
L 19.671875 37.40625 
L 32.078125 37.40625 
Q 38.96875 37.40625 42.71875 40.96875 
Q 46.484375 44.53125 46.484375 51.125 
Q 46.484375 57.671875 42.71875 61.234375 
Q 38.96875 64.796875 32.078125 64.796875 
z
M 9.8125 72.90625 
L 32.078125 72.90625 
Q 44.34375 72.90625 50.609375 67.359375 
Q 56.890625 61.8125 56.890625 51.125 
Q 56.890625 40.328125 50.609375 34.8125 
Q 44.34375 29.296875 32.078125 29.296875 
L 19.671875 29.296875 
L 19.671875 0 
L 9.8125 0 
z
" id="DejaVuSans-80"/>
      <path d="M 9.8125 72.90625 
L 19.671875 72.90625 
L 19.671875 8.296875 
L 55.171875 8.296875 
L 55.171875 0 
L 9.8125 0 
z
" id="DejaVuSans-76"/>
      <path d="M 9.8125 72.90625 
L 23.09375 72.90625 
L 55.421875 11.921875 
L 55.421875 72.90625 
L 64.984375 72.90625 
L 64.984375 0 
L 51.703125 0 
L 19.390625 60.984375 
L 19.390625 0 
L 9.8125 0 
z
" id="DejaVuSans-78"/>
      <path d="M 30.609375 48.390625 
Q 23.390625 48.390625 19.1875 42.75 
Q 14.984375 37.109375 14.984375 27.296875 
Q 14.984375 17.484375 19.15625 11.84375 
Q 23.34375 6.203125 30.609375 6.203125 
Q 37.796875 6.203125 41.984375 11.859375 
Q 46.1875 17.53125 46.1875 27.296875 
Q 46.1875 37.015625 41.984375 42.703125 
Q 37.796875 48.390625 30.609375 48.390625 
z
M 30.609375 56 
Q 42.328125 56 49.015625 48.375 
Q 55.71875 40.765625 55.71875 27.296875 
Q 55.71875 13.875 49.015625 6.21875 
Q 42.328125 -1.421875 30.609375 -1.421875 
Q 18.84375 -1.421875 12.171875 6.21875 
Q 5.515625 13.875 5.515625 27.296875 
Q 5.515625 40.765625 12.171875 48.375 
Q 18.84375 56 30.609375 56 
z
" id="DejaVuSans-111"/>
      <path d="M 2.984375 54.6875 
L 12.5 54.6875 
L 29.59375 8.796875 
L 46.6875 54.6875 
L 56.203125 54.6875 
L 35.6875 0 
L 23.484375 0 
z
" id="DejaVuSans-118"/>
      <path d="M 41.109375 46.296875 
Q 39.59375 47.171875 37.8125 47.578125 
Q 36.03125 48 33.890625 48 
Q 26.265625 48 22.1875 43.046875 
Q 18.109375 38.09375 18.109375 28.8125 
L 18.109375 0 
L 9.078125 0 
L 9.078125 54.6875 
L 18.109375 54.6875 
L 18.109375 46.1875 
Q 20.953125 51.171875 25.484375 53.578125 
Q 30.03125 56 36.53125 56 
Q 37.453125 56 38.578125 55.875 
Q 39.703125 55.765625 41.0625 55.515625 
z
" id="DejaVuSans-114"/>
      <path d="M 52 44.1875 
Q 55.375 50.25 60.0625 53.125 
Q 64.75 56 71.09375 56 
Q 79.640625 56 84.28125 50.015625 
Q 88.921875 44.046875 88.921875 33.015625 
L 88.921875 0 
L 79.890625 0 
L 79.890625 32.71875 
Q 79.890625 40.578125 77.09375 44.375 
Q 74.3125 48.1875 68.609375 48.1875 
Q 61.625 48.1875 57.5625 43.546875 
Q 53.515625 38.921875 53.515625 30.90625 
L 53.515625 0 
L 44.484375 0 
L 44.484375 32.71875 
Q 44.484375 40.625 41.703125 44.40625 
Q 38.921875 48.1875 33.109375 48.1875 
Q 26.21875 48.1875 22.15625 43.53125 
Q 18.109375 38.875 18.109375 30.90625 
L 18.109375 0 
L 9.078125 0 
L 9.078125 54.6875 
L 18.109375 54.6875 
L 18.109375 46.1875 
Q 21.1875 51.21875 25.484375 53.609375 
Q 29.78125 56 35.6875 56 
Q 41.65625 56 45.828125 52.96875 
Q 50 49.953125 52 44.1875 
z
" id="DejaVuSans-109"/>
     </defs>
     <use xlink:href="#DejaVuSans-83"/>
     <use x="63.476562" xlink:href="#DejaVuSans-97"/>
     <use x="124.755859" xlink:href="#DejaVuSans-108"/>
     <use x="152.539062" xlink:href="#DejaVuSans-101"/>
     <use x="214.0625" xlink:href="#DejaVuSans-115"/>
     <use x="266.162109" xlink:href="#DejaVuSans-32"/>
     <use x="297.949219" xlink:href="#DejaVuSans-105"/>
     <use x="325.732422" xlink:href="#DejaVuSans-110"/>
     <use x="389.111328" xlink:href="#DejaVuSans-32"/>
     <use x="420.898438" xlink:href="#DejaVuSans-85"/>
     <use x="494.091797" xlink:href="#DejaVuSans-83"/>
     <use x="557.568359" xlink:href="#DejaVuSans-68"/>
     <use x="634.570312" xlink:href="#DejaVuSans-32"/>
     <use x="666.357422" xlink:href="#DejaVuSans-97"/>
     <use x="727.636719" xlink:href="#DejaVuSans-110"/>
     <use x="791.015625" xlink:href="#DejaVuSans-100"/>
     <use x="854.492188" xlink:href="#DejaVuSans-32"/>
     <use x="886.279297" xlink:href="#DejaVuSans-80"/>
     <use x="946.582031" xlink:href="#DejaVuSans-76"/>
     <use x="1002.294922" xlink:href="#DejaVuSans-78"/>
     <use x="1077.099609" xlink:href="#DejaVuSans-32"/>
     <use x="1108.886719" xlink:href="#DejaVuSans-111"/>
     <use x="1170.068359" xlink:href="#DejaVuSans-118"/>
     <use x="1229.248047" xlink:href="#DejaVuSans-101"/>
     <use x="1290.771484" xlink:href="#DejaVuSans-114"/>
     <use x="1331.884766" xlink:href="#DejaVuSans-32"/>
     <use x="1363.671875" xlink:href="#DejaVuSans-116"/>
     <use x="1402.880859" xlink:href="#DejaVuSans-105"/>
     <use x="1430.664062" xlink:href="#DejaVuSans-109"/>
     <use x="1528.076172" xlink:href="#DejaVuSans-101"/>
    </g>
   </g>
   <g id="legend_1">
    <g id="patch_7">
     <path d="M 352.034375 64.23625 
L 443 64.23625 
Q 445 64.23625 445 62.23625 
L 445 33.88 
Q 445 31.88 443 31.88 
L 352.034375 31.88 
Q 350.034375 31.88 350.034375 33.88 
L 350.034375 62.23625 
Q 350.034375 64.23625 352.034375 64.23625 
z
" style="fill:#ffffff;opacity:0.8;stroke:#cccccc;stroke-linejoin:miter;"/>
    </g>
    <g id="line2d_21">
     <path d="M 354.034375 39.978437 
L 374.034375 39.978437 
" style="fill:none;stroke:#1f77b4;stroke-linecap:square;stroke-opacity:0.7;stroke-width:0.8;"/>
    </g>
    <g id="line2d_22"/>
    <g id="text_23">
     <!-- Sales [PLN] -->
     <g transform="translate(382.034375 43.478437)scale(0.1 -0.1)">
      <use xlink:href="#DejaVuSans-83"/>
      <use x="63.476562" xlink:href="#DejaVuSans-97"/>
      <use x="124.755859" xlink:href="#DejaVuSans-108"/>
      <use x="152.539062" xlink:href="#DejaVuSans-101"/>
      <use x="214.0625" xlink:href="#DejaVuSans-115"/>
      <use x="266.162109" xlink:href="#DejaVuSans-32"/>
      <use x="297.949219" xlink:href="#DejaVuSans-91"/>
      <use x="336.962891" xlink:href="#DejaVuSans-80"/>
      <use x="397.265625" xlink:href="#DejaVuSans-76"/>
      <use x="452.978516" xlink:href="#DejaVuSans-78"/>
      <use x="527.783203" xlink:href="#DejaVuSans-93"/>
     </g>
    </g>
    <g id="line2d_23">
     <path d="M 354.034375 54.656563 
L 374.034375 54.656563 
" style="fill:none;stroke:#ff7f0e;stroke-linecap:square;stroke-opacity:0.7;stroke-width:0.8;"/>
    </g>
    <g id="line2d_24"/>
    <g id="text_24">
     <!-- Sales [USD] -->
     <g transform="translate(382.034375 58.156563)scale(0.1 -0.1)">
      <use xlink:href="#DejaVuSans-83"/>
      <use x="63.476562" xlink:href="#DejaVuSans-97"/>
      <use x="124.755859" xlink:href="#DejaVuSans-108"/>
      <use x="152.539062" xlink:href="#DejaVuSans-101"/>
      <use x="214.0625" xlink:href="#DejaVuSans-115"/>
      <use x="266.162109" xlink:href="#DejaVuSans-32"/>
      <use x="297.949219" xlink:href="#DejaVuSans-91"/>
      <use x="336.962891" xlink:href="#DejaVuSans-85"/>
      <use x="410.15625" xlink:href="#DejaVuSans-83"/>
      <use x="473.632812" xlink:href="#DejaVuSans-68"/>
      <use x="550.634766" xlink:href="#DejaVuSans-93"/>
     </g>
    </g>
   </g>
  </g>
 </g>
 <defs>
  <clipPath id="pd9dbd2e789">
   <rect height="249.220464" width="391.781956" x="58.218044" y="26.88"/>
  </clipPath>
 </defs>
</svg>
