<?xml version="1.0" encoding="utf-8" standalone="no"?>
<!DOCTYPE svg PUBLIC "-//W3C//DTD SVG 1.1//EN"
  "http://www.w3.org/Graphics/SVG/1.1/DTD/svg11.dtd">
<!-- Created with matplotlib (https://matplotlib.org/) -->
<svg height="345.6pt" version="1.1" viewBox="0 0 460.8 345.6" width="460.8pt" xmlns="http://www.w3.org/2000/svg" xmlns:xlink="http://www.w3.org/1999/xlink">
 <defs>
  <style type="text/css">
*{stroke-linecap:butt;stroke-linejoin:round;}
  </style>
 </defs>
 <g id="figure_1">
  <g id="patch_1">
   <path d="M 0 345.6 
L 460.8 345.6 
L 460.8 0 
L 0 0 
z
" style="fill:#ffffff;"/>
  </g>
  <g id="axes_1">
   <g id="patch_2">
    <path d="M 57.6 307.584 
L 414.72 307.584 
L 414.72 41.472 
L 57.6 41.472 
z
" style="fill:#ffffff;"/>
   </g>
   <g id="PathCollection_1">
    <defs>
     <path d="M 0 3 
C 0.795609 3 1.55874 2.683901 2.12132 2.12132 
C 2.683901 1.55874 3 0.795609 3 0 
C 3 -0.795609 2.683901 -1.55874 2.12132 -2.12132 
C 1.55874 -2.683901 0.795609 -3 0 -3 
C -0.795609 -3 -1.55874 -2.683901 -2.12132 -2.12132 
C -2.683901 -1.55874 -3 -0.795609 -3 0 
C -3 0.795609 -2.683901 1.55874 -2.12132 2.12132 
C -1.55874 2.683901 -0.795609 3 0 3 
z
" id="mdb88696462" style="stroke:#000000;"/>
    </defs>
    <g clip-path="url(#p6245d97a4f)">
     <use style="fill:#0000ff;stroke:#000000;" x="105.972067" xlink:href="#mdb88696462" y="208.472434"/>
     <use style="fill:#0000ff;stroke:#000000;" x="107.426681" xlink:href="#mdb88696462" y="206.80345"/>
     <use style="fill:#0000ff;stroke:#000000;" x="108.881294" xlink:href="#mdb88696462" y="208.223331"/>
     <use style="fill:#0000ff;stroke:#000000;" x="110.335908" xlink:href="#mdb88696462" y="211.436748"/>
     <use style="fill:#0000ff;stroke:#000000;" x="111.790522" xlink:href="#mdb88696462" y="216.219509"/>
     <use style="fill:#0000ff;stroke:#000000;" x="116.154363" xlink:href="#mdb88696462" y="213.529206"/>
     <use style="fill:#0000ff;stroke:#000000;" x="117.608977" xlink:href="#mdb88696462" y="219.90622"/>
     <use style="fill:#0000ff;stroke:#000000;" x="119.063591" xlink:href="#mdb88696462" y="225.88467"/>
     <use style="fill:#0000ff;stroke:#000000;" x="120.518205" xlink:href="#mdb88696462" y="224.091135"/>
     <use style="fill:#0000ff;stroke:#000000;" x="121.972818" xlink:href="#mdb88696462" y="223.916763"/>
     <use style="fill:#0000ff;stroke:#000000;" x="126.33666" xlink:href="#mdb88696462" y="225.311735"/>
     <use style="fill:#0000ff;stroke:#000000;" x="127.791273" xlink:href="#mdb88696462" y="221.550293"/>
     <use style="fill:#0000ff;stroke:#000000;" x="129.245887" xlink:href="#mdb88696462" y="226.009221"/>
     <use style="fill:#0000ff;stroke:#000000;" x="130.700501" xlink:href="#mdb88696462" y="234.080129"/>
     <use style="fill:#0000ff;stroke:#000000;" x="132.155115" xlink:href="#mdb88696462" y="235.848754"/>
     <use style="fill:#0000ff;stroke:#000000;" x="136.518956" xlink:href="#mdb88696462" y="241.079897"/>
     <use style="fill:#0000ff;stroke:#000000;" x="137.97357" xlink:href="#mdb88696462" y="238.439415"/>
     <use style="fill:#0000ff;stroke:#000000;" x="139.428184" xlink:href="#mdb88696462" y="238.364685"/>
     <use style="fill:#0000ff;stroke:#000000;" x="140.882797" xlink:href="#mdb88696462" y="234.428872"/>
     <use style="fill:#0000ff;stroke:#000000;" x="142.337411" xlink:href="#mdb88696462" y="239.186722"/>
     <use style="fill:#0000ff;stroke:#000000;" x="146.701253" xlink:href="#mdb88696462" y="235.524921"/>
     <use style="fill:#0000ff;stroke:#000000;" x="148.155866" xlink:href="#mdb88696462" y="236.64588"/>
     <use style="fill:#0000ff;stroke:#000000;" x="149.61048" xlink:href="#mdb88696462" y="231.688749"/>
     <use style="fill:#0000ff;stroke:#000000;" x="151.065094" xlink:href="#mdb88696462" y="229.969944"/>
     <use style="fill:#0000ff;stroke:#000000;" x="152.519708" xlink:href="#mdb88696462" y="227.827666"/>
     <use style="fill:#0000ff;stroke:#000000;" x="156.883549" xlink:href="#mdb88696462" y="232.186953"/>
     <use style="fill:#0000ff;stroke:#000000;" x="158.338163" xlink:href="#mdb88696462" y="230.318687"/>
     <use style="fill:#0000ff;stroke:#000000;" x="159.792777" xlink:href="#mdb88696462" y="226.034131"/>
     <use style="fill:#0000ff;stroke:#000000;" x="161.24739" xlink:href="#mdb88696462" y="230.119405"/>
     <use style="fill:#0000ff;stroke:#000000;" x="162.702004" xlink:href="#mdb88696462" y="228.375691"/>
     <use style="fill:#0000ff;stroke:#000000;" x="167.065846" xlink:href="#mdb88696462" y="229.52156"/>
     <use style="fill:#0000ff;stroke:#000000;" x="168.520459" xlink:href="#mdb88696462" y="233.432463"/>
     <use style="fill:#0000ff;stroke:#000000;" x="169.975073" xlink:href="#mdb88696462" y="236.521329"/>
     <use style="fill:#0000ff;stroke:#000000;" x="171.429687" xlink:href="#mdb88696462" y="238.763248"/>
     <use style="fill:#0000ff;stroke:#000000;" x="172.884301" xlink:href="#mdb88696462" y="238.165403"/>
     <use style="fill:#0000ff;stroke:#000000;" x="180.15737" xlink:href="#mdb88696462" y="241.652832"/>
     <use style="fill:#0000ff;stroke:#000000;" x="181.611983" xlink:href="#mdb88696462" y="246.809246"/>
     <use style="fill:#0000ff;stroke:#000000;" x="183.066597" xlink:href="#mdb88696462" y="252.613324"/>
     <use style="fill:#0000ff;stroke:#000000;" x="188.885052" xlink:href="#mdb88696462" y="259.26435"/>
     <use style="fill:#0000ff;stroke:#000000;" x="190.339666" xlink:href="#mdb88696462" y="257.520636"/>
     <use style="fill:#0000ff;stroke:#000000;" x="191.79428" xlink:href="#mdb88696462" y="261.107706"/>
     <use style="fill:#0000ff;stroke:#000000;" x="193.248894" xlink:href="#mdb88696462" y="260.709142"/>
     <use style="fill:#0000ff;stroke:#000000;" x="197.612735" xlink:href="#mdb88696462" y="254.556321"/>
     <use style="fill:#0000ff;stroke:#000000;" x="199.067349" xlink:href="#mdb88696462" y="248.154397"/>
     <use style="fill:#0000ff;stroke:#000000;" x="200.521962" xlink:href="#mdb88696462" y="247.980025"/>
     <use style="fill:#0000ff;stroke:#000000;" x="201.976576" xlink:href="#mdb88696462" y="249.200626"/>
     <use style="fill:#0000ff;stroke:#000000;" x="203.43119" xlink:href="#mdb88696462" y="263.748188"/>
     <use style="fill:#0000ff;stroke:#000000;" x="207.795031" xlink:href="#mdb88696462" y="272.616222"/>
     <use style="fill:#0000ff;stroke:#000000;" x="209.249645" xlink:href="#mdb88696462" y="268.132385"/>
     <use style="fill:#0000ff;stroke:#000000;" x="210.704259" xlink:href="#mdb88696462" y="270.150112"/>
     <use style="fill:#0000ff;stroke:#000000;" x="212.158873" xlink:href="#mdb88696462" y="270.175022"/>
     <use style="fill:#0000ff;stroke:#000000;" x="213.613486" xlink:href="#mdb88696462" y="273.014786"/>
     <use style="fill:#0000ff;stroke:#000000;" x="217.977328" xlink:href="#mdb88696462" y="271.968557"/>
     <use style="fill:#0000ff;stroke:#000000;" x="219.431942" xlink:href="#mdb88696462" y="270.772867"/>
     <use style="fill:#0000ff;stroke:#000000;" x="220.886555" xlink:href="#mdb88696462" y="279.092877"/>
     <use style="fill:#0000ff;stroke:#000000;" x="222.341169" xlink:href="#mdb88696462" y="288.409295"/>
     <use style="fill:#0000ff;stroke:#000000;" x="223.795783" xlink:href="#mdb88696462" y="290.327381"/>
     <use style="fill:#0000ff;stroke:#000000;" x="228.159624" xlink:href="#mdb88696462" y="288.434205"/>
     <use style="fill:#0000ff;stroke:#000000;" x="229.614238" xlink:href="#mdb88696462" y="286.765221"/>
     <use style="fill:#0000ff;stroke:#000000;" x="231.068852" xlink:href="#mdb88696462" y="289.854087"/>
     <use style="fill:#0000ff;stroke:#000000;" x="232.523466" xlink:href="#mdb88696462" y="289.156601"/>
     <use style="fill:#0000ff;stroke:#000000;" x="233.978079" xlink:href="#mdb88696462" y="289.580075"/>
     <use style="fill:#0000ff;stroke:#000000;" x="238.341921" xlink:href="#mdb88696462" y="288.434205"/>
     <use style="fill:#0000ff;stroke:#000000;" x="239.796534" xlink:href="#mdb88696462" y="285.370249"/>
     <use style="fill:#0000ff;stroke:#000000;" x="241.251148" xlink:href="#mdb88696462" y="280.911322"/>
     <use style="fill:#0000ff;stroke:#000000;" x="242.705762" xlink:href="#mdb88696462" y="269.90101"/>
     <use style="fill:#0000ff;stroke:#000000;" x="244.160376" xlink:href="#mdb88696462" y="266.313939"/>
     <use style="fill:#0000ff;stroke:#000000;" x="248.524217" xlink:href="#mdb88696462" y="269.826279"/>
     <use style="fill:#0000ff;stroke:#000000;" x="249.978831" xlink:href="#mdb88696462" y="274.957782"/>
     <use style="fill:#0000ff;stroke:#000000;" x="251.433445" xlink:href="#mdb88696462" y="278.619583"/>
     <use style="fill:#0000ff;stroke:#000000;" x="252.888058" xlink:href="#mdb88696462" y="291.323789"/>
     <use style="fill:#0000ff;stroke:#000000;" x="254.342672" xlink:href="#mdb88696462" y="293.466067"/>
     <use style="fill:#0000ff;stroke:#000000;" x="258.706514" xlink:href="#mdb88696462" y="287.537438"/>
     <use style="fill:#0000ff;stroke:#000000;" x="260.161127" xlink:href="#mdb88696462" y="282.904139"/>
     <use style="fill:#0000ff;stroke:#000000;" x="261.615741" xlink:href="#mdb88696462" y="280.413118"/>
     <use style="fill:#0000ff;stroke:#000000;" x="263.070355" xlink:href="#mdb88696462" y="272.641133"/>
     <use style="fill:#0000ff;stroke:#000000;" x="264.524969" xlink:href="#mdb88696462" y="275.082333"/>
     <use style="fill:#0000ff;stroke:#000000;" x="268.88881" xlink:href="#mdb88696462" y="277.872276"/>
     <use style="fill:#0000ff;stroke:#000000;" x="270.343424" xlink:href="#mdb88696462" y="277.448803"/>
     <use style="fill:#0000ff;stroke:#000000;" x="271.798038" xlink:href="#mdb88696462" y="268.182205"/>
     <use style="fill:#0000ff;stroke:#000000;" x="273.252651" xlink:href="#mdb88696462" y="263.99729"/>
     <use style="fill:#0000ff;stroke:#000000;" x="274.707265" xlink:href="#mdb88696462" y="267.883283"/>
     <use style="fill:#0000ff;stroke:#000000;" x="279.071106" xlink:href="#mdb88696462" y="272.989875"/>
     <use style="fill:#0000ff;stroke:#000000;" x="280.52572" xlink:href="#mdb88696462" y="274.459578"/>
     <use style="fill:#0000ff;stroke:#000000;" x="281.980334" xlink:href="#mdb88696462" y="279.242338"/>
     <use style="fill:#0000ff;stroke:#000000;" x="283.434948" xlink:href="#mdb88696462" y="274.484488"/>
     <use style="fill:#0000ff;stroke:#000000;" x="284.889562" xlink:href="#mdb88696462" y="269.577177"/>
     <use style="fill:#0000ff;stroke:#000000;" x="289.253403" xlink:href="#mdb88696462" y="271.221251"/>
     <use style="fill:#0000ff;stroke:#000000;" x="290.708017" xlink:href="#mdb88696462" y="269.303164"/>
     <use style="fill:#0000ff;stroke:#000000;" x="292.16263" xlink:href="#mdb88696462" y="271.495263"/>
     <use style="fill:#0000ff;stroke:#000000;" x="293.617244" xlink:href="#mdb88696462" y="269.95083"/>
     <use style="fill:#0000ff;stroke:#000000;" x="295.071858" xlink:href="#mdb88696462" y="267.53454"/>
     <use style="fill:#0000ff;stroke:#000000;" x="299.435699" xlink:href="#mdb88696462" y="264.370943"/>
     <use style="fill:#0000ff;stroke:#000000;" x="300.890313" xlink:href="#mdb88696462" y="265.491902"/>
     <use style="fill:#0000ff;stroke:#000000;" x="302.344927" xlink:href="#mdb88696462" y="259.314171"/>
     <use style="fill:#0000ff;stroke:#000000;" x="303.799541" xlink:href="#mdb88696462" y="266.289029"/>
     <use style="fill:#0000ff;stroke:#000000;" x="305.254154" xlink:href="#mdb88696462" y="264.918968"/>
     <use style="fill:#0000ff;stroke:#000000;" x="309.617996" xlink:href="#mdb88696462" y="269.253344"/>
     <use style="fill:#0000ff;stroke:#000000;" x="311.07261" xlink:href="#mdb88696462" y="274.833231"/>
     <use style="fill:#0000ff;stroke:#000000;" x="312.527223" xlink:href="#mdb88696462" y="273.961374"/>
     <use style="fill:#0000ff;stroke:#000000;" x="313.981837" xlink:href="#mdb88696462" y="267.858372"/>
     <use style="fill:#0000ff;stroke:#000000;" x="315.436451" xlink:href="#mdb88696462" y="269.402805"/>
     <use style="fill:#0000ff;stroke:#000000;" x="321.254906" xlink:href="#mdb88696462" y="268.456217"/>
     <use style="fill:#0000ff;stroke:#000000;" x="322.70952" xlink:href="#mdb88696462" y="267.285438"/>
     <use style="fill:#0000ff;stroke:#000000;" x="324.164134" xlink:href="#mdb88696462" y="265.367351"/>
     <use style="fill:#0000ff;stroke:#000000;" x="325.618747" xlink:href="#mdb88696462" y="265.018609"/>
     <use style="fill:#0000ff;stroke:#000000;" x="329.982589" xlink:href="#mdb88696462" y="268.530948"/>
     <use style="fill:#0000ff;stroke:#000000;" x="331.437203" xlink:href="#mdb88696462" y="271.17143"/>
     <use style="fill:#0000ff;stroke:#000000;" x="332.891816" xlink:href="#mdb88696462" y="276.377664"/>
     <use style="fill:#0000ff;stroke:#000000;" x="334.34643" xlink:href="#mdb88696462" y="274.7585"/>
     <use style="fill:#0000ff;stroke:#000000;" x="335.801044" xlink:href="#mdb88696462" y="276.302933"/>
     <use style="fill:#0000ff;stroke:#000000;" x="340.164885" xlink:href="#mdb88696462" y="281.185334"/>
     <use style="fill:#0000ff;stroke:#000000;" x="341.619499" xlink:href="#mdb88696462" y="283.526894"/>
     <use style="fill:#0000ff;stroke:#000000;" x="343.074113" xlink:href="#mdb88696462" y="279.815273"/>
     <use style="fill:#0000ff;stroke:#000000;" x="344.528727" xlink:href="#mdb88696462" y="280.512759"/>
     <use style="fill:#0000ff;stroke:#000000;" x="345.98334" xlink:href="#mdb88696462" y="275.829639"/>
     <use style="fill:#0000ff;stroke:#000000;" x="350.347182" xlink:href="#mdb88696462" y="268.979332"/>
     <use style="fill:#0000ff;stroke:#000000;" x="351.801795" xlink:href="#mdb88696462" y="262.876331"/>
     <use style="fill:#0000ff;stroke:#000000;" x="353.256409" xlink:href="#mdb88696462" y="259.21453"/>
     <use style="fill:#0000ff;stroke:#000000;" x="354.711023" xlink:href="#mdb88696462" y="252.264581"/>
     <use style="fill:#0000ff;stroke:#000000;" x="356.165637" xlink:href="#mdb88696462" y="247.880385"/>
     <use style="fill:#0000ff;stroke:#000000;" x="360.529478" xlink:href="#mdb88696462" y="251.243263"/>
     <use style="fill:#0000ff;stroke:#000000;" x="363.438706" xlink:href="#mdb88696462" y="233.930667"/>
     <use style="fill:#0000ff;stroke:#000000;" x="366.347933" xlink:href="#mdb88696462" y="229.172817"/>
    </g>
   </g>
   <g id="PathCollection_2">
    <defs>
     <path d="M 0 3 
C 0.795609 3 1.55874 2.683901 2.12132 2.12132 
C 2.683901 1.55874 3 0.795609 3 0 
C 3 -0.795609 2.683901 -1.55874 2.12132 -2.12132 
C 1.55874 -2.683901 0.795609 -3 0 -3 
C -0.795609 -3 -1.55874 -2.683901 -2.12132 -2.12132 
C -2.683901 -1.55874 -3 -0.795609 -3 0 
C -3 0.795609 -2.683901 1.55874 -2.12132 2.12132 
C -1.55874 2.683901 -0.795609 3 0 3 
z
" id="m77fbb30c81" style="stroke:#000000;"/>
    </defs>
    <g clip-path="url(#p6245d97a4f)">
     <use style="fill:#ff0000;stroke:#000000;" x="105.972067" xlink:href="#m77fbb30c81" y="62.398967"/>
     <use style="fill:#ff0000;stroke:#000000;" x="107.426681" xlink:href="#m77fbb30c81" y="63.694298"/>
     <use style="fill:#ff0000;stroke:#000000;" x="108.881294" xlink:href="#m77fbb30c81" y="63.046632"/>
     <use style="fill:#ff0000;stroke:#000000;" x="110.335908" xlink:href="#m77fbb30c81" y="65.911306"/>
     <use style="fill:#ff0000;stroke:#000000;" x="111.790522" xlink:href="#m77fbb30c81" y="66.135498"/>
     <use style="fill:#ff0000;stroke:#000000;" x="116.154363" xlink:href="#m77fbb30c81" y="64.815257"/>
     <use style="fill:#ff0000;stroke:#000000;" x="117.608977" xlink:href="#m77fbb30c81" y="65.313461"/>
     <use style="fill:#ff0000;stroke:#000000;" x="119.063591" xlink:href="#m77fbb30c81" y="61.452379"/>
     <use style="fill:#ff0000;stroke:#000000;" x="120.518205" xlink:href="#m77fbb30c81" y="64.964718"/>
     <use style="fill:#ff0000;stroke:#000000;" x="121.972818" xlink:href="#m77fbb30c81" y="63.146273"/>
     <use style="fill:#ff0000;stroke:#000000;" x="126.33666" xlink:href="#m77fbb30c81" y="64.840167"/>
     <use style="fill:#ff0000;stroke:#000000;" x="127.791273" xlink:href="#m77fbb30c81" y="66.210229"/>
     <use style="fill:#ff0000;stroke:#000000;" x="129.245887" xlink:href="#m77fbb30c81" y="69.025082"/>
     <use style="fill:#ff0000;stroke:#000000;" x="130.700501" xlink:href="#m77fbb30c81" y="70.893348"/>
     <use style="fill:#ff0000;stroke:#000000;" x="132.155115" xlink:href="#m77fbb30c81" y="70.694066"/>
     <use style="fill:#ff0000;stroke:#000000;" x="136.518956" xlink:href="#m77fbb30c81" y="71.441373"/>
     <use style="fill:#ff0000;stroke:#000000;" x="137.97357" xlink:href="#m77fbb30c81" y="71.740295"/>
     <use style="fill:#ff0000;stroke:#000000;" x="139.428184" xlink:href="#m77fbb30c81" y="73.807843"/>
     <use style="fill:#ff0000;stroke:#000000;" x="140.882797" xlink:href="#m77fbb30c81" y="72.213589"/>
     <use style="fill:#ff0000;stroke:#000000;" x="142.337411" xlink:href="#m77fbb30c81" y="71.640654"/>
     <use style="fill:#ff0000;stroke:#000000;" x="146.701253" xlink:href="#m77fbb30c81" y="71.541013"/>
     <use style="fill:#ff0000;stroke:#000000;" x="148.155866" xlink:href="#m77fbb30c81" y="72.985806"/>
     <use style="fill:#ff0000;stroke:#000000;" x="149.61048" xlink:href="#m77fbb30c81" y="69.747478"/>
     <use style="fill:#ff0000;stroke:#000000;" x="151.065094" xlink:href="#m77fbb30c81" y="70.718977"/>
     <use style="fill:#ff0000;stroke:#000000;" x="152.519708" xlink:href="#m77fbb30c81" y="72.935985"/>
     <use style="fill:#ff0000;stroke:#000000;" x="156.883549" xlink:href="#m77fbb30c81" y="72.637063"/>
     <use style="fill:#ff0000;stroke:#000000;" x="158.338163" xlink:href="#m77fbb30c81" y="71.665565"/>
     <use style="fill:#ff0000;stroke:#000000;" x="159.792777" xlink:href="#m77fbb30c81" y="69.722568"/>
     <use style="fill:#ff0000;stroke:#000000;" x="161.24739" xlink:href="#m77fbb30c81" y="68.203045"/>
     <use style="fill:#ff0000;stroke:#000000;" x="162.702004" xlink:href="#m77fbb30c81" y="68.178135"/>
     <use style="fill:#ff0000;stroke:#000000;" x="167.065846" xlink:href="#m77fbb30c81" y="70.245683"/>
     <use style="fill:#ff0000;stroke:#000000;" x="168.520459" xlink:href="#m77fbb30c81" y="73.309638"/>
     <use style="fill:#ff0000;stroke:#000000;" x="169.975073" xlink:href="#m77fbb30c81" y="74.206406"/>
     <use style="fill:#ff0000;stroke:#000000;" x="171.429687" xlink:href="#m77fbb30c81" y="73.135267"/>
     <use style="fill:#ff0000;stroke:#000000;" x="172.884301" xlink:href="#m77fbb30c81" y="75.202814"/>
     <use style="fill:#ff0000;stroke:#000000;" x="180.15737" xlink:href="#m77fbb30c81" y="75.85048"/>
     <use style="fill:#ff0000;stroke:#000000;" x="181.611983" xlink:href="#m77fbb30c81" y="78.192039"/>
     <use style="fill:#ff0000;stroke:#000000;" x="183.066597" xlink:href="#m77fbb30c81" y="80.832522"/>
     <use style="fill:#ff0000;stroke:#000000;" x="188.885052" xlink:href="#m77fbb30c81" y="81.031803"/>
     <use style="fill:#ff0000;stroke:#000000;" x="190.339666" xlink:href="#m77fbb30c81" y="81.729289"/>
     <use style="fill:#ff0000;stroke:#000000;" x="191.79428" xlink:href="#m77fbb30c81" y="85.665102"/>
     <use style="fill:#ff0000;stroke:#000000;" x="193.248894" xlink:href="#m77fbb30c81" y="84.942706"/>
     <use style="fill:#ff0000;stroke:#000000;" x="197.612735" xlink:href="#m77fbb30c81" y="82.376954"/>
     <use style="fill:#ff0000;stroke:#000000;" x="199.067349" xlink:href="#m77fbb30c81" y="79.088807"/>
     <use style="fill:#ff0000;stroke:#000000;" x="200.521962" xlink:href="#m77fbb30c81" y="78.964256"/>
     <use style="fill:#ff0000;stroke:#000000;" x="201.976576" xlink:href="#m77fbb30c81" y="79.611921"/>
     <use style="fill:#ff0000;stroke:#000000;" x="203.43119" xlink:href="#m77fbb30c81" y="81.82893"/>
     <use style="fill:#ff0000;stroke:#000000;" x="207.795031" xlink:href="#m77fbb30c81" y="81.156354"/>
     <use style="fill:#ff0000;stroke:#000000;" x="209.249645" xlink:href="#m77fbb30c81" y="77.942937"/>
     <use style="fill:#ff0000;stroke:#000000;" x="210.704259" xlink:href="#m77fbb30c81" y="80.085215"/>
     <use style="fill:#ff0000;stroke:#000000;" x="212.158873" xlink:href="#m77fbb30c81" y="81.978391"/>
     <use style="fill:#ff0000;stroke:#000000;" x="213.613486" xlink:href="#m77fbb30c81" y="79.811203"/>
     <use style="fill:#ff0000;stroke:#000000;" x="217.977328" xlink:href="#m77fbb30c81" y="81.156354"/>
     <use style="fill:#ff0000;stroke:#000000;" x="219.431942" xlink:href="#m77fbb30c81" y="80.757791"/>
     <use style="fill:#ff0000;stroke:#000000;" x="220.886555" xlink:href="#m77fbb30c81" y="82.626057"/>
     <use style="fill:#ff0000;stroke:#000000;" x="222.341169" xlink:href="#m77fbb30c81" y="86.213127"/>
     <use style="fill:#ff0000;stroke:#000000;" x="223.795783" xlink:href="#m77fbb30c81" y="86.61169"/>
     <use style="fill:#ff0000;stroke:#000000;" x="228.159624" xlink:href="#m77fbb30c81" y="87.956841"/>
     <use style="fill:#ff0000;stroke:#000000;" x="229.614238" xlink:href="#m77fbb30c81" y="87.010253"/>
     <use style="fill:#ff0000;stroke:#000000;" x="231.068852" xlink:href="#m77fbb30c81" y="86.337678"/>
     <use style="fill:#ff0000;stroke:#000000;" x="232.523466" xlink:href="#m77fbb30c81" y="85.939114"/>
     <use style="fill:#ff0000;stroke:#000000;" x="233.978079" xlink:href="#m77fbb30c81" y="83.174081"/>
     <use style="fill:#ff0000;stroke:#000000;" x="238.341921" xlink:href="#m77fbb30c81" y="83.921387"/>
     <use style="fill:#ff0000;stroke:#000000;" x="239.796534" xlink:href="#m77fbb30c81" y="84.867975"/>
     <use style="fill:#ff0000;stroke:#000000;" x="241.251148" xlink:href="#m77fbb30c81" y="83.722106"/>
     <use style="fill:#ff0000;stroke:#000000;" x="242.705762" xlink:href="#m77fbb30c81" y="80.234676"/>
     <use style="fill:#ff0000;stroke:#000000;" x="244.160376" xlink:href="#m77fbb30c81" y="72.985806"/>
     <use style="fill:#ff0000;stroke:#000000;" x="248.524217" xlink:href="#m77fbb30c81" y="77.419823"/>
     <use style="fill:#ff0000;stroke:#000000;" x="249.978831" xlink:href="#m77fbb30c81" y="79.46246"/>
     <use style="fill:#ff0000;stroke:#000000;" x="251.433445" xlink:href="#m77fbb30c81" y="80.65815"/>
     <use style="fill:#ff0000;stroke:#000000;" x="252.888058" xlink:href="#m77fbb30c81" y="85.291449"/>
     <use style="fill:#ff0000;stroke:#000000;" x="254.342672" xlink:href="#m77fbb30c81" y="84.569053"/>
     <use style="fill:#ff0000;stroke:#000000;" x="258.706514" xlink:href="#m77fbb30c81" y="86.860792"/>
     <use style="fill:#ff0000;stroke:#000000;" x="260.161127" xlink:href="#m77fbb30c81" y="86.736241"/>
     <use style="fill:#ff0000;stroke:#000000;" x="261.615741" xlink:href="#m77fbb30c81" y="84.494322"/>
     <use style="fill:#ff0000;stroke:#000000;" x="263.070355" xlink:href="#m77fbb30c81" y="78.29168"/>
     <use style="fill:#ff0000;stroke:#000000;" x="264.524969" xlink:href="#m77fbb30c81" y="80.110125"/>
     <use style="fill:#ff0000;stroke:#000000;" x="268.88881" xlink:href="#m77fbb30c81" y="80.63324"/>
     <use style="fill:#ff0000;stroke:#000000;" x="270.343424" xlink:href="#m77fbb30c81" y="81.056713"/>
     <use style="fill:#ff0000;stroke:#000000;" x="271.798038" xlink:href="#m77fbb30c81" y="79.088807"/>
     <use style="fill:#ff0000;stroke:#000000;" x="273.252651" xlink:href="#m77fbb30c81" y="77.220541"/>
     <use style="fill:#ff0000;stroke:#000000;" x="274.707265" xlink:href="#m77fbb30c81" y="73.932394"/>
     <use style="fill:#ff0000;stroke:#000000;" x="279.071106" xlink:href="#m77fbb30c81" y="76.199223"/>
     <use style="fill:#ff0000;stroke:#000000;" x="280.52572" xlink:href="#m77fbb30c81" y="76.298863"/>
     <use style="fill:#ff0000;stroke:#000000;" x="281.980334" xlink:href="#m77fbb30c81" y="75.526647"/>
     <use style="fill:#ff0000;stroke:#000000;" x="283.434948" xlink:href="#m77fbb30c81" y="72.985806"/>
     <use style="fill:#ff0000;stroke:#000000;" x="284.889562" xlink:href="#m77fbb30c81" y="73.857663"/>
     <use style="fill:#ff0000;stroke:#000000;" x="289.253403" xlink:href="#m77fbb30c81" y="75.028443"/>
     <use style="fill:#ff0000;stroke:#000000;" x="290.708017" xlink:href="#m77fbb30c81" y="71.16736"/>
     <use style="fill:#ff0000;stroke:#000000;" x="292.16263" xlink:href="#m77fbb30c81" y="70.743887"/>
     <use style="fill:#ff0000;stroke:#000000;" x="293.617244" xlink:href="#m77fbb30c81" y="69.398735"/>
     <use style="fill:#ff0000;stroke:#000000;" x="295.071858" xlink:href="#m77fbb30c81" y="69.548197"/>
     <use style="fill:#ff0000;stroke:#000000;" x="299.435699" xlink:href="#m77fbb30c81" y="69.199454"/>
     <use style="fill:#ff0000;stroke:#000000;" x="300.890313" xlink:href="#m77fbb30c81" y="67.55538"/>
     <use style="fill:#ff0000;stroke:#000000;" x="302.344927" xlink:href="#m77fbb30c81" y="63.221004"/>
     <use style="fill:#ff0000;stroke:#000000;" x="303.799541" xlink:href="#m77fbb30c81" y="67.082086"/>
     <use style="fill:#ff0000;stroke:#000000;" x="305.254154" xlink:href="#m77fbb30c81" y="66.235139"/>
     <use style="fill:#ff0000;stroke:#000000;" x="309.617996" xlink:href="#m77fbb30c81" y="65.712025"/>
     <use style="fill:#ff0000;stroke:#000000;" x="311.07261" xlink:href="#m77fbb30c81" y="69.498376"/>
     <use style="fill:#ff0000;stroke:#000000;" x="312.527223" xlink:href="#m77fbb30c81" y="71.16736"/>
     <use style="fill:#ff0000;stroke:#000000;" x="313.981837" xlink:href="#m77fbb30c81" y="71.267001"/>
     <use style="fill:#ff0000;stroke:#000000;" x="315.436451" xlink:href="#m77fbb30c81" y="71.466283"/>
     <use style="fill:#ff0000;stroke:#000000;" x="321.254906" xlink:href="#m77fbb30c81" y="71.242091"/>
     <use style="fill:#ff0000;stroke:#000000;" x="322.70952" xlink:href="#m77fbb30c81" y="71.964487"/>
     <use style="fill:#ff0000;stroke:#000000;" x="324.164134" xlink:href="#m77fbb30c81" y="71.839936"/>
     <use style="fill:#ff0000;stroke:#000000;" x="325.618747" xlink:href="#m77fbb30c81" y="73.982214"/>
     <use style="fill:#ff0000;stroke:#000000;" x="329.982589" xlink:href="#m77fbb30c81" y="74.405688"/>
     <use style="fill:#ff0000;stroke:#000000;" x="331.437203" xlink:href="#m77fbb30c81" y="73.832753"/>
     <use style="fill:#ff0000;stroke:#000000;" x="332.891816" xlink:href="#m77fbb30c81" y="75.800659"/>
     <use style="fill:#ff0000;stroke:#000000;" x="334.34643" xlink:href="#m77fbb30c81" y="76.523055"/>
     <use style="fill:#ff0000;stroke:#000000;" x="335.801044" xlink:href="#m77fbb30c81" y="79.337909"/>
     <use style="fill:#ff0000;stroke:#000000;" x="340.164885" xlink:href="#m77fbb30c81" y="82.850248"/>
     <use style="fill:#ff0000;stroke:#000000;" x="341.619499" xlink:href="#m77fbb30c81" y="83.996118"/>
     <use style="fill:#ff0000;stroke:#000000;" x="343.074113" xlink:href="#m77fbb30c81" y="81.629648"/>
     <use style="fill:#ff0000;stroke:#000000;" x="344.528727" xlink:href="#m77fbb30c81" y="81.928571"/>
     <use style="fill:#ff0000;stroke:#000000;" x="345.98334" xlink:href="#m77fbb30c81" y="80.458868"/>
     <use style="fill:#ff0000;stroke:#000000;" x="350.347182" xlink:href="#m77fbb30c81" y="78.515872"/>
     <use style="fill:#ff0000;stroke:#000000;" x="351.801795" xlink:href="#m77fbb30c81" y="74.081855"/>
     <use style="fill:#ff0000;stroke:#000000;" x="353.256409" xlink:href="#m77fbb30c81" y="69.622927"/>
     <use style="fill:#ff0000;stroke:#000000;" x="354.711023" xlink:href="#m77fbb30c81" y="63.818849"/>
     <use style="fill:#ff0000;stroke:#000000;" x="356.165637" xlink:href="#m77fbb30c81" y="67.131906"/>
     <use style="fill:#ff0000;stroke:#000000;" x="360.529478" xlink:href="#m77fbb30c81" y="68.501968"/>
     <use style="fill:#ff0000;stroke:#000000;" x="363.438706" xlink:href="#m77fbb30c81" y="56.769259"/>
     <use style="fill:#ff0000;stroke:#000000;" x="366.347933" xlink:href="#m77fbb30c81" y="54.377879"/>
    </g>
   </g>
   <g id="matplotlib.axis_1">
    <g id="xtick_1">
     <g id="line2d_1">
      <defs>
       <path d="M 0 0 
L 0 3.5 
" id="mbda052491c" style="stroke:#000000;stroke-width:0.8;"/>
      </defs>
      <g>
       <use style="stroke:#000000;stroke-width:0.8;" x="98.698998" xlink:href="#mbda052491c" y="307.584"/>
      </g>
     </g>
     <g id="text_1">
      <!-- 2017-11 -->
      <defs>
       <path d="M 19.1875 8.296875 
L 53.609375 8.296875 
L 53.609375 0 
L 7.328125 0 
L 7.328125 8.296875 
Q 12.9375 14.109375 22.625 23.890625 
Q 32.328125 33.6875 34.8125 36.53125 
Q 39.546875 41.84375 41.421875 45.53125 
Q 43.3125 49.21875 43.3125 52.78125 
Q 43.3125 58.59375 39.234375 62.25 
Q 35.15625 65.921875 28.609375 65.921875 
Q 23.96875 65.921875 18.8125 64.3125 
Q 13.671875 62.703125 7.8125 59.421875 
L 7.8125 69.390625 
Q 13.765625 71.78125 18.9375 73 
Q 24.125 74.21875 28.421875 74.21875 
Q 39.75 74.21875 46.484375 68.546875 
Q 53.21875 62.890625 53.21875 53.421875 
Q 53.21875 48.921875 51.53125 44.890625 
Q 49.859375 40.875 45.40625 35.40625 
Q 44.1875 33.984375 37.640625 27.21875 
Q 31.109375 20.453125 19.1875 8.296875 
z
" id="DejaVuSans-50"/>
       <path d="M 31.78125 66.40625 
Q 24.171875 66.40625 20.328125 58.90625 
Q 16.5 51.421875 16.5 36.375 
Q 16.5 21.390625 20.328125 13.890625 
Q 24.171875 6.390625 31.78125 6.390625 
Q 39.453125 6.390625 43.28125 13.890625 
Q 47.125 21.390625 47.125 36.375 
Q 47.125 51.421875 43.28125 58.90625 
Q 39.453125 66.40625 31.78125 66.40625 
z
M 31.78125 74.21875 
Q 44.046875 74.21875 50.515625 64.515625 
Q 56.984375 54.828125 56.984375 36.375 
Q 56.984375 17.96875 50.515625 8.265625 
Q 44.046875 -1.421875 31.78125 -1.421875 
Q 19.53125 -1.421875 13.0625 8.265625 
Q 6.59375 17.96875 6.59375 36.375 
Q 6.59375 54.828125 13.0625 64.515625 
Q 19.53125 74.21875 31.78125 74.21875 
z
" id="DejaVuSans-48"/>
       <path d="M 12.40625 8.296875 
L 28.515625 8.296875 
L 28.515625 63.921875 
L 10.984375 60.40625 
L 10.984375 69.390625 
L 28.421875 72.90625 
L 38.28125 72.90625 
L 38.28125 8.296875 
L 54.390625 8.296875 
L 54.390625 0 
L 12.40625 0 
z
" id="DejaVuSans-49"/>
       <path d="M 8.203125 72.90625 
L 55.078125 72.90625 
L 55.078125 68.703125 
L 28.609375 0 
L 18.3125 0 
L 43.21875 64.59375 
L 8.203125 64.59375 
z
" id="DejaVuSans-55"/>
       <path d="M 4.890625 31.390625 
L 31.203125 31.390625 
L 31.203125 23.390625 
L 4.890625 23.390625 
z
" id="DejaVuSans-45"/>
      </defs>
      <g transform="translate(77.807592 322.182437)scale(0.1 -0.1)">
       <use xlink:href="#DejaVuSans-50"/>
       <use x="63.623047" xlink:href="#DejaVuSans-48"/>
       <use x="127.246094" xlink:href="#DejaVuSans-49"/>
       <use x="190.869141" xlink:href="#DejaVuSans-55"/>
       <use x="254.492188" xlink:href="#DejaVuSans-45"/>
       <use x="290.576172" xlink:href="#DejaVuSans-49"/>
       <use x="354.199219" xlink:href="#DejaVuSans-49"/>
      </g>
     </g>
    </g>
    <g id="xtick_2">
     <g id="line2d_2">
      <g>
       <use style="stroke:#000000;stroke-width:0.8;" x="142.337411" xlink:href="#mbda052491c" y="307.584"/>
      </g>
     </g>
     <g id="text_2">
      <!-- 2017-12 -->
      <g transform="translate(121.446005 322.182437)scale(0.1 -0.1)">
       <use xlink:href="#DejaVuSans-50"/>
       <use x="63.623047" xlink:href="#DejaVuSans-48"/>
       <use x="127.246094" xlink:href="#DejaVuSans-49"/>
       <use x="190.869141" xlink:href="#DejaVuSans-55"/>
       <use x="254.492188" xlink:href="#DejaVuSans-45"/>
       <use x="290.576172" xlink:href="#DejaVuSans-49"/>
       <use x="354.199219" xlink:href="#DejaVuSans-50"/>
      </g>
     </g>
    </g>
    <g id="xtick_3">
     <g id="line2d_3">
      <g>
       <use style="stroke:#000000;stroke-width:0.8;" x="187.430438" xlink:href="#mbda052491c" y="307.584"/>
      </g>
     </g>
     <g id="text_3">
      <!-- 2018-01 -->
      <defs>
       <path d="M 31.78125 34.625 
Q 24.75 34.625 20.71875 30.859375 
Q 16.703125 27.09375 16.703125 20.515625 
Q 16.703125 13.921875 20.71875 10.15625 
Q 24.75 6.390625 31.78125 6.390625 
Q 38.8125 6.390625 42.859375 10.171875 
Q 46.921875 13.96875 46.921875 20.515625 
Q 46.921875 27.09375 42.890625 30.859375 
Q 38.875 34.625 31.78125 34.625 
z
M 21.921875 38.8125 
Q 15.578125 40.375 12.03125 44.71875 
Q 8.5 49.078125 8.5 55.328125 
Q 8.5 64.0625 14.71875 69.140625 
Q 20.953125 74.21875 31.78125 74.21875 
Q 42.671875 74.21875 48.875 69.140625 
Q 55.078125 64.0625 55.078125 55.328125 
Q 55.078125 49.078125 51.53125 44.71875 
Q 48 40.375 41.703125 38.8125 
Q 48.828125 37.15625 52.796875 32.3125 
Q 56.78125 27.484375 56.78125 20.515625 
Q 56.78125 9.90625 50.3125 4.234375 
Q 43.84375 -1.421875 31.78125 -1.421875 
Q 19.734375 -1.421875 13.25 4.234375 
Q 6.78125 9.90625 6.78125 20.515625 
Q 6.78125 27.484375 10.78125 32.3125 
Q 14.796875 37.15625 21.921875 38.8125 
z
M 18.3125 54.390625 
Q 18.3125 48.734375 21.84375 45.5625 
Q 25.390625 42.390625 31.78125 42.390625 
Q 38.140625 42.390625 41.71875 45.5625 
Q 45.3125 48.734375 45.3125 54.390625 
Q 45.3125 60.0625 41.71875 63.234375 
Q 38.140625 66.40625 31.78125 66.40625 
Q 25.390625 66.40625 21.84375 63.234375 
Q 18.3125 60.0625 18.3125 54.390625 
z
" id="DejaVuSans-56"/>
      </defs>
      <g transform="translate(166.539032 322.182437)scale(0.1 -0.1)">
       <use xlink:href="#DejaVuSans-50"/>
       <use x="63.623047" xlink:href="#DejaVuSans-48"/>
       <use x="127.246094" xlink:href="#DejaVuSans-49"/>
       <use x="190.869141" xlink:href="#DejaVuSans-56"/>
       <use x="254.492188" xlink:href="#DejaVuSans-45"/>
       <use x="290.576172" xlink:href="#DejaVuSans-48"/>
       <use x="354.199219" xlink:href="#DejaVuSans-49"/>
      </g>
     </g>
    </g>
    <g id="xtick_4">
     <g id="line2d_4">
      <g>
       <use style="stroke:#000000;stroke-width:0.8;" x="232.523466" xlink:href="#mbda052491c" y="307.584"/>
      </g>
     </g>
     <g id="text_4">
      <!-- 2018-02 -->
      <g transform="translate(211.632059 322.182437)scale(0.1 -0.1)">
       <use xlink:href="#DejaVuSans-50"/>
       <use x="63.623047" xlink:href="#DejaVuSans-48"/>
       <use x="127.246094" xlink:href="#DejaVuSans-49"/>
       <use x="190.869141" xlink:href="#DejaVuSans-56"/>
       <use x="254.492188" xlink:href="#DejaVuSans-45"/>
       <use x="290.576172" xlink:href="#DejaVuSans-48"/>
       <use x="354.199219" xlink:href="#DejaVuSans-50"/>
      </g>
     </g>
    </g>
    <g id="xtick_5">
     <g id="line2d_5">
      <g>
       <use style="stroke:#000000;stroke-width:0.8;" x="273.252651" xlink:href="#mbda052491c" y="307.584"/>
      </g>
     </g>
     <g id="text_5">
      <!-- 2018-03 -->
      <defs>
       <path d="M 40.578125 39.3125 
Q 47.65625 37.796875 51.625 33 
Q 55.609375 28.21875 55.609375 21.1875 
Q 55.609375 10.40625 48.1875 4.484375 
Q 40.765625 -1.421875 27.09375 -1.421875 
Q 22.515625 -1.421875 17.65625 -0.515625 
Q 12.796875 0.390625 7.625 2.203125 
L 7.625 11.71875 
Q 11.71875 9.328125 16.59375 8.109375 
Q 21.484375 6.890625 26.8125 6.890625 
Q 36.078125 6.890625 40.9375 10.546875 
Q 45.796875 14.203125 45.796875 21.1875 
Q 45.796875 27.640625 41.28125 31.265625 
Q 36.765625 34.90625 28.71875 34.90625 
L 20.21875 34.90625 
L 20.21875 43.015625 
L 29.109375 43.015625 
Q 36.375 43.015625 40.234375 45.921875 
Q 44.09375 48.828125 44.09375 54.296875 
Q 44.09375 59.90625 40.109375 62.90625 
Q 36.140625 65.921875 28.71875 65.921875 
Q 24.65625 65.921875 20.015625 65.03125 
Q 15.375 64.15625 9.8125 62.3125 
L 9.8125 71.09375 
Q 15.4375 72.65625 20.34375 73.4375 
Q 25.25 74.21875 29.59375 74.21875 
Q 40.828125 74.21875 47.359375 69.109375 
Q 53.90625 64.015625 53.90625 55.328125 
Q 53.90625 49.265625 50.4375 45.09375 
Q 46.96875 40.921875 40.578125 39.3125 
z
" id="DejaVuSans-51"/>
      </defs>
      <g transform="translate(252.361245 322.182437)scale(0.1 -0.1)">
       <use xlink:href="#DejaVuSans-50"/>
       <use x="63.623047" xlink:href="#DejaVuSans-48"/>
       <use x="127.246094" xlink:href="#DejaVuSans-49"/>
       <use x="190.869141" xlink:href="#DejaVuSans-56"/>
       <use x="254.492188" xlink:href="#DejaVuSans-45"/>
       <use x="290.576172" xlink:href="#DejaVuSans-48"/>
       <use x="354.199219" xlink:href="#DejaVuSans-51"/>
      </g>
     </g>
    </g>
    <g id="xtick_6">
     <g id="line2d_6">
      <g>
       <use style="stroke:#000000;stroke-width:0.8;" x="318.345679" xlink:href="#mbda052491c" y="307.584"/>
      </g>
     </g>
     <g id="text_6">
      <!-- 2018-04 -->
      <defs>
       <path d="M 37.796875 64.3125 
L 12.890625 25.390625 
L 37.796875 25.390625 
z
M 35.203125 72.90625 
L 47.609375 72.90625 
L 47.609375 25.390625 
L 58.015625 25.390625 
L 58.015625 17.1875 
L 47.609375 17.1875 
L 47.609375 0 
L 37.796875 0 
L 37.796875 17.1875 
L 4.890625 17.1875 
L 4.890625 26.703125 
z
" id="DejaVuSans-52"/>
      </defs>
      <g transform="translate(297.454272 322.182437)scale(0.1 -0.1)">
       <use xlink:href="#DejaVuSans-50"/>
       <use x="63.623047" xlink:href="#DejaVuSans-48"/>
       <use x="127.246094" xlink:href="#DejaVuSans-49"/>
       <use x="190.869141" xlink:href="#DejaVuSans-56"/>
       <use x="254.492188" xlink:href="#DejaVuSans-45"/>
       <use x="290.576172" xlink:href="#DejaVuSans-48"/>
       <use x="354.199219" xlink:href="#DejaVuSans-52"/>
      </g>
     </g>
    </g>
    <g id="xtick_7">
     <g id="line2d_7">
      <g>
       <use style="stroke:#000000;stroke-width:0.8;" x="361.984092" xlink:href="#mbda052491c" y="307.584"/>
      </g>
     </g>
     <g id="text_7">
      <!-- 2018-05 -->
      <defs>
       <path d="M 10.796875 72.90625 
L 49.515625 72.90625 
L 49.515625 64.59375 
L 19.828125 64.59375 
L 19.828125 46.734375 
Q 21.96875 47.46875 24.109375 47.828125 
Q 26.265625 48.1875 28.421875 48.1875 
Q 40.625 48.1875 47.75 41.5 
Q 54.890625 34.8125 54.890625 23.390625 
Q 54.890625 11.625 47.5625 5.09375 
Q 40.234375 -1.421875 26.90625 -1.421875 
Q 22.3125 -1.421875 17.546875 -0.640625 
Q 12.796875 0.140625 7.71875 1.703125 
L 7.71875 11.625 
Q 12.109375 9.234375 16.796875 8.0625 
Q 21.484375 6.890625 26.703125 6.890625 
Q 35.15625 6.890625 40.078125 11.328125 
Q 45.015625 15.765625 45.015625 23.390625 
Q 45.015625 31 40.078125 35.4375 
Q 35.15625 39.890625 26.703125 39.890625 
Q 22.75 39.890625 18.8125 39.015625 
Q 14.890625 38.140625 10.796875 36.28125 
z
" id="DejaVuSans-53"/>
      </defs>
      <g transform="translate(341.092686 322.182437)scale(0.1 -0.1)">
       <use xlink:href="#DejaVuSans-50"/>
       <use x="63.623047" xlink:href="#DejaVuSans-48"/>
       <use x="127.246094" xlink:href="#DejaVuSans-49"/>
       <use x="190.869141" xlink:href="#DejaVuSans-56"/>
       <use x="254.492188" xlink:href="#DejaVuSans-45"/>
       <use x="290.576172" xlink:href="#DejaVuSans-48"/>
       <use x="354.199219" xlink:href="#DejaVuSans-53"/>
      </g>
     </g>
    </g>
    <g id="xtick_8">
     <g id="line2d_8">
      <g>
       <use style="stroke:#000000;stroke-width:0.8;" x="407.077119" xlink:href="#mbda052491c" y="307.584"/>
      </g>
     </g>
     <g id="text_8">
      <!-- 2018-06 -->
      <defs>
       <path d="M 33.015625 40.375 
Q 26.375 40.375 22.484375 35.828125 
Q 18.609375 31.296875 18.609375 23.390625 
Q 18.609375 15.53125 22.484375 10.953125 
Q 26.375 6.390625 33.015625 6.390625 
Q 39.65625 6.390625 43.53125 10.953125 
Q 47.40625 15.53125 47.40625 23.390625 
Q 47.40625 31.296875 43.53125 35.828125 
Q 39.65625 40.375 33.015625 40.375 
z
M 52.59375 71.296875 
L 52.59375 62.3125 
Q 48.875 64.0625 45.09375 64.984375 
Q 41.3125 65.921875 37.59375 65.921875 
Q 27.828125 65.921875 22.671875 59.328125 
Q 17.53125 52.734375 16.796875 39.40625 
Q 19.671875 43.65625 24.015625 45.921875 
Q 28.375 48.1875 33.59375 48.1875 
Q 44.578125 48.1875 50.953125 41.515625 
Q 57.328125 34.859375 57.328125 23.390625 
Q 57.328125 12.15625 50.6875 5.359375 
Q 44.046875 -1.421875 33.015625 -1.421875 
Q 20.359375 -1.421875 13.671875 8.265625 
Q 6.984375 17.96875 6.984375 36.375 
Q 6.984375 53.65625 15.1875 63.9375 
Q 23.390625 74.21875 37.203125 74.21875 
Q 40.921875 74.21875 44.703125 73.484375 
Q 48.484375 72.75 52.59375 71.296875 
z
" id="DejaVuSans-54"/>
      </defs>
      <g transform="translate(386.185713 322.182437)scale(0.1 -0.1)">
       <use xlink:href="#DejaVuSans-50"/>
       <use x="63.623047" xlink:href="#DejaVuSans-48"/>
       <use x="127.246094" xlink:href="#DejaVuSans-49"/>
       <use x="190.869141" xlink:href="#DejaVuSans-56"/>
       <use x="254.492188" xlink:href="#DejaVuSans-45"/>
       <use x="290.576172" xlink:href="#DejaVuSans-48"/>
       <use x="354.199219" xlink:href="#DejaVuSans-54"/>
      </g>
     </g>
    </g>
    <g id="text_9">
     <!-- Date -->
     <defs>
      <path d="M 19.671875 64.796875 
L 19.671875 8.109375 
L 31.59375 8.109375 
Q 46.6875 8.109375 53.6875 14.9375 
Q 60.6875 21.78125 60.6875 36.53125 
Q 60.6875 51.171875 53.6875 57.984375 
Q 46.6875 64.796875 31.59375 64.796875 
z
M 9.8125 72.90625 
L 30.078125 72.90625 
Q 51.265625 72.90625 61.171875 64.09375 
Q 71.09375 55.28125 71.09375 36.53125 
Q 71.09375 17.671875 61.125 8.828125 
Q 51.171875 0 30.078125 0 
L 9.8125 0 
z
" id="DejaVuSans-68"/>
      <path d="M 34.28125 27.484375 
Q 23.390625 27.484375 19.1875 25 
Q 14.984375 22.515625 14.984375 16.5 
Q 14.984375 11.71875 18.140625 8.90625 
Q 21.296875 6.109375 26.703125 6.109375 
Q 34.1875 6.109375 38.703125 11.40625 
Q 43.21875 16.703125 43.21875 25.484375 
L 43.21875 27.484375 
z
M 52.203125 31.203125 
L 52.203125 0 
L 43.21875 0 
L 43.21875 8.296875 
Q 40.140625 3.328125 35.546875 0.953125 
Q 30.953125 -1.421875 24.3125 -1.421875 
Q 15.921875 -1.421875 10.953125 3.296875 
Q 6 8.015625 6 15.921875 
Q 6 25.140625 12.171875 29.828125 
Q 18.359375 34.515625 30.609375 34.515625 
L 43.21875 34.515625 
L 43.21875 35.40625 
Q 43.21875 41.609375 39.140625 45 
Q 35.0625 48.390625 27.6875 48.390625 
Q 23 48.390625 18.546875 47.265625 
Q 14.109375 46.140625 10.015625 43.890625 
L 10.015625 52.203125 
Q 14.9375 54.109375 19.578125 55.046875 
Q 24.21875 56 28.609375 56 
Q 40.484375 56 46.34375 49.84375 
Q 52.203125 43.703125 52.203125 31.203125 
z
" id="DejaVuSans-97"/>
      <path d="M 18.3125 70.21875 
L 18.3125 54.6875 
L 36.8125 54.6875 
L 36.8125 47.703125 
L 18.3125 47.703125 
L 18.3125 18.015625 
Q 18.3125 11.328125 20.140625 9.421875 
Q 21.96875 7.515625 27.59375 7.515625 
L 36.8125 7.515625 
L 36.8125 0 
L 27.59375 0 
Q 17.1875 0 13.234375 3.875 
Q 9.28125 7.765625 9.28125 18.015625 
L 9.28125 47.703125 
L 2.6875 47.703125 
L 2.6875 54.6875 
L 9.28125 54.6875 
L 9.28125 70.21875 
z
" id="DejaVuSans-116"/>
      <path d="M 56.203125 29.59375 
L 56.203125 25.203125 
L 14.890625 25.203125 
Q 15.484375 15.921875 20.484375 11.0625 
Q 25.484375 6.203125 34.421875 6.203125 
Q 39.59375 6.203125 44.453125 7.46875 
Q 49.3125 8.734375 54.109375 11.28125 
L 54.109375 2.78125 
Q 49.265625 0.734375 44.1875 -0.34375 
Q 39.109375 -1.421875 33.890625 -1.421875 
Q 20.796875 -1.421875 13.15625 6.1875 
Q 5.515625 13.8125 5.515625 26.8125 
Q 5.515625 40.234375 12.765625 48.109375 
Q 20.015625 56 32.328125 56 
Q 43.359375 56 49.78125 48.890625 
Q 56.203125 41.796875 56.203125 29.59375 
z
M 47.21875 32.234375 
Q 47.125 39.59375 43.09375 43.984375 
Q 39.0625 48.390625 32.421875 48.390625 
Q 24.90625 48.390625 20.390625 44.140625 
Q 15.875 39.890625 15.1875 32.171875 
z
" id="DejaVuSans-101"/>
     </defs>
     <g transform="translate(224.209219 335.860562)scale(0.1 -0.1)">
      <use xlink:href="#DejaVuSans-68"/>
      <use x="77.001953" xlink:href="#DejaVuSans-97"/>
      <use x="138.28125" xlink:href="#DejaVuSans-116"/>
      <use x="177.490234" xlink:href="#DejaVuSans-101"/>
     </g>
    </g>
   </g>
   <g id="matplotlib.axis_2">
    <g id="ytick_1">
     <g id="line2d_9">
      <defs>
       <path d="M 0 0 
L -3.5 0 
" id="m2c34d20f74" style="stroke:#000000;stroke-width:0.8;"/>
      </defs>
      <g>
       <use style="stroke:#000000;stroke-width:0.8;" x="57.6" xlink:href="#m2c34d20f74" y="272.865324"/>
      </g>
     </g>
     <g id="text_10">
      <!-- 3.4 -->
      <defs>
       <path d="M 10.6875 12.40625 
L 21 12.40625 
L 21 0 
L 10.6875 0 
z
" id="DejaVuSans-46"/>
      </defs>
      <g transform="translate(34.696875 276.664543)scale(0.1 -0.1)">
       <use xlink:href="#DejaVuSans-51"/>
       <use x="63.623047" xlink:href="#DejaVuSans-46"/>
       <use x="95.410156" xlink:href="#DejaVuSans-52"/>
      </g>
     </g>
    </g>
    <g id="ytick_2">
     <g id="line2d_10">
      <g>
       <use style="stroke:#000000;stroke-width:0.8;" x="57.6" xlink:href="#m2c34d20f74" y="223.044906"/>
      </g>
     </g>
     <g id="text_11">
      <!-- 3.6 -->
      <g transform="translate(34.696875 226.844125)scale(0.1 -0.1)">
       <use xlink:href="#DejaVuSans-51"/>
       <use x="63.623047" xlink:href="#DejaVuSans-46"/>
       <use x="95.410156" xlink:href="#DejaVuSans-54"/>
      </g>
     </g>
    </g>
    <g id="ytick_3">
     <g id="line2d_11">
      <g>
       <use style="stroke:#000000;stroke-width:0.8;" x="57.6" xlink:href="#m2c34d20f74" y="173.224488"/>
      </g>
     </g>
     <g id="text_12">
      <!-- 3.8 -->
      <g transform="translate(34.696875 177.023706)scale(0.1 -0.1)">
       <use xlink:href="#DejaVuSans-51"/>
       <use x="63.623047" xlink:href="#DejaVuSans-46"/>
       <use x="95.410156" xlink:href="#DejaVuSans-56"/>
      </g>
     </g>
    </g>
    <g id="ytick_4">
     <g id="line2d_12">
      <g>
       <use style="stroke:#000000;stroke-width:0.8;" x="57.6" xlink:href="#m2c34d20f74" y="123.404069"/>
      </g>
     </g>
     <g id="text_13">
      <!-- 4.0 -->
      <g transform="translate(34.696875 127.203288)scale(0.1 -0.1)">
       <use xlink:href="#DejaVuSans-52"/>
       <use x="63.623047" xlink:href="#DejaVuSans-46"/>
       <use x="95.410156" xlink:href="#DejaVuSans-48"/>
      </g>
     </g>
    </g>
    <g id="ytick_5">
     <g id="line2d_13">
      <g>
       <use style="stroke:#000000;stroke-width:0.8;" x="57.6" xlink:href="#m2c34d20f74" y="73.583651"/>
      </g>
     </g>
     <g id="text_14">
      <!-- 4.2 -->
      <g transform="translate(34.696875 77.382869)scale(0.1 -0.1)">
       <use xlink:href="#DejaVuSans-52"/>
       <use x="63.623047" xlink:href="#DejaVuSans-46"/>
       <use x="95.410156" xlink:href="#DejaVuSans-50"/>
      </g>
     </g>
    </g>
    <g id="text_15">
     <!-- Exchange rate -->
     <defs>
      <path d="M 9.8125 72.90625 
L 55.90625 72.90625 
L 55.90625 64.59375 
L 19.671875 64.59375 
L 19.671875 43.015625 
L 54.390625 43.015625 
L 54.390625 34.71875 
L 19.671875 34.71875 
L 19.671875 8.296875 
L 56.78125 8.296875 
L 56.78125 0 
L 9.8125 0 
z
" id="DejaVuSans-69"/>
      <path d="M 54.890625 54.6875 
L 35.109375 28.078125 
L 55.90625 0 
L 45.3125 0 
L 29.390625 21.484375 
L 13.484375 0 
L 2.875 0 
L 24.125 28.609375 
L 4.6875 54.6875 
L 15.28125 54.6875 
L 29.78125 35.203125 
L 44.28125 54.6875 
z
" id="DejaVuSans-120"/>
      <path d="M 48.78125 52.59375 
L 48.78125 44.1875 
Q 44.96875 46.296875 41.140625 47.34375 
Q 37.3125 48.390625 33.40625 48.390625 
Q 24.65625 48.390625 19.8125 42.84375 
Q 14.984375 37.3125 14.984375 27.296875 
Q 14.984375 17.28125 19.8125 11.734375 
Q 24.65625 6.203125 33.40625 6.203125 
Q 37.3125 6.203125 41.140625 7.25 
Q 44.96875 8.296875 48.78125 10.40625 
L 48.78125 2.09375 
Q 45.015625 0.34375 40.984375 -0.53125 
Q 36.96875 -1.421875 32.421875 -1.421875 
Q 20.0625 -1.421875 12.78125 6.34375 
Q 5.515625 14.109375 5.515625 27.296875 
Q 5.515625 40.671875 12.859375 48.328125 
Q 20.21875 56 33.015625 56 
Q 37.15625 56 41.109375 55.140625 
Q 45.0625 54.296875 48.78125 52.59375 
z
" id="DejaVuSans-99"/>
      <path d="M 54.890625 33.015625 
L 54.890625 0 
L 45.90625 0 
L 45.90625 32.71875 
Q 45.90625 40.484375 42.875 44.328125 
Q 39.84375 48.1875 33.796875 48.1875 
Q 26.515625 48.1875 22.3125 43.546875 
Q 18.109375 38.921875 18.109375 30.90625 
L 18.109375 0 
L 9.078125 0 
L 9.078125 75.984375 
L 18.109375 75.984375 
L 18.109375 46.1875 
Q 21.34375 51.125 25.703125 53.5625 
Q 30.078125 56 35.796875 56 
Q 45.21875 56 50.046875 50.171875 
Q 54.890625 44.34375 54.890625 33.015625 
z
" id="DejaVuSans-104"/>
      <path d="M 54.890625 33.015625 
L 54.890625 0 
L 45.90625 0 
L 45.90625 32.71875 
Q 45.90625 40.484375 42.875 44.328125 
Q 39.84375 48.1875 33.796875 48.1875 
Q 26.515625 48.1875 22.3125 43.546875 
Q 18.109375 38.921875 18.109375 30.90625 
L 18.109375 0 
L 9.078125 0 
L 9.078125 54.6875 
L 18.109375 54.6875 
L 18.109375 46.1875 
Q 21.34375 51.125 25.703125 53.5625 
Q 30.078125 56 35.796875 56 
Q 45.21875 56 50.046875 50.171875 
Q 54.890625 44.34375 54.890625 33.015625 
z
" id="DejaVuSans-110"/>
      <path d="M 45.40625 27.984375 
Q 45.40625 37.75 41.375 43.109375 
Q 37.359375 48.484375 30.078125 48.484375 
Q 22.859375 48.484375 18.828125 43.109375 
Q 14.796875 37.75 14.796875 27.984375 
Q 14.796875 18.265625 18.828125 12.890625 
Q 22.859375 7.515625 30.078125 7.515625 
Q 37.359375 7.515625 41.375 12.890625 
Q 45.40625 18.265625 45.40625 27.984375 
z
M 54.390625 6.78125 
Q 54.390625 -7.171875 48.1875 -13.984375 
Q 42 -20.796875 29.203125 -20.796875 
Q 24.46875 -20.796875 20.265625 -20.09375 
Q 16.0625 -19.390625 12.109375 -17.921875 
L 12.109375 -9.1875 
Q 16.0625 -11.328125 19.921875 -12.34375 
Q 23.78125 -13.375 27.78125 -13.375 
Q 36.625 -13.375 41.015625 -8.765625 
Q 45.40625 -4.15625 45.40625 5.171875 
L 45.40625 9.625 
Q 42.625 4.78125 38.28125 2.390625 
Q 33.9375 0 27.875 0 
Q 17.828125 0 11.671875 7.65625 
Q 5.515625 15.328125 5.515625 27.984375 
Q 5.515625 40.671875 11.671875 48.328125 
Q 17.828125 56 27.875 56 
Q 33.9375 56 38.28125 53.609375 
Q 42.625 51.21875 45.40625 46.390625 
L 45.40625 54.6875 
L 54.390625 54.6875 
z
" id="DejaVuSans-103"/>
      <path id="DejaVuSans-32"/>
      <path d="M 41.109375 46.296875 
Q 39.59375 47.171875 37.8125 47.578125 
Q 36.03125 48 33.890625 48 
Q 26.265625 48 22.1875 43.046875 
Q 18.109375 38.09375 18.109375 28.8125 
L 18.109375 0 
L 9.078125 0 
L 9.078125 54.6875 
L 18.109375 54.6875 
L 18.109375 46.1875 
Q 20.953125 51.171875 25.484375 53.578125 
Q 30.03125 56 36.53125 56 
Q 37.453125 56 38.578125 55.875 
Q 39.703125 55.765625 41.0625 55.515625 
z
" id="DejaVuSans-114"/>
     </defs>
     <g transform="translate(28.617187 210.792844)rotate(-90)scale(0.1 -0.1)">
      <use xlink:href="#DejaVuSans-69"/>
      <use x="63.183594" xlink:href="#DejaVuSans-120"/>
      <use x="122.347656" xlink:href="#DejaVuSans-99"/>
      <use x="177.328125" xlink:href="#DejaVuSans-104"/>
      <use x="240.707031" xlink:href="#DejaVuSans-97"/>
      <use x="301.986328" xlink:href="#DejaVuSans-110"/>
      <use x="365.365234" xlink:href="#DejaVuSans-103"/>
      <use x="428.841797" xlink:href="#DejaVuSans-101"/>
      <use x="490.365234" xlink:href="#DejaVuSans-32"/>
      <use x="522.152344" xlink:href="#DejaVuSans-114"/>
      <use x="563.265625" xlink:href="#DejaVuSans-97"/>
      <use x="624.544922" xlink:href="#DejaVuSans-116"/>
      <use x="663.753906" xlink:href="#DejaVuSans-101"/>
     </g>
    </g>
   </g>
   <g id="patch_3">
    <path d="M 57.6 307.584 
L 57.6 41.472 
" style="fill:none;stroke:#000000;stroke-linecap:square;stroke-linejoin:miter;stroke-width:0.8;"/>
   </g>
   <g id="patch_4">
    <path d="M 414.72 307.584 
L 414.72 41.472 
" style="fill:none;stroke:#000000;stroke-linecap:square;stroke-linejoin:miter;stroke-width:0.8;"/>
   </g>
   <g id="patch_5">
    <path d="M 57.6 307.584 
L 414.72 307.584 
" style="fill:none;stroke:#000000;stroke-linecap:square;stroke-linejoin:miter;stroke-width:0.8;"/>
   </g>
   <g id="patch_6">
    <path d="M 57.6 41.472 
L 414.72 41.472 
" style="fill:none;stroke:#000000;stroke-linecap:square;stroke-linejoin:miter;stroke-width:0.8;"/>
   </g>
   <g id="text_16">
    <!-- Plot of average EUR and USD exchange rates over the last six months -->
    <defs>
     <path d="M 19.671875 64.796875 
L 19.671875 37.40625 
L 32.078125 37.40625 
Q 38.96875 37.40625 42.71875 40.96875 
Q 46.484375 44.53125 46.484375 51.125 
Q 46.484375 57.671875 42.71875 61.234375 
Q 38.96875 64.796875 32.078125 64.796875 
z
M 9.8125 72.90625 
L 32.078125 72.90625 
Q 44.34375 72.90625 50.609375 67.359375 
Q 56.890625 61.8125 56.890625 51.125 
Q 56.890625 40.328125 50.609375 34.8125 
Q 44.34375 29.296875 32.078125 29.296875 
L 19.671875 29.296875 
L 19.671875 0 
L 9.8125 0 
z
" id="DejaVuSans-80"/>
     <path d="M 9.421875 75.984375 
L 18.40625 75.984375 
L 18.40625 0 
L 9.421875 0 
z
" id="DejaVuSans-108"/>
     <path d="M 30.609375 48.390625 
Q 23.390625 48.390625 19.1875 42.75 
Q 14.984375 37.109375 14.984375 27.296875 
Q 14.984375 17.484375 19.15625 11.84375 
Q 23.34375 6.203125 30.609375 6.203125 
Q 37.796875 6.203125 41.984375 11.859375 
Q 46.1875 17.53125 46.1875 27.296875 
Q 46.1875 37.015625 41.984375 42.703125 
Q 37.796875 48.390625 30.609375 48.390625 
z
M 30.609375 56 
Q 42.328125 56 49.015625 48.375 
Q 55.71875 40.765625 55.71875 27.296875 
Q 55.71875 13.875 49.015625 6.21875 
Q 42.328125 -1.421875 30.609375 -1.421875 
Q 18.84375 -1.421875 12.171875 6.21875 
Q 5.515625 13.875 5.515625 27.296875 
Q 5.515625 40.765625 12.171875 48.375 
Q 18.84375 56 30.609375 56 
z
" id="DejaVuSans-111"/>
     <path d="M 37.109375 75.984375 
L 37.109375 68.5 
L 28.515625 68.5 
Q 23.6875 68.5 21.796875 66.546875 
Q 19.921875 64.59375 19.921875 59.515625 
L 19.921875 54.6875 
L 34.71875 54.6875 
L 34.71875 47.703125 
L 19.921875 47.703125 
L 19.921875 0 
L 10.890625 0 
L 10.890625 47.703125 
L 2.296875 47.703125 
L 2.296875 54.6875 
L 10.890625 54.6875 
L 10.890625 58.5 
Q 10.890625 67.625 15.140625 71.796875 
Q 19.390625 75.984375 28.609375 75.984375 
z
" id="DejaVuSans-102"/>
     <path d="M 2.984375 54.6875 
L 12.5 54.6875 
L 29.59375 8.796875 
L 46.6875 54.6875 
L 56.203125 54.6875 
L 35.6875 0 
L 23.484375 0 
z
" id="DejaVuSans-118"/>
     <path d="M 8.6875 72.90625 
L 18.609375 72.90625 
L 18.609375 28.609375 
Q 18.609375 16.890625 22.84375 11.734375 
Q 27.09375 6.59375 36.625 6.59375 
Q 46.09375 6.59375 50.34375 11.734375 
Q 54.59375 16.890625 54.59375 28.609375 
L 54.59375 72.90625 
L 64.5 72.90625 
L 64.5 27.390625 
Q 64.5 13.140625 57.4375 5.859375 
Q 50.390625 -1.421875 36.625 -1.421875 
Q 22.796875 -1.421875 15.734375 5.859375 
Q 8.6875 13.140625 8.6875 27.390625 
z
" id="DejaVuSans-85"/>
     <path d="M 44.390625 34.1875 
Q 47.5625 33.109375 50.5625 29.59375 
Q 53.5625 26.078125 56.59375 19.921875 
L 66.609375 0 
L 56 0 
L 46.6875 18.703125 
Q 43.0625 26.03125 39.671875 28.421875 
Q 36.28125 30.8125 30.421875 30.8125 
L 19.671875 30.8125 
L 19.671875 0 
L 9.8125 0 
L 9.8125 72.90625 
L 32.078125 72.90625 
Q 44.578125 72.90625 50.734375 67.671875 
Q 56.890625 62.453125 56.890625 51.90625 
Q 56.890625 45.015625 53.6875 40.46875 
Q 50.484375 35.9375 44.390625 34.1875 
z
M 19.671875 64.796875 
L 19.671875 38.921875 
L 32.078125 38.921875 
Q 39.203125 38.921875 42.84375 42.21875 
Q 46.484375 45.515625 46.484375 51.90625 
Q 46.484375 58.296875 42.84375 61.546875 
Q 39.203125 64.796875 32.078125 64.796875 
z
" id="DejaVuSans-82"/>
     <path d="M 45.40625 46.390625 
L 45.40625 75.984375 
L 54.390625 75.984375 
L 54.390625 0 
L 45.40625 0 
L 45.40625 8.203125 
Q 42.578125 3.328125 38.25 0.953125 
Q 33.9375 -1.421875 27.875 -1.421875 
Q 17.96875 -1.421875 11.734375 6.484375 
Q 5.515625 14.40625 5.515625 27.296875 
Q 5.515625 40.1875 11.734375 48.09375 
Q 17.96875 56 27.875 56 
Q 33.9375 56 38.25 53.625 
Q 42.578125 51.265625 45.40625 46.390625 
z
M 14.796875 27.296875 
Q 14.796875 17.390625 18.875 11.75 
Q 22.953125 6.109375 30.078125 6.109375 
Q 37.203125 6.109375 41.296875 11.75 
Q 45.40625 17.390625 45.40625 27.296875 
Q 45.40625 37.203125 41.296875 42.84375 
Q 37.203125 48.484375 30.078125 48.484375 
Q 22.953125 48.484375 18.875 42.84375 
Q 14.796875 37.203125 14.796875 27.296875 
z
" id="DejaVuSans-100"/>
     <path d="M 53.515625 70.515625 
L 53.515625 60.890625 
Q 47.90625 63.578125 42.921875 64.890625 
Q 37.9375 66.21875 33.296875 66.21875 
Q 25.25 66.21875 20.875 63.09375 
Q 16.5 59.96875 16.5 54.203125 
Q 16.5 49.359375 19.40625 46.890625 
Q 22.3125 44.4375 30.421875 42.921875 
L 36.375 41.703125 
Q 47.40625 39.59375 52.65625 34.296875 
Q 57.90625 29 57.90625 20.125 
Q 57.90625 9.515625 50.796875 4.046875 
Q 43.703125 -1.421875 29.984375 -1.421875 
Q 24.8125 -1.421875 18.96875 -0.25 
Q 13.140625 0.921875 6.890625 3.21875 
L 6.890625 13.375 
Q 12.890625 10.015625 18.65625 8.296875 
Q 24.421875 6.59375 29.984375 6.59375 
Q 38.421875 6.59375 43.015625 9.90625 
Q 47.609375 13.234375 47.609375 19.390625 
Q 47.609375 24.75 44.3125 27.78125 
Q 41.015625 30.8125 33.5 32.328125 
L 27.484375 33.5 
Q 16.453125 35.6875 11.515625 40.375 
Q 6.59375 45.0625 6.59375 53.421875 
Q 6.59375 63.09375 13.40625 68.65625 
Q 20.21875 74.21875 32.171875 74.21875 
Q 37.3125 74.21875 42.625 73.28125 
Q 47.953125 72.359375 53.515625 70.515625 
z
" id="DejaVuSans-83"/>
     <path d="M 44.28125 53.078125 
L 44.28125 44.578125 
Q 40.484375 46.53125 36.375 47.5 
Q 32.28125 48.484375 27.875 48.484375 
Q 21.1875 48.484375 17.84375 46.4375 
Q 14.5 44.390625 14.5 40.28125 
Q 14.5 37.15625 16.890625 35.375 
Q 19.28125 33.59375 26.515625 31.984375 
L 29.59375 31.296875 
Q 39.15625 29.25 43.1875 25.515625 
Q 47.21875 21.78125 47.21875 15.09375 
Q 47.21875 7.46875 41.1875 3.015625 
Q 35.15625 -1.421875 24.609375 -1.421875 
Q 20.21875 -1.421875 15.453125 -0.5625 
Q 10.6875 0.296875 5.421875 2 
L 5.421875 11.28125 
Q 10.40625 8.6875 15.234375 7.390625 
Q 20.0625 6.109375 24.8125 6.109375 
Q 31.15625 6.109375 34.5625 8.28125 
Q 37.984375 10.453125 37.984375 14.40625 
Q 37.984375 18.0625 35.515625 20.015625 
Q 33.0625 21.96875 24.703125 23.78125 
L 21.578125 24.515625 
Q 13.234375 26.265625 9.515625 29.90625 
Q 5.8125 33.546875 5.8125 39.890625 
Q 5.8125 47.609375 11.28125 51.796875 
Q 16.75 56 26.8125 56 
Q 31.78125 56 36.171875 55.265625 
Q 40.578125 54.546875 44.28125 53.078125 
z
" id="DejaVuSans-115"/>
     <path d="M 9.421875 54.6875 
L 18.40625 54.6875 
L 18.40625 0 
L 9.421875 0 
z
M 9.421875 75.984375 
L 18.40625 75.984375 
L 18.40625 64.59375 
L 9.421875 64.59375 
z
" id="DejaVuSans-105"/>
     <path d="M 52 44.1875 
Q 55.375 50.25 60.0625 53.125 
Q 64.75 56 71.09375 56 
Q 79.640625 56 84.28125 50.015625 
Q 88.921875 44.046875 88.921875 33.015625 
L 88.921875 0 
L 79.890625 0 
L 79.890625 32.71875 
Q 79.890625 40.578125 77.09375 44.375 
Q 74.3125 48.1875 68.609375 48.1875 
Q 61.625 48.1875 57.5625 43.546875 
Q 53.515625 38.921875 53.515625 30.90625 
L 53.515625 0 
L 44.484375 0 
L 44.484375 32.71875 
Q 44.484375 40.625 41.703125 44.40625 
Q 38.921875 48.1875 33.109375 48.1875 
Q 26.21875 48.1875 22.15625 43.53125 
Q 18.109375 38.875 18.109375 30.90625 
L 18.109375 0 
L 9.078125 0 
L 9.078125 54.6875 
L 18.109375 54.6875 
L 18.109375 46.1875 
Q 21.1875 51.21875 25.484375 53.609375 
Q 29.78125 56 35.6875 56 
Q 41.65625 56 45.828125 52.96875 
Q 50 49.953125 52 44.1875 
z
" id="DejaVuSans-109"/>
    </defs>
    <g transform="translate(25.53375 35.472)scale(0.12 -0.12)">
     <use xlink:href="#DejaVuSans-80"/>
     <use x="60.302734" xlink:href="#DejaVuSans-108"/>
     <use x="88.085938" xlink:href="#DejaVuSans-111"/>
     <use x="149.267578" xlink:href="#DejaVuSans-116"/>
     <use x="188.476562" xlink:href="#DejaVuSans-32"/>
     <use x="220.263672" xlink:href="#DejaVuSans-111"/>
     <use x="281.445312" xlink:href="#DejaVuSans-102"/>
     <use x="316.650391" xlink:href="#DejaVuSans-32"/>
     <use x="348.4375" xlink:href="#DejaVuSans-97"/>
     <use x="409.716797" xlink:href="#DejaVuSans-118"/>
     <use x="468.896484" xlink:href="#DejaVuSans-101"/>
     <use x="530.419922" xlink:href="#DejaVuSans-114"/>
     <use x="571.533203" xlink:href="#DejaVuSans-97"/>
     <use x="632.8125" xlink:href="#DejaVuSans-103"/>
     <use x="696.289062" xlink:href="#DejaVuSans-101"/>
     <use x="757.8125" xlink:href="#DejaVuSans-32"/>
     <use x="789.599609" xlink:href="#DejaVuSans-69"/>
     <use x="852.783203" xlink:href="#DejaVuSans-85"/>
     <use x="925.976562" xlink:href="#DejaVuSans-82"/>
     <use x="995.458984" xlink:href="#DejaVuSans-32"/>
     <use x="1027.246094" xlink:href="#DejaVuSans-97"/>
     <use x="1088.525391" xlink:href="#DejaVuSans-110"/>
     <use x="1151.904297" xlink:href="#DejaVuSans-100"/>
     <use x="1215.380859" xlink:href="#DejaVuSans-32"/>
     <use x="1247.167969" xlink:href="#DejaVuSans-85"/>
     <use x="1320.361328" xlink:href="#DejaVuSans-83"/>
     <use x="1383.837891" xlink:href="#DejaVuSans-68"/>
     <use x="1460.839844" xlink:href="#DejaVuSans-32"/>
     <use x="1492.626953" xlink:href="#DejaVuSans-101"/>
     <use x="1554.134766" xlink:href="#DejaVuSans-120"/>
     <use x="1613.298828" xlink:href="#DejaVuSans-99"/>
     <use x="1668.279297" xlink:href="#DejaVuSans-104"/>
     <use x="1731.658203" xlink:href="#DejaVuSans-97"/>
     <use x="1792.9375" xlink:href="#DejaVuSans-110"/>
     <use x="1856.316406" xlink:href="#DejaVuSans-103"/>
     <use x="1919.792969" xlink:href="#DejaVuSans-101"/>
     <use x="1981.316406" xlink:href="#DejaVuSans-32"/>
     <use x="2013.103516" xlink:href="#DejaVuSans-114"/>
     <use x="2054.216797" xlink:href="#DejaVuSans-97"/>
     <use x="2115.496094" xlink:href="#DejaVuSans-116"/>
     <use x="2154.705078" xlink:href="#DejaVuSans-101"/>
     <use x="2216.228516" xlink:href="#DejaVuSans-115"/>
     <use x="2268.328125" xlink:href="#DejaVuSans-32"/>
     <use x="2300.115234" xlink:href="#DejaVuSans-111"/>
     <use x="2361.296875" xlink:href="#DejaVuSans-118"/>
     <use x="2420.476562" xlink:href="#DejaVuSans-101"/>
     <use x="2482" xlink:href="#DejaVuSans-114"/>
     <use x="2523.113281" xlink:href="#DejaVuSans-32"/>
     <use x="2554.900391" xlink:href="#DejaVuSans-116"/>
     <use x="2594.109375" xlink:href="#DejaVuSans-104"/>
     <use x="2657.488281" xlink:href="#DejaVuSans-101"/>
     <use x="2719.011719" xlink:href="#DejaVuSans-32"/>
     <use x="2750.798828" xlink:href="#DejaVuSans-108"/>
     <use x="2778.582031" xlink:href="#DejaVuSans-97"/>
     <use x="2839.861328" xlink:href="#DejaVuSans-115"/>
     <use x="2891.960938" xlink:href="#DejaVuSans-116"/>
     <use x="2931.169922" xlink:href="#DejaVuSans-32"/>
     <use x="2962.957031" xlink:href="#DejaVuSans-115"/>
     <use x="3015.056641" xlink:href="#DejaVuSans-105"/>
     <use x="3042.839844" xlink:href="#DejaVuSans-120"/>
     <use x="3102.019531" xlink:href="#DejaVuSans-32"/>
     <use x="3133.806641" xlink:href="#DejaVuSans-109"/>
     <use x="3231.21875" xlink:href="#DejaVuSans-111"/>
     <use x="3292.400391" xlink:href="#DejaVuSans-110"/>
     <use x="3355.779297" xlink:href="#DejaVuSans-116"/>
     <use x="3394.988281" xlink:href="#DejaVuSans-104"/>
     <use x="3458.367188" xlink:href="#DejaVuSans-115"/>
    </g>
   </g>
   <g id="legend_1">
    <g id="patch_7">
     <path d="M 64.6 302.584 
L 117.967187 302.584 
Q 119.967187 302.584 119.967187 300.584 
L 119.967187 272.22775 
Q 119.967187 270.22775 117.967187 270.22775 
L 64.6 270.22775 
Q 62.6 270.22775 62.6 272.22775 
L 62.6 300.584 
Q 62.6 302.584 64.6 302.584 
z
" style="fill:#ffffff;opacity:0.8;stroke:#cccccc;stroke-linejoin:miter;"/>
    </g>
    <g id="PathCollection_3">
     <g>
      <use style="fill:#0000ff;stroke:#000000;" x="76.6" xlink:href="#mdb88696462" y="279.201187"/>
     </g>
    </g>
    <g id="text_17">
     <!-- USD -->
     <g transform="translate(94.6 281.826187)scale(0.1 -0.1)">
      <use xlink:href="#DejaVuSans-85"/>
      <use x="73.193359" xlink:href="#DejaVuSans-83"/>
      <use x="136.669922" xlink:href="#DejaVuSans-68"/>
     </g>
    </g>
    <g id="PathCollection_4">
     <g>
      <use style="fill:#ff0000;stroke:#000000;" x="76.6" xlink:href="#m77fbb30c81" y="293.879312"/>
     </g>
    </g>
    <g id="text_18">
     <!-- EUR -->
     <g transform="translate(94.6 296.504312)scale(0.1 -0.1)">
      <use xlink:href="#DejaVuSans-69"/>
      <use x="63.183594" xlink:href="#DejaVuSans-85"/>
      <use x="136.376953" xlink:href="#DejaVuSans-82"/>
     </g>
    </g>
   </g>
  </g>
 </g>
 <defs>
  <clipPath id="p6245d97a4f">
   <rect height="266.112" width="357.12" x="57.6" y="41.472"/>
  </clipPath>
 </defs>
</svg>
