<?xml version="1.0" encoding="utf-8" standalone="no"?>
<!DOCTYPE svg PUBLIC "-//W3C//DTD SVG 1.1//EN"
  "http://www.w3.org/Graphics/SVG/1.1/DTD/svg11.dtd">
<!-- Created with matplotlib (https://matplotlib.org/) -->
<svg height="345.6pt" version="1.1" viewBox="0 0 460.8 345.6" width="460.8pt" xmlns="http://www.w3.org/2000/svg" xmlns:xlink="http://www.w3.org/1999/xlink">
 <metadata>
  <rdf:RDF xmlns:cc="http://creativecommons.org/ns#" xmlns:dc="http://purl.org/dc/elements/1.1/" xmlns:rdf="http://www.w3.org/1999/02/22-rdf-syntax-ns#">
   <cc:Work>
    <dc:type rdf:resource="http://purl.org/dc/dcmitype/StillImage"/>
    <dc:date>2020-11-15T20:32:39.062766</dc:date>
    <dc:format>image/svg+xml</dc:format>
    <dc:creator>
     <cc:Agent>
      <dc:title>Matplotlib v3.3.3, https://matplotlib.org/</dc:title>
     </cc:Agent>
    </dc:creator>
   </cc:Work>
  </rdf:RDF>
 </metadata>
 <defs>
  <style type="text/css">*{stroke-linecap:butt;stroke-linejoin:round;}</style>
 </defs>
 <g id="figure_1">
  <g id="patch_1">
   <path d="M 0 345.6 
L 460.8 345.6 
L 460.8 0 
L 0 0 
z
" style="fill:#ffffff;"/>
  </g>
  <g id="axes_1">
   <g id="patch_2">
    <path d="M 57.6 307.584 
L 414.72 307.584 
L 414.72 41.472 
L 57.6 41.472 
z
" style="fill:#ffffff;"/>
   </g>
   <g id="PathCollection_1">
    <defs>
     <path d="M 0 3 
C 0.795609 3 1.55874 2.683901 2.12132 2.12132 
C 2.683901 1.55874 3 0.795609 3 0 
C 3 -0.795609 2.683901 -1.55874 2.12132 -2.12132 
C 1.55874 -2.683901 0.795609 -3 0 -3 
C -0.795609 -3 -1.55874 -2.683901 -2.12132 -2.12132 
C -2.683901 -1.55874 -3 -0.795609 -3 0 
C -3 0.795609 -2.683901 1.55874 -2.12132 2.12132 
C -1.55874 2.683901 -0.795609 3 0 3 
z
" id="mdee65c3172" style="stroke:#000000;"/>
    </defs>
    <g clip-path="url(#p16a953a8d0)">
     <use style="fill:#0000ff;stroke:#000000;" x="73.832727" xlink:href="#mdee65c3172" y="156.791893"/>
     <use style="fill:#0000ff;stroke:#000000;" x="75.64644" xlink:href="#mdee65c3172" y="171.347819"/>
     <use style="fill:#0000ff;stroke:#000000;" x="77.460152" xlink:href="#mdee65c3172" y="172.001453"/>
     <use style="fill:#0000ff;stroke:#000000;" x="79.273865" xlink:href="#mdee65c3172" y="178.86461"/>
     <use style="fill:#0000ff;stroke:#000000;" x="81.087577" xlink:href="#mdee65c3172" y="174.917666"/>
     <use style="fill:#0000ff;stroke:#000000;" x="86.528715" xlink:href="#mdee65c3172" y="176.803149"/>
     <use style="fill:#0000ff;stroke:#000000;" x="88.342428" xlink:href="#mdee65c3172" y="190.454044"/>
     <use style="fill:#0000ff;stroke:#000000;" x="90.15614" xlink:href="#mdee65c3172" y="200.032296"/>
     <use style="fill:#0000ff;stroke:#000000;" x="91.969853" xlink:href="#mdee65c3172" y="206.568636"/>
     <use style="fill:#0000ff;stroke:#000000;" x="93.783565" xlink:href="#mdee65c3172" y="211.923407"/>
     <use style="fill:#0000ff;stroke:#000000;" x="99.224703" xlink:href="#mdee65c3172" y="220.747466"/>
     <use style="fill:#0000ff;stroke:#000000;" x="101.038415" xlink:href="#mdee65c3172" y="230.225159"/>
     <use style="fill:#0000ff;stroke:#000000;" x="102.852128" xlink:href="#mdee65c3172" y="234.800597"/>
     <use style="fill:#0000ff;stroke:#000000;" x="104.665841" xlink:href="#mdee65c3172" y="223.437421"/>
     <use style="fill:#0000ff;stroke:#000000;" x="106.479553" xlink:href="#mdee65c3172" y="232.387179"/>
     <use style="fill:#0000ff;stroke:#000000;" x="111.920691" xlink:href="#mdee65c3172" y="232.889974"/>
     <use style="fill:#0000ff;stroke:#000000;" x="113.734403" xlink:href="#mdee65c3172" y="226.454193"/>
     <use style="fill:#0000ff;stroke:#000000;" x="115.548116" xlink:href="#mdee65c3172" y="233.317351"/>
     <use style="fill:#0000ff;stroke:#000000;" x="119.175541" xlink:href="#mdee65c3172" y="230.325718"/>
     <use style="fill:#0000ff;stroke:#000000;" x="124.616679" xlink:href="#mdee65c3172" y="227.459784"/>
     <use style="fill:#0000ff;stroke:#000000;" x="126.430391" xlink:href="#mdee65c3172" y="236.384402"/>
     <use style="fill:#0000ff;stroke:#000000;" x="128.244104" xlink:href="#mdee65c3172" y="224.468152"/>
     <use style="fill:#0000ff;stroke:#000000;" x="130.057816" xlink:href="#mdee65c3172" y="223.035185"/>
     <use style="fill:#0000ff;stroke:#000000;" x="131.871529" xlink:href="#mdee65c3172" y="219.21394"/>
     <use style="fill:#0000ff;stroke:#000000;" x="137.312666" xlink:href="#mdee65c3172" y="221.074283"/>
     <use style="fill:#0000ff;stroke:#000000;" x="139.126379" xlink:href="#mdee65c3172" y="230.024041"/>
     <use style="fill:#0000ff;stroke:#000000;" x="140.940091" xlink:href="#mdee65c3172" y="227.9123"/>
     <use style="fill:#0000ff;stroke:#000000;" x="142.753804" xlink:href="#mdee65c3172" y="222.180433"/>
     <use style="fill:#0000ff;stroke:#000000;" x="144.567517" xlink:href="#mdee65c3172" y="220.32009"/>
     <use style="fill:#0000ff;stroke:#000000;" x="150.008654" xlink:href="#mdee65c3172" y="221.35082"/>
     <use style="fill:#0000ff;stroke:#000000;" x="151.822367" xlink:href="#mdee65c3172" y="217.579855"/>
     <use style="fill:#0000ff;stroke:#000000;" x="153.636079" xlink:href="#mdee65c3172" y="222.984905"/>
     <use style="fill:#0000ff;stroke:#000000;" x="155.449792" xlink:href="#mdee65c3172" y="224.568711"/>
     <use style="fill:#0000ff;stroke:#000000;" x="157.263504" xlink:href="#mdee65c3172" y="218.635725"/>
     <use style="fill:#0000ff;stroke:#000000;" x="162.704642" xlink:href="#mdee65c3172" y="223.060325"/>
     <use style="fill:#0000ff;stroke:#000000;" x="164.518354" xlink:href="#mdee65c3172" y="220.521208"/>
     <use style="fill:#0000ff;stroke:#000000;" x="166.332067" xlink:href="#mdee65c3172" y="221.099423"/>
     <use style="fill:#0000ff;stroke:#000000;" x="168.14578" xlink:href="#mdee65c3172" y="225.624581"/>
     <use style="fill:#0000ff;stroke:#000000;" x="169.959492" xlink:href="#mdee65c3172" y="221.602218"/>
     <use style="fill:#0000ff;stroke:#000000;" x="175.40063" xlink:href="#mdee65c3172" y="223.663679"/>
     <use style="fill:#0000ff;stroke:#000000;" x="177.214342" xlink:href="#mdee65c3172" y="223.51284"/>
     <use style="fill:#0000ff;stroke:#000000;" x="179.028055" xlink:href="#mdee65c3172" y="234.901156"/>
     <use style="fill:#0000ff;stroke:#000000;" x="180.841767" xlink:href="#mdee65c3172" y="227.233526"/>
     <use style="fill:#0000ff;stroke:#000000;" x="182.65548" xlink:href="#mdee65c3172" y="231.23075"/>
     <use style="fill:#0000ff;stroke:#000000;" x="188.096618" xlink:href="#mdee65c3172" y="237.917928"/>
     <use style="fill:#0000ff;stroke:#000000;" x="189.91033" xlink:href="#mdee65c3172" y="242.568786"/>
     <use style="fill:#0000ff;stroke:#000000;" x="191.724043" xlink:href="#mdee65c3172" y="249.557641"/>
     <use style="fill:#0000ff;stroke:#000000;" x="193.537755" xlink:href="#mdee65c3172" y="261.473892"/>
     <use style="fill:#0000ff;stroke:#000000;" x="195.351468" xlink:href="#mdee65c3172" y="262.253225"/>
     <use style="fill:#0000ff;stroke:#000000;" x="200.792605" xlink:href="#mdee65c3172" y="271.957176"/>
     <use style="fill:#0000ff;stroke:#000000;" x="202.606318" xlink:href="#mdee65c3172" y="274.74769"/>
     <use style="fill:#0000ff;stroke:#000000;" x="204.42003" xlink:href="#mdee65c3172" y="272.786788"/>
     <use style="fill:#0000ff;stroke:#000000;" x="206.233743" xlink:href="#mdee65c3172" y="274.320314"/>
     <use style="fill:#0000ff;stroke:#000000;" x="208.047456" xlink:href="#mdee65c3172" y="283.948846"/>
     <use style="fill:#0000ff;stroke:#000000;" x="213.488593" xlink:href="#mdee65c3172" y="275.577303"/>
     <use style="fill:#0000ff;stroke:#000000;" x="215.302306" xlink:href="#mdee65c3172" y="278.971172"/>
     <use style="fill:#0000ff;stroke:#000000;" x="217.116018" xlink:href="#mdee65c3172" y="284.527061"/>
     <use style="fill:#0000ff;stroke:#000000;" x="218.929731" xlink:href="#mdee65c3172" y="282.088503"/>
     <use style="fill:#0000ff;stroke:#000000;" x="220.743443" xlink:href="#mdee65c3172" y="280.529837"/>
     <use style="fill:#0000ff;stroke:#000000;" x="226.184581" xlink:href="#mdee65c3172" y="278.242118"/>
     <use style="fill:#0000ff;stroke:#000000;" x="227.998294" xlink:href="#mdee65c3172" y="278.317538"/>
     <use style="fill:#0000ff;stroke:#000000;" x="229.812006" xlink:href="#mdee65c3172" y="274.094056"/>
     <use style="fill:#0000ff;stroke:#000000;" x="231.625719" xlink:href="#mdee65c3172" y="283.697448"/>
     <use style="fill:#0000ff;stroke:#000000;" x="233.439431" xlink:href="#mdee65c3172" y="282.41532"/>
     <use style="fill:#0000ff;stroke:#000000;" x="238.880569" xlink:href="#mdee65c3172" y="286.211425"/>
     <use style="fill:#0000ff;stroke:#000000;" x="240.694281" xlink:href="#mdee65c3172" y="290.761723"/>
     <use style="fill:#0000ff;stroke:#000000;" x="242.507994" xlink:href="#mdee65c3172" y="294.859506"/>
     <use style="fill:#0000ff;stroke:#000000;" x="244.321706" xlink:href="#mdee65c3172" y="283.999125"/>
     <use style="fill:#0000ff;stroke:#000000;" x="246.135419" xlink:href="#mdee65c3172" y="283.999125"/>
     <use style="fill:#0000ff;stroke:#000000;" x="251.576557" xlink:href="#mdee65c3172" y="281.258891"/>
     <use style="fill:#0000ff;stroke:#000000;" x="253.390269" xlink:href="#mdee65c3172" y="284.501921"/>
     <use style="fill:#0000ff;stroke:#000000;" x="255.203982" xlink:href="#mdee65c3172" y="281.35945"/>
     <use style="fill:#0000ff;stroke:#000000;" x="257.017694" xlink:href="#mdee65c3172" y="280.932074"/>
     <use style="fill:#0000ff;stroke:#000000;" x="258.831407" xlink:href="#mdee65c3172" y="288.549424"/>
     <use style="fill:#0000ff;stroke:#000000;" x="264.272544" xlink:href="#mdee65c3172" y="290.03267"/>
     <use style="fill:#0000ff;stroke:#000000;" x="266.086257" xlink:href="#mdee65c3172" y="295.488"/>
     <use style="fill:#0000ff;stroke:#000000;" x="267.89997" xlink:href="#mdee65c3172" y="283.320352"/>
     <use style="fill:#0000ff;stroke:#000000;" x="269.713682" xlink:href="#mdee65c3172" y="279.649945"/>
     <use style="fill:#0000ff;stroke:#000000;" x="271.527395" xlink:href="#mdee65c3172" y="274.722551"/>
     <use style="fill:#0000ff;stroke:#000000;" x="276.968532" xlink:href="#mdee65c3172" y="271.378961"/>
     <use style="fill:#0000ff;stroke:#000000;" x="278.782245" xlink:href="#mdee65c3172" y="271.730918"/>
     <use style="fill:#0000ff;stroke:#000000;" x="280.595957" xlink:href="#mdee65c3172" y="266.225309"/>
     <use style="fill:#0000ff;stroke:#000000;" x="282.40967" xlink:href="#mdee65c3172" y="272.786788"/>
     <use style="fill:#0000ff;stroke:#000000;" x="284.223382" xlink:href="#mdee65c3172" y="274.697411"/>
     <use style="fill:#0000ff;stroke:#000000;" x="289.66452" xlink:href="#mdee65c3172" y="274.999088"/>
     <use style="fill:#0000ff;stroke:#000000;" x="291.478233" xlink:href="#mdee65c3172" y="276.93485"/>
     <use style="fill:#0000ff;stroke:#000000;" x="293.291945" xlink:href="#mdee65c3172" y="274.898529"/>
     <use style="fill:#0000ff;stroke:#000000;" x="295.105658" xlink:href="#mdee65c3172" y="270.197392"/>
     <use style="fill:#0000ff;stroke:#000000;" x="296.91937" xlink:href="#mdee65c3172" y="273.415283"/>
     <use style="fill:#0000ff;stroke:#000000;" x="302.360508" xlink:href="#mdee65c3172" y="263.91245"/>
     <use style="fill:#0000ff;stroke:#000000;" x="304.17422" xlink:href="#mdee65c3172" y="253.957101"/>
     <use style="fill:#0000ff;stroke:#000000;" x="305.987933" xlink:href="#mdee65c3172" y="252.95151"/>
     <use style="fill:#0000ff;stroke:#000000;" x="307.801646" xlink:href="#mdee65c3172" y="242.04085"/>
     <use style="fill:#0000ff;stroke:#000000;" x="309.615358" xlink:href="#mdee65c3172" y="237.440273"/>
     <use style="fill:#0000ff;stroke:#000000;" x="315.056496" xlink:href="#mdee65c3172" y="235.755908"/>
     <use style="fill:#0000ff;stroke:#000000;" x="316.870208" xlink:href="#mdee65c3172" y="232.110642"/>
     <use style="fill:#0000ff;stroke:#000000;" x="318.683921" xlink:href="#mdee65c3172" y="246.44031"/>
     <use style="fill:#0000ff;stroke:#000000;" x="320.497633" xlink:href="#mdee65c3172" y="250.085577"/>
     <use style="fill:#0000ff;stroke:#000000;" x="322.311346" xlink:href="#mdee65c3172" y="253.781123"/>
     <use style="fill:#0000ff;stroke:#000000;" x="327.752483" xlink:href="#mdee65c3172" y="256.647056"/>
     <use style="fill:#0000ff;stroke:#000000;" x="329.566196" xlink:href="#mdee65c3172" y="258.45712"/>
     <use style="fill:#0000ff;stroke:#000000;" x="331.379909" xlink:href="#mdee65c3172" y="259.814667"/>
     <use style="fill:#0000ff;stroke:#000000;" x="333.193621" xlink:href="#mdee65c3172" y="258.582819"/>
     <use style="fill:#0000ff;stroke:#000000;" x="335.007334" xlink:href="#mdee65c3172" y="265.169438"/>
     <use style="fill:#0000ff;stroke:#000000;" x="340.448471" xlink:href="#mdee65c3172" y="264.817481"/>
     <use style="fill:#0000ff;stroke:#000000;" x="342.262184" xlink:href="#mdee65c3172" y="264.691783"/>
     <use style="fill:#0000ff;stroke:#000000;" x="344.075896" xlink:href="#mdee65c3172" y="255.415208"/>
     <use style="fill:#0000ff;stroke:#000000;" x="345.889609" xlink:href="#mdee65c3172" y="240.255927"/>
     <use style="fill:#0000ff;stroke:#000000;" x="347.703321" xlink:href="#mdee65c3172" y="238.445863"/>
     <use style="fill:#0000ff;stroke:#000000;" x="353.144459" xlink:href="#mdee65c3172" y="243.850914"/>
     <use style="fill:#0000ff;stroke:#000000;" x="354.958172" xlink:href="#mdee65c3172" y="239.702852"/>
     <use style="fill:#0000ff;stroke:#000000;" x="356.771884" xlink:href="#mdee65c3172" y="245.233601"/>
     <use style="fill:#0000ff;stroke:#000000;" x="358.585597" xlink:href="#mdee65c3172" y="244.529688"/>
     <use style="fill:#0000ff;stroke:#000000;" x="360.399309" xlink:href="#mdee65c3172" y="246.264332"/>
     <use style="fill:#0000ff;stroke:#000000;" x="365.840447" xlink:href="#mdee65c3172" y="243.901193"/>
     <use style="fill:#0000ff;stroke:#000000;" x="367.654159" xlink:href="#mdee65c3172" y="241.362077"/>
     <use style="fill:#0000ff;stroke:#000000;" x="369.467872" xlink:href="#mdee65c3172" y="229.973761"/>
     <use style="fill:#0000ff;stroke:#000000;" x="371.281585" xlink:href="#mdee65c3172" y="225.146925"/>
     <use style="fill:#0000ff;stroke:#000000;" x="373.095297" xlink:href="#mdee65c3172" y="223.688819"/>
     <use style="fill:#0000ff;stroke:#000000;" x="378.536435" xlink:href="#mdee65c3172" y="223.839657"/>
     <use style="fill:#0000ff;stroke:#000000;" x="380.350147" xlink:href="#mdee65c3172" y="236.107865"/>
     <use style="fill:#0000ff;stroke:#000000;" x="382.16386" xlink:href="#mdee65c3172" y="237.943068"/>
     <use style="fill:#0000ff;stroke:#000000;" x="383.977572" xlink:href="#mdee65c3172" y="254.10794"/>
     <use style="fill:#0000ff;stroke:#000000;" x="385.791285" xlink:href="#mdee65c3172" y="258.105163"/>
     <use style="fill:#0000ff;stroke:#000000;" x="391.232423" xlink:href="#mdee65c3172" y="268.337049"/>
     <use style="fill:#0000ff;stroke:#000000;" x="393.046135" xlink:href="#mdee65c3172" y="258.758797"/>
     <use style="fill:#0000ff;stroke:#000000;" x="396.67356" xlink:href="#mdee65c3172" y="263.107977"/>
     <use style="fill:#0000ff;stroke:#000000;" x="398.487273" xlink:href="#mdee65c3172" y="262.605182"/>
    </g>
   </g>
   <g id="PathCollection_2">
    <defs>
     <path d="M 0 3 
C 0.795609 3 1.55874 2.683901 2.12132 2.12132 
C 2.683901 1.55874 3 0.795609 3 0 
C 3 -0.795609 2.683901 -1.55874 2.12132 -2.12132 
C 1.55874 -2.683901 0.795609 -3 0 -3 
C -0.795609 -3 -1.55874 -2.683901 -2.12132 -2.12132 
C -2.683901 -1.55874 -3 -0.795609 -3 0 
C -3 0.795609 -2.683901 1.55874 -2.12132 2.12132 
C -1.55874 2.683901 -0.795609 3 0 3 
z
" id="m3e5b0cf67e" style="stroke:#000000;"/>
    </defs>
    <g clip-path="url(#p16a953a8d0)">
     <use style="fill:#ff0000;stroke:#000000;" x="73.832727" xlink:href="#m3e5b0cf67e" y="70.813882"/>
     <use style="fill:#ff0000;stroke:#000000;" x="75.64644" xlink:href="#m3e5b0cf67e" y="71.668634"/>
     <use style="fill:#ff0000;stroke:#000000;" x="77.460152" xlink:href="#m3e5b0cf67e" y="73.428418"/>
     <use style="fill:#ff0000;stroke:#000000;" x="79.273865" xlink:href="#m3e5b0cf67e" y="77.827877"/>
     <use style="fill:#ff0000;stroke:#000000;" x="81.087577" xlink:href="#m3e5b0cf67e" y="81.121187"/>
     <use style="fill:#ff0000;stroke:#000000;" x="86.528715" xlink:href="#m3e5b0cf67e" y="84.213379"/>
     <use style="fill:#ff0000;stroke:#000000;" x="88.342428" xlink:href="#m3e5b0cf67e" y="92.031847"/>
     <use style="fill:#ff0000;stroke:#000000;" x="90.15614" xlink:href="#m3e5b0cf67e" y="102.64083"/>
     <use style="fill:#ff0000;stroke:#000000;" x="91.969853" xlink:href="#m3e5b0cf67e" y="105.506763"/>
     <use style="fill:#ff0000;stroke:#000000;" x="93.783565" xlink:href="#m3e5b0cf67e" y="99.498359"/>
     <use style="fill:#ff0000;stroke:#000000;" x="99.224703" xlink:href="#m3e5b0cf67e" y="107.065429"/>
     <use style="fill:#ff0000;stroke:#000000;" x="101.038415" xlink:href="#m3e5b0cf67e" y="114.60736"/>
     <use style="fill:#ff0000;stroke:#000000;" x="102.852128" xlink:href="#m3e5b0cf67e" y="115.68837"/>
     <use style="fill:#ff0000;stroke:#000000;" x="104.665841" xlink:href="#m3e5b0cf67e" y="103.420163"/>
     <use style="fill:#ff0000;stroke:#000000;" x="106.479553" xlink:href="#m3e5b0cf67e" y="101.006745"/>
     <use style="fill:#ff0000;stroke:#000000;" x="111.920691" xlink:href="#m3e5b0cf67e" y="104.82799"/>
     <use style="fill:#ff0000;stroke:#000000;" x="113.734403" xlink:href="#m3e5b0cf67e" y="101.182723"/>
     <use style="fill:#ff0000;stroke:#000000;" x="115.548116" xlink:href="#m3e5b0cf67e" y="98.467628"/>
     <use style="fill:#ff0000;stroke:#000000;" x="119.175541" xlink:href="#m3e5b0cf67e" y="99.422939"/>
     <use style="fill:#ff0000;stroke:#000000;" x="124.616679" xlink:href="#m3e5b0cf67e" y="102.012335"/>
     <use style="fill:#ff0000;stroke:#000000;" x="126.430391" xlink:href="#m3e5b0cf67e" y="105.154807"/>
     <use style="fill:#ff0000;stroke:#000000;" x="128.244104" xlink:href="#m3e5b0cf67e" y="99.498359"/>
     <use style="fill:#ff0000;stroke:#000000;" x="130.057816" xlink:href="#m3e5b0cf67e" y="98.719026"/>
     <use style="fill:#ff0000;stroke:#000000;" x="131.871529" xlink:href="#m3e5b0cf67e" y="97.738575"/>
     <use style="fill:#ff0000;stroke:#000000;" x="137.312666" xlink:href="#m3e5b0cf67e" y="98.970423"/>
     <use style="fill:#ff0000;stroke:#000000;" x="139.126379" xlink:href="#m3e5b0cf67e" y="102.439712"/>
     <use style="fill:#ff0000;stroke:#000000;" x="140.940091" xlink:href="#m3e5b0cf67e" y="98.769305"/>
     <use style="fill:#ff0000;stroke:#000000;" x="142.753804" xlink:href="#m3e5b0cf67e" y="99.699477"/>
     <use style="fill:#ff0000;stroke:#000000;" x="144.567517" xlink:href="#m3e5b0cf67e" y="96.657565"/>
     <use style="fill:#ff0000;stroke:#000000;" x="150.008654" xlink:href="#m3e5b0cf67e" y="96.280468"/>
     <use style="fill:#ff0000;stroke:#000000;" x="151.822367" xlink:href="#m3e5b0cf67e" y="95.551415"/>
     <use style="fill:#ff0000;stroke:#000000;" x="153.636079" xlink:href="#m3e5b0cf67e" y="100.45367"/>
     <use style="fill:#ff0000;stroke:#000000;" x="155.449792" xlink:href="#m3e5b0cf67e" y="95.576555"/>
     <use style="fill:#ff0000;stroke:#000000;" x="157.263504" xlink:href="#m3e5b0cf67e" y="95.274877"/>
     <use style="fill:#ff0000;stroke:#000000;" x="162.704642" xlink:href="#m3e5b0cf67e" y="94.621243"/>
     <use style="fill:#ff0000;stroke:#000000;" x="164.518354" xlink:href="#m3e5b0cf67e" y="94.294426"/>
     <use style="fill:#ff0000;stroke:#000000;" x="166.332067" xlink:href="#m3e5b0cf67e" y="93.565373"/>
     <use style="fill:#ff0000;stroke:#000000;" x="168.14578" xlink:href="#m3e5b0cf67e" y="93.590513"/>
     <use style="fill:#ff0000;stroke:#000000;" x="169.959492" xlink:href="#m3e5b0cf67e" y="93.414534"/>
     <use style="fill:#ff0000;stroke:#000000;" x="175.40063" xlink:href="#m3e5b0cf67e" y="93.414534"/>
     <use style="fill:#ff0000;stroke:#000000;" x="177.214342" xlink:href="#m3e5b0cf67e" y="89.115634"/>
     <use style="fill:#ff0000;stroke:#000000;" x="179.028055" xlink:href="#m3e5b0cf67e" y="93.590513"/>
     <use style="fill:#ff0000;stroke:#000000;" x="180.841767" xlink:href="#m3e5b0cf67e" y="89.191053"/>
     <use style="fill:#ff0000;stroke:#000000;" x="182.65548" xlink:href="#m3e5b0cf67e" y="91.353073"/>
     <use style="fill:#ff0000;stroke:#000000;" x="188.096618" xlink:href="#m3e5b0cf67e" y="94.9732"/>
     <use style="fill:#ff0000;stroke:#000000;" x="189.91033" xlink:href="#m3e5b0cf67e" y="101.660379"/>
     <use style="fill:#ff0000;stroke:#000000;" x="191.724043" xlink:href="#m3e5b0cf67e" y="102.062615"/>
     <use style="fill:#ff0000;stroke:#000000;" x="193.537755" xlink:href="#m3e5b0cf67e" y="109.428567"/>
     <use style="fill:#ff0000;stroke:#000000;" x="195.351468" xlink:href="#m3e5b0cf67e" y="109.202309"/>
     <use style="fill:#ff0000;stroke:#000000;" x="200.792605" xlink:href="#m3e5b0cf67e" y="111.565448"/>
     <use style="fill:#ff0000;stroke:#000000;" x="202.606318" xlink:href="#m3e5b0cf67e" y="112.470479"/>
     <use style="fill:#ff0000;stroke:#000000;" x="204.42003" xlink:href="#m3e5b0cf67e" y="107.266547"/>
     <use style="fill:#ff0000;stroke:#000000;" x="206.233743" xlink:href="#m3e5b0cf67e" y="109.881083"/>
     <use style="fill:#ff0000;stroke:#000000;" x="208.047456" xlink:href="#m3e5b0cf67e" y="110.333599"/>
     <use style="fill:#ff0000;stroke:#000000;" x="213.488593" xlink:href="#m3e5b0cf67e" y="107.920181"/>
     <use style="fill:#ff0000;stroke:#000000;" x="215.302306" xlink:href="#m3e5b0cf67e" y="110.635276"/>
     <use style="fill:#ff0000;stroke:#000000;" x="217.116018" xlink:href="#m3e5b0cf67e" y="112.671598"/>
     <use style="fill:#ff0000;stroke:#000000;" x="218.929731" xlink:href="#m3e5b0cf67e" y="109.604546"/>
     <use style="fill:#ff0000;stroke:#000000;" x="220.743443" xlink:href="#m3e5b0cf67e" y="108.649235"/>
     <use style="fill:#ff0000;stroke:#000000;" x="226.184581" xlink:href="#m3e5b0cf67e" y="111.565448"/>
     <use style="fill:#ff0000;stroke:#000000;" x="227.998294" xlink:href="#m3e5b0cf67e" y="111.741426"/>
     <use style="fill:#ff0000;stroke:#000000;" x="229.812006" xlink:href="#m3e5b0cf67e" y="109.051471"/>
     <use style="fill:#ff0000;stroke:#000000;" x="231.625719" xlink:href="#m3e5b0cf67e" y="111.867125"/>
     <use style="fill:#ff0000;stroke:#000000;" x="233.439431" xlink:href="#m3e5b0cf67e" y="112.44534"/>
     <use style="fill:#ff0000;stroke:#000000;" x="238.880569" xlink:href="#m3e5b0cf67e" y="114.858758"/>
     <use style="fill:#ff0000;stroke:#000000;" x="240.694281" xlink:href="#m3e5b0cf67e" y="113.325232"/>
     <use style="fill:#ff0000;stroke:#000000;" x="242.507994" xlink:href="#m3e5b0cf67e" y="115.562671"/>
     <use style="fill:#ff0000;stroke:#000000;" x="244.321706" xlink:href="#m3e5b0cf67e" y="112.36992"/>
     <use style="fill:#ff0000;stroke:#000000;" x="246.135419" xlink:href="#m3e5b0cf67e" y="114.60736"/>
     <use style="fill:#ff0000;stroke:#000000;" x="251.576557" xlink:href="#m3e5b0cf67e" y="110.534717"/>
     <use style="fill:#ff0000;stroke:#000000;" x="253.390269" xlink:href="#m3e5b0cf67e" y="114.280543"/>
     <use style="fill:#ff0000;stroke:#000000;" x="255.203982" xlink:href="#m3e5b0cf67e" y="111.33919"/>
     <use style="fill:#ff0000;stroke:#000000;" x="257.017694" xlink:href="#m3e5b0cf67e" y="109.026331"/>
     <use style="fill:#ff0000;stroke:#000000;" x="258.831407" xlink:href="#m3e5b0cf67e" y="111.062652"/>
     <use style="fill:#ff0000;stroke:#000000;" x="264.272544" xlink:href="#m3e5b0cf67e" y="112.922995"/>
     <use style="fill:#ff0000;stroke:#000000;" x="266.086257" xlink:href="#m3e5b0cf67e" y="113.50121"/>
     <use style="fill:#ff0000;stroke:#000000;" x="267.89997" xlink:href="#m3e5b0cf67e" y="109.705105"/>
     <use style="fill:#ff0000;stroke:#000000;" x="269.713682" xlink:href="#m3e5b0cf67e" y="107.593364"/>
     <use style="fill:#ff0000;stroke:#000000;" x="271.527395" xlink:href="#m3e5b0cf67e" y="99.37266"/>
     <use style="fill:#ff0000;stroke:#000000;" x="276.968532" xlink:href="#m3e5b0cf67e" y="97.813994"/>
     <use style="fill:#ff0000;stroke:#000000;" x="278.782245" xlink:href="#m3e5b0cf67e" y="100.554229"/>
     <use style="fill:#ff0000;stroke:#000000;" x="280.595957" xlink:href="#m3e5b0cf67e" y="98.316789"/>
     <use style="fill:#ff0000;stroke:#000000;" x="282.40967" xlink:href="#m3e5b0cf67e" y="99.473219"/>
     <use style="fill:#ff0000;stroke:#000000;" x="284.223382" xlink:href="#m3e5b0cf67e" y="99.473219"/>
     <use style="fill:#ff0000;stroke:#000000;" x="289.66452" xlink:href="#m3e5b0cf67e" y="99.825176"/>
     <use style="fill:#ff0000;stroke:#000000;" x="291.478233" xlink:href="#m3e5b0cf67e" y="99.774896"/>
     <use style="fill:#ff0000;stroke:#000000;" x="293.291945" xlink:href="#m3e5b0cf67e" y="98.869864"/>
     <use style="fill:#ff0000;stroke:#000000;" x="295.105658" xlink:href="#m3e5b0cf67e" y="99.221821"/>
     <use style="fill:#ff0000;stroke:#000000;" x="296.91937" xlink:href="#m3e5b0cf67e" y="97.713435"/>
     <use style="fill:#ff0000;stroke:#000000;" x="302.360508" xlink:href="#m3e5b0cf67e" y="92.031847"/>
     <use style="fill:#ff0000;stroke:#000000;" x="304.17422" xlink:href="#m3e5b0cf67e" y="85.621206"/>
     <use style="fill:#ff0000;stroke:#000000;" x="305.987933" xlink:href="#m3e5b0cf67e" y="88.361441"/>
     <use style="fill:#ff0000;stroke:#000000;" x="307.801646" xlink:href="#m3e5b0cf67e" y="80.165876"/>
     <use style="fill:#ff0000;stroke:#000000;" x="309.615358" xlink:href="#m3e5b0cf67e" y="75.012223"/>
     <use style="fill:#ff0000;stroke:#000000;" x="315.056496" xlink:href="#m3e5b0cf67e" y="74.509428"/>
     <use style="fill:#ff0000;stroke:#000000;" x="316.870208" xlink:href="#m3e5b0cf67e" y="66.037326"/>
     <use style="fill:#ff0000;stroke:#000000;" x="318.683921" xlink:href="#m3e5b0cf67e" y="80.266435"/>
     <use style="fill:#ff0000;stroke:#000000;" x="320.497633" xlink:href="#m3e5b0cf67e" y="83.157508"/>
     <use style="fill:#ff0000;stroke:#000000;" x="322.311346" xlink:href="#m3e5b0cf67e" y="88.512279"/>
     <use style="fill:#ff0000;stroke:#000000;" x="327.752483" xlink:href="#m3e5b0cf67e" y="88.41172"/>
     <use style="fill:#ff0000;stroke:#000000;" x="329.566196" xlink:href="#m3e5b0cf67e" y="87.984344"/>
     <use style="fill:#ff0000;stroke:#000000;" x="331.379909" xlink:href="#m3e5b0cf67e" y="91.227374"/>
     <use style="fill:#ff0000;stroke:#000000;" x="333.193621" xlink:href="#m3e5b0cf67e" y="89.51787"/>
     <use style="fill:#ff0000;stroke:#000000;" x="335.007334" xlink:href="#m3e5b0cf67e" y="93.414534"/>
     <use style="fill:#ff0000;stroke:#000000;" x="340.448471" xlink:href="#m3e5b0cf67e" y="92.082127"/>
     <use style="fill:#ff0000;stroke:#000000;" x="342.262184" xlink:href="#m3e5b0cf67e" y="93.615652"/>
     <use style="fill:#ff0000;stroke:#000000;" x="344.075896" xlink:href="#m3e5b0cf67e" y="87.934065"/>
     <use style="fill:#ff0000;stroke:#000000;" x="345.889609" xlink:href="#m3e5b0cf67e" y="73.302719"/>
     <use style="fill:#ff0000;stroke:#000000;" x="347.703321" xlink:href="#m3e5b0cf67e" y="71.392096"/>
     <use style="fill:#ff0000;stroke:#000000;" x="353.144459" xlink:href="#m3e5b0cf67e" y="74.484288"/>
     <use style="fill:#ff0000;stroke:#000000;" x="354.958172" xlink:href="#m3e5b0cf67e" y="65.257993"/>
     <use style="fill:#ff0000;stroke:#000000;" x="356.771884" xlink:href="#m3e5b0cf67e" y="65.157434"/>
     <use style="fill:#ff0000;stroke:#000000;" x="358.585597" xlink:href="#m3e5b0cf67e" y="64.956315"/>
     <use style="fill:#ff0000;stroke:#000000;" x="360.399309" xlink:href="#m3e5b0cf67e" y="67.595991"/>
     <use style="fill:#ff0000;stroke:#000000;" x="365.840447" xlink:href="#m3e5b0cf67e" y="67.545712"/>
     <use style="fill:#ff0000;stroke:#000000;" x="367.654159" xlink:href="#m3e5b0cf67e" y="64.629498"/>
     <use style="fill:#ff0000;stroke:#000000;" x="369.467872" xlink:href="#m3e5b0cf67e" y="57.112707"/>
     <use style="fill:#ff0000;stroke:#000000;" x="371.281585" xlink:href="#m3e5b0cf67e" y="53.568"/>
     <use style="fill:#ff0000;stroke:#000000;" x="373.095297" xlink:href="#m3e5b0cf67e" y="57.137847"/>
     <use style="fill:#ff0000;stroke:#000000;" x="378.536435" xlink:href="#m3e5b0cf67e" y="60.657415"/>
     <use style="fill:#ff0000;stroke:#000000;" x="380.350147" xlink:href="#m3e5b0cf67e" y="69.431194"/>
     <use style="fill:#ff0000;stroke:#000000;" x="382.16386" xlink:href="#m3e5b0cf67e" y="73.629536"/>
     <use style="fill:#ff0000;stroke:#000000;" x="383.977572" xlink:href="#m3e5b0cf67e" y="81.146327"/>
     <use style="fill:#ff0000;stroke:#000000;" x="385.791285" xlink:href="#m3e5b0cf67e" y="80.040177"/>
     <use style="fill:#ff0000;stroke:#000000;" x="391.232423" xlink:href="#m3e5b0cf67e" y="90.272063"/>
     <use style="fill:#ff0000;stroke:#000000;" x="393.046135" xlink:href="#m3e5b0cf67e" y="85.420088"/>
     <use style="fill:#ff0000;stroke:#000000;" x="396.67356" xlink:href="#m3e5b0cf67e" y="90.322343"/>
     <use style="fill:#ff0000;stroke:#000000;" x="398.487273" xlink:href="#m3e5b0cf67e" y="88.009484"/>
    </g>
   </g>
   <g id="matplotlib.axis_1">
    <g id="xtick_1">
     <g id="line2d_1">
      <defs>
       <path d="M 0 0 
L 0 3.5 
" id="m47112b08b2" style="stroke:#000000;stroke-width:0.8;"/>
      </defs>
      <g>
       <use style="stroke:#000000;stroke-width:0.8;" x="99.224703" xlink:href="#m47112b08b2" y="307.584"/>
      </g>
     </g>
     <g id="text_1">
      <!-- 2020-06 -->
      <g transform="translate(78.333297 322.182437)scale(0.1 -0.1)">
       <defs>
        <path d="M 19.1875 8.296875 
L 53.609375 8.296875 
L 53.609375 0 
L 7.328125 0 
L 7.328125 8.296875 
Q 12.9375 14.109375 22.625 23.890625 
Q 32.328125 33.6875 34.8125 36.53125 
Q 39.546875 41.84375 41.421875 45.53125 
Q 43.3125 49.21875 43.3125 52.78125 
Q 43.3125 58.59375 39.234375 62.25 
Q 35.15625 65.921875 28.609375 65.921875 
Q 23.96875 65.921875 18.8125 64.3125 
Q 13.671875 62.703125 7.8125 59.421875 
L 7.8125 69.390625 
Q 13.765625 71.78125 18.9375 73 
Q 24.125 74.21875 28.421875 74.21875 
Q 39.75 74.21875 46.484375 68.546875 
Q 53.21875 62.890625 53.21875 53.421875 
Q 53.21875 48.921875 51.53125 44.890625 
Q 49.859375 40.875 45.40625 35.40625 
Q 44.1875 33.984375 37.640625 27.21875 
Q 31.109375 20.453125 19.1875 8.296875 
z
" id="DejaVuSans-50"/>
        <path d="M 31.78125 66.40625 
Q 24.171875 66.40625 20.328125 58.90625 
Q 16.5 51.421875 16.5 36.375 
Q 16.5 21.390625 20.328125 13.890625 
Q 24.171875 6.390625 31.78125 6.390625 
Q 39.453125 6.390625 43.28125 13.890625 
Q 47.125 21.390625 47.125 36.375 
Q 47.125 51.421875 43.28125 58.90625 
Q 39.453125 66.40625 31.78125 66.40625 
z
M 31.78125 74.21875 
Q 44.046875 74.21875 50.515625 64.515625 
Q 56.984375 54.828125 56.984375 36.375 
Q 56.984375 17.96875 50.515625 8.265625 
Q 44.046875 -1.421875 31.78125 -1.421875 
Q 19.53125 -1.421875 13.0625 8.265625 
Q 6.59375 17.96875 6.59375 36.375 
Q 6.59375 54.828125 13.0625 64.515625 
Q 19.53125 74.21875 31.78125 74.21875 
z
" id="DejaVuSans-48"/>
        <path d="M 4.890625 31.390625 
L 31.203125 31.390625 
L 31.203125 23.390625 
L 4.890625 23.390625 
z
" id="DejaVuSans-45"/>
        <path d="M 33.015625 40.375 
Q 26.375 40.375 22.484375 35.828125 
Q 18.609375 31.296875 18.609375 23.390625 
Q 18.609375 15.53125 22.484375 10.953125 
Q 26.375 6.390625 33.015625 6.390625 
Q 39.65625 6.390625 43.53125 10.953125 
Q 47.40625 15.53125 47.40625 23.390625 
Q 47.40625 31.296875 43.53125 35.828125 
Q 39.65625 40.375 33.015625 40.375 
z
M 52.59375 71.296875 
L 52.59375 62.3125 
Q 48.875 64.0625 45.09375 64.984375 
Q 41.3125 65.921875 37.59375 65.921875 
Q 27.828125 65.921875 22.671875 59.328125 
Q 17.53125 52.734375 16.796875 39.40625 
Q 19.671875 43.65625 24.015625 45.921875 
Q 28.375 48.1875 33.59375 48.1875 
Q 44.578125 48.1875 50.953125 41.515625 
Q 57.328125 34.859375 57.328125 23.390625 
Q 57.328125 12.15625 50.6875 5.359375 
Q 44.046875 -1.421875 33.015625 -1.421875 
Q 20.359375 -1.421875 13.671875 8.265625 
Q 6.984375 17.96875 6.984375 36.375 
Q 6.984375 53.65625 15.1875 63.9375 
Q 23.390625 74.21875 37.203125 74.21875 
Q 40.921875 74.21875 44.703125 73.484375 
Q 48.484375 72.75 52.59375 71.296875 
z
" id="DejaVuSans-54"/>
       </defs>
       <use xlink:href="#DejaVuSans-50"/>
       <use x="63.623047" xlink:href="#DejaVuSans-48"/>
       <use x="127.246094" xlink:href="#DejaVuSans-50"/>
       <use x="190.869141" xlink:href="#DejaVuSans-48"/>
       <use x="254.492188" xlink:href="#DejaVuSans-45"/>
       <use x="290.576172" xlink:href="#DejaVuSans-48"/>
       <use x="354.199219" xlink:href="#DejaVuSans-54"/>
      </g>
     </g>
    </g>
    <g id="xtick_2">
     <g id="line2d_2">
      <g>
       <use style="stroke:#000000;stroke-width:0.8;" x="153.636079" xlink:href="#m47112b08b2" y="307.584"/>
      </g>
     </g>
     <g id="text_2">
      <!-- 2020-07 -->
      <g transform="translate(132.744673 322.182437)scale(0.1 -0.1)">
       <defs>
        <path d="M 8.203125 72.90625 
L 55.078125 72.90625 
L 55.078125 68.703125 
L 28.609375 0 
L 18.3125 0 
L 43.21875 64.59375 
L 8.203125 64.59375 
z
" id="DejaVuSans-55"/>
       </defs>
       <use xlink:href="#DejaVuSans-50"/>
       <use x="63.623047" xlink:href="#DejaVuSans-48"/>
       <use x="127.246094" xlink:href="#DejaVuSans-50"/>
       <use x="190.869141" xlink:href="#DejaVuSans-48"/>
       <use x="254.492188" xlink:href="#DejaVuSans-45"/>
       <use x="290.576172" xlink:href="#DejaVuSans-48"/>
       <use x="354.199219" xlink:href="#DejaVuSans-55"/>
      </g>
     </g>
    </g>
    <g id="xtick_3">
     <g id="line2d_3">
      <g>
       <use style="stroke:#000000;stroke-width:0.8;" x="209.861168" xlink:href="#m47112b08b2" y="307.584"/>
      </g>
     </g>
     <g id="text_3">
      <!-- 2020-08 -->
      <g transform="translate(188.969762 322.182437)scale(0.1 -0.1)">
       <defs>
        <path d="M 31.78125 34.625 
Q 24.75 34.625 20.71875 30.859375 
Q 16.703125 27.09375 16.703125 20.515625 
Q 16.703125 13.921875 20.71875 10.15625 
Q 24.75 6.390625 31.78125 6.390625 
Q 38.8125 6.390625 42.859375 10.171875 
Q 46.921875 13.96875 46.921875 20.515625 
Q 46.921875 27.09375 42.890625 30.859375 
Q 38.875 34.625 31.78125 34.625 
z
M 21.921875 38.8125 
Q 15.578125 40.375 12.03125 44.71875 
Q 8.5 49.078125 8.5 55.328125 
Q 8.5 64.0625 14.71875 69.140625 
Q 20.953125 74.21875 31.78125 74.21875 
Q 42.671875 74.21875 48.875 69.140625 
Q 55.078125 64.0625 55.078125 55.328125 
Q 55.078125 49.078125 51.53125 44.71875 
Q 48 40.375 41.703125 38.8125 
Q 48.828125 37.15625 52.796875 32.3125 
Q 56.78125 27.484375 56.78125 20.515625 
Q 56.78125 9.90625 50.3125 4.234375 
Q 43.84375 -1.421875 31.78125 -1.421875 
Q 19.734375 -1.421875 13.25 4.234375 
Q 6.78125 9.90625 6.78125 20.515625 
Q 6.78125 27.484375 10.78125 32.3125 
Q 14.796875 37.15625 21.921875 38.8125 
z
M 18.3125 54.390625 
Q 18.3125 48.734375 21.84375 45.5625 
Q 25.390625 42.390625 31.78125 42.390625 
Q 38.140625 42.390625 41.71875 45.5625 
Q 45.3125 48.734375 45.3125 54.390625 
Q 45.3125 60.0625 41.71875 63.234375 
Q 38.140625 66.40625 31.78125 66.40625 
Q 25.390625 66.40625 21.84375 63.234375 
Q 18.3125 60.0625 18.3125 54.390625 
z
" id="DejaVuSans-56"/>
       </defs>
       <use xlink:href="#DejaVuSans-50"/>
       <use x="63.623047" xlink:href="#DejaVuSans-48"/>
       <use x="127.246094" xlink:href="#DejaVuSans-50"/>
       <use x="190.869141" xlink:href="#DejaVuSans-48"/>
       <use x="254.492188" xlink:href="#DejaVuSans-45"/>
       <use x="290.576172" xlink:href="#DejaVuSans-48"/>
       <use x="354.199219" xlink:href="#DejaVuSans-56"/>
      </g>
     </g>
    </g>
    <g id="xtick_4">
     <g id="line2d_4">
      <g>
       <use style="stroke:#000000;stroke-width:0.8;" x="266.086257" xlink:href="#m47112b08b2" y="307.584"/>
      </g>
     </g>
     <g id="text_4">
      <!-- 2020-09 -->
      <g transform="translate(245.194851 322.182437)scale(0.1 -0.1)">
       <defs>
        <path d="M 10.984375 1.515625 
L 10.984375 10.5 
Q 14.703125 8.734375 18.5 7.8125 
Q 22.3125 6.890625 25.984375 6.890625 
Q 35.75 6.890625 40.890625 13.453125 
Q 46.046875 20.015625 46.78125 33.40625 
Q 43.953125 29.203125 39.59375 26.953125 
Q 35.25 24.703125 29.984375 24.703125 
Q 19.046875 24.703125 12.671875 31.3125 
Q 6.296875 37.9375 6.296875 49.421875 
Q 6.296875 60.640625 12.9375 67.421875 
Q 19.578125 74.21875 30.609375 74.21875 
Q 43.265625 74.21875 49.921875 64.515625 
Q 56.59375 54.828125 56.59375 36.375 
Q 56.59375 19.140625 48.40625 8.859375 
Q 40.234375 -1.421875 26.421875 -1.421875 
Q 22.703125 -1.421875 18.890625 -0.6875 
Q 15.09375 0.046875 10.984375 1.515625 
z
M 30.609375 32.421875 
Q 37.25 32.421875 41.125 36.953125 
Q 45.015625 41.5 45.015625 49.421875 
Q 45.015625 57.28125 41.125 61.84375 
Q 37.25 66.40625 30.609375 66.40625 
Q 23.96875 66.40625 20.09375 61.84375 
Q 16.21875 57.28125 16.21875 49.421875 
Q 16.21875 41.5 20.09375 36.953125 
Q 23.96875 32.421875 30.609375 32.421875 
z
" id="DejaVuSans-57"/>
       </defs>
       <use xlink:href="#DejaVuSans-50"/>
       <use x="63.623047" xlink:href="#DejaVuSans-48"/>
       <use x="127.246094" xlink:href="#DejaVuSans-50"/>
       <use x="190.869141" xlink:href="#DejaVuSans-48"/>
       <use x="254.492188" xlink:href="#DejaVuSans-45"/>
       <use x="290.576172" xlink:href="#DejaVuSans-48"/>
       <use x="354.199219" xlink:href="#DejaVuSans-57"/>
      </g>
     </g>
    </g>
    <g id="xtick_5">
     <g id="line2d_5">
      <g>
       <use style="stroke:#000000;stroke-width:0.8;" x="320.497633" xlink:href="#m47112b08b2" y="307.584"/>
      </g>
     </g>
     <g id="text_5">
      <!-- 2020-10 -->
      <g transform="translate(299.606227 322.182437)scale(0.1 -0.1)">
       <defs>
        <path d="M 12.40625 8.296875 
L 28.515625 8.296875 
L 28.515625 63.921875 
L 10.984375 60.40625 
L 10.984375 69.390625 
L 28.421875 72.90625 
L 38.28125 72.90625 
L 38.28125 8.296875 
L 54.390625 8.296875 
L 54.390625 0 
L 12.40625 0 
z
" id="DejaVuSans-49"/>
       </defs>
       <use xlink:href="#DejaVuSans-50"/>
       <use x="63.623047" xlink:href="#DejaVuSans-48"/>
       <use x="127.246094" xlink:href="#DejaVuSans-50"/>
       <use x="190.869141" xlink:href="#DejaVuSans-48"/>
       <use x="254.492188" xlink:href="#DejaVuSans-45"/>
       <use x="290.576172" xlink:href="#DejaVuSans-49"/>
       <use x="354.199219" xlink:href="#DejaVuSans-48"/>
      </g>
     </g>
    </g>
    <g id="xtick_6">
     <g id="line2d_6">
      <g>
       <use style="stroke:#000000;stroke-width:0.8;" x="376.722722" xlink:href="#m47112b08b2" y="307.584"/>
      </g>
     </g>
     <g id="text_6">
      <!-- 2020-11 -->
      <g transform="translate(355.831316 322.182437)scale(0.1 -0.1)">
       <use xlink:href="#DejaVuSans-50"/>
       <use x="63.623047" xlink:href="#DejaVuSans-48"/>
       <use x="127.246094" xlink:href="#DejaVuSans-50"/>
       <use x="190.869141" xlink:href="#DejaVuSans-48"/>
       <use x="254.492188" xlink:href="#DejaVuSans-45"/>
       <use x="290.576172" xlink:href="#DejaVuSans-49"/>
       <use x="354.199219" xlink:href="#DejaVuSans-49"/>
      </g>
     </g>
    </g>
    <g id="text_7">
     <!-- Date -->
     <g transform="translate(224.209219 335.860562)scale(0.1 -0.1)">
      <defs>
       <path d="M 19.671875 64.796875 
L 19.671875 8.109375 
L 31.59375 8.109375 
Q 46.6875 8.109375 53.6875 14.9375 
Q 60.6875 21.78125 60.6875 36.53125 
Q 60.6875 51.171875 53.6875 57.984375 
Q 46.6875 64.796875 31.59375 64.796875 
z
M 9.8125 72.90625 
L 30.078125 72.90625 
Q 51.265625 72.90625 61.171875 64.09375 
Q 71.09375 55.28125 71.09375 36.53125 
Q 71.09375 17.671875 61.125 8.828125 
Q 51.171875 0 30.078125 0 
L 9.8125 0 
z
" id="DejaVuSans-68"/>
       <path d="M 34.28125 27.484375 
Q 23.390625 27.484375 19.1875 25 
Q 14.984375 22.515625 14.984375 16.5 
Q 14.984375 11.71875 18.140625 8.90625 
Q 21.296875 6.109375 26.703125 6.109375 
Q 34.1875 6.109375 38.703125 11.40625 
Q 43.21875 16.703125 43.21875 25.484375 
L 43.21875 27.484375 
z
M 52.203125 31.203125 
L 52.203125 0 
L 43.21875 0 
L 43.21875 8.296875 
Q 40.140625 3.328125 35.546875 0.953125 
Q 30.953125 -1.421875 24.3125 -1.421875 
Q 15.921875 -1.421875 10.953125 3.296875 
Q 6 8.015625 6 15.921875 
Q 6 25.140625 12.171875 29.828125 
Q 18.359375 34.515625 30.609375 34.515625 
L 43.21875 34.515625 
L 43.21875 35.40625 
Q 43.21875 41.609375 39.140625 45 
Q 35.0625 48.390625 27.6875 48.390625 
Q 23 48.390625 18.546875 47.265625 
Q 14.109375 46.140625 10.015625 43.890625 
L 10.015625 52.203125 
Q 14.9375 54.109375 19.578125 55.046875 
Q 24.21875 56 28.609375 56 
Q 40.484375 56 46.34375 49.84375 
Q 52.203125 43.703125 52.203125 31.203125 
z
" id="DejaVuSans-97"/>
       <path d="M 18.3125 70.21875 
L 18.3125 54.6875 
L 36.8125 54.6875 
L 36.8125 47.703125 
L 18.3125 47.703125 
L 18.3125 18.015625 
Q 18.3125 11.328125 20.140625 9.421875 
Q 21.96875 7.515625 27.59375 7.515625 
L 36.8125 7.515625 
L 36.8125 0 
L 27.59375 0 
Q 17.1875 0 13.234375 3.875 
Q 9.28125 7.765625 9.28125 18.015625 
L 9.28125 47.703125 
L 2.6875 47.703125 
L 2.6875 54.6875 
L 9.28125 54.6875 
L 9.28125 70.21875 
z
" id="DejaVuSans-116"/>
       <path d="M 56.203125 29.59375 
L 56.203125 25.203125 
L 14.890625 25.203125 
Q 15.484375 15.921875 20.484375 11.0625 
Q 25.484375 6.203125 34.421875 6.203125 
Q 39.59375 6.203125 44.453125 7.46875 
Q 49.3125 8.734375 54.109375 11.28125 
L 54.109375 2.78125 
Q 49.265625 0.734375 44.1875 -0.34375 
Q 39.109375 -1.421875 33.890625 -1.421875 
Q 20.796875 -1.421875 13.15625 6.1875 
Q 5.515625 13.8125 5.515625 26.8125 
Q 5.515625 40.234375 12.765625 48.109375 
Q 20.015625 56 32.328125 56 
Q 43.359375 56 49.78125 48.890625 
Q 56.203125 41.796875 56.203125 29.59375 
z
M 47.21875 32.234375 
Q 47.125 39.59375 43.09375 43.984375 
Q 39.0625 48.390625 32.421875 48.390625 
Q 24.90625 48.390625 20.390625 44.140625 
Q 15.875 39.890625 15.1875 32.171875 
z
" id="DejaVuSans-101"/>
      </defs>
      <use xlink:href="#DejaVuSans-68"/>
      <use x="77.001953" xlink:href="#DejaVuSans-97"/>
      <use x="138.28125" xlink:href="#DejaVuSans-116"/>
      <use x="177.490234" xlink:href="#DejaVuSans-101"/>
     </g>
    </g>
   </g>
   <g id="matplotlib.axis_2">
    <g id="ytick_1">
     <g id="line2d_7">
      <defs>
       <path d="M 0 0 
L -3.5 0 
" id="me5ddba4475" style="stroke:#000000;stroke-width:0.8;"/>
      </defs>
      <g>
       <use style="stroke:#000000;stroke-width:0.8;" x="57.6" xlink:href="#me5ddba4475" y="262.982278"/>
      </g>
     </g>
     <g id="text_8">
      <!-- 3.8 -->
      <g transform="translate(34.696875 266.781497)scale(0.1 -0.1)">
       <defs>
        <path d="M 40.578125 39.3125 
Q 47.65625 37.796875 51.625 33 
Q 55.609375 28.21875 55.609375 21.1875 
Q 55.609375 10.40625 48.1875 4.484375 
Q 40.765625 -1.421875 27.09375 -1.421875 
Q 22.515625 -1.421875 17.65625 -0.515625 
Q 12.796875 0.390625 7.625 2.203125 
L 7.625 11.71875 
Q 11.71875 9.328125 16.59375 8.109375 
Q 21.484375 6.890625 26.8125 6.890625 
Q 36.078125 6.890625 40.9375 10.546875 
Q 45.796875 14.203125 45.796875 21.1875 
Q 45.796875 27.640625 41.28125 31.265625 
Q 36.765625 34.90625 28.71875 34.90625 
L 20.21875 34.90625 
L 20.21875 43.015625 
L 29.109375 43.015625 
Q 36.375 43.015625 40.234375 45.921875 
Q 44.09375 48.828125 44.09375 54.296875 
Q 44.09375 59.90625 40.109375 62.90625 
Q 36.140625 65.921875 28.71875 65.921875 
Q 24.65625 65.921875 20.015625 65.03125 
Q 15.375 64.15625 9.8125 62.3125 
L 9.8125 71.09375 
Q 15.4375 72.65625 20.34375 73.4375 
Q 25.25 74.21875 29.59375 74.21875 
Q 40.828125 74.21875 47.359375 69.109375 
Q 53.90625 64.015625 53.90625 55.328125 
Q 53.90625 49.265625 50.4375 45.09375 
Q 46.96875 40.921875 40.578125 39.3125 
z
" id="DejaVuSans-51"/>
        <path d="M 10.6875 12.40625 
L 21 12.40625 
L 21 0 
L 10.6875 0 
z
" id="DejaVuSans-46"/>
       </defs>
       <use xlink:href="#DejaVuSans-51"/>
       <use x="63.623047" xlink:href="#DejaVuSans-46"/>
       <use x="95.410156" xlink:href="#DejaVuSans-56"/>
      </g>
     </g>
    </g>
    <g id="ytick_2">
     <g id="line2d_8">
      <g>
       <use style="stroke:#000000;stroke-width:0.8;" x="57.6" xlink:href="#me5ddba4475" y="212.70274"/>
      </g>
     </g>
     <g id="text_9">
      <!-- 4.0 -->
      <g transform="translate(34.696875 216.501958)scale(0.1 -0.1)">
       <defs>
        <path d="M 37.796875 64.3125 
L 12.890625 25.390625 
L 37.796875 25.390625 
z
M 35.203125 72.90625 
L 47.609375 72.90625 
L 47.609375 25.390625 
L 58.015625 25.390625 
L 58.015625 17.1875 
L 47.609375 17.1875 
L 47.609375 0 
L 37.796875 0 
L 37.796875 17.1875 
L 4.890625 17.1875 
L 4.890625 26.703125 
z
" id="DejaVuSans-52"/>
       </defs>
       <use xlink:href="#DejaVuSans-52"/>
       <use x="63.623047" xlink:href="#DejaVuSans-46"/>
       <use x="95.410156" xlink:href="#DejaVuSans-48"/>
      </g>
     </g>
    </g>
    <g id="ytick_3">
     <g id="line2d_9">
      <g>
       <use style="stroke:#000000;stroke-width:0.8;" x="57.6" xlink:href="#me5ddba4475" y="162.423201"/>
      </g>
     </g>
     <g id="text_10">
      <!-- 4.2 -->
      <g transform="translate(34.696875 166.22242)scale(0.1 -0.1)">
       <use xlink:href="#DejaVuSans-52"/>
       <use x="63.623047" xlink:href="#DejaVuSans-46"/>
       <use x="95.410156" xlink:href="#DejaVuSans-50"/>
      </g>
     </g>
    </g>
    <g id="ytick_4">
     <g id="line2d_10">
      <g>
       <use style="stroke:#000000;stroke-width:0.8;" x="57.6" xlink:href="#me5ddba4475" y="112.143662"/>
      </g>
     </g>
     <g id="text_11">
      <!-- 4.4 -->
      <g transform="translate(34.696875 115.942881)scale(0.1 -0.1)">
       <use xlink:href="#DejaVuSans-52"/>
       <use x="63.623047" xlink:href="#DejaVuSans-46"/>
       <use x="95.410156" xlink:href="#DejaVuSans-52"/>
      </g>
     </g>
    </g>
    <g id="ytick_5">
     <g id="line2d_11">
      <g>
       <use style="stroke:#000000;stroke-width:0.8;" x="57.6" xlink:href="#me5ddba4475" y="61.864124"/>
      </g>
     </g>
     <g id="text_12">
      <!-- 4.6 -->
      <g transform="translate(34.696875 65.663343)scale(0.1 -0.1)">
       <use xlink:href="#DejaVuSans-52"/>
       <use x="63.623047" xlink:href="#DejaVuSans-46"/>
       <use x="95.410156" xlink:href="#DejaVuSans-54"/>
      </g>
     </g>
    </g>
    <g id="text_13">
     <!-- Exchange rate -->
     <g transform="translate(28.617187 210.706125)rotate(-90)scale(0.1 -0.1)">
      <defs>
       <path d="M 9.8125 72.90625 
L 55.90625 72.90625 
L 55.90625 64.59375 
L 19.671875 64.59375 
L 19.671875 43.015625 
L 54.390625 43.015625 
L 54.390625 34.71875 
L 19.671875 34.71875 
L 19.671875 8.296875 
L 56.78125 8.296875 
L 56.78125 0 
L 9.8125 0 
z
" id="DejaVuSans-69"/>
       <path d="M 54.890625 54.6875 
L 35.109375 28.078125 
L 55.90625 0 
L 45.3125 0 
L 29.390625 21.484375 
L 13.484375 0 
L 2.875 0 
L 24.125 28.609375 
L 4.6875 54.6875 
L 15.28125 54.6875 
L 29.78125 35.203125 
L 44.28125 54.6875 
z
" id="DejaVuSans-120"/>
       <path d="M 48.78125 52.59375 
L 48.78125 44.1875 
Q 44.96875 46.296875 41.140625 47.34375 
Q 37.3125 48.390625 33.40625 48.390625 
Q 24.65625 48.390625 19.8125 42.84375 
Q 14.984375 37.3125 14.984375 27.296875 
Q 14.984375 17.28125 19.8125 11.734375 
Q 24.65625 6.203125 33.40625 6.203125 
Q 37.3125 6.203125 41.140625 7.25 
Q 44.96875 8.296875 48.78125 10.40625 
L 48.78125 2.09375 
Q 45.015625 0.34375 40.984375 -0.53125 
Q 36.96875 -1.421875 32.421875 -1.421875 
Q 20.0625 -1.421875 12.78125 6.34375 
Q 5.515625 14.109375 5.515625 27.296875 
Q 5.515625 40.671875 12.859375 48.328125 
Q 20.21875 56 33.015625 56 
Q 37.15625 56 41.109375 55.140625 
Q 45.0625 54.296875 48.78125 52.59375 
z
" id="DejaVuSans-99"/>
       <path d="M 54.890625 33.015625 
L 54.890625 0 
L 45.90625 0 
L 45.90625 32.71875 
Q 45.90625 40.484375 42.875 44.328125 
Q 39.84375 48.1875 33.796875 48.1875 
Q 26.515625 48.1875 22.3125 43.546875 
Q 18.109375 38.921875 18.109375 30.90625 
L 18.109375 0 
L 9.078125 0 
L 9.078125 75.984375 
L 18.109375 75.984375 
L 18.109375 46.1875 
Q 21.34375 51.125 25.703125 53.5625 
Q 30.078125 56 35.796875 56 
Q 45.21875 56 50.046875 50.171875 
Q 54.890625 44.34375 54.890625 33.015625 
z
" id="DejaVuSans-104"/>
       <path d="M 54.890625 33.015625 
L 54.890625 0 
L 45.90625 0 
L 45.90625 32.71875 
Q 45.90625 40.484375 42.875 44.328125 
Q 39.84375 48.1875 33.796875 48.1875 
Q 26.515625 48.1875 22.3125 43.546875 
Q 18.109375 38.921875 18.109375 30.90625 
L 18.109375 0 
L 9.078125 0 
L 9.078125 54.6875 
L 18.109375 54.6875 
L 18.109375 46.1875 
Q 21.34375 51.125 25.703125 53.5625 
Q 30.078125 56 35.796875 56 
Q 45.21875 56 50.046875 50.171875 
Q 54.890625 44.34375 54.890625 33.015625 
z
" id="DejaVuSans-110"/>
       <path d="M 45.40625 27.984375 
Q 45.40625 37.75 41.375 43.109375 
Q 37.359375 48.484375 30.078125 48.484375 
Q 22.859375 48.484375 18.828125 43.109375 
Q 14.796875 37.75 14.796875 27.984375 
Q 14.796875 18.265625 18.828125 12.890625 
Q 22.859375 7.515625 30.078125 7.515625 
Q 37.359375 7.515625 41.375 12.890625 
Q 45.40625 18.265625 45.40625 27.984375 
z
M 54.390625 6.78125 
Q 54.390625 -7.171875 48.1875 -13.984375 
Q 42 -20.796875 29.203125 -20.796875 
Q 24.46875 -20.796875 20.265625 -20.09375 
Q 16.0625 -19.390625 12.109375 -17.921875 
L 12.109375 -9.1875 
Q 16.0625 -11.328125 19.921875 -12.34375 
Q 23.78125 -13.375 27.78125 -13.375 
Q 36.625 -13.375 41.015625 -8.765625 
Q 45.40625 -4.15625 45.40625 5.171875 
L 45.40625 9.625 
Q 42.625 4.78125 38.28125 2.390625 
Q 33.9375 0 27.875 0 
Q 17.828125 0 11.671875 7.65625 
Q 5.515625 15.328125 5.515625 27.984375 
Q 5.515625 40.671875 11.671875 48.328125 
Q 17.828125 56 27.875 56 
Q 33.9375 56 38.28125 53.609375 
Q 42.625 51.21875 45.40625 46.390625 
L 45.40625 54.6875 
L 54.390625 54.6875 
z
" id="DejaVuSans-103"/>
       <path id="DejaVuSans-32"/>
       <path d="M 41.109375 46.296875 
Q 39.59375 47.171875 37.8125 47.578125 
Q 36.03125 48 33.890625 48 
Q 26.265625 48 22.1875 43.046875 
Q 18.109375 38.09375 18.109375 28.8125 
L 18.109375 0 
L 9.078125 0 
L 9.078125 54.6875 
L 18.109375 54.6875 
L 18.109375 46.1875 
Q 20.953125 51.171875 25.484375 53.578125 
Q 30.03125 56 36.53125 56 
Q 37.453125 56 38.578125 55.875 
Q 39.703125 55.765625 41.0625 55.515625 
z
" id="DejaVuSans-114"/>
      </defs>
      <use xlink:href="#DejaVuSans-69"/>
      <use x="63.183594" xlink:href="#DejaVuSans-120"/>
      <use x="120.613281" xlink:href="#DejaVuSans-99"/>
      <use x="175.59375" xlink:href="#DejaVuSans-104"/>
      <use x="238.972656" xlink:href="#DejaVuSans-97"/>
      <use x="300.251953" xlink:href="#DejaVuSans-110"/>
      <use x="363.630859" xlink:href="#DejaVuSans-103"/>
      <use x="427.107422" xlink:href="#DejaVuSans-101"/>
      <use x="488.630859" xlink:href="#DejaVuSans-32"/>
      <use x="520.417969" xlink:href="#DejaVuSans-114"/>
      <use x="561.53125" xlink:href="#DejaVuSans-97"/>
      <use x="622.810547" xlink:href="#DejaVuSans-116"/>
      <use x="662.019531" xlink:href="#DejaVuSans-101"/>
     </g>
    </g>
   </g>
   <g id="patch_3">
    <path d="M 57.6 307.584 
L 57.6 41.472 
" style="fill:none;stroke:#000000;stroke-linecap:square;stroke-linejoin:miter;stroke-width:0.8;"/>
   </g>
   <g id="patch_4">
    <path d="M 414.72 307.584 
L 414.72 41.472 
" style="fill:none;stroke:#000000;stroke-linecap:square;stroke-linejoin:miter;stroke-width:0.8;"/>
   </g>
   <g id="patch_5">
    <path d="M 57.6 307.584 
L 414.72 307.584 
" style="fill:none;stroke:#000000;stroke-linecap:square;stroke-linejoin:miter;stroke-width:0.8;"/>
   </g>
   <g id="patch_6">
    <path d="M 57.6 41.472 
L 414.72 41.472 
" style="fill:none;stroke:#000000;stroke-linecap:square;stroke-linejoin:miter;stroke-width:0.8;"/>
   </g>
   <g id="text_14">
    <!-- Plot of average EUR and USD exchange rates over the last six months -->
    <g transform="translate(25.741875 35.472)scale(0.12 -0.12)">
     <defs>
      <path d="M 19.671875 64.796875 
L 19.671875 37.40625 
L 32.078125 37.40625 
Q 38.96875 37.40625 42.71875 40.96875 
Q 46.484375 44.53125 46.484375 51.125 
Q 46.484375 57.671875 42.71875 61.234375 
Q 38.96875 64.796875 32.078125 64.796875 
z
M 9.8125 72.90625 
L 32.078125 72.90625 
Q 44.34375 72.90625 50.609375 67.359375 
Q 56.890625 61.8125 56.890625 51.125 
Q 56.890625 40.328125 50.609375 34.8125 
Q 44.34375 29.296875 32.078125 29.296875 
L 19.671875 29.296875 
L 19.671875 0 
L 9.8125 0 
z
" id="DejaVuSans-80"/>
      <path d="M 9.421875 75.984375 
L 18.40625 75.984375 
L 18.40625 0 
L 9.421875 0 
z
" id="DejaVuSans-108"/>
      <path d="M 30.609375 48.390625 
Q 23.390625 48.390625 19.1875 42.75 
Q 14.984375 37.109375 14.984375 27.296875 
Q 14.984375 17.484375 19.15625 11.84375 
Q 23.34375 6.203125 30.609375 6.203125 
Q 37.796875 6.203125 41.984375 11.859375 
Q 46.1875 17.53125 46.1875 27.296875 
Q 46.1875 37.015625 41.984375 42.703125 
Q 37.796875 48.390625 30.609375 48.390625 
z
M 30.609375 56 
Q 42.328125 56 49.015625 48.375 
Q 55.71875 40.765625 55.71875 27.296875 
Q 55.71875 13.875 49.015625 6.21875 
Q 42.328125 -1.421875 30.609375 -1.421875 
Q 18.84375 -1.421875 12.171875 6.21875 
Q 5.515625 13.875 5.515625 27.296875 
Q 5.515625 40.765625 12.171875 48.375 
Q 18.84375 56 30.609375 56 
z
" id="DejaVuSans-111"/>
      <path d="M 37.109375 75.984375 
L 37.109375 68.5 
L 28.515625 68.5 
Q 23.6875 68.5 21.796875 66.546875 
Q 19.921875 64.59375 19.921875 59.515625 
L 19.921875 54.6875 
L 34.71875 54.6875 
L 34.71875 47.703125 
L 19.921875 47.703125 
L 19.921875 0 
L 10.890625 0 
L 10.890625 47.703125 
L 2.296875 47.703125 
L 2.296875 54.6875 
L 10.890625 54.6875 
L 10.890625 58.5 
Q 10.890625 67.625 15.140625 71.796875 
Q 19.390625 75.984375 28.609375 75.984375 
z
" id="DejaVuSans-102"/>
      <path d="M 2.984375 54.6875 
L 12.5 54.6875 
L 29.59375 8.796875 
L 46.6875 54.6875 
L 56.203125 54.6875 
L 35.6875 0 
L 23.484375 0 
z
" id="DejaVuSans-118"/>
      <path d="M 8.6875 72.90625 
L 18.609375 72.90625 
L 18.609375 28.609375 
Q 18.609375 16.890625 22.84375 11.734375 
Q 27.09375 6.59375 36.625 6.59375 
Q 46.09375 6.59375 50.34375 11.734375 
Q 54.59375 16.890625 54.59375 28.609375 
L 54.59375 72.90625 
L 64.5 72.90625 
L 64.5 27.390625 
Q 64.5 13.140625 57.4375 5.859375 
Q 50.390625 -1.421875 36.625 -1.421875 
Q 22.796875 -1.421875 15.734375 5.859375 
Q 8.6875 13.140625 8.6875 27.390625 
z
" id="DejaVuSans-85"/>
      <path d="M 44.390625 34.1875 
Q 47.5625 33.109375 50.5625 29.59375 
Q 53.5625 26.078125 56.59375 19.921875 
L 66.609375 0 
L 56 0 
L 46.6875 18.703125 
Q 43.0625 26.03125 39.671875 28.421875 
Q 36.28125 30.8125 30.421875 30.8125 
L 19.671875 30.8125 
L 19.671875 0 
L 9.8125 0 
L 9.8125 72.90625 
L 32.078125 72.90625 
Q 44.578125 72.90625 50.734375 67.671875 
Q 56.890625 62.453125 56.890625 51.90625 
Q 56.890625 45.015625 53.6875 40.46875 
Q 50.484375 35.9375 44.390625 34.1875 
z
M 19.671875 64.796875 
L 19.671875 38.921875 
L 32.078125 38.921875 
Q 39.203125 38.921875 42.84375 42.21875 
Q 46.484375 45.515625 46.484375 51.90625 
Q 46.484375 58.296875 42.84375 61.546875 
Q 39.203125 64.796875 32.078125 64.796875 
z
" id="DejaVuSans-82"/>
      <path d="M 45.40625 46.390625 
L 45.40625 75.984375 
L 54.390625 75.984375 
L 54.390625 0 
L 45.40625 0 
L 45.40625 8.203125 
Q 42.578125 3.328125 38.25 0.953125 
Q 33.9375 -1.421875 27.875 -1.421875 
Q 17.96875 -1.421875 11.734375 6.484375 
Q 5.515625 14.40625 5.515625 27.296875 
Q 5.515625 40.1875 11.734375 48.09375 
Q 17.96875 56 27.875 56 
Q 33.9375 56 38.25 53.625 
Q 42.578125 51.265625 45.40625 46.390625 
z
M 14.796875 27.296875 
Q 14.796875 17.390625 18.875 11.75 
Q 22.953125 6.109375 30.078125 6.109375 
Q 37.203125 6.109375 41.296875 11.75 
Q 45.40625 17.390625 45.40625 27.296875 
Q 45.40625 37.203125 41.296875 42.84375 
Q 37.203125 48.484375 30.078125 48.484375 
Q 22.953125 48.484375 18.875 42.84375 
Q 14.796875 37.203125 14.796875 27.296875 
z
" id="DejaVuSans-100"/>
      <path d="M 53.515625 70.515625 
L 53.515625 60.890625 
Q 47.90625 63.578125 42.921875 64.890625 
Q 37.9375 66.21875 33.296875 66.21875 
Q 25.25 66.21875 20.875 63.09375 
Q 16.5 59.96875 16.5 54.203125 
Q 16.5 49.359375 19.40625 46.890625 
Q 22.3125 44.4375 30.421875 42.921875 
L 36.375 41.703125 
Q 47.40625 39.59375 52.65625 34.296875 
Q 57.90625 29 57.90625 20.125 
Q 57.90625 9.515625 50.796875 4.046875 
Q 43.703125 -1.421875 29.984375 -1.421875 
Q 24.8125 -1.421875 18.96875 -0.25 
Q 13.140625 0.921875 6.890625 3.21875 
L 6.890625 13.375 
Q 12.890625 10.015625 18.65625 8.296875 
Q 24.421875 6.59375 29.984375 6.59375 
Q 38.421875 6.59375 43.015625 9.90625 
Q 47.609375 13.234375 47.609375 19.390625 
Q 47.609375 24.75 44.3125 27.78125 
Q 41.015625 30.8125 33.5 32.328125 
L 27.484375 33.5 
Q 16.453125 35.6875 11.515625 40.375 
Q 6.59375 45.0625 6.59375 53.421875 
Q 6.59375 63.09375 13.40625 68.65625 
Q 20.21875 74.21875 32.171875 74.21875 
Q 37.3125 74.21875 42.625 73.28125 
Q 47.953125 72.359375 53.515625 70.515625 
z
" id="DejaVuSans-83"/>
      <path d="M 44.28125 53.078125 
L 44.28125 44.578125 
Q 40.484375 46.53125 36.375 47.5 
Q 32.28125 48.484375 27.875 48.484375 
Q 21.1875 48.484375 17.84375 46.4375 
Q 14.5 44.390625 14.5 40.28125 
Q 14.5 37.15625 16.890625 35.375 
Q 19.28125 33.59375 26.515625 31.984375 
L 29.59375 31.296875 
Q 39.15625 29.25 43.1875 25.515625 
Q 47.21875 21.78125 47.21875 15.09375 
Q 47.21875 7.46875 41.1875 3.015625 
Q 35.15625 -1.421875 24.609375 -1.421875 
Q 20.21875 -1.421875 15.453125 -0.5625 
Q 10.6875 0.296875 5.421875 2 
L 5.421875 11.28125 
Q 10.40625 8.6875 15.234375 7.390625 
Q 20.0625 6.109375 24.8125 6.109375 
Q 31.15625 6.109375 34.5625 8.28125 
Q 37.984375 10.453125 37.984375 14.40625 
Q 37.984375 18.0625 35.515625 20.015625 
Q 33.0625 21.96875 24.703125 23.78125 
L 21.578125 24.515625 
Q 13.234375 26.265625 9.515625 29.90625 
Q 5.8125 33.546875 5.8125 39.890625 
Q 5.8125 47.609375 11.28125 51.796875 
Q 16.75 56 26.8125 56 
Q 31.78125 56 36.171875 55.265625 
Q 40.578125 54.546875 44.28125 53.078125 
z
" id="DejaVuSans-115"/>
      <path d="M 9.421875 54.6875 
L 18.40625 54.6875 
L 18.40625 0 
L 9.421875 0 
z
M 9.421875 75.984375 
L 18.40625 75.984375 
L 18.40625 64.59375 
L 9.421875 64.59375 
z
" id="DejaVuSans-105"/>
      <path d="M 52 44.1875 
Q 55.375 50.25 60.0625 53.125 
Q 64.75 56 71.09375 56 
Q 79.640625 56 84.28125 50.015625 
Q 88.921875 44.046875 88.921875 33.015625 
L 88.921875 0 
L 79.890625 0 
L 79.890625 32.71875 
Q 79.890625 40.578125 77.09375 44.375 
Q 74.3125 48.1875 68.609375 48.1875 
Q 61.625 48.1875 57.5625 43.546875 
Q 53.515625 38.921875 53.515625 30.90625 
L 53.515625 0 
L 44.484375 0 
L 44.484375 32.71875 
Q 44.484375 40.625 41.703125 44.40625 
Q 38.921875 48.1875 33.109375 48.1875 
Q 26.21875 48.1875 22.15625 43.53125 
Q 18.109375 38.875 18.109375 30.90625 
L 18.109375 0 
L 9.078125 0 
L 9.078125 54.6875 
L 18.109375 54.6875 
L 18.109375 46.1875 
Q 21.1875 51.21875 25.484375 53.609375 
Q 29.78125 56 35.6875 56 
Q 41.65625 56 45.828125 52.96875 
Q 50 49.953125 52 44.1875 
z
" id="DejaVuSans-109"/>
     </defs>
     <use xlink:href="#DejaVuSans-80"/>
     <use x="60.302734" xlink:href="#DejaVuSans-108"/>
     <use x="88.085938" xlink:href="#DejaVuSans-111"/>
     <use x="149.267578" xlink:href="#DejaVuSans-116"/>
     <use x="188.476562" xlink:href="#DejaVuSans-32"/>
     <use x="220.263672" xlink:href="#DejaVuSans-111"/>
     <use x="281.445312" xlink:href="#DejaVuSans-102"/>
     <use x="316.650391" xlink:href="#DejaVuSans-32"/>
     <use x="348.4375" xlink:href="#DejaVuSans-97"/>
     <use x="409.716797" xlink:href="#DejaVuSans-118"/>
     <use x="468.896484" xlink:href="#DejaVuSans-101"/>
     <use x="530.419922" xlink:href="#DejaVuSans-114"/>
     <use x="571.533203" xlink:href="#DejaVuSans-97"/>
     <use x="632.8125" xlink:href="#DejaVuSans-103"/>
     <use x="696.289062" xlink:href="#DejaVuSans-101"/>
     <use x="757.8125" xlink:href="#DejaVuSans-32"/>
     <use x="789.599609" xlink:href="#DejaVuSans-69"/>
     <use x="852.783203" xlink:href="#DejaVuSans-85"/>
     <use x="925.976562" xlink:href="#DejaVuSans-82"/>
     <use x="995.458984" xlink:href="#DejaVuSans-32"/>
     <use x="1027.246094" xlink:href="#DejaVuSans-97"/>
     <use x="1088.525391" xlink:href="#DejaVuSans-110"/>
     <use x="1151.904297" xlink:href="#DejaVuSans-100"/>
     <use x="1215.380859" xlink:href="#DejaVuSans-32"/>
     <use x="1247.167969" xlink:href="#DejaVuSans-85"/>
     <use x="1320.361328" xlink:href="#DejaVuSans-83"/>
     <use x="1383.837891" xlink:href="#DejaVuSans-68"/>
     <use x="1460.839844" xlink:href="#DejaVuSans-32"/>
     <use x="1492.626953" xlink:href="#DejaVuSans-101"/>
     <use x="1552.400391" xlink:href="#DejaVuSans-120"/>
     <use x="1609.830078" xlink:href="#DejaVuSans-99"/>
     <use x="1664.810547" xlink:href="#DejaVuSans-104"/>
     <use x="1728.189453" xlink:href="#DejaVuSans-97"/>
     <use x="1789.46875" xlink:href="#DejaVuSans-110"/>
     <use x="1852.847656" xlink:href="#DejaVuSans-103"/>
     <use x="1916.324219" xlink:href="#DejaVuSans-101"/>
     <use x="1977.847656" xlink:href="#DejaVuSans-32"/>
     <use x="2009.634766" xlink:href="#DejaVuSans-114"/>
     <use x="2050.748047" xlink:href="#DejaVuSans-97"/>
     <use x="2112.027344" xlink:href="#DejaVuSans-116"/>
     <use x="2151.236328" xlink:href="#DejaVuSans-101"/>
     <use x="2212.759766" xlink:href="#DejaVuSans-115"/>
     <use x="2264.859375" xlink:href="#DejaVuSans-32"/>
     <use x="2296.646484" xlink:href="#DejaVuSans-111"/>
     <use x="2357.828125" xlink:href="#DejaVuSans-118"/>
     <use x="2417.007812" xlink:href="#DejaVuSans-101"/>
     <use x="2478.53125" xlink:href="#DejaVuSans-114"/>
     <use x="2519.644531" xlink:href="#DejaVuSans-32"/>
     <use x="2551.431641" xlink:href="#DejaVuSans-116"/>
     <use x="2590.640625" xlink:href="#DejaVuSans-104"/>
     <use x="2654.019531" xlink:href="#DejaVuSans-101"/>
     <use x="2715.542969" xlink:href="#DejaVuSans-32"/>
     <use x="2747.330078" xlink:href="#DejaVuSans-108"/>
     <use x="2775.113281" xlink:href="#DejaVuSans-97"/>
     <use x="2836.392578" xlink:href="#DejaVuSans-115"/>
     <use x="2888.492188" xlink:href="#DejaVuSans-116"/>
     <use x="2927.701172" xlink:href="#DejaVuSans-32"/>
     <use x="2959.488281" xlink:href="#DejaVuSans-115"/>
     <use x="3011.587891" xlink:href="#DejaVuSans-105"/>
     <use x="3039.371094" xlink:href="#DejaVuSans-120"/>
     <use x="3098.550781" xlink:href="#DejaVuSans-32"/>
     <use x="3130.337891" xlink:href="#DejaVuSans-109"/>
     <use x="3227.75" xlink:href="#DejaVuSans-111"/>
     <use x="3288.931641" xlink:href="#DejaVuSans-110"/>
     <use x="3352.310547" xlink:href="#DejaVuSans-116"/>
     <use x="3391.519531" xlink:href="#DejaVuSans-104"/>
     <use x="3454.898438" xlink:href="#DejaVuSans-115"/>
    </g>
   </g>
   <g id="legend_1">
    <g id="patch_7">
     <path d="M 64.6 302.584 
L 117.967187 302.584 
Q 119.967187 302.584 119.967187 300.584 
L 119.967187 272.22775 
Q 119.967187 270.22775 117.967187 270.22775 
L 64.6 270.22775 
Q 62.6 270.22775 62.6 272.22775 
L 62.6 300.584 
Q 62.6 302.584 64.6 302.584 
z
" style="fill:#ffffff;opacity:0.8;stroke:#cccccc;stroke-linejoin:miter;"/>
    </g>
    <g id="PathCollection_3">
     <g>
      <use style="fill:#0000ff;stroke:#000000;" x="76.6" xlink:href="#mdee65c3172" y="279.201187"/>
     </g>
    </g>
    <g id="text_15">
     <!-- USD -->
     <g transform="translate(94.6 281.826187)scale(0.1 -0.1)">
      <use xlink:href="#DejaVuSans-85"/>
      <use x="73.193359" xlink:href="#DejaVuSans-83"/>
      <use x="136.669922" xlink:href="#DejaVuSans-68"/>
     </g>
    </g>
    <g id="PathCollection_4">
     <g>
      <use style="fill:#ff0000;stroke:#000000;" x="76.6" xlink:href="#m3e5b0cf67e" y="293.879312"/>
     </g>
    </g>
    <g id="text_16">
     <!-- EUR -->
     <g transform="translate(94.6 296.504312)scale(0.1 -0.1)">
      <use xlink:href="#DejaVuSans-69"/>
      <use x="63.183594" xlink:href="#DejaVuSans-85"/>
      <use x="136.376953" xlink:href="#DejaVuSans-82"/>
     </g>
    </g>
   </g>
  </g>
 </g>
 <defs>
  <clipPath id="p16a953a8d0">
   <rect height="266.112" width="357.12" x="57.6" y="41.472"/>
  </clipPath>
 </defs>
</svg>
