<?xml version="1.0" encoding="utf-8" standalone="no"?>
<!DOCTYPE svg PUBLIC "-//W3C//DTD SVG 1.1//EN"
  "http://www.w3.org/Graphics/SVG/1.1/DTD/svg11.dtd">
<!-- Created with matplotlib (https://matplotlib.org/) -->
<svg height="432pt" version="1.1" viewBox="0 0 864 432" width="864pt" xmlns="http://www.w3.org/2000/svg" xmlns:xlink="http://www.w3.org/1999/xlink">
 <defs>
  <style type="text/css">
*{stroke-linecap:butt;stroke-linejoin:round;}
  </style>
 </defs>
 <g id="figure_1">
  <g id="patch_1">
   <path d="M 0 432 
L 864 432 
L 864 0 
L 0 0 
z
" style="fill:#ffffff;"/>
  </g>
  <g id="axes_1">
   <g id="patch_2">
    <path d="M 108 367.2 
L 777.6 367.2 
L 777.6 51.84 
L 108 51.84 
z
" style="fill:#eaeaf2;"/>
   </g>
   <g id="matplotlib.axis_1">
    <g id="xtick_1">
     <g id="line2d_1">
      <path clip-path="url(#p980095c03e)" d="M 138.436364 367.2 
L 138.436364 51.84 
" style="fill:none;stroke:#ffffff;stroke-linecap:round;"/>
     </g>
     <g id="text_1">
      <!-- 2014-01-02 -->
      <defs>
       <path d="M 50.34375 8.453125 
L 50.34375 0 
L 3.03125 0 
Q 2.9375 3.171875 4.046875 6.109375 
Q 5.859375 10.9375 9.828125 15.625 
Q 13.8125 20.3125 21.34375 26.46875 
Q 33.015625 36.03125 37.109375 41.625 
Q 41.21875 47.21875 41.21875 52.203125 
Q 41.21875 57.421875 37.46875 61 
Q 33.734375 64.59375 27.734375 64.59375 
Q 21.390625 64.59375 17.578125 60.78125 
Q 13.765625 56.984375 13.71875 50.25 
L 4.6875 51.171875 
Q 5.609375 61.28125 11.65625 66.578125 
Q 17.71875 71.875 27.9375 71.875 
Q 38.234375 71.875 44.234375 66.15625 
Q 50.25 60.453125 50.25 52 
Q 50.25 47.703125 48.484375 43.546875 
Q 46.734375 39.40625 42.65625 34.8125 
Q 38.578125 30.21875 29.109375 22.21875 
Q 21.1875 15.578125 18.9375 13.203125 
Q 16.703125 10.84375 15.234375 8.453125 
z
" id="ArialMT-50"/>
       <path d="M 4.15625 35.296875 
Q 4.15625 48 6.765625 55.734375 
Q 9.375 63.484375 14.515625 67.671875 
Q 19.671875 71.875 27.484375 71.875 
Q 33.25 71.875 37.59375 69.546875 
Q 41.9375 67.234375 44.765625 62.859375 
Q 47.609375 58.5 49.21875 52.21875 
Q 50.828125 45.953125 50.828125 35.296875 
Q 50.828125 22.703125 48.234375 14.96875 
Q 45.65625 7.234375 40.5 3 
Q 35.359375 -1.21875 27.484375 -1.21875 
Q 17.140625 -1.21875 11.234375 6.203125 
Q 4.15625 15.140625 4.15625 35.296875 
z
M 13.1875 35.296875 
Q 13.1875 17.671875 17.3125 11.828125 
Q 21.4375 6 27.484375 6 
Q 33.546875 6 37.671875 11.859375 
Q 41.796875 17.71875 41.796875 35.296875 
Q 41.796875 52.984375 37.671875 58.78125 
Q 33.546875 64.59375 27.390625 64.59375 
Q 21.34375 64.59375 17.71875 59.46875 
Q 13.1875 52.9375 13.1875 35.296875 
z
" id="ArialMT-48"/>
       <path d="M 37.25 0 
L 28.46875 0 
L 28.46875 56 
Q 25.296875 52.984375 20.140625 49.953125 
Q 14.984375 46.921875 10.890625 45.40625 
L 10.890625 53.90625 
Q 18.265625 57.375 23.78125 62.296875 
Q 29.296875 67.234375 31.59375 71.875 
L 37.25 71.875 
z
" id="ArialMT-49"/>
       <path d="M 32.328125 0 
L 32.328125 17.140625 
L 1.265625 17.140625 
L 1.265625 25.203125 
L 33.9375 71.578125 
L 41.109375 71.578125 
L 41.109375 25.203125 
L 50.78125 25.203125 
L 50.78125 17.140625 
L 41.109375 17.140625 
L 41.109375 0 
z
M 32.328125 25.203125 
L 32.328125 57.46875 
L 9.90625 25.203125 
z
" id="ArialMT-52"/>
       <path d="M 3.171875 21.484375 
L 3.171875 30.328125 
L 30.171875 30.328125 
L 30.171875 21.484375 
z
" id="ArialMT-45"/>
      </defs>
      <g style="fill:#262626;" transform="translate(114.143005 407.613063)rotate(-25)scale(0.11 -0.11)">
       <use xlink:href="#ArialMT-50"/>
       <use x="55.615234" xlink:href="#ArialMT-48"/>
       <use x="111.230469" xlink:href="#ArialMT-49"/>
       <use x="166.845703" xlink:href="#ArialMT-52"/>
       <use x="222.460938" xlink:href="#ArialMT-45"/>
       <use x="255.761719" xlink:href="#ArialMT-48"/>
       <use x="311.376953" xlink:href="#ArialMT-49"/>
       <use x="366.992188" xlink:href="#ArialMT-45"/>
       <use x="400.292969" xlink:href="#ArialMT-48"/>
       <use x="455.908203" xlink:href="#ArialMT-50"/>
      </g>
     </g>
    </g>
    <g id="xtick_2">
     <g id="line2d_2">
      <path clip-path="url(#p980095c03e)" d="M 173.651991 367.2 
L 173.651991 51.84 
" style="fill:none;stroke:#ffffff;stroke-linecap:round;"/>
     </g>
     <g id="text_2">
      <!-- 2014-01-23 -->
      <defs>
       <path d="M 4.203125 18.890625 
L 12.984375 20.0625 
Q 14.5 12.59375 18.140625 9.296875 
Q 21.78125 6 27 6 
Q 33.203125 6 37.46875 10.296875 
Q 41.75 14.59375 41.75 20.953125 
Q 41.75 27 37.796875 30.921875 
Q 33.84375 34.859375 27.734375 34.859375 
Q 25.25 34.859375 21.53125 33.890625 
L 22.515625 41.609375 
Q 23.390625 41.5 23.921875 41.5 
Q 29.546875 41.5 34.03125 44.421875 
Q 38.53125 47.359375 38.53125 53.46875 
Q 38.53125 58.296875 35.25 61.46875 
Q 31.984375 64.65625 26.8125 64.65625 
Q 21.6875 64.65625 18.265625 61.421875 
Q 14.84375 58.203125 13.875 51.765625 
L 5.078125 53.328125 
Q 6.6875 62.15625 12.390625 67.015625 
Q 18.109375 71.875 26.609375 71.875 
Q 32.46875 71.875 37.390625 69.359375 
Q 42.328125 66.84375 44.9375 62.5 
Q 47.5625 58.15625 47.5625 53.265625 
Q 47.5625 48.640625 45.0625 44.828125 
Q 42.578125 41.015625 37.703125 38.765625 
Q 44.046875 37.3125 47.5625 32.6875 
Q 51.078125 28.078125 51.078125 21.140625 
Q 51.078125 11.765625 44.234375 5.25 
Q 37.40625 -1.265625 26.953125 -1.265625 
Q 17.53125 -1.265625 11.296875 4.34375 
Q 5.078125 9.96875 4.203125 18.890625 
z
" id="ArialMT-51"/>
      </defs>
      <g style="fill:#262626;" transform="translate(149.358633 407.613063)rotate(-25)scale(0.11 -0.11)">
       <use xlink:href="#ArialMT-50"/>
       <use x="55.615234" xlink:href="#ArialMT-48"/>
       <use x="111.230469" xlink:href="#ArialMT-49"/>
       <use x="166.845703" xlink:href="#ArialMT-52"/>
       <use x="222.460938" xlink:href="#ArialMT-45"/>
       <use x="255.761719" xlink:href="#ArialMT-48"/>
       <use x="311.376953" xlink:href="#ArialMT-49"/>
       <use x="366.992188" xlink:href="#ArialMT-45"/>
       <use x="400.292969" xlink:href="#ArialMT-50"/>
       <use x="455.908203" xlink:href="#ArialMT-51"/>
      </g>
     </g>
    </g>
    <g id="xtick_3">
     <g id="line2d_3">
      <path clip-path="url(#p980095c03e)" d="M 208.867618 367.2 
L 208.867618 51.84 
" style="fill:none;stroke:#ffffff;stroke-linecap:round;"/>
     </g>
     <g id="text_3">
      <!-- 2014-02-13 -->
      <g style="fill:#262626;" transform="translate(184.57426 407.613063)rotate(-25)scale(0.11 -0.11)">
       <use xlink:href="#ArialMT-50"/>
       <use x="55.615234" xlink:href="#ArialMT-48"/>
       <use x="111.230469" xlink:href="#ArialMT-49"/>
       <use x="166.845703" xlink:href="#ArialMT-52"/>
       <use x="222.460938" xlink:href="#ArialMT-45"/>
       <use x="255.761719" xlink:href="#ArialMT-48"/>
       <use x="311.376953" xlink:href="#ArialMT-50"/>
       <use x="366.992188" xlink:href="#ArialMT-45"/>
       <use x="400.292969" xlink:href="#ArialMT-49"/>
       <use x="455.908203" xlink:href="#ArialMT-51"/>
      </g>
     </g>
    </g>
    <g id="xtick_4">
     <g id="line2d_4">
      <path clip-path="url(#p980095c03e)" d="M 244.083246 367.2 
L 244.083246 51.84 
" style="fill:none;stroke:#ffffff;stroke-linecap:round;"/>
     </g>
     <g id="text_4">
      <!-- 2014-03-06 -->
      <defs>
       <path d="M 49.75 54.046875 
L 41.015625 53.375 
Q 39.84375 58.546875 37.703125 60.890625 
Q 34.125 64.65625 28.90625 64.65625 
Q 24.703125 64.65625 21.53125 62.3125 
Q 17.390625 59.28125 14.984375 53.46875 
Q 12.59375 47.65625 12.5 36.921875 
Q 15.671875 41.75 20.265625 44.09375 
Q 24.859375 46.4375 29.890625 46.4375 
Q 38.671875 46.4375 44.84375 39.96875 
Q 51.03125 33.5 51.03125 23.25 
Q 51.03125 16.5 48.125 10.71875 
Q 45.21875 4.9375 40.140625 1.859375 
Q 35.0625 -1.21875 28.609375 -1.21875 
Q 17.625 -1.21875 10.6875 6.859375 
Q 3.765625 14.9375 3.765625 33.5 
Q 3.765625 54.25 11.421875 63.671875 
Q 18.109375 71.875 29.4375 71.875 
Q 37.890625 71.875 43.28125 67.140625 
Q 48.6875 62.40625 49.75 54.046875 
z
M 13.875 23.1875 
Q 13.875 18.65625 15.796875 14.5 
Q 17.71875 10.359375 21.1875 8.171875 
Q 24.65625 6 28.46875 6 
Q 34.03125 6 38.03125 10.484375 
Q 42.046875 14.984375 42.046875 22.703125 
Q 42.046875 30.125 38.078125 34.390625 
Q 34.125 38.671875 28.125 38.671875 
Q 22.171875 38.671875 18.015625 34.390625 
Q 13.875 30.125 13.875 23.1875 
z
" id="ArialMT-54"/>
      </defs>
      <g style="fill:#262626;" transform="translate(219.789887 407.613063)rotate(-25)scale(0.11 -0.11)">
       <use xlink:href="#ArialMT-50"/>
       <use x="55.615234" xlink:href="#ArialMT-48"/>
       <use x="111.230469" xlink:href="#ArialMT-49"/>
       <use x="166.845703" xlink:href="#ArialMT-52"/>
       <use x="222.460938" xlink:href="#ArialMT-45"/>
       <use x="255.761719" xlink:href="#ArialMT-48"/>
       <use x="311.376953" xlink:href="#ArialMT-51"/>
       <use x="366.992188" xlink:href="#ArialMT-45"/>
       <use x="400.292969" xlink:href="#ArialMT-48"/>
       <use x="455.908203" xlink:href="#ArialMT-54"/>
      </g>
     </g>
    </g>
    <g id="xtick_5">
     <g id="line2d_5">
      <path clip-path="url(#p980095c03e)" d="M 279.298873 367.2 
L 279.298873 51.84 
" style="fill:none;stroke:#ffffff;stroke-linecap:round;"/>
     </g>
     <g id="text_5">
      <!-- 2014-03-27 -->
      <defs>
       <path d="M 4.734375 62.203125 
L 4.734375 70.65625 
L 51.078125 70.65625 
L 51.078125 63.8125 
Q 44.234375 56.546875 37.515625 44.484375 
Q 30.8125 32.421875 27.15625 19.671875 
Q 24.515625 10.6875 23.78125 0 
L 14.75 0 
Q 14.890625 8.453125 18.0625 20.40625 
Q 21.234375 32.375 27.171875 43.484375 
Q 33.109375 54.59375 39.796875 62.203125 
z
" id="ArialMT-55"/>
      </defs>
      <g style="fill:#262626;" transform="translate(255.005515 407.613063)rotate(-25)scale(0.11 -0.11)">
       <use xlink:href="#ArialMT-50"/>
       <use x="55.615234" xlink:href="#ArialMT-48"/>
       <use x="111.230469" xlink:href="#ArialMT-49"/>
       <use x="166.845703" xlink:href="#ArialMT-52"/>
       <use x="222.460938" xlink:href="#ArialMT-45"/>
       <use x="255.761719" xlink:href="#ArialMT-48"/>
       <use x="311.376953" xlink:href="#ArialMT-51"/>
       <use x="366.992188" xlink:href="#ArialMT-45"/>
       <use x="400.292969" xlink:href="#ArialMT-50"/>
       <use x="455.908203" xlink:href="#ArialMT-55"/>
      </g>
     </g>
    </g>
    <g id="xtick_6">
     <g id="line2d_6">
      <path clip-path="url(#p980095c03e)" d="M 316.191435 367.2 
L 316.191435 51.84 
" style="fill:none;stroke:#ffffff;stroke-linecap:round;"/>
     </g>
     <g id="text_6">
      <!-- 2014-04-18 -->
      <defs>
       <path d="M 17.671875 38.8125 
Q 12.203125 40.828125 9.5625 44.53125 
Q 6.9375 48.25 6.9375 53.421875 
Q 6.9375 61.234375 12.546875 66.546875 
Q 18.171875 71.875 27.484375 71.875 
Q 36.859375 71.875 42.578125 66.421875 
Q 48.296875 60.984375 48.296875 53.171875 
Q 48.296875 48.1875 45.671875 44.5 
Q 43.0625 40.828125 37.75 38.8125 
Q 44.34375 36.671875 47.78125 31.875 
Q 51.21875 27.09375 51.21875 20.453125 
Q 51.21875 11.28125 44.71875 5.03125 
Q 38.234375 -1.21875 27.640625 -1.21875 
Q 17.046875 -1.21875 10.546875 5.046875 
Q 4.046875 11.328125 4.046875 20.703125 
Q 4.046875 27.6875 7.59375 32.390625 
Q 11.140625 37.109375 17.671875 38.8125 
z
M 15.921875 53.71875 
Q 15.921875 48.640625 19.1875 45.40625 
Q 22.46875 42.1875 27.6875 42.1875 
Q 32.765625 42.1875 36.015625 45.375 
Q 39.265625 48.578125 39.265625 53.21875 
Q 39.265625 58.0625 35.90625 61.359375 
Q 32.5625 64.65625 27.59375 64.65625 
Q 22.5625 64.65625 19.234375 61.421875 
Q 15.921875 58.203125 15.921875 53.71875 
z
M 13.09375 20.65625 
Q 13.09375 16.890625 14.875 13.375 
Q 16.65625 9.859375 20.171875 7.921875 
Q 23.6875 6 27.734375 6 
Q 34.03125 6 38.125 10.046875 
Q 42.234375 14.109375 42.234375 20.359375 
Q 42.234375 26.703125 38.015625 30.859375 
Q 33.796875 35.015625 27.4375 35.015625 
Q 21.234375 35.015625 17.15625 30.90625 
Q 13.09375 26.8125 13.09375 20.65625 
z
" id="ArialMT-56"/>
      </defs>
      <g style="fill:#262626;" transform="translate(291.898077 407.613063)rotate(-25)scale(0.11 -0.11)">
       <use xlink:href="#ArialMT-50"/>
       <use x="55.615234" xlink:href="#ArialMT-48"/>
       <use x="111.230469" xlink:href="#ArialMT-49"/>
       <use x="166.845703" xlink:href="#ArialMT-52"/>
       <use x="222.460938" xlink:href="#ArialMT-45"/>
       <use x="255.761719" xlink:href="#ArialMT-48"/>
       <use x="311.376953" xlink:href="#ArialMT-52"/>
       <use x="366.992188" xlink:href="#ArialMT-45"/>
       <use x="400.292969" xlink:href="#ArialMT-49"/>
       <use x="455.908203" xlink:href="#ArialMT-56"/>
      </g>
     </g>
    </g>
    <g id="xtick_7">
     <g id="line2d_7">
      <path clip-path="url(#p980095c03e)" d="M 356.437866 367.2 
L 356.437866 51.84 
" style="fill:none;stroke:#ffffff;stroke-linecap:round;"/>
     </g>
     <g id="text_7">
      <!-- 2014-05-12 -->
      <defs>
       <path d="M 4.15625 18.75 
L 13.375 19.53125 
Q 14.40625 12.796875 18.140625 9.390625 
Q 21.875 6 27.15625 6 
Q 33.5 6 37.890625 10.78125 
Q 42.28125 15.578125 42.28125 23.484375 
Q 42.28125 31 38.0625 35.34375 
Q 33.84375 39.703125 27 39.703125 
Q 22.75 39.703125 19.328125 37.765625 
Q 15.921875 35.84375 13.96875 32.765625 
L 5.71875 33.84375 
L 12.640625 70.609375 
L 48.25 70.609375 
L 48.25 62.203125 
L 19.671875 62.203125 
L 15.828125 42.96875 
Q 22.265625 47.46875 29.34375 47.46875 
Q 38.71875 47.46875 45.15625 40.96875 
Q 51.609375 34.46875 51.609375 24.265625 
Q 51.609375 14.546875 45.953125 7.46875 
Q 39.0625 -1.21875 27.15625 -1.21875 
Q 17.390625 -1.21875 11.203125 4.25 
Q 5.03125 9.71875 4.15625 18.75 
z
" id="ArialMT-53"/>
      </defs>
      <g style="fill:#262626;" transform="translate(332.144508 407.613063)rotate(-25)scale(0.11 -0.11)">
       <use xlink:href="#ArialMT-50"/>
       <use x="55.615234" xlink:href="#ArialMT-48"/>
       <use x="111.230469" xlink:href="#ArialMT-49"/>
       <use x="166.845703" xlink:href="#ArialMT-52"/>
       <use x="222.460938" xlink:href="#ArialMT-45"/>
       <use x="255.761719" xlink:href="#ArialMT-48"/>
       <use x="311.376953" xlink:href="#ArialMT-53"/>
       <use x="366.992188" xlink:href="#ArialMT-45"/>
       <use x="400.292969" xlink:href="#ArialMT-49"/>
       <use x="455.908203" xlink:href="#ArialMT-50"/>
      </g>
     </g>
    </g>
    <g id="xtick_8">
     <g id="line2d_8">
      <path clip-path="url(#p980095c03e)" d="M 393.330428 367.2 
L 393.330428 51.84 
" style="fill:none;stroke:#ffffff;stroke-linecap:round;"/>
     </g>
     <g id="text_8">
      <!-- 2014-06-03 -->
      <g style="fill:#262626;" transform="translate(369.03707 407.613063)rotate(-25)scale(0.11 -0.11)">
       <use xlink:href="#ArialMT-50"/>
       <use x="55.615234" xlink:href="#ArialMT-48"/>
       <use x="111.230469" xlink:href="#ArialMT-49"/>
       <use x="166.845703" xlink:href="#ArialMT-52"/>
       <use x="222.460938" xlink:href="#ArialMT-45"/>
       <use x="255.761719" xlink:href="#ArialMT-48"/>
       <use x="311.376953" xlink:href="#ArialMT-54"/>
       <use x="366.992188" xlink:href="#ArialMT-45"/>
       <use x="400.292969" xlink:href="#ArialMT-48"/>
       <use x="455.908203" xlink:href="#ArialMT-51"/>
      </g>
     </g>
    </g>
    <g id="xtick_9">
     <g id="line2d_9">
      <path clip-path="url(#p980095c03e)" d="M 428.546056 367.2 
L 428.546056 51.84 
" style="fill:none;stroke:#ffffff;stroke-linecap:round;"/>
     </g>
     <g id="text_9">
      <!-- 2014-06-24 -->
      <g style="fill:#262626;" transform="translate(404.252697 407.613063)rotate(-25)scale(0.11 -0.11)">
       <use xlink:href="#ArialMT-50"/>
       <use x="55.615234" xlink:href="#ArialMT-48"/>
       <use x="111.230469" xlink:href="#ArialMT-49"/>
       <use x="166.845703" xlink:href="#ArialMT-52"/>
       <use x="222.460938" xlink:href="#ArialMT-45"/>
       <use x="255.761719" xlink:href="#ArialMT-48"/>
       <use x="311.376953" xlink:href="#ArialMT-54"/>
       <use x="366.992188" xlink:href="#ArialMT-45"/>
       <use x="400.292969" xlink:href="#ArialMT-50"/>
       <use x="455.908203" xlink:href="#ArialMT-52"/>
      </g>
     </g>
    </g>
    <g id="xtick_10">
     <g id="line2d_10">
      <path clip-path="url(#p980095c03e)" d="M 462.084748 367.2 
L 462.084748 51.84 
" style="fill:none;stroke:#ffffff;stroke-linecap:round;"/>
     </g>
     <g id="text_10">
      <!-- 2014-07-14 -->
      <g style="fill:#262626;" transform="translate(437.79139 407.613063)rotate(-25)scale(0.11 -0.11)">
       <use xlink:href="#ArialMT-50"/>
       <use x="55.615234" xlink:href="#ArialMT-48"/>
       <use x="111.230469" xlink:href="#ArialMT-49"/>
       <use x="166.845703" xlink:href="#ArialMT-52"/>
       <use x="222.460938" xlink:href="#ArialMT-45"/>
       <use x="255.761719" xlink:href="#ArialMT-48"/>
       <use x="311.376953" xlink:href="#ArialMT-55"/>
       <use x="366.992188" xlink:href="#ArialMT-45"/>
       <use x="400.292969" xlink:href="#ArialMT-49"/>
       <use x="455.908203" xlink:href="#ArialMT-52"/>
      </g>
     </g>
    </g>
    <g id="xtick_11">
     <g id="line2d_11">
      <path clip-path="url(#p980095c03e)" d="M 497.300376 367.2 
L 497.300376 51.84 
" style="fill:none;stroke:#ffffff;stroke-linecap:round;"/>
     </g>
     <g id="text_11">
      <!-- 2014-08-04 -->
      <g style="fill:#262626;" transform="translate(473.007017 407.613063)rotate(-25)scale(0.11 -0.11)">
       <use xlink:href="#ArialMT-50"/>
       <use x="55.615234" xlink:href="#ArialMT-48"/>
       <use x="111.230469" xlink:href="#ArialMT-49"/>
       <use x="166.845703" xlink:href="#ArialMT-52"/>
       <use x="222.460938" xlink:href="#ArialMT-45"/>
       <use x="255.761719" xlink:href="#ArialMT-48"/>
       <use x="311.376953" xlink:href="#ArialMT-56"/>
       <use x="366.992188" xlink:href="#ArialMT-45"/>
       <use x="400.292969" xlink:href="#ArialMT-48"/>
       <use x="455.908203" xlink:href="#ArialMT-52"/>
      </g>
     </g>
    </g>
    <g id="xtick_12">
     <g id="line2d_12">
      <path clip-path="url(#p980095c03e)" d="M 535.869872 367.2 
L 535.869872 51.84 
" style="fill:none;stroke:#ffffff;stroke-linecap:round;"/>
     </g>
     <g id="text_12">
      <!-- 2014-08-27 -->
      <g style="fill:#262626;" transform="translate(511.576514 407.613063)rotate(-25)scale(0.11 -0.11)">
       <use xlink:href="#ArialMT-50"/>
       <use x="55.615234" xlink:href="#ArialMT-48"/>
       <use x="111.230469" xlink:href="#ArialMT-49"/>
       <use x="166.845703" xlink:href="#ArialMT-52"/>
       <use x="222.460938" xlink:href="#ArialMT-45"/>
       <use x="255.761719" xlink:href="#ArialMT-48"/>
       <use x="311.376953" xlink:href="#ArialMT-56"/>
       <use x="366.992188" xlink:href="#ArialMT-45"/>
       <use x="400.292969" xlink:href="#ArialMT-50"/>
       <use x="455.908203" xlink:href="#ArialMT-55"/>
      </g>
     </g>
    </g>
    <g id="xtick_13">
     <g id="line2d_13">
      <path clip-path="url(#p980095c03e)" d="M 572.762434 367.2 
L 572.762434 51.84 
" style="fill:none;stroke:#ffffff;stroke-linecap:round;"/>
     </g>
     <g id="text_13">
      <!-- 2014-09-18 -->
      <defs>
       <path d="M 5.46875 16.546875 
L 13.921875 17.328125 
Q 14.984375 11.375 18.015625 8.6875 
Q 21.046875 6 25.78125 6 
Q 29.828125 6 32.875 7.859375 
Q 35.9375 9.71875 37.890625 12.8125 
Q 39.84375 15.921875 41.15625 21.1875 
Q 42.484375 26.46875 42.484375 31.9375 
Q 42.484375 32.515625 42.4375 33.6875 
Q 39.796875 29.5 35.234375 26.875 
Q 30.671875 24.265625 25.34375 24.265625 
Q 16.453125 24.265625 10.296875 30.703125 
Q 4.15625 37.15625 4.15625 47.703125 
Q 4.15625 58.59375 10.578125 65.234375 
Q 17 71.875 26.65625 71.875 
Q 33.640625 71.875 39.421875 68.109375 
Q 45.21875 64.359375 48.21875 57.390625 
Q 51.21875 50.4375 51.21875 37.25 
Q 51.21875 23.53125 48.234375 15.40625 
Q 45.265625 7.28125 39.375 3.03125 
Q 33.5 -1.21875 25.59375 -1.21875 
Q 17.1875 -1.21875 11.859375 3.4375 
Q 6.546875 8.109375 5.46875 16.546875 
z
M 41.453125 48.140625 
Q 41.453125 55.71875 37.421875 60.15625 
Q 33.40625 64.59375 27.734375 64.59375 
Q 21.875 64.59375 17.53125 59.8125 
Q 13.1875 55.03125 13.1875 47.40625 
Q 13.1875 40.578125 17.3125 36.296875 
Q 21.4375 32.03125 27.484375 32.03125 
Q 33.59375 32.03125 37.515625 36.296875 
Q 41.453125 40.578125 41.453125 48.140625 
z
" id="ArialMT-57"/>
      </defs>
      <g style="fill:#262626;" transform="translate(548.469076 407.613063)rotate(-25)scale(0.11 -0.11)">
       <use xlink:href="#ArialMT-50"/>
       <use x="55.615234" xlink:href="#ArialMT-48"/>
       <use x="111.230469" xlink:href="#ArialMT-49"/>
       <use x="166.845703" xlink:href="#ArialMT-52"/>
       <use x="222.460938" xlink:href="#ArialMT-45"/>
       <use x="255.761719" xlink:href="#ArialMT-48"/>
       <use x="311.376953" xlink:href="#ArialMT-57"/>
       <use x="366.992188" xlink:href="#ArialMT-45"/>
       <use x="400.292969" xlink:href="#ArialMT-49"/>
       <use x="455.908203" xlink:href="#ArialMT-56"/>
      </g>
     </g>
    </g>
    <g id="xtick_14">
     <g id="line2d_14">
      <path clip-path="url(#p980095c03e)" d="M 607.978062 367.2 
L 607.978062 51.84 
" style="fill:none;stroke:#ffffff;stroke-linecap:round;"/>
     </g>
     <g id="text_14">
      <!-- 2014-10-09 -->
      <g style="fill:#262626;" transform="translate(583.684703 407.613063)rotate(-25)scale(0.11 -0.11)">
       <use xlink:href="#ArialMT-50"/>
       <use x="55.615234" xlink:href="#ArialMT-48"/>
       <use x="111.230469" xlink:href="#ArialMT-49"/>
       <use x="166.845703" xlink:href="#ArialMT-52"/>
       <use x="222.460938" xlink:href="#ArialMT-45"/>
       <use x="255.761719" xlink:href="#ArialMT-49"/>
       <use x="311.376953" xlink:href="#ArialMT-48"/>
       <use x="366.992188" xlink:href="#ArialMT-45"/>
       <use x="400.292969" xlink:href="#ArialMT-48"/>
       <use x="455.908203" xlink:href="#ArialMT-57"/>
      </g>
     </g>
    </g>
    <g id="xtick_15">
     <g id="line2d_15">
      <path clip-path="url(#p980095c03e)" d="M 649.901427 367.2 
L 649.901427 51.84 
" style="fill:none;stroke:#ffffff;stroke-linecap:round;"/>
     </g>
     <g id="text_15">
      <!-- 2014-11-03 -->
      <g style="fill:#262626;" transform="translate(625.613521 407.607978)rotate(-25)scale(0.11 -0.11)">
       <use xlink:href="#ArialMT-50"/>
       <use x="55.615234" xlink:href="#ArialMT-48"/>
       <use x="111.230469" xlink:href="#ArialMT-49"/>
       <use x="166.845703" xlink:href="#ArialMT-52"/>
       <use x="222.460938" xlink:href="#ArialMT-45"/>
       <use x="255.761719" xlink:href="#ArialMT-49"/>
       <use x="311.267578" xlink:href="#ArialMT-49"/>
       <use x="366.882812" xlink:href="#ArialMT-45"/>
       <use x="400.183594" xlink:href="#ArialMT-48"/>
       <use x="455.798828" xlink:href="#ArialMT-51"/>
      </g>
     </g>
    </g>
    <g id="xtick_16">
     <g id="line2d_16">
      <path clip-path="url(#p980095c03e)" d="M 688.470924 367.2 
L 688.470924 51.84 
" style="fill:none;stroke:#ffffff;stroke-linecap:round;"/>
     </g>
     <g id="text_16">
      <!-- 2014-11-26 -->
      <g style="fill:#262626;" transform="translate(664.183018 407.607978)rotate(-25)scale(0.11 -0.11)">
       <use xlink:href="#ArialMT-50"/>
       <use x="55.615234" xlink:href="#ArialMT-48"/>
       <use x="111.230469" xlink:href="#ArialMT-49"/>
       <use x="166.845703" xlink:href="#ArialMT-52"/>
       <use x="222.460938" xlink:href="#ArialMT-45"/>
       <use x="255.761719" xlink:href="#ArialMT-49"/>
       <use x="311.267578" xlink:href="#ArialMT-49"/>
       <use x="366.882812" xlink:href="#ArialMT-45"/>
       <use x="400.183594" xlink:href="#ArialMT-50"/>
       <use x="455.798828" xlink:href="#ArialMT-54"/>
      </g>
     </g>
    </g>
    <g id="xtick_17">
     <g id="line2d_17">
      <path clip-path="url(#p980095c03e)" d="M 723.686551 367.2 
L 723.686551 51.84 
" style="fill:none;stroke:#ffffff;stroke-linecap:round;"/>
     </g>
     <g id="text_17">
      <!-- 2014-12-17 -->
      <g style="fill:#262626;" transform="translate(699.393193 407.613063)rotate(-25)scale(0.11 -0.11)">
       <use xlink:href="#ArialMT-50"/>
       <use x="55.615234" xlink:href="#ArialMT-48"/>
       <use x="111.230469" xlink:href="#ArialMT-49"/>
       <use x="166.845703" xlink:href="#ArialMT-52"/>
       <use x="222.460938" xlink:href="#ArialMT-45"/>
       <use x="255.761719" xlink:href="#ArialMT-49"/>
       <use x="311.376953" xlink:href="#ArialMT-50"/>
       <use x="366.992188" xlink:href="#ArialMT-45"/>
       <use x="400.292969" xlink:href="#ArialMT-49"/>
       <use x="455.908203" xlink:href="#ArialMT-55"/>
      </g>
     </g>
    </g>
    <g id="text_18">
     <!-- Data -->
     <defs>
      <path d="M 7.71875 0 
L 7.71875 71.578125 
L 32.375 71.578125 
Q 40.71875 71.578125 45.125 70.5625 
Q 51.265625 69.140625 55.609375 65.4375 
Q 61.28125 60.640625 64.078125 53.1875 
Q 66.890625 45.75 66.890625 36.1875 
Q 66.890625 28.03125 64.984375 21.734375 
Q 63.09375 15.4375 60.109375 11.296875 
Q 57.125 7.171875 53.578125 4.796875 
Q 50.046875 2.4375 45.046875 1.21875 
Q 40.046875 0 33.546875 0 
z
M 17.1875 8.453125 
L 32.46875 8.453125 
Q 39.546875 8.453125 43.578125 9.765625 
Q 47.609375 11.078125 50 13.484375 
Q 53.375 16.84375 55.25 22.53125 
Q 57.125 28.21875 57.125 36.328125 
Q 57.125 47.5625 53.4375 53.59375 
Q 49.75 59.625 44.484375 61.671875 
Q 40.671875 63.140625 32.234375 63.140625 
L 17.1875 63.140625 
z
" id="ArialMT-68"/>
      <path d="M 40.4375 6.390625 
Q 35.546875 2.25 31.03125 0.53125 
Q 26.515625 -1.171875 21.34375 -1.171875 
Q 12.796875 -1.171875 8.203125 3 
Q 3.609375 7.171875 3.609375 13.671875 
Q 3.609375 17.484375 5.34375 20.625 
Q 7.078125 23.78125 9.890625 25.6875 
Q 12.703125 27.59375 16.21875 28.5625 
Q 18.796875 29.25 24.03125 29.890625 
Q 34.671875 31.15625 39.703125 32.90625 
Q 39.75 34.71875 39.75 35.203125 
Q 39.75 40.578125 37.25 42.78125 
Q 33.890625 45.75 27.25 45.75 
Q 21.046875 45.75 18.09375 43.578125 
Q 15.140625 41.40625 13.71875 35.890625 
L 5.125 37.0625 
Q 6.296875 42.578125 8.984375 45.96875 
Q 11.671875 49.359375 16.75 51.1875 
Q 21.828125 53.03125 28.515625 53.03125 
Q 35.15625 53.03125 39.296875 51.46875 
Q 43.453125 49.90625 45.40625 47.53125 
Q 47.359375 45.171875 48.140625 41.546875 
Q 48.578125 39.3125 48.578125 33.453125 
L 48.578125 21.734375 
Q 48.578125 9.46875 49.140625 6.21875 
Q 49.703125 2.984375 51.375 0 
L 42.1875 0 
Q 40.828125 2.734375 40.4375 6.390625 
z
M 39.703125 26.03125 
Q 34.90625 24.078125 25.34375 22.703125 
Q 19.921875 21.921875 17.671875 20.9375 
Q 15.4375 19.96875 14.203125 18.09375 
Q 12.984375 16.21875 12.984375 13.921875 
Q 12.984375 10.40625 15.640625 8.0625 
Q 18.3125 5.71875 23.4375 5.71875 
Q 28.515625 5.71875 32.46875 7.9375 
Q 36.421875 10.15625 38.28125 14.015625 
Q 39.703125 17 39.703125 22.796875 
z
" id="ArialMT-97"/>
      <path d="M 25.78125 7.859375 
L 27.046875 0.09375 
Q 23.34375 -0.6875 20.40625 -0.6875 
Q 15.625 -0.6875 12.984375 0.828125 
Q 10.359375 2.34375 9.28125 4.8125 
Q 8.203125 7.28125 8.203125 15.1875 
L 8.203125 45.015625 
L 1.765625 45.015625 
L 1.765625 51.859375 
L 8.203125 51.859375 
L 8.203125 64.703125 
L 16.9375 69.96875 
L 16.9375 51.859375 
L 25.78125 51.859375 
L 25.78125 45.015625 
L 16.9375 45.015625 
L 16.9375 14.703125 
Q 16.9375 10.9375 17.40625 9.859375 
Q 17.875 8.796875 18.921875 8.15625 
Q 19.96875 7.515625 21.921875 7.515625 
Q 23.390625 7.515625 25.78125 7.859375 
z
" id="ArialMT-116"/>
     </defs>
     <g style="fill:#262626;" transform="translate(430.126875 422.183853)scale(0.12 -0.12)">
      <use xlink:href="#ArialMT-68"/>
      <use x="72.216797" xlink:href="#ArialMT-97"/>
      <use x="127.832031" xlink:href="#ArialMT-116"/>
      <use x="155.615234" xlink:href="#ArialMT-97"/>
     </g>
    </g>
   </g>
   <g id="matplotlib.axis_2">
    <g id="ytick_1">
     <g id="line2d_18">
      <path clip-path="url(#p980095c03e)" d="M 108 352.973397 
L 777.6 352.973397 
" style="fill:none;stroke:#ffffff;stroke-linecap:round;"/>
     </g>
     <g id="text_19">
      <!-- 0 -->
      <g style="fill:#262626;" transform="translate(92.382969 356.910194)scale(0.11 -0.11)">
       <use xlink:href="#ArialMT-48"/>
      </g>
     </g>
    </g>
    <g id="ytick_2">
     <g id="line2d_19">
      <path clip-path="url(#p980095c03e)" d="M 108 284.481841 
L 777.6 284.481841 
" style="fill:none;stroke:#ffffff;stroke-linecap:round;"/>
     </g>
     <g id="text_20">
      <!-- 5000 -->
      <g style="fill:#262626;" transform="translate(74.031875 288.418638)scale(0.11 -0.11)">
       <use xlink:href="#ArialMT-53"/>
       <use x="55.615234" xlink:href="#ArialMT-48"/>
       <use x="111.230469" xlink:href="#ArialMT-48"/>
       <use x="166.845703" xlink:href="#ArialMT-48"/>
      </g>
     </g>
    </g>
    <g id="ytick_3">
     <g id="line2d_20">
      <path clip-path="url(#p980095c03e)" d="M 108 215.990285 
L 777.6 215.990285 
" style="fill:none;stroke:#ffffff;stroke-linecap:round;"/>
     </g>
     <g id="text_21">
      <!-- 10000 -->
      <g style="fill:#262626;" transform="translate(67.914844 219.927082)scale(0.11 -0.11)">
       <use xlink:href="#ArialMT-49"/>
       <use x="55.615234" xlink:href="#ArialMT-48"/>
       <use x="111.230469" xlink:href="#ArialMT-48"/>
       <use x="166.845703" xlink:href="#ArialMT-48"/>
       <use x="222.460938" xlink:href="#ArialMT-48"/>
      </g>
     </g>
    </g>
    <g id="ytick_4">
     <g id="line2d_21">
      <path clip-path="url(#p980095c03e)" d="M 108 147.498728 
L 777.6 147.498728 
" style="fill:none;stroke:#ffffff;stroke-linecap:round;"/>
     </g>
     <g id="text_22">
      <!-- 15000 -->
      <g style="fill:#262626;" transform="translate(67.914844 151.435525)scale(0.11 -0.11)">
       <use xlink:href="#ArialMT-49"/>
       <use x="55.615234" xlink:href="#ArialMT-53"/>
       <use x="111.230469" xlink:href="#ArialMT-48"/>
       <use x="166.845703" xlink:href="#ArialMT-48"/>
       <use x="222.460938" xlink:href="#ArialMT-48"/>
      </g>
     </g>
    </g>
    <g id="ytick_5">
     <g id="line2d_22">
      <path clip-path="url(#p980095c03e)" d="M 108 79.007172 
L 777.6 79.007172 
" style="fill:none;stroke:#ffffff;stroke-linecap:round;"/>
     </g>
     <g id="text_23">
      <!-- 20000 -->
      <g style="fill:#262626;" transform="translate(67.914844 82.943969)scale(0.11 -0.11)">
       <use xlink:href="#ArialMT-50"/>
       <use x="55.615234" xlink:href="#ArialMT-48"/>
       <use x="111.230469" xlink:href="#ArialMT-48"/>
       <use x="166.845703" xlink:href="#ArialMT-48"/>
       <use x="222.460938" xlink:href="#ArialMT-48"/>
      </g>
     </g>
    </g>
    <g id="text_24">
     <!-- Łączna wartość transakcji -->
     <defs>
      <path d="M 7.078125 27.59375 
L 0 21.578125 
L 0 29.734375 
L 7.078125 35.796875 
L 7.078125 71.578125 
L 16.546875 71.578125 
L 16.546875 43.84375 
L 32.765625 57.5625 
L 32.765625 49.421875 
L 16.546875 35.6875 
L 16.546875 8.453125 
L 52.09375 8.453125 
L 52.09375 0 
L 7.078125 0 
z
" id="ArialMT-321"/>
      <path d="M 40.4375 6.390625 
Q 35.546875 2.25 31.03125 0.53125 
Q 26.515625 -1.171875 21.34375 -1.171875 
Q 12.796875 -1.171875 8.203125 3 
Q 3.609375 7.171875 3.609375 13.671875 
Q 3.609375 17.484375 5.34375 20.625 
Q 7.078125 23.78125 9.890625 25.6875 
Q 12.703125 27.59375 16.21875 28.5625 
Q 18.796875 29.25 24.03125 29.890625 
Q 34.671875 31.15625 39.703125 32.90625 
Q 39.75 34.71875 39.75 35.203125 
Q 39.75 40.578125 37.25 42.78125 
Q 33.890625 45.75 27.25 45.75 
Q 21.046875 45.75 18.09375 43.578125 
Q 15.140625 41.40625 13.71875 35.890625 
L 5.125 37.0625 
Q 6.296875 42.578125 8.984375 45.96875 
Q 11.671875 49.359375 16.75 51.1875 
Q 21.828125 53.03125 28.515625 53.03125 
Q 35.15625 53.03125 39.296875 51.46875 
Q 43.453125 49.90625 45.40625 47.53125 
Q 47.359375 45.171875 48.140625 41.546875 
Q 48.578125 39.3125 48.578125 33.453125 
L 48.578125 21.734375 
Q 48.578125 9.46875 49.140625 6.21875 
Q 49.703125 2.984375 51.375 0 
L 42.1875 0 
Q 40.828125 2.734375 40.4375 6.390625 
z
M 39.703125 26.03125 
Q 34.90625 24.078125 25.34375 22.703125 
Q 19.921875 21.921875 17.671875 20.9375 
Q 15.4375 19.96875 14.203125 18.09375 
Q 12.984375 16.21875 12.984375 13.921875 
Q 12.984375 10.40625 15.640625 8.0625 
Q 18.3125 5.71875 23.4375 5.71875 
Q 28.515625 5.71875 32.46875 7.9375 
Q 36.421875 10.15625 38.28125 14.015625 
Q 39.703125 17 39.703125 22.796875 
z
M 49.5625 0 
Q 46.78125 -1.703125 45.234375 -4.21875 
Q 43.703125 -6.734375 43.703125 -9.328125 
Q 43.703125 -11.375 44.828125 -12.78125 
Q 45.953125 -14.203125 48.484375 -14.203125 
Q 49.609375 -14.203125 50.78125 -13.890625 
Q 51.953125 -13.578125 52.9375 -13.03125 
L 52.9375 -19.28125 
Q 49.359375 -21 46.296875 -21 
Q 43.796875 -21 41.9375 -20.28125 
Q 40.09375 -19.578125 38.84375 -18.328125 
Q 37.59375 -17.09375 36.984375 -15.484375 
Q 36.375 -13.875 36.375 -12.015625 
Q 36.375 -8.890625 38.125 -5.734375 
Q 39.890625 -2.59375 43.109375 0 
z
" id="ArialMT-261"/>
      <path d="M 40.4375 19 
L 49.078125 17.875 
Q 47.65625 8.9375 41.8125 3.875 
Q 35.984375 -1.171875 27.484375 -1.171875 
Q 16.84375 -1.171875 10.375 5.78125 
Q 3.90625 12.75 3.90625 25.734375 
Q 3.90625 34.125 6.6875 40.421875 
Q 9.46875 46.734375 15.15625 49.875 
Q 20.84375 53.03125 27.546875 53.03125 
Q 35.984375 53.03125 41.359375 48.75 
Q 46.734375 44.484375 48.25 36.625 
L 39.703125 35.296875 
Q 38.484375 40.53125 35.375 43.15625 
Q 32.28125 45.796875 27.875 45.796875 
Q 21.234375 45.796875 17.078125 41.03125 
Q 12.9375 36.28125 12.9375 25.984375 
Q 12.9375 15.53125 16.9375 10.796875 
Q 20.953125 6.0625 27.390625 6.0625 
Q 32.5625 6.0625 36.03125 9.234375 
Q 39.5 12.40625 40.4375 19 
z
" id="ArialMT-99"/>
      <path d="M 1.953125 0 
L 1.953125 7.125 
L 34.96875 45.015625 
Q 29.34375 44.734375 25.046875 44.734375 
L 3.90625 44.734375 
L 3.90625 51.859375 
L 46.296875 51.859375 
L 46.296875 46.046875 
L 18.21875 13.140625 
L 12.796875 7.125 
Q 18.703125 7.5625 23.875 7.5625 
L 47.859375 7.5625 
L 47.859375 0 
z
" id="ArialMT-122"/>
      <path d="M 6.59375 0 
L 6.59375 51.859375 
L 14.5 51.859375 
L 14.5 44.484375 
Q 20.21875 53.03125 31 53.03125 
Q 35.6875 53.03125 39.625 51.34375 
Q 43.5625 49.65625 45.515625 46.921875 
Q 47.46875 44.1875 48.25 40.4375 
Q 48.734375 37.984375 48.734375 31.890625 
L 48.734375 0 
L 39.9375 0 
L 39.9375 31.546875 
Q 39.9375 36.921875 38.90625 39.578125 
Q 37.890625 42.234375 35.28125 43.8125 
Q 32.671875 45.40625 29.15625 45.40625 
Q 23.53125 45.40625 19.453125 41.84375 
Q 15.375 38.28125 15.375 28.328125 
L 15.375 0 
z
" id="ArialMT-110"/>
      <path id="ArialMT-32"/>
      <path d="M 16.15625 0 
L 0.296875 51.859375 
L 9.375 51.859375 
L 17.625 21.921875 
L 20.703125 10.796875 
Q 20.90625 11.625 23.390625 21.484375 
L 31.640625 51.859375 
L 40.671875 51.859375 
L 48.4375 21.78125 
L 51.03125 11.859375 
L 54 21.875 
L 62.890625 51.859375 
L 71.4375 51.859375 
L 55.21875 0 
L 46.09375 0 
L 37.84375 31.0625 
L 35.84375 39.890625 
L 25.34375 0 
z
" id="ArialMT-119"/>
      <path d="M 6.5 0 
L 6.5 51.859375 
L 14.40625 51.859375 
L 14.40625 44 
Q 17.4375 49.515625 20 51.265625 
Q 22.5625 53.03125 25.640625 53.03125 
Q 30.078125 53.03125 34.671875 50.203125 
L 31.640625 42.046875 
Q 28.421875 43.953125 25.203125 43.953125 
Q 22.3125 43.953125 20.015625 42.21875 
Q 17.71875 40.484375 16.75 37.40625 
Q 15.28125 32.71875 15.28125 27.15625 
L 15.28125 0 
z
" id="ArialMT-114"/>
      <path d="M 3.328125 25.921875 
Q 3.328125 40.328125 11.328125 47.265625 
Q 18.015625 53.03125 27.640625 53.03125 
Q 38.328125 53.03125 45.109375 46.015625 
Q 51.90625 39.015625 51.90625 26.65625 
Q 51.90625 16.65625 48.90625 10.90625 
Q 45.90625 5.171875 40.15625 2 
Q 34.421875 -1.171875 27.640625 -1.171875 
Q 16.75 -1.171875 10.03125 5.8125 
Q 3.328125 12.796875 3.328125 25.921875 
z
M 12.359375 25.921875 
Q 12.359375 15.96875 16.703125 11.015625 
Q 21.046875 6.0625 27.640625 6.0625 
Q 34.1875 6.0625 38.53125 11.03125 
Q 42.875 16.015625 42.875 26.21875 
Q 42.875 35.84375 38.5 40.796875 
Q 34.125 45.75 27.640625 45.75 
Q 21.046875 45.75 16.703125 40.8125 
Q 12.359375 35.890625 12.359375 25.921875 
z
" id="ArialMT-111"/>
      <path d="M 3.078125 15.484375 
L 11.765625 16.84375 
Q 12.5 11.625 15.84375 8.84375 
Q 19.1875 6.0625 25.203125 6.0625 
Q 31.25 6.0625 34.171875 8.515625 
Q 37.109375 10.984375 37.109375 14.3125 
Q 37.109375 17.28125 34.515625 19 
Q 32.71875 20.171875 25.53125 21.96875 
Q 15.875 24.421875 12.140625 26.203125 
Q 8.40625 27.984375 6.46875 31.125 
Q 4.546875 34.28125 4.546875 38.09375 
Q 4.546875 41.546875 6.125 44.5 
Q 7.71875 47.46875 10.453125 49.421875 
Q 12.5 50.921875 16.03125 51.96875 
Q 19.578125 53.03125 23.640625 53.03125 
Q 29.734375 53.03125 34.34375 51.265625 
Q 38.96875 49.515625 41.15625 46.5 
Q 43.359375 43.5 44.1875 38.484375 
L 35.59375 37.3125 
Q 35.015625 41.3125 32.203125 43.546875 
Q 29.390625 45.796875 24.265625 45.796875 
Q 18.21875 45.796875 15.625 43.796875 
Q 13.03125 41.796875 13.03125 39.109375 
Q 13.03125 37.40625 14.109375 36.03125 
Q 15.1875 34.625 17.484375 33.6875 
Q 18.796875 33.203125 25.25 31.453125 
Q 34.578125 28.953125 38.25 27.359375 
Q 41.9375 25.78125 44.03125 22.75 
Q 46.140625 19.734375 46.140625 15.234375 
Q 46.140625 10.84375 43.578125 6.953125 
Q 41.015625 3.078125 36.171875 0.953125 
Q 31.34375 -1.171875 25.25 -1.171875 
Q 15.140625 -1.171875 9.84375 3.03125 
Q 4.546875 7.234375 3.078125 15.484375 
z
M 19.234375 58.296875 
L 25.734375 71.96875 
L 37.25 71.96875 
L 26.515625 58.296875 
z
" id="ArialMT-347"/>
      <path d="M 40.4375 19 
L 49.078125 17.875 
Q 47.65625 8.9375 41.8125 3.875 
Q 35.984375 -1.171875 27.484375 -1.171875 
Q 16.84375 -1.171875 10.375 5.78125 
Q 3.90625 12.75 3.90625 25.734375 
Q 3.90625 34.125 6.6875 40.421875 
Q 9.46875 46.734375 15.15625 49.875 
Q 20.84375 53.03125 27.546875 53.03125 
Q 35.984375 53.03125 41.359375 48.75 
Q 46.734375 44.484375 48.25 36.625 
L 39.703125 35.296875 
Q 38.484375 40.53125 35.375 43.15625 
Q 32.28125 45.796875 27.875 45.796875 
Q 21.234375 45.796875 17.078125 41.03125 
Q 12.9375 36.28125 12.9375 25.984375 
Q 12.9375 15.53125 16.9375 10.796875 
Q 20.953125 6.0625 27.390625 6.0625 
Q 32.5625 6.0625 36.03125 9.234375 
Q 39.5 12.40625 40.4375 19 
z
M 20.703125 58.296875 
L 27.203125 71.96875 
L 38.71875 71.96875 
L 27.984375 58.296875 
z
" id="ArialMT-263"/>
      <path d="M 3.078125 15.484375 
L 11.765625 16.84375 
Q 12.5 11.625 15.84375 8.84375 
Q 19.1875 6.0625 25.203125 6.0625 
Q 31.25 6.0625 34.171875 8.515625 
Q 37.109375 10.984375 37.109375 14.3125 
Q 37.109375 17.28125 34.515625 19 
Q 32.71875 20.171875 25.53125 21.96875 
Q 15.875 24.421875 12.140625 26.203125 
Q 8.40625 27.984375 6.46875 31.125 
Q 4.546875 34.28125 4.546875 38.09375 
Q 4.546875 41.546875 6.125 44.5 
Q 7.71875 47.46875 10.453125 49.421875 
Q 12.5 50.921875 16.03125 51.96875 
Q 19.578125 53.03125 23.640625 53.03125 
Q 29.734375 53.03125 34.34375 51.265625 
Q 38.96875 49.515625 41.15625 46.5 
Q 43.359375 43.5 44.1875 38.484375 
L 35.59375 37.3125 
Q 35.015625 41.3125 32.203125 43.546875 
Q 29.390625 45.796875 24.265625 45.796875 
Q 18.21875 45.796875 15.625 43.796875 
Q 13.03125 41.796875 13.03125 39.109375 
Q 13.03125 37.40625 14.109375 36.03125 
Q 15.1875 34.625 17.484375 33.6875 
Q 18.796875 33.203125 25.25 31.453125 
Q 34.578125 28.953125 38.25 27.359375 
Q 41.9375 25.78125 44.03125 22.75 
Q 46.140625 19.734375 46.140625 15.234375 
Q 46.140625 10.84375 43.578125 6.953125 
Q 41.015625 3.078125 36.171875 0.953125 
Q 31.34375 -1.171875 25.25 -1.171875 
Q 15.140625 -1.171875 9.84375 3.03125 
Q 4.546875 7.234375 3.078125 15.484375 
z
" id="ArialMT-115"/>
      <path d="M 6.640625 0 
L 6.640625 71.578125 
L 15.4375 71.578125 
L 15.4375 30.765625 
L 36.234375 51.859375 
L 47.609375 51.859375 
L 27.78125 32.625 
L 49.609375 0 
L 38.765625 0 
L 21.625 26.515625 
L 15.4375 20.5625 
L 15.4375 0 
z
" id="ArialMT-107"/>
      <path d="M 6.546875 61.375 
L 6.546875 71.578125 
L 15.328125 71.578125 
L 15.328125 61.375 
z
M -4.59375 -20.125 
L -2.9375 -12.640625 
Q -0.296875 -13.328125 1.21875 -13.328125 
Q 3.90625 -13.328125 5.21875 -11.546875 
Q 6.546875 -9.765625 6.546875 -2.640625 
L 6.546875 51.859375 
L 15.328125 51.859375 
L 15.328125 -2.828125 
Q 15.328125 -12.40625 12.84375 -16.15625 
Q 9.671875 -21.046875 2.296875 -21.046875 
Q -1.265625 -21.046875 -4.59375 -20.125 
z
" id="ArialMT-106"/>
      <path d="M 6.640625 61.46875 
L 6.640625 71.578125 
L 15.4375 71.578125 
L 15.4375 61.46875 
z
M 6.640625 0 
L 6.640625 51.859375 
L 15.4375 51.859375 
L 15.4375 0 
z
" id="ArialMT-105"/>
     </defs>
     <g style="fill:#262626;" transform="translate(61.389219 278.211563)rotate(-90)scale(0.12 -0.12)">
      <use xlink:href="#ArialMT-321"/>
      <use x="55.615234" xlink:href="#ArialMT-261"/>
      <use x="111.230469" xlink:href="#ArialMT-99"/>
      <use x="161.230469" xlink:href="#ArialMT-122"/>
      <use x="211.230469" xlink:href="#ArialMT-110"/>
      <use x="266.845703" xlink:href="#ArialMT-97"/>
      <use x="322.460938" xlink:href="#ArialMT-32"/>
      <use x="350.244141" xlink:href="#ArialMT-119"/>
      <use x="422.460938" xlink:href="#ArialMT-97"/>
      <use x="478.076172" xlink:href="#ArialMT-114"/>
      <use x="511.376953" xlink:href="#ArialMT-116"/>
      <use x="539.160156" xlink:href="#ArialMT-111"/>
      <use x="594.775391" xlink:href="#ArialMT-347"/>
      <use x="644.775391" xlink:href="#ArialMT-263"/>
      <use x="694.775391" xlink:href="#ArialMT-32"/>
      <use x="722.558594" xlink:href="#ArialMT-116"/>
      <use x="750.341797" xlink:href="#ArialMT-114"/>
      <use x="783.642578" xlink:href="#ArialMT-97"/>
      <use x="839.257812" xlink:href="#ArialMT-110"/>
      <use x="894.873047" xlink:href="#ArialMT-115"/>
      <use x="944.873047" xlink:href="#ArialMT-97"/>
      <use x="1000.488281" xlink:href="#ArialMT-107"/>
      <use x="1050.488281" xlink:href="#ArialMT-99"/>
      <use x="1100.488281" xlink:href="#ArialMT-106"/>
      <use x="1122.705078" xlink:href="#ArialMT-105"/>
     </g>
    </g>
   </g>
   <g id="line2d_23">
    <path clip-path="url(#p980095c03e)" d="M 138.436364 344.314284 
L 140.113298 336.676653 
L 141.790233 335.531885 
L 143.467168 342.297207 
L 145.144102 337.613207 
L 146.821037 350.272364 
L 150.174906 349.822375 
L 151.851841 346.51752 
L 153.528775 330.369677 
L 155.20571 330.271597 
L 156.882645 337.349514 
L 158.559579 335.536132 
L 160.236514 309.627557 
L 161.913449 350.414416 
L 163.590383 335.413258 
L 165.267318 338.998517 
L 166.944252 348.505145 
L 168.621187 337.113082 
L 170.298122 321.159343 
L 171.975056 334.366296 
L 173.651991 332.42278 
L 175.328926 335.183126 
L 177.00586 327.192491 
L 178.682795 330.742408 
L 180.35973 347.758313 
L 182.036664 312.607351 
L 183.713599 341.335038 
L 185.390533 338.776604 
L 187.067468 301.142686 
L 188.744403 313.287746 
L 190.421337 317.593947 
L 192.098272 306.952414 
L 193.775207 313.949922 
L 195.452141 317.159436 
L 198.806011 304.206724 
L 200.482945 341.114632 
L 202.15988 346.000272 
L 203.836814 348.022554 
L 205.513749 340.236296 
L 207.190684 346.708886 
L 208.867618 335.356821 
L 210.544553 301.618976 
L 212.221488 333.797816 
L 215.575357 337.424718 
L 217.252292 320.26909 
L 218.929226 337.88142 
L 220.606161 341.982283 
L 222.283095 337.42828 
L 223.96003 321.67892 
L 225.636965 331.441844 
L 227.313899 351.256451 
L 228.990834 352.504367 
L 230.667769 334.44465 
L 232.344703 332.209634 
L 234.021638 339.658228 
L 235.698573 332.769621 
L 237.375507 313.344594 
L 239.052442 325.87348 
L 240.729376 300.904609 
L 242.406311 318.594061 
L 244.083246 326.746474 
L 245.76018 293.110133 
L 247.437115 308.790864 
L 250.790984 323.215871 
L 252.467919 314.786889 
L 254.144853 350.630027 
L 255.821788 333.249884 
L 257.498723 341.786534 
L 259.175657 314.725384 
L 260.852592 351.579457 
L 262.529527 275.75725 
L 264.206461 349.81032 
L 265.883396 330.930349 
L 267.560331 323.13916 
L 269.237265 335.549419 
L 274.268069 347.019837 
L 275.945004 347.200244 
L 277.621938 338.645238 
L 279.298873 350.7829 
L 280.975808 319.991836 
L 282.652742 294.297503 
L 284.329677 325.16062 
L 286.006612 290.904705 
L 287.683546 330.319678 
L 289.360481 349.720459 
L 291.037415 323.831473 
L 292.71435 352.865455 
L 294.391285 316.723967 
L 296.068219 340.714368 
L 299.422089 317.524085 
L 301.099023 337.019933 
L 304.452893 257.754655 
L 306.129827 296.457042 
L 307.806762 347.035316 
L 309.483696 350.642493 
L 311.160631 325.215413 
L 312.837566 351.917668 
L 314.5145 335.781058 
L 316.191435 332.745649 
L 317.86837 340.667519 
L 319.545304 331.404858 
L 321.222239 338.824959 
L 326.253043 334.147671 
L 327.929977 333.648779 
L 331.283847 308.3143 
L 332.960781 324.527621 
L 334.637716 310.904514 
L 336.314651 351.313025 
L 337.991585 319.480615 
L 341.345455 346.351086 
L 343.022389 312.413793 
L 344.699324 330.902952 
L 346.376258 290.832652 
L 348.053193 352.078898 
L 349.730128 327.465635 
L 351.407062 350.548522 
L 353.083997 334.588757 
L 354.760932 337.071987 
L 356.437866 352.132321 
L 358.114801 339.591791 
L 359.791736 350.119628 
L 361.46867 341.490788 
L 363.145605 310.816022 
L 364.822539 293.816007 
L 366.499474 347.153259 
L 368.176409 320.613603 
L 369.853343 329.442712 
L 371.530278 332.559215 
L 373.207213 323.717229 
L 374.884147 322.837249 
L 376.561082 321.377968 
L 378.238017 317.590659 
L 379.914951 326.339771 
L 381.591886 339.413165 
L 384.945755 314.340735 
L 386.62269 341.333668 
L 388.299624 306.491877 
L 391.653494 317.490251 
L 393.330428 337.304173 
L 395.007363 347.058192 
L 396.684298 328.455064 
L 398.361232 323.579561 
L 400.038167 284.675535 
L 401.715101 351.941229 
L 403.392036 350.688245 
L 405.068971 300.804886 
L 406.745905 330.747202 
L 408.42284 345.812879 
L 410.099775 325.464723 
L 413.453644 318.102291 
L 415.130579 350.846323 
L 416.807513 328.002609 
L 418.484448 350.256337 
L 420.161382 293.102325 
L 421.838317 323.808597 
L 423.515252 349.986891 
L 425.192186 348.066799 
L 426.869121 348.288301 
L 428.546056 352.604502 
L 430.22299 328.197673 
L 431.899925 312.144485 
L 433.57686 347.433389 
L 435.253794 326.473603 
L 436.930729 321.702618 
L 438.607663 334.636701 
L 440.284598 301.976365 
L 441.961533 329.940783 
L 443.638467 321.318655 
L 445.315402 350.274693 
L 446.992337 337.962377 
L 448.669271 321.928503 
L 450.346206 350.028397 
L 452.02314 335.230934 
L 453.700075 323.602437 
L 455.37701 287.190408 
L 457.053944 341.678729 
L 458.730879 316.675475 
L 462.084748 293.777789 
L 463.761683 302.570324 
L 465.438618 348.797193 
L 467.115552 341.401886 
L 468.792487 294.251751 
L 470.469421 327.039069 
L 472.146356 288.601334 
L 475.500225 334.998747 
L 477.17716 349.217046 
L 478.854095 351.017689 
L 480.531029 313.836774 
L 482.207964 327.623713 
L 483.884899 350.823584 
L 485.561833 351.083715 
L 487.238768 352.213552 
L 488.915702 309.905633 
L 490.592637 326.287443 
L 492.269572 344.961529 
L 493.946506 328.107675 
L 495.623441 351.815479 
L 497.300376 352.626967 
L 498.97731 327.729738 
L 500.654245 299.153828 
L 502.33118 344.917968 
L 504.008114 326.722365 
L 505.685049 310.015356 
L 507.361983 340.845323 
L 509.038918 330.781037 
L 512.392787 330.616657 
L 515.746657 304.961227 
L 517.423591 293.730256 
L 519.100526 340.298761 
L 520.777461 264.484498 
L 522.454395 343.197871 
L 524.13133 350.757421 
L 525.808264 331.161302 
L 527.485199 316.656297 
L 529.162134 331.498281 
L 530.839068 318.885972 
L 532.516003 330.525016 
L 535.869872 339.774526 
L 537.546807 328.287671 
L 539.223742 302.843605 
L 540.900676 314.527443 
L 542.577611 321.203041 
L 545.93148 311.606004 
L 547.608415 320.588672 
L 549.285349 291.98468 
L 550.962284 294.950912 
L 554.316153 322.498353 
L 555.993088 347.722013 
L 557.670023 305.299165 
L 559.346957 347.382021 
L 561.023892 350.477839 
L 562.700826 327.647548 
L 564.377761 346.575327 
L 566.054696 294.73626 
L 567.73163 340.61752 
L 569.408565 289.784457 
L 571.0855 347.256955 
L 572.762434 340.059177 
L 574.439369 335.013815 
L 576.116304 338.890026 
L 577.793238 349.082118 
L 579.470173 303.109079 
L 582.824042 332.296618 
L 584.500977 352.337933 
L 586.177911 314.984145 
L 587.854846 324.996925 
L 589.531781 336.483918 
L 591.208715 318.076675 
L 592.88565 352.386014 
L 594.562585 335.434764 
L 596.239519 313.736365 
L 597.916454 343.311293 
L 599.593388 333.222076 
L 601.270323 328.233562 
L 602.947258 328.030142 
L 604.624192 316.841773 
L 606.301127 339.035913 
L 607.978062 336.52967 
L 609.654996 331.310614 
L 611.331931 322.35685 
L 616.362735 340.047671 
L 618.039669 337.457594 
L 619.716604 341.05436 
L 623.070473 351.099331 
L 626.424343 301.508705 
L 628.101277 326.728392 
L 629.778212 317.75682 
L 631.455147 332.866605 
L 633.132081 296.547451 
L 634.809016 348.143373 
L 636.48595 315.491667 
L 638.162885 319.739102 
L 639.83982 289.192005 
L 641.516754 326.740994 
L 644.870624 351.200288 
L 646.547558 351.503294 
L 648.224493 319.32377 
L 649.901427 323.470248 
L 651.578362 328.759029 
L 653.255297 351.200973 
L 654.932231 330.472825 
L 656.609166 335.128881 
L 658.286101 351.344805 
L 659.963035 350.228941 
L 661.63997 325.76677 
L 663.316905 328.370134 
L 664.993839 350.538385 
L 666.670774 286.522478 
L 670.024643 320.745517 
L 671.701578 329.308332 
L 673.378512 295.565282 
L 675.055447 313.89143 
L 678.409316 314.314023 
L 680.086251 309.110857 
L 681.763186 293.596697 
L 683.44012 339.42111 
L 685.117055 283.942949 
L 688.470924 348.666511 
L 691.824793 320.448264 
L 693.501728 348.205974 
L 695.178663 300.545166 
L 696.855597 333.15016 
L 698.532532 331.700057 
L 700.209467 351.611511 
L 701.886401 296.986344 
L 703.563336 311.063688 
L 705.24027 308.118551 
L 706.917205 312.668308 
L 708.59414 352.319029 
L 710.271074 320.621137 
L 711.948009 351.483843 
L 713.624944 316.40644 
L 715.301878 351.874245 
L 716.978813 348.223645 
L 718.655748 311.518061 
L 720.332682 341.222986 
L 722.009617 343.492659 
L 723.686551 295.617472 
L 725.363486 350.785777 
L 727.040421 333.079477 
L 728.717355 352.478066 
L 730.39429 338.755235 
L 732.071225 327.32372 
L 733.748159 347.758998 
L 735.425094 324.375296 
L 737.102029 337.12815 
L 738.778963 346.055887 
L 740.455898 325.079389 
L 743.809767 350.096341 
L 745.486702 350.878104 
L 747.163636 325.71321 
L 747.163636 325.71321 
" style="fill:none;stroke:#008000;stroke-linecap:round;"/>
   </g>
   <g id="line2d_24">
    <path clip-path="url(#p980095c03e)" d="M 138.436364 326.892147 
L 140.113298 303.887605 
L 141.790233 300.439564 
L 143.467168 320.816713 
L 145.144102 306.708504 
L 146.821037 344.837886 
L 150.174906 343.482517 
L 151.851841 333.528295 
L 153.528775 284.890991 
L 155.20571 284.595575 
L 156.882645 305.914262 
L 158.559579 300.452354 
L 160.236514 222.415726 
L 161.913449 345.265745 
L 163.590383 300.082258 
L 165.267318 310.881058 
L 166.944252 339.515022 
L 168.621187 305.202126 
L 170.298122 257.149467 
L 171.975056 296.928809 
L 173.651991 291.074937 
L 175.328926 299.389102 
L 177.00586 275.321306 
L 178.682795 286.013657 
L 180.35973 337.265564 
L 182.036664 231.390865 
L 183.713599 317.918659 
L 185.390533 310.212657 
L 187.067468 196.859295 
L 188.744403 233.440215 
L 190.421337 246.410493 
L 192.098272 214.358195 
L 193.775207 235.43469 
L 195.452141 245.101747 
L 198.806011 206.088178 
L 200.482945 317.254797 
L 202.15988 331.970344 
L 203.836814 338.061456 
L 205.513749 314.60925 
L 207.190684 334.104688 
L 208.867618 299.91227 
L 210.544553 198.293881 
L 212.221488 295.216547 
L 215.575357 306.140776 
L 217.252292 254.468024 
L 218.929226 307.516361 
L 220.606161 319.868162 
L 222.283095 306.151503 
L 223.96003 258.714433 
L 225.636965 288.120358 
L 227.313899 347.801955 
L 228.990834 351.560678 
L 230.667769 297.164812 
L 232.344703 290.432942 
L 234.021638 312.868107 
L 235.698573 292.119623 
L 237.375507 233.611441 
L 239.052442 271.348447 
L 240.729376 196.142208 
L 242.406311 249.422835 
L 244.083246 273.977903 
L 245.76018 172.665246 
L 247.437115 219.895608 
L 250.790984 263.343728 
L 252.467919 237.955634 
L 254.144853 345.915166 
L 255.821788 293.566175 
L 257.498723 319.278566 
L 259.175657 237.77038 
L 260.852592 348.774849 
L 262.529527 120.39836 
L 264.206461 343.446209 
L 265.883396 286.579735 
L 267.560331 263.112675 
L 269.237265 300.492376 
L 274.268069 335.041274 
L 275.945004 335.58466 
L 277.621938 309.816981 
L 279.298873 346.37562 
L 280.975808 253.632936 
L 282.652742 176.241603 
L 284.329677 269.201312 
L 286.006612 166.022497 
L 287.683546 284.740395 
L 289.360481 343.175548 
L 291.037415 265.197921 
L 292.71435 352.648274 
L 294.391285 243.790114 
L 296.068219 316.0492 
L 299.422089 246.20007 
L 301.099023 304.921563 
L 304.452893 66.174545 
L 306.129827 182.746134 
L 307.806762 335.087897 
L 309.483696 345.952712 
L 311.160631 269.36635 
L 312.837566 349.793542 
L 314.5145 301.190071 
L 316.191435 292.047419 
L 317.86837 315.908093 
L 319.545304 288.008958 
L 321.222239 310.358303 
L 326.253043 296.27031 
L 327.929977 294.767646 
L 331.283847 218.460196 
L 332.960781 267.294719 
L 334.637716 226.26192 
L 336.314651 347.972356 
L 337.991585 252.093138 
L 341.345455 333.026995 
L 343.022389 230.807871 
L 344.699324 286.497217 
L 346.376258 165.805473 
L 348.053193 350.279164 
L 349.730128 276.144017 
L 351.407062 345.669674 
L 353.083997 297.59886 
L 354.760932 305.078348 
L 356.437866 350.440075 
L 358.114801 312.667999 
L 359.791736 344.377844 
L 361.46867 318.387778 
L 363.145605 225.995384 
L 364.822539 174.791339 
L 366.499474 335.44314 
L 368.176409 255.505696 
L 369.853343 282.098974 
L 371.530278 291.48588 
L 373.207213 264.853818 
L 374.884147 262.20332 
L 376.561082 257.807965 
L 378.238017 246.40059 
L 379.914951 272.752914 
L 381.591886 312.129978 
L 384.945755 236.611818 
L 386.62269 317.914533 
L 388.299624 212.971057 
L 391.653494 246.09816 
L 393.330428 305.777694 
L 395.007363 335.1568 
L 396.684298 279.124177 
L 398.361232 264.439162 
L 400.038167 147.260236 
L 401.715101 349.864508 
L 403.392036 346.090519 
L 405.068971 195.84184 
L 406.745905 286.028098 
L 408.42284 331.405916 
L 410.099775 270.117269 
L 413.453644 247.941626 
L 415.130579 346.566651 
L 416.807513 277.761382 
L 418.484448 344.789612 
L 420.161382 172.641728 
L 421.838317 265.129018 
L 423.515252 343.978042 
L 425.192186 338.194724 
L 426.869121 338.861887 
L 428.546056 351.862284 
L 430.22299 278.348915 
L 431.899925 229.996713 
L 433.57686 336.286893 
L 435.253794 273.156018 
L 436.930729 258.785811 
L 438.607663 297.743268 
L 440.284598 199.370337 
L 441.961533 283.599162 
L 443.638467 257.629313 
L 445.315402 344.8449 
L 446.992337 307.760204 
L 448.669271 259.466177 
L 450.346206 344.103057 
L 452.02314 299.533097 
L 453.700075 264.508065 
L 455.37701 154.835034 
L 457.053944 318.953855 
L 458.730879 243.644056 
L 462.084748 174.676225 
L 463.761683 201.159341 
L 465.438618 340.39467 
L 467.115552 318.120005 
L 468.792487 176.103797 
L 470.469421 274.859202 
L 472.146356 159.084743 
L 475.500225 298.833751 
L 477.17716 341.659268 
L 478.854095 347.082805 
L 480.531029 235.093888 
L 482.207964 276.620149 
L 483.884899 346.498161 
L 485.561833 347.281675 
L 487.238768 350.684743 
L 488.915702 223.25329 
L 490.592637 272.595303 
L 492.269572 328.84165 
L 493.946506 278.077841 
L 495.623441 349.485747 
L 497.300376 351.929949 
L 498.97731 276.939497 
L 500.654245 190.868855 
L 502.33118 328.710445 
L 504.008114 273.905287 
L 505.685049 223.583778 
L 507.361983 316.443639 
L 509.038918 286.130009 
L 512.392787 285.634897 
L 515.746657 208.360741 
L 517.423591 174.533055 
L 519.100526 314.797392 
L 520.777461 86.444834 
L 522.454395 323.529513 
L 524.13133 346.298878 
L 525.808264 287.275367 
L 527.485199 243.586293 
L 529.162134 288.290346 
L 530.839068 250.302071 
L 532.516003 285.358872 
L 535.869872 313.218398 
L 537.546807 278.619988 
L 539.223742 201.982464 
L 540.900676 237.174183 
L 542.577611 257.281084 
L 545.93148 228.374809 
L 547.608415 255.430604 
L 549.285349 169.275381 
L 550.962284 178.209673 
L 554.316153 261.182565 
L 555.993088 337.156227 
L 557.670023 209.378608 
L 559.346957 336.132171 
L 561.023892 345.456776 
L 562.700826 276.691941 
L 564.377761 333.70241 
L 566.054696 177.563139 
L 567.73163 315.757496 
L 569.408565 162.64831 
L 571.0855 335.755473 
L 572.762434 314.075767 
L 574.439369 298.879137 
L 576.116304 310.554284 
L 577.793238 341.252864 
L 579.470173 202.782069 
L 582.824042 290.694939 
L 584.500977 351.059378 
L 586.177911 238.549768 
L 587.854846 268.708264 
L 589.531781 303.307086 
L 591.208715 247.864471 
L 592.88565 351.204198 
L 594.562585 300.147035 
L 596.239519 234.791457 
L 597.916454 323.87114 
L 599.593388 293.482418 
L 601.270323 278.457014 
L 602.947258 277.844313 
L 604.624192 244.144944 
L 606.301127 310.993696 
L 607.978062 303.444892 
L 609.654996 287.725094 
L 611.331931 260.756356 
L 616.362735 314.041109 
L 618.039669 306.239798 
L 619.716604 317.073256 
L 623.070473 347.328711 
L 626.424343 197.961744 
L 628.101277 273.923441 
L 629.778212 246.901066 
L 631.455147 292.411739 
L 633.132081 183.018446 
L 634.809016 338.425363 
L 636.48595 240.078426 
L 638.162885 252.871701 
L 639.83982 160.863845 
L 641.516754 273.961399 
L 644.870624 347.632792 
L 646.547558 348.545448 
L 648.224493 251.620719 
L 649.901427 264.109913 
L 651.578362 280.039721 
L 653.255297 347.634855 
L 654.932231 285.201674 
L 656.609166 299.225715 
L 658.286101 348.068077 
L 659.963035 344.707094 
L 661.63997 271.027037 
L 663.316905 278.868369 
L 664.993839 345.639142 
L 666.670774 152.82323 
L 670.024643 255.903023 
L 671.701578 281.69422 
L 673.378512 180.060153 
L 675.055447 235.258513 
L 678.409316 236.531363 
L 680.086251 220.859425 
L 681.763186 174.130777 
L 683.44012 312.153908 
L 685.117055 145.053688 
L 688.470924 340.001056 
L 691.824793 255.007696 
L 693.501728 338.613918 
L 695.178663 195.059564 
L 696.855597 293.265807 
L 698.532532 288.898096 
L 700.209467 348.871396 
L 701.886401 184.340394 
L 703.563336 226.741353 
L 705.24027 217.8706 
L 706.917205 231.574469 
L 708.59414 351.00244 
L 710.271074 255.528388 
L 711.948009 348.486859 
L 713.624944 242.833723 
L 715.301878 349.66275 
L 716.978813 338.667143 
L 718.655748 228.109924 
L 720.332682 317.581158 
L 722.009617 324.417414 
L 723.686551 180.217351 
L 725.363486 346.384285 
L 727.040421 293.052909 
L 728.717355 351.48146 
L 730.39429 310.148293 
L 732.071225 275.716571 
L 733.748159 337.267627 
L 735.425094 266.835916 
L 737.102029 305.247512 
L 738.778963 332.137857 
L 740.455898 268.956645 
L 743.809767 344.307704 
L 745.486702 346.662373 
L 747.163636 270.865713 
L 747.163636 270.865713 
" style="fill:none;stroke:#ff0000;stroke-linecap:round;"/>
   </g>
   <g id="patch_3">
    <path d="M 108 367.2 
L 108 51.84 
" style="fill:none;stroke:#ffffff;stroke-linecap:square;stroke-linejoin:miter;stroke-width:1.25;"/>
   </g>
   <g id="patch_4">
    <path d="M 777.6 367.2 
L 777.6 51.84 
" style="fill:none;stroke:#ffffff;stroke-linecap:square;stroke-linejoin:miter;stroke-width:1.25;"/>
   </g>
   <g id="patch_5">
    <path d="M 108 367.2 
L 777.6 367.2 
" style="fill:none;stroke:#ffffff;stroke-linecap:square;stroke-linejoin:miter;stroke-width:1.25;"/>
   </g>
   <g id="patch_6">
    <path d="M 108 51.84 
L 777.6 51.84 
" style="fill:none;stroke:#ffffff;stroke-linecap:square;stroke-linejoin:miter;stroke-width:1.25;"/>
   </g>
   <g id="text_25">
    <!-- Łączna wartość transakcji ze zbioru MongoDB Atlas Supply Store w dniach 2014-01-01 - 2014-12-31 w PLN i USD -->
    <defs>
     <path d="M 42.09375 16.703125 
L 51.171875 15.578125 
Q 49.03125 7.625 43.21875 3.21875 
Q 37.40625 -1.171875 28.375 -1.171875 
Q 17 -1.171875 10.328125 5.828125 
Q 3.65625 12.84375 3.65625 25.484375 
Q 3.65625 38.578125 10.390625 45.796875 
Q 17.140625 53.03125 27.875 53.03125 
Q 38.28125 53.03125 44.875 45.953125 
Q 51.46875 38.875 51.46875 26.03125 
Q 51.46875 25.25 51.421875 23.6875 
L 12.75 23.6875 
Q 13.234375 15.140625 17.578125 10.59375 
Q 21.921875 6.0625 28.421875 6.0625 
Q 33.25 6.0625 36.671875 8.59375 
Q 40.09375 11.140625 42.09375 16.703125 
z
M 13.234375 30.90625 
L 42.1875 30.90625 
Q 41.609375 37.453125 38.875 40.71875 
Q 34.671875 45.796875 27.984375 45.796875 
Q 21.921875 45.796875 17.796875 41.75 
Q 13.671875 37.703125 13.234375 30.90625 
z
" id="ArialMT-101"/>
     <path d="M 14.703125 0 
L 6.546875 0 
L 6.546875 71.578125 
L 15.328125 71.578125 
L 15.328125 46.046875 
Q 20.90625 53.03125 29.546875 53.03125 
Q 34.328125 53.03125 38.59375 51.09375 
Q 42.875 49.171875 45.625 45.671875 
Q 48.390625 42.1875 49.953125 37.25 
Q 51.515625 32.328125 51.515625 26.703125 
Q 51.515625 13.375 44.921875 6.09375 
Q 38.328125 -1.171875 29.109375 -1.171875 
Q 19.921875 -1.171875 14.703125 6.5 
z
M 14.59375 26.3125 
Q 14.59375 17 17.140625 12.84375 
Q 21.296875 6.0625 28.375 6.0625 
Q 34.125 6.0625 38.328125 11.0625 
Q 42.53125 16.0625 42.53125 25.984375 
Q 42.53125 36.140625 38.5 40.96875 
Q 34.46875 45.796875 28.765625 45.796875 
Q 23 45.796875 18.796875 40.796875 
Q 14.59375 35.796875 14.59375 26.3125 
z
" id="ArialMT-98"/>
     <path d="M 40.578125 0 
L 40.578125 7.625 
Q 34.515625 -1.171875 24.125 -1.171875 
Q 19.53125 -1.171875 15.546875 0.578125 
Q 11.578125 2.34375 9.640625 5 
Q 7.71875 7.671875 6.9375 11.53125 
Q 6.390625 14.109375 6.390625 19.734375 
L 6.390625 51.859375 
L 15.1875 51.859375 
L 15.1875 23.09375 
Q 15.1875 16.21875 15.71875 13.8125 
Q 16.546875 10.359375 19.234375 8.375 
Q 21.921875 6.390625 25.875 6.390625 
Q 29.828125 6.390625 33.296875 8.421875 
Q 36.765625 10.453125 38.203125 13.9375 
Q 39.65625 17.4375 39.65625 24.078125 
L 39.65625 51.859375 
L 48.4375 51.859375 
L 48.4375 0 
z
" id="ArialMT-117"/>
     <path d="M 7.421875 0 
L 7.421875 71.578125 
L 21.6875 71.578125 
L 38.625 20.90625 
Q 40.96875 13.8125 42.046875 10.296875 
Q 43.265625 14.203125 45.84375 21.78125 
L 62.984375 71.578125 
L 75.734375 71.578125 
L 75.734375 0 
L 66.609375 0 
L 66.609375 59.90625 
L 45.796875 0 
L 37.25 0 
L 16.546875 60.9375 
L 16.546875 0 
z
" id="ArialMT-77"/>
     <path d="M 4.984375 -4.296875 
L 13.53125 -5.5625 
Q 14.0625 -9.515625 16.5 -11.328125 
Q 19.78125 -13.765625 25.4375 -13.765625 
Q 31.546875 -13.765625 34.859375 -11.328125 
Q 38.1875 -8.890625 39.359375 -4.5 
Q 40.046875 -1.8125 39.984375 6.78125 
Q 34.234375 0 25.640625 0 
Q 14.9375 0 9.078125 7.71875 
Q 3.21875 15.4375 3.21875 26.21875 
Q 3.21875 33.640625 5.90625 39.90625 
Q 8.59375 46.1875 13.6875 49.609375 
Q 18.796875 53.03125 25.6875 53.03125 
Q 34.859375 53.03125 40.828125 45.609375 
L 40.828125 51.859375 
L 48.921875 51.859375 
L 48.921875 7.03125 
Q 48.921875 -5.078125 46.453125 -10.125 
Q 44 -15.1875 38.640625 -18.109375 
Q 33.296875 -21.046875 25.484375 -21.046875 
Q 16.21875 -21.046875 10.5 -16.875 
Q 4.78125 -12.703125 4.984375 -4.296875 
z
M 12.25 26.859375 
Q 12.25 16.65625 16.296875 11.96875 
Q 20.359375 7.28125 26.46875 7.28125 
Q 32.515625 7.28125 36.609375 11.9375 
Q 40.71875 16.609375 40.71875 26.5625 
Q 40.71875 36.078125 36.5 40.90625 
Q 32.28125 45.75 26.3125 45.75 
Q 20.453125 45.75 16.34375 40.984375 
Q 12.25 36.234375 12.25 26.859375 
z
" id="ArialMT-103"/>
     <path d="M 7.328125 0 
L 7.328125 71.578125 
L 34.1875 71.578125 
Q 42.390625 71.578125 47.34375 69.40625 
Q 52.296875 67.234375 55.09375 62.71875 
Q 57.90625 58.203125 57.90625 53.265625 
Q 57.90625 48.6875 55.421875 44.625 
Q 52.9375 40.578125 47.90625 38.09375 
Q 54.390625 36.1875 57.875 31.59375 
Q 61.375 27 61.375 20.75 
Q 61.375 15.71875 59.25 11.390625 
Q 57.125 7.078125 54 4.734375 
Q 50.875 2.390625 46.15625 1.1875 
Q 41.453125 0 34.625 0 
z
M 16.796875 41.5 
L 32.28125 41.5 
Q 38.578125 41.5 41.3125 42.328125 
Q 44.921875 43.40625 46.75 45.890625 
Q 48.578125 48.390625 48.578125 52.15625 
Q 48.578125 55.71875 46.875 58.421875 
Q 45.171875 61.140625 41.984375 62.140625 
Q 38.8125 63.140625 31.109375 63.140625 
L 16.796875 63.140625 
z
M 16.796875 8.453125 
L 34.625 8.453125 
Q 39.203125 8.453125 41.0625 8.796875 
Q 44.34375 9.375 46.53125 10.734375 
Q 48.734375 12.109375 50.140625 14.71875 
Q 51.5625 17.328125 51.5625 20.75 
Q 51.5625 24.75 49.515625 27.703125 
Q 47.46875 30.671875 43.828125 31.859375 
Q 40.1875 33.0625 33.34375 33.0625 
L 16.796875 33.0625 
z
" id="ArialMT-66"/>
     <path d="M -0.140625 0 
L 27.34375 71.578125 
L 37.546875 71.578125 
L 66.84375 0 
L 56.0625 0 
L 47.703125 21.6875 
L 17.78125 21.6875 
L 9.90625 0 
z
M 20.515625 29.390625 
L 44.78125 29.390625 
L 37.3125 49.21875 
Q 33.890625 58.25 32.234375 64.0625 
Q 30.859375 57.171875 28.375 50.390625 
z
" id="ArialMT-65"/>
     <path d="M 6.390625 0 
L 6.390625 71.578125 
L 15.1875 71.578125 
L 15.1875 0 
z
" id="ArialMT-108"/>
     <path d="M 4.5 23 
L 13.421875 23.78125 
Q 14.0625 18.40625 16.375 14.96875 
Q 18.703125 11.53125 23.578125 9.40625 
Q 28.46875 7.28125 34.578125 7.28125 
Q 39.984375 7.28125 44.140625 8.890625 
Q 48.296875 10.5 50.3125 13.296875 
Q 52.34375 16.109375 52.34375 19.4375 
Q 52.34375 22.796875 50.390625 25.3125 
Q 48.4375 27.828125 43.953125 29.546875 
Q 41.0625 30.671875 31.203125 33.03125 
Q 21.34375 35.40625 17.390625 37.5 
Q 12.25 40.1875 9.734375 44.15625 
Q 7.234375 48.140625 7.234375 53.078125 
Q 7.234375 58.5 10.296875 63.203125 
Q 13.375 67.921875 19.28125 70.359375 
Q 25.203125 72.796875 32.421875 72.796875 
Q 40.375 72.796875 46.453125 70.234375 
Q 52.546875 67.671875 55.8125 62.6875 
Q 59.078125 57.71875 59.328125 51.421875 
L 50.25 50.734375 
Q 49.515625 57.515625 45.28125 60.984375 
Q 41.0625 64.453125 32.8125 64.453125 
Q 24.21875 64.453125 20.28125 61.296875 
Q 16.359375 58.15625 16.359375 53.71875 
Q 16.359375 49.859375 19.140625 47.359375 
Q 21.875 44.875 33.421875 42.265625 
Q 44.96875 39.65625 49.265625 37.703125 
Q 55.515625 34.8125 58.484375 30.390625 
Q 61.46875 25.984375 61.46875 20.21875 
Q 61.46875 14.5 58.203125 9.4375 
Q 54.9375 4.390625 48.796875 1.578125 
Q 42.671875 -1.21875 35.015625 -1.21875 
Q 25.296875 -1.21875 18.71875 1.609375 
Q 12.15625 4.4375 8.421875 10.125 
Q 4.6875 15.828125 4.5 23 
z
" id="ArialMT-83"/>
     <path d="M 6.59375 -19.875 
L 6.59375 51.859375 
L 14.59375 51.859375 
L 14.59375 45.125 
Q 17.4375 49.078125 21 51.046875 
Q 24.5625 53.03125 29.640625 53.03125 
Q 36.28125 53.03125 41.359375 49.609375 
Q 46.4375 46.1875 49.015625 39.953125 
Q 51.609375 33.734375 51.609375 26.3125 
Q 51.609375 18.359375 48.75 11.984375 
Q 45.90625 5.609375 40.453125 2.21875 
Q 35.015625 -1.171875 29 -1.171875 
Q 24.609375 -1.171875 21.109375 0.6875 
Q 17.625 2.546875 15.375 5.375 
L 15.375 -19.875 
z
M 14.546875 25.640625 
Q 14.546875 15.625 18.59375 10.84375 
Q 22.65625 6.0625 28.421875 6.0625 
Q 34.28125 6.0625 38.453125 11.015625 
Q 42.625 15.96875 42.625 26.375 
Q 42.625 36.28125 38.546875 41.203125 
Q 34.46875 46.140625 28.8125 46.140625 
Q 23.1875 46.140625 18.859375 40.890625 
Q 14.546875 35.640625 14.546875 25.640625 
z
" id="ArialMT-112"/>
     <path d="M 6.203125 -19.96875 
L 5.21875 -11.71875 
Q 8.109375 -12.5 10.25 -12.5 
Q 13.1875 -12.5 14.9375 -11.515625 
Q 16.703125 -10.546875 17.828125 -8.796875 
Q 18.65625 -7.46875 20.515625 -2.25 
Q 20.75 -1.515625 21.296875 -0.09375 
L 1.609375 51.859375 
L 11.078125 51.859375 
L 21.875 21.828125 
Q 23.96875 16.109375 25.640625 9.8125 
Q 27.15625 15.875 29.25 21.625 
L 40.328125 51.859375 
L 49.125 51.859375 
L 29.390625 -0.875 
Q 26.21875 -9.421875 24.46875 -12.640625 
Q 22.125 -17 19.09375 -19.015625 
Q 16.0625 -21.046875 11.859375 -21.046875 
Q 9.328125 -21.046875 6.203125 -19.96875 
z
" id="ArialMT-121"/>
     <path d="M 40.234375 0 
L 40.234375 6.546875 
Q 35.296875 -1.171875 25.734375 -1.171875 
Q 19.53125 -1.171875 14.328125 2.25 
Q 9.125 5.671875 6.265625 11.796875 
Q 3.421875 17.921875 3.421875 25.875 
Q 3.421875 33.640625 6 39.96875 
Q 8.59375 46.296875 13.765625 49.65625 
Q 18.953125 53.03125 25.34375 53.03125 
Q 30.03125 53.03125 33.6875 51.046875 
Q 37.359375 49.078125 39.65625 45.90625 
L 39.65625 71.578125 
L 48.390625 71.578125 
L 48.390625 0 
z
M 12.453125 25.875 
Q 12.453125 15.921875 16.640625 10.984375 
Q 20.84375 6.0625 26.5625 6.0625 
Q 32.328125 6.0625 36.34375 10.765625 
Q 40.375 15.484375 40.375 25.140625 
Q 40.375 35.796875 36.265625 40.765625 
Q 32.171875 45.75 26.171875 45.75 
Q 20.3125 45.75 16.375 40.96875 
Q 12.453125 36.1875 12.453125 25.875 
z
" id="ArialMT-100"/>
     <path d="M 6.59375 0 
L 6.59375 71.578125 
L 15.375 71.578125 
L 15.375 45.90625 
Q 21.53125 53.03125 30.90625 53.03125 
Q 36.671875 53.03125 40.921875 50.75 
Q 45.171875 48.484375 47 44.484375 
Q 48.828125 40.484375 48.828125 32.859375 
L 48.828125 0 
L 40.046875 0 
L 40.046875 32.859375 
Q 40.046875 39.453125 37.1875 42.453125 
Q 34.328125 45.453125 29.109375 45.453125 
Q 25.203125 45.453125 21.75 43.421875 
Q 18.3125 41.40625 16.84375 37.9375 
Q 15.375 34.46875 15.375 28.375 
L 15.375 0 
z
" id="ArialMT-104"/>
     <path d="M 7.71875 0 
L 7.71875 71.578125 
L 34.71875 71.578125 
Q 41.84375 71.578125 45.609375 70.90625 
Q 50.875 70.015625 54.4375 67.546875 
Q 58.015625 65.09375 60.1875 60.640625 
Q 62.359375 56.203125 62.359375 50.875 
Q 62.359375 41.75 56.546875 35.421875 
Q 50.734375 29.109375 35.546875 29.109375 
L 17.1875 29.109375 
L 17.1875 0 
z
M 17.1875 37.546875 
L 35.6875 37.546875 
Q 44.875 37.546875 48.734375 40.96875 
Q 52.59375 44.390625 52.59375 50.59375 
Q 52.59375 55.078125 50.3125 58.265625 
Q 48.046875 61.46875 44.34375 62.5 
Q 41.9375 63.140625 35.5 63.140625 
L 17.1875 63.140625 
z
" id="ArialMT-80"/>
     <path d="M 7.328125 0 
L 7.328125 71.578125 
L 16.796875 71.578125 
L 16.796875 8.453125 
L 52.046875 8.453125 
L 52.046875 0 
z
" id="ArialMT-76"/>
     <path d="M 7.625 0 
L 7.625 71.578125 
L 17.328125 71.578125 
L 54.9375 15.375 
L 54.9375 71.578125 
L 64.015625 71.578125 
L 64.015625 0 
L 54.296875 0 
L 16.703125 56.25 
L 16.703125 0 
z
" id="ArialMT-78"/>
     <path d="M 54.6875 71.578125 
L 64.15625 71.578125 
L 64.15625 30.21875 
Q 64.15625 19.4375 61.71875 13.078125 
Q 59.28125 6.734375 52.90625 2.75 
Q 46.53125 -1.21875 36.1875 -1.21875 
Q 26.125 -1.21875 19.71875 2.25 
Q 13.328125 5.71875 10.59375 12.28125 
Q 7.859375 18.84375 7.859375 30.21875 
L 7.859375 71.578125 
L 17.328125 71.578125 
L 17.328125 30.28125 
Q 17.328125 20.953125 19.0625 16.53125 
Q 20.796875 12.109375 25.015625 9.71875 
Q 29.25 7.328125 35.359375 7.328125 
Q 45.796875 7.328125 50.234375 12.0625 
Q 54.6875 16.796875 54.6875 30.28125 
z
" id="ArialMT-85"/>
    </defs>
    <g style="fill:#262626;" transform="translate(138.336563 45.84)scale(0.12 -0.12)">
     <use xlink:href="#ArialMT-321"/>
     <use x="55.615234" xlink:href="#ArialMT-261"/>
     <use x="111.230469" xlink:href="#ArialMT-99"/>
     <use x="161.230469" xlink:href="#ArialMT-122"/>
     <use x="211.230469" xlink:href="#ArialMT-110"/>
     <use x="266.845703" xlink:href="#ArialMT-97"/>
     <use x="322.460938" xlink:href="#ArialMT-32"/>
     <use x="350.244141" xlink:href="#ArialMT-119"/>
     <use x="422.460938" xlink:href="#ArialMT-97"/>
     <use x="478.076172" xlink:href="#ArialMT-114"/>
     <use x="511.376953" xlink:href="#ArialMT-116"/>
     <use x="539.160156" xlink:href="#ArialMT-111"/>
     <use x="594.775391" xlink:href="#ArialMT-347"/>
     <use x="644.775391" xlink:href="#ArialMT-263"/>
     <use x="694.775391" xlink:href="#ArialMT-32"/>
     <use x="722.558594" xlink:href="#ArialMT-116"/>
     <use x="750.341797" xlink:href="#ArialMT-114"/>
     <use x="783.642578" xlink:href="#ArialMT-97"/>
     <use x="839.257812" xlink:href="#ArialMT-110"/>
     <use x="894.873047" xlink:href="#ArialMT-115"/>
     <use x="944.873047" xlink:href="#ArialMT-97"/>
     <use x="1000.488281" xlink:href="#ArialMT-107"/>
     <use x="1050.488281" xlink:href="#ArialMT-99"/>
     <use x="1100.488281" xlink:href="#ArialMT-106"/>
     <use x="1122.705078" xlink:href="#ArialMT-105"/>
     <use x="1144.921875" xlink:href="#ArialMT-32"/>
     <use x="1172.705078" xlink:href="#ArialMT-122"/>
     <use x="1222.705078" xlink:href="#ArialMT-101"/>
     <use x="1278.320312" xlink:href="#ArialMT-32"/>
     <use x="1306.103516" xlink:href="#ArialMT-122"/>
     <use x="1356.103516" xlink:href="#ArialMT-98"/>
     <use x="1411.71875" xlink:href="#ArialMT-105"/>
     <use x="1433.935547" xlink:href="#ArialMT-111"/>
     <use x="1489.550781" xlink:href="#ArialMT-114"/>
     <use x="1522.851562" xlink:href="#ArialMT-117"/>
     <use x="1578.466797" xlink:href="#ArialMT-32"/>
     <use x="1606.25" xlink:href="#ArialMT-77"/>
     <use x="1689.550781" xlink:href="#ArialMT-111"/>
     <use x="1745.166016" xlink:href="#ArialMT-110"/>
     <use x="1800.78125" xlink:href="#ArialMT-103"/>
     <use x="1856.396484" xlink:href="#ArialMT-111"/>
     <use x="1912.011719" xlink:href="#ArialMT-68"/>
     <use x="1984.228516" xlink:href="#ArialMT-66"/>
     <use x="2050.927734" xlink:href="#ArialMT-32"/>
     <use x="2078.632812" xlink:href="#ArialMT-65"/>
     <use x="2145.332031" xlink:href="#ArialMT-116"/>
     <use x="2173.115234" xlink:href="#ArialMT-108"/>
     <use x="2195.332031" xlink:href="#ArialMT-97"/>
     <use x="2250.947266" xlink:href="#ArialMT-115"/>
     <use x="2300.947266" xlink:href="#ArialMT-32"/>
     <use x="2328.730469" xlink:href="#ArialMT-83"/>
     <use x="2395.429688" xlink:href="#ArialMT-117"/>
     <use x="2451.044922" xlink:href="#ArialMT-112"/>
     <use x="2506.660156" xlink:href="#ArialMT-112"/>
     <use x="2562.275391" xlink:href="#ArialMT-108"/>
     <use x="2584.492188" xlink:href="#ArialMT-121"/>
     <use x="2634.492188" xlink:href="#ArialMT-32"/>
     <use x="2662.275391" xlink:href="#ArialMT-83"/>
     <use x="2728.974609" xlink:href="#ArialMT-116"/>
     <use x="2756.757812" xlink:href="#ArialMT-111"/>
     <use x="2812.373047" xlink:href="#ArialMT-114"/>
     <use x="2845.673828" xlink:href="#ArialMT-101"/>
     <use x="2901.289062" xlink:href="#ArialMT-32"/>
     <use x="2929.072266" xlink:href="#ArialMT-119"/>
     <use x="3001.289062" xlink:href="#ArialMT-32"/>
     <use x="3029.072266" xlink:href="#ArialMT-100"/>
     <use x="3084.6875" xlink:href="#ArialMT-110"/>
     <use x="3140.302734" xlink:href="#ArialMT-105"/>
     <use x="3162.519531" xlink:href="#ArialMT-97"/>
     <use x="3218.134766" xlink:href="#ArialMT-99"/>
     <use x="3268.134766" xlink:href="#ArialMT-104"/>
     <use x="3323.75" xlink:href="#ArialMT-32"/>
     <use x="3351.533203" xlink:href="#ArialMT-50"/>
     <use x="3407.148438" xlink:href="#ArialMT-48"/>
     <use x="3462.763672" xlink:href="#ArialMT-49"/>
     <use x="3518.378906" xlink:href="#ArialMT-52"/>
     <use x="3573.994141" xlink:href="#ArialMT-45"/>
     <use x="3607.294922" xlink:href="#ArialMT-48"/>
     <use x="3662.910156" xlink:href="#ArialMT-49"/>
     <use x="3718.525391" xlink:href="#ArialMT-45"/>
     <use x="3751.826172" xlink:href="#ArialMT-48"/>
     <use x="3807.441406" xlink:href="#ArialMT-49"/>
     <use x="3863.056641" xlink:href="#ArialMT-32"/>
     <use x="3890.839844" xlink:href="#ArialMT-45"/>
     <use x="3924.140625" xlink:href="#ArialMT-32"/>
     <use x="3951.923828" xlink:href="#ArialMT-50"/>
     <use x="4007.539062" xlink:href="#ArialMT-48"/>
     <use x="4063.154297" xlink:href="#ArialMT-49"/>
     <use x="4118.769531" xlink:href="#ArialMT-52"/>
     <use x="4174.384766" xlink:href="#ArialMT-45"/>
     <use x="4207.685547" xlink:href="#ArialMT-49"/>
     <use x="4263.300781" xlink:href="#ArialMT-50"/>
     <use x="4318.916016" xlink:href="#ArialMT-45"/>
     <use x="4352.216797" xlink:href="#ArialMT-51"/>
     <use x="4407.832031" xlink:href="#ArialMT-49"/>
     <use x="4463.447266" xlink:href="#ArialMT-32"/>
     <use x="4491.230469" xlink:href="#ArialMT-119"/>
     <use x="4563.447266" xlink:href="#ArialMT-32"/>
     <use x="4591.230469" xlink:href="#ArialMT-80"/>
     <use x="4657.929688" xlink:href="#ArialMT-76"/>
     <use x="4713.544922" xlink:href="#ArialMT-78"/>
     <use x="4785.761719" xlink:href="#ArialMT-32"/>
     <use x="4813.544922" xlink:href="#ArialMT-105"/>
     <use x="4835.761719" xlink:href="#ArialMT-32"/>
     <use x="4863.544922" xlink:href="#ArialMT-85"/>
     <use x="4935.761719" xlink:href="#ArialMT-83"/>
     <use x="5002.460938" xlink:href="#ArialMT-68"/>
    </g>
   </g>
   <g id="legend_1">
    <g id="patch_7">
     <path d="M 711.474531 91.759687 
L 769.9 91.759687 
Q 772.1 91.759687 772.1 89.559687 
L 772.1 59.54 
Q 772.1 57.34 769.9 57.34 
L 711.474531 57.34 
Q 709.274531 57.34 709.274531 59.54 
L 709.274531 89.559687 
Q 709.274531 91.759687 711.474531 91.759687 
z
" style="fill:#eaeaf2;opacity:0.8;stroke:#cccccc;stroke-linejoin:miter;"/>
    </g>
    <g id="line2d_25">
     <path d="M 713.674531 65.763594 
L 735.674531 65.763594 
" style="fill:none;stroke:#008000;stroke-linecap:round;"/>
    </g>
    <g id="line2d_26"/>
    <g id="text_26">
     <!-- USD -->
     <g style="fill:#262626;" transform="translate(744.474531 69.613594)scale(0.11 -0.11)">
      <use xlink:href="#ArialMT-85"/>
      <use x="72.216797" xlink:href="#ArialMT-83"/>
      <use x="138.916016" xlink:href="#ArialMT-68"/>
     </g>
    </g>
    <g id="line2d_27">
     <path d="M 713.674531 81.323438 
L 735.674531 81.323438 
" style="fill:none;stroke:#ff0000;stroke-linecap:round;"/>
    </g>
    <g id="line2d_28"/>
    <g id="text_27">
     <!-- PLN -->
     <g style="fill:#262626;" transform="translate(744.474531 85.173438)scale(0.11 -0.11)">
      <use xlink:href="#ArialMT-80"/>
      <use x="66.699219" xlink:href="#ArialMT-76"/>
      <use x="122.314453" xlink:href="#ArialMT-78"/>
     </g>
    </g>
   </g>
  </g>
 </g>
 <defs>
  <clipPath id="p980095c03e">
   <rect height="315.36" width="669.6" x="108" y="51.84"/>
  </clipPath>
 </defs>
</svg>
