<?xml version="1.0" encoding="utf-8" standalone="no"?>
<!DOCTYPE svg PUBLIC "-//W3C//DTD SVG 1.1//EN"
  "http://www.w3.org/Graphics/SVG/1.1/DTD/svg11.dtd">
<!-- Created with matplotlib (https://matplotlib.org/) -->
<svg height="432pt" version="1.1" viewBox="0 0 1152 432" width="1152pt" xmlns="http://www.w3.org/2000/svg" xmlns:xlink="http://www.w3.org/1999/xlink">
 <defs>
  <style type="text/css">
*{stroke-linecap:butt;stroke-linejoin:round;}
  </style>
 </defs>
 <g id="figure_1">
  <g id="patch_1">
   <path d="M 0 432 
L 1152 432 
L 1152 0 
L 0 0 
z
" style="fill:#ffffff;"/>
  </g>
  <g id="axes_1">
   <g id="patch_2">
    <path d="M 144 384.48 
L 1036.8 384.48 
L 1036.8 51.84 
L 144 51.84 
z
" style="fill:#ffffff;"/>
   </g>
   <g id="matplotlib.axis_1">
    <g id="xtick_1">
     <g id="line2d_1">
      <defs>
       <path d="M 0 0 
L 0 3.5 
" id="m487de4e13f" style="stroke:#000000;stroke-width:0.8;"/>
      </defs>
      <g>
       <use style="stroke:#000000;stroke-width:0.8;" x="184.581818" xlink:href="#m487de4e13f" y="384.48"/>
      </g>
     </g>
     <g id="text_1">
      <!-- 31-05-2011 -->
      <defs>
       <path d="M 40.578125 39.3125 
Q 47.65625 37.796875 51.625 33 
Q 55.609375 28.21875 55.609375 21.1875 
Q 55.609375 10.40625 48.1875 4.484375 
Q 40.765625 -1.421875 27.09375 -1.421875 
Q 22.515625 -1.421875 17.65625 -0.515625 
Q 12.796875 0.390625 7.625 2.203125 
L 7.625 11.71875 
Q 11.71875 9.328125 16.59375 8.109375 
Q 21.484375 6.890625 26.8125 6.890625 
Q 36.078125 6.890625 40.9375 10.546875 
Q 45.796875 14.203125 45.796875 21.1875 
Q 45.796875 27.640625 41.28125 31.265625 
Q 36.765625 34.90625 28.71875 34.90625 
L 20.21875 34.90625 
L 20.21875 43.015625 
L 29.109375 43.015625 
Q 36.375 43.015625 40.234375 45.921875 
Q 44.09375 48.828125 44.09375 54.296875 
Q 44.09375 59.90625 40.109375 62.90625 
Q 36.140625 65.921875 28.71875 65.921875 
Q 24.65625 65.921875 20.015625 65.03125 
Q 15.375 64.15625 9.8125 62.3125 
L 9.8125 71.09375 
Q 15.4375 72.65625 20.34375 73.4375 
Q 25.25 74.21875 29.59375 74.21875 
Q 40.828125 74.21875 47.359375 69.109375 
Q 53.90625 64.015625 53.90625 55.328125 
Q 53.90625 49.265625 50.4375 45.09375 
Q 46.96875 40.921875 40.578125 39.3125 
z
" id="DejaVuSans-51"/>
       <path d="M 12.40625 8.296875 
L 28.515625 8.296875 
L 28.515625 63.921875 
L 10.984375 60.40625 
L 10.984375 69.390625 
L 28.421875 72.90625 
L 38.28125 72.90625 
L 38.28125 8.296875 
L 54.390625 8.296875 
L 54.390625 0 
L 12.40625 0 
z
" id="DejaVuSans-49"/>
       <path d="M 4.890625 31.390625 
L 31.203125 31.390625 
L 31.203125 23.390625 
L 4.890625 23.390625 
z
" id="DejaVuSans-45"/>
       <path d="M 31.78125 66.40625 
Q 24.171875 66.40625 20.328125 58.90625 
Q 16.5 51.421875 16.5 36.375 
Q 16.5 21.390625 20.328125 13.890625 
Q 24.171875 6.390625 31.78125 6.390625 
Q 39.453125 6.390625 43.28125 13.890625 
Q 47.125 21.390625 47.125 36.375 
Q 47.125 51.421875 43.28125 58.90625 
Q 39.453125 66.40625 31.78125 66.40625 
z
M 31.78125 74.21875 
Q 44.046875 74.21875 50.515625 64.515625 
Q 56.984375 54.828125 56.984375 36.375 
Q 56.984375 17.96875 50.515625 8.265625 
Q 44.046875 -1.421875 31.78125 -1.421875 
Q 19.53125 -1.421875 13.0625 8.265625 
Q 6.59375 17.96875 6.59375 36.375 
Q 6.59375 54.828125 13.0625 64.515625 
Q 19.53125 74.21875 31.78125 74.21875 
z
" id="DejaVuSans-48"/>
       <path d="M 10.796875 72.90625 
L 49.515625 72.90625 
L 49.515625 64.59375 
L 19.828125 64.59375 
L 19.828125 46.734375 
Q 21.96875 47.46875 24.109375 47.828125 
Q 26.265625 48.1875 28.421875 48.1875 
Q 40.625 48.1875 47.75 41.5 
Q 54.890625 34.8125 54.890625 23.390625 
Q 54.890625 11.625 47.5625 5.09375 
Q 40.234375 -1.421875 26.90625 -1.421875 
Q 22.3125 -1.421875 17.546875 -0.640625 
Q 12.796875 0.140625 7.71875 1.703125 
L 7.71875 11.625 
Q 12.109375 9.234375 16.796875 8.0625 
Q 21.484375 6.890625 26.703125 6.890625 
Q 35.15625 6.890625 40.078125 11.328125 
Q 45.015625 15.765625 45.015625 23.390625 
Q 45.015625 31 40.078125 35.4375 
Q 35.15625 39.890625 26.703125 39.890625 
Q 22.75 39.890625 18.8125 39.015625 
Q 14.890625 38.140625 10.796875 36.28125 
z
" id="DejaVuSans-53"/>
       <path d="M 19.1875 8.296875 
L 53.609375 8.296875 
L 53.609375 0 
L 7.328125 0 
L 7.328125 8.296875 
Q 12.9375 14.109375 22.625 23.890625 
Q 32.328125 33.6875 34.8125 36.53125 
Q 39.546875 41.84375 41.421875 45.53125 
Q 43.3125 49.21875 43.3125 52.78125 
Q 43.3125 58.59375 39.234375 62.25 
Q 35.15625 65.921875 28.609375 65.921875 
Q 23.96875 65.921875 18.8125 64.3125 
Q 13.671875 62.703125 7.8125 59.421875 
L 7.8125 69.390625 
Q 13.765625 71.78125 18.9375 73 
Q 24.125 74.21875 28.421875 74.21875 
Q 39.75 74.21875 46.484375 68.546875 
Q 53.21875 62.890625 53.21875 53.421875 
Q 53.21875 48.921875 51.53125 44.890625 
Q 49.859375 40.875 45.40625 35.40625 
Q 44.1875 33.984375 37.640625 27.21875 
Q 31.109375 20.453125 19.1875 8.296875 
z
" id="DejaVuSans-50"/>
      </defs>
      <g transform="translate(173.424336 419.360116)rotate(-45)scale(0.06 -0.06)">
       <use xlink:href="#DejaVuSans-51"/>
       <use x="63.623047" xlink:href="#DejaVuSans-49"/>
       <use x="127.246094" xlink:href="#DejaVuSans-45"/>
       <use x="163.330078" xlink:href="#DejaVuSans-48"/>
       <use x="226.953125" xlink:href="#DejaVuSans-53"/>
       <use x="290.576172" xlink:href="#DejaVuSans-45"/>
       <use x="326.660156" xlink:href="#DejaVuSans-50"/>
       <use x="390.283203" xlink:href="#DejaVuSans-48"/>
       <use x="453.90625" xlink:href="#DejaVuSans-49"/>
       <use x="517.529297" xlink:href="#DejaVuSans-49"/>
      </g>
     </g>
    </g>
    <g id="xtick_2">
     <g id="line2d_2">
      <g>
       <use style="stroke:#000000;stroke-width:0.8;" x="256.85576" xlink:href="#m487de4e13f" y="384.48"/>
      </g>
     </g>
     <g id="text_2">
      <!-- 10-09-2011 -->
      <defs>
       <path d="M 10.984375 1.515625 
L 10.984375 10.5 
Q 14.703125 8.734375 18.5 7.8125 
Q 22.3125 6.890625 25.984375 6.890625 
Q 35.75 6.890625 40.890625 13.453125 
Q 46.046875 20.015625 46.78125 33.40625 
Q 43.953125 29.203125 39.59375 26.953125 
Q 35.25 24.703125 29.984375 24.703125 
Q 19.046875 24.703125 12.671875 31.3125 
Q 6.296875 37.9375 6.296875 49.421875 
Q 6.296875 60.640625 12.9375 67.421875 
Q 19.578125 74.21875 30.609375 74.21875 
Q 43.265625 74.21875 49.921875 64.515625 
Q 56.59375 54.828125 56.59375 36.375 
Q 56.59375 19.140625 48.40625 8.859375 
Q 40.234375 -1.421875 26.421875 -1.421875 
Q 22.703125 -1.421875 18.890625 -0.6875 
Q 15.09375 0.046875 10.984375 1.515625 
z
M 30.609375 32.421875 
Q 37.25 32.421875 41.125 36.953125 
Q 45.015625 41.5 45.015625 49.421875 
Q 45.015625 57.28125 41.125 61.84375 
Q 37.25 66.40625 30.609375 66.40625 
Q 23.96875 66.40625 20.09375 61.84375 
Q 16.21875 57.28125 16.21875 49.421875 
Q 16.21875 41.5 20.09375 36.953125 
Q 23.96875 32.421875 30.609375 32.421875 
z
" id="DejaVuSans-57"/>
      </defs>
      <g transform="translate(245.698278 419.360116)rotate(-45)scale(0.06 -0.06)">
       <use xlink:href="#DejaVuSans-49"/>
       <use x="63.623047" xlink:href="#DejaVuSans-48"/>
       <use x="127.246094" xlink:href="#DejaVuSans-45"/>
       <use x="163.330078" xlink:href="#DejaVuSans-48"/>
       <use x="226.953125" xlink:href="#DejaVuSans-57"/>
       <use x="290.576172" xlink:href="#DejaVuSans-45"/>
       <use x="326.660156" xlink:href="#DejaVuSans-50"/>
       <use x="390.283203" xlink:href="#DejaVuSans-48"/>
       <use x="453.90625" xlink:href="#DejaVuSans-49"/>
       <use x="517.529297" xlink:href="#DejaVuSans-49"/>
      </g>
     </g>
    </g>
    <g id="xtick_3">
     <g id="line2d_3">
      <g>
       <use style="stroke:#000000;stroke-width:0.8;" x="329.129701" xlink:href="#m487de4e13f" y="384.48"/>
      </g>
     </g>
     <g id="text_3">
      <!-- 20-12-2011 -->
      <g transform="translate(317.972219 419.360116)rotate(-45)scale(0.06 -0.06)">
       <use xlink:href="#DejaVuSans-50"/>
       <use x="63.623047" xlink:href="#DejaVuSans-48"/>
       <use x="127.246094" xlink:href="#DejaVuSans-45"/>
       <use x="163.330078" xlink:href="#DejaVuSans-49"/>
       <use x="226.953125" xlink:href="#DejaVuSans-50"/>
       <use x="290.576172" xlink:href="#DejaVuSans-45"/>
       <use x="326.660156" xlink:href="#DejaVuSans-50"/>
       <use x="390.283203" xlink:href="#DejaVuSans-48"/>
       <use x="453.90625" xlink:href="#DejaVuSans-49"/>
       <use x="517.529297" xlink:href="#DejaVuSans-49"/>
      </g>
     </g>
    </g>
    <g id="xtick_4">
     <g id="line2d_4">
      <g>
       <use style="stroke:#000000;stroke-width:0.8;" x="401.403643" xlink:href="#m487de4e13f" y="384.48"/>
      </g>
     </g>
     <g id="text_4">
      <!-- 29-03-2012 -->
      <g transform="translate(390.246161 419.360116)rotate(-45)scale(0.06 -0.06)">
       <use xlink:href="#DejaVuSans-50"/>
       <use x="63.623047" xlink:href="#DejaVuSans-57"/>
       <use x="127.246094" xlink:href="#DejaVuSans-45"/>
       <use x="163.330078" xlink:href="#DejaVuSans-48"/>
       <use x="226.953125" xlink:href="#DejaVuSans-51"/>
       <use x="290.576172" xlink:href="#DejaVuSans-45"/>
       <use x="326.660156" xlink:href="#DejaVuSans-50"/>
       <use x="390.283203" xlink:href="#DejaVuSans-48"/>
       <use x="453.90625" xlink:href="#DejaVuSans-49"/>
       <use x="517.529297" xlink:href="#DejaVuSans-50"/>
      </g>
     </g>
    </g>
    <g id="xtick_5">
     <g id="line2d_5">
      <g>
       <use style="stroke:#000000;stroke-width:0.8;" x="473.677584" xlink:href="#m487de4e13f" y="384.48"/>
      </g>
     </g>
     <g id="text_5">
      <!-- 07-07-2012 -->
      <defs>
       <path d="M 8.203125 72.90625 
L 55.078125 72.90625 
L 55.078125 68.703125 
L 28.609375 0 
L 18.3125 0 
L 43.21875 64.59375 
L 8.203125 64.59375 
z
" id="DejaVuSans-55"/>
      </defs>
      <g transform="translate(462.520102 419.360116)rotate(-45)scale(0.06 -0.06)">
       <use xlink:href="#DejaVuSans-48"/>
       <use x="63.623047" xlink:href="#DejaVuSans-55"/>
       <use x="127.246094" xlink:href="#DejaVuSans-45"/>
       <use x="163.330078" xlink:href="#DejaVuSans-48"/>
       <use x="226.953125" xlink:href="#DejaVuSans-55"/>
       <use x="290.576172" xlink:href="#DejaVuSans-45"/>
       <use x="326.660156" xlink:href="#DejaVuSans-50"/>
       <use x="390.283203" xlink:href="#DejaVuSans-48"/>
       <use x="453.90625" xlink:href="#DejaVuSans-49"/>
       <use x="517.529297" xlink:href="#DejaVuSans-50"/>
      </g>
     </g>
    </g>
    <g id="xtick_6">
     <g id="line2d_6">
      <g>
       <use style="stroke:#000000;stroke-width:0.8;" x="545.951526" xlink:href="#m487de4e13f" y="384.48"/>
      </g>
     </g>
     <g id="text_6">
      <!-- 15-10-2012 -->
      <g transform="translate(534.794044 419.360116)rotate(-45)scale(0.06 -0.06)">
       <use xlink:href="#DejaVuSans-49"/>
       <use x="63.623047" xlink:href="#DejaVuSans-53"/>
       <use x="127.246094" xlink:href="#DejaVuSans-45"/>
       <use x="163.330078" xlink:href="#DejaVuSans-49"/>
       <use x="226.953125" xlink:href="#DejaVuSans-48"/>
       <use x="290.576172" xlink:href="#DejaVuSans-45"/>
       <use x="326.660156" xlink:href="#DejaVuSans-50"/>
       <use x="390.283203" xlink:href="#DejaVuSans-48"/>
       <use x="453.90625" xlink:href="#DejaVuSans-49"/>
       <use x="517.529297" xlink:href="#DejaVuSans-50"/>
      </g>
     </g>
    </g>
    <g id="xtick_7">
     <g id="line2d_7">
      <g>
       <use style="stroke:#000000;stroke-width:0.8;" x="618.225467" xlink:href="#m487de4e13f" y="384.48"/>
      </g>
     </g>
     <g id="text_7">
      <!-- 23-01-2013 -->
      <g transform="translate(607.067985 419.360116)rotate(-45)scale(0.06 -0.06)">
       <use xlink:href="#DejaVuSans-50"/>
       <use x="63.623047" xlink:href="#DejaVuSans-51"/>
       <use x="127.246094" xlink:href="#DejaVuSans-45"/>
       <use x="163.330078" xlink:href="#DejaVuSans-48"/>
       <use x="226.953125" xlink:href="#DejaVuSans-49"/>
       <use x="290.576172" xlink:href="#DejaVuSans-45"/>
       <use x="326.660156" xlink:href="#DejaVuSans-50"/>
       <use x="390.283203" xlink:href="#DejaVuSans-48"/>
       <use x="453.90625" xlink:href="#DejaVuSans-49"/>
       <use x="517.529297" xlink:href="#DejaVuSans-51"/>
      </g>
     </g>
    </g>
    <g id="xtick_8">
     <g id="line2d_8">
      <g>
       <use style="stroke:#000000;stroke-width:0.8;" x="690.499409" xlink:href="#m487de4e13f" y="384.48"/>
      </g>
     </g>
     <g id="text_8">
      <!-- 03-05-2013 -->
      <g transform="translate(679.341927 419.360116)rotate(-45)scale(0.06 -0.06)">
       <use xlink:href="#DejaVuSans-48"/>
       <use x="63.623047" xlink:href="#DejaVuSans-51"/>
       <use x="127.246094" xlink:href="#DejaVuSans-45"/>
       <use x="163.330078" xlink:href="#DejaVuSans-48"/>
       <use x="226.953125" xlink:href="#DejaVuSans-53"/>
       <use x="290.576172" xlink:href="#DejaVuSans-45"/>
       <use x="326.660156" xlink:href="#DejaVuSans-50"/>
       <use x="390.283203" xlink:href="#DejaVuSans-48"/>
       <use x="453.90625" xlink:href="#DejaVuSans-49"/>
       <use x="517.529297" xlink:href="#DejaVuSans-51"/>
      </g>
     </g>
    </g>
    <g id="xtick_9">
     <g id="line2d_9">
      <g>
       <use style="stroke:#000000;stroke-width:0.8;" x="762.773351" xlink:href="#m487de4e13f" y="384.48"/>
      </g>
     </g>
     <g id="text_9">
      <!-- 11-08-2013 -->
      <defs>
       <path d="M 31.78125 34.625 
Q 24.75 34.625 20.71875 30.859375 
Q 16.703125 27.09375 16.703125 20.515625 
Q 16.703125 13.921875 20.71875 10.15625 
Q 24.75 6.390625 31.78125 6.390625 
Q 38.8125 6.390625 42.859375 10.171875 
Q 46.921875 13.96875 46.921875 20.515625 
Q 46.921875 27.09375 42.890625 30.859375 
Q 38.875 34.625 31.78125 34.625 
z
M 21.921875 38.8125 
Q 15.578125 40.375 12.03125 44.71875 
Q 8.5 49.078125 8.5 55.328125 
Q 8.5 64.0625 14.71875 69.140625 
Q 20.953125 74.21875 31.78125 74.21875 
Q 42.671875 74.21875 48.875 69.140625 
Q 55.078125 64.0625 55.078125 55.328125 
Q 55.078125 49.078125 51.53125 44.71875 
Q 48 40.375 41.703125 38.8125 
Q 48.828125 37.15625 52.796875 32.3125 
Q 56.78125 27.484375 56.78125 20.515625 
Q 56.78125 9.90625 50.3125 4.234375 
Q 43.84375 -1.421875 31.78125 -1.421875 
Q 19.734375 -1.421875 13.25 4.234375 
Q 6.78125 9.90625 6.78125 20.515625 
Q 6.78125 27.484375 10.78125 32.3125 
Q 14.796875 37.15625 21.921875 38.8125 
z
M 18.3125 54.390625 
Q 18.3125 48.734375 21.84375 45.5625 
Q 25.390625 42.390625 31.78125 42.390625 
Q 38.140625 42.390625 41.71875 45.5625 
Q 45.3125 48.734375 45.3125 54.390625 
Q 45.3125 60.0625 41.71875 63.234375 
Q 38.140625 66.40625 31.78125 66.40625 
Q 25.390625 66.40625 21.84375 63.234375 
Q 18.3125 60.0625 18.3125 54.390625 
z
" id="DejaVuSans-56"/>
      </defs>
      <g transform="translate(751.615869 419.360116)rotate(-45)scale(0.06 -0.06)">
       <use xlink:href="#DejaVuSans-49"/>
       <use x="63.623047" xlink:href="#DejaVuSans-49"/>
       <use x="127.246094" xlink:href="#DejaVuSans-45"/>
       <use x="163.330078" xlink:href="#DejaVuSans-48"/>
       <use x="226.953125" xlink:href="#DejaVuSans-56"/>
       <use x="290.576172" xlink:href="#DejaVuSans-45"/>
       <use x="326.660156" xlink:href="#DejaVuSans-50"/>
       <use x="390.283203" xlink:href="#DejaVuSans-48"/>
       <use x="453.90625" xlink:href="#DejaVuSans-49"/>
       <use x="517.529297" xlink:href="#DejaVuSans-51"/>
      </g>
     </g>
    </g>
    <g id="xtick_10">
     <g id="line2d_10">
      <g>
       <use style="stroke:#000000;stroke-width:0.8;" x="835.047292" xlink:href="#m487de4e13f" y="384.48"/>
      </g>
     </g>
     <g id="text_10">
      <!-- 19-11-2013 -->
      <g transform="translate(823.88981 419.360116)rotate(-45)scale(0.06 -0.06)">
       <use xlink:href="#DejaVuSans-49"/>
       <use x="63.623047" xlink:href="#DejaVuSans-57"/>
       <use x="127.246094" xlink:href="#DejaVuSans-45"/>
       <use x="163.330078" xlink:href="#DejaVuSans-49"/>
       <use x="226.953125" xlink:href="#DejaVuSans-49"/>
       <use x="290.576172" xlink:href="#DejaVuSans-45"/>
       <use x="326.660156" xlink:href="#DejaVuSans-50"/>
       <use x="390.283203" xlink:href="#DejaVuSans-48"/>
       <use x="453.90625" xlink:href="#DejaVuSans-49"/>
       <use x="517.529297" xlink:href="#DejaVuSans-51"/>
      </g>
     </g>
    </g>
    <g id="xtick_11">
     <g id="line2d_11">
      <g>
       <use style="stroke:#000000;stroke-width:0.8;" x="907.321234" xlink:href="#m487de4e13f" y="384.48"/>
      </g>
     </g>
     <g id="text_11">
      <!-- 27-02-2014 -->
      <defs>
       <path d="M 37.796875 64.3125 
L 12.890625 25.390625 
L 37.796875 25.390625 
z
M 35.203125 72.90625 
L 47.609375 72.90625 
L 47.609375 25.390625 
L 58.015625 25.390625 
L 58.015625 17.1875 
L 47.609375 17.1875 
L 47.609375 0 
L 37.796875 0 
L 37.796875 17.1875 
L 4.890625 17.1875 
L 4.890625 26.703125 
z
" id="DejaVuSans-52"/>
      </defs>
      <g transform="translate(896.163752 419.360116)rotate(-45)scale(0.06 -0.06)">
       <use xlink:href="#DejaVuSans-50"/>
       <use x="63.623047" xlink:href="#DejaVuSans-55"/>
       <use x="127.246094" xlink:href="#DejaVuSans-45"/>
       <use x="163.330078" xlink:href="#DejaVuSans-48"/>
       <use x="226.953125" xlink:href="#DejaVuSans-50"/>
       <use x="290.576172" xlink:href="#DejaVuSans-45"/>
       <use x="326.660156" xlink:href="#DejaVuSans-50"/>
       <use x="390.283203" xlink:href="#DejaVuSans-48"/>
       <use x="453.90625" xlink:href="#DejaVuSans-49"/>
       <use x="517.529297" xlink:href="#DejaVuSans-52"/>
      </g>
     </g>
    </g>
    <g id="xtick_12">
     <g id="line2d_12">
      <g>
       <use style="stroke:#000000;stroke-width:0.8;" x="979.595175" xlink:href="#m487de4e13f" y="384.48"/>
      </g>
     </g>
     <g id="text_12">
      <!-- 07-06-2014 -->
      <defs>
       <path d="M 33.015625 40.375 
Q 26.375 40.375 22.484375 35.828125 
Q 18.609375 31.296875 18.609375 23.390625 
Q 18.609375 15.53125 22.484375 10.953125 
Q 26.375 6.390625 33.015625 6.390625 
Q 39.65625 6.390625 43.53125 10.953125 
Q 47.40625 15.53125 47.40625 23.390625 
Q 47.40625 31.296875 43.53125 35.828125 
Q 39.65625 40.375 33.015625 40.375 
z
M 52.59375 71.296875 
L 52.59375 62.3125 
Q 48.875 64.0625 45.09375 64.984375 
Q 41.3125 65.921875 37.59375 65.921875 
Q 27.828125 65.921875 22.671875 59.328125 
Q 17.53125 52.734375 16.796875 39.40625 
Q 19.671875 43.65625 24.015625 45.921875 
Q 28.375 48.1875 33.59375 48.1875 
Q 44.578125 48.1875 50.953125 41.515625 
Q 57.328125 34.859375 57.328125 23.390625 
Q 57.328125 12.15625 50.6875 5.359375 
Q 44.046875 -1.421875 33.015625 -1.421875 
Q 20.359375 -1.421875 13.671875 8.265625 
Q 6.984375 17.96875 6.984375 36.375 
Q 6.984375 53.65625 15.1875 63.9375 
Q 23.390625 74.21875 37.203125 74.21875 
Q 40.921875 74.21875 44.703125 73.484375 
Q 48.484375 72.75 52.59375 71.296875 
z
" id="DejaVuSans-54"/>
      </defs>
      <g transform="translate(968.437693 419.360116)rotate(-45)scale(0.06 -0.06)">
       <use xlink:href="#DejaVuSans-48"/>
       <use x="63.623047" xlink:href="#DejaVuSans-55"/>
       <use x="127.246094" xlink:href="#DejaVuSans-45"/>
       <use x="163.330078" xlink:href="#DejaVuSans-48"/>
       <use x="226.953125" xlink:href="#DejaVuSans-54"/>
       <use x="290.576172" xlink:href="#DejaVuSans-45"/>
       <use x="326.660156" xlink:href="#DejaVuSans-50"/>
       <use x="390.283203" xlink:href="#DejaVuSans-48"/>
       <use x="453.90625" xlink:href="#DejaVuSans-49"/>
       <use x="517.529297" xlink:href="#DejaVuSans-52"/>
      </g>
     </g>
    </g>
    <g id="text_13">
     <!-- Dates -->
     <defs>
      <path d="M 19.671875 64.796875 
L 19.671875 8.109375 
L 31.59375 8.109375 
Q 46.6875 8.109375 53.6875 14.9375 
Q 60.6875 21.78125 60.6875 36.53125 
Q 60.6875 51.171875 53.6875 57.984375 
Q 46.6875 64.796875 31.59375 64.796875 
z
M 9.8125 72.90625 
L 30.078125 72.90625 
Q 51.265625 72.90625 61.171875 64.09375 
Q 71.09375 55.28125 71.09375 36.53125 
Q 71.09375 17.671875 61.125 8.828125 
Q 51.171875 0 30.078125 0 
L 9.8125 0 
z
" id="DejaVuSans-68"/>
      <path d="M 34.28125 27.484375 
Q 23.390625 27.484375 19.1875 25 
Q 14.984375 22.515625 14.984375 16.5 
Q 14.984375 11.71875 18.140625 8.90625 
Q 21.296875 6.109375 26.703125 6.109375 
Q 34.1875 6.109375 38.703125 11.40625 
Q 43.21875 16.703125 43.21875 25.484375 
L 43.21875 27.484375 
z
M 52.203125 31.203125 
L 52.203125 0 
L 43.21875 0 
L 43.21875 8.296875 
Q 40.140625 3.328125 35.546875 0.953125 
Q 30.953125 -1.421875 24.3125 -1.421875 
Q 15.921875 -1.421875 10.953125 3.296875 
Q 6 8.015625 6 15.921875 
Q 6 25.140625 12.171875 29.828125 
Q 18.359375 34.515625 30.609375 34.515625 
L 43.21875 34.515625 
L 43.21875 35.40625 
Q 43.21875 41.609375 39.140625 45 
Q 35.0625 48.390625 27.6875 48.390625 
Q 23 48.390625 18.546875 47.265625 
Q 14.109375 46.140625 10.015625 43.890625 
L 10.015625 52.203125 
Q 14.9375 54.109375 19.578125 55.046875 
Q 24.21875 56 28.609375 56 
Q 40.484375 56 46.34375 49.84375 
Q 52.203125 43.703125 52.203125 31.203125 
z
" id="DejaVuSans-97"/>
      <path d="M 18.3125 70.21875 
L 18.3125 54.6875 
L 36.8125 54.6875 
L 36.8125 47.703125 
L 18.3125 47.703125 
L 18.3125 18.015625 
Q 18.3125 11.328125 20.140625 9.421875 
Q 21.96875 7.515625 27.59375 7.515625 
L 36.8125 7.515625 
L 36.8125 0 
L 27.59375 0 
Q 17.1875 0 13.234375 3.875 
Q 9.28125 7.765625 9.28125 18.015625 
L 9.28125 47.703125 
L 2.6875 47.703125 
L 2.6875 54.6875 
L 9.28125 54.6875 
L 9.28125 70.21875 
z
" id="DejaVuSans-116"/>
      <path d="M 56.203125 29.59375 
L 56.203125 25.203125 
L 14.890625 25.203125 
Q 15.484375 15.921875 20.484375 11.0625 
Q 25.484375 6.203125 34.421875 6.203125 
Q 39.59375 6.203125 44.453125 7.46875 
Q 49.3125 8.734375 54.109375 11.28125 
L 54.109375 2.78125 
Q 49.265625 0.734375 44.1875 -0.34375 
Q 39.109375 -1.421875 33.890625 -1.421875 
Q 20.796875 -1.421875 13.15625 6.1875 
Q 5.515625 13.8125 5.515625 26.8125 
Q 5.515625 40.234375 12.765625 48.109375 
Q 20.015625 56 32.328125 56 
Q 43.359375 56 49.78125 48.890625 
Q 56.203125 41.796875 56.203125 29.59375 
z
M 47.21875 32.234375 
Q 47.125 39.59375 43.09375 43.984375 
Q 39.0625 48.390625 32.421875 48.390625 
Q 24.90625 48.390625 20.390625 44.140625 
Q 15.875 39.890625 15.1875 32.171875 
z
" id="DejaVuSans-101"/>
      <path d="M 44.28125 53.078125 
L 44.28125 44.578125 
Q 40.484375 46.53125 36.375 47.5 
Q 32.28125 48.484375 27.875 48.484375 
Q 21.1875 48.484375 17.84375 46.4375 
Q 14.5 44.390625 14.5 40.28125 
Q 14.5 37.15625 16.890625 35.375 
Q 19.28125 33.59375 26.515625 31.984375 
L 29.59375 31.296875 
Q 39.15625 29.25 43.1875 25.515625 
Q 47.21875 21.78125 47.21875 15.09375 
Q 47.21875 7.46875 41.1875 3.015625 
Q 35.15625 -1.421875 24.609375 -1.421875 
Q 20.21875 -1.421875 15.453125 -0.5625 
Q 10.6875 0.296875 5.421875 2 
L 5.421875 11.28125 
Q 10.40625 8.6875 15.234375 7.390625 
Q 20.0625 6.109375 24.8125 6.109375 
Q 31.15625 6.109375 34.5625 8.28125 
Q 37.984375 10.453125 37.984375 14.40625 
Q 37.984375 18.0625 35.515625 20.015625 
Q 33.0625 21.96875 24.703125 23.78125 
L 21.578125 24.515625 
Q 13.234375 26.265625 9.515625 29.90625 
Q 5.8125 33.546875 5.8125 39.890625 
Q 5.8125 47.609375 11.28125 51.796875 
Q 16.75 56 26.8125 56 
Q 31.78125 56 36.171875 55.265625 
Q 40.578125 54.546875 44.28125 53.078125 
z
" id="DejaVuSans-115"/>
     </defs>
     <g transform="translate(575.844531 431.84089)scale(0.1 -0.1)">
      <use xlink:href="#DejaVuSans-68"/>
      <use x="77.001953" xlink:href="#DejaVuSans-97"/>
      <use x="138.28125" xlink:href="#DejaVuSans-116"/>
      <use x="177.490234" xlink:href="#DejaVuSans-101"/>
      <use x="239.013672" xlink:href="#DejaVuSans-115"/>
     </g>
    </g>
   </g>
   <g id="matplotlib.axis_2">
    <g id="ytick_1">
     <g id="line2d_13">
      <defs>
       <path d="M 0 0 
L -3.5 0 
" id="mf311852948" style="stroke:#000000;stroke-width:0.8;"/>
      </defs>
      <g>
       <use style="stroke:#000000;stroke-width:0.8;" x="144" xlink:href="#mf311852948" y="369.423365"/>
      </g>
     </g>
     <g id="text_14">
      <!-- 0.0 -->
      <defs>
       <path d="M 10.6875 12.40625 
L 21 12.40625 
L 21 0 
L 10.6875 0 
z
" id="DejaVuSans-46"/>
      </defs>
      <g transform="translate(121.096875 373.222584)scale(0.1 -0.1)">
       <use xlink:href="#DejaVuSans-48"/>
       <use x="63.623047" xlink:href="#DejaVuSans-46"/>
       <use x="95.410156" xlink:href="#DejaVuSans-48"/>
      </g>
     </g>
    </g>
    <g id="ytick_2">
     <g id="line2d_14">
      <g>
       <use style="stroke:#000000;stroke-width:0.8;" x="144" xlink:href="#mf311852948" y="325.903266"/>
      </g>
     </g>
     <g id="text_15">
      <!-- 0.5 -->
      <g transform="translate(121.096875 329.702485)scale(0.1 -0.1)">
       <use xlink:href="#DejaVuSans-48"/>
       <use x="63.623047" xlink:href="#DejaVuSans-46"/>
       <use x="95.410156" xlink:href="#DejaVuSans-53"/>
      </g>
     </g>
    </g>
    <g id="ytick_3">
     <g id="line2d_15">
      <g>
       <use style="stroke:#000000;stroke-width:0.8;" x="144" xlink:href="#mf311852948" y="282.383167"/>
      </g>
     </g>
     <g id="text_16">
      <!-- 1.0 -->
      <g transform="translate(121.096875 286.182386)scale(0.1 -0.1)">
       <use xlink:href="#DejaVuSans-49"/>
       <use x="63.623047" xlink:href="#DejaVuSans-46"/>
       <use x="95.410156" xlink:href="#DejaVuSans-48"/>
      </g>
     </g>
    </g>
    <g id="ytick_4">
     <g id="line2d_16">
      <g>
       <use style="stroke:#000000;stroke-width:0.8;" x="144" xlink:href="#mf311852948" y="238.863068"/>
      </g>
     </g>
     <g id="text_17">
      <!-- 1.5 -->
      <g transform="translate(121.096875 242.662287)scale(0.1 -0.1)">
       <use xlink:href="#DejaVuSans-49"/>
       <use x="63.623047" xlink:href="#DejaVuSans-46"/>
       <use x="95.410156" xlink:href="#DejaVuSans-53"/>
      </g>
     </g>
    </g>
    <g id="ytick_5">
     <g id="line2d_17">
      <g>
       <use style="stroke:#000000;stroke-width:0.8;" x="144" xlink:href="#mf311852948" y="195.342969"/>
      </g>
     </g>
     <g id="text_18">
      <!-- 2.0 -->
      <g transform="translate(121.096875 199.142188)scale(0.1 -0.1)">
       <use xlink:href="#DejaVuSans-50"/>
       <use x="63.623047" xlink:href="#DejaVuSans-46"/>
       <use x="95.410156" xlink:href="#DejaVuSans-48"/>
      </g>
     </g>
    </g>
    <g id="ytick_6">
     <g id="line2d_18">
      <g>
       <use style="stroke:#000000;stroke-width:0.8;" x="144" xlink:href="#mf311852948" y="151.822871"/>
      </g>
     </g>
     <g id="text_19">
      <!-- 2.5 -->
      <g transform="translate(121.096875 155.622089)scale(0.1 -0.1)">
       <use xlink:href="#DejaVuSans-50"/>
       <use x="63.623047" xlink:href="#DejaVuSans-46"/>
       <use x="95.410156" xlink:href="#DejaVuSans-53"/>
      </g>
     </g>
    </g>
    <g id="ytick_7">
     <g id="line2d_19">
      <g>
       <use style="stroke:#000000;stroke-width:0.8;" x="144" xlink:href="#mf311852948" y="108.302772"/>
      </g>
     </g>
     <g id="text_20">
      <!-- 3.0 -->
      <g transform="translate(121.096875 112.10199)scale(0.1 -0.1)">
       <use xlink:href="#DejaVuSans-51"/>
       <use x="63.623047" xlink:href="#DejaVuSans-46"/>
       <use x="95.410156" xlink:href="#DejaVuSans-48"/>
      </g>
     </g>
    </g>
    <g id="ytick_8">
     <g id="line2d_20">
      <g>
       <use style="stroke:#000000;stroke-width:0.8;" x="144" xlink:href="#mf311852948" y="64.782673"/>
      </g>
     </g>
     <g id="text_21">
      <!-- 3.5 -->
      <g transform="translate(121.096875 68.581891)scale(0.1 -0.1)">
       <use xlink:href="#DejaVuSans-51"/>
       <use x="63.623047" xlink:href="#DejaVuSans-46"/>
       <use x="95.410156" xlink:href="#DejaVuSans-53"/>
      </g>
     </g>
    </g>
    <g id="text_22">
     <!-- Sales -->
     <defs>
      <path d="M 53.515625 70.515625 
L 53.515625 60.890625 
Q 47.90625 63.578125 42.921875 64.890625 
Q 37.9375 66.21875 33.296875 66.21875 
Q 25.25 66.21875 20.875 63.09375 
Q 16.5 59.96875 16.5 54.203125 
Q 16.5 49.359375 19.40625 46.890625 
Q 22.3125 44.4375 30.421875 42.921875 
L 36.375 41.703125 
Q 47.40625 39.59375 52.65625 34.296875 
Q 57.90625 29 57.90625 20.125 
Q 57.90625 9.515625 50.796875 4.046875 
Q 43.703125 -1.421875 29.984375 -1.421875 
Q 24.8125 -1.421875 18.96875 -0.25 
Q 13.140625 0.921875 6.890625 3.21875 
L 6.890625 13.375 
Q 12.890625 10.015625 18.65625 8.296875 
Q 24.421875 6.59375 29.984375 6.59375 
Q 38.421875 6.59375 43.015625 9.90625 
Q 47.609375 13.234375 47.609375 19.390625 
Q 47.609375 24.75 44.3125 27.78125 
Q 41.015625 30.8125 33.5 32.328125 
L 27.484375 33.5 
Q 16.453125 35.6875 11.515625 40.375 
Q 6.59375 45.0625 6.59375 53.421875 
Q 6.59375 63.09375 13.40625 68.65625 
Q 20.21875 74.21875 32.171875 74.21875 
Q 37.3125 74.21875 42.625 73.28125 
Q 47.953125 72.359375 53.515625 70.515625 
z
" id="DejaVuSans-83"/>
      <path d="M 9.421875 75.984375 
L 18.40625 75.984375 
L 18.40625 0 
L 9.421875 0 
z
" id="DejaVuSans-108"/>
     </defs>
     <g transform="translate(115.017187 231.468594)rotate(-90)scale(0.1 -0.1)">
      <use xlink:href="#DejaVuSans-83"/>
      <use x="63.476562" xlink:href="#DejaVuSans-97"/>
      <use x="124.755859" xlink:href="#DejaVuSans-108"/>
      <use x="152.539062" xlink:href="#DejaVuSans-101"/>
      <use x="214.0625" xlink:href="#DejaVuSans-115"/>
     </g>
    </g>
    <g id="text_23">
     <!-- 1e6 -->
     <g transform="translate(144 48.84)scale(0.1 -0.1)">
      <use xlink:href="#DejaVuSans-49"/>
      <use x="63.623047" xlink:href="#DejaVuSans-101"/>
      <use x="125.146484" xlink:href="#DejaVuSans-54"/>
     </g>
    </g>
   </g>
   <g id="line2d_21">
    <path clip-path="url(#p1414395b03)" d="M 184.581818 354.801482 
L 185.304558 367.584989 
L 186.027297 365.54381 
L 186.750036 367.702755 
L 187.472776 365.54381 
L 188.195515 365.982144 
L 188.918255 367.26442 
L 189.640994 367.26442 
L 190.363734 366.638601 
L 191.086473 367.616672 
L 191.809212 365.982144 
L 192.531952 366.756367 
L 193.254691 367.702755 
L 193.977431 363.401228 
L 194.70017 367.232738 
L 195.422909 365.982144 
L 196.145649 366.756367 
L 196.868388 368.531377 
L 197.591128 363.737116 
L 198.313867 367.178337 
L 199.759346 364.714142 
L 200.482085 365.54381 
L 201.204825 366.842449 
L 201.927564 366.404115 
L 202.650304 366.670284 
L 203.373043 364.972391 
L 204.095782 364.635458 
L 204.818522 365.950461 
L 205.541261 368.029678 
L 206.264001 365.54381 
L 206.98674 334.66482 
L 207.709479 366.842449 
L 208.432219 367.232738 
L 209.154958 366.670284 
L 209.877698 365.105475 
L 210.600437 364.511339 
L 211.323177 365.982144 
L 212.045916 367.178337 
L 212.768655 367.639389 
L 213.491395 365.864379 
L 214.936874 364.261533 
L 215.659613 366.794403 
L 216.382352 365.982144 
L 217.105092 365.809978 
L 217.827831 368.56306 
L 218.550571 365.090156 
L 219.27331 364.228806 
L 219.99605 365.090156 
L 220.718789 365.026791 
L 221.441528 365.950461 
L 222.164268 367.671072 
L 222.887007 363.651033 
L 223.609747 368.093043 
L 224.332486 364.949673 
L 225.055225 367.702755 
L 225.777965 367.702755 
L 226.500704 364.635458 
L 227.223444 364.949673 
L 227.946183 366.747401 
L 228.668923 345.436566 
L 229.391662 360.820312 
L 230.114401 366.404115 
L 230.837141 365.809978 
L 231.55988 366.842449 
L 232.28262 363.823199 
L 233.005359 365.54381 
L 233.728098 366.842449 
L 234.450838 365.832696 
L 235.173577 366.842449 
L 235.896317 368.476977 
L 236.619056 367.654708 
L 237.341796 365.121839 
L 238.064535 365.982144 
L 238.787274 365.54381 
L 239.510014 367.530589 
L 240.232753 365.121839 
L 240.955493 363.737116 
L 241.678232 367.702755 
L 242.400971 365.761932 
L 243.123711 364.261533 
L 243.84645 363.823199 
L 244.56919 366.842449 
L 245.291929 366.842449 
L 246.014669 365.54381 
L 246.737408 362.086225 
L 247.460147 368.124726 
L 248.182887 368.985031 
L 249.628366 351.594225 
L 250.351105 367.671072 
L 251.073844 365.982144 
L 251.796584 367.702755 
L 252.519323 365.339961 
L 253.242063 368.093043 
L 253.964802 366.404115 
L 254.687541 362.352394 
L 255.410281 362.931211 
L 256.13302 365.121839 
L 256.85576 365.026791 
L 257.578499 360.702547 
L 258.301239 366.231949 
L 259.023978 366.842449 
L 259.746717 368.531377 
L 260.469457 366.34075 
L 261.192196 367.671072 
L 261.914936 363.315145 
L 262.637675 365.54381 
L 263.360414 364.261533 
L 264.083154 366.842449 
L 264.805893 367.178337 
L 265.528633 365.54381 
L 266.251372 368.56306 
L 266.974112 367.702755 
L 267.696851 361.664254 
L 268.41959 365.54381 
L 269.14233 364.111041 
L 269.865069 364.597421 
L 270.587809 369.36 
L 271.310548 333.723915 
L 272.033287 366.842449 
L 272.756027 367.584989 
L 273.478766 365.457727 
L 274.201506 364.597421 
L 274.924245 366.724684 
L 275.646985 362.524559 
L 276.369724 362.540923 
L 277.092463 365.982144 
L 277.815203 365.480444 
L 278.537942 364.261533 
L 279.260682 364.24517 
L 279.983421 366.466436 
L 280.70616 364.534056 
L 281.4289 365.934098 
L 282.151639 364.229851 
L 282.874379 366.404115 
L 283.597118 367.616672 
L 284.319858 364.683504 
L 285.042597 366.318032 
L 285.765336 365.809978 
L 286.488076 368.124726 
L 287.210815 366.404115 
L 287.933555 365.058473 
L 288.656294 367.671072 
L 289.379033 364.683504 
L 290.101773 367.26442 
L 291.547252 365.121839 
L 292.269991 364.683504 
L 292.992731 342.581561 
L 293.71547 363.791516 
L 294.438209 362.423157 
L 295.160949 366.318032 
L 295.883688 365.918779 
L 296.606428 365.121839 
L 297.329167 365.035756 
L 298.051906 358.908561 
L 298.774646 365.896061 
L 299.497385 367.702755 
L 300.220125 360.381978 
L 300.942864 365.982144 
L 301.665603 364.822943 
L 302.388343 365.950461 
L 303.111082 361.124518 
L 303.833822 364.651822 
L 304.556561 367.232738 
L 305.279301 364.261533 
L 306.00204 360.247849 
L 306.724779 364.588456 
L 307.447519 362.860447 
L 308.170258 363.823199 
L 308.892998 362.962894 
L 309.615737 365.54381 
L 310.338476 365.073792 
L 311.061216 363.791516 
L 311.783955 365.982144 
L 312.506695 362.860447 
L 313.229434 364.198168 
L 313.952174 365.778296 
L 314.674913 363.823199 
L 315.397652 351.19384 
L 316.120392 365.982144 
L 316.843131 364.972391 
L 317.565871 365.896061 
L 318.28861 367.26442 
L 319.011349 365.090156 
L 319.734089 366.826086 
L 320.456828 364.565739 
L 321.179568 365.121839 
L 321.902307 366.810767 
L 322.625047 364.112085 
L 323.347786 363.401228 
L 324.070525 367.26442 
L 324.793265 364.003285 
L 325.516004 367.08329 
L 326.238744 365.004073 
L 326.961483 364.565739 
L 327.684222 365.105475 
L 329.129701 364.261533 
L 329.852441 364.949673 
L 330.57518 364.057685 
L 331.29792 366.842449 
L 332.020659 363.737116 
L 332.743398 367.248057 
L 334.188877 366.318032 
L 334.911617 365.934098 
L 335.634356 367.178337 
L 336.357095 362.086225 
L 337.079835 365.480444 
L 337.802574 332.35486 
L 338.525314 364.683504 
L 339.248053 364.229851 
L 339.970793 364.667141 
L 340.693532 366.693001 
L 341.416271 363.282418 
L 342.139011 365.864379 
L 342.86175 366.810767 
L 343.58449 366.842449 
L 344.307229 362.423157 
L 345.029968 359.521672 
L 345.752708 367.671072 
L 346.475447 365.004073 
L 347.198187 363.384864 
L 347.920926 364.261533 
L 348.643666 368.038643 
L 349.366405 365.982144 
L 350.089144 367.702755 
L 350.811884 364.683504 
L 351.534623 365.54381 
L 352.257363 368.56306 
L 352.980102 362.423157 
L 353.702841 365.121839 
L 354.425581 362.102588 
L 355.14832 366.387751 
L 355.87106 360.350295 
L 356.593799 366.842449 
L 357.316538 365.950461 
L 358.039278 339.65614 
L 358.762017 364.597421 
L 359.484757 363.775153 
L 360.207496 363.791516 
L 360.930236 366.842449 
L 361.652975 362.876811 
L 362.375714 364.479656 
L 363.098454 367.639389 
L 363.821193 364.683504 
L 364.543933 367.702755 
L 365.266672 366.693001 
L 365.989411 366.318032 
L 366.712151 364.502374 
L 367.43489 367.178337 
L 368.15763 363.321499 
L 368.880369 365.121839 
L 369.603109 365.621449 
L 370.325848 363.384864 
L 371.048587 366.404115 
L 371.771327 363.229063 
L 372.494066 365.982144 
L 373.216806 366.693001 
L 373.939545 365.950461 
L 374.662284 361.531169 
L 375.385024 365.950461 
L 376.107763 363.298782 
L 376.830503 366.842449 
L 377.553242 362.540923 
L 378.275982 365.090156 
L 378.998721 365.982144 
L 379.72146 367.584989 
L 380.4442 349.811294 
L 381.166939 367.616672 
L 381.889679 362.931211 
L 382.612418 365.058473 
L 383.335157 365.950461 
L 384.057897 366.318032 
L 384.780636 364.181805 
L 385.503376 366.842449 
L 386.226115 365.121839 
L 386.948855 366.372432 
L 387.671594 366.693001 
L 388.394333 361.600889 
L 389.117073 367.584989 
L 389.839812 367.26442 
L 390.562552 359.842241 
L 391.285291 366.552518 
L 392.00803 363.229063 
L 392.73077 363.823199 
L 393.453509 367.232738 
L 394.176249 362.461194 
L 394.898988 367.146655 
L 395.621728 366.756367 
L 396.344467 362.016506 
L 397.067206 367.232738 
L 397.789946 365.761932 
L 398.512685 365.982144 
L 399.235425 362.50924 
L 399.958164 364.667141 
L 400.680903 361.562852 
L 401.403643 361.514806 
L 402.126382 329.058909 
L 402.849122 365.121839 
L 403.571861 365.96578 
L 404.294601 361.562852 
L 405.01734 367.568626 
L 405.740079 365.377998 
L 406.462819 367.146655 
L 407.185558 362.845128 
L 407.908298 365.090156 
L 408.631037 368.093043 
L 409.353776 367.584989 
L 410.076516 362.50924 
L 410.799255 362.234628 
L 411.521995 365.918779 
L 412.244734 363.823199 
L 412.967473 362.883165 
L 413.690213 364.057685 
L 414.412952 363.315145 
L 415.135692 366.70832 
L 415.858431 365.035756 
L 417.30391 365.090156 
L 418.026649 365.058473 
L 418.749389 366.09782 
L 419.472128 363.705434 
L 420.194868 364.683504 
L 420.917607 366.372432 
L 421.640346 366.372432 
L 422.363086 368.56306 
L 423.085825 364.651822 
L 423.808565 368.093043 
L 424.531304 344.196766 
L 425.254044 360.295895 
L 425.976783 368.093043 
L 426.699522 365.426044 
L 427.422262 365.457727 
L 428.145001 365.004073 
L 428.867741 365.339961 
L 429.59048 363.369545 
L 430.313219 366.670284 
L 431.035959 364.565739 
L 431.758698 365.896061 
L 432.481438 361.968459 
L 433.204177 368.428931 
L 433.926917 367.530589 
L 434.649656 365.105475 
L 435.372395 367.702755 
L 436.095135 364.683504 
L 436.817874 363.250736 
L 437.540614 360.740583 
L 438.263353 365.426044 
L 438.986092 362.931211 
L 439.708832 365.896061 
L 440.431571 360.990389 
L 441.154311 364.597421 
L 441.87705 365.896061 
L 442.59979 365.058473 
L 443.322529 362.50924 
L 444.045268 366.372432 
L 444.768008 364.198168 
L 445.490747 366.231949 
L 446.213487 336.512596 
L 446.936226 368.439463 
L 447.658965 361.748335 
L 448.381705 364.721889 
L 449.104444 363.44588 
L 449.827184 363.527959 
L 450.549923 365.034537 
L 451.272663 365.996593 
L 452.718141 367.313163 
L 453.440881 364.626841 
L 454.16362 364.891095 
L 454.88636 363.495841 
L 455.609099 364.464337 
L 456.331838 367.290358 
L 457.054578 366.509521 
L 457.777317 361.972115 
L 458.500057 366.601696 
L 459.222796 364.724935 
L 459.945535 364.706831 
L 460.668275 364.42778 
L 461.391014 364.887004 
L 462.113754 365.775859 
L 462.836493 365.921216 
L 463.559233 364.907198 
L 464.281972 367.309159 
L 465.004711 363.443181 
L 465.727451 366.566793 
L 466.45019 365.55704 
L 467.17293 365.947415 
L 467.895669 364.430827 
L 468.618408 313.666024 
L 469.341148 366.488718 
L 470.063887 366.439105 
L 470.786627 363.900491 
L 471.509366 365.211664 
L 472.232106 362.134706 
L 472.954845 362.81536 
L 473.677584 365.333607 
L 474.400324 365.94637 
L 475.123063 367.691091 
L 475.845803 367.597262 
L 476.568542 364.770196 
L 477.291281 361.467717 
L 478.014021 364.083449 
L 478.73676 363.740685 
L 479.4595 366.47601 
L 480.182239 364.825815 
L 480.904979 365.679766 
L 481.627718 363.239856 
L 482.350457 363.386257 
L 483.073197 364.113217 
L 484.518676 366.202617 
L 485.964154 363.7923 
L 486.686894 364.296872 
L 487.409633 365.12593 
L 488.132373 365.108783 
L 488.855112 366.800322 
L 489.577852 364.888397 
L 490.300591 363.341431 
L 491.02333 323.50235 
L 491.74607 366.54599 
L 492.468809 364.536667 
L 493.191549 366.712498 
L 493.914288 367.24179 
L 494.637027 367.002255 
L 495.359767 368.620681 
L 496.082506 364.973174 
L 496.805246 364.374599 
L 497.527985 365.400977 
L 498.250725 364.900844 
L 498.973464 367.058918 
L 499.696203 365.123667 
L 500.418943 365.995983 
L 501.141682 367.326915 
L 501.864422 367.257892 
L 502.587161 366.821037 
L 503.3099 364.140025 
L 504.03264 366.222375 
L 504.755379 366.980582 
L 505.478119 367.106181 
L 506.200858 367.348675 
L 506.923598 367.18356 
L 507.646337 364.946714 
L 508.369076 367.091384 
L 509.091816 363.28912 
L 509.814555 368.639481 
L 510.537295 368.605971 
L 511.260034 365.106868 
L 511.982773 365.867947 
L 512.705513 336.838649 
L 513.428252 367.941767 
L 514.150992 365.196954 
L 514.873731 365.600647 
L 515.59647 368.060577 
L 516.31921 366.977623 
L 517.041949 366.455207 
L 517.764689 365.221761 
L 518.487428 367.05387 
L 519.210168 367.56645 
L 519.932907 364.61805 
L 520.655646 366.12959 
L 521.378386 362.581309 
L 522.101125 365.466257 
L 522.823865 366.48541 
L 523.546604 366.441542 
L 524.269343 366.812333 
L 524.992083 366.923397 
L 525.714822 363.436653 
L 526.437562 366.144039 
L 527.160301 363.865762 
L 527.883041 366.343013 
L 528.60578 366.977623 
L 529.328519 364.70422 
L 530.051259 367.316992 
L 530.773998 366.265721 
L 531.496738 367.547649 
L 532.219477 366.563747 
L 532.942216 366.697789 
L 533.664956 362.274057 
L 534.387695 367.636778 
L 535.110435 313.935152 
L 535.833174 367.072671 
L 536.555914 366.634162 
L 537.278653 368.638437 
L 538.001392 367.858557 
L 538.724132 365.540328 
L 539.446871 367.219072 
L 540.169611 365.306886 
L 540.89235 367.275648 
L 541.615089 366.288787 
L 542.337829 364.634849 
L 543.060568 366.563747 
L 543.783308 367.326915 
L 544.506047 365.963082 
L 545.228787 367.821042 
L 545.951526 364.900844 
L 546.674265 368.058575 
L 547.397005 366.694742 
L 548.119744 367.436847 
L 548.842484 365.217148 
L 549.565223 367.319952 
L 551.010702 367.219072 
L 551.733441 365.468346 
L 552.456181 365.418733 
L 553.17892 366.458254 
L 553.90166 366.392626 
L 554.624399 366.812333 
L 555.347138 366.069968 
L 556.069878 366.104523 
L 556.792617 318.657692 
L 557.515357 365.234817 
L 558.238096 361.414797 
L 558.960835 368.764123 
L 559.683575 365.173279 
L 560.406314 367.334749 
L 561.129054 362.40601 
L 561.851793 363.647987 
L 562.574533 367.144044 
L 563.297272 366.818948 
L 564.020011 362.563553 
L 564.742751 361.039653 
L 565.46549 364.13576 
L 566.18823 363.261006 
L 566.910969 367.548693 
L 567.633708 367.160842 
L 568.356448 364.947758 
L 569.079187 364.05107 
L 569.801927 362.025035 
L 570.524666 363.721362 
L 571.247405 367.982241 
L 572.692884 363.520299 
L 573.415624 364.012511 
L 574.138363 367.014093 
L 574.861103 365.234904 
L 575.583842 365.122622 
L 576.306581 365.562958 
L 577.029321 363.414371 
L 577.75206 364.378515 
L 578.4748 366.616406 
L 579.197539 337.49293 
L 579.920278 364.536058 
L 580.643018 365.949417 
L 581.365757 364.187201 
L 582.088497 366.528321 
L 582.811236 368.332578 
L 583.533976 365.735385 
L 584.256715 365.309323 
L 584.979454 363.70761 
L 585.702194 366.836182 
L 586.424933 365.885791 
L 587.147673 366.598737 
L 587.870412 364.175277 
L 588.593151 366.941153 
L 589.315891 365.981274 
L 590.03863 364.265711 
L 590.76137 365.944456 
L 591.484109 365.849234 
L 592.206849 366.80067 
L 592.929588 365.59203 
L 593.652327 366.652963 
L 594.375067 365.520309 
L 595.097806 364.012424 
L 595.820546 366.288787 
L 596.543285 367.40029 
L 597.266024 365.06239 
L 597.988764 368.399947 
L 598.711503 366.048208 
L 599.434243 366.240131 
L 600.156982 367.416044 
L 600.879722 365.30088 
L 601.602461 306.357084 
L 602.3252 364.877082 
L 603.04794 367.26973 
L 603.770679 360.827188 
L 604.493419 365.525705 
L 605.216158 364.388351 
L 606.661637 365.157525 
L 607.384376 364.521435 
L 608.107116 365.25266 
L 608.829855 367.636865 
L 609.552595 363.838605 
L 610.275334 363.784379 
L 610.998073 364.799007 
L 611.720813 365.208792 
L 612.443552 367.382621 
L 613.166292 362.735458 
L 613.889031 363.005804 
L 615.33451 366.286785 
L 616.057249 363.937135 
L 616.779989 364.070654 
L 617.502728 368.602924 
L 618.948207 361.343685 
L 619.670946 367.56175 
L 620.393686 367.911825 
L 621.116425 366.783958 
L 621.839165 317.09593 
L 622.561904 363.672097 
L 623.284643 367.073715 
L 624.007383 366.685429 
L 624.730122 360.569984 
L 625.452862 366.448854 
L 626.175601 365.923653 
L 626.89834 362.216263 
L 627.62108 367.619109 
L 628.343819 367.054914 
L 629.066559 366.635207 
L 629.789298 361.38677 
L 630.512038 365.831564 
L 631.234777 366.050296 
L 631.957516 365.708838 
L 632.680256 366.05491 
L 633.402995 364.301224 
L 634.125735 361.626914 
L 634.848474 363.390696 
L 635.571213 366.264067 
L 636.293953 366.854896 
L 637.016692 367.105224 
L 637.739432 367.210107 
L 638.462171 368.200973 
L 639.184911 366.239522 
L 639.90765 366.986936 
L 640.630389 368.367481 
L 641.353129 364.256659 
L 642.075868 364.550072 
L 642.798608 363.516295 
L 643.521347 363.43117 
L 644.244086 337.283685 
L 644.966826 362.824674 
L 645.689565 367.673335 
L 646.412305 365.191036 
L 647.135044 364.679239 
L 647.857784 367.270339 
L 648.580523 365.548162 
L 649.303262 363.308965 
L 650.026002 363.865762 
L 650.748741 367.520057 
L 651.471481 362.991095 
L 652.19422 365.255619 
L 652.916959 363.623268 
L 653.639699 364.876733 
L 655.085178 364.473737 
L 655.807917 363.591324 
L 656.530657 363.938092 
L 657.253396 367.019402 
L 657.976135 366.363206 
L 658.698875 368.40395 
L 659.421614 366.976491 
L 660.144354 367.530937 
L 660.867093 361.963933 
L 661.589832 362.958542 
L 662.312572 366.94507 
L 663.035311 364.329338 
L 663.758051 364.422123 
L 664.48079 366.382529 
L 665.20353 365.73643 
L 665.926269 307.940955 
L 666.649008 364.162917 
L 667.371748 362.480169 
L 668.094487 365.407766 
L 668.817227 365.062477 
L 669.539966 363.759311 
L 670.262705 365.901545 
L 670.985445 363.222273 
L 671.708184 365.792657 
L 672.430924 366.873697 
L 673.153663 364.694994 
L 673.876402 364.730767 
L 674.599142 366.126631 
L 675.321881 364.846705 
L 676.044621 364.790041 
L 676.76736 365.777948 
L 677.4901 366.310547 
L 678.212839 368.093043 
L 678.935578 366.359202 
L 679.658318 365.090156 
L 680.381057 365.304884 
L 681.103797 364.570352 
L 681.826536 365.102951 
L 682.549275 364.66775 
L 683.272015 366.452944 
L 683.994754 365.118096 
L 684.717494 365.814853 
L 685.440233 365.215146 
L 686.162973 365.420125 
L 686.885712 361.52969 
L 687.608451 363.150204 
L 688.331191 321.07123 
L 689.05393 364.244125 
L 689.77667 367.296799 
L 690.499409 366.59334 
L 691.222148 366.92331 
L 691.944888 363.708654 
L 692.667627 364.832865 
L 693.390367 362.240721 
L 694.113106 365.956206 
L 694.835846 361.637358 
L 695.558585 363.904582 
L 697.004064 363.704563 
L 697.726803 364.578621 
L 698.449543 361.745114 
L 699.172282 366.416388 
L 699.895021 365.211838 
L 700.617761 364.795351 
L 701.3405 363.345435 
L 702.06324 364.921037 
L 702.785979 363.625182 
L 703.508719 367.1618 
L 704.231458 364.868378 
L 704.954197 364.321417 
L 705.676937 365.447282 
L 706.399676 367.741749 
L 707.122416 362.404792 
L 707.845155 362.818146 
L 708.567894 367.756545 
L 709.290634 365.032971 
L 710.013373 322.712025 
L 710.736113 364.376688 
L 711.458852 360.874016 
L 712.181592 358.928667 
L 713.62707 367.038638 
L 714.34981 361.326016 
L 715.072549 365.427437 
L 715.795289 361.649283 
L 716.518028 364.299222 
L 717.240767 358.716812 
L 717.963507 362.945224 
L 718.686246 362.403834 
L 720.131725 360.397123 
L 720.854465 362.764094 
L 721.577204 362.095538 
L 722.299943 366.021747 
L 723.022683 363.2409 
L 723.745422 359.906303 
L 724.468162 366.272075 
L 725.190901 361.61673 
L 725.91364 363.296345 
L 726.63638 358.073846 
L 727.359119 363.702996 
L 728.081859 364.487664 
L 728.804598 364.034533 
L 729.527337 364.041409 
L 730.250077 360.650236 
L 730.972816 364.964035 
L 731.695556 361.386596 
L 732.418295 278.347375 
L 733.141035 351.088609 
L 733.863774 349.751671 
L 734.586513 355.31502 
L 735.309253 354.126486 
L 736.031992 354.015858 
L 736.754732 350.737663 
L 737.477471 344.074126 
L 738.20021 353.017768 
L 738.92295 357.007168 
L 739.645689 353.659428 
L 740.368429 348.589946 
L 741.091168 352.104107 
L 741.813908 350.014533 
L 742.536647 360.196495 
L 743.259386 349.278347 
L 743.982126 350.194619 
L 744.704865 351.448085 
L 745.427605 348.970485 
L 746.150344 357.656053 
L 746.873083 351.190968 
L 747.595823 357.296925 
L 748.318562 360.947565 
L 749.041302 348.752189 
L 749.764041 347.972134 
L 750.486781 352.599104 
L 751.20952 354.495101 
L 751.932259 350.459569 
L 752.654999 353.921506 
L 753.377738 351.460967 
L 754.100478 350.154493 
L 754.823217 288.073507 
L 755.545956 350.768214 
L 756.268696 350.294889 
L 756.991435 349.078763 
L 757.714175 354.155644 
L 758.436914 354.560381 
L 759.882393 348.55835 
L 760.605132 346.234812 
L 762.050611 357.04033 
L 762.773351 343.634921 
L 764.218829 349.620415 
L 765.664308 351.471934 
L 767.109787 349.942724 
L 767.832527 340.121283 
L 768.555266 349.606314 
L 769.278005 349.68526 
L 770.000745 350.383496 
L 770.723484 349.148047 
L 771.446224 357.210494 
L 772.168963 354.882691 
L 772.891702 348.974576 
L 773.614442 350.74097 
L 774.337181 351.241277 
L 775.059921 355.964514 
L 775.78266 350.668379 
L 776.505399 314.167201 
L 777.228139 346.910766 
L 777.950878 351.405087 
L 778.673618 351.631914 
L 780.119097 340.72038 
L 780.841836 354.640284 
L 781.564575 342.576861 
L 782.287315 349.817648 
L 783.010054 353.982434 
L 783.732794 352.096795 
L 784.455533 348.530758 
L 785.178272 350.465401 
L 785.901012 348.818339 
L 786.623751 348.114532 
L 787.346491 355.515995 
L 788.06923 353.698161 
L 788.79197 349.470357 
L 789.514709 353.42059 
L 790.237448 348.81538 
L 790.960188 349.788315 
L 791.682927 347.973701 
L 792.405667 347.92226 
L 793.128406 353.206471 
L 794.573885 346.214009 
L 795.296624 353.159991 
L 796.019364 350.32074 
L 796.742103 354.092105 
L 797.464843 353.712261 
L 798.187582 353.077999 
L 798.910321 274.528921 
L 799.633061 353.140494 
L 800.3558 343.299294 
L 801.07854 348.466871 
L 801.801279 349.395938 
L 802.524018 349.004692 
L 803.246758 347.044721 
L 803.969497 353.646546 
L 804.692237 350.470536 
L 805.414976 348.615623 
L 806.137716 358.730912 
L 806.860455 348.987545 
L 807.583194 349.907734 
L 808.305934 348.521793 
L 809.028673 344.090229 
L 809.751413 355.464468 
L 810.474152 350.296195 
L 811.196891 343.525512 
L 811.919631 347.803276 
L 812.64237 358.832314 
L 813.36511 348.586638 
L 814.087849 344.093014 
L 814.810589 351.711294 
L 815.533328 345.617175 
L 816.256067 352.477422 
L 816.978807 352.102714 
L 817.701546 348.828523 
L 818.424286 347.071268 
L 819.147025 343.879591 
L 819.869764 349.167022 
L 820.592504 272.520468 
L 821.315243 349.055176 
L 822.037983 345.064644 
L 822.760722 344.491919 
L 823.483462 345.25709 
L 824.206201 341.265339 
L 824.92894 334.979035 
L 825.65168 345.362582 
L 826.374419 349.725559 
L 827.097159 351.137177 
L 827.819898 345.910674 
L 828.542637 345.2006 
L 829.265377 341.410174 
L 829.988116 346.908329 
L 830.710856 341.858866 
L 831.433595 349.968924 
L 832.156334 344.956453 
L 832.879074 344.148633 
L 833.601813 344.149155 
L 834.324553 346.762363 
L 835.047292 342.412268 
L 835.770032 357.537939 
L 836.492771 346.52805 
L 837.21551 346.161959 
L 837.93825 341.356035 
L 838.660989 342.178565 
L 839.383729 351.007574 
L 840.829207 338.403893 
L 841.551947 347.407679 
L 842.274686 338.716106 
L 842.997426 312.558089 
L 843.720165 351.62878 
L 844.442905 353.306132 
L 845.165644 350.200015 
L 845.888383 349.966486 
L 846.611123 348.540681 
L 847.333862 348.189213 
L 848.056602 344.64128 
L 848.779341 350.415788 
L 849.50208 344.986569 
L 850.22482 346.225412 
L 850.947559 354.216659 
L 851.670299 351.357128 
L 852.393038 344.978561 
L 853.115778 346.186244 
L 853.838517 344.732672 
L 854.561256 352.278883 
L 855.283996 347.500638 
L 856.006735 351.024895 
L 856.729475 344.175615 
L 857.452214 350.412132 
L 858.174953 351.609979 
L 858.897693 354.609733 
L 859.620432 345.366499 
L 860.343172 353.449748 
L 861.065911 344.871414 
L 861.788651 348.859683 
L 862.51139 347.526576 
L 863.234129 347.13446 
L 863.956869 348.276253 
L 864.679608 349.669244 
L 865.402348 275.118967 
L 866.125087 347.850452 
L 866.847826 344.397393 
L 867.570566 353.506672 
L 868.293305 345.556421 
L 869.016045 341.314343 
L 869.738784 349.99991 
L 870.461524 346.018952 
L 871.184263 349.413955 
L 871.907002 348.72921 
L 872.629742 352.757256 
L 873.352481 349.13299 
L 874.075221 349.395329 
L 874.79796 346.947671 
L 875.520699 343.178221 
L 876.243439 352.08696 
L 876.966178 339.53585 
L 877.688918 345.773586 
L 878.411657 345.850268 
L 879.134397 337.284817 
L 879.857136 344.709171 
L 880.579875 348.612141 
L 881.302615 347.118618 
L 882.025354 346.62893 
L 882.748094 357.481189 
L 883.470833 348.81068 
L 884.193572 345.778199 
L 884.916312 341.544216 
L 885.639051 346.701435 
L 886.361791 272.966027 
L 887.08453 352.259648 
L 887.807269 353.015679 
L 888.530009 349.582552 
L 889.252748 350.703021 
L 889.975488 352.335024 
L 890.698227 349.664109 
L 891.420967 350.793978 
L 892.143706 342.714123 
L 893.589185 347.682726 
L 894.311924 344.306785 
L 895.034664 344.657557 
L 895.757403 348.791009 
L 896.480142 349.545125 
L 897.202882 353.029605 
L 897.925621 348.725293 
L 898.648361 346.191031 
L 899.3711 341.891941 
L 900.09384 349.17503 
L 900.816579 348.974054 
L 901.539318 350.719993 
L 902.262058 344.642151 
L 902.984797 347.196519 
L 903.707537 348.214106 
L 904.430276 350.078159 
L 905.153015 344.327065 
L 905.875755 349.292882 
L 906.598494 351.576382 
L 907.321234 347.452591 
L 908.043973 348.033759 
L 908.766713 314.928368 
L 909.489452 343.042787 
L 910.212191 339.280822 
L 910.934931 345.360493 
L 911.65767 349.778306 
L 912.38041 345.79552 
L 913.103149 346.62745 
L 913.825888 341.809253 
L 914.548628 349.978324 
L 915.271367 346.452151 
L 915.994107 349.300194 
L 916.716846 348.267375 
L 917.439586 351.580734 
L 918.162325 344.345779 
L 918.885064 342.249851 
L 919.607804 348.863687 
L 920.330543 346.353535 
L 921.053283 341.829185 
L 921.776022 340.087685 
L 922.498761 347.490193 
L 923.94424 344.833465 
L 924.66698 343.231577 
L 925.389719 344.792904 
L 926.112459 340.207627 
L 926.835198 344.957671 
L 927.557937 343.069682 
L 928.280677 342.82919 
L 929.003416 345.130359 
L 929.726156 341.707764 
L 930.448895 276.283651 
L 931.171634 344.122521 
L 931.894374 344.220528 
L 933.339853 339.807155 
L 934.062592 346.634936 
L 934.785331 343.827019 
L 935.508071 338.997333 
L 936.23081 341.691401 
L 936.95355 349.058918 
L 937.676289 346.70744 
L 938.399029 340.114319 
L 939.121768 342.826666 
L 939.844507 342.252984 
L 940.567247 343.605763 
L 941.289986 342.469279 
L 942.012726 343.121906 
L 942.735465 352.483167 
L 944.180944 341.495647 
L 944.903683 342.554491 
L 945.626423 349.057439 
L 946.349162 346.463206 
L 947.071902 346.691773 
L 947.794641 341.593742 
L 949.24012 346.453979 
L 949.962859 346.276852 
L 950.685599 346.861763 
L 951.408338 346.756792 
L 952.131077 340.83832 
L 952.853817 283.416857 
L 953.576556 347.257708 
L 954.299296 343.280233 
L 955.022035 348.432664 
L 955.744775 346.683591 
L 956.467514 340.387016 
L 957.190253 341.518191 
L 957.912993 340.359425 
L 958.635732 346.883 
L 959.358472 347.552775 
L 960.081211 338.934315 
L 960.80395 345.494796 
L 961.52669 346.342481 
L 962.249429 332.826879 
L 963.694908 349.754282 
L 964.417648 336.852662 
L 965.140387 346.142027 
L 965.863126 342.735274 
L 966.585866 341.382234 
L 967.308605 338.006815 
L 968.031345 340.970708 
L 968.754084 348.134116 
L 969.476823 343.092835 
L 970.199563 342.614114 
L 970.922302 340.018401 
L 971.645042 342.384241 
L 972.367781 341.254546 
L 974.535999 356.966259 
L 975.258739 358.471706 
L 976.704218 360.369792 
L 977.426957 358.507393 
L 978.872436 362.301214 
L 979.595175 354.818194 
L 980.317915 362.604114 
L 981.040654 359.649012 
L 982.486133 362.526474 
L 983.208872 363.149421 
L 983.931612 361.073164 
L 984.654351 361.672958 
L 985.377091 361.676439 
L 986.09983 355.986187 
L 986.822569 359.945993 
L 987.545309 358.531068 
L 988.268048 361.162728 
L 988.990788 361.481644 
L 989.713527 356.936666 
L 990.436266 359.570937 
L 991.159006 359.643268 
L 991.881745 362.785854 
L 992.604485 359.544216 
L 993.327224 360.003701 
L 994.049964 359.28266 
L 994.772703 357.223115 
L 995.495442 361.914059 
L 996.218182 352.497528 
L 996.218182 352.497528 
" style="fill:none;stroke:#008000;stroke-linecap:square;stroke-width:1.5;"/>
   </g>
   <g id="line2d_22">
    <path clip-path="url(#p1414395b03)" d="M 184.581818 329.259977 
L 185.304558 364.371692 
L 186.027297 358.724327 
L 186.750036 364.723517 
L 187.472776 358.92102 
L 188.195515 360.107635 
L 188.918255 363.578885 
L 189.640994 363.617746 
L 190.363734 361.920375 
L 191.086473 364.538066 
L 191.809212 360.057737 
L 192.531952 362.108855 
L 193.254691 364.704419 
L 193.977431 352.907052 
L 194.70017 363.464201 
L 195.422909 359.960351 
L 196.145649 361.937367 
L 196.868388 366.918931 
L 197.591128 353.468888 
L 198.313867 363.124266 
L 199.759346 356.343028 
L 200.482085 358.692126 
L 201.204825 362.218996 
L 201.927564 360.99543 
L 202.650304 361.6594 
L 203.373043 356.871172 
L 204.095782 355.920988 
L 204.818522 359.680133 
L 205.541261 365.538182 
L 206.264001 358.747992 
L 206.98674 274.626384 
L 207.709479 362.41463 
L 208.432219 363.474497 
L 209.154958 361.947097 
L 209.877698 357.650206 
L 210.600437 355.900065 
L 211.323177 359.926627 
L 212.045916 363.248416 
L 212.768655 364.40629 
L 213.491395 359.414427 
L 214.214134 357.326182 
L 214.936874 354.433922 
L 215.659613 361.889286 
L 216.382352 359.681612 
L 217.105092 359.108953 
L 217.827831 366.949729 
L 218.550571 356.964089 
L 219.27331 354.685362 
L 219.99605 357.195916 
L 220.718789 357.084819 
L 221.441528 359.837803 
L 222.164268 364.538322 
L 222.887007 353.331259 
L 223.609747 365.714693 
L 224.332486 357.051817 
L 225.055225 364.666909 
L 225.777965 364.626303 
L 226.500704 355.965037 
L 227.223444 357.038843 
L 227.946183 362.015495 
L 228.668923 303.02071 
L 229.391662 345.050055 
L 230.114401 360.893379 
L 230.837141 359.220245 
L 231.55988 362.049172 
L 232.28262 353.582175 
L 233.005359 358.449266 
L 233.728098 362.122728 
L 234.450838 359.071107 
L 235.173577 362.071626 
L 235.896317 366.661237 
L 236.619056 364.309471 
L 237.341796 356.985931 
L 238.064535 359.473418 
L 238.787274 358.206018 
L 239.510014 363.975009 
L 240.232753 357.068521 
L 240.955493 352.779714 
L 241.678232 364.443402 
L 242.400971 358.82608 
L 243.123711 354.483475 
L 243.84645 353.343608 
L 244.56919 361.984391 
L 245.291929 361.997296 
L 246.014669 358.236278 
L 246.737408 348.396588 
L 247.460147 365.701723 
L 248.182887 368.167186 
L 249.628366 318.262648 
L 250.351105 364.342416 
L 251.073844 359.348502 
L 251.796584 364.304893 
L 252.519323 357.276056 
L 253.242063 365.465922 
L 253.964802 360.456795 
L 254.687541 348.252169 
L 255.410281 349.95729 
L 256.13302 356.02497 
L 256.85576 355.450612 
L 257.578499 341.707732 
L 258.301239 359.280726 
L 259.023978 361.155401 
L 259.746717 366.592463 
L 260.469457 359.602768 
L 261.192196 363.90259 
L 261.914936 349.958301 
L 262.637675 357.060385 
L 263.360414 352.974156 
L 264.083154 361.147142 
L 264.805893 362.211662 
L 265.528633 356.653032 
L 266.251372 366.604489 
L 266.974112 363.785612 
L 267.696851 343.999861 
L 268.41959 356.790368 
L 269.14233 352.177967 
L 269.865069 353.762695 
L 270.587809 369.216959 
L 271.310548 250.669144 
L 272.033287 360.837948 
L 272.756027 363.308007 
L 273.478766 356.203116 
L 274.201506 353.514159 
L 274.924245 360.590311 
L 275.646985 346.938087 
L 276.369724 347.492462 
L 277.092463 358.457914 
L 277.815203 356.859248 
L 278.537942 352.938539 
L 279.260682 353.188687 
L 279.983421 360.135945 
L 280.70616 354.214192 
L 281.4289 358.690728 
L 282.151639 353.448634 
L 282.874379 360.136453 
L 283.597118 363.680248 
L 284.319858 354.565323 
L 285.042597 359.554927 
L 285.765336 357.871729 
L 286.488076 365.306028 
L 287.210815 359.850832 
L 287.933555 355.584476 
L 288.656294 363.913279 
L 289.379033 354.493751 
L 290.101773 362.712716 
L 291.547252 356.078309 
L 292.269991 354.71842 
L 292.992731 286.149351 
L 293.71547 351.349072 
L 294.438209 346.957598 
L 295.160949 359.548406 
L 295.883688 358.42422 
L 296.606428 355.695903 
L 297.329167 355.421188 
L 298.051906 335.867471 
L 298.774646 358.248513 
L 299.497385 363.930316 
L 300.220125 340.298343 
L 300.942864 358.366033 
L 301.665603 354.641287 
L 302.388343 358.26423 
L 303.111082 342.757508 
L 303.833822 353.903442 
L 304.556561 362.277319 
L 305.279301 352.407386 
L 306.00204 339.40291 
L 306.724779 353.475902 
L 307.447519 347.776237 
L 308.170258 350.951777 
L 308.892998 348.181334 
L 309.615737 356.546732 
L 310.338476 354.858386 
L 311.061216 350.274516 
L 311.783955 357.824729 
L 312.506695 347.30305 
L 313.229434 351.811838 
L 313.952174 357.057832 
L 314.674913 350.243916 
L 315.397652 308.536752 
L 316.120392 357.986466 
L 316.843131 354.612302 
L 317.565871 357.685908 
L 318.28861 362.23926 
L 319.011349 354.93788 
L 319.734089 360.771827 
L 320.456828 353.218809 
L 321.179568 354.851944 
L 321.902307 360.509963 
L 322.625047 351.302872 
L 323.347786 348.87764 
L 324.070525 361.956222 
L 324.793265 350.465551 
L 325.516004 361.217656 
L 326.238744 354.138802 
L 326.961483 352.679127 
L 327.684222 354.539598 
L 329.129701 351.796742 
L 329.852441 354.305418 
L 330.57518 351.216003 
L 331.29792 360.653413 
L 332.020659 350.210667 
L 332.743398 362.073432 
L 333.466138 360.305061 
L 334.911617 357.696635 
L 335.634356 361.761983 
L 336.357095 344.349421 
L 337.079835 355.838425 
L 337.802574 241.707537 
L 338.525314 353.092648 
L 339.248053 351.621556 
L 339.970793 353.100003 
L 340.693532 359.844975 
L 341.416271 347.837936 
L 342.139011 356.913527 
L 342.86175 360.240081 
L 343.58449 360.351446 
L 344.307229 344.864536 
L 345.029968 334.847644 
L 345.752708 363.299976 
L 346.475447 354.255029 
L 347.198187 348.41059 
L 347.920926 351.461223 
L 348.643666 364.604808 
L 349.366405 357.649227 
L 350.089144 363.573289 
L 350.811884 353.460461 
L 351.534623 356.412499 
L 352.257363 366.553989 
L 352.980102 346.075572 
L 353.702841 355.076484 
L 354.425581 345.286764 
L 355.14832 359.408875 
L 355.87106 340.178138 
L 356.593799 361.122365 
L 357.316538 358.159696 
L 358.039278 272.879323 
L 358.762017 353.771382 
L 359.484757 351.331011 
L 360.207496 351.450446 
L 360.930236 361.176048 
L 361.652975 348.573899 
L 362.375714 353.561969 
L 363.098454 363.699657 
L 363.821193 354.215995 
L 364.543933 363.950791 
L 365.266672 360.833367 
L 365.989411 359.645603 
L 366.712151 353.822345 
L 367.43489 362.319424 
L 368.15763 350.115231 
L 368.880369 355.812045 
L 369.603109 357.332893 
L 370.325848 350.305472 
L 371.048587 359.610198 
L 371.771327 349.731677 
L 372.494066 358.549794 
L 373.216806 360.795961 
L 373.939545 358.449684 
L 374.662284 344.572419 
L 375.385024 358.436834 
L 376.107763 350.204422 
L 376.830503 361.395942 
L 377.553242 347.966662 
L 378.275982 355.914152 
L 378.998721 358.695014 
L 379.72146 363.728628 
L 380.4442 309.15547 
L 381.166939 363.843031 
L 381.889679 349.282755 
L 382.612418 355.737247 
L 383.335157 358.534075 
L 384.057897 359.686593 
L 384.780636 352.882572 
L 385.503376 361.25967 
L 386.226115 355.993999 
L 386.948855 359.927031 
L 387.671594 360.881422 
L 388.394333 344.950747 
L 389.117073 363.672006 
L 389.839812 362.668458 
L 390.562552 339.052161 
L 391.285291 360.316178 
L 392.00803 349.794859 
L 392.73077 351.860684 
L 393.453509 362.553338 
L 394.176249 347.5893 
L 394.898988 362.299994 
L 395.621728 361.10953 
L 396.344467 345.958434 
L 397.067206 362.54107 
L 397.789946 357.945505 
L 398.512685 358.635825 
L 399.235425 347.748966 
L 399.958164 354.708082 
L 400.680903 344.977169 
L 401.403643 344.721771 
L 402.126382 243.522589 
L 402.849122 356.08132 
L 403.571861 358.698974 
L 404.294601 345.042411 
L 405.01734 363.675527 
L 405.740079 356.679245 
L 406.462819 362.211202 
L 407.185558 348.495362 
L 407.908298 355.598695 
L 408.631037 365.179105 
L 409.353776 363.55821 
L 410.076516 347.36454 
L 410.799255 346.394965 
L 411.521995 358.272472 
L 412.244734 351.634437 
L 412.967473 348.305712 
L 413.690213 352.098121 
L 414.412952 349.700534 
L 415.135692 360.769974 
L 415.858431 355.426014 
L 416.581171 355.609528 
L 417.30391 355.631627 
L 418.026649 355.467933 
L 418.749389 358.790933 
L 419.472128 351.141994 
L 420.194868 354.281405 
L 420.917607 359.759535 
L 421.640346 359.782722 
L 422.363086 366.699122 
L 423.085825 354.388708 
L 423.808565 365.231652 
L 424.531304 289.936873 
L 425.254044 340.586948 
L 425.976783 365.220478 
L 426.699522 356.675509 
L 427.422262 356.776548 
L 428.145001 355.158333 
L 428.867741 356.242546 
L 429.59048 349.88224 
L 430.313219 360.547981 
L 431.035959 353.678827 
L 431.758698 357.876736 
L 432.481438 344.997366 
L 433.204177 366.099767 
L 433.926917 363.097329 
L 434.649656 354.992113 
L 435.372395 363.645727 
L 436.095135 353.140521 
L 436.817874 348.316675 
L 437.540614 339.527679 
L 438.263353 355.861254 
L 438.986092 347.396784 
L 439.708832 357.455928 
L 440.431571 340.910628 
L 441.154311 352.793163 
L 441.87705 357.155755 
L 442.59979 354.325641 
L 443.322529 345.545434 
L 444.045268 358.886968 
L 444.768008 351.378147 
L 445.490747 358.357131 
L 446.213487 253.778213 
L 446.936226 365.943106 
L 447.658965 341.964408 
L 448.381705 352.765565 
L 449.104444 348.244536 
L 449.827184 348.53535 
L 450.549923 353.904909 
L 451.272663 357.531436 
L 452.718141 362.129239 
L 453.440881 353.080648 
L 454.16362 353.981014 
L 454.88636 349.227104 
L 455.609099 352.288931 
L 456.331838 362.04508 
L 457.054578 359.393912 
L 457.777317 344.110723 
L 458.500057 359.902771 
L 459.222796 353.570393 
L 459.945535 353.509307 
L 460.668275 352.480339 
L 461.391014 354.239711 
L 462.113754 357.161543 
L 462.836493 357.507302 
L 463.559233 354.020975 
L 464.281972 362.212864 
L 465.004711 349.027948 
L 465.727451 359.685882 
L 466.45019 356.272059 
L 467.17293 357.463315 
L 467.895669 352.506148 
L 468.618408 182.881604 
L 469.341148 359.605209 
L 470.063887 359.439224 
L 470.786627 350.962052 
L 471.509366 355.349966 
L 472.232106 344.829243 
L 472.954845 346.918483 
L 473.677584 355.29816 
L 474.400324 357.414521 
L 475.123063 363.440437 
L 475.845803 363.188135 
L 476.568542 353.599334 
L 477.291281 342.06946 
L 478.014021 351.020412 
L 478.73676 349.901653 
L 479.4595 359.298316 
L 480.182239 353.629401 
L 480.904979 356.705237 
L 481.627718 348.43035 
L 482.350457 348.957569 
L 483.073197 351.38957 
L 484.518676 358.302443 
L 485.241415 354.491281 
L 485.964154 349.895956 
L 486.686894 351.624692 
L 487.409633 354.587328 
L 488.132373 354.821523 
L 488.855112 360.562725 
L 489.577852 354.104242 
L 490.300591 348.878593 
L 491.02333 215.551226 
L 491.74607 359.807178 
L 492.468809 353.071497 
L 493.191549 360.328949 
L 493.914288 362.278269 
L 494.637027 361.493745 
L 495.359767 366.794412 
L 496.082506 354.913072 
L 496.805246 352.74224 
L 497.527985 356.183673 
L 498.250725 354.410855 
L 498.973464 361.572928 
L 499.696203 355.147506 
L 500.418943 358.043772 
L 501.141682 362.492711 
L 501.864422 362.222518 
L 502.587161 360.769845 
L 503.3099 352.048573 
L 504.03264 358.878023 
L 504.755379 361.37586 
L 505.478119 361.789634 
L 506.200858 362.620456 
L 506.923598 362.112864 
L 507.646337 354.87962 
L 508.369076 361.802451 
L 509.091816 349.444129 
L 509.814555 366.870255 
L 510.537295 366.761111 
L 511.260034 355.314893 
L 511.982773 357.661687 
L 512.705513 260.600187 
L 513.428252 364.481791 
L 514.150992 355.307998 
L 514.873731 356.65625 
L 515.59647 364.871925 
L 516.31921 361.28369 
L 517.041949 359.422751 
L 517.764689 355.576978 
L 518.487428 361.704023 
L 519.210168 363.44614 
L 519.932907 353.955536 
L 520.655646 358.821032 
L 521.378386 347.461734 
L 522.101125 356.887245 
L 522.823865 360.065392 
L 523.546604 360.140652 
L 524.269343 361.275118 
L 524.992083 361.621713 
L 525.714822 350.740634 
L 526.437562 359.090535 
L 527.160301 351.844109 
L 527.883041 359.537898 
L 528.60578 361.667427 
L 529.328519 354.237155 
L 530.051259 362.645058 
L 530.773998 359.262066 
L 531.496738 363.395563 
L 532.219477 360.219111 
L 532.942216 360.637196 
L 533.664956 346.702865 
L 534.387695 363.74041 
L 535.110435 192.920908 
L 535.833174 361.946041 
L 536.555914 360.544495 
L 537.278653 366.919757 
L 538.001392 364.471372 
L 538.724132 357.248878 
L 539.446871 362.495272 
L 540.169611 356.485271 
L 540.89235 362.673091 
L 541.615089 359.549129 
L 542.337829 354.246162 
L 543.060568 360.324345 
L 543.783308 362.803404 
L 544.506047 358.500982 
L 545.228787 364.365633 
L 545.951526 355.148026 
L 546.674265 365.132738 
L 547.397005 360.893416 
L 548.119744 363.202781 
L 548.842484 356.174201 
L 549.565223 362.803923 
L 551.010702 362.486455 
L 551.733441 356.900982 
L 552.456181 356.610143 
L 553.17892 359.979189 
L 553.90166 359.688932 
L 554.624399 361.030203 
L 555.347138 358.643868 
L 556.069878 358.754945 
L 556.792617 206.790455 
L 557.515357 356.101268 
L 558.238096 343.823976 
L 558.960835 367.316097 
L 559.683575 355.733414 
L 560.406314 362.695722 
L 561.129054 346.819764 
L 561.851793 350.813364 
L 562.574533 362.12247 
L 563.297272 360.918642 
L 564.020011 347.06861 
L 564.742751 341.922275 
L 565.46549 352.078435 
L 566.18823 349.208979 
L 566.910969 363.247259 
L 567.633708 362.013603 
L 568.356448 354.797977 
L 569.079187 351.86563 
L 569.801927 345.376574 
L 570.524666 350.890144 
L 571.247405 364.739278 
L 572.692884 350.364135 
L 573.415624 352.09727 
L 574.138363 361.726944 
L 574.861103 356.127514 
L 575.583842 355.771086 
L 576.306581 357.16889 
L 577.029321 350.414513 
L 577.75206 353.381247 
L 578.4748 360.565724 
L 579.197539 268.571085 
L 579.920278 354.029325 
L 580.643018 358.481123 
L 581.365757 352.930495 
L 582.088497 360.282264 
L 582.811236 365.985639 
L 583.533976 357.792213 
L 584.256715 356.287229 
L 584.979454 351.145522 
L 585.702194 361.150072 
L 586.424933 358.110909 
L 587.147673 360.484828 
L 587.870412 352.913403 
L 588.593151 361.645849 
L 589.315891 358.6596 
L 590.03863 353.416586 
L 590.76137 358.626569 
L 591.484109 358.331048 
L 592.206849 361.28147 
L 592.929588 357.664997 
L 593.652327 360.899114 
L 594.375067 357.405464 
L 595.097806 352.757667 
L 595.820546 359.768863 
L 596.543285 363.192293 
L 597.266024 355.984585 
L 597.988764 366.269598 
L 598.711503 359.022479 
L 599.434243 359.5894 
L 600.156982 363.201473 
L 600.879722 356.645311 
L 601.602461 173.943121 
L 602.3252 355.48446 
L 603.04794 362.820318 
L 603.770679 342.770919 
L 604.493419 357.067783 
L 605.216158 353.503657 
L 605.938897 354.906095 
L 606.661637 355.935632 
L 607.384376 354.003364 
L 608.107116 356.278971 
L 608.829855 363.863598 
L 609.552595 352.172041 
L 610.275334 352.039498 
L 610.998073 355.167392 
L 611.720813 356.430678 
L 612.443552 363.148076 
L 613.166292 348.625979 
L 613.889031 349.623265 
L 614.61177 355.055243 
L 615.33451 359.589872 
L 616.057249 352.223483 
L 616.779989 352.642081 
L 617.502728 366.852021 
L 618.948207 343.969948 
L 619.670946 363.61773 
L 620.393686 364.726406 
L 621.116425 361.221672 
L 621.839165 206.821092 
L 622.561904 351.46273 
L 623.284643 362.154018 
L 624.007383 360.97026 
L 624.730122 342.204531 
L 625.452862 360.332365 
L 626.175601 358.727195 
L 626.89834 347.396298 
L 627.62108 363.860663 
L 628.343819 362.112431 
L 629.066559 360.811858 
L 629.789298 344.464914 
L 630.512038 358.292015 
L 631.234777 358.969888 
L 631.957516 357.911673 
L 632.680256 358.927594 
L 633.402995 353.53858 
L 634.125735 345.091419 
L 634.848474 350.481991 
L 635.571213 359.50001 
L 636.293953 361.355804 
L 637.016692 362.142083 
L 637.739432 362.482588 
L 638.462171 365.633704 
L 639.184911 359.351913 
L 639.90765 361.762501 
L 640.630389 366.10662 
L 641.353129 353.193708 
L 642.075868 354.115375 
L 642.798608 350.67846 
L 643.521347 350.343616 
L 644.244086 267.608073 
L 644.966826 348.459982 
L 645.689565 363.851794 
L 646.412305 355.948897 
L 647.135044 354.319491 
L 647.857784 362.605807 
L 648.580523 357.15447 
L 649.303262 349.974682 
L 650.026002 351.811319 
L 650.748741 363.365517 
L 651.471481 348.950734 
L 652.19422 356.158264 
L 652.916959 350.928594 
L 653.639699 354.936432 
L 655.085178 353.649891 
L 655.807917 350.752085 
L 656.530657 351.862263 
L 657.253396 361.727077 
L 657.976135 359.614025 
L 658.698875 366.14401 
L 659.421614 361.498674 
L 660.144354 363.299279 
L 660.867093 345.59048 
L 661.589832 348.768254 
L 662.312572 361.505211 
L 663.035311 352.904962 
L 663.758051 353.10181 
L 664.48079 359.457632 
L 665.20353 357.407642 
L 665.926269 169.285823 
L 666.649008 352.299554 
L 667.371748 346.821872 
L 668.094487 356.351786 
L 668.817227 355.166314 
L 669.539966 350.873589 
L 670.262705 358.027459 
L 670.985445 349.646223 
L 671.708184 357.843949 
L 672.430924 361.291707 
L 673.153663 354.436318 
L 673.876402 354.686261 
L 674.599142 359.077553 
L 675.321881 354.989951 
L 676.044621 354.827469 
L 676.76736 357.939571 
L 677.4901 359.617364 
L 678.212839 365.225001 
L 678.935578 359.875739 
L 679.658318 355.76119 
L 680.381057 356.487628 
L 681.103797 354.161609 
L 681.826536 355.836526 
L 682.549275 354.467906 
L 683.272015 359.97416 
L 683.994754 355.722707 
L 684.717494 357.951182 
L 685.440233 355.98105 
L 686.162973 356.728291 
L 686.885712 344.390941 
L 687.608451 349.529917 
L 688.331191 216.045556 
L 689.05393 353.112903 
L 689.77667 362.726383 
L 690.499409 360.467468 
L 691.222148 361.511689 
L 691.944888 351.33859 
L 692.667627 354.896269 
L 693.390367 346.60626 
L 694.113106 358.464022 
L 694.835846 344.981533 
L 695.558585 351.839968 
L 697.004064 351.094033 
L 697.726803 353.895475 
L 698.449543 344.854498 
L 699.172282 359.698799 
L 699.895021 355.727058 
L 700.617761 354.373063 
L 701.3405 349.743028 
L 702.06324 354.844826 
L 702.785979 350.648849 
L 703.508719 362.075539 
L 704.231458 354.700734 
L 704.954197 352.797647 
L 705.676937 356.540855 
L 706.399676 363.972237 
L 707.122416 346.671958 
L 707.845155 348.011886 
L 708.567894 364.012035 
L 709.290634 355.009261 
L 710.013373 215.495484 
L 710.736113 352.793048 
L 711.458852 341.325929 
L 712.181592 334.932541 
L 713.62707 361.667278 
L 714.34981 343.170948 
L 715.072549 356.411024 
L 715.795289 344.122614 
L 716.518028 352.918499 
L 717.240767 334.937556 
L 717.963507 348.557274 
L 718.686246 346.819774 
L 720.131725 340.539389 
L 720.854465 348.344107 
L 721.577204 346.18023 
L 722.299943 358.633773 
L 723.022683 349.813204 
L 723.745422 339.271409 
L 724.468162 359.40951 
L 725.190901 343.901132 
L 725.91364 349.361662 
L 726.63638 331.814462 
L 727.359119 350.467779 
L 728.081859 353.067931 
L 728.804598 351.726439 
L 729.527337 351.53428 
L 730.250077 340.260605 
L 730.972816 354.629536 
L 731.695556 342.733253 
L 732.418295 66.96 
L 733.141035 308.533639 
L 733.863774 304.070063 
L 734.586513 322.137834 
L 735.309253 318.567359 
L 736.031992 318.201106 
L 736.754732 306.68425 
L 737.477471 284.31076 
L 738.20021 314.339931 
L 738.92295 327.719842 
L 739.645689 316.261063 
L 740.368429 300.204329 
L 741.091168 311.921695 
L 741.813908 305.461557 
L 742.536647 339.016214 
L 743.259386 303.035456 
L 743.982126 306.478064 
L 744.704865 311.165481 
L 745.427605 303.233756 
L 746.150344 331.358463 
L 746.873083 310.820794 
L 747.595823 330.446561 
L 748.318562 342.180448 
L 749.041302 303.273533 
L 749.764041 301.208451 
L 750.486781 315.345143 
L 751.20952 321.905207 
L 751.932259 309.006607 
L 752.654999 320.035992 
L 753.377738 312.19696 
L 754.100478 308.152206 
L 754.823217 109.681404 
L 755.545956 309.799635 
L 756.268696 307.827759 
L 756.991435 304.786531 
L 757.714175 320.916289 
L 758.436914 322.202178 
L 759.882393 303.229105 
L 760.605132 296.372466 
L 762.050611 330.404422 
L 762.773351 288.163979 
L 764.218829 307.065854 
L 764.941569 309.542644 
L 765.664308 312.580157 
L 767.109787 307.332719 
L 767.832527 276.028837 
L 768.555266 306.260478 
L 769.278005 306.733168 
L 770.000745 309.070788 
L 770.723484 304.925552 
L 771.446224 330.741538 
L 772.168963 323.390498 
L 772.891702 304.686589 
L 773.614442 310.278639 
L 774.337181 311.515233 
L 775.059921 326.570381 
L 775.78266 308.902899 
L 776.505399 191.448787 
L 777.228139 297.013842 
L 777.950878 311.469375 
L 778.673618 312.19894 
L 780.119097 276.463008 
L 780.841836 321.433048 
L 781.564575 281.549387 
L 782.287315 305.985145 
L 783.010054 319.461144 
L 783.732794 313.359783 
L 784.455533 302.188867 
L 785.178272 308.84319 
L 785.901012 303.936471 
L 786.623751 301.882888 
L 787.346491 325.705548 
L 788.06923 319.991185 
L 788.79197 306.701085 
L 789.514709 318.931408 
L 790.237448 304.11872 
L 790.960188 308.882615 
L 791.682927 302.603372 
L 792.405667 302.210911 
L 793.128406 318.729353 
L 794.573885 296.689886 
L 795.296624 318.626343 
L 796.019364 309.676084 
L 796.742103 321.393593 
L 797.464843 320.362301 
L 798.187582 318.381691 
L 798.910321 73.096484 
L 799.633061 318.669657 
L 800.3558 287.884915 
L 801.07854 304.56092 
L 801.801279 307.534609 
L 802.524018 306.174484 
L 803.246758 300.103277 
L 803.969497 320.55309 
L 804.692237 310.910296 
L 805.414976 304.800759 
L 806.137716 336.283176 
L 806.860455 306.378861 
L 807.583194 309.049809 
L 808.305934 304.762262 
L 809.028673 291.052774 
L 809.751413 326.300143 
L 810.474152 310.408393 
L 811.196891 290.111189 
L 811.919631 303.469122 
L 812.64237 336.993566 
L 813.36511 305.621307 
L 814.087849 291.861829 
L 814.810589 315.288191 
L 815.533328 297.088256 
L 816.256067 318.038182 
L 816.978807 316.896758 
L 817.701546 307.080718 
L 818.424286 301.761333 
L 819.147025 292.099807 
L 819.869764 307.77116 
L 820.592504 74.518779 
L 821.315243 307.286129 
L 822.037983 293.972225 
L 822.760722 292.198211 
L 823.483462 294.568326 
L 824.206201 282.203879 
L 824.92894 262.711385 
L 825.65168 295.08517 
L 826.374419 308.667452 
L 827.097159 312.492976 
L 827.819898 295.480655 
L 828.542637 293.247614 
L 829.265377 281.327481 
L 829.988116 298.61808 
L 830.710856 282.986609 
L 831.433595 308.822779 
L 832.156334 293.155105 
L 832.879074 291.190485 
L 833.601813 291.192102 
L 834.324553 299.280764 
L 835.047292 285.891546 
L 835.770032 332.641537 
L 836.492771 297.928166 
L 837.21551 297.133894 
L 837.93825 282.361313 
L 838.660989 284.912719 
L 839.383729 312.299423 
L 840.829207 273.576296 
L 841.551947 301.456538 
L 842.274686 274.703752 
L 842.997426 193.340038 
L 843.720165 314.322433 
L 844.442905 319.516352 
L 845.165644 309.882883 
L 845.888383 309.270479 
L 846.611123 304.958519 
L 847.333862 304.291849 
L 848.056602 293.753746 
L 848.779341 311.385629 
L 849.50208 294.80805 
L 850.22482 298.843592 
L 850.947559 323.216269 
L 851.670299 314.474904 
L 852.393038 295.032937 
L 853.115778 298.898701 
L 853.838517 294.487112 
L 854.561256 317.389863 
L 855.283996 302.865964 
L 856.006735 313.504895 
L 856.729475 292.442975 
L 857.452214 311.391577 
L 858.174953 315.194075 
L 858.897693 324.326224 
L 859.620432 296.187047 
L 860.343172 320.949827 
L 861.065911 295.509717 
L 861.788651 307.516401 
L 862.51139 303.50308 
L 863.234129 302.155448 
L 863.956869 305.60138 
L 864.679608 309.805428 
L 865.402348 85.378516 
L 866.125087 304.025079 
L 866.847826 293.557132 
L 867.570566 320.850394 
L 868.293305 296.180486 
L 869.016045 283.162397 
L 869.738784 309.816665 
L 870.461524 297.599903 
L 871.184263 307.960461 
L 871.907002 305.902656 
L 872.629742 318.258411 
L 873.352481 307.639171 
L 874.075221 308.437994 
L 874.79796 300.984877 
L 875.520699 289.638128 
L 876.243439 316.555997 
L 876.966178 278.069187 
L 877.688918 297.064501 
L 878.411657 297.101104 
L 879.134397 270.822298 
L 879.857136 293.600219 
L 880.579875 305.401796 
L 881.302615 300.811733 
L 882.025354 299.765851 
L 882.748094 332.72864 
L 883.470833 305.763147 
L 884.193572 296.397634 
L 884.916312 283.3214 
L 885.639051 299.814731 
L 886.361791 72.055038 
L 887.08453 315.930923 
L 887.807269 318.086995 
L 888.530009 307.182735 
L 889.252748 310.697644 
L 889.975488 315.81724 
L 890.698227 307.79622 
L 891.420967 311.696482 
L 892.143706 286.758261 
L 893.589185 302.716561 
L 894.311924 292.358161 
L 895.034664 293.434435 
L 895.757403 306.327555 
L 896.480142 308.691365 
L 897.202882 319.369937 
L 897.925621 306.637834 
L 898.648361 299.145554 
L 899.3711 286.140808 
L 900.09384 308.172151 
L 900.816579 307.461953 
L 901.539318 312.778333 
L 902.262058 293.865442 
L 902.984797 301.878203 
L 903.707537 305.254752 
L 904.430276 310.894444 
L 905.153015 293.494509 
L 905.875755 308.500472 
L 906.598494 315.418394 
L 907.321234 302.071958 
L 908.043973 304.71125 
L 908.766713 203.420704 
L 909.489452 289.062847 
L 910.212191 277.603151 
L 910.934931 296.058075 
L 911.65767 309.551117 
L 912.38041 297.530921 
L 913.103149 300.613896 
L 913.825888 285.846494 
L 914.548628 310.571003 
L 915.271367 299.898689 
L 915.994107 308.15032 
L 916.716846 304.880669 
L 917.439586 315.388741 
L 918.162325 292.984374 
L 918.885064 286.73436 
L 919.607804 306.860265 
L 920.330543 299.221871 
L 921.053283 285.548096 
L 921.776022 280.697601 
L 922.498761 302.527189 
L 923.94424 294.465972 
L 924.66698 289.582937 
L 925.389719 294.342331 
L 926.112459 280.776971 
L 926.835198 295.248274 
L 927.557937 289.305534 
L 928.280677 288.646218 
L 929.003416 295.708667 
L 929.726156 285.323146 
L 930.448895 86.800218 
L 931.171634 292.817468 
L 931.894374 293.089011 
L 933.339853 279.39897 
L 934.062592 300.041713 
L 934.785331 291.49273 
L 935.508071 276.788266 
L 936.23081 285.46207 
L 936.95355 307.87997 
L 937.676289 301.066604 
L 938.399029 281.24417 
L 939.121768 288.867283 
L 939.844507 287.129715 
L 940.567247 291.227011 
L 941.289986 287.685099 
L 942.012726 289.803589 
L 942.735465 318.065765 
L 944.180944 284.690669 
L 944.903683 287.903202 
L 945.626423 307.633144 
L 946.349162 299.762241 
L 947.071902 300.608016 
L 947.794641 285.14135 
L 949.24012 299.669934 
L 949.962859 299.132035 
L 950.685599 300.90829 
L 951.408338 300.702849 
L 952.131077 282.410487 
L 952.853817 108.918252 
L 953.576556 302.285807 
L 954.299296 290.18353 
L 955.022035 305.80055 
L 955.744775 300.49911 
L 956.467514 281.745206 
L 957.190253 285.186015 
L 957.912993 282.109475 
L 958.635732 301.245524 
L 959.358472 303.019878 
L 960.081211 276.852512 
L 960.80395 296.771444 
L 961.52669 299.30133 
L 962.249429 257.877275 
L 963.694908 309.30088 
L 964.417648 269.893811 
L 965.140387 298.280252 
L 965.863126 287.869896 
L 966.585866 283.561421 
L 967.308605 273.477221 
L 968.031345 282.571629 
L 968.754084 304.512445 
L 969.476823 289.204772 
L 970.199563 287.7463 
L 970.922302 279.838202 
L 971.645042 286.86751 
L 972.367781 283.232412 
L 974.535999 331.537569 
L 975.258739 336.116085 
L 976.704218 341.85614 
L 977.426957 336.139474 
L 978.872436 347.8988 
L 979.595175 325.509997 
L 980.317915 348.919922 
L 981.040654 340.034818 
L 982.486133 348.435436 
L 983.208872 350.366886 
L 983.931612 344.053783 
L 984.654351 345.665266 
L 985.377091 345.675939 
L 986.09983 328.233038 
L 986.822569 340.52212 
L 987.545309 336.104917 
L 988.268048 344.232553 
L 988.990788 345.205085 
L 989.713527 331.18035 
L 990.436266 339.248334 
L 991.159006 339.46986 
L 991.881745 349.161698 
L 992.604485 339.340367 
L 993.327224 340.824322 
L 994.049964 338.509425 
L 994.772703 332.245542 
L 995.495442 346.540257 
L 996.218182 317.845263 
L 996.218182 317.845263 
" style="fill:none;stroke:#ff0000;stroke-linecap:square;stroke-width:1.5;"/>
   </g>
   <g id="patch_3">
    <path d="M 144 384.48 
L 144 51.84 
" style="fill:none;stroke:#000000;stroke-linecap:square;stroke-linejoin:miter;stroke-width:0.8;"/>
   </g>
   <g id="patch_4">
    <path d="M 1036.8 384.48 
L 1036.8 51.84 
" style="fill:none;stroke:#000000;stroke-linecap:square;stroke-linejoin:miter;stroke-width:0.8;"/>
   </g>
   <g id="patch_5">
    <path d="M 144 384.48 
L 1036.8 384.48 
" style="fill:none;stroke:#000000;stroke-linecap:square;stroke-linejoin:miter;stroke-width:0.8;"/>
   </g>
   <g id="patch_6">
    <path d="M 144 51.84 
L 1036.8 51.84 
" style="fill:none;stroke:#000000;stroke-linecap:square;stroke-linejoin:miter;stroke-width:0.8;"/>
   </g>
   <g id="text_24">
    <!-- USD and PLN sales -->
    <defs>
     <path d="M 8.6875 72.90625 
L 18.609375 72.90625 
L 18.609375 28.609375 
Q 18.609375 16.890625 22.84375 11.734375 
Q 27.09375 6.59375 36.625 6.59375 
Q 46.09375 6.59375 50.34375 11.734375 
Q 54.59375 16.890625 54.59375 28.609375 
L 54.59375 72.90625 
L 64.5 72.90625 
L 64.5 27.390625 
Q 64.5 13.140625 57.4375 5.859375 
Q 50.390625 -1.421875 36.625 -1.421875 
Q 22.796875 -1.421875 15.734375 5.859375 
Q 8.6875 13.140625 8.6875 27.390625 
z
" id="DejaVuSans-85"/>
     <path id="DejaVuSans-32"/>
     <path d="M 54.890625 33.015625 
L 54.890625 0 
L 45.90625 0 
L 45.90625 32.71875 
Q 45.90625 40.484375 42.875 44.328125 
Q 39.84375 48.1875 33.796875 48.1875 
Q 26.515625 48.1875 22.3125 43.546875 
Q 18.109375 38.921875 18.109375 30.90625 
L 18.109375 0 
L 9.078125 0 
L 9.078125 54.6875 
L 18.109375 54.6875 
L 18.109375 46.1875 
Q 21.34375 51.125 25.703125 53.5625 
Q 30.078125 56 35.796875 56 
Q 45.21875 56 50.046875 50.171875 
Q 54.890625 44.34375 54.890625 33.015625 
z
" id="DejaVuSans-110"/>
     <path d="M 45.40625 46.390625 
L 45.40625 75.984375 
L 54.390625 75.984375 
L 54.390625 0 
L 45.40625 0 
L 45.40625 8.203125 
Q 42.578125 3.328125 38.25 0.953125 
Q 33.9375 -1.421875 27.875 -1.421875 
Q 17.96875 -1.421875 11.734375 6.484375 
Q 5.515625 14.40625 5.515625 27.296875 
Q 5.515625 40.1875 11.734375 48.09375 
Q 17.96875 56 27.875 56 
Q 33.9375 56 38.25 53.625 
Q 42.578125 51.265625 45.40625 46.390625 
z
M 14.796875 27.296875 
Q 14.796875 17.390625 18.875 11.75 
Q 22.953125 6.109375 30.078125 6.109375 
Q 37.203125 6.109375 41.296875 11.75 
Q 45.40625 17.390625 45.40625 27.296875 
Q 45.40625 37.203125 41.296875 42.84375 
Q 37.203125 48.484375 30.078125 48.484375 
Q 22.953125 48.484375 18.875 42.84375 
Q 14.796875 37.203125 14.796875 27.296875 
z
" id="DejaVuSans-100"/>
     <path d="M 19.671875 64.796875 
L 19.671875 37.40625 
L 32.078125 37.40625 
Q 38.96875 37.40625 42.71875 40.96875 
Q 46.484375 44.53125 46.484375 51.125 
Q 46.484375 57.671875 42.71875 61.234375 
Q 38.96875 64.796875 32.078125 64.796875 
z
M 9.8125 72.90625 
L 32.078125 72.90625 
Q 44.34375 72.90625 50.609375 67.359375 
Q 56.890625 61.8125 56.890625 51.125 
Q 56.890625 40.328125 50.609375 34.8125 
Q 44.34375 29.296875 32.078125 29.296875 
L 19.671875 29.296875 
L 19.671875 0 
L 9.8125 0 
z
" id="DejaVuSans-80"/>
     <path d="M 9.8125 72.90625 
L 19.671875 72.90625 
L 19.671875 8.296875 
L 55.171875 8.296875 
L 55.171875 0 
L 9.8125 0 
z
" id="DejaVuSans-76"/>
     <path d="M 9.8125 72.90625 
L 23.09375 72.90625 
L 55.421875 11.921875 
L 55.421875 72.90625 
L 64.984375 72.90625 
L 64.984375 0 
L 51.703125 0 
L 19.390625 60.984375 
L 19.390625 0 
L 9.8125 0 
z
" id="DejaVuSans-78"/>
    </defs>
    <g transform="translate(533.834062 45.84)scale(0.12 -0.12)">
     <use xlink:href="#DejaVuSans-85"/>
     <use x="73.193359" xlink:href="#DejaVuSans-83"/>
     <use x="136.669922" xlink:href="#DejaVuSans-68"/>
     <use x="213.671875" xlink:href="#DejaVuSans-32"/>
     <use x="245.458984" xlink:href="#DejaVuSans-97"/>
     <use x="306.738281" xlink:href="#DejaVuSans-110"/>
     <use x="370.117188" xlink:href="#DejaVuSans-100"/>
     <use x="433.59375" xlink:href="#DejaVuSans-32"/>
     <use x="465.380859" xlink:href="#DejaVuSans-80"/>
     <use x="525.683594" xlink:href="#DejaVuSans-76"/>
     <use x="581.396484" xlink:href="#DejaVuSans-78"/>
     <use x="656.201172" xlink:href="#DejaVuSans-32"/>
     <use x="687.988281" xlink:href="#DejaVuSans-115"/>
     <use x="740.087891" xlink:href="#DejaVuSans-97"/>
     <use x="801.367188" xlink:href="#DejaVuSans-108"/>
     <use x="829.150391" xlink:href="#DejaVuSans-101"/>
     <use x="890.673828" xlink:href="#DejaVuSans-115"/>
    </g>
   </g>
   <g id="legend_1">
    <g id="patch_7">
     <path d="M 976.432812 89.19625 
L 1029.8 89.19625 
Q 1031.8 89.19625 1031.8 87.19625 
L 1031.8 58.84 
Q 1031.8 56.84 1029.8 56.84 
L 976.432812 56.84 
Q 974.432812 56.84 974.432812 58.84 
L 974.432812 87.19625 
Q 974.432812 89.19625 976.432812 89.19625 
z
" style="fill:#ffffff;opacity:0.8;stroke:#cccccc;stroke-linejoin:miter;"/>
    </g>
    <g id="line2d_23">
     <path d="M 978.432812 64.938437 
L 998.432812 64.938437 
" style="fill:none;stroke:#008000;stroke-linecap:square;stroke-width:1.5;"/>
    </g>
    <g id="line2d_24"/>
    <g id="text_25">
     <!-- USD -->
     <g transform="translate(1006.432812 68.438437)scale(0.1 -0.1)">
      <use xlink:href="#DejaVuSans-85"/>
      <use x="73.193359" xlink:href="#DejaVuSans-83"/>
      <use x="136.669922" xlink:href="#DejaVuSans-68"/>
     </g>
    </g>
    <g id="line2d_25">
     <path d="M 978.432812 79.616562 
L 998.432812 79.616562 
" style="fill:none;stroke:#ff0000;stroke-linecap:square;stroke-width:1.5;"/>
    </g>
    <g id="line2d_26"/>
    <g id="text_26">
     <!-- PLN -->
     <g transform="translate(1006.432812 83.116562)scale(0.1 -0.1)">
      <use xlink:href="#DejaVuSans-80"/>
      <use x="60.302734" xlink:href="#DejaVuSans-76"/>
      <use x="116.015625" xlink:href="#DejaVuSans-78"/>
     </g>
    </g>
   </g>
  </g>
 </g>
 <defs>
  <clipPath id="p1414395b03">
   <rect height="332.64" width="892.8" x="144" y="51.84"/>
  </clipPath>
 </defs>
</svg>
