<?xml version="1.0" encoding="utf-8" standalone="no"?>
<!DOCTYPE svg PUBLIC "-//W3C//DTD SVG 1.1//EN"
  "http://www.w3.org/Graphics/SVG/1.1/DTD/svg11.dtd">
<!-- Created with matplotlib (https://matplotlib.org/) -->
<svg height="345.6pt" version="1.1" viewBox="0 0 460.8 345.6" width="460.8pt" xmlns="http://www.w3.org/2000/svg" xmlns:xlink="http://www.w3.org/1999/xlink">
 <metadata>
  <rdf:RDF xmlns:cc="http://creativecommons.org/ns#" xmlns:dc="http://purl.org/dc/elements/1.1/" xmlns:rdf="http://www.w3.org/1999/02/22-rdf-syntax-ns#">
   <cc:Work>
    <dc:type rdf:resource="http://purl.org/dc/dcmitype/StillImage"/>
    <dc:date>2020-11-21T16:38:10.016234</dc:date>
    <dc:format>image/svg+xml</dc:format>
    <dc:creator>
     <cc:Agent>
      <dc:title>Matplotlib v3.3.2, https://matplotlib.org/</dc:title>
     </cc:Agent>
    </dc:creator>
   </cc:Work>
  </rdf:RDF>
 </metadata>
 <defs>
  <style type="text/css">*{stroke-linecap:butt;stroke-linejoin:round;}</style>
 </defs>
 <g id="figure_1">
  <g id="patch_1">
   <path d="M 0 345.6 
L 460.8 345.6 
L 460.8 0 
L 0 0 
z
" style="fill:#ffffff;"/>
  </g>
  <g id="axes_1">
   <g id="patch_2">
    <path d="M 57.6 276.48 
L 414.72 276.48 
L 414.72 41.472 
L 57.6 41.472 
z
" style="fill:#ffffff;"/>
   </g>
   <g id="matplotlib.axis_1">
    <g id="xtick_1">
     <g id="line2d_1">
      <path clip-path="url(#p136ad98361)" d="M 72.945693 276.48 
L 72.945693 41.472 
" style="fill:none;stroke:#b0b0b0;stroke-linecap:square;stroke-width:0.8;"/>
     </g>
     <g id="line2d_2">
      <defs>
       <path d="M 0 0 
L 0 3.5 
" id="m8637ae946e" style="stroke:#000000;stroke-width:0.8;"/>
      </defs>
      <g>
       <use style="stroke:#000000;stroke-width:0.8;" x="72.945693" xlink:href="#m8637ae946e" y="276.48"/>
      </g>
     </g>
     <g id="text_1">
      <!-- 2019-05-05 -->
      <g transform="translate(21.576242 319.118252)rotate(-30)scale(0.1 -0.1)">
       <defs>
        <path d="M 19.1875 8.296875 
L 53.609375 8.296875 
L 53.609375 0 
L 7.328125 0 
L 7.328125 8.296875 
Q 12.9375 14.109375 22.625 23.890625 
Q 32.328125 33.6875 34.8125 36.53125 
Q 39.546875 41.84375 41.421875 45.53125 
Q 43.3125 49.21875 43.3125 52.78125 
Q 43.3125 58.59375 39.234375 62.25 
Q 35.15625 65.921875 28.609375 65.921875 
Q 23.96875 65.921875 18.8125 64.3125 
Q 13.671875 62.703125 7.8125 59.421875 
L 7.8125 69.390625 
Q 13.765625 71.78125 18.9375 73 
Q 24.125 74.21875 28.421875 74.21875 
Q 39.75 74.21875 46.484375 68.546875 
Q 53.21875 62.890625 53.21875 53.421875 
Q 53.21875 48.921875 51.53125 44.890625 
Q 49.859375 40.875 45.40625 35.40625 
Q 44.1875 33.984375 37.640625 27.21875 
Q 31.109375 20.453125 19.1875 8.296875 
z
" id="DejaVuSans-50"/>
        <path d="M 31.78125 66.40625 
Q 24.171875 66.40625 20.328125 58.90625 
Q 16.5 51.421875 16.5 36.375 
Q 16.5 21.390625 20.328125 13.890625 
Q 24.171875 6.390625 31.78125 6.390625 
Q 39.453125 6.390625 43.28125 13.890625 
Q 47.125 21.390625 47.125 36.375 
Q 47.125 51.421875 43.28125 58.90625 
Q 39.453125 66.40625 31.78125 66.40625 
z
M 31.78125 74.21875 
Q 44.046875 74.21875 50.515625 64.515625 
Q 56.984375 54.828125 56.984375 36.375 
Q 56.984375 17.96875 50.515625 8.265625 
Q 44.046875 -1.421875 31.78125 -1.421875 
Q 19.53125 -1.421875 13.0625 8.265625 
Q 6.59375 17.96875 6.59375 36.375 
Q 6.59375 54.828125 13.0625 64.515625 
Q 19.53125 74.21875 31.78125 74.21875 
z
" id="DejaVuSans-48"/>
        <path d="M 12.40625 8.296875 
L 28.515625 8.296875 
L 28.515625 63.921875 
L 10.984375 60.40625 
L 10.984375 69.390625 
L 28.421875 72.90625 
L 38.28125 72.90625 
L 38.28125 8.296875 
L 54.390625 8.296875 
L 54.390625 0 
L 12.40625 0 
z
" id="DejaVuSans-49"/>
        <path d="M 10.984375 1.515625 
L 10.984375 10.5 
Q 14.703125 8.734375 18.5 7.8125 
Q 22.3125 6.890625 25.984375 6.890625 
Q 35.75 6.890625 40.890625 13.453125 
Q 46.046875 20.015625 46.78125 33.40625 
Q 43.953125 29.203125 39.59375 26.953125 
Q 35.25 24.703125 29.984375 24.703125 
Q 19.046875 24.703125 12.671875 31.3125 
Q 6.296875 37.9375 6.296875 49.421875 
Q 6.296875 60.640625 12.9375 67.421875 
Q 19.578125 74.21875 30.609375 74.21875 
Q 43.265625 74.21875 49.921875 64.515625 
Q 56.59375 54.828125 56.59375 36.375 
Q 56.59375 19.140625 48.40625 8.859375 
Q 40.234375 -1.421875 26.421875 -1.421875 
Q 22.703125 -1.421875 18.890625 -0.6875 
Q 15.09375 0.046875 10.984375 1.515625 
z
M 30.609375 32.421875 
Q 37.25 32.421875 41.125 36.953125 
Q 45.015625 41.5 45.015625 49.421875 
Q 45.015625 57.28125 41.125 61.84375 
Q 37.25 66.40625 30.609375 66.40625 
Q 23.96875 66.40625 20.09375 61.84375 
Q 16.21875 57.28125 16.21875 49.421875 
Q 16.21875 41.5 20.09375 36.953125 
Q 23.96875 32.421875 30.609375 32.421875 
z
" id="DejaVuSans-57"/>
        <path d="M 4.890625 31.390625 
L 31.203125 31.390625 
L 31.203125 23.390625 
L 4.890625 23.390625 
z
" id="DejaVuSans-45"/>
        <path d="M 10.796875 72.90625 
L 49.515625 72.90625 
L 49.515625 64.59375 
L 19.828125 64.59375 
L 19.828125 46.734375 
Q 21.96875 47.46875 24.109375 47.828125 
Q 26.265625 48.1875 28.421875 48.1875 
Q 40.625 48.1875 47.75 41.5 
Q 54.890625 34.8125 54.890625 23.390625 
Q 54.890625 11.625 47.5625 5.09375 
Q 40.234375 -1.421875 26.90625 -1.421875 
Q 22.3125 -1.421875 17.546875 -0.640625 
Q 12.796875 0.140625 7.71875 1.703125 
L 7.71875 11.625 
Q 12.109375 9.234375 16.796875 8.0625 
Q 21.484375 6.890625 26.703125 6.890625 
Q 35.15625 6.890625 40.078125 11.328125 
Q 45.015625 15.765625 45.015625 23.390625 
Q 45.015625 31 40.078125 35.4375 
Q 35.15625 39.890625 26.703125 39.890625 
Q 22.75 39.890625 18.8125 39.015625 
Q 14.890625 38.140625 10.796875 36.28125 
z
" id="DejaVuSans-53"/>
       </defs>
       <use xlink:href="#DejaVuSans-50"/>
       <use x="63.623047" xlink:href="#DejaVuSans-48"/>
       <use x="127.246094" xlink:href="#DejaVuSans-49"/>
       <use x="190.869141" xlink:href="#DejaVuSans-57"/>
       <use x="254.492188" xlink:href="#DejaVuSans-45"/>
       <use x="290.576172" xlink:href="#DejaVuSans-48"/>
       <use x="354.199219" xlink:href="#DejaVuSans-53"/>
       <use x="417.822266" xlink:href="#DejaVuSans-45"/>
       <use x="453.90625" xlink:href="#DejaVuSans-48"/>
       <use x="517.529297" xlink:href="#DejaVuSans-53"/>
      </g>
     </g>
    </g>
    <g id="xtick_2">
     <g id="line2d_3">
      <path clip-path="url(#p136ad98361)" d="M 99.556721 276.48 
L 99.556721 41.472 
" style="fill:none;stroke:#b0b0b0;stroke-linecap:square;stroke-width:0.8;"/>
     </g>
     <g id="line2d_4">
      <g>
       <use style="stroke:#000000;stroke-width:0.8;" x="99.556721" xlink:href="#m8637ae946e" y="276.48"/>
      </g>
     </g>
     <g id="text_2">
      <!-- 2019-06-04 -->
      <g transform="translate(48.18727 319.118252)rotate(-30)scale(0.1 -0.1)">
       <defs>
        <path d="M 33.015625 40.375 
Q 26.375 40.375 22.484375 35.828125 
Q 18.609375 31.296875 18.609375 23.390625 
Q 18.609375 15.53125 22.484375 10.953125 
Q 26.375 6.390625 33.015625 6.390625 
Q 39.65625 6.390625 43.53125 10.953125 
Q 47.40625 15.53125 47.40625 23.390625 
Q 47.40625 31.296875 43.53125 35.828125 
Q 39.65625 40.375 33.015625 40.375 
z
M 52.59375 71.296875 
L 52.59375 62.3125 
Q 48.875 64.0625 45.09375 64.984375 
Q 41.3125 65.921875 37.59375 65.921875 
Q 27.828125 65.921875 22.671875 59.328125 
Q 17.53125 52.734375 16.796875 39.40625 
Q 19.671875 43.65625 24.015625 45.921875 
Q 28.375 48.1875 33.59375 48.1875 
Q 44.578125 48.1875 50.953125 41.515625 
Q 57.328125 34.859375 57.328125 23.390625 
Q 57.328125 12.15625 50.6875 5.359375 
Q 44.046875 -1.421875 33.015625 -1.421875 
Q 20.359375 -1.421875 13.671875 8.265625 
Q 6.984375 17.96875 6.984375 36.375 
Q 6.984375 53.65625 15.1875 63.9375 
Q 23.390625 74.21875 37.203125 74.21875 
Q 40.921875 74.21875 44.703125 73.484375 
Q 48.484375 72.75 52.59375 71.296875 
z
" id="DejaVuSans-54"/>
        <path d="M 37.796875 64.3125 
L 12.890625 25.390625 
L 37.796875 25.390625 
z
M 35.203125 72.90625 
L 47.609375 72.90625 
L 47.609375 25.390625 
L 58.015625 25.390625 
L 58.015625 17.1875 
L 47.609375 17.1875 
L 47.609375 0 
L 37.796875 0 
L 37.796875 17.1875 
L 4.890625 17.1875 
L 4.890625 26.703125 
z
" id="DejaVuSans-52"/>
       </defs>
       <use xlink:href="#DejaVuSans-50"/>
       <use x="63.623047" xlink:href="#DejaVuSans-48"/>
       <use x="127.246094" xlink:href="#DejaVuSans-49"/>
       <use x="190.869141" xlink:href="#DejaVuSans-57"/>
       <use x="254.492188" xlink:href="#DejaVuSans-45"/>
       <use x="290.576172" xlink:href="#DejaVuSans-48"/>
       <use x="354.199219" xlink:href="#DejaVuSans-54"/>
       <use x="417.822266" xlink:href="#DejaVuSans-45"/>
       <use x="453.90625" xlink:href="#DejaVuSans-48"/>
       <use x="517.529297" xlink:href="#DejaVuSans-52"/>
      </g>
     </g>
    </g>
    <g id="xtick_3">
     <g id="line2d_5">
      <path clip-path="url(#p136ad98361)" d="M 126.16775 276.48 
L 126.16775 41.472 
" style="fill:none;stroke:#b0b0b0;stroke-linecap:square;stroke-width:0.8;"/>
     </g>
     <g id="line2d_6">
      <g>
       <use style="stroke:#000000;stroke-width:0.8;" x="126.16775" xlink:href="#m8637ae946e" y="276.48"/>
      </g>
     </g>
     <g id="text_3">
      <!-- 2019-07-04 -->
      <g transform="translate(74.798298 319.118252)rotate(-30)scale(0.1 -0.1)">
       <defs>
        <path d="M 8.203125 72.90625 
L 55.078125 72.90625 
L 55.078125 68.703125 
L 28.609375 0 
L 18.3125 0 
L 43.21875 64.59375 
L 8.203125 64.59375 
z
" id="DejaVuSans-55"/>
       </defs>
       <use xlink:href="#DejaVuSans-50"/>
       <use x="63.623047" xlink:href="#DejaVuSans-48"/>
       <use x="127.246094" xlink:href="#DejaVuSans-49"/>
       <use x="190.869141" xlink:href="#DejaVuSans-57"/>
       <use x="254.492188" xlink:href="#DejaVuSans-45"/>
       <use x="290.576172" xlink:href="#DejaVuSans-48"/>
       <use x="354.199219" xlink:href="#DejaVuSans-55"/>
       <use x="417.822266" xlink:href="#DejaVuSans-45"/>
       <use x="453.90625" xlink:href="#DejaVuSans-48"/>
       <use x="517.529297" xlink:href="#DejaVuSans-52"/>
      </g>
     </g>
    </g>
    <g id="xtick_4">
     <g id="line2d_7">
      <path clip-path="url(#p136ad98361)" d="M 152.778778 276.48 
L 152.778778 41.472 
" style="fill:none;stroke:#b0b0b0;stroke-linecap:square;stroke-width:0.8;"/>
     </g>
     <g id="line2d_8">
      <g>
       <use style="stroke:#000000;stroke-width:0.8;" x="152.778778" xlink:href="#m8637ae946e" y="276.48"/>
      </g>
     </g>
     <g id="text_4">
      <!-- 2019-08-03 -->
      <g transform="translate(101.409327 319.118252)rotate(-30)scale(0.1 -0.1)">
       <defs>
        <path d="M 31.78125 34.625 
Q 24.75 34.625 20.71875 30.859375 
Q 16.703125 27.09375 16.703125 20.515625 
Q 16.703125 13.921875 20.71875 10.15625 
Q 24.75 6.390625 31.78125 6.390625 
Q 38.8125 6.390625 42.859375 10.171875 
Q 46.921875 13.96875 46.921875 20.515625 
Q 46.921875 27.09375 42.890625 30.859375 
Q 38.875 34.625 31.78125 34.625 
z
M 21.921875 38.8125 
Q 15.578125 40.375 12.03125 44.71875 
Q 8.5 49.078125 8.5 55.328125 
Q 8.5 64.0625 14.71875 69.140625 
Q 20.953125 74.21875 31.78125 74.21875 
Q 42.671875 74.21875 48.875 69.140625 
Q 55.078125 64.0625 55.078125 55.328125 
Q 55.078125 49.078125 51.53125 44.71875 
Q 48 40.375 41.703125 38.8125 
Q 48.828125 37.15625 52.796875 32.3125 
Q 56.78125 27.484375 56.78125 20.515625 
Q 56.78125 9.90625 50.3125 4.234375 
Q 43.84375 -1.421875 31.78125 -1.421875 
Q 19.734375 -1.421875 13.25 4.234375 
Q 6.78125 9.90625 6.78125 20.515625 
Q 6.78125 27.484375 10.78125 32.3125 
Q 14.796875 37.15625 21.921875 38.8125 
z
M 18.3125 54.390625 
Q 18.3125 48.734375 21.84375 45.5625 
Q 25.390625 42.390625 31.78125 42.390625 
Q 38.140625 42.390625 41.71875 45.5625 
Q 45.3125 48.734375 45.3125 54.390625 
Q 45.3125 60.0625 41.71875 63.234375 
Q 38.140625 66.40625 31.78125 66.40625 
Q 25.390625 66.40625 21.84375 63.234375 
Q 18.3125 60.0625 18.3125 54.390625 
z
" id="DejaVuSans-56"/>
        <path d="M 40.578125 39.3125 
Q 47.65625 37.796875 51.625 33 
Q 55.609375 28.21875 55.609375 21.1875 
Q 55.609375 10.40625 48.1875 4.484375 
Q 40.765625 -1.421875 27.09375 -1.421875 
Q 22.515625 -1.421875 17.65625 -0.515625 
Q 12.796875 0.390625 7.625 2.203125 
L 7.625 11.71875 
Q 11.71875 9.328125 16.59375 8.109375 
Q 21.484375 6.890625 26.8125 6.890625 
Q 36.078125 6.890625 40.9375 10.546875 
Q 45.796875 14.203125 45.796875 21.1875 
Q 45.796875 27.640625 41.28125 31.265625 
Q 36.765625 34.90625 28.71875 34.90625 
L 20.21875 34.90625 
L 20.21875 43.015625 
L 29.109375 43.015625 
Q 36.375 43.015625 40.234375 45.921875 
Q 44.09375 48.828125 44.09375 54.296875 
Q 44.09375 59.90625 40.109375 62.90625 
Q 36.140625 65.921875 28.71875 65.921875 
Q 24.65625 65.921875 20.015625 65.03125 
Q 15.375 64.15625 9.8125 62.3125 
L 9.8125 71.09375 
Q 15.4375 72.65625 20.34375 73.4375 
Q 25.25 74.21875 29.59375 74.21875 
Q 40.828125 74.21875 47.359375 69.109375 
Q 53.90625 64.015625 53.90625 55.328125 
Q 53.90625 49.265625 50.4375 45.09375 
Q 46.96875 40.921875 40.578125 39.3125 
z
" id="DejaVuSans-51"/>
       </defs>
       <use xlink:href="#DejaVuSans-50"/>
       <use x="63.623047" xlink:href="#DejaVuSans-48"/>
       <use x="127.246094" xlink:href="#DejaVuSans-49"/>
       <use x="190.869141" xlink:href="#DejaVuSans-57"/>
       <use x="254.492188" xlink:href="#DejaVuSans-45"/>
       <use x="290.576172" xlink:href="#DejaVuSans-48"/>
       <use x="354.199219" xlink:href="#DejaVuSans-56"/>
       <use x="417.822266" xlink:href="#DejaVuSans-45"/>
       <use x="453.90625" xlink:href="#DejaVuSans-48"/>
       <use x="517.529297" xlink:href="#DejaVuSans-51"/>
      </g>
     </g>
    </g>
    <g id="xtick_5">
     <g id="line2d_9">
      <path clip-path="url(#p136ad98361)" d="M 179.389806 276.48 
L 179.389806 41.472 
" style="fill:none;stroke:#b0b0b0;stroke-linecap:square;stroke-width:0.8;"/>
     </g>
     <g id="line2d_10">
      <g>
       <use style="stroke:#000000;stroke-width:0.8;" x="179.389806" xlink:href="#m8637ae946e" y="276.48"/>
      </g>
     </g>
     <g id="text_5">
      <!-- 2019-09-02 -->
      <g transform="translate(128.020355 319.118252)rotate(-30)scale(0.1 -0.1)">
       <use xlink:href="#DejaVuSans-50"/>
       <use x="63.623047" xlink:href="#DejaVuSans-48"/>
       <use x="127.246094" xlink:href="#DejaVuSans-49"/>
       <use x="190.869141" xlink:href="#DejaVuSans-57"/>
       <use x="254.492188" xlink:href="#DejaVuSans-45"/>
       <use x="290.576172" xlink:href="#DejaVuSans-48"/>
       <use x="354.199219" xlink:href="#DejaVuSans-57"/>
       <use x="417.822266" xlink:href="#DejaVuSans-45"/>
       <use x="453.90625" xlink:href="#DejaVuSans-48"/>
       <use x="517.529297" xlink:href="#DejaVuSans-50"/>
      </g>
     </g>
    </g>
    <g id="xtick_6">
     <g id="line2d_11">
      <path clip-path="url(#p136ad98361)" d="M 206.000835 276.48 
L 206.000835 41.472 
" style="fill:none;stroke:#b0b0b0;stroke-linecap:square;stroke-width:0.8;"/>
     </g>
     <g id="line2d_12">
      <g>
       <use style="stroke:#000000;stroke-width:0.8;" x="206.000835" xlink:href="#m8637ae946e" y="276.48"/>
      </g>
     </g>
     <g id="text_6">
      <!-- 2019-10-02 -->
      <g transform="translate(154.631383 319.118252)rotate(-30)scale(0.1 -0.1)">
       <use xlink:href="#DejaVuSans-50"/>
       <use x="63.623047" xlink:href="#DejaVuSans-48"/>
       <use x="127.246094" xlink:href="#DejaVuSans-49"/>
       <use x="190.869141" xlink:href="#DejaVuSans-57"/>
       <use x="254.492188" xlink:href="#DejaVuSans-45"/>
       <use x="290.576172" xlink:href="#DejaVuSans-49"/>
       <use x="354.199219" xlink:href="#DejaVuSans-48"/>
       <use x="417.822266" xlink:href="#DejaVuSans-45"/>
       <use x="453.90625" xlink:href="#DejaVuSans-48"/>
       <use x="517.529297" xlink:href="#DejaVuSans-50"/>
      </g>
     </g>
    </g>
    <g id="xtick_7">
     <g id="line2d_13">
      <path clip-path="url(#p136ad98361)" d="M 232.611863 276.48 
L 232.611863 41.472 
" style="fill:none;stroke:#b0b0b0;stroke-linecap:square;stroke-width:0.8;"/>
     </g>
     <g id="line2d_14">
      <g>
       <use style="stroke:#000000;stroke-width:0.8;" x="232.611863" xlink:href="#m8637ae946e" y="276.48"/>
      </g>
     </g>
     <g id="text_7">
      <!-- 2019-11-01 -->
      <g transform="translate(181.242412 319.118252)rotate(-30)scale(0.1 -0.1)">
       <use xlink:href="#DejaVuSans-50"/>
       <use x="63.623047" xlink:href="#DejaVuSans-48"/>
       <use x="127.246094" xlink:href="#DejaVuSans-49"/>
       <use x="190.869141" xlink:href="#DejaVuSans-57"/>
       <use x="254.492188" xlink:href="#DejaVuSans-45"/>
       <use x="290.576172" xlink:href="#DejaVuSans-49"/>
       <use x="354.199219" xlink:href="#DejaVuSans-49"/>
       <use x="417.822266" xlink:href="#DejaVuSans-45"/>
       <use x="453.90625" xlink:href="#DejaVuSans-48"/>
       <use x="517.529297" xlink:href="#DejaVuSans-49"/>
      </g>
     </g>
    </g>
    <g id="xtick_8">
     <g id="line2d_15">
      <path clip-path="url(#p136ad98361)" d="M 259.222891 276.48 
L 259.222891 41.472 
" style="fill:none;stroke:#b0b0b0;stroke-linecap:square;stroke-width:0.8;"/>
     </g>
     <g id="line2d_16">
      <g>
       <use style="stroke:#000000;stroke-width:0.8;" x="259.222891" xlink:href="#m8637ae946e" y="276.48"/>
      </g>
     </g>
     <g id="text_8">
      <!-- 2019-12-01 -->
      <g transform="translate(207.85344 319.118252)rotate(-30)scale(0.1 -0.1)">
       <use xlink:href="#DejaVuSans-50"/>
       <use x="63.623047" xlink:href="#DejaVuSans-48"/>
       <use x="127.246094" xlink:href="#DejaVuSans-49"/>
       <use x="190.869141" xlink:href="#DejaVuSans-57"/>
       <use x="254.492188" xlink:href="#DejaVuSans-45"/>
       <use x="290.576172" xlink:href="#DejaVuSans-49"/>
       <use x="354.199219" xlink:href="#DejaVuSans-50"/>
       <use x="417.822266" xlink:href="#DejaVuSans-45"/>
       <use x="453.90625" xlink:href="#DejaVuSans-48"/>
       <use x="517.529297" xlink:href="#DejaVuSans-49"/>
      </g>
     </g>
    </g>
    <g id="xtick_9">
     <g id="line2d_17">
      <path clip-path="url(#p136ad98361)" d="M 285.83392 276.48 
L 285.83392 41.472 
" style="fill:none;stroke:#b0b0b0;stroke-linecap:square;stroke-width:0.8;"/>
     </g>
     <g id="line2d_18">
      <g>
       <use style="stroke:#000000;stroke-width:0.8;" x="285.83392" xlink:href="#m8637ae946e" y="276.48"/>
      </g>
     </g>
     <g id="text_9">
      <!-- 2019-12-31 -->
      <g transform="translate(234.464468 319.118252)rotate(-30)scale(0.1 -0.1)">
       <use xlink:href="#DejaVuSans-50"/>
       <use x="63.623047" xlink:href="#DejaVuSans-48"/>
       <use x="127.246094" xlink:href="#DejaVuSans-49"/>
       <use x="190.869141" xlink:href="#DejaVuSans-57"/>
       <use x="254.492188" xlink:href="#DejaVuSans-45"/>
       <use x="290.576172" xlink:href="#DejaVuSans-49"/>
       <use x="354.199219" xlink:href="#DejaVuSans-50"/>
       <use x="417.822266" xlink:href="#DejaVuSans-45"/>
       <use x="453.90625" xlink:href="#DejaVuSans-51"/>
       <use x="517.529297" xlink:href="#DejaVuSans-49"/>
      </g>
     </g>
    </g>
    <g id="xtick_10">
     <g id="line2d_19">
      <path clip-path="url(#p136ad98361)" d="M 312.444948 276.48 
L 312.444948 41.472 
" style="fill:none;stroke:#b0b0b0;stroke-linecap:square;stroke-width:0.8;"/>
     </g>
     <g id="line2d_20">
      <g>
       <use style="stroke:#000000;stroke-width:0.8;" x="312.444948" xlink:href="#m8637ae946e" y="276.48"/>
      </g>
     </g>
     <g id="text_10">
      <!-- 2020-01-30 -->
      <g transform="translate(261.075496 319.118252)rotate(-30)scale(0.1 -0.1)">
       <use xlink:href="#DejaVuSans-50"/>
       <use x="63.623047" xlink:href="#DejaVuSans-48"/>
       <use x="127.246094" xlink:href="#DejaVuSans-50"/>
       <use x="190.869141" xlink:href="#DejaVuSans-48"/>
       <use x="254.492188" xlink:href="#DejaVuSans-45"/>
       <use x="290.576172" xlink:href="#DejaVuSans-48"/>
       <use x="354.199219" xlink:href="#DejaVuSans-49"/>
       <use x="417.822266" xlink:href="#DejaVuSans-45"/>
       <use x="453.90625" xlink:href="#DejaVuSans-51"/>
       <use x="517.529297" xlink:href="#DejaVuSans-48"/>
      </g>
     </g>
    </g>
    <g id="xtick_11">
     <g id="line2d_21">
      <path clip-path="url(#p136ad98361)" d="M 339.055976 276.48 
L 339.055976 41.472 
" style="fill:none;stroke:#b0b0b0;stroke-linecap:square;stroke-width:0.8;"/>
     </g>
     <g id="line2d_22">
      <g>
       <use style="stroke:#000000;stroke-width:0.8;" x="339.055976" xlink:href="#m8637ae946e" y="276.48"/>
      </g>
     </g>
     <g id="text_11">
      <!-- 2020-02-29 -->
      <g transform="translate(287.686525 319.118252)rotate(-30)scale(0.1 -0.1)">
       <use xlink:href="#DejaVuSans-50"/>
       <use x="63.623047" xlink:href="#DejaVuSans-48"/>
       <use x="127.246094" xlink:href="#DejaVuSans-50"/>
       <use x="190.869141" xlink:href="#DejaVuSans-48"/>
       <use x="254.492188" xlink:href="#DejaVuSans-45"/>
       <use x="290.576172" xlink:href="#DejaVuSans-48"/>
       <use x="354.199219" xlink:href="#DejaVuSans-50"/>
       <use x="417.822266" xlink:href="#DejaVuSans-45"/>
       <use x="453.90625" xlink:href="#DejaVuSans-50"/>
       <use x="517.529297" xlink:href="#DejaVuSans-57"/>
      </g>
     </g>
    </g>
    <g id="xtick_12">
     <g id="line2d_23">
      <path clip-path="url(#p136ad98361)" d="M 365.667004 276.48 
L 365.667004 41.472 
" style="fill:none;stroke:#b0b0b0;stroke-linecap:square;stroke-width:0.8;"/>
     </g>
     <g id="line2d_24">
      <g>
       <use style="stroke:#000000;stroke-width:0.8;" x="365.667004" xlink:href="#m8637ae946e" y="276.48"/>
      </g>
     </g>
     <g id="text_12">
      <!-- 2020-03-30 -->
      <g transform="translate(314.297553 319.118252)rotate(-30)scale(0.1 -0.1)">
       <use xlink:href="#DejaVuSans-50"/>
       <use x="63.623047" xlink:href="#DejaVuSans-48"/>
       <use x="127.246094" xlink:href="#DejaVuSans-50"/>
       <use x="190.869141" xlink:href="#DejaVuSans-48"/>
       <use x="254.492188" xlink:href="#DejaVuSans-45"/>
       <use x="290.576172" xlink:href="#DejaVuSans-48"/>
       <use x="354.199219" xlink:href="#DejaVuSans-51"/>
       <use x="417.822266" xlink:href="#DejaVuSans-45"/>
       <use x="453.90625" xlink:href="#DejaVuSans-51"/>
       <use x="517.529297" xlink:href="#DejaVuSans-48"/>
      </g>
     </g>
    </g>
    <g id="xtick_13">
     <g id="line2d_25">
      <path clip-path="url(#p136ad98361)" d="M 392.278033 276.48 
L 392.278033 41.472 
" style="fill:none;stroke:#b0b0b0;stroke-linecap:square;stroke-width:0.8;"/>
     </g>
     <g id="line2d_26">
      <g>
       <use style="stroke:#000000;stroke-width:0.8;" x="392.278033" xlink:href="#m8637ae946e" y="276.48"/>
      </g>
     </g>
     <g id="text_13">
      <!-- 2020-04-29 -->
      <g transform="translate(340.908581 319.118252)rotate(-30)scale(0.1 -0.1)">
       <use xlink:href="#DejaVuSans-50"/>
       <use x="63.623047" xlink:href="#DejaVuSans-48"/>
       <use x="127.246094" xlink:href="#DejaVuSans-50"/>
       <use x="190.869141" xlink:href="#DejaVuSans-48"/>
       <use x="254.492188" xlink:href="#DejaVuSans-45"/>
       <use x="290.576172" xlink:href="#DejaVuSans-48"/>
       <use x="354.199219" xlink:href="#DejaVuSans-52"/>
       <use x="417.822266" xlink:href="#DejaVuSans-45"/>
       <use x="453.90625" xlink:href="#DejaVuSans-50"/>
       <use x="517.529297" xlink:href="#DejaVuSans-57"/>
      </g>
     </g>
    </g>
    <g id="text_14">
     <!-- Date -->
     <g transform="translate(224.209219 332.517752)scale(0.1 -0.1)">
      <defs>
       <path d="M 19.671875 64.796875 
L 19.671875 8.109375 
L 31.59375 8.109375 
Q 46.6875 8.109375 53.6875 14.9375 
Q 60.6875 21.78125 60.6875 36.53125 
Q 60.6875 51.171875 53.6875 57.984375 
Q 46.6875 64.796875 31.59375 64.796875 
z
M 9.8125 72.90625 
L 30.078125 72.90625 
Q 51.265625 72.90625 61.171875 64.09375 
Q 71.09375 55.28125 71.09375 36.53125 
Q 71.09375 17.671875 61.125 8.828125 
Q 51.171875 0 30.078125 0 
L 9.8125 0 
z
" id="DejaVuSans-68"/>
       <path d="M 34.28125 27.484375 
Q 23.390625 27.484375 19.1875 25 
Q 14.984375 22.515625 14.984375 16.5 
Q 14.984375 11.71875 18.140625 8.90625 
Q 21.296875 6.109375 26.703125 6.109375 
Q 34.1875 6.109375 38.703125 11.40625 
Q 43.21875 16.703125 43.21875 25.484375 
L 43.21875 27.484375 
z
M 52.203125 31.203125 
L 52.203125 0 
L 43.21875 0 
L 43.21875 8.296875 
Q 40.140625 3.328125 35.546875 0.953125 
Q 30.953125 -1.421875 24.3125 -1.421875 
Q 15.921875 -1.421875 10.953125 3.296875 
Q 6 8.015625 6 15.921875 
Q 6 25.140625 12.171875 29.828125 
Q 18.359375 34.515625 30.609375 34.515625 
L 43.21875 34.515625 
L 43.21875 35.40625 
Q 43.21875 41.609375 39.140625 45 
Q 35.0625 48.390625 27.6875 48.390625 
Q 23 48.390625 18.546875 47.265625 
Q 14.109375 46.140625 10.015625 43.890625 
L 10.015625 52.203125 
Q 14.9375 54.109375 19.578125 55.046875 
Q 24.21875 56 28.609375 56 
Q 40.484375 56 46.34375 49.84375 
Q 52.203125 43.703125 52.203125 31.203125 
z
" id="DejaVuSans-97"/>
       <path d="M 18.3125 70.21875 
L 18.3125 54.6875 
L 36.8125 54.6875 
L 36.8125 47.703125 
L 18.3125 47.703125 
L 18.3125 18.015625 
Q 18.3125 11.328125 20.140625 9.421875 
Q 21.96875 7.515625 27.59375 7.515625 
L 36.8125 7.515625 
L 36.8125 0 
L 27.59375 0 
Q 17.1875 0 13.234375 3.875 
Q 9.28125 7.765625 9.28125 18.015625 
L 9.28125 47.703125 
L 2.6875 47.703125 
L 2.6875 54.6875 
L 9.28125 54.6875 
L 9.28125 70.21875 
z
" id="DejaVuSans-116"/>
       <path d="M 56.203125 29.59375 
L 56.203125 25.203125 
L 14.890625 25.203125 
Q 15.484375 15.921875 20.484375 11.0625 
Q 25.484375 6.203125 34.421875 6.203125 
Q 39.59375 6.203125 44.453125 7.46875 
Q 49.3125 8.734375 54.109375 11.28125 
L 54.109375 2.78125 
Q 49.265625 0.734375 44.1875 -0.34375 
Q 39.109375 -1.421875 33.890625 -1.421875 
Q 20.796875 -1.421875 13.15625 6.1875 
Q 5.515625 13.8125 5.515625 26.8125 
Q 5.515625 40.234375 12.765625 48.109375 
Q 20.015625 56 32.328125 56 
Q 43.359375 56 49.78125 48.890625 
Q 56.203125 41.796875 56.203125 29.59375 
z
M 47.21875 32.234375 
Q 47.125 39.59375 43.09375 43.984375 
Q 39.0625 48.390625 32.421875 48.390625 
Q 24.90625 48.390625 20.390625 44.140625 
Q 15.875 39.890625 15.1875 32.171875 
z
" id="DejaVuSans-101"/>
      </defs>
      <use xlink:href="#DejaVuSans-68"/>
      <use x="77.001953" xlink:href="#DejaVuSans-97"/>
      <use x="138.28125" xlink:href="#DejaVuSans-116"/>
      <use x="177.490234" xlink:href="#DejaVuSans-101"/>
     </g>
    </g>
   </g>
   <g id="matplotlib.axis_2">
    <g id="ytick_1">
     <g id="line2d_27">
      <path clip-path="url(#p136ad98361)" d="M 57.6 274.041303 
L 414.72 274.041303 
" style="fill:none;stroke:#b0b0b0;stroke-linecap:square;stroke-width:0.8;"/>
     </g>
     <g id="line2d_28">
      <defs>
       <path d="M 0 0 
L -3.5 0 
" id="m367f0c4b85" style="stroke:#000000;stroke-width:0.8;"/>
      </defs>
      <g>
       <use style="stroke:#000000;stroke-width:0.8;" x="57.6" xlink:href="#m367f0c4b85" y="274.041303"/>
      </g>
     </g>
     <g id="text_15">
      <!-- 3.70 -->
      <g transform="translate(28.334375 277.840521)scale(0.1 -0.1)">
       <defs>
        <path d="M 10.6875 12.40625 
L 21 12.40625 
L 21 0 
L 10.6875 0 
z
" id="DejaVuSans-46"/>
       </defs>
       <use xlink:href="#DejaVuSans-51"/>
       <use x="63.623047" xlink:href="#DejaVuSans-46"/>
       <use x="95.410156" xlink:href="#DejaVuSans-55"/>
       <use x="159.033203" xlink:href="#DejaVuSans-48"/>
      </g>
     </g>
    </g>
    <g id="ytick_2">
     <g id="line2d_29">
      <path clip-path="url(#p136ad98361)" d="M 57.6 261.774213 
L 414.72 261.774213 
" style="fill:none;stroke:#b0b0b0;stroke-linecap:square;stroke-width:0.8;"/>
     </g>
     <g id="line2d_30">
      <g>
       <use style="stroke:#000000;stroke-width:0.8;" x="57.6" xlink:href="#m367f0c4b85" y="261.774213"/>
      </g>
     </g>
     <g id="text_16">
      <!-- 3.75 -->
      <g transform="translate(28.334375 265.573431)scale(0.1 -0.1)">
       <use xlink:href="#DejaVuSans-51"/>
       <use x="63.623047" xlink:href="#DejaVuSans-46"/>
       <use x="95.410156" xlink:href="#DejaVuSans-55"/>
       <use x="159.033203" xlink:href="#DejaVuSans-53"/>
      </g>
     </g>
    </g>
    <g id="ytick_3">
     <g id="line2d_31">
      <path clip-path="url(#p136ad98361)" d="M 57.6 249.507123 
L 414.72 249.507123 
" style="fill:none;stroke:#b0b0b0;stroke-linecap:square;stroke-width:0.8;"/>
     </g>
     <g id="line2d_32">
      <g>
       <use style="stroke:#000000;stroke-width:0.8;" x="57.6" xlink:href="#m367f0c4b85" y="249.507123"/>
      </g>
     </g>
     <g id="text_17">
      <!-- 3.80 -->
      <g transform="translate(28.334375 253.306342)scale(0.1 -0.1)">
       <use xlink:href="#DejaVuSans-51"/>
       <use x="63.623047" xlink:href="#DejaVuSans-46"/>
       <use x="95.410156" xlink:href="#DejaVuSans-56"/>
       <use x="159.033203" xlink:href="#DejaVuSans-48"/>
      </g>
     </g>
    </g>
    <g id="ytick_4">
     <g id="line2d_33">
      <path clip-path="url(#p136ad98361)" d="M 57.6 237.240033 
L 414.72 237.240033 
" style="fill:none;stroke:#b0b0b0;stroke-linecap:square;stroke-width:0.8;"/>
     </g>
     <g id="line2d_34">
      <g>
       <use style="stroke:#000000;stroke-width:0.8;" x="57.6" xlink:href="#m367f0c4b85" y="237.240033"/>
      </g>
     </g>
     <g id="text_18">
      <!-- 3.85 -->
      <g transform="translate(28.334375 241.039252)scale(0.1 -0.1)">
       <use xlink:href="#DejaVuSans-51"/>
       <use x="63.623047" xlink:href="#DejaVuSans-46"/>
       <use x="95.410156" xlink:href="#DejaVuSans-56"/>
       <use x="159.033203" xlink:href="#DejaVuSans-53"/>
      </g>
     </g>
    </g>
    <g id="ytick_5">
     <g id="line2d_35">
      <path clip-path="url(#p136ad98361)" d="M 57.6 224.972943 
L 414.72 224.972943 
" style="fill:none;stroke:#b0b0b0;stroke-linecap:square;stroke-width:0.8;"/>
     </g>
     <g id="line2d_36">
      <g>
       <use style="stroke:#000000;stroke-width:0.8;" x="57.6" xlink:href="#m367f0c4b85" y="224.972943"/>
      </g>
     </g>
     <g id="text_19">
      <!-- 3.90 -->
      <g transform="translate(28.334375 228.772162)scale(0.1 -0.1)">
       <use xlink:href="#DejaVuSans-51"/>
       <use x="63.623047" xlink:href="#DejaVuSans-46"/>
       <use x="95.410156" xlink:href="#DejaVuSans-57"/>
       <use x="159.033203" xlink:href="#DejaVuSans-48"/>
      </g>
     </g>
    </g>
    <g id="ytick_6">
     <g id="line2d_37">
      <path clip-path="url(#p136ad98361)" d="M 57.6 212.705853 
L 414.72 212.705853 
" style="fill:none;stroke:#b0b0b0;stroke-linecap:square;stroke-width:0.8;"/>
     </g>
     <g id="line2d_38">
      <g>
       <use style="stroke:#000000;stroke-width:0.8;" x="57.6" xlink:href="#m367f0c4b85" y="212.705853"/>
      </g>
     </g>
     <g id="text_20">
      <!-- 3.95 -->
      <g transform="translate(28.334375 216.505072)scale(0.1 -0.1)">
       <use xlink:href="#DejaVuSans-51"/>
       <use x="63.623047" xlink:href="#DejaVuSans-46"/>
       <use x="95.410156" xlink:href="#DejaVuSans-57"/>
       <use x="159.033203" xlink:href="#DejaVuSans-53"/>
      </g>
     </g>
    </g>
    <g id="ytick_7">
     <g id="line2d_39">
      <path clip-path="url(#p136ad98361)" d="M 57.6 200.438764 
L 414.72 200.438764 
" style="fill:none;stroke:#b0b0b0;stroke-linecap:square;stroke-width:0.8;"/>
     </g>
     <g id="line2d_40">
      <g>
       <use style="stroke:#000000;stroke-width:0.8;" x="57.6" xlink:href="#m367f0c4b85" y="200.438764"/>
      </g>
     </g>
     <g id="text_21">
      <!-- 4.00 -->
      <g transform="translate(28.334375 204.237982)scale(0.1 -0.1)">
       <use xlink:href="#DejaVuSans-52"/>
       <use x="63.623047" xlink:href="#DejaVuSans-46"/>
       <use x="95.410156" xlink:href="#DejaVuSans-48"/>
       <use x="159.033203" xlink:href="#DejaVuSans-48"/>
      </g>
     </g>
    </g>
    <g id="ytick_8">
     <g id="line2d_41">
      <path clip-path="url(#p136ad98361)" d="M 57.6 188.171674 
L 414.72 188.171674 
" style="fill:none;stroke:#b0b0b0;stroke-linecap:square;stroke-width:0.8;"/>
     </g>
     <g id="line2d_42">
      <g>
       <use style="stroke:#000000;stroke-width:0.8;" x="57.6" xlink:href="#m367f0c4b85" y="188.171674"/>
      </g>
     </g>
     <g id="text_22">
      <!-- 4.05 -->
      <g transform="translate(28.334375 191.970893)scale(0.1 -0.1)">
       <use xlink:href="#DejaVuSans-52"/>
       <use x="63.623047" xlink:href="#DejaVuSans-46"/>
       <use x="95.410156" xlink:href="#DejaVuSans-48"/>
       <use x="159.033203" xlink:href="#DejaVuSans-53"/>
      </g>
     </g>
    </g>
    <g id="ytick_9">
     <g id="line2d_43">
      <path clip-path="url(#p136ad98361)" d="M 57.6 175.904584 
L 414.72 175.904584 
" style="fill:none;stroke:#b0b0b0;stroke-linecap:square;stroke-width:0.8;"/>
     </g>
     <g id="line2d_44">
      <g>
       <use style="stroke:#000000;stroke-width:0.8;" x="57.6" xlink:href="#m367f0c4b85" y="175.904584"/>
      </g>
     </g>
     <g id="text_23">
      <!-- 4.10 -->
      <g transform="translate(28.334375 179.703803)scale(0.1 -0.1)">
       <use xlink:href="#DejaVuSans-52"/>
       <use x="63.623047" xlink:href="#DejaVuSans-46"/>
       <use x="95.410156" xlink:href="#DejaVuSans-49"/>
       <use x="159.033203" xlink:href="#DejaVuSans-48"/>
      </g>
     </g>
    </g>
    <g id="ytick_10">
     <g id="line2d_45">
      <path clip-path="url(#p136ad98361)" d="M 57.6 163.637494 
L 414.72 163.637494 
" style="fill:none;stroke:#b0b0b0;stroke-linecap:square;stroke-width:0.8;"/>
     </g>
     <g id="line2d_46">
      <g>
       <use style="stroke:#000000;stroke-width:0.8;" x="57.6" xlink:href="#m367f0c4b85" y="163.637494"/>
      </g>
     </g>
     <g id="text_24">
      <!-- 4.15 -->
      <g transform="translate(28.334375 167.436713)scale(0.1 -0.1)">
       <use xlink:href="#DejaVuSans-52"/>
       <use x="63.623047" xlink:href="#DejaVuSans-46"/>
       <use x="95.410156" xlink:href="#DejaVuSans-49"/>
       <use x="159.033203" xlink:href="#DejaVuSans-53"/>
      </g>
     </g>
    </g>
    <g id="ytick_11">
     <g id="line2d_47">
      <path clip-path="url(#p136ad98361)" d="M 57.6 151.370404 
L 414.72 151.370404 
" style="fill:none;stroke:#b0b0b0;stroke-linecap:square;stroke-width:0.8;"/>
     </g>
     <g id="line2d_48">
      <g>
       <use style="stroke:#000000;stroke-width:0.8;" x="57.6" xlink:href="#m367f0c4b85" y="151.370404"/>
      </g>
     </g>
     <g id="text_25">
      <!-- 4.20 -->
      <g transform="translate(28.334375 155.169623)scale(0.1 -0.1)">
       <use xlink:href="#DejaVuSans-52"/>
       <use x="63.623047" xlink:href="#DejaVuSans-46"/>
       <use x="95.410156" xlink:href="#DejaVuSans-50"/>
       <use x="159.033203" xlink:href="#DejaVuSans-48"/>
      </g>
     </g>
    </g>
    <g id="ytick_12">
     <g id="line2d_49">
      <path clip-path="url(#p136ad98361)" d="M 57.6 139.103314 
L 414.72 139.103314 
" style="fill:none;stroke:#b0b0b0;stroke-linecap:square;stroke-width:0.8;"/>
     </g>
     <g id="line2d_50">
      <g>
       <use style="stroke:#000000;stroke-width:0.8;" x="57.6" xlink:href="#m367f0c4b85" y="139.103314"/>
      </g>
     </g>
     <g id="text_26">
      <!-- 4.25 -->
      <g transform="translate(28.334375 142.902533)scale(0.1 -0.1)">
       <use xlink:href="#DejaVuSans-52"/>
       <use x="63.623047" xlink:href="#DejaVuSans-46"/>
       <use x="95.410156" xlink:href="#DejaVuSans-50"/>
       <use x="159.033203" xlink:href="#DejaVuSans-53"/>
      </g>
     </g>
    </g>
    <g id="ytick_13">
     <g id="line2d_51">
      <path clip-path="url(#p136ad98361)" d="M 57.6 126.836225 
L 414.72 126.836225 
" style="fill:none;stroke:#b0b0b0;stroke-linecap:square;stroke-width:0.8;"/>
     </g>
     <g id="line2d_52">
      <g>
       <use style="stroke:#000000;stroke-width:0.8;" x="57.6" xlink:href="#m367f0c4b85" y="126.836225"/>
      </g>
     </g>
     <g id="text_27">
      <!-- 4.30 -->
      <g transform="translate(28.334375 130.635443)scale(0.1 -0.1)">
       <use xlink:href="#DejaVuSans-52"/>
       <use x="63.623047" xlink:href="#DejaVuSans-46"/>
       <use x="95.410156" xlink:href="#DejaVuSans-51"/>
       <use x="159.033203" xlink:href="#DejaVuSans-48"/>
      </g>
     </g>
    </g>
    <g id="ytick_14">
     <g id="line2d_53">
      <path clip-path="url(#p136ad98361)" d="M 57.6 114.569135 
L 414.72 114.569135 
" style="fill:none;stroke:#b0b0b0;stroke-linecap:square;stroke-width:0.8;"/>
     </g>
     <g id="line2d_54">
      <g>
       <use style="stroke:#000000;stroke-width:0.8;" x="57.6" xlink:href="#m367f0c4b85" y="114.569135"/>
      </g>
     </g>
     <g id="text_28">
      <!-- 4.35 -->
      <g transform="translate(28.334375 118.368354)scale(0.1 -0.1)">
       <use xlink:href="#DejaVuSans-52"/>
       <use x="63.623047" xlink:href="#DejaVuSans-46"/>
       <use x="95.410156" xlink:href="#DejaVuSans-51"/>
       <use x="159.033203" xlink:href="#DejaVuSans-53"/>
      </g>
     </g>
    </g>
    <g id="ytick_15">
     <g id="line2d_55">
      <path clip-path="url(#p136ad98361)" d="M 57.6 102.302045 
L 414.72 102.302045 
" style="fill:none;stroke:#b0b0b0;stroke-linecap:square;stroke-width:0.8;"/>
     </g>
     <g id="line2d_56">
      <g>
       <use style="stroke:#000000;stroke-width:0.8;" x="57.6" xlink:href="#m367f0c4b85" y="102.302045"/>
      </g>
     </g>
     <g id="text_29">
      <!-- 4.40 -->
      <g transform="translate(28.334375 106.101264)scale(0.1 -0.1)">
       <use xlink:href="#DejaVuSans-52"/>
       <use x="63.623047" xlink:href="#DejaVuSans-46"/>
       <use x="95.410156" xlink:href="#DejaVuSans-52"/>
       <use x="159.033203" xlink:href="#DejaVuSans-48"/>
      </g>
     </g>
    </g>
    <g id="ytick_16">
     <g id="line2d_57">
      <path clip-path="url(#p136ad98361)" d="M 57.6 90.034955 
L 414.72 90.034955 
" style="fill:none;stroke:#b0b0b0;stroke-linecap:square;stroke-width:0.8;"/>
     </g>
     <g id="line2d_58">
      <g>
       <use style="stroke:#000000;stroke-width:0.8;" x="57.6" xlink:href="#m367f0c4b85" y="90.034955"/>
      </g>
     </g>
     <g id="text_30">
      <!-- 4.45 -->
      <g transform="translate(28.334375 93.834174)scale(0.1 -0.1)">
       <use xlink:href="#DejaVuSans-52"/>
       <use x="63.623047" xlink:href="#DejaVuSans-46"/>
       <use x="95.410156" xlink:href="#DejaVuSans-52"/>
       <use x="159.033203" xlink:href="#DejaVuSans-53"/>
      </g>
     </g>
    </g>
    <g id="ytick_17">
     <g id="line2d_59">
      <path clip-path="url(#p136ad98361)" d="M 57.6 77.767865 
L 414.72 77.767865 
" style="fill:none;stroke:#b0b0b0;stroke-linecap:square;stroke-width:0.8;"/>
     </g>
     <g id="line2d_60">
      <g>
       <use style="stroke:#000000;stroke-width:0.8;" x="57.6" xlink:href="#m367f0c4b85" y="77.767865"/>
      </g>
     </g>
     <g id="text_31">
      <!-- 4.50 -->
      <g transform="translate(28.334375 81.567084)scale(0.1 -0.1)">
       <use xlink:href="#DejaVuSans-52"/>
       <use x="63.623047" xlink:href="#DejaVuSans-46"/>
       <use x="95.410156" xlink:href="#DejaVuSans-53"/>
       <use x="159.033203" xlink:href="#DejaVuSans-48"/>
      </g>
     </g>
    </g>
    <g id="ytick_18">
     <g id="line2d_61">
      <path clip-path="url(#p136ad98361)" d="M 57.6 65.500776 
L 414.72 65.500776 
" style="fill:none;stroke:#b0b0b0;stroke-linecap:square;stroke-width:0.8;"/>
     </g>
     <g id="line2d_62">
      <g>
       <use style="stroke:#000000;stroke-width:0.8;" x="57.6" xlink:href="#m367f0c4b85" y="65.500776"/>
      </g>
     </g>
     <g id="text_32">
      <!-- 4.55 -->
      <g transform="translate(28.334375 69.299994)scale(0.1 -0.1)">
       <use xlink:href="#DejaVuSans-52"/>
       <use x="63.623047" xlink:href="#DejaVuSans-46"/>
       <use x="95.410156" xlink:href="#DejaVuSans-53"/>
       <use x="159.033203" xlink:href="#DejaVuSans-53"/>
      </g>
     </g>
    </g>
    <g id="ytick_19">
     <g id="line2d_63">
      <path clip-path="url(#p136ad98361)" d="M 57.6 53.233686 
L 414.72 53.233686 
" style="fill:none;stroke:#b0b0b0;stroke-linecap:square;stroke-width:0.8;"/>
     </g>
     <g id="line2d_64">
      <g>
       <use style="stroke:#000000;stroke-width:0.8;" x="57.6" xlink:href="#m367f0c4b85" y="53.233686"/>
      </g>
     </g>
     <g id="text_33">
      <!-- 4.60 -->
      <g transform="translate(28.334375 57.032904)scale(0.1 -0.1)">
       <use xlink:href="#DejaVuSans-52"/>
       <use x="63.623047" xlink:href="#DejaVuSans-46"/>
       <use x="95.410156" xlink:href="#DejaVuSans-54"/>
       <use x="159.033203" xlink:href="#DejaVuSans-48"/>
      </g>
     </g>
    </g>
    <g id="text_34">
     <!-- Currency value [PLN] -->
     <g transform="translate(22.254687 211.779906)rotate(-90)scale(0.1 -0.1)">
      <defs>
       <path d="M 64.40625 67.28125 
L 64.40625 56.890625 
Q 59.421875 61.53125 53.78125 63.8125 
Q 48.140625 66.109375 41.796875 66.109375 
Q 29.296875 66.109375 22.65625 58.46875 
Q 16.015625 50.828125 16.015625 36.375 
Q 16.015625 21.96875 22.65625 14.328125 
Q 29.296875 6.6875 41.796875 6.6875 
Q 48.140625 6.6875 53.78125 8.984375 
Q 59.421875 11.28125 64.40625 15.921875 
L 64.40625 5.609375 
Q 59.234375 2.09375 53.4375 0.328125 
Q 47.65625 -1.421875 41.21875 -1.421875 
Q 24.65625 -1.421875 15.125 8.703125 
Q 5.609375 18.84375 5.609375 36.375 
Q 5.609375 53.953125 15.125 64.078125 
Q 24.65625 74.21875 41.21875 74.21875 
Q 47.75 74.21875 53.53125 72.484375 
Q 59.328125 70.75 64.40625 67.28125 
z
" id="DejaVuSans-67"/>
       <path d="M 8.5 21.578125 
L 8.5 54.6875 
L 17.484375 54.6875 
L 17.484375 21.921875 
Q 17.484375 14.15625 20.5 10.265625 
Q 23.53125 6.390625 29.59375 6.390625 
Q 36.859375 6.390625 41.078125 11.03125 
Q 45.3125 15.671875 45.3125 23.6875 
L 45.3125 54.6875 
L 54.296875 54.6875 
L 54.296875 0 
L 45.3125 0 
L 45.3125 8.40625 
Q 42.046875 3.421875 37.71875 1 
Q 33.40625 -1.421875 27.6875 -1.421875 
Q 18.265625 -1.421875 13.375 4.4375 
Q 8.5 10.296875 8.5 21.578125 
z
M 31.109375 56 
z
" id="DejaVuSans-117"/>
       <path d="M 41.109375 46.296875 
Q 39.59375 47.171875 37.8125 47.578125 
Q 36.03125 48 33.890625 48 
Q 26.265625 48 22.1875 43.046875 
Q 18.109375 38.09375 18.109375 28.8125 
L 18.109375 0 
L 9.078125 0 
L 9.078125 54.6875 
L 18.109375 54.6875 
L 18.109375 46.1875 
Q 20.953125 51.171875 25.484375 53.578125 
Q 30.03125 56 36.53125 56 
Q 37.453125 56 38.578125 55.875 
Q 39.703125 55.765625 41.0625 55.515625 
z
" id="DejaVuSans-114"/>
       <path d="M 54.890625 33.015625 
L 54.890625 0 
L 45.90625 0 
L 45.90625 32.71875 
Q 45.90625 40.484375 42.875 44.328125 
Q 39.84375 48.1875 33.796875 48.1875 
Q 26.515625 48.1875 22.3125 43.546875 
Q 18.109375 38.921875 18.109375 30.90625 
L 18.109375 0 
L 9.078125 0 
L 9.078125 54.6875 
L 18.109375 54.6875 
L 18.109375 46.1875 
Q 21.34375 51.125 25.703125 53.5625 
Q 30.078125 56 35.796875 56 
Q 45.21875 56 50.046875 50.171875 
Q 54.890625 44.34375 54.890625 33.015625 
z
" id="DejaVuSans-110"/>
       <path d="M 48.78125 52.59375 
L 48.78125 44.1875 
Q 44.96875 46.296875 41.140625 47.34375 
Q 37.3125 48.390625 33.40625 48.390625 
Q 24.65625 48.390625 19.8125 42.84375 
Q 14.984375 37.3125 14.984375 27.296875 
Q 14.984375 17.28125 19.8125 11.734375 
Q 24.65625 6.203125 33.40625 6.203125 
Q 37.3125 6.203125 41.140625 7.25 
Q 44.96875 8.296875 48.78125 10.40625 
L 48.78125 2.09375 
Q 45.015625 0.34375 40.984375 -0.53125 
Q 36.96875 -1.421875 32.421875 -1.421875 
Q 20.0625 -1.421875 12.78125 6.34375 
Q 5.515625 14.109375 5.515625 27.296875 
Q 5.515625 40.671875 12.859375 48.328125 
Q 20.21875 56 33.015625 56 
Q 37.15625 56 41.109375 55.140625 
Q 45.0625 54.296875 48.78125 52.59375 
z
" id="DejaVuSans-99"/>
       <path d="M 32.171875 -5.078125 
Q 28.375 -14.84375 24.75 -17.8125 
Q 21.140625 -20.796875 15.09375 -20.796875 
L 7.90625 -20.796875 
L 7.90625 -13.28125 
L 13.1875 -13.28125 
Q 16.890625 -13.28125 18.9375 -11.515625 
Q 21 -9.765625 23.484375 -3.21875 
L 25.09375 0.875 
L 2.984375 54.6875 
L 12.5 54.6875 
L 29.59375 11.921875 
L 46.6875 54.6875 
L 56.203125 54.6875 
z
" id="DejaVuSans-121"/>
       <path id="DejaVuSans-32"/>
       <path d="M 2.984375 54.6875 
L 12.5 54.6875 
L 29.59375 8.796875 
L 46.6875 54.6875 
L 56.203125 54.6875 
L 35.6875 0 
L 23.484375 0 
z
" id="DejaVuSans-118"/>
       <path d="M 9.421875 75.984375 
L 18.40625 75.984375 
L 18.40625 0 
L 9.421875 0 
z
" id="DejaVuSans-108"/>
       <path d="M 8.59375 75.984375 
L 29.296875 75.984375 
L 29.296875 69 
L 17.578125 69 
L 17.578125 -6.203125 
L 29.296875 -6.203125 
L 29.296875 -13.1875 
L 8.59375 -13.1875 
z
" id="DejaVuSans-91"/>
       <path d="M 19.671875 64.796875 
L 19.671875 37.40625 
L 32.078125 37.40625 
Q 38.96875 37.40625 42.71875 40.96875 
Q 46.484375 44.53125 46.484375 51.125 
Q 46.484375 57.671875 42.71875 61.234375 
Q 38.96875 64.796875 32.078125 64.796875 
z
M 9.8125 72.90625 
L 32.078125 72.90625 
Q 44.34375 72.90625 50.609375 67.359375 
Q 56.890625 61.8125 56.890625 51.125 
Q 56.890625 40.328125 50.609375 34.8125 
Q 44.34375 29.296875 32.078125 29.296875 
L 19.671875 29.296875 
L 19.671875 0 
L 9.8125 0 
z
" id="DejaVuSans-80"/>
       <path d="M 9.8125 72.90625 
L 19.671875 72.90625 
L 19.671875 8.296875 
L 55.171875 8.296875 
L 55.171875 0 
L 9.8125 0 
z
" id="DejaVuSans-76"/>
       <path d="M 9.8125 72.90625 
L 23.09375 72.90625 
L 55.421875 11.921875 
L 55.421875 72.90625 
L 64.984375 72.90625 
L 64.984375 0 
L 51.703125 0 
L 19.390625 60.984375 
L 19.390625 0 
L 9.8125 0 
z
" id="DejaVuSans-78"/>
       <path d="M 30.421875 75.984375 
L 30.421875 -13.1875 
L 9.71875 -13.1875 
L 9.71875 -6.203125 
L 21.390625 -6.203125 
L 21.390625 69 
L 9.71875 69 
L 9.71875 75.984375 
z
" id="DejaVuSans-93"/>
      </defs>
      <use xlink:href="#DejaVuSans-67"/>
      <use x="69.824219" xlink:href="#DejaVuSans-117"/>
      <use x="133.203125" xlink:href="#DejaVuSans-114"/>
      <use x="172.566406" xlink:href="#DejaVuSans-114"/>
      <use x="211.429688" xlink:href="#DejaVuSans-101"/>
      <use x="272.953125" xlink:href="#DejaVuSans-110"/>
      <use x="336.332031" xlink:href="#DejaVuSans-99"/>
      <use x="391.3125" xlink:href="#DejaVuSans-121"/>
      <use x="450.492188" xlink:href="#DejaVuSans-32"/>
      <use x="482.279297" xlink:href="#DejaVuSans-118"/>
      <use x="541.458984" xlink:href="#DejaVuSans-97"/>
      <use x="602.738281" xlink:href="#DejaVuSans-108"/>
      <use x="630.521484" xlink:href="#DejaVuSans-117"/>
      <use x="693.900391" xlink:href="#DejaVuSans-101"/>
      <use x="755.423828" xlink:href="#DejaVuSans-32"/>
      <use x="787.210938" xlink:href="#DejaVuSans-91"/>
      <use x="826.224609" xlink:href="#DejaVuSans-80"/>
      <use x="886.527344" xlink:href="#DejaVuSans-76"/>
      <use x="942.240234" xlink:href="#DejaVuSans-78"/>
      <use x="1017.044922" xlink:href="#DejaVuSans-93"/>
     </g>
    </g>
   </g>
   <g id="line2d_65">
    <path clip-path="url(#p136ad98361)" d="M 73.832727 241.827925 
L 74.719762 242.686621 
L 75.606796 241.533515 
L 76.49383 239.448109 
L 77.380864 243.569851 
L 79.154933 243.569851 
L 80.041967 241.631651 
L 80.929001 241.582583 
L 81.816036 238.295003 
L 82.70307 243.15277 
L 83.590104 236.135995 
L 86.251207 236.185063 
L 87.138241 234.173261 
L 88.025276 234.295932 
L 88.91231 232.431334 
L 89.799344 238.810221 
L 91.573413 238.810221 
L 92.460447 240.33134 
L 93.347481 240.03693 
L 94.234516 235.915187 
L 95.12155 236.062392 
L 96.008584 237.289101 
L 97.782653 237.289101 
L 98.669687 242.343142 
L 99.556721 248.501222 
L 100.443756 251.24905 
L 101.33079 247.912401 
L 102.217824 250.537558 
L 103.991893 250.537558 
L 104.878927 255.763339 
L 105.765961 256.327625 
L 106.652996 258.584769 
L 107.54003 255.984146 
L 108.427064 256.204954 
L 110.201133 256.204954 
L 111.088167 249.776999 
L 111.975201 247.127307 
L 112.862235 246.955568 
L 113.74927 246.955568 
L 114.636304 256.744706 
L 116.410373 256.744706 
L 117.297407 265.208998 
L 118.184441 264.816451 
L 119.071475 260.792846 
L 119.95851 263.589742 
L 120.845544 265.797818 
L 122.619613 265.797818 
L 123.506647 263.491605 
L 124.393681 259.492534 
L 125.280715 259.418931 
L 126.16775 258.87918 
L 127.054784 257.137253 
L 128.828852 257.137253 
L 129.715887 253.015511 
L 130.602921 247.691594 
L 131.489955 247.887867 
L 132.37699 252.966442 
L 133.264024 252.230417 
L 135.038092 252.230417 
L 135.925127 253.040045 
L 136.812161 252.770169 
L 137.699195 248.574824 
L 138.58623 251.150913 
L 139.473264 253.064579 
L 141.247332 253.064579 
L 142.134367 252.7211 
L 143.021401 249.580725 
L 143.908435 243.888796 
L 144.795469 244.624821 
L 145.682504 242.245006 
L 147.456572 242.245006 
L 148.343607 238.39314 
L 149.230641 237.411772 
L 150.117675 237.141896 
L 151.004709 228.407728 
L 151.891744 229.168288 
L 153.665812 229.168288 
L 154.552846 231.376364 
L 155.439881 237.681648 
L 156.326915 234.860218 
L 157.213949 236.307734 
L 158.100984 234.467671 
L 159.875052 234.467671 
L 160.762086 232.063321 
L 161.649121 231.989719 
L 162.536155 227.671703 
L 163.423189 227.671703 
L 164.310224 218.078839 
L 166.084292 218.078839 
L 166.971326 220.090641 
L 167.858361 214.962998 
L 168.745395 219.820766 
L 169.632429 216.704925 
L 170.519463 215.870763 
L 172.293532 215.870763 
L 173.180566 216.753993 
L 174.067601 217.391882 
L 174.954635 211.528213 
L 175.841669 210.595914 
L 176.728703 207.381936 
L 178.502772 207.381936 
L 179.389806 204.87945 
L 180.276841 203.333797 
L 181.163875 214.815793 
L 182.050909 216.876664 
L 182.937943 217.244677 
L 184.712012 217.244677 
L 185.599046 217.367348 
L 186.48608 218.275112 
L 187.373115 217.023869 
L 188.260149 216.09157 
L 189.147183 222.028842 
L 191.808286 222.126978 
L 192.69532 214.864861 
L 193.582355 217.072937 
L 194.469389 218.422317 
L 195.356423 217.14654 
L 197.130492 217.14654 
L 198.017526 200.855845 
L 198.90456 204.413301 
L 199.791595 203.971685 
L 200.678629 198.181619 
L 201.565663 196.6605 
L 203.339732 196.6605 
L 204.226766 200.438764 
L 205.1138 196.832239 
L 206.000835 196.709568 
L 206.887869 208.976658 
L 207.774903 213.466413 
L 209.548972 213.466413 
L 210.436006 212.754922 
L 211.32304 215.0366 
L 212.210075 215.600887 
L 213.097109 219.428219 
L 213.984143 221.415487 
L 215.758212 221.415487 
L 216.645246 226.003379 
L 217.53228 226.150584 
L 218.419314 226.592199 
L 219.306349 233.854316 
L 220.193383 237.166431 
L 221.967452 237.166431 
L 222.854486 241.97513 
L 223.74152 239.497178 
L 224.628554 237.902456 
L 225.515589 238.51581 
L 227.289657 238.417674 
L 228.176692 238.417674 
L 229.95076 234.835683 
L 231.724829 245.238176 
L 234.385931 245.238176 
L 235.272966 247.078239 
L 237.047034 237.313636 
L 237.934069 237.190965 
L 238.821103 234.173261 
L 241.482206 234.173261 
L 242.36924 230.370463 
L 244.143308 224.703067 
L 245.030343 228.702139 
L 246.804411 228.702139 
L 247.691446 230.689407 
L 248.57848 230.223258 
L 249.465514 230.076053 
L 250.352548 231.425432 
L 251.239583 228.579468 
L 253.013651 228.579468 
L 253.900686 224.089713 
L 254.78772 224.01611 
L 255.674754 221.19468 
L 256.561788 218.79033 
L 257.448823 217.9071 
L 259.222891 217.9071 
L 260.109925 223.819837 
L 260.99696 232.185992 
L 261.883994 233.633509 
L 262.771028 235.620777 
L 263.658063 237.240033 
L 265.432131 237.240033 
L 266.319165 232.23506 
L 267.2062 232.063321 
L 268.093234 233.314564 
L 268.980268 237.117362 
L 269.867303 243.766125 
L 271.641371 243.766125 
L 272.528405 241.876993 
L 273.41544 244.330411 
L 274.302474 242.097801 
L 275.189508 242.613018 
L 276.076542 241.876993 
L 277.850611 241.876993 
L 279.62468 237.558977 
L 281.398748 237.558977 
L 282.285782 242.981031 
L 284.059851 242.981031 
L 284.946885 248.8447 
L 285.83392 250.071409 
L 286.720954 250.071409 
L 287.607988 249.507123 
L 288.495022 244.281343 
L 291.156125 244.281343 
L 292.043159 252.917374 
L 292.930194 246.489419 
L 293.817228 243.349044 
L 294.704262 242.833826 
L 296.478331 242.833826 
L 297.365365 247.029171 
L 298.252399 249.040973 
L 300.026468 250.292217 
L 300.913502 248.206811 
L 302.687571 248.206811 
L 303.574605 242.711155 
L 304.461639 242.539416 
L 305.348674 244.551219 
L 306.235708 241.950596 
L 307.122742 237.853388 
L 308.896811 237.853388 
L 309.783845 231.719843 
L 310.670879 228.800275 
L 311.557914 228.137852 
L 312.444948 228.505865 
L 313.331982 224.997477 
L 315.106051 224.997477 
L 315.993085 228.309592 
L 316.880119 230.542202 
L 317.767154 233.461769 
L 318.654188 233.020154 
L 319.541222 226.273255 
L 321.315291 226.273255 
L 323.089359 223.967042 
L 323.976393 224.727601 
L 324.863428 222.421389 
L 325.750462 222.568594 
L 327.524531 222.568594 
L 328.411565 220.335983 
L 329.298599 213.981631 
L 330.185633 211.331939 
L 331.072668 209.737218 
L 333.73377 209.688149 
L 334.620805 206.032557 
L 335.507839 209.663615 
L 336.394873 210.914858 
L 338.168942 218.716727 
L 339.94301 218.716727 
L 342.604113 236.356803 
L 343.491148 237.755251 
L 344.378182 243.839727 
L 346.15225 243.839727 
L 347.039285 251.985075 
L 347.926319 248.08414 
L 348.813353 244.943765 
L 350.587422 223.329153 
L 352.36149 223.329153 
L 353.248525 219.305548 
L 354.135559 189.153041 
L 355.022593 182.062663 
L 355.909627 141.041515 
L 356.796662 141.556732 
L 358.57073 141.556732 
L 359.457765 135.325051 
L 360.344799 141.041515 
L 361.231833 145.972885 
L 362.118867 151.664814 
L 363.005902 172.788743 
L 364.77997 172.788743 
L 365.667004 177.548374 
L 366.554039 164.471656 
L 368.328107 153.406741 
L 369.215142 141.654869 
L 370.98921 141.654869 
L 371.876244 145.06512 
L 372.763279 158.313577 
L 373.650313 156.252706 
L 374.537347 157.651154 
L 375.424382 162.018238 
L 378.085484 162.018238 
L 378.972519 159.56482 
L 379.859553 163.171345 
L 380.746587 160.423517 
L 381.633621 154.167301 
L 383.40769 154.167301 
L 384.294724 163.02414 
L 385.181759 156.792458 
L 386.068793 157.847428 
L 386.955827 149.088726 
L 387.842861 147.886551 
L 389.61693 147.886551 
L 390.503964 158.828795 
L 391.390999 155.295873 
L 392.278033 156.105501 
L 393.165067 158.019167 
L 394.052101 158.019167 
L 396.713204 160.055504 
L 397.600238 153.161399 
L 398.487273 150.830652 
L 398.487273 150.830652 
" style="fill:none;stroke:#1f77b4;stroke-linecap:square;stroke-width:1.5;"/>
   </g>
   <g id="line2d_66">
    <path clip-path="url(#p136ad98361)" d="M 73.832727 130.589954 
L 74.719762 130.320078 
L 76.49383 127.400511 
L 77.380864 127.940263 
L 79.154933 127.940263 
L 80.041967 126.124733 
L 80.929001 124.750819 
L 81.816036 123.69585 
L 82.70307 128.578151 
L 83.590104 125.069764 
L 85.364173 125.069764 
L 86.251207 126.958896 
L 87.138241 125.486845 
L 88.025276 124.431875 
L 88.91231 124.211067 
L 89.799344 127.106101 
L 91.573413 127.106101 
L 92.460447 128.013865 
L 93.347481 127.645853 
L 94.234516 126.664485 
L 95.12155 128.823493 
L 96.895618 128.897096 
L 97.782653 128.897096 
L 98.669687 131.522253 
L 99.556721 132.037471 
L 100.443756 132.184676 
L 101.33079 132.160142 
L 102.217824 132.675359 
L 103.991893 132.675359 
L 104.878927 135.668529 
L 105.765961 134.809833 
L 106.652996 135.423188 
L 107.54003 136.404555 
L 108.427064 137.778469 
L 110.201133 137.778469 
L 111.088167 136.674431 
L 111.975201 135.889337 
L 112.862235 134.858901 
L 113.74927 134.858901 
L 114.636304 136.110145 
L 116.410373 136.110145 
L 117.297407 138.171016 
L 118.184441 137.778469 
L 119.071475 135.619461 
L 119.95851 137.60673 
L 120.845544 138.612631 
L 122.619613 138.612631 
L 123.506647 141.409527 
L 124.393681 140.158284 
L 126.16775 140.89431 
L 127.054784 140.452694 
L 128.828852 140.452694 
L 129.715887 138.637165 
L 130.602921 135.742132 
L 131.489955 133.484987 
L 132.37699 134.638094 
L 133.264024 134.957038 
L 135.925127 134.858901 
L 136.812161 137.091512 
L 137.699195 135.570393 
L 138.58623 135.7912 
L 139.473264 136.84617 
L 141.247332 136.84617 
L 142.134367 139.593998 
L 143.021401 139.299588 
L 143.908435 137.116046 
L 144.795469 138.759836 
L 145.682504 135.545858 
L 147.456572 135.545858 
L 149.230641 129.142438 
L 150.117675 129.019767 
L 151.004709 128.529083 
L 151.891744 124.750819 
L 153.665812 124.750819 
L 154.552846 122.371004 
L 155.439881 124.480943 
L 156.326915 122.076594 
L 157.213949 121.438705 
L 158.100984 121.316034 
L 159.875052 121.316034 
L 160.762086 120.40827 
L 161.649121 118.813548 
L 162.536155 115.476899 
L 163.423189 115.476899 
L 164.310224 113.514165 
L 166.084292 113.514165 
L 166.971326 114.102985 
L 167.858361 110.741803 
L 168.745395 114.250191 
L 169.632429 110.643666 
L 170.519463 112.802674 
L 172.293532 112.802674 
L 173.180566 109.196149 
L 174.067601 110.054846 
L 174.954635 105.810433 
L 175.841669 106.104843 
L 178.502772 106.129377 
L 179.389806 109.883107 
L 180.276841 110.471927 
L 181.163875 117.390565 
L 182.050909 116.801745 
L 182.937943 117.218826 
L 184.712012 117.218826 
L 186.48608 118.249262 
L 187.373115 118.077523 
L 188.260149 117.022553 
L 190.034218 117.12069 
L 190.921252 117.12069 
L 191.808286 120.40827 
L 192.69532 116.777211 
L 195.356423 116.090254 
L 197.130492 116.090254 
L 198.017526 104.976271 
L 198.90456 107.307018 
L 199.791595 106.129377 
L 200.678629 105.712296 
L 201.565663 105.589625 
L 203.339732 105.589625 
L 204.226766 108.779068 
L 205.1138 108.828137 
L 206.000835 107.503291 
L 206.887869 115.182489 
L 207.774903 119.206095 
L 209.548972 119.206095 
L 210.436006 119.377834 
L 211.32304 119.230629 
L 212.210075 120.53094 
L 213.097109 121.512308 
L 213.984143 124.456409 
L 215.758212 124.456409 
L 216.645246 127.596784 
L 217.53228 128.087468 
L 218.419314 127.57225 
L 219.306349 130.540886 
L 220.193383 130.663557 
L 221.967452 130.663557 
L 222.854486 132.356415 
L 223.74152 131.939334 
L 224.628554 132.282813 
L 225.515589 131.743061 
L 226.402623 132.675359 
L 228.176692 132.675359 
L 229.063726 133.411385 
L 229.95076 132.79803 
L 230.837794 135.300517 
L 231.724829 136.232815 
L 234.385931 136.232815 
L 235.272966 138.146481 
L 236.16 135.889337 
L 237.047034 134.270081 
L 237.934069 135.349585 
L 238.821103 135.717598 
L 241.482206 135.717598 
L 242.36924 132.037471 
L 244.143308 128.897096 
L 245.030343 131.571321 
L 246.804411 131.571321 
L 247.691446 129.68219 
L 248.57848 128.602686 
L 249.465514 128.872562 
L 251.239583 127.449579 
L 253.013651 127.449579 
L 253.900686 127.081566 
L 254.78772 126.860759 
L 255.674754 124.211067 
L 256.561788 121.193363 
L 257.448823 121.046158 
L 259.222891 121.046158 
L 260.109925 126.639951 
L 261.883994 131.939334 
L 262.771028 132.307347 
L 263.658063 133.681261 
L 265.432131 133.681261 
L 266.319165 131.007035 
L 267.2062 129.780326 
L 268.093234 130.491817 
L 268.980268 130.614488 
L 269.867303 133.043372 
L 271.641371 133.043372 
L 272.528405 135.20238 
L 273.41544 136.527226 
L 274.302474 135.570393 
L 275.189508 135.864803 
L 276.076542 136.55176 
L 277.850611 136.55176 
L 278.737645 137.778469 
L 279.62468 136.061076 
L 284.059851 136.061076 
L 284.946885 136.944307 
L 286.720954 137.017909 
L 287.607988 137.361388 
L 290.269091 137.410456 
L 291.156125 137.410456 
L 292.043159 142.857044 
L 292.930194 139.962011 
L 293.817228 140.109216 
L 294.704262 139.912942 
L 296.478331 139.912942 
L 297.365365 142.709839 
L 298.252399 143.445864 
L 299.139434 144.525368 
L 300.026468 142.83251 
L 301.800537 142.930647 
L 302.687571 142.930647 
L 303.574605 140.403626 
L 304.461639 140.109216 
L 305.348674 142.292758 
L 306.235708 140.011079 
L 308.896811 140.060147 
L 309.783845 134.711696 
L 310.670879 131.890266 
L 311.557914 132.577223 
L 312.444948 131.424116 
L 313.331982 126.590883 
L 315.106051 126.590883 
L 315.993085 126.002063 
L 316.880119 130.099271 
L 317.767154 136.159213 
L 318.654188 138.244618 
L 319.541222 135.079709 
L 321.315291 135.079709 
L 322.202325 134.221013 
L 323.089359 136.429089 
L 323.976393 136.674431 
L 324.863428 137.704866 
L 325.750462 141.507664 
L 327.524531 141.507664 
L 328.411565 139.054246 
L 329.298599 133.853 
L 330.185633 133.411385 
L 331.072668 132.012937 
L 331.959702 130.982501 
L 333.73377 130.982501 
L 334.620805 126.419144 
L 335.507839 126.934361 
L 336.394873 124.554546 
L 337.281908 124.382807 
L 338.168942 118.126591 
L 339.94301 118.126591 
L 340.830045 121.021624 
L 341.717079 122.591812 
L 342.604113 127.007964 
L 343.491148 126.98343 
L 344.378182 122.469141 
L 347.039285 122.518209 
L 347.926319 121.929389 
L 348.813353 122.739017 
L 349.700387 115.77131 
L 350.587422 111.674102 
L 352.36149 111.674102 
L 353.248525 104.485587 
L 354.135559 80.564762 
L 355.022593 82.527496 
L 355.909627 55.270023 
L 356.796662 66.506677 
L 358.57073 66.506677 
L 359.457765 63.758849 
L 360.344799 52.154182 
L 361.231833 58.655739 
L 362.118867 54.165985 
L 363.005902 71.732457 
L 364.77997 71.732457 
L 365.667004 68.076864 
L 366.554039 64.936489 
L 367.441073 60.741145 
L 368.328107 58.901081 
L 369.215142 58.336795 
L 370.98921 58.336795 
L 371.876244 62.752947 
L 372.763279 69.377176 
L 373.650313 68.886492 
L 374.537347 68.690219 
L 375.424382 65.893322 
L 378.085484 65.893322 
L 378.972519 65.206365 
L 379.859553 68.224069 
L 380.746587 69.769723 
L 381.633621 68.763821 
L 383.40769 68.763821 
L 384.294724 73.474384 
L 385.181759 70.996432 
L 386.068793 69.69612 
L 386.955827 66.87469 
L 387.842861 69.671586 
L 389.61693 69.671586 
L 390.503964 71.879662 
L 391.390999 67.978728 
L 392.278033 67.1691 
L 393.165067 67.365373 
L 394.052101 67.365373 
L 396.713204 63.488973 
L 397.600238 66.089596 
L 398.487273 68.199535 
L 398.487273 68.199535 
" style="fill:none;stroke:#ff7f0e;stroke-linecap:square;stroke-width:1.5;"/>
   </g>
   <g id="patch_3">
    <path d="M 57.6 276.48 
L 57.6 41.472 
" style="fill:none;stroke:#000000;stroke-linecap:square;stroke-linejoin:miter;stroke-width:0.8;"/>
   </g>
   <g id="patch_4">
    <path d="M 414.72 276.48 
L 414.72 41.472 
" style="fill:none;stroke:#000000;stroke-linecap:square;stroke-linejoin:miter;stroke-width:0.8;"/>
   </g>
   <g id="patch_5">
    <path d="M 57.6 276.48 
L 414.72 276.48 
" style="fill:none;stroke:#000000;stroke-linecap:square;stroke-linejoin:miter;stroke-width:0.8;"/>
   </g>
   <g id="patch_6">
    <path d="M 57.6 41.472 
L 414.72 41.472 
" style="fill:none;stroke:#000000;stroke-linecap:square;stroke-linejoin:miter;stroke-width:0.8;"/>
   </g>
   <g id="text_35">
    <!-- USD and EUR exchange rate -->
    <g transform="translate(150.769688 35.472)scale(0.12 -0.12)">
     <defs>
      <path d="M 8.6875 72.90625 
L 18.609375 72.90625 
L 18.609375 28.609375 
Q 18.609375 16.890625 22.84375 11.734375 
Q 27.09375 6.59375 36.625 6.59375 
Q 46.09375 6.59375 50.34375 11.734375 
Q 54.59375 16.890625 54.59375 28.609375 
L 54.59375 72.90625 
L 64.5 72.90625 
L 64.5 27.390625 
Q 64.5 13.140625 57.4375 5.859375 
Q 50.390625 -1.421875 36.625 -1.421875 
Q 22.796875 -1.421875 15.734375 5.859375 
Q 8.6875 13.140625 8.6875 27.390625 
z
" id="DejaVuSans-85"/>
      <path d="M 53.515625 70.515625 
L 53.515625 60.890625 
Q 47.90625 63.578125 42.921875 64.890625 
Q 37.9375 66.21875 33.296875 66.21875 
Q 25.25 66.21875 20.875 63.09375 
Q 16.5 59.96875 16.5 54.203125 
Q 16.5 49.359375 19.40625 46.890625 
Q 22.3125 44.4375 30.421875 42.921875 
L 36.375 41.703125 
Q 47.40625 39.59375 52.65625 34.296875 
Q 57.90625 29 57.90625 20.125 
Q 57.90625 9.515625 50.796875 4.046875 
Q 43.703125 -1.421875 29.984375 -1.421875 
Q 24.8125 -1.421875 18.96875 -0.25 
Q 13.140625 0.921875 6.890625 3.21875 
L 6.890625 13.375 
Q 12.890625 10.015625 18.65625 8.296875 
Q 24.421875 6.59375 29.984375 6.59375 
Q 38.421875 6.59375 43.015625 9.90625 
Q 47.609375 13.234375 47.609375 19.390625 
Q 47.609375 24.75 44.3125 27.78125 
Q 41.015625 30.8125 33.5 32.328125 
L 27.484375 33.5 
Q 16.453125 35.6875 11.515625 40.375 
Q 6.59375 45.0625 6.59375 53.421875 
Q 6.59375 63.09375 13.40625 68.65625 
Q 20.21875 74.21875 32.171875 74.21875 
Q 37.3125 74.21875 42.625 73.28125 
Q 47.953125 72.359375 53.515625 70.515625 
z
" id="DejaVuSans-83"/>
      <path d="M 45.40625 46.390625 
L 45.40625 75.984375 
L 54.390625 75.984375 
L 54.390625 0 
L 45.40625 0 
L 45.40625 8.203125 
Q 42.578125 3.328125 38.25 0.953125 
Q 33.9375 -1.421875 27.875 -1.421875 
Q 17.96875 -1.421875 11.734375 6.484375 
Q 5.515625 14.40625 5.515625 27.296875 
Q 5.515625 40.1875 11.734375 48.09375 
Q 17.96875 56 27.875 56 
Q 33.9375 56 38.25 53.625 
Q 42.578125 51.265625 45.40625 46.390625 
z
M 14.796875 27.296875 
Q 14.796875 17.390625 18.875 11.75 
Q 22.953125 6.109375 30.078125 6.109375 
Q 37.203125 6.109375 41.296875 11.75 
Q 45.40625 17.390625 45.40625 27.296875 
Q 45.40625 37.203125 41.296875 42.84375 
Q 37.203125 48.484375 30.078125 48.484375 
Q 22.953125 48.484375 18.875 42.84375 
Q 14.796875 37.203125 14.796875 27.296875 
z
" id="DejaVuSans-100"/>
      <path d="M 9.8125 72.90625 
L 55.90625 72.90625 
L 55.90625 64.59375 
L 19.671875 64.59375 
L 19.671875 43.015625 
L 54.390625 43.015625 
L 54.390625 34.71875 
L 19.671875 34.71875 
L 19.671875 8.296875 
L 56.78125 8.296875 
L 56.78125 0 
L 9.8125 0 
z
" id="DejaVuSans-69"/>
      <path d="M 44.390625 34.1875 
Q 47.5625 33.109375 50.5625 29.59375 
Q 53.5625 26.078125 56.59375 19.921875 
L 66.609375 0 
L 56 0 
L 46.6875 18.703125 
Q 43.0625 26.03125 39.671875 28.421875 
Q 36.28125 30.8125 30.421875 30.8125 
L 19.671875 30.8125 
L 19.671875 0 
L 9.8125 0 
L 9.8125 72.90625 
L 32.078125 72.90625 
Q 44.578125 72.90625 50.734375 67.671875 
Q 56.890625 62.453125 56.890625 51.90625 
Q 56.890625 45.015625 53.6875 40.46875 
Q 50.484375 35.9375 44.390625 34.1875 
z
M 19.671875 64.796875 
L 19.671875 38.921875 
L 32.078125 38.921875 
Q 39.203125 38.921875 42.84375 42.21875 
Q 46.484375 45.515625 46.484375 51.90625 
Q 46.484375 58.296875 42.84375 61.546875 
Q 39.203125 64.796875 32.078125 64.796875 
z
" id="DejaVuSans-82"/>
      <path d="M 54.890625 54.6875 
L 35.109375 28.078125 
L 55.90625 0 
L 45.3125 0 
L 29.390625 21.484375 
L 13.484375 0 
L 2.875 0 
L 24.125 28.609375 
L 4.6875 54.6875 
L 15.28125 54.6875 
L 29.78125 35.203125 
L 44.28125 54.6875 
z
" id="DejaVuSans-120"/>
      <path d="M 54.890625 33.015625 
L 54.890625 0 
L 45.90625 0 
L 45.90625 32.71875 
Q 45.90625 40.484375 42.875 44.328125 
Q 39.84375 48.1875 33.796875 48.1875 
Q 26.515625 48.1875 22.3125 43.546875 
Q 18.109375 38.921875 18.109375 30.90625 
L 18.109375 0 
L 9.078125 0 
L 9.078125 75.984375 
L 18.109375 75.984375 
L 18.109375 46.1875 
Q 21.34375 51.125 25.703125 53.5625 
Q 30.078125 56 35.796875 56 
Q 45.21875 56 50.046875 50.171875 
Q 54.890625 44.34375 54.890625 33.015625 
z
" id="DejaVuSans-104"/>
      <path d="M 45.40625 27.984375 
Q 45.40625 37.75 41.375 43.109375 
Q 37.359375 48.484375 30.078125 48.484375 
Q 22.859375 48.484375 18.828125 43.109375 
Q 14.796875 37.75 14.796875 27.984375 
Q 14.796875 18.265625 18.828125 12.890625 
Q 22.859375 7.515625 30.078125 7.515625 
Q 37.359375 7.515625 41.375 12.890625 
Q 45.40625 18.265625 45.40625 27.984375 
z
M 54.390625 6.78125 
Q 54.390625 -7.171875 48.1875 -13.984375 
Q 42 -20.796875 29.203125 -20.796875 
Q 24.46875 -20.796875 20.265625 -20.09375 
Q 16.0625 -19.390625 12.109375 -17.921875 
L 12.109375 -9.1875 
Q 16.0625 -11.328125 19.921875 -12.34375 
Q 23.78125 -13.375 27.78125 -13.375 
Q 36.625 -13.375 41.015625 -8.765625 
Q 45.40625 -4.15625 45.40625 5.171875 
L 45.40625 9.625 
Q 42.625 4.78125 38.28125 2.390625 
Q 33.9375 0 27.875 0 
Q 17.828125 0 11.671875 7.65625 
Q 5.515625 15.328125 5.515625 27.984375 
Q 5.515625 40.671875 11.671875 48.328125 
Q 17.828125 56 27.875 56 
Q 33.9375 56 38.28125 53.609375 
Q 42.625 51.21875 45.40625 46.390625 
L 45.40625 54.6875 
L 54.390625 54.6875 
z
" id="DejaVuSans-103"/>
     </defs>
     <use xlink:href="#DejaVuSans-85"/>
     <use x="73.193359" xlink:href="#DejaVuSans-83"/>
     <use x="136.669922" xlink:href="#DejaVuSans-68"/>
     <use x="213.671875" xlink:href="#DejaVuSans-32"/>
     <use x="245.458984" xlink:href="#DejaVuSans-97"/>
     <use x="306.738281" xlink:href="#DejaVuSans-110"/>
     <use x="370.117188" xlink:href="#DejaVuSans-100"/>
     <use x="433.59375" xlink:href="#DejaVuSans-32"/>
     <use x="465.380859" xlink:href="#DejaVuSans-69"/>
     <use x="528.564453" xlink:href="#DejaVuSans-85"/>
     <use x="601.757812" xlink:href="#DejaVuSans-82"/>
     <use x="671.240234" xlink:href="#DejaVuSans-32"/>
     <use x="703.027344" xlink:href="#DejaVuSans-101"/>
     <use x="762.800781" xlink:href="#DejaVuSans-120"/>
     <use x="820.230469" xlink:href="#DejaVuSans-99"/>
     <use x="875.210938" xlink:href="#DejaVuSans-104"/>
     <use x="938.589844" xlink:href="#DejaVuSans-97"/>
     <use x="999.869141" xlink:href="#DejaVuSans-110"/>
     <use x="1063.248047" xlink:href="#DejaVuSans-103"/>
     <use x="1126.724609" xlink:href="#DejaVuSans-101"/>
     <use x="1188.248047" xlink:href="#DejaVuSans-32"/>
     <use x="1220.035156" xlink:href="#DejaVuSans-114"/>
     <use x="1261.148438" xlink:href="#DejaVuSans-97"/>
     <use x="1322.427734" xlink:href="#DejaVuSans-116"/>
     <use x="1361.636719" xlink:href="#DejaVuSans-101"/>
    </g>
   </g>
   <g id="legend_1">
    <g id="patch_7">
     <path d="M 64.6 78.82825 
L 117.967187 78.82825 
Q 119.967187 78.82825 119.967187 76.82825 
L 119.967187 48.472 
Q 119.967187 46.472 117.967187 46.472 
L 64.6 46.472 
Q 62.6 46.472 62.6 48.472 
L 62.6 76.82825 
Q 62.6 78.82825 64.6 78.82825 
z
" style="fill:#ffffff;opacity:0.8;stroke:#cccccc;stroke-linejoin:miter;"/>
    </g>
    <g id="line2d_67">
     <path d="M 66.6 54.570437 
L 86.6 54.570437 
" style="fill:none;stroke:#1f77b4;stroke-linecap:square;stroke-width:1.5;"/>
    </g>
    <g id="line2d_68"/>
    <g id="text_36">
     <!-- USD -->
     <g transform="translate(94.6 58.070437)scale(0.1 -0.1)">
      <use xlink:href="#DejaVuSans-85"/>
      <use x="73.193359" xlink:href="#DejaVuSans-83"/>
      <use x="136.669922" xlink:href="#DejaVuSans-68"/>
     </g>
    </g>
    <g id="line2d_69">
     <path d="M 66.6 69.248562 
L 86.6 69.248562 
" style="fill:none;stroke:#ff7f0e;stroke-linecap:square;stroke-width:1.5;"/>
    </g>
    <g id="line2d_70"/>
    <g id="text_37">
     <!-- EUR -->
     <g transform="translate(94.6 72.748562)scale(0.1 -0.1)">
      <use xlink:href="#DejaVuSans-69"/>
      <use x="63.183594" xlink:href="#DejaVuSans-85"/>
      <use x="136.376953" xlink:href="#DejaVuSans-82"/>
     </g>
    </g>
   </g>
  </g>
 </g>
 <defs>
  <clipPath id="p136ad98361">
   <rect height="235.008" width="357.12" x="57.6" y="41.472"/>
  </clipPath>
 </defs>
</svg>
