<?xml version="1.0" encoding="utf-8" standalone="no"?>
<!DOCTYPE svg PUBLIC "-//W3C//DTD SVG 1.1//EN"
  "http://www.w3.org/Graphics/SVG/1.1/DTD/svg11.dtd">
<!-- Created with matplotlib (https://matplotlib.org/) -->
<svg height="345.6pt" version="1.1" viewBox="0 0 460.8 345.6" width="460.8pt" xmlns="http://www.w3.org/2000/svg" xmlns:xlink="http://www.w3.org/1999/xlink">
 <metadata>
  <rdf:RDF xmlns:cc="http://creativecommons.org/ns#" xmlns:dc="http://purl.org/dc/elements/1.1/" xmlns:rdf="http://www.w3.org/1999/02/22-rdf-syntax-ns#">
   <cc:Work>
    <dc:type rdf:resource="http://purl.org/dc/dcmitype/StillImage"/>
    <dc:date>2020-11-21T15:23:55.165817</dc:date>
    <dc:format>image/svg+xml</dc:format>
    <dc:creator>
     <cc:Agent>
      <dc:title>Matplotlib v3.3.2, https://matplotlib.org/</dc:title>
     </cc:Agent>
    </dc:creator>
   </cc:Work>
  </rdf:RDF>
 </metadata>
 <defs>
  <style type="text/css">*{stroke-linecap:butt;stroke-linejoin:round;}</style>
 </defs>
 <g id="figure_1">
  <g id="patch_1">
   <path d="M 0 345.6 
L 460.8 345.6 
L 460.8 0 
L 0 0 
z
" style="fill:#ffffff;"/>
  </g>
  <g id="axes_1">
   <g id="patch_2">
    <path d="M 57.6 276.48 
L 414.72 276.48 
L 414.72 41.472 
L 57.6 41.472 
z
" style="fill:#ffffff;"/>
   </g>
   <g id="matplotlib.axis_1">
    <g id="xtick_1">
     <g id="line2d_1">
      <path clip-path="url(#p3398fc1d3e)" d="M 75.945726 276.48 
L 75.945726 41.472 
" style="fill:none;stroke:#b0b0b0;stroke-linecap:square;stroke-width:0.8;"/>
     </g>
     <g id="line2d_2">
      <defs>
       <path d="M 0 0 
L 0 3.5 
" id="m84c040a606" style="stroke:#000000;stroke-width:0.8;"/>
      </defs>
      <g>
       <use style="stroke:#000000;stroke-width:0.8;" x="75.945726" xlink:href="#m84c040a606" y="276.48"/>
      </g>
     </g>
     <g id="text_1">
      <!-- 2019-11-26 -->
      <g transform="translate(24.576275 319.118252)rotate(-30)scale(0.1 -0.1)">
       <defs>
        <path d="M 19.1875 8.296875 
L 53.609375 8.296875 
L 53.609375 0 
L 7.328125 0 
L 7.328125 8.296875 
Q 12.9375 14.109375 22.625 23.890625 
Q 32.328125 33.6875 34.8125 36.53125 
Q 39.546875 41.84375 41.421875 45.53125 
Q 43.3125 49.21875 43.3125 52.78125 
Q 43.3125 58.59375 39.234375 62.25 
Q 35.15625 65.921875 28.609375 65.921875 
Q 23.96875 65.921875 18.8125 64.3125 
Q 13.671875 62.703125 7.8125 59.421875 
L 7.8125 69.390625 
Q 13.765625 71.78125 18.9375 73 
Q 24.125 74.21875 28.421875 74.21875 
Q 39.75 74.21875 46.484375 68.546875 
Q 53.21875 62.890625 53.21875 53.421875 
Q 53.21875 48.921875 51.53125 44.890625 
Q 49.859375 40.875 45.40625 35.40625 
Q 44.1875 33.984375 37.640625 27.21875 
Q 31.109375 20.453125 19.1875 8.296875 
z
" id="DejaVuSans-50"/>
        <path d="M 31.78125 66.40625 
Q 24.171875 66.40625 20.328125 58.90625 
Q 16.5 51.421875 16.5 36.375 
Q 16.5 21.390625 20.328125 13.890625 
Q 24.171875 6.390625 31.78125 6.390625 
Q 39.453125 6.390625 43.28125 13.890625 
Q 47.125 21.390625 47.125 36.375 
Q 47.125 51.421875 43.28125 58.90625 
Q 39.453125 66.40625 31.78125 66.40625 
z
M 31.78125 74.21875 
Q 44.046875 74.21875 50.515625 64.515625 
Q 56.984375 54.828125 56.984375 36.375 
Q 56.984375 17.96875 50.515625 8.265625 
Q 44.046875 -1.421875 31.78125 -1.421875 
Q 19.53125 -1.421875 13.0625 8.265625 
Q 6.59375 17.96875 6.59375 36.375 
Q 6.59375 54.828125 13.0625 64.515625 
Q 19.53125 74.21875 31.78125 74.21875 
z
" id="DejaVuSans-48"/>
        <path d="M 12.40625 8.296875 
L 28.515625 8.296875 
L 28.515625 63.921875 
L 10.984375 60.40625 
L 10.984375 69.390625 
L 28.421875 72.90625 
L 38.28125 72.90625 
L 38.28125 8.296875 
L 54.390625 8.296875 
L 54.390625 0 
L 12.40625 0 
z
" id="DejaVuSans-49"/>
        <path d="M 10.984375 1.515625 
L 10.984375 10.5 
Q 14.703125 8.734375 18.5 7.8125 
Q 22.3125 6.890625 25.984375 6.890625 
Q 35.75 6.890625 40.890625 13.453125 
Q 46.046875 20.015625 46.78125 33.40625 
Q 43.953125 29.203125 39.59375 26.953125 
Q 35.25 24.703125 29.984375 24.703125 
Q 19.046875 24.703125 12.671875 31.3125 
Q 6.296875 37.9375 6.296875 49.421875 
Q 6.296875 60.640625 12.9375 67.421875 
Q 19.578125 74.21875 30.609375 74.21875 
Q 43.265625 74.21875 49.921875 64.515625 
Q 56.59375 54.828125 56.59375 36.375 
Q 56.59375 19.140625 48.40625 8.859375 
Q 40.234375 -1.421875 26.421875 -1.421875 
Q 22.703125 -1.421875 18.890625 -0.6875 
Q 15.09375 0.046875 10.984375 1.515625 
z
M 30.609375 32.421875 
Q 37.25 32.421875 41.125 36.953125 
Q 45.015625 41.5 45.015625 49.421875 
Q 45.015625 57.28125 41.125 61.84375 
Q 37.25 66.40625 30.609375 66.40625 
Q 23.96875 66.40625 20.09375 61.84375 
Q 16.21875 57.28125 16.21875 49.421875 
Q 16.21875 41.5 20.09375 36.953125 
Q 23.96875 32.421875 30.609375 32.421875 
z
" id="DejaVuSans-57"/>
        <path d="M 4.890625 31.390625 
L 31.203125 31.390625 
L 31.203125 23.390625 
L 4.890625 23.390625 
z
" id="DejaVuSans-45"/>
        <path d="M 33.015625 40.375 
Q 26.375 40.375 22.484375 35.828125 
Q 18.609375 31.296875 18.609375 23.390625 
Q 18.609375 15.53125 22.484375 10.953125 
Q 26.375 6.390625 33.015625 6.390625 
Q 39.65625 6.390625 43.53125 10.953125 
Q 47.40625 15.53125 47.40625 23.390625 
Q 47.40625 31.296875 43.53125 35.828125 
Q 39.65625 40.375 33.015625 40.375 
z
M 52.59375 71.296875 
L 52.59375 62.3125 
Q 48.875 64.0625 45.09375 64.984375 
Q 41.3125 65.921875 37.59375 65.921875 
Q 27.828125 65.921875 22.671875 59.328125 
Q 17.53125 52.734375 16.796875 39.40625 
Q 19.671875 43.65625 24.015625 45.921875 
Q 28.375 48.1875 33.59375 48.1875 
Q 44.578125 48.1875 50.953125 41.515625 
Q 57.328125 34.859375 57.328125 23.390625 
Q 57.328125 12.15625 50.6875 5.359375 
Q 44.046875 -1.421875 33.015625 -1.421875 
Q 20.359375 -1.421875 13.671875 8.265625 
Q 6.984375 17.96875 6.984375 36.375 
Q 6.984375 53.65625 15.1875 63.9375 
Q 23.390625 74.21875 37.203125 74.21875 
Q 40.921875 74.21875 44.703125 73.484375 
Q 48.484375 72.75 52.59375 71.296875 
z
" id="DejaVuSans-54"/>
       </defs>
       <use xlink:href="#DejaVuSans-50"/>
       <use x="63.623047" xlink:href="#DejaVuSans-48"/>
       <use x="127.246094" xlink:href="#DejaVuSans-49"/>
       <use x="190.869141" xlink:href="#DejaVuSans-57"/>
       <use x="254.492188" xlink:href="#DejaVuSans-45"/>
       <use x="290.576172" xlink:href="#DejaVuSans-49"/>
       <use x="354.199219" xlink:href="#DejaVuSans-49"/>
       <use x="417.822266" xlink:href="#DejaVuSans-45"/>
       <use x="453.90625" xlink:href="#DejaVuSans-50"/>
       <use x="517.529297" xlink:href="#DejaVuSans-54"/>
      </g>
     </g>
    </g>
    <g id="xtick_2">
     <g id="line2d_3">
      <path clip-path="url(#p3398fc1d3e)" d="M 102.824188 276.48 
L 102.824188 41.472 
" style="fill:none;stroke:#b0b0b0;stroke-linecap:square;stroke-width:0.8;"/>
     </g>
     <g id="line2d_4">
      <g>
       <use style="stroke:#000000;stroke-width:0.8;" x="102.824188" xlink:href="#m84c040a606" y="276.48"/>
      </g>
     </g>
     <g id="text_2">
      <!-- 2019-12-26 -->
      <g transform="translate(51.454737 319.118252)rotate(-30)scale(0.1 -0.1)">
       <use xlink:href="#DejaVuSans-50"/>
       <use x="63.623047" xlink:href="#DejaVuSans-48"/>
       <use x="127.246094" xlink:href="#DejaVuSans-49"/>
       <use x="190.869141" xlink:href="#DejaVuSans-57"/>
       <use x="254.492188" xlink:href="#DejaVuSans-45"/>
       <use x="290.576172" xlink:href="#DejaVuSans-49"/>
       <use x="354.199219" xlink:href="#DejaVuSans-50"/>
       <use x="417.822266" xlink:href="#DejaVuSans-45"/>
       <use x="453.90625" xlink:href="#DejaVuSans-50"/>
       <use x="517.529297" xlink:href="#DejaVuSans-54"/>
      </g>
     </g>
    </g>
    <g id="xtick_3">
     <g id="line2d_5">
      <path clip-path="url(#p3398fc1d3e)" d="M 129.702651 276.48 
L 129.702651 41.472 
" style="fill:none;stroke:#b0b0b0;stroke-linecap:square;stroke-width:0.8;"/>
     </g>
     <g id="line2d_6">
      <g>
       <use style="stroke:#000000;stroke-width:0.8;" x="129.702651" xlink:href="#m84c040a606" y="276.48"/>
      </g>
     </g>
     <g id="text_3">
      <!-- 2020-01-25 -->
      <g transform="translate(78.333199 319.118252)rotate(-30)scale(0.1 -0.1)">
       <defs>
        <path d="M 10.796875 72.90625 
L 49.515625 72.90625 
L 49.515625 64.59375 
L 19.828125 64.59375 
L 19.828125 46.734375 
Q 21.96875 47.46875 24.109375 47.828125 
Q 26.265625 48.1875 28.421875 48.1875 
Q 40.625 48.1875 47.75 41.5 
Q 54.890625 34.8125 54.890625 23.390625 
Q 54.890625 11.625 47.5625 5.09375 
Q 40.234375 -1.421875 26.90625 -1.421875 
Q 22.3125 -1.421875 17.546875 -0.640625 
Q 12.796875 0.140625 7.71875 1.703125 
L 7.71875 11.625 
Q 12.109375 9.234375 16.796875 8.0625 
Q 21.484375 6.890625 26.703125 6.890625 
Q 35.15625 6.890625 40.078125 11.328125 
Q 45.015625 15.765625 45.015625 23.390625 
Q 45.015625 31 40.078125 35.4375 
Q 35.15625 39.890625 26.703125 39.890625 
Q 22.75 39.890625 18.8125 39.015625 
Q 14.890625 38.140625 10.796875 36.28125 
z
" id="DejaVuSans-53"/>
       </defs>
       <use xlink:href="#DejaVuSans-50"/>
       <use x="63.623047" xlink:href="#DejaVuSans-48"/>
       <use x="127.246094" xlink:href="#DejaVuSans-50"/>
       <use x="190.869141" xlink:href="#DejaVuSans-48"/>
       <use x="254.492188" xlink:href="#DejaVuSans-45"/>
       <use x="290.576172" xlink:href="#DejaVuSans-48"/>
       <use x="354.199219" xlink:href="#DejaVuSans-49"/>
       <use x="417.822266" xlink:href="#DejaVuSans-45"/>
       <use x="453.90625" xlink:href="#DejaVuSans-50"/>
       <use x="517.529297" xlink:href="#DejaVuSans-53"/>
      </g>
     </g>
    </g>
    <g id="xtick_4">
     <g id="line2d_7">
      <path clip-path="url(#p3398fc1d3e)" d="M 156.581113 276.48 
L 156.581113 41.472 
" style="fill:none;stroke:#b0b0b0;stroke-linecap:square;stroke-width:0.8;"/>
     </g>
     <g id="line2d_8">
      <g>
       <use style="stroke:#000000;stroke-width:0.8;" x="156.581113" xlink:href="#m84c040a606" y="276.48"/>
      </g>
     </g>
     <g id="text_4">
      <!-- 2020-02-24 -->
      <g transform="translate(105.211661 319.118252)rotate(-30)scale(0.1 -0.1)">
       <defs>
        <path d="M 37.796875 64.3125 
L 12.890625 25.390625 
L 37.796875 25.390625 
z
M 35.203125 72.90625 
L 47.609375 72.90625 
L 47.609375 25.390625 
L 58.015625 25.390625 
L 58.015625 17.1875 
L 47.609375 17.1875 
L 47.609375 0 
L 37.796875 0 
L 37.796875 17.1875 
L 4.890625 17.1875 
L 4.890625 26.703125 
z
" id="DejaVuSans-52"/>
       </defs>
       <use xlink:href="#DejaVuSans-50"/>
       <use x="63.623047" xlink:href="#DejaVuSans-48"/>
       <use x="127.246094" xlink:href="#DejaVuSans-50"/>
       <use x="190.869141" xlink:href="#DejaVuSans-48"/>
       <use x="254.492188" xlink:href="#DejaVuSans-45"/>
       <use x="290.576172" xlink:href="#DejaVuSans-48"/>
       <use x="354.199219" xlink:href="#DejaVuSans-50"/>
       <use x="417.822266" xlink:href="#DejaVuSans-45"/>
       <use x="453.90625" xlink:href="#DejaVuSans-50"/>
       <use x="517.529297" xlink:href="#DejaVuSans-52"/>
      </g>
     </g>
    </g>
    <g id="xtick_5">
     <g id="line2d_9">
      <path clip-path="url(#p3398fc1d3e)" d="M 183.459575 276.48 
L 183.459575 41.472 
" style="fill:none;stroke:#b0b0b0;stroke-linecap:square;stroke-width:0.8;"/>
     </g>
     <g id="line2d_10">
      <g>
       <use style="stroke:#000000;stroke-width:0.8;" x="183.459575" xlink:href="#m84c040a606" y="276.48"/>
      </g>
     </g>
     <g id="text_5">
      <!-- 2020-03-25 -->
      <g transform="translate(132.090124 319.118252)rotate(-30)scale(0.1 -0.1)">
       <defs>
        <path d="M 40.578125 39.3125 
Q 47.65625 37.796875 51.625 33 
Q 55.609375 28.21875 55.609375 21.1875 
Q 55.609375 10.40625 48.1875 4.484375 
Q 40.765625 -1.421875 27.09375 -1.421875 
Q 22.515625 -1.421875 17.65625 -0.515625 
Q 12.796875 0.390625 7.625 2.203125 
L 7.625 11.71875 
Q 11.71875 9.328125 16.59375 8.109375 
Q 21.484375 6.890625 26.8125 6.890625 
Q 36.078125 6.890625 40.9375 10.546875 
Q 45.796875 14.203125 45.796875 21.1875 
Q 45.796875 27.640625 41.28125 31.265625 
Q 36.765625 34.90625 28.71875 34.90625 
L 20.21875 34.90625 
L 20.21875 43.015625 
L 29.109375 43.015625 
Q 36.375 43.015625 40.234375 45.921875 
Q 44.09375 48.828125 44.09375 54.296875 
Q 44.09375 59.90625 40.109375 62.90625 
Q 36.140625 65.921875 28.71875 65.921875 
Q 24.65625 65.921875 20.015625 65.03125 
Q 15.375 64.15625 9.8125 62.3125 
L 9.8125 71.09375 
Q 15.4375 72.65625 20.34375 73.4375 
Q 25.25 74.21875 29.59375 74.21875 
Q 40.828125 74.21875 47.359375 69.109375 
Q 53.90625 64.015625 53.90625 55.328125 
Q 53.90625 49.265625 50.4375 45.09375 
Q 46.96875 40.921875 40.578125 39.3125 
z
" id="DejaVuSans-51"/>
       </defs>
       <use xlink:href="#DejaVuSans-50"/>
       <use x="63.623047" xlink:href="#DejaVuSans-48"/>
       <use x="127.246094" xlink:href="#DejaVuSans-50"/>
       <use x="190.869141" xlink:href="#DejaVuSans-48"/>
       <use x="254.492188" xlink:href="#DejaVuSans-45"/>
       <use x="290.576172" xlink:href="#DejaVuSans-48"/>
       <use x="354.199219" xlink:href="#DejaVuSans-51"/>
       <use x="417.822266" xlink:href="#DejaVuSans-45"/>
       <use x="453.90625" xlink:href="#DejaVuSans-50"/>
       <use x="517.529297" xlink:href="#DejaVuSans-53"/>
      </g>
     </g>
    </g>
    <g id="xtick_6">
     <g id="line2d_11">
      <path clip-path="url(#p3398fc1d3e)" d="M 210.338037 276.48 
L 210.338037 41.472 
" style="fill:none;stroke:#b0b0b0;stroke-linecap:square;stroke-width:0.8;"/>
     </g>
     <g id="line2d_12">
      <g>
       <use style="stroke:#000000;stroke-width:0.8;" x="210.338037" xlink:href="#m84c040a606" y="276.48"/>
      </g>
     </g>
     <g id="text_6">
      <!-- 2020-04-24 -->
      <g transform="translate(158.968586 319.118252)rotate(-30)scale(0.1 -0.1)">
       <use xlink:href="#DejaVuSans-50"/>
       <use x="63.623047" xlink:href="#DejaVuSans-48"/>
       <use x="127.246094" xlink:href="#DejaVuSans-50"/>
       <use x="190.869141" xlink:href="#DejaVuSans-48"/>
       <use x="254.492188" xlink:href="#DejaVuSans-45"/>
       <use x="290.576172" xlink:href="#DejaVuSans-48"/>
       <use x="354.199219" xlink:href="#DejaVuSans-52"/>
       <use x="417.822266" xlink:href="#DejaVuSans-45"/>
       <use x="453.90625" xlink:href="#DejaVuSans-50"/>
       <use x="517.529297" xlink:href="#DejaVuSans-52"/>
      </g>
     </g>
    </g>
    <g id="xtick_7">
     <g id="line2d_13">
      <path clip-path="url(#p3398fc1d3e)" d="M 237.216499 276.48 
L 237.216499 41.472 
" style="fill:none;stroke:#b0b0b0;stroke-linecap:square;stroke-width:0.8;"/>
     </g>
     <g id="line2d_14">
      <g>
       <use style="stroke:#000000;stroke-width:0.8;" x="237.216499" xlink:href="#m84c040a606" y="276.48"/>
      </g>
     </g>
     <g id="text_7">
      <!-- 2020-05-24 -->
      <g transform="translate(185.847048 319.118252)rotate(-30)scale(0.1 -0.1)">
       <use xlink:href="#DejaVuSans-50"/>
       <use x="63.623047" xlink:href="#DejaVuSans-48"/>
       <use x="127.246094" xlink:href="#DejaVuSans-50"/>
       <use x="190.869141" xlink:href="#DejaVuSans-48"/>
       <use x="254.492188" xlink:href="#DejaVuSans-45"/>
       <use x="290.576172" xlink:href="#DejaVuSans-48"/>
       <use x="354.199219" xlink:href="#DejaVuSans-53"/>
       <use x="417.822266" xlink:href="#DejaVuSans-45"/>
       <use x="453.90625" xlink:href="#DejaVuSans-50"/>
       <use x="517.529297" xlink:href="#DejaVuSans-52"/>
      </g>
     </g>
    </g>
    <g id="xtick_8">
     <g id="line2d_15">
      <path clip-path="url(#p3398fc1d3e)" d="M 264.094962 276.48 
L 264.094962 41.472 
" style="fill:none;stroke:#b0b0b0;stroke-linecap:square;stroke-width:0.8;"/>
     </g>
     <g id="line2d_16">
      <g>
       <use style="stroke:#000000;stroke-width:0.8;" x="264.094962" xlink:href="#m84c040a606" y="276.48"/>
      </g>
     </g>
     <g id="text_8">
      <!-- 2020-06-23 -->
      <g transform="translate(212.72551 319.118252)rotate(-30)scale(0.1 -0.1)">
       <use xlink:href="#DejaVuSans-50"/>
       <use x="63.623047" xlink:href="#DejaVuSans-48"/>
       <use x="127.246094" xlink:href="#DejaVuSans-50"/>
       <use x="190.869141" xlink:href="#DejaVuSans-48"/>
       <use x="254.492188" xlink:href="#DejaVuSans-45"/>
       <use x="290.576172" xlink:href="#DejaVuSans-48"/>
       <use x="354.199219" xlink:href="#DejaVuSans-54"/>
       <use x="417.822266" xlink:href="#DejaVuSans-45"/>
       <use x="453.90625" xlink:href="#DejaVuSans-50"/>
       <use x="517.529297" xlink:href="#DejaVuSans-51"/>
      </g>
     </g>
    </g>
    <g id="xtick_9">
     <g id="line2d_17">
      <path clip-path="url(#p3398fc1d3e)" d="M 290.973424 276.48 
L 290.973424 41.472 
" style="fill:none;stroke:#b0b0b0;stroke-linecap:square;stroke-width:0.8;"/>
     </g>
     <g id="line2d_18">
      <g>
       <use style="stroke:#000000;stroke-width:0.8;" x="290.973424" xlink:href="#m84c040a606" y="276.48"/>
      </g>
     </g>
     <g id="text_9">
      <!-- 2020-07-23 -->
      <g transform="translate(239.603973 319.118252)rotate(-30)scale(0.1 -0.1)">
       <defs>
        <path d="M 8.203125 72.90625 
L 55.078125 72.90625 
L 55.078125 68.703125 
L 28.609375 0 
L 18.3125 0 
L 43.21875 64.59375 
L 8.203125 64.59375 
z
" id="DejaVuSans-55"/>
       </defs>
       <use xlink:href="#DejaVuSans-50"/>
       <use x="63.623047" xlink:href="#DejaVuSans-48"/>
       <use x="127.246094" xlink:href="#DejaVuSans-50"/>
       <use x="190.869141" xlink:href="#DejaVuSans-48"/>
       <use x="254.492188" xlink:href="#DejaVuSans-45"/>
       <use x="290.576172" xlink:href="#DejaVuSans-48"/>
       <use x="354.199219" xlink:href="#DejaVuSans-55"/>
       <use x="417.822266" xlink:href="#DejaVuSans-45"/>
       <use x="453.90625" xlink:href="#DejaVuSans-50"/>
       <use x="517.529297" xlink:href="#DejaVuSans-51"/>
      </g>
     </g>
    </g>
    <g id="xtick_10">
     <g id="line2d_19">
      <path clip-path="url(#p3398fc1d3e)" d="M 317.851886 276.48 
L 317.851886 41.472 
" style="fill:none;stroke:#b0b0b0;stroke-linecap:square;stroke-width:0.8;"/>
     </g>
     <g id="line2d_20">
      <g>
       <use style="stroke:#000000;stroke-width:0.8;" x="317.851886" xlink:href="#m84c040a606" y="276.48"/>
      </g>
     </g>
     <g id="text_10">
      <!-- 2020-08-22 -->
      <g transform="translate(266.482435 319.118252)rotate(-30)scale(0.1 -0.1)">
       <defs>
        <path d="M 31.78125 34.625 
Q 24.75 34.625 20.71875 30.859375 
Q 16.703125 27.09375 16.703125 20.515625 
Q 16.703125 13.921875 20.71875 10.15625 
Q 24.75 6.390625 31.78125 6.390625 
Q 38.8125 6.390625 42.859375 10.171875 
Q 46.921875 13.96875 46.921875 20.515625 
Q 46.921875 27.09375 42.890625 30.859375 
Q 38.875 34.625 31.78125 34.625 
z
M 21.921875 38.8125 
Q 15.578125 40.375 12.03125 44.71875 
Q 8.5 49.078125 8.5 55.328125 
Q 8.5 64.0625 14.71875 69.140625 
Q 20.953125 74.21875 31.78125 74.21875 
Q 42.671875 74.21875 48.875 69.140625 
Q 55.078125 64.0625 55.078125 55.328125 
Q 55.078125 49.078125 51.53125 44.71875 
Q 48 40.375 41.703125 38.8125 
Q 48.828125 37.15625 52.796875 32.3125 
Q 56.78125 27.484375 56.78125 20.515625 
Q 56.78125 9.90625 50.3125 4.234375 
Q 43.84375 -1.421875 31.78125 -1.421875 
Q 19.734375 -1.421875 13.25 4.234375 
Q 6.78125 9.90625 6.78125 20.515625 
Q 6.78125 27.484375 10.78125 32.3125 
Q 14.796875 37.15625 21.921875 38.8125 
z
M 18.3125 54.390625 
Q 18.3125 48.734375 21.84375 45.5625 
Q 25.390625 42.390625 31.78125 42.390625 
Q 38.140625 42.390625 41.71875 45.5625 
Q 45.3125 48.734375 45.3125 54.390625 
Q 45.3125 60.0625 41.71875 63.234375 
Q 38.140625 66.40625 31.78125 66.40625 
Q 25.390625 66.40625 21.84375 63.234375 
Q 18.3125 60.0625 18.3125 54.390625 
z
" id="DejaVuSans-56"/>
       </defs>
       <use xlink:href="#DejaVuSans-50"/>
       <use x="63.623047" xlink:href="#DejaVuSans-48"/>
       <use x="127.246094" xlink:href="#DejaVuSans-50"/>
       <use x="190.869141" xlink:href="#DejaVuSans-48"/>
       <use x="254.492188" xlink:href="#DejaVuSans-45"/>
       <use x="290.576172" xlink:href="#DejaVuSans-48"/>
       <use x="354.199219" xlink:href="#DejaVuSans-56"/>
       <use x="417.822266" xlink:href="#DejaVuSans-45"/>
       <use x="453.90625" xlink:href="#DejaVuSans-50"/>
       <use x="517.529297" xlink:href="#DejaVuSans-50"/>
      </g>
     </g>
    </g>
    <g id="xtick_11">
     <g id="line2d_21">
      <path clip-path="url(#p3398fc1d3e)" d="M 344.730348 276.48 
L 344.730348 41.472 
" style="fill:none;stroke:#b0b0b0;stroke-linecap:square;stroke-width:0.8;"/>
     </g>
     <g id="line2d_22">
      <g>
       <use style="stroke:#000000;stroke-width:0.8;" x="344.730348" xlink:href="#m84c040a606" y="276.48"/>
      </g>
     </g>
     <g id="text_11">
      <!-- 2020-09-21 -->
      <g transform="translate(293.360897 319.118252)rotate(-30)scale(0.1 -0.1)">
       <use xlink:href="#DejaVuSans-50"/>
       <use x="63.623047" xlink:href="#DejaVuSans-48"/>
       <use x="127.246094" xlink:href="#DejaVuSans-50"/>
       <use x="190.869141" xlink:href="#DejaVuSans-48"/>
       <use x="254.492188" xlink:href="#DejaVuSans-45"/>
       <use x="290.576172" xlink:href="#DejaVuSans-48"/>
       <use x="354.199219" xlink:href="#DejaVuSans-57"/>
       <use x="417.822266" xlink:href="#DejaVuSans-45"/>
       <use x="453.90625" xlink:href="#DejaVuSans-50"/>
       <use x="517.529297" xlink:href="#DejaVuSans-49"/>
      </g>
     </g>
    </g>
    <g id="xtick_12">
     <g id="line2d_23">
      <path clip-path="url(#p3398fc1d3e)" d="M 371.608811 276.48 
L 371.608811 41.472 
" style="fill:none;stroke:#b0b0b0;stroke-linecap:square;stroke-width:0.8;"/>
     </g>
     <g id="line2d_24">
      <g>
       <use style="stroke:#000000;stroke-width:0.8;" x="371.608811" xlink:href="#m84c040a606" y="276.48"/>
      </g>
     </g>
     <g id="text_12">
      <!-- 2020-10-21 -->
      <g transform="translate(320.239359 319.118252)rotate(-30)scale(0.1 -0.1)">
       <use xlink:href="#DejaVuSans-50"/>
       <use x="63.623047" xlink:href="#DejaVuSans-48"/>
       <use x="127.246094" xlink:href="#DejaVuSans-50"/>
       <use x="190.869141" xlink:href="#DejaVuSans-48"/>
       <use x="254.492188" xlink:href="#DejaVuSans-45"/>
       <use x="290.576172" xlink:href="#DejaVuSans-49"/>
       <use x="354.199219" xlink:href="#DejaVuSans-48"/>
       <use x="417.822266" xlink:href="#DejaVuSans-45"/>
       <use x="453.90625" xlink:href="#DejaVuSans-50"/>
       <use x="517.529297" xlink:href="#DejaVuSans-49"/>
      </g>
     </g>
    </g>
    <g id="xtick_13">
     <g id="line2d_25">
      <path clip-path="url(#p3398fc1d3e)" d="M 398.487273 276.48 
L 398.487273 41.472 
" style="fill:none;stroke:#b0b0b0;stroke-linecap:square;stroke-width:0.8;"/>
     </g>
     <g id="line2d_26">
      <g>
       <use style="stroke:#000000;stroke-width:0.8;" x="398.487273" xlink:href="#m84c040a606" y="276.48"/>
      </g>
     </g>
     <g id="text_13">
      <!-- 2020-11-20 -->
      <g transform="translate(347.117821 319.118252)rotate(-30)scale(0.1 -0.1)">
       <use xlink:href="#DejaVuSans-50"/>
       <use x="63.623047" xlink:href="#DejaVuSans-48"/>
       <use x="127.246094" xlink:href="#DejaVuSans-50"/>
       <use x="190.869141" xlink:href="#DejaVuSans-48"/>
       <use x="254.492188" xlink:href="#DejaVuSans-45"/>
       <use x="290.576172" xlink:href="#DejaVuSans-49"/>
       <use x="354.199219" xlink:href="#DejaVuSans-49"/>
       <use x="417.822266" xlink:href="#DejaVuSans-45"/>
       <use x="453.90625" xlink:href="#DejaVuSans-50"/>
       <use x="517.529297" xlink:href="#DejaVuSans-48"/>
      </g>
     </g>
    </g>
    <g id="text_14">
     <!-- Date -->
     <g transform="translate(224.209219 332.517752)scale(0.1 -0.1)">
      <defs>
       <path d="M 19.671875 64.796875 
L 19.671875 8.109375 
L 31.59375 8.109375 
Q 46.6875 8.109375 53.6875 14.9375 
Q 60.6875 21.78125 60.6875 36.53125 
Q 60.6875 51.171875 53.6875 57.984375 
Q 46.6875 64.796875 31.59375 64.796875 
z
M 9.8125 72.90625 
L 30.078125 72.90625 
Q 51.265625 72.90625 61.171875 64.09375 
Q 71.09375 55.28125 71.09375 36.53125 
Q 71.09375 17.671875 61.125 8.828125 
Q 51.171875 0 30.078125 0 
L 9.8125 0 
z
" id="DejaVuSans-68"/>
       <path d="M 34.28125 27.484375 
Q 23.390625 27.484375 19.1875 25 
Q 14.984375 22.515625 14.984375 16.5 
Q 14.984375 11.71875 18.140625 8.90625 
Q 21.296875 6.109375 26.703125 6.109375 
Q 34.1875 6.109375 38.703125 11.40625 
Q 43.21875 16.703125 43.21875 25.484375 
L 43.21875 27.484375 
z
M 52.203125 31.203125 
L 52.203125 0 
L 43.21875 0 
L 43.21875 8.296875 
Q 40.140625 3.328125 35.546875 0.953125 
Q 30.953125 -1.421875 24.3125 -1.421875 
Q 15.921875 -1.421875 10.953125 3.296875 
Q 6 8.015625 6 15.921875 
Q 6 25.140625 12.171875 29.828125 
Q 18.359375 34.515625 30.609375 34.515625 
L 43.21875 34.515625 
L 43.21875 35.40625 
Q 43.21875 41.609375 39.140625 45 
Q 35.0625 48.390625 27.6875 48.390625 
Q 23 48.390625 18.546875 47.265625 
Q 14.109375 46.140625 10.015625 43.890625 
L 10.015625 52.203125 
Q 14.9375 54.109375 19.578125 55.046875 
Q 24.21875 56 28.609375 56 
Q 40.484375 56 46.34375 49.84375 
Q 52.203125 43.703125 52.203125 31.203125 
z
" id="DejaVuSans-97"/>
       <path d="M 18.3125 70.21875 
L 18.3125 54.6875 
L 36.8125 54.6875 
L 36.8125 47.703125 
L 18.3125 47.703125 
L 18.3125 18.015625 
Q 18.3125 11.328125 20.140625 9.421875 
Q 21.96875 7.515625 27.59375 7.515625 
L 36.8125 7.515625 
L 36.8125 0 
L 27.59375 0 
Q 17.1875 0 13.234375 3.875 
Q 9.28125 7.765625 9.28125 18.015625 
L 9.28125 47.703125 
L 2.6875 47.703125 
L 2.6875 54.6875 
L 9.28125 54.6875 
L 9.28125 70.21875 
z
" id="DejaVuSans-116"/>
       <path d="M 56.203125 29.59375 
L 56.203125 25.203125 
L 14.890625 25.203125 
Q 15.484375 15.921875 20.484375 11.0625 
Q 25.484375 6.203125 34.421875 6.203125 
Q 39.59375 6.203125 44.453125 7.46875 
Q 49.3125 8.734375 54.109375 11.28125 
L 54.109375 2.78125 
Q 49.265625 0.734375 44.1875 -0.34375 
Q 39.109375 -1.421875 33.890625 -1.421875 
Q 20.796875 -1.421875 13.15625 6.1875 
Q 5.515625 13.8125 5.515625 26.8125 
Q 5.515625 40.234375 12.765625 48.109375 
Q 20.015625 56 32.328125 56 
Q 43.359375 56 49.78125 48.890625 
Q 56.203125 41.796875 56.203125 29.59375 
z
M 47.21875 32.234375 
Q 47.125 39.59375 43.09375 43.984375 
Q 39.0625 48.390625 32.421875 48.390625 
Q 24.90625 48.390625 20.390625 44.140625 
Q 15.875 39.890625 15.1875 32.171875 
z
" id="DejaVuSans-101"/>
      </defs>
      <use xlink:href="#DejaVuSans-68"/>
      <use x="77.001953" xlink:href="#DejaVuSans-97"/>
      <use x="138.28125" xlink:href="#DejaVuSans-116"/>
      <use x="177.490234" xlink:href="#DejaVuSans-101"/>
     </g>
    </g>
   </g>
   <g id="matplotlib.axis_2">
    <g id="ytick_1">
     <g id="line2d_27">
      <path clip-path="url(#p3398fc1d3e)" d="M 57.6 270.393499 
L 414.72 270.393499 
" style="fill:none;stroke:#b0b0b0;stroke-linecap:square;stroke-width:0.8;"/>
     </g>
     <g id="line2d_28">
      <defs>
       <path d="M 0 0 
L -3.5 0 
" id="md4cf4934eb" style="stroke:#000000;stroke-width:0.8;"/>
      </defs>
      <g>
       <use style="stroke:#000000;stroke-width:0.8;" x="57.6" xlink:href="#md4cf4934eb" y="270.393499"/>
      </g>
     </g>
     <g id="text_15">
      <!-- 3.65 -->
      <g transform="translate(28.334375 274.192717)scale(0.1 -0.1)">
       <defs>
        <path d="M 10.6875 12.40625 
L 21 12.40625 
L 21 0 
L 10.6875 0 
z
" id="DejaVuSans-46"/>
       </defs>
       <use xlink:href="#DejaVuSans-51"/>
       <use x="63.623047" xlink:href="#DejaVuSans-46"/>
       <use x="95.410156" xlink:href="#DejaVuSans-54"/>
       <use x="159.033203" xlink:href="#DejaVuSans-53"/>
      </g>
     </g>
    </g>
    <g id="ytick_2">
     <g id="line2d_29">
      <path clip-path="url(#p3398fc1d3e)" d="M 57.6 259.292821 
L 414.72 259.292821 
" style="fill:none;stroke:#b0b0b0;stroke-linecap:square;stroke-width:0.8;"/>
     </g>
     <g id="line2d_30">
      <g>
       <use style="stroke:#000000;stroke-width:0.8;" x="57.6" xlink:href="#md4cf4934eb" y="259.292821"/>
      </g>
     </g>
     <g id="text_16">
      <!-- 3.70 -->
      <g transform="translate(28.334375 263.09204)scale(0.1 -0.1)">
       <use xlink:href="#DejaVuSans-51"/>
       <use x="63.623047" xlink:href="#DejaVuSans-46"/>
       <use x="95.410156" xlink:href="#DejaVuSans-55"/>
       <use x="159.033203" xlink:href="#DejaVuSans-48"/>
      </g>
     </g>
    </g>
    <g id="ytick_3">
     <g id="line2d_31">
      <path clip-path="url(#p3398fc1d3e)" d="M 57.6 248.192144 
L 414.72 248.192144 
" style="fill:none;stroke:#b0b0b0;stroke-linecap:square;stroke-width:0.8;"/>
     </g>
     <g id="line2d_32">
      <g>
       <use style="stroke:#000000;stroke-width:0.8;" x="57.6" xlink:href="#md4cf4934eb" y="248.192144"/>
      </g>
     </g>
     <g id="text_17">
      <!-- 3.75 -->
      <g transform="translate(28.334375 251.991363)scale(0.1 -0.1)">
       <use xlink:href="#DejaVuSans-51"/>
       <use x="63.623047" xlink:href="#DejaVuSans-46"/>
       <use x="95.410156" xlink:href="#DejaVuSans-55"/>
       <use x="159.033203" xlink:href="#DejaVuSans-53"/>
      </g>
     </g>
    </g>
    <g id="ytick_4">
     <g id="line2d_33">
      <path clip-path="url(#p3398fc1d3e)" d="M 57.6 237.091467 
L 414.72 237.091467 
" style="fill:none;stroke:#b0b0b0;stroke-linecap:square;stroke-width:0.8;"/>
     </g>
     <g id="line2d_34">
      <g>
       <use style="stroke:#000000;stroke-width:0.8;" x="57.6" xlink:href="#md4cf4934eb" y="237.091467"/>
      </g>
     </g>
     <g id="text_18">
      <!-- 3.80 -->
      <g transform="translate(28.334375 240.890685)scale(0.1 -0.1)">
       <use xlink:href="#DejaVuSans-51"/>
       <use x="63.623047" xlink:href="#DejaVuSans-46"/>
       <use x="95.410156" xlink:href="#DejaVuSans-56"/>
       <use x="159.033203" xlink:href="#DejaVuSans-48"/>
      </g>
     </g>
    </g>
    <g id="ytick_5">
     <g id="line2d_35">
      <path clip-path="url(#p3398fc1d3e)" d="M 57.6 225.990789 
L 414.72 225.990789 
" style="fill:none;stroke:#b0b0b0;stroke-linecap:square;stroke-width:0.8;"/>
     </g>
     <g id="line2d_36">
      <g>
       <use style="stroke:#000000;stroke-width:0.8;" x="57.6" xlink:href="#md4cf4934eb" y="225.990789"/>
      </g>
     </g>
     <g id="text_19">
      <!-- 3.85 -->
      <g transform="translate(28.334375 229.790008)scale(0.1 -0.1)">
       <use xlink:href="#DejaVuSans-51"/>
       <use x="63.623047" xlink:href="#DejaVuSans-46"/>
       <use x="95.410156" xlink:href="#DejaVuSans-56"/>
       <use x="159.033203" xlink:href="#DejaVuSans-53"/>
      </g>
     </g>
    </g>
    <g id="ytick_6">
     <g id="line2d_37">
      <path clip-path="url(#p3398fc1d3e)" d="M 57.6 214.890112 
L 414.72 214.890112 
" style="fill:none;stroke:#b0b0b0;stroke-linecap:square;stroke-width:0.8;"/>
     </g>
     <g id="line2d_38">
      <g>
       <use style="stroke:#000000;stroke-width:0.8;" x="57.6" xlink:href="#md4cf4934eb" y="214.890112"/>
      </g>
     </g>
     <g id="text_20">
      <!-- 3.90 -->
      <g transform="translate(28.334375 218.689331)scale(0.1 -0.1)">
       <use xlink:href="#DejaVuSans-51"/>
       <use x="63.623047" xlink:href="#DejaVuSans-46"/>
       <use x="95.410156" xlink:href="#DejaVuSans-57"/>
       <use x="159.033203" xlink:href="#DejaVuSans-48"/>
      </g>
     </g>
    </g>
    <g id="ytick_7">
     <g id="line2d_39">
      <path clip-path="url(#p3398fc1d3e)" d="M 57.6 203.789434 
L 414.72 203.789434 
" style="fill:none;stroke:#b0b0b0;stroke-linecap:square;stroke-width:0.8;"/>
     </g>
     <g id="line2d_40">
      <g>
       <use style="stroke:#000000;stroke-width:0.8;" x="57.6" xlink:href="#md4cf4934eb" y="203.789434"/>
      </g>
     </g>
     <g id="text_21">
      <!-- 3.95 -->
      <g transform="translate(28.334375 207.588653)scale(0.1 -0.1)">
       <use xlink:href="#DejaVuSans-51"/>
       <use x="63.623047" xlink:href="#DejaVuSans-46"/>
       <use x="95.410156" xlink:href="#DejaVuSans-57"/>
       <use x="159.033203" xlink:href="#DejaVuSans-53"/>
      </g>
     </g>
    </g>
    <g id="ytick_8">
     <g id="line2d_41">
      <path clip-path="url(#p3398fc1d3e)" d="M 57.6 192.688757 
L 414.72 192.688757 
" style="fill:none;stroke:#b0b0b0;stroke-linecap:square;stroke-width:0.8;"/>
     </g>
     <g id="line2d_42">
      <g>
       <use style="stroke:#000000;stroke-width:0.8;" x="57.6" xlink:href="#md4cf4934eb" y="192.688757"/>
      </g>
     </g>
     <g id="text_22">
      <!-- 4.00 -->
      <g transform="translate(28.334375 196.487976)scale(0.1 -0.1)">
       <use xlink:href="#DejaVuSans-52"/>
       <use x="63.623047" xlink:href="#DejaVuSans-46"/>
       <use x="95.410156" xlink:href="#DejaVuSans-48"/>
       <use x="159.033203" xlink:href="#DejaVuSans-48"/>
      </g>
     </g>
    </g>
    <g id="ytick_9">
     <g id="line2d_43">
      <path clip-path="url(#p3398fc1d3e)" d="M 57.6 181.58808 
L 414.72 181.58808 
" style="fill:none;stroke:#b0b0b0;stroke-linecap:square;stroke-width:0.8;"/>
     </g>
     <g id="line2d_44">
      <g>
       <use style="stroke:#000000;stroke-width:0.8;" x="57.6" xlink:href="#md4cf4934eb" y="181.58808"/>
      </g>
     </g>
     <g id="text_23">
      <!-- 4.05 -->
      <g transform="translate(28.334375 185.387299)scale(0.1 -0.1)">
       <use xlink:href="#DejaVuSans-52"/>
       <use x="63.623047" xlink:href="#DejaVuSans-46"/>
       <use x="95.410156" xlink:href="#DejaVuSans-48"/>
       <use x="159.033203" xlink:href="#DejaVuSans-53"/>
      </g>
     </g>
    </g>
    <g id="ytick_10">
     <g id="line2d_45">
      <path clip-path="url(#p3398fc1d3e)" d="M 57.6 170.487402 
L 414.72 170.487402 
" style="fill:none;stroke:#b0b0b0;stroke-linecap:square;stroke-width:0.8;"/>
     </g>
     <g id="line2d_46">
      <g>
       <use style="stroke:#000000;stroke-width:0.8;" x="57.6" xlink:href="#md4cf4934eb" y="170.487402"/>
      </g>
     </g>
     <g id="text_24">
      <!-- 4.10 -->
      <g transform="translate(28.334375 174.286621)scale(0.1 -0.1)">
       <use xlink:href="#DejaVuSans-52"/>
       <use x="63.623047" xlink:href="#DejaVuSans-46"/>
       <use x="95.410156" xlink:href="#DejaVuSans-49"/>
       <use x="159.033203" xlink:href="#DejaVuSans-48"/>
      </g>
     </g>
    </g>
    <g id="ytick_11">
     <g id="line2d_47">
      <path clip-path="url(#p3398fc1d3e)" d="M 57.6 159.386725 
L 414.72 159.386725 
" style="fill:none;stroke:#b0b0b0;stroke-linecap:square;stroke-width:0.8;"/>
     </g>
     <g id="line2d_48">
      <g>
       <use style="stroke:#000000;stroke-width:0.8;" x="57.6" xlink:href="#md4cf4934eb" y="159.386725"/>
      </g>
     </g>
     <g id="text_25">
      <!-- 4.15 -->
      <g transform="translate(28.334375 163.185944)scale(0.1 -0.1)">
       <use xlink:href="#DejaVuSans-52"/>
       <use x="63.623047" xlink:href="#DejaVuSans-46"/>
       <use x="95.410156" xlink:href="#DejaVuSans-49"/>
       <use x="159.033203" xlink:href="#DejaVuSans-53"/>
      </g>
     </g>
    </g>
    <g id="ytick_12">
     <g id="line2d_49">
      <path clip-path="url(#p3398fc1d3e)" d="M 57.6 148.286048 
L 414.72 148.286048 
" style="fill:none;stroke:#b0b0b0;stroke-linecap:square;stroke-width:0.8;"/>
     </g>
     <g id="line2d_50">
      <g>
       <use style="stroke:#000000;stroke-width:0.8;" x="57.6" xlink:href="#md4cf4934eb" y="148.286048"/>
      </g>
     </g>
     <g id="text_26">
      <!-- 4.20 -->
      <g transform="translate(28.334375 152.085266)scale(0.1 -0.1)">
       <use xlink:href="#DejaVuSans-52"/>
       <use x="63.623047" xlink:href="#DejaVuSans-46"/>
       <use x="95.410156" xlink:href="#DejaVuSans-50"/>
       <use x="159.033203" xlink:href="#DejaVuSans-48"/>
      </g>
     </g>
    </g>
    <g id="ytick_13">
     <g id="line2d_51">
      <path clip-path="url(#p3398fc1d3e)" d="M 57.6 137.18537 
L 414.72 137.18537 
" style="fill:none;stroke:#b0b0b0;stroke-linecap:square;stroke-width:0.8;"/>
     </g>
     <g id="line2d_52">
      <g>
       <use style="stroke:#000000;stroke-width:0.8;" x="57.6" xlink:href="#md4cf4934eb" y="137.18537"/>
      </g>
     </g>
     <g id="text_27">
      <!-- 4.25 -->
      <g transform="translate(28.334375 140.984589)scale(0.1 -0.1)">
       <use xlink:href="#DejaVuSans-52"/>
       <use x="63.623047" xlink:href="#DejaVuSans-46"/>
       <use x="95.410156" xlink:href="#DejaVuSans-50"/>
       <use x="159.033203" xlink:href="#DejaVuSans-53"/>
      </g>
     </g>
    </g>
    <g id="ytick_14">
     <g id="line2d_53">
      <path clip-path="url(#p3398fc1d3e)" d="M 57.6 126.084693 
L 414.72 126.084693 
" style="fill:none;stroke:#b0b0b0;stroke-linecap:square;stroke-width:0.8;"/>
     </g>
     <g id="line2d_54">
      <g>
       <use style="stroke:#000000;stroke-width:0.8;" x="57.6" xlink:href="#md4cf4934eb" y="126.084693"/>
      </g>
     </g>
     <g id="text_28">
      <!-- 4.30 -->
      <g transform="translate(28.334375 129.883912)scale(0.1 -0.1)">
       <use xlink:href="#DejaVuSans-52"/>
       <use x="63.623047" xlink:href="#DejaVuSans-46"/>
       <use x="95.410156" xlink:href="#DejaVuSans-51"/>
       <use x="159.033203" xlink:href="#DejaVuSans-48"/>
      </g>
     </g>
    </g>
    <g id="ytick_15">
     <g id="line2d_55">
      <path clip-path="url(#p3398fc1d3e)" d="M 57.6 114.984016 
L 414.72 114.984016 
" style="fill:none;stroke:#b0b0b0;stroke-linecap:square;stroke-width:0.8;"/>
     </g>
     <g id="line2d_56">
      <g>
       <use style="stroke:#000000;stroke-width:0.8;" x="57.6" xlink:href="#md4cf4934eb" y="114.984016"/>
      </g>
     </g>
     <g id="text_29">
      <!-- 4.35 -->
      <g transform="translate(28.334375 118.783234)scale(0.1 -0.1)">
       <use xlink:href="#DejaVuSans-52"/>
       <use x="63.623047" xlink:href="#DejaVuSans-46"/>
       <use x="95.410156" xlink:href="#DejaVuSans-51"/>
       <use x="159.033203" xlink:href="#DejaVuSans-53"/>
      </g>
     </g>
    </g>
    <g id="ytick_16">
     <g id="line2d_57">
      <path clip-path="url(#p3398fc1d3e)" d="M 57.6 103.883338 
L 414.72 103.883338 
" style="fill:none;stroke:#b0b0b0;stroke-linecap:square;stroke-width:0.8;"/>
     </g>
     <g id="line2d_58">
      <g>
       <use style="stroke:#000000;stroke-width:0.8;" x="57.6" xlink:href="#md4cf4934eb" y="103.883338"/>
      </g>
     </g>
     <g id="text_30">
      <!-- 4.40 -->
      <g transform="translate(28.334375 107.682557)scale(0.1 -0.1)">
       <use xlink:href="#DejaVuSans-52"/>
       <use x="63.623047" xlink:href="#DejaVuSans-46"/>
       <use x="95.410156" xlink:href="#DejaVuSans-52"/>
       <use x="159.033203" xlink:href="#DejaVuSans-48"/>
      </g>
     </g>
    </g>
    <g id="ytick_17">
     <g id="line2d_59">
      <path clip-path="url(#p3398fc1d3e)" d="M 57.6 92.782661 
L 414.72 92.782661 
" style="fill:none;stroke:#b0b0b0;stroke-linecap:square;stroke-width:0.8;"/>
     </g>
     <g id="line2d_60">
      <g>
       <use style="stroke:#000000;stroke-width:0.8;" x="57.6" xlink:href="#md4cf4934eb" y="92.782661"/>
      </g>
     </g>
     <g id="text_31">
      <!-- 4.45 -->
      <g transform="translate(28.334375 96.58188)scale(0.1 -0.1)">
       <use xlink:href="#DejaVuSans-52"/>
       <use x="63.623047" xlink:href="#DejaVuSans-46"/>
       <use x="95.410156" xlink:href="#DejaVuSans-52"/>
       <use x="159.033203" xlink:href="#DejaVuSans-53"/>
      </g>
     </g>
    </g>
    <g id="ytick_18">
     <g id="line2d_61">
      <path clip-path="url(#p3398fc1d3e)" d="M 57.6 81.681984 
L 414.72 81.681984 
" style="fill:none;stroke:#b0b0b0;stroke-linecap:square;stroke-width:0.8;"/>
     </g>
     <g id="line2d_62">
      <g>
       <use style="stroke:#000000;stroke-width:0.8;" x="57.6" xlink:href="#md4cf4934eb" y="81.681984"/>
      </g>
     </g>
     <g id="text_32">
      <!-- 4.50 -->
      <g transform="translate(28.334375 85.481202)scale(0.1 -0.1)">
       <use xlink:href="#DejaVuSans-52"/>
       <use x="63.623047" xlink:href="#DejaVuSans-46"/>
       <use x="95.410156" xlink:href="#DejaVuSans-53"/>
       <use x="159.033203" xlink:href="#DejaVuSans-48"/>
      </g>
     </g>
    </g>
    <g id="ytick_19">
     <g id="line2d_63">
      <path clip-path="url(#p3398fc1d3e)" d="M 57.6 70.581306 
L 414.72 70.581306 
" style="fill:none;stroke:#b0b0b0;stroke-linecap:square;stroke-width:0.8;"/>
     </g>
     <g id="line2d_64">
      <g>
       <use style="stroke:#000000;stroke-width:0.8;" x="57.6" xlink:href="#md4cf4934eb" y="70.581306"/>
      </g>
     </g>
     <g id="text_33">
      <!-- 4.55 -->
      <g transform="translate(28.334375 74.380525)scale(0.1 -0.1)">
       <use xlink:href="#DejaVuSans-52"/>
       <use x="63.623047" xlink:href="#DejaVuSans-46"/>
       <use x="95.410156" xlink:href="#DejaVuSans-53"/>
       <use x="159.033203" xlink:href="#DejaVuSans-53"/>
      </g>
     </g>
    </g>
    <g id="ytick_20">
     <g id="line2d_65">
      <path clip-path="url(#p3398fc1d3e)" d="M 57.6 59.480629 
L 414.72 59.480629 
" style="fill:none;stroke:#b0b0b0;stroke-linecap:square;stroke-width:0.8;"/>
     </g>
     <g id="line2d_66">
      <g>
       <use style="stroke:#000000;stroke-width:0.8;" x="57.6" xlink:href="#md4cf4934eb" y="59.480629"/>
      </g>
     </g>
     <g id="text_34">
      <!-- 4.60 -->
      <g transform="translate(28.334375 63.279848)scale(0.1 -0.1)">
       <use xlink:href="#DejaVuSans-52"/>
       <use x="63.623047" xlink:href="#DejaVuSans-46"/>
       <use x="95.410156" xlink:href="#DejaVuSans-54"/>
       <use x="159.033203" xlink:href="#DejaVuSans-48"/>
      </g>
     </g>
    </g>
    <g id="ytick_21">
     <g id="line2d_67">
      <path clip-path="url(#p3398fc1d3e)" d="M 57.6 48.379952 
L 414.72 48.379952 
" style="fill:none;stroke:#b0b0b0;stroke-linecap:square;stroke-width:0.8;"/>
     </g>
     <g id="line2d_68">
      <g>
       <use style="stroke:#000000;stroke-width:0.8;" x="57.6" xlink:href="#md4cf4934eb" y="48.379952"/>
      </g>
     </g>
     <g id="text_35">
      <!-- 4.65 -->
      <g transform="translate(28.334375 52.17917)scale(0.1 -0.1)">
       <use xlink:href="#DejaVuSans-52"/>
       <use x="63.623047" xlink:href="#DejaVuSans-46"/>
       <use x="95.410156" xlink:href="#DejaVuSans-54"/>
       <use x="159.033203" xlink:href="#DejaVuSans-53"/>
      </g>
     </g>
    </g>
    <g id="text_36">
     <!-- Currency value [PLN] -->
     <g transform="translate(22.254687 211.779906)rotate(-90)scale(0.1 -0.1)">
      <defs>
       <path d="M 64.40625 67.28125 
L 64.40625 56.890625 
Q 59.421875 61.53125 53.78125 63.8125 
Q 48.140625 66.109375 41.796875 66.109375 
Q 29.296875 66.109375 22.65625 58.46875 
Q 16.015625 50.828125 16.015625 36.375 
Q 16.015625 21.96875 22.65625 14.328125 
Q 29.296875 6.6875 41.796875 6.6875 
Q 48.140625 6.6875 53.78125 8.984375 
Q 59.421875 11.28125 64.40625 15.921875 
L 64.40625 5.609375 
Q 59.234375 2.09375 53.4375 0.328125 
Q 47.65625 -1.421875 41.21875 -1.421875 
Q 24.65625 -1.421875 15.125 8.703125 
Q 5.609375 18.84375 5.609375 36.375 
Q 5.609375 53.953125 15.125 64.078125 
Q 24.65625 74.21875 41.21875 74.21875 
Q 47.75 74.21875 53.53125 72.484375 
Q 59.328125 70.75 64.40625 67.28125 
z
" id="DejaVuSans-67"/>
       <path d="M 8.5 21.578125 
L 8.5 54.6875 
L 17.484375 54.6875 
L 17.484375 21.921875 
Q 17.484375 14.15625 20.5 10.265625 
Q 23.53125 6.390625 29.59375 6.390625 
Q 36.859375 6.390625 41.078125 11.03125 
Q 45.3125 15.671875 45.3125 23.6875 
L 45.3125 54.6875 
L 54.296875 54.6875 
L 54.296875 0 
L 45.3125 0 
L 45.3125 8.40625 
Q 42.046875 3.421875 37.71875 1 
Q 33.40625 -1.421875 27.6875 -1.421875 
Q 18.265625 -1.421875 13.375 4.4375 
Q 8.5 10.296875 8.5 21.578125 
z
M 31.109375 56 
z
" id="DejaVuSans-117"/>
       <path d="M 41.109375 46.296875 
Q 39.59375 47.171875 37.8125 47.578125 
Q 36.03125 48 33.890625 48 
Q 26.265625 48 22.1875 43.046875 
Q 18.109375 38.09375 18.109375 28.8125 
L 18.109375 0 
L 9.078125 0 
L 9.078125 54.6875 
L 18.109375 54.6875 
L 18.109375 46.1875 
Q 20.953125 51.171875 25.484375 53.578125 
Q 30.03125 56 36.53125 56 
Q 37.453125 56 38.578125 55.875 
Q 39.703125 55.765625 41.0625 55.515625 
z
" id="DejaVuSans-114"/>
       <path d="M 54.890625 33.015625 
L 54.890625 0 
L 45.90625 0 
L 45.90625 32.71875 
Q 45.90625 40.484375 42.875 44.328125 
Q 39.84375 48.1875 33.796875 48.1875 
Q 26.515625 48.1875 22.3125 43.546875 
Q 18.109375 38.921875 18.109375 30.90625 
L 18.109375 0 
L 9.078125 0 
L 9.078125 54.6875 
L 18.109375 54.6875 
L 18.109375 46.1875 
Q 21.34375 51.125 25.703125 53.5625 
Q 30.078125 56 35.796875 56 
Q 45.21875 56 50.046875 50.171875 
Q 54.890625 44.34375 54.890625 33.015625 
z
" id="DejaVuSans-110"/>
       <path d="M 48.78125 52.59375 
L 48.78125 44.1875 
Q 44.96875 46.296875 41.140625 47.34375 
Q 37.3125 48.390625 33.40625 48.390625 
Q 24.65625 48.390625 19.8125 42.84375 
Q 14.984375 37.3125 14.984375 27.296875 
Q 14.984375 17.28125 19.8125 11.734375 
Q 24.65625 6.203125 33.40625 6.203125 
Q 37.3125 6.203125 41.140625 7.25 
Q 44.96875 8.296875 48.78125 10.40625 
L 48.78125 2.09375 
Q 45.015625 0.34375 40.984375 -0.53125 
Q 36.96875 -1.421875 32.421875 -1.421875 
Q 20.0625 -1.421875 12.78125 6.34375 
Q 5.515625 14.109375 5.515625 27.296875 
Q 5.515625 40.671875 12.859375 48.328125 
Q 20.21875 56 33.015625 56 
Q 37.15625 56 41.109375 55.140625 
Q 45.0625 54.296875 48.78125 52.59375 
z
" id="DejaVuSans-99"/>
       <path d="M 32.171875 -5.078125 
Q 28.375 -14.84375 24.75 -17.8125 
Q 21.140625 -20.796875 15.09375 -20.796875 
L 7.90625 -20.796875 
L 7.90625 -13.28125 
L 13.1875 -13.28125 
Q 16.890625 -13.28125 18.9375 -11.515625 
Q 21 -9.765625 23.484375 -3.21875 
L 25.09375 0.875 
L 2.984375 54.6875 
L 12.5 54.6875 
L 29.59375 11.921875 
L 46.6875 54.6875 
L 56.203125 54.6875 
z
" id="DejaVuSans-121"/>
       <path id="DejaVuSans-32"/>
       <path d="M 2.984375 54.6875 
L 12.5 54.6875 
L 29.59375 8.796875 
L 46.6875 54.6875 
L 56.203125 54.6875 
L 35.6875 0 
L 23.484375 0 
z
" id="DejaVuSans-118"/>
       <path d="M 9.421875 75.984375 
L 18.40625 75.984375 
L 18.40625 0 
L 9.421875 0 
z
" id="DejaVuSans-108"/>
       <path d="M 8.59375 75.984375 
L 29.296875 75.984375 
L 29.296875 69 
L 17.578125 69 
L 17.578125 -6.203125 
L 29.296875 -6.203125 
L 29.296875 -13.1875 
L 8.59375 -13.1875 
z
" id="DejaVuSans-91"/>
       <path d="M 19.671875 64.796875 
L 19.671875 37.40625 
L 32.078125 37.40625 
Q 38.96875 37.40625 42.71875 40.96875 
Q 46.484375 44.53125 46.484375 51.125 
Q 46.484375 57.671875 42.71875 61.234375 
Q 38.96875 64.796875 32.078125 64.796875 
z
M 9.8125 72.90625 
L 32.078125 72.90625 
Q 44.34375 72.90625 50.609375 67.359375 
Q 56.890625 61.8125 56.890625 51.125 
Q 56.890625 40.328125 50.609375 34.8125 
Q 44.34375 29.296875 32.078125 29.296875 
L 19.671875 29.296875 
L 19.671875 0 
L 9.8125 0 
z
" id="DejaVuSans-80"/>
       <path d="M 9.8125 72.90625 
L 19.671875 72.90625 
L 19.671875 8.296875 
L 55.171875 8.296875 
L 55.171875 0 
L 9.8125 0 
z
" id="DejaVuSans-76"/>
       <path d="M 9.8125 72.90625 
L 23.09375 72.90625 
L 55.421875 11.921875 
L 55.421875 72.90625 
L 64.984375 72.90625 
L 64.984375 0 
L 51.703125 0 
L 19.390625 60.984375 
L 19.390625 0 
L 9.8125 0 
z
" id="DejaVuSans-78"/>
       <path d="M 30.421875 75.984375 
L 30.421875 -13.1875 
L 9.71875 -13.1875 
L 9.71875 -6.203125 
L 21.390625 -6.203125 
L 21.390625 69 
L 9.71875 69 
L 9.71875 75.984375 
z
" id="DejaVuSans-93"/>
      </defs>
      <use xlink:href="#DejaVuSans-67"/>
      <use x="69.824219" xlink:href="#DejaVuSans-117"/>
      <use x="133.203125" xlink:href="#DejaVuSans-114"/>
      <use x="172.566406" xlink:href="#DejaVuSans-114"/>
      <use x="211.429688" xlink:href="#DejaVuSans-101"/>
      <use x="272.953125" xlink:href="#DejaVuSans-110"/>
      <use x="336.332031" xlink:href="#DejaVuSans-99"/>
      <use x="391.3125" xlink:href="#DejaVuSans-121"/>
      <use x="450.492188" xlink:href="#DejaVuSans-32"/>
      <use x="482.279297" xlink:href="#DejaVuSans-118"/>
      <use x="541.458984" xlink:href="#DejaVuSans-97"/>
      <use x="602.738281" xlink:href="#DejaVuSans-108"/>
      <use x="630.521484" xlink:href="#DejaVuSans-117"/>
      <use x="693.900391" xlink:href="#DejaVuSans-101"/>
      <use x="755.423828" xlink:href="#DejaVuSans-32"/>
      <use x="787.210938" xlink:href="#DejaVuSans-91"/>
      <use x="826.224609" xlink:href="#DejaVuSans-80"/>
      <use x="886.527344" xlink:href="#DejaVuSans-76"/>
      <use x="942.240234" xlink:href="#DejaVuSans-78"/>
      <use x="1017.044922" xlink:href="#DejaVuSans-93"/>
     </g>
    </g>
   </g>
   <g id="line2d_69">
    <path clip-path="url(#p3398fc1d3e)" d="M 73.832727 218.153711 
L 75.049777 214.090863 
L 75.945726 214.024259 
L 76.841675 211.471103 
L 77.737624 209.29537 
L 78.633572 208.496122 
L 80.42547 208.496122 
L 81.321419 213.846648 
L 82.217367 221.41731 
L 83.113316 222.72719 
L 84.009265 224.5255 
L 84.905214 225.990789 
L 86.697111 225.990789 
L 87.59306 221.461713 
L 88.489009 221.306303 
L 89.384957 222.438572 
L 90.280906 225.879782 
L 91.176855 231.89635 
L 92.968752 231.89635 
L 93.864701 230.186845 
L 94.76065 232.406981 
L 95.656598 230.386657 
L 96.552547 230.852886 
L 97.448496 230.186845 
L 99.240393 230.186845 
L 101.032291 226.279407 
L 102.824188 226.279407 
L 103.720137 231.185906 
L 105.512035 231.185906 
L 106.407983 236.49203 
L 107.303932 237.602098 
L 108.199881 237.602098 
L 109.09583 237.091467 
L 109.991778 232.362578 
L 112.679625 232.362578 
L 113.575573 240.177455 
L 114.471522 234.3607 
L 115.367471 231.518927 
L 116.263419 231.052698 
L 118.055317 231.052698 
L 118.951266 234.84913 
L 119.847214 236.669641 
L 121.639112 237.80191 
L 122.535061 235.914795 
L 124.326958 235.914795 
L 125.222907 230.941691 
L 126.118856 230.786282 
L 127.014804 232.606793 
L 127.910753 230.253449 
L 128.806702 226.545823 
L 130.598599 226.545823 
L 131.494548 220.995484 
L 132.390497 218.353523 
L 133.286446 217.754087 
L 134.182394 218.087107 
L 135.078343 214.912313 
L 136.870241 214.912313 
L 137.766189 217.909496 
L 138.662138 219.929819 
L 139.558087 222.571781 
L 140.454035 222.172156 
L 141.349984 216.066784 
L 143.141882 216.066784 
L 144.933779 213.979856 
L 145.829728 214.668098 
L 146.725677 212.581171 
L 147.621625 212.714379 
L 149.413523 212.714379 
L 150.309472 210.694056 
L 151.20542 204.943905 
L 152.101369 202.546159 
L 152.997318 201.103071 
L 155.685164 201.058668 
L 156.581113 197.750666 
L 157.477062 201.036466 
L 158.37301 202.168736 
L 160.164908 209.228766 
L 161.956805 209.228766 
L 164.644651 225.19154 
L 165.5406 226.457018 
L 166.436549 231.962954 
L 168.228446 231.962954 
L 169.124395 239.333803 
L 170.020344 235.803788 
L 170.916293 232.962015 
L 172.70819 213.402621 
L 174.500088 213.402621 
L 175.396036 209.761599 
L 176.291985 182.476134 
L 177.187934 176.059942 
L 178.083883 138.939277 
L 178.979831 139.405506 
L 180.771729 139.405506 
L 181.667678 133.766362 
L 182.563626 138.939277 
L 183.459575 143.40175 
L 184.355524 148.552464 
L 185.251472 167.66783 
L 187.04337 167.66783 
L 187.939319 171.974893 
L 188.835267 160.141571 
L 190.627165 150.12876 
L 191.523114 139.494311 
L 193.315011 139.494311 
L 194.21096 142.5803 
L 195.106909 154.569031 
L 196.002857 152.704117 
L 196.898806 153.969595 
L 197.794755 157.921436 
L 200.482601 157.921436 
L 201.37855 155.7013 
L 202.274499 158.964899 
L 203.170447 156.478348 
L 204.066396 150.817002 
L 205.858294 150.817002 
L 206.754242 158.831691 
L 207.650191 153.192547 
L 208.54614 154.147205 
L 209.442088 146.221322 
L 210.338037 145.133455 
L 212.129935 145.133455 
L 213.025883 155.03526 
L 213.921832 151.838264 
L 214.817781 152.570909 
L 215.71373 154.302615 
L 218.401576 154.302615 
L 219.297525 156.145327 
L 220.193473 149.906747 
L 221.089422 147.797618 
L 221.985371 144.689428 
L 222.88132 146.84296 
L 224.673217 146.84296 
L 225.569166 145.488677 
L 226.465115 146.176919 
L 227.361063 145.821697 
L 228.257012 142.313883 
L 229.152961 145.288865 
L 230.944858 145.288865 
L 231.840807 143.312944 
L 232.736756 156.167529 
L 233.632704 156.744764 
L 234.528653 162.805734 
L 235.424602 159.320121 
L 237.216499 159.320121 
L 238.112448 160.985223 
L 239.008397 173.040558 
L 239.904346 181.499274 
L 240.800294 187.271627 
L 241.696243 192.000515 
L 243.488141 192.000515 
L 245.280038 208.163101 
L 246.175987 212.203748 
L 247.071936 202.168736 
L 247.967884 210.072418 
L 249.759782 210.072418 
L 250.655731 210.516445 
L 251.551679 204.832898 
L 252.447628 210.893868 
L 253.343577 210.893868 
L 254.239526 208.251907 
L 256.031423 208.251907 
L 256.927372 205.720952 
L 257.82332 213.602433 
L 258.719269 203.078991 
L 259.615218 201.813514 
L 260.511167 198.438908 
L 262.303064 198.438908 
L 263.199013 200.081808 
L 264.094962 207.985491 
L 264.99091 206.120577 
L 265.886859 201.058668 
L 266.782808 199.415768 
L 268.574705 199.415768 
L 269.470654 200.326023 
L 270.366603 196.99582 
L 271.262552 201.769111 
L 272.1585 203.167797 
L 273.054449 197.928277 
L 274.846347 197.928277 
L 275.742295 201.835715 
L 276.638244 199.593378 
L 277.534193 200.10401 
L 278.430142 204.100253 
L 279.32609 200.548037 
L 281.117988 200.548037 
L 282.013936 202.368548 
L 282.909885 202.23534 
L 283.805834 212.292553 
L 284.701783 205.52114 
L 285.597731 209.051156 
L 287.389629 209.051156 
L 288.285578 214.956716 
L 289.181526 219.063967 
L 290.077475 225.235943 
L 290.973424 235.759385 
L 291.869373 236.447627 
L 293.66127 236.447627 
L 294.557219 245.01735 
L 295.453168 247.481701 
L 296.349116 245.749995 
L 297.245065 247.104278 
L 298.141014 255.607396 
L 299.932911 255.607396 
L 300.82886 248.214345 
L 301.724809 251.211528 
L 302.620757 256.118028 
L 303.516706 253.964496 
L 304.412655 252.588012 
L 306.204552 252.588012 
L 307.100501 250.567689 
L 307.99645 250.634293 
L 308.892399 246.904465 
L 309.788347 255.385383 
L 310.684296 254.253114 
L 312.476194 254.253114 
L 313.372142 257.605518 
L 315.16404 265.242784 
L 316.059989 255.651799 
L 318.747835 255.651799 
L 319.643784 253.231851 
L 320.539732 256.095826 
L 321.435681 253.320657 
L 322.33163 252.943234 
L 323.227579 259.670244 
L 325.019476 259.670244 
L 325.915425 260.980124 
L 326.811373 265.797818 
L 327.707322 255.052363 
L 328.603271 251.810965 
L 329.49922 247.459499 
L 331.291117 247.459499 
L 332.187066 244.506719 
L 333.083015 244.817538 
L 333.978963 239.955441 
L 334.874912 245.749995 
L 335.770861 247.437298 
L 337.562758 247.437298 
L 338.458707 247.703714 
L 339.354656 249.413218 
L 340.250605 247.614909 
L 341.146553 243.463255 
L 342.042502 246.305029 
L 343.8344 246.305029 
L 345.626297 229.12118 
L 346.522246 228.233126 
L 347.418195 218.597738 
L 348.314143 214.53489 
L 350.106041 214.53489 
L 351.001989 213.047399 
L 351.897938 209.828203 
L 352.793887 222.482975 
L 354.585784 228.965771 
L 356.377682 228.965771 
L 357.273631 231.496725 
L 358.169579 233.095223 
L 359.065528 234.294096 
L 359.961477 233.206229 
L 360.857426 239.022984 
L 362.649323 239.022984 
L 363.545272 238.712165 
L 364.441221 238.601159 
L 365.337169 230.408859 
L 366.233118 217.021442 
L 367.129067 215.422944 
L 368.920964 215.422944 
L 369.816913 220.196236 
L 370.712862 216.533012 
L 371.608811 221.41731 
L 372.504759 220.795672 
L 373.400708 222.327566 
L 375.192605 222.327566 
L 376.984503 217.998301 
L 377.880452 207.941088 
L 378.7764 203.678428 
L 379.672349 202.390749 
L 381.464247 202.390749 
L 382.360195 202.523957 
L 383.256144 213.358218 
L 384.152093 214.978917 
L 385.048042 229.254388 
L 385.94399 232.784404 
L 387.735888 232.784404 
L 388.631837 241.820355 
L 389.527785 233.361639 
L 390.423734 233.361639 
L 391.319683 237.202473 
L 392.215632 236.758446 
L 394.007529 236.758446 
L 394.903478 241.931362 
L 395.799427 239.822233 
L 396.695375 245.50578 
L 397.591324 239.93324 
L 398.487273 244.262504 
L 398.487273 244.262504 
" style="fill:none;stroke:#1f77b4;stroke-linecap:square;stroke-width:1.5;"/>
   </g>
   <g id="line2d_70">
    <path clip-path="url(#p3398fc1d3e)" d="M 73.832729 126.639727 
L 75.945726 126.106894 
L 76.841675 123.709148 
L 77.737624 120.978381 
L 78.633572 120.845173 
L 80.42547 120.845173 
L 81.321419 125.907082 
L 83.113316 130.702575 
L 84.009265 131.035595 
L 84.905214 132.278871 
L 86.697111 132.278871 
L 87.59306 129.858923 
L 88.489009 128.748856 
L 89.384957 129.392695 
L 90.280906 129.503702 
L 91.176855 131.701636 
L 92.968752 131.701636 
L 93.864701 133.655355 
L 94.76065 134.854228 
L 95.656598 133.988375 
L 96.552547 134.254792 
L 97.448496 134.876429 
L 99.240393 134.876429 
L 100.136342 135.986497 
L 101.032291 134.432402 
L 105.512035 134.432402 
L 106.407983 135.231651 
L 108.199881 135.298255 
L 109.09583 135.609074 
L 111.783676 135.653477 
L 112.679625 135.653477 
L 113.575573 140.582178 
L 114.471522 137.962418 
L 115.367471 138.095626 
L 116.263419 137.918015 
L 118.055317 137.918015 
L 118.951266 140.448969 
L 119.847214 141.11501 
L 120.743163 142.09187 
L 121.639112 140.559976 
L 123.431009 140.648782 
L 124.326958 140.648782 
L 125.222907 138.362042 
L 126.118856 138.095626 
L 127.014804 140.071546 
L 127.910753 138.00682 
L 130.598599 138.051223 
L 131.494548 133.211328 
L 132.390497 130.658172 
L 133.286446 131.27981 
L 134.182394 130.236346 
L 135.078343 125.862679 
L 136.870241 125.862679 
L 137.766189 125.329847 
L 138.662138 129.037473 
L 139.558087 134.521208 
L 140.454035 136.408323 
L 141.349984 133.544348 
L 143.141882 133.544348 
L 144.03783 132.767301 
L 144.933779 134.765423 
L 145.829728 134.987436 
L 146.725677 135.919893 
L 147.621625 139.361103 
L 149.413523 139.361103 
L 150.309472 137.140968 
L 151.20542 132.43428 
L 152.101369 132.034656 
L 152.997318 130.769179 
L 153.893267 129.836722 
L 155.685164 129.836722 
L 156.581113 125.70727 
L 157.477062 126.173498 
L 158.37301 124.019967 
L 159.268959 123.864558 
L 160.164908 118.203212 
L 161.956805 118.203212 
L 162.852754 120.822972 
L 163.748703 122.243859 
L 164.644651 126.240102 
L 165.5406 126.217901 
L 166.436549 122.132852 
L 169.124395 122.177255 
L 170.020344 121.644422 
L 170.916293 122.377067 
L 171.812241 116.071882 
L 172.70819 112.364256 
L 174.500088 112.364256 
L 175.396036 105.859259 
L 176.291985 84.212938 
L 177.187934 85.989046 
L 178.083883 61.323341 
L 178.979831 71.491562 
L 180.771729 71.491562 
L 181.667678 69.00501 
L 182.563626 58.503769 
L 183.459575 64.387128 
L 184.355524 60.32428 
L 185.251472 76.22045 
L 187.04337 76.22045 
L 187.939319 72.912448 
L 188.835267 70.070675 
L 189.731216 66.274243 
L 190.627165 64.609142 
L 191.523114 64.098511 
L 193.315011 64.098511 
L 194.21096 68.094754 
L 195.106909 74.08912 
L 196.002857 73.645093 
L 196.898806 73.467482 
L 197.794755 70.936528 
L 200.482601 70.936528 
L 201.37855 70.31489 
L 202.274499 73.045657 
L 203.170447 74.444342 
L 204.066396 73.534086 
L 205.858294 73.534086 
L 206.754242 77.796747 
L 207.650191 75.55441 
L 208.54614 74.377738 
L 209.442088 71.824582 
L 210.338037 74.355537 
L 212.129935 74.355537 
L 213.025883 76.353658 
L 213.921832 72.823643 
L 214.817781 72.090998 
L 215.71373 72.268609 
L 218.401576 72.268609 
L 219.297525 68.760795 
L 220.193473 71.114139 
L 221.089422 73.023455 
L 221.985371 70.470299 
L 222.88132 68.871802 
L 225.569166 68.982809 
L 226.465115 69.49344 
L 227.361063 67.006888 
L 228.257012 66.296445 
L 229.152961 69.426836 
L 230.944858 69.426836 
L 231.840807 67.384311 
L 232.736756 68.139157 
L 233.632704 69.693252 
L 234.528653 73.578489 
L 235.424602 76.486867 
L 237.216499 76.486867 
L 238.112448 79.217633 
L 239.008397 86.122255 
L 239.904346 95.491226 
L 240.800294 98.022181 
L 241.696243 92.716057 
L 243.488141 92.716057 
L 245.280038 106.059071 
L 246.175987 107.013729 
L 247.071936 96.179468 
L 247.967884 94.048138 
L 249.759782 94.048138 
L 250.655731 97.422744 
L 251.551679 94.203548 
L 252.447628 91.805801 
L 253.343577 91.805801 
L 254.239526 92.649453 
L 256.031423 92.649453 
L 256.927372 94.936192 
L 257.82332 97.711362 
L 258.719269 92.716057 
L 259.615218 92.027815 
L 260.511167 91.161962 
L 262.303064 91.161962 
L 263.199013 92.249828 
L 264.094962 95.313615 
L 264.99091 92.072218 
L 265.886859 92.893668 
L 266.782808 90.207304 
L 268.574705 90.207304 
L 269.470654 89.874283 
L 270.366603 89.230444 
L 271.262552 93.559708 
L 272.1585 89.252646 
L 273.054449 88.986229 
L 274.846347 88.986229 
L 275.742295 88.408994 
L 276.638244 88.120376 
L 277.534193 87.476537 
L 278.430142 87.498739 
L 279.32609 87.343329 
L 282.013936 87.343329 
L 282.909885 83.546897 
L 283.805834 87.498739 
L 284.701783 83.613501 
L 285.597731 85.522818 
L 287.389629 85.522818 
L 288.285578 88.719813 
L 289.181526 94.625373 
L 290.077475 94.980595 
L 290.973424 101.485592 
L 291.869373 101.28578 
L 293.66127 101.28578 
L 294.557219 103.372707 
L 295.453168 104.171956 
L 296.349116 99.576275 
L 297.245065 101.885216 
L 298.141014 102.284841 
L 299.932911 102.284841 
L 300.82886 100.153511 
L 301.724809 102.551257 
L 302.620757 104.349567 
L 303.516706 101.641001 
L 304.412655 100.79735 
L 306.204552 100.79735 
L 307.100501 103.372707 
L 307.99645 103.528117 
L 308.892399 101.152572 
L 309.788347 103.639123 
L 310.684296 104.149755 
L 312.476194 104.149755 
L 313.372142 106.281085 
L 314.268091 104.926802 
L 315.16404 106.902723 
L 316.059989 104.08315 
L 316.955937 106.059071 
L 318.747835 106.059071 
L 319.643784 102.462452 
L 320.539732 105.770453 
L 321.435681 103.172895 
L 322.33163 101.13037 
L 323.227579 102.92868 
L 325.019476 102.92868 
L 325.915425 104.57158 
L 326.811373 105.082211 
L 327.707322 101.729807 
L 328.603271 99.864893 
L 329.49922 92.60505 
L 331.291117 92.60505 
L 332.187066 91.228566 
L 333.083015 93.648514 
L 333.978963 91.672593 
L 334.874912 92.693856 
L 337.562758 92.693856 
L 338.458707 93.004674 
L 339.354656 92.960272 
L 340.250605 92.161023 
L 341.146553 92.471842 
L 342.042502 91.139761 
L 343.8344 91.139761 
L 344.730348 86.122255 
L 345.626297 80.460909 
L 346.522246 82.880857 
L 347.418195 75.643215 
L 348.314143 71.091937 
L 350.106041 71.091937 
L 351.001989 70.64791 
L 351.897938 63.166054 
L 352.793887 75.732021 
L 353.689836 78.285176 
L 354.585784 83.014065 
L 357.273631 82.925259 
L 358.169579 82.547836 
L 359.065528 85.411811 
L 359.961477 83.902119 
L 360.857426 87.343329 
L 362.649323 87.343329 
L 363.545272 86.166657 
L 364.441221 87.52094 
L 365.337169 82.503434 
L 366.233118 69.582245 
L 367.129067 67.894942 
L 368.920964 67.894942 
L 369.816913 70.625709 
L 370.712862 62.477812 
L 372.504759 62.211396 
L 373.400708 64.542538 
L 376.088554 64.498135 
L 376.984503 61.922778 
L 377.880452 55.284573 
L 378.7764 52.154182 
L 379.672349 55.306774 
L 381.464247 55.306774 
L 382.360195 58.414964 
L 383.256144 66.163237 
L 384.152093 69.870863 
L 385.048042 76.509068 
L 385.94399 75.532208 
L 387.735888 75.532208 
L 388.631837 84.56816 
L 389.527785 80.283298 
L 390.423734 80.283298 
L 391.319683 84.612562 
L 392.215632 82.570038 
L 394.007529 82.570038 
L 394.903478 87.165718 
L 395.799427 82.725447 
L 396.695375 87.698551 
L 397.591324 86.144456 
L 398.487273 88.808618 
L 398.487273 88.808618 
" style="fill:none;stroke:#ff7f0e;stroke-linecap:square;stroke-width:1.5;"/>
   </g>
   <g id="patch_3">
    <path d="M 57.6 276.48 
L 57.6 41.472 
" style="fill:none;stroke:#000000;stroke-linecap:square;stroke-linejoin:miter;stroke-width:0.8;"/>
   </g>
   <g id="patch_4">
    <path d="M 414.72 276.48 
L 414.72 41.472 
" style="fill:none;stroke:#000000;stroke-linecap:square;stroke-linejoin:miter;stroke-width:0.8;"/>
   </g>
   <g id="patch_5">
    <path d="M 57.6 276.48 
L 414.72 276.48 
" style="fill:none;stroke:#000000;stroke-linecap:square;stroke-linejoin:miter;stroke-width:0.8;"/>
   </g>
   <g id="patch_6">
    <path d="M 57.6 41.472 
L 414.72 41.472 
" style="fill:none;stroke:#000000;stroke-linecap:square;stroke-linejoin:miter;stroke-width:0.8;"/>
   </g>
   <g id="text_37">
    <!-- USD and EUR exchange rate -->
    <g transform="translate(150.769688 35.472)scale(0.12 -0.12)">
     <defs>
      <path d="M 8.6875 72.90625 
L 18.609375 72.90625 
L 18.609375 28.609375 
Q 18.609375 16.890625 22.84375 11.734375 
Q 27.09375 6.59375 36.625 6.59375 
Q 46.09375 6.59375 50.34375 11.734375 
Q 54.59375 16.890625 54.59375 28.609375 
L 54.59375 72.90625 
L 64.5 72.90625 
L 64.5 27.390625 
Q 64.5 13.140625 57.4375 5.859375 
Q 50.390625 -1.421875 36.625 -1.421875 
Q 22.796875 -1.421875 15.734375 5.859375 
Q 8.6875 13.140625 8.6875 27.390625 
z
" id="DejaVuSans-85"/>
      <path d="M 53.515625 70.515625 
L 53.515625 60.890625 
Q 47.90625 63.578125 42.921875 64.890625 
Q 37.9375 66.21875 33.296875 66.21875 
Q 25.25 66.21875 20.875 63.09375 
Q 16.5 59.96875 16.5 54.203125 
Q 16.5 49.359375 19.40625 46.890625 
Q 22.3125 44.4375 30.421875 42.921875 
L 36.375 41.703125 
Q 47.40625 39.59375 52.65625 34.296875 
Q 57.90625 29 57.90625 20.125 
Q 57.90625 9.515625 50.796875 4.046875 
Q 43.703125 -1.421875 29.984375 -1.421875 
Q 24.8125 -1.421875 18.96875 -0.25 
Q 13.140625 0.921875 6.890625 3.21875 
L 6.890625 13.375 
Q 12.890625 10.015625 18.65625 8.296875 
Q 24.421875 6.59375 29.984375 6.59375 
Q 38.421875 6.59375 43.015625 9.90625 
Q 47.609375 13.234375 47.609375 19.390625 
Q 47.609375 24.75 44.3125 27.78125 
Q 41.015625 30.8125 33.5 32.328125 
L 27.484375 33.5 
Q 16.453125 35.6875 11.515625 40.375 
Q 6.59375 45.0625 6.59375 53.421875 
Q 6.59375 63.09375 13.40625 68.65625 
Q 20.21875 74.21875 32.171875 74.21875 
Q 37.3125 74.21875 42.625 73.28125 
Q 47.953125 72.359375 53.515625 70.515625 
z
" id="DejaVuSans-83"/>
      <path d="M 45.40625 46.390625 
L 45.40625 75.984375 
L 54.390625 75.984375 
L 54.390625 0 
L 45.40625 0 
L 45.40625 8.203125 
Q 42.578125 3.328125 38.25 0.953125 
Q 33.9375 -1.421875 27.875 -1.421875 
Q 17.96875 -1.421875 11.734375 6.484375 
Q 5.515625 14.40625 5.515625 27.296875 
Q 5.515625 40.1875 11.734375 48.09375 
Q 17.96875 56 27.875 56 
Q 33.9375 56 38.25 53.625 
Q 42.578125 51.265625 45.40625 46.390625 
z
M 14.796875 27.296875 
Q 14.796875 17.390625 18.875 11.75 
Q 22.953125 6.109375 30.078125 6.109375 
Q 37.203125 6.109375 41.296875 11.75 
Q 45.40625 17.390625 45.40625 27.296875 
Q 45.40625 37.203125 41.296875 42.84375 
Q 37.203125 48.484375 30.078125 48.484375 
Q 22.953125 48.484375 18.875 42.84375 
Q 14.796875 37.203125 14.796875 27.296875 
z
" id="DejaVuSans-100"/>
      <path d="M 9.8125 72.90625 
L 55.90625 72.90625 
L 55.90625 64.59375 
L 19.671875 64.59375 
L 19.671875 43.015625 
L 54.390625 43.015625 
L 54.390625 34.71875 
L 19.671875 34.71875 
L 19.671875 8.296875 
L 56.78125 8.296875 
L 56.78125 0 
L 9.8125 0 
z
" id="DejaVuSans-69"/>
      <path d="M 44.390625 34.1875 
Q 47.5625 33.109375 50.5625 29.59375 
Q 53.5625 26.078125 56.59375 19.921875 
L 66.609375 0 
L 56 0 
L 46.6875 18.703125 
Q 43.0625 26.03125 39.671875 28.421875 
Q 36.28125 30.8125 30.421875 30.8125 
L 19.671875 30.8125 
L 19.671875 0 
L 9.8125 0 
L 9.8125 72.90625 
L 32.078125 72.90625 
Q 44.578125 72.90625 50.734375 67.671875 
Q 56.890625 62.453125 56.890625 51.90625 
Q 56.890625 45.015625 53.6875 40.46875 
Q 50.484375 35.9375 44.390625 34.1875 
z
M 19.671875 64.796875 
L 19.671875 38.921875 
L 32.078125 38.921875 
Q 39.203125 38.921875 42.84375 42.21875 
Q 46.484375 45.515625 46.484375 51.90625 
Q 46.484375 58.296875 42.84375 61.546875 
Q 39.203125 64.796875 32.078125 64.796875 
z
" id="DejaVuSans-82"/>
      <path d="M 54.890625 54.6875 
L 35.109375 28.078125 
L 55.90625 0 
L 45.3125 0 
L 29.390625 21.484375 
L 13.484375 0 
L 2.875 0 
L 24.125 28.609375 
L 4.6875 54.6875 
L 15.28125 54.6875 
L 29.78125 35.203125 
L 44.28125 54.6875 
z
" id="DejaVuSans-120"/>
      <path d="M 54.890625 33.015625 
L 54.890625 0 
L 45.90625 0 
L 45.90625 32.71875 
Q 45.90625 40.484375 42.875 44.328125 
Q 39.84375 48.1875 33.796875 48.1875 
Q 26.515625 48.1875 22.3125 43.546875 
Q 18.109375 38.921875 18.109375 30.90625 
L 18.109375 0 
L 9.078125 0 
L 9.078125 75.984375 
L 18.109375 75.984375 
L 18.109375 46.1875 
Q 21.34375 51.125 25.703125 53.5625 
Q 30.078125 56 35.796875 56 
Q 45.21875 56 50.046875 50.171875 
Q 54.890625 44.34375 54.890625 33.015625 
z
" id="DejaVuSans-104"/>
      <path d="M 45.40625 27.984375 
Q 45.40625 37.75 41.375 43.109375 
Q 37.359375 48.484375 30.078125 48.484375 
Q 22.859375 48.484375 18.828125 43.109375 
Q 14.796875 37.75 14.796875 27.984375 
Q 14.796875 18.265625 18.828125 12.890625 
Q 22.859375 7.515625 30.078125 7.515625 
Q 37.359375 7.515625 41.375 12.890625 
Q 45.40625 18.265625 45.40625 27.984375 
z
M 54.390625 6.78125 
Q 54.390625 -7.171875 48.1875 -13.984375 
Q 42 -20.796875 29.203125 -20.796875 
Q 24.46875 -20.796875 20.265625 -20.09375 
Q 16.0625 -19.390625 12.109375 -17.921875 
L 12.109375 -9.1875 
Q 16.0625 -11.328125 19.921875 -12.34375 
Q 23.78125 -13.375 27.78125 -13.375 
Q 36.625 -13.375 41.015625 -8.765625 
Q 45.40625 -4.15625 45.40625 5.171875 
L 45.40625 9.625 
Q 42.625 4.78125 38.28125 2.390625 
Q 33.9375 0 27.875 0 
Q 17.828125 0 11.671875 7.65625 
Q 5.515625 15.328125 5.515625 27.984375 
Q 5.515625 40.671875 11.671875 48.328125 
Q 17.828125 56 27.875 56 
Q 33.9375 56 38.28125 53.609375 
Q 42.625 51.21875 45.40625 46.390625 
L 45.40625 54.6875 
L 54.390625 54.6875 
z
" id="DejaVuSans-103"/>
     </defs>
     <use xlink:href="#DejaVuSans-85"/>
     <use x="73.193359" xlink:href="#DejaVuSans-83"/>
     <use x="136.669922" xlink:href="#DejaVuSans-68"/>
     <use x="213.671875" xlink:href="#DejaVuSans-32"/>
     <use x="245.458984" xlink:href="#DejaVuSans-97"/>
     <use x="306.738281" xlink:href="#DejaVuSans-110"/>
     <use x="370.117188" xlink:href="#DejaVuSans-100"/>
     <use x="433.59375" xlink:href="#DejaVuSans-32"/>
     <use x="465.380859" xlink:href="#DejaVuSans-69"/>
     <use x="528.564453" xlink:href="#DejaVuSans-85"/>
     <use x="601.757812" xlink:href="#DejaVuSans-82"/>
     <use x="671.240234" xlink:href="#DejaVuSans-32"/>
     <use x="703.027344" xlink:href="#DejaVuSans-101"/>
     <use x="762.800781" xlink:href="#DejaVuSans-120"/>
     <use x="820.230469" xlink:href="#DejaVuSans-99"/>
     <use x="875.210938" xlink:href="#DejaVuSans-104"/>
     <use x="938.589844" xlink:href="#DejaVuSans-97"/>
     <use x="999.869141" xlink:href="#DejaVuSans-110"/>
     <use x="1063.248047" xlink:href="#DejaVuSans-103"/>
     <use x="1126.724609" xlink:href="#DejaVuSans-101"/>
     <use x="1188.248047" xlink:href="#DejaVuSans-32"/>
     <use x="1220.035156" xlink:href="#DejaVuSans-114"/>
     <use x="1261.148438" xlink:href="#DejaVuSans-97"/>
     <use x="1322.427734" xlink:href="#DejaVuSans-116"/>
     <use x="1361.636719" xlink:href="#DejaVuSans-101"/>
    </g>
   </g>
   <g id="legend_1">
    <g id="patch_7">
     <path d="M 64.6 78.82825 
L 117.967187 78.82825 
Q 119.967187 78.82825 119.967187 76.82825 
L 119.967187 48.472 
Q 119.967187 46.472 117.967187 46.472 
L 64.6 46.472 
Q 62.6 46.472 62.6 48.472 
L 62.6 76.82825 
Q 62.6 78.82825 64.6 78.82825 
z
" style="fill:#ffffff;opacity:0.8;stroke:#cccccc;stroke-linejoin:miter;"/>
    </g>
    <g id="line2d_71">
     <path d="M 66.6 54.570437 
L 86.6 54.570437 
" style="fill:none;stroke:#1f77b4;stroke-linecap:square;stroke-width:1.5;"/>
    </g>
    <g id="line2d_72"/>
    <g id="text_38">
     <!-- USD -->
     <g transform="translate(94.6 58.070437)scale(0.1 -0.1)">
      <use xlink:href="#DejaVuSans-85"/>
      <use x="73.193359" xlink:href="#DejaVuSans-83"/>
      <use x="136.669922" xlink:href="#DejaVuSans-68"/>
     </g>
    </g>
    <g id="line2d_73">
     <path d="M 66.6 69.248562 
L 86.6 69.248562 
" style="fill:none;stroke:#ff7f0e;stroke-linecap:square;stroke-width:1.5;"/>
    </g>
    <g id="line2d_74"/>
    <g id="text_39">
     <!-- EUR -->
     <g transform="translate(94.6 72.748562)scale(0.1 -0.1)">
      <use xlink:href="#DejaVuSans-69"/>
      <use x="63.183594" xlink:href="#DejaVuSans-85"/>
      <use x="136.376953" xlink:href="#DejaVuSans-82"/>
     </g>
    </g>
   </g>
  </g>
 </g>
 <defs>
  <clipPath id="p3398fc1d3e">
   <rect height="235.008" width="357.12" x="57.6" y="41.472"/>
  </clipPath>
 </defs>
</svg>
