<?xml version="1.0" encoding="utf-8" standalone="no"?>
<!DOCTYPE svg PUBLIC "-//W3C//DTD SVG 1.1//EN"
  "http://www.w3.org/Graphics/SVG/1.1/DTD/svg11.dtd">
<!-- Created with matplotlib (https://matplotlib.org/) -->
<svg height="345.6pt" version="1.1" viewBox="0 0 460.8 345.6" width="460.8pt" xmlns="http://www.w3.org/2000/svg" xmlns:xlink="http://www.w3.org/1999/xlink">
 <defs>
  <style type="text/css">
*{stroke-linecap:butt;stroke-linejoin:round;}
  </style>
 </defs>
 <g id="figure_1">
  <g id="patch_1">
   <path d="M 0 345.6 
L 460.8 345.6 
L 460.8 0 
L 0 0 
z
" style="fill:#ffffff;"/>
  </g>
  <g id="axes_1">
   <g id="patch_2">
    <path d="M 57.6 307.584 
L 414.72 307.584 
L 414.72 41.472 
L 57.6 41.472 
z
" style="fill:#ffffff;"/>
   </g>
   <g id="matplotlib.axis_1">
    <g id="xtick_1">
     <g id="line2d_1">
      <defs>
       <path d="M 0 0 
L 0 3.5 
" id="m8d5801fed7" style="stroke:#000000;stroke-width:0.8;"/>
      </defs>
      <g>
       <use style="stroke:#000000;stroke-width:0.8;" x="73.832727" xlink:href="#m8d5801fed7" y="307.584"/>
      </g>
     </g>
     <g id="text_1">
      <!-- 2009-01-01 -->
      <defs>
       <path d="M 19.1875 8.296875 
L 53.609375 8.296875 
L 53.609375 0 
L 7.328125 0 
L 7.328125 8.296875 
Q 12.9375 14.109375 22.625 23.890625 
Q 32.328125 33.6875 34.8125 36.53125 
Q 39.546875 41.84375 41.421875 45.53125 
Q 43.3125 49.21875 43.3125 52.78125 
Q 43.3125 58.59375 39.234375 62.25 
Q 35.15625 65.921875 28.609375 65.921875 
Q 23.96875 65.921875 18.8125 64.3125 
Q 13.671875 62.703125 7.8125 59.421875 
L 7.8125 69.390625 
Q 13.765625 71.78125 18.9375 73 
Q 24.125 74.21875 28.421875 74.21875 
Q 39.75 74.21875 46.484375 68.546875 
Q 53.21875 62.890625 53.21875 53.421875 
Q 53.21875 48.921875 51.53125 44.890625 
Q 49.859375 40.875 45.40625 35.40625 
Q 44.1875 33.984375 37.640625 27.21875 
Q 31.109375 20.453125 19.1875 8.296875 
z
" id="DejaVuSans-50"/>
       <path d="M 31.78125 66.40625 
Q 24.171875 66.40625 20.328125 58.90625 
Q 16.5 51.421875 16.5 36.375 
Q 16.5 21.390625 20.328125 13.890625 
Q 24.171875 6.390625 31.78125 6.390625 
Q 39.453125 6.390625 43.28125 13.890625 
Q 47.125 21.390625 47.125 36.375 
Q 47.125 51.421875 43.28125 58.90625 
Q 39.453125 66.40625 31.78125 66.40625 
z
M 31.78125 74.21875 
Q 44.046875 74.21875 50.515625 64.515625 
Q 56.984375 54.828125 56.984375 36.375 
Q 56.984375 17.96875 50.515625 8.265625 
Q 44.046875 -1.421875 31.78125 -1.421875 
Q 19.53125 -1.421875 13.0625 8.265625 
Q 6.59375 17.96875 6.59375 36.375 
Q 6.59375 54.828125 13.0625 64.515625 
Q 19.53125 74.21875 31.78125 74.21875 
z
" id="DejaVuSans-48"/>
       <path d="M 10.984375 1.515625 
L 10.984375 10.5 
Q 14.703125 8.734375 18.5 7.8125 
Q 22.3125 6.890625 25.984375 6.890625 
Q 35.75 6.890625 40.890625 13.453125 
Q 46.046875 20.015625 46.78125 33.40625 
Q 43.953125 29.203125 39.59375 26.953125 
Q 35.25 24.703125 29.984375 24.703125 
Q 19.046875 24.703125 12.671875 31.3125 
Q 6.296875 37.9375 6.296875 49.421875 
Q 6.296875 60.640625 12.9375 67.421875 
Q 19.578125 74.21875 30.609375 74.21875 
Q 43.265625 74.21875 49.921875 64.515625 
Q 56.59375 54.828125 56.59375 36.375 
Q 56.59375 19.140625 48.40625 8.859375 
Q 40.234375 -1.421875 26.421875 -1.421875 
Q 22.703125 -1.421875 18.890625 -0.6875 
Q 15.09375 0.046875 10.984375 1.515625 
z
M 30.609375 32.421875 
Q 37.25 32.421875 41.125 36.953125 
Q 45.015625 41.5 45.015625 49.421875 
Q 45.015625 57.28125 41.125 61.84375 
Q 37.25 66.40625 30.609375 66.40625 
Q 23.96875 66.40625 20.09375 61.84375 
Q 16.21875 57.28125 16.21875 49.421875 
Q 16.21875 41.5 20.09375 36.953125 
Q 23.96875 32.421875 30.609375 32.421875 
z
" id="DejaVuSans-57"/>
       <path d="M 4.890625 31.390625 
L 31.203125 31.390625 
L 31.203125 23.390625 
L 4.890625 23.390625 
z
" id="DejaVuSans-45"/>
       <path d="M 12.40625 8.296875 
L 28.515625 8.296875 
L 28.515625 63.921875 
L 10.984375 60.40625 
L 10.984375 69.390625 
L 28.421875 72.90625 
L 38.28125 72.90625 
L 38.28125 8.296875 
L 54.390625 8.296875 
L 54.390625 0 
L 12.40625 0 
z
" id="DejaVuSans-49"/>
      </defs>
      <g transform="translate(56.39804 319.143062)scale(0.06 -0.06)">
       <use xlink:href="#DejaVuSans-50"/>
       <use x="63.623047" xlink:href="#DejaVuSans-48"/>
       <use x="127.246094" xlink:href="#DejaVuSans-48"/>
       <use x="190.869141" xlink:href="#DejaVuSans-57"/>
       <use x="254.492188" xlink:href="#DejaVuSans-45"/>
       <use x="290.576172" xlink:href="#DejaVuSans-48"/>
       <use x="354.199219" xlink:href="#DejaVuSans-49"/>
       <use x="417.822266" xlink:href="#DejaVuSans-45"/>
       <use x="453.90625" xlink:href="#DejaVuSans-48"/>
       <use x="517.529297" xlink:href="#DejaVuSans-49"/>
      </g>
     </g>
    </g>
    <g id="xtick_2">
     <g id="line2d_2">
      <g>
       <use style="stroke:#000000;stroke-width:0.8;" x="119.655528" xlink:href="#m8d5801fed7" y="307.584"/>
      </g>
     </g>
     <g id="text_2">
      <!-- 2009-07-25 -->
      <defs>
       <path d="M 8.203125 72.90625 
L 55.078125 72.90625 
L 55.078125 68.703125 
L 28.609375 0 
L 18.3125 0 
L 43.21875 64.59375 
L 8.203125 64.59375 
z
" id="DejaVuSans-55"/>
       <path d="M 10.796875 72.90625 
L 49.515625 72.90625 
L 49.515625 64.59375 
L 19.828125 64.59375 
L 19.828125 46.734375 
Q 21.96875 47.46875 24.109375 47.828125 
Q 26.265625 48.1875 28.421875 48.1875 
Q 40.625 48.1875 47.75 41.5 
Q 54.890625 34.8125 54.890625 23.390625 
Q 54.890625 11.625 47.5625 5.09375 
Q 40.234375 -1.421875 26.90625 -1.421875 
Q 22.3125 -1.421875 17.546875 -0.640625 
Q 12.796875 0.140625 7.71875 1.703125 
L 7.71875 11.625 
Q 12.109375 9.234375 16.796875 8.0625 
Q 21.484375 6.890625 26.703125 6.890625 
Q 35.15625 6.890625 40.078125 11.328125 
Q 45.015625 15.765625 45.015625 23.390625 
Q 45.015625 31 40.078125 35.4375 
Q 35.15625 39.890625 26.703125 39.890625 
Q 22.75 39.890625 18.8125 39.015625 
Q 14.890625 38.140625 10.796875 36.28125 
z
" id="DejaVuSans-53"/>
      </defs>
      <g transform="translate(102.220841 319.143062)scale(0.06 -0.06)">
       <use xlink:href="#DejaVuSans-50"/>
       <use x="63.623047" xlink:href="#DejaVuSans-48"/>
       <use x="127.246094" xlink:href="#DejaVuSans-48"/>
       <use x="190.869141" xlink:href="#DejaVuSans-57"/>
       <use x="254.492188" xlink:href="#DejaVuSans-45"/>
       <use x="290.576172" xlink:href="#DejaVuSans-48"/>
       <use x="354.199219" xlink:href="#DejaVuSans-55"/>
       <use x="417.822266" xlink:href="#DejaVuSans-45"/>
       <use x="453.90625" xlink:href="#DejaVuSans-50"/>
       <use x="517.529297" xlink:href="#DejaVuSans-53"/>
      </g>
     </g>
    </g>
    <g id="xtick_3">
     <g id="line2d_3">
      <g>
       <use style="stroke:#000000;stroke-width:0.8;" x="165.478329" xlink:href="#m8d5801fed7" y="307.584"/>
      </g>
     </g>
     <g id="text_3">
      <!-- 2010-02-13 -->
      <defs>
       <path d="M 40.578125 39.3125 
Q 47.65625 37.796875 51.625 33 
Q 55.609375 28.21875 55.609375 21.1875 
Q 55.609375 10.40625 48.1875 4.484375 
Q 40.765625 -1.421875 27.09375 -1.421875 
Q 22.515625 -1.421875 17.65625 -0.515625 
Q 12.796875 0.390625 7.625 2.203125 
L 7.625 11.71875 
Q 11.71875 9.328125 16.59375 8.109375 
Q 21.484375 6.890625 26.8125 6.890625 
Q 36.078125 6.890625 40.9375 10.546875 
Q 45.796875 14.203125 45.796875 21.1875 
Q 45.796875 27.640625 41.28125 31.265625 
Q 36.765625 34.90625 28.71875 34.90625 
L 20.21875 34.90625 
L 20.21875 43.015625 
L 29.109375 43.015625 
Q 36.375 43.015625 40.234375 45.921875 
Q 44.09375 48.828125 44.09375 54.296875 
Q 44.09375 59.90625 40.109375 62.90625 
Q 36.140625 65.921875 28.71875 65.921875 
Q 24.65625 65.921875 20.015625 65.03125 
Q 15.375 64.15625 9.8125 62.3125 
L 9.8125 71.09375 
Q 15.4375 72.65625 20.34375 73.4375 
Q 25.25 74.21875 29.59375 74.21875 
Q 40.828125 74.21875 47.359375 69.109375 
Q 53.90625 64.015625 53.90625 55.328125 
Q 53.90625 49.265625 50.4375 45.09375 
Q 46.96875 40.921875 40.578125 39.3125 
z
" id="DejaVuSans-51"/>
      </defs>
      <g transform="translate(148.043642 319.143062)scale(0.06 -0.06)">
       <use xlink:href="#DejaVuSans-50"/>
       <use x="63.623047" xlink:href="#DejaVuSans-48"/>
       <use x="127.246094" xlink:href="#DejaVuSans-49"/>
       <use x="190.869141" xlink:href="#DejaVuSans-48"/>
       <use x="254.492188" xlink:href="#DejaVuSans-45"/>
       <use x="290.576172" xlink:href="#DejaVuSans-48"/>
       <use x="354.199219" xlink:href="#DejaVuSans-50"/>
       <use x="417.822266" xlink:href="#DejaVuSans-45"/>
       <use x="453.90625" xlink:href="#DejaVuSans-49"/>
       <use x="517.529297" xlink:href="#DejaVuSans-51"/>
      </g>
     </g>
    </g>
    <g id="xtick_4">
     <g id="line2d_4">
      <g>
       <use style="stroke:#000000;stroke-width:0.8;" x="211.30113" xlink:href="#m8d5801fed7" y="307.584"/>
      </g>
     </g>
     <g id="text_4">
      <!-- 2010-09-11 -->
      <g transform="translate(193.866443 319.143062)scale(0.06 -0.06)">
       <use xlink:href="#DejaVuSans-50"/>
       <use x="63.623047" xlink:href="#DejaVuSans-48"/>
       <use x="127.246094" xlink:href="#DejaVuSans-49"/>
       <use x="190.869141" xlink:href="#DejaVuSans-48"/>
       <use x="254.492188" xlink:href="#DejaVuSans-45"/>
       <use x="290.576172" xlink:href="#DejaVuSans-48"/>
       <use x="354.199219" xlink:href="#DejaVuSans-57"/>
       <use x="417.822266" xlink:href="#DejaVuSans-45"/>
       <use x="453.90625" xlink:href="#DejaVuSans-49"/>
       <use x="517.529297" xlink:href="#DejaVuSans-49"/>
      </g>
     </g>
    </g>
    <g id="xtick_5">
     <g id="line2d_5">
      <g>
       <use style="stroke:#000000;stroke-width:0.8;" x="257.123931" xlink:href="#m8d5801fed7" y="307.584"/>
      </g>
     </g>
     <g id="text_5">
      <!-- 2011-04-05 -->
      <defs>
       <path d="M 37.796875 64.3125 
L 12.890625 25.390625 
L 37.796875 25.390625 
z
M 35.203125 72.90625 
L 47.609375 72.90625 
L 47.609375 25.390625 
L 58.015625 25.390625 
L 58.015625 17.1875 
L 47.609375 17.1875 
L 47.609375 0 
L 37.796875 0 
L 37.796875 17.1875 
L 4.890625 17.1875 
L 4.890625 26.703125 
z
" id="DejaVuSans-52"/>
      </defs>
      <g transform="translate(239.689244 319.143062)scale(0.06 -0.06)">
       <use xlink:href="#DejaVuSans-50"/>
       <use x="63.623047" xlink:href="#DejaVuSans-48"/>
       <use x="127.246094" xlink:href="#DejaVuSans-49"/>
       <use x="190.869141" xlink:href="#DejaVuSans-49"/>
       <use x="254.492188" xlink:href="#DejaVuSans-45"/>
       <use x="290.576172" xlink:href="#DejaVuSans-48"/>
       <use x="354.199219" xlink:href="#DejaVuSans-52"/>
       <use x="417.822266" xlink:href="#DejaVuSans-45"/>
       <use x="453.90625" xlink:href="#DejaVuSans-48"/>
       <use x="517.529297" xlink:href="#DejaVuSans-53"/>
      </g>
     </g>
    </g>
    <g id="xtick_6">
     <g id="line2d_6">
      <g>
       <use style="stroke:#000000;stroke-width:0.8;" x="302.946733" xlink:href="#m8d5801fed7" y="307.584"/>
      </g>
     </g>
     <g id="text_6">
      <!-- 2011-10-27 -->
      <g transform="translate(285.512045 319.143062)scale(0.06 -0.06)">
       <use xlink:href="#DejaVuSans-50"/>
       <use x="63.623047" xlink:href="#DejaVuSans-48"/>
       <use x="127.246094" xlink:href="#DejaVuSans-49"/>
       <use x="190.869141" xlink:href="#DejaVuSans-49"/>
       <use x="254.492188" xlink:href="#DejaVuSans-45"/>
       <use x="290.576172" xlink:href="#DejaVuSans-49"/>
       <use x="354.199219" xlink:href="#DejaVuSans-48"/>
       <use x="417.822266" xlink:href="#DejaVuSans-45"/>
       <use x="453.90625" xlink:href="#DejaVuSans-50"/>
       <use x="517.529297" xlink:href="#DejaVuSans-55"/>
      </g>
     </g>
    </g>
    <g id="xtick_7">
     <g id="line2d_7">
      <g>
       <use style="stroke:#000000;stroke-width:0.8;" x="348.769534" xlink:href="#m8d5801fed7" y="307.584"/>
      </g>
     </g>
     <g id="text_7">
      <!-- 2012-05-22 -->
      <g transform="translate(331.334846 319.143062)scale(0.06 -0.06)">
       <use xlink:href="#DejaVuSans-50"/>
       <use x="63.623047" xlink:href="#DejaVuSans-48"/>
       <use x="127.246094" xlink:href="#DejaVuSans-49"/>
       <use x="190.869141" xlink:href="#DejaVuSans-50"/>
       <use x="254.492188" xlink:href="#DejaVuSans-45"/>
       <use x="290.576172" xlink:href="#DejaVuSans-48"/>
       <use x="354.199219" xlink:href="#DejaVuSans-53"/>
       <use x="417.822266" xlink:href="#DejaVuSans-45"/>
       <use x="453.90625" xlink:href="#DejaVuSans-50"/>
       <use x="517.529297" xlink:href="#DejaVuSans-50"/>
      </g>
     </g>
    </g>
    <g id="xtick_8">
     <g id="line2d_8">
      <g>
       <use style="stroke:#000000;stroke-width:0.8;" x="394.592335" xlink:href="#m8d5801fed7" y="307.584"/>
      </g>
     </g>
     <g id="text_8">
      <!-- 2012-12-13 -->
      <g transform="translate(377.157647 319.143062)scale(0.06 -0.06)">
       <use xlink:href="#DejaVuSans-50"/>
       <use x="63.623047" xlink:href="#DejaVuSans-48"/>
       <use x="127.246094" xlink:href="#DejaVuSans-49"/>
       <use x="190.869141" xlink:href="#DejaVuSans-50"/>
       <use x="254.492188" xlink:href="#DejaVuSans-45"/>
       <use x="290.576172" xlink:href="#DejaVuSans-49"/>
       <use x="354.199219" xlink:href="#DejaVuSans-50"/>
       <use x="417.822266" xlink:href="#DejaVuSans-45"/>
       <use x="453.90625" xlink:href="#DejaVuSans-49"/>
       <use x="517.529297" xlink:href="#DejaVuSans-51"/>
      </g>
     </g>
    </g>
    <g id="text_9">
     <!-- Date -->
     <defs>
      <path d="M 19.671875 64.796875 
L 19.671875 8.109375 
L 31.59375 8.109375 
Q 46.6875 8.109375 53.6875 14.9375 
Q 60.6875 21.78125 60.6875 36.53125 
Q 60.6875 51.171875 53.6875 57.984375 
Q 46.6875 64.796875 31.59375 64.796875 
z
M 9.8125 72.90625 
L 30.078125 72.90625 
Q 51.265625 72.90625 61.171875 64.09375 
Q 71.09375 55.28125 71.09375 36.53125 
Q 71.09375 17.671875 61.125 8.828125 
Q 51.171875 0 30.078125 0 
L 9.8125 0 
z
" id="DejaVuSans-68"/>
      <path d="M 34.28125 27.484375 
Q 23.390625 27.484375 19.1875 25 
Q 14.984375 22.515625 14.984375 16.5 
Q 14.984375 11.71875 18.140625 8.90625 
Q 21.296875 6.109375 26.703125 6.109375 
Q 34.1875 6.109375 38.703125 11.40625 
Q 43.21875 16.703125 43.21875 25.484375 
L 43.21875 27.484375 
z
M 52.203125 31.203125 
L 52.203125 0 
L 43.21875 0 
L 43.21875 8.296875 
Q 40.140625 3.328125 35.546875 0.953125 
Q 30.953125 -1.421875 24.3125 -1.421875 
Q 15.921875 -1.421875 10.953125 3.296875 
Q 6 8.015625 6 15.921875 
Q 6 25.140625 12.171875 29.828125 
Q 18.359375 34.515625 30.609375 34.515625 
L 43.21875 34.515625 
L 43.21875 35.40625 
Q 43.21875 41.609375 39.140625 45 
Q 35.0625 48.390625 27.6875 48.390625 
Q 23 48.390625 18.546875 47.265625 
Q 14.109375 46.140625 10.015625 43.890625 
L 10.015625 52.203125 
Q 14.9375 54.109375 19.578125 55.046875 
Q 24.21875 56 28.609375 56 
Q 40.484375 56 46.34375 49.84375 
Q 52.203125 43.703125 52.203125 31.203125 
z
" id="DejaVuSans-97"/>
      <path d="M 18.3125 70.21875 
L 18.3125 54.6875 
L 36.8125 54.6875 
L 36.8125 47.703125 
L 18.3125 47.703125 
L 18.3125 18.015625 
Q 18.3125 11.328125 20.140625 9.421875 
Q 21.96875 7.515625 27.59375 7.515625 
L 36.8125 7.515625 
L 36.8125 0 
L 27.59375 0 
Q 17.1875 0 13.234375 3.875 
Q 9.28125 7.765625 9.28125 18.015625 
L 9.28125 47.703125 
L 2.6875 47.703125 
L 2.6875 54.6875 
L 9.28125 54.6875 
L 9.28125 70.21875 
z
" id="DejaVuSans-116"/>
      <path d="M 56.203125 29.59375 
L 56.203125 25.203125 
L 14.890625 25.203125 
Q 15.484375 15.921875 20.484375 11.0625 
Q 25.484375 6.203125 34.421875 6.203125 
Q 39.59375 6.203125 44.453125 7.46875 
Q 49.3125 8.734375 54.109375 11.28125 
L 54.109375 2.78125 
Q 49.265625 0.734375 44.1875 -0.34375 
Q 39.109375 -1.421875 33.890625 -1.421875 
Q 20.796875 -1.421875 13.15625 6.1875 
Q 5.515625 13.8125 5.515625 26.8125 
Q 5.515625 40.234375 12.765625 48.109375 
Q 20.015625 56 32.328125 56 
Q 43.359375 56 49.78125 48.890625 
Q 56.203125 41.796875 56.203125 29.59375 
z
M 47.21875 32.234375 
Q 47.125 39.59375 43.09375 43.984375 
Q 39.0625 48.390625 32.421875 48.390625 
Q 24.90625 48.390625 20.390625 44.140625 
Q 15.875 39.890625 15.1875 32.171875 
z
" id="DejaVuSans-101"/>
     </defs>
     <g transform="translate(224.209219 331.989312)scale(0.1 -0.1)">
      <use xlink:href="#DejaVuSans-68"/>
      <use x="77.001953" xlink:href="#DejaVuSans-97"/>
      <use x="138.28125" xlink:href="#DejaVuSans-116"/>
      <use x="177.490234" xlink:href="#DejaVuSans-101"/>
     </g>
    </g>
   </g>
   <g id="matplotlib.axis_2">
    <g id="ytick_1">
     <g id="line2d_9">
      <defs>
       <path d="M 0 0 
L -3.5 0 
" id="mb2c33d86e0" style="stroke:#000000;stroke-width:0.8;"/>
      </defs>
      <g>
       <use style="stroke:#000000;stroke-width:0.8;" x="57.6" xlink:href="#mb2c33d86e0" y="295.498707"/>
      </g>
     </g>
     <g id="text_10">
      <!-- 0 -->
      <g transform="translate(44.2375 299.297926)scale(0.1 -0.1)">
       <use xlink:href="#DejaVuSans-48"/>
      </g>
     </g>
    </g>
    <g id="ytick_2">
     <g id="line2d_10">
      <g>
       <use style="stroke:#000000;stroke-width:0.8;" x="57.6" xlink:href="#mb2c33d86e0" y="248.537804"/>
      </g>
     </g>
     <g id="text_11">
      <!-- 5000 -->
      <g transform="translate(25.15 252.337023)scale(0.1 -0.1)">
       <use xlink:href="#DejaVuSans-53"/>
       <use x="63.623047" xlink:href="#DejaVuSans-48"/>
       <use x="127.246094" xlink:href="#DejaVuSans-48"/>
       <use x="190.869141" xlink:href="#DejaVuSans-48"/>
      </g>
     </g>
    </g>
    <g id="ytick_3">
     <g id="line2d_11">
      <g>
       <use style="stroke:#000000;stroke-width:0.8;" x="57.6" xlink:href="#mb2c33d86e0" y="201.576901"/>
      </g>
     </g>
     <g id="text_12">
      <!-- 10000 -->
      <g transform="translate(18.7875 205.37612)scale(0.1 -0.1)">
       <use xlink:href="#DejaVuSans-49"/>
       <use x="63.623047" xlink:href="#DejaVuSans-48"/>
       <use x="127.246094" xlink:href="#DejaVuSans-48"/>
       <use x="190.869141" xlink:href="#DejaVuSans-48"/>
       <use x="254.492188" xlink:href="#DejaVuSans-48"/>
      </g>
     </g>
    </g>
    <g id="ytick_4">
     <g id="line2d_12">
      <g>
       <use style="stroke:#000000;stroke-width:0.8;" x="57.6" xlink:href="#mb2c33d86e0" y="154.615998"/>
      </g>
     </g>
     <g id="text_13">
      <!-- 15000 -->
      <g transform="translate(18.7875 158.415217)scale(0.1 -0.1)">
       <use xlink:href="#DejaVuSans-49"/>
       <use x="63.623047" xlink:href="#DejaVuSans-53"/>
       <use x="127.246094" xlink:href="#DejaVuSans-48"/>
       <use x="190.869141" xlink:href="#DejaVuSans-48"/>
       <use x="254.492188" xlink:href="#DejaVuSans-48"/>
      </g>
     </g>
    </g>
    <g id="ytick_5">
     <g id="line2d_13">
      <g>
       <use style="stroke:#000000;stroke-width:0.8;" x="57.6" xlink:href="#mb2c33d86e0" y="107.655095"/>
      </g>
     </g>
     <g id="text_14">
      <!-- 20000 -->
      <g transform="translate(18.7875 111.454314)scale(0.1 -0.1)">
       <use xlink:href="#DejaVuSans-50"/>
       <use x="63.623047" xlink:href="#DejaVuSans-48"/>
       <use x="127.246094" xlink:href="#DejaVuSans-48"/>
       <use x="190.869141" xlink:href="#DejaVuSans-48"/>
       <use x="254.492188" xlink:href="#DejaVuSans-48"/>
      </g>
     </g>
    </g>
    <g id="ytick_6">
     <g id="line2d_14">
      <g>
       <use style="stroke:#000000;stroke-width:0.8;" x="57.6" xlink:href="#mb2c33d86e0" y="60.694192"/>
      </g>
     </g>
     <g id="text_15">
      <!-- 25000 -->
      <g transform="translate(18.7875 64.49341)scale(0.1 -0.1)">
       <use xlink:href="#DejaVuSans-50"/>
       <use x="63.623047" xlink:href="#DejaVuSans-53"/>
       <use x="127.246094" xlink:href="#DejaVuSans-48"/>
       <use x="190.869141" xlink:href="#DejaVuSans-48"/>
       <use x="254.492188" xlink:href="#DejaVuSans-48"/>
      </g>
     </g>
    </g>
    <g id="text_16">
     <!-- Cost -->
     <defs>
      <path d="M 64.40625 67.28125 
L 64.40625 56.890625 
Q 59.421875 61.53125 53.78125 63.8125 
Q 48.140625 66.109375 41.796875 66.109375 
Q 29.296875 66.109375 22.65625 58.46875 
Q 16.015625 50.828125 16.015625 36.375 
Q 16.015625 21.96875 22.65625 14.328125 
Q 29.296875 6.6875 41.796875 6.6875 
Q 48.140625 6.6875 53.78125 8.984375 
Q 59.421875 11.28125 64.40625 15.921875 
L 64.40625 5.609375 
Q 59.234375 2.09375 53.4375 0.328125 
Q 47.65625 -1.421875 41.21875 -1.421875 
Q 24.65625 -1.421875 15.125 8.703125 
Q 5.609375 18.84375 5.609375 36.375 
Q 5.609375 53.953125 15.125 64.078125 
Q 24.65625 74.21875 41.21875 74.21875 
Q 47.75 74.21875 53.53125 72.484375 
Q 59.328125 70.75 64.40625 67.28125 
z
" id="DejaVuSans-67"/>
      <path d="M 30.609375 48.390625 
Q 23.390625 48.390625 19.1875 42.75 
Q 14.984375 37.109375 14.984375 27.296875 
Q 14.984375 17.484375 19.15625 11.84375 
Q 23.34375 6.203125 30.609375 6.203125 
Q 37.796875 6.203125 41.984375 11.859375 
Q 46.1875 17.53125 46.1875 27.296875 
Q 46.1875 37.015625 41.984375 42.703125 
Q 37.796875 48.390625 30.609375 48.390625 
z
M 30.609375 56 
Q 42.328125 56 49.015625 48.375 
Q 55.71875 40.765625 55.71875 27.296875 
Q 55.71875 13.875 49.015625 6.21875 
Q 42.328125 -1.421875 30.609375 -1.421875 
Q 18.84375 -1.421875 12.171875 6.21875 
Q 5.515625 13.875 5.515625 27.296875 
Q 5.515625 40.765625 12.171875 48.375 
Q 18.84375 56 30.609375 56 
z
" id="DejaVuSans-111"/>
      <path d="M 44.28125 53.078125 
L 44.28125 44.578125 
Q 40.484375 46.53125 36.375 47.5 
Q 32.28125 48.484375 27.875 48.484375 
Q 21.1875 48.484375 17.84375 46.4375 
Q 14.5 44.390625 14.5 40.28125 
Q 14.5 37.15625 16.890625 35.375 
Q 19.28125 33.59375 26.515625 31.984375 
L 29.59375 31.296875 
Q 39.15625 29.25 43.1875 25.515625 
Q 47.21875 21.78125 47.21875 15.09375 
Q 47.21875 7.46875 41.1875 3.015625 
Q 35.15625 -1.421875 24.609375 -1.421875 
Q 20.21875 -1.421875 15.453125 -0.5625 
Q 10.6875 0.296875 5.421875 2 
L 5.421875 11.28125 
Q 10.40625 8.6875 15.234375 7.390625 
Q 20.0625 6.109375 24.8125 6.109375 
Q 31.15625 6.109375 34.5625 8.28125 
Q 37.984375 10.453125 37.984375 14.40625 
Q 37.984375 18.0625 35.515625 20.015625 
Q 33.0625 21.96875 24.703125 23.78125 
L 21.578125 24.515625 
Q 13.234375 26.265625 9.515625 29.90625 
Q 5.8125 33.546875 5.8125 39.890625 
Q 5.8125 47.609375 11.28125 51.796875 
Q 16.75 56 26.8125 56 
Q 31.78125 56 36.171875 55.265625 
Q 40.578125 54.546875 44.28125 53.078125 
z
" id="DejaVuSans-115"/>
     </defs>
     <g transform="translate(12.707813 185.643625)rotate(-90)scale(0.1 -0.1)">
      <use xlink:href="#DejaVuSans-67"/>
      <use x="69.824219" xlink:href="#DejaVuSans-111"/>
      <use x="131.005859" xlink:href="#DejaVuSans-115"/>
      <use x="183.105469" xlink:href="#DejaVuSans-116"/>
     </g>
    </g>
   </g>
   <g id="line2d_15">
    <path clip-path="url(#pfbec2e4f02)" d="M 73.832727 292.634165 
L 74.290955 261.753458 
L 74.520069 285.440362 
L 74.749183 249.527217 
L 74.978297 259.277338 
L 75.207411 86.095448 
L 75.436525 269.444758 
L 75.665639 291.082636 
L 75.894753 272.702275 
L 76.123867 273.856876 
L 76.352981 271.598722 
L 76.582095 289.599759 
L 76.811209 255.185154 
L 77.040323 294.354501 
L 77.269437 281.564243 
L 77.498551 275.401217 
L 78.185893 289.190677 
L 78.644121 244.650178 
L 78.873235 291.88865 
L 79.102349 278.308957 
L 79.331463 291.374265 
L 79.560577 271.938119 
L 79.789691 284.339212 
L 80.018805 290.48878 
L 80.247919 271.541798 
L 80.706147 277.885415 
L 80.935261 291.303536 
L 81.164375 280.437541 
L 81.393489 294.139756 
L 81.622603 280.507532 
L 82.080831 236.575958 
L 82.309945 288.787841 
L 82.539059 284.906488 
L 82.768173 287.539715 
L 82.997287 293.409207 
L 83.226401 204.143377 
L 83.455515 278.376198 
L 83.684629 281.65515 
L 83.913744 273.018331 
L 84.142858 271.685668 
L 84.371972 269.605343 
L 84.601086 221.765838 
L 84.8302 274.458508 
L 85.059314 293.100871 
L 85.288428 293.609538 
L 85.746656 277.156222 
L 85.97577 291.861899 
L 86.204884 278.631848 
L 86.433998 289.362897 
L 86.663112 265.975541 
L 87.12134 285.615585 
L 87.350454 167.076124 
L 87.579568 278.445339 
L 87.808682 295.425325 
L 88.037796 277.800597 
L 88.26691 275.547362 
L 88.496024 280.997786 
L 88.954252 274.253989 
L 89.183366 279.066258 
L 89.41248 53.568 
L 89.641594 284.482261 
L 89.870708 282.311265 
L 90.099822 287.783368 
L 90.328936 266.546047 
L 90.787164 291.812517 
L 91.016278 294.934387 
L 91.245392 272.214477 
L 91.474506 282.482138 
L 91.70362 236.750604 
L 91.932734 56.856473 
L 92.161848 228.335201 
L 92.390962 274.70899 
L 92.620076 280.841484 
L 92.84919 271.135362 
L 93.078304 284.94297 
L 93.307418 270.032621 
L 93.765646 292.46917 
L 93.99476 288.626295 
L 94.223874 292.882212 
L 94.452988 280.719708 
L 94.682102 276.672387 
L 94.911216 293.566933 
L 95.369444 290.779561 
L 95.598558 268.717853 
L 95.827672 284.009682 
L 96.056786 291.180847 
L 96.2859 247.03209 
L 96.515014 263.161363 
L 96.744128 292.00993 
L 96.973242 214.301008 
L 97.202356 294.152501 
L 97.43147 282.279514 
L 97.660584 284.824391 
L 97.889698 135.25548 
L 98.118812 276.80685 
L 98.347926 266.025383 
L 98.57704 263.852842 
L 98.806154 283.029934 
L 99.035268 271.848985 
L 99.264382 289.775468 
L 99.493496 282.410806 
L 99.951724 294.773424 
L 100.180838 276.197088 
L 100.409952 280.051822 
L 100.639066 288.61537 
L 100.86818 282.343864 
L 101.097294 286.7352 
L 101.326408 280.683516 
L 101.555522 290.139253 
L 101.784636 289.036562 
L 102.01375 267.585791 
L 102.242864 282.545115 
L 102.471978 281.015817 
L 102.701092 281.371865 
L 102.930206 284.924244 
L 103.15932 292.509881 
L 103.388434 294.236007 
L 103.617548 285.608685 
L 103.846662 288.265507 
L 104.075776 284.324747 
L 104.30489 291.704384 
L 104.534004 287.31742 
L 104.763118 285.159118 
L 104.992232 290.850058 
L 105.221346 282.821978 
L 105.45046 289.569598 
L 105.679574 285.920453 
L 105.908688 285.654476 
L 106.137802 278.437827 
L 106.366916 291.649433 
L 106.59603 272.754422 
L 106.825144 285.820207 
L 107.054258 280.16557 
L 107.283372 291.498994 
L 107.512486 288.878796 
L 107.7416 293.961164 
L 107.970714 265.083387 
L 108.199828 285.86911 
L 108.428942 282.544736 
L 108.658056 271.160878 
L 108.88717 254.097813 
L 109.116284 284.587036 
L 109.345398 295.219044 
L 109.574512 242.643264 
L 109.803626 292.248429 
L 110.03274 295.245033 
L 110.261854 295.018495 
L 110.720082 268.949246 
L 110.949196 286.135707 
L 111.17831 273.864091 
L 111.407424 281.209311 
L 111.636538 294.255544 
L 111.865652 284.823295 
L 112.094766 290.497024 
L 112.32388 286.145354 
L 112.552994 294.534976 
L 112.782108 280.04275 
L 113.011222 273.736484 
L 113.240336 279.000325 
L 113.46945 291.620115 
L 113.698564 274.653239 
L 113.927678 295.046031 
L 114.156792 291.642668 
L 114.385906 291.449619 
L 114.61502 280.957831 
L 114.844134 200.465693 
L 115.073248 272.695002 
L 115.302362 282.185681 
L 115.531476 248.720785 
L 115.76059 284.578734 
L 116.218818 281.596036 
L 116.447932 295.324895 
L 116.677046 273.378827 
L 116.90616 277.707994 
L 117.135274 295.079595 
L 117.364388 270.695247 
L 117.593502 291.256349 
L 117.822616 282.896683 
L 118.05173 191.752498 
L 118.280844 289.482564 
L 118.509958 286.388953 
L 118.739072 196.856149 
L 118.968186 222.572667 
L 119.1973 290.711405 
L 119.426414 283.492151 
L 119.655528 295.195311 
L 119.884642 257.072767 
L 120.113756 291.335407 
L 120.34287 194.278702 
L 120.571984 287.151382 
L 120.801098 286.159352 
L 121.030212 263.401308 
L 121.259326 281.496235 
L 121.48844 280.358733 
L 121.717554 287.075113 
L 121.946668 194.160288 
L 122.175782 275.981551 
L 122.63401 291.916586 
L 123.092238 293.814222 
L 123.321352 281.606941 
L 123.77958 286.316316 
L 124.008694 291.955837 
L 124.237808 275.903123 
L 124.466922 248.45988 
L 124.696036 282.391826 
L 124.92515 294.216255 
L 125.154264 271.684053 
L 125.383378 290.101597 
L 125.612492 288.611616 
L 125.841606 226.232 
L 126.07072 280.323584 
L 126.299834 279.688217 
L 126.528948 273.397264 
L 126.758062 292.621146 
L 126.987176 277.527572 
L 127.21629 284.336405 
L 127.445405 282.222378 
L 127.903633 295.189974 
L 128.132747 290.612959 
L 128.361861 276.935928 
L 128.590975 280.735185 
L 128.820089 295.200301 
L 129.049203 254.714312 
L 129.278317 273.051169 
L 129.507431 281.091119 
L 129.736545 294.70626 
L 129.965659 285.792156 
L 130.194773 295.421987 
L 130.423887 288.765672 
L 130.653001 293.540745 
L 130.882115 283.256731 
L 131.111229 285.074646 
L 131.340343 279.132399 
L 131.569457 292.608516 
L 131.798571 265.961307 
L 132.027685 285.288476 
L 132.256799 291.790704 
L 132.485913 282.224555 
L 132.944141 295.269629 
L 133.173255 287.554028 
L 133.402369 284.082366 
L 133.631483 288.606748 
L 133.860597 273.067482 
L 134.089711 289.131582 
L 134.318825 290.626512 
L 134.547939 282.864931 
L 134.777053 282.782295 
L 135.006167 260.660295 
L 135.235281 286.302198 
L 135.464395 212.222111 
L 135.693509 247.347191 
L 135.922623 263.194023 
L 136.151737 293.791548 
L 136.380851 271.08753 
L 136.609965 290.021626 
L 136.839079 274.368577 
L 137.068193 292.272 
L 137.297307 291.457095 
L 137.526421 292.05605 
L 137.755535 285.845474 
L 137.984649 286.843495 
L 138.213763 112.322096 
L 138.442877 285.534447 
L 138.671991 286.596254 
L 138.901105 244.486347 
L 139.130219 280.785265 
L 139.359333 293.303579 
L 139.588447 272.205138 
L 139.817561 294.909582 
L 140.046675 281.684438 
L 140.275789 292.855628 
L 140.504903 290.984942 
L 140.734017 280.419346 
L 141.192245 294.814124 
L 141.421359 293.4181 
L 141.650473 295.338103 
L 141.879587 280.498044 
L 142.108701 253.065254 
L 142.337815 292.50369 
L 142.566929 287.729272 
L 142.796043 294.875348 
L 143.025157 293.420753 
L 143.254271 273.084251 
L 143.483385 295.340349 
L 143.941613 279.438575 
L 144.399841 294.710819 
L 144.628955 288.904422 
L 144.858069 294.802687 
L 145.087183 286.628771 
L 145.316297 286.805186 
L 145.545411 293.672468 
L 145.774525 283.057031 
L 146.003639 259.144968 
L 146.232753 293.057618 
L 146.461867 293.398753 
L 146.690981 280.620825 
L 146.920095 289.299983 
L 147.149209 277.030653 
L 147.378323 293.756108 
L 147.607437 277.056766 
L 147.836551 291.610564 
L 148.065665 289.962357 
L 148.294779 286.317438 
L 148.523893 290.534928 
L 148.753007 289.935144 
L 148.982121 295.386235 
L 149.211235 287.306671 
L 149.440349 186.198926 
L 149.669463 271.949059 
L 149.898577 264.309579 
L 150.127691 284.470755 
L 150.356805 291.64152 
L 150.585919 287.835228 
L 150.815033 287.630753 
L 151.044147 241.922326 
L 151.273261 280.881674 
L 151.731489 289.918903 
L 151.960603 282.215335 
L 152.189717 293.15875 
L 152.418831 285.612785 
L 152.647945 274.39594 
L 152.877059 240.682676 
L 153.106173 292.543086 
L 153.564401 272.04869 
L 153.793515 290.139921 
L 154.251743 283.836922 
L 154.480857 285.189332 
L 154.709971 275.409169 
L 154.939085 289.770606 
L 155.168199 278.177355 
L 155.397313 286.612764 
L 155.626427 284.760243 
L 155.855541 278.128112 
L 156.084655 266.568596 
L 156.313769 273.176451 
L 156.542883 291.290891 
L 156.771997 294.80265 
L 157.001111 288.913969 
L 157.230225 294.274033 
L 157.459339 265.839025 
L 157.688453 277.478275 
L 157.917567 263.288106 
L 158.146681 290.982053 
L 158.375795 289.67233 
L 158.604909 282.386724 
L 158.834023 288.812818 
L 159.063137 285.434143 
L 159.292251 294.871839 
L 159.521365 194.492348 
L 159.750479 291.745248 
L 159.979593 283.712998 
L 160.208707 295.336232 
L 160.437821 284.643186 
L 160.666935 289.892648 
L 160.896049 291.07815 
L 161.125163 270.532938 
L 161.354277 292.383641 
L 161.583391 295.41294 
L 161.812505 292.264991 
L 162.041619 287.074402 
L 162.270733 288.914359 
L 162.499847 284.899013 
L 162.728961 288.42089 
L 162.958075 284.738956 
L 163.187189 293.23987 
L 163.416303 286.344219 
L 163.645417 288.420865 
L 163.874531 282.745611 
L 164.103645 288.89008 
L 164.561873 279.579138 
L 164.790987 279.12314 
L 165.020101 277.634785 
L 165.249215 280.110798 
L 165.478329 295.154321 
L 165.707443 289.233428 
L 165.936557 292.88974 
L 166.165671 293.819343 
L 166.394785 284.832176 
L 166.623899 295.297475 
L 167.082127 283.479133 
L 167.311241 288.574986 
L 167.540355 266.733894 
L 167.769469 292.886863 
L 167.998583 292.990001 
L 168.227697 288.241605 
L 168.456811 273.645805 
L 168.685925 241.183903 
L 168.915039 286.553476 
L 169.144153 290.619029 
L 169.373267 290.970315 
L 169.602381 280.840834 
L 169.831495 291.653208 
L 170.060609 291.279441 
L 170.289723 295.365086 
L 170.518837 278.214875 
L 170.747951 284.363518 
L 170.977066 285.371962 
L 171.20618 294.294458 
L 171.435294 293.996775 
L 171.664408 274.39252 
L 172.122636 288.289317 
L 172.35175 286.757053 
L 172.580864 292.42051 
L 172.809978 294.474261 
L 173.039092 295.09411 
L 173.268206 293.020859 
L 173.49732 288.752961 
L 173.726434 290.636998 
L 174.184662 295.323402 
L 174.413776 285.264397 
L 174.64289 282.188334 
L 174.872004 293.048931 
L 175.101118 293.119354 
L 175.330232 277.447883 
L 175.559346 283.129957 
L 175.78846 275.351369 
L 176.017574 288.378829 
L 176.246688 272.21446 
L 176.475802 280.525549 
L 176.704916 238.272957 
L 176.93403 289.211545 
L 177.163144 293.614347 
L 177.392258 290.980693 
L 177.621372 291.987841 
L 177.850486 290.624708 
L 178.308714 276.511578 
L 178.537828 283.994714 
L 178.766942 276.188452 
L 178.996056 277.504709 
L 179.22517 280.63463 
L 179.454284 290.239065 
L 179.683398 294.667319 
L 179.912512 290.184963 
L 180.141626 246.605208 
L 180.37074 293.696377 
L 180.599854 295.394677 
L 180.828968 290.243273 
L 181.058082 289.428006 
L 181.287196 275.698246 
L 181.745424 285.676336 
L 181.974538 271.710079 
L 182.432766 288.187289 
L 182.66188 288.477389 
L 182.890994 280.526594 
L 183.120108 294.7794 
L 183.349222 279.739676 
L 183.578336 283.282878 
L 183.80745 278.430598 
L 184.036564 282.40682 
L 184.265678 295.030336 
L 184.494792 291.925695 
L 184.723906 258.031825 
L 184.95302 285.63056 
L 185.411248 274.098925 
L 185.640362 269.64242 
L 185.869476 295.027412 
L 186.09859 278.464833 
L 186.327704 295.010527 
L 186.556818 271.859492 
L 186.785932 292.173867 
L 187.015046 275.645881 
L 187.24416 294.392089 
L 187.473274 275.99452 
L 187.702388 275.845231 
L 187.931502 272.374632 
L 188.160616 288.674856 
L 188.38973 267.117677 
L 188.618844 284.778606 
L 188.847958 286.369917 
L 189.077072 292.339929 
L 189.5353 274.096542 
L 189.764414 271.850852 
L 190.222642 291.50882 
L 190.451756 284.399796 
L 190.68087 289.153322 
L 190.909984 280.883194 
L 191.139098 280.978089 
L 191.368212 292.296406 
L 191.597326 287.610268 
L 191.82644 294.659054 
L 192.055554 287.011809 
L 192.284668 288.306806 
L 192.513782 282.823903 
L 192.742896 261.616285 
L 192.97201 261.440602 
L 193.201124 283.152739 
L 193.430238 279.093491 
L 193.659352 295.082627 
L 193.888466 292.773221 
L 194.11758 292.668137 
L 194.346694 279.037142 
L 194.575808 289.236011 
L 194.804922 253.671021 
L 195.034036 293.617987 
L 195.26315 282.102687 
L 195.950492 291.675334 
L 196.179606 273.155449 
L 196.40872 287.801963 
L 196.637834 295.079742 
L 196.866948 283.826235 
L 197.096062 291.280438 
L 197.325176 292.532553 
L 197.55429 295.33449 
L 197.783404 291.32426 
L 198.012518 284.979939 
L 198.241632 270.790677 
L 198.470746 289.63586 
L 198.69986 286.229002 
L 198.928974 279.24987 
L 199.158088 255.887756 
L 199.387202 283.875385 
L 199.616316 285.602412 
L 199.84543 277.82963 
L 200.074544 280.699953 
L 200.303658 272.887477 
L 200.532772 290.029506 
L 200.761886 272.784448 
L 200.991 289.974724 
L 201.220114 274.346511 
L 201.449228 289.227908 
L 201.678342 284.003973 
L 201.907456 295.409809 
L 202.13657 286.275315 
L 202.365684 283.602771 
L 202.594798 275.172882 
L 202.823912 290.281554 
L 203.053026 281.610521 
L 203.511254 294.334564 
L 203.740368 287.631758 
L 204.198596 293.131498 
L 204.42771 293.80004 
L 204.656824 292.066215 
L 204.885938 288.753885 
L 205.115052 268.482669 
L 205.344166 264.797111 
L 205.57328 290.663862 
L 205.802394 291.576489 
L 206.031508 295.009353 
L 206.260622 288.034695 
L 206.489736 287.609265 
L 206.71885 282.999664 
L 207.177078 289.833406 
L 207.406192 295.464988 
L 207.635306 274.208727 
L 207.86442 283.437713 
L 208.093534 285.968281 
L 208.322648 291.353126 
L 208.551762 273.162191 
L 208.780876 294.917603 
L 209.00999 287.255184 
L 209.239104 294.752172 
L 209.468218 268.670038 
L 209.697332 289.295422 
L 209.926446 289.726327 
L 210.15556 281.721333 
L 210.384674 293.359146 
L 210.613788 294.880703 
L 211.072016 280.473043 
L 211.30113 292.569472 
L 211.530244 63.909119 
L 211.759358 290.783791 
L 211.988472 258.665206 
L 212.4467 280.257715 
L 212.675814 287.678337 
L 212.904928 272.062741 
L 213.134042 287.440513 
L 213.363156 282.684522 
L 213.59227 290.749278 
L 213.821384 266.320466 
L 214.050498 276.210219 
L 214.279612 281.061774 
L 214.508727 280.344503 
L 214.737841 285.911055 
L 214.966955 281.399508 
L 215.196069 236.815247 
L 215.425183 287.45789 
L 215.654297 295.114167 
L 215.883411 277.809602 
L 216.112525 291.009616 
L 216.341639 287.738205 
L 216.570753 294.776075 
L 216.799867 281.996651 
L 217.258095 287.670148 
L 217.487209 268.790139 
L 217.716323 293.115119 
L 217.945437 281.042982 
L 218.174551 262.487123 
L 218.403665 278.035566 
L 218.632779 284.7507 
L 218.861893 267.038367 
L 219.091007 275.236201 
L 219.320121 292.609642 
L 219.549235 293.335069 
L 219.778349 293.497647 
L 220.007463 263.114414 
L 220.236577 289.136243 
L 220.465691 168.204645 
L 220.694805 281.114854 
L 220.923919 284.92489 
L 221.153033 283.69455 
L 221.382147 276.645832 
L 221.611261 293.82045 
L 221.840375 295.422079 
L 222.069489 273.93932 
L 222.298603 269.710804 
L 222.527717 289.622227 
L 222.756831 286.975777 
L 222.985945 266.545201 
L 223.444173 292.486996 
L 223.673287 281.948605 
L 223.902401 291.59709 
L 224.131515 286.289052 
L 224.360629 285.372478 
L 224.589743 293.624822 
L 224.818857 294.297513 
L 225.277085 269.95598 
L 225.506199 276.733612 
L 225.735313 269.977606 
L 225.964427 284.742331 
L 226.193541 280.403952 
L 226.422655 289.05181 
L 226.651769 291.96285 
L 226.880883 275.010718 
L 227.109997 268.967493 
L 227.339111 270.76815 
L 227.568225 284.148763 
L 227.797339 281.266218 
L 228.026453 280.642242 
L 228.255567 283.737529 
L 228.484681 285.178881 
L 228.713795 293.398599 
L 228.942909 281.445018 
L 229.172023 276.919362 
L 229.401137 286.188228 
L 229.630251 278.956065 
L 229.859365 241.505866 
L 230.088479 292.683886 
L 230.317593 276.009249 
L 230.546707 280.84015 
L 230.775821 274.122787 
L 231.004935 277.768558 
L 231.234049 290.639858 
L 231.463163 274.486225 
L 231.692277 282.910267 
L 231.921391 282.829393 
L 232.150505 289.848667 
L 232.379619 290.722972 
L 232.608733 281.497625 
L 232.837847 295.466757 
L 233.066961 286.901369 
L 233.296075 268.542669 
L 233.754303 287.588388 
L 233.983417 282.683033 
L 234.212531 268.828939 
L 234.441645 268.680897 
L 234.670759 272.070843 
L 234.899873 294.354203 
L 235.128987 287.058023 
L 235.358101 286.497799 
L 235.587215 283.41549 
L 236.045443 292.146569 
L 236.274557 272.454118 
L 236.503671 290.228466 
L 236.732785 276.641002 
L 236.961899 292.179902 
L 237.191013 270.434366 
L 237.420127 290.430813 
L 237.649241 286.144275 
L 237.878355 266.938312 
L 238.107469 182.693128 
L 238.336583 282.247935 
L 238.565697 291.55691 
L 238.794811 291.382065 
L 239.023925 279.384627 
L 239.253039 295.234886 
L 239.482153 293.894557 
L 239.711267 285.412756 
L 239.940381 285.733912 
L 240.169495 292.074902 
L 240.398609 287.618722 
L 240.856837 295.232464 
L 241.085951 294.134119 
L 241.315065 291.047297 
L 241.544179 274.229386 
L 241.773293 283.297771 
L 242.002407 286.354535 
L 242.231521 286.191781 
L 242.460635 295.301154 
L 242.689749 286.110334 
L 242.918863 289.000921 
L 243.147977 285.041271 
L 243.377091 289.677838 
L 243.606205 283.849662 
L 243.835319 253.720511 
L 244.064433 163.988107 
L 244.293547 284.956741 
L 244.522661 294.937959 
L 244.751775 291.73816 
L 244.980889 280.57215 
L 245.210003 278.776188 
L 245.439117 290.41941 
L 245.668231 264.964952 
L 245.897345 275.985627 
L 246.126459 279.23377 
L 246.355573 294.16356 
L 246.584687 290.152611 
L 246.813801 279.121517 
L 247.042915 261.718773 
L 247.501143 283.595007 
L 247.959371 295.147047 
L 248.188485 282.114063 
L 248.417599 287.101837 
L 248.646713 285.023899 
L 248.875827 292.364506 
L 249.104941 294.846256 
L 249.334055 287.837011 
L 249.563169 288.735722 
L 249.792283 292.38221 
L 250.021397 283.004368 
L 250.250511 278.444805 
L 250.479625 282.162169 
L 250.708739 293.30159 
L 250.937853 294.936973 
L 251.166967 277.166161 
L 251.396081 290.840549 
L 251.625195 275.575738 
L 252.083423 295.283206 
L 252.312537 260.937103 
L 252.541651 293.512274 
L 252.770765 271.050022 
L 252.999879 275.240595 
L 253.228993 289.68083 
L 253.458107 278.837918 
L 253.687221 291.289375 
L 254.145449 294.412127 
L 254.374563 290.730575 
L 254.603677 292.073981 
L 254.832791 258.259748 
L 255.061905 295.276052 
L 255.291019 293.961688 
L 255.520133 283.564377 
L 255.749247 291.378723 
L 255.978361 295.186117 
L 256.207475 293.32967 
L 256.436589 294.063818 
L 256.665703 284.884695 
L 256.894817 290.112883 
L 257.123931 274.388655 
L 257.353045 291.966272 
L 257.582159 294.832695 
L 257.811273 275.965458 
L 258.040388 287.779334 
L 258.269502 287.871763 
L 258.498616 277.553706 
L 258.72773 291.9792 
L 258.956844 287.344381 
L 259.185958 290.858772 
L 259.415072 284.189721 
L 259.644186 287.134564 
L 259.8733 286.638544 
L 260.102414 293.25888 
L 260.331528 292.988203 
L 260.560642 277.015431 
L 260.789756 288.372305 
L 261.01887 285.344702 
L 261.247984 291.226287 
L 261.477098 287.731691 
L 261.706212 289.882682 
L 261.935326 295.28437 
L 262.16444 283.426581 
L 262.393554 263.869463 
L 262.851782 278.798615 
L 263.080896 275.405166 
L 263.31001 278.62808 
L 263.539124 285.521718 
L 263.768238 279.691978 
L 263.997352 289.865499 
L 264.226466 287.602637 
L 264.45558 288.416345 
L 264.684694 290.061808 
L 264.913808 293.81652 
L 265.372036 286.389416 
L 265.60115 295.294194 
L 265.830264 287.356413 
L 266.059378 294.036066 
L 266.288492 292.945913 
L 266.517606 286.947577 
L 266.74672 294.931493 
L 267.204948 281.960827 
L 267.434062 282.640164 
L 267.663176 273.434919 
L 267.89229 288.542046 
L 268.121404 293.99843 
L 268.350518 268.357146 
L 268.579632 294.343123 
L 268.808746 291.510172 
L 269.03786 291.868391 
L 269.266974 293.360552 
L 269.725202 283.205214 
L 269.954316 290.387255 
L 270.18343 282.903255 
L 270.412544 294.985869 
L 270.641658 286.026977 
L 270.870772 294.20658 
L 271.099886 290.723711 
L 271.329 291.17301 
L 271.558114 288.759503 
L 271.787228 284.38062 
L 272.016342 291.792763 
L 272.245456 293.139101 
L 272.703684 269.897548 
L 272.932798 295.371636 
L 273.161912 294.156835 
L 273.391026 280.918499 
L 273.62014 294.073386 
L 273.849254 293.139345 
L 274.078368 285.77645 
L 274.307482 293.917791 
L 274.536596 257.08095 
L 274.76571 289.864747 
L 274.994824 281.589625 
L 275.223938 289.247971 
L 275.453052 291.385732 
L 275.682166 290.626444 
L 275.91128 284.918223 
L 276.140394 290.933512 
L 276.369508 287.896817 
L 276.598622 278.183793 
L 276.827736 236.057136 
L 277.05685 271.747182 
L 277.285964 286.292021 
L 277.515078 282.580901 
L 277.744192 273.039043 
L 277.973306 202.260201 
L 278.20242 295.068068 
L 278.431534 278.94893 
L 278.660648 294.745126 
L 278.889762 291.374885 
L 279.118876 293.429935 
L 279.577104 282.551364 
L 279.806218 285.195632 
L 280.035332 293.595735 
L 280.264446 283.286354 
L 280.722674 295.417078 
L 280.951788 270.362195 
L 281.180902 285.966688 
L 281.410016 284.533386 
L 281.63913 287.804136 
L 281.868244 274.975801 
L 282.097358 292.646597 
L 282.326472 283.253426 
L 282.555586 290.678237 
L 282.7847 291.575068 
L 283.013814 287.392176 
L 283.242928 293.791388 
L 283.472042 291.52949 
L 283.701156 286.746213 
L 283.93027 292.146302 
L 284.159384 282.45397 
L 284.388498 288.125698 
L 284.617612 289.232656 
L 284.846726 283.530683 
L 285.304954 293.72885 
L 285.534068 276.006015 
L 285.763182 282.995314 
L 285.992296 280.206913 
L 286.22141 293.533539 
L 286.450524 283.519929 
L 286.679638 292.26546 
L 286.908752 282.916534 
L 287.36698 292.952961 
L 287.596094 291.929287 
L 287.825208 291.414932 
L 288.054322 278.736948 
L 288.283436 287.224234 
L 288.51255 274.735144 
L 288.741664 288.575819 
L 288.970778 280.562205 
L 289.429006 286.587762 
L 289.65812 292.988927 
L 289.887234 261.715801 
L 290.116348 294.47881 
L 290.345462 267.504065 
L 290.574576 285.086234 
L 290.80369 259.376358 
L 291.032804 284.732641 
L 291.261918 294.54226 
L 291.491032 293.239456 
L 291.94926 273.208332 
L 292.178374 284.768352 
L 292.407488 288.731788 
L 292.636602 284.831765 
L 292.865716 289.131215 
L 293.09483 253.944021 
L 293.323944 253.509115 
L 293.553058 295.084729 
L 293.782172 294.729933 
L 294.011286 292.214697 
L 294.2404 279.095537 
L 294.469514 293.059759 
L 294.698628 274.379658 
L 294.927742 268.319312 
L 295.156856 289.292982 
L 295.615084 274.404414 
L 295.844198 294.183101 
L 296.073312 286.738601 
L 296.302426 288.479947 
L 296.53154 292.463347 
L 296.760654 290.249373 
L 297.447996 256.142725 
L 297.67711 291.377904 
L 297.906224 291.678274 
L 298.135338 279.545996 
L 298.364452 291.067017 
L 298.593566 292.690368 
L 298.82268 286.102374 
L 299.051794 285.561353 
L 299.510022 289.723686 
L 299.739136 294.778615 
L 299.96825 294.658448 
L 300.197364 238.254712 
L 300.426478 280.795334 
L 300.655592 282.611142 
L 300.884706 264.096011 
L 301.11382 262.272901 
L 301.342934 264.218024 
L 301.572049 283.549014 
L 301.801163 282.272915 
L 302.030277 294.778387 
L 302.259391 290.632699 
L 302.488505 276.314494 
L 302.717619 294.093491 
L 302.946733 295.283257 
L 303.175847 279.067973 
L 303.404961 279.490249 
L 303.634075 291.907068 
L 303.863189 287.200702 
L 304.092303 271.142875 
L 304.550531 288.571025 
L 304.779645 276.908811 
L 305.008759 290.649976 
L 305.237873 270.619697 
L 305.696101 293.684043 
L 305.925215 277.130272 
L 306.154329 286.476052 
L 306.383443 282.072734 
L 306.612557 281.922367 
L 306.841671 295.168248 
L 307.299899 254.213995 
L 307.529013 252.16431 
L 307.758127 275.582717 
L 307.987241 237.554856 
L 308.216355 293.572592 
L 308.445469 292.077678 
L 308.674583 249.706399 
L 308.903697 294.532949 
L 309.132811 293.832766 
L 309.361925 277.698179 
L 309.591039 272.20579 
L 309.820153 77.6566 
L 310.049267 290.071543 
L 310.278381 280.317085 
L 310.507495 292.696054 
L 310.736609 288.010402 
L 310.965723 280.307658 
L 311.194837 291.106145 
L 311.423951 286.408612 
L 311.653065 293.802271 
L 311.882179 287.450683 
L 312.111293 245.79285 
L 312.340407 289.183555 
L 312.569521 291.541432 
L 312.798635 268.666355 
L 313.027749 279.044738 
L 313.256863 294.800163 
L 313.485977 266.492113 
L 313.715091 286.412769 
L 313.944205 292.164735 
L 314.402433 269.28201 
L 315.089775 285.958125 
L 315.318889 274.039337 
L 315.548003 288.302989 
L 316.006231 264.773855 
L 316.235345 289.68801 
L 316.464459 294.049084 
L 316.693573 294.520816 
L 316.922687 286.262994 
L 317.151801 265.228179 
L 317.610029 293.766441 
L 317.839143 288.045917 
L 318.068257 213.906338 
L 318.297371 273.93902 
L 318.526485 273.126863 
L 318.755599 270.780256 
L 318.984713 294.806455 
L 319.213827 271.1763 
L 319.442941 290.436415 
L 319.901169 264.277042 
L 320.130283 282.382461 
L 320.359397 271.287272 
L 320.817625 293.899118 
L 321.046739 288.652291 
L 321.504967 261.045605 
L 321.963195 291.432873 
L 322.192309 290.891098 
L 322.650537 278.160213 
L 322.879651 293.728855 
L 323.337879 277.639092 
L 323.566993 291.063256 
L 323.796107 295.339208 
L 324.025221 279.754903 
L 324.254335 292.721859 
L 324.483449 218.488994 
L 324.712563 289.493463 
L 324.941677 294.636338 
L 325.399905 285.242041 
L 325.629019 282.48105 
L 325.858133 282.436391 
L 326.087247 273.158551 
L 326.316361 290.421894 
L 326.545475 275.764643 
L 326.774589 290.107757 
L 327.003703 238.45149 
L 327.232817 280.145024 
L 327.461931 280.105456 
L 327.691045 290.362324 
L 327.920159 267.254776 
L 328.378387 292.949752 
L 328.607501 295.436978 
L 328.836615 294.376962 
L 329.065729 270.809163 
L 329.294843 289.262131 
L 329.523957 287.911929 
L 329.753071 293.981702 
L 329.982185 262.678736 
L 330.211299 293.32019 
L 330.440413 292.52435 
L 330.669527 254.720969 
L 330.898641 282.654084 
L 331.127755 284.338515 
L 331.356869 280.224594 
L 331.585983 289.143533 
L 331.815097 288.295013 
L 332.044211 290.23006 
L 332.273325 289.785487 
L 332.502439 278.395296 
L 332.731553 217.159501 
L 332.960667 274.749005 
L 333.189781 283.759192 
L 333.418895 288.11042 
L 333.648009 288.236221 
L 333.877123 291.155845 
L 334.106237 284.687384 
L 334.335351 290.396915 
L 334.564465 280.653774 
L 334.793579 292.019962 
L 335.022693 287.968635 
L 335.251807 293.727128 
L 335.480921 164.235567 
L 335.710035 281.731433 
L 335.939149 294.909149 
L 336.168263 291.040802 
L 336.397377 285.278553 
L 336.626491 250.097515 
L 336.855605 287.345775 
L 337.084719 269.999329 
L 337.313833 279.935951 
L 337.542947 283.470411 
L 337.772061 295.106011 
L 338.001175 280.347969 
L 338.230289 292.818017 
L 338.459403 294.013162 
L 338.688517 277.754898 
L 338.917631 288.665983 
L 339.146745 290.370952 
L 339.375859 278.32352 
L 339.604973 291.523575 
L 339.834087 193.510998 
L 340.063201 283.618905 
L 340.292315 268.896093 
L 340.521429 269.736225 
L 340.979657 294.211957 
L 341.208771 284.822176 
L 341.437885 208.995415 
L 341.666999 294.459611 
L 341.896113 285.519681 
L 342.125227 285.531041 
L 342.354341 275.484892 
L 342.583455 286.734463 
L 342.812569 279.725399 
L 343.041683 288.861144 
L 343.270797 279.345624 
L 343.499911 276.400642 
L 343.729025 269.478657 
L 343.958139 283.158971 
L 344.416367 290.313103 
L 344.645481 290.039224 
L 344.874595 221.778162 
L 345.10371 269.29587 
L 345.332824 270.595214 
L 345.561938 280.837396 
L 345.791052 282.80323 
L 346.020166 289.515649 
L 346.24928 284.142007 
L 346.478394 273.88403 
L 346.707508 278.385575 
L 346.936622 258.867495 
L 347.165736 293.328993 
L 347.39485 293.891267 
L 347.853078 284.492395 
L 348.082192 291.582549 
L 348.311306 285.221298 
L 348.54042 65.894853 
L 348.769534 290.030976 
L 348.998648 283.538053 
L 349.227762 289.897302 
L 349.456876 263.37302 
L 349.68599 273.713509 
L 350.144218 281.281405 
L 350.373332 283.664045 
L 350.602446 283.869705 
L 350.83156 259.217934 
L 351.060674 281.706264 
L 351.289788 264.462518 
L 351.518902 293.259779 
L 351.748016 293.804553 
L 351.97713 265.128335 
L 352.206244 293.215845 
L 352.435358 271.805054 
L 352.664472 263.758639 
L 352.893586 294.850056 
L 353.351814 282.989181 
L 353.580928 283.528513 
L 353.810042 278.489682 
L 354.039156 284.035562 
L 354.26827 282.97649 
L 354.726498 291.639336 
L 354.955612 278.0631 
L 355.184726 273.454424 
L 355.642954 293.045696 
L 355.872068 294.021979 
L 356.101182 280.485358 
L 356.330296 288.095784 
L 356.55941 289.126229 
L 356.788524 284.825366 
L 357.017638 264.61081 
L 357.246752 256.231251 
L 357.475866 293.632784 
L 357.70498 295.292478 
L 357.934094 280.710031 
L 358.392322 295.020791 
L 358.621436 295.218821 
L 358.85055 292.952546 
L 359.079664 280.007747 
L 359.308778 275.565766 
L 359.537892 284.608191 
L 359.99612 290.81039 
L 360.225234 271.207937 
L 360.454348 287.082956 
L 360.683462 292.865224 
L 360.912576 255.464992 
L 361.14169 290.964253 
L 361.370804 294.38587 
L 361.599918 283.361493 
L 361.829032 288.203275 
L 362.058146 257.349196 
L 362.28726 294.257922 
L 362.516374 294.552716 
L 362.745488 295.359307 
L 362.974602 273.338805 
L 363.203716 286.918179 
L 363.43283 280.018628 
L 363.661944 286.489613 
L 363.891058 280.593954 
L 364.120172 228.772834 
L 364.349286 281.758959 
L 364.5784 174.052499 
L 364.807514 283.069202 
L 365.036628 294.910751 
L 365.494856 285.163477 
L 365.72397 295.024984 
L 365.953084 228.24778 
L 366.182198 295.197389 
L 366.411312 269.922018 
L 366.640426 266.193563 
L 366.86954 283.358873 
L 367.098654 256.624613 
L 367.327768 294.832307 
L 367.556882 271.108928 
L 367.785996 293.677337 
L 368.01511 291.521023 
L 368.244224 282.573372 
L 368.473338 287.185128 
L 368.702452 283.423694 
L 368.931566 281.729386 
L 369.16068 289.544423 
L 369.389794 292.438098 
L 369.618908 290.759074 
L 369.848022 294.563472 
L 370.077136 284.051205 
L 370.30625 287.999181 
L 370.535364 279.816766 
L 370.764478 285.243964 
L 370.993592 282.857152 
L 371.222706 285.531796 
L 371.45182 279.682028 
L 371.680934 286.690571 
L 371.910048 289.94664 
L 372.139162 269.213992 
L 372.368276 270.356453 
L 372.59739 284.483483 
L 372.826504 282.990308 
L 373.055618 287.464325 
L 373.284732 259.039231 
L 373.513846 279.246448 
L 373.74296 263.625169 
L 373.972074 264.188649 
L 374.201188 286.601341 
L 374.430302 270.246912 
L 374.659416 290.547702 
L 374.88853 278.182547 
L 375.117644 287.426992 
L 375.346758 271.292297 
L 375.575872 290.683922 
L 375.804986 286.227095 
L 376.0341 288.840982 
L 376.263214 258.870345 
L 376.721442 293.962105 
L 376.950556 291.103145 
L 377.17967 291.805571 
L 377.408784 290.457918 
L 377.637898 291.102642 
L 377.867012 284.645205 
L 378.096126 174.706381 
L 378.32524 280.520956 
L 378.554354 280.981349 
L 379.012582 288.290596 
L 379.241696 277.32442 
L 379.699924 293.715836 
L 379.929038 287.485022 
L 380.158152 291.488741 
L 380.387266 286.998813 
L 380.61638 292.726306 
L 380.845494 272.555223 
L 381.074608 290.430059 
L 381.303722 269.296916 
L 381.532836 294.176586 
L 381.76195 250.118037 
L 382.220178 291.889111 
L 382.449292 293.381941 
L 382.678406 243.183954 
L 382.90752 286.341929 
L 383.136634 293.630723 
L 383.365748 287.794389 
L 383.594862 287.850532 
L 384.05309 219.045315 
L 384.282204 265.688555 
L 384.511318 269.790544 
L 384.740432 285.459365 
L 384.969546 287.666664 
L 385.19866 295.386124 
L 385.427774 294.521788 
L 385.656888 262.393031 
L 385.886002 293.632995 
L 386.115116 292.298244 
L 386.34423 294.837459 
L 386.573344 287.337989 
L 386.802458 243.301735 
L 387.260686 290.732854 
L 387.4898 295.434624 
L 387.948028 291.16194 
L 388.177142 287.624427 
L 388.406256 292.276598 
L 388.635371 286.44322 
L 388.864485 274.572033 
L 389.093599 273.010084 
L 389.322713 291.390256 
L 389.551827 281.201902 
L 389.780941 287.775223 
L 390.010055 276.860644 
L 390.239169 287.671441 
L 390.468283 286.49321 
L 390.697397 248.461205 
L 390.926511 293.538063 
L 391.155625 278.517087 
L 391.384739 289.234723 
L 391.613853 151.663413 
L 392.072081 230.47822 
L 392.301195 276.521194 
L 392.530309 293.083834 
L 392.759423 287.120315 
L 392.988537 292.914862 
L 393.217651 284.381998 
L 393.446765 285.443917 
L 393.675879 202.474206 
L 393.904993 278.274628 
L 394.134107 290.013594 
L 394.363221 260.381376 
L 394.592335 292.475221 
L 394.821449 295.308388 
L 395.050563 283.600803 
L 395.279677 242.68858 
L 395.508791 295.178655 
L 395.737905 283.973203 
L 395.967019 293.416994 
L 396.196133 282.320565 
L 396.425247 279.65489 
L 396.654361 292.00032 
L 396.883475 291.161944 
L 397.112589 285.457827 
L 397.341703 287.360416 
L 397.570817 295.255134 
L 397.799931 274.270505 
L 398.029045 292.309349 
L 398.487273 267.941751 
L 398.487273 267.941751 
" style="fill:none;stroke:#1f77b4;stroke-linecap:square;stroke-width:1.5;"/>
   </g>
   <g id="line2d_16">
    <path clip-path="url(#pfbec2e4f02)" d="M 73.832727 294.540986 
L 74.290955 284.216444 
L 74.520069 292.135837 
L 74.749183 280.219696 
L 74.978297 283.510434 
L 75.207411 222.900156 
L 75.436525 286.685085 
L 75.665639 294.004317 
L 75.894753 287.78444 
L 76.123867 288.175154 
L 76.352981 287.580347 
L 76.582095 293.605713 
L 76.811209 282.617331 
L 77.040323 295.142368 
L 77.269437 291.054327 
L 77.498551 289.088638 
L 78.185893 293.609 
L 78.644121 280.10126 
L 78.873235 294.448661 
L 79.102349 290.49878 
L 79.331463 294.299044 
L 79.560577 288.550935 
L 80.018805 293.980179 
L 80.247919 288.379904 
L 80.706147 290.402416 
L 80.935261 294.284862 
L 81.164375 291.174265 
L 81.393489 295.11297 
L 81.622603 291.342573 
L 82.080831 278.930619 
L 82.309945 293.611724 
L 82.539059 292.520353 
L 82.768173 293.235379 
L 82.997287 294.895729 
L 83.226401 269.3845 
L 83.455515 290.710667 
L 83.684629 291.647819 
L 83.913744 289.245299 
L 84.371972 288.567935 
L 84.601086 276.216091 
L 84.8302 290.100739 
L 85.059314 294.849801 
L 85.288428 294.999231 
L 85.746656 290.649149 
L 85.97577 294.504827 
L 86.204884 290.890528 
L 86.433998 293.80896 
L 86.663112 287.491122 
L 87.12134 292.810008 
L 87.350454 260.561392 
L 87.579568 290.972146 
L 87.808682 295.479171 
L 88.037796 290.82976 
L 88.26691 290.158125 
L 88.496024 291.625184 
L 88.954252 289.823764 
L 89.183366 291.111807 
L 89.41248 230.590944 
L 89.641594 292.467381 
L 89.870708 291.846182 
L 90.099822 293.276611 
L 90.328936 287.160047 
L 90.787164 294.434103 
L 91.016278 295.334532 
L 91.245392 288.802834 
L 91.474506 291.631289 
L 91.70362 278.190327 
L 91.932734 225.189876 
L 92.161848 275.710979 
L 92.390962 289.298929 
L 92.620076 291.1011 
L 92.84919 288.287203 
L 93.078304 292.357586 
L 93.307418 288.020559 
L 93.765646 294.60908 
L 93.99476 293.577912 
L 94.223874 294.759918 
L 94.452988 291.30275 
L 94.682102 289.929614 
L 94.911216 294.914701 
L 95.369444 294.072035 
L 95.598558 287.287499 
L 95.827672 292.102401 
L 96.056786 294.233956 
L 96.2859 280.982528 
L 96.515014 285.765872 
L 96.744128 294.448661 
L 96.973242 271.059971 
L 97.202356 295.093528 
L 97.43147 291.495196 
L 97.660584 292.157345 
L 97.889698 246.386525 
L 98.118812 289.793709 
L 98.347926 286.503064 
L 98.57704 285.839976 
L 98.806154 291.787763 
L 99.035268 288.582775 
L 99.264382 293.82549 
L 99.493496 291.633637 
L 99.951724 295.28419 
L 100.180838 289.789858 
L 100.409952 291.015631 
L 100.639066 293.538089 
L 100.86818 291.592875 
L 101.097294 292.831703 
L 101.326408 290.989991 
L 101.555522 293.867661 
L 101.784636 293.532078 
L 102.01375 287.052789 
L 102.242864 291.518864 
L 102.471978 291.107957 
L 102.701092 291.169569 
L 102.930206 292.236897 
L 103.15932 294.576771 
L 103.388434 295.109213 
L 103.617548 292.422017 
L 103.846662 293.255854 
L 104.075776 292.015335 
L 104.30489 294.345347 
L 104.534004 293.01795 
L 104.763118 292.363503 
L 104.992232 294.089129 
L 105.221346 291.689708 
L 105.45046 293.653989 
L 105.679574 292.496778 
L 105.908688 292.427088 
L 106.137802 290.089938 
L 106.366916 294.278381 
L 106.59603 288.288142 
L 106.825144 292.433757 
L 107.054258 290.699303 
L 107.283372 294.237525 
L 107.512486 293.456659 
L 107.7416 295.015385 
L 107.970714 285.937749 
L 108.199828 292.417039 
L 108.428942 291.423722 
L 108.88717 282.432305 
L 109.116284 292.086997 
L 109.345398 295.411266 
L 109.574512 278.972602 
L 109.803626 294.50492 
L 110.03274 295.420376 
L 110.261854 295.347211 
L 110.720082 287.131401 
L 110.949196 292.547872 
L 111.17831 288.68036 
L 111.407424 291.093023 
L 111.636538 295.118512 
L 111.865652 292.219615 
L 112.094766 293.968157 
L 112.32388 292.640103 
L 112.552994 295.204168 
L 112.782108 290.775004 
L 113.011222 288.799546 
L 113.240336 290.459802 
L 113.46945 294.296602 
L 113.698564 289.053981 
L 113.927678 295.35773 
L 114.156792 294.297823 
L 114.385906 294.23668 
L 114.61502 290.91645 
L 114.844134 265.2093 
L 115.073248 288.145757 
L 115.302362 291.236629 
L 115.531476 280.523063 
L 115.76059 292.00275 
L 116.218818 291.056675 
L 116.447932 295.444139 
L 116.677046 288.413997 
L 116.90616 289.837382 
L 117.135274 295.365338 
L 117.364388 287.6058 
L 117.593502 294.156189 
L 117.822616 291.454152 
L 118.05173 261.547007 
L 118.280844 293.527946 
L 118.509958 292.524579 
L 118.739072 262.874498 
L 118.968186 271.20865 
L 119.1973 293.907766 
L 119.426414 291.451053 
L 119.655528 295.396426 
L 119.884642 282.544542 
L 120.113756 294.074383 
L 120.34287 260.87819 
L 120.571984 292.68171 
L 120.801098 292.358056 
L 121.030212 284.627446 
L 121.259326 290.756125 
L 121.48844 290.370858 
L 121.717554 292.578209 
L 121.946668 259.897646 
L 122.175782 288.661857 
L 122.63401 294.264387 
L 123.092238 294.91827 
L 123.321352 290.695358 
L 123.77958 292.416851 
L 124.008694 294.273309 
L 124.237808 288.704122 
L 124.466922 279.188434 
L 124.696036 290.954019 
L 124.92515 295.066949 
L 125.154264 287.446415 
L 125.383378 293.678127 
L 125.612492 293.129811 
L 125.841606 271.487785 
L 126.07072 290.238335 
L 126.299834 290.018088 
L 126.528948 287.822196 
L 126.758062 294.496561 
L 126.987176 289.205852 
L 127.21629 291.646316 
L 127.445405 290.833799 
L 127.903633 295.390227 
L 128.132747 293.794872 
L 128.361861 289.007771 
L 128.590975 290.477272 
L 128.820089 295.395581 
L 129.049203 281.372774 
L 129.278317 287.72386 
L 129.507431 290.508548 
L 129.736545 295.223141 
L 129.965659 292.081268 
L 130.194773 295.471658 
L 130.423887 293.14869 
L 130.653001 294.815896 
L 130.882115 291.229491 
L 131.111229 291.863464 
L 131.340343 289.890542 
L 131.569457 294.485103 
L 131.798571 285.038917 
L 132.027685 291.848154 
L 132.256799 294.185117 
L 132.485913 290.79623 
L 132.944141 295.417746 
L 133.173255 292.670815 
L 133.402369 291.452368 
L 133.631483 293.06416 
L 133.860597 287.67859 
L 134.089711 293.278959 
L 134.318825 293.800131 
L 134.547939 291.126553 
L 134.777053 291.081752 
L 135.006167 283.423838 
L 135.235281 292.323117 
L 135.464395 267.015417 
L 135.693509 279.029331 
L 135.922623 284.301631 
L 136.151737 294.897044 
L 136.380851 286.926464 
L 136.609965 293.587586 
L 136.839079 288.202392 
L 137.068193 294.384513 
L 137.297307 294.103123 
L 137.526421 294.309 
L 137.755535 292.115644 
L 137.984649 292.415818 
L 138.213763 230.652838 
L 138.442877 291.971286 
L 138.671991 292.332039 
L 138.901105 277.225187 
L 139.130219 290.200766 
L 139.359333 294.715963 
L 139.588447 287.124545 
L 139.817561 295.286913 
L 140.046675 290.532404 
L 140.275789 294.546246 
L 140.504903 293.899782 
L 140.734017 290.258997 
L 141.192245 295.2593 
L 141.421359 294.771095 
L 141.650473 295.442542 
L 141.879587 290.284168 
L 142.108701 280.964214 
L 142.337815 294.462656 
L 142.566929 292.796671 
L 142.796043 295.279869 
L 143.025157 294.769216 
L 143.254271 287.629844 
L 143.483385 295.442542 
L 143.941613 289.769289 
L 144.399841 295.21356 
L 144.628955 293.112154 
L 144.858069 295.246809 
L 145.087183 292.261504 
L 145.316297 292.327625 
L 145.545411 294.831393 
L 145.774525 291.018449 
L 146.003639 282.457007 
L 146.232753 294.62298 
L 146.461867 294.74536 
L 146.690981 290.09191 
L 146.920095 293.251816 
L 147.149209 288.749674 
L 147.378323 294.863232 
L 147.607437 288.924275 
L 147.836551 294.112609 
L 148.065665 293.525034 
L 148.294779 292.164671 
L 148.523893 293.68658 
L 148.753007 293.452151 
L 148.982121 295.457194 
L 149.211235 292.48316 
L 149.440349 255.264672 
L 149.669463 286.829912 
L 149.898577 284.148539 
L 150.127691 291.479042 
L 150.356805 294.119465 
L 150.585919 292.778074 
L 150.815033 292.693732 
L 151.044147 276.398393 
L 151.273261 290.287644 
L 151.731489 293.550111 
L 151.960603 290.900953 
L 152.189717 294.694736 
L 152.647945 288.231413 
L 152.877059 276.621363 
L 153.106173 294.48886 
L 153.564401 287.493376 
L 153.793515 293.647978 
L 154.251743 291.471152 
L 154.480857 291.938225 
L 154.709971 288.549714 
L 154.939085 293.509161 
L 155.168199 289.468645 
L 155.397313 292.381161 
L 155.626427 291.731222 
L 155.855541 289.404403 
L 156.084655 285.348859 
L 156.313769 287.656706 
L 156.542883 294.009953 
L 156.771997 295.254416 
L 157.001111 293.198844 
L 157.230225 295.071739 
L 157.459339 285.158198 
L 157.688453 289.21609 
L 157.917567 283.987932 
L 158.146681 293.89518 
L 158.375795 293.418527 
L 158.604909 290.80412 
L 158.834023 293.108585 
L 159.063137 291.900751 
L 159.292251 295.27461 
L 159.521365 259.479037 
L 159.750479 294.15694 
L 159.979593 291.333557 
L 160.208707 295.442542 
L 160.437821 291.727465 
L 160.666935 293.551145 
L 160.896049 293.962992 
L 161.125163 286.796194 
L 161.354277 294.427059 
L 161.583391 295.469216 
L 161.812505 294.381977 
L 162.041619 292.602065 
L 162.270733 293.234722 
L 162.499847 291.854071 
L 162.728961 293.040022 
L 162.958075 291.736951 
L 163.187189 294.701123 
L 163.416303 292.349697 
L 163.645417 293.132723 
L 163.874531 291.235596 
L 164.103645 293.289572 
L 164.561873 290.133706 
L 164.790987 289.940696 
L 165.020101 289.443756 
L 165.249215 290.269704 
L 165.478329 295.381681 
L 165.707443 293.369688 
L 165.936557 294.615748 
L 166.165671 294.928038 
L 166.394785 291.821481 
L 166.623899 295.430144 
L 167.082127 291.445981 
L 167.311241 293.164187 
L 167.540355 285.63626 
L 167.769469 294.599312 
L 167.998583 294.650311 
L 168.227697 293.047066 
L 168.456811 288.027885 
L 168.685925 276.930178 
L 168.915039 292.440613 
L 169.144153 293.809711 
L 169.373267 293.945334 
L 169.602381 290.405985 
L 169.831495 294.15741 
L 170.060609 294.021787 
L 170.289723 295.451934 
L 170.518837 289.44864 
L 170.747951 291.573997 
L 170.977066 291.955037 
L 171.20618 295.076622 
L 171.435294 294.972839 
L 171.664408 288.043852 
L 172.122636 292.952299 
L 172.35175 292.425961 
L 172.580864 294.414568 
L 172.809978 295.133915 
L 173.039092 295.355664 
L 173.268206 294.634533 
L 173.49732 293.14606 
L 173.726434 293.803137 
L 174.184662 295.437846 
L 174.413776 291.96659 
L 174.64289 290.934577 
L 174.872004 294.655759 
L 175.101118 294.679991 
L 175.330232 289.287564 
L 175.559346 291.213525 
L 175.78846 288.49045 
L 176.017574 293.019641 
L 176.246688 287.330515 
L 176.475802 290.23129 
L 176.704916 275.367225 
L 176.93403 293.286942 
L 177.163144 294.835807 
L 177.392258 293.919975 
L 177.621372 294.274342 
L 177.850486 293.816568 
L 178.308714 288.867734 
L 178.537828 291.481108 
L 178.766942 288.692851 
L 178.996056 289.183029 
L 179.22517 290.296566 
L 179.454284 293.657934 
L 179.683398 295.207737 
L 179.912512 293.66695 
L 180.141626 278.561788 
L 180.37074 294.873376 
L 180.599854 295.463017 
L 180.828968 293.69569 
L 181.058082 293.415991 
L 181.287196 288.686934 
L 181.745424 292.228725 
L 181.974538 287.459564 
L 182.432766 293.003768 
L 182.66188 293.102762 
L 182.890994 290.389643 
L 183.120108 295.258361 
L 183.349222 290.417443 
L 183.578336 291.657493 
L 183.80745 290.296284 
L 184.036564 291.508251 
L 184.265678 295.355946 
L 184.494792 294.333607 
L 184.723906 283.749183 
L 184.95302 292.351575 
L 185.411248 288.781889 
L 185.640362 287.383112 
L 185.869476 295.35078 
L 186.09859 290.300699 
L 186.327704 295.347493 
L 186.556818 288.462179 
L 186.785932 294.496374 
L 187.015046 289.508656 
L 187.24416 295.164815 
L 187.473274 289.613848 
L 187.702388 289.551578 
L 187.931502 288.735304 
L 188.160616 293.462952 
L 188.38973 287.011557 
L 188.618844 292.204775 
L 188.847958 292.693732 
L 189.077072 294.528119 
L 189.5353 289.195239 
L 189.764414 288.460864 
L 190.222642 294.309187 
L 190.451756 292.189748 
L 190.68087 293.606934 
L 190.909984 291.3128 
L 191.139098 291.322756 
L 191.368212 294.570854 
L 191.597326 293.198938 
L 191.82644 295.250002 
L 192.055554 292.98489 
L 192.284668 293.344798 
L 192.513782 291.703515 
L 192.742896 285.251181 
L 192.97201 285.207695 
L 193.201124 291.742023 
L 193.430238 290.506857 
L 193.659352 295.3721 
L 193.888466 294.65914 
L 194.11758 294.638665 
L 194.346694 290.518503 
L 194.575808 293.617735 
L 194.804922 283.065902 
L 195.034036 294.939684 
L 195.26315 291.516892 
L 195.950492 294.372397 
L 196.179606 288.759066 
L 196.40872 293.177054 
L 196.637834 295.371067 
L 196.866948 291.945551 
L 197.096062 294.185586 
L 197.325176 294.575362 
L 197.55429 295.448177 
L 197.783404 294.191128 
L 198.012518 292.185709 
L 198.241632 287.681689 
L 198.470746 293.643845 
L 198.69986 292.565999 
L 198.928974 290.393024 
L 199.158088 283.024388 
L 199.387202 291.868348 
L 199.616316 292.40079 
L 199.84543 289.868564 
L 200.074544 290.783175 
L 200.303658 288.293777 
L 200.532772 293.755424 
L 200.761886 288.138525 
L 200.991 293.70264 
L 201.220114 288.590289 
L 201.449228 293.458162 
L 201.678342 291.758271 
L 201.907456 295.469779 
L 202.13657 292.474049 
L 202.365684 291.552207 
L 202.594798 288.823121 
L 202.823912 293.775054 
L 203.053026 290.906964 
L 203.511254 295.113816 
L 203.740368 292.876128 
L 204.198596 294.725261 
L 204.42771 294.954524 
L 204.656824 294.393341 
L 204.885938 293.326671 
L 205.115052 286.79873 
L 205.344166 285.68895 
L 205.57328 293.929462 
L 205.802394 294.221652 
L 206.031508 295.340073 
L 206.260622 293.099475 
L 206.489736 292.962724 
L 206.71885 291.481014 
L 207.177078 293.713629 
L 207.406192 295.488 
L 207.635306 288.729669 
L 207.86442 291.645847 
L 208.093534 292.454232 
L 208.322648 294.17441 
L 208.551762 288.345528 
L 208.780876 295.314714 
L 209.00999 292.863731 
L 209.239104 295.257516 
L 209.468218 286.814885 
L 209.697332 293.490847 
L 209.926446 293.630321 
L 210.15556 290.974118 
L 210.384674 294.807255 
L 210.613788 295.300438 
L 211.072016 290.630834 
L 211.30113 294.549721 
L 211.530244 220.470493 
L 211.759358 293.965152 
L 211.988472 283.476152 
L 212.4467 290.43172 
L 212.675814 292.898764 
L 212.904928 287.707236 
L 213.134042 292.826538 
L 213.363156 291.234845 
L 213.59227 293.896119 
L 213.821384 285.724734 
L 214.050498 289.005141 
L 214.279612 290.638441 
L 214.508727 290.396968 
L 214.737841 292.240372 
L 214.966955 290.742695 
L 215.196069 275.420197 
L 215.425183 292.74971 
L 215.654297 295.365056 
L 215.883411 289.35068 
L 216.112525 293.938478 
L 216.341639 292.815455 
L 216.570753 295.248124 
L 216.799867 290.748142 
L 217.258095 292.767179 
L 217.487209 286.179598 
L 217.716323 294.667029 
L 217.945437 290.430968 
L 218.174551 284.037147 
L 218.403665 289.333868 
L 218.632779 291.61814 
L 218.861893 285.230518 
L 219.091007 288.188209 
L 219.320121 294.456363 
L 219.549235 294.73409 
L 219.778349 294.790818 
L 220.007463 284.220483 
L 220.236577 293.241954 
L 220.465691 251.015179 
L 220.694805 290.4722 
L 220.923919 291.803635 
L 221.153033 291.300778 
L 221.382147 288.81495 
L 221.611261 294.911226 
L 221.840375 295.472033 
L 222.069489 288.031736 
L 222.298603 286.567213 
L 222.527717 293.463422 
L 222.756831 292.546839 
L 222.985945 285.161861 
L 223.444173 294.409402 
L 223.673287 290.597773 
L 223.902401 294.087532 
L 224.131515 292.230322 
L 224.360629 291.91775 
L 224.589743 294.83468 
L 224.818857 295.073053 
L 225.277085 286.649676 
L 225.506199 288.997721 
L 225.735313 286.679168 
L 225.964427 291.81716 
L 226.193541 290.270362 
L 226.422655 293.25623 
L 226.651769 294.268801 
L 226.880883 288.372202 
L 227.109997 286.219139 
L 227.339111 286.976806 
L 227.568225 291.691023 
L 227.797339 290.735651 
L 228.026453 290.605757 
L 228.255567 291.625184 
L 228.484681 292.108599 
L 228.713795 294.827918 
L 228.942909 290.928848 
L 229.172023 289.363265 
L 229.401137 292.412906 
L 229.630251 290.015928 
L 229.859365 277.603691 
L 230.088479 294.562213 
L 230.317593 288.992462 
L 230.546707 290.701745 
L 230.775821 288.492046 
L 231.004935 289.677527 
L 231.234049 293.903445 
L 231.463163 288.599869 
L 231.692277 291.363893 
L 231.921391 291.234094 
L 232.150505 293.613978 
L 232.379619 293.913401 
L 232.608733 290.806655 
L 232.837847 295.488 
L 233.066961 292.617562 
L 233.296075 286.630422 
L 233.754303 292.889935 
L 233.983417 291.27232 
L 234.212531 286.666488 
L 234.441645 286.617461 
L 234.670759 287.740108 
L 234.899873 295.11992 
L 235.128987 292.695611 
L 235.358101 292.536225 
L 235.587215 291.468147 
L 236.045443 294.367795 
L 236.274557 287.724142 
L 236.503671 293.731474 
L 236.732785 289.087792 
L 236.961899 294.372772 
L 237.191013 286.995402 
L 237.420127 293.799098 
L 237.649241 292.361531 
L 237.878355 285.920467 
L 238.107469 258.229783 
L 238.336583 291.091332 
L 238.565697 294.155813 
L 238.794811 294.081521 
L 239.023925 289.95131 
L 239.253039 295.407885 
L 239.482153 294.948983 
L 239.711267 292.002468 
L 239.940381 292.117428 
L 240.169495 294.312193 
L 240.398609 292.760605 
L 240.856837 295.406194 
L 241.085951 295.020927 
L 241.315065 293.939981 
L 241.544179 287.977731 
L 241.773293 291.218878 
L 242.002407 292.290338 
L 242.231521 292.233234 
L 242.460635 295.429393 
L 242.689749 292.243941 
L 242.918863 293.216219 
L 243.147977 291.794337 
L 243.377091 293.450836 
L 243.606205 291.434992 
L 243.835319 280.924579 
L 244.064433 249.62185 
L 244.293547 291.791707 
L 244.522661 295.301753 
L 244.751775 294.182957 
L 244.980889 290.314975 
L 245.210003 289.755295 
L 245.439117 293.754203 
L 245.668231 285.011774 
L 245.897345 288.820491 
L 246.126459 289.920691 
L 246.355573 295.036142 
L 246.584687 293.641779 
L 246.813801 289.812775 
L 247.042915 283.770785 
L 247.501143 291.35901 
L 247.959371 295.376891 
L 248.188485 290.873903 
L 248.417599 292.580087 
L 248.646713 291.857828 
L 248.875827 294.409308 
L 249.104941 295.271886 
L 249.334055 292.823814 
L 249.563169 293.153949 
L 249.792283 294.412971 
L 250.021397 291.137072 
L 250.250511 289.545379 
L 250.479625 290.798109 
L 250.708739 294.729112 
L 250.937853 295.302598 
L 251.166967 289.144052 
L 251.396081 293.904103 
L 251.625195 288.678575 
L 252.083423 295.423945 
L 252.312537 283.696493 
L 252.541651 294.814956 
L 252.770765 287.090451 
L 252.999879 288.476831 
L 253.228993 293.482112 
L 253.458107 289.723737 
L 253.687221 294.026295 
L 254.145449 295.116727 
L 254.374563 293.826617 
L 254.603677 294.293878 
L 254.832791 282.39793 
L 255.061905 295.420376 
L 255.291019 294.958093 
L 255.520133 291.270723 
L 255.749247 294.041698 
L 255.978361 295.387973 
L 256.207475 294.736438 
L 256.436589 294.994441 
L 256.665703 291.768603 
L 256.894817 293.601956 
L 257.123931 288.062448 
L 257.353045 294.236492 
L 257.582159 295.259676 
L 257.811273 288.392865 
L 258.040388 292.690539 
L 258.269502 292.724163 
L 258.498616 288.97349 
L 258.72773 294.219398 
L 258.956844 292.524955 
L 259.185958 293.79891 
L 259.415072 291.355159 
L 259.644186 292.434132 
L 259.8733 292.252394 
L 260.102414 294.687411 
L 260.331528 294.599594 
L 260.560642 288.74263 
L 260.789756 292.877068 
L 261.01887 291.756674 
L 261.247984 293.924202 
L 261.477098 292.636346 
L 261.706212 293.429046 
L 261.935326 295.419249 
L 262.16444 290.943875 
L 262.393554 283.563594 
L 262.851782 289.197024 
L 263.080896 287.927952 
L 263.31001 289.142267 
L 263.539124 291.733664 
L 263.768238 289.524435 
L 263.997352 293.432991 
L 264.226466 292.603192 
L 264.45558 292.901581 
L 264.684694 293.499112 
L 264.913808 294.883895 
L 265.372036 292.195008 
L 265.60115 295.423851 
L 265.830264 292.518474 
L 266.059378 294.963353 
L 266.288492 294.580997 
L 266.517606 292.412437 
L 266.74672 295.292455 
L 267.204948 290.553724 
L 267.434062 290.801865 
L 267.663176 287.439465 
L 267.89229 293.031193 
L 268.121404 294.963353 
L 268.350518 285.839789 
L 268.579632 295.086484 
L 268.808746 294.074383 
L 269.03786 294.202304 
L 269.266974 294.729863 
L 269.725202 291.02493 
L 269.954316 293.645254 
L 270.18343 290.887522 
L 270.412544 295.310957 
L 270.641658 292.031114 
L 270.870772 295.021396 
L 271.099886 293.723021 
L 271.329 293.893208 
L 271.558114 293.006398 
L 271.787228 291.413578 
L 272.016342 294.137029 
L 272.245456 294.631715 
L 272.703684 286.087554 
L 272.932798 295.452498 
L 273.161912 295.020645 
L 273.391026 290.30577 
L 273.62014 294.99106 
L 273.849254 294.658389 
L 274.078368 292.03365 
L 274.307482 294.929541 
L 274.536596 281.609926 
L 274.76571 293.461919 
L 274.994824 290.515874 
L 275.223938 293.259423 
L 275.453052 294.025262 
L 275.682166 293.771015 
L 275.91128 291.727371 
L 276.140394 293.861086 
L 276.369508 292.736091 
L 276.598622 289.149969 
L 276.827736 273.703682 
L 277.05685 286.789902 
L 277.285964 292.108412 
L 277.515078 290.761009 
L 277.744192 287.340753 
L 277.973306 261.712967 
L 278.20242 295.342139 
L 278.431534 289.4817 
L 278.660648 295.230748 
L 278.889762 294.078609 
L 279.118876 294.776824 
L 279.577104 290.962941 
L 279.806218 291.889292 
L 280.035332 294.83205 
L 280.264446 291.251375 
L 280.722674 295.469779 
L 280.951788 286.541854 
L 281.180902 292.045202 
L 281.410016 291.525909 
L 281.63913 292.71092 
L 281.868244 288.137022 
L 282.097358 294.467352 
L 282.326472 291.069073 
L 282.555586 293.769701 
L 282.7847 294.102841 
L 283.013814 292.614744 
L 283.242928 294.891315 
L 283.472042 294.064897 
L 283.701156 292.409337 
L 283.93027 294.312099 
L 284.159384 290.878975 
L 284.388498 292.918205 
L 284.617612 293.305633 
L 284.846726 291.309982 
L 285.304954 294.884834 
L 285.534068 288.655564 
L 285.763182 291.215403 
L 285.992296 290.259279 
L 286.22141 294.825382 
L 286.450524 291.394418 
L 286.679638 294.390899 
L 286.908752 291.147122 
L 287.36698 294.612367 
L 287.825208 294.103499 
L 288.054322 289.772107 
L 288.283436 292.639821 
L 288.51255 288.267292 
L 288.741664 293.096845 
L 288.970778 290.307555 
L 289.429006 292.408492 
L 289.65812 294.625892 
L 289.887234 283.725609 
L 290.116348 295.14697 
L 290.345462 285.936716 
L 290.574576 291.94217 
L 290.80369 283.160575 
L 291.032804 291.879618 
L 291.261918 295.176649 
L 291.491032 294.744139 
L 291.94926 288.342429 
L 292.178374 292.053749 
L 292.407488 293.326202 
L 292.636602 292.142317 
L 292.865716 293.51104 
L 293.09483 282.405256 
L 293.323944 282.318472 
L 293.553058 295.36731 
L 293.782172 295.254698 
L 294.011286 294.456363 
L 294.2404 290.351323 
L 294.469514 294.738128 
L 294.698628 288.924275 
L 294.927742 287.241759 
L 295.156856 293.627879 
L 295.615084 289.139449 
L 295.844198 295.097191 
L 296.073312 292.808505 
L 296.302426 293.336627 
L 296.53154 294.56334 
L 296.760654 293.887197 
L 297.447996 283.667659 
L 297.67711 294.262602 
L 297.906224 294.339806 
L 298.135338 290.624823 
L 298.364452 294.139001 
L 298.593566 294.637068 
L 298.82268 292.615777 
L 299.051794 292.380127 
L 299.510022 293.656713 
L 299.739136 295.269444 
L 299.96825 295.228588 
L 300.197364 277.09642 
L 300.426478 290.771998 
L 300.655592 291.308855 
L 300.884706 285.619918 
L 301.11382 284.899349 
L 301.342934 285.655514 
L 301.572049 291.760807 
L 301.801163 291.361639 
L 302.030277 295.273389 
L 302.259391 293.963931 
L 302.488505 289.397828 
L 302.717619 295.052579 
L 302.946733 295.429393 
L 303.175847 290.104684 
L 303.404961 290.243312 
L 303.634075 294.319613 
L 303.863189 292.824002 
L 304.092303 287.648065 
L 304.321417 291.398175 
L 304.550531 293.320191 
L 304.779645 289.575528 
L 305.008759 293.953787 
L 305.237873 287.702821 
L 305.696101 294.930292 
L 305.925215 289.796526 
L 306.154329 292.697771 
L 306.383443 291.330833 
L 306.612557 291.284154 
L 306.841671 295.395863 
L 307.299899 282.842838 
L 307.529013 282.353129 
L 307.758127 289.411541 
L 307.987241 277.788623 
L 308.216355 294.910005 
L 308.445469 294.461529 
L 308.674583 281.571606 
L 308.903697 295.207737 
L 309.132811 295.001203 
L 309.361925 290.263412 
L 309.591039 288.648051 
L 309.820153 231.429383 
L 310.049267 293.888512 
L 310.278381 291.023521 
L 310.507495 294.680366 
L 310.736609 293.2567 
L 310.965723 290.927908 
L 311.194837 294.177039 
L 311.423951 292.76361 
L 311.653065 294.9889 
L 311.882179 293.091209 
L 312.111293 280.576504 
L 312.340407 293.605619 
L 312.569521 294.330508 
L 312.798635 287.577718 
L 313.027749 290.641447 
L 313.256863 295.293958 
L 313.485977 287.112147 
L 313.715091 292.901018 
L 313.944205 294.547937 
L 314.402433 287.91856 
L 315.089775 292.704815 
L 315.318889 289.148466 
L 315.548003 293.378141 
L 316.006231 286.456667 
L 316.235345 293.788673 
L 316.464459 295.069672 
L 316.693573 295.207737 
L 316.922687 292.79235 
L 317.151801 286.640942 
L 317.610029 294.991811 
L 317.839143 293.335594 
L 318.068257 271.694883 
L 318.297371 289.216747 
L 318.526485 289.12151 
L 318.755599 288.452599 
L 318.984713 295.301377 
L 319.213827 288.565493 
L 319.442941 294.05851 
L 319.901169 286.557539 
L 320.130283 291.74531 
L 320.359397 288.44471 
L 320.817625 295.032667 
L 321.046739 293.531233 
L 321.504967 285.268556 
L 321.963195 294.286364 
L 322.192309 294.124819 
L 322.650537 290.239837 
L 322.879651 294.962226 
L 323.337879 289.945862 
L 323.566993 294.119653 
L 323.796107 295.449116 
L 324.025221 290.644452 
L 324.254335 294.631809 
L 324.483449 271.367565 
L 324.712563 293.619426 
L 324.941677 295.227931 
L 325.399905 292.301891 
L 325.629019 291.405877 
L 325.858133 291.3468 
L 326.087247 288.403666 
L 326.316361 293.89734 
L 326.545475 289.274039 
L 326.774589 293.798253 
L 327.003703 277.470322 
L 327.232817 290.670657 
L 327.461931 290.636657 
L 327.691045 293.918379 
L 327.920159 286.614174 
L 328.378387 294.696897 
L 328.607501 295.479171 
L 328.836615 295.142462 
L 329.065729 287.630783 
L 329.294843 293.49357 
L 329.523957 293.059464 
L 329.753071 295.010971 
L 329.982185 284.971388 
L 330.211299 294.789785 
L 330.440413 294.535727 
L 330.669527 282.35435 
L 330.898641 291.358352 
L 331.127755 291.901314 
L 331.356869 290.627359 
L 331.585983 293.484836 
L 331.815097 293.221291 
L 332.044211 293.81112 
L 332.273325 293.663193 
L 332.502439 290.003812 
L 332.731553 270.330293 
L 332.960667 288.866231 
L 333.189781 291.746625 
L 333.418895 293.167944 
L 333.648009 293.209363 
L 333.877123 294.1282 
L 334.106237 292.086904 
L 334.335351 293.888699 
L 334.564465 290.765142 
L 334.793579 294.386861 
L 335.022693 293.083132 
L 335.251807 294.939497 
L 335.480921 253.717779 
L 335.710035 291.116597 
L 335.939149 295.311051 
L 336.168263 294.076637 
L 336.397377 292.195383 
L 336.626491 280.900253 
L 336.855605 292.888432 
L 337.084719 287.323471 
L 337.313833 290.509205 
L 337.542947 291.642372 
L 337.772061 295.3721 
L 338.001175 290.609795 
L 338.230289 294.647776 
L 338.459403 295.029756 
L 338.688517 289.921348 
L 338.917631 293.350997 
L 339.146745 293.886915 
L 339.375859 290.100082 
L 339.604973 294.25274 
L 339.834087 263.661375 
L 340.063201 291.765034 
L 340.292315 287.123887 
L 340.521429 287.388371 
L 340.979657 295.100197 
L 341.208771 292.148892 
L 341.437885 268.383388 
L 341.666999 295.172235 
L 341.896113 292.363409 
L 342.125227 292.366978 
L 342.354341 289.238913 
L 342.583455 292.755251 
L 342.812569 290.518973 
L 343.041683 293.398146 
L 343.270797 290.397626 
L 343.499911 289.467612 
L 343.729025 287.281676 
L 343.958139 291.58245 
L 344.416367 293.85733 
L 344.645481 293.77064 
L 344.874595 272.382296 
L 345.10371 287.282334 
L 345.332824 287.689766 
L 345.561938 290.956649 
L 345.791052 291.56066 
L 346.020166 293.652768 
L 346.24928 292.029423 
L 346.478394 288.901827 
L 346.707508 290.275715 
L 346.936622 284.318725 
L 347.165736 294.84952 
L 347.39485 295.030789 
L 347.853078 292.302078 
L 348.082192 294.361314 
L 348.311306 292.513778 
L 348.54042 227.824852 
L 348.769534 293.881561 
L 348.998648 292.027827 
L 349.227762 293.888136 
L 349.456876 286.210874 
L 349.68599 289.200405 
L 350.144218 291.381926 
L 350.373332 292.085683 
L 350.602446 292.189278 
L 350.83156 285.241788 
L 351.060674 291.643593 
L 351.289788 286.823807 
L 351.518902 294.872906 
L 351.748016 295.020551 
L 351.97713 286.909558 
L 352.206244 294.840879 
L 352.435358 288.671155 
L 352.664472 286.316254 
L 352.893586 295.311051 
L 353.351814 291.82721 
L 353.580928 292.034307 
L 353.810042 290.581525 
L 354.039156 292.168334 
L 354.26827 291.812558 
L 354.726498 294.362629 
L 354.955612 290.331223 
L 355.184726 288.999036 
L 355.642954 294.777763 
L 355.872068 295.064694 
L 356.101182 291.086261 
L 356.330296 293.32808 
L 356.55941 293.629287 
L 356.788524 292.360873 
L 357.017638 286.521755 
L 357.246752 283.910259 
L 357.475866 294.948044 
L 357.70498 295.437846 
L 357.934094 291.078371 
L 358.392322 295.357073 
L 358.621436 295.416526 
L 358.85055 294.75109 
L 359.079664 290.950168 
L 359.308778 289.7274 
L 359.537892 292.309216 
L 359.99612 294.13515 
L 360.225234 288.450345 
L 360.454348 293.05674 
L 360.683462 294.734559 
L 360.912576 283.845077 
L 361.14169 294.163984 
L 361.370804 295.17092 
L 361.599918 291.918408 
L 361.829032 293.350528 
L 362.058146 284.265377 
L 362.28726 295.133351 
L 362.516374 295.224737 
L 362.745488 295.458509 
L 362.974602 289.116063 
L 363.203716 293.013254 
L 363.43283 290.924621 
L 363.661944 292.836681 
L 363.891058 291.09462 
L 364.120172 275.745636 
L 364.349286 291.398269 
L 364.5784 259.159327 
L 364.807514 291.784194 
L 365.036628 295.323449 
L 365.494856 292.417978 
L 365.72397 295.354068 
L 365.953084 274.873385 
L 366.182198 295.407509 
L 366.411312 287.72818 
L 366.640426 286.670527 
L 366.86954 291.84158 
L 367.098654 283.787879 
L 367.327768 295.297996 
L 367.556882 288.121055 
L 367.785996 294.947762 
L 368.01511 294.302519 
L 368.244224 291.568361 
L 368.473338 292.970708 
L 368.702452 291.826928 
L 368.931566 291.319093 
L 369.16068 293.682823 
L 369.389794 294.560992 
L 369.618908 294.03982 
L 369.848022 295.212527 
L 370.077136 291.995799 
L 370.30625 293.19612 
L 370.535364 290.700806 
L 370.764478 292.398818 
L 370.993592 291.71347 
L 371.222706 292.510397 
L 371.45182 290.756501 
L 371.680934 292.861383 
L 371.910048 293.830468 
L 372.139162 287.697468 
L 372.368276 287.869439 
L 372.59739 292.117522 
L 372.826504 291.659184 
L 373.055618 293.032508 
L 373.284732 284.172019 
L 373.513846 290.435383 
L 373.74296 285.437615 
L 373.972074 285.668851 
L 374.201188 292.640667 
L 374.430302 287.387244 
L 374.659416 293.908329 
L 374.88853 289.949901 
L 375.117644 292.93699 
L 375.346758 287.845958 
L 375.575872 293.9984 
L 375.804986 292.575015 
L 376.0341 293.399273 
L 376.263214 283.948391 
L 376.721442 295.020551 
L 376.950556 294.13515 
L 377.17967 294.336613 
L 377.408784 293.912556 
L 377.637898 294.115427 
L 377.867012 292.086622 
L 378.096126 257.553076 
L 378.32524 290.802899 
L 378.554354 290.911284 
L 379.012582 293.199689 
L 379.241696 289.702041 
L 379.699924 294.932734 
L 379.929038 292.970332 
L 380.158152 294.238464 
L 380.387266 292.806908 
L 380.61638 294.620726 
L 380.845494 288.232822 
L 381.074608 293.892926 
L 381.303722 287.164274 
L 381.532836 295.075777 
L 381.76195 281.006572 
L 382.220178 294.352767 
L 382.449292 294.826697 
L 382.678406 278.875017 
L 382.90752 292.606667 
L 383.136634 294.914889 
L 383.365748 293.079845 
L 383.594862 293.117508 
L 384.05309 271.69554 
L 384.282204 286.225056 
L 384.511318 287.473934 
L 384.740432 292.342277 
L 384.969546 293.036265 
L 385.19866 295.463486 
L 385.427774 295.193086 
L 385.656888 285.141856 
L 385.886002 294.919491 
L 386.115116 294.505484 
L 386.34423 295.292267 
L 386.573344 292.999636 
L 386.802458 279.48147 
L 387.260686 294.036251 
L 387.4898 295.479171 
L 387.948028 294.174504 
L 388.177142 293.089049 
L 388.406256 294.51281 
L 388.635371 292.72792 
L 388.864485 289.095588 
L 389.093599 288.579769 
L 389.322713 294.228039 
L 389.551827 291.07067 
L 389.780941 293.086701 
L 390.010055 289.664284 
L 390.239169 293.048475 
L 390.468283 292.679644 
L 390.697397 280.680945 
L 390.926511 294.878917 
L 391.155625 290.158407 
L 391.384739 293.51367 
L 391.613853 249.959592 
L 392.072081 274.912832 
L 392.301195 289.473717 
L 392.530309 294.733902 
L 392.759423 292.84025 
L 392.988537 294.679427 
L 393.217651 292.01712 
L 393.446765 292.349697 
L 393.675879 266.36482 
L 393.904993 290.112479 
L 394.134107 293.76538 
L 394.363221 284.335819 
L 394.592335 294.533754 
L 394.821449 295.437846 
L 395.050563 291.693935 
L 395.279677 278.610815 
L 395.508791 295.395581 
L 395.737905 291.786072 
L 395.967019 294.820404 
L 396.196133 291.215779 
L 396.425247 290.353107 
L 396.654361 294.362535 
L 396.883475 294.090256 
L 397.112589 292.238681 
L 397.341703 292.856405 
L 397.570817 295.419625 
L 397.799931 288.610012 
L 398.029045 294.466319 
L 398.487273 286.578577 
L 398.487273 286.578577 
" style="fill:none;stroke:#ff7f0e;stroke-linecap:square;stroke-width:1.5;"/>
   </g>
   <g id="patch_3">
    <path d="M 57.6 307.584 
L 57.6 41.472 
" style="fill:none;stroke:#000000;stroke-linecap:square;stroke-linejoin:miter;stroke-width:0.8;"/>
   </g>
   <g id="patch_4">
    <path d="M 414.72 307.584 
L 414.72 41.472 
" style="fill:none;stroke:#000000;stroke-linecap:square;stroke-linejoin:miter;stroke-width:0.8;"/>
   </g>
   <g id="patch_5">
    <path d="M 57.6 307.584 
L 414.72 307.584 
" style="fill:none;stroke:#000000;stroke-linecap:square;stroke-linejoin:miter;stroke-width:0.8;"/>
   </g>
   <g id="patch_6">
    <path d="M 57.6 41.472 
L 414.72 41.472 
" style="fill:none;stroke:#000000;stroke-linecap:square;stroke-linejoin:miter;stroke-width:0.8;"/>
   </g>
   <g id="text_17">
    <!-- Daily shopping cost in USD and PLN -->
    <defs>
     <path d="M 9.421875 54.6875 
L 18.40625 54.6875 
L 18.40625 0 
L 9.421875 0 
z
M 9.421875 75.984375 
L 18.40625 75.984375 
L 18.40625 64.59375 
L 9.421875 64.59375 
z
" id="DejaVuSans-105"/>
     <path d="M 9.421875 75.984375 
L 18.40625 75.984375 
L 18.40625 0 
L 9.421875 0 
z
" id="DejaVuSans-108"/>
     <path d="M 32.171875 -5.078125 
Q 28.375 -14.84375 24.75 -17.8125 
Q 21.140625 -20.796875 15.09375 -20.796875 
L 7.90625 -20.796875 
L 7.90625 -13.28125 
L 13.1875 -13.28125 
Q 16.890625 -13.28125 18.9375 -11.515625 
Q 21 -9.765625 23.484375 -3.21875 
L 25.09375 0.875 
L 2.984375 54.6875 
L 12.5 54.6875 
L 29.59375 11.921875 
L 46.6875 54.6875 
L 56.203125 54.6875 
z
" id="DejaVuSans-121"/>
     <path id="DejaVuSans-32"/>
     <path d="M 54.890625 33.015625 
L 54.890625 0 
L 45.90625 0 
L 45.90625 32.71875 
Q 45.90625 40.484375 42.875 44.328125 
Q 39.84375 48.1875 33.796875 48.1875 
Q 26.515625 48.1875 22.3125 43.546875 
Q 18.109375 38.921875 18.109375 30.90625 
L 18.109375 0 
L 9.078125 0 
L 9.078125 75.984375 
L 18.109375 75.984375 
L 18.109375 46.1875 
Q 21.34375 51.125 25.703125 53.5625 
Q 30.078125 56 35.796875 56 
Q 45.21875 56 50.046875 50.171875 
Q 54.890625 44.34375 54.890625 33.015625 
z
" id="DejaVuSans-104"/>
     <path d="M 18.109375 8.203125 
L 18.109375 -20.796875 
L 9.078125 -20.796875 
L 9.078125 54.6875 
L 18.109375 54.6875 
L 18.109375 46.390625 
Q 20.953125 51.265625 25.265625 53.625 
Q 29.59375 56 35.59375 56 
Q 45.5625 56 51.78125 48.09375 
Q 58.015625 40.1875 58.015625 27.296875 
Q 58.015625 14.40625 51.78125 6.484375 
Q 45.5625 -1.421875 35.59375 -1.421875 
Q 29.59375 -1.421875 25.265625 0.953125 
Q 20.953125 3.328125 18.109375 8.203125 
z
M 48.6875 27.296875 
Q 48.6875 37.203125 44.609375 42.84375 
Q 40.53125 48.484375 33.40625 48.484375 
Q 26.265625 48.484375 22.1875 42.84375 
Q 18.109375 37.203125 18.109375 27.296875 
Q 18.109375 17.390625 22.1875 11.75 
Q 26.265625 6.109375 33.40625 6.109375 
Q 40.53125 6.109375 44.609375 11.75 
Q 48.6875 17.390625 48.6875 27.296875 
z
" id="DejaVuSans-112"/>
     <path d="M 54.890625 33.015625 
L 54.890625 0 
L 45.90625 0 
L 45.90625 32.71875 
Q 45.90625 40.484375 42.875 44.328125 
Q 39.84375 48.1875 33.796875 48.1875 
Q 26.515625 48.1875 22.3125 43.546875 
Q 18.109375 38.921875 18.109375 30.90625 
L 18.109375 0 
L 9.078125 0 
L 9.078125 54.6875 
L 18.109375 54.6875 
L 18.109375 46.1875 
Q 21.34375 51.125 25.703125 53.5625 
Q 30.078125 56 35.796875 56 
Q 45.21875 56 50.046875 50.171875 
Q 54.890625 44.34375 54.890625 33.015625 
z
" id="DejaVuSans-110"/>
     <path d="M 45.40625 27.984375 
Q 45.40625 37.75 41.375 43.109375 
Q 37.359375 48.484375 30.078125 48.484375 
Q 22.859375 48.484375 18.828125 43.109375 
Q 14.796875 37.75 14.796875 27.984375 
Q 14.796875 18.265625 18.828125 12.890625 
Q 22.859375 7.515625 30.078125 7.515625 
Q 37.359375 7.515625 41.375 12.890625 
Q 45.40625 18.265625 45.40625 27.984375 
z
M 54.390625 6.78125 
Q 54.390625 -7.171875 48.1875 -13.984375 
Q 42 -20.796875 29.203125 -20.796875 
Q 24.46875 -20.796875 20.265625 -20.09375 
Q 16.0625 -19.390625 12.109375 -17.921875 
L 12.109375 -9.1875 
Q 16.0625 -11.328125 19.921875 -12.34375 
Q 23.78125 -13.375 27.78125 -13.375 
Q 36.625 -13.375 41.015625 -8.765625 
Q 45.40625 -4.15625 45.40625 5.171875 
L 45.40625 9.625 
Q 42.625 4.78125 38.28125 2.390625 
Q 33.9375 0 27.875 0 
Q 17.828125 0 11.671875 7.65625 
Q 5.515625 15.328125 5.515625 27.984375 
Q 5.515625 40.671875 11.671875 48.328125 
Q 17.828125 56 27.875 56 
Q 33.9375 56 38.28125 53.609375 
Q 42.625 51.21875 45.40625 46.390625 
L 45.40625 54.6875 
L 54.390625 54.6875 
z
" id="DejaVuSans-103"/>
     <path d="M 48.78125 52.59375 
L 48.78125 44.1875 
Q 44.96875 46.296875 41.140625 47.34375 
Q 37.3125 48.390625 33.40625 48.390625 
Q 24.65625 48.390625 19.8125 42.84375 
Q 14.984375 37.3125 14.984375 27.296875 
Q 14.984375 17.28125 19.8125 11.734375 
Q 24.65625 6.203125 33.40625 6.203125 
Q 37.3125 6.203125 41.140625 7.25 
Q 44.96875 8.296875 48.78125 10.40625 
L 48.78125 2.09375 
Q 45.015625 0.34375 40.984375 -0.53125 
Q 36.96875 -1.421875 32.421875 -1.421875 
Q 20.0625 -1.421875 12.78125 6.34375 
Q 5.515625 14.109375 5.515625 27.296875 
Q 5.515625 40.671875 12.859375 48.328125 
Q 20.21875 56 33.015625 56 
Q 37.15625 56 41.109375 55.140625 
Q 45.0625 54.296875 48.78125 52.59375 
z
" id="DejaVuSans-99"/>
     <path d="M 8.6875 72.90625 
L 18.609375 72.90625 
L 18.609375 28.609375 
Q 18.609375 16.890625 22.84375 11.734375 
Q 27.09375 6.59375 36.625 6.59375 
Q 46.09375 6.59375 50.34375 11.734375 
Q 54.59375 16.890625 54.59375 28.609375 
L 54.59375 72.90625 
L 64.5 72.90625 
L 64.5 27.390625 
Q 64.5 13.140625 57.4375 5.859375 
Q 50.390625 -1.421875 36.625 -1.421875 
Q 22.796875 -1.421875 15.734375 5.859375 
Q 8.6875 13.140625 8.6875 27.390625 
z
" id="DejaVuSans-85"/>
     <path d="M 53.515625 70.515625 
L 53.515625 60.890625 
Q 47.90625 63.578125 42.921875 64.890625 
Q 37.9375 66.21875 33.296875 66.21875 
Q 25.25 66.21875 20.875 63.09375 
Q 16.5 59.96875 16.5 54.203125 
Q 16.5 49.359375 19.40625 46.890625 
Q 22.3125 44.4375 30.421875 42.921875 
L 36.375 41.703125 
Q 47.40625 39.59375 52.65625 34.296875 
Q 57.90625 29 57.90625 20.125 
Q 57.90625 9.515625 50.796875 4.046875 
Q 43.703125 -1.421875 29.984375 -1.421875 
Q 24.8125 -1.421875 18.96875 -0.25 
Q 13.140625 0.921875 6.890625 3.21875 
L 6.890625 13.375 
Q 12.890625 10.015625 18.65625 8.296875 
Q 24.421875 6.59375 29.984375 6.59375 
Q 38.421875 6.59375 43.015625 9.90625 
Q 47.609375 13.234375 47.609375 19.390625 
Q 47.609375 24.75 44.3125 27.78125 
Q 41.015625 30.8125 33.5 32.328125 
L 27.484375 33.5 
Q 16.453125 35.6875 11.515625 40.375 
Q 6.59375 45.0625 6.59375 53.421875 
Q 6.59375 63.09375 13.40625 68.65625 
Q 20.21875 74.21875 32.171875 74.21875 
Q 37.3125 74.21875 42.625 73.28125 
Q 47.953125 72.359375 53.515625 70.515625 
z
" id="DejaVuSans-83"/>
     <path d="M 45.40625 46.390625 
L 45.40625 75.984375 
L 54.390625 75.984375 
L 54.390625 0 
L 45.40625 0 
L 45.40625 8.203125 
Q 42.578125 3.328125 38.25 0.953125 
Q 33.9375 -1.421875 27.875 -1.421875 
Q 17.96875 -1.421875 11.734375 6.484375 
Q 5.515625 14.40625 5.515625 27.296875 
Q 5.515625 40.1875 11.734375 48.09375 
Q 17.96875 56 27.875 56 
Q 33.9375 56 38.25 53.625 
Q 42.578125 51.265625 45.40625 46.390625 
z
M 14.796875 27.296875 
Q 14.796875 17.390625 18.875 11.75 
Q 22.953125 6.109375 30.078125 6.109375 
Q 37.203125 6.109375 41.296875 11.75 
Q 45.40625 17.390625 45.40625 27.296875 
Q 45.40625 37.203125 41.296875 42.84375 
Q 37.203125 48.484375 30.078125 48.484375 
Q 22.953125 48.484375 18.875 42.84375 
Q 14.796875 37.203125 14.796875 27.296875 
z
" id="DejaVuSans-100"/>
     <path d="M 19.671875 64.796875 
L 19.671875 37.40625 
L 32.078125 37.40625 
Q 38.96875 37.40625 42.71875 40.96875 
Q 46.484375 44.53125 46.484375 51.125 
Q 46.484375 57.671875 42.71875 61.234375 
Q 38.96875 64.796875 32.078125 64.796875 
z
M 9.8125 72.90625 
L 32.078125 72.90625 
Q 44.34375 72.90625 50.609375 67.359375 
Q 56.890625 61.8125 56.890625 51.125 
Q 56.890625 40.328125 50.609375 34.8125 
Q 44.34375 29.296875 32.078125 29.296875 
L 19.671875 29.296875 
L 19.671875 0 
L 9.8125 0 
z
" id="DejaVuSans-80"/>
     <path d="M 9.8125 72.90625 
L 19.671875 72.90625 
L 19.671875 8.296875 
L 55.171875 8.296875 
L 55.171875 0 
L 9.8125 0 
z
" id="DejaVuSans-76"/>
     <path d="M 9.8125 72.90625 
L 23.09375 72.90625 
L 55.421875 11.921875 
L 55.421875 72.90625 
L 64.984375 72.90625 
L 64.984375 0 
L 51.703125 0 
L 19.390625 60.984375 
L 19.390625 0 
L 9.8125 0 
z
" id="DejaVuSans-78"/>
    </defs>
    <g transform="translate(128.565 35.472)scale(0.12 -0.12)">
     <use xlink:href="#DejaVuSans-68"/>
     <use x="77.001953" xlink:href="#DejaVuSans-97"/>
     <use x="138.28125" xlink:href="#DejaVuSans-105"/>
     <use x="166.064453" xlink:href="#DejaVuSans-108"/>
     <use x="193.847656" xlink:href="#DejaVuSans-121"/>
     <use x="253.027344" xlink:href="#DejaVuSans-32"/>
     <use x="284.814453" xlink:href="#DejaVuSans-115"/>
     <use x="336.914062" xlink:href="#DejaVuSans-104"/>
     <use x="400.292969" xlink:href="#DejaVuSans-111"/>
     <use x="461.474609" xlink:href="#DejaVuSans-112"/>
     <use x="524.951172" xlink:href="#DejaVuSans-112"/>
     <use x="588.427734" xlink:href="#DejaVuSans-105"/>
     <use x="616.210938" xlink:href="#DejaVuSans-110"/>
     <use x="679.589844" xlink:href="#DejaVuSans-103"/>
     <use x="743.066406" xlink:href="#DejaVuSans-32"/>
     <use x="774.853516" xlink:href="#DejaVuSans-99"/>
     <use x="829.833984" xlink:href="#DejaVuSans-111"/>
     <use x="891.015625" xlink:href="#DejaVuSans-115"/>
     <use x="943.115234" xlink:href="#DejaVuSans-116"/>
     <use x="982.324219" xlink:href="#DejaVuSans-32"/>
     <use x="1014.111328" xlink:href="#DejaVuSans-105"/>
     <use x="1041.894531" xlink:href="#DejaVuSans-110"/>
     <use x="1105.273438" xlink:href="#DejaVuSans-32"/>
     <use x="1137.060547" xlink:href="#DejaVuSans-85"/>
     <use x="1210.253906" xlink:href="#DejaVuSans-83"/>
     <use x="1273.730469" xlink:href="#DejaVuSans-68"/>
     <use x="1350.732422" xlink:href="#DejaVuSans-32"/>
     <use x="1382.519531" xlink:href="#DejaVuSans-97"/>
     <use x="1443.798828" xlink:href="#DejaVuSans-110"/>
     <use x="1507.177734" xlink:href="#DejaVuSans-100"/>
     <use x="1570.654297" xlink:href="#DejaVuSans-32"/>
     <use x="1602.441406" xlink:href="#DejaVuSans-80"/>
     <use x="1662.744141" xlink:href="#DejaVuSans-76"/>
     <use x="1718.457031" xlink:href="#DejaVuSans-78"/>
    </g>
   </g>
   <g id="legend_1">
    <g id="patch_7">
     <path d="M 354.352813 78.82825 
L 407.72 78.82825 
Q 409.72 78.82825 409.72 76.82825 
L 409.72 48.472 
Q 409.72 46.472 407.72 46.472 
L 354.352813 46.472 
Q 352.352813 46.472 352.352813 48.472 
L 352.352813 76.82825 
Q 352.352813 78.82825 354.352813 78.82825 
z
" style="fill:#ffffff;opacity:0.8;stroke:#cccccc;stroke-linejoin:miter;"/>
    </g>
    <g id="line2d_17">
     <path d="M 356.352813 54.570437 
L 376.352813 54.570437 
" style="fill:none;stroke:#1f77b4;stroke-linecap:square;stroke-width:1.5;"/>
    </g>
    <g id="line2d_18"/>
    <g id="text_18">
     <!-- PLN -->
     <g transform="translate(384.352813 58.070437)scale(0.1 -0.1)">
      <use xlink:href="#DejaVuSans-80"/>
      <use x="60.302734" xlink:href="#DejaVuSans-76"/>
      <use x="116.015625" xlink:href="#DejaVuSans-78"/>
     </g>
    </g>
    <g id="line2d_19">
     <path d="M 356.352813 69.248562 
L 376.352813 69.248562 
" style="fill:none;stroke:#ff7f0e;stroke-linecap:square;stroke-width:1.5;"/>
    </g>
    <g id="line2d_20"/>
    <g id="text_19">
     <!-- USD -->
     <g transform="translate(384.352813 72.748562)scale(0.1 -0.1)">
      <use xlink:href="#DejaVuSans-85"/>
      <use x="73.193359" xlink:href="#DejaVuSans-83"/>
      <use x="136.669922" xlink:href="#DejaVuSans-68"/>
     </g>
    </g>
   </g>
  </g>
 </g>
 <defs>
  <clipPath id="pfbec2e4f02">
   <rect height="266.112" width="357.12" x="57.6" y="41.472"/>
  </clipPath>
 </defs>
</svg>
