<?xml version="1.0" encoding="utf-8" standalone="no"?>
<!DOCTYPE svg PUBLIC "-//W3C//DTD SVG 1.1//EN"
  "http://www.w3.org/Graphics/SVG/1.1/DTD/svg11.dtd">
<!-- Created with matplotlib (https://matplotlib.org/) -->
<svg height="962.64pt" version="1.1" viewBox="0 0 1843.2 962.64" width="1843.2pt" xmlns="http://www.w3.org/2000/svg" xmlns:xlink="http://www.w3.org/1999/xlink">
 <metadata>
  <rdf:RDF xmlns:cc="http://creativecommons.org/ns#" xmlns:dc="http://purl.org/dc/elements/1.1/" xmlns:rdf="http://www.w3.org/1999/02/22-rdf-syntax-ns#">
   <cc:Work>
    <dc:type rdf:resource="http://purl.org/dc/dcmitype/StillImage"/>
    <dc:date>2020-11-20T17:27:48.594760</dc:date>
    <dc:format>image/svg+xml</dc:format>
    <dc:creator>
     <cc:Agent>
      <dc:title>Matplotlib v3.3.3, https://matplotlib.org/</dc:title>
     </cc:Agent>
    </dc:creator>
   </cc:Work>
  </rdf:RDF>
 </metadata>
 <defs>
  <style type="text/css">*{stroke-linecap:butt;stroke-linejoin:round;}</style>
 </defs>
 <g id="figure_1">
  <g id="patch_1">
   <path d="M 0 962.64 
L 1843.2 962.64 
L 1843.2 0 
L 0 0 
z
" style="fill:#ffffff;"/>
  </g>
  <g id="axes_1">
   <g id="patch_2">
    <path d="M 230.4 856.7496 
L 1658.88 856.7496 
L 1658.88 115.5168 
L 230.4 115.5168 
z
" style="fill:#ffffff;"/>
   </g>
   <g id="matplotlib.axis_1">
    <g id="xtick_1">
     <g id="line2d_1">
      <defs>
       <path d="M 0 0 
L 0 3.5 
" id="mb9cbc235ea" style="stroke:#000000;stroke-width:0.8;"/>
      </defs>
      <g>
       <use style="stroke:#000000;stroke-width:0.8;" x="295.330909" xlink:href="#mb9cbc235ea" y="856.7496"/>
      </g>
     </g>
     <g id="text_1">
      <!-- 2018-01 -->
      <g transform="translate(274.439503 871.348038)scale(0.1 -0.1)">
       <defs>
        <path d="M 19.1875 8.296875 
L 53.609375 8.296875 
L 53.609375 0 
L 7.328125 0 
L 7.328125 8.296875 
Q 12.9375 14.109375 22.625 23.890625 
Q 32.328125 33.6875 34.8125 36.53125 
Q 39.546875 41.84375 41.421875 45.53125 
Q 43.3125 49.21875 43.3125 52.78125 
Q 43.3125 58.59375 39.234375 62.25 
Q 35.15625 65.921875 28.609375 65.921875 
Q 23.96875 65.921875 18.8125 64.3125 
Q 13.671875 62.703125 7.8125 59.421875 
L 7.8125 69.390625 
Q 13.765625 71.78125 18.9375 73 
Q 24.125 74.21875 28.421875 74.21875 
Q 39.75 74.21875 46.484375 68.546875 
Q 53.21875 62.890625 53.21875 53.421875 
Q 53.21875 48.921875 51.53125 44.890625 
Q 49.859375 40.875 45.40625 35.40625 
Q 44.1875 33.984375 37.640625 27.21875 
Q 31.109375 20.453125 19.1875 8.296875 
z
" id="DejaVuSans-50"/>
        <path d="M 31.78125 66.40625 
Q 24.171875 66.40625 20.328125 58.90625 
Q 16.5 51.421875 16.5 36.375 
Q 16.5 21.390625 20.328125 13.890625 
Q 24.171875 6.390625 31.78125 6.390625 
Q 39.453125 6.390625 43.28125 13.890625 
Q 47.125 21.390625 47.125 36.375 
Q 47.125 51.421875 43.28125 58.90625 
Q 39.453125 66.40625 31.78125 66.40625 
z
M 31.78125 74.21875 
Q 44.046875 74.21875 50.515625 64.515625 
Q 56.984375 54.828125 56.984375 36.375 
Q 56.984375 17.96875 50.515625 8.265625 
Q 44.046875 -1.421875 31.78125 -1.421875 
Q 19.53125 -1.421875 13.0625 8.265625 
Q 6.59375 17.96875 6.59375 36.375 
Q 6.59375 54.828125 13.0625 64.515625 
Q 19.53125 74.21875 31.78125 74.21875 
z
" id="DejaVuSans-48"/>
        <path d="M 12.40625 8.296875 
L 28.515625 8.296875 
L 28.515625 63.921875 
L 10.984375 60.40625 
L 10.984375 69.390625 
L 28.421875 72.90625 
L 38.28125 72.90625 
L 38.28125 8.296875 
L 54.390625 8.296875 
L 54.390625 0 
L 12.40625 0 
z
" id="DejaVuSans-49"/>
        <path d="M 31.78125 34.625 
Q 24.75 34.625 20.71875 30.859375 
Q 16.703125 27.09375 16.703125 20.515625 
Q 16.703125 13.921875 20.71875 10.15625 
Q 24.75 6.390625 31.78125 6.390625 
Q 38.8125 6.390625 42.859375 10.171875 
Q 46.921875 13.96875 46.921875 20.515625 
Q 46.921875 27.09375 42.890625 30.859375 
Q 38.875 34.625 31.78125 34.625 
z
M 21.921875 38.8125 
Q 15.578125 40.375 12.03125 44.71875 
Q 8.5 49.078125 8.5 55.328125 
Q 8.5 64.0625 14.71875 69.140625 
Q 20.953125 74.21875 31.78125 74.21875 
Q 42.671875 74.21875 48.875 69.140625 
Q 55.078125 64.0625 55.078125 55.328125 
Q 55.078125 49.078125 51.53125 44.71875 
Q 48 40.375 41.703125 38.8125 
Q 48.828125 37.15625 52.796875 32.3125 
Q 56.78125 27.484375 56.78125 20.515625 
Q 56.78125 9.90625 50.3125 4.234375 
Q 43.84375 -1.421875 31.78125 -1.421875 
Q 19.734375 -1.421875 13.25 4.234375 
Q 6.78125 9.90625 6.78125 20.515625 
Q 6.78125 27.484375 10.78125 32.3125 
Q 14.796875 37.15625 21.921875 38.8125 
z
M 18.3125 54.390625 
Q 18.3125 48.734375 21.84375 45.5625 
Q 25.390625 42.390625 31.78125 42.390625 
Q 38.140625 42.390625 41.71875 45.5625 
Q 45.3125 48.734375 45.3125 54.390625 
Q 45.3125 60.0625 41.71875 63.234375 
Q 38.140625 66.40625 31.78125 66.40625 
Q 25.390625 66.40625 21.84375 63.234375 
Q 18.3125 60.0625 18.3125 54.390625 
z
" id="DejaVuSans-56"/>
        <path d="M 4.890625 31.390625 
L 31.203125 31.390625 
L 31.203125 23.390625 
L 4.890625 23.390625 
z
" id="DejaVuSans-45"/>
       </defs>
       <use xlink:href="#DejaVuSans-50"/>
       <use x="63.623047" xlink:href="#DejaVuSans-48"/>
       <use x="127.246094" xlink:href="#DejaVuSans-49"/>
       <use x="190.869141" xlink:href="#DejaVuSans-56"/>
       <use x="254.492188" xlink:href="#DejaVuSans-45"/>
       <use x="290.576172" xlink:href="#DejaVuSans-48"/>
       <use x="354.199219" xlink:href="#DejaVuSans-49"/>
      </g>
     </g>
    </g>
    <g id="xtick_2">
     <g id="line2d_2">
      <g>
       <use style="stroke:#000000;stroke-width:0.8;" x="443.885897" xlink:href="#mb9cbc235ea" y="856.7496"/>
      </g>
     </g>
     <g id="text_2">
      <!-- 2018-05 -->
      <g transform="translate(422.99449 871.348038)scale(0.1 -0.1)">
       <defs>
        <path d="M 10.796875 72.90625 
L 49.515625 72.90625 
L 49.515625 64.59375 
L 19.828125 64.59375 
L 19.828125 46.734375 
Q 21.96875 47.46875 24.109375 47.828125 
Q 26.265625 48.1875 28.421875 48.1875 
Q 40.625 48.1875 47.75 41.5 
Q 54.890625 34.8125 54.890625 23.390625 
Q 54.890625 11.625 47.5625 5.09375 
Q 40.234375 -1.421875 26.90625 -1.421875 
Q 22.3125 -1.421875 17.546875 -0.640625 
Q 12.796875 0.140625 7.71875 1.703125 
L 7.71875 11.625 
Q 12.109375 9.234375 16.796875 8.0625 
Q 21.484375 6.890625 26.703125 6.890625 
Q 35.15625 6.890625 40.078125 11.328125 
Q 45.015625 15.765625 45.015625 23.390625 
Q 45.015625 31 40.078125 35.4375 
Q 35.15625 39.890625 26.703125 39.890625 
Q 22.75 39.890625 18.8125 39.015625 
Q 14.890625 38.140625 10.796875 36.28125 
z
" id="DejaVuSans-53"/>
       </defs>
       <use xlink:href="#DejaVuSans-50"/>
       <use x="63.623047" xlink:href="#DejaVuSans-48"/>
       <use x="127.246094" xlink:href="#DejaVuSans-49"/>
       <use x="190.869141" xlink:href="#DejaVuSans-56"/>
       <use x="254.492188" xlink:href="#DejaVuSans-45"/>
       <use x="290.576172" xlink:href="#DejaVuSans-48"/>
       <use x="354.199219" xlink:href="#DejaVuSans-53"/>
      </g>
     </g>
    </g>
    <g id="xtick_3">
     <g id="line2d_3">
      <g>
       <use style="stroke:#000000;stroke-width:0.8;" x="596.154759" xlink:href="#mb9cbc235ea" y="856.7496"/>
      </g>
     </g>
     <g id="text_3">
      <!-- 2018-09 -->
      <g transform="translate(575.263352 871.348038)scale(0.1 -0.1)">
       <defs>
        <path d="M 10.984375 1.515625 
L 10.984375 10.5 
Q 14.703125 8.734375 18.5 7.8125 
Q 22.3125 6.890625 25.984375 6.890625 
Q 35.75 6.890625 40.890625 13.453125 
Q 46.046875 20.015625 46.78125 33.40625 
Q 43.953125 29.203125 39.59375 26.953125 
Q 35.25 24.703125 29.984375 24.703125 
Q 19.046875 24.703125 12.671875 31.3125 
Q 6.296875 37.9375 6.296875 49.421875 
Q 6.296875 60.640625 12.9375 67.421875 
Q 19.578125 74.21875 30.609375 74.21875 
Q 43.265625 74.21875 49.921875 64.515625 
Q 56.59375 54.828125 56.59375 36.375 
Q 56.59375 19.140625 48.40625 8.859375 
Q 40.234375 -1.421875 26.421875 -1.421875 
Q 22.703125 -1.421875 18.890625 -0.6875 
Q 15.09375 0.046875 10.984375 1.515625 
z
M 30.609375 32.421875 
Q 37.25 32.421875 41.125 36.953125 
Q 45.015625 41.5 45.015625 49.421875 
Q 45.015625 57.28125 41.125 61.84375 
Q 37.25 66.40625 30.609375 66.40625 
Q 23.96875 66.40625 20.09375 61.84375 
Q 16.21875 57.28125 16.21875 49.421875 
Q 16.21875 41.5 20.09375 36.953125 
Q 23.96875 32.421875 30.609375 32.421875 
z
" id="DejaVuSans-57"/>
       </defs>
       <use xlink:href="#DejaVuSans-50"/>
       <use x="63.623047" xlink:href="#DejaVuSans-48"/>
       <use x="127.246094" xlink:href="#DejaVuSans-49"/>
       <use x="190.869141" xlink:href="#DejaVuSans-56"/>
       <use x="254.492188" xlink:href="#DejaVuSans-45"/>
       <use x="290.576172" xlink:href="#DejaVuSans-48"/>
       <use x="354.199219" xlink:href="#DejaVuSans-57"/>
      </g>
     </g>
    </g>
    <g id="xtick_4">
     <g id="line2d_4">
      <g>
       <use style="stroke:#000000;stroke-width:0.8;" x="747.185663" xlink:href="#mb9cbc235ea" y="856.7496"/>
      </g>
     </g>
     <g id="text_4">
      <!-- 2019-01 -->
      <g transform="translate(726.294256 871.348038)scale(0.1 -0.1)">
       <use xlink:href="#DejaVuSans-50"/>
       <use x="63.623047" xlink:href="#DejaVuSans-48"/>
       <use x="127.246094" xlink:href="#DejaVuSans-49"/>
       <use x="190.869141" xlink:href="#DejaVuSans-57"/>
       <use x="254.492188" xlink:href="#DejaVuSans-45"/>
       <use x="290.576172" xlink:href="#DejaVuSans-48"/>
       <use x="354.199219" xlink:href="#DejaVuSans-49"/>
      </g>
     </g>
    </g>
    <g id="xtick_5">
     <g id="line2d_5">
      <g>
       <use style="stroke:#000000;stroke-width:0.8;" x="895.74065" xlink:href="#mb9cbc235ea" y="856.7496"/>
      </g>
     </g>
     <g id="text_5">
      <!-- 2019-05 -->
      <g transform="translate(874.849244 871.348038)scale(0.1 -0.1)">
       <use xlink:href="#DejaVuSans-50"/>
       <use x="63.623047" xlink:href="#DejaVuSans-48"/>
       <use x="127.246094" xlink:href="#DejaVuSans-49"/>
       <use x="190.869141" xlink:href="#DejaVuSans-57"/>
       <use x="254.492188" xlink:href="#DejaVuSans-45"/>
       <use x="290.576172" xlink:href="#DejaVuSans-48"/>
       <use x="354.199219" xlink:href="#DejaVuSans-53"/>
      </g>
     </g>
    </g>
    <g id="xtick_6">
     <g id="line2d_6">
      <g>
       <use style="stroke:#000000;stroke-width:0.8;" x="1048.009512" xlink:href="#mb9cbc235ea" y="856.7496"/>
      </g>
     </g>
     <g id="text_6">
      <!-- 2019-09 -->
      <g transform="translate(1027.118106 871.348038)scale(0.1 -0.1)">
       <use xlink:href="#DejaVuSans-50"/>
       <use x="63.623047" xlink:href="#DejaVuSans-48"/>
       <use x="127.246094" xlink:href="#DejaVuSans-49"/>
       <use x="190.869141" xlink:href="#DejaVuSans-57"/>
       <use x="254.492188" xlink:href="#DejaVuSans-45"/>
       <use x="290.576172" xlink:href="#DejaVuSans-48"/>
       <use x="354.199219" xlink:href="#DejaVuSans-57"/>
      </g>
     </g>
    </g>
    <g id="xtick_7">
     <g id="line2d_7">
      <g>
       <use style="stroke:#000000;stroke-width:0.8;" x="1199.040416" xlink:href="#mb9cbc235ea" y="856.7496"/>
      </g>
     </g>
     <g id="text_7">
      <!-- 2020-01 -->
      <g transform="translate(1178.14901 871.348038)scale(0.1 -0.1)">
       <use xlink:href="#DejaVuSans-50"/>
       <use x="63.623047" xlink:href="#DejaVuSans-48"/>
       <use x="127.246094" xlink:href="#DejaVuSans-50"/>
       <use x="190.869141" xlink:href="#DejaVuSans-48"/>
       <use x="254.492188" xlink:href="#DejaVuSans-45"/>
       <use x="290.576172" xlink:href="#DejaVuSans-48"/>
       <use x="354.199219" xlink:href="#DejaVuSans-49"/>
      </g>
     </g>
    </g>
    <g id="xtick_8">
     <g id="line2d_8">
      <g>
       <use style="stroke:#000000;stroke-width:0.8;" x="1348.833362" xlink:href="#mb9cbc235ea" y="856.7496"/>
      </g>
     </g>
     <g id="text_8">
      <!-- 2020-05 -->
      <g transform="translate(1327.941955 871.348038)scale(0.1 -0.1)">
       <use xlink:href="#DejaVuSans-50"/>
       <use x="63.623047" xlink:href="#DejaVuSans-48"/>
       <use x="127.246094" xlink:href="#DejaVuSans-50"/>
       <use x="190.869141" xlink:href="#DejaVuSans-48"/>
       <use x="254.492188" xlink:href="#DejaVuSans-45"/>
       <use x="290.576172" xlink:href="#DejaVuSans-48"/>
       <use x="354.199219" xlink:href="#DejaVuSans-53"/>
      </g>
     </g>
    </g>
    <g id="xtick_9">
     <g id="line2d_9">
      <g>
       <use style="stroke:#000000;stroke-width:0.8;" x="1501.102224" xlink:href="#mb9cbc235ea" y="856.7496"/>
      </g>
     </g>
     <g id="text_9">
      <!-- 2020-09 -->
      <g transform="translate(1480.210818 871.348038)scale(0.1 -0.1)">
       <use xlink:href="#DejaVuSans-50"/>
       <use x="63.623047" xlink:href="#DejaVuSans-48"/>
       <use x="127.246094" xlink:href="#DejaVuSans-50"/>
       <use x="190.869141" xlink:href="#DejaVuSans-48"/>
       <use x="254.492188" xlink:href="#DejaVuSans-45"/>
       <use x="290.576172" xlink:href="#DejaVuSans-48"/>
       <use x="354.199219" xlink:href="#DejaVuSans-57"/>
      </g>
     </g>
    </g>
    <g id="xtick_10">
     <g id="line2d_10">
      <g>
       <use style="stroke:#000000;stroke-width:0.8;" x="1652.133128" xlink:href="#mb9cbc235ea" y="856.7496"/>
      </g>
     </g>
     <g id="text_10">
      <!-- 2021-01 -->
      <g transform="translate(1631.241721 871.348038)scale(0.1 -0.1)">
       <use xlink:href="#DejaVuSans-50"/>
       <use x="63.623047" xlink:href="#DejaVuSans-48"/>
       <use x="127.246094" xlink:href="#DejaVuSans-50"/>
       <use x="190.869141" xlink:href="#DejaVuSans-49"/>
       <use x="254.492188" xlink:href="#DejaVuSans-45"/>
       <use x="290.576172" xlink:href="#DejaVuSans-48"/>
       <use x="354.199219" xlink:href="#DejaVuSans-49"/>
      </g>
     </g>
    </g>
    <g id="text_11">
     <!-- Date -->
     <g transform="translate(932.689219 885.026163)scale(0.1 -0.1)">
      <defs>
       <path d="M 19.671875 64.796875 
L 19.671875 8.109375 
L 31.59375 8.109375 
Q 46.6875 8.109375 53.6875 14.9375 
Q 60.6875 21.78125 60.6875 36.53125 
Q 60.6875 51.171875 53.6875 57.984375 
Q 46.6875 64.796875 31.59375 64.796875 
z
M 9.8125 72.90625 
L 30.078125 72.90625 
Q 51.265625 72.90625 61.171875 64.09375 
Q 71.09375 55.28125 71.09375 36.53125 
Q 71.09375 17.671875 61.125 8.828125 
Q 51.171875 0 30.078125 0 
L 9.8125 0 
z
" id="DejaVuSans-68"/>
       <path d="M 34.28125 27.484375 
Q 23.390625 27.484375 19.1875 25 
Q 14.984375 22.515625 14.984375 16.5 
Q 14.984375 11.71875 18.140625 8.90625 
Q 21.296875 6.109375 26.703125 6.109375 
Q 34.1875 6.109375 38.703125 11.40625 
Q 43.21875 16.703125 43.21875 25.484375 
L 43.21875 27.484375 
z
M 52.203125 31.203125 
L 52.203125 0 
L 43.21875 0 
L 43.21875 8.296875 
Q 40.140625 3.328125 35.546875 0.953125 
Q 30.953125 -1.421875 24.3125 -1.421875 
Q 15.921875 -1.421875 10.953125 3.296875 
Q 6 8.015625 6 15.921875 
Q 6 25.140625 12.171875 29.828125 
Q 18.359375 34.515625 30.609375 34.515625 
L 43.21875 34.515625 
L 43.21875 35.40625 
Q 43.21875 41.609375 39.140625 45 
Q 35.0625 48.390625 27.6875 48.390625 
Q 23 48.390625 18.546875 47.265625 
Q 14.109375 46.140625 10.015625 43.890625 
L 10.015625 52.203125 
Q 14.9375 54.109375 19.578125 55.046875 
Q 24.21875 56 28.609375 56 
Q 40.484375 56 46.34375 49.84375 
Q 52.203125 43.703125 52.203125 31.203125 
z
" id="DejaVuSans-97"/>
       <path d="M 18.3125 70.21875 
L 18.3125 54.6875 
L 36.8125 54.6875 
L 36.8125 47.703125 
L 18.3125 47.703125 
L 18.3125 18.015625 
Q 18.3125 11.328125 20.140625 9.421875 
Q 21.96875 7.515625 27.59375 7.515625 
L 36.8125 7.515625 
L 36.8125 0 
L 27.59375 0 
Q 17.1875 0 13.234375 3.875 
Q 9.28125 7.765625 9.28125 18.015625 
L 9.28125 47.703125 
L 2.6875 47.703125 
L 2.6875 54.6875 
L 9.28125 54.6875 
L 9.28125 70.21875 
z
" id="DejaVuSans-116"/>
       <path d="M 56.203125 29.59375 
L 56.203125 25.203125 
L 14.890625 25.203125 
Q 15.484375 15.921875 20.484375 11.0625 
Q 25.484375 6.203125 34.421875 6.203125 
Q 39.59375 6.203125 44.453125 7.46875 
Q 49.3125 8.734375 54.109375 11.28125 
L 54.109375 2.78125 
Q 49.265625 0.734375 44.1875 -0.34375 
Q 39.109375 -1.421875 33.890625 -1.421875 
Q 20.796875 -1.421875 13.15625 6.1875 
Q 5.515625 13.8125 5.515625 26.8125 
Q 5.515625 40.234375 12.765625 48.109375 
Q 20.015625 56 32.328125 56 
Q 43.359375 56 49.78125 48.890625 
Q 56.203125 41.796875 56.203125 29.59375 
z
M 47.21875 32.234375 
Q 47.125 39.59375 43.09375 43.984375 
Q 39.0625 48.390625 32.421875 48.390625 
Q 24.90625 48.390625 20.390625 44.140625 
Q 15.875 39.890625 15.1875 32.171875 
z
" id="DejaVuSans-101"/>
      </defs>
      <use xlink:href="#DejaVuSans-68"/>
      <use x="77.001953" xlink:href="#DejaVuSans-97"/>
      <use x="138.28125" xlink:href="#DejaVuSans-116"/>
      <use x="177.490234" xlink:href="#DejaVuSans-101"/>
     </g>
    </g>
   </g>
   <g id="matplotlib.axis_2">
    <g id="ytick_1">
     <g id="line2d_11">
      <defs>
       <path d="M 0 0 
L -3.5 0 
" id="m643418cc77" style="stroke:#000000;stroke-width:0.8;"/>
      </defs>
      <g>
       <use style="stroke:#000000;stroke-width:0.8;" x="230.4" xlink:href="#m643418cc77" y="824.12589"/>
      </g>
     </g>
     <g id="text_12">
      <!-- 0.00 -->
      <g transform="translate(201.134375 827.925109)scale(0.1 -0.1)">
       <defs>
        <path d="M 10.6875 12.40625 
L 21 12.40625 
L 21 0 
L 10.6875 0 
z
" id="DejaVuSans-46"/>
       </defs>
       <use xlink:href="#DejaVuSans-48"/>
       <use x="63.623047" xlink:href="#DejaVuSans-46"/>
       <use x="95.410156" xlink:href="#DejaVuSans-48"/>
       <use x="159.033203" xlink:href="#DejaVuSans-48"/>
      </g>
     </g>
    </g>
    <g id="ytick_2">
     <g id="line2d_12">
      <g>
       <use style="stroke:#000000;stroke-width:0.8;" x="230.4" xlink:href="#m643418cc77" y="730.358084"/>
      </g>
     </g>
     <g id="text_13">
      <!-- 0.25 -->
      <g transform="translate(201.134375 734.157303)scale(0.1 -0.1)">
       <use xlink:href="#DejaVuSans-48"/>
       <use x="63.623047" xlink:href="#DejaVuSans-46"/>
       <use x="95.410156" xlink:href="#DejaVuSans-50"/>
       <use x="159.033203" xlink:href="#DejaVuSans-53"/>
      </g>
     </g>
    </g>
    <g id="ytick_3">
     <g id="line2d_13">
      <g>
       <use style="stroke:#000000;stroke-width:0.8;" x="230.4" xlink:href="#m643418cc77" y="636.590278"/>
      </g>
     </g>
     <g id="text_14">
      <!-- 0.50 -->
      <g transform="translate(201.134375 640.389497)scale(0.1 -0.1)">
       <use xlink:href="#DejaVuSans-48"/>
       <use x="63.623047" xlink:href="#DejaVuSans-46"/>
       <use x="95.410156" xlink:href="#DejaVuSans-53"/>
       <use x="159.033203" xlink:href="#DejaVuSans-48"/>
      </g>
     </g>
    </g>
    <g id="ytick_4">
     <g id="line2d_14">
      <g>
       <use style="stroke:#000000;stroke-width:0.8;" x="230.4" xlink:href="#m643418cc77" y="542.822472"/>
      </g>
     </g>
     <g id="text_15">
      <!-- 0.75 -->
      <g transform="translate(201.134375 546.621691)scale(0.1 -0.1)">
       <defs>
        <path d="M 8.203125 72.90625 
L 55.078125 72.90625 
L 55.078125 68.703125 
L 28.609375 0 
L 18.3125 0 
L 43.21875 64.59375 
L 8.203125 64.59375 
z
" id="DejaVuSans-55"/>
       </defs>
       <use xlink:href="#DejaVuSans-48"/>
       <use x="63.623047" xlink:href="#DejaVuSans-46"/>
       <use x="95.410156" xlink:href="#DejaVuSans-55"/>
       <use x="159.033203" xlink:href="#DejaVuSans-53"/>
      </g>
     </g>
    </g>
    <g id="ytick_5">
     <g id="line2d_15">
      <g>
       <use style="stroke:#000000;stroke-width:0.8;" x="230.4" xlink:href="#m643418cc77" y="449.054666"/>
      </g>
     </g>
     <g id="text_16">
      <!-- 1.00 -->
      <g transform="translate(201.134375 452.853885)scale(0.1 -0.1)">
       <use xlink:href="#DejaVuSans-49"/>
       <use x="63.623047" xlink:href="#DejaVuSans-46"/>
       <use x="95.410156" xlink:href="#DejaVuSans-48"/>
       <use x="159.033203" xlink:href="#DejaVuSans-48"/>
      </g>
     </g>
    </g>
    <g id="ytick_6">
     <g id="line2d_16">
      <g>
       <use style="stroke:#000000;stroke-width:0.8;" x="230.4" xlink:href="#m643418cc77" y="355.28686"/>
      </g>
     </g>
     <g id="text_17">
      <!-- 1.25 -->
      <g transform="translate(201.134375 359.086078)scale(0.1 -0.1)">
       <use xlink:href="#DejaVuSans-49"/>
       <use x="63.623047" xlink:href="#DejaVuSans-46"/>
       <use x="95.410156" xlink:href="#DejaVuSans-50"/>
       <use x="159.033203" xlink:href="#DejaVuSans-53"/>
      </g>
     </g>
    </g>
    <g id="ytick_7">
     <g id="line2d_17">
      <g>
       <use style="stroke:#000000;stroke-width:0.8;" x="230.4" xlink:href="#m643418cc77" y="261.519053"/>
      </g>
     </g>
     <g id="text_18">
      <!-- 1.50 -->
      <g transform="translate(201.134375 265.318272)scale(0.1 -0.1)">
       <use xlink:href="#DejaVuSans-49"/>
       <use x="63.623047" xlink:href="#DejaVuSans-46"/>
       <use x="95.410156" xlink:href="#DejaVuSans-53"/>
       <use x="159.033203" xlink:href="#DejaVuSans-48"/>
      </g>
     </g>
    </g>
    <g id="ytick_8">
     <g id="line2d_18">
      <g>
       <use style="stroke:#000000;stroke-width:0.8;" x="230.4" xlink:href="#m643418cc77" y="167.751247"/>
      </g>
     </g>
     <g id="text_19">
      <!-- 1.75 -->
      <g transform="translate(201.134375 171.550466)scale(0.1 -0.1)">
       <use xlink:href="#DejaVuSans-49"/>
       <use x="63.623047" xlink:href="#DejaVuSans-46"/>
       <use x="95.410156" xlink:href="#DejaVuSans-55"/>
       <use x="159.033203" xlink:href="#DejaVuSans-53"/>
      </g>
     </g>
    </g>
    <g id="text_20">
     <!-- Daily sum -->
     <g transform="translate(195.054688 511.017575)rotate(-90)scale(0.1 -0.1)">
      <defs>
       <path d="M 9.421875 54.6875 
L 18.40625 54.6875 
L 18.40625 0 
L 9.421875 0 
z
M 9.421875 75.984375 
L 18.40625 75.984375 
L 18.40625 64.59375 
L 9.421875 64.59375 
z
" id="DejaVuSans-105"/>
       <path d="M 9.421875 75.984375 
L 18.40625 75.984375 
L 18.40625 0 
L 9.421875 0 
z
" id="DejaVuSans-108"/>
       <path d="M 32.171875 -5.078125 
Q 28.375 -14.84375 24.75 -17.8125 
Q 21.140625 -20.796875 15.09375 -20.796875 
L 7.90625 -20.796875 
L 7.90625 -13.28125 
L 13.1875 -13.28125 
Q 16.890625 -13.28125 18.9375 -11.515625 
Q 21 -9.765625 23.484375 -3.21875 
L 25.09375 0.875 
L 2.984375 54.6875 
L 12.5 54.6875 
L 29.59375 11.921875 
L 46.6875 54.6875 
L 56.203125 54.6875 
z
" id="DejaVuSans-121"/>
       <path id="DejaVuSans-32"/>
       <path d="M 44.28125 53.078125 
L 44.28125 44.578125 
Q 40.484375 46.53125 36.375 47.5 
Q 32.28125 48.484375 27.875 48.484375 
Q 21.1875 48.484375 17.84375 46.4375 
Q 14.5 44.390625 14.5 40.28125 
Q 14.5 37.15625 16.890625 35.375 
Q 19.28125 33.59375 26.515625 31.984375 
L 29.59375 31.296875 
Q 39.15625 29.25 43.1875 25.515625 
Q 47.21875 21.78125 47.21875 15.09375 
Q 47.21875 7.46875 41.1875 3.015625 
Q 35.15625 -1.421875 24.609375 -1.421875 
Q 20.21875 -1.421875 15.453125 -0.5625 
Q 10.6875 0.296875 5.421875 2 
L 5.421875 11.28125 
Q 10.40625 8.6875 15.234375 7.390625 
Q 20.0625 6.109375 24.8125 6.109375 
Q 31.15625 6.109375 34.5625 8.28125 
Q 37.984375 10.453125 37.984375 14.40625 
Q 37.984375 18.0625 35.515625 20.015625 
Q 33.0625 21.96875 24.703125 23.78125 
L 21.578125 24.515625 
Q 13.234375 26.265625 9.515625 29.90625 
Q 5.8125 33.546875 5.8125 39.890625 
Q 5.8125 47.609375 11.28125 51.796875 
Q 16.75 56 26.8125 56 
Q 31.78125 56 36.171875 55.265625 
Q 40.578125 54.546875 44.28125 53.078125 
z
" id="DejaVuSans-115"/>
       <path d="M 8.5 21.578125 
L 8.5 54.6875 
L 17.484375 54.6875 
L 17.484375 21.921875 
Q 17.484375 14.15625 20.5 10.265625 
Q 23.53125 6.390625 29.59375 6.390625 
Q 36.859375 6.390625 41.078125 11.03125 
Q 45.3125 15.671875 45.3125 23.6875 
L 45.3125 54.6875 
L 54.296875 54.6875 
L 54.296875 0 
L 45.3125 0 
L 45.3125 8.40625 
Q 42.046875 3.421875 37.71875 1 
Q 33.40625 -1.421875 27.6875 -1.421875 
Q 18.265625 -1.421875 13.375 4.4375 
Q 8.5 10.296875 8.5 21.578125 
z
M 31.109375 56 
z
" id="DejaVuSans-117"/>
       <path d="M 52 44.1875 
Q 55.375 50.25 60.0625 53.125 
Q 64.75 56 71.09375 56 
Q 79.640625 56 84.28125 50.015625 
Q 88.921875 44.046875 88.921875 33.015625 
L 88.921875 0 
L 79.890625 0 
L 79.890625 32.71875 
Q 79.890625 40.578125 77.09375 44.375 
Q 74.3125 48.1875 68.609375 48.1875 
Q 61.625 48.1875 57.5625 43.546875 
Q 53.515625 38.921875 53.515625 30.90625 
L 53.515625 0 
L 44.484375 0 
L 44.484375 32.71875 
Q 44.484375 40.625 41.703125 44.40625 
Q 38.921875 48.1875 33.109375 48.1875 
Q 26.21875 48.1875 22.15625 43.53125 
Q 18.109375 38.875 18.109375 30.90625 
L 18.109375 0 
L 9.078125 0 
L 9.078125 54.6875 
L 18.109375 54.6875 
L 18.109375 46.1875 
Q 21.1875 51.21875 25.484375 53.609375 
Q 29.78125 56 35.6875 56 
Q 41.65625 56 45.828125 52.96875 
Q 50 49.953125 52 44.1875 
z
" id="DejaVuSans-109"/>
      </defs>
      <use xlink:href="#DejaVuSans-68"/>
      <use x="77.001953" xlink:href="#DejaVuSans-97"/>
      <use x="138.28125" xlink:href="#DejaVuSans-105"/>
      <use x="166.064453" xlink:href="#DejaVuSans-108"/>
      <use x="193.847656" xlink:href="#DejaVuSans-121"/>
      <use x="253.027344" xlink:href="#DejaVuSans-32"/>
      <use x="284.814453" xlink:href="#DejaVuSans-115"/>
      <use x="336.914062" xlink:href="#DejaVuSans-117"/>
      <use x="400.292969" xlink:href="#DejaVuSans-109"/>
     </g>
    </g>
    <g id="text_21">
     <!-- 1e6 -->
     <g transform="translate(230.4 112.5168)scale(0.1 -0.1)">
      <defs>
       <path d="M 33.015625 40.375 
Q 26.375 40.375 22.484375 35.828125 
Q 18.609375 31.296875 18.609375 23.390625 
Q 18.609375 15.53125 22.484375 10.953125 
Q 26.375 6.390625 33.015625 6.390625 
Q 39.65625 6.390625 43.53125 10.953125 
Q 47.40625 15.53125 47.40625 23.390625 
Q 47.40625 31.296875 43.53125 35.828125 
Q 39.65625 40.375 33.015625 40.375 
z
M 52.59375 71.296875 
L 52.59375 62.3125 
Q 48.875 64.0625 45.09375 64.984375 
Q 41.3125 65.921875 37.59375 65.921875 
Q 27.828125 65.921875 22.671875 59.328125 
Q 17.53125 52.734375 16.796875 39.40625 
Q 19.671875 43.65625 24.015625 45.921875 
Q 28.375 48.1875 33.59375 48.1875 
Q 44.578125 48.1875 50.953125 41.515625 
Q 57.328125 34.859375 57.328125 23.390625 
Q 57.328125 12.15625 50.6875 5.359375 
Q 44.046875 -1.421875 33.015625 -1.421875 
Q 20.359375 -1.421875 13.671875 8.265625 
Q 6.984375 17.96875 6.984375 36.375 
Q 6.984375 53.65625 15.1875 63.9375 
Q 23.390625 74.21875 37.203125 74.21875 
Q 40.921875 74.21875 44.703125 73.484375 
Q 48.484375 72.75 52.59375 71.296875 
z
" id="DejaVuSans-54"/>
      </defs>
      <use xlink:href="#DejaVuSans-49"/>
      <use x="63.623047" xlink:href="#DejaVuSans-101"/>
      <use x="125.146484" xlink:href="#DejaVuSans-54"/>
     </g>
    </g>
   </g>
   <g id="line2d_19">
    <path clip-path="url(#p6b9441b0b2)" d="M 295.330909 685.02123 
L 296.568867 654.794791 
L 297.806826 468.991611 
L 299.044784 621.143746 
L 300.282742 744.06786 
L 301.5207 536.288776 
L 302.758658 663.383956 
L 303.996617 606.094726 
L 305.234575 516.692798 
L 306.472533 768.593483 
L 307.710491 744.879653 
L 308.94845 655.131669 
L 310.186408 719.050951 
L 311.424366 687.000432 
L 312.662324 269.420038 
L 313.900283 545.514928 
L 315.138241 551.920807 
L 316.376199 667.716336 
L 317.614157 533.7457 
L 318.852115 625.482124 
L 320.090074 652.040159 
L 321.328032 531.256873 
L 322.56599 690.799266 
L 323.803948 667.2069 
L 325.041907 586.138945 
L 326.279865 612.102947 
L 327.517823 545.138792 
L 328.755781 444.182869 
L 329.993739 726.401289 
L 331.231698 453.093538 
L 332.469656 669.71068 
L 333.707614 471.144403 
L 334.945572 391.255984 
L 336.183531 656.372945 
L 337.421489 659.44887 
L 338.659447 679.994154 
L 339.897405 530.875782 
L 341.135364 812.105893 
L 342.373322 654.90672 
L 343.61128 652.738493 
L 344.849238 697.675938 
L 346.087196 751.126592 
L 348.563113 210.047553 
L 349.801071 536.160854 
L 351.039029 575.882551 
L 352.276988 571.434604 
L 353.514946 545.660632 
L 354.752904 653.69323 
L 355.990862 535.764325 
L 357.228821 667.750607 
L 358.466779 476.619445 
L 359.704737 715.798479 
L 360.942695 659.679738 
L 362.180653 674.981886 
L 363.418612 713.475896 
L 364.65657 783.124462 
L 365.894528 481.399034 
L 367.132486 702.209514 
L 368.370445 675.650672 
L 369.608403 689.908299 
L 370.846361 670.363597 
L 372.084319 516.381878 
L 373.322277 758.685331 
L 374.560236 538.813774 
L 375.798194 694.107315 
L 377.036152 432.752574 
L 378.27411 343.935764 
L 379.512069 689.528532 
L 380.750027 728.408014 
L 381.987985 693.329219 
L 383.225943 666.973253 
L 384.463902 509.016879 
L 385.70186 667.753802 
L 386.939818 684.149767 
L 388.177776 794.284815 
L 389.415734 764.663516 
L 390.653693 721.04642 
L 391.891651 782.658395 
L 393.129609 708.413687 
L 394.367567 618.258256 
L 395.605526 337.169348 
L 396.843484 719.163183 
L 399.3194 527.282202 
L 400.557359 755.994964 
L 401.795317 702.905076 
L 403.033275 763.451372 
L 404.271233 670.174234 
L 405.509191 680.179458 
L 406.74715 706.912813 
L 407.985108 479.417049 
L 409.223066 667.484617 
L 410.461024 639.124353 
L 411.698983 597.571127 
L 412.936941 440.638533 
L 414.174899 709.816911 
L 415.412857 617.449156 
L 416.650815 746.3988 
L 417.888774 639.170873 
L 419.126732 652.559824 
L 420.36469 497.584254 
L 421.602648 778.309193 
L 422.840607 743.210256 
L 424.078565 753.391426 
L 425.316523 781.197312 
L 426.554481 721.536833 
L 427.79244 676.453651 
L 429.030398 507.456815 
L 430.268356 571.139067 
L 431.506314 527.087645 
L 432.744272 638.966778 
L 433.982231 591.264755 
L 435.220189 625.063308 
L 436.458147 787.040944 
L 437.696105 579.615718 
L 438.934064 609.852283 
L 440.172022 723.622593 
L 441.40998 644.866495 
L 442.647938 693.678722 
L 443.885897 619.018146 
L 445.123855 778.506788 
L 446.361813 430.60055 
L 448.837729 701.89687 
L 450.075688 706.584825 
L 451.313646 578.464185 
L 452.551604 678.332296 
L 453.789562 609.397153 
L 455.027521 772.753731 
L 456.265479 674.795292 
L 457.503437 515.521221 
L 458.741395 565.866645 
L 461.217312 612.812938 
L 462.45527 700.718471 
L 463.693228 660.25821 
L 464.931186 564.283841 
L 466.169145 694.547 
L 467.407103 598.13019 
L 468.645061 624.385055 
L 469.883019 703.97068 
L 471.120978 616.117507 
L 472.358936 431.855126 
L 473.596894 597.707042 
L 474.834852 641.040742 
L 476.07281 399.87038 
L 477.310769 477.117439 
L 478.548727 544.737222 
L 479.786685 670.00519 
L 481.024643 499.844639 
L 482.262602 549.471183 
L 483.50056 763.311279 
L 484.738518 642.070204 
L 485.976476 623.784491 
L 487.214435 673.985209 
L 488.452393 564.046815 
L 489.690351 590.801234 
L 490.928309 774.142718 
L 492.166267 625.920612 
L 493.404226 664.95759 
L 494.642184 524.880599 
L 495.880142 451.98168 
L 497.1181 456.874687 
L 498.356059 504.594639 
L 499.594017 399.370601 
L 500.831975 573.971601 
L 502.069933 580.549592 
L 503.307891 615.519362 
L 504.54585 691.892977 
L 505.783808 738.92512 
L 507.021766 494.261164 
L 508.259724 606.473214 
L 509.497683 450.205058 
L 510.735641 715.547189 
L 511.973599 753.359901 
L 513.211557 675.203201 
L 514.449516 669.674261 
L 515.687474 428.858948 
L 516.925432 469.919312 
L 518.16339 620.775291 
L 519.401348 745.097727 
L 520.639307 535.573429 
L 521.877265 733.023884 
L 523.115223 645.574584 
L 524.353181 652.825634 
L 525.59114 750.508621 
L 526.829098 644.841267 
L 528.067056 581.670343 
L 529.305014 429.223315 
L 531.780931 790.639753 
L 533.018889 785.23959 
L 534.256847 624.449999 
L 535.494805 697.238886 
L 536.732764 391.077686 
L 537.970722 676.672377 
L 539.20868 700.47883 
L 540.446638 694.437303 
L 541.684597 557.372741 
L 542.922555 372.207268 
L 544.160513 621.242454 
L 545.398471 572.110036 
L 546.636429 302.063867 
L 549.112346 650.610017 
L 550.350304 415.928713 
L 551.588262 529.065628 
L 552.826221 392.829726 
L 554.064179 624.686834 
L 555.302137 501.44832 
L 556.540095 481.483481 
L 557.778054 707.470203 
L 559.016012 524.65784 
L 560.25397 541.656563 
L 561.491928 554.498735 
L 562.729886 633.315107 
L 563.967845 541.390097 
L 565.205803 639.366867 
L 566.443761 748.672512 
L 567.681719 650.060387 
L 570.157636 521.564526 
L 571.395594 557.142751 
L 572.633552 653.507708 
L 573.871511 420.304496 
L 576.347427 612.515705 
L 577.585385 527.255535 
L 578.823343 701.169138 
L 580.061302 552.523629 
L 581.29926 653.933497 
L 582.537218 639.353582 
L 583.775176 793.372616 
L 585.013135 720.307064 
L 586.251093 627.524034 
L 587.489051 634.130107 
L 588.727009 446.11584 
L 589.964968 773.61632 
L 591.202926 632.641386 
L 592.440884 629.733665 
L 593.678842 562.594884 
L 594.9168 563.230675 
L 596.154759 436.980684 
L 597.392717 657.102057 
L 598.630675 432.454347 
L 599.868633 725.597898 
L 601.106592 734.666381 
L 602.34455 526.375756 
L 603.582508 573.058044 
L 604.820466 603.184886 
L 606.058424 648.860613 
L 607.296383 742.240453 
L 608.534341 533.050239 
L 609.772299 575.815245 
L 611.010257 665.184268 
L 612.248216 528.831876 
L 613.486174 669.061409 
L 614.724132 613.592261 
L 615.96209 596.920607 
L 617.200049 700.289056 
L 618.438007 747.789422 
L 619.675965 577.907111 
L 620.913923 745.399146 
L 622.151881 713.471628 
L 623.38984 659.63231 
L 624.627798 647.764092 
L 625.865756 722.479968 
L 627.103714 592.016521 
L 628.341673 601.339344 
L 629.579631 643.833972 
L 630.817589 759.531117 
L 632.055547 747.785671 
L 633.293506 622.877967 
L 634.531464 670.418627 
L 635.769422 450.707076 
L 637.00738 735.006042 
L 638.245338 577.745755 
L 639.483297 472.942037 
L 640.721255 773.99869 
L 641.959213 764.559614 
L 643.197171 312.617527 
L 644.43513 751.339914 
L 645.673088 273.354651 
L 646.911046 398.137659 
L 648.149004 716.649381 
L 649.386962 573.424556 
L 650.624921 623.963404 
L 651.862879 698.084136 
L 653.100837 752.5634 
L 654.338795 366.604994 
L 655.576754 671.973353 
L 656.814712 394.528383 
L 658.05267 278.182677 
L 659.290628 625.189216 
L 660.528587 318.314544 
L 661.766545 666.551219 
L 663.004503 643.586118 
L 664.242461 453.460642 
L 665.480419 703.84682 
L 666.718378 615.997244 
L 667.956336 284.885829 
L 669.194294 732.471164 
L 670.432252 651.092452 
L 671.670211 607.916586 
L 672.908169 495.728334 
L 674.146127 511.213588 
L 675.384085 462.621997 
L 676.622044 771.621384 
L 677.860002 659.241947 
L 679.09796 695.642883 
L 680.335918 813.499804 
L 681.573876 562.116402 
L 682.811835 590.622922 
L 684.049793 690.752922 
L 685.287751 336.564073 
L 686.525709 655.945671 
L 687.763668 602.6287 
L 689.001626 574.530978 
L 690.239584 471.09594 
L 691.477542 660.797307 
L 692.7155 634.710294 
L 693.953459 727.09516 
L 695.191417 671.705448 
L 696.429375 646.890057 
L 697.667333 393.698204 
L 698.905292 612.97312 
L 700.14325 707.530904 
L 701.381208 677.773792 
L 702.619166 401.677814 
L 703.857125 518.446908 
L 705.095083 547.42835 
L 706.333041 518.78484 
L 707.570999 732.26962 
L 708.808957 696.399784 
L 710.046916 515.765408 
L 711.284874 518.5863 
L 712.522832 600.4212 
L 713.76079 728.209883 
L 716.236707 608.10345 
L 717.474665 707.937043 
L 718.712623 543.071999 
L 719.950582 747.313243 
L 721.18854 667.500389 
L 722.426498 676.871041 
L 723.664456 509.389958 
L 724.902414 621.400704 
L 726.140373 454.41779 
L 727.378331 641.0501 
L 728.616289 512.243984 
L 729.854247 479.819178 
L 731.092206 579.048591 
L 732.330164 522.220406 
L 733.568122 551.596596 
L 734.80608 772.196976 
L 736.044038 499.653158 
L 737.281997 671.277626 
L 738.519955 674.388362 
L 739.757913 670.448246 
L 740.995871 508.666813 
L 742.23383 598.139915 
L 743.471788 741.800251 
L 744.709746 397.019763 
L 745.947704 750.671 
L 747.185663 675.905473 
L 748.423621 688.205637 
L 749.661579 468.899688 
L 750.899537 463.137368 
L 752.137495 565.072792 
L 753.375454 654.676111 
L 754.613412 592.496042 
L 755.85137 629.114606 
L 757.089328 589.235691 
L 758.327287 668.948352 
L 759.565245 572.360272 
L 760.803203 772.81354 
L 762.041161 450.103973 
L 763.27912 610.025952 
L 764.517078 655.079639 
L 765.755036 327.4175 
L 766.992994 732.866298 
L 768.230952 612.244934 
L 769.468911 640.300306 
L 770.706869 381.468755 
L 771.944827 680.214178 
L 773.182785 685.68733 
L 774.420744 511.157624 
L 775.658702 675.324195 
L 776.89666 788.194825 
L 778.134618 755.815969 
L 779.372576 706.781718 
L 780.610535 571.729016 
L 781.848493 655.705877 
L 783.086451 592.104528 
L 784.324409 626.525208 
L 785.562368 744.880835 
L 786.800326 583.020862 
L 788.038284 598.976197 
L 789.276242 745.567624 
L 790.514201 727.277816 
L 791.752159 684.634652 
L 792.990117 646.939547 
L 794.228075 596.53488 
L 795.466033 615.599323 
L 796.703992 536.184656 
L 797.94195 650.302394 
L 799.179908 744.381866 
L 800.417866 682.017693 
L 801.655825 474.970823 
L 802.893783 544.315402 
L 804.131741 582.734304 
L 805.369699 697.161967 
L 806.607658 655.964215 
L 807.845616 585.355943 
L 809.083574 604.154077 
L 811.55949 800.403734 
L 812.797449 643.640413 
L 814.035407 596.206078 
L 815.273365 521.965395 
L 816.511323 788.643432 
L 817.749282 565.75747 
L 818.98724 458.078152 
L 820.225198 485.751679 
L 821.463156 538.426322 
L 822.701114 653.442187 
L 823.939073 403.514969 
L 825.177031 671.6381 
L 826.414989 765.977803 
L 827.652947 495.386216 
L 830.128864 727.006459 
L 831.366822 647.213931 
L 832.60478 688.12955 
L 833.842739 509.646679 
L 835.080697 606.180291 
L 836.318655 680.330537 
L 837.556613 395.525757 
L 838.794571 633.516476 
L 840.03253 719.903443 
L 841.270488 670.25504 
L 842.508446 498.999476 
L 843.746404 615.845659 
L 844.984363 681.931221 
L 846.222321 509.182844 
L 847.460279 690.173647 
L 848.698237 698.450719 
L 849.936196 744.174984 
L 851.174154 616.126655 
L 852.412112 618.811294 
L 853.65007 674.681945 
L 854.888028 149.2092 
L 856.125987 689.328079 
L 858.601903 447.370322 
L 859.839861 503.00718 
L 861.07782 707.590781 
L 862.315778 620.157204 
L 863.553736 639.418098 
L 864.791694 611.771391 
L 866.029652 506.811437 
L 867.267611 758.354852 
L 868.505569 763.859892 
L 869.743527 661.577924 
L 870.981485 596.541122 
L 872.219444 820.075661 
L 873.457402 555.382426 
L 874.69536 541.454842 
L 875.933318 388.811555 
L 877.171277 607.222745 
L 878.409235 600.387248 
L 879.647193 631.813266 
L 880.885151 650.605193 
L 882.123109 511.813038 
L 883.361068 662.791419 
L 884.599026 509.365054 
L 885.836984 571.070099 
L 887.074942 481.947771 
L 889.550859 574.14353 
L 890.788817 792.545085 
L 892.026775 612.913356 
L 893.264734 557.007516 
L 894.502692 628.83819 
L 895.74065 677.000864 
L 896.978608 601.738675 
L 898.216566 556.573382 
L 899.454525 699.683852 
L 900.692483 504.274508 
L 901.930441 437.812176 
L 903.168399 508.853396 
L 904.406358 640.692653 
L 905.644316 604.33461 
L 906.882274 482.533422 
L 908.120232 772.711802 
L 909.35819 758.582363 
L 911.834107 710.103736 
L 913.072065 743.071934 
L 914.310023 439.186861 
L 915.547982 506.455637 
L 916.78594 488.663781 
L 918.023898 714.933314 
L 919.261856 689.003369 
L 920.499815 572.241446 
L 921.737773 727.994974 
L 922.975731 610.303096 
L 924.213689 538.05963 
L 925.451647 363.833079 
L 926.689606 698.024503 
L 927.927564 378.373833 
L 929.165522 759.320799 
L 930.40348 497.050032 
L 931.641439 594.025196 
L 932.879397 517.964852 
L 934.117355 596.37354 
L 935.355313 578.725692 
L 936.593272 451.682786 
L 937.83123 718.668397 
L 939.069188 619.803812 
L 940.307146 467.069355 
L 941.545104 656.140603 
L 942.783063 448.277248 
L 944.021021 661.832684 
L 945.258979 409.849615 
L 947.734896 709.045618 
L 948.972854 688.656315 
L 950.210812 620.443751 
L 951.44877 588.44905 
L 952.686728 569.902513 
L 953.924687 507.652246 
L 955.162645 815.873228 
L 956.400603 576.313958 
L 957.638561 671.957968 
L 958.87652 519.479884 
L 960.114478 707.063547 
L 961.352436 752.867796 
L 962.590394 747.575916 
L 963.828353 770.441593 
L 965.066311 553.320093 
L 966.304269 364.732511 
L 967.542227 468.146766 
L 968.780185 752.127016 
L 970.018144 704.21694 
L 971.256102 541.93913 
L 972.49406 498.07808 
L 973.732018 660.873016 
L 974.969977 340.682434 
L 976.207935 457.897641 
L 977.445893 471.492889 
L 978.683851 347.963695 
L 979.92181 623.167229 
L 981.159768 630.693378 
L 982.397726 602.501228 
L 983.635684 750.50331 
L 984.873642 621.983287 
L 987.349559 751.769205 
L 988.587517 600.021393 
L 989.825475 626.637752 
L 991.063434 659.368421 
L 992.301392 681.653769 
L 993.53935 742.964877 
L 994.777308 640.328485 
L 996.015266 753.977204 
L 997.253225 689.372454 
L 998.491183 565.490772 
L 999.729141 648.574123 
L 1000.967099 670.208561 
L 1002.205058 713.821884 
L 1003.443016 391.858607 
L 1004.680974 695.939388 
L 1005.918932 494.963177 
L 1007.156891 431.868062 
L 1008.394849 626.605008 
L 1009.632807 686.435462 
L 1010.870765 715.573726 
L 1012.108723 700.358316 
L 1013.346682 480.442025 
L 1014.58464 556.670972 
L 1015.822598 693.469961 
L 1017.060556 488.702961 
L 1018.298515 603.027191 
L 1019.536473 553.911546 
L 1020.774431 656.615545 
L 1022.012389 676.870914 
L 1023.250348 576.120643 
L 1024.488306 687.975501 
L 1025.726264 284.32332 
L 1026.964222 753.109376 
L 1028.20218 681.404703 
L 1029.440139 645.791379 
L 1030.678097 684.789999 
L 1033.154013 558.431399 
L 1034.391972 750.155803 
L 1035.62993 423.424567 
L 1036.867888 747.336722 
L 1038.105846 721.058291 
L 1039.343804 565.03707 
L 1041.819721 639.188239 
L 1043.057679 586.687269 
L 1044.295637 631.08655 
L 1045.533596 590.782342 
L 1046.771554 620.240927 
L 1048.009512 654.140003 
L 1049.24747 633.97395 
L 1050.485429 619.067802 
L 1051.723387 733.053714 
L 1052.961345 742.128802 
L 1054.199303 620.127341 
L 1055.437261 795.114172 
L 1056.67522 527.394251 
L 1057.913178 311.515721 
L 1060.389094 740.270819 
L 1061.627053 334.143405 
L 1062.865011 585.531757 
L 1064.102969 544.323192 
L 1065.340927 724.206436 
L 1066.578886 671.229831 
L 1067.816844 747.498224 
L 1069.054802 472.567356 
L 1070.29276 615.035235 
L 1071.530718 667.426324 
L 1072.768677 754.338964 
L 1074.006635 680.991832 
L 1075.244593 406.532128 
L 1076.482551 557.893306 
L 1077.72051 490.682043 
L 1078.958468 786.311948 
L 1080.196426 542.389077 
L 1081.434384 634.870532 
L 1082.672342 691.177979 
L 1083.910301 634.479017 
L 1085.148259 753.059807 
L 1086.386217 581.612646 
L 1087.624175 671.615457 
L 1088.862134 774.18234 
L 1090.100092 582.066017 
L 1091.33805 491.404532 
L 1092.576008 618.687378 
L 1093.813967 659.881282 
L 1095.051925 707.066713 
L 1096.289883 514.077171 
L 1097.527841 713.983709 
L 1098.765799 743.893482 
L 1100.003758 572.276058 
L 1101.241716 687.670782 
L 1102.479674 498.571089 
L 1103.717632 624.582575 
L 1104.955591 419.85677 
L 1106.193549 616.402433 
L 1107.431507 545.247652 
L 1108.669465 563.763966 
L 1109.907424 624.317715 
L 1111.145382 176.835521 
L 1112.38334 646.917107 
L 1113.621298 649.387742 
L 1114.859256 479.510505 
L 1116.097215 791.880312 
L 1117.335173 740.977142 
L 1118.573131 306.618506 
L 1119.811089 432.610099 
L 1121.049048 614.759194 
L 1122.287006 560.164498 
L 1123.524964 703.191015 
L 1124.762922 646.935894 
L 1126.00088 675.384476 
L 1127.238839 394.346278 
L 1128.476797 683.937113 
L 1129.714755 508.032842 
L 1130.952713 598.627557 
L 1132.190672 744.496533 
L 1133.42863 648.321801 
L 1134.666588 756.138061 
L 1135.904546 676.697833 
L 1137.142505 616.601596 
L 1138.380463 603.07086 
L 1139.618421 384.044748 
L 1140.856379 544.6297 
L 1142.094337 661.138979 
L 1143.332296 445.087279 
L 1144.570254 629.038635 
L 1145.808212 688.452063 
L 1147.04617 589.124535 
L 1148.284129 783.957368 
L 1149.522087 447.37306 
L 1150.760045 406.648363 
L 1151.998003 661.144166 
L 1153.235962 553.77421 
L 1154.47392 705.547925 
L 1155.711878 662.617566 
L 1156.949836 732.748841 
L 1158.187794 479.658377 
L 1159.425753 536.670032 
L 1160.663711 676.226417 
L 1161.901669 661.702594 
L 1163.139627 608.205473 
L 1164.377586 426.1358 
L 1165.615544 690.974582 
L 1166.853502 708.037708 
L 1168.09146 588.405482 
L 1169.329418 629.368094 
L 1170.567377 514.10065 
L 1171.805335 563.273486 
L 1173.043293 537.149677 
L 1174.281251 602.346598 
L 1175.51921 632.981695 
L 1176.757168 506.978003 
L 1177.995126 596.427201 
L 1179.233084 545.826429 
L 1180.471043 442.289956 
L 1181.709001 730.103696 
L 1182.946959 620.441185 
L 1184.184917 480.957632 
L 1185.422875 707.110333 
L 1186.660834 367.263878 
L 1187.898792 464.472651 
L 1189.13675 601.683652 
L 1190.374708 571.150851 
L 1191.612667 655.564404 
L 1192.850625 679.319303 
L 1194.088583 754.063028 
L 1195.326541 581.262625 
L 1196.5645 770.584739 
L 1197.802458 633.244268 
L 1199.040416 520.797622 
L 1200.278374 499.239064 
L 1201.516332 403.876009 
L 1202.754291 498.641062 
L 1203.992249 474.425695 
L 1205.230207 815.316184 
L 1206.468165 570.468874 
L 1207.706124 644.584231 
L 1208.944082 539.23597 
L 1210.18204 521.429366 
L 1211.419998 538.392528 
L 1212.657956 749.133767 
L 1213.895915 770.87177 
L 1215.133873 530.384356 
L 1216.371831 686.037193 
L 1217.609789 409.249032 
L 1218.847748 511.765851 
L 1220.085706 688.044664 
L 1221.323664 772.491628 
L 1222.561622 473.421888 
L 1223.799581 631.564279 
L 1225.037539 459.118641 
L 1226.275497 640.234178 
L 1227.513455 613.935327 
L 1228.751413 444.573405 
L 1231.22733 540.258785 
L 1232.465288 567.970281 
L 1233.703246 567.833973 
L 1234.941205 587.944084 
L 1236.179163 725.75832 
L 1237.417121 548.758687 
L 1238.655079 750.657404 
L 1239.893038 526.104872 
L 1241.130996 768.184584 
L 1242.368954 457.355915 
L 1243.606912 583.062472 
L 1244.84487 696.712785 
L 1246.082829 545.726765 
L 1247.320787 456.114665 
L 1248.558745 354.444292 
L 1249.796703 607.50086 
L 1251.034662 789.736266 
L 1252.27262 403.994877 
L 1253.510578 531.062335 
L 1254.748536 595.657334 
L 1255.986494 535.516373 
L 1257.224453 527.420862 
L 1258.462411 653.441047 
L 1260.938327 729.812671 
L 1262.176286 655.268821 
L 1263.414244 717.098236 
L 1264.652202 567.571993 
L 1265.89016 609.576786 
L 1267.128119 599.371402 
L 1268.366077 671.246889 
L 1269.604035 620.87347 
L 1270.841993 658.328214 
L 1272.079951 502.554176 
L 1273.31791 632.89553 
L 1274.555868 507.157677 
L 1275.793826 626.72002 
L 1277.031784 473.094327 
L 1278.269743 707.023452 
L 1279.507701 674.834378 
L 1280.745659 512.896874 
L 1281.983617 471.508849 
L 1283.221576 475.065443 
L 1284.459534 799.60208 
L 1285.697492 618.676576 
L 1286.93545 474.514587 
L 1288.173408 608.167088 
L 1289.411367 534.555186 
L 1290.649325 635.664741 
L 1291.887283 800.056925 
L 1293.125241 733.831323 
L 1294.3632 554.227957 
L 1295.601158 473.852376 
L 1296.839116 593.276618 
L 1298.077074 631.743548 
L 1299.315032 421.174819 
L 1300.552991 568.868453 
L 1301.790949 534.461639 
L 1303.028907 467.165246 
L 1304.266865 667.573753 
L 1305.504824 159.079361 
L 1306.742782 634.39038 
L 1309.218698 718.026931 
L 1310.456657 698.570205 
L 1311.694615 728.226427 
L 1312.932573 462.068122 
L 1314.170531 489.854272 
L 1315.408489 424.502181 
L 1316.646448 708.327289 
L 1317.884406 737.56977 
L 1319.122364 770.546302 
L 1320.360322 612.215149 
L 1321.598281 791.836673 
L 1322.836239 692.557281 
L 1324.074197 506.25452 
L 1325.312155 556.456686 
L 1326.550114 410.905984 
L 1327.788072 644.791315 
L 1329.02603 609.927905 
L 1330.263988 665.632178 
L 1331.501946 651.343847 
L 1332.739905 655.970576 
L 1333.977863 456.948992 
L 1335.215821 779.370753 
L 1336.453779 663.806549 
L 1337.691738 651.782366 
L 1338.929696 405.005731 
L 1340.167654 717.360572 
L 1341.405612 600.098995 
L 1342.643571 525.410619 
L 1343.881529 506.036611 
L 1345.119487 580.646402 
L 1346.357445 629.368525 
L 1347.595403 573.648961 
L 1348.833362 425.583039 
L 1350.07132 708.333118 
L 1351.309278 582.749516 
L 1352.547236 661.040665 
L 1353.785195 646.493899 
L 1355.023153 551.566669 
L 1356.261111 715.655847 
L 1357.499069 410.086022 
L 1358.737027 639.93831 
L 1359.974986 751.498633 
L 1361.212944 681.275746 
L 1362.450902 650.817679 
L 1363.68886 615.705082 
L 1364.926819 693.176805 
L 1367.402735 482.67572 
L 1368.640693 458.36875 
L 1369.878652 470.308726 
L 1371.11661 690.244251 
L 1372.354568 522.997512 
L 1374.830484 704.837732 
L 1376.068443 672.762282 
L 1377.306401 627.065753 
L 1378.544359 622.587369 
L 1379.782317 517.091329 
L 1381.020276 597.947147 
L 1382.258234 489.399457 
L 1383.496192 576.814764 
L 1384.73415 426.803798 
L 1385.972109 664.965853 
L 1387.210067 642.707247 
L 1388.448025 635.806436 
L 1389.685983 373.671823 
L 1390.923941 643.678738 
L 1392.1619 455.87873 
L 1393.399858 737.893779 
L 1394.637816 618.702648 
L 1395.875774 633.73719 
L 1397.113733 802.223824 
L 1398.351691 491.940317 
L 1399.589649 506.828874 
L 1400.827607 611.541855 
L 1403.303524 669.148891 
L 1404.541482 467.437405 
L 1405.77944 640.307624 
L 1407.017398 515.621557 
L 1408.255357 696.729525 
L 1409.493315 649.503388 
L 1410.731273 519.779281 
L 1411.969231 621.041378 
L 1413.20719 607.744908 
L 1414.445148 630.244531 
L 1415.683106 504.5469 
L 1416.921064 721.229259 
L 1418.159022 596.380771 
L 1419.396981 582.41079 
L 1420.634939 499.493888 
L 1421.872897 441.916419 
L 1423.110855 526.802261 
L 1424.348814 715.60857 
L 1425.586772 573.284362 
L 1426.82473 699.292765 
L 1428.062688 571.591208 
L 1429.300647 540.183388 
L 1430.538605 732.734884 
L 1431.776563 543.730553 
L 1433.014521 534.020983 
L 1434.252479 728.590134 
L 1435.490438 653.016916 
L 1436.728396 622.431587 
L 1437.966354 572.990512 
L 1439.204312 585.198446 
L 1440.442271 657.642081 
L 1441.680229 552.215114 
L 1442.918187 792.934877 
L 1444.156145 402.909769 
L 1445.394103 713.974032 
L 1446.632062 626.999366 
L 1447.87002 555.4785 
L 1449.107978 670.554395 
L 1450.345936 583.685495 
L 1451.583895 722.843285 
L 1452.821853 677.670153 
L 1454.059811 569.347164 
L 1455.297769 449.586423 
L 1456.535728 637.432294 
L 1457.773686 425.568148 
L 1459.011644 744.470837 
L 1460.249602 623.022028 
L 1461.48756 674.567646 
L 1462.725519 486.632452 
L 1463.963477 512.952268 
L 1465.201435 788.193711 
L 1466.439393 537.720299 
L 1467.677352 715.533477 
L 1468.91531 558.841006 
L 1470.153268 461.235051 
L 1471.391226 742.440587 
L 1472.629185 607.996404 
L 1473.867143 688.138402 
L 1475.105101 582.330041 
L 1476.343059 656.560338 
L 1477.581017 723.155599 
L 1478.818976 591.760366 
L 1480.056934 282.172966 
L 1481.294892 650.422369 
L 1482.53285 567.904426 
L 1483.770809 710.908005 
L 1485.008767 424.56858 
L 1486.246725 340.930251 
L 1487.484683 673.265988 
L 1488.722641 770.063409 
L 1489.9606 569.956996 
L 1491.198558 482.330115 
L 1492.436516 694.434614 
L 1493.674474 552.168722 
L 1494.912433 687.091492 
L 1496.150391 489.777278 
L 1497.388349 546.641233 
L 1498.626307 547.993395 
L 1499.864266 641.336129 
L 1501.102224 668.159914 
L 1502.340182 758.661852 
L 1503.57814 786.433051 
L 1504.816098 726.251891 
L 1506.054057 460.214693 
L 1507.292015 747.29324 
L 1508.529973 670.609238 
L 1509.767931 645.200049 
L 1511.00589 509.009561 
L 1512.243848 795.598416 
L 1513.481806 502.502387 
L 1514.719764 671.177355 
L 1515.957723 607.703421 
L 1517.195681 577.526428 
L 1518.433639 568.636134 
L 1519.671597 579.708593 
L 1520.909555 454.987887 
L 1522.147514 588.457549 
L 1523.385472 612.800538 
L 1524.62343 740.141648 
L 1525.861388 661.853591 
L 1527.099347 570.247192 
L 1528.337305 685.8061 
L 1529.575263 761.227174 
L 1530.813221 623.518776 
L 1532.051179 523.249283 
L 1533.289138 494.664426 
L 1534.527096 614.060342 
L 1535.765054 809.705242 
L 1538.240971 576.442863 
L 1539.478929 321.022599 
L 1540.716887 636.149461 
L 1541.954845 545.290324 
L 1544.430762 776.288196 
L 1545.66872 654.727957 
L 1546.906678 669.07373 
L 1548.144636 745.545483 
L 1549.382595 690.174101 
L 1550.620553 713.407033 
L 1551.858511 642.815969 
L 1553.096469 686.525277 
L 1554.334428 625.422739 
L 1555.572386 490.25822 
L 1556.810344 683.002075 
L 1558.048302 594.802108 
L 1559.286261 534.81526 
L 1560.524219 586.734678 
L 1561.762177 466.065684 
L 1563.000135 609.518609 
L 1564.238093 577.412144 
L 1565.476052 598.436319 
L 1566.71401 529.102517 
L 1567.951968 633.243664 
L 1569.189926 363.11799 
L 1570.427885 561.177272 
L 1571.665843 633.499369 
L 1572.903801 588.391544 
L 1575.379717 422.346834 
L 1576.617676 668.462694 
L 1577.855634 641.891632 
L 1579.093592 694.811275 
L 1580.33155 520.033677 
L 1581.569509 697.627576 
L 1582.807467 598.034153 
L 1584.045425 441.943 
L 1585.283383 662.88896 
L 1586.521342 632.594903 
L 1587.7593 657.544982 
L 1588.997258 607.297741 
L 1590.235216 767.839454 
L 1591.473174 735.596175 
L 1592.711133 742.308686 
L 1593.949091 645.401459 
L 1593.949091 645.401459 
" style="fill:none;stroke:#1f77b4;stroke-linecap:square;stroke-width:1.5;"/>
   </g>
   <g id="line2d_20">
    <path clip-path="url(#p6b9441b0b2)" d="M 295.330909 783.859388 
L 296.568867 775.109767 
L 297.806826 721.533367 
L 299.044784 765.242697 
L 300.282742 800.91259 
L 301.5207 741.259297 
L 302.758658 777.849243 
L 303.996617 761.356014 
L 305.234575 736.267782 
L 306.472533 808.259035 
L 307.710491 801.451717 
L 308.94845 774.95106 
L 310.186408 793.230584 
L 311.424366 783.806731 
L 312.662324 661.025081 
L 313.900283 742.63687 
L 315.138241 744.321416 
L 316.376199 778.268745 
L 317.614157 738.704878 
L 318.852115 765.763049 
L 320.090074 773.565974 
L 321.328032 738.079053 
L 322.56599 785.00882 
L 323.803948 777.631375 
L 325.041907 752.821077 
L 326.279865 760.453424 
L 327.517823 740.53425 
L 328.755781 710.285285 
L 329.993739 794.845111 
L 331.231698 713.177876 
L 332.469656 777.780008 
L 333.707614 718.271669 
L 334.945572 694.248035 
L 336.183531 773.862836 
L 337.421489 774.784461 
L 338.659447 780.940351 
L 339.897405 736.583318 
L 341.135364 820.55669 
L 342.373322 774.529135 
L 343.61128 774.10476 
L 344.849238 787.067702 
L 346.087196 802.732274 
L 348.563113 643.067293 
L 349.801071 738.850923 
L 351.039029 749.486443 
L 352.276988 747.952109 
L 353.514946 740.780507 
L 354.752904 773.114947 
L 355.990862 737.818517 
L 357.228821 777.581472 
L 358.466779 720.999071 
L 359.704737 792.273319 
L 360.942695 775.632437 
L 362.180653 779.99914 
L 363.418612 791.388237 
L 364.65657 811.994932 
L 365.894528 722.775389 
L 367.132486 788.465315 
L 368.370445 780.909213 
L 369.608403 784.88098 
L 370.846361 778.895035 
L 372.084319 733.599634 
L 373.322277 804.875836 
L 374.560236 740.052306 
L 375.798194 785.595019 
L 377.036152 708.795607 
L 378.27411 683.439693 
L 379.512069 784.61513 
L 380.750027 796.028116 
L 381.987985 785.730813 
L 383.225943 778.098114 
L 384.463902 731.596449 
L 385.70186 778.291823 
L 386.939818 783.213946 
L 388.177776 815.436255 
L 389.415734 806.810619 
L 390.653693 794.109447 
L 391.891651 812.034832 
L 393.129609 790.628842 
L 394.367567 764.043111 
L 395.605526 681.874037 
L 396.843484 793.385604 
L 399.3194 737.18968 
L 400.557359 804.040714 
L 401.795317 788.42651 
L 403.033275 806.385322 
L 404.271233 779.030353 
L 405.509191 782.007965 
L 406.74715 789.829997 
L 407.985108 723.266001 
L 409.223066 778.293526 
L 410.461024 770.069808 
L 411.698983 758.076864 
L 412.936941 712.370869 
L 414.174899 790.676784 
L 415.412857 763.64812 
L 416.650815 801.38138 
L 417.888774 769.835936 
L 419.126732 773.455148 
L 420.36469 727.86907 
L 421.602648 810.595474 
L 422.840607 800.091068 
L 424.078565 803.115237 
L 425.316523 811.374575 
L 426.554481 793.567968 
L 427.79244 780.333523 
L 429.030398 730.139283 
L 430.268356 749.456659 
L 431.506314 737.160717 
L 432.744272 769.916055 
L 433.982231 755.950128 
L 435.220189 766.260543 
L 436.458147 813.391566 
L 437.696105 753.918817 
L 438.934064 762.910107 
L 440.172022 795.301956 
L 441.40998 772.715028 
L 442.647938 786.714175 
L 443.885897 766.451413 
L 445.123855 811.298203 
L 446.361813 714.061187 
L 448.837729 789.824656 
L 450.075688 791.14024 
L 451.313646 755.185635 
L 452.551604 783.496754 
L 453.789562 764.627764 
L 455.027521 809.765295 
L 456.265479 782.305963 
L 457.503437 737.336795 
L 458.741395 751.495471 
L 461.217312 765.315127 
L 462.45527 790.07401 
L 463.693228 778.962128 
L 464.931186 752.711283 
L 466.169145 788.736326 
L 467.407103 762.403727 
L 468.645061 769.574249 
L 469.883019 790.981454 
L 471.120978 767.437044 
L 472.358936 716.918795 
L 473.596894 762.407838 
L 474.834852 774.440648 
L 476.07281 708.99237 
L 478.548727 749.220754 
L 479.786685 782.695594 
L 481.024643 736.325693 
L 482.262602 749.76224 
L 483.50056 807.539333 
L 484.738518 774.472083 
L 485.976476 769.484843 
L 487.214435 783.069071 
L 488.452393 752.812736 
L 489.690351 759.424915 
L 490.928309 810.423987 
L 492.166267 769.444047 
L 493.404226 780.213759 
L 494.642184 741.568633 
L 495.880142 721.524857 
L 497.1181 723.4015 
L 498.356059 735.747727 
L 499.594017 709.084645 
L 500.831975 756.522104 
L 502.069933 758.299795 
L 503.307891 767.750319 
L 504.54585 788.689908 
L 505.783808 801.31566 
L 507.021766 736.41224 
L 508.259724 765.264253 
L 509.497683 723.303276 
L 510.735641 794.849136 
L 511.973599 805.044813 
L 513.211557 784.040108 
L 514.449516 782.774487 
L 515.687474 719.294451 
L 516.925432 729.519433 
L 518.16339 770.191031 
L 519.401348 803.165181 
L 520.639307 747.592866 
L 521.877265 799.975636 
L 523.115223 776.838805 
L 524.353181 778.427542 
L 525.59114 804.347998 
L 526.829098 775.473347 
L 528.067056 758.330626 
L 529.305014 716.961013 
L 531.780931 815.075583 
L 533.018889 813.631679 
L 534.256847 770.512988 
L 535.494805 789.671942 
L 536.732764 706.539216 
L 537.970722 784.087465 
L 539.20868 790.36007 
L 540.446638 789.104264 
L 541.684597 752.346661 
L 542.922555 702.54434 
L 544.160513 769.228729 
L 545.398471 755.934247 
L 546.636429 682.863877 
L 549.112346 776.965867 
L 550.350304 712.745722 
L 551.588262 744.243859 
L 552.826221 706.555243 
L 554.064179 769.759121 
L 555.302137 736.164498 
L 556.540095 730.202366 
L 557.778054 792.255365 
L 559.016012 742.711093 
L 560.25397 747.629837 
L 561.491928 751.095784 
L 562.729886 772.443664 
L 563.967845 747.545232 
L 565.205803 773.812992 
L 566.443761 803.612221 
L 567.681719 776.884533 
L 570.157636 744.214273 
L 571.395594 753.61109 
L 572.633552 779.062718 
L 573.871511 717.204318 
L 576.347427 768.249313 
L 577.585385 745.555501 
L 578.823343 791.507041 
L 580.061302 752.073294 
L 581.29926 778.976032 
L 582.537218 774.688484 
L 583.775176 815.837492 
L 585.013135 796.118977 
L 586.251093 771.010351 
L 587.489051 772.524645 
L 588.727009 721.461564 
L 589.964968 810.407919 
L 591.202926 771.733283 
L 592.440884 771.225729 
L 593.678842 752.910607 
L 594.9168 753.245861 
L 596.154759 719.466594 
L 597.392717 778.973331 
L 598.630675 718.242961 
L 599.868633 797.66903 
L 601.106592 800.161382 
L 602.34455 743.962701 
L 603.582508 756.260544 
L 604.820466 764.865368 
L 606.058424 777.116455 
L 607.296383 802.16268 
L 608.534341 745.64134 
L 609.772299 757.372128 
L 611.010257 781.319098 
L 612.248216 743.920003 
L 613.486174 782.075647 
L 614.724132 767.033573 
L 615.96209 762.512569 
L 617.200049 790.490114 
L 618.438007 803.317258 
L 619.675965 757.039961 
L 620.913923 802.498852 
L 622.151881 793.908997 
L 623.38984 779.206835 
L 624.627798 775.965924 
L 625.865756 796.286083 
L 627.103714 760.412091 
L 628.341673 763.18365 
L 629.579631 775.072204 
L 630.817589 806.604862 
L 632.055547 803.418966 
L 633.293506 769.538339 
L 634.531464 782.946213 
L 635.769422 723.482057 
L 637.00738 800.3682 
L 638.245338 758.456042 
L 639.483297 730.661299 
L 640.721255 810.784963 
L 641.959213 808.272834 
L 643.197171 688.191276 
L 644.43513 804.719919 
L 645.673088 676.856916 
L 646.911046 709.397038 
L 648.149004 795.149452 
L 649.386962 756.53501 
L 650.624921 770.160646 
L 651.862879 790.093664 
L 653.100837 804.84876 
L 654.338795 701.472709 
L 655.576754 783.660866 
L 656.814712 708.868866 
L 658.05267 677.654392 
L 659.290628 770.753026 
L 660.528587 689.18889 
L 661.766545 782.326678 
L 663.004503 776.358991 
L 664.242461 726.322453 
L 665.480419 792.415089 
L 666.718378 769.254114 
L 667.956336 681.958725 
L 669.194294 800.045515 
L 670.432252 778.832736 
L 671.670211 766.933714 
L 672.908169 737.257422 
L 674.146127 741.578524 
L 675.384085 728.759891 
L 676.622044 810.275016 
L 677.860002 780.508108 
L 679.09796 789.770308 
L 680.335918 821.299729 
L 681.573876 754.880822 
L 682.811835 762.940195 
L 684.049793 789.17765 
L 685.287751 696.368162 
L 686.525709 780.177887 
L 687.763668 766.0115 
L 689.001626 758.570679 
L 690.239584 730.919123 
L 691.477542 780.962945 
L 692.7155 774.068915 
L 693.953459 798.48352 
L 695.191417 783.909415 
L 696.429375 777.274048 
L 697.667333 710.147581 
L 698.905292 768.234318 
L 700.14325 793.199659 
L 701.381208 785.306735 
L 702.619166 712.07367 
L 703.857125 743.573824 
L 705.095083 751.528541 
L 706.333041 743.193678 
L 707.570999 799.78085 
L 708.808957 790.221106 
L 710.046916 742.271865 
L 711.284874 743.020669 
L 712.522832 764.496748 
L 713.76079 798.772748 
L 716.236707 766.816388 
L 717.474665 793.224601 
L 718.712623 749.377515 
L 719.950582 803.696995 
L 721.18854 782.649974 
L 722.426498 785.307193 
L 723.664456 740.727832 
L 724.902414 770.910196 
L 726.140373 726.502881 
L 727.378331 775.783943 
L 728.616289 741.772136 
L 729.854247 732.720264 
L 731.092206 758.978678 
L 732.330164 743.253296 
L 733.568122 751.505635 
L 734.80608 810.310599 
L 736.044038 737.8024 
L 737.281997 783.461778 
L 738.519955 784.319019 
L 739.757913 783.271561 
L 740.995871 740.262886 
L 742.23383 763.943207 
L 743.471788 802.229026 
L 744.709746 710.524772 
L 745.947704 804.588457 
L 747.185663 784.725476 
L 748.423621 787.995144 
L 749.661579 730.217781 
L 750.899537 728.423737 
L 752.137495 755.18295 
L 753.375454 779.029476 
L 754.613412 762.481221 
L 755.85137 772.204571 
L 757.089328 761.503534 
L 758.327287 782.590147 
L 759.565245 756.608494 
L 760.803203 810.427254 
L 762.041161 724.274879 
L 763.27912 766.968558 
L 764.517078 779.097322 
L 765.755036 692.089316 
L 766.992994 799.864401 
L 768.230952 767.915099 
L 769.468911 775.431661 
L 770.706869 706.868829 
L 771.944827 786.004593 
L 773.182785 787.431067 
L 774.420744 741.213801 
L 775.658702 784.806131 
L 776.89666 814.643647 
L 778.134618 805.954492 
L 779.372576 792.910693 
L 780.610535 756.984777 
L 781.848493 779.289212 
L 783.086451 762.380311 
L 784.324409 771.108616 
L 785.562368 802.848051 
L 786.800326 759.673092 
L 788.038284 763.938312 
L 789.276242 803.125499 
L 790.514201 798.32863 
L 791.752159 787.131449 
L 792.990117 777.398302 
L 794.228075 764.296498 
L 795.466033 769.52349 
L 796.703992 748.728867 
L 797.94195 778.610442 
L 799.179908 803.348396 
L 800.417866 786.984102 
L 801.655825 733.473936 
L 802.893783 751.117883 
L 804.131741 761.07632 
L 805.369699 790.963919 
L 806.607658 780.203392 
L 807.845616 761.801768 
L 809.083574 766.573285 
L 811.55949 817.922722 
L 812.797449 776.929039 
L 814.035407 764.524987 
L 815.273365 745.111091 
L 816.511323 814.818772 
L 817.749282 755.929611 
L 818.98724 727.423452 
L 820.225198 734.892185 
L 821.463156 748.729493 
L 822.701114 779.082293 
L 823.939073 713.126255 
L 825.177031 783.973222 
L 826.414989 808.839049 
L 827.652947 737.701874 
L 830.128864 798.70129 
L 831.366822 777.812647 
L 832.60478 788.523822 
L 833.842739 741.620063 
L 835.080697 766.887767 
L 836.318655 786.302924 
L 837.556613 711.37792 
L 838.794571 773.801301 
L 840.03253 796.609139 
L 841.270488 783.500996 
L 842.508446 738.165916 
L 843.746404 768.977154 
L 844.984363 786.289039 
L 846.222321 741.132572 
L 847.460279 788.843732 
L 848.698237 791.023859 
L 849.936196 803.067336 
L 851.174154 769.344559 
L 852.412112 770.255926 
L 853.65007 785.006487 
L 854.888028 647.981019 
L 856.125987 788.900289 
L 858.601903 725.671461 
L 859.839861 740.507759 
L 861.07782 793.612927 
L 862.315778 770.751905 
L 863.553736 775.792045 
L 864.791694 768.51824 
L 866.029652 741.033178 
L 867.267611 806.902931 
L 868.505569 808.267669 
L 869.743527 781.375985 
L 870.981485 764.178369 
L 872.219444 823.0572 
L 873.457402 753.009041 
L 874.69536 749.323422 
L 875.933318 708.929845 
L 877.171277 766.747142 
L 878.409235 764.901304 
L 879.647193 773.519968 
L 880.885151 778.523752 
L 882.123109 742.192722 
L 883.361068 781.800881 
L 884.599026 741.55051 
L 885.836984 757.738411 
L 887.074942 734.618417 
L 889.550859 759.208897 
L 890.788817 815.91626 
L 892.026775 769.219855 
L 893.264734 754.686779 
L 894.502692 773.124951 
L 895.74065 785.588282 
L 896.978608 765.874269 
L 898.216566 754.292542 
L 899.454525 791.645521 
L 900.692483 740.642117 
L 901.930441 723.294916 
L 903.168399 741.762001 
L 904.406358 776.263337 
L 905.644316 766.903479 
L 906.882274 734.801988 
L 908.120232 810.709203 
L 909.35819 807.022076 
L 911.834107 794.37296 
L 913.072065 803.049374 
L 914.310023 723.511909 
L 915.547982 741.710466 
L 916.78594 737.090084 
L 918.023898 795.795823 
L 919.261856 789.068287 
L 920.499815 758.913089 
L 921.737773 799.234405 
L 922.975731 768.868811 
L 924.213689 749.699243 
L 925.451647 704.176755 
L 926.689606 791.264738 
L 927.927564 707.965976 
L 929.165522 807.24341 
L 930.40348 739.290113 
L 931.641439 764.433898 
L 932.879397 744.599411 
L 934.117355 764.648101 
L 935.355313 760.039346 
L 936.593272 726.861944 
L 937.83123 796.403829 
L 939.069188 770.256271 
L 940.307146 730.324095 
L 941.545104 779.870321 
L 942.783063 724.550148 
L 944.021021 781.128618 
L 945.258979 714.369293 
L 947.734896 793.543836 
L 948.972854 788.226597 
L 950.210812 770.137463 
L 951.44877 762.087711 
L 952.686728 757.20563 
L 953.924687 740.819237 
L 955.162645 821.959667 
L 956.400603 759.090217 
L 957.638561 783.768399 
L 958.87652 743.328647 
L 960.114478 792.792287 
L 961.352436 805.052525 
L 962.590394 803.636068 
L 963.828353 809.762583 
L 965.066311 751.987958 
L 966.304269 701.378769 
L 967.542227 728.78115 
L 968.780185 804.890284 
L 970.018144 792.090371 
L 971.256102 748.735359 
L 972.49406 737.394901 
L 973.732018 780.702953 
L 974.969977 695.612026 
L 976.207935 726.954767 
L 977.445893 730.977199 
L 978.683851 698.346723 
L 979.92181 771.04227 
L 981.159768 773.321533 
L 982.397726 765.904732 
L 983.635684 804.67937 
L 984.873642 770.774627 
L 987.349559 805.012227 
L 988.587517 764.926689 
L 989.825475 771.972792 
L 991.063434 780.811975 
L 992.301392 786.567004 
L 993.53935 802.685919 
L 994.777308 775.590834 
L 996.015266 805.60185 
L 997.253225 788.541788 
L 998.491183 756.058643 
L 999.729141 778.204791 
L 1000.967099 783.832341 
L 1002.205058 795.322881 
L 1003.443016 711.711441 
L 1004.680974 790.789999 
L 1005.918932 738.524581 
L 1007.156891 722.222212 
L 1008.394849 772.827095 
L 1009.632807 788.693459 
L 1010.870765 796.169424 
L 1012.108723 792.176802 
L 1013.346682 735.408096 
L 1014.58464 755.085667 
L 1015.822598 790.173412 
L 1017.060556 737.222004 
L 1018.298515 766.754283 
L 1019.536473 754.145743 
L 1020.774431 780.853863 
L 1022.012389 786.086321 
L 1023.250348 760.060057 
L 1024.488306 788.957633 
L 1025.726264 685.323481 
L 1026.964222 806.04679 
L 1028.20218 787.792501 
L 1029.440139 778.631232 
L 1030.678097 788.580113 
L 1033.154013 756.70443 
L 1034.391972 805.260783 
L 1035.62993 722.262168 
L 1036.867888 804.621898 
L 1038.105846 797.923373 
L 1039.343804 758.258642 
L 1041.819721 777.078738 
L 1043.057679 764.087804 
L 1044.295637 775.361343 
L 1045.533596 765.374336 
L 1046.771554 772.922956 
L 1048.009512 781.436248 
L 1049.24747 776.371818 
L 1050.485429 772.70969 
L 1051.723387 801.019335 
L 1052.961345 803.277406 
L 1054.199303 772.237667 
L 1055.437261 816.745651 
L 1056.67522 748.640864 
L 1057.913178 693.723914 
L 1060.389094 802.801745 
L 1061.627053 699.644796 
L 1062.865011 763.13557 
L 1064.102969 752.594369 
L 1065.340927 798.581496 
L 1066.578886 785.038034 
L 1067.816844 804.683166 
L 1069.054802 734.720842 
L 1070.29276 770.877449 
L 1071.530718 784.272495 
L 1072.768677 806.671741 
L 1074.006635 788.327161 
L 1075.244593 719.683062 
L 1076.482551 757.297087 
L 1077.72051 740.463745 
L 1078.958468 814.694098 
L 1080.196426 753.961819 
L 1081.434384 776.812051 
L 1082.672342 790.888913 
L 1083.910301 776.714172 
L 1085.148259 806.424423 
L 1086.386217 763.727095 
L 1087.624175 785.66366 
L 1088.862134 811.472023 
L 1090.100092 762.841807 
L 1091.33805 739.88837 
L 1092.576008 772.113507 
L 1093.813967 782.444732 
L 1095.051925 794.40186 
L 1096.289883 745.084254 
L 1097.527841 795.988917 
L 1098.765799 803.5313 
L 1100.003758 759.479391 
L 1101.241716 789.09968 
L 1102.479674 740.547434 
L 1103.717632 772.874204 
L 1104.955591 719.495962 
L 1106.193549 770.175949 
L 1107.431507 751.325035 
L 1108.669465 756.158697 
L 1109.907424 771.966187 
L 1111.145382 655.595801 
L 1112.38334 778.065332 
L 1113.621298 778.677974 
L 1114.859256 734.503664 
L 1116.097215 815.75672 
L 1117.335173 802.545069 
L 1118.573131 689.809562 
L 1119.811089 722.691673 
L 1121.049048 769.58627 
L 1122.287006 754.978986 
L 1123.524964 792.38362 
L 1124.762922 777.618109 
L 1126.00088 785.085124 
L 1127.238839 711.319881 
L 1128.476797 787.53072 
L 1129.714755 742.017402 
L 1130.952713 765.557937 
L 1132.190672 803.509876 
L 1133.42863 778.79219 
L 1134.666588 806.594217 
L 1135.904546 786.109372 
L 1137.142505 770.612663 
L 1138.380463 767.302326 
L 1139.618421 711.31639 
L 1140.856379 752.179796 
L 1142.094337 782.083197 
L 1143.332296 726.352369 
L 1144.570254 773.802869 
L 1145.808212 789.145788 
L 1147.04617 763.54604 
L 1148.284129 813.756341 
L 1149.522087 727.157103 
L 1150.760045 717.17909 
L 1151.998003 782.374244 
L 1153.235962 754.868876 
L 1154.47392 793.751659 
L 1155.711878 782.876382 
L 1156.949836 800.8463 
L 1158.187794 736.448352 
L 1159.425753 750.507979 
L 1160.663711 786.248595 
L 1161.901669 782.529021 
L 1163.139627 768.34115 
L 1164.377586 721.145041 
L 1165.615544 789.600322 
L 1166.853502 793.973116 
L 1168.09146 763.222519 
L 1169.329418 773.80608 
L 1170.567377 744.024288 
L 1171.805335 756.741322 
L 1173.043293 749.895106 
L 1174.281251 766.528359 
L 1175.51921 774.132639 
L 1176.757168 741.343429 
L 1177.995126 764.691605 
L 1179.233084 751.483708 
L 1180.471043 724.197614 
L 1181.709001 799.578296 
L 1182.946959 770.91811 
L 1184.184917 734.551549 
L 1185.422875 793.648327 
L 1186.660834 705.132815 
L 1187.898792 730.451556 
L 1189.13675 766.32917 
L 1190.374708 758.016279 
L 1191.612667 780.075954 
L 1192.850625 786.283788 
L 1194.088583 805.701387 
L 1195.326541 760.259884 
L 1196.5645 810.046118 
L 1197.802458 773.863462 
L 1199.040416 744.302662 
L 1200.278374 738.629357 
L 1201.516332 714.150259 
L 1202.754291 738.157525 
L 1203.992249 731.761665 
L 1205.230207 821.799035 
L 1206.468165 757.128977 
L 1207.706124 777.030526 
L 1208.944082 749.646812 
L 1210.18204 745.035034 
L 1211.419998 749.132226 
L 1212.657956 804.443435 
L 1213.895915 810.148797 
L 1215.133873 746.864117 
L 1216.371831 787.779107 
L 1217.609789 714.855753 
L 1218.847748 742.040368 
L 1220.085706 788.574194 
L 1221.323664 810.636259 
L 1222.561622 732.503244 
L 1223.799581 773.827695 
L 1225.037539 728.579256 
L 1226.275497 776.122415 
L 1227.513455 769.495465 
L 1228.751413 726.113628 
L 1231.22733 750.82257 
L 1232.465288 758.181187 
L 1233.703246 758.191925 
L 1234.941205 763.34202 
L 1236.179163 798.902789 
L 1237.417121 753.271834 
L 1238.655079 805.221896 
L 1239.893038 747.442837 
L 1241.130996 809.697988 
L 1242.368954 729.240503 
L 1243.606912 761.790501 
L 1244.84487 791.411406 
L 1246.082829 752.734177 
L 1247.320787 729.754358 
L 1248.558745 703.682359 
L 1249.796703 768.639342 
L 1251.034662 815.310299 
L 1252.27262 716.686494 
L 1253.510578 749.16974 
L 1254.748536 765.826736 
L 1255.986494 750.480348 
L 1257.224453 748.414587 
L 1258.462411 780.857576 
L 1260.938327 800.322044 
L 1262.176286 781.509968 
L 1263.414244 797.215588 
L 1264.652202 759.619731 
L 1265.89016 770.181129 
L 1267.128119 767.404083 
L 1268.366077 785.493742 
L 1269.604035 772.555998 
L 1270.841993 781.889825 
L 1272.079951 741.720203 
L 1273.31791 775.121365 
L 1274.555868 742.899892 
L 1275.793826 773.253334 
L 1277.031784 733.034037 
L 1278.269743 793.693073 
L 1279.507701 785.076033 
L 1280.745659 742.00525 
L 1281.983617 731.084638 
L 1283.221576 732.023078 
L 1284.459534 817.682092 
L 1285.697492 770.32363 
L 1286.93545 733.651457 
L 1288.173408 768.846806 
L 1289.411367 750.314184 
L 1290.649325 776.087057 
L 1291.887283 817.9907 
L 1293.125241 801.808894 
L 1294.3632 757.891643 
L 1295.601158 741.555108 
L 1296.839116 769.680308 
L 1298.077074 779.022889 
L 1299.315032 729.656187 
L 1300.552991 764.282163 
L 1301.790949 755.84267 
L 1303.028907 739.57813 
L 1304.266865 786.840919 
L 1305.504824 662.038021 
L 1306.742782 777.773189 
L 1309.218698 798.205738 
L 1310.456657 793.846702 
L 1311.694615 801.128968 
L 1312.932573 737.750967 
L 1314.170531 745.280807 
L 1315.408489 729.556066 
L 1316.646448 796.722478 
L 1317.884406 803.642628 
L 1319.122364 811.282304 
L 1320.360322 773.430754 
L 1321.598281 816.390834 
L 1322.836239 792.472951 
L 1324.074197 747.835541 
L 1325.312155 759.884254 
L 1326.550114 724.951526 
L 1327.788072 781.084903 
L 1329.02603 772.535537 
L 1330.263988 786.054811 
L 1331.501946 782.875343 
L 1332.739905 783.630932 
L 1333.977863 735.702797 
L 1335.215821 813.348013 
L 1336.453779 785.752702 
L 1337.691738 782.832158 
L 1338.929696 724.555852 
L 1340.167654 798.791232 
L 1341.405612 770.39726 
L 1342.643571 752.484661 
L 1343.881529 747.83817 
L 1345.119487 765.932896 
L 1346.357445 777.54102 
L 1347.595403 764.101224 
L 1348.833362 728.42814 
L 1350.07132 796.321834 
L 1351.309278 766.166813 
L 1352.547236 784.966013 
L 1353.785195 781.758921 
L 1355.023153 759.264812 
L 1356.261111 798.398922 
L 1357.499069 725.697299 
L 1358.737027 780.402874 
L 1359.974986 806.885408 
L 1361.212944 790.215682 
L 1362.450902 782.955155 
L 1363.68886 774.632692 
L 1364.926819 793.145956 
L 1367.402735 743.259518 
L 1368.640693 737.502846 
L 1369.878652 740.330617 
L 1371.11661 791.977579 
L 1372.354568 751.772307 
L 1374.830484 795.383834 
L 1376.068443 787.589344 
L 1377.306401 776.558994 
L 1378.544359 775.47799 
L 1379.782317 749.028774 
L 1381.020276 768.284803 
L 1382.258234 740.951645 
L 1383.496192 762.345989 
L 1384.73415 723.994315 
L 1385.972109 784.014994 
L 1387.210067 778.405466 
L 1388.448025 776.211112 
L 1389.685983 708.982089 
L 1390.923941 778.527338 
L 1392.1619 730.22601 
L 1393.399858 802.126219 
L 1394.637816 771.717991 
L 1395.875774 775.553627 
L 1397.113733 818.574457 
L 1398.351691 739.341415 
L 1399.589649 743.386682 
L 1400.827607 770.031884 
L 1403.303524 784.804601 
L 1404.541482 733.625679 
L 1405.77944 777.062992 
L 1407.017398 746.086749 
L 1408.255357 791.946152 
L 1409.493315 780.185753 
L 1410.731273 747.400499 
L 1411.969231 772.928545 
L 1413.20719 769.576522 
L 1414.445148 774.806016 
L 1415.683106 743.004177 
L 1416.921064 798.156975 
L 1418.159022 766.755026 
L 1419.396981 763.172919 
L 1420.634939 742.263876 
L 1421.872897 727.744644 
L 1423.110855 749.432721 
L 1424.348814 796.716297 
L 1425.586772 760.66669 
L 1426.82473 792.732388 
L 1428.062688 760.335176 
L 1429.300647 752.401504 
L 1430.538605 801.040358 
L 1431.776563 753.477767 
L 1433.014521 750.988971 
L 1434.252479 799.931047 
L 1435.490438 780.966688 
L 1436.728396 773.146641 
L 1437.966354 760.65016 
L 1439.204312 763.735778 
L 1440.442271 782.052651 
L 1441.680229 754.613715 
L 1442.918187 816.213808 
L 1444.156145 716.845213 
L 1445.394103 795.879652 
L 1446.632062 773.576739 
L 1447.87002 755.236645 
L 1449.107978 784.557845 
L 1450.345936 761.728944 
L 1451.583895 797.514591 
L 1452.821853 785.614297 
L 1454.059811 756.442994 
L 1455.297769 724.628117 
L 1456.535728 774.530057 
L 1457.773686 717.934443 
L 1459.011644 802.946669 
L 1460.249602 770.568176 
L 1461.48756 783.885283 
L 1462.725519 734.12524 
L 1463.963477 741.144045 
L 1465.201435 814.543721 
L 1466.439393 747.473072 
L 1467.677352 794.889584 
L 1468.91531 752.889348 
L 1470.153268 726.841338 
L 1471.391226 802.280812 
L 1472.629185 766.32644 
L 1473.867143 787.758793 
L 1475.105101 759.457303 
L 1476.343059 779.510748 
L 1477.581017 796.965817 
L 1478.818976 761.707344 
L 1480.056934 677.952375 
L 1481.294892 777.275226 
L 1482.53285 755.018796 
L 1483.770809 793.439378 
L 1485.008767 715.349534 
L 1486.246725 694.108767 
L 1487.484683 783.532869 
L 1488.722641 809.621429 
L 1489.9606 755.934735 
L 1491.198558 732.425256 
L 1492.436516 789.210083 
L 1493.674474 751.154475 
L 1494.912433 787.373651 
L 1496.150391 733.719863 
L 1497.388349 748.975675 
L 1498.626307 749.341875 
L 1499.864266 774.621567 
L 1501.102224 781.636453 
L 1502.340182 806.523772 
L 1503.57814 814.030586 
L 1504.816098 798.049105 
L 1506.054057 727.510589 
L 1507.292015 803.727481 
L 1508.529973 783.368536 
L 1509.767931 776.604951 
L 1511.00589 740.918072 
L 1512.243848 816.540814 
L 1513.481806 738.437313 
L 1514.719764 783.363529 
L 1515.957723 766.44707 
L 1517.195681 758.40459 
L 1518.433639 755.895217 
L 1519.671597 758.993103 
L 1520.909555 726.245053 
L 1522.147514 761.423126 
L 1523.385472 768.459755 
L 1524.62343 802.003233 
L 1525.861388 781.381033 
L 1527.099347 757.94098 
L 1528.337305 788.104174 
L 1529.575263 807.928657 
L 1530.813221 772.709263 
L 1532.051179 747.14188 
L 1533.289138 739.827995 
L 1534.527096 770.377318 
L 1535.765054 820.44978 
L 1538.240971 759.814352 
L 1539.478929 692.993301 
L 1540.716887 774.984295 
L 1541.954845 751.231514 
L 1544.430762 811.596374 
L 1545.66872 779.694811 
L 1546.906678 783.509739 
L 1548.144636 803.399383 
L 1549.382595 788.807571 
L 1550.620553 794.933268 
L 1551.858511 776.320917 
L 1553.096469 787.850288 
L 1554.334428 772.246526 
L 1555.572386 738.30755 
L 1556.810344 787.918015 
L 1558.048302 764.962354 
L 1559.286261 749.48627 
L 1560.524219 762.881028 
L 1561.762177 732.141045 
L 1563.000135 768.680409 
L 1564.238093 760.431528 
L 1565.476052 765.755382 
L 1566.71401 748.008505 
L 1567.951968 774.8774 
L 1569.189926 705.183735 
L 1570.427885 756.460266 
L 1571.665843 775.636454 
L 1572.903801 764.453863 
L 1575.379717 722.556243 
L 1576.617676 784.774273 
L 1577.855634 778.057115 
L 1579.093592 791.026856 
L 1580.33155 746.14553 
L 1581.569509 791.143252 
L 1582.807467 764.930274 
L 1584.045425 722.984522 
L 1585.283383 781.455943 
L 1586.521342 773.438885 
L 1587.7593 780.481763 
L 1588.997258 767.058342 
L 1590.235216 809.311721 
L 1591.473174 800.837789 
L 1592.711133 802.470816 
L 1593.949091 776.821769 
L 1593.949091 776.821769 
" style="fill:none;stroke:#ff7f0e;stroke-linecap:square;stroke-width:1.5;"/>
   </g>
   <g id="patch_3">
    <path d="M 230.4 856.7496 
L 230.4 115.5168 
" style="fill:none;stroke:#000000;stroke-linecap:square;stroke-linejoin:miter;stroke-width:0.8;"/>
   </g>
   <g id="patch_4">
    <path d="M 1658.88 856.7496 
L 1658.88 115.5168 
" style="fill:none;stroke:#000000;stroke-linecap:square;stroke-linejoin:miter;stroke-width:0.8;"/>
   </g>
   <g id="patch_5">
    <path d="M 230.4 856.7496 
L 1658.88 856.7496 
" style="fill:none;stroke:#000000;stroke-linecap:square;stroke-linejoin:miter;stroke-width:0.8;"/>
   </g>
   <g id="patch_6">
    <path d="M 230.4 115.5168 
L 1658.88 115.5168 
" style="fill:none;stroke:#000000;stroke-linecap:square;stroke-linejoin:miter;stroke-width:0.8;"/>
   </g>
   <g id="text_22">
    <!-- Daily sum of transactions chart -->
    <g transform="translate(850.659375 109.5168)scale(0.12 -0.12)">
     <defs>
      <path d="M 30.609375 48.390625 
Q 23.390625 48.390625 19.1875 42.75 
Q 14.984375 37.109375 14.984375 27.296875 
Q 14.984375 17.484375 19.15625 11.84375 
Q 23.34375 6.203125 30.609375 6.203125 
Q 37.796875 6.203125 41.984375 11.859375 
Q 46.1875 17.53125 46.1875 27.296875 
Q 46.1875 37.015625 41.984375 42.703125 
Q 37.796875 48.390625 30.609375 48.390625 
z
M 30.609375 56 
Q 42.328125 56 49.015625 48.375 
Q 55.71875 40.765625 55.71875 27.296875 
Q 55.71875 13.875 49.015625 6.21875 
Q 42.328125 -1.421875 30.609375 -1.421875 
Q 18.84375 -1.421875 12.171875 6.21875 
Q 5.515625 13.875 5.515625 27.296875 
Q 5.515625 40.765625 12.171875 48.375 
Q 18.84375 56 30.609375 56 
z
" id="DejaVuSans-111"/>
      <path d="M 37.109375 75.984375 
L 37.109375 68.5 
L 28.515625 68.5 
Q 23.6875 68.5 21.796875 66.546875 
Q 19.921875 64.59375 19.921875 59.515625 
L 19.921875 54.6875 
L 34.71875 54.6875 
L 34.71875 47.703125 
L 19.921875 47.703125 
L 19.921875 0 
L 10.890625 0 
L 10.890625 47.703125 
L 2.296875 47.703125 
L 2.296875 54.6875 
L 10.890625 54.6875 
L 10.890625 58.5 
Q 10.890625 67.625 15.140625 71.796875 
Q 19.390625 75.984375 28.609375 75.984375 
z
" id="DejaVuSans-102"/>
      <path d="M 41.109375 46.296875 
Q 39.59375 47.171875 37.8125 47.578125 
Q 36.03125 48 33.890625 48 
Q 26.265625 48 22.1875 43.046875 
Q 18.109375 38.09375 18.109375 28.8125 
L 18.109375 0 
L 9.078125 0 
L 9.078125 54.6875 
L 18.109375 54.6875 
L 18.109375 46.1875 
Q 20.953125 51.171875 25.484375 53.578125 
Q 30.03125 56 36.53125 56 
Q 37.453125 56 38.578125 55.875 
Q 39.703125 55.765625 41.0625 55.515625 
z
" id="DejaVuSans-114"/>
      <path d="M 54.890625 33.015625 
L 54.890625 0 
L 45.90625 0 
L 45.90625 32.71875 
Q 45.90625 40.484375 42.875 44.328125 
Q 39.84375 48.1875 33.796875 48.1875 
Q 26.515625 48.1875 22.3125 43.546875 
Q 18.109375 38.921875 18.109375 30.90625 
L 18.109375 0 
L 9.078125 0 
L 9.078125 54.6875 
L 18.109375 54.6875 
L 18.109375 46.1875 
Q 21.34375 51.125 25.703125 53.5625 
Q 30.078125 56 35.796875 56 
Q 45.21875 56 50.046875 50.171875 
Q 54.890625 44.34375 54.890625 33.015625 
z
" id="DejaVuSans-110"/>
      <path d="M 48.78125 52.59375 
L 48.78125 44.1875 
Q 44.96875 46.296875 41.140625 47.34375 
Q 37.3125 48.390625 33.40625 48.390625 
Q 24.65625 48.390625 19.8125 42.84375 
Q 14.984375 37.3125 14.984375 27.296875 
Q 14.984375 17.28125 19.8125 11.734375 
Q 24.65625 6.203125 33.40625 6.203125 
Q 37.3125 6.203125 41.140625 7.25 
Q 44.96875 8.296875 48.78125 10.40625 
L 48.78125 2.09375 
Q 45.015625 0.34375 40.984375 -0.53125 
Q 36.96875 -1.421875 32.421875 -1.421875 
Q 20.0625 -1.421875 12.78125 6.34375 
Q 5.515625 14.109375 5.515625 27.296875 
Q 5.515625 40.671875 12.859375 48.328125 
Q 20.21875 56 33.015625 56 
Q 37.15625 56 41.109375 55.140625 
Q 45.0625 54.296875 48.78125 52.59375 
z
" id="DejaVuSans-99"/>
      <path d="M 54.890625 33.015625 
L 54.890625 0 
L 45.90625 0 
L 45.90625 32.71875 
Q 45.90625 40.484375 42.875 44.328125 
Q 39.84375 48.1875 33.796875 48.1875 
Q 26.515625 48.1875 22.3125 43.546875 
Q 18.109375 38.921875 18.109375 30.90625 
L 18.109375 0 
L 9.078125 0 
L 9.078125 75.984375 
L 18.109375 75.984375 
L 18.109375 46.1875 
Q 21.34375 51.125 25.703125 53.5625 
Q 30.078125 56 35.796875 56 
Q 45.21875 56 50.046875 50.171875 
Q 54.890625 44.34375 54.890625 33.015625 
z
" id="DejaVuSans-104"/>
     </defs>
     <use xlink:href="#DejaVuSans-68"/>
     <use x="77.001953" xlink:href="#DejaVuSans-97"/>
     <use x="138.28125" xlink:href="#DejaVuSans-105"/>
     <use x="166.064453" xlink:href="#DejaVuSans-108"/>
     <use x="193.847656" xlink:href="#DejaVuSans-121"/>
     <use x="253.027344" xlink:href="#DejaVuSans-32"/>
     <use x="284.814453" xlink:href="#DejaVuSans-115"/>
     <use x="336.914062" xlink:href="#DejaVuSans-117"/>
     <use x="400.292969" xlink:href="#DejaVuSans-109"/>
     <use x="497.705078" xlink:href="#DejaVuSans-32"/>
     <use x="529.492188" xlink:href="#DejaVuSans-111"/>
     <use x="590.673828" xlink:href="#DejaVuSans-102"/>
     <use x="625.878906" xlink:href="#DejaVuSans-32"/>
     <use x="657.666016" xlink:href="#DejaVuSans-116"/>
     <use x="696.875" xlink:href="#DejaVuSans-114"/>
     <use x="737.988281" xlink:href="#DejaVuSans-97"/>
     <use x="799.267578" xlink:href="#DejaVuSans-110"/>
     <use x="862.646484" xlink:href="#DejaVuSans-115"/>
     <use x="914.746094" xlink:href="#DejaVuSans-97"/>
     <use x="976.025391" xlink:href="#DejaVuSans-99"/>
     <use x="1031.005859" xlink:href="#DejaVuSans-116"/>
     <use x="1070.214844" xlink:href="#DejaVuSans-105"/>
     <use x="1097.998047" xlink:href="#DejaVuSans-111"/>
     <use x="1159.179688" xlink:href="#DejaVuSans-110"/>
     <use x="1222.558594" xlink:href="#DejaVuSans-115"/>
     <use x="1274.658203" xlink:href="#DejaVuSans-32"/>
     <use x="1306.445312" xlink:href="#DejaVuSans-99"/>
     <use x="1361.425781" xlink:href="#DejaVuSans-104"/>
     <use x="1424.804688" xlink:href="#DejaVuSans-97"/>
     <use x="1486.083984" xlink:href="#DejaVuSans-114"/>
     <use x="1527.197266" xlink:href="#DejaVuSans-116"/>
    </g>
   </g>
   <g id="legend_1">
    <g id="patch_7">
     <path d="M 1598.512813 152.87305 
L 1651.88 152.87305 
Q 1653.88 152.87305 1653.88 150.87305 
L 1653.88 122.5168 
Q 1653.88 120.5168 1651.88 120.5168 
L 1598.512813 120.5168 
Q 1596.512813 120.5168 1596.512813 122.5168 
L 1596.512813 150.87305 
Q 1596.512813 152.87305 1598.512813 152.87305 
z
" style="fill:#ffffff;opacity:0.8;stroke:#cccccc;stroke-linejoin:miter;"/>
    </g>
    <g id="line2d_21">
     <path d="M 1600.512813 128.615238 
L 1620.512813 128.615238 
" style="fill:none;stroke:#1f77b4;stroke-linecap:square;stroke-width:1.5;"/>
    </g>
    <g id="line2d_22"/>
    <g id="text_23">
     <!-- PLN -->
     <g transform="translate(1628.512813 132.115238)scale(0.1 -0.1)">
      <defs>
       <path d="M 19.671875 64.796875 
L 19.671875 37.40625 
L 32.078125 37.40625 
Q 38.96875 37.40625 42.71875 40.96875 
Q 46.484375 44.53125 46.484375 51.125 
Q 46.484375 57.671875 42.71875 61.234375 
Q 38.96875 64.796875 32.078125 64.796875 
z
M 9.8125 72.90625 
L 32.078125 72.90625 
Q 44.34375 72.90625 50.609375 67.359375 
Q 56.890625 61.8125 56.890625 51.125 
Q 56.890625 40.328125 50.609375 34.8125 
Q 44.34375 29.296875 32.078125 29.296875 
L 19.671875 29.296875 
L 19.671875 0 
L 9.8125 0 
z
" id="DejaVuSans-80"/>
       <path d="M 9.8125 72.90625 
L 19.671875 72.90625 
L 19.671875 8.296875 
L 55.171875 8.296875 
L 55.171875 0 
L 9.8125 0 
z
" id="DejaVuSans-76"/>
       <path d="M 9.8125 72.90625 
L 23.09375 72.90625 
L 55.421875 11.921875 
L 55.421875 72.90625 
L 64.984375 72.90625 
L 64.984375 0 
L 51.703125 0 
L 19.390625 60.984375 
L 19.390625 0 
L 9.8125 0 
z
" id="DejaVuSans-78"/>
      </defs>
      <use xlink:href="#DejaVuSans-80"/>
      <use x="60.302734" xlink:href="#DejaVuSans-76"/>
      <use x="116.015625" xlink:href="#DejaVuSans-78"/>
     </g>
    </g>
    <g id="line2d_23">
     <path d="M 1600.512813 143.293363 
L 1620.512813 143.293363 
" style="fill:none;stroke:#ff7f0e;stroke-linecap:square;stroke-width:1.5;"/>
    </g>
    <g id="line2d_24"/>
    <g id="text_24">
     <!-- USD -->
     <g transform="translate(1628.512813 146.793363)scale(0.1 -0.1)">
      <defs>
       <path d="M 8.6875 72.90625 
L 18.609375 72.90625 
L 18.609375 28.609375 
Q 18.609375 16.890625 22.84375 11.734375 
Q 27.09375 6.59375 36.625 6.59375 
Q 46.09375 6.59375 50.34375 11.734375 
Q 54.59375 16.890625 54.59375 28.609375 
L 54.59375 72.90625 
L 64.5 72.90625 
L 64.5 27.390625 
Q 64.5 13.140625 57.4375 5.859375 
Q 50.390625 -1.421875 36.625 -1.421875 
Q 22.796875 -1.421875 15.734375 5.859375 
Q 8.6875 13.140625 8.6875 27.390625 
z
" id="DejaVuSans-85"/>
       <path d="M 53.515625 70.515625 
L 53.515625 60.890625 
Q 47.90625 63.578125 42.921875 64.890625 
Q 37.9375 66.21875 33.296875 66.21875 
Q 25.25 66.21875 20.875 63.09375 
Q 16.5 59.96875 16.5 54.203125 
Q 16.5 49.359375 19.40625 46.890625 
Q 22.3125 44.4375 30.421875 42.921875 
L 36.375 41.703125 
Q 47.40625 39.59375 52.65625 34.296875 
Q 57.90625 29 57.90625 20.125 
Q 57.90625 9.515625 50.796875 4.046875 
Q 43.703125 -1.421875 29.984375 -1.421875 
Q 24.8125 -1.421875 18.96875 -0.25 
Q 13.140625 0.921875 6.890625 3.21875 
L 6.890625 13.375 
Q 12.890625 10.015625 18.65625 8.296875 
Q 24.421875 6.59375 29.984375 6.59375 
Q 38.421875 6.59375 43.015625 9.90625 
Q 47.609375 13.234375 47.609375 19.390625 
Q 47.609375 24.75 44.3125 27.78125 
Q 41.015625 30.8125 33.5 32.328125 
L 27.484375 33.5 
Q 16.453125 35.6875 11.515625 40.375 
Q 6.59375 45.0625 6.59375 53.421875 
Q 6.59375 63.09375 13.40625 68.65625 
Q 20.21875 74.21875 32.171875 74.21875 
Q 37.3125 74.21875 42.625 73.28125 
Q 47.953125 72.359375 53.515625 70.515625 
z
" id="DejaVuSans-83"/>
      </defs>
      <use xlink:href="#DejaVuSans-85"/>
      <use x="73.193359" xlink:href="#DejaVuSans-83"/>
      <use x="136.669922" xlink:href="#DejaVuSans-68"/>
     </g>
    </g>
   </g>
  </g>
 </g>
 <defs>
  <clipPath id="p6b9441b0b2">
   <rect height="741.2328" width="1428.48" x="230.4" y="115.5168"/>
  </clipPath>
 </defs>
</svg>
