<?xml version="1.0" encoding="utf-8" standalone="no"?>
<!DOCTYPE svg PUBLIC "-//W3C//DTD SVG 1.1//EN"
  "http://www.w3.org/Graphics/SVG/1.1/DTD/svg11.dtd">
<!-- Created with matplotlib (https://matplotlib.org/) -->
<svg height="962.64pt" version="1.1" viewBox="0 0 1843.2 962.64" width="1843.2pt" xmlns="http://www.w3.org/2000/svg" xmlns:xlink="http://www.w3.org/1999/xlink">
 <metadata>
  <rdf:RDF xmlns:cc="http://creativecommons.org/ns#" xmlns:dc="http://purl.org/dc/elements/1.1/" xmlns:rdf="http://www.w3.org/1999/02/22-rdf-syntax-ns#">
   <cc:Work>
    <dc:type rdf:resource="http://purl.org/dc/dcmitype/StillImage"/>
    <dc:date>2020-11-20T17:27:31.723707</dc:date>
    <dc:format>image/svg+xml</dc:format>
    <dc:creator>
     <cc:Agent>
      <dc:title>Matplotlib v3.3.3, https://matplotlib.org/</dc:title>
     </cc:Agent>
    </dc:creator>
   </cc:Work>
  </rdf:RDF>
 </metadata>
 <defs>
  <style type="text/css">*{stroke-linecap:butt;stroke-linejoin:round;}</style>
 </defs>
 <g id="figure_1">
  <g id="patch_1">
   <path d="M 0 962.64 
L 1843.2 962.64 
L 1843.2 0 
L 0 0 
z
" style="fill:#ffffff;"/>
  </g>
  <g id="axes_1">
   <g id="patch_2">
    <path d="M 230.4 856.7496 
L 1658.88 856.7496 
L 1658.88 115.5168 
L 230.4 115.5168 
z
" style="fill:#ffffff;"/>
   </g>
   <g id="matplotlib.axis_1">
    <g id="xtick_1">
     <g id="line2d_1">
      <defs>
       <path d="M 0 0 
L 0 3.5 
" id="mc69fbb3389" style="stroke:#000000;stroke-width:0.8;"/>
      </defs>
      <g>
       <use style="stroke:#000000;stroke-width:0.8;" x="343.954969" xlink:href="#mc69fbb3389" y="856.7496"/>
      </g>
     </g>
     <g id="text_1">
      <!-- 2018-01 -->
      <g transform="translate(323.063563 871.348038)scale(0.1 -0.1)">
       <defs>
        <path d="M 19.1875 8.296875 
L 53.609375 8.296875 
L 53.609375 0 
L 7.328125 0 
L 7.328125 8.296875 
Q 12.9375 14.109375 22.625 23.890625 
Q 32.328125 33.6875 34.8125 36.53125 
Q 39.546875 41.84375 41.421875 45.53125 
Q 43.3125 49.21875 43.3125 52.78125 
Q 43.3125 58.59375 39.234375 62.25 
Q 35.15625 65.921875 28.609375 65.921875 
Q 23.96875 65.921875 18.8125 64.3125 
Q 13.671875 62.703125 7.8125 59.421875 
L 7.8125 69.390625 
Q 13.765625 71.78125 18.9375 73 
Q 24.125 74.21875 28.421875 74.21875 
Q 39.75 74.21875 46.484375 68.546875 
Q 53.21875 62.890625 53.21875 53.421875 
Q 53.21875 48.921875 51.53125 44.890625 
Q 49.859375 40.875 45.40625 35.40625 
Q 44.1875 33.984375 37.640625 27.21875 
Q 31.109375 20.453125 19.1875 8.296875 
z
" id="DejaVuSans-50"/>
        <path d="M 31.78125 66.40625 
Q 24.171875 66.40625 20.328125 58.90625 
Q 16.5 51.421875 16.5 36.375 
Q 16.5 21.390625 20.328125 13.890625 
Q 24.171875 6.390625 31.78125 6.390625 
Q 39.453125 6.390625 43.28125 13.890625 
Q 47.125 21.390625 47.125 36.375 
Q 47.125 51.421875 43.28125 58.90625 
Q 39.453125 66.40625 31.78125 66.40625 
z
M 31.78125 74.21875 
Q 44.046875 74.21875 50.515625 64.515625 
Q 56.984375 54.828125 56.984375 36.375 
Q 56.984375 17.96875 50.515625 8.265625 
Q 44.046875 -1.421875 31.78125 -1.421875 
Q 19.53125 -1.421875 13.0625 8.265625 
Q 6.59375 17.96875 6.59375 36.375 
Q 6.59375 54.828125 13.0625 64.515625 
Q 19.53125 74.21875 31.78125 74.21875 
z
" id="DejaVuSans-48"/>
        <path d="M 12.40625 8.296875 
L 28.515625 8.296875 
L 28.515625 63.921875 
L 10.984375 60.40625 
L 10.984375 69.390625 
L 28.421875 72.90625 
L 38.28125 72.90625 
L 38.28125 8.296875 
L 54.390625 8.296875 
L 54.390625 0 
L 12.40625 0 
z
" id="DejaVuSans-49"/>
        <path d="M 31.78125 34.625 
Q 24.75 34.625 20.71875 30.859375 
Q 16.703125 27.09375 16.703125 20.515625 
Q 16.703125 13.921875 20.71875 10.15625 
Q 24.75 6.390625 31.78125 6.390625 
Q 38.8125 6.390625 42.859375 10.171875 
Q 46.921875 13.96875 46.921875 20.515625 
Q 46.921875 27.09375 42.890625 30.859375 
Q 38.875 34.625 31.78125 34.625 
z
M 21.921875 38.8125 
Q 15.578125 40.375 12.03125 44.71875 
Q 8.5 49.078125 8.5 55.328125 
Q 8.5 64.0625 14.71875 69.140625 
Q 20.953125 74.21875 31.78125 74.21875 
Q 42.671875 74.21875 48.875 69.140625 
Q 55.078125 64.0625 55.078125 55.328125 
Q 55.078125 49.078125 51.53125 44.71875 
Q 48 40.375 41.703125 38.8125 
Q 48.828125 37.15625 52.796875 32.3125 
Q 56.78125 27.484375 56.78125 20.515625 
Q 56.78125 9.90625 50.3125 4.234375 
Q 43.84375 -1.421875 31.78125 -1.421875 
Q 19.734375 -1.421875 13.25 4.234375 
Q 6.78125 9.90625 6.78125 20.515625 
Q 6.78125 27.484375 10.78125 32.3125 
Q 14.796875 37.15625 21.921875 38.8125 
z
M 18.3125 54.390625 
Q 18.3125 48.734375 21.84375 45.5625 
Q 25.390625 42.390625 31.78125 42.390625 
Q 38.140625 42.390625 41.71875 45.5625 
Q 45.3125 48.734375 45.3125 54.390625 
Q 45.3125 60.0625 41.71875 63.234375 
Q 38.140625 66.40625 31.78125 66.40625 
Q 25.390625 66.40625 21.84375 63.234375 
Q 18.3125 60.0625 18.3125 54.390625 
z
" id="DejaVuSans-56"/>
        <path d="M 4.890625 31.390625 
L 31.203125 31.390625 
L 31.203125 23.390625 
L 4.890625 23.390625 
z
" id="DejaVuSans-45"/>
       </defs>
       <use xlink:href="#DejaVuSans-50"/>
       <use x="63.623047" xlink:href="#DejaVuSans-48"/>
       <use x="127.246094" xlink:href="#DejaVuSans-49"/>
       <use x="190.869141" xlink:href="#DejaVuSans-56"/>
       <use x="254.492188" xlink:href="#DejaVuSans-45"/>
       <use x="290.576172" xlink:href="#DejaVuSans-48"/>
       <use x="354.199219" xlink:href="#DejaVuSans-49"/>
      </g>
     </g>
    </g>
    <g id="xtick_2">
     <g id="line2d_2">
      <g>
       <use style="stroke:#000000;stroke-width:0.8;" x="486.26929" xlink:href="#mc69fbb3389" y="856.7496"/>
      </g>
     </g>
     <g id="text_2">
      <!-- 2018-05 -->
      <g transform="translate(465.377884 871.348038)scale(0.1 -0.1)">
       <defs>
        <path d="M 10.796875 72.90625 
L 49.515625 72.90625 
L 49.515625 64.59375 
L 19.828125 64.59375 
L 19.828125 46.734375 
Q 21.96875 47.46875 24.109375 47.828125 
Q 26.265625 48.1875 28.421875 48.1875 
Q 40.625 48.1875 47.75 41.5 
Q 54.890625 34.8125 54.890625 23.390625 
Q 54.890625 11.625 47.5625 5.09375 
Q 40.234375 -1.421875 26.90625 -1.421875 
Q 22.3125 -1.421875 17.546875 -0.640625 
Q 12.796875 0.140625 7.71875 1.703125 
L 7.71875 11.625 
Q 12.109375 9.234375 16.796875 8.0625 
Q 21.484375 6.890625 26.703125 6.890625 
Q 35.15625 6.890625 40.078125 11.328125 
Q 45.015625 15.765625 45.015625 23.390625 
Q 45.015625 31 40.078125 35.4375 
Q 35.15625 39.890625 26.703125 39.890625 
Q 22.75 39.890625 18.8125 39.015625 
Q 14.890625 38.140625 10.796875 36.28125 
z
" id="DejaVuSans-53"/>
       </defs>
       <use xlink:href="#DejaVuSans-50"/>
       <use x="63.623047" xlink:href="#DejaVuSans-48"/>
       <use x="127.246094" xlink:href="#DejaVuSans-49"/>
       <use x="190.869141" xlink:href="#DejaVuSans-56"/>
       <use x="254.492188" xlink:href="#DejaVuSans-45"/>
       <use x="290.576172" xlink:href="#DejaVuSans-48"/>
       <use x="354.199219" xlink:href="#DejaVuSans-53"/>
      </g>
     </g>
    </g>
    <g id="xtick_3">
     <g id="line2d_3">
      <g>
       <use style="stroke:#000000;stroke-width:0.8;" x="632.141469" xlink:href="#mc69fbb3389" y="856.7496"/>
      </g>
     </g>
     <g id="text_3">
      <!-- 2018-09 -->
      <g transform="translate(611.250063 871.348038)scale(0.1 -0.1)">
       <defs>
        <path d="M 10.984375 1.515625 
L 10.984375 10.5 
Q 14.703125 8.734375 18.5 7.8125 
Q 22.3125 6.890625 25.984375 6.890625 
Q 35.75 6.890625 40.890625 13.453125 
Q 46.046875 20.015625 46.78125 33.40625 
Q 43.953125 29.203125 39.59375 26.953125 
Q 35.25 24.703125 29.984375 24.703125 
Q 19.046875 24.703125 12.671875 31.3125 
Q 6.296875 37.9375 6.296875 49.421875 
Q 6.296875 60.640625 12.9375 67.421875 
Q 19.578125 74.21875 30.609375 74.21875 
Q 43.265625 74.21875 49.921875 64.515625 
Q 56.59375 54.828125 56.59375 36.375 
Q 56.59375 19.140625 48.40625 8.859375 
Q 40.234375 -1.421875 26.421875 -1.421875 
Q 22.703125 -1.421875 18.890625 -0.6875 
Q 15.09375 0.046875 10.984375 1.515625 
z
M 30.609375 32.421875 
Q 37.25 32.421875 41.125 36.953125 
Q 45.015625 41.5 45.015625 49.421875 
Q 45.015625 57.28125 41.125 61.84375 
Q 37.25 66.40625 30.609375 66.40625 
Q 23.96875 66.40625 20.09375 61.84375 
Q 16.21875 57.28125 16.21875 49.421875 
Q 16.21875 41.5 20.09375 36.953125 
Q 23.96875 32.421875 30.609375 32.421875 
z
" id="DejaVuSans-57"/>
       </defs>
       <use xlink:href="#DejaVuSans-50"/>
       <use x="63.623047" xlink:href="#DejaVuSans-48"/>
       <use x="127.246094" xlink:href="#DejaVuSans-49"/>
       <use x="190.869141" xlink:href="#DejaVuSans-56"/>
       <use x="254.492188" xlink:href="#DejaVuSans-45"/>
       <use x="290.576172" xlink:href="#DejaVuSans-48"/>
       <use x="354.199219" xlink:href="#DejaVuSans-57"/>
      </g>
     </g>
    </g>
    <g id="xtick_4">
     <g id="line2d_4">
      <g>
       <use style="stroke:#000000;stroke-width:0.8;" x="776.827696" xlink:href="#mc69fbb3389" y="856.7496"/>
      </g>
     </g>
     <g id="text_4">
      <!-- 2019-01 -->
      <g transform="translate(755.93629 871.348038)scale(0.1 -0.1)">
       <use xlink:href="#DejaVuSans-50"/>
       <use x="63.623047" xlink:href="#DejaVuSans-48"/>
       <use x="127.246094" xlink:href="#DejaVuSans-49"/>
       <use x="190.869141" xlink:href="#DejaVuSans-57"/>
       <use x="254.492188" xlink:href="#DejaVuSans-45"/>
       <use x="290.576172" xlink:href="#DejaVuSans-48"/>
       <use x="354.199219" xlink:href="#DejaVuSans-49"/>
      </g>
     </g>
    </g>
    <g id="xtick_5">
     <g id="line2d_5">
      <g>
       <use style="stroke:#000000;stroke-width:0.8;" x="919.142017" xlink:href="#mc69fbb3389" y="856.7496"/>
      </g>
     </g>
     <g id="text_5">
      <!-- 2019-05 -->
      <g transform="translate(898.250611 871.348038)scale(0.1 -0.1)">
       <use xlink:href="#DejaVuSans-50"/>
       <use x="63.623047" xlink:href="#DejaVuSans-48"/>
       <use x="127.246094" xlink:href="#DejaVuSans-49"/>
       <use x="190.869141" xlink:href="#DejaVuSans-57"/>
       <use x="254.492188" xlink:href="#DejaVuSans-45"/>
       <use x="290.576172" xlink:href="#DejaVuSans-48"/>
       <use x="354.199219" xlink:href="#DejaVuSans-53"/>
      </g>
     </g>
    </g>
    <g id="xtick_6">
     <g id="line2d_6">
      <g>
       <use style="stroke:#000000;stroke-width:0.8;" x="1065.014197" xlink:href="#mc69fbb3389" y="856.7496"/>
      </g>
     </g>
     <g id="text_6">
      <!-- 2019-09 -->
      <g transform="translate(1044.122791 871.348038)scale(0.1 -0.1)">
       <use xlink:href="#DejaVuSans-50"/>
       <use x="63.623047" xlink:href="#DejaVuSans-48"/>
       <use x="127.246094" xlink:href="#DejaVuSans-49"/>
       <use x="190.869141" xlink:href="#DejaVuSans-57"/>
       <use x="254.492188" xlink:href="#DejaVuSans-45"/>
       <use x="290.576172" xlink:href="#DejaVuSans-48"/>
       <use x="354.199219" xlink:href="#DejaVuSans-57"/>
      </g>
     </g>
    </g>
    <g id="xtick_7">
     <g id="line2d_7">
      <g>
       <use style="stroke:#000000;stroke-width:0.8;" x="1209.700423" xlink:href="#mc69fbb3389" y="856.7496"/>
      </g>
     </g>
     <g id="text_7">
      <!-- 2020-01 -->
      <g transform="translate(1188.809017 871.348038)scale(0.1 -0.1)">
       <use xlink:href="#DejaVuSans-50"/>
       <use x="63.623047" xlink:href="#DejaVuSans-48"/>
       <use x="127.246094" xlink:href="#DejaVuSans-50"/>
       <use x="190.869141" xlink:href="#DejaVuSans-48"/>
       <use x="254.492188" xlink:href="#DejaVuSans-45"/>
       <use x="290.576172" xlink:href="#DejaVuSans-48"/>
       <use x="354.199219" xlink:href="#DejaVuSans-49"/>
      </g>
     </g>
    </g>
    <g id="xtick_8">
     <g id="line2d_8">
      <g>
       <use style="stroke:#000000;stroke-width:0.8;" x="1353.200697" xlink:href="#mc69fbb3389" y="856.7496"/>
      </g>
     </g>
     <g id="text_8">
      <!-- 2020-05 -->
      <g transform="translate(1332.309291 871.348038)scale(0.1 -0.1)">
       <use xlink:href="#DejaVuSans-50"/>
       <use x="63.623047" xlink:href="#DejaVuSans-48"/>
       <use x="127.246094" xlink:href="#DejaVuSans-50"/>
       <use x="190.869141" xlink:href="#DejaVuSans-48"/>
       <use x="254.492188" xlink:href="#DejaVuSans-45"/>
       <use x="290.576172" xlink:href="#DejaVuSans-48"/>
       <use x="354.199219" xlink:href="#DejaVuSans-53"/>
      </g>
     </g>
    </g>
    <g id="xtick_9">
     <g id="line2d_9">
      <g>
       <use style="stroke:#000000;stroke-width:0.8;" x="1499.072877" xlink:href="#mc69fbb3389" y="856.7496"/>
      </g>
     </g>
     <g id="text_9">
      <!-- 2020-09 -->
      <g transform="translate(1478.18147 871.348038)scale(0.1 -0.1)">
       <use xlink:href="#DejaVuSans-50"/>
       <use x="63.623047" xlink:href="#DejaVuSans-48"/>
       <use x="127.246094" xlink:href="#DejaVuSans-50"/>
       <use x="190.869141" xlink:href="#DejaVuSans-48"/>
       <use x="254.492188" xlink:href="#DejaVuSans-45"/>
       <use x="290.576172" xlink:href="#DejaVuSans-48"/>
       <use x="354.199219" xlink:href="#DejaVuSans-57"/>
      </g>
     </g>
    </g>
    <g id="xtick_10">
     <g id="line2d_10">
      <g>
       <use style="stroke:#000000;stroke-width:0.8;" x="1643.759103" xlink:href="#mc69fbb3389" y="856.7496"/>
      </g>
     </g>
     <g id="text_10">
      <!-- 2021-01 -->
      <g transform="translate(1622.867697 871.348038)scale(0.1 -0.1)">
       <use xlink:href="#DejaVuSans-50"/>
       <use x="63.623047" xlink:href="#DejaVuSans-48"/>
       <use x="127.246094" xlink:href="#DejaVuSans-50"/>
       <use x="190.869141" xlink:href="#DejaVuSans-49"/>
       <use x="254.492188" xlink:href="#DejaVuSans-45"/>
       <use x="290.576172" xlink:href="#DejaVuSans-48"/>
       <use x="354.199219" xlink:href="#DejaVuSans-49"/>
      </g>
     </g>
    </g>
    <g id="text_11">
     <!-- Date -->
     <g transform="translate(932.689219 885.026163)scale(0.1 -0.1)">
      <defs>
       <path d="M 19.671875 64.796875 
L 19.671875 8.109375 
L 31.59375 8.109375 
Q 46.6875 8.109375 53.6875 14.9375 
Q 60.6875 21.78125 60.6875 36.53125 
Q 60.6875 51.171875 53.6875 57.984375 
Q 46.6875 64.796875 31.59375 64.796875 
z
M 9.8125 72.90625 
L 30.078125 72.90625 
Q 51.265625 72.90625 61.171875 64.09375 
Q 71.09375 55.28125 71.09375 36.53125 
Q 71.09375 17.671875 61.125 8.828125 
Q 51.171875 0 30.078125 0 
L 9.8125 0 
z
" id="DejaVuSans-68"/>
       <path d="M 34.28125 27.484375 
Q 23.390625 27.484375 19.1875 25 
Q 14.984375 22.515625 14.984375 16.5 
Q 14.984375 11.71875 18.140625 8.90625 
Q 21.296875 6.109375 26.703125 6.109375 
Q 34.1875 6.109375 38.703125 11.40625 
Q 43.21875 16.703125 43.21875 25.484375 
L 43.21875 27.484375 
z
M 52.203125 31.203125 
L 52.203125 0 
L 43.21875 0 
L 43.21875 8.296875 
Q 40.140625 3.328125 35.546875 0.953125 
Q 30.953125 -1.421875 24.3125 -1.421875 
Q 15.921875 -1.421875 10.953125 3.296875 
Q 6 8.015625 6 15.921875 
Q 6 25.140625 12.171875 29.828125 
Q 18.359375 34.515625 30.609375 34.515625 
L 43.21875 34.515625 
L 43.21875 35.40625 
Q 43.21875 41.609375 39.140625 45 
Q 35.0625 48.390625 27.6875 48.390625 
Q 23 48.390625 18.546875 47.265625 
Q 14.109375 46.140625 10.015625 43.890625 
L 10.015625 52.203125 
Q 14.9375 54.109375 19.578125 55.046875 
Q 24.21875 56 28.609375 56 
Q 40.484375 56 46.34375 49.84375 
Q 52.203125 43.703125 52.203125 31.203125 
z
" id="DejaVuSans-97"/>
       <path d="M 18.3125 70.21875 
L 18.3125 54.6875 
L 36.8125 54.6875 
L 36.8125 47.703125 
L 18.3125 47.703125 
L 18.3125 18.015625 
Q 18.3125 11.328125 20.140625 9.421875 
Q 21.96875 7.515625 27.59375 7.515625 
L 36.8125 7.515625 
L 36.8125 0 
L 27.59375 0 
Q 17.1875 0 13.234375 3.875 
Q 9.28125 7.765625 9.28125 18.015625 
L 9.28125 47.703125 
L 2.6875 47.703125 
L 2.6875 54.6875 
L 9.28125 54.6875 
L 9.28125 70.21875 
z
" id="DejaVuSans-116"/>
       <path d="M 56.203125 29.59375 
L 56.203125 25.203125 
L 14.890625 25.203125 
Q 15.484375 15.921875 20.484375 11.0625 
Q 25.484375 6.203125 34.421875 6.203125 
Q 39.59375 6.203125 44.453125 7.46875 
Q 49.3125 8.734375 54.109375 11.28125 
L 54.109375 2.78125 
Q 49.265625 0.734375 44.1875 -0.34375 
Q 39.109375 -1.421875 33.890625 -1.421875 
Q 20.796875 -1.421875 13.15625 6.1875 
Q 5.515625 13.8125 5.515625 26.8125 
Q 5.515625 40.234375 12.765625 48.109375 
Q 20.015625 56 32.328125 56 
Q 43.359375 56 49.78125 48.890625 
Q 56.203125 41.796875 56.203125 29.59375 
z
M 47.21875 32.234375 
Q 47.125 39.59375 43.09375 43.984375 
Q 39.0625 48.390625 32.421875 48.390625 
Q 24.90625 48.390625 20.390625 44.140625 
Q 15.875 39.890625 15.1875 32.171875 
z
" id="DejaVuSans-101"/>
      </defs>
      <use xlink:href="#DejaVuSans-68"/>
      <use x="77.001953" xlink:href="#DejaVuSans-97"/>
      <use x="138.28125" xlink:href="#DejaVuSans-116"/>
      <use x="177.490234" xlink:href="#DejaVuSans-101"/>
     </g>
    </g>
   </g>
   <g id="matplotlib.axis_2">
    <g id="ytick_1">
     <g id="line2d_11">
      <defs>
       <path d="M 0 0 
L -3.5 0 
" id="maf21c96409" style="stroke:#000000;stroke-width:0.8;"/>
      </defs>
      <g>
       <use style="stroke:#000000;stroke-width:0.8;" x="230.4" xlink:href="#maf21c96409" y="780.701625"/>
      </g>
     </g>
     <g id="text_12">
      <!-- 3.4 -->
      <g transform="translate(207.496875 784.500844)scale(0.1 -0.1)">
       <defs>
        <path d="M 40.578125 39.3125 
Q 47.65625 37.796875 51.625 33 
Q 55.609375 28.21875 55.609375 21.1875 
Q 55.609375 10.40625 48.1875 4.484375 
Q 40.765625 -1.421875 27.09375 -1.421875 
Q 22.515625 -1.421875 17.65625 -0.515625 
Q 12.796875 0.390625 7.625 2.203125 
L 7.625 11.71875 
Q 11.71875 9.328125 16.59375 8.109375 
Q 21.484375 6.890625 26.8125 6.890625 
Q 36.078125 6.890625 40.9375 10.546875 
Q 45.796875 14.203125 45.796875 21.1875 
Q 45.796875 27.640625 41.28125 31.265625 
Q 36.765625 34.90625 28.71875 34.90625 
L 20.21875 34.90625 
L 20.21875 43.015625 
L 29.109375 43.015625 
Q 36.375 43.015625 40.234375 45.921875 
Q 44.09375 48.828125 44.09375 54.296875 
Q 44.09375 59.90625 40.109375 62.90625 
Q 36.140625 65.921875 28.71875 65.921875 
Q 24.65625 65.921875 20.015625 65.03125 
Q 15.375 64.15625 9.8125 62.3125 
L 9.8125 71.09375 
Q 15.4375 72.65625 20.34375 73.4375 
Q 25.25 74.21875 29.59375 74.21875 
Q 40.828125 74.21875 47.359375 69.109375 
Q 53.90625 64.015625 53.90625 55.328125 
Q 53.90625 49.265625 50.4375 45.09375 
Q 46.96875 40.921875 40.578125 39.3125 
z
" id="DejaVuSans-51"/>
        <path d="M 10.6875 12.40625 
L 21 12.40625 
L 21 0 
L 10.6875 0 
z
" id="DejaVuSans-46"/>
        <path d="M 37.796875 64.3125 
L 12.890625 25.390625 
L 37.796875 25.390625 
z
M 35.203125 72.90625 
L 47.609375 72.90625 
L 47.609375 25.390625 
L 58.015625 25.390625 
L 58.015625 17.1875 
L 47.609375 17.1875 
L 47.609375 0 
L 37.796875 0 
L 37.796875 17.1875 
L 4.890625 17.1875 
L 4.890625 26.703125 
z
" id="DejaVuSans-52"/>
       </defs>
       <use xlink:href="#DejaVuSans-51"/>
       <use x="63.623047" xlink:href="#DejaVuSans-46"/>
       <use x="95.410156" xlink:href="#DejaVuSans-52"/>
      </g>
     </g>
    </g>
    <g id="ytick_2">
     <g id="line2d_12">
      <g>
       <use style="stroke:#000000;stroke-width:0.8;" x="230.4" xlink:href="#maf21c96409" y="678.269764"/>
      </g>
     </g>
     <g id="text_13">
      <!-- 3.6 -->
      <g transform="translate(207.496875 682.068983)scale(0.1 -0.1)">
       <defs>
        <path d="M 33.015625 40.375 
Q 26.375 40.375 22.484375 35.828125 
Q 18.609375 31.296875 18.609375 23.390625 
Q 18.609375 15.53125 22.484375 10.953125 
Q 26.375 6.390625 33.015625 6.390625 
Q 39.65625 6.390625 43.53125 10.953125 
Q 47.40625 15.53125 47.40625 23.390625 
Q 47.40625 31.296875 43.53125 35.828125 
Q 39.65625 40.375 33.015625 40.375 
z
M 52.59375 71.296875 
L 52.59375 62.3125 
Q 48.875 64.0625 45.09375 64.984375 
Q 41.3125 65.921875 37.59375 65.921875 
Q 27.828125 65.921875 22.671875 59.328125 
Q 17.53125 52.734375 16.796875 39.40625 
Q 19.671875 43.65625 24.015625 45.921875 
Q 28.375 48.1875 33.59375 48.1875 
Q 44.578125 48.1875 50.953125 41.515625 
Q 57.328125 34.859375 57.328125 23.390625 
Q 57.328125 12.15625 50.6875 5.359375 
Q 44.046875 -1.421875 33.015625 -1.421875 
Q 20.359375 -1.421875 13.671875 8.265625 
Q 6.984375 17.96875 6.984375 36.375 
Q 6.984375 53.65625 15.1875 63.9375 
Q 23.390625 74.21875 37.203125 74.21875 
Q 40.921875 74.21875 44.703125 73.484375 
Q 48.484375 72.75 52.59375 71.296875 
z
" id="DejaVuSans-54"/>
       </defs>
       <use xlink:href="#DejaVuSans-51"/>
       <use x="63.623047" xlink:href="#DejaVuSans-46"/>
       <use x="95.410156" xlink:href="#DejaVuSans-54"/>
      </g>
     </g>
    </g>
    <g id="ytick_3">
     <g id="line2d_13">
      <g>
       <use style="stroke:#000000;stroke-width:0.8;" x="230.4" xlink:href="#maf21c96409" y="575.837903"/>
      </g>
     </g>
     <g id="text_14">
      <!-- 3.8 -->
      <g transform="translate(207.496875 579.637121)scale(0.1 -0.1)">
       <use xlink:href="#DejaVuSans-51"/>
       <use x="63.623047" xlink:href="#DejaVuSans-46"/>
       <use x="95.410156" xlink:href="#DejaVuSans-56"/>
      </g>
     </g>
    </g>
    <g id="ytick_4">
     <g id="line2d_14">
      <g>
       <use style="stroke:#000000;stroke-width:0.8;" x="230.4" xlink:href="#maf21c96409" y="473.406041"/>
      </g>
     </g>
     <g id="text_15">
      <!-- 4.0 -->
      <g transform="translate(207.496875 477.20526)scale(0.1 -0.1)">
       <use xlink:href="#DejaVuSans-52"/>
       <use x="63.623047" xlink:href="#DejaVuSans-46"/>
       <use x="95.410156" xlink:href="#DejaVuSans-48"/>
      </g>
     </g>
    </g>
    <g id="ytick_5">
     <g id="line2d_15">
      <g>
       <use style="stroke:#000000;stroke-width:0.8;" x="230.4" xlink:href="#maf21c96409" y="370.97418"/>
      </g>
     </g>
     <g id="text_16">
      <!-- 4.2 -->
      <g transform="translate(207.496875 374.773399)scale(0.1 -0.1)">
       <use xlink:href="#DejaVuSans-52"/>
       <use x="63.623047" xlink:href="#DejaVuSans-46"/>
       <use x="95.410156" xlink:href="#DejaVuSans-50"/>
      </g>
     </g>
    </g>
    <g id="ytick_6">
     <g id="line2d_16">
      <g>
       <use style="stroke:#000000;stroke-width:0.8;" x="230.4" xlink:href="#maf21c96409" y="268.542318"/>
      </g>
     </g>
     <g id="text_17">
      <!-- 4.4 -->
      <g transform="translate(207.496875 272.341537)scale(0.1 -0.1)">
       <use xlink:href="#DejaVuSans-52"/>
       <use x="63.623047" xlink:href="#DejaVuSans-46"/>
       <use x="95.410156" xlink:href="#DejaVuSans-52"/>
      </g>
     </g>
    </g>
    <g id="ytick_7">
     <g id="line2d_17">
      <g>
       <use style="stroke:#000000;stroke-width:0.8;" x="230.4" xlink:href="#maf21c96409" y="166.110457"/>
      </g>
     </g>
     <g id="text_18">
      <!-- 4.6 -->
      <g transform="translate(207.496875 169.909676)scale(0.1 -0.1)">
       <use xlink:href="#DejaVuSans-52"/>
       <use x="63.623047" xlink:href="#DejaVuSans-46"/>
       <use x="95.410156" xlink:href="#DejaVuSans-54"/>
      </g>
     </g>
    </g>
    <g id="text_19">
     <!-- Exchange rates -->
     <g transform="translate(201.417188 524.916012)rotate(-90)scale(0.1 -0.1)">
      <defs>
       <path d="M 9.8125 72.90625 
L 55.90625 72.90625 
L 55.90625 64.59375 
L 19.671875 64.59375 
L 19.671875 43.015625 
L 54.390625 43.015625 
L 54.390625 34.71875 
L 19.671875 34.71875 
L 19.671875 8.296875 
L 56.78125 8.296875 
L 56.78125 0 
L 9.8125 0 
z
" id="DejaVuSans-69"/>
       <path d="M 54.890625 54.6875 
L 35.109375 28.078125 
L 55.90625 0 
L 45.3125 0 
L 29.390625 21.484375 
L 13.484375 0 
L 2.875 0 
L 24.125 28.609375 
L 4.6875 54.6875 
L 15.28125 54.6875 
L 29.78125 35.203125 
L 44.28125 54.6875 
z
" id="DejaVuSans-120"/>
       <path d="M 48.78125 52.59375 
L 48.78125 44.1875 
Q 44.96875 46.296875 41.140625 47.34375 
Q 37.3125 48.390625 33.40625 48.390625 
Q 24.65625 48.390625 19.8125 42.84375 
Q 14.984375 37.3125 14.984375 27.296875 
Q 14.984375 17.28125 19.8125 11.734375 
Q 24.65625 6.203125 33.40625 6.203125 
Q 37.3125 6.203125 41.140625 7.25 
Q 44.96875 8.296875 48.78125 10.40625 
L 48.78125 2.09375 
Q 45.015625 0.34375 40.984375 -0.53125 
Q 36.96875 -1.421875 32.421875 -1.421875 
Q 20.0625 -1.421875 12.78125 6.34375 
Q 5.515625 14.109375 5.515625 27.296875 
Q 5.515625 40.671875 12.859375 48.328125 
Q 20.21875 56 33.015625 56 
Q 37.15625 56 41.109375 55.140625 
Q 45.0625 54.296875 48.78125 52.59375 
z
" id="DejaVuSans-99"/>
       <path d="M 54.890625 33.015625 
L 54.890625 0 
L 45.90625 0 
L 45.90625 32.71875 
Q 45.90625 40.484375 42.875 44.328125 
Q 39.84375 48.1875 33.796875 48.1875 
Q 26.515625 48.1875 22.3125 43.546875 
Q 18.109375 38.921875 18.109375 30.90625 
L 18.109375 0 
L 9.078125 0 
L 9.078125 75.984375 
L 18.109375 75.984375 
L 18.109375 46.1875 
Q 21.34375 51.125 25.703125 53.5625 
Q 30.078125 56 35.796875 56 
Q 45.21875 56 50.046875 50.171875 
Q 54.890625 44.34375 54.890625 33.015625 
z
" id="DejaVuSans-104"/>
       <path d="M 54.890625 33.015625 
L 54.890625 0 
L 45.90625 0 
L 45.90625 32.71875 
Q 45.90625 40.484375 42.875 44.328125 
Q 39.84375 48.1875 33.796875 48.1875 
Q 26.515625 48.1875 22.3125 43.546875 
Q 18.109375 38.921875 18.109375 30.90625 
L 18.109375 0 
L 9.078125 0 
L 9.078125 54.6875 
L 18.109375 54.6875 
L 18.109375 46.1875 
Q 21.34375 51.125 25.703125 53.5625 
Q 30.078125 56 35.796875 56 
Q 45.21875 56 50.046875 50.171875 
Q 54.890625 44.34375 54.890625 33.015625 
z
" id="DejaVuSans-110"/>
       <path d="M 45.40625 27.984375 
Q 45.40625 37.75 41.375 43.109375 
Q 37.359375 48.484375 30.078125 48.484375 
Q 22.859375 48.484375 18.828125 43.109375 
Q 14.796875 37.75 14.796875 27.984375 
Q 14.796875 18.265625 18.828125 12.890625 
Q 22.859375 7.515625 30.078125 7.515625 
Q 37.359375 7.515625 41.375 12.890625 
Q 45.40625 18.265625 45.40625 27.984375 
z
M 54.390625 6.78125 
Q 54.390625 -7.171875 48.1875 -13.984375 
Q 42 -20.796875 29.203125 -20.796875 
Q 24.46875 -20.796875 20.265625 -20.09375 
Q 16.0625 -19.390625 12.109375 -17.921875 
L 12.109375 -9.1875 
Q 16.0625 -11.328125 19.921875 -12.34375 
Q 23.78125 -13.375 27.78125 -13.375 
Q 36.625 -13.375 41.015625 -8.765625 
Q 45.40625 -4.15625 45.40625 5.171875 
L 45.40625 9.625 
Q 42.625 4.78125 38.28125 2.390625 
Q 33.9375 0 27.875 0 
Q 17.828125 0 11.671875 7.65625 
Q 5.515625 15.328125 5.515625 27.984375 
Q 5.515625 40.671875 11.671875 48.328125 
Q 17.828125 56 27.875 56 
Q 33.9375 56 38.28125 53.609375 
Q 42.625 51.21875 45.40625 46.390625 
L 45.40625 54.6875 
L 54.390625 54.6875 
z
" id="DejaVuSans-103"/>
       <path id="DejaVuSans-32"/>
       <path d="M 41.109375 46.296875 
Q 39.59375 47.171875 37.8125 47.578125 
Q 36.03125 48 33.890625 48 
Q 26.265625 48 22.1875 43.046875 
Q 18.109375 38.09375 18.109375 28.8125 
L 18.109375 0 
L 9.078125 0 
L 9.078125 54.6875 
L 18.109375 54.6875 
L 18.109375 46.1875 
Q 20.953125 51.171875 25.484375 53.578125 
Q 30.03125 56 36.53125 56 
Q 37.453125 56 38.578125 55.875 
Q 39.703125 55.765625 41.0625 55.515625 
z
" id="DejaVuSans-114"/>
       <path d="M 44.28125 53.078125 
L 44.28125 44.578125 
Q 40.484375 46.53125 36.375 47.5 
Q 32.28125 48.484375 27.875 48.484375 
Q 21.1875 48.484375 17.84375 46.4375 
Q 14.5 44.390625 14.5 40.28125 
Q 14.5 37.15625 16.890625 35.375 
Q 19.28125 33.59375 26.515625 31.984375 
L 29.59375 31.296875 
Q 39.15625 29.25 43.1875 25.515625 
Q 47.21875 21.78125 47.21875 15.09375 
Q 47.21875 7.46875 41.1875 3.015625 
Q 35.15625 -1.421875 24.609375 -1.421875 
Q 20.21875 -1.421875 15.453125 -0.5625 
Q 10.6875 0.296875 5.421875 2 
L 5.421875 11.28125 
Q 10.40625 8.6875 15.234375 7.390625 
Q 20.0625 6.109375 24.8125 6.109375 
Q 31.15625 6.109375 34.5625 8.28125 
Q 37.984375 10.453125 37.984375 14.40625 
Q 37.984375 18.0625 35.515625 20.015625 
Q 33.0625 21.96875 24.703125 23.78125 
L 21.578125 24.515625 
Q 13.234375 26.265625 9.515625 29.90625 
Q 5.8125 33.546875 5.8125 39.890625 
Q 5.8125 47.609375 11.28125 51.796875 
Q 16.75 56 26.8125 56 
Q 31.78125 56 36.171875 55.265625 
Q 40.578125 54.546875 44.28125 53.078125 
z
" id="DejaVuSans-115"/>
      </defs>
      <use xlink:href="#DejaVuSans-69"/>
      <use x="63.183594" xlink:href="#DejaVuSans-120"/>
      <use x="120.613281" xlink:href="#DejaVuSans-99"/>
      <use x="175.59375" xlink:href="#DejaVuSans-104"/>
      <use x="238.972656" xlink:href="#DejaVuSans-97"/>
      <use x="300.251953" xlink:href="#DejaVuSans-110"/>
      <use x="363.630859" xlink:href="#DejaVuSans-103"/>
      <use x="427.107422" xlink:href="#DejaVuSans-101"/>
      <use x="488.630859" xlink:href="#DejaVuSans-32"/>
      <use x="520.417969" xlink:href="#DejaVuSans-114"/>
      <use x="561.53125" xlink:href="#DejaVuSans-97"/>
      <use x="622.810547" xlink:href="#DejaVuSans-116"/>
      <use x="662.019531" xlink:href="#DejaVuSans-101"/>
      <use x="723.542969" xlink:href="#DejaVuSans-115"/>
     </g>
    </g>
   </g>
   <g id="line2d_18">
    <path clip-path="url(#p8cbaba8e2f)" d="M 295.330909 675.196808 
L 296.516862 684.36446 
L 297.702814 700.958421 
L 298.888767 704.594752 
L 300.07472 715.350098 
L 302.446625 715.350098 
L 303.632578 709.921209 
L 304.818531 709.767561 
L 306.004483 701.675444 
L 307.190436 711.457687 
L 308.376389 703.928945 
L 310.748294 703.928945 
L 311.934247 706.233662 
L 313.120199 696.041692 
L 314.306152 692.507793 
L 315.492105 688.103223 
L 316.678057 697.066011 
L 319.049963 697.066011 
L 320.235915 693.224816 
L 321.421868 684.415676 
L 322.607821 692.815088 
L 323.793773 689.229973 
L 324.979726 691.585906 
L 327.351631 691.585906 
L 328.537584 699.626807 
L 329.723537 705.977582 
L 330.909489 710.587016 
L 332.095442 709.357834 
L 333.281395 716.528064 
L 338.025205 716.528064 
L 339.211158 727.129762 
L 340.397111 739.063074 
L 341.583064 752.737727 
L 345.140922 752.737727 
L 346.326874 749.152612 
L 347.512827 756.527706 
L 348.69878 755.708251 
L 349.884732 743.057916 
L 352.256638 743.057916 
L 353.44259 729.895422 
L 354.628543 729.536911 
L 355.814496 732.046491 
L 357.000448 761.956595 
L 358.186401 780.189466 
L 360.558306 780.189466 
L 361.744259 770.970598 
L 362.930212 775.119089 
L 364.116164 775.170305 
L 365.302117 781.008921 
L 366.48807 778.857852 
L 368.859975 778.857852 
L 370.045928 776.399487 
L 371.23188 793.505608 
L 372.417833 812.660366 
L 373.603786 816.603993 
L 374.789738 812.711582 
L 377.161644 812.711582 
L 378.347597 809.280115 
L 379.533549 815.63089 
L 380.719502 814.196844 
L 381.905455 815.067515 
L 383.091407 812.711582 
L 385.463313 812.711582 
L 386.649265 806.412023 
L 387.835218 797.244371 
L 389.021171 774.60693 
L 390.207123 767.231836 
L 391.393076 774.453282 
L 393.764981 774.453282 
L 394.950934 785.003764 
L 396.136887 792.532505 
L 397.322839 818.65263 
L 398.508792 823.0572 
L 399.694745 810.867808 
L 402.06665 810.867808 
L 403.252603 801.341645 
L 404.438555 796.220052 
L 405.624508 780.240682 
L 406.810461 785.259843 
L 407.996413 790.996027 
L 410.368319 790.996027 
L 411.554271 790.125357 
L 412.740224 771.07303 
L 413.926177 762.468754 
L 415.11213 770.458439 
L 416.298082 780.957705 
L 418.669988 780.957705 
L 419.85594 783.979445 
L 421.041893 793.812904 
L 423.413798 773.941122 
L 424.599751 777.321374 
L 426.971656 777.321374 
L 428.157609 773.377747 
L 429.343562 777.884749 
L 430.529514 774.709361 
L 431.715467 769.741416 
L 432.90142 763.236993 
L 435.273325 763.236993 
L 436.459278 765.54171 
L 437.64523 752.840159 
L 438.831183 767.18062 
L 440.017136 764.363743 
L 440.017136 773.275315 
L 443.574994 773.275315 
L 444.760946 784.747684 
L 445.946899 782.955126 
L 447.132852 770.407223 
L 448.318804 773.582611 
L 449.504757 771.636406 
L 453.062615 771.636406 
L 454.248568 769.229257 
L 455.434521 765.28563 
L 456.620473 764.568607 
L 457.806426 771.790053 
L 460.178331 771.790053 
L 461.364284 777.218942 
L 462.550237 787.923072 
L 463.736189 784.594036 
L 464.922142 787.769424 
L 466.108095 797.807746 
L 468.48 797.807746 
L 469.665953 802.622044 
L 470.851905 794.99087 
L 472.037858 796.424916 
L 473.223811 786.796321 
L 474.409763 772.71194 
L 476.781669 772.71194 
L 477.967621 760.164037 
L 479.153574 752.635295 
L 480.339527 738.346051 
L 481.525479 729.332047 
L 482.711432 736.246197 
L 485.083337 736.246197 
L 486.26929 700.651126 
L 487.455243 700.651126 
L 488.641196 690.868883 
L 489.827148 690.868883 
L 491.013101 697.014795 
L 493.385006 697.014795 
L 494.570959 684.210812 
L 495.756912 673.66033 
L 496.942864 689.89578 
L 498.128817 693.224816 
L 499.31477 700.907205 
L 501.686675 700.907205 
L 502.872628 681.803663 
L 504.05858 665.926725 
L 505.244533 663.775656 
L 506.430486 658.551631 
L 507.616438 646.771967 
L 509.988344 646.771967 
L 511.174296 665.363349 
L 512.360249 642.777124 
L 513.546202 648.052365 
L 514.732154 643.135636 
L 515.918107 634.787439 
L 518.290012 634.787439 
L 519.475965 611.74027 
L 520.661918 616.810647 
L 521.84787 630.434085 
L 523.033823 630.434085 
L 524.219776 644.21117 
L 526.591681 644.21117 
L 528.963587 654.198277 
L 530.149539 675.094376 
L 531.335492 653.737333 
L 532.521445 665.619429 
L 534.89335 665.619429 
L 536.079303 664.390247 
L 537.265255 654.65922 
L 538.451208 670.331295 
L 539.637161 631.048676 
L 540.823113 626.900185 
L 543.195019 626.900185 
L 544.380971 610.869599 
L 545.566924 609.025826 
L 546.752877 595.965763 
L 547.938829 628.2318 
L 549.124782 622.598047 
L 551.496687 622.598047 
L 552.68264 619.320228 
L 553.868593 609.077042 
L 555.054545 590.946602 
L 556.240498 604.518824 
L 557.426451 591.049034 
L 559.798356 591.049034 
L 560.984309 590.024715 
L 562.170262 588.180942 
L 564.542167 615.683897 
L 565.72812 634.736223 
L 568.100025 634.736223 
L 569.285978 628.436663 
L 570.47193 627.053833 
L 571.657883 624.236957 
L 572.843836 614.557146 
L 574.029788 635.862973 
L 576.401694 635.862973 
L 577.587646 646.567103 
L 578.773599 625.466139 
L 579.959552 618.705637 
L 581.145504 618.347125 
L 582.331457 629.256118 
L 584.703362 629.256118 
L 585.889315 626.029515 
L 587.075268 637.655531 
L 588.26122 645.030625 
L 589.447173 630.280437 
L 590.633126 643.238067 
L 593.005031 643.238067 
L 594.190984 653.634901 
L 595.376936 647.386558 
L 596.562889 638.16769 
L 597.748842 630.843812 
L 598.934795 631.151108 
L 601.3067 631.151108 
L 602.492653 641.291862 
L 604.864558 634.941087 
L 606.050511 602.418971 
L 607.236463 582.905701 
L 609.608369 582.905701 
L 610.794321 587.719999 
L 611.980274 582.444758 
L 613.166227 582.444758 
L 615.538132 591.458761 
L 617.910037 591.458761 
L 619.09599 607.847859 
L 620.281943 621.727376 
L 621.467895 623.519934 
L 622.653848 626.33681 
L 623.839801 636.272701 
L 626.211706 636.272701 
L 627.397659 650.203434 
L 628.583611 640.011464 
L 629.769564 641.18943 
L 630.955517 636.887292 
L 632.141469 627.514777 
L 634.513375 627.514777 
L 635.699328 614.710794 
L 636.88528 610.152576 
L 638.071233 619.729955 
L 639.257186 627.309913 
L 640.443138 612.559725 
L 642.815044 612.559725 
L 644.000996 622.598047 
L 645.186949 616.913079 
L 646.372902 620.395762 
L 647.558854 636.426349 
L 648.744807 633.404609 
L 651.116712 633.404609 
L 652.302665 636.426349 
L 653.488618 643.186851 
L 654.67457 642.316181 
L 655.860523 657.68096 
L 657.046476 646.515887 
L 659.418381 646.515887 
L 660.604334 652.098423 
L 661.790286 656.246914 
L 662.976239 649.742491 
L 664.162192 639.652952 
L 665.348144 633.865552 
L 667.72005 633.865552 
L 668.906002 610.35744 
L 670.091955 621.778592 
L 671.277908 600.831277 
L 672.463861 600.523981 
L 673.649813 597.655889 
L 676.021719 597.655889 
L 677.207671 594.839013 
L 678.393624 601.087356 
L 679.579577 606.618677 
L 680.765529 620.395762 
L 681.951482 622.393184 
L 684.323387 622.393184 
L 685.50934 625.21006 
L 686.695293 620.754274 
L 687.881245 611.586622 
L 689.067198 596.273059 
L 690.253151 613.071884 
L 692.625056 613.071884 
L 694.996961 591.305114 
L 697.368867 581.010712 
L 698.554819 579.423018 
L 700.926725 579.423018 
L 703.29863 565.441069 
L 704.484583 585.876225 
L 705.670535 585.876225 
L 706.856488 580.600984 
L 709.228394 580.600984 
L 710.414346 585.978657 
L 711.600299 606.669893 
L 712.786252 596.375491 
L 713.972204 584.134883 
L 715.158157 567.489706 
L 717.530062 567.489706 
L 718.716015 562.112033 
L 719.901968 569.999286 
L 721.08792 572.047924 
L 722.273873 582.188678 
L 723.459826 584.032452 
L 725.831731 584.032452 
L 727.017684 580.959496 
L 729.389589 587.924862 
L 730.575542 587.156623 
L 731.761494 591.151466 
L 734.1334 591.151466 
L 735.319352 578.501131 
L 736.505305 569.999286 
L 737.691258 589.768636 
L 738.87721 589.614988 
L 740.063163 592.636728 
L 742.435068 592.636728 
L 743.621021 600.626413 
L 744.806974 584.442179 
L 745.992927 583.827588 
L 747.178879 591.509977 
L 748.364832 596.324275 
L 750.736737 596.324275 
L 753.108643 579.218154 
L 754.294595 589.205261 
L 755.480548 570.972389 
L 756.666501 582.444758 
L 759.038406 582.444758 
L 760.224359 592.841592 
L 761.410311 595.351172 
L 762.596264 610.10136 
L 763.782217 600.011822 
L 764.968169 596.938866 
L 767.340075 596.938866 
L 768.526027 595.50482 
L 770.897933 595.50482 
L 772.083885 598.885071 
L 773.269838 596.477923 
L 775.641743 596.477923 
L 776.827696 595.351172 
L 778.013649 595.351172 
L 779.199601 584.698259 
L 780.385554 590.178363 
L 781.571507 597.604673 
L 783.943412 597.604673 
L 785.129365 598.424128 
L 786.315318 600.984925 
L 787.50127 608.616098 
L 788.687223 612.252429 
L 789.873176 603.596937 
L 792.245081 603.596937 
L 794.616986 595.351172 
L 795.802939 595.556036 
L 796.988892 591.509977 
L 798.174844 588.590669 
L 800.54675 588.590669 
L 801.732702 589.819852 
L 802.918655 588.795533 
L 804.104608 583.827588 
L 805.29056 581.318007 
L 806.476513 596.734002 
L 808.848418 596.734002 
L 810.034371 598.219264 
L 811.220324 597.502241 
L 812.406276 613.174316 
L 813.592229 614.608362 
L 814.778182 606.157734 
L 817.150087 606.157734 
L 818.33604 599.294799 
L 819.521993 590.895386 
L 820.707945 579.986393 
L 821.893898 573.789265 
L 823.079851 566.106876 
L 825.451756 566.106876 
L 826.637709 556.375849 
L 827.823661 562.470545 
L 829.009614 549.410482 
L 830.195567 559.141509 
L 831.381519 561.190146 
L 833.753425 561.190146 
L 834.939377 559.909748 
L 836.12533 564.519182 
L 837.311283 563.187568 
L 838.497235 563.443647 
L 842.055093 563.494863 
L 843.241046 569.487127 
L 844.426999 581.676519 
L 845.612951 583.366644 
L 846.798904 579.935177 
L 847.984857 581.318007 
L 850.356762 581.318007 
L 851.542715 577.015869 
L 852.728667 573.891697 
L 853.91462 573.891697 
L 855.100573 554.890587 
L 856.286526 565.645932 
L 858.658431 565.645932 
L 859.844384 569.896855 
L 861.030336 571.894276 
L 862.216289 574.916016 
L 863.402242 575.12088 
L 864.588194 582.188678 
L 866.9601 582.188678 
L 869.332005 587.771214 
L 870.517958 597.297378 
L 871.70391 578.501131 
L 872.889863 577.579244 
L 875.261768 577.579244 
L 876.447721 577.425596 
L 877.633674 570.050502 
L 878.819626 565.492285 
L 880.005579 557.144088 
L 880.005579 562.163249 
L 883.563437 562.163249 
L 884.74939 555.197883 
L 885.935342 566.004444 
L 887.121295 564.826477 
L 888.307248 564.826477 
L 889.4932 566.209308 
L 891.865106 566.209308 
L 893.051059 575.684255 
L 894.237011 574.659936 
L 895.422964 577.681676 
L 896.608917 581.010712 
L 897.794869 586.644464 
L 900.166775 586.644464 
L 901.352727 585.978657 
L 902.53868 587.207839 
L 903.724633 575.735471 
L 904.910585 573.22589 
L 906.096538 569.794423 
L 909.654396 569.794423 
L 910.840349 564.109454 
L 912.026301 548.334948 
L 913.212254 549.82021 
L 914.398207 551.868847 
L 916.770112 551.868847 
L 917.956065 560.934067 
L 919.142017 566.772683 
L 920.32797 566.772683 
L 921.513923 559.807316 
L 925.071781 559.807316 
L 926.257733 561.599874 
L 927.443686 559.192725 
L 928.629639 554.839371 
L 929.815592 563.443647 
L 931.001544 559.397589 
L 934.559402 559.295157 
L 935.745355 552.432222 
L 936.931308 562.572977 
L 938.11726 547.92522 
L 940.489166 548.027652 
L 941.675118 548.027652 
L 942.861071 543.827946 
L 944.047024 544.084026 
L 945.232976 540.191615 
L 946.418929 553.507757 
L 947.604882 556.683145 
L 949.976787 556.683145 
L 951.16274 556.068553 
L 952.348692 547.464277 
L 953.534645 547.771573 
L 954.720598 550.332369 
L 955.90655 560.882851 
L 958.278456 560.882851 
L 959.464408 573.738049 
L 960.650361 579.474234 
L 961.836314 572.508867 
L 963.022267 577.988972 
L 964.208219 588.897965 
L 966.580125 588.897965 
L 967.766077 590.075931 
L 968.95203 594.787797 
L 970.137983 589.358908 
L 971.323935 589.819852 
L 972.509888 576.401278 
L 974.881793 576.401278 
L 976.067746 570.869957 
L 977.253699 570.511446 
L 978.439651 590.946602 
L 979.625604 590.946602 
L 980.811557 608.616098 
L 983.183462 608.616098 
L 984.369415 607.796643 
L 985.555367 599.397231 
L 986.74132 605.235847 
L 987.927273 609.845281 
L 989.113225 605.030983 
L 991.485131 605.030983 
L 992.671083 596.682786 
L 993.857036 596.529139 
L 995.042989 595.402388 
L 996.228941 591.766057 
L 997.414894 583.161781 
L 999.7868 583.161781 
L 1000.972752 572.047924 
L 1002.158705 572.457651 
L 1003.344658 583.059349 
L 1004.53061 581.522871 
L 1005.716563 583.212997 
L 1008.088468 583.212997 
L 1009.274421 582.649621 
L 1010.460374 573.891697 
L 1011.646326 579.26937 
L 1012.832279 583.264213 
L 1014.018232 582.54719 
L 1016.390137 582.54719 
L 1017.57609 575.99155 
L 1018.762042 564.109454 
L 1019.947995 565.645932 
L 1021.133948 560.677987 
L 1022.3199 552.637086 
L 1024.691806 552.637086 
L 1025.877758 550.588449 
L 1027.063711 550.025074 
L 1028.249664 531.792202 
L 1029.435616 533.379896 
L 1030.621569 537.98933 
L 1032.993474 537.98933 
L 1034.179427 551.151824 
L 1035.36538 545.261992 
L 1036.551333 548.283732 
L 1037.737285 544.442537 
L 1038.923238 539.423376 
L 1041.295143 539.423376 
L 1042.481096 539.269728 
L 1043.667049 530.255724 
L 1044.853001 510.230295 
L 1046.038954 510.230295 
L 1047.224907 514.430002 
L 1049.596812 514.430002 
L 1050.782765 503.725872 
L 1051.968717 513.866626 
L 1053.15467 507.362203 
L 1054.340623 505.620862 
L 1055.526575 507.464635 
L 1057.898481 507.464635 
L 1059.084433 508.796249 
L 1060.270386 496.555642 
L 1061.456339 494.609437 
L 1062.642291 487.90015 
L 1063.828244 482.676125 
L 1066.200149 482.676125 
L 1067.386102 479.449521 
L 1068.572055 503.418577 
L 1069.758007 507.720715 
L 1070.94396 508.488954 
L 1072.129913 508.745033 
L 1074.501818 508.745033 
L 1075.687771 510.640023 
L 1076.873724 508.02801 
L 1078.059676 506.081805 
L 1079.245629 518.47606 
L 1080.431582 518.680924 
L 1082.803487 518.680924 
L 1083.98944 503.521008 
L 1085.175392 508.130442 
L 1086.361345 510.947318 
L 1087.547298 508.28409 
L 1088.73325 474.276712 
L 1091.105156 474.276712 
L 1092.291108 481.703022 
L 1093.477061 480.781135 
L 1094.663014 468.694176 
L 1095.848966 465.518788 
L 1097.034919 473.406041 
L 1099.406824 473.406041 
L 1100.592777 465.877299 
L 1101.77873 465.62122 
L 1102.964682 491.229185 
L 1104.150635 500.6017 
L 1105.336588 499.116438 
L 1107.708493 499.116438 
L 1108.894446 503.87952 
L 1110.080399 505.057486 
L 1111.266351 513.047172 
L 1112.452304 517.195662 
L 1113.638257 526.773041 
L 1116.010162 526.773041 
L 1117.196115 527.080337 
L 1118.382067 528.002223 
L 1119.56802 543.162139 
L 1120.753973 550.076289 
L 1121.939925 560.114612 
L 1124.311831 560.114612 
L 1125.497783 554.941803 
L 1126.683736 551.612767 
L 1127.869689 552.893166 
L 1129.055641 552.688302 
L 1130.241594 548.744675 
L 1132.613499 548.744675 
L 1133.799452 545.210776 
L 1136.171357 566.926331 
L 1137.35731 570.767525 
L 1140.915168 570.767525 
L 1142.101121 560.063396 
L 1143.287073 550.383585 
L 1144.473026 550.127505 
L 1145.658979 543.827946 
L 1146.844932 535.889477 
L 1150.40279 535.889477 
L 1151.588742 529.641133 
L 1152.774695 524.058597 
L 1153.960648 532.406793 
L 1155.1466 536.555284 
L 1157.518506 536.555284 
L 1158.704458 535.582181 
L 1159.890411 535.274885 
L 1161.076364 538.091762 
L 1162.262316 532.150714 
L 1163.448269 522.778198 
L 1165.820174 522.778198 
L 1167.006127 522.624551 
L 1168.19208 516.734719 
L 1169.378032 511.715557 
L 1170.563985 509.871784 
L 1171.749938 522.214823 
L 1174.121843 522.214823 
L 1175.307796 539.679456 
L 1176.493748 542.701195 
L 1177.679701 546.849686 
L 1178.865654 550.229937 
L 1180.051606 539.781887 
L 1182.423512 539.781887 
L 1183.609465 539.423376 
L 1184.795417 542.035388 
L 1185.98137 549.973858 
L 1187.167323 563.853375 
L 1188.353275 559.909748 
L 1190.725181 559.909748 
L 1191.911133 565.031341 
L 1193.097086 560.370692 
L 1194.283039 561.446226 
L 1195.468991 559.909748 
L 1196.654944 555.658826 
L 1199.026849 555.658826 
L 1200.212802 550.895744 
L 1201.398755 562.214465 
L 1203.77066 562.214465 
L 1204.956613 574.455072 
L 1207.328518 574.455072 
L 1208.514471 577.015869 
L 1209.700423 575.837903 
L 1210.886376 575.837903 
L 1212.072329 564.928909 
L 1213.258281 582.956917 
L 1216.816139 582.956917 
L 1218.002092 569.538343 
L 1219.188045 562.982704 
L 1220.373998 561.907169 
L 1221.55995 570.665094 
L 1223.931856 570.665094 
L 1225.117808 574.8648 
L 1227.489714 577.476812 
L 1228.675666 573.123458 
L 1229.861619 561.65109 
L 1232.233524 561.65109 
L 1233.419477 561.292578 
L 1234.60543 565.492285 
L 1235.791382 560.063396 
L 1236.977335 551.510336 
L 1238.163288 538.706353 
L 1240.535193 538.706353 
L 1241.721146 532.611657 
L 1242.907098 531.228827 
L 1244.093051 531.997066 
L 1245.279004 524.673188 
L 1246.464956 531.587338 
L 1248.836862 531.587338 
L 1250.022814 536.247988 
L 1251.208767 542.342684 
L 1252.39472 541.420797 
L 1253.580672 527.336416 
L 1254.766625 524.826836 
L 1257.138531 524.826836 
L 1258.324483 522.522119 
L 1259.510436 524.109813 
L 1260.696389 519.295515 
L 1261.882341 519.602811 
L 1263.068294 514.942161 
L 1265.440199 514.942161 
L 1266.626152 501.677235 
L 1267.812105 496.145914 
L 1268.998057 492.816879 
L 1270.18401 492.714447 
L 1271.369963 485.083273 
L 1273.741868 485.083273 
L 1274.927821 492.663231 
L 1276.113773 495.275244 
L 1278.485679 511.56191 
L 1279.671631 523.444006 
L 1282.043537 523.444006 
L 1283.229489 534.660294 
L 1284.415442 548.386164 
L 1285.601395 551.305472 
L 1286.787347 564.007023 
L 1287.9733 581.010712 
L 1290.345205 581.010712 
L 1291.531158 572.867379 
L 1292.717111 566.311739 
L 1295.089016 521.190505 
L 1296.274969 512.791092 
L 1298.646874 512.791092 
L 1299.832827 449.846713 
L 1301.01878 435.045309 
L 1302.204732 349.412273 
L 1303.390685 350.487808 
L 1304.576638 337.478961 
L 1306.948543 337.478961 
L 1308.134496 349.412273 
L 1309.320448 359.706675 
L 1310.506401 371.588771 
L 1311.692354 415.685687 
L 1311.692354 425.621578 
L 1315.250212 425.621578 
L 1316.436164 398.323487 
L 1318.80807 375.225102 
L 1319.994022 350.692671 
L 1321.179975 357.811686 
L 1323.55188 357.811686 
L 1324.737833 385.468288 
L 1325.923786 381.16615 
L 1327.109738 384.085458 
L 1328.295691 393.201894 
L 1329.481644 388.080301 
L 1333.039502 388.080301 
L 1334.225455 395.609043 
L 1335.411407 389.872858 
L 1336.59736 376.812796 
L 1337.783313 395.301747 
L 1340.155218 395.301747 
L 1341.341171 382.292901 
L 1342.527123 384.495186 
L 1343.713076 366.211098 
L 1344.899029 363.701518 
L 1346.084981 386.543823 
L 1348.456887 386.543823 
L 1349.642839 379.168729 
L 1350.828792 380.858854 
L 1353.200697 389.104619 
L 1356.758555 389.104619 
L 1357.944508 374.712943 
L 1359.130461 369.847429 
L 1360.316413 362.677199 
L 1361.502366 367.645144 
L 1362.688319 364.520973 
L 1365.060224 364.520973 
L 1366.246177 366.108666 
L 1367.43213 365.289212 
L 1368.618082 357.197095 
L 1369.804035 364.060029 
L 1370.989988 359.501811 
L 1373.361893 359.501811 
L 1374.547846 389.155835 
L 1375.733798 390.487449 
L 1376.919751 404.469399 
L 1378.105704 396.428497 
L 1379.291656 400.269692 
L 1381.663562 400.269692 
L 1382.849514 428.079943 
L 1384.035467 447.593212 
L 1385.22142 460.909354 
L 1386.407372 471.818347 
L 1387.593325 489.795139 
L 1389.96523 489.795139 
L 1391.151183 509.103545 
L 1392.337136 518.424844 
L 1393.523088 495.275244 
L 1394.709041 513.508115 
L 1395.894994 514.532434 
L 1398.266899 514.532434 
L 1399.452852 501.421155 
L 1400.638804 515.403104 
L 1401.824757 509.308409 
L 1403.01071 509.308409 
L 1404.196663 503.469793 
L 1406.568568 503.469793 
L 1407.754521 521.651448 
L 1408.940473 497.375097 
L 1410.126426 494.455789 
L 1411.312379 486.670967 
L 1412.498331 490.460946 
L 1414.870237 490.460946 
L 1416.056189 508.693817 
L 1417.242142 504.391679 
L 1418.428095 492.714447 
L 1419.614047 488.924468 
L 1420.8 491.024321 
L 1423.171905 491.024321 
L 1424.357858 483.341932 
L 1425.543811 494.353357 
L 1426.729763 497.579961 
L 1427.915716 485.493001 
L 1429.101669 494.507005 
L 1431.473574 494.507005 
L 1432.659527 489.334196 
L 1433.845479 490.512162 
L 1435.031432 499.73103 
L 1436.217385 491.536481 
L 1437.403337 495.736187 
L 1439.775243 495.736187 
L 1440.961196 495.428891 
L 1442.147148 518.629708 
L 1443.333101 503.008849 
L 1444.519054 511.152182 
L 1445.705006 524.77562 
L 1448.076912 524.77562 
L 1449.262864 534.250567 
L 1450.448817 548.488596 
L 1451.63477 572.764947 
L 1452.820722 574.352641 
L 1454.006675 594.12199 
L 1456.37858 594.12199 
L 1457.564533 599.806958 
L 1458.750486 595.812116 
L 1459.936438 598.936287 
L 1461.122391 618.551989 
L 1462.308344 601.497084 
L 1464.680249 601.497084 
L 1465.866202 608.411235 
L 1467.052154 619.729955 
L 1468.238107 614.76201 
L 1469.42406 611.586622 
L 1470.610012 606.925973 
L 1472.981918 606.925973 
L 1474.16787 607.07962 
L 1475.353823 598.475344 
L 1476.539776 618.039829 
L 1477.725729 615.427817 
L 1478.911681 623.161423 
L 1481.283587 623.161423 
L 1482.469539 632.431506 
L 1483.655492 640.779703 
L 1484.841445 618.654421 
L 1486.027397 618.654421 
L 1487.21335 613.071884 
L 1489.585255 613.071884 
L 1490.771208 619.678739 
L 1491.957161 613.276748 
L 1493.143113 612.406077 
L 1494.329066 627.924504 
L 1495.515019 630.946244 
L 1497.886924 630.946244 
L 1499.072877 642.060101 
L 1500.258829 617.271591 
L 1501.444782 609.794065 
L 1502.630735 599.755742 
L 1503.816687 592.944023 
L 1506.188593 592.944023 
L 1507.374545 593.661046 
L 1508.560498 582.444758 
L 1509.746451 595.812116 
L 1510.932403 599.704526 
L 1512.118356 600.319117 
L 1514.490262 600.319117 
L 1515.676214 604.262744 
L 1516.862167 600.114254 
L 1518.04812 590.536875 
L 1519.234072 597.092514 
L 1520.420025 577.732892 
L 1522.79193 577.732892 
L 1523.977883 557.451383 
L 1525.163836 555.402746 
L 1526.349788 533.175032 
L 1527.535741 523.802517 
L 1528.721694 520.37105 
L 1531.093599 520.37105 
L 1532.279552 512.94474 
L 1533.465504 542.13782 
L 1535.83741 557.092872 
L 1537.023362 562.931488 
L 1539.395268 562.931488 
L 1540.58122 566.619035 
L 1541.767173 569.384695 
L 1542.953126 566.875115 
L 1544.139078 580.293689 
L 1545.325031 579.576666 
L 1547.696936 579.576666 
L 1548.882889 579.320586 
L 1550.068842 560.421907 
L 1551.254795 529.538701 
L 1552.440747 525.851154 
L 1553.6267 536.862579 
L 1555.998605 536.862579 
L 1557.184558 528.411951 
L 1558.370511 539.679456 
L 1559.556463 538.245409 
L 1560.742416 541.779309 
L 1561.928369 536.965011 
L 1564.300274 536.965011 
L 1565.486227 531.792202 
L 1566.672179 508.591386 
L 1567.858132 498.757927 
L 1569.044085 495.787403 
L 1570.230037 496.094699 
L 1572.601943 496.094699 
L 1573.787895 521.088073 
L 1574.973848 524.826836 
L 1576.159801 557.758679 
L 1577.345753 565.902012 
L 1578.531706 586.746896 
L 1580.903611 586.746896 
L 1582.089564 567.233626 
L 1583.275517 576.093982 
L 1584.461469 576.093982 
L 1585.647422 575.069664 
L 1586.833375 587.002975 
L 1589.20528 587.002975 
L 1590.391233 582.137462 
L 1591.577186 595.24874 
L 1592.763138 582.393542 
L 1593.949091 592.380648 
L 1593.949091 592.380648 
" style="fill:none;stroke:#1f77b4;stroke-linecap:square;stroke-width:1.5;"/>
   </g>
   <g id="line2d_19">
    <path clip-path="url(#p8cbaba8e2f)" d="M 295.330909 355.814264 
L 296.516862 361.601665 
L 297.702814 365.442859 
L 298.888767 365.033132 
L 300.07472 366.56961 
L 302.446625 366.56961 
L 303.632578 367.184201 
L 304.818531 371.435123 
L 306.004483 368.157304 
L 307.190436 366.979337 
L 308.376389 366.774474 
L 310.748294 366.774474 
L 311.934247 369.744998 
L 313.120199 363.086927 
L 314.306152 365.084348 
L 315.492105 369.642566 
L 316.678057 369.027974 
L 319.049963 369.027974 
L 320.235915 367.030553 
L 321.421868 363.035711 
L 322.607821 359.911539 
L 323.793773 359.860323 
L 324.979726 364.111245 
L 327.351631 364.111245 
L 328.537584 370.410805 
L 329.723537 372.254578 
L 330.909489 370.052293 
L 332.095442 374.303215 
L 333.281395 375.63483 
L 338.025205 375.63483 
L 339.211158 380.449127 
L 340.397111 385.878016 
L 341.583064 386.287743 
L 345.140922 386.287743 
L 346.326874 387.721789 
L 347.512827 395.813906 
L 348.69878 394.328644 
L 349.884732 389.053403 
L 352.256638 389.053403 
L 353.44259 382.292901 
L 354.628543 382.036821 
L 355.814496 383.368435 
L 357.000448 387.926653 
L 358.186401 386.543823 
L 360.558306 386.543823 
L 361.744259 379.936968 
L 362.930212 384.341538 
L 364.116164 388.233948 
L 365.302117 383.778163 
L 366.48807 386.543823 
L 368.859975 386.543823 
L 370.045928 385.724368 
L 371.23188 389.565563 
L 372.417833 396.940657 
L 373.603786 397.760112 
L 374.789738 400.525772 
L 377.161644 400.525772 
L 378.347597 398.579566 
L 379.533549 397.196736 
L 380.719502 396.377281 
L 381.905455 390.692313 
L 383.091407 392.228791 
L 385.463313 392.228791 
L 386.649265 394.174996 
L 387.835218 391.819064 
L 389.021171 384.648833 
L 390.207123 369.744998 
L 391.393076 378.861433 
L 393.764981 378.861433 
L 394.950934 383.061139 
L 396.136887 385.519504 
L 397.322839 395.045667 
L 398.508792 393.560405 
L 399.694745 398.272271 
L 402.06665 398.272271 
L 403.252603 398.016191 
L 404.438555 393.406757 
L 405.624508 380.653991 
L 406.810461 384.392754 
L 407.996413 385.468288 
L 410.368319 385.468288 
L 411.554271 386.338959 
L 413.926177 378.451706 
L 415.11213 371.691203 
L 416.298082 376.351853 
L 418.669988 376.351853 
L 419.85594 376.556716 
L 421.041893 374.969022 
L 422.227846 369.744998 
L 423.413798 371.537555 
L 424.599751 373.944704 
L 426.971656 373.944704 
L 428.157609 366.006235 
L 429.343562 365.135564 
L 430.529514 362.369904 
L 431.715467 362.677199 
L 432.90142 361.960176 
L 435.273325 361.960176 
L 436.459278 358.579925 
L 437.64523 349.668353 
L 438.831183 357.606822 
L 440.017136 355.86548 
L 440.017136 354.789946 
L 443.574994 354.789946 
L 444.760946 362.574767 
L 445.946899 366.006235 
L 447.132852 366.211098 
L 448.318804 366.620826 
L 449.504757 366.159882 
L 453.062615 366.159882 
L 454.248568 367.645144 
L 455.434521 367.389065 
L 456.620473 371.793635 
L 457.806426 372.664306 
L 460.178331 372.664306 
L 461.364284 371.486339 
L 462.550237 375.532398 
L 463.736189 377.01766 
L 464.922142 382.80506 
L 466.108095 390.026506 
L 468.48 390.026506 
L 469.665953 392.382439 
L 470.851905 387.516925 
L 472.037858 388.131517 
L 473.223811 385.109777 
L 474.409763 381.114934 
L 476.781669 381.114934 
L 479.153574 362.830847 
L 480.339527 350.897535 
L 481.525479 357.709254 
L 482.711432 360.52613 
L 485.083337 360.52613 
L 486.26929 336.403427 
L 487.455243 336.403427 
L 488.641196 331.486697 
L 489.827148 331.486697 
L 491.013101 344.700407 
L 493.385006 344.700407 
L 494.570959 337.069234 
L 495.756912 330.513595 
L 496.942864 346.749045 
L 498.128817 341.832315 
L 499.31477 339.476382 
L 501.686675 339.476382 
L 502.872628 328.823469 
L 504.05858 325.238354 
L 505.244533 326.518752 
L 506.430486 321.909318 
L 507.616438 320.219193 
L 509.988344 320.219193 
L 511.174296 329.386844 
L 512.360249 317.86326 
L 513.546202 322.165398 
L 514.732154 318.631499 
L 515.918107 318.170555 
L 518.290012 318.170555 
L 519.475965 316.890157 
L 520.661918 309.771143 
L 521.84787 312.280723 
L 523.033823 312.280723 
L 524.219776 323.292148 
L 526.591681 323.292148 
L 527.777634 329.796572 
L 528.963587 328.516173 
L 530.149539 338.50328 
L 531.335492 324.265251 
L 532.521445 334.252358 
L 534.89335 334.252358 
L 536.079303 331.230618 
L 537.265255 328.977117 
L 538.451208 332.20372 
L 539.637161 329.899003 
L 540.823113 325.545649 
L 543.195019 325.545649 
L 544.380971 313.970849 
L 545.566924 311.000325 
L 546.752877 303.215504 
L 547.938829 312.127076 
L 549.124782 307.363994 
L 551.496687 307.363994 
L 552.68264 300.705923 
L 553.868593 297.735399 
L 555.054545 290.770032 
L 556.240498 288.209236 
L 557.426451 273.715127 
L 559.798356 273.715127 
L 560.984309 269.669069 
L 562.170262 270.130012 
L 563.356214 277.095379 
L 565.72812 300.296196 
L 568.100025 300.296196 
L 569.285978 301.525378 
L 570.47193 303.266719 
L 571.657883 306.339675 
L 572.843836 304.291038 
L 574.029788 315.865838 
L 576.401694 315.865838 
L 577.587646 319.860681 
L 578.773599 317.914476 
L 581.145504 305.673868 
L 582.331457 306.339675 
L 584.703362 306.339675 
L 585.889315 306.646971 
L 587.075268 317.965692 
L 588.26122 323.497012 
L 589.447173 322.575125 
L 590.633126 328.157662 
L 593.005031 328.157662 
L 594.190984 331.07697 
L 595.376936 332.152504 
L 596.562889 332.818311 
L 597.748842 332.152504 
L 598.934795 336.557074 
L 601.3067 336.557074 
L 602.492653 342.600554 
L 603.678605 339.271519 
L 604.864558 334.354789 
L 606.050511 322.728773 
L 607.236463 314.943952 
L 609.608369 314.943952 
L 610.794321 319.707033 
L 611.980274 314.380576 
L 613.166227 314.380576 
L 614.352179 316.634077 
L 615.538132 319.911897 
L 617.910037 319.911897 
L 619.09599 314.58544 
L 620.281943 322.984853 
L 622.653848 329.950219 
L 623.839801 332.664664 
L 626.211706 332.664664 
L 627.397659 333.484119 
L 628.583611 326.365104 
L 629.769564 324.009171 
L 630.955517 322.165398 
L 634.513375 322.114182 
L 636.88528 310.385734 
L 638.071233 308.593176 
L 639.257186 315.712191 
L 640.443138 312.690451 
L 642.815044 312.690451 
L 644.000996 315.814623 
L 646.372902 313.305042 
L 647.558854 314.995168 
L 648.744807 321.397159 
L 651.116712 321.397159 
L 652.302665 318.221771 
L 653.488618 323.39458 
L 654.67457 324.265251 
L 655.860523 323.39458 
L 657.046476 315.046384 
L 659.418381 315.046384 
L 660.604334 322.882421 
L 661.790286 326.6724 
L 662.976239 329.284412 
L 664.162192 334.406005 
L 665.348144 330.257515 
L 667.72005 330.257515 
L 668.906002 321.038647 
L 670.091955 322.370262 
L 671.277908 315.148815 
L 672.463861 313.765985 
L 673.649813 314.022065 
L 676.021719 314.022065 
L 677.207671 310.027222 
L 678.393624 315.558543 
L 679.579577 310.590598 
L 680.765529 318.631499 
L 681.951482 323.497012 
L 684.323387 323.497012 
L 685.50934 323.90674 
L 686.695293 323.036069 
L 687.881245 321.499591 
L 689.067198 317.248669 
L 690.253151 323.753092 
L 692.625056 323.753092 
L 693.811009 320.577704 
L 694.996961 317.914476 
L 696.182914 313.45869 
L 697.368867 313.356258 
L 698.554819 311.358837 
L 700.926725 311.358837 
L 702.112677 306.544539 
L 703.29863 303.727663 
L 704.484583 307.261562 
L 705.670535 307.261562 
L 706.856488 312.383155 
L 709.228394 312.383155 
L 710.414346 313.868417 
L 711.600299 321.192295 
L 712.786252 322.26783 
L 713.972204 324.828626 
L 715.158157 321.704455 
L 717.530062 321.704455 
L 718.716015 320.065545 
L 719.901968 322.114182 
L 721.08792 321.294727 
L 722.273873 322.319046 
L 723.459826 307.363994 
L 725.831731 307.363994 
L 727.017684 303.676447 
L 728.203636 316.173134 
L 729.389589 316.48043 
L 731.761494 325.750513 
L 734.1334 325.750513 
L 735.319352 323.90674 
L 736.505305 320.065545 
L 737.691258 324.879842 
L 738.87721 324.674979 
L 740.063163 329.079549 
L 742.435068 329.079549 
L 743.621021 329.489276 
L 744.806974 325.084706 
L 745.992927 323.90674 
L 747.178879 327.696718 
L 748.364832 324.316467 
L 750.736737 324.316467 
L 751.92269 320.680136 
L 753.108643 320.116761 
L 754.294595 322.984853 
L 755.480548 318.682715 
L 756.666501 324.572547 
L 759.038406 324.572547 
L 760.224359 327.286991 
L 761.410311 327.645503 
L 762.596264 327.491855 
L 763.782217 325.443217 
L 764.968169 328.362526 
L 767.340075 328.362526 
L 768.526027 326.928479 
L 770.897933 326.928479 
L 772.083885 321.345943 
L 773.269838 319.758249 
L 775.641743 319.758249 
L 776.827696 318.938794 
L 778.013649 318.938794 
L 779.199601 318.221771 
L 780.385554 318.836362 
L 781.571507 320.321624 
L 783.943412 320.321624 
L 785.129365 319.092442 
L 786.315318 320.321624 
L 787.50127 316.941373 
L 788.687223 321.960534 
L 789.873176 323.036069 
L 792.245081 323.036069 
L 793.431034 323.753092 
L 794.616986 323.39458 
L 795.802939 326.160241 
L 796.988892 321.602023 
L 798.174844 323.445796 
L 800.54675 323.445796 
L 801.732702 326.826048 
L 802.918655 326.569968 
L 804.104608 322.728773 
L 805.29056 323.087285 
L 806.476513 325.648081 
L 808.848418 325.648081 
L 810.034371 321.089863 
L 811.220324 322.216614 
L 812.406276 329.899003 
L 813.592229 334.815733 
L 814.778182 329.335628 
L 817.150087 329.335628 
L 818.33604 326.467536 
L 819.521993 323.036069 
L 820.707945 318.785146 
L 821.893898 315.558543 
L 823.079851 310.949109 
L 825.451756 310.949109 
L 826.637709 306.03238 
L 827.823661 303.778879 
L 829.009614 299.579172 
L 830.195567 307.312778 
L 831.381519 303.522799 
L 833.753425 303.522799 
L 834.939377 304.239822 
L 836.12533 300.757139 
L 837.311283 303.266719 
L 838.497235 299.937684 
L 839.683188 299.169445 
L 842.055093 299.169445 
L 843.241046 302.447265 
L 844.426999 310.897893 
L 845.612951 313.612337 
L 846.798904 315.712191 
L 847.984857 320.577704 
L 850.356762 320.577704 
L 851.542715 318.836362 
L 852.728667 320.167977 
L 853.91462 318.785146 
L 855.100573 316.275566 
L 856.286526 320.62892 
L 858.658431 320.62892 
L 859.844384 320.987432 
L 861.030336 319.450954 
L 862.216289 318.99001 
L 863.402242 317.86326 
L 864.588194 320.116761 
L 866.9601 320.116761 
L 868.146052 322.831205 
L 869.332005 326.723616 
L 870.517958 326.41632 
L 871.70391 325.187138 
L 872.889863 320.885 
L 875.261768 320.885 
L 876.447721 321.294727 
L 877.633674 320.219193 
L 878.819626 319.860681 
L 880.005579 319.092442 
L 880.005579 317.965692 
L 883.563437 317.965692 
L 884.74939 319.553385 
L 885.935342 322.779989 
L 887.121295 323.804308 
L 888.307248 323.804308 
L 889.4932 325.03349 
L 891.865106 325.03349 
L 893.051059 326.365104 
L 894.237011 327.338207 
L 895.422964 328.925901 
L 896.608917 327.594287 
L 897.794869 331.537913 
L 900.166775 331.537913 
L 901.352727 333.228039 
L 902.53868 332.562232 
L 903.724633 330.513595 
L 904.910585 329.899003 
L 906.096538 325.596865 
L 909.654396 325.596865 
L 910.840349 325.135922 
L 912.026301 321.858102 
L 913.212254 324.572547 
L 914.398207 322.319046 
L 916.770112 322.319046 
L 917.956065 324.316467 
L 919.142017 330.257515 
L 920.32797 330.257515 
L 921.513923 327.594287 
L 925.071781 327.594287 
L 926.257733 327.030911 
L 927.443686 324.162819 
L 928.629639 320.936216 
L 929.815592 322.062966 
L 931.001544 318.272987 
L 933.37345 318.272987 
L 934.559402 315.404895 
L 935.745355 313.20261 
L 936.931308 323.39458 
L 938.11726 316.070702 
L 939.303213 320.014329 
L 941.675118 320.014329 
L 942.861071 316.941373 
L 944.047024 314.739088 
L 945.232976 314.278145 
L 946.418929 320.321624 
L 947.604882 322.216614 
L 949.976787 322.216614 
L 951.16274 321.448375 
L 952.348692 319.399738 
L 953.534645 323.90674 
L 954.720598 324.060387 
L 955.90655 329.540492 
L 958.278456 329.540492 
L 959.464408 330.616026 
L 960.650361 330.923322 
L 961.836314 330.872106 
L 963.022267 331.947641 
L 964.208219 338.195984 
L 966.580125 338.195984 
L 967.766077 336.403427 
L 968.95203 337.683825 
L 970.137983 339.732462 
L 971.323935 342.600554 
L 972.509888 340.295837 
L 974.881793 340.295837 
L 976.067746 338.656928 
L 977.253699 336.505859 
L 978.439651 339.117871 
L 979.625604 339.117871 
L 980.811557 343.420009 
L 983.183462 343.420009 
L 984.369415 342.600554 
L 985.555367 338.093552 
L 986.74132 342.242043 
L 987.927273 344.341896 
L 989.113225 350.180512 
L 991.485131 350.180512 
L 992.671083 347.5685 
L 995.042989 349.104977 
L 996.228941 348.183091 
L 997.414894 344.393112 
L 999.7868 344.393112 
L 1000.972752 338.349632 
L 1002.158705 333.637766 
L 1003.344658 336.044915 
L 1004.53061 336.710722 
L 1005.716563 336.505859 
L 1008.088468 336.505859 
L 1009.274421 341.166508 
L 1010.460374 337.99112 
L 1011.646326 338.452064 
L 1012.832279 340.654349 
L 1014.018232 346.390533 
L 1016.390137 346.390533 
L 1017.57609 345.775942 
L 1018.762042 341.217724 
L 1019.947995 344.649191 
L 1022.3199 331.384265 
L 1024.691806 331.384265 
L 1025.877758 324.572547 
L 1027.063711 324.316467 
L 1028.249664 323.292148 
L 1029.435616 315.404895 
L 1030.621569 310.43695 
L 1032.993474 310.43695 
L 1034.179427 314.84152 
L 1035.36538 309.822359 
L 1036.551333 308.490744 
L 1037.737285 308.234665 
L 1038.923238 306.339675 
L 1041.295143 306.339675 
L 1042.481096 303.01064 
L 1043.667049 296.045273 
L 1044.853001 291.947999 
L 1046.038954 291.947999 
L 1047.224907 293.177181 
L 1049.596812 293.177181 
L 1050.782765 286.160599 
L 1051.968717 293.484477 
L 1053.15467 285.955735 
L 1054.340623 290.462737 
L 1055.526575 282.933995 
L 1057.898481 282.933995 
L 1059.084433 284.726553 
L 1060.270386 275.866197 
L 1061.456339 276.480788 
L 1062.642291 276.532004 
L 1063.828244 284.368041 
L 1066.200149 284.368041 
L 1067.386102 285.597223 
L 1068.572055 300.040116 
L 1069.758007 298.810934 
L 1072.129913 300.654707 
L 1074.501818 300.654707 
L 1075.687771 301.832673 
L 1076.873724 301.474162 
L 1078.059676 299.271877 
L 1079.245629 299.476741 
L 1080.431582 306.339675 
L 1082.803487 306.339675 
L 1083.98944 298.759718 
L 1085.175392 298.298774 
L 1086.361345 297.991479 
L 1087.547298 297.325672 
L 1088.73325 274.124855 
L 1091.105156 274.124855 
L 1092.291108 278.990368 
L 1093.477061 276.532004 
L 1094.663014 275.661333 
L 1095.848966 275.405253 
L 1097.034919 282.063324 
L 1100.592777 282.165756 
L 1101.77873 279.400096 
L 1102.964682 295.430682 
L 1104.150635 303.830095 
L 1105.336588 304.188606 
L 1107.708493 304.188606 
L 1108.894446 303.881311 
L 1110.080399 306.595755 
L 1111.266351 308.644392 
L 1113.638257 321.345943 
L 1116.010162 321.345943 
L 1117.196115 322.370262 
L 1118.382067 321.294727 
L 1119.56802 327.491855 
L 1120.753973 327.747934 
L 1121.939925 331.281834 
L 1124.311831 331.281834 
L 1125.497783 330.411163 
L 1126.683736 331.128186 
L 1127.869689 330.001435 
L 1129.055641 331.947641 
L 1130.241594 333.484119 
L 1132.613499 333.484119 
L 1133.799452 332.20372 
L 1134.985405 337.427745 
L 1136.171357 339.373951 
L 1137.35731 343.368793 
L 1140.915168 343.368793 
L 1142.101121 338.656928 
L 1143.287073 335.276676 
L 1144.473026 337.530177 
L 1145.658979 338.298416 
L 1146.844932 330.616026 
L 1150.40279 330.616026 
L 1152.774695 324.060387 
L 1153.960648 329.642924 
L 1155.1466 325.699297 
L 1157.518506 325.699297 
L 1158.704458 323.445796 
L 1159.890411 324.009171 
L 1161.076364 322.421478 
L 1162.262316 321.038647 
L 1163.448269 320.270408 
L 1165.820174 320.270408 
L 1167.006127 319.809465 
L 1168.19208 314.278145 
L 1169.378032 307.978585 
L 1170.563985 307.67129 
L 1171.749938 319.348522 
L 1174.121843 319.348522 
L 1176.493748 330.411163 
L 1177.679701 331.179402 
L 1178.865654 334.047494 
L 1180.051606 328.464957 
L 1182.423512 328.464957 
L 1183.609465 325.904161 
L 1184.795417 327.389423 
L 1185.98137 327.645503 
L 1187.167323 332.71588 
L 1188.353275 337.222882 
L 1190.725181 337.222882 
L 1191.911133 339.988542 
L 1193.097086 337.99112 
L 1194.283039 338.605712 
L 1195.468991 340.039758 
L 1196.654944 342.600554 
L 1199.026849 342.600554 
L 1200.212802 339.015439 
L 1203.77066 339.015439 
L 1204.956613 340.859213 
L 1207.328518 340.859213 
L 1208.514471 341.01286 
L 1209.700423 341.729883 
L 1212.072329 341.832315 
L 1213.258281 353.202252 
L 1216.816139 353.202252 
L 1218.002092 347.158772 
L 1219.188045 347.466068 
L 1220.373998 347.05634 
L 1221.55995 352.894956 
L 1223.931856 352.894956 
L 1225.117808 354.431434 
L 1226.303761 356.684935 
L 1227.489714 353.151036 
L 1228.675666 353.3559 
L 1229.861619 348.080659 
L 1232.233524 348.080659 
L 1233.419477 347.466068 
L 1234.60543 352.024286 
L 1235.791382 347.261204 
L 1236.977335 347.363636 
L 1238.163288 336.198563 
L 1240.535193 336.198563 
L 1241.721146 330.308731 
L 1242.907098 331.742777 
L 1244.093051 329.335628 
L 1245.279004 319.24609 
L 1246.464956 318.016908 
L 1248.836862 318.016908 
L 1250.022814 326.569968 
L 1251.208767 339.220303 
L 1252.39472 343.573657 
L 1253.580672 336.966802 
L 1254.766625 335.174244 
L 1257.138531 335.174244 
L 1258.324483 339.783678 
L 1259.510436 340.295837 
L 1260.696389 342.446906 
L 1261.882341 350.385376 
L 1263.068294 345.263783 
L 1265.440199 345.263783 
L 1266.626152 334.406005 
L 1267.812105 333.484119 
L 1268.998057 330.564811 
L 1270.18401 328.413741 
L 1271.369963 318.887578 
L 1273.741868 318.887578 
L 1274.927821 319.963113 
L 1276.113773 314.995168 
L 1277.299726 314.636656 
L 1278.485679 301.576594 
L 1279.671631 307.620074 
L 1282.043537 307.620074 
L 1283.229489 310.897893 
L 1284.415442 320.116761 
L 1285.601395 320.065545 
L 1286.787347 310.641814 
L 1289.159253 310.744245 
L 1290.345205 310.744245 
L 1291.531158 309.515063 
L 1292.717111 311.205189 
L 1293.903064 296.659864 
L 1295.089016 288.106804 
L 1296.274969 273.100536 
L 1298.646874 273.100536 
L 1299.832827 223.165004 
L 1301.01878 227.262278 
L 1302.204732 170.361379 
L 1303.390685 193.818276 
L 1304.576638 188.082091 
L 1306.948543 188.082091 
L 1308.134496 163.856956 
L 1309.320448 177.429178 
L 1310.506401 168.056662 
L 1311.692354 204.727269 
L 1311.692354 197.096095 
L 1315.250212 197.096095 
L 1316.436164 190.540456 
L 1317.622117 181.782532 
L 1318.80807 177.941337 
L 1319.994022 176.763371 
L 1321.179975 185.982238 
L 1323.55188 185.982238 
L 1324.737833 199.81054 
L 1325.923786 198.786221 
L 1327.109738 198.376493 
L 1328.295691 192.537877 
L 1329.481644 191.103831 
L 1333.039502 191.103831 
L 1334.225455 197.403391 
L 1335.411407 200.629994 
L 1336.59736 198.530141 
L 1337.783313 208.3636 
L 1340.155218 208.3636 
L 1341.341171 203.190791 
L 1342.527123 200.476347 
L 1343.713076 194.586515 
L 1344.899029 200.425131 
L 1346.084981 205.034564 
L 1348.456887 205.034564 
L 1349.642839 196.891231 
L 1350.828792 195.201106 
L 1352.014745 195.610833 
L 1353.200697 187.518716 
L 1356.758555 187.518716 
L 1357.944508 192.947605 
L 1359.130461 197.352175 
L 1360.316413 191.462343 
L 1361.502366 187.774796 
L 1362.688319 188.030875 
L 1365.060224 188.030875 
L 1366.246177 189.208842 
L 1367.43213 183.472658 
L 1368.618082 181.833748 
L 1369.804035 189.055194 
L 1370.989988 184.343328 
L 1373.361893 184.343328 
L 1374.547846 186.08467 
L 1375.733798 189.669785 
L 1376.919751 198.632573 
L 1379.291656 211.64142 
L 1381.663562 211.64142 
L 1382.849514 227.569574 
L 1384.035467 249.182697 
L 1385.22142 255.021313 
L 1386.407372 242.780705 
L 1387.593325 258.1967 
L 1389.96523 258.1967 
L 1391.151183 273.56148 
L 1392.337136 275.763765 
L 1393.523088 250.770391 
L 1394.709041 245.853661 
L 1395.894994 253.638483 
L 1398.266899 253.638483 
L 1399.452852 246.212173 
L 1400.638804 240.680852 
L 1401.824757 242.627058 
L 1403.01071 242.627058 
L 1404.196663 247.902298 
L 1406.568568 247.902298 
L 1407.754521 254.30429 
L 1408.940473 242.780705 
L 1410.126426 241.193012 
L 1411.312379 239.19559 
L 1412.498331 241.705171 
L 1414.870237 241.705171 
L 1416.056189 248.772969 
L 1417.242142 241.295443 
L 1418.428095 243.190433 
L 1419.614047 236.993305 
L 1420.8 236.225066 
L 1423.171905 236.225066 
L 1424.357858 234.739804 
L 1425.543811 244.726911 
L 1426.729763 234.79102 
L 1427.915716 234.176429 
L 1429.101669 232.844815 
L 1431.473574 232.844815 
L 1432.659527 232.179008 
L 1433.845479 230.693746 
L 1435.031432 230.744962 
L 1436.217385 230.38645 
L 1439.775243 230.38645 
L 1440.961196 221.628526 
L 1442.147148 230.744962 
L 1443.333101 221.782174 
L 1444.519054 226.186744 
L 1445.705006 233.561838 
L 1448.076912 233.561838 
L 1449.262864 247.185275 
L 1450.448817 248.00473 
L 1451.63477 263.010998 
L 1452.820722 262.550055 
L 1454.006675 267.364352 
L 1456.37858 267.364352 
L 1457.564533 269.208126 
L 1458.750486 258.606428 
L 1459.936438 263.932885 
L 1461.122391 264.854771 
L 1462.308344 259.938042 
L 1464.680249 259.938042 
L 1465.866202 265.469363 
L 1467.052154 269.617853 
L 1468.238107 263.369509 
L 1469.42406 261.423304 
L 1470.610012 267.364352 
L 1472.981918 267.364352 
L 1474.16787 267.722864 
L 1475.353823 262.242759 
L 1476.539776 267.978943 
L 1477.725729 269.15691 
L 1478.911681 274.073639 
L 1481.283587 274.073639 
L 1482.469539 270.949467 
L 1483.655492 275.507685 
L 1484.841445 269.003262 
L 1486.027397 273.56148 
L 1487.21335 265.264499 
L 1489.585255 265.264499 
L 1490.771208 272.895673 
L 1491.957161 266.903409 
L 1493.143113 262.191543 
L 1495.515019 270.130012 
L 1497.886924 270.130012 
L 1499.072877 271.307979 
L 1500.258829 263.574373 
L 1501.444782 259.272235 
L 1502.630735 242.524626 
L 1503.816687 239.349238 
L 1506.188593 239.349238 
L 1507.374545 244.931774 
L 1508.560498 240.373557 
L 1509.746451 242.729489 
L 1510.932403 242.729489 
L 1512.118356 243.446512 
L 1515.676214 243.344081 
L 1516.862167 241.500307 
L 1518.04812 242.21733 
L 1519.234072 239.144374 
L 1520.420025 227.569574 
L 1522.79193 227.569574 
L 1523.977883 214.509512 
L 1525.163836 220.092048 
L 1526.349788 203.395655 
L 1527.535741 192.896389 
L 1528.721694 191.87207 
L 1531.093599 191.87207 
L 1532.279552 174.612302 
L 1533.465504 203.600518 
L 1534.651457 209.49035 
L 1535.83741 220.399344 
L 1537.023362 220.19448 
L 1539.395268 220.19448 
L 1540.58122 219.323809 
L 1541.767173 225.930664 
L 1542.953126 222.447981 
L 1544.139078 230.38645 
L 1545.325031 227.672006 
L 1547.696936 227.672006 
L 1548.882889 230.796178 
L 1550.068842 219.221377 
L 1551.254795 189.413706 
L 1552.440747 185.521295 
L 1553.6267 191.820854 
L 1555.998605 191.820854 
L 1557.184558 173.024608 
L 1558.370511 172.819744 
L 1559.556463 172.410017 
L 1560.742416 177.787689 
L 1563.114321 177.685257 
L 1564.300274 177.685257 
L 1565.486227 171.74421 
L 1566.672179 156.430646 
L 1567.858132 149.2092 
L 1570.230037 163.652092 
L 1572.601943 163.652092 
L 1573.787895 181.526452 
L 1574.973848 190.079513 
L 1576.159801 205.393076 
L 1577.345753 203.139575 
L 1578.531706 223.984459 
L 1580.903611 223.984459 
L 1582.089564 214.099784 
L 1583.275517 224.086891 
L 1584.461469 224.086891 
L 1585.647422 219.375025 
L 1586.833375 229.976723 
L 1589.20528 229.976723 
L 1590.391233 219.733537 
L 1591.577186 231.205905 
L 1592.763138 227.62079 
L 1593.949091 233.766702 
L 1593.949091 233.766702 
" style="fill:none;stroke:#ff7f0e;stroke-linecap:square;stroke-width:1.5;"/>
   </g>
   <g id="patch_3">
    <path d="M 230.4 856.7496 
L 230.4 115.5168 
" style="fill:none;stroke:#000000;stroke-linecap:square;stroke-linejoin:miter;stroke-width:0.8;"/>
   </g>
   <g id="patch_4">
    <path d="M 1658.88 856.7496 
L 1658.88 115.5168 
" style="fill:none;stroke:#000000;stroke-linecap:square;stroke-linejoin:miter;stroke-width:0.8;"/>
   </g>
   <g id="patch_5">
    <path d="M 230.4 856.7496 
L 1658.88 856.7496 
" style="fill:none;stroke:#000000;stroke-linecap:square;stroke-linejoin:miter;stroke-width:0.8;"/>
   </g>
   <g id="patch_6">
    <path d="M 230.4 115.5168 
L 1658.88 115.5168 
" style="fill:none;stroke:#000000;stroke-linecap:square;stroke-linejoin:miter;stroke-width:0.8;"/>
   </g>
   <g id="text_20">
    <!-- Exchange rates chart -->
    <g transform="translate(880.596563 109.5168)scale(0.12 -0.12)">
     <use xlink:href="#DejaVuSans-69"/>
     <use x="63.183594" xlink:href="#DejaVuSans-120"/>
     <use x="120.613281" xlink:href="#DejaVuSans-99"/>
     <use x="175.59375" xlink:href="#DejaVuSans-104"/>
     <use x="238.972656" xlink:href="#DejaVuSans-97"/>
     <use x="300.251953" xlink:href="#DejaVuSans-110"/>
     <use x="363.630859" xlink:href="#DejaVuSans-103"/>
     <use x="427.107422" xlink:href="#DejaVuSans-101"/>
     <use x="488.630859" xlink:href="#DejaVuSans-32"/>
     <use x="520.417969" xlink:href="#DejaVuSans-114"/>
     <use x="561.53125" xlink:href="#DejaVuSans-97"/>
     <use x="622.810547" xlink:href="#DejaVuSans-116"/>
     <use x="662.019531" xlink:href="#DejaVuSans-101"/>
     <use x="723.542969" xlink:href="#DejaVuSans-115"/>
     <use x="775.642578" xlink:href="#DejaVuSans-32"/>
     <use x="807.429688" xlink:href="#DejaVuSans-99"/>
     <use x="862.410156" xlink:href="#DejaVuSans-104"/>
     <use x="925.789062" xlink:href="#DejaVuSans-97"/>
     <use x="987.068359" xlink:href="#DejaVuSans-114"/>
     <use x="1028.181641" xlink:href="#DejaVuSans-116"/>
    </g>
   </g>
   <g id="legend_1">
    <g id="patch_7">
     <path d="M 1598.512813 152.87305 
L 1651.88 152.87305 
Q 1653.88 152.87305 1653.88 150.87305 
L 1653.88 122.5168 
Q 1653.88 120.5168 1651.88 120.5168 
L 1598.512813 120.5168 
Q 1596.512813 120.5168 1596.512813 122.5168 
L 1596.512813 150.87305 
Q 1596.512813 152.87305 1598.512813 152.87305 
z
" style="fill:#ffffff;opacity:0.8;stroke:#cccccc;stroke-linejoin:miter;"/>
    </g>
    <g id="line2d_20">
     <path d="M 1600.512813 128.615238 
L 1620.512813 128.615238 
" style="fill:none;stroke:#1f77b4;stroke-linecap:square;stroke-width:1.5;"/>
    </g>
    <g id="line2d_21"/>
    <g id="text_21">
     <!-- USD -->
     <g transform="translate(1628.512813 132.115238)scale(0.1 -0.1)">
      <defs>
       <path d="M 8.6875 72.90625 
L 18.609375 72.90625 
L 18.609375 28.609375 
Q 18.609375 16.890625 22.84375 11.734375 
Q 27.09375 6.59375 36.625 6.59375 
Q 46.09375 6.59375 50.34375 11.734375 
Q 54.59375 16.890625 54.59375 28.609375 
L 54.59375 72.90625 
L 64.5 72.90625 
L 64.5 27.390625 
Q 64.5 13.140625 57.4375 5.859375 
Q 50.390625 -1.421875 36.625 -1.421875 
Q 22.796875 -1.421875 15.734375 5.859375 
Q 8.6875 13.140625 8.6875 27.390625 
z
" id="DejaVuSans-85"/>
       <path d="M 53.515625 70.515625 
L 53.515625 60.890625 
Q 47.90625 63.578125 42.921875 64.890625 
Q 37.9375 66.21875 33.296875 66.21875 
Q 25.25 66.21875 20.875 63.09375 
Q 16.5 59.96875 16.5 54.203125 
Q 16.5 49.359375 19.40625 46.890625 
Q 22.3125 44.4375 30.421875 42.921875 
L 36.375 41.703125 
Q 47.40625 39.59375 52.65625 34.296875 
Q 57.90625 29 57.90625 20.125 
Q 57.90625 9.515625 50.796875 4.046875 
Q 43.703125 -1.421875 29.984375 -1.421875 
Q 24.8125 -1.421875 18.96875 -0.25 
Q 13.140625 0.921875 6.890625 3.21875 
L 6.890625 13.375 
Q 12.890625 10.015625 18.65625 8.296875 
Q 24.421875 6.59375 29.984375 6.59375 
Q 38.421875 6.59375 43.015625 9.90625 
Q 47.609375 13.234375 47.609375 19.390625 
Q 47.609375 24.75 44.3125 27.78125 
Q 41.015625 30.8125 33.5 32.328125 
L 27.484375 33.5 
Q 16.453125 35.6875 11.515625 40.375 
Q 6.59375 45.0625 6.59375 53.421875 
Q 6.59375 63.09375 13.40625 68.65625 
Q 20.21875 74.21875 32.171875 74.21875 
Q 37.3125 74.21875 42.625 73.28125 
Q 47.953125 72.359375 53.515625 70.515625 
z
" id="DejaVuSans-83"/>
      </defs>
      <use xlink:href="#DejaVuSans-85"/>
      <use x="73.193359" xlink:href="#DejaVuSans-83"/>
      <use x="136.669922" xlink:href="#DejaVuSans-68"/>
     </g>
    </g>
    <g id="line2d_22">
     <path d="M 1600.512813 143.293363 
L 1620.512813 143.293363 
" style="fill:none;stroke:#ff7f0e;stroke-linecap:square;stroke-width:1.5;"/>
    </g>
    <g id="line2d_23"/>
    <g id="text_22">
     <!-- EUR -->
     <g transform="translate(1628.512813 146.793363)scale(0.1 -0.1)">
      <defs>
       <path d="M 44.390625 34.1875 
Q 47.5625 33.109375 50.5625 29.59375 
Q 53.5625 26.078125 56.59375 19.921875 
L 66.609375 0 
L 56 0 
L 46.6875 18.703125 
Q 43.0625 26.03125 39.671875 28.421875 
Q 36.28125 30.8125 30.421875 30.8125 
L 19.671875 30.8125 
L 19.671875 0 
L 9.8125 0 
L 9.8125 72.90625 
L 32.078125 72.90625 
Q 44.578125 72.90625 50.734375 67.671875 
Q 56.890625 62.453125 56.890625 51.90625 
Q 56.890625 45.015625 53.6875 40.46875 
Q 50.484375 35.9375 44.390625 34.1875 
z
M 19.671875 64.796875 
L 19.671875 38.921875 
L 32.078125 38.921875 
Q 39.203125 38.921875 42.84375 42.21875 
Q 46.484375 45.515625 46.484375 51.90625 
Q 46.484375 58.296875 42.84375 61.546875 
Q 39.203125 64.796875 32.078125 64.796875 
z
" id="DejaVuSans-82"/>
      </defs>
      <use xlink:href="#DejaVuSans-69"/>
      <use x="63.183594" xlink:href="#DejaVuSans-85"/>
      <use x="136.376953" xlink:href="#DejaVuSans-82"/>
     </g>
    </g>
   </g>
  </g>
 </g>
 <defs>
  <clipPath id="p8cbaba8e2f">
   <rect height="741.2328" width="1428.48" x="230.4" y="115.5168"/>
  </clipPath>
 </defs>
</svg>
