<?xml version="1.0" encoding="utf-8" standalone="no"?>
<!DOCTYPE svg PUBLIC "-//W3C//DTD SVG 1.1//EN"
  "http://www.w3.org/Graphics/SVG/1.1/DTD/svg11.dtd">
<!-- Created with matplotlib (https://matplotlib.org/) -->
<svg height="962.64pt" version="1.1" viewBox="0 0 1843.2 962.64" width="1843.2pt" xmlns="http://www.w3.org/2000/svg" xmlns:xlink="http://www.w3.org/1999/xlink">
 <metadata>
  <rdf:RDF xmlns:cc="http://creativecommons.org/ns#" xmlns:dc="http://purl.org/dc/elements/1.1/" xmlns:rdf="http://www.w3.org/1999/02/22-rdf-syntax-ns#">
   <cc:Work>
    <dc:type rdf:resource="http://purl.org/dc/dcmitype/StillImage"/>
    <dc:date>2020-11-19T23:13:24.486989</dc:date>
    <dc:format>image/svg+xml</dc:format>
    <dc:creator>
     <cc:Agent>
      <dc:title>Matplotlib v3.3.3, https://matplotlib.org/</dc:title>
     </cc:Agent>
    </dc:creator>
   </cc:Work>
  </rdf:RDF>
 </metadata>
 <defs>
  <style type="text/css">*{stroke-linecap:butt;stroke-linejoin:round;}</style>
 </defs>
 <g id="figure_1">
  <g id="patch_1">
   <path d="M 0 962.64 
L 1843.2 962.64 
L 1843.2 0 
L 0 0 
z
" style="fill:#ffffff;"/>
  </g>
  <g id="axes_1">
   <g id="patch_2">
    <path d="M 230.4 856.7496 
L 1658.88 856.7496 
L 1658.88 115.5168 
L 230.4 115.5168 
z
" style="fill:#ffffff;"/>
   </g>
   <g id="matplotlib.axis_1">
    <g id="xtick_1">
     <g id="line2d_1">
      <defs>
       <path d="M 0 0 
L 0 3.5 
" id="m5a4e2f8edc" style="stroke:#000000;stroke-width:0.8;"/>
      </defs>
      <g>
       <use style="stroke:#000000;stroke-width:0.8;" x="295.330909" xlink:href="#m5a4e2f8edc" y="856.7496"/>
      </g>
     </g>
     <g id="text_1">
      <!-- 2018-01 -->
      <g transform="translate(274.439503 871.348038)scale(0.1 -0.1)">
       <defs>
        <path d="M 19.1875 8.296875 
L 53.609375 8.296875 
L 53.609375 0 
L 7.328125 0 
L 7.328125 8.296875 
Q 12.9375 14.109375 22.625 23.890625 
Q 32.328125 33.6875 34.8125 36.53125 
Q 39.546875 41.84375 41.421875 45.53125 
Q 43.3125 49.21875 43.3125 52.78125 
Q 43.3125 58.59375 39.234375 62.25 
Q 35.15625 65.921875 28.609375 65.921875 
Q 23.96875 65.921875 18.8125 64.3125 
Q 13.671875 62.703125 7.8125 59.421875 
L 7.8125 69.390625 
Q 13.765625 71.78125 18.9375 73 
Q 24.125 74.21875 28.421875 74.21875 
Q 39.75 74.21875 46.484375 68.546875 
Q 53.21875 62.890625 53.21875 53.421875 
Q 53.21875 48.921875 51.53125 44.890625 
Q 49.859375 40.875 45.40625 35.40625 
Q 44.1875 33.984375 37.640625 27.21875 
Q 31.109375 20.453125 19.1875 8.296875 
z
" id="DejaVuSans-50"/>
        <path d="M 31.78125 66.40625 
Q 24.171875 66.40625 20.328125 58.90625 
Q 16.5 51.421875 16.5 36.375 
Q 16.5 21.390625 20.328125 13.890625 
Q 24.171875 6.390625 31.78125 6.390625 
Q 39.453125 6.390625 43.28125 13.890625 
Q 47.125 21.390625 47.125 36.375 
Q 47.125 51.421875 43.28125 58.90625 
Q 39.453125 66.40625 31.78125 66.40625 
z
M 31.78125 74.21875 
Q 44.046875 74.21875 50.515625 64.515625 
Q 56.984375 54.828125 56.984375 36.375 
Q 56.984375 17.96875 50.515625 8.265625 
Q 44.046875 -1.421875 31.78125 -1.421875 
Q 19.53125 -1.421875 13.0625 8.265625 
Q 6.59375 17.96875 6.59375 36.375 
Q 6.59375 54.828125 13.0625 64.515625 
Q 19.53125 74.21875 31.78125 74.21875 
z
" id="DejaVuSans-48"/>
        <path d="M 12.40625 8.296875 
L 28.515625 8.296875 
L 28.515625 63.921875 
L 10.984375 60.40625 
L 10.984375 69.390625 
L 28.421875 72.90625 
L 38.28125 72.90625 
L 38.28125 8.296875 
L 54.390625 8.296875 
L 54.390625 0 
L 12.40625 0 
z
" id="DejaVuSans-49"/>
        <path d="M 31.78125 34.625 
Q 24.75 34.625 20.71875 30.859375 
Q 16.703125 27.09375 16.703125 20.515625 
Q 16.703125 13.921875 20.71875 10.15625 
Q 24.75 6.390625 31.78125 6.390625 
Q 38.8125 6.390625 42.859375 10.171875 
Q 46.921875 13.96875 46.921875 20.515625 
Q 46.921875 27.09375 42.890625 30.859375 
Q 38.875 34.625 31.78125 34.625 
z
M 21.921875 38.8125 
Q 15.578125 40.375 12.03125 44.71875 
Q 8.5 49.078125 8.5 55.328125 
Q 8.5 64.0625 14.71875 69.140625 
Q 20.953125 74.21875 31.78125 74.21875 
Q 42.671875 74.21875 48.875 69.140625 
Q 55.078125 64.0625 55.078125 55.328125 
Q 55.078125 49.078125 51.53125 44.71875 
Q 48 40.375 41.703125 38.8125 
Q 48.828125 37.15625 52.796875 32.3125 
Q 56.78125 27.484375 56.78125 20.515625 
Q 56.78125 9.90625 50.3125 4.234375 
Q 43.84375 -1.421875 31.78125 -1.421875 
Q 19.734375 -1.421875 13.25 4.234375 
Q 6.78125 9.90625 6.78125 20.515625 
Q 6.78125 27.484375 10.78125 32.3125 
Q 14.796875 37.15625 21.921875 38.8125 
z
M 18.3125 54.390625 
Q 18.3125 48.734375 21.84375 45.5625 
Q 25.390625 42.390625 31.78125 42.390625 
Q 38.140625 42.390625 41.71875 45.5625 
Q 45.3125 48.734375 45.3125 54.390625 
Q 45.3125 60.0625 41.71875 63.234375 
Q 38.140625 66.40625 31.78125 66.40625 
Q 25.390625 66.40625 21.84375 63.234375 
Q 18.3125 60.0625 18.3125 54.390625 
z
" id="DejaVuSans-56"/>
        <path d="M 4.890625 31.390625 
L 31.203125 31.390625 
L 31.203125 23.390625 
L 4.890625 23.390625 
z
" id="DejaVuSans-45"/>
       </defs>
       <use xlink:href="#DejaVuSans-50"/>
       <use x="63.623047" xlink:href="#DejaVuSans-48"/>
       <use x="127.246094" xlink:href="#DejaVuSans-49"/>
       <use x="190.869141" xlink:href="#DejaVuSans-56"/>
       <use x="254.492188" xlink:href="#DejaVuSans-45"/>
       <use x="290.576172" xlink:href="#DejaVuSans-48"/>
       <use x="354.199219" xlink:href="#DejaVuSans-49"/>
      </g>
     </g>
    </g>
    <g id="xtick_2">
     <g id="line2d_2">
      <g>
       <use style="stroke:#000000;stroke-width:0.8;" x="443.885897" xlink:href="#m5a4e2f8edc" y="856.7496"/>
      </g>
     </g>
     <g id="text_2">
      <!-- 2018-05 -->
      <g transform="translate(422.99449 871.348038)scale(0.1 -0.1)">
       <defs>
        <path d="M 10.796875 72.90625 
L 49.515625 72.90625 
L 49.515625 64.59375 
L 19.828125 64.59375 
L 19.828125 46.734375 
Q 21.96875 47.46875 24.109375 47.828125 
Q 26.265625 48.1875 28.421875 48.1875 
Q 40.625 48.1875 47.75 41.5 
Q 54.890625 34.8125 54.890625 23.390625 
Q 54.890625 11.625 47.5625 5.09375 
Q 40.234375 -1.421875 26.90625 -1.421875 
Q 22.3125 -1.421875 17.546875 -0.640625 
Q 12.796875 0.140625 7.71875 1.703125 
L 7.71875 11.625 
Q 12.109375 9.234375 16.796875 8.0625 
Q 21.484375 6.890625 26.703125 6.890625 
Q 35.15625 6.890625 40.078125 11.328125 
Q 45.015625 15.765625 45.015625 23.390625 
Q 45.015625 31 40.078125 35.4375 
Q 35.15625 39.890625 26.703125 39.890625 
Q 22.75 39.890625 18.8125 39.015625 
Q 14.890625 38.140625 10.796875 36.28125 
z
" id="DejaVuSans-53"/>
       </defs>
       <use xlink:href="#DejaVuSans-50"/>
       <use x="63.623047" xlink:href="#DejaVuSans-48"/>
       <use x="127.246094" xlink:href="#DejaVuSans-49"/>
       <use x="190.869141" xlink:href="#DejaVuSans-56"/>
       <use x="254.492188" xlink:href="#DejaVuSans-45"/>
       <use x="290.576172" xlink:href="#DejaVuSans-48"/>
       <use x="354.199219" xlink:href="#DejaVuSans-53"/>
      </g>
     </g>
    </g>
    <g id="xtick_3">
     <g id="line2d_3">
      <g>
       <use style="stroke:#000000;stroke-width:0.8;" x="596.154759" xlink:href="#m5a4e2f8edc" y="856.7496"/>
      </g>
     </g>
     <g id="text_3">
      <!-- 2018-09 -->
      <g transform="translate(575.263352 871.348038)scale(0.1 -0.1)">
       <defs>
        <path d="M 10.984375 1.515625 
L 10.984375 10.5 
Q 14.703125 8.734375 18.5 7.8125 
Q 22.3125 6.890625 25.984375 6.890625 
Q 35.75 6.890625 40.890625 13.453125 
Q 46.046875 20.015625 46.78125 33.40625 
Q 43.953125 29.203125 39.59375 26.953125 
Q 35.25 24.703125 29.984375 24.703125 
Q 19.046875 24.703125 12.671875 31.3125 
Q 6.296875 37.9375 6.296875 49.421875 
Q 6.296875 60.640625 12.9375 67.421875 
Q 19.578125 74.21875 30.609375 74.21875 
Q 43.265625 74.21875 49.921875 64.515625 
Q 56.59375 54.828125 56.59375 36.375 
Q 56.59375 19.140625 48.40625 8.859375 
Q 40.234375 -1.421875 26.421875 -1.421875 
Q 22.703125 -1.421875 18.890625 -0.6875 
Q 15.09375 0.046875 10.984375 1.515625 
z
M 30.609375 32.421875 
Q 37.25 32.421875 41.125 36.953125 
Q 45.015625 41.5 45.015625 49.421875 
Q 45.015625 57.28125 41.125 61.84375 
Q 37.25 66.40625 30.609375 66.40625 
Q 23.96875 66.40625 20.09375 61.84375 
Q 16.21875 57.28125 16.21875 49.421875 
Q 16.21875 41.5 20.09375 36.953125 
Q 23.96875 32.421875 30.609375 32.421875 
z
" id="DejaVuSans-57"/>
       </defs>
       <use xlink:href="#DejaVuSans-50"/>
       <use x="63.623047" xlink:href="#DejaVuSans-48"/>
       <use x="127.246094" xlink:href="#DejaVuSans-49"/>
       <use x="190.869141" xlink:href="#DejaVuSans-56"/>
       <use x="254.492188" xlink:href="#DejaVuSans-45"/>
       <use x="290.576172" xlink:href="#DejaVuSans-48"/>
       <use x="354.199219" xlink:href="#DejaVuSans-57"/>
      </g>
     </g>
    </g>
    <g id="xtick_4">
     <g id="line2d_4">
      <g>
       <use style="stroke:#000000;stroke-width:0.8;" x="747.185663" xlink:href="#m5a4e2f8edc" y="856.7496"/>
      </g>
     </g>
     <g id="text_4">
      <!-- 2019-01 -->
      <g transform="translate(726.294256 871.348038)scale(0.1 -0.1)">
       <use xlink:href="#DejaVuSans-50"/>
       <use x="63.623047" xlink:href="#DejaVuSans-48"/>
       <use x="127.246094" xlink:href="#DejaVuSans-49"/>
       <use x="190.869141" xlink:href="#DejaVuSans-57"/>
       <use x="254.492188" xlink:href="#DejaVuSans-45"/>
       <use x="290.576172" xlink:href="#DejaVuSans-48"/>
       <use x="354.199219" xlink:href="#DejaVuSans-49"/>
      </g>
     </g>
    </g>
    <g id="xtick_5">
     <g id="line2d_5">
      <g>
       <use style="stroke:#000000;stroke-width:0.8;" x="895.74065" xlink:href="#m5a4e2f8edc" y="856.7496"/>
      </g>
     </g>
     <g id="text_5">
      <!-- 2019-05 -->
      <g transform="translate(874.849244 871.348038)scale(0.1 -0.1)">
       <use xlink:href="#DejaVuSans-50"/>
       <use x="63.623047" xlink:href="#DejaVuSans-48"/>
       <use x="127.246094" xlink:href="#DejaVuSans-49"/>
       <use x="190.869141" xlink:href="#DejaVuSans-57"/>
       <use x="254.492188" xlink:href="#DejaVuSans-45"/>
       <use x="290.576172" xlink:href="#DejaVuSans-48"/>
       <use x="354.199219" xlink:href="#DejaVuSans-53"/>
      </g>
     </g>
    </g>
    <g id="xtick_6">
     <g id="line2d_6">
      <g>
       <use style="stroke:#000000;stroke-width:0.8;" x="1048.009512" xlink:href="#m5a4e2f8edc" y="856.7496"/>
      </g>
     </g>
     <g id="text_6">
      <!-- 2019-09 -->
      <g transform="translate(1027.118106 871.348038)scale(0.1 -0.1)">
       <use xlink:href="#DejaVuSans-50"/>
       <use x="63.623047" xlink:href="#DejaVuSans-48"/>
       <use x="127.246094" xlink:href="#DejaVuSans-49"/>
       <use x="190.869141" xlink:href="#DejaVuSans-57"/>
       <use x="254.492188" xlink:href="#DejaVuSans-45"/>
       <use x="290.576172" xlink:href="#DejaVuSans-48"/>
       <use x="354.199219" xlink:href="#DejaVuSans-57"/>
      </g>
     </g>
    </g>
    <g id="xtick_7">
     <g id="line2d_7">
      <g>
       <use style="stroke:#000000;stroke-width:0.8;" x="1199.040416" xlink:href="#m5a4e2f8edc" y="856.7496"/>
      </g>
     </g>
     <g id="text_7">
      <!-- 2020-01 -->
      <g transform="translate(1178.14901 871.348038)scale(0.1 -0.1)">
       <use xlink:href="#DejaVuSans-50"/>
       <use x="63.623047" xlink:href="#DejaVuSans-48"/>
       <use x="127.246094" xlink:href="#DejaVuSans-50"/>
       <use x="190.869141" xlink:href="#DejaVuSans-48"/>
       <use x="254.492188" xlink:href="#DejaVuSans-45"/>
       <use x="290.576172" xlink:href="#DejaVuSans-48"/>
       <use x="354.199219" xlink:href="#DejaVuSans-49"/>
      </g>
     </g>
    </g>
    <g id="xtick_8">
     <g id="line2d_8">
      <g>
       <use style="stroke:#000000;stroke-width:0.8;" x="1348.833362" xlink:href="#m5a4e2f8edc" y="856.7496"/>
      </g>
     </g>
     <g id="text_8">
      <!-- 2020-05 -->
      <g transform="translate(1327.941955 871.348038)scale(0.1 -0.1)">
       <use xlink:href="#DejaVuSans-50"/>
       <use x="63.623047" xlink:href="#DejaVuSans-48"/>
       <use x="127.246094" xlink:href="#DejaVuSans-50"/>
       <use x="190.869141" xlink:href="#DejaVuSans-48"/>
       <use x="254.492188" xlink:href="#DejaVuSans-45"/>
       <use x="290.576172" xlink:href="#DejaVuSans-48"/>
       <use x="354.199219" xlink:href="#DejaVuSans-53"/>
      </g>
     </g>
    </g>
    <g id="xtick_9">
     <g id="line2d_9">
      <g>
       <use style="stroke:#000000;stroke-width:0.8;" x="1501.102224" xlink:href="#m5a4e2f8edc" y="856.7496"/>
      </g>
     </g>
     <g id="text_9">
      <!-- 2020-09 -->
      <g transform="translate(1480.210818 871.348038)scale(0.1 -0.1)">
       <use xlink:href="#DejaVuSans-50"/>
       <use x="63.623047" xlink:href="#DejaVuSans-48"/>
       <use x="127.246094" xlink:href="#DejaVuSans-50"/>
       <use x="190.869141" xlink:href="#DejaVuSans-48"/>
       <use x="254.492188" xlink:href="#DejaVuSans-45"/>
       <use x="290.576172" xlink:href="#DejaVuSans-48"/>
       <use x="354.199219" xlink:href="#DejaVuSans-57"/>
      </g>
     </g>
    </g>
    <g id="xtick_10">
     <g id="line2d_10">
      <g>
       <use style="stroke:#000000;stroke-width:0.8;" x="1652.133128" xlink:href="#m5a4e2f8edc" y="856.7496"/>
      </g>
     </g>
     <g id="text_10">
      <!-- 2021-01 -->
      <g transform="translate(1631.241721 871.348038)scale(0.1 -0.1)">
       <use xlink:href="#DejaVuSans-50"/>
       <use x="63.623047" xlink:href="#DejaVuSans-48"/>
       <use x="127.246094" xlink:href="#DejaVuSans-50"/>
       <use x="190.869141" xlink:href="#DejaVuSans-49"/>
       <use x="254.492188" xlink:href="#DejaVuSans-45"/>
       <use x="290.576172" xlink:href="#DejaVuSans-48"/>
       <use x="354.199219" xlink:href="#DejaVuSans-49"/>
      </g>
     </g>
    </g>
    <g id="text_11">
     <!-- Date -->
     <g transform="translate(932.689219 885.026163)scale(0.1 -0.1)">
      <defs>
       <path d="M 19.671875 64.796875 
L 19.671875 8.109375 
L 31.59375 8.109375 
Q 46.6875 8.109375 53.6875 14.9375 
Q 60.6875 21.78125 60.6875 36.53125 
Q 60.6875 51.171875 53.6875 57.984375 
Q 46.6875 64.796875 31.59375 64.796875 
z
M 9.8125 72.90625 
L 30.078125 72.90625 
Q 51.265625 72.90625 61.171875 64.09375 
Q 71.09375 55.28125 71.09375 36.53125 
Q 71.09375 17.671875 61.125 8.828125 
Q 51.171875 0 30.078125 0 
L 9.8125 0 
z
" id="DejaVuSans-68"/>
       <path d="M 34.28125 27.484375 
Q 23.390625 27.484375 19.1875 25 
Q 14.984375 22.515625 14.984375 16.5 
Q 14.984375 11.71875 18.140625 8.90625 
Q 21.296875 6.109375 26.703125 6.109375 
Q 34.1875 6.109375 38.703125 11.40625 
Q 43.21875 16.703125 43.21875 25.484375 
L 43.21875 27.484375 
z
M 52.203125 31.203125 
L 52.203125 0 
L 43.21875 0 
L 43.21875 8.296875 
Q 40.140625 3.328125 35.546875 0.953125 
Q 30.953125 -1.421875 24.3125 -1.421875 
Q 15.921875 -1.421875 10.953125 3.296875 
Q 6 8.015625 6 15.921875 
Q 6 25.140625 12.171875 29.828125 
Q 18.359375 34.515625 30.609375 34.515625 
L 43.21875 34.515625 
L 43.21875 35.40625 
Q 43.21875 41.609375 39.140625 45 
Q 35.0625 48.390625 27.6875 48.390625 
Q 23 48.390625 18.546875 47.265625 
Q 14.109375 46.140625 10.015625 43.890625 
L 10.015625 52.203125 
Q 14.9375 54.109375 19.578125 55.046875 
Q 24.21875 56 28.609375 56 
Q 40.484375 56 46.34375 49.84375 
Q 52.203125 43.703125 52.203125 31.203125 
z
" id="DejaVuSans-97"/>
       <path d="M 18.3125 70.21875 
L 18.3125 54.6875 
L 36.8125 54.6875 
L 36.8125 47.703125 
L 18.3125 47.703125 
L 18.3125 18.015625 
Q 18.3125 11.328125 20.140625 9.421875 
Q 21.96875 7.515625 27.59375 7.515625 
L 36.8125 7.515625 
L 36.8125 0 
L 27.59375 0 
Q 17.1875 0 13.234375 3.875 
Q 9.28125 7.765625 9.28125 18.015625 
L 9.28125 47.703125 
L 2.6875 47.703125 
L 2.6875 54.6875 
L 9.28125 54.6875 
L 9.28125 70.21875 
z
" id="DejaVuSans-116"/>
       <path d="M 56.203125 29.59375 
L 56.203125 25.203125 
L 14.890625 25.203125 
Q 15.484375 15.921875 20.484375 11.0625 
Q 25.484375 6.203125 34.421875 6.203125 
Q 39.59375 6.203125 44.453125 7.46875 
Q 49.3125 8.734375 54.109375 11.28125 
L 54.109375 2.78125 
Q 49.265625 0.734375 44.1875 -0.34375 
Q 39.109375 -1.421875 33.890625 -1.421875 
Q 20.796875 -1.421875 13.15625 6.1875 
Q 5.515625 13.8125 5.515625 26.8125 
Q 5.515625 40.234375 12.765625 48.109375 
Q 20.015625 56 32.328125 56 
Q 43.359375 56 49.78125 48.890625 
Q 56.203125 41.796875 56.203125 29.59375 
z
M 47.21875 32.234375 
Q 47.125 39.59375 43.09375 43.984375 
Q 39.0625 48.390625 32.421875 48.390625 
Q 24.90625 48.390625 20.390625 44.140625 
Q 15.875 39.890625 15.1875 32.171875 
z
" id="DejaVuSans-101"/>
      </defs>
      <use xlink:href="#DejaVuSans-68"/>
      <use x="77.001953" xlink:href="#DejaVuSans-97"/>
      <use x="138.28125" xlink:href="#DejaVuSans-116"/>
      <use x="177.490234" xlink:href="#DejaVuSans-101"/>
     </g>
    </g>
   </g>
   <g id="matplotlib.axis_2">
    <g id="ytick_1">
     <g id="line2d_11">
      <defs>
       <path d="M 0 0 
L -3.5 0 
" id="m3af7cc012b" style="stroke:#000000;stroke-width:0.8;"/>
      </defs>
      <g>
       <use style="stroke:#000000;stroke-width:0.8;" x="230.4" xlink:href="#m3af7cc012b" y="824.169692"/>
      </g>
     </g>
     <g id="text_12">
      <!-- 0.00 -->
      <g transform="translate(201.134375 827.96891)scale(0.1 -0.1)">
       <defs>
        <path d="M 10.6875 12.40625 
L 21 12.40625 
L 21 0 
L 10.6875 0 
z
" id="DejaVuSans-46"/>
       </defs>
       <use xlink:href="#DejaVuSans-48"/>
       <use x="63.623047" xlink:href="#DejaVuSans-46"/>
       <use x="95.410156" xlink:href="#DejaVuSans-48"/>
       <use x="159.033203" xlink:href="#DejaVuSans-48"/>
      </g>
     </g>
    </g>
    <g id="ytick_2">
     <g id="line2d_12">
      <g>
       <use style="stroke:#000000;stroke-width:0.8;" x="230.4" xlink:href="#m3af7cc012b" y="726.558727"/>
      </g>
     </g>
     <g id="text_13">
      <!-- 0.25 -->
      <g transform="translate(201.134375 730.357946)scale(0.1 -0.1)">
       <use xlink:href="#DejaVuSans-48"/>
       <use x="63.623047" xlink:href="#DejaVuSans-46"/>
       <use x="95.410156" xlink:href="#DejaVuSans-50"/>
       <use x="159.033203" xlink:href="#DejaVuSans-53"/>
      </g>
     </g>
    </g>
    <g id="ytick_3">
     <g id="line2d_13">
      <g>
       <use style="stroke:#000000;stroke-width:0.8;" x="230.4" xlink:href="#m3af7cc012b" y="628.947763"/>
      </g>
     </g>
     <g id="text_14">
      <!-- 0.50 -->
      <g transform="translate(201.134375 632.746982)scale(0.1 -0.1)">
       <use xlink:href="#DejaVuSans-48"/>
       <use x="63.623047" xlink:href="#DejaVuSans-46"/>
       <use x="95.410156" xlink:href="#DejaVuSans-53"/>
       <use x="159.033203" xlink:href="#DejaVuSans-48"/>
      </g>
     </g>
    </g>
    <g id="ytick_4">
     <g id="line2d_14">
      <g>
       <use style="stroke:#000000;stroke-width:0.8;" x="230.4" xlink:href="#m3af7cc012b" y="531.336799"/>
      </g>
     </g>
     <g id="text_15">
      <!-- 0.75 -->
      <g transform="translate(201.134375 535.136017)scale(0.1 -0.1)">
       <defs>
        <path d="M 8.203125 72.90625 
L 55.078125 72.90625 
L 55.078125 68.703125 
L 28.609375 0 
L 18.3125 0 
L 43.21875 64.59375 
L 8.203125 64.59375 
z
" id="DejaVuSans-55"/>
       </defs>
       <use xlink:href="#DejaVuSans-48"/>
       <use x="63.623047" xlink:href="#DejaVuSans-46"/>
       <use x="95.410156" xlink:href="#DejaVuSans-55"/>
       <use x="159.033203" xlink:href="#DejaVuSans-53"/>
      </g>
     </g>
    </g>
    <g id="ytick_5">
     <g id="line2d_15">
      <g>
       <use style="stroke:#000000;stroke-width:0.8;" x="230.4" xlink:href="#m3af7cc012b" y="433.725834"/>
      </g>
     </g>
     <g id="text_16">
      <!-- 1.00 -->
      <g transform="translate(201.134375 437.525053)scale(0.1 -0.1)">
       <use xlink:href="#DejaVuSans-49"/>
       <use x="63.623047" xlink:href="#DejaVuSans-46"/>
       <use x="95.410156" xlink:href="#DejaVuSans-48"/>
       <use x="159.033203" xlink:href="#DejaVuSans-48"/>
      </g>
     </g>
    </g>
    <g id="ytick_6">
     <g id="line2d_16">
      <g>
       <use style="stroke:#000000;stroke-width:0.8;" x="230.4" xlink:href="#m3af7cc012b" y="336.11487"/>
      </g>
     </g>
     <g id="text_17">
      <!-- 1.25 -->
      <g transform="translate(201.134375 339.914089)scale(0.1 -0.1)">
       <use xlink:href="#DejaVuSans-49"/>
       <use x="63.623047" xlink:href="#DejaVuSans-46"/>
       <use x="95.410156" xlink:href="#DejaVuSans-50"/>
       <use x="159.033203" xlink:href="#DejaVuSans-53"/>
      </g>
     </g>
    </g>
    <g id="ytick_7">
     <g id="line2d_17">
      <g>
       <use style="stroke:#000000;stroke-width:0.8;" x="230.4" xlink:href="#m3af7cc012b" y="238.503905"/>
      </g>
     </g>
     <g id="text_18">
      <!-- 1.50 -->
      <g transform="translate(201.134375 242.303124)scale(0.1 -0.1)">
       <use xlink:href="#DejaVuSans-49"/>
       <use x="63.623047" xlink:href="#DejaVuSans-46"/>
       <use x="95.410156" xlink:href="#DejaVuSans-53"/>
       <use x="159.033203" xlink:href="#DejaVuSans-48"/>
      </g>
     </g>
    </g>
    <g id="ytick_8">
     <g id="line2d_18">
      <g>
       <use style="stroke:#000000;stroke-width:0.8;" x="230.4" xlink:href="#m3af7cc012b" y="140.892941"/>
      </g>
     </g>
     <g id="text_19">
      <!-- 1.75 -->
      <g transform="translate(201.134375 144.69216)scale(0.1 -0.1)">
       <use xlink:href="#DejaVuSans-49"/>
       <use x="63.623047" xlink:href="#DejaVuSans-46"/>
       <use x="95.410156" xlink:href="#DejaVuSans-55"/>
       <use x="159.033203" xlink:href="#DejaVuSans-53"/>
      </g>
     </g>
    </g>
    <g id="text_20">
     <!-- Daily sum -->
     <g transform="translate(195.054688 511.017575)rotate(-90)scale(0.1 -0.1)">
      <defs>
       <path d="M 9.421875 54.6875 
L 18.40625 54.6875 
L 18.40625 0 
L 9.421875 0 
z
M 9.421875 75.984375 
L 18.40625 75.984375 
L 18.40625 64.59375 
L 9.421875 64.59375 
z
" id="DejaVuSans-105"/>
       <path d="M 9.421875 75.984375 
L 18.40625 75.984375 
L 18.40625 0 
L 9.421875 0 
z
" id="DejaVuSans-108"/>
       <path d="M 32.171875 -5.078125 
Q 28.375 -14.84375 24.75 -17.8125 
Q 21.140625 -20.796875 15.09375 -20.796875 
L 7.90625 -20.796875 
L 7.90625 -13.28125 
L 13.1875 -13.28125 
Q 16.890625 -13.28125 18.9375 -11.515625 
Q 21 -9.765625 23.484375 -3.21875 
L 25.09375 0.875 
L 2.984375 54.6875 
L 12.5 54.6875 
L 29.59375 11.921875 
L 46.6875 54.6875 
L 56.203125 54.6875 
z
" id="DejaVuSans-121"/>
       <path id="DejaVuSans-32"/>
       <path d="M 44.28125 53.078125 
L 44.28125 44.578125 
Q 40.484375 46.53125 36.375 47.5 
Q 32.28125 48.484375 27.875 48.484375 
Q 21.1875 48.484375 17.84375 46.4375 
Q 14.5 44.390625 14.5 40.28125 
Q 14.5 37.15625 16.890625 35.375 
Q 19.28125 33.59375 26.515625 31.984375 
L 29.59375 31.296875 
Q 39.15625 29.25 43.1875 25.515625 
Q 47.21875 21.78125 47.21875 15.09375 
Q 47.21875 7.46875 41.1875 3.015625 
Q 35.15625 -1.421875 24.609375 -1.421875 
Q 20.21875 -1.421875 15.453125 -0.5625 
Q 10.6875 0.296875 5.421875 2 
L 5.421875 11.28125 
Q 10.40625 8.6875 15.234375 7.390625 
Q 20.0625 6.109375 24.8125 6.109375 
Q 31.15625 6.109375 34.5625 8.28125 
Q 37.984375 10.453125 37.984375 14.40625 
Q 37.984375 18.0625 35.515625 20.015625 
Q 33.0625 21.96875 24.703125 23.78125 
L 21.578125 24.515625 
Q 13.234375 26.265625 9.515625 29.90625 
Q 5.8125 33.546875 5.8125 39.890625 
Q 5.8125 47.609375 11.28125 51.796875 
Q 16.75 56 26.8125 56 
Q 31.78125 56 36.171875 55.265625 
Q 40.578125 54.546875 44.28125 53.078125 
z
" id="DejaVuSans-115"/>
       <path d="M 8.5 21.578125 
L 8.5 54.6875 
L 17.484375 54.6875 
L 17.484375 21.921875 
Q 17.484375 14.15625 20.5 10.265625 
Q 23.53125 6.390625 29.59375 6.390625 
Q 36.859375 6.390625 41.078125 11.03125 
Q 45.3125 15.671875 45.3125 23.6875 
L 45.3125 54.6875 
L 54.296875 54.6875 
L 54.296875 0 
L 45.3125 0 
L 45.3125 8.40625 
Q 42.046875 3.421875 37.71875 1 
Q 33.40625 -1.421875 27.6875 -1.421875 
Q 18.265625 -1.421875 13.375 4.4375 
Q 8.5 10.296875 8.5 21.578125 
z
M 31.109375 56 
z
" id="DejaVuSans-117"/>
       <path d="M 52 44.1875 
Q 55.375 50.25 60.0625 53.125 
Q 64.75 56 71.09375 56 
Q 79.640625 56 84.28125 50.015625 
Q 88.921875 44.046875 88.921875 33.015625 
L 88.921875 0 
L 79.890625 0 
L 79.890625 32.71875 
Q 79.890625 40.578125 77.09375 44.375 
Q 74.3125 48.1875 68.609375 48.1875 
Q 61.625 48.1875 57.5625 43.546875 
Q 53.515625 38.921875 53.515625 30.90625 
L 53.515625 0 
L 44.484375 0 
L 44.484375 32.71875 
Q 44.484375 40.625 41.703125 44.40625 
Q 38.921875 48.1875 33.109375 48.1875 
Q 26.21875 48.1875 22.15625 43.53125 
Q 18.109375 38.875 18.109375 30.90625 
L 18.109375 0 
L 9.078125 0 
L 9.078125 54.6875 
L 18.109375 54.6875 
L 18.109375 46.1875 
Q 21.1875 51.21875 25.484375 53.609375 
Q 29.78125 56 35.6875 56 
Q 41.65625 56 45.828125 52.96875 
Q 50 49.953125 52 44.1875 
z
" id="DejaVuSans-109"/>
      </defs>
      <use xlink:href="#DejaVuSans-68"/>
      <use x="77.001953" xlink:href="#DejaVuSans-97"/>
      <use x="138.28125" xlink:href="#DejaVuSans-105"/>
      <use x="166.064453" xlink:href="#DejaVuSans-108"/>
      <use x="193.847656" xlink:href="#DejaVuSans-121"/>
      <use x="253.027344" xlink:href="#DejaVuSans-32"/>
      <use x="284.814453" xlink:href="#DejaVuSans-115"/>
      <use x="336.914062" xlink:href="#DejaVuSans-117"/>
      <use x="400.292969" xlink:href="#DejaVuSans-109"/>
     </g>
    </g>
    <g id="text_21">
     <!-- 1e6 -->
     <g transform="translate(230.4 112.5168)scale(0.1 -0.1)">
      <defs>
       <path d="M 33.015625 40.375 
Q 26.375 40.375 22.484375 35.828125 
Q 18.609375 31.296875 18.609375 23.390625 
Q 18.609375 15.53125 22.484375 10.953125 
Q 26.375 6.390625 33.015625 6.390625 
Q 39.65625 6.390625 43.53125 10.953125 
Q 47.40625 15.53125 47.40625 23.390625 
Q 47.40625 31.296875 43.53125 35.828125 
Q 39.65625 40.375 33.015625 40.375 
z
M 52.59375 71.296875 
L 52.59375 62.3125 
Q 48.875 64.0625 45.09375 64.984375 
Q 41.3125 65.921875 37.59375 65.921875 
Q 27.828125 65.921875 22.671875 59.328125 
Q 17.53125 52.734375 16.796875 39.40625 
Q 19.671875 43.65625 24.015625 45.921875 
Q 28.375 48.1875 33.59375 48.1875 
Q 44.578125 48.1875 50.953125 41.515625 
Q 57.328125 34.859375 57.328125 23.390625 
Q 57.328125 12.15625 50.6875 5.359375 
Q 44.046875 -1.421875 33.015625 -1.421875 
Q 20.359375 -1.421875 13.671875 8.265625 
Q 6.984375 17.96875 6.984375 36.375 
Q 6.984375 53.65625 15.1875 63.9375 
Q 23.390625 74.21875 37.203125 74.21875 
Q 40.921875 74.21875 44.703125 73.484375 
Q 48.484375 72.75 52.59375 71.296875 
z
" id="DejaVuSans-54"/>
      </defs>
      <use xlink:href="#DejaVuSans-49"/>
      <use x="63.623047" xlink:href="#DejaVuSans-101"/>
      <use x="125.146484" xlink:href="#DejaVuSans-54"/>
     </g>
    </g>
   </g>
   <g id="line2d_19">
    <path clip-path="url(#pac28ebe25c)" d="M 295.330909 679.363701 
L 296.568867 647.54123 
L 297.806826 456.017797 
L 299.044784 612.770069 
L 300.282742 740.233543 
L 301.5207 524.535313 
L 302.758658 656.839604 
L 303.996617 595.52302 
L 305.234575 504.072151 
L 306.472533 766.442173 
L 307.710491 743.053922 
L 308.94845 650.071463 
L 310.186408 714.788161 
L 311.424366 681.424023 
L 312.662324 243.672574 
L 313.900283 534.826722 
L 315.138241 540.816346 
L 316.376199 661.893751 
L 317.614157 521.514535 
L 318.852115 617.384331 
L 320.090074 645.030872 
L 321.328032 518.86722 
L 322.56599 686.738616 
L 323.803948 662.629402 
L 325.041907 577.000188 
L 326.279865 602.953049 
L 327.517823 533.748055 
L 328.755781 428.654363 
L 329.993739 722.235538 
L 331.231698 439.362387 
L 332.469656 663.290549 
L 333.707614 456.908266 
L 334.945572 372.936299 
L 336.183531 649.54124 
L 337.421489 652.743235 
L 338.659447 673.577632 
L 339.897405 517.269224 
L 341.135364 811.492819 
L 342.373322 647.271453 
L 343.61128 646.49203 
L 344.849238 692.537074 
L 346.087196 748.178451 
L 348.563113 187.693447 
L 349.801071 528.929419 
L 351.039029 566.420085 
L 352.276988 559.234387 
L 353.514946 534.291283 
L 354.752904 646.751694 
L 355.990862 522.318256 
L 357.228821 660.900704 
L 358.466779 459.070951 
L 359.704737 711.727335 
L 360.942695 653.548955 
L 362.180653 668.912886 
L 363.418612 708.984607 
L 364.65657 781.466316 
L 365.894528 463.471101 
L 367.132486 696.63281 
L 368.370445 670.310893 
L 369.608403 685.288566 
L 370.846361 664.105311 
L 372.084319 503.812513 
L 373.322277 756.165222 
L 374.560236 528.844174 
L 375.798194 688.056086 
L 377.036152 414.390461 
L 378.27411 325.265122 
L 379.512069 684.055739 
L 380.750027 724.528732 
L 381.987985 687.704441 
L 383.225943 660.997655 
L 384.463902 495.548457 
L 385.70186 660.92574 
L 386.939818 677.915642 
L 388.177776 793.105553 
L 389.415734 762.270198 
L 390.653693 717.006026 
L 391.891651 780.690465 
L 393.129609 704.691279 
L 394.367567 395.959367 
L 395.605526 571.3564 
L 396.843484 714.904993 
L 399.3194 517.186781 
L 400.557359 753.173177 
L 401.795317 697.070049 
L 403.033275 761.122871 
L 404.271233 663.729802 
L 405.509191 674.323485 
L 406.74715 702.152531 
L 407.985108 465.332647 
L 409.223066 660.884095 
L 410.461024 631.152408 
L 411.698983 588.233117 
L 412.936941 426.605087 
L 414.174899 705.175656 
L 415.412857 609.022124 
L 416.650815 743.50786 
L 417.888774 632.815293 
L 419.126732 645.228975 
L 420.36469 484.865702 
L 421.602648 776.751222 
L 422.840607 739.937657 
L 424.078565 750.536111 
L 425.316523 779.606421 
L 426.554481 716.901954 
L 427.79244 670.572616 
L 429.030398 492.682279 
L 430.268356 558.676408 
L 431.506314 514.957066 
L 432.744272 631.421666 
L 433.982231 580.025768 
L 435.220189 616.062866 
L 436.458147 785.253024 
L 437.696105 568.351759 
L 438.934064 601.974172 
L 440.172022 719.547176 
L 441.40998 637.563188 
L 442.647938 685.669346 
L 443.885897 610.655421 
L 445.123855 776.425795 
L 446.361813 414.51536 
L 448.837729 696.931004 
L 450.075688 701.811099 
L 451.313646 566.645171 
L 452.551604 671.529351 
L 453.789562 602.603497 
L 455.027521 770.789168 
L 456.265479 669.371653 
L 457.503437 502.916581 
L 458.741395 555.325458 
L 461.217312 602.298029 
L 462.45527 695.555427 
L 463.693228 653.106195 
L 464.931186 551.967922 
L 466.169145 689.279894 
L 467.407103 588.911353 
L 468.645061 618.303682 
L 469.883019 697.568232 
L 471.120978 608.243724 
L 472.358936 414.749985 
L 473.596894 587.423625 
L 474.834852 633.580633 
L 476.07281 382.525686 
L 478.548727 534.101981 
L 479.786685 664.879429 
L 481.024643 486.597481 
L 482.262602 540.340383 
L 483.50056 760.862539 
L 484.738518 634.652288 
L 485.976476 616.163171 
L 487.214435 668.298479 
L 488.452393 556.45987 
L 489.690351 578.473403 
L 490.928309 772.468826 
L 492.166267 617.840791 
L 493.404226 658.477735 
L 494.642184 512.453305 
L 495.880142 434.743499 
L 497.1181 445.074858 
L 498.356059 484.48573 
L 499.594017 381.035397 
L 500.831975 563.762603 
L 502.069933 570.610199 
L 503.307891 605.176358 
L 504.54585 686.384296 
L 505.783808 734.871386 
L 507.021766 486.53761 
L 508.259724 596.922308 
L 509.497683 434.923376 
L 510.735641 711.140794 
L 511.973599 750.37617 
L 513.211557 668.308697 
L 514.449516 661.863886 
L 515.687474 415.59427 
L 516.925432 452.855506 
L 518.16339 612.484584 
L 519.401348 741.902488 
L 520.639307 523.631307 
L 521.877265 729.243283 
L 523.115223 639.649068 
L 524.353181 647.099666 
L 525.59114 748.301043 
L 526.829098 637.536927 
L 528.067056 571.776884 
L 529.305014 411.709525 
L 531.780931 789.259279 
L 533.018889 783.48313 
L 534.256847 618.631612 
L 535.494805 692.082109 
L 536.732764 373.372616 
L 537.970722 671.543763 
L 539.20868 694.006677 
L 540.446638 688.684471 
L 541.684597 546.43112 
L 542.922555 356.424604 
L 544.160513 612.970894 
L 545.398471 561.82474 
L 546.636429 279.784059 
L 549.112346 644.249051 
L 550.350304 395.902964 
L 551.588262 519.119966 
L 552.826221 375.196465 
L 554.064179 616.556445 
L 555.302137 490.125691 
L 556.540095 466.290941 
L 557.778054 702.135586 
L 559.016012 511.215723 
L 560.25397 530.170882 
L 561.491928 543.491624 
L 562.729886 625.538356 
L 563.967845 531.42416 
L 565.205803 631.523904 
L 566.443761 745.487121 
L 567.681719 639.847179 
L 570.157636 509.207577 
L 571.395594 546.244008 
L 572.633552 646.999525 
L 573.871511 402.65088 
L 576.347427 604.392522 
L 577.585385 515.859772 
L 578.823343 696.173445 
L 580.061302 541.435566 
L 581.29926 648.505822 
L 582.537218 633.218988 
L 583.775176 792.186163 
L 585.013135 716.256109 
L 586.251093 620.582605 
L 587.489051 626.38676 
L 588.727009 430.666558 
L 589.964968 771.978362 
L 591.202926 623.751678 
L 592.440884 621.936785 
L 593.678842 551.296874 
L 594.9168 551.231186 
L 596.154759 421.15699 
L 597.392717 650.300236 
L 598.630675 413.689571 
L 599.868633 721.358324 
L 601.106592 731.510106 
L 602.34455 515.451044 
L 603.582508 560.776972 
L 604.820466 594.17322 
L 606.058424 641.721009 
L 607.296383 739.376226 
L 608.534341 520.257158 
L 609.772299 566.154341 
L 611.010257 660.108474 
L 612.248216 516.280175 
L 613.486174 662.749753 
L 614.724132 605.007151 
L 615.96209 588.030613 
L 617.200049 695.71948 
L 618.438007 744.667677 
L 619.675965 569.95448 
L 620.913923 741.725468 
L 622.151881 708.980164 
L 623.38984 652.934193 
L 624.627798 641.126004 
L 625.865756 718.592462 
L 627.103714 581.704778 
L 628.341673 591.00227 
L 629.579631 635.911321 
L 630.817589 756.927443 
L 632.055547 744.7006 
L 633.293506 612.065177 
L 634.531464 665.11854 
L 635.769422 431.160926 
L 637.00738 731.382349 
L 638.245338 567.308622 
L 639.483297 458.592251 
L 640.721255 771.987983 
L 641.959213 762.071275 
L 643.197171 293.423071 
L 644.43513 748.618692 
L 645.673088 254.948499 
L 646.911046 381.187728 
L 648.149004 712.28816 
L 649.386962 563.193136 
L 650.624921 616.112339 
L 651.862879 692.653789 
L 653.100837 749.314943 
L 654.338795 344.079249 
L 655.576754 667.162698 
L 656.814712 376.964742 
L 658.05267 255.850502 
L 659.290628 615.901534 
L 660.528587 294.635254 
L 661.766545 659.710261 
L 663.004503 635.718169 
L 664.242461 437.996779 
L 665.480419 698.960875 
L 666.718378 607.510705 
L 667.956336 260.87487 
L 669.194294 728.404965 
L 670.432252 645.925585 
L 671.670211 599.098853 
L 672.908169 481.381045 
L 674.146127 498.432396 
L 675.384085 447.849235 
L 676.622044 769.664635 
L 677.860002 654.362214 
L 679.09796 689.701842 
L 680.335918 813.037774 
L 681.573876 549.078806 
L 682.811835 581.096393 
L 684.049793 685.330312 
L 685.287751 315.228275 
L 686.525709 649.800995 
L 687.763668 593.836224 
L 689.001626 565.6961 
L 690.239584 457.019785 
L 691.477542 654.146939 
L 692.7155 626.990726 
L 693.953459 723.001909 
L 695.191417 665.7994 
L 696.429375 639.986708 
L 697.667333 375.922562 
L 698.905292 604.816455 
L 700.14325 702.795955 
L 701.381208 671.819221 
L 702.619166 381.526071 
L 703.857125 504.570213 
L 705.095083 539.048565 
L 706.333041 506.288685 
L 707.570999 728.698129 
L 708.808957 691.208616 
L 710.046916 503.170776 
L 711.284874 507.424385 
L 712.522832 589.334754 
L 713.76079 724.290811 
L 716.236707 599.854167 
L 717.474665 703.218739 
L 718.712623 531.596553 
L 719.950582 743.862168 
L 721.18854 660.386447 
L 722.426498 671.667459 
L 723.664456 493.443367 
L 724.902414 614.376519 
L 726.140373 439.308771 
L 727.378331 633.590375 
L 728.616289 501.245326 
L 729.854247 466.217502 
L 731.092206 571.000819 
L 732.330164 508.23185 
L 733.568122 540.016959 
L 734.80608 770.112423 
L 736.044038 486.398151 
L 737.281997 664.938276 
L 738.519955 668.295036 
L 739.757913 664.193431 
L 740.995871 496.357421 
L 742.23383 588.627024 
L 743.471788 738.469861 
L 744.709746 379.558234 
L 745.947704 747.659442 
L 747.185663 669.874326 
L 748.423621 681.896303 
L 749.661579 455.430222 
L 750.899537 449.830285 
L 752.137495 554.499068 
L 753.375454 647.77486 
L 754.613412 583.14896 
L 755.85137 621.435939 
L 757.089328 580.623624 
L 758.327287 662.939052 
L 759.565245 560.89742 
L 760.803203 770.754258 
L 762.041161 434.818148 
L 763.27912 600.794875 
L 764.517078 647.833997 
L 765.755036 307.158238 
L 766.992994 728.970222 
L 768.230952 603.271066 
L 769.468911 632.80985 
L 770.706869 363.369854 
L 771.944827 674.454869 
L 773.182785 679.980704 
L 774.420744 497.536929 
L 775.658702 669.068661 
L 776.89666 787.063075 
L 778.134618 753.060026 
L 779.372576 702.016063 
L 780.610535 561.630795 
L 781.848493 648.781487 
L 783.086451 584.605577 
L 784.324409 618.624701 
L 785.562368 741.311231 
L 786.800326 573.182756 
L 788.038284 589.792034 
L 789.276242 742.098705 
L 790.514201 722.911798 
L 791.752159 678.140999 
L 792.990117 639.132632 
L 794.228075 586.316436 
L 795.466033 607.096475 
L 796.703992 524.426926 
L 797.94195 642.321644 
L 799.179908 741.414675 
L 800.417866 675.251129 
L 801.655825 462.49717 
L 802.893783 533.194917 
L 804.131741 572.884453 
L 805.369699 692.002037 
L 806.607658 649.001451 
L 807.845616 576.197451 
L 809.083574 595.026368 
L 811.55949 799.47591 
L 812.797449 636.286854 
L 814.035407 586.90838 
L 815.273365 510.587238 
L 816.511323 787.463541 
L 817.749282 555.446078 
L 818.98724 442.444692 
L 820.225198 472.177714 
L 821.463156 526.760469 
L 822.701114 646.490363 
L 823.939073 385.34904 
L 825.177031 665.177084 
L 826.414989 763.638353 
L 827.652947 478.618581 
L 830.128864 723.069733 
L 831.366822 640.006835 
L 832.60478 682.907026 
L 833.842739 497.136224 
L 835.080697 597.642939 
L 836.318655 674.496506 
L 837.556613 379.622685 
L 838.794571 625.747978 
L 840.03253 715.675593 
L 841.270488 664.216443 
L 842.508446 486.218785 
L 843.746404 608.420716 
L 844.984363 674.701516 
L 846.222321 496.16291 
L 847.460279 684.727295 
L 848.698237 693.34361 
L 849.936196 740.93535 
L 851.174154 606.824234 
L 852.412112 609.940999 
L 853.65007 512.103132 
L 854.888028 473.329554 
L 856.125987 683.84707 
L 858.601903 430.578599 
L 859.839861 491.726297 
L 861.07782 702.785229 
L 862.315778 611.841164 
L 863.553736 632.027334 
L 864.791694 603.111652 
L 866.029652 493.849819 
L 867.267611 756.034654 
L 868.505569 761.400621 
L 869.743527 655.222112 
L 870.981485 587.662784 
L 872.219444 819.965697 
L 873.457402 544.411533 
L 874.69536 529.913115 
L 875.933318 370.857712 
L 877.171277 598.519926 
L 878.409235 589.879915 
L 879.647193 623.716826 
L 880.885151 643.219036 
L 882.123109 499.056415 
L 883.361068 656.222781 
L 884.599026 496.508098 
L 885.836984 559.975075 
L 887.074942 465.097272 
L 889.550859 564.21189 
L 890.788817 791.294518 
L 892.026775 604.30042 
L 893.264734 547.382678 
L 894.502692 621.483191 
L 895.74065 671.014614 
L 896.978608 591.843044 
L 898.216566 545.651302 
L 899.454525 694.627284 
L 900.692483 491.208912 
L 901.930441 422.389933 
L 903.168399 495.572493 
L 904.406358 632.794771 
L 905.644316 596.370802 
L 906.882274 467.842166 
L 908.120232 770.64835 
L 909.35819 755.939803 
L 911.834107 705.059206 
L 913.072065 740.228085 
L 914.310023 420.458087 
L 915.547982 493.496596 
L 916.78594 474.958365 
L 918.023898 710.501759 
L 919.261856 683.209796 
L 920.499815 561.995477 
L 921.737773 723.901835 
L 922.975731 603.078745 
L 924.213689 526.859106 
L 925.451647 345.011363 
L 926.689606 692.899925 
L 927.927564 360.002979 
L 929.165522 756.413256 
L 930.40348 483.741325 
L 931.641439 584.948805 
L 932.879397 507.165755 
L 934.117355 587.082705 
L 935.355313 568.711545 
L 936.593272 439.003058 
L 937.83123 714.713137 
L 939.069188 610.710634 
L 940.307146 453.523688 
L 941.545104 650.280655 
L 942.783063 432.916553 
L 944.021021 655.224752 
L 945.258979 393.176713 
L 947.734896 704.035294 
L 948.972854 683.18141 
L 950.210812 610.666986 
L 951.44877 578.833423 
L 952.686728 559.52674 
L 953.924687 493.7885 
L 955.162645 815.577205 
L 956.400603 568.902242 
L 957.638561 665.76503 
L 958.87652 509.939249 
L 960.114478 702.309442 
L 961.352436 749.99102 
L 962.590394 744.448119 
L 963.828353 768.039881 
L 965.066311 543.120749 
L 966.304269 347.097665 
L 967.542227 452.667468 
L 968.780185 749.219878 
L 970.018144 699.346165 
L 971.256102 529.138022 
L 972.49406 484.731432 
L 973.732018 654.126304 
L 974.969977 319.962024 
L 976.207935 441.231864 
L 977.445893 457.083708 
L 978.683851 328.491559 
L 979.92181 613.775431 
L 981.159768 622.851486 
L 982.397726 594.716117 
L 983.635684 747.468893 
L 984.873642 613.925365 
L 987.349559 748.847402 
L 988.587517 590.81228 
L 989.825475 617.658953 
L 991.063434 653.132925 
L 992.301392 676.163186 
L 993.53935 739.650978 
L 994.777308 632.839184 
L 996.015266 751.145898 
L 997.253225 683.41912 
L 998.491183 553.290297 
L 999.729141 641.566186 
L 1000.967099 663.537055 
L 1002.205058 708.874037 
L 1003.443016 374.185543 
L 1004.680974 690.72935 
L 1005.918932 481.159507 
L 1007.156891 415.71813 
L 1008.394849 616.652151 
L 1009.632807 680.950242 
L 1010.870765 711.43034 
L 1012.108723 695.329392 
L 1013.346682 466.399633 
L 1014.58464 547.599949 
L 1015.822598 687.752255 
L 1017.060556 475.532895 
L 1018.298515 593.561141 
L 1019.536473 542.166454 
L 1020.774431 649.793783 
L 1022.012389 670.879337 
L 1023.250348 565.979719 
L 1024.488306 681.794726 
L 1025.726264 256.593212 
L 1026.964222 750.242501 
L 1028.20218 675.909093 
L 1029.440139 638.525979 
L 1030.678097 679.122992 
L 1033.154013 548.975131 
L 1034.391972 746.918469 
L 1035.62993 406.684731 
L 1036.867888 744.306341 
L 1038.105846 716.877773 
L 1039.343804 554.461882 
L 1041.819721 630.481688 
L 1043.057679 576.761939 
L 1044.295637 622.553464 
L 1045.533596 580.638519 
L 1046.771554 611.928319 
L 1048.009512 647.216779 
L 1049.24747 625.911023 
L 1050.485429 613.212013 
L 1051.723387 729.56689 
L 1052.961345 738.844434 
L 1054.199303 611.837084 
L 1055.437261 793.968902 
L 1056.67522 515.276238 
L 1057.913178 291.051995 
L 1060.389094 736.793393 
L 1061.627053 317.240743 
L 1062.865011 575.821957 
L 1064.102969 532.899027 
L 1065.340927 720.154948 
L 1066.578886 663.802628 
L 1067.816844 744.583529 
L 1069.054802 458.714097 
L 1070.29276 606.221026 
L 1071.530718 658.292926 
L 1072.768677 751.522485 
L 1074.006635 675.169155 
L 1075.244593 391.036963 
L 1076.482551 546.900102 
L 1077.72051 475.003996 
L 1078.958468 784.745037 
L 1080.196426 532.010455 
L 1081.434384 627.157531 
L 1082.672342 685.77279 
L 1083.910301 626.024451 
L 1085.148259 750.18169 
L 1086.386217 574.860536 
L 1087.624175 666.141187 
L 1088.862134 772.140959 
L 1090.100092 572.188775 
L 1091.33805 477.811448 
L 1092.576008 610.814637 
L 1093.813967 653.293167 
L 1095.051925 702.795436 
L 1096.289883 502.079821 
L 1097.527841 710.060959 
L 1098.765799 740.648886 
L 1100.003758 561.997566 
L 1101.241716 682.143724 
L 1102.479674 485.42834 
L 1103.717632 618.027142 
L 1104.955591 404.801636 
L 1106.193549 609.033256 
L 1107.431507 533.861377 
L 1108.669465 553.136599 
L 1109.907424 615.623792 
L 1111.145382 149.2092 
L 1112.38334 639.817716 
L 1113.621298 642.250818 
L 1114.859256 464.71156 
L 1116.097215 790.602499 
L 1117.335173 737.613017 
L 1118.573131 284.487033 
L 1119.811089 418.824697 
L 1121.049048 607.436899 
L 1122.287006 549.929458 
L 1123.524964 698.278192 
L 1124.762922 639.717403 
L 1126.00088 669.331976 
L 1127.238839 374.320898 
L 1128.476797 677.515152 
L 1129.714755 495.07855 
L 1130.952713 588.679195 
L 1132.190672 740.944007 
L 1133.42863 641.160113 
L 1134.666588 753.39532 
L 1135.904546 670.699162 
L 1137.142505 607.460208 
L 1138.380463 593.409758 
L 1139.618421 367.965585 
L 1140.856379 533.824746 
L 1142.094337 654.502614 
L 1143.332296 429.59584 
L 1144.570254 620.987077 
L 1145.808212 682.913304 
L 1147.04617 579.88344 
L 1148.284129 782.22961 
L 1149.522087 430.128046 
L 1150.760045 389.581471 
L 1151.998003 654.508014 
L 1153.235962 542.715773 
L 1154.47392 700.368085 
L 1155.711878 655.62099 
L 1156.949836 728.96023 
L 1158.187794 467.783498 
L 1159.425753 524.932196 
L 1160.663711 670.208425 
L 1161.901669 656.565922 
L 1163.139627 599.742199 
L 1164.377586 410.735953 
L 1165.615544 685.798267 
L 1166.853502 702.683203 
L 1168.09146 578.788069 
L 1169.329418 621.429571 
L 1170.567377 501.379416 
L 1171.805335 552.983763 
L 1173.043293 526.629233 
L 1174.281251 594.925442 
L 1175.51921 624.790551 
L 1176.757168 494.023211 
L 1177.995126 587.138566 
L 1179.233084 535.220067 
L 1180.471043 425.737247 
L 1181.709001 726.347575 
L 1182.946959 611.97062 
L 1184.184917 466.162434 
L 1185.422875 702.358146 
L 1186.660834 348.582777 
L 1187.898792 448.86886 
L 1189.13675 593.940118 
L 1190.374708 560.826242 
L 1191.612667 648.69956 
L 1192.850625 674.369569 
L 1194.088583 751.23524 
L 1195.326541 571.352456 
L 1196.5645 768.507395 
L 1197.802458 625.344271 
L 1199.040416 508.40924 
L 1200.278374 484.071371 
L 1201.516332 390.725296 
L 1202.754291 485.344574 
L 1203.992249 460.136718 
L 1205.230207 814.998911 
L 1206.468165 558.289052 
L 1207.706124 636.64183 
L 1208.944082 527.440481 
L 1210.18204 510.474759 
L 1211.419998 526.72529 
L 1212.657956 746.103949 
L 1213.895915 768.852211 
L 1215.133873 518.606053 
L 1216.371831 680.51211 
L 1217.609789 391.321866 
L 1218.847748 497.093217 
L 1220.085706 682.511053 
L 1221.323664 770.419152 
L 1222.561622 459.025003 
L 1223.799581 624.14512 
L 1225.037539 443.147982 
L 1226.275497 631.906496 
L 1227.513455 603.942544 
L 1228.751413 429.060905 
L 1231.22733 527.759974 
L 1232.465288 557.329966 
L 1233.703246 557.476374 
L 1234.941205 577.402927 
L 1236.179163 722.124905 
L 1237.417121 537.516314 
L 1238.655079 747.690033 
L 1239.893038 514.66043 
L 1241.130996 766.114309 
L 1242.368954 442.189525 
L 1244.84487 691.367573 
L 1246.082829 534.360126 
L 1247.320787 441.075194 
L 1248.558745 334.673562 
L 1249.796703 598.845147 
L 1251.034662 788.284317 
L 1252.27262 386.886334 
L 1253.510578 518.384604 
L 1254.748536 586.337145 
L 1255.986494 523.731253 
L 1257.224453 513.262649 
L 1258.462411 646.002725 
L 1260.938327 725.986005 
L 1262.176286 647.730861 
L 1263.414244 712.755412 
L 1264.652202 557.100701 
L 1265.89016 601.658201 
L 1267.128119 590.504575 
L 1268.366077 665.668254 
L 1269.604035 613.434987 
L 1270.841993 652.596686 
L 1272.079951 489.418071 
L 1273.31791 625.101582 
L 1274.555868 496.062008 
L 1275.793826 620.092227 
L 1277.031784 459.291286 
L 1278.269743 703.053371 
L 1279.507701 670.108924 
L 1280.745659 500.184673 
L 1281.983617 457.100322 
L 1283.221576 459.278229 
L 1284.459534 798.554892 
L 1285.697492 607.745916 
L 1286.93545 456.226489 
L 1288.173408 598.415893 
L 1289.411367 522.73067 
L 1290.649325 627.984292 
L 1291.887283 798.329321 
L 1293.125241 729.502924 
L 1294.3632 531.681486 
L 1295.601158 459.720403 
L 1296.839116 582.419256 
L 1298.077074 623.902385 
L 1299.315032 404.703307 
L 1300.552991 559.901808 
L 1301.790949 524.062037 
L 1303.028907 454.620597 
L 1304.266865 505.669148 
L 1305.504824 478.836007 
L 1306.742782 626.6577 
L 1309.218698 712.284002 
L 1310.456657 692.727271 
L 1311.694615 723.82261 
L 1312.932573 442.965727 
L 1314.170531 477.338515 
L 1315.408489 408.167043 
L 1316.646448 703.62498 
L 1319.122364 768.281784 
L 1320.360322 603.874403 
L 1321.598281 790.700395 
L 1322.836239 686.879121 
L 1324.074197 493.270076 
L 1325.312155 545.529823 
L 1326.550114 394.013594 
L 1327.788072 638.143559 
L 1329.02603 600.591114 
L 1330.263988 658.16937 
L 1331.501946 645.8562 
L 1332.739905 649.12238 
L 1333.977863 441.943717 
L 1335.215821 777.295247 
L 1336.453779 657.451285 
L 1337.691738 643.227907 
L 1338.929696 387.363621 
L 1340.167654 714.204736 
L 1341.405612 590.960851 
L 1342.643571 513.211305 
L 1343.881529 491.899669 
L 1345.119487 570.910884 
L 1346.357445 621.808274 
L 1347.595403 563.945365 
L 1348.833362 409.292201 
L 1350.07132 703.631048 
L 1351.309278 572.900289 
L 1352.547236 653.254779 
L 1353.785195 638.838311 
L 1355.023153 539.494112 
L 1356.261111 711.513688 
L 1357.499069 392.535003 
L 1358.737027 632.433017 
L 1359.974986 748.56574 
L 1361.212944 675.574135 
L 1362.450902 643.689713 
L 1363.68886 606.392524 
L 1364.926819 688.285687 
L 1367.402735 468.724878 
L 1368.640693 443.421664 
L 1369.878652 460.901613 
L 1371.11661 684.887802 
L 1372.354568 512.755505 
L 1374.830484 700.2168 
L 1376.068443 666.602309 
L 1377.306401 619.032867 
L 1378.544359 617.120781 
L 1379.782317 507.529508 
L 1381.020276 590.232186 
L 1382.258234 477.568416 
L 1383.496192 568.979647 
L 1384.73415 410.562994 
L 1385.972109 658.486336 
L 1387.210067 637.109746 
L 1388.448025 629.039584 
L 1389.685983 349.835547 
L 1390.923941 638.016591 
L 1392.1619 441.025088 
L 1393.399858 734.403279 
L 1394.637816 610.326992 
L 1395.875774 624.683323 
L 1397.113733 801.527712 
L 1398.351691 477.318903 
L 1399.589649 493.867971 
L 1400.827607 602.230763 
L 1403.303524 662.84082 
L 1404.541482 456.206444 
L 1405.77944 630.495252 
L 1407.017398 502.557974 
L 1408.255357 691.042693 
L 1409.493315 642.728612 
L 1410.731273 507.349162 
L 1411.969231 612.761577 
L 1413.20719 600.94169 
L 1414.445148 621.910664 
L 1415.683106 489.567087 
L 1416.921064 716.855702 
L 1418.159022 587.335092 
L 1419.396981 572.547679 
L 1420.634939 486.232353 
L 1421.872897 424.79005 
L 1423.110855 516.331709 
L 1424.348814 711.384447 
L 1425.586772 561.488177 
L 1426.82473 694.795339 
L 1428.062688 561.284647 
L 1429.300647 528.58955 
L 1430.538605 728.790223 
L 1431.776563 532.45125 
L 1433.014521 523.544996 
L 1434.252479 724.315331 
L 1435.490438 646.416073 
L 1436.728396 614.208765 
L 1437.966354 562.741303 
L 1439.204312 575.411874 
L 1440.442271 652.846425 
L 1441.680229 538.907392 
L 1442.918187 791.831246 
L 1444.156145 388.660273 
L 1445.394103 709.50316 
L 1446.632062 618.963758 
L 1447.87002 545.838231 
L 1449.107978 665.449004 
L 1450.345936 576.953467 
L 1451.583895 718.821801 
L 1452.821853 673.258807 
L 1454.059811 558.948629 
L 1455.297769 434.279386 
L 1456.535728 630.397368 
L 1457.773686 408.41446 
L 1459.011644 741.384392 
L 1460.249602 616.958739 
L 1461.48756 667.086737 
L 1462.725519 472.84378 
L 1463.963477 500.242338 
L 1465.201435 786.899463 
L 1466.439393 527.788968 
L 1467.677352 710.831305 
L 1468.91531 547.5521 
L 1470.153268 445.483871 
L 1471.391226 739.136443 
L 1472.629185 599.181944 
L 1473.867143 682.619991 
L 1475.105101 571.332661 
L 1476.343059 651.510467 
L 1477.581017 718.916851 
L 1478.818976 583.261607 
L 1480.056934 260.004337 
L 1481.294892 643.346774 
L 1482.53285 558.748866 
L 1483.770809 706.832157 
L 1485.008767 403.344425 
L 1486.246725 321.169842 
L 1487.484683 666.666061 
L 1488.722641 767.891411 
L 1489.9606 559.583456 
L 1491.198558 469.596528 
L 1492.436516 688.708565 
L 1493.674474 540.936977 
L 1494.912433 682.67805 
L 1496.150391 476.672757 
L 1497.388349 535.312075 
L 1498.626307 536.719657 
L 1499.864266 635.006397 
L 1501.102224 659.670533 
L 1502.340182 755.755026 
L 1503.57814 784.725999 
L 1504.816098 721.923202 
L 1506.054057 445.343265 
L 1507.292015 744.187986 
L 1508.529973 664.420419 
L 1509.767931 636.827053 
L 1511.00589 498.398771 
L 1512.243848 794.533004 
L 1513.481806 489.471198 
L 1514.719764 664.952422 
L 1515.957723 598.876952 
L 1517.195681 567.989923 
L 1518.433639 557.633138 
L 1519.671597 568.466826 
L 1520.909555 441.206461 
L 1522.147514 576.374962 
L 1523.385472 604.182979 
L 1524.62343 736.74328 
L 1525.861388 653.484442 
L 1527.099347 559.609955 
L 1528.337305 678.553323 
L 1529.575263 758.384458 
L 1530.813221 614.981902 
L 1532.051179 510.961384 
L 1533.289138 481.204951 
L 1534.527096 604.683122 
L 1535.765054 809.376129 
L 1538.240971 567.319277 
L 1539.478929 302.002438 
L 1540.716887 628.488878 
L 1541.954845 533.905798 
L 1544.430762 774.441759 
L 1545.66872 647.602194 
L 1546.906678 663.870338 
L 1548.144636 742.338391 
L 1549.382595 684.727767 
L 1550.620553 708.912922 
L 1551.858511 635.403736 
L 1553.096469 679.535961 
L 1554.334428 614.065968 
L 1555.572386 475.974936 
L 1556.810344 678.072164 
L 1558.048302 585.446867 
L 1559.286261 523.001404 
L 1560.524219 575.996829 
L 1561.762177 453.540673 
L 1563.000135 600.604928 
L 1564.238093 567.801666 
L 1565.476052 588.658861 
L 1566.71401 517.054518 
L 1567.951968 625.463985 
L 1569.189926 343.016414 
L 1570.427885 547.253004 
L 1571.665843 624.761014 
L 1572.903801 578.413278 
L 1575.379717 405.923358 
L 1576.617676 662.126499 
L 1577.855634 636.806699 
L 1579.093592 689.806524 
L 1580.33155 512.833629 
L 1581.569509 693.032649 
L 1582.807467 591.319388 
L 1584.045425 426.322691 
L 1585.283383 656.32432 
L 1586.521342 622.778309 
L 1587.7593 651.547305 
L 1588.997258 598.454644 
L 1590.235216 765.54546 
L 1591.473174 732.576357 
L 1592.711133 738.999135 
L 1593.949091 638.120078 
L 1593.949091 638.120078 
" style="fill:none;stroke:#1f77b4;stroke-linecap:square;stroke-width:1.5;"/>
   </g>
   <g id="line2d_20">
    <path clip-path="url(#pac28ebe25c)" d="M 295.330909 782.25283 
L 296.568867 773.144599 
L 297.806826 717.372321 
L 299.044784 762.873118 
L 300.282742 800.004973 
L 301.5207 737.906736 
L 302.758658 775.996354 
L 303.996617 758.827136 
L 305.234575 732.710639 
L 306.472533 807.652519 
L 307.710491 800.566197 
L 308.94845 772.979386 
L 310.186408 792.008113 
L 311.424366 782.198016 
L 312.662324 654.384048 
L 313.900283 739.34077 
L 315.138241 741.094359 
L 316.376199 776.43305 
L 317.614157 735.247622 
L 318.852115 763.414796 
L 320.090074 771.537532 
L 321.328032 734.596147 
L 322.56599 783.449373 
L 323.803948 775.769557 
L 325.041907 749.942387 
L 326.279865 757.887552 
L 327.517823 737.151973 
L 328.755781 705.663226 
L 329.993739 793.688813 
L 331.231698 708.674372 
L 332.469656 775.924282 
L 333.707614 713.97694 
L 334.945572 688.968675 
L 336.183531 771.84656 
L 337.421489 772.805959 
L 338.659447 779.214154 
L 339.897405 733.039108 
L 341.135364 820.454205 
L 342.373322 772.540168 
L 343.61128 772.0984 
L 344.849238 785.59264 
L 346.087196 801.899239 
L 348.563113 635.690244 
L 349.801071 735.399653 
L 351.039029 746.471079 
L 352.276988 744.873859 
L 353.514946 737.408323 
L 354.752904 771.068019 
L 355.990862 734.324933 
L 357.228821 775.717608 
L 358.466779 716.816126 
L 359.704737 791.011614 
L 360.942695 773.68869 
L 362.180653 778.234366 
L 363.418612 790.090256 
L 364.65657 811.541535 
L 365.894528 718.665249 
L 367.132486 787.047535 
L 368.370445 779.181739 
L 369.608403 783.316294 
L 370.846361 777.085009 
L 372.084319 729.933134 
L 373.322277 804.130657 
L 374.560236 736.650276 
L 375.798194 784.059597 
L 377.036152 704.112493 
L 378.27411 677.717344 
L 379.512069 783.039547 
L 380.750027 794.920305 
L 381.987985 784.200957 
L 383.225943 776.255425 
L 384.463902 727.847848 
L 385.70186 776.457074 
L 386.939818 781.580935 
L 388.177776 815.123904 
L 389.415734 806.144738 
L 390.653693 792.922997 
L 391.891651 811.58307 
L 393.129609 789.299736 
L 394.367567 699.079039 
L 395.605526 750.128605 
L 396.843484 792.169487 
L 399.3194 733.670322 
L 400.557359 803.261306 
L 401.795317 787.00714 
L 403.033275 805.70201 
L 404.271233 777.225873 
L 405.509191 780.325525 
L 406.74715 788.46815 
L 407.985108 719.175969 
L 409.223066 776.458846 
L 410.461024 767.898072 
L 411.698983 755.413586 
L 412.936941 707.834289 
L 414.174899 789.349643 
L 415.412857 761.213185 
L 416.650815 800.492977 
L 417.888774 767.654614 
L 419.126732 771.422163 
L 420.36469 723.967699 
L 421.602648 810.084718 
L 422.840607 799.14978 
L 424.078565 802.297897 
L 425.316523 810.895752 
L 426.554481 792.359325 
L 427.79244 778.582455 
L 429.030398 726.330958 
L 430.268356 746.440074 
L 431.506314 733.640172 
L 432.744272 767.738017 
L 433.982231 753.199684 
L 435.220189 763.932681 
L 436.458147 812.995411 
L 437.696105 751.085118 
L 438.934064 760.444924 
L 440.172022 794.164382 
L 441.40998 770.651708 
L 442.647938 785.224623 
L 443.885897 764.131374 
L 445.123855 810.81625 
L 446.361813 709.593887 
L 448.837729 788.46259 
L 450.075688 789.832095 
L 451.313646 752.403858 
L 452.551604 781.875333 
L 453.789562 762.232981 
L 455.027521 809.220514 
L 456.265479 780.635736 
L 457.503437 733.823466 
L 458.741395 748.562449 
L 461.217312 762.948517 
L 462.45527 788.722165 
L 463.693228 777.154851 
L 464.931186 749.828092 
L 466.169145 787.329654 
L 467.407103 759.91779 
L 468.645061 767.382202 
L 469.883019 789.666801 
L 471.120978 765.157402 
L 472.358936 712.568616 
L 473.596894 759.922069 
L 474.834852 772.448055 
L 476.07281 704.317319 
L 478.548727 746.1945 
L 479.786685 781.041337 
L 481.024643 732.770923 
L 482.262602 746.75818 
L 483.50056 806.903319 
L 484.738518 772.480778 
L 485.976476 767.289132 
L 487.214435 781.430122 
L 488.452393 749.933703 
L 489.690351 756.816889 
L 490.928309 809.906204 
L 492.166267 767.246663 
L 493.404226 778.457782 
L 494.642184 738.228751 
L 495.880142 717.363462 
L 497.1181 719.317021 
L 498.356059 732.169269 
L 499.594017 704.413376 
L 500.831975 753.795103 
L 502.069933 755.645655 
L 503.307891 765.483516 
L 504.54585 787.281333 
L 505.783808 800.424563 
L 507.021766 732.861018 
L 508.259724 762.895557 
L 509.497683 719.214771 
L 510.735641 793.693003 
L 511.973599 804.306559 
L 513.211557 782.440958 
L 514.449516 781.123463 
L 515.687474 715.041641 
L 516.925432 725.685703 
L 518.16339 768.024263 
L 519.401348 802.349889 
L 520.639307 744.499892 
L 521.877265 799.029617 
L 523.115223 774.944502 
L 524.353181 776.598356 
L 525.59114 803.581185 
L 526.829098 773.523079 
L 528.067056 755.677749 
L 529.305014 712.612565 
L 531.780931 814.748449 
L 533.018889 813.245365 
L 534.256847 768.359416 
L 535.494805 788.303617 
L 536.732764 701.763621 
L 537.970722 782.490255 
L 539.20868 789.019948 
L 540.446638 787.712672 
L 541.684597 749.448526 
L 542.922555 697.605012 
L 544.160513 767.022521 
L 545.398471 753.183153 
L 546.636429 677.117927 
L 549.112346 775.076773 
L 550.350304 708.224507 
L 551.588262 741.013623 
L 552.826221 701.780305 
L 554.064179 767.574652 
L 555.302137 732.603122 
L 556.540095 726.396627 
L 557.778054 790.992924 
L 559.016012 739.418035 
L 560.25397 744.538378 
L 561.491928 748.14638 
L 562.729886 770.369222 
L 563.967845 744.450306 
L 565.205803 771.794674 
L 566.443761 802.815251 
L 567.681719 774.992105 
L 570.157636 740.982824 
L 571.395594 750.764778 
L 572.633552 777.259565 
L 573.871511 712.865842 
L 576.347427 766.002963 
L 577.585385 742.379024 
L 578.823343 790.213929 
L 580.061302 749.163955 
L 581.29926 777.169325 
L 582.537218 772.706048 
L 583.775176 815.541585 
L 585.013135 795.01489 
L 586.251093 768.877164 
L 587.489051 770.453523 
L 588.727009 717.297575 
L 589.964968 809.889477 
L 591.202926 769.629725 
L 592.440884 769.101369 
L 593.678842 750.035585 
L 594.9168 750.38458 
L 596.154759 715.220839 
L 597.392717 777.166514 
L 598.630675 713.947055 
L 599.868633 796.628473 
L 601.106592 799.222976 
L 602.34455 740.720942 
L 603.582508 753.522823 
L 604.820466 762.480324 
L 606.058424 775.233532 
L 607.296383 801.306299 
L 608.534341 742.468381 
L 609.772299 754.679966 
L 611.010257 779.608424 
L 612.248216 740.676494 
L 613.486174 780.395981 
L 614.724132 764.737394 
L 615.96209 760.031093 
L 617.200049 789.155323 
L 618.438007 802.508198 
L 619.675965 754.334185 
L 620.913923 801.65625 
L 622.151881 792.714332 
L 623.38984 777.409589 
L 624.627798 774.035845 
L 625.865756 795.188844 
L 627.103714 757.844525 
L 628.341673 760.729679 
L 629.579631 773.105496 
L 630.817589 805.930548 
L 632.055547 802.614075 
L 633.293506 767.344821 
L 634.531464 781.302228 
L 635.769422 719.40088 
L 637.00738 799.438271 
L 638.245338 755.808306 
L 639.483297 726.87437 
L 640.721255 810.281975 
L 641.959213 807.666883 
L 643.197171 682.663674 
L 644.43513 803.968349 
L 645.673088 670.864765 
L 646.911046 704.738573 
L 648.149004 794.005627 
L 649.386962 753.808538 
L 650.624921 767.992633 
L 651.862879 788.742624 
L 653.100837 804.10247 
L 654.338795 696.489459 
L 655.576754 782.046172 
L 656.814712 704.188754 
L 658.05267 671.694927 
L 659.290628 768.609293 
L 660.528587 683.702177 
L 661.766545 780.657301 
L 663.004503 774.445023 
L 664.242461 722.357692 
L 665.480419 791.159194 
L 666.718378 767.048946 
L 667.956336 676.175676 
L 669.194294 799.10236 
L 670.432252 777.020156 
L 671.670211 764.633442 
L 672.908169 733.740841 
L 674.146127 738.239047 
L 675.384085 724.89503 
L 676.622044 809.751127 
L 677.860002 778.764195 
L 679.09796 788.406014 
L 680.335918 821.227697 
L 681.573876 752.086552 
L 682.811835 760.476246 
L 684.049793 787.789066 
L 685.287751 691.175698 
L 686.525709 778.42044 
L 687.763668 763.67343 
L 689.001626 755.927641 
L 690.239584 727.142761 
L 691.477542 779.237674 
L 692.7155 772.061086 
L 693.953459 797.476345 
L 695.191417 782.304907 
L 696.429375 775.397585 
L 697.667333 705.519879 
L 698.905292 765.987353 
L 700.14325 791.975921 
L 701.381208 783.759498 
L 702.619166 707.524909 
L 703.857125 740.316126 
L 705.095083 748.596874 
L 706.333041 739.920399 
L 707.570999 798.826848 
L 708.808957 788.875289 
L 710.046916 738.960806 
L 711.284874 739.740299 
L 712.522832 762.096595 
L 713.76079 797.777428 
L 716.236707 764.511307 
L 717.474665 792.001885 
L 718.712623 746.357686 
L 719.950582 802.903499 
L 721.18854 780.993848 
L 722.426498 783.759975 
L 723.664456 737.353489 
L 724.902414 768.772904 
L 726.140373 722.545515 
L 727.378331 773.846406 
L 728.616289 738.440594 
L 729.854247 729.017723 
L 731.092206 756.352362 
L 732.330164 739.98246 
L 733.568122 748.57303 
L 734.80608 809.788169 
L 736.044038 734.308155 
L 737.281997 781.838924 
L 738.519955 782.731299 
L 739.757913 781.640911 
L 740.995871 736.869487 
L 742.23383 761.520367 
L 743.471788 801.375365 
L 744.709746 705.912529 
L 745.947704 803.831498 
L 747.185663 783.154416 
L 748.423621 786.558094 
L 749.661579 726.412674 
L 750.899537 724.545099 
L 752.137495 752.401062 
L 753.375454 777.22496 
L 754.613412 759.998459 
L 755.85137 770.12033 
L 757.089328 758.980701 
L 758.327287 780.931568 
L 759.565245 753.885034 
L 760.803203 809.909604 
L 762.041161 720.226196 
L 763.27912 764.669714 
L 764.517078 777.295587 
L 765.755036 686.721479 
L 766.992994 798.913823 
L 768.230952 765.65505 
L 769.468911 773.479685 
L 770.706869 702.106743 
L 771.944827 784.485958 
L 773.182785 785.970898 
L 774.420744 737.859375 
L 775.658702 783.238377 
L 776.89666 814.29881 
L 778.134618 805.253522 
L 779.372576 791.675111 
L 780.610535 754.276739 
L 781.848493 777.495342 
L 783.086451 759.893414 
L 784.324409 768.979457 
L 785.562368 802.019761 
L 786.800326 757.075237 
L 788.038284 761.515271 
L 789.276242 802.30858 
L 790.514201 797.315108 
L 791.752159 785.659 
L 792.990117 775.526931 
L 794.228075 761.888137 
L 795.466033 767.329363 
L 796.703992 745.682453 
L 797.94195 776.788752 
L 799.179908 802.540613 
L 800.417866 785.505614 
L 801.655825 729.802285 
L 802.893783 748.169385 
L 804.131741 758.535978 
L 805.369699 789.648547 
L 806.607658 778.44699 
L 807.845616 759.291159 
L 809.083574 764.258241 
L 811.55949 817.712281 
L 812.797449 775.038435 
L 814.035407 762.125992 
L 815.273365 741.916399 
L 816.511323 814.481112 
L 817.749282 753.178327 
L 818.98724 723.503816 
L 820.225198 731.278663 
L 821.463156 745.683105 
L 822.701114 777.279942 
L 823.939073 708.620635 
L 825.177031 782.37133 
L 826.414989 808.256305 
L 827.652947 734.203509 
L 830.128864 797.703041 
L 831.366822 775.958258 
L 832.60478 787.108441 
L 833.842739 738.282288 
L 835.080697 764.585612 
L 836.318655 784.796517 
L 837.556613 706.800644 
L 838.794571 771.782504 
L 840.03253 795.525141 
L 841.270488 781.879749 
L 842.508446 734.68657 
L 843.746404 766.760635 
L 844.984363 784.782063 
L 846.222321 737.774817 
L 847.460279 787.441462 
L 848.698237 789.710944 
L 849.936196 802.248034 
L 851.174154 767.143098 
L 852.412112 768.091818 
L 853.65007 742.724196 
L 854.888028 732.487527 
L 856.125987 787.500337 
L 858.601903 721.680018 
L 859.839861 737.124396 
L 861.07782 792.406127 
L 862.315778 768.608125 
L 863.553736 773.854839 
L 864.791694 766.282911 
L 866.029652 737.671349 
L 867.267611 806.240834 
L 868.505569 807.661507 
L 869.743527 779.667643 
L 870.981485 761.765167 
L 872.219444 823.0572 
L 873.457402 750.138054 
L 874.69536 746.301376 
L 875.933318 704.252232 
L 877.171277 764.439223 
L 878.409235 762.517732 
L 879.647193 771.48964 
L 880.885151 776.698508 
L 882.123109 738.878418 
L 883.361068 780.109953 
L 884.599026 738.209884 
L 885.836984 755.061262 
L 887.074942 730.993674 
L 889.550859 756.592016 
L 890.788817 815.623582 
L 892.026775 767.013283 
L 893.264734 751.884556 
L 894.502692 771.078432 
L 895.74065 784.052585 
L 896.978608 763.530575 
L 898.216566 751.47416 
L 899.454525 790.358085 
L 900.692483 737.264261 
L 901.930441 719.206068 
L 903.168399 738.430044 
L 904.406358 774.345448 
L 905.644316 764.601968 
L 906.882274 731.184769 
L 908.120232 810.203109 
L 909.35819 806.364862 
L 911.834107 793.197311 
L 913.072065 802.229336 
L 914.310023 719.431956 
L 915.547982 738.376397 
L 916.78594 733.566644 
L 918.023898 794.678491 
L 919.261856 787.675221 
L 920.499815 756.284085 
L 921.737773 798.258006 
L 922.975731 766.647851 
L 924.213689 746.692601 
L 925.451647 699.304333 
L 926.689606 789.961695 
L 927.927564 703.248858 
L 929.165522 806.595267 
L 930.40348 735.856843 
L 931.641439 762.031169 
L 932.879397 741.383748 
L 934.117355 762.254151 
L 935.355313 757.456502 
L 936.593272 722.919295 
L 937.83123 795.311416 
L 939.069188 768.092177 
L 940.307146 726.523345 
L 941.545104 778.100268 
L 942.783063 720.512747 
L 944.021021 779.410137 
L 945.258979 709.914621 
L 947.734896 792.334204 
L 948.972854 786.799033 
L 950.210812 767.9685 
L 951.44877 759.588821 
L 952.686728 754.506644 
L 953.924687 737.44864 
L 955.162645 821.914683 
L 956.400603 756.468472 
L 957.638561 782.158112 
L 958.87652 740.060901 
L 960.114478 791.551852 
L 961.352436 804.314587 
L 962.590394 802.840076 
L 963.828353 809.217691 
L 965.066311 749.075121 
L 966.304269 696.391668 
L 967.542227 724.917161 
L 968.780185 804.145696 
L 970.018144 790.821167 
L 971.256102 745.689211 
L 972.49406 733.883954 
L 973.732018 778.967026 
L 974.969977 690.388571 
L 976.207935 723.015922 
L 977.445893 727.203217 
L 978.683851 693.235351 
L 979.92181 768.910391 
L 981.159768 771.283072 
L 982.397726 763.562286 
L 983.635684 803.926138 
L 984.873642 768.631778 
L 987.349559 804.272638 
L 988.587517 762.544157 
L 989.825475 769.879051 
L 991.063434 779.080517 
L 992.301392 785.071421 
L 993.53935 801.850984 
L 994.777308 773.645382 
L 996.015266 804.886427 
L 997.253225 787.127143 
L 998.491183 753.312647 
L 999.729141 776.366475 
L 1000.967099 782.224675 
L 1002.205058 794.186165 
L 1003.443016 707.147834 
L 1004.680974 789.467498 
L 1005.918932 735.059936 
L 1007.156891 718.089399 
L 1008.394849 770.768369 
L 1009.632807 787.285031 
L 1010.870765 795.067404 
L 1012.108723 790.911141 
L 1013.346682 731.815718 
L 1014.58464 752.299793 
L 1015.822598 788.82564 
L 1017.060556 733.703971 
L 1018.298515 764.446657 
L 1019.536473 751.321344 
L 1020.774431 779.124121 
L 1022.012389 784.571036 
L 1023.250348 757.478062 
L 1024.488306 787.560032 
L 1025.726264 679.67834 
L 1026.964222 805.349603 
L 1028.20218 786.347145 
L 1029.440139 776.810394 
L 1030.678097 787.167038 
L 1033.154013 753.984902 
L 1034.391972 804.531381 
L 1035.62993 718.130993 
L 1036.867888 803.86631 
L 1038.105846 796.893241 
L 1039.343804 755.602815 
L 1041.819721 775.194269 
L 1043.057679 761.67089 
L 1044.295637 773.406485 
L 1045.533596 763.010152 
L 1046.771554 770.868159 
L 1048.009512 779.730375 
L 1049.24747 774.458376 
L 1050.485429 770.646152 
L 1051.723387 800.116093 
L 1052.961345 802.466714 
L 1054.199303 770.154783 
L 1055.437261 816.486967 
L 1056.67522 745.590843 
L 1057.913178 688.423072 
L 1060.389094 801.971557 
L 1061.627053 694.586627 
L 1062.865011 760.679628 
L 1064.102969 749.706387 
L 1065.340927 797.578337 
L 1066.578886 783.479784 
L 1067.816844 803.930089 
L 1069.054802 731.100296 
L 1070.29276 768.738815 
L 1071.530718 782.682869 
L 1072.768677 806.000168 
L 1074.006635 786.903719 
L 1075.244593 715.44618 
L 1076.482551 754.60185 
L 1077.72051 737.078577 
L 1078.958468 814.351329 
L 1080.196426 751.129882 
L 1081.434384 774.916652 
L 1082.672342 789.570466 
L 1083.910301 774.814761 
L 1085.148259 805.742713 
L 1086.386217 761.295397 
L 1087.624175 784.131052 
L 1088.862134 810.997194 
L 1090.100092 760.373824 
L 1091.33805 736.479621 
L 1092.576008 770.025534 
L 1093.813967 780.780193 
L 1095.051925 793.227395 
L 1096.289883 741.888463 
L 1097.527841 794.879499 
L 1098.765799 802.731013 
L 1100.003758 756.873597 
L 1101.241716 787.707901 
L 1102.479674 737.165697 
L 1103.717632 770.817409 
L 1104.955591 715.251411 
L 1106.193549 768.008563 
L 1107.431507 748.385027 
L 1108.669465 753.416802 
L 1109.907424 769.872175 
L 1111.145382 648.732244 
L 1112.38334 776.2213 
L 1113.621298 776.859051 
L 1114.859256 730.874217 
L 1116.097215 815.457503 
L 1117.335173 801.70436 
L 1118.573131 684.348287 
L 1119.811089 718.578102 
L 1121.049048 767.394715 
L 1122.287006 752.188739 
L 1123.524964 791.126436 
L 1124.762922 775.755747 
L 1126.00088 783.528804 
L 1127.238839 706.740227 
L 1128.476797 786.074635 
L 1129.714755 738.695913 
L 1130.952713 763.201278 
L 1132.190672 802.708711 
L 1133.42863 776.977949 
L 1134.666588 805.919467 
L 1135.904546 784.595032 
L 1137.142505 768.463177 
L 1138.380463 765.017162 
L 1139.618421 706.736592 
L 1140.856379 749.274821 
L 1142.094337 780.40384 
L 1143.332296 722.388834 
L 1144.570254 771.784136 
L 1145.808212 787.755898 
L 1147.04617 761.106922 
L 1148.284129 813.375137 
L 1149.522087 723.226551 
L 1150.760045 712.83958 
L 1151.998003 780.706817 
L 1153.235962 752.074116 
L 1154.47392 792.550545 
L 1155.711878 781.229535 
L 1156.949836 799.935966 
L 1158.187794 732.89861 
L 1159.425753 747.534484 
L 1160.663711 784.739961 
L 1161.901669 780.867937 
L 1163.139627 766.098563 
L 1164.377586 716.968079 
L 1165.615544 788.229061 
L 1166.853502 792.781078 
L 1168.09146 760.77014 
L 1169.329418 771.787478 
L 1170.567377 740.785053 
L 1171.805335 754.023306 
L 1173.043293 746.896491 
L 1174.281251 764.211474 
L 1175.51921 772.127422 
L 1176.757168 737.994316 
L 1177.995126 762.299439 
L 1179.233084 748.550204 
L 1180.471043 720.145765 
L 1181.709001 798.615992 
L 1182.946959 768.781143 
L 1184.184917 730.924065 
L 1185.422875 792.442977 
L 1186.660834 700.299578 
L 1187.898792 726.65603 
L 1189.13675 764.004121 
L 1190.374708 755.350518 
L 1191.612667 778.314329 
L 1192.850625 784.776597 
L 1194.088583 804.990043 
L 1195.326541 757.686079 
L 1196.5645 809.512847 
L 1197.802458 771.847212 
L 1199.040416 741.074836 
L 1200.278374 735.169006 
L 1201.516332 709.68661 
L 1202.754291 734.677836 
L 1203.992249 728.019835 
L 1205.230207 821.747468 
L 1206.468165 754.426849 
L 1207.706124 775.144081 
L 1208.944082 746.638021 
L 1210.18204 741.837225 
L 1211.419998 746.102344 
L 1212.657956 803.680533 
L 1213.895915 809.619735 
L 1215.133873 743.741275 
L 1216.371831 786.333203 
L 1217.609789 710.421019 
L 1218.847748 738.71982 
L 1220.085706 787.160877 
L 1221.323664 810.127175 
L 1222.561622 728.791808 
L 1223.799581 771.80998 
L 1225.037539 724.706993 
L 1226.275497 774.19875 
L 1227.513455 767.300189 
L 1228.751413 722.140308 
L 1231.22733 747.861969 
L 1232.465288 755.522185 
L 1233.703246 755.533363 
L 1234.941205 760.89454 
L 1236.179163 797.912799 
L 1237.417121 750.411618 
L 1238.655079 804.4909 
L 1239.893038 744.343714 
L 1241.130996 809.150449 
L 1242.368954 725.395341 
L 1243.606912 759.27943 
L 1244.84487 790.114374 
L 1246.082829 749.851925 
L 1247.320787 725.930257 
L 1248.558745 698.789673 
L 1249.796703 766.408977 
L 1251.034662 814.992785 
L 1252.27262 712.326795 
L 1253.510578 746.141396 
L 1254.748536 763.481094 
L 1255.986494 747.50572 
L 1257.224453 745.355292 
L 1258.462411 779.127987 
L 1260.938327 799.390223 
L 1262.176286 779.807117 
L 1263.414244 796.156446 
L 1264.652202 757.019689 
L 1265.89016 768.013956 
L 1267.128119 765.12309 
L 1268.366077 783.95417 
L 1269.604035 770.48616 
L 1270.841993 780.202543 
L 1272.079951 738.386533 
L 1273.31791 773.156671 
L 1274.555868 739.614573 
L 1275.793826 771.212077 
L 1277.031784 729.344357 
L 1278.269743 792.489557 
L 1279.507701 783.51934 
L 1280.745659 738.683262 
L 1281.983617 727.31506 
L 1283.221576 728.291962 
L 1284.459534 817.461788 
L 1285.697492 768.162297 
L 1286.93545 729.987082 
L 1288.173408 766.624944 
L 1289.411367 747.332746 
L 1290.649325 774.161943 
L 1291.887283 817.783045 
L 1293.125241 800.938013 
L 1294.3632 755.220774 
L 1295.601158 738.214671 
L 1296.839116 767.492608 
L 1298.077074 777.218103 
L 1299.315032 725.828062 
L 1300.552991 761.873215 
L 1301.790949 753.087822 
L 1303.028907 736.156665 
L 1304.266865 746.543432 
L 1305.504824 739.804098 
L 1306.742782 775.917183 
L 1309.218698 797.187179 
L 1310.456657 792.649483 
L 1311.694615 800.23022 
L 1312.932573 734.254614 
L 1314.170531 742.093071 
L 1315.408489 725.723837 
L 1316.646448 795.643126 
L 1317.884406 802.846904 
L 1319.122364 810.799699 
L 1320.360322 771.396769 
L 1321.598281 816.117607 
L 1322.836239 791.219428 
L 1324.074197 744.752513 
L 1325.312155 757.295053 
L 1326.550114 720.930577 
L 1327.788072 779.364631 
L 1329.02603 770.464861 
L 1330.263988 784.538235 
L 1331.501946 781.228454 
L 1332.739905 782.015011 
L 1333.977863 732.122498 
L 1335.215821 812.950073 
L 1336.453779 784.223744 
L 1337.691738 781.183498 
L 1338.929696 720.518686 
L 1340.167654 797.796669 
L 1341.405612 768.238945 
L 1342.643571 749.592182 
L 1343.881529 744.75525 
L 1345.119487 763.591605 
L 1346.357445 775.675499 
L 1347.595403 761.684861 
L 1348.833362 724.549683 
L 1350.07132 795.226061 
L 1351.309278 763.835109 
L 1352.547236 783.404811 
L 1353.785195 780.066274 
L 1355.023153 756.650224 
L 1356.261111 797.388281 
L 1357.499069 721.706916 
L 1358.737027 778.654648 
L 1359.974986 806.222592 
L 1361.212944 788.869643 
L 1362.450902 781.311536 
L 1363.68886 772.64797 
L 1364.926819 791.920017 
L 1367.402735 739.988938 
L 1368.640693 733.996324 
L 1369.878652 736.939993 
L 1371.11661 790.703753 
L 1372.354568 748.850631 
L 1374.830484 794.249616 
L 1376.068443 786.135661 
L 1377.306401 774.653223 
L 1378.544359 773.527913 
L 1379.782317 745.994652 
L 1381.020276 766.039907 
L 1382.258234 737.586474 
L 1383.496192 759.857685 
L 1384.73415 719.934133 
L 1385.972109 782.414813 
L 1387.210067 776.575374 
L 1388.448025 774.291082 
L 1389.685983 704.306617 
L 1390.923941 776.702241 
L 1392.1619 726.42124 
L 1393.399858 801.268344 
L 1394.637816 769.613807 
L 1395.875774 773.60665 
L 1397.113733 818.390728 
L 1398.351691 735.910248 
L 1399.589649 740.121314 
L 1400.827607 767.858594 
L 1403.303524 783.236784 
L 1404.541482 729.960247 
L 1405.77944 775.177878 
L 1407.017398 742.932045 
L 1408.255357 790.671038 
L 1409.493315 778.428628 
L 1410.731273 744.299641 
L 1411.969231 770.873976 
L 1413.20719 767.384568 
L 1414.445148 772.828398 
L 1415.683106 739.723132 
L 1416.921064 797.136417 
L 1418.159022 764.44743 
L 1419.396981 760.718508 
L 1420.634939 738.952489 
L 1421.872897 723.838173 
L 1423.110855 746.415156 
L 1424.348814 795.636691 
L 1425.586772 758.109558 
L 1426.82473 791.489498 
L 1428.062688 757.764457 
L 1429.300647 749.505616 
L 1430.538605 800.137978 
L 1431.776563 750.625991 
L 1433.014521 748.035189 
L 1434.252479 798.983201 
L 1435.490438 779.241571 
L 1436.728396 771.101012 
L 1437.966354 758.092352 
L 1439.204312 761.304436 
L 1440.442271 780.372042 
L 1441.680229 751.808497 
L 1442.918187 815.933325 
L 1444.156145 712.492019 
L 1445.394103 794.765755 
L 1446.632062 771.548737 
L 1447.87002 752.456958 
L 1449.107978 782.979915 
L 1450.345936 759.21535 
L 1451.583895 796.467704 
L 1452.821853 784.079666 
L 1454.059811 753.712751 
L 1455.297769 720.593913 
L 1456.535728 772.541129 
L 1457.773686 713.625891 
L 1459.011644 802.12242 
L 1460.249602 768.416866 
L 1461.48756 782.279786 
L 1462.725519 730.480283 
L 1463.963477 737.78676 
L 1465.201435 814.194788 
L 1466.439393 744.375188 
L 1467.677352 793.735108 
L 1468.91531 750.013455 
L 1470.153268 722.897844 
L 1471.391226 801.429273 
L 1472.629185 764.001278 
L 1473.867143 786.312056 
L 1475.105101 756.850603 
L 1476.343059 777.725958 
L 1477.581017 795.896438 
L 1478.818976 759.192864 
L 1480.056934 672.005123 
L 1481.294892 775.398811 
L 1482.53285 752.230181 
L 1483.770809 792.225465 
L 1485.008767 710.935038 
L 1486.246725 688.823699 
L 1487.484683 781.912929 
L 1488.722641 809.070751 
L 1489.9606 753.18366 
L 1491.198558 728.710623 
L 1492.436516 787.822828 
L 1493.674474 748.207477 
L 1494.912433 785.911129 
L 1496.150391 730.058291 
L 1497.388349 745.939376 
L 1498.626307 746.320586 
L 1499.864266 772.636389 
L 1501.102224 779.938786 
L 1502.340182 805.846134 
L 1503.57814 813.660622 
L 1504.816098 797.024125 
L 1506.054057 723.594524 
L 1507.292015 802.935235 
L 1508.529973 781.74186 
L 1509.767931 774.701064 
L 1511.00589 737.551526 
L 1512.243848 816.273734 
L 1513.481806 734.969091 
L 1514.719764 781.736648 
L 1515.957723 764.126853 
L 1517.195681 755.754745 
L 1518.433639 753.142523 
L 1519.671597 756.367378 
L 1520.909555 722.27712 
L 1522.147514 758.896998 
L 1523.385472 766.222029 
L 1524.62343 801.140317 
L 1525.861388 779.672898 
L 1527.099347 755.272133 
L 1528.337305 786.671592 
L 1529.575263 807.3086 
L 1530.813221 770.645707 
L 1532.051179 744.030422 
L 1533.289138 736.416771 
L 1534.527096 768.218185 
L 1535.765054 820.342912 
L 1538.240971 757.222286 
L 1539.478929 687.662515 
L 1540.716887 773.013983 
L 1541.954845 748.287674 
L 1544.430762 811.126641 
L 1545.66872 777.917564 
L 1546.906678 781.88885 
L 1548.144636 802.59369 
L 1549.382595 787.403819 
L 1550.620553 793.780583 
L 1551.858511 774.405389 
L 1553.096469 786.407301 
L 1554.334428 770.164005 
L 1555.572386 734.834009 
L 1556.810344 786.477803 
L 1558.048302 762.581285 
L 1559.286261 746.470899 
L 1560.524219 760.414653 
L 1561.762177 728.414765 
L 1563.000135 766.451727 
L 1564.238093 757.864758 
L 1565.476052 763.406816 
L 1566.71401 744.932566 
L 1567.951968 772.902707 
L 1569.189926 700.352585 
L 1570.427885 753.730731 
L 1571.665843 773.692872 
L 1572.903801 762.051952 
L 1575.379717 718.43712 
L 1576.617676 783.205212 
L 1577.855634 776.212746 
L 1579.093592 789.714064 
L 1580.33155 742.993235 
L 1581.569509 789.83523 
L 1582.807467 762.54789 
L 1584.045425 718.882952 
L 1585.283383 779.750877 
L 1586.521342 771.405234 
L 1587.7593 778.73677 
L 1588.997258 764.763179 
L 1590.235216 808.74835 
L 1591.473174 799.927107 
L 1592.711133 801.627064 
L 1593.949091 774.926768 
L 1593.949091 774.926768 
" style="fill:none;stroke:#ff7f0e;stroke-linecap:square;stroke-width:1.5;"/>
   </g>
   <g id="patch_3">
    <path d="M 230.4 856.7496 
L 230.4 115.5168 
" style="fill:none;stroke:#000000;stroke-linecap:square;stroke-linejoin:miter;stroke-width:0.8;"/>
   </g>
   <g id="patch_4">
    <path d="M 1658.88 856.7496 
L 1658.88 115.5168 
" style="fill:none;stroke:#000000;stroke-linecap:square;stroke-linejoin:miter;stroke-width:0.8;"/>
   </g>
   <g id="patch_5">
    <path d="M 230.4 856.7496 
L 1658.88 856.7496 
" style="fill:none;stroke:#000000;stroke-linecap:square;stroke-linejoin:miter;stroke-width:0.8;"/>
   </g>
   <g id="patch_6">
    <path d="M 230.4 115.5168 
L 1658.88 115.5168 
" style="fill:none;stroke:#000000;stroke-linecap:square;stroke-linejoin:miter;stroke-width:0.8;"/>
   </g>
   <g id="text_22">
    <!-- Daily sum of transactions chart -->
    <g transform="translate(850.659375 109.5168)scale(0.12 -0.12)">
     <defs>
      <path d="M 30.609375 48.390625 
Q 23.390625 48.390625 19.1875 42.75 
Q 14.984375 37.109375 14.984375 27.296875 
Q 14.984375 17.484375 19.15625 11.84375 
Q 23.34375 6.203125 30.609375 6.203125 
Q 37.796875 6.203125 41.984375 11.859375 
Q 46.1875 17.53125 46.1875 27.296875 
Q 46.1875 37.015625 41.984375 42.703125 
Q 37.796875 48.390625 30.609375 48.390625 
z
M 30.609375 56 
Q 42.328125 56 49.015625 48.375 
Q 55.71875 40.765625 55.71875 27.296875 
Q 55.71875 13.875 49.015625 6.21875 
Q 42.328125 -1.421875 30.609375 -1.421875 
Q 18.84375 -1.421875 12.171875 6.21875 
Q 5.515625 13.875 5.515625 27.296875 
Q 5.515625 40.765625 12.171875 48.375 
Q 18.84375 56 30.609375 56 
z
" id="DejaVuSans-111"/>
      <path d="M 37.109375 75.984375 
L 37.109375 68.5 
L 28.515625 68.5 
Q 23.6875 68.5 21.796875 66.546875 
Q 19.921875 64.59375 19.921875 59.515625 
L 19.921875 54.6875 
L 34.71875 54.6875 
L 34.71875 47.703125 
L 19.921875 47.703125 
L 19.921875 0 
L 10.890625 0 
L 10.890625 47.703125 
L 2.296875 47.703125 
L 2.296875 54.6875 
L 10.890625 54.6875 
L 10.890625 58.5 
Q 10.890625 67.625 15.140625 71.796875 
Q 19.390625 75.984375 28.609375 75.984375 
z
" id="DejaVuSans-102"/>
      <path d="M 41.109375 46.296875 
Q 39.59375 47.171875 37.8125 47.578125 
Q 36.03125 48 33.890625 48 
Q 26.265625 48 22.1875 43.046875 
Q 18.109375 38.09375 18.109375 28.8125 
L 18.109375 0 
L 9.078125 0 
L 9.078125 54.6875 
L 18.109375 54.6875 
L 18.109375 46.1875 
Q 20.953125 51.171875 25.484375 53.578125 
Q 30.03125 56 36.53125 56 
Q 37.453125 56 38.578125 55.875 
Q 39.703125 55.765625 41.0625 55.515625 
z
" id="DejaVuSans-114"/>
      <path d="M 54.890625 33.015625 
L 54.890625 0 
L 45.90625 0 
L 45.90625 32.71875 
Q 45.90625 40.484375 42.875 44.328125 
Q 39.84375 48.1875 33.796875 48.1875 
Q 26.515625 48.1875 22.3125 43.546875 
Q 18.109375 38.921875 18.109375 30.90625 
L 18.109375 0 
L 9.078125 0 
L 9.078125 54.6875 
L 18.109375 54.6875 
L 18.109375 46.1875 
Q 21.34375 51.125 25.703125 53.5625 
Q 30.078125 56 35.796875 56 
Q 45.21875 56 50.046875 50.171875 
Q 54.890625 44.34375 54.890625 33.015625 
z
" id="DejaVuSans-110"/>
      <path d="M 48.78125 52.59375 
L 48.78125 44.1875 
Q 44.96875 46.296875 41.140625 47.34375 
Q 37.3125 48.390625 33.40625 48.390625 
Q 24.65625 48.390625 19.8125 42.84375 
Q 14.984375 37.3125 14.984375 27.296875 
Q 14.984375 17.28125 19.8125 11.734375 
Q 24.65625 6.203125 33.40625 6.203125 
Q 37.3125 6.203125 41.140625 7.25 
Q 44.96875 8.296875 48.78125 10.40625 
L 48.78125 2.09375 
Q 45.015625 0.34375 40.984375 -0.53125 
Q 36.96875 -1.421875 32.421875 -1.421875 
Q 20.0625 -1.421875 12.78125 6.34375 
Q 5.515625 14.109375 5.515625 27.296875 
Q 5.515625 40.671875 12.859375 48.328125 
Q 20.21875 56 33.015625 56 
Q 37.15625 56 41.109375 55.140625 
Q 45.0625 54.296875 48.78125 52.59375 
z
" id="DejaVuSans-99"/>
      <path d="M 54.890625 33.015625 
L 54.890625 0 
L 45.90625 0 
L 45.90625 32.71875 
Q 45.90625 40.484375 42.875 44.328125 
Q 39.84375 48.1875 33.796875 48.1875 
Q 26.515625 48.1875 22.3125 43.546875 
Q 18.109375 38.921875 18.109375 30.90625 
L 18.109375 0 
L 9.078125 0 
L 9.078125 75.984375 
L 18.109375 75.984375 
L 18.109375 46.1875 
Q 21.34375 51.125 25.703125 53.5625 
Q 30.078125 56 35.796875 56 
Q 45.21875 56 50.046875 50.171875 
Q 54.890625 44.34375 54.890625 33.015625 
z
" id="DejaVuSans-104"/>
     </defs>
     <use xlink:href="#DejaVuSans-68"/>
     <use x="77.001953" xlink:href="#DejaVuSans-97"/>
     <use x="138.28125" xlink:href="#DejaVuSans-105"/>
     <use x="166.064453" xlink:href="#DejaVuSans-108"/>
     <use x="193.847656" xlink:href="#DejaVuSans-121"/>
     <use x="253.027344" xlink:href="#DejaVuSans-32"/>
     <use x="284.814453" xlink:href="#DejaVuSans-115"/>
     <use x="336.914062" xlink:href="#DejaVuSans-117"/>
     <use x="400.292969" xlink:href="#DejaVuSans-109"/>
     <use x="497.705078" xlink:href="#DejaVuSans-32"/>
     <use x="529.492188" xlink:href="#DejaVuSans-111"/>
     <use x="590.673828" xlink:href="#DejaVuSans-102"/>
     <use x="625.878906" xlink:href="#DejaVuSans-32"/>
     <use x="657.666016" xlink:href="#DejaVuSans-116"/>
     <use x="696.875" xlink:href="#DejaVuSans-114"/>
     <use x="737.988281" xlink:href="#DejaVuSans-97"/>
     <use x="799.267578" xlink:href="#DejaVuSans-110"/>
     <use x="862.646484" xlink:href="#DejaVuSans-115"/>
     <use x="914.746094" xlink:href="#DejaVuSans-97"/>
     <use x="976.025391" xlink:href="#DejaVuSans-99"/>
     <use x="1031.005859" xlink:href="#DejaVuSans-116"/>
     <use x="1070.214844" xlink:href="#DejaVuSans-105"/>
     <use x="1097.998047" xlink:href="#DejaVuSans-111"/>
     <use x="1159.179688" xlink:href="#DejaVuSans-110"/>
     <use x="1222.558594" xlink:href="#DejaVuSans-115"/>
     <use x="1274.658203" xlink:href="#DejaVuSans-32"/>
     <use x="1306.445312" xlink:href="#DejaVuSans-99"/>
     <use x="1361.425781" xlink:href="#DejaVuSans-104"/>
     <use x="1424.804688" xlink:href="#DejaVuSans-97"/>
     <use x="1486.083984" xlink:href="#DejaVuSans-114"/>
     <use x="1527.197266" xlink:href="#DejaVuSans-116"/>
    </g>
   </g>
   <g id="legend_1">
    <g id="patch_7">
     <path d="M 1598.512813 152.87305 
L 1651.88 152.87305 
Q 1653.88 152.87305 1653.88 150.87305 
L 1653.88 122.5168 
Q 1653.88 120.5168 1651.88 120.5168 
L 1598.512813 120.5168 
Q 1596.512813 120.5168 1596.512813 122.5168 
L 1596.512813 150.87305 
Q 1596.512813 152.87305 1598.512813 152.87305 
z
" style="fill:#ffffff;opacity:0.8;stroke:#cccccc;stroke-linejoin:miter;"/>
    </g>
    <g id="line2d_21">
     <path d="M 1600.512813 128.615238 
L 1620.512813 128.615238 
" style="fill:none;stroke:#1f77b4;stroke-linecap:square;stroke-width:1.5;"/>
    </g>
    <g id="line2d_22"/>
    <g id="text_23">
     <!-- PLN -->
     <g transform="translate(1628.512813 132.115238)scale(0.1 -0.1)">
      <defs>
       <path d="M 19.671875 64.796875 
L 19.671875 37.40625 
L 32.078125 37.40625 
Q 38.96875 37.40625 42.71875 40.96875 
Q 46.484375 44.53125 46.484375 51.125 
Q 46.484375 57.671875 42.71875 61.234375 
Q 38.96875 64.796875 32.078125 64.796875 
z
M 9.8125 72.90625 
L 32.078125 72.90625 
Q 44.34375 72.90625 50.609375 67.359375 
Q 56.890625 61.8125 56.890625 51.125 
Q 56.890625 40.328125 50.609375 34.8125 
Q 44.34375 29.296875 32.078125 29.296875 
L 19.671875 29.296875 
L 19.671875 0 
L 9.8125 0 
z
" id="DejaVuSans-80"/>
       <path d="M 9.8125 72.90625 
L 19.671875 72.90625 
L 19.671875 8.296875 
L 55.171875 8.296875 
L 55.171875 0 
L 9.8125 0 
z
" id="DejaVuSans-76"/>
       <path d="M 9.8125 72.90625 
L 23.09375 72.90625 
L 55.421875 11.921875 
L 55.421875 72.90625 
L 64.984375 72.90625 
L 64.984375 0 
L 51.703125 0 
L 19.390625 60.984375 
L 19.390625 0 
L 9.8125 0 
z
" id="DejaVuSans-78"/>
      </defs>
      <use xlink:href="#DejaVuSans-80"/>
      <use x="60.302734" xlink:href="#DejaVuSans-76"/>
      <use x="116.015625" xlink:href="#DejaVuSans-78"/>
     </g>
    </g>
    <g id="line2d_23">
     <path d="M 1600.512813 143.293363 
L 1620.512813 143.293363 
" style="fill:none;stroke:#ff7f0e;stroke-linecap:square;stroke-width:1.5;"/>
    </g>
    <g id="line2d_24"/>
    <g id="text_24">
     <!-- USD -->
     <g transform="translate(1628.512813 146.793363)scale(0.1 -0.1)">
      <defs>
       <path d="M 8.6875 72.90625 
L 18.609375 72.90625 
L 18.609375 28.609375 
Q 18.609375 16.890625 22.84375 11.734375 
Q 27.09375 6.59375 36.625 6.59375 
Q 46.09375 6.59375 50.34375 11.734375 
Q 54.59375 16.890625 54.59375 28.609375 
L 54.59375 72.90625 
L 64.5 72.90625 
L 64.5 27.390625 
Q 64.5 13.140625 57.4375 5.859375 
Q 50.390625 -1.421875 36.625 -1.421875 
Q 22.796875 -1.421875 15.734375 5.859375 
Q 8.6875 13.140625 8.6875 27.390625 
z
" id="DejaVuSans-85"/>
       <path d="M 53.515625 70.515625 
L 53.515625 60.890625 
Q 47.90625 63.578125 42.921875 64.890625 
Q 37.9375 66.21875 33.296875 66.21875 
Q 25.25 66.21875 20.875 63.09375 
Q 16.5 59.96875 16.5 54.203125 
Q 16.5 49.359375 19.40625 46.890625 
Q 22.3125 44.4375 30.421875 42.921875 
L 36.375 41.703125 
Q 47.40625 39.59375 52.65625 34.296875 
Q 57.90625 29 57.90625 20.125 
Q 57.90625 9.515625 50.796875 4.046875 
Q 43.703125 -1.421875 29.984375 -1.421875 
Q 24.8125 -1.421875 18.96875 -0.25 
Q 13.140625 0.921875 6.890625 3.21875 
L 6.890625 13.375 
Q 12.890625 10.015625 18.65625 8.296875 
Q 24.421875 6.59375 29.984375 6.59375 
Q 38.421875 6.59375 43.015625 9.90625 
Q 47.609375 13.234375 47.609375 19.390625 
Q 47.609375 24.75 44.3125 27.78125 
Q 41.015625 30.8125 33.5 32.328125 
L 27.484375 33.5 
Q 16.453125 35.6875 11.515625 40.375 
Q 6.59375 45.0625 6.59375 53.421875 
Q 6.59375 63.09375 13.40625 68.65625 
Q 20.21875 74.21875 32.171875 74.21875 
Q 37.3125 74.21875 42.625 73.28125 
Q 47.953125 72.359375 53.515625 70.515625 
z
" id="DejaVuSans-83"/>
      </defs>
      <use xlink:href="#DejaVuSans-85"/>
      <use x="73.193359" xlink:href="#DejaVuSans-83"/>
      <use x="136.669922" xlink:href="#DejaVuSans-68"/>
     </g>
    </g>
   </g>
  </g>
 </g>
 <defs>
  <clipPath id="pac28ebe25c">
   <rect height="741.2328" width="1428.48" x="230.4" y="115.5168"/>
  </clipPath>
 </defs>
</svg>
