<?xml version="1.0" encoding="utf-8" standalone="no"?>
<!DOCTYPE svg PUBLIC "-//W3C//DTD SVG 1.1//EN"
  "http://www.w3.org/Graphics/SVG/1.1/DTD/svg11.dtd">
<!-- Created with matplotlib (https://matplotlib.org/) -->
<svg height="345.6pt" version="1.1" viewBox="0 0 460.8 345.6" width="460.8pt" xmlns="http://www.w3.org/2000/svg" xmlns:xlink="http://www.w3.org/1999/xlink">
 <defs>
  <style type="text/css">
*{stroke-linecap:butt;stroke-linejoin:round;}
  </style>
 </defs>
 <g id="figure_1">
  <g id="patch_1">
   <path d="M 0 345.6 
L 460.8 345.6 
L 460.8 0 
L 0 0 
z
" style="fill:#ffffff;"/>
  </g>
  <g id="axes_1">
   <g id="patch_2">
    <path d="M 57.6 307.584 
L 414.72 307.584 
L 414.72 41.472 
L 57.6 41.472 
z
" style="fill:#ffffff;"/>
   </g>
   <g id="matplotlib.axis_1">
    <g id="xtick_1">
     <g id="line2d_1">
      <path clip-path="url(#p043434de35)" d="M 57.6 307.584 
L 57.6 41.472 
" style="fill:none;stroke:#b0b0b0;stroke-linecap:square;stroke-width:0.8;"/>
     </g>
     <g id="line2d_2">
      <defs>
       <path d="M 0 0 
L 0 3.5 
" id="m0c8cd2f306" style="stroke:#000000;stroke-width:0.8;"/>
      </defs>
      <g>
       <use style="stroke:#000000;stroke-width:0.8;" x="57.6" xlink:href="#m0c8cd2f306" y="307.584"/>
      </g>
     </g>
     <g id="text_1">
      <!-- 2013-01-04 -->
      <defs>
       <path d="M 19.1875 8.296875 
L 53.609375 8.296875 
L 53.609375 0 
L 7.328125 0 
L 7.328125 8.296875 
Q 12.9375 14.109375 22.625 23.890625 
Q 32.328125 33.6875 34.8125 36.53125 
Q 39.546875 41.84375 41.421875 45.53125 
Q 43.3125 49.21875 43.3125 52.78125 
Q 43.3125 58.59375 39.234375 62.25 
Q 35.15625 65.921875 28.609375 65.921875 
Q 23.96875 65.921875 18.8125 64.3125 
Q 13.671875 62.703125 7.8125 59.421875 
L 7.8125 69.390625 
Q 13.765625 71.78125 18.9375 73 
Q 24.125 74.21875 28.421875 74.21875 
Q 39.75 74.21875 46.484375 68.546875 
Q 53.21875 62.890625 53.21875 53.421875 
Q 53.21875 48.921875 51.53125 44.890625 
Q 49.859375 40.875 45.40625 35.40625 
Q 44.1875 33.984375 37.640625 27.21875 
Q 31.109375 20.453125 19.1875 8.296875 
z
" id="DejaVuSans-50"/>
       <path d="M 31.78125 66.40625 
Q 24.171875 66.40625 20.328125 58.90625 
Q 16.5 51.421875 16.5 36.375 
Q 16.5 21.390625 20.328125 13.890625 
Q 24.171875 6.390625 31.78125 6.390625 
Q 39.453125 6.390625 43.28125 13.890625 
Q 47.125 21.390625 47.125 36.375 
Q 47.125 51.421875 43.28125 58.90625 
Q 39.453125 66.40625 31.78125 66.40625 
z
M 31.78125 74.21875 
Q 44.046875 74.21875 50.515625 64.515625 
Q 56.984375 54.828125 56.984375 36.375 
Q 56.984375 17.96875 50.515625 8.265625 
Q 44.046875 -1.421875 31.78125 -1.421875 
Q 19.53125 -1.421875 13.0625 8.265625 
Q 6.59375 17.96875 6.59375 36.375 
Q 6.59375 54.828125 13.0625 64.515625 
Q 19.53125 74.21875 31.78125 74.21875 
z
" id="DejaVuSans-48"/>
       <path d="M 12.40625 8.296875 
L 28.515625 8.296875 
L 28.515625 63.921875 
L 10.984375 60.40625 
L 10.984375 69.390625 
L 28.421875 72.90625 
L 38.28125 72.90625 
L 38.28125 8.296875 
L 54.390625 8.296875 
L 54.390625 0 
L 12.40625 0 
z
" id="DejaVuSans-49"/>
       <path d="M 40.578125 39.3125 
Q 47.65625 37.796875 51.625 33 
Q 55.609375 28.21875 55.609375 21.1875 
Q 55.609375 10.40625 48.1875 4.484375 
Q 40.765625 -1.421875 27.09375 -1.421875 
Q 22.515625 -1.421875 17.65625 -0.515625 
Q 12.796875 0.390625 7.625 2.203125 
L 7.625 11.71875 
Q 11.71875 9.328125 16.59375 8.109375 
Q 21.484375 6.890625 26.8125 6.890625 
Q 36.078125 6.890625 40.9375 10.546875 
Q 45.796875 14.203125 45.796875 21.1875 
Q 45.796875 27.640625 41.28125 31.265625 
Q 36.765625 34.90625 28.71875 34.90625 
L 20.21875 34.90625 
L 20.21875 43.015625 
L 29.109375 43.015625 
Q 36.375 43.015625 40.234375 45.921875 
Q 44.09375 48.828125 44.09375 54.296875 
Q 44.09375 59.90625 40.109375 62.90625 
Q 36.140625 65.921875 28.71875 65.921875 
Q 24.65625 65.921875 20.015625 65.03125 
Q 15.375 64.15625 9.8125 62.3125 
L 9.8125 71.09375 
Q 15.4375 72.65625 20.34375 73.4375 
Q 25.25 74.21875 29.59375 74.21875 
Q 40.828125 74.21875 47.359375 69.109375 
Q 53.90625 64.015625 53.90625 55.328125 
Q 53.90625 49.265625 50.4375 45.09375 
Q 46.96875 40.921875 40.578125 39.3125 
z
" id="DejaVuSans-51"/>
       <path d="M 4.890625 31.390625 
L 31.203125 31.390625 
L 31.203125 23.390625 
L 4.890625 23.390625 
z
" id="DejaVuSans-45"/>
       <path d="M 37.796875 64.3125 
L 12.890625 25.390625 
L 37.796875 25.390625 
z
M 35.203125 72.90625 
L 47.609375 72.90625 
L 47.609375 25.390625 
L 58.015625 25.390625 
L 58.015625 17.1875 
L 47.609375 17.1875 
L 47.609375 0 
L 37.796875 0 
L 37.796875 17.1875 
L 4.890625 17.1875 
L 4.890625 26.703125 
z
" id="DejaVuSans-52"/>
      </defs>
      <g transform="translate(28.542188 322.182437)scale(0.1 -0.1)">
       <use xlink:href="#DejaVuSans-50"/>
       <use x="63.623047" xlink:href="#DejaVuSans-48"/>
       <use x="127.246094" xlink:href="#DejaVuSans-49"/>
       <use x="190.869141" xlink:href="#DejaVuSans-51"/>
       <use x="254.492188" xlink:href="#DejaVuSans-45"/>
       <use x="290.576172" xlink:href="#DejaVuSans-48"/>
       <use x="354.199219" xlink:href="#DejaVuSans-49"/>
       <use x="417.822266" xlink:href="#DejaVuSans-45"/>
       <use x="453.90625" xlink:href="#DejaVuSans-48"/>
       <use x="517.529297" xlink:href="#DejaVuSans-52"/>
      </g>
     </g>
    </g>
    <g id="xtick_2">
     <g id="line2d_3">
      <path clip-path="url(#p043434de35)" d="M 125.362233 307.584 
L 125.362233 41.472 
" style="fill:none;stroke:#b0b0b0;stroke-linecap:square;stroke-width:0.8;"/>
     </g>
     <g id="line2d_4">
      <g>
       <use style="stroke:#000000;stroke-width:0.8;" x="125.362233" xlink:href="#m0c8cd2f306" y="307.584"/>
      </g>
     </g>
     <g id="text_2">
      <!-- 2014-04-07 -->
      <defs>
       <path d="M 8.203125 72.90625 
L 55.078125 72.90625 
L 55.078125 68.703125 
L 28.609375 0 
L 18.3125 0 
L 43.21875 64.59375 
L 8.203125 64.59375 
z
" id="DejaVuSans-55"/>
      </defs>
      <g transform="translate(96.304421 322.182437)scale(0.1 -0.1)">
       <use xlink:href="#DejaVuSans-50"/>
       <use x="63.623047" xlink:href="#DejaVuSans-48"/>
       <use x="127.246094" xlink:href="#DejaVuSans-49"/>
       <use x="190.869141" xlink:href="#DejaVuSans-52"/>
       <use x="254.492188" xlink:href="#DejaVuSans-45"/>
       <use x="290.576172" xlink:href="#DejaVuSans-48"/>
       <use x="354.199219" xlink:href="#DejaVuSans-52"/>
       <use x="417.822266" xlink:href="#DejaVuSans-45"/>
       <use x="453.90625" xlink:href="#DejaVuSans-48"/>
       <use x="517.529297" xlink:href="#DejaVuSans-55"/>
      </g>
     </g>
    </g>
    <g id="xtick_3">
     <g id="line2d_5">
      <path clip-path="url(#p043434de35)" d="M 193.124466 307.584 
L 193.124466 41.472 
" style="fill:none;stroke:#b0b0b0;stroke-linecap:square;stroke-width:0.8;"/>
     </g>
     <g id="line2d_6">
      <g>
       <use style="stroke:#000000;stroke-width:0.8;" x="193.124466" xlink:href="#m0c8cd2f306" y="307.584"/>
      </g>
     </g>
     <g id="text_3">
      <!-- 2014-11-30 -->
      <g transform="translate(164.066654 322.182437)scale(0.1 -0.1)">
       <use xlink:href="#DejaVuSans-50"/>
       <use x="63.623047" xlink:href="#DejaVuSans-48"/>
       <use x="127.246094" xlink:href="#DejaVuSans-49"/>
       <use x="190.869141" xlink:href="#DejaVuSans-52"/>
       <use x="254.492188" xlink:href="#DejaVuSans-45"/>
       <use x="290.576172" xlink:href="#DejaVuSans-49"/>
       <use x="354.199219" xlink:href="#DejaVuSans-49"/>
       <use x="417.822266" xlink:href="#DejaVuSans-45"/>
       <use x="453.90625" xlink:href="#DejaVuSans-51"/>
       <use x="517.529297" xlink:href="#DejaVuSans-48"/>
      </g>
     </g>
    </g>
    <g id="xtick_4">
     <g id="line2d_7">
      <path clip-path="url(#p043434de35)" d="M 260.8867 307.584 
L 260.8867 41.472 
" style="fill:none;stroke:#b0b0b0;stroke-linecap:square;stroke-width:0.8;"/>
     </g>
     <g id="line2d_8">
      <g>
       <use style="stroke:#000000;stroke-width:0.8;" x="260.8867" xlink:href="#m0c8cd2f306" y="307.584"/>
      </g>
     </g>
     <g id="text_4">
      <!-- 2015-10-17 -->
      <defs>
       <path d="M 10.796875 72.90625 
L 49.515625 72.90625 
L 49.515625 64.59375 
L 19.828125 64.59375 
L 19.828125 46.734375 
Q 21.96875 47.46875 24.109375 47.828125 
Q 26.265625 48.1875 28.421875 48.1875 
Q 40.625 48.1875 47.75 41.5 
Q 54.890625 34.8125 54.890625 23.390625 
Q 54.890625 11.625 47.5625 5.09375 
Q 40.234375 -1.421875 26.90625 -1.421875 
Q 22.3125 -1.421875 17.546875 -0.640625 
Q 12.796875 0.140625 7.71875 1.703125 
L 7.71875 11.625 
Q 12.109375 9.234375 16.796875 8.0625 
Q 21.484375 6.890625 26.703125 6.890625 
Q 35.15625 6.890625 40.078125 11.328125 
Q 45.015625 15.765625 45.015625 23.390625 
Q 45.015625 31 40.078125 35.4375 
Q 35.15625 39.890625 26.703125 39.890625 
Q 22.75 39.890625 18.8125 39.015625 
Q 14.890625 38.140625 10.796875 36.28125 
z
" id="DejaVuSans-53"/>
      </defs>
      <g transform="translate(231.828887 322.182437)scale(0.1 -0.1)">
       <use xlink:href="#DejaVuSans-50"/>
       <use x="63.623047" xlink:href="#DejaVuSans-48"/>
       <use x="127.246094" xlink:href="#DejaVuSans-49"/>
       <use x="190.869141" xlink:href="#DejaVuSans-53"/>
       <use x="254.492188" xlink:href="#DejaVuSans-45"/>
       <use x="290.576172" xlink:href="#DejaVuSans-49"/>
       <use x="354.199219" xlink:href="#DejaVuSans-48"/>
       <use x="417.822266" xlink:href="#DejaVuSans-45"/>
       <use x="453.90625" xlink:href="#DejaVuSans-49"/>
       <use x="517.529297" xlink:href="#DejaVuSans-55"/>
      </g>
     </g>
    </g>
    <g id="xtick_5">
     <g id="line2d_9">
      <path clip-path="url(#p043434de35)" d="M 328.648933 307.584 
L 328.648933 41.472 
" style="fill:none;stroke:#b0b0b0;stroke-linecap:square;stroke-width:0.8;"/>
     </g>
     <g id="line2d_10">
      <g>
       <use style="stroke:#000000;stroke-width:0.8;" x="328.648933" xlink:href="#m0c8cd2f306" y="307.584"/>
      </g>
     </g>
     <g id="text_5">
      <!-- 2016-07-21 -->
      <defs>
       <path d="M 33.015625 40.375 
Q 26.375 40.375 22.484375 35.828125 
Q 18.609375 31.296875 18.609375 23.390625 
Q 18.609375 15.53125 22.484375 10.953125 
Q 26.375 6.390625 33.015625 6.390625 
Q 39.65625 6.390625 43.53125 10.953125 
Q 47.40625 15.53125 47.40625 23.390625 
Q 47.40625 31.296875 43.53125 35.828125 
Q 39.65625 40.375 33.015625 40.375 
z
M 52.59375 71.296875 
L 52.59375 62.3125 
Q 48.875 64.0625 45.09375 64.984375 
Q 41.3125 65.921875 37.59375 65.921875 
Q 27.828125 65.921875 22.671875 59.328125 
Q 17.53125 52.734375 16.796875 39.40625 
Q 19.671875 43.65625 24.015625 45.921875 
Q 28.375 48.1875 33.59375 48.1875 
Q 44.578125 48.1875 50.953125 41.515625 
Q 57.328125 34.859375 57.328125 23.390625 
Q 57.328125 12.15625 50.6875 5.359375 
Q 44.046875 -1.421875 33.015625 -1.421875 
Q 20.359375 -1.421875 13.671875 8.265625 
Q 6.984375 17.96875 6.984375 36.375 
Q 6.984375 53.65625 15.1875 63.9375 
Q 23.390625 74.21875 37.203125 74.21875 
Q 40.921875 74.21875 44.703125 73.484375 
Q 48.484375 72.75 52.59375 71.296875 
z
" id="DejaVuSans-54"/>
      </defs>
      <g transform="translate(299.59112 322.182437)scale(0.1 -0.1)">
       <use xlink:href="#DejaVuSans-50"/>
       <use x="63.623047" xlink:href="#DejaVuSans-48"/>
       <use x="127.246094" xlink:href="#DejaVuSans-49"/>
       <use x="190.869141" xlink:href="#DejaVuSans-54"/>
       <use x="254.492188" xlink:href="#DejaVuSans-45"/>
       <use x="290.576172" xlink:href="#DejaVuSans-48"/>
       <use x="354.199219" xlink:href="#DejaVuSans-55"/>
       <use x="417.822266" xlink:href="#DejaVuSans-45"/>
       <use x="453.90625" xlink:href="#DejaVuSans-50"/>
       <use x="517.529297" xlink:href="#DejaVuSans-49"/>
      </g>
     </g>
    </g>
    <g id="xtick_6">
     <g id="line2d_11">
      <path clip-path="url(#p043434de35)" d="M 396.411166 307.584 
L 396.411166 41.472 
" style="fill:none;stroke:#b0b0b0;stroke-linecap:square;stroke-width:0.8;"/>
     </g>
     <g id="line2d_12">
      <g>
       <use style="stroke:#000000;stroke-width:0.8;" x="396.411166" xlink:href="#m0c8cd2f306" y="307.584"/>
      </g>
     </g>
     <g id="text_6">
      <!-- 2016-12-26 -->
      <g transform="translate(367.353353 322.182437)scale(0.1 -0.1)">
       <use xlink:href="#DejaVuSans-50"/>
       <use x="63.623047" xlink:href="#DejaVuSans-48"/>
       <use x="127.246094" xlink:href="#DejaVuSans-49"/>
       <use x="190.869141" xlink:href="#DejaVuSans-54"/>
       <use x="254.492188" xlink:href="#DejaVuSans-45"/>
       <use x="290.576172" xlink:href="#DejaVuSans-49"/>
       <use x="354.199219" xlink:href="#DejaVuSans-50"/>
       <use x="417.822266" xlink:href="#DejaVuSans-45"/>
       <use x="453.90625" xlink:href="#DejaVuSans-50"/>
       <use x="517.529297" xlink:href="#DejaVuSans-54"/>
      </g>
     </g>
    </g>
    <g id="text_7">
     <!-- Dates of sales -->
     <defs>
      <path d="M 19.671875 64.796875 
L 19.671875 8.109375 
L 31.59375 8.109375 
Q 46.6875 8.109375 53.6875 14.9375 
Q 60.6875 21.78125 60.6875 36.53125 
Q 60.6875 51.171875 53.6875 57.984375 
Q 46.6875 64.796875 31.59375 64.796875 
z
M 9.8125 72.90625 
L 30.078125 72.90625 
Q 51.265625 72.90625 61.171875 64.09375 
Q 71.09375 55.28125 71.09375 36.53125 
Q 71.09375 17.671875 61.125 8.828125 
Q 51.171875 0 30.078125 0 
L 9.8125 0 
z
" id="DejaVuSans-68"/>
      <path d="M 34.28125 27.484375 
Q 23.390625 27.484375 19.1875 25 
Q 14.984375 22.515625 14.984375 16.5 
Q 14.984375 11.71875 18.140625 8.90625 
Q 21.296875 6.109375 26.703125 6.109375 
Q 34.1875 6.109375 38.703125 11.40625 
Q 43.21875 16.703125 43.21875 25.484375 
L 43.21875 27.484375 
z
M 52.203125 31.203125 
L 52.203125 0 
L 43.21875 0 
L 43.21875 8.296875 
Q 40.140625 3.328125 35.546875 0.953125 
Q 30.953125 -1.421875 24.3125 -1.421875 
Q 15.921875 -1.421875 10.953125 3.296875 
Q 6 8.015625 6 15.921875 
Q 6 25.140625 12.171875 29.828125 
Q 18.359375 34.515625 30.609375 34.515625 
L 43.21875 34.515625 
L 43.21875 35.40625 
Q 43.21875 41.609375 39.140625 45 
Q 35.0625 48.390625 27.6875 48.390625 
Q 23 48.390625 18.546875 47.265625 
Q 14.109375 46.140625 10.015625 43.890625 
L 10.015625 52.203125 
Q 14.9375 54.109375 19.578125 55.046875 
Q 24.21875 56 28.609375 56 
Q 40.484375 56 46.34375 49.84375 
Q 52.203125 43.703125 52.203125 31.203125 
z
" id="DejaVuSans-97"/>
      <path d="M 18.3125 70.21875 
L 18.3125 54.6875 
L 36.8125 54.6875 
L 36.8125 47.703125 
L 18.3125 47.703125 
L 18.3125 18.015625 
Q 18.3125 11.328125 20.140625 9.421875 
Q 21.96875 7.515625 27.59375 7.515625 
L 36.8125 7.515625 
L 36.8125 0 
L 27.59375 0 
Q 17.1875 0 13.234375 3.875 
Q 9.28125 7.765625 9.28125 18.015625 
L 9.28125 47.703125 
L 2.6875 47.703125 
L 2.6875 54.6875 
L 9.28125 54.6875 
L 9.28125 70.21875 
z
" id="DejaVuSans-116"/>
      <path d="M 56.203125 29.59375 
L 56.203125 25.203125 
L 14.890625 25.203125 
Q 15.484375 15.921875 20.484375 11.0625 
Q 25.484375 6.203125 34.421875 6.203125 
Q 39.59375 6.203125 44.453125 7.46875 
Q 49.3125 8.734375 54.109375 11.28125 
L 54.109375 2.78125 
Q 49.265625 0.734375 44.1875 -0.34375 
Q 39.109375 -1.421875 33.890625 -1.421875 
Q 20.796875 -1.421875 13.15625 6.1875 
Q 5.515625 13.8125 5.515625 26.8125 
Q 5.515625 40.234375 12.765625 48.109375 
Q 20.015625 56 32.328125 56 
Q 43.359375 56 49.78125 48.890625 
Q 56.203125 41.796875 56.203125 29.59375 
z
M 47.21875 32.234375 
Q 47.125 39.59375 43.09375 43.984375 
Q 39.0625 48.390625 32.421875 48.390625 
Q 24.90625 48.390625 20.390625 44.140625 
Q 15.875 39.890625 15.1875 32.171875 
z
" id="DejaVuSans-101"/>
      <path d="M 44.28125 53.078125 
L 44.28125 44.578125 
Q 40.484375 46.53125 36.375 47.5 
Q 32.28125 48.484375 27.875 48.484375 
Q 21.1875 48.484375 17.84375 46.4375 
Q 14.5 44.390625 14.5 40.28125 
Q 14.5 37.15625 16.890625 35.375 
Q 19.28125 33.59375 26.515625 31.984375 
L 29.59375 31.296875 
Q 39.15625 29.25 43.1875 25.515625 
Q 47.21875 21.78125 47.21875 15.09375 
Q 47.21875 7.46875 41.1875 3.015625 
Q 35.15625 -1.421875 24.609375 -1.421875 
Q 20.21875 -1.421875 15.453125 -0.5625 
Q 10.6875 0.296875 5.421875 2 
L 5.421875 11.28125 
Q 10.40625 8.6875 15.234375 7.390625 
Q 20.0625 6.109375 24.8125 6.109375 
Q 31.15625 6.109375 34.5625 8.28125 
Q 37.984375 10.453125 37.984375 14.40625 
Q 37.984375 18.0625 35.515625 20.015625 
Q 33.0625 21.96875 24.703125 23.78125 
L 21.578125 24.515625 
Q 13.234375 26.265625 9.515625 29.90625 
Q 5.8125 33.546875 5.8125 39.890625 
Q 5.8125 47.609375 11.28125 51.796875 
Q 16.75 56 26.8125 56 
Q 31.78125 56 36.171875 55.265625 
Q 40.578125 54.546875 44.28125 53.078125 
z
" id="DejaVuSans-115"/>
      <path id="DejaVuSans-32"/>
      <path d="M 30.609375 48.390625 
Q 23.390625 48.390625 19.1875 42.75 
Q 14.984375 37.109375 14.984375 27.296875 
Q 14.984375 17.484375 19.15625 11.84375 
Q 23.34375 6.203125 30.609375 6.203125 
Q 37.796875 6.203125 41.984375 11.859375 
Q 46.1875 17.53125 46.1875 27.296875 
Q 46.1875 37.015625 41.984375 42.703125 
Q 37.796875 48.390625 30.609375 48.390625 
z
M 30.609375 56 
Q 42.328125 56 49.015625 48.375 
Q 55.71875 40.765625 55.71875 27.296875 
Q 55.71875 13.875 49.015625 6.21875 
Q 42.328125 -1.421875 30.609375 -1.421875 
Q 18.84375 -1.421875 12.171875 6.21875 
Q 5.515625 13.875 5.515625 27.296875 
Q 5.515625 40.765625 12.171875 48.375 
Q 18.84375 56 30.609375 56 
z
" id="DejaVuSans-111"/>
      <path d="M 37.109375 75.984375 
L 37.109375 68.5 
L 28.515625 68.5 
Q 23.6875 68.5 21.796875 66.546875 
Q 19.921875 64.59375 19.921875 59.515625 
L 19.921875 54.6875 
L 34.71875 54.6875 
L 34.71875 47.703125 
L 19.921875 47.703125 
L 19.921875 0 
L 10.890625 0 
L 10.890625 47.703125 
L 2.296875 47.703125 
L 2.296875 54.6875 
L 10.890625 54.6875 
L 10.890625 58.5 
Q 10.890625 67.625 15.140625 71.796875 
Q 19.390625 75.984375 28.609375 75.984375 
z
" id="DejaVuSans-102"/>
      <path d="M 9.421875 75.984375 
L 18.40625 75.984375 
L 18.40625 0 
L 9.421875 0 
z
" id="DejaVuSans-108"/>
     </defs>
     <g transform="translate(200.867812 335.860562)scale(0.1 -0.1)">
      <use xlink:href="#DejaVuSans-68"/>
      <use x="77.001953" xlink:href="#DejaVuSans-97"/>
      <use x="138.28125" xlink:href="#DejaVuSans-116"/>
      <use x="177.490234" xlink:href="#DejaVuSans-101"/>
      <use x="239.013672" xlink:href="#DejaVuSans-115"/>
      <use x="291.113281" xlink:href="#DejaVuSans-32"/>
      <use x="322.900391" xlink:href="#DejaVuSans-111"/>
      <use x="384.082031" xlink:href="#DejaVuSans-102"/>
      <use x="419.287109" xlink:href="#DejaVuSans-32"/>
      <use x="451.074219" xlink:href="#DejaVuSans-115"/>
      <use x="503.173828" xlink:href="#DejaVuSans-97"/>
      <use x="564.453125" xlink:href="#DejaVuSans-108"/>
      <use x="592.236328" xlink:href="#DejaVuSans-101"/>
      <use x="653.759766" xlink:href="#DejaVuSans-115"/>
     </g>
    </g>
   </g>
   <g id="matplotlib.axis_2">
    <g id="ytick_1">
     <g id="line2d_13">
      <path clip-path="url(#p043434de35)" d="M 57.6 307.584 
L 414.72 307.584 
" style="fill:none;stroke:#b0b0b0;stroke-linecap:square;stroke-width:0.8;"/>
     </g>
     <g id="line2d_14">
      <defs>
       <path d="M 0 0 
L -3.5 0 
" id="md4f7819fa5" style="stroke:#000000;stroke-width:0.8;"/>
      </defs>
      <g>
       <use style="stroke:#000000;stroke-width:0.8;" x="57.6" xlink:href="#md4f7819fa5" y="307.584"/>
      </g>
     </g>
     <g id="text_8">
      <!-- 0K -->
      <defs>
       <path d="M 9.8125 72.90625 
L 19.671875 72.90625 
L 19.671875 42.09375 
L 52.390625 72.90625 
L 65.09375 72.90625 
L 28.90625 38.921875 
L 67.671875 0 
L 54.6875 0 
L 19.671875 35.109375 
L 19.671875 0 
L 9.8125 0 
z
" id="DejaVuSans-75"/>
      </defs>
      <g transform="translate(37.679688 311.383219)scale(0.1 -0.1)">
       <use xlink:href="#DejaVuSans-48"/>
       <use x="63.623047" xlink:href="#DejaVuSans-75"/>
      </g>
     </g>
    </g>
    <g id="ytick_2">
     <g id="line2d_15">
      <path clip-path="url(#p043434de35)" d="M 57.6 272.244487 
L 414.72 272.244487 
" style="fill:none;stroke:#b0b0b0;stroke-linecap:square;stroke-width:0.8;"/>
     </g>
     <g id="line2d_16">
      <g>
       <use style="stroke:#000000;stroke-width:0.8;" x="57.6" xlink:href="#md4f7819fa5" y="272.244487"/>
      </g>
     </g>
     <g id="text_9">
      <!-- 100K -->
      <g transform="translate(24.954687 276.043706)scale(0.1 -0.1)">
       <use xlink:href="#DejaVuSans-49"/>
       <use x="63.623047" xlink:href="#DejaVuSans-48"/>
       <use x="127.246094" xlink:href="#DejaVuSans-48"/>
       <use x="190.869141" xlink:href="#DejaVuSans-75"/>
      </g>
     </g>
    </g>
    <g id="ytick_3">
     <g id="line2d_17">
      <path clip-path="url(#p043434de35)" d="M 57.6 236.904975 
L 414.72 236.904975 
" style="fill:none;stroke:#b0b0b0;stroke-linecap:square;stroke-width:0.8;"/>
     </g>
     <g id="line2d_18">
      <g>
       <use style="stroke:#000000;stroke-width:0.8;" x="57.6" xlink:href="#md4f7819fa5" y="236.904975"/>
      </g>
     </g>
     <g id="text_10">
      <!-- 200K -->
      <g transform="translate(24.954687 240.704193)scale(0.1 -0.1)">
       <use xlink:href="#DejaVuSans-50"/>
       <use x="63.623047" xlink:href="#DejaVuSans-48"/>
       <use x="127.246094" xlink:href="#DejaVuSans-48"/>
       <use x="190.869141" xlink:href="#DejaVuSans-75"/>
      </g>
     </g>
    </g>
    <g id="ytick_4">
     <g id="line2d_19">
      <path clip-path="url(#p043434de35)" d="M 57.6 201.565462 
L 414.72 201.565462 
" style="fill:none;stroke:#b0b0b0;stroke-linecap:square;stroke-width:0.8;"/>
     </g>
     <g id="line2d_20">
      <g>
       <use style="stroke:#000000;stroke-width:0.8;" x="57.6" xlink:href="#md4f7819fa5" y="201.565462"/>
      </g>
     </g>
     <g id="text_11">
      <!-- 300K -->
      <g transform="translate(24.954687 205.364681)scale(0.1 -0.1)">
       <use xlink:href="#DejaVuSans-51"/>
       <use x="63.623047" xlink:href="#DejaVuSans-48"/>
       <use x="127.246094" xlink:href="#DejaVuSans-48"/>
       <use x="190.869141" xlink:href="#DejaVuSans-75"/>
      </g>
     </g>
    </g>
    <g id="ytick_5">
     <g id="line2d_21">
      <path clip-path="url(#p043434de35)" d="M 57.6 166.225949 
L 414.72 166.225949 
" style="fill:none;stroke:#b0b0b0;stroke-linecap:square;stroke-width:0.8;"/>
     </g>
     <g id="line2d_22">
      <g>
       <use style="stroke:#000000;stroke-width:0.8;" x="57.6" xlink:href="#md4f7819fa5" y="166.225949"/>
      </g>
     </g>
     <g id="text_12">
      <!-- 400K -->
      <g transform="translate(24.954687 170.025168)scale(0.1 -0.1)">
       <use xlink:href="#DejaVuSans-52"/>
       <use x="63.623047" xlink:href="#DejaVuSans-48"/>
       <use x="127.246094" xlink:href="#DejaVuSans-48"/>
       <use x="190.869141" xlink:href="#DejaVuSans-75"/>
      </g>
     </g>
    </g>
    <g id="ytick_6">
     <g id="line2d_23">
      <path clip-path="url(#p043434de35)" d="M 57.6 130.886436 
L 414.72 130.886436 
" style="fill:none;stroke:#b0b0b0;stroke-linecap:square;stroke-width:0.8;"/>
     </g>
     <g id="line2d_24">
      <g>
       <use style="stroke:#000000;stroke-width:0.8;" x="57.6" xlink:href="#md4f7819fa5" y="130.886436"/>
      </g>
     </g>
     <g id="text_13">
      <!-- 500K -->
      <g transform="translate(24.954687 134.685655)scale(0.1 -0.1)">
       <use xlink:href="#DejaVuSans-53"/>
       <use x="63.623047" xlink:href="#DejaVuSans-48"/>
       <use x="127.246094" xlink:href="#DejaVuSans-48"/>
       <use x="190.869141" xlink:href="#DejaVuSans-75"/>
      </g>
     </g>
    </g>
    <g id="ytick_7">
     <g id="line2d_25">
      <path clip-path="url(#p043434de35)" d="M 57.6 95.546924 
L 414.72 95.546924 
" style="fill:none;stroke:#b0b0b0;stroke-linecap:square;stroke-width:0.8;"/>
     </g>
     <g id="line2d_26">
      <g>
       <use style="stroke:#000000;stroke-width:0.8;" x="57.6" xlink:href="#md4f7819fa5" y="95.546924"/>
      </g>
     </g>
     <g id="text_14">
      <!-- 600K -->
      <g transform="translate(24.954687 99.346142)scale(0.1 -0.1)">
       <use xlink:href="#DejaVuSans-54"/>
       <use x="63.623047" xlink:href="#DejaVuSans-48"/>
       <use x="127.246094" xlink:href="#DejaVuSans-48"/>
       <use x="190.869141" xlink:href="#DejaVuSans-75"/>
      </g>
     </g>
    </g>
    <g id="ytick_8">
     <g id="line2d_27">
      <path clip-path="url(#p043434de35)" d="M 57.6 60.207411 
L 414.72 60.207411 
" style="fill:none;stroke:#b0b0b0;stroke-linecap:square;stroke-width:0.8;"/>
     </g>
     <g id="line2d_28">
      <g>
       <use style="stroke:#000000;stroke-width:0.8;" x="57.6" xlink:href="#md4f7819fa5" y="60.207411"/>
      </g>
     </g>
     <g id="text_15">
      <!-- 700K -->
      <g transform="translate(24.954687 64.00663)scale(0.1 -0.1)">
       <use xlink:href="#DejaVuSans-55"/>
       <use x="63.623047" xlink:href="#DejaVuSans-48"/>
       <use x="127.246094" xlink:href="#DejaVuSans-48"/>
       <use x="190.869141" xlink:href="#DejaVuSans-75"/>
      </g>
     </g>
    </g>
    <g id="text_16">
     <!-- Earnings -->
     <defs>
      <path d="M 9.8125 72.90625 
L 55.90625 72.90625 
L 55.90625 64.59375 
L 19.671875 64.59375 
L 19.671875 43.015625 
L 54.390625 43.015625 
L 54.390625 34.71875 
L 19.671875 34.71875 
L 19.671875 8.296875 
L 56.78125 8.296875 
L 56.78125 0 
L 9.8125 0 
z
" id="DejaVuSans-69"/>
      <path d="M 41.109375 46.296875 
Q 39.59375 47.171875 37.8125 47.578125 
Q 36.03125 48 33.890625 48 
Q 26.265625 48 22.1875 43.046875 
Q 18.109375 38.09375 18.109375 28.8125 
L 18.109375 0 
L 9.078125 0 
L 9.078125 54.6875 
L 18.109375 54.6875 
L 18.109375 46.1875 
Q 20.953125 51.171875 25.484375 53.578125 
Q 30.03125 56 36.53125 56 
Q 37.453125 56 38.578125 55.875 
Q 39.703125 55.765625 41.0625 55.515625 
z
" id="DejaVuSans-114"/>
      <path d="M 54.890625 33.015625 
L 54.890625 0 
L 45.90625 0 
L 45.90625 32.71875 
Q 45.90625 40.484375 42.875 44.328125 
Q 39.84375 48.1875 33.796875 48.1875 
Q 26.515625 48.1875 22.3125 43.546875 
Q 18.109375 38.921875 18.109375 30.90625 
L 18.109375 0 
L 9.078125 0 
L 9.078125 54.6875 
L 18.109375 54.6875 
L 18.109375 46.1875 
Q 21.34375 51.125 25.703125 53.5625 
Q 30.078125 56 35.796875 56 
Q 45.21875 56 50.046875 50.171875 
Q 54.890625 44.34375 54.890625 33.015625 
z
" id="DejaVuSans-110"/>
      <path d="M 9.421875 54.6875 
L 18.40625 54.6875 
L 18.40625 0 
L 9.421875 0 
z
M 9.421875 75.984375 
L 18.40625 75.984375 
L 18.40625 64.59375 
L 9.421875 64.59375 
z
" id="DejaVuSans-105"/>
      <path d="M 45.40625 27.984375 
Q 45.40625 37.75 41.375 43.109375 
Q 37.359375 48.484375 30.078125 48.484375 
Q 22.859375 48.484375 18.828125 43.109375 
Q 14.796875 37.75 14.796875 27.984375 
Q 14.796875 18.265625 18.828125 12.890625 
Q 22.859375 7.515625 30.078125 7.515625 
Q 37.359375 7.515625 41.375 12.890625 
Q 45.40625 18.265625 45.40625 27.984375 
z
M 54.390625 6.78125 
Q 54.390625 -7.171875 48.1875 -13.984375 
Q 42 -20.796875 29.203125 -20.796875 
Q 24.46875 -20.796875 20.265625 -20.09375 
Q 16.0625 -19.390625 12.109375 -17.921875 
L 12.109375 -9.1875 
Q 16.0625 -11.328125 19.921875 -12.34375 
Q 23.78125 -13.375 27.78125 -13.375 
Q 36.625 -13.375 41.015625 -8.765625 
Q 45.40625 -4.15625 45.40625 5.171875 
L 45.40625 9.625 
Q 42.625 4.78125 38.28125 2.390625 
Q 33.9375 0 27.875 0 
Q 17.828125 0 11.671875 7.65625 
Q 5.515625 15.328125 5.515625 27.984375 
Q 5.515625 40.671875 11.671875 48.328125 
Q 17.828125 56 27.875 56 
Q 33.9375 56 38.28125 53.609375 
Q 42.625 51.21875 45.40625 46.390625 
L 45.40625 54.6875 
L 54.390625 54.6875 
z
" id="DejaVuSans-103"/>
     </defs>
     <g transform="translate(18.875 196.311594)rotate(-90)scale(0.1 -0.1)">
      <use xlink:href="#DejaVuSans-69"/>
      <use x="63.183594" xlink:href="#DejaVuSans-97"/>
      <use x="124.462891" xlink:href="#DejaVuSans-114"/>
      <use x="165.560547" xlink:href="#DejaVuSans-110"/>
      <use x="228.939453" xlink:href="#DejaVuSans-105"/>
      <use x="256.722656" xlink:href="#DejaVuSans-110"/>
      <use x="320.101562" xlink:href="#DejaVuSans-103"/>
      <use x="383.578125" xlink:href="#DejaVuSans-115"/>
     </g>
    </g>
   </g>
   <g id="line2d_29">
    <path clip-path="url(#p043434de35)" d="M 57.6 307.527457 
L 58.468747 307.506253 
L 59.337493 307.26241 
L 60.640613 307.131654 
L 61.943733 307.085713 
L 62.812479 306.704046 
L 64.549973 306.45667 
L 65.418719 306.202225 
L 68.024959 306.057333 
L 70.631199 305.905373 
L 71.499945 305.703938 
L 72.368692 305.498969 
L 72.803065 305.152642 
L 73.671812 305.103166 
L 74.540558 304.891129 
L 76.712425 304.778043 
L 80.187411 304.187873 
L 80.621784 303.993506 
L 81.056158 303.989972 
L 81.490531 303.707255 
L 81.924904 303.67545 
L 84.531144 302.735419 
L 86.268637 302.622332 
L 88.00613 302.272471 
L 88.440504 301.94028 
L 90.177997 301.894338 
L 90.61237 301.699971 
L 94.087356 301.4844 
L 101.471702 300.865959 
L 102.774822 300.724601 
L 103.643569 300.685727 
L 104.077942 300.448952 
L 104.946689 300.332332 
L 105.815435 299.925928 
L 107.118555 299.876452 
L 107.552928 299.738628 
L 107.987302 299.735094 
L 109.724795 299.095449 
L 111.462288 298.929353 
L 114.068528 298.438134 
L 114.937274 298.353319 
L 115.371648 297.950449 
L 116.240394 297.915109 
L 116.674767 297.678335 
L 117.109141 297.657131 
L 117.543514 297.374415 
L 122.32162 297.134106 
L 122.755993 296.88673 
L 124.059113 296.766575 
L 129.705966 296.444986 
L 131.009086 295.618041 
L 131.877833 295.324723 
L 132.312206 294.92892 
L 132.746579 294.875911 
L 133.180952 294.35642 
L 134.049699 294.197393 
L 134.484072 293.36338 
L 135.352819 292.723735 
L 135.787192 292.179506 
L 136.221565 292.052284 
L 136.655939 291.769568 
L 137.524685 291.621142 
L 138.827805 290.684645 
L 140.565298 290.228765 
L 141.868418 289.638595 
L 142.737165 289.518441 
L 143.171538 289.313472 
L 143.605911 289.274598 
L 144.040285 288.815185 
L 144.474658 288.606682 
L 144.909031 288.253287 
L 145.343404 288.172006 
L 145.777778 287.906959 
L 146.212151 287.83628 
L 147.080898 286.776095 
L 147.949644 286.401496 
L 148.384018 286.192993 
L 149.252764 286.026897 
L 150.121511 285.217622 
L 150.555884 284.807684 
L 152.72775 283.977206 
L 153.162124 283.645014 
L 153.596497 283.577869 
L 154.465244 283.1856 
L 154.899617 283.171465 
L 156.63711 282.114813 
L 158.374603 281.6554 
L 158.808976 281.372683 
L 159.24335 281.287869 
L 159.677723 280.959211 
L 160.980843 280.768378 
L 161.415216 280.414983 
L 161.849589 280.3231 
L 163.587083 278.050769 
L 164.021456 277.98009 
L 164.890203 276.838624 
L 165.758949 275.944534 
L 166.193322 275.781973 
L 166.627696 275.753701 
L 167.496442 275.26955 
L 167.930816 274.675846 
L 168.365189 274.552157 
L 169.233935 273.721679 
L 169.668309 273.089102 
L 170.102682 272.827589 
L 170.537055 272.286895 
L 170.971429 272.03245 
L 171.405802 271.558901 
L 172.708922 271.350398 
L 173.577668 270.502249 
L 174.012042 270.251339 
L 174.446415 269.488005 
L 174.880788 269.449132 
L 175.749535 268.752943 
L 176.183908 268.664595 
L 177.487028 267.915397 
L 178.355774 267.87299 
L 178.790148 267.664486 
L 179.658894 266.894085 
L 180.093268 266.265042 
L 180.527641 266.10248 
L 180.962014 265.604193 
L 181.396388 265.575921 
L 182.265134 264.816122 
L 182.699507 264.720705 
L 184.002627 263.869023 
L 184.437001 263.745334 
L 184.871374 263.148097 
L 185.305747 262.745226 
L 185.74012 262.653344 
L 186.174494 261.812263 
L 186.608867 261.759254 
L 187.04324 261.540149 
L 188.34636 260.048821 
L 189.215107 259.317294 
L 190.083853 259.172402 
L 190.9526 258.426738 
L 191.386973 258.221769 
L 192.25572 257.42663 
L 193.124466 257.249932 
L 194.861959 255.362802 
L 195.296333 255.136629 
L 196.165079 255.041212 
L 196.599453 253.889144 
L 197.033826 253.185888 
L 197.468199 251.938403 
L 197.902573 251.726366 
L 198.336946 251.19274 
L 199.205692 250.867616 
L 199.640066 250.591968 
L 200.074439 249.740286 
L 200.943186 249.598928 
L 201.811932 249.068835 
L 202.246305 249.054699 
L 202.680679 248.453927 
L 203.115052 248.132338 
L 203.983799 248.008649 
L 204.418172 247.634051 
L 206.155665 247.107492 
L 206.590038 246.259344 
L 207.024412 245.76459 
L 208.761905 245.633834 
L 210.499398 245.407661 
L 213.540011 245.298109 
L 213.974384 245.22743 
L 214.408758 244.188448 
L 214.843131 243.79618 
L 215.711877 243.502862 
L 216.146251 243.499328 
L 216.580624 242.601704 
L 217.014997 241.13158 
L 217.449371 240.986688 
L 218.318117 240.12087 
L 219.186864 239.926503 
L 219.621237 239.237382 
L 220.924357 237.993432 
L 221.35873 237.244234 
L 222.227477 236.873169 
L 222.66185 236.357212 
L 223.096223 234.827011 
L 223.96497 233.190792 
L 224.399343 232.872736 
L 224.833716 232.777319 
L 225.26809 231.74894 
L 225.702463 231.204711 
L 226.136836 230.296486 
L 227.005583 229.713384 
L 227.439956 229.688646 
L 227.87433 229.278708 
L 228.308703 227.971146 
L 228.743076 227.723769 
L 230.046196 225.705883 
L 230.480569 225.582195 
L 230.914943 225.2288 
L 231.783689 223.316932 
L 232.218062 222.970605 
L 232.652436 222.224941 
L 233.086809 221.712518 
L 233.521182 221.415666 
L 233.955556 221.299046 
L 235.693049 218.797008 
L 236.127422 218.584971 
L 236.561795 218.040743 
L 236.996169 217.924122 
L 237.430542 217.524786 
L 238.299288 217.019431 
L 238.733662 216.492872 
L 239.168035 215.736606 
L 239.602408 215.680063 
L 240.036782 215.400881 
L 240.471155 215.393813 
L 240.905528 215.121699 
L 241.339901 214.361899 
L 241.774275 213.944893 
L 242.208648 213.160356 
L 243.077395 213.082609 
L 245.249261 210.396806 
L 246.118008 210.304923 
L 246.552381 209.12105 
L 246.986754 207.389414 
L 248.289874 204.965123 
L 249.158621 204.731882 
L 249.592994 204.279536 
L 250.027367 203.410184 
L 250.461741 202.971974 
L 250.896114 201.989536 
L 251.330487 201.57253 
L 252.199234 201.477113 
L 252.633607 200.915215 
L 253.06798 199.886835 
L 253.502354 199.289597 
L 254.805473 198.310693 
L 255.239847 198.10219 
L 255.67422 197.709921 
L 256.97734 195.684967 
L 257.411713 195.207884 
L 258.28046 195.070059 
L 259.58358 192.292374 
L 260.452326 191.087296 
L 261.321073 190.716231 
L 262.189819 189.744395 
L 263.492939 188.161185 
L 264.361686 187.980953 
L 264.796059 187.528607 
L 265.230432 186.871292 
L 265.664806 186.539101 
L 266.967926 185.121987 
L 267.402299 185.076045 
L 267.836672 184.121878 
L 268.705419 183.167712 
L 269.574165 181.42194 
L 270.008539 181.291183 
L 270.877285 180.280473 
L 271.311658 178.94464 
L 271.746032 178.580643 
L 272.614778 177.230673 
L 273.049152 177.008034 
L 273.917898 176.128081 
L 274.352271 175.403621 
L 274.786645 174.187941 
L 275.221018 173.841614 
L 275.655391 173.269114 
L 276.524138 172.671876 
L 276.958511 172.219531 
L 277.827258 170.813018 
L 278.261631 170.657524 
L 278.696004 169.841181 
L 279.564751 169.03544 
L 280.433498 168.091875 
L 281.302244 166.635887 
L 282.170991 165.876088 
L 282.605364 165.826613 
L 283.474111 163.335177 
L 283.908484 162.64959 
L 284.77723 161.783772 
L 285.645977 161.596473 
L 286.08035 160.7978 
L 286.514724 160.649374 
L 286.949097 159.61746 
L 287.817843 158.5078 
L 288.252217 158.33817 
L 288.68659 158.3205 
L 289.555337 156.931657 
L 289.98971 156.910454 
L 290.858456 156.122382 
L 291.29283 156.034034 
L 292.161576 155.433262 
L 293.030323 153.57087 
L 293.464696 153.397706 
L 293.89907 152.369326 
L 294.767816 152.022999 
L 295.202189 150.853261 
L 296.505309 148.390097 
L 296.939683 147.188554 
L 297.374056 146.828091 
L 297.808429 146.824557 
L 298.677176 144.106948 
L 299.111549 143.439031 
L 299.545922 142.449525 
L 300.414669 141.696793 
L 301.717789 138.784818 
L 302.152162 136.971901 
L 303.020909 135.869308 
L 303.455282 135.837502 
L 303.889655 134.823258 
L 304.324028 133.26832 
L 305.192775 131.434199 
L 305.627148 130.94298 
L 306.061522 130.628458 
L 306.495895 130.119569 
L 306.930268 129.211344 
L 308.667761 124.094182 
L 309.102135 123.631234 
L 309.536508 123.475741 
L 310.839628 119.507113 
L 311.274001 118.687237 
L 311.708374 118.143008 
L 312.142748 117.178239 
L 312.577121 117.096959 
L 313.445868 115.492545 
L 313.880241 114.07543 
L 314.314614 113.237884 
L 314.748987 112.099951 
L 315.183361 111.679411 
L 315.617734 111.449704 
L 316.486481 108.944133 
L 318.658347 106.396154 
L 319.09272 106.035691 
L 319.527094 106.025089 
L 319.961467 105.809518 
L 320.830213 105.749441 
L 321.264587 105.530336 
L 321.69896 104.767003 
L 322.133333 104.35353 
L 323.00208 104.166231 
L 324.739573 103.409965 
L 325.173946 103.137851 
L 326.91144 102.92228 
L 327.780186 102.166014 
L 328.648933 100.660551 
L 329.517679 100.098653 
L 329.952053 100.02444 
L 331.689546 99.017264 
L 332.992666 98.794625 
L 333.861412 97.600149 
L 334.730159 97.080659 
L 335.164532 96.752001 
L 336.033279 96.645983 
L 336.467652 96.299655 
L 337.336398 96.027541 
L 337.770772 95.394964 
L 338.639518 95.027433 
L 339.073892 94.999161 
L 340.377011 94.242896 
L 340.811385 93.168575 
L 341.680131 92.981275 
L 342.114505 92.977741 
L 342.548878 92.663219 
L 342.983251 92.578405 
L 343.417625 92.253281 
L 344.720744 91.829207 
L 345.589491 91.613636 
L 346.023864 91.274377 
L 347.326984 90.769022 
L 348.195731 90.698343 
L 348.630104 90.355549 
L 349.064477 90.28487 
L 349.498851 89.977417 
L 350.367597 89.662895 
L 351.236344 89.567478 
L 352.10509 88.616845 
L 352.973837 87.065441 
L 353.842583 86.789792 
L 354.276957 86.683774 
L 354.71133 86.35865 
L 355.580077 85.415085 
L 356.448823 85.019283 
L 357.751943 84.725965 
L 358.186316 84.114591 
L 358.62069 83.856613 
L 359.055063 83.04027 
L 359.489436 82.860039 
L 359.92381 82.499576 
L 360.792556 82.361752 
L 361.226929 81.704437 
L 361.661303 81.283896 
L 362.530049 80.987044 
L 362.964423 80.898696 
L 363.398796 80.679591 
L 364.267542 79.018634 
L 364.701916 78.672306 
L 365.136289 78.181087 
L 365.570662 77.51317 
L 366.005036 77.255192 
L 366.873782 76.417645 
L 367.308155 74.93692 
L 367.742529 74.572923 
L 368.176902 74.417429 
L 368.611275 73.692969 
L 369.045649 73.498602 
L 369.480022 73.477398 
L 370.348768 72.657521 
L 371.217515 71.636209 
L 371.651888 71.346425 
L 372.520635 71.194466 
L 372.955008 70.537151 
L 373.389381 70.452336 
L 374.258128 69.494635 
L 374.692501 69.144774 
L 375.561248 69.1059 
L 375.995621 68.296625 
L 377.298741 67.992706 
L 377.733114 67.702922 
L 378.167488 67.695854 
L 378.601861 67.448477 
L 379.036234 67.331857 
L 379.904981 66.671008 
L 380.339354 65.593153 
L 382.076847 65.345776 
L 383.379967 64.942906 
L 383.81434 64.462288 
L 384.683087 64.37394 
L 385.551834 63.172396 
L 385.986207 62.914418 
L 386.42058 62.12988 
L 387.289327 61.719942 
L 387.7237 61.691671 
L 388.592447 60.426516 
L 389.895567 59.235574 
L 390.32994 59.23204 
L 391.198686 58.051701 
L 392.067433 57.574617 
L 392.501806 56.984447 
L 392.93618 56.793614 
L 393.804926 56.652256 
L 394.673673 56.21758 
L 395.108046 55.599139 
L 395.976793 55.196268 
L 396.411166 55.001901 
L 396.845539 54.644972 
L 397.279912 54.507148 
L 397.714286 54.143151 
L 397.714286 54.143151 
" style="fill:none;stroke:#1f77b4;stroke-linecap:square;stroke-width:1.5;"/>
   </g>
   <g id="line2d_30">
    <path clip-path="url(#p043434de35)" d="M 57.6 307.566163 
L 60.20624 307.449793 
L 64.115599 307.255329 
L 67.156212 307.113889 
L 72.368692 306.918678 
L 73.237438 306.804457 
L 79.318664 306.560564 
L 83.228024 306.238685 
L 84.965517 306.055977 
L 88.00613 305.914466 
L 88.874877 305.812249 
L 103.643569 305.419513 
L 104.512315 305.31646 
L 107.118555 305.153597 
L 110.593541 304.89458 
L 112.765408 304.77789 
L 114.068528 304.689535 
L 114.937274 304.661696 
L 115.371648 304.529238 
L 117.109141 304.432627 
L 117.977887 304.332475 
L 128.402846 304.059395 
L 130.140339 303.930432 
L 132.312206 303.535606 
L 132.746579 303.518124 
L 133.180952 303.347385 
L 134.049699 303.295118 
L 134.484072 303.020483 
L 137.090312 302.490839 
L 137.959059 302.341363 
L 139.262178 302.115899 
L 140.565298 301.997912 
L 143.171538 301.703473 
L 143.605911 301.690979 
L 144.909031 301.364349 
L 146.212151 301.232004 
L 147.080898 300.894518 
L 149.687137 300.505322 
L 151.424631 300.152576 
L 157.071483 299.392685 
L 158.374603 299.277858 
L 160.112096 299.040873 
L 161.849589 298.867949 
L 165.324576 297.635357 
L 166.193322 297.471633 
L 167.062069 297.40732 
L 169.233935 296.848746 
L 170.102682 296.580036 
L 171.405802 296.19524 
L 172.708922 296.132106 
L 174.446415 295.568769 
L 175.315161 295.442265 
L 177.052655 295.150898 
L 179.658894 294.787742 
L 180.093268 294.600482 
L 181.830761 294.296159 
L 182.699507 294.141401 
L 187.911987 292.929132 
L 188.780733 292.644654 
L 189.64948 292.528691 
L 190.518227 292.37413 
L 192.690093 291.960729 
L 193.55884 291.790008 
L 195.296333 291.301533 
L 196.165079 291.273151 
L 197.468199 290.353747 
L 199.640066 289.953391 
L 200.074439 289.699324 
L 201.377559 289.588981 
L 204.418172 289.09558 
L 206.155665 288.946443 
L 207.024412 288.563544 
L 213.974384 288.418126 
L 214.408758 288.141985 
L 215.277504 287.984041 
L 216.146251 287.959686 
L 216.580624 287.72322 
L 217.014997 287.339506 
L 217.883744 287.181618 
L 218.75249 287.056975 
L 219.186864 287.0223 
L 220.05561 286.727972 
L 222.66185 286.074284 
L 223.096223 285.670271 
L 223.96497 285.235039 
L 224.833716 285.12523 
L 225.702463 284.704772 
L 226.136836 284.462391 
L 227.87433 284.193652 
L 228.308703 283.846865 
L 229.177449 283.606363 
L 230.046196 283.255371 
L 230.914943 283.130891 
L 232.652436 282.340062 
L 233.521182 282.124583 
L 233.955556 282.093532 
L 236.127422 281.372025 
L 236.996169 281.194892 
L 240.036782 280.517708 
L 240.905528 280.44328 
L 242.208648 279.923853 
L 243.077395 279.903368 
L 245.249261 279.190262 
L 246.118008 279.165605 
L 246.552381 278.846708 
L 246.986754 278.381689 
L 248.289874 277.727271 
L 249.592994 277.541791 
L 250.896114 276.932971 
L 251.76486 276.802146 
L 252.199234 276.797474 
L 252.633607 276.649063 
L 253.502354 276.218806 
L 256.108593 275.615998 
L 257.411713 275.137089 
L 258.28046 275.100081 
L 260.017953 274.206219 
L 260.452326 274.027827 
L 261.755446 273.817239 
L 263.492939 273.249836 
L 264.796059 273.085604 
L 265.664806 272.83006 
L 266.967926 272.46508 
L 267.402299 272.453223 
L 267.836672 272.205966 
L 268.705419 271.959992 
L 269.574165 271.51243 
L 270.442912 271.355968 
L 270.877285 271.222123 
L 271.311658 270.884536 
L 272.180405 270.603456 
L 273.049152 270.393508 
L 274.352271 269.988513 
L 274.786645 269.683081 
L 276.958511 269.187937 
L 277.827258 268.837281 
L 278.261631 268.798695 
L 279.130378 268.478885 
L 280.433498 268.162234 
L 281.736617 267.692548 
L 282.605364 267.597077 
L 283.908484 266.799446 
L 285.211604 266.558019 
L 285.645977 266.533995 
L 286.08035 266.332793 
L 286.514724 266.295238 
L 287.38347 265.89054 
L 288.252217 265.711868 
L 288.68659 265.707402 
L 289.555337 265.351512 
L 290.424083 265.236463 
L 292.59595 264.751239 
L 293.030323 264.483467 
L 293.464696 264.439079 
L 293.89907 264.175466 
L 294.767816 264.086689 
L 295.636563 263.581661 
L 296.505309 263.1743 
L 296.939683 262.873636 
L 297.808429 262.782552 
L 298.677176 262.105236 
L 301.283415 261.044853 
L 301.717789 260.794138 
L 302.152162 260.355207 
L 303.889655 259.833427 
L 304.324028 259.458517 
L 305.627148 258.890557 
L 306.495895 258.688359 
L 307.364641 258.144181 
L 308.667761 257.182575 
L 309.536508 257.02569 
L 310.839628 256.023206 
L 312.142748 255.427966 
L 312.577121 255.407164 
L 313.445868 254.999089 
L 313.880241 254.639698 
L 315.183361 254.032969 
L 315.617734 253.974861 
L 316.486481 253.340734 
L 319.09272 252.608919 
L 320.830213 252.536556 
L 321.264587 252.481623 
L 322.133333 252.187823 
L 323.870826 252.053547 
L 326.042693 251.850484 
L 327.345813 251.736844 
L 328.214559 251.463668 
L 329.083306 251.175653 
L 332.558292 250.819364 
L 332.992666 250.787943 
L 334.295785 250.428779 
L 335.598905 250.243661 
L 336.902025 250.111957 
L 337.336398 250.073153 
L 338.205145 249.846024 
L 340.377011 249.605915 
L 340.811385 249.321899 
L 349.064477 248.574144 
L 350.367597 248.412228 
L 351.670717 248.272216 
L 352.539464 247.910812 
L 352.973837 247.740466 
L 355.145703 247.431108 
L 356.01445 247.249992 
L 358.62069 246.904617 
L 359.055063 246.691772 
L 360.792556 246.515557 
L 361.661303 246.23492 
L 363.833169 245.858276 
L 364.267542 245.645249 
L 365.136289 245.430681 
L 366.005036 245.193058 
L 366.873782 244.97899 
L 367.308155 244.600752 
L 372.086262 243.672467 
L 372.520635 243.656442 
L 372.955008 243.489983 
L 373.389381 243.468504 
L 374.692501 243.132654 
L 375.561248 243.122651 
L 375.995621 242.915845 
L 379.036234 242.673902 
L 379.904981 242.5132 
L 380.339354 242.252691 
L 383.379967 242.096794 
L 384.248714 241.960965 
L 384.683087 241.960116 
L 386.42058 241.423074 
L 388.158073 241.146653 
L 389.895567 240.730564 
L 390.32994 240.729718 
L 391.198686 240.448755 
L 394.673673 240.015003 
L 395.542419 239.833356 
L 397.714286 239.523311 
L 397.714286 239.523311 
" style="fill:none;stroke:#ff7f0e;stroke-linecap:square;stroke-width:1.5;"/>
   </g>
   <g id="patch_3">
    <path d="M 57.6 307.584 
L 57.6 41.472 
" style="fill:none;stroke:#000000;stroke-linecap:square;stroke-linejoin:miter;stroke-width:0.8;"/>
   </g>
   <g id="patch_4">
    <path d="M 414.72 307.584 
L 414.72 41.472 
" style="fill:none;stroke:#000000;stroke-linecap:square;stroke-linejoin:miter;stroke-width:0.8;"/>
   </g>
   <g id="patch_5">
    <path d="M 57.6 307.584 
L 414.72 307.584 
" style="fill:none;stroke:#000000;stroke-linecap:square;stroke-linejoin:miter;stroke-width:0.8;"/>
   </g>
   <g id="patch_6">
    <path d="M 57.6 41.472 
L 414.72 41.472 
" style="fill:none;stroke:#000000;stroke-linecap:square;stroke-linejoin:miter;stroke-width:0.8;"/>
   </g>
   <g id="text_17">
    <!-- Earnings in USD and PLN -->
    <defs>
     <path d="M 8.6875 72.90625 
L 18.609375 72.90625 
L 18.609375 28.609375 
Q 18.609375 16.890625 22.84375 11.734375 
Q 27.09375 6.59375 36.625 6.59375 
Q 46.09375 6.59375 50.34375 11.734375 
Q 54.59375 16.890625 54.59375 28.609375 
L 54.59375 72.90625 
L 64.5 72.90625 
L 64.5 27.390625 
Q 64.5 13.140625 57.4375 5.859375 
Q 50.390625 -1.421875 36.625 -1.421875 
Q 22.796875 -1.421875 15.734375 5.859375 
Q 8.6875 13.140625 8.6875 27.390625 
z
" id="DejaVuSans-85"/>
     <path d="M 53.515625 70.515625 
L 53.515625 60.890625 
Q 47.90625 63.578125 42.921875 64.890625 
Q 37.9375 66.21875 33.296875 66.21875 
Q 25.25 66.21875 20.875 63.09375 
Q 16.5 59.96875 16.5 54.203125 
Q 16.5 49.359375 19.40625 46.890625 
Q 22.3125 44.4375 30.421875 42.921875 
L 36.375 41.703125 
Q 47.40625 39.59375 52.65625 34.296875 
Q 57.90625 29 57.90625 20.125 
Q 57.90625 9.515625 50.796875 4.046875 
Q 43.703125 -1.421875 29.984375 -1.421875 
Q 24.8125 -1.421875 18.96875 -0.25 
Q 13.140625 0.921875 6.890625 3.21875 
L 6.890625 13.375 
Q 12.890625 10.015625 18.65625 8.296875 
Q 24.421875 6.59375 29.984375 6.59375 
Q 38.421875 6.59375 43.015625 9.90625 
Q 47.609375 13.234375 47.609375 19.390625 
Q 47.609375 24.75 44.3125 27.78125 
Q 41.015625 30.8125 33.5 32.328125 
L 27.484375 33.5 
Q 16.453125 35.6875 11.515625 40.375 
Q 6.59375 45.0625 6.59375 53.421875 
Q 6.59375 63.09375 13.40625 68.65625 
Q 20.21875 74.21875 32.171875 74.21875 
Q 37.3125 74.21875 42.625 73.28125 
Q 47.953125 72.359375 53.515625 70.515625 
z
" id="DejaVuSans-83"/>
     <path d="M 45.40625 46.390625 
L 45.40625 75.984375 
L 54.390625 75.984375 
L 54.390625 0 
L 45.40625 0 
L 45.40625 8.203125 
Q 42.578125 3.328125 38.25 0.953125 
Q 33.9375 -1.421875 27.875 -1.421875 
Q 17.96875 -1.421875 11.734375 6.484375 
Q 5.515625 14.40625 5.515625 27.296875 
Q 5.515625 40.1875 11.734375 48.09375 
Q 17.96875 56 27.875 56 
Q 33.9375 56 38.25 53.625 
Q 42.578125 51.265625 45.40625 46.390625 
z
M 14.796875 27.296875 
Q 14.796875 17.390625 18.875 11.75 
Q 22.953125 6.109375 30.078125 6.109375 
Q 37.203125 6.109375 41.296875 11.75 
Q 45.40625 17.390625 45.40625 27.296875 
Q 45.40625 37.203125 41.296875 42.84375 
Q 37.203125 48.484375 30.078125 48.484375 
Q 22.953125 48.484375 18.875 42.84375 
Q 14.796875 37.203125 14.796875 27.296875 
z
" id="DejaVuSans-100"/>
     <path d="M 19.671875 64.796875 
L 19.671875 37.40625 
L 32.078125 37.40625 
Q 38.96875 37.40625 42.71875 40.96875 
Q 46.484375 44.53125 46.484375 51.125 
Q 46.484375 57.671875 42.71875 61.234375 
Q 38.96875 64.796875 32.078125 64.796875 
z
M 9.8125 72.90625 
L 32.078125 72.90625 
Q 44.34375 72.90625 50.609375 67.359375 
Q 56.890625 61.8125 56.890625 51.125 
Q 56.890625 40.328125 50.609375 34.8125 
Q 44.34375 29.296875 32.078125 29.296875 
L 19.671875 29.296875 
L 19.671875 0 
L 9.8125 0 
z
" id="DejaVuSans-80"/>
     <path d="M 9.8125 72.90625 
L 19.671875 72.90625 
L 19.671875 8.296875 
L 55.171875 8.296875 
L 55.171875 0 
L 9.8125 0 
z
" id="DejaVuSans-76"/>
     <path d="M 9.8125 72.90625 
L 23.09375 72.90625 
L 55.421875 11.921875 
L 55.421875 72.90625 
L 64.984375 72.90625 
L 64.984375 0 
L 51.703125 0 
L 19.390625 60.984375 
L 19.390625 0 
L 9.8125 0 
z
" id="DejaVuSans-78"/>
    </defs>
    <g transform="translate(161.364375 35.472)scale(0.12 -0.12)">
     <use xlink:href="#DejaVuSans-69"/>
     <use x="63.183594" xlink:href="#DejaVuSans-97"/>
     <use x="124.462891" xlink:href="#DejaVuSans-114"/>
     <use x="165.560547" xlink:href="#DejaVuSans-110"/>
     <use x="228.939453" xlink:href="#DejaVuSans-105"/>
     <use x="256.722656" xlink:href="#DejaVuSans-110"/>
     <use x="320.101562" xlink:href="#DejaVuSans-103"/>
     <use x="383.578125" xlink:href="#DejaVuSans-115"/>
     <use x="435.677734" xlink:href="#DejaVuSans-32"/>
     <use x="467.464844" xlink:href="#DejaVuSans-105"/>
     <use x="495.248047" xlink:href="#DejaVuSans-110"/>
     <use x="558.626953" xlink:href="#DejaVuSans-32"/>
     <use x="590.414062" xlink:href="#DejaVuSans-85"/>
     <use x="663.607422" xlink:href="#DejaVuSans-83"/>
     <use x="727.083984" xlink:href="#DejaVuSans-68"/>
     <use x="804.085938" xlink:href="#DejaVuSans-32"/>
     <use x="835.873047" xlink:href="#DejaVuSans-97"/>
     <use x="897.152344" xlink:href="#DejaVuSans-110"/>
     <use x="960.53125" xlink:href="#DejaVuSans-100"/>
     <use x="1024.007812" xlink:href="#DejaVuSans-32"/>
     <use x="1055.794922" xlink:href="#DejaVuSans-80"/>
     <use x="1116.097656" xlink:href="#DejaVuSans-76"/>
     <use x="1171.810547" xlink:href="#DejaVuSans-78"/>
    </g>
   </g>
   <g id="legend_1">
    <g id="patch_7">
     <path d="M 64.6 78.82825 
L 164.546875 78.82825 
Q 166.546875 78.82825 166.546875 76.82825 
L 166.546875 48.472 
Q 166.546875 46.472 164.546875 46.472 
L 64.6 46.472 
Q 62.6 46.472 62.6 48.472 
L 62.6 76.82825 
Q 62.6 78.82825 64.6 78.82825 
z
" style="fill:#ffffff;opacity:0.8;stroke:#cccccc;stroke-linejoin:miter;"/>
    </g>
    <g id="patch_8">
     <path d="M 66.6 58.070437 
L 86.6 58.070437 
L 86.6 51.070437 
L 66.6 51.070437 
z
" style="fill:#1f77b4;stroke:#1f77b4;stroke-linejoin:miter;"/>
    </g>
    <g id="text_18">
     <!-- PLN earnings -->
     <g transform="translate(94.6 58.070437)scale(0.1 -0.1)">
      <use xlink:href="#DejaVuSans-80"/>
      <use x="60.302734" xlink:href="#DejaVuSans-76"/>
      <use x="116.015625" xlink:href="#DejaVuSans-78"/>
      <use x="190.820312" xlink:href="#DejaVuSans-32"/>
      <use x="222.607422" xlink:href="#DejaVuSans-101"/>
      <use x="284.130859" xlink:href="#DejaVuSans-97"/>
      <use x="345.410156" xlink:href="#DejaVuSans-114"/>
      <use x="386.507812" xlink:href="#DejaVuSans-110"/>
      <use x="449.886719" xlink:href="#DejaVuSans-105"/>
      <use x="477.669922" xlink:href="#DejaVuSans-110"/>
      <use x="541.048828" xlink:href="#DejaVuSans-103"/>
      <use x="604.525391" xlink:href="#DejaVuSans-115"/>
     </g>
    </g>
    <g id="patch_9">
     <path d="M 66.6 72.748562 
L 86.6 72.748562 
L 86.6 65.748562 
L 66.6 65.748562 
z
" style="fill:#ff7f0e;stroke:#ff7f0e;stroke-linejoin:miter;"/>
    </g>
    <g id="text_19">
     <!-- USD earnings -->
     <g transform="translate(94.6 72.748562)scale(0.1 -0.1)">
      <use xlink:href="#DejaVuSans-85"/>
      <use x="73.193359" xlink:href="#DejaVuSans-83"/>
      <use x="136.669922" xlink:href="#DejaVuSans-68"/>
      <use x="213.671875" xlink:href="#DejaVuSans-32"/>
      <use x="245.458984" xlink:href="#DejaVuSans-101"/>
      <use x="306.982422" xlink:href="#DejaVuSans-97"/>
      <use x="368.261719" xlink:href="#DejaVuSans-114"/>
      <use x="409.359375" xlink:href="#DejaVuSans-110"/>
      <use x="472.738281" xlink:href="#DejaVuSans-105"/>
      <use x="500.521484" xlink:href="#DejaVuSans-110"/>
      <use x="563.900391" xlink:href="#DejaVuSans-103"/>
      <use x="627.376953" xlink:href="#DejaVuSans-115"/>
     </g>
    </g>
   </g>
  </g>
 </g>
 <defs>
  <clipPath id="p043434de35">
   <rect height="266.112" width="357.12" x="57.6" y="41.472"/>
  </clipPath>
 </defs>
</svg>
