<?xml version="1.0" encoding="utf-8" standalone="no"?>
<!DOCTYPE svg PUBLIC "-//W3C//DTD SVG 1.1//EN"
  "http://www.w3.org/Graphics/SVG/1.1/DTD/svg11.dtd">
<!-- Created with matplotlib (https://matplotlib.org/) -->
<svg height="345.6pt" version="1.1" viewBox="0 0 460.8 345.6" width="460.8pt" xmlns="http://www.w3.org/2000/svg" xmlns:xlink="http://www.w3.org/1999/xlink">
 <defs>
  <style type="text/css">
*{stroke-linecap:butt;stroke-linejoin:round;}
  </style>
 </defs>
 <g id="figure_1">
  <g id="patch_1">
   <path d="M 0 345.6 
L 460.8 345.6 
L 460.8 0 
L 0 0 
z
" style="fill:#ffffff;"/>
  </g>
  <g id="axes_1">
   <g id="patch_2">
    <path d="M 57.6 307.584 
L 414.72 307.584 
L 414.72 41.472 
L 57.6 41.472 
z
" style="fill:#ffffff;"/>
   </g>
   <g id="matplotlib.axis_1">
    <g id="xtick_1">
     <g id="line2d_1">
      <path clip-path="url(#p2a4cd70dfb)" d="M 57.6 307.584 
L 57.6 41.472 
" style="fill:none;stroke:#b0b0b0;stroke-linecap:square;stroke-width:0.8;"/>
     </g>
     <g id="line2d_2">
      <defs>
       <path d="M 0 0 
L 0 3.5 
" id="mc5a84a2ecb" style="stroke:#000000;stroke-width:0.8;"/>
      </defs>
      <g>
       <use style="stroke:#000000;stroke-width:0.8;" x="57.6" xlink:href="#mc5a84a2ecb" y="307.584"/>
      </g>
     </g>
     <g id="text_1">
      <!-- 2013-01-04 -->
      <defs>
       <path d="M 19.1875 8.296875 
L 53.609375 8.296875 
L 53.609375 0 
L 7.328125 0 
L 7.328125 8.296875 
Q 12.9375 14.109375 22.625 23.890625 
Q 32.328125 33.6875 34.8125 36.53125 
Q 39.546875 41.84375 41.421875 45.53125 
Q 43.3125 49.21875 43.3125 52.78125 
Q 43.3125 58.59375 39.234375 62.25 
Q 35.15625 65.921875 28.609375 65.921875 
Q 23.96875 65.921875 18.8125 64.3125 
Q 13.671875 62.703125 7.8125 59.421875 
L 7.8125 69.390625 
Q 13.765625 71.78125 18.9375 73 
Q 24.125 74.21875 28.421875 74.21875 
Q 39.75 74.21875 46.484375 68.546875 
Q 53.21875 62.890625 53.21875 53.421875 
Q 53.21875 48.921875 51.53125 44.890625 
Q 49.859375 40.875 45.40625 35.40625 
Q 44.1875 33.984375 37.640625 27.21875 
Q 31.109375 20.453125 19.1875 8.296875 
z
" id="DejaVuSans-50"/>
       <path d="M 31.78125 66.40625 
Q 24.171875 66.40625 20.328125 58.90625 
Q 16.5 51.421875 16.5 36.375 
Q 16.5 21.390625 20.328125 13.890625 
Q 24.171875 6.390625 31.78125 6.390625 
Q 39.453125 6.390625 43.28125 13.890625 
Q 47.125 21.390625 47.125 36.375 
Q 47.125 51.421875 43.28125 58.90625 
Q 39.453125 66.40625 31.78125 66.40625 
z
M 31.78125 74.21875 
Q 44.046875 74.21875 50.515625 64.515625 
Q 56.984375 54.828125 56.984375 36.375 
Q 56.984375 17.96875 50.515625 8.265625 
Q 44.046875 -1.421875 31.78125 -1.421875 
Q 19.53125 -1.421875 13.0625 8.265625 
Q 6.59375 17.96875 6.59375 36.375 
Q 6.59375 54.828125 13.0625 64.515625 
Q 19.53125 74.21875 31.78125 74.21875 
z
" id="DejaVuSans-48"/>
       <path d="M 12.40625 8.296875 
L 28.515625 8.296875 
L 28.515625 63.921875 
L 10.984375 60.40625 
L 10.984375 69.390625 
L 28.421875 72.90625 
L 38.28125 72.90625 
L 38.28125 8.296875 
L 54.390625 8.296875 
L 54.390625 0 
L 12.40625 0 
z
" id="DejaVuSans-49"/>
       <path d="M 40.578125 39.3125 
Q 47.65625 37.796875 51.625 33 
Q 55.609375 28.21875 55.609375 21.1875 
Q 55.609375 10.40625 48.1875 4.484375 
Q 40.765625 -1.421875 27.09375 -1.421875 
Q 22.515625 -1.421875 17.65625 -0.515625 
Q 12.796875 0.390625 7.625 2.203125 
L 7.625 11.71875 
Q 11.71875 9.328125 16.59375 8.109375 
Q 21.484375 6.890625 26.8125 6.890625 
Q 36.078125 6.890625 40.9375 10.546875 
Q 45.796875 14.203125 45.796875 21.1875 
Q 45.796875 27.640625 41.28125 31.265625 
Q 36.765625 34.90625 28.71875 34.90625 
L 20.21875 34.90625 
L 20.21875 43.015625 
L 29.109375 43.015625 
Q 36.375 43.015625 40.234375 45.921875 
Q 44.09375 48.828125 44.09375 54.296875 
Q 44.09375 59.90625 40.109375 62.90625 
Q 36.140625 65.921875 28.71875 65.921875 
Q 24.65625 65.921875 20.015625 65.03125 
Q 15.375 64.15625 9.8125 62.3125 
L 9.8125 71.09375 
Q 15.4375 72.65625 20.34375 73.4375 
Q 25.25 74.21875 29.59375 74.21875 
Q 40.828125 74.21875 47.359375 69.109375 
Q 53.90625 64.015625 53.90625 55.328125 
Q 53.90625 49.265625 50.4375 45.09375 
Q 46.96875 40.921875 40.578125 39.3125 
z
" id="DejaVuSans-51"/>
       <path d="M 4.890625 31.390625 
L 31.203125 31.390625 
L 31.203125 23.390625 
L 4.890625 23.390625 
z
" id="DejaVuSans-45"/>
       <path d="M 37.796875 64.3125 
L 12.890625 25.390625 
L 37.796875 25.390625 
z
M 35.203125 72.90625 
L 47.609375 72.90625 
L 47.609375 25.390625 
L 58.015625 25.390625 
L 58.015625 17.1875 
L 47.609375 17.1875 
L 47.609375 0 
L 37.796875 0 
L 37.796875 17.1875 
L 4.890625 17.1875 
L 4.890625 26.703125 
z
" id="DejaVuSans-52"/>
      </defs>
      <g transform="translate(28.542188 322.182437)scale(0.1 -0.1)">
       <use xlink:href="#DejaVuSans-50"/>
       <use x="63.623047" xlink:href="#DejaVuSans-48"/>
       <use x="127.246094" xlink:href="#DejaVuSans-49"/>
       <use x="190.869141" xlink:href="#DejaVuSans-51"/>
       <use x="254.492188" xlink:href="#DejaVuSans-45"/>
       <use x="290.576172" xlink:href="#DejaVuSans-48"/>
       <use x="354.199219" xlink:href="#DejaVuSans-49"/>
       <use x="417.822266" xlink:href="#DejaVuSans-45"/>
       <use x="453.90625" xlink:href="#DejaVuSans-48"/>
       <use x="517.529297" xlink:href="#DejaVuSans-52"/>
      </g>
     </g>
    </g>
    <g id="xtick_2">
     <g id="line2d_3">
      <path clip-path="url(#p2a4cd70dfb)" d="M 128.750345 307.584 
L 128.750345 41.472 
" style="fill:none;stroke:#b0b0b0;stroke-linecap:square;stroke-width:0.8;"/>
     </g>
     <g id="line2d_4">
      <g>
       <use style="stroke:#000000;stroke-width:0.8;" x="128.750345" xlink:href="#mc5a84a2ecb" y="307.584"/>
      </g>
     </g>
     <g id="text_2">
      <!-- 2014-04-07 -->
      <defs>
       <path d="M 8.203125 72.90625 
L 55.078125 72.90625 
L 55.078125 68.703125 
L 28.609375 0 
L 18.3125 0 
L 43.21875 64.59375 
L 8.203125 64.59375 
z
" id="DejaVuSans-55"/>
      </defs>
      <g transform="translate(99.692532 322.182437)scale(0.1 -0.1)">
       <use xlink:href="#DejaVuSans-50"/>
       <use x="63.623047" xlink:href="#DejaVuSans-48"/>
       <use x="127.246094" xlink:href="#DejaVuSans-49"/>
       <use x="190.869141" xlink:href="#DejaVuSans-52"/>
       <use x="254.492188" xlink:href="#DejaVuSans-45"/>
       <use x="290.576172" xlink:href="#DejaVuSans-48"/>
       <use x="354.199219" xlink:href="#DejaVuSans-52"/>
       <use x="417.822266" xlink:href="#DejaVuSans-45"/>
       <use x="453.90625" xlink:href="#DejaVuSans-48"/>
       <use x="517.529297" xlink:href="#DejaVuSans-55"/>
      </g>
     </g>
    </g>
    <g id="xtick_3">
     <g id="line2d_5">
      <path clip-path="url(#p2a4cd70dfb)" d="M 199.90069 307.584 
L 199.90069 41.472 
" style="fill:none;stroke:#b0b0b0;stroke-linecap:square;stroke-width:0.8;"/>
     </g>
     <g id="line2d_6">
      <g>
       <use style="stroke:#000000;stroke-width:0.8;" x="199.90069" xlink:href="#mc5a84a2ecb" y="307.584"/>
      </g>
     </g>
     <g id="text_3">
      <!-- 2014-11-30 -->
      <g transform="translate(170.842877 322.182437)scale(0.1 -0.1)">
       <use xlink:href="#DejaVuSans-50"/>
       <use x="63.623047" xlink:href="#DejaVuSans-48"/>
       <use x="127.246094" xlink:href="#DejaVuSans-49"/>
       <use x="190.869141" xlink:href="#DejaVuSans-52"/>
       <use x="254.492188" xlink:href="#DejaVuSans-45"/>
       <use x="290.576172" xlink:href="#DejaVuSans-49"/>
       <use x="354.199219" xlink:href="#DejaVuSans-49"/>
       <use x="417.822266" xlink:href="#DejaVuSans-45"/>
       <use x="453.90625" xlink:href="#DejaVuSans-51"/>
       <use x="517.529297" xlink:href="#DejaVuSans-48"/>
      </g>
     </g>
    </g>
    <g id="xtick_4">
     <g id="line2d_7">
      <path clip-path="url(#p2a4cd70dfb)" d="M 271.051034 307.584 
L 271.051034 41.472 
" style="fill:none;stroke:#b0b0b0;stroke-linecap:square;stroke-width:0.8;"/>
     </g>
     <g id="line2d_8">
      <g>
       <use style="stroke:#000000;stroke-width:0.8;" x="271.051034" xlink:href="#mc5a84a2ecb" y="307.584"/>
      </g>
     </g>
     <g id="text_4">
      <!-- 2015-10-17 -->
      <defs>
       <path d="M 10.796875 72.90625 
L 49.515625 72.90625 
L 49.515625 64.59375 
L 19.828125 64.59375 
L 19.828125 46.734375 
Q 21.96875 47.46875 24.109375 47.828125 
Q 26.265625 48.1875 28.421875 48.1875 
Q 40.625 48.1875 47.75 41.5 
Q 54.890625 34.8125 54.890625 23.390625 
Q 54.890625 11.625 47.5625 5.09375 
Q 40.234375 -1.421875 26.90625 -1.421875 
Q 22.3125 -1.421875 17.546875 -0.640625 
Q 12.796875 0.140625 7.71875 1.703125 
L 7.71875 11.625 
Q 12.109375 9.234375 16.796875 8.0625 
Q 21.484375 6.890625 26.703125 6.890625 
Q 35.15625 6.890625 40.078125 11.328125 
Q 45.015625 15.765625 45.015625 23.390625 
Q 45.015625 31 40.078125 35.4375 
Q 35.15625 39.890625 26.703125 39.890625 
Q 22.75 39.890625 18.8125 39.015625 
Q 14.890625 38.140625 10.796875 36.28125 
z
" id="DejaVuSans-53"/>
      </defs>
      <g transform="translate(241.993222 322.182437)scale(0.1 -0.1)">
       <use xlink:href="#DejaVuSans-50"/>
       <use x="63.623047" xlink:href="#DejaVuSans-48"/>
       <use x="127.246094" xlink:href="#DejaVuSans-49"/>
       <use x="190.869141" xlink:href="#DejaVuSans-53"/>
       <use x="254.492188" xlink:href="#DejaVuSans-45"/>
       <use x="290.576172" xlink:href="#DejaVuSans-49"/>
       <use x="354.199219" xlink:href="#DejaVuSans-48"/>
       <use x="417.822266" xlink:href="#DejaVuSans-45"/>
       <use x="453.90625" xlink:href="#DejaVuSans-49"/>
       <use x="517.529297" xlink:href="#DejaVuSans-55"/>
      </g>
     </g>
    </g>
    <g id="xtick_5">
     <g id="line2d_9">
      <path clip-path="url(#p2a4cd70dfb)" d="M 342.201379 307.584 
L 342.201379 41.472 
" style="fill:none;stroke:#b0b0b0;stroke-linecap:square;stroke-width:0.8;"/>
     </g>
     <g id="line2d_10">
      <g>
       <use style="stroke:#000000;stroke-width:0.8;" x="342.201379" xlink:href="#mc5a84a2ecb" y="307.584"/>
      </g>
     </g>
     <g id="text_5">
      <!-- 2016-07-21 -->
      <defs>
       <path d="M 33.015625 40.375 
Q 26.375 40.375 22.484375 35.828125 
Q 18.609375 31.296875 18.609375 23.390625 
Q 18.609375 15.53125 22.484375 10.953125 
Q 26.375 6.390625 33.015625 6.390625 
Q 39.65625 6.390625 43.53125 10.953125 
Q 47.40625 15.53125 47.40625 23.390625 
Q 47.40625 31.296875 43.53125 35.828125 
Q 39.65625 40.375 33.015625 40.375 
z
M 52.59375 71.296875 
L 52.59375 62.3125 
Q 48.875 64.0625 45.09375 64.984375 
Q 41.3125 65.921875 37.59375 65.921875 
Q 27.828125 65.921875 22.671875 59.328125 
Q 17.53125 52.734375 16.796875 39.40625 
Q 19.671875 43.65625 24.015625 45.921875 
Q 28.375 48.1875 33.59375 48.1875 
Q 44.578125 48.1875 50.953125 41.515625 
Q 57.328125 34.859375 57.328125 23.390625 
Q 57.328125 12.15625 50.6875 5.359375 
Q 44.046875 -1.421875 33.015625 -1.421875 
Q 20.359375 -1.421875 13.671875 8.265625 
Q 6.984375 17.96875 6.984375 36.375 
Q 6.984375 53.65625 15.1875 63.9375 
Q 23.390625 74.21875 37.203125 74.21875 
Q 40.921875 74.21875 44.703125 73.484375 
Q 48.484375 72.75 52.59375 71.296875 
z
" id="DejaVuSans-54"/>
      </defs>
      <g transform="translate(313.143567 322.182437)scale(0.1 -0.1)">
       <use xlink:href="#DejaVuSans-50"/>
       <use x="63.623047" xlink:href="#DejaVuSans-48"/>
       <use x="127.246094" xlink:href="#DejaVuSans-49"/>
       <use x="190.869141" xlink:href="#DejaVuSans-54"/>
       <use x="254.492188" xlink:href="#DejaVuSans-45"/>
       <use x="290.576172" xlink:href="#DejaVuSans-48"/>
       <use x="354.199219" xlink:href="#DejaVuSans-55"/>
       <use x="417.822266" xlink:href="#DejaVuSans-45"/>
       <use x="453.90625" xlink:href="#DejaVuSans-50"/>
       <use x="517.529297" xlink:href="#DejaVuSans-49"/>
      </g>
     </g>
    </g>
    <g id="xtick_6">
     <g id="line2d_11">
      <path clip-path="url(#p2a4cd70dfb)" d="M 413.351724 307.584 
L 413.351724 41.472 
" style="fill:none;stroke:#b0b0b0;stroke-linecap:square;stroke-width:0.8;"/>
     </g>
     <g id="line2d_12">
      <g>
       <use style="stroke:#000000;stroke-width:0.8;" x="413.351724" xlink:href="#mc5a84a2ecb" y="307.584"/>
      </g>
     </g>
     <g id="text_6">
      <!-- 2016-12-26 -->
      <g transform="translate(384.293912 322.182437)scale(0.1 -0.1)">
       <use xlink:href="#DejaVuSans-50"/>
       <use x="63.623047" xlink:href="#DejaVuSans-48"/>
       <use x="127.246094" xlink:href="#DejaVuSans-49"/>
       <use x="190.869141" xlink:href="#DejaVuSans-54"/>
       <use x="254.492188" xlink:href="#DejaVuSans-45"/>
       <use x="290.576172" xlink:href="#DejaVuSans-49"/>
       <use x="354.199219" xlink:href="#DejaVuSans-50"/>
       <use x="417.822266" xlink:href="#DejaVuSans-45"/>
       <use x="453.90625" xlink:href="#DejaVuSans-50"/>
       <use x="517.529297" xlink:href="#DejaVuSans-54"/>
      </g>
     </g>
    </g>
    <g id="text_7">
     <!-- Dates -->
     <defs>
      <path d="M 19.671875 64.796875 
L 19.671875 8.109375 
L 31.59375 8.109375 
Q 46.6875 8.109375 53.6875 14.9375 
Q 60.6875 21.78125 60.6875 36.53125 
Q 60.6875 51.171875 53.6875 57.984375 
Q 46.6875 64.796875 31.59375 64.796875 
z
M 9.8125 72.90625 
L 30.078125 72.90625 
Q 51.265625 72.90625 61.171875 64.09375 
Q 71.09375 55.28125 71.09375 36.53125 
Q 71.09375 17.671875 61.125 8.828125 
Q 51.171875 0 30.078125 0 
L 9.8125 0 
z
" id="DejaVuSans-68"/>
      <path d="M 34.28125 27.484375 
Q 23.390625 27.484375 19.1875 25 
Q 14.984375 22.515625 14.984375 16.5 
Q 14.984375 11.71875 18.140625 8.90625 
Q 21.296875 6.109375 26.703125 6.109375 
Q 34.1875 6.109375 38.703125 11.40625 
Q 43.21875 16.703125 43.21875 25.484375 
L 43.21875 27.484375 
z
M 52.203125 31.203125 
L 52.203125 0 
L 43.21875 0 
L 43.21875 8.296875 
Q 40.140625 3.328125 35.546875 0.953125 
Q 30.953125 -1.421875 24.3125 -1.421875 
Q 15.921875 -1.421875 10.953125 3.296875 
Q 6 8.015625 6 15.921875 
Q 6 25.140625 12.171875 29.828125 
Q 18.359375 34.515625 30.609375 34.515625 
L 43.21875 34.515625 
L 43.21875 35.40625 
Q 43.21875 41.609375 39.140625 45 
Q 35.0625 48.390625 27.6875 48.390625 
Q 23 48.390625 18.546875 47.265625 
Q 14.109375 46.140625 10.015625 43.890625 
L 10.015625 52.203125 
Q 14.9375 54.109375 19.578125 55.046875 
Q 24.21875 56 28.609375 56 
Q 40.484375 56 46.34375 49.84375 
Q 52.203125 43.703125 52.203125 31.203125 
z
" id="DejaVuSans-97"/>
      <path d="M 18.3125 70.21875 
L 18.3125 54.6875 
L 36.8125 54.6875 
L 36.8125 47.703125 
L 18.3125 47.703125 
L 18.3125 18.015625 
Q 18.3125 11.328125 20.140625 9.421875 
Q 21.96875 7.515625 27.59375 7.515625 
L 36.8125 7.515625 
L 36.8125 0 
L 27.59375 0 
Q 17.1875 0 13.234375 3.875 
Q 9.28125 7.765625 9.28125 18.015625 
L 9.28125 47.703125 
L 2.6875 47.703125 
L 2.6875 54.6875 
L 9.28125 54.6875 
L 9.28125 70.21875 
z
" id="DejaVuSans-116"/>
      <path d="M 56.203125 29.59375 
L 56.203125 25.203125 
L 14.890625 25.203125 
Q 15.484375 15.921875 20.484375 11.0625 
Q 25.484375 6.203125 34.421875 6.203125 
Q 39.59375 6.203125 44.453125 7.46875 
Q 49.3125 8.734375 54.109375 11.28125 
L 54.109375 2.78125 
Q 49.265625 0.734375 44.1875 -0.34375 
Q 39.109375 -1.421875 33.890625 -1.421875 
Q 20.796875 -1.421875 13.15625 6.1875 
Q 5.515625 13.8125 5.515625 26.8125 
Q 5.515625 40.234375 12.765625 48.109375 
Q 20.015625 56 32.328125 56 
Q 43.359375 56 49.78125 48.890625 
Q 56.203125 41.796875 56.203125 29.59375 
z
M 47.21875 32.234375 
Q 47.125 39.59375 43.09375 43.984375 
Q 39.0625 48.390625 32.421875 48.390625 
Q 24.90625 48.390625 20.390625 44.140625 
Q 15.875 39.890625 15.1875 32.171875 
z
" id="DejaVuSans-101"/>
      <path d="M 44.28125 53.078125 
L 44.28125 44.578125 
Q 40.484375 46.53125 36.375 47.5 
Q 32.28125 48.484375 27.875 48.484375 
Q 21.1875 48.484375 17.84375 46.4375 
Q 14.5 44.390625 14.5 40.28125 
Q 14.5 37.15625 16.890625 35.375 
Q 19.28125 33.59375 26.515625 31.984375 
L 29.59375 31.296875 
Q 39.15625 29.25 43.1875 25.515625 
Q 47.21875 21.78125 47.21875 15.09375 
Q 47.21875 7.46875 41.1875 3.015625 
Q 35.15625 -1.421875 24.609375 -1.421875 
Q 20.21875 -1.421875 15.453125 -0.5625 
Q 10.6875 0.296875 5.421875 2 
L 5.421875 11.28125 
Q 10.40625 8.6875 15.234375 7.390625 
Q 20.0625 6.109375 24.8125 6.109375 
Q 31.15625 6.109375 34.5625 8.28125 
Q 37.984375 10.453125 37.984375 14.40625 
Q 37.984375 18.0625 35.515625 20.015625 
Q 33.0625 21.96875 24.703125 23.78125 
L 21.578125 24.515625 
Q 13.234375 26.265625 9.515625 29.90625 
Q 5.8125 33.546875 5.8125 39.890625 
Q 5.8125 47.609375 11.28125 51.796875 
Q 16.75 56 26.8125 56 
Q 31.78125 56 36.171875 55.265625 
Q 40.578125 54.546875 44.28125 53.078125 
z
" id="DejaVuSans-115"/>
     </defs>
     <g transform="translate(221.604531 335.860562)scale(0.1 -0.1)">
      <use xlink:href="#DejaVuSans-68"/>
      <use x="77.001953" xlink:href="#DejaVuSans-97"/>
      <use x="138.28125" xlink:href="#DejaVuSans-116"/>
      <use x="177.490234" xlink:href="#DejaVuSans-101"/>
      <use x="239.013672" xlink:href="#DejaVuSans-115"/>
     </g>
    </g>
   </g>
   <g id="matplotlib.axis_2">
    <g id="ytick_1">
     <g id="line2d_13">
      <path clip-path="url(#p2a4cd70dfb)" d="M 57.6 307.584 
L 414.72 307.584 
" style="fill:none;stroke:#b0b0b0;stroke-linecap:square;stroke-width:0.8;"/>
     </g>
     <g id="line2d_14">
      <defs>
       <path d="M 0 0 
L -3.5 0 
" id="m372a195e24" style="stroke:#000000;stroke-width:0.8;"/>
      </defs>
      <g>
       <use style="stroke:#000000;stroke-width:0.8;" x="57.6" xlink:href="#m372a195e24" y="307.584"/>
      </g>
     </g>
     <g id="text_8">
      <!-- 0K -->
      <defs>
       <path d="M 9.8125 72.90625 
L 19.671875 72.90625 
L 19.671875 42.09375 
L 52.390625 72.90625 
L 65.09375 72.90625 
L 28.90625 38.921875 
L 67.671875 0 
L 54.6875 0 
L 19.671875 35.109375 
L 19.671875 0 
L 9.8125 0 
z
" id="DejaVuSans-75"/>
      </defs>
      <g transform="translate(37.679688 311.383219)scale(0.1 -0.1)">
       <use xlink:href="#DejaVuSans-48"/>
       <use x="63.623047" xlink:href="#DejaVuSans-75"/>
      </g>
     </g>
    </g>
    <g id="ytick_2">
     <g id="line2d_15">
      <path clip-path="url(#p2a4cd70dfb)" d="M 57.6 263.091244 
L 414.72 263.091244 
" style="fill:none;stroke:#b0b0b0;stroke-linecap:square;stroke-width:0.8;"/>
     </g>
     <g id="line2d_16">
      <g>
       <use style="stroke:#000000;stroke-width:0.8;" x="57.6" xlink:href="#m372a195e24" y="263.091244"/>
      </g>
     </g>
     <g id="text_9">
      <!-- 200K -->
      <g transform="translate(24.954687 266.890463)scale(0.1 -0.1)">
       <use xlink:href="#DejaVuSans-50"/>
       <use x="63.623047" xlink:href="#DejaVuSans-48"/>
       <use x="127.246094" xlink:href="#DejaVuSans-48"/>
       <use x="190.869141" xlink:href="#DejaVuSans-75"/>
      </g>
     </g>
    </g>
    <g id="ytick_3">
     <g id="line2d_17">
      <path clip-path="url(#p2a4cd70dfb)" d="M 57.6 218.598488 
L 414.72 218.598488 
" style="fill:none;stroke:#b0b0b0;stroke-linecap:square;stroke-width:0.8;"/>
     </g>
     <g id="line2d_18">
      <g>
       <use style="stroke:#000000;stroke-width:0.8;" x="57.6" xlink:href="#m372a195e24" y="218.598488"/>
      </g>
     </g>
     <g id="text_10">
      <!-- 400K -->
      <g transform="translate(24.954687 222.397707)scale(0.1 -0.1)">
       <use xlink:href="#DejaVuSans-52"/>
       <use x="63.623047" xlink:href="#DejaVuSans-48"/>
       <use x="127.246094" xlink:href="#DejaVuSans-48"/>
       <use x="190.869141" xlink:href="#DejaVuSans-75"/>
      </g>
     </g>
    </g>
    <g id="ytick_4">
     <g id="line2d_19">
      <path clip-path="url(#p2a4cd70dfb)" d="M 57.6 174.105732 
L 414.72 174.105732 
" style="fill:none;stroke:#b0b0b0;stroke-linecap:square;stroke-width:0.8;"/>
     </g>
     <g id="line2d_20">
      <g>
       <use style="stroke:#000000;stroke-width:0.8;" x="57.6" xlink:href="#m372a195e24" y="174.105732"/>
      </g>
     </g>
     <g id="text_11">
      <!-- 600K -->
      <g transform="translate(24.954687 177.904951)scale(0.1 -0.1)">
       <use xlink:href="#DejaVuSans-54"/>
       <use x="63.623047" xlink:href="#DejaVuSans-48"/>
       <use x="127.246094" xlink:href="#DejaVuSans-48"/>
       <use x="190.869141" xlink:href="#DejaVuSans-75"/>
      </g>
     </g>
    </g>
    <g id="ytick_5">
     <g id="line2d_21">
      <path clip-path="url(#p2a4cd70dfb)" d="M 57.6 129.612976 
L 414.72 129.612976 
" style="fill:none;stroke:#b0b0b0;stroke-linecap:square;stroke-width:0.8;"/>
     </g>
     <g id="line2d_22">
      <g>
       <use style="stroke:#000000;stroke-width:0.8;" x="57.6" xlink:href="#m372a195e24" y="129.612976"/>
      </g>
     </g>
     <g id="text_12">
      <!-- 800K -->
      <defs>
       <path d="M 31.78125 34.625 
Q 24.75 34.625 20.71875 30.859375 
Q 16.703125 27.09375 16.703125 20.515625 
Q 16.703125 13.921875 20.71875 10.15625 
Q 24.75 6.390625 31.78125 6.390625 
Q 38.8125 6.390625 42.859375 10.171875 
Q 46.921875 13.96875 46.921875 20.515625 
Q 46.921875 27.09375 42.890625 30.859375 
Q 38.875 34.625 31.78125 34.625 
z
M 21.921875 38.8125 
Q 15.578125 40.375 12.03125 44.71875 
Q 8.5 49.078125 8.5 55.328125 
Q 8.5 64.0625 14.71875 69.140625 
Q 20.953125 74.21875 31.78125 74.21875 
Q 42.671875 74.21875 48.875 69.140625 
Q 55.078125 64.0625 55.078125 55.328125 
Q 55.078125 49.078125 51.53125 44.71875 
Q 48 40.375 41.703125 38.8125 
Q 48.828125 37.15625 52.796875 32.3125 
Q 56.78125 27.484375 56.78125 20.515625 
Q 56.78125 9.90625 50.3125 4.234375 
Q 43.84375 -1.421875 31.78125 -1.421875 
Q 19.734375 -1.421875 13.25 4.234375 
Q 6.78125 9.90625 6.78125 20.515625 
Q 6.78125 27.484375 10.78125 32.3125 
Q 14.796875 37.15625 21.921875 38.8125 
z
M 18.3125 54.390625 
Q 18.3125 48.734375 21.84375 45.5625 
Q 25.390625 42.390625 31.78125 42.390625 
Q 38.140625 42.390625 41.71875 45.5625 
Q 45.3125 48.734375 45.3125 54.390625 
Q 45.3125 60.0625 41.71875 63.234375 
Q 38.140625 66.40625 31.78125 66.40625 
Q 25.390625 66.40625 21.84375 63.234375 
Q 18.3125 60.0625 18.3125 54.390625 
z
" id="DejaVuSans-56"/>
      </defs>
      <g transform="translate(24.954687 133.412195)scale(0.1 -0.1)">
       <use xlink:href="#DejaVuSans-56"/>
       <use x="63.623047" xlink:href="#DejaVuSans-48"/>
       <use x="127.246094" xlink:href="#DejaVuSans-48"/>
       <use x="190.869141" xlink:href="#DejaVuSans-75"/>
      </g>
     </g>
    </g>
    <g id="ytick_6">
     <g id="line2d_23">
      <path clip-path="url(#p2a4cd70dfb)" d="M 57.6 85.12022 
L 414.72 85.12022 
" style="fill:none;stroke:#b0b0b0;stroke-linecap:square;stroke-width:0.8;"/>
     </g>
     <g id="line2d_24">
      <g>
       <use style="stroke:#000000;stroke-width:0.8;" x="57.6" xlink:href="#m372a195e24" y="85.12022"/>
      </g>
     </g>
     <g id="text_13">
      <!-- 1000K -->
      <g transform="translate(18.592188 88.919439)scale(0.1 -0.1)">
       <use xlink:href="#DejaVuSans-49"/>
       <use x="63.623047" xlink:href="#DejaVuSans-48"/>
       <use x="127.246094" xlink:href="#DejaVuSans-48"/>
       <use x="190.869141" xlink:href="#DejaVuSans-48"/>
       <use x="254.492188" xlink:href="#DejaVuSans-75"/>
      </g>
     </g>
    </g>
    <g id="text_14">
     <!-- Earnings -->
     <defs>
      <path d="M 9.8125 72.90625 
L 55.90625 72.90625 
L 55.90625 64.59375 
L 19.671875 64.59375 
L 19.671875 43.015625 
L 54.390625 43.015625 
L 54.390625 34.71875 
L 19.671875 34.71875 
L 19.671875 8.296875 
L 56.78125 8.296875 
L 56.78125 0 
L 9.8125 0 
z
" id="DejaVuSans-69"/>
      <path d="M 41.109375 46.296875 
Q 39.59375 47.171875 37.8125 47.578125 
Q 36.03125 48 33.890625 48 
Q 26.265625 48 22.1875 43.046875 
Q 18.109375 38.09375 18.109375 28.8125 
L 18.109375 0 
L 9.078125 0 
L 9.078125 54.6875 
L 18.109375 54.6875 
L 18.109375 46.1875 
Q 20.953125 51.171875 25.484375 53.578125 
Q 30.03125 56 36.53125 56 
Q 37.453125 56 38.578125 55.875 
Q 39.703125 55.765625 41.0625 55.515625 
z
" id="DejaVuSans-114"/>
      <path d="M 54.890625 33.015625 
L 54.890625 0 
L 45.90625 0 
L 45.90625 32.71875 
Q 45.90625 40.484375 42.875 44.328125 
Q 39.84375 48.1875 33.796875 48.1875 
Q 26.515625 48.1875 22.3125 43.546875 
Q 18.109375 38.921875 18.109375 30.90625 
L 18.109375 0 
L 9.078125 0 
L 9.078125 54.6875 
L 18.109375 54.6875 
L 18.109375 46.1875 
Q 21.34375 51.125 25.703125 53.5625 
Q 30.078125 56 35.796875 56 
Q 45.21875 56 50.046875 50.171875 
Q 54.890625 44.34375 54.890625 33.015625 
z
" id="DejaVuSans-110"/>
      <path d="M 9.421875 54.6875 
L 18.40625 54.6875 
L 18.40625 0 
L 9.421875 0 
z
M 9.421875 75.984375 
L 18.40625 75.984375 
L 18.40625 64.59375 
L 9.421875 64.59375 
z
" id="DejaVuSans-105"/>
      <path d="M 45.40625 27.984375 
Q 45.40625 37.75 41.375 43.109375 
Q 37.359375 48.484375 30.078125 48.484375 
Q 22.859375 48.484375 18.828125 43.109375 
Q 14.796875 37.75 14.796875 27.984375 
Q 14.796875 18.265625 18.828125 12.890625 
Q 22.859375 7.515625 30.078125 7.515625 
Q 37.359375 7.515625 41.375 12.890625 
Q 45.40625 18.265625 45.40625 27.984375 
z
M 54.390625 6.78125 
Q 54.390625 -7.171875 48.1875 -13.984375 
Q 42 -20.796875 29.203125 -20.796875 
Q 24.46875 -20.796875 20.265625 -20.09375 
Q 16.0625 -19.390625 12.109375 -17.921875 
L 12.109375 -9.1875 
Q 16.0625 -11.328125 19.921875 -12.34375 
Q 23.78125 -13.375 27.78125 -13.375 
Q 36.625 -13.375 41.015625 -8.765625 
Q 45.40625 -4.15625 45.40625 5.171875 
L 45.40625 9.625 
Q 42.625 4.78125 38.28125 2.390625 
Q 33.9375 0 27.875 0 
Q 17.828125 0 11.671875 7.65625 
Q 5.515625 15.328125 5.515625 27.984375 
Q 5.515625 40.671875 11.671875 48.328125 
Q 17.828125 56 27.875 56 
Q 33.9375 56 38.28125 53.609375 
Q 42.625 51.21875 45.40625 46.390625 
L 45.40625 54.6875 
L 54.390625 54.6875 
z
" id="DejaVuSans-103"/>
     </defs>
     <g transform="translate(12.5125 196.311594)rotate(-90)scale(0.1 -0.1)">
      <use xlink:href="#DejaVuSans-69"/>
      <use x="63.183594" xlink:href="#DejaVuSans-97"/>
      <use x="124.462891" xlink:href="#DejaVuSans-114"/>
      <use x="165.560547" xlink:href="#DejaVuSans-110"/>
      <use x="228.939453" xlink:href="#DejaVuSans-105"/>
      <use x="256.722656" xlink:href="#DejaVuSans-110"/>
      <use x="320.101562" xlink:href="#DejaVuSans-103"/>
      <use x="383.578125" xlink:href="#DejaVuSans-115"/>
     </g>
    </g>
   </g>
   <g id="line2d_25">
    <path clip-path="url(#p2a4cd70dfb)" d="M 57.6 307.534168 
L 58.512184 307.493457 
L 59.424368 307.381335 
L 62.16092 307.234509 
L 62.617011 306.91127 
L 65.353563 306.551101 
L 68.546207 306.438979 
L 71.282759 306.380471 
L 72.194943 306.24944 
L 73.107126 306.161789 
L 73.563218 305.554463 
L 75.843678 305.464143 
L 77.668046 305.366704 
L 79.948506 305.240789 
L 80.404598 305.085954 
L 81.316782 304.990962 
L 81.772874 304.819665 
L 82.228966 304.818775 
L 82.685057 303.697558 
L 83.141149 303.693553 
L 83.597241 303.539608 
L 84.509425 303.502235 
L 85.877701 302.919824 
L 87.702069 302.82372 
L 97.28 302.180132 
L 97.736092 301.951662 
L 100.472644 301.84221 
L 103.665287 301.636208 
L 104.577471 301.475367 
L 105.489655 301.370587 
L 107.314023 301.205741 
L 109.138391 300.923657 
L 110.050575 300.798187 
L 110.506667 300.788844 
L 111.418851 300.217779 
L 111.874943 299.66251 
L 112.331034 298.842953 
L 117.804138 298.30904 
L 118.26023 298.105263 
L 120.084598 297.989805 
L 120.996782 297.856326 
L 125.557701 297.74198 
L 128.294253 297.639869 
L 132.39908 297.517514 
L 133.311264 297.49371 
L 134.67954 296.887719 
L 135.591724 295.973393 
L 136.047816 295.271742 
L 136.503908 295.267738 
L 136.96 294.642392 
L 137.872184 294.556744 
L 138.328276 294.017491 
L 139.696552 293.078917 
L 140.152644 292.973469 
L 140.608736 292.666246 
L 141.064828 292.638216 
L 141.52092 292.484716 
L 142.433103 291.759484 
L 142.889195 291.359717 
L 143.801379 291.149488 
L 145.169655 290.784203 
L 145.625747 290.569748 
L 147.906207 290.260523 
L 148.818391 289.824272 
L 149.274483 289.459653 
L 150.186667 289.025404 
L 150.642759 289.012056 
L 151.098851 287.975153 
L 151.554943 287.680388 
L 152.467126 287.440572 
L 152.923218 287.204983 
L 153.835402 287.11444 
L 154.291494 286.437928 
L 155.65977 285.443515 
L 156.571954 284.956319 
L 157.028046 284.951647 
L 157.484138 284.590144 
L 157.94023 283.955455 
L 159.764598 283.537 
L 160.676782 282.893857 
L 161.132874 282.648035 
L 161.588966 282.542365 
L 162.045057 282.280302 
L 162.957241 282.190204 
L 163.413333 281.693665 
L 163.869425 281.379546 
L 164.325517 281.247181 
L 164.781609 280.891238 
L 166.149885 280.789795 
L 167.974253 279.74822 
L 168.430345 279.533542 
L 168.886437 279.124876 
L 169.342529 279.120427 
L 169.798621 278.775163 
L 170.254713 278.241917 
L 171.166897 277.771406 
L 171.622989 277.59477 
L 172.07908 277.582757 
L 172.991264 276.925377 
L 173.447356 276.650856 
L 173.903448 276.535398 
L 174.815632 275.73742 
L 175.271724 274.983935 
L 175.727816 274.654689 
L 176.64 273.80599 
L 177.096092 273.413563 
L 178.008276 273.357058 
L 178.92046 273.036932 
L 180.288736 271.86922 
L 180.744828 271.772448 
L 181.20092 271.51439 
L 181.657011 270.649451 
L 183.025287 270.255913 
L 184.393563 270.17894 
L 184.849655 269.869715 
L 185.305747 269.752922 
L 185.761839 269.309107 
L 186.217931 268.581873 
L 186.674023 268.488215 
L 187.130115 267.005049 
L 187.586207 266.982581 
L 188.042299 266.535206 
L 189.866667 265.54235 
L 190.778851 264.941698 
L 191.691034 263.54596 
L 192.147126 263.459644 
L 192.603218 262.78024 
L 193.515402 262.637196 
L 194.883678 261.437226 
L 195.33977 261.260367 
L 195.795862 260.944914 
L 196.708046 260.825228 
L 197.164138 260.482189 
L 197.62023 260.352492 
L 198.988506 259.599453 
L 199.444598 259.589664 
L 200.812874 258.369895 
L 201.268966 257.744105 
L 201.725057 257.357463 
L 202.181149 257.136111 
L 203.093333 257.097402 
L 203.549425 255.727248 
L 204.005517 253.341102 
L 204.461609 252.705523 
L 205.829885 252.069499 
L 206.742069 251.633247 
L 207.198161 251.176529 
L 208.110345 251.029258 
L 209.478621 250.673316 
L 209.934713 249.723618 
L 210.846897 249.548539 
L 211.302989 249.458664 
L 212.671264 248.618863 
L 213.583448 248.433996 
L 214.495632 247.245594 
L 217.232184 247.158833 
L 217.688276 247.012007 
L 221.793103 246.920352 
L 222.249195 246.041842 
L 223.161379 245.158439 
L 224.073563 245.103268 
L 224.529655 244.30618 
L 224.985747 240.785246 
L 225.441839 240.737194 
L 225.897931 239.850898 
L 226.354023 239.468483 
L 227.266207 239.232226 
L 227.722299 238.659827 
L 228.178391 238.280971 
L 229.546667 236.708597 
L 230.458851 236.41717 
L 230.914943 236.0461 
L 231.371034 233.72736 
L 231.827126 232.377672 
L 232.283218 231.574356 
L 232.73931 231.396607 
L 233.195402 231.088495 
L 234.107586 230.112991 
L 234.563678 229.755269 
L 235.01977 229.599767 
L 235.475862 229.300553 
L 235.931954 229.278752 
L 236.388046 228.838496 
L 236.844138 227.540642 
L 237.30023 227.363561 
L 237.756322 226.973805 
L 238.212414 226.155138 
L 238.668506 225.762934 
L 239.58069 225.570058 
L 240.036782 223.858867 
L 240.492874 223.009055 
L 240.948966 222.747215 
L 241.861149 221.571049 
L 242.773333 221.250701 
L 243.229425 220.280314 
L 244.141609 219.171777 
L 245.509885 218.499714 
L 245.965977 218.440094 
L 246.878161 217.816083 
L 247.334253 217.609637 
L 247.790345 216.76116 
L 248.246437 216.349602 
L 248.702529 216.333584 
L 249.158621 215.938266 
L 249.614713 215.932927 
L 250.070805 215.661076 
L 250.526897 214.676452 
L 250.982989 214.413277 
L 251.43908 213.857563 
L 252.351264 213.807286 
L 253.71954 211.66051 
L 254.175632 211.132826 
L 254.631724 210.250312 
L 255.543908 210.180904 
L 256.456092 207.316015 
L 256.912184 206.605243 
L 257.368276 205.53675 
L 257.824368 204.772364 
L 258.736552 204.609743 
L 259.192644 204.265592 
L 259.648736 203.319453 
L 260.104828 202.948829 
L 260.56092 201.861203 
L 261.017011 201.468555 
L 261.473103 201.226514 
L 261.929195 201.222065 
L 262.385287 200.690154 
L 262.841379 199.798297 
L 263.753563 199.069505 
L 264.665747 198.574523 
L 265.121839 198.221696 
L 266.034023 196.733636 
L 267.402299 195.227778 
L 268.314483 195.007539 
L 269.226667 193.595117 
L 269.682759 192.879896 
L 270.138851 192.456547 
L 270.594943 191.62431 
L 271.051034 191.366697 
L 271.507126 191.257022 
L 271.963218 190.788958 
L 272.41931 190.505985 
L 272.875402 190.363608 
L 273.331494 189.851496 
L 274.243678 189.47442 
L 274.69977 189.370529 
L 276.068046 187.964558 
L 276.524138 187.353895 
L 276.98023 186.96881 
L 277.436322 186.399081 
L 277.892414 186.357258 
L 278.348506 185.320576 
L 279.716782 183.562445 
L 280.172874 182.557354 
L 280.628966 182.438113 
L 281.541149 181.499316 
L 281.997241 180.49467 
L 282.453333 180.18678 
L 282.909425 179.43196 
L 283.365517 178.941872 
L 283.821609 178.864677 
L 284.733793 178.395501 
L 285.189885 177.798186 
L 285.645977 176.962612 
L 286.102069 176.721461 
L 286.558161 176.168639 
L 287.470345 175.630721 
L 288.382529 174.664339 
L 288.838621 173.449687 
L 289.294713 173.30286 
L 289.750805 172.422794 
L 290.206897 172.183645 
L 290.662989 171.610134 
L 291.11908 170.849307 
L 293.39954 168.449146 
L 293.855632 168.414886 
L 294.311724 167.761955 
L 294.767816 166.902133 
L 295.68 166.099483 
L 296.136092 165.646992 
L 297.048276 165.443215 
L 297.504368 164.65903 
L 297.96046 164.501748 
L 298.416552 163.552051 
L 299.328736 162.501799 
L 299.784828 162.32939 
L 300.24092 162.32494 
L 300.697011 161.574792 
L 301.153103 161.350104 
L 301.609195 161.348769 
L 302.977471 160.546342 
L 303.433563 160.515197 
L 304.345747 159.959038 
L 304.801839 159.117458 
L 305.257931 158.940154 
L 305.714023 158.272318 
L 306.626207 157.949968 
L 307.082299 156.143784 
L 308.450575 154.192999 
L 308.906667 152.871342 
L 309.362759 152.624407 
L 309.818851 152.620625 
L 310.731034 149.297684 
L 311.187126 148.921943 
L 311.643218 147.322206 
L 312.09931 146.589855 
L 312.555402 146.318004 
L 313.011494 145.703337 
L 313.923678 143.403951 
L 314.37977 138.847003 
L 314.835862 137.945802 
L 315.291954 137.310001 
L 315.748046 137.28286 
L 316.204138 133.749468 
L 316.66023 132.071868 
L 317.116322 131.488346 
L 317.572414 130.561562 
L 318.028506 130.11085 
L 318.94069 129.649683 
L 319.396782 128.426355 
L 319.852874 126.280469 
L 320.765057 124.240476 
L 321.677241 122.138638 
L 322.133333 122.015838 
L 323.501609 119.045502 
L 324.413793 117.549655 
L 324.869885 117.203947 
L 325.325977 117.147441 
L 325.782069 116.144129 
L 326.238161 115.581741 
L 326.694253 113.190478 
L 327.606437 110.050846 
L 328.062529 109.525164 
L 328.518621 109.393688 
L 328.974713 108.452667 
L 329.430805 107.232898 
L 330.342989 106.451827 
L 330.79908 105.678766 
L 332.167356 104.541976 
L 332.623448 104.5333 
L 333.07954 104.139984 
L 333.991724 104.114623 
L 335.36 102.786514 
L 337.64046 102.345368 
L 338.096552 102.223903 
L 338.552644 101.977191 
L 339.008736 101.934255 
L 339.464828 101.717798 
L 340.377011 101.653729 
L 340.833103 100.937173 
L 341.745287 100.23352 
L 342.201379 98.952351 
L 342.657471 98.746349 
L 343.113563 98.151259 
L 343.569655 98.113662 
L 345.850115 96.926596 
L 346.762299 96.813584 
L 347.674483 95.9482 
L 348.130575 95.780017 
L 349.042759 95.043885 
L 349.954943 94.95045 
L 350.411034 94.589169 
L 350.867126 94.556689 
L 351.323218 94.390731 
L 352.235402 93.156057 
L 353.147586 93.013903 
L 353.603678 92.503126 
L 354.515862 92.049077 
L 354.971954 91.082472 
L 357.252414 90.807062 
L 358.62069 90.166589 
L 361.357241 89.417108 
L 361.813333 89.205768 
L 362.725517 89.133912 
L 363.637701 88.893874 
L 365.462069 88.398669 
L 365.918161 88.389326 
L 366.830345 87.761088 
L 367.286437 87.117723 
L 368.198621 86.577581 
L 369.110805 86.343771 
L 370.022989 85.761139 
L 370.47908 84.782965 
L 371.391264 84.546931 
L 372.75954 84.249275 
L 373.671724 83.761857 
L 374.127816 83.207032 
L 375.04 82.693586 
L 375.496092 82.686912 
L 375.952184 82.520064 
L 376.864368 81.597506 
L 377.32046 81.385721 
L 378.688736 81.215536 
L 379.144828 80.202659 
L 379.60092 79.56619 
L 380.057011 79.368419 
L 381.425287 77.914396 
L 382.337471 77.214303 
L 382.793563 76.008104 
L 383.705747 75.598993 
L 384.161839 74.959187 
L 384.617931 74.720261 
L 385.074023 74.710918 
L 386.898391 73.635973 
L 387.354483 72.667365 
L 388.266667 72.551684 
L 388.722759 71.767277 
L 389.178851 71.71522 
L 389.634943 71.233809 
L 391.45931 70.808013 
L 391.915402 69.544864 
L 393.283678 69.26367 
L 393.73977 68.778921 
L 394.651954 68.665242 
L 395.108046 68.492165 
L 395.564138 67.966261 
L 396.02023 67.659706 
L 396.476322 66.159632 
L 398.30069 65.991672 
L 398.756782 65.603696 
L 399.668966 65.334514 
L 400.125057 64.30028 
L 401.037241 64.264019 
L 401.493333 63.394408 
L 401.949425 62.924787 
L 402.861609 61.019162 
L 403.317701 60.837187 
L 403.773793 60.511055 
L 404.229885 60.491033 
L 405.142069 58.843689 
L 406.510345 57.928918 
L 406.966437 57.923801 
L 407.878621 56.84196 
L 408.790805 56.5928 
L 409.246897 56.087807 
L 411.071264 55.693157 
L 411.527356 55.648664 
L 411.983448 55.28894 
L 413.351724 54.980605 
L 413.807816 54.439796 
L 414.263908 54.385737 
L 414.72 54.143251 
L 414.72 54.143251 
" style="fill:none;stroke:#1f77b4;stroke-linecap:square;stroke-width:1.5;"/>
   </g>
   <g id="line2d_26">
    <path clip-path="url(#p2a4cd70dfb)" d="M 57.6 307.56828 
L 62.16092 307.472407 
L 63.073103 307.342188 
L 73.107126 307.128481 
L 73.563218 306.937905 
L 79.948506 306.840062 
L 81.772874 306.706198 
L 82.228966 306.705915 
L 82.685057 306.352965 
L 84.509425 306.292727 
L 86.789885 306.113618 
L 95.911724 305.905255 
L 103.209195 305.737583 
L 111.418851 305.256145 
L 112.787126 304.802099 
L 116.435862 304.674995 
L 120.084598 304.535926 
L 121.908966 304.487442 
L 133.311264 304.373053 
L 135.135632 304.039164 
L 136.96 303.435752 
L 137.872184 303.407602 
L 138.784368 303.129806 
L 141.064828 302.778692 
L 141.977011 302.624724 
L 143.345287 302.313378 
L 146.081839 302.090858 
L 148.818391 301.868096 
L 150.186667 301.614147 
L 150.642759 301.609911 
L 151.098851 301.279456 
L 152.467126 301.109279 
L 153.37931 301.019326 
L 153.835402 301.005033 
L 154.747586 300.668219 
L 158.852414 299.910294 
L 160.676782 299.670437 
L 162.501149 299.456984 
L 162.957241 299.451483 
L 163.869425 299.20143 
L 167.518161 298.79068 
L 171.622989 298.03712 
L 172.535172 297.922021 
L 174.815632 297.47524 
L 175.271724 297.24926 
L 178.008276 296.756012 
L 179.376552 296.549696 
L 181.20092 296.198414 
L 181.657011 295.937174 
L 183.937471 295.799285 
L 184.849655 295.70266 
L 185.761839 295.53387 
L 186.217931 295.31738 
L 186.674023 295.289388 
L 187.130115 294.846109 
L 187.586207 294.839394 
L 188.498391 294.640006 
L 189.866667 294.413852 
L 191.234943 294.051304 
L 191.691034 293.824754 
L 192.147126 293.799262 
L 192.603218 293.599042 
L 193.515402 293.556887 
L 195.795862 293.055345 
L 197.62023 292.88012 
L 200.812874 292.288923 
L 201.725057 291.988758 
L 202.637241 291.912197 
L 203.093333 291.911403 
L 203.549425 291.508155 
L 204.005517 290.799848 
L 204.917701 290.538583 
L 207.654253 290.145593 
L 209.478621 290.0102 
L 209.934713 289.73704 
L 213.583448 289.37133 
L 214.495632 289.032484 
L 221.793103 288.944392 
L 222.705287 288.577337 
L 223.617471 288.463351 
L 224.073563 288.462584 
L 224.529655 288.252603 
L 224.985747 287.333611 
L 225.441839 287.32104 
L 225.897931 287.089571 
L 226.810115 286.962555 
L 227.266207 286.925506 
L 229.546667 286.254284 
L 230.914943 286.078942 
L 231.371034 285.466734 
L 231.827126 285.108051 
L 232.283218 284.89417 
L 233.195402 284.765137 
L 234.563678 284.408717 
L 236.388046 284.166819 
L 236.844138 283.822606 
L 237.756322 283.674142 
L 238.668506 283.35853 
L 239.58069 283.308205 
L 240.036782 282.860788 
L 240.492874 282.637664 
L 241.405057 282.426027 
L 241.861149 282.255493 
L 242.773333 282.170197 
L 243.685517 281.746798 
L 244.597701 281.554717 
L 247.334253 281.1968 
L 248.246437 280.860469 
L 249.614713 280.749345 
L 250.070805 280.676858 
L 250.526897 280.41517 
L 252.807356 279.991853 
L 253.71954 279.618284 
L 255.087816 279.230249 
L 255.543908 279.222667 
L 256.912184 278.261741 
L 257.824368 277.765899 
L 259.192644 277.62882 
L 259.648736 277.376099 
L 260.104828 277.278053 
L 260.56092 276.989458 
L 261.473103 276.821631 
L 261.929195 276.820455 
L 264.209655 276.193171 
L 265.121839 276.028552 
L 266.946207 275.334101 
L 267.858391 275.198563 
L 268.314483 275.174131 
L 269.682759 274.601504 
L 272.41931 273.963548 
L 273.331494 273.790251 
L 276.068046 273.301085 
L 277.436322 272.897983 
L 277.892414 272.88719 
L 278.804598 272.464692 
L 279.716782 272.165753 
L 280.172874 271.908532 
L 281.085057 271.750943 
L 281.541149 271.639275 
L 281.997241 271.385384 
L 282.453333 271.307576 
L 283.365517 270.991736 
L 284.733793 270.853303 
L 286.558161 270.293307 
L 287.926437 270.046377 
L 288.382529 269.91597 
L 288.838621 269.61393 
L 289.294713 269.577495 
L 289.750805 269.359295 
L 290.662989 269.157807 
L 291.575172 268.852907 
L 293.39954 268.368988 
L 293.855632 268.360338 
L 295.68 267.778428 
L 296.592184 267.624734 
L 297.048276 267.613196 
L 297.504368 267.415643 
L 297.96046 267.375848 
L 298.872644 267.009084 
L 299.784828 266.827494 
L 300.24092 266.826369 
L 300.697011 266.635005 
L 304.345747 266.217455 
L 304.801839 266.000559 
L 305.257931 265.955109 
L 305.714023 265.783917 
L 306.626207 265.701287 
L 307.082299 265.241476 
L 308.450575 264.754722 
L 308.906667 264.424002 
L 309.818851 264.361265 
L 310.731034 263.533058 
L 311.187126 263.439282 
L 311.643218 263.039248 
L 312.555402 262.790751 
L 313.467586 262.381974 
L 313.923678 262.079057 
L 314.37977 260.97576 
L 315.291954 260.601165 
L 315.748046 260.59455 
L 316.204138 259.739959 
L 316.66023 259.335475 
L 318.484598 258.809513 
L 318.94069 258.742975 
L 319.396782 258.441944 
L 319.852874 257.909902 
L 321.677241 256.866063 
L 322.133333 256.834911 
L 323.957701 255.877037 
L 324.869885 255.614002 
L 325.325977 255.59954 
L 326.238161 255.201 
L 326.694253 254.594558 
L 327.606437 253.799283 
L 328.974713 253.394152 
L 329.430805 253.086681 
L 330.79908 252.694704 
L 332.167356 252.408908 
L 333.991724 252.300863 
L 335.36 251.969002 
L 340.377011 251.684631 
L 341.289195 251.410185 
L 341.745287 251.327495 
L 342.201379 251.00466 
L 347.218391 250.340626 
L 349.042759 250.00698 
L 351.323218 249.83757 
L 352.235402 249.514899 
L 354.05977 249.288281 
L 354.515862 249.224595 
L 354.971954 248.969055 
L 358.164598 248.761355 
L 366.830345 248.10819 
L 367.742529 247.861474 
L 370.022989 247.589902 
L 370.47908 247.336496 
L 375.952184 246.746397 
L 376.864368 246.50616 
L 378.232644 246.422878 
L 378.688736 246.406817 
L 379.60092 245.977034 
L 380.513103 245.80014 
L 384.617931 244.741808 
L 385.530115 244.673377 
L 386.898391 244.468106 
L 387.354483 244.224099 
L 388.266667 244.194958 
L 388.722759 243.996313 
L 389.634943 243.859546 
L 391.45931 243.750071 
L 391.915402 243.427279 
L 395.108046 243.163458 
L 396.02023 242.960593 
L 396.476322 242.598038 
L 398.756782 242.464432 
L 399.668966 242.399835 
L 400.125057 242.151388 
L 401.037241 242.142677 
L 402.861609 241.36549 
L 404.229885 241.240193 
L 405.142069 240.848252 
L 406.510345 240.627232 
L 406.966437 240.626007 
L 408.334713 240.347854 
L 414.72 239.72916 
L 414.72 239.72916 
" style="fill:none;stroke:#ff7f0e;stroke-linecap:square;stroke-width:1.5;"/>
   </g>
   <g id="patch_3">
    <path d="M 57.6 307.584 
L 57.6 41.472 
" style="fill:none;stroke:#000000;stroke-linecap:square;stroke-linejoin:miter;stroke-width:0.8;"/>
   </g>
   <g id="patch_4">
    <path d="M 414.72 307.584 
L 414.72 41.472 
" style="fill:none;stroke:#000000;stroke-linecap:square;stroke-linejoin:miter;stroke-width:0.8;"/>
   </g>
   <g id="patch_5">
    <path d="M 57.6 307.584 
L 414.72 307.584 
" style="fill:none;stroke:#000000;stroke-linecap:square;stroke-linejoin:miter;stroke-width:0.8;"/>
   </g>
   <g id="patch_6">
    <path d="M 57.6 41.472 
L 414.72 41.472 
" style="fill:none;stroke:#000000;stroke-linecap:square;stroke-linejoin:miter;stroke-width:0.8;"/>
   </g>
   <g id="text_15">
    <!-- Earnings in USD and PLN -->
    <defs>
     <path id="DejaVuSans-32"/>
     <path d="M 8.6875 72.90625 
L 18.609375 72.90625 
L 18.609375 28.609375 
Q 18.609375 16.890625 22.84375 11.734375 
Q 27.09375 6.59375 36.625 6.59375 
Q 46.09375 6.59375 50.34375 11.734375 
Q 54.59375 16.890625 54.59375 28.609375 
L 54.59375 72.90625 
L 64.5 72.90625 
L 64.5 27.390625 
Q 64.5 13.140625 57.4375 5.859375 
Q 50.390625 -1.421875 36.625 -1.421875 
Q 22.796875 -1.421875 15.734375 5.859375 
Q 8.6875 13.140625 8.6875 27.390625 
z
" id="DejaVuSans-85"/>
     <path d="M 53.515625 70.515625 
L 53.515625 60.890625 
Q 47.90625 63.578125 42.921875 64.890625 
Q 37.9375 66.21875 33.296875 66.21875 
Q 25.25 66.21875 20.875 63.09375 
Q 16.5 59.96875 16.5 54.203125 
Q 16.5 49.359375 19.40625 46.890625 
Q 22.3125 44.4375 30.421875 42.921875 
L 36.375 41.703125 
Q 47.40625 39.59375 52.65625 34.296875 
Q 57.90625 29 57.90625 20.125 
Q 57.90625 9.515625 50.796875 4.046875 
Q 43.703125 -1.421875 29.984375 -1.421875 
Q 24.8125 -1.421875 18.96875 -0.25 
Q 13.140625 0.921875 6.890625 3.21875 
L 6.890625 13.375 
Q 12.890625 10.015625 18.65625 8.296875 
Q 24.421875 6.59375 29.984375 6.59375 
Q 38.421875 6.59375 43.015625 9.90625 
Q 47.609375 13.234375 47.609375 19.390625 
Q 47.609375 24.75 44.3125 27.78125 
Q 41.015625 30.8125 33.5 32.328125 
L 27.484375 33.5 
Q 16.453125 35.6875 11.515625 40.375 
Q 6.59375 45.0625 6.59375 53.421875 
Q 6.59375 63.09375 13.40625 68.65625 
Q 20.21875 74.21875 32.171875 74.21875 
Q 37.3125 74.21875 42.625 73.28125 
Q 47.953125 72.359375 53.515625 70.515625 
z
" id="DejaVuSans-83"/>
     <path d="M 45.40625 46.390625 
L 45.40625 75.984375 
L 54.390625 75.984375 
L 54.390625 0 
L 45.40625 0 
L 45.40625 8.203125 
Q 42.578125 3.328125 38.25 0.953125 
Q 33.9375 -1.421875 27.875 -1.421875 
Q 17.96875 -1.421875 11.734375 6.484375 
Q 5.515625 14.40625 5.515625 27.296875 
Q 5.515625 40.1875 11.734375 48.09375 
Q 17.96875 56 27.875 56 
Q 33.9375 56 38.25 53.625 
Q 42.578125 51.265625 45.40625 46.390625 
z
M 14.796875 27.296875 
Q 14.796875 17.390625 18.875 11.75 
Q 22.953125 6.109375 30.078125 6.109375 
Q 37.203125 6.109375 41.296875 11.75 
Q 45.40625 17.390625 45.40625 27.296875 
Q 45.40625 37.203125 41.296875 42.84375 
Q 37.203125 48.484375 30.078125 48.484375 
Q 22.953125 48.484375 18.875 42.84375 
Q 14.796875 37.203125 14.796875 27.296875 
z
" id="DejaVuSans-100"/>
     <path d="M 19.671875 64.796875 
L 19.671875 37.40625 
L 32.078125 37.40625 
Q 38.96875 37.40625 42.71875 40.96875 
Q 46.484375 44.53125 46.484375 51.125 
Q 46.484375 57.671875 42.71875 61.234375 
Q 38.96875 64.796875 32.078125 64.796875 
z
M 9.8125 72.90625 
L 32.078125 72.90625 
Q 44.34375 72.90625 50.609375 67.359375 
Q 56.890625 61.8125 56.890625 51.125 
Q 56.890625 40.328125 50.609375 34.8125 
Q 44.34375 29.296875 32.078125 29.296875 
L 19.671875 29.296875 
L 19.671875 0 
L 9.8125 0 
z
" id="DejaVuSans-80"/>
     <path d="M 9.8125 72.90625 
L 19.671875 72.90625 
L 19.671875 8.296875 
L 55.171875 8.296875 
L 55.171875 0 
L 9.8125 0 
z
" id="DejaVuSans-76"/>
     <path d="M 9.8125 72.90625 
L 23.09375 72.90625 
L 55.421875 11.921875 
L 55.421875 72.90625 
L 64.984375 72.90625 
L 64.984375 0 
L 51.703125 0 
L 19.390625 60.984375 
L 19.390625 0 
L 9.8125 0 
z
" id="DejaVuSans-78"/>
    </defs>
    <g transform="translate(161.364375 35.472)scale(0.12 -0.12)">
     <use xlink:href="#DejaVuSans-69"/>
     <use x="63.183594" xlink:href="#DejaVuSans-97"/>
     <use x="124.462891" xlink:href="#DejaVuSans-114"/>
     <use x="165.560547" xlink:href="#DejaVuSans-110"/>
     <use x="228.939453" xlink:href="#DejaVuSans-105"/>
     <use x="256.722656" xlink:href="#DejaVuSans-110"/>
     <use x="320.101562" xlink:href="#DejaVuSans-103"/>
     <use x="383.578125" xlink:href="#DejaVuSans-115"/>
     <use x="435.677734" xlink:href="#DejaVuSans-32"/>
     <use x="467.464844" xlink:href="#DejaVuSans-105"/>
     <use x="495.248047" xlink:href="#DejaVuSans-110"/>
     <use x="558.626953" xlink:href="#DejaVuSans-32"/>
     <use x="590.414062" xlink:href="#DejaVuSans-85"/>
     <use x="663.607422" xlink:href="#DejaVuSans-83"/>
     <use x="727.083984" xlink:href="#DejaVuSans-68"/>
     <use x="804.085938" xlink:href="#DejaVuSans-32"/>
     <use x="835.873047" xlink:href="#DejaVuSans-97"/>
     <use x="897.152344" xlink:href="#DejaVuSans-110"/>
     <use x="960.53125" xlink:href="#DejaVuSans-100"/>
     <use x="1024.007812" xlink:href="#DejaVuSans-32"/>
     <use x="1055.794922" xlink:href="#DejaVuSans-80"/>
     <use x="1116.097656" xlink:href="#DejaVuSans-76"/>
     <use x="1171.810547" xlink:href="#DejaVuSans-78"/>
    </g>
   </g>
   <g id="legend_1">
    <g id="patch_7">
     <path d="M 64.6 78.82825 
L 164.546875 78.82825 
Q 166.546875 78.82825 166.546875 76.82825 
L 166.546875 48.472 
Q 166.546875 46.472 164.546875 46.472 
L 64.6 46.472 
Q 62.6 46.472 62.6 48.472 
L 62.6 76.82825 
Q 62.6 78.82825 64.6 78.82825 
z
" style="fill:#ffffff;opacity:0.8;stroke:#cccccc;stroke-linejoin:miter;"/>
    </g>
    <g id="patch_8">
     <path d="M 66.6 58.070437 
L 86.6 58.070437 
L 86.6 51.070437 
L 66.6 51.070437 
z
" style="fill:#1f77b4;stroke:#1f77b4;stroke-linejoin:miter;"/>
    </g>
    <g id="text_16">
     <!-- PLN earnings -->
     <g transform="translate(94.6 58.070437)scale(0.1 -0.1)">
      <use xlink:href="#DejaVuSans-80"/>
      <use x="60.302734" xlink:href="#DejaVuSans-76"/>
      <use x="116.015625" xlink:href="#DejaVuSans-78"/>
      <use x="190.820312" xlink:href="#DejaVuSans-32"/>
      <use x="222.607422" xlink:href="#DejaVuSans-101"/>
      <use x="284.130859" xlink:href="#DejaVuSans-97"/>
      <use x="345.410156" xlink:href="#DejaVuSans-114"/>
      <use x="386.507812" xlink:href="#DejaVuSans-110"/>
      <use x="449.886719" xlink:href="#DejaVuSans-105"/>
      <use x="477.669922" xlink:href="#DejaVuSans-110"/>
      <use x="541.048828" xlink:href="#DejaVuSans-103"/>
      <use x="604.525391" xlink:href="#DejaVuSans-115"/>
     </g>
    </g>
    <g id="patch_9">
     <path d="M 66.6 72.748562 
L 86.6 72.748562 
L 86.6 65.748562 
L 66.6 65.748562 
z
" style="fill:#ff7f0e;stroke:#ff7f0e;stroke-linejoin:miter;"/>
    </g>
    <g id="text_17">
     <!-- USD earnings -->
     <g transform="translate(94.6 72.748562)scale(0.1 -0.1)">
      <use xlink:href="#DejaVuSans-85"/>
      <use x="73.193359" xlink:href="#DejaVuSans-83"/>
      <use x="136.669922" xlink:href="#DejaVuSans-68"/>
      <use x="213.671875" xlink:href="#DejaVuSans-32"/>
      <use x="245.458984" xlink:href="#DejaVuSans-101"/>
      <use x="306.982422" xlink:href="#DejaVuSans-97"/>
      <use x="368.261719" xlink:href="#DejaVuSans-114"/>
      <use x="409.359375" xlink:href="#DejaVuSans-110"/>
      <use x="472.738281" xlink:href="#DejaVuSans-105"/>
      <use x="500.521484" xlink:href="#DejaVuSans-110"/>
      <use x="563.900391" xlink:href="#DejaVuSans-103"/>
      <use x="627.376953" xlink:href="#DejaVuSans-115"/>
     </g>
    </g>
   </g>
  </g>
 </g>
 <defs>
  <clipPath id="p2a4cd70dfb">
   <rect height="266.112" width="357.12" x="57.6" y="41.472"/>
  </clipPath>
 </defs>
</svg>
