<?xml version="1.0" encoding="utf-8" standalone="no"?>
<!DOCTYPE svg PUBLIC "-//W3C//DTD SVG 1.1//EN"
  "http://www.w3.org/Graphics/SVG/1.1/DTD/svg11.dtd">
<!-- Created with matplotlib (https://matplotlib.org/) -->
<svg height="345.6pt" version="1.1" viewBox="0 0 460.8 345.6" width="460.8pt" xmlns="http://www.w3.org/2000/svg" xmlns:xlink="http://www.w3.org/1999/xlink">
 <defs>
  <style type="text/css">
*{stroke-linecap:butt;stroke-linejoin:round;}
  </style>
 </defs>
 <g id="figure_1">
  <g id="patch_1">
   <path d="M 0 345.6 
L 460.8 345.6 
L 460.8 0 
L 0 0 
z
" style="fill:#ffffff;"/>
  </g>
  <g id="axes_1">
   <g id="patch_2">
    <path d="M 57.6 307.584 
L 414.72 307.584 
L 414.72 41.472 
L 57.6 41.472 
z
" style="fill:#ffffff;"/>
   </g>
   <g id="matplotlib.axis_1">
    <g id="xtick_1">
     <g id="line2d_1">
      <defs>
       <path d="M 0 0 
L 0 3.5 
" id="mfed5025d9b" style="stroke:#000000;stroke-width:0.8;"/>
      </defs>
      <g>
       <use style="stroke:#000000;stroke-width:0.8;" x="73.832727" xlink:href="#mfed5025d9b" y="307.584"/>
      </g>
     </g>
     <g id="text_1">
      <!-- 0 -->
      <defs>
       <path d="M 31.78125 66.40625 
Q 24.171875 66.40625 20.328125 58.90625 
Q 16.5 51.421875 16.5 36.375 
Q 16.5 21.390625 20.328125 13.890625 
Q 24.171875 6.390625 31.78125 6.390625 
Q 39.453125 6.390625 43.28125 13.890625 
Q 47.125 21.390625 47.125 36.375 
Q 47.125 51.421875 43.28125 58.90625 
Q 39.453125 66.40625 31.78125 66.40625 
z
M 31.78125 74.21875 
Q 44.046875 74.21875 50.515625 64.515625 
Q 56.984375 54.828125 56.984375 36.375 
Q 56.984375 17.96875 50.515625 8.265625 
Q 44.046875 -1.421875 31.78125 -1.421875 
Q 19.53125 -1.421875 13.0625 8.265625 
Q 6.59375 17.96875 6.59375 36.375 
Q 6.59375 54.828125 13.0625 64.515625 
Q 19.53125 74.21875 31.78125 74.21875 
z
" id="DejaVuSans-48"/>
      </defs>
      <g transform="translate(70.651477 322.182437)scale(0.1 -0.1)">
       <use xlink:href="#DejaVuSans-48"/>
      </g>
     </g>
    </g>
    <g id="xtick_2">
     <g id="line2d_2">
      <g>
       <use style="stroke:#000000;stroke-width:0.8;" x="118.674515" xlink:href="#mfed5025d9b" y="307.584"/>
      </g>
     </g>
     <g id="text_2">
      <!-- 25 -->
      <defs>
       <path d="M 19.1875 8.296875 
L 53.609375 8.296875 
L 53.609375 0 
L 7.328125 0 
L 7.328125 8.296875 
Q 12.9375 14.109375 22.625 23.890625 
Q 32.328125 33.6875 34.8125 36.53125 
Q 39.546875 41.84375 41.421875 45.53125 
Q 43.3125 49.21875 43.3125 52.78125 
Q 43.3125 58.59375 39.234375 62.25 
Q 35.15625 65.921875 28.609375 65.921875 
Q 23.96875 65.921875 18.8125 64.3125 
Q 13.671875 62.703125 7.8125 59.421875 
L 7.8125 69.390625 
Q 13.765625 71.78125 18.9375 73 
Q 24.125 74.21875 28.421875 74.21875 
Q 39.75 74.21875 46.484375 68.546875 
Q 53.21875 62.890625 53.21875 53.421875 
Q 53.21875 48.921875 51.53125 44.890625 
Q 49.859375 40.875 45.40625 35.40625 
Q 44.1875 33.984375 37.640625 27.21875 
Q 31.109375 20.453125 19.1875 8.296875 
z
" id="DejaVuSans-50"/>
       <path d="M 10.796875 72.90625 
L 49.515625 72.90625 
L 49.515625 64.59375 
L 19.828125 64.59375 
L 19.828125 46.734375 
Q 21.96875 47.46875 24.109375 47.828125 
Q 26.265625 48.1875 28.421875 48.1875 
Q 40.625 48.1875 47.75 41.5 
Q 54.890625 34.8125 54.890625 23.390625 
Q 54.890625 11.625 47.5625 5.09375 
Q 40.234375 -1.421875 26.90625 -1.421875 
Q 22.3125 -1.421875 17.546875 -0.640625 
Q 12.796875 0.140625 7.71875 1.703125 
L 7.71875 11.625 
Q 12.109375 9.234375 16.796875 8.0625 
Q 21.484375 6.890625 26.703125 6.890625 
Q 35.15625 6.890625 40.078125 11.328125 
Q 45.015625 15.765625 45.015625 23.390625 
Q 45.015625 31 40.078125 35.4375 
Q 35.15625 39.890625 26.703125 39.890625 
Q 22.75 39.890625 18.8125 39.015625 
Q 14.890625 38.140625 10.796875 36.28125 
z
" id="DejaVuSans-53"/>
      </defs>
      <g transform="translate(112.312015 322.182437)scale(0.1 -0.1)">
       <use xlink:href="#DejaVuSans-50"/>
       <use x="63.623047" xlink:href="#DejaVuSans-53"/>
      </g>
     </g>
    </g>
    <g id="xtick_3">
     <g id="line2d_3">
      <g>
       <use style="stroke:#000000;stroke-width:0.8;" x="163.516303" xlink:href="#mfed5025d9b" y="307.584"/>
      </g>
     </g>
     <g id="text_3">
      <!-- 50 -->
      <g transform="translate(157.153803 322.182437)scale(0.1 -0.1)">
       <use xlink:href="#DejaVuSans-53"/>
       <use x="63.623047" xlink:href="#DejaVuSans-48"/>
      </g>
     </g>
    </g>
    <g id="xtick_4">
     <g id="line2d_4">
      <g>
       <use style="stroke:#000000;stroke-width:0.8;" x="208.358091" xlink:href="#mfed5025d9b" y="307.584"/>
      </g>
     </g>
     <g id="text_4">
      <!-- 75 -->
      <defs>
       <path d="M 8.203125 72.90625 
L 55.078125 72.90625 
L 55.078125 68.703125 
L 28.609375 0 
L 18.3125 0 
L 43.21875 64.59375 
L 8.203125 64.59375 
z
" id="DejaVuSans-55"/>
      </defs>
      <g transform="translate(201.995591 322.182437)scale(0.1 -0.1)">
       <use xlink:href="#DejaVuSans-55"/>
       <use x="63.623047" xlink:href="#DejaVuSans-53"/>
      </g>
     </g>
    </g>
    <g id="xtick_5">
     <g id="line2d_5">
      <g>
       <use style="stroke:#000000;stroke-width:0.8;" x="253.199879" xlink:href="#mfed5025d9b" y="307.584"/>
      </g>
     </g>
     <g id="text_5">
      <!-- 100 -->
      <defs>
       <path d="M 12.40625 8.296875 
L 28.515625 8.296875 
L 28.515625 63.921875 
L 10.984375 60.40625 
L 10.984375 69.390625 
L 28.421875 72.90625 
L 38.28125 72.90625 
L 38.28125 8.296875 
L 54.390625 8.296875 
L 54.390625 0 
L 12.40625 0 
z
" id="DejaVuSans-49"/>
      </defs>
      <g transform="translate(243.656129 322.182437)scale(0.1 -0.1)">
       <use xlink:href="#DejaVuSans-49"/>
       <use x="63.623047" xlink:href="#DejaVuSans-48"/>
       <use x="127.246094" xlink:href="#DejaVuSans-48"/>
      </g>
     </g>
    </g>
    <g id="xtick_6">
     <g id="line2d_6">
      <g>
       <use style="stroke:#000000;stroke-width:0.8;" x="298.041668" xlink:href="#mfed5025d9b" y="307.584"/>
      </g>
     </g>
     <g id="text_6">
      <!-- 125 -->
      <g transform="translate(288.497918 322.182437)scale(0.1 -0.1)">
       <use xlink:href="#DejaVuSans-49"/>
       <use x="63.623047" xlink:href="#DejaVuSans-50"/>
       <use x="127.246094" xlink:href="#DejaVuSans-53"/>
      </g>
     </g>
    </g>
    <g id="xtick_7">
     <g id="line2d_7">
      <g>
       <use style="stroke:#000000;stroke-width:0.8;" x="342.883456" xlink:href="#mfed5025d9b" y="307.584"/>
      </g>
     </g>
     <g id="text_7">
      <!-- 150 -->
      <g transform="translate(333.339706 322.182437)scale(0.1 -0.1)">
       <use xlink:href="#DejaVuSans-49"/>
       <use x="63.623047" xlink:href="#DejaVuSans-53"/>
       <use x="127.246094" xlink:href="#DejaVuSans-48"/>
      </g>
     </g>
    </g>
    <g id="xtick_8">
     <g id="line2d_8">
      <g>
       <use style="stroke:#000000;stroke-width:0.8;" x="387.725244" xlink:href="#mfed5025d9b" y="307.584"/>
      </g>
     </g>
     <g id="text_8">
      <!-- 175 -->
      <g transform="translate(378.181494 322.182437)scale(0.1 -0.1)">
       <use xlink:href="#DejaVuSans-49"/>
       <use x="63.623047" xlink:href="#DejaVuSans-55"/>
       <use x="127.246094" xlink:href="#DejaVuSans-53"/>
      </g>
     </g>
    </g>
    <g id="text_9">
     <!-- Days -->
     <defs>
      <path d="M 19.671875 64.796875 
L 19.671875 8.109375 
L 31.59375 8.109375 
Q 46.6875 8.109375 53.6875 14.9375 
Q 60.6875 21.78125 60.6875 36.53125 
Q 60.6875 51.171875 53.6875 57.984375 
Q 46.6875 64.796875 31.59375 64.796875 
z
M 9.8125 72.90625 
L 30.078125 72.90625 
Q 51.265625 72.90625 61.171875 64.09375 
Q 71.09375 55.28125 71.09375 36.53125 
Q 71.09375 17.671875 61.125 8.828125 
Q 51.171875 0 30.078125 0 
L 9.8125 0 
z
" id="DejaVuSans-68"/>
      <path d="M 34.28125 27.484375 
Q 23.390625 27.484375 19.1875 25 
Q 14.984375 22.515625 14.984375 16.5 
Q 14.984375 11.71875 18.140625 8.90625 
Q 21.296875 6.109375 26.703125 6.109375 
Q 34.1875 6.109375 38.703125 11.40625 
Q 43.21875 16.703125 43.21875 25.484375 
L 43.21875 27.484375 
z
M 52.203125 31.203125 
L 52.203125 0 
L 43.21875 0 
L 43.21875 8.296875 
Q 40.140625 3.328125 35.546875 0.953125 
Q 30.953125 -1.421875 24.3125 -1.421875 
Q 15.921875 -1.421875 10.953125 3.296875 
Q 6 8.015625 6 15.921875 
Q 6 25.140625 12.171875 29.828125 
Q 18.359375 34.515625 30.609375 34.515625 
L 43.21875 34.515625 
L 43.21875 35.40625 
Q 43.21875 41.609375 39.140625 45 
Q 35.0625 48.390625 27.6875 48.390625 
Q 23 48.390625 18.546875 47.265625 
Q 14.109375 46.140625 10.015625 43.890625 
L 10.015625 52.203125 
Q 14.9375 54.109375 19.578125 55.046875 
Q 24.21875 56 28.609375 56 
Q 40.484375 56 46.34375 49.84375 
Q 52.203125 43.703125 52.203125 31.203125 
z
" id="DejaVuSans-97"/>
      <path d="M 32.171875 -5.078125 
Q 28.375 -14.84375 24.75 -17.8125 
Q 21.140625 -20.796875 15.09375 -20.796875 
L 7.90625 -20.796875 
L 7.90625 -13.28125 
L 13.1875 -13.28125 
Q 16.890625 -13.28125 18.9375 -11.515625 
Q 21 -9.765625 23.484375 -3.21875 
L 25.09375 0.875 
L 2.984375 54.6875 
L 12.5 54.6875 
L 29.59375 11.921875 
L 46.6875 54.6875 
L 56.203125 54.6875 
z
" id="DejaVuSans-121"/>
      <path d="M 44.28125 53.078125 
L 44.28125 44.578125 
Q 40.484375 46.53125 36.375 47.5 
Q 32.28125 48.484375 27.875 48.484375 
Q 21.1875 48.484375 17.84375 46.4375 
Q 14.5 44.390625 14.5 40.28125 
Q 14.5 37.15625 16.890625 35.375 
Q 19.28125 33.59375 26.515625 31.984375 
L 29.59375 31.296875 
Q 39.15625 29.25 43.1875 25.515625 
Q 47.21875 21.78125 47.21875 15.09375 
Q 47.21875 7.46875 41.1875 3.015625 
Q 35.15625 -1.421875 24.609375 -1.421875 
Q 20.21875 -1.421875 15.453125 -0.5625 
Q 10.6875 0.296875 5.421875 2 
L 5.421875 11.28125 
Q 10.40625 8.6875 15.234375 7.390625 
Q 20.0625 6.109375 24.8125 6.109375 
Q 31.15625 6.109375 34.5625 8.28125 
Q 37.984375 10.453125 37.984375 14.40625 
Q 37.984375 18.0625 35.515625 20.015625 
Q 33.0625 21.96875 24.703125 23.78125 
L 21.578125 24.515625 
Q 13.234375 26.265625 9.515625 29.90625 
Q 5.8125 33.546875 5.8125 39.890625 
Q 5.8125 47.609375 11.28125 51.796875 
Q 16.75 56 26.8125 56 
Q 31.78125 56 36.171875 55.265625 
Q 40.578125 54.546875 44.28125 53.078125 
z
" id="DejaVuSans-115"/>
     </defs>
     <g transform="translate(218.690625 338.899937)scale(0.14 -0.14)">
      <use xlink:href="#DejaVuSans-68"/>
      <use x="77.001953" xlink:href="#DejaVuSans-97"/>
      <use x="138.28125" xlink:href="#DejaVuSans-121"/>
      <use x="197.460938" xlink:href="#DejaVuSans-115"/>
     </g>
    </g>
   </g>
   <g id="matplotlib.axis_2">
    <g id="ytick_1">
     <g id="line2d_9">
      <defs>
       <path d="M 0 0 
L -3.5 0 
" id="m89187716aa" style="stroke:#000000;stroke-width:0.8;"/>
      </defs>
      <g>
       <use style="stroke:#000000;stroke-width:0.8;" x="57.6" xlink:href="#m89187716aa" y="262.982278"/>
      </g>
     </g>
     <g id="text_10">
      <!-- 3.8 -->
      <defs>
       <path d="M 40.578125 39.3125 
Q 47.65625 37.796875 51.625 33 
Q 55.609375 28.21875 55.609375 21.1875 
Q 55.609375 10.40625 48.1875 4.484375 
Q 40.765625 -1.421875 27.09375 -1.421875 
Q 22.515625 -1.421875 17.65625 -0.515625 
Q 12.796875 0.390625 7.625 2.203125 
L 7.625 11.71875 
Q 11.71875 9.328125 16.59375 8.109375 
Q 21.484375 6.890625 26.8125 6.890625 
Q 36.078125 6.890625 40.9375 10.546875 
Q 45.796875 14.203125 45.796875 21.1875 
Q 45.796875 27.640625 41.28125 31.265625 
Q 36.765625 34.90625 28.71875 34.90625 
L 20.21875 34.90625 
L 20.21875 43.015625 
L 29.109375 43.015625 
Q 36.375 43.015625 40.234375 45.921875 
Q 44.09375 48.828125 44.09375 54.296875 
Q 44.09375 59.90625 40.109375 62.90625 
Q 36.140625 65.921875 28.71875 65.921875 
Q 24.65625 65.921875 20.015625 65.03125 
Q 15.375 64.15625 9.8125 62.3125 
L 9.8125 71.09375 
Q 15.4375 72.65625 20.34375 73.4375 
Q 25.25 74.21875 29.59375 74.21875 
Q 40.828125 74.21875 47.359375 69.109375 
Q 53.90625 64.015625 53.90625 55.328125 
Q 53.90625 49.265625 50.4375 45.09375 
Q 46.96875 40.921875 40.578125 39.3125 
z
" id="DejaVuSans-51"/>
       <path d="M 10.6875 12.40625 
L 21 12.40625 
L 21 0 
L 10.6875 0 
z
" id="DejaVuSans-46"/>
       <path d="M 31.78125 34.625 
Q 24.75 34.625 20.71875 30.859375 
Q 16.703125 27.09375 16.703125 20.515625 
Q 16.703125 13.921875 20.71875 10.15625 
Q 24.75 6.390625 31.78125 6.390625 
Q 38.8125 6.390625 42.859375 10.171875 
Q 46.921875 13.96875 46.921875 20.515625 
Q 46.921875 27.09375 42.890625 30.859375 
Q 38.875 34.625 31.78125 34.625 
z
M 21.921875 38.8125 
Q 15.578125 40.375 12.03125 44.71875 
Q 8.5 49.078125 8.5 55.328125 
Q 8.5 64.0625 14.71875 69.140625 
Q 20.953125 74.21875 31.78125 74.21875 
Q 42.671875 74.21875 48.875 69.140625 
Q 55.078125 64.0625 55.078125 55.328125 
Q 55.078125 49.078125 51.53125 44.71875 
Q 48 40.375 41.703125 38.8125 
Q 48.828125 37.15625 52.796875 32.3125 
Q 56.78125 27.484375 56.78125 20.515625 
Q 56.78125 9.90625 50.3125 4.234375 
Q 43.84375 -1.421875 31.78125 -1.421875 
Q 19.734375 -1.421875 13.25 4.234375 
Q 6.78125 9.90625 6.78125 20.515625 
Q 6.78125 27.484375 10.78125 32.3125 
Q 14.796875 37.15625 21.921875 38.8125 
z
M 18.3125 54.390625 
Q 18.3125 48.734375 21.84375 45.5625 
Q 25.390625 42.390625 31.78125 42.390625 
Q 38.140625 42.390625 41.71875 45.5625 
Q 45.3125 48.734375 45.3125 54.390625 
Q 45.3125 60.0625 41.71875 63.234375 
Q 38.140625 66.40625 31.78125 66.40625 
Q 25.390625 66.40625 21.84375 63.234375 
Q 18.3125 60.0625 18.3125 54.390625 
z
" id="DejaVuSans-56"/>
      </defs>
      <g transform="translate(34.696875 266.781497)scale(0.1 -0.1)">
       <use xlink:href="#DejaVuSans-51"/>
       <use x="63.623047" xlink:href="#DejaVuSans-46"/>
       <use x="95.410156" xlink:href="#DejaVuSans-56"/>
      </g>
     </g>
    </g>
    <g id="ytick_2">
     <g id="line2d_10">
      <g>
       <use style="stroke:#000000;stroke-width:0.8;" x="57.6" xlink:href="#m89187716aa" y="212.70274"/>
      </g>
     </g>
     <g id="text_11">
      <!-- 4.0 -->
      <defs>
       <path d="M 37.796875 64.3125 
L 12.890625 25.390625 
L 37.796875 25.390625 
z
M 35.203125 72.90625 
L 47.609375 72.90625 
L 47.609375 25.390625 
L 58.015625 25.390625 
L 58.015625 17.1875 
L 47.609375 17.1875 
L 47.609375 0 
L 37.796875 0 
L 37.796875 17.1875 
L 4.890625 17.1875 
L 4.890625 26.703125 
z
" id="DejaVuSans-52"/>
      </defs>
      <g transform="translate(34.696875 216.501958)scale(0.1 -0.1)">
       <use xlink:href="#DejaVuSans-52"/>
       <use x="63.623047" xlink:href="#DejaVuSans-46"/>
       <use x="95.410156" xlink:href="#DejaVuSans-48"/>
      </g>
     </g>
    </g>
    <g id="ytick_3">
     <g id="line2d_11">
      <g>
       <use style="stroke:#000000;stroke-width:0.8;" x="57.6" xlink:href="#m89187716aa" y="162.423201"/>
      </g>
     </g>
     <g id="text_12">
      <!-- 4.2 -->
      <g transform="translate(34.696875 166.22242)scale(0.1 -0.1)">
       <use xlink:href="#DejaVuSans-52"/>
       <use x="63.623047" xlink:href="#DejaVuSans-46"/>
       <use x="95.410156" xlink:href="#DejaVuSans-50"/>
      </g>
     </g>
    </g>
    <g id="ytick_4">
     <g id="line2d_12">
      <g>
       <use style="stroke:#000000;stroke-width:0.8;" x="57.6" xlink:href="#m89187716aa" y="112.143662"/>
      </g>
     </g>
     <g id="text_13">
      <!-- 4.4 -->
      <g transform="translate(34.696875 115.942881)scale(0.1 -0.1)">
       <use xlink:href="#DejaVuSans-52"/>
       <use x="63.623047" xlink:href="#DejaVuSans-46"/>
       <use x="95.410156" xlink:href="#DejaVuSans-52"/>
      </g>
     </g>
    </g>
    <g id="ytick_5">
     <g id="line2d_13">
      <g>
       <use style="stroke:#000000;stroke-width:0.8;" x="57.6" xlink:href="#m89187716aa" y="61.864124"/>
      </g>
     </g>
     <g id="text_14">
      <!-- 4.6 -->
      <defs>
       <path d="M 33.015625 40.375 
Q 26.375 40.375 22.484375 35.828125 
Q 18.609375 31.296875 18.609375 23.390625 
Q 18.609375 15.53125 22.484375 10.953125 
Q 26.375 6.390625 33.015625 6.390625 
Q 39.65625 6.390625 43.53125 10.953125 
Q 47.40625 15.53125 47.40625 23.390625 
Q 47.40625 31.296875 43.53125 35.828125 
Q 39.65625 40.375 33.015625 40.375 
z
M 52.59375 71.296875 
L 52.59375 62.3125 
Q 48.875 64.0625 45.09375 64.984375 
Q 41.3125 65.921875 37.59375 65.921875 
Q 27.828125 65.921875 22.671875 59.328125 
Q 17.53125 52.734375 16.796875 39.40625 
Q 19.671875 43.65625 24.015625 45.921875 
Q 28.375 48.1875 33.59375 48.1875 
Q 44.578125 48.1875 50.953125 41.515625 
Q 57.328125 34.859375 57.328125 23.390625 
Q 57.328125 12.15625 50.6875 5.359375 
Q 44.046875 -1.421875 33.015625 -1.421875 
Q 20.359375 -1.421875 13.671875 8.265625 
Q 6.984375 17.96875 6.984375 36.375 
Q 6.984375 53.65625 15.1875 63.9375 
Q 23.390625 74.21875 37.203125 74.21875 
Q 40.921875 74.21875 44.703125 73.484375 
Q 48.484375 72.75 52.59375 71.296875 
z
" id="DejaVuSans-54"/>
      </defs>
      <g transform="translate(34.696875 65.663343)scale(0.1 -0.1)">
       <use xlink:href="#DejaVuSans-52"/>
       <use x="63.623047" xlink:href="#DejaVuSans-46"/>
       <use x="95.410156" xlink:href="#DejaVuSans-54"/>
      </g>
     </g>
    </g>
    <g id="text_15">
     <!-- Currency value -->
     <defs>
      <path d="M 64.40625 67.28125 
L 64.40625 56.890625 
Q 59.421875 61.53125 53.78125 63.8125 
Q 48.140625 66.109375 41.796875 66.109375 
Q 29.296875 66.109375 22.65625 58.46875 
Q 16.015625 50.828125 16.015625 36.375 
Q 16.015625 21.96875 22.65625 14.328125 
Q 29.296875 6.6875 41.796875 6.6875 
Q 48.140625 6.6875 53.78125 8.984375 
Q 59.421875 11.28125 64.40625 15.921875 
L 64.40625 5.609375 
Q 59.234375 2.09375 53.4375 0.328125 
Q 47.65625 -1.421875 41.21875 -1.421875 
Q 24.65625 -1.421875 15.125 8.703125 
Q 5.609375 18.84375 5.609375 36.375 
Q 5.609375 53.953125 15.125 64.078125 
Q 24.65625 74.21875 41.21875 74.21875 
Q 47.75 74.21875 53.53125 72.484375 
Q 59.328125 70.75 64.40625 67.28125 
z
" id="DejaVuSans-67"/>
      <path d="M 8.5 21.578125 
L 8.5 54.6875 
L 17.484375 54.6875 
L 17.484375 21.921875 
Q 17.484375 14.15625 20.5 10.265625 
Q 23.53125 6.390625 29.59375 6.390625 
Q 36.859375 6.390625 41.078125 11.03125 
Q 45.3125 15.671875 45.3125 23.6875 
L 45.3125 54.6875 
L 54.296875 54.6875 
L 54.296875 0 
L 45.3125 0 
L 45.3125 8.40625 
Q 42.046875 3.421875 37.71875 1 
Q 33.40625 -1.421875 27.6875 -1.421875 
Q 18.265625 -1.421875 13.375 4.4375 
Q 8.5 10.296875 8.5 21.578125 
z
M 31.109375 56 
z
" id="DejaVuSans-117"/>
      <path d="M 41.109375 46.296875 
Q 39.59375 47.171875 37.8125 47.578125 
Q 36.03125 48 33.890625 48 
Q 26.265625 48 22.1875 43.046875 
Q 18.109375 38.09375 18.109375 28.8125 
L 18.109375 0 
L 9.078125 0 
L 9.078125 54.6875 
L 18.109375 54.6875 
L 18.109375 46.1875 
Q 20.953125 51.171875 25.484375 53.578125 
Q 30.03125 56 36.53125 56 
Q 37.453125 56 38.578125 55.875 
Q 39.703125 55.765625 41.0625 55.515625 
z
" id="DejaVuSans-114"/>
      <path d="M 56.203125 29.59375 
L 56.203125 25.203125 
L 14.890625 25.203125 
Q 15.484375 15.921875 20.484375 11.0625 
Q 25.484375 6.203125 34.421875 6.203125 
Q 39.59375 6.203125 44.453125 7.46875 
Q 49.3125 8.734375 54.109375 11.28125 
L 54.109375 2.78125 
Q 49.265625 0.734375 44.1875 -0.34375 
Q 39.109375 -1.421875 33.890625 -1.421875 
Q 20.796875 -1.421875 13.15625 6.1875 
Q 5.515625 13.8125 5.515625 26.8125 
Q 5.515625 40.234375 12.765625 48.109375 
Q 20.015625 56 32.328125 56 
Q 43.359375 56 49.78125 48.890625 
Q 56.203125 41.796875 56.203125 29.59375 
z
M 47.21875 32.234375 
Q 47.125 39.59375 43.09375 43.984375 
Q 39.0625 48.390625 32.421875 48.390625 
Q 24.90625 48.390625 20.390625 44.140625 
Q 15.875 39.890625 15.1875 32.171875 
z
" id="DejaVuSans-101"/>
      <path d="M 54.890625 33.015625 
L 54.890625 0 
L 45.90625 0 
L 45.90625 32.71875 
Q 45.90625 40.484375 42.875 44.328125 
Q 39.84375 48.1875 33.796875 48.1875 
Q 26.515625 48.1875 22.3125 43.546875 
Q 18.109375 38.921875 18.109375 30.90625 
L 18.109375 0 
L 9.078125 0 
L 9.078125 54.6875 
L 18.109375 54.6875 
L 18.109375 46.1875 
Q 21.34375 51.125 25.703125 53.5625 
Q 30.078125 56 35.796875 56 
Q 45.21875 56 50.046875 50.171875 
Q 54.890625 44.34375 54.890625 33.015625 
z
" id="DejaVuSans-110"/>
      <path d="M 48.78125 52.59375 
L 48.78125 44.1875 
Q 44.96875 46.296875 41.140625 47.34375 
Q 37.3125 48.390625 33.40625 48.390625 
Q 24.65625 48.390625 19.8125 42.84375 
Q 14.984375 37.3125 14.984375 27.296875 
Q 14.984375 17.28125 19.8125 11.734375 
Q 24.65625 6.203125 33.40625 6.203125 
Q 37.3125 6.203125 41.140625 7.25 
Q 44.96875 8.296875 48.78125 10.40625 
L 48.78125 2.09375 
Q 45.015625 0.34375 40.984375 -0.53125 
Q 36.96875 -1.421875 32.421875 -1.421875 
Q 20.0625 -1.421875 12.78125 6.34375 
Q 5.515625 14.109375 5.515625 27.296875 
Q 5.515625 40.671875 12.859375 48.328125 
Q 20.21875 56 33.015625 56 
Q 37.15625 56 41.109375 55.140625 
Q 45.0625 54.296875 48.78125 52.59375 
z
" id="DejaVuSans-99"/>
      <path id="DejaVuSans-32"/>
      <path d="M 2.984375 54.6875 
L 12.5 54.6875 
L 29.59375 8.796875 
L 46.6875 54.6875 
L 56.203125 54.6875 
L 35.6875 0 
L 23.484375 0 
z
" id="DejaVuSans-118"/>
      <path d="M 9.421875 75.984375 
L 18.40625 75.984375 
L 18.40625 0 
L 9.421875 0 
z
" id="DejaVuSans-108"/>
     </defs>
     <g transform="translate(27.785312 227.685344)rotate(-90)scale(0.14 -0.14)">
      <use xlink:href="#DejaVuSans-67"/>
      <use x="69.824219" xlink:href="#DejaVuSans-117"/>
      <use x="133.203125" xlink:href="#DejaVuSans-114"/>
      <use x="174.300781" xlink:href="#DejaVuSans-114"/>
      <use x="215.382812" xlink:href="#DejaVuSans-101"/>
      <use x="276.90625" xlink:href="#DejaVuSans-110"/>
      <use x="340.285156" xlink:href="#DejaVuSans-99"/>
      <use x="395.265625" xlink:href="#DejaVuSans-121"/>
      <use x="454.445312" xlink:href="#DejaVuSans-32"/>
      <use x="486.232422" xlink:href="#DejaVuSans-118"/>
      <use x="545.412109" xlink:href="#DejaVuSans-97"/>
      <use x="606.691406" xlink:href="#DejaVuSans-108"/>
      <use x="634.474609" xlink:href="#DejaVuSans-117"/>
      <use x="697.853516" xlink:href="#DejaVuSans-101"/>
     </g>
    </g>
   </g>
   <g id="line2d_14">
    <path clip-path="url(#p28d428c80b)" d="M 73.832727 231.431868 
L 77.42007 242.769904 
L 79.213742 249.507362 
L 81.007413 250.940329 
L 82.801085 257.174992 
L 84.594756 265.521395 
L 86.388428 261.524172 
L 88.182099 258.306281 
L 89.975771 246.842546 
L 91.769442 236.158144 
L 93.563114 232.035222 
L 95.356786 201.138446 
L 97.150457 193.873052 
L 98.944129 151.839358 
L 100.7378 152.367293 
L 102.531472 145.981792 
L 104.325143 151.839358 
L 106.118815 156.892452 
L 107.912486 162.724878 
L 109.706158 184.37022 
L 111.499829 189.247335 
L 113.293501 175.847838 
L 115.087172 169.939992 
L 116.880844 164.509802 
L 118.674515 152.467852 
L 120.468187 155.96228 
L 122.261858 169.537756 
L 124.05553 167.426015 
L 125.849201 168.858982 
L 127.642873 173.333861 
L 129.436544 170.819884 
L 131.230216 174.51543 
L 133.023887 171.699776 
L 134.817559 165.289135 
L 136.611231 174.364591 
L 138.404902 167.97909 
L 140.198574 169.0601 
L 141.992245 160.085203 
L 143.785917 158.853354 
L 145.579588 170.065691 
L 147.37326 166.445564 
L 149.166931 167.275177 
L 152.754274 171.322679 
L 154.547946 164.258404 
L 156.341617 161.870126 
L 158.135289 158.350558 
L 159.92896 160.789116 
L 161.722632 159.25559 
L 163.516303 160.034923 
L 165.309975 159.632687 
L 167.103646 155.660603 
L 168.897318 159.029332 
L 170.690989 156.791893 
L 172.484661 171.347819 
L 174.278332 172.001453 
L 176.072004 178.86461 
L 177.865676 174.917666 
L 179.659347 176.803149 
L 181.453019 190.454044 
L 183.24669 200.032296 
L 185.040362 206.568636 
L 186.834033 211.923407 
L 188.627705 220.747466 
L 190.421376 230.225159 
L 192.215048 234.800597 
L 194.008719 223.437421 
L 195.802391 232.387179 
L 197.596062 232.889974 
L 199.389734 226.454193 
L 201.183405 233.317351 
L 204.770748 227.459784 
L 206.56442 236.384402 
L 208.358091 224.468152 
L 210.151763 223.035185 
L 211.945434 219.21394 
L 213.739106 221.074283 
L 215.532777 230.024041 
L 217.326449 227.9123 
L 219.120121 222.180433 
L 220.913792 220.32009 
L 222.707464 221.35082 
L 224.501135 217.579855 
L 226.294807 222.984905 
L 228.088478 224.568711 
L 229.88215 218.635725 
L 231.675821 223.060325 
L 233.469493 220.521208 
L 235.263164 221.099423 
L 237.056836 225.624581 
L 238.850507 221.602218 
L 240.644179 223.663679 
L 242.43785 223.51284 
L 244.231522 234.901156 
L 246.025193 227.233526 
L 247.818865 231.23075 
L 249.612536 237.917928 
L 251.406208 242.568786 
L 253.199879 249.557641 
L 254.993551 261.473892 
L 256.787223 262.253225 
L 258.580894 271.957176 
L 260.374566 274.74769 
L 262.168237 272.786788 
L 263.961909 274.320314 
L 265.75558 283.948846 
L 267.549252 275.577303 
L 269.342923 278.971172 
L 271.136595 284.527061 
L 272.930266 282.088503 
L 274.723938 280.529837 
L 276.517609 278.242118 
L 278.311281 278.317538 
L 280.104952 274.094056 
L 281.898624 283.697448 
L 283.692295 282.41532 
L 285.485967 286.211425 
L 287.279638 290.761723 
L 289.07331 294.859506 
L 290.866981 283.999125 
L 292.660653 283.999125 
L 294.454324 281.258891 
L 296.247996 284.501921 
L 298.041668 281.35945 
L 299.835339 280.932074 
L 301.629011 288.549424 
L 303.422682 290.03267 
L 305.216354 295.488 
L 307.010025 283.320352 
L 308.803697 279.649945 
L 310.597368 274.722551 
L 312.39104 271.378961 
L 314.184711 271.730918 
L 315.978383 266.225309 
L 317.772054 272.786788 
L 319.565726 274.697411 
L 321.359397 274.999088 
L 323.153069 276.93485 
L 324.94674 274.898529 
L 326.740412 270.197392 
L 328.534083 273.415283 
L 332.121426 253.957101 
L 333.915098 252.95151 
L 335.708769 242.04085 
L 337.502441 237.440273 
L 339.296113 235.755908 
L 341.089784 232.110642 
L 342.883456 246.44031 
L 346.470799 253.781123 
L 348.26447 256.647056 
L 350.058142 258.45712 
L 351.851813 259.814667 
L 353.645485 258.582819 
L 355.439156 265.169438 
L 357.232828 264.817481 
L 359.026499 264.691783 
L 360.820171 255.415208 
L 362.613842 240.255927 
L 364.407514 238.445863 
L 366.201185 243.850914 
L 367.994857 239.702852 
L 369.788528 245.233601 
L 371.5822 244.529688 
L 373.375871 246.264332 
L 376.963214 241.362077 
L 378.756886 229.973761 
L 380.550558 225.146925 
L 382.344229 223.688819 
L 384.137901 223.839657 
L 385.931572 236.107865 
L 387.725244 237.943068 
L 389.518915 254.10794 
L 391.312587 258.105163 
L 393.106258 268.337049 
L 394.89993 258.758797 
L 396.693601 263.107977 
L 398.487273 262.605182 
L 398.487273 262.605182 
" style="fill:none;stroke:#ff0000;stroke-linecap:square;stroke-width:1.5;"/>
   </g>
   <g id="line2d_15">
    <path clip-path="url(#p28d428c80b)" d="M 73.832727 128.358814 
L 75.626399 131.325306 
L 77.42007 132.934252 
L 79.213742 137.45941 
L 81.007413 137.43427 
L 82.801085 132.808553 
L 84.594756 132.858832 
L 86.388428 132.255478 
L 88.182099 133.08509 
L 89.975771 125.945396 
L 91.769442 121.747054 
L 93.563114 114.381102 
L 95.356786 89.869827 
L 97.150457 91.881008 
L 98.944129 63.950725 
L 100.7378 75.464739 
L 102.531472 72.649085 
L 104.325143 60.757974 
L 106.118815 67.420013 
L 107.912486 62.819435 
L 109.706158 80.81951 
L 111.499829 77.073684 
L 113.293501 73.855794 
L 115.087172 69.556893 
L 116.880844 67.671411 
L 118.674515 67.093196 
L 120.468187 71.618354 
L 122.261858 78.406092 
L 124.05553 77.903297 
L 125.849201 77.702179 
L 127.642873 74.836245 
L 129.436544 74.132331 
L 131.230216 77.224523 
L 133.023887 78.808328 
L 134.817559 77.777598 
L 136.611231 82.604434 
L 138.404902 80.065317 
L 140.198574 78.732909 
L 141.992245 75.841836 
L 143.785917 78.707769 
L 145.579588 80.970349 
L 147.37326 76.973125 
L 149.166931 76.143513 
L 150.960603 76.344631 
L 152.754274 72.372547 
L 154.547946 75.037363 
L 156.341617 77.199383 
L 158.135289 74.30831 
L 159.92896 72.498246 
L 161.722632 72.623945 
L 163.516303 73.20216 
L 165.309975 70.386506 
L 167.103646 69.582033 
L 168.897318 73.126741 
L 170.690989 70.813882 
L 172.484661 71.668634 
L 174.278332 73.428418 
L 176.072004 77.827877 
L 179.659347 84.213379 
L 181.453019 92.031847 
L 183.24669 102.64083 
L 185.040362 105.506763 
L 186.834033 99.498359 
L 190.421376 114.60736 
L 192.215048 115.68837 
L 194.008719 103.420163 
L 195.802391 101.006745 
L 197.596062 104.82799 
L 199.389734 101.182723 
L 201.183405 98.467628 
L 202.977077 99.422939 
L 204.770748 102.012335 
L 206.56442 105.154807 
L 208.358091 99.498359 
L 210.151763 98.719026 
L 211.945434 97.738575 
L 213.739106 98.970423 
L 215.532777 102.439712 
L 217.326449 98.769305 
L 219.120121 99.699477 
L 220.913792 96.657565 
L 222.707464 96.280468 
L 224.501135 95.551415 
L 226.294807 100.45367 
L 228.088478 95.576555 
L 229.88215 95.274877 
L 231.675821 94.621243 
L 233.469493 94.294426 
L 235.263164 93.565373 
L 237.056836 93.590513 
L 238.850507 93.414534 
L 240.644179 93.414534 
L 242.43785 89.115634 
L 244.231522 93.590513 
L 246.025193 89.191053 
L 247.818865 91.353073 
L 249.612536 94.9732 
L 251.406208 101.660379 
L 253.199879 102.062615 
L 254.993551 109.428567 
L 256.787223 109.202309 
L 258.580894 111.565448 
L 260.374566 112.470479 
L 262.168237 107.266547 
L 263.961909 109.881083 
L 265.75558 110.333599 
L 267.549252 107.920181 
L 269.342923 110.635276 
L 271.136595 112.671598 
L 272.930266 109.604546 
L 274.723938 108.649235 
L 276.517609 111.565448 
L 278.311281 111.741426 
L 280.104952 109.051471 
L 281.898624 111.867125 
L 283.692295 112.44534 
L 285.485967 114.858758 
L 287.279638 113.325232 
L 289.07331 115.562671 
L 290.866981 112.36992 
L 292.660653 114.60736 
L 294.454324 110.534717 
L 296.247996 114.280543 
L 298.041668 111.33919 
L 299.835339 109.026331 
L 301.629011 111.062652 
L 303.422682 112.922995 
L 305.216354 113.50121 
L 307.010025 109.705105 
L 308.803697 107.593364 
L 310.597368 99.37266 
L 312.39104 97.813994 
L 314.184711 100.554229 
L 315.978383 98.316789 
L 317.772054 99.473219 
L 319.565726 99.473219 
L 321.359397 99.825176 
L 323.153069 99.774896 
L 324.94674 98.869864 
L 326.740412 99.221821 
L 328.534083 97.713435 
L 330.327755 92.031847 
L 332.121426 85.621206 
L 333.915098 88.361441 
L 335.708769 80.165876 
L 337.502441 75.012223 
L 339.296113 74.509428 
L 341.089784 66.037326 
L 342.883456 80.266435 
L 344.677127 83.157508 
L 346.470799 88.512279 
L 348.26447 88.41172 
L 350.058142 87.984344 
L 351.851813 91.227374 
L 353.645485 89.51787 
L 355.439156 93.414534 
L 357.232828 92.082127 
L 359.026499 93.615652 
L 360.820171 87.934065 
L 362.613842 73.302719 
L 364.407514 71.392096 
L 366.201185 74.484288 
L 367.994857 65.257993 
L 371.5822 64.956315 
L 373.375871 67.595991 
L 375.169543 67.545712 
L 376.963214 64.629498 
L 378.756886 57.112707 
L 380.550558 53.568 
L 384.137901 60.657415 
L 385.931572 69.431194 
L 387.725244 73.629536 
L 389.518915 81.146327 
L 391.312587 80.040177 
L 393.106258 90.272063 
L 394.89993 85.420088 
L 396.693601 90.322343 
L 398.487273 88.009484 
L 398.487273 88.009484 
" style="fill:none;stroke:#0000ff;stroke-linecap:square;stroke-width:1.5;"/>
   </g>
   <g id="patch_3">
    <path d="M 57.6 307.584 
L 57.6 41.472 
" style="fill:none;stroke:#000000;stroke-linecap:square;stroke-linejoin:miter;stroke-width:0.8;"/>
   </g>
   <g id="patch_4">
    <path d="M 414.72 307.584 
L 414.72 41.472 
" style="fill:none;stroke:#000000;stroke-linecap:square;stroke-linejoin:miter;stroke-width:0.8;"/>
   </g>
   <g id="patch_5">
    <path d="M 57.6 307.584 
L 414.72 307.584 
" style="fill:none;stroke:#000000;stroke-linecap:square;stroke-linejoin:miter;stroke-width:0.8;"/>
   </g>
   <g id="patch_6">
    <path d="M 57.6 41.472 
L 414.72 41.472 
" style="fill:none;stroke:#000000;stroke-linecap:square;stroke-linejoin:miter;stroke-width:0.8;"/>
   </g>
   <g id="text_16">
    <!-- Currency exchange values for dolar amerykański and euro -->
    <defs>
     <path d="M 54.890625 54.6875 
L 35.109375 28.078125 
L 55.90625 0 
L 45.3125 0 
L 29.390625 21.484375 
L 13.484375 0 
L 2.875 0 
L 24.125 28.609375 
L 4.6875 54.6875 
L 15.28125 54.6875 
L 29.78125 35.203125 
L 44.28125 54.6875 
z
" id="DejaVuSans-120"/>
     <path d="M 54.890625 33.015625 
L 54.890625 0 
L 45.90625 0 
L 45.90625 32.71875 
Q 45.90625 40.484375 42.875 44.328125 
Q 39.84375 48.1875 33.796875 48.1875 
Q 26.515625 48.1875 22.3125 43.546875 
Q 18.109375 38.921875 18.109375 30.90625 
L 18.109375 0 
L 9.078125 0 
L 9.078125 75.984375 
L 18.109375 75.984375 
L 18.109375 46.1875 
Q 21.34375 51.125 25.703125 53.5625 
Q 30.078125 56 35.796875 56 
Q 45.21875 56 50.046875 50.171875 
Q 54.890625 44.34375 54.890625 33.015625 
z
" id="DejaVuSans-104"/>
     <path d="M 45.40625 27.984375 
Q 45.40625 37.75 41.375 43.109375 
Q 37.359375 48.484375 30.078125 48.484375 
Q 22.859375 48.484375 18.828125 43.109375 
Q 14.796875 37.75 14.796875 27.984375 
Q 14.796875 18.265625 18.828125 12.890625 
Q 22.859375 7.515625 30.078125 7.515625 
Q 37.359375 7.515625 41.375 12.890625 
Q 45.40625 18.265625 45.40625 27.984375 
z
M 54.390625 6.78125 
Q 54.390625 -7.171875 48.1875 -13.984375 
Q 42 -20.796875 29.203125 -20.796875 
Q 24.46875 -20.796875 20.265625 -20.09375 
Q 16.0625 -19.390625 12.109375 -17.921875 
L 12.109375 -9.1875 
Q 16.0625 -11.328125 19.921875 -12.34375 
Q 23.78125 -13.375 27.78125 -13.375 
Q 36.625 -13.375 41.015625 -8.765625 
Q 45.40625 -4.15625 45.40625 5.171875 
L 45.40625 9.625 
Q 42.625 4.78125 38.28125 2.390625 
Q 33.9375 0 27.875 0 
Q 17.828125 0 11.671875 7.65625 
Q 5.515625 15.328125 5.515625 27.984375 
Q 5.515625 40.671875 11.671875 48.328125 
Q 17.828125 56 27.875 56 
Q 33.9375 56 38.28125 53.609375 
Q 42.625 51.21875 45.40625 46.390625 
L 45.40625 54.6875 
L 54.390625 54.6875 
z
" id="DejaVuSans-103"/>
     <path d="M 37.109375 75.984375 
L 37.109375 68.5 
L 28.515625 68.5 
Q 23.6875 68.5 21.796875 66.546875 
Q 19.921875 64.59375 19.921875 59.515625 
L 19.921875 54.6875 
L 34.71875 54.6875 
L 34.71875 47.703125 
L 19.921875 47.703125 
L 19.921875 0 
L 10.890625 0 
L 10.890625 47.703125 
L 2.296875 47.703125 
L 2.296875 54.6875 
L 10.890625 54.6875 
L 10.890625 58.5 
Q 10.890625 67.625 15.140625 71.796875 
Q 19.390625 75.984375 28.609375 75.984375 
z
" id="DejaVuSans-102"/>
     <path d="M 30.609375 48.390625 
Q 23.390625 48.390625 19.1875 42.75 
Q 14.984375 37.109375 14.984375 27.296875 
Q 14.984375 17.484375 19.15625 11.84375 
Q 23.34375 6.203125 30.609375 6.203125 
Q 37.796875 6.203125 41.984375 11.859375 
Q 46.1875 17.53125 46.1875 27.296875 
Q 46.1875 37.015625 41.984375 42.703125 
Q 37.796875 48.390625 30.609375 48.390625 
z
M 30.609375 56 
Q 42.328125 56 49.015625 48.375 
Q 55.71875 40.765625 55.71875 27.296875 
Q 55.71875 13.875 49.015625 6.21875 
Q 42.328125 -1.421875 30.609375 -1.421875 
Q 18.84375 -1.421875 12.171875 6.21875 
Q 5.515625 13.875 5.515625 27.296875 
Q 5.515625 40.765625 12.171875 48.375 
Q 18.84375 56 30.609375 56 
z
" id="DejaVuSans-111"/>
     <path d="M 45.40625 46.390625 
L 45.40625 75.984375 
L 54.390625 75.984375 
L 54.390625 0 
L 45.40625 0 
L 45.40625 8.203125 
Q 42.578125 3.328125 38.25 0.953125 
Q 33.9375 -1.421875 27.875 -1.421875 
Q 17.96875 -1.421875 11.734375 6.484375 
Q 5.515625 14.40625 5.515625 27.296875 
Q 5.515625 40.1875 11.734375 48.09375 
Q 17.96875 56 27.875 56 
Q 33.9375 56 38.25 53.625 
Q 42.578125 51.265625 45.40625 46.390625 
z
M 14.796875 27.296875 
Q 14.796875 17.390625 18.875 11.75 
Q 22.953125 6.109375 30.078125 6.109375 
Q 37.203125 6.109375 41.296875 11.75 
Q 45.40625 17.390625 45.40625 27.296875 
Q 45.40625 37.203125 41.296875 42.84375 
Q 37.203125 48.484375 30.078125 48.484375 
Q 22.953125 48.484375 18.875 42.84375 
Q 14.796875 37.203125 14.796875 27.296875 
z
" id="DejaVuSans-100"/>
     <path d="M 52 44.1875 
Q 55.375 50.25 60.0625 53.125 
Q 64.75 56 71.09375 56 
Q 79.640625 56 84.28125 50.015625 
Q 88.921875 44.046875 88.921875 33.015625 
L 88.921875 0 
L 79.890625 0 
L 79.890625 32.71875 
Q 79.890625 40.578125 77.09375 44.375 
Q 74.3125 48.1875 68.609375 48.1875 
Q 61.625 48.1875 57.5625 43.546875 
Q 53.515625 38.921875 53.515625 30.90625 
L 53.515625 0 
L 44.484375 0 
L 44.484375 32.71875 
Q 44.484375 40.625 41.703125 44.40625 
Q 38.921875 48.1875 33.109375 48.1875 
Q 26.21875 48.1875 22.15625 43.53125 
Q 18.109375 38.875 18.109375 30.90625 
L 18.109375 0 
L 9.078125 0 
L 9.078125 54.6875 
L 18.109375 54.6875 
L 18.109375 46.1875 
Q 21.1875 51.21875 25.484375 53.609375 
Q 29.78125 56 35.6875 56 
Q 41.65625 56 45.828125 52.96875 
Q 50 49.953125 52 44.1875 
z
" id="DejaVuSans-109"/>
     <path d="M 9.078125 75.984375 
L 18.109375 75.984375 
L 18.109375 31.109375 
L 44.921875 54.6875 
L 56.390625 54.6875 
L 27.390625 29.109375 
L 57.625 0 
L 45.90625 0 
L 18.109375 26.703125 
L 18.109375 0 
L 9.078125 0 
z
" id="DejaVuSans-107"/>
     <path d="M 35.015625 80.328125 
L 44.734375 80.328125 
L 28.8125 61.96875 
L 21.34375 61.96875 
z
M 54.890625 33.015625 
L 54.890625 0 
L 45.90625 0 
L 45.90625 32.71875 
Q 45.90625 40.484375 42.875 44.328125 
Q 39.84375 48.1875 33.796875 48.1875 
Q 26.515625 48.1875 22.3125 43.546875 
Q 18.109375 38.921875 18.109375 30.90625 
L 18.109375 0 
L 9.078125 0 
L 9.078125 54.6875 
L 18.109375 54.6875 
L 18.109375 46.1875 
Q 21.34375 51.125 25.703125 53.5625 
Q 30.078125 56 35.796875 56 
Q 45.21875 56 50.046875 50.171875 
Q 54.890625 44.34375 54.890625 33.015625 
z
" id="DejaVuSans-324"/>
     <path d="M 9.421875 54.6875 
L 18.40625 54.6875 
L 18.40625 0 
L 9.421875 0 
z
M 9.421875 75.984375 
L 18.40625 75.984375 
L 18.40625 64.59375 
L 9.421875 64.59375 
z
" id="DejaVuSans-105"/>
    </defs>
    <g transform="translate(59.796562 35.472)scale(0.12 -0.12)">
     <use xlink:href="#DejaVuSans-67"/>
     <use x="69.824219" xlink:href="#DejaVuSans-117"/>
     <use x="133.203125" xlink:href="#DejaVuSans-114"/>
     <use x="174.300781" xlink:href="#DejaVuSans-114"/>
     <use x="215.382812" xlink:href="#DejaVuSans-101"/>
     <use x="276.90625" xlink:href="#DejaVuSans-110"/>
     <use x="340.285156" xlink:href="#DejaVuSans-99"/>
     <use x="395.265625" xlink:href="#DejaVuSans-121"/>
     <use x="454.445312" xlink:href="#DejaVuSans-32"/>
     <use x="486.232422" xlink:href="#DejaVuSans-101"/>
     <use x="547.740234" xlink:href="#DejaVuSans-120"/>
     <use x="606.904297" xlink:href="#DejaVuSans-99"/>
     <use x="661.884766" xlink:href="#DejaVuSans-104"/>
     <use x="725.263672" xlink:href="#DejaVuSans-97"/>
     <use x="786.542969" xlink:href="#DejaVuSans-110"/>
     <use x="849.921875" xlink:href="#DejaVuSans-103"/>
     <use x="913.398438" xlink:href="#DejaVuSans-101"/>
     <use x="974.921875" xlink:href="#DejaVuSans-32"/>
     <use x="1006.708984" xlink:href="#DejaVuSans-118"/>
     <use x="1065.888672" xlink:href="#DejaVuSans-97"/>
     <use x="1127.167969" xlink:href="#DejaVuSans-108"/>
     <use x="1154.951172" xlink:href="#DejaVuSans-117"/>
     <use x="1218.330078" xlink:href="#DejaVuSans-101"/>
     <use x="1279.853516" xlink:href="#DejaVuSans-115"/>
     <use x="1331.953125" xlink:href="#DejaVuSans-32"/>
     <use x="1363.740234" xlink:href="#DejaVuSans-102"/>
     <use x="1398.945312" xlink:href="#DejaVuSans-111"/>
     <use x="1460.126953" xlink:href="#DejaVuSans-114"/>
     <use x="1501.240234" xlink:href="#DejaVuSans-32"/>
     <use x="1533.027344" xlink:href="#DejaVuSans-100"/>
     <use x="1596.503906" xlink:href="#DejaVuSans-111"/>
     <use x="1657.685547" xlink:href="#DejaVuSans-108"/>
     <use x="1685.46875" xlink:href="#DejaVuSans-97"/>
     <use x="1746.748047" xlink:href="#DejaVuSans-114"/>
     <use x="1787.861328" xlink:href="#DejaVuSans-32"/>
     <use x="1819.648438" xlink:href="#DejaVuSans-97"/>
     <use x="1880.927734" xlink:href="#DejaVuSans-109"/>
     <use x="1978.339844" xlink:href="#DejaVuSans-101"/>
     <use x="2039.863281" xlink:href="#DejaVuSans-114"/>
     <use x="2080.976562" xlink:href="#DejaVuSans-121"/>
     <use x="2140.15625" xlink:href="#DejaVuSans-107"/>
     <use x="2198.050781" xlink:href="#DejaVuSans-97"/>
     <use x="2259.330078" xlink:href="#DejaVuSans-324"/>
     <use x="2322.708984" xlink:href="#DejaVuSans-115"/>
     <use x="2374.808594" xlink:href="#DejaVuSans-107"/>
     <use x="2432.71875" xlink:href="#DejaVuSans-105"/>
     <use x="2460.501953" xlink:href="#DejaVuSans-32"/>
     <use x="2492.289062" xlink:href="#DejaVuSans-97"/>
     <use x="2553.568359" xlink:href="#DejaVuSans-110"/>
     <use x="2616.947266" xlink:href="#DejaVuSans-100"/>
     <use x="2680.423828" xlink:href="#DejaVuSans-32"/>
     <use x="2712.210938" xlink:href="#DejaVuSans-101"/>
     <use x="2773.734375" xlink:href="#DejaVuSans-117"/>
     <use x="2837.113281" xlink:href="#DejaVuSans-114"/>
     <use x="2878.195312" xlink:href="#DejaVuSans-111"/>
    </g>
   </g>
   <g id="legend_1">
    <g id="patch_7">
     <path d="M 64.6 302.584 
L 189.346875 302.584 
Q 191.346875 302.584 191.346875 300.584 
L 191.346875 271.793375 
Q 191.346875 269.793375 189.346875 269.793375 
L 64.6 269.793375 
Q 62.6 269.793375 62.6 271.793375 
L 62.6 300.584 
Q 62.6 302.584 64.6 302.584 
z
" style="fill:#ffffff;opacity:0.8;stroke:#cccccc;stroke-linejoin:miter;"/>
    </g>
    <g id="line2d_16">
     <path d="M 66.6 278.326187 
L 86.6 278.326187 
" style="fill:none;stroke:#ff0000;stroke-linecap:square;stroke-width:1.5;"/>
    </g>
    <g id="line2d_17"/>
    <g id="text_17">
     <!-- dolar amerykański -->
     <g transform="translate(94.6 281.826187)scale(0.1 -0.1)">
      <use xlink:href="#DejaVuSans-100"/>
      <use x="63.476562" xlink:href="#DejaVuSans-111"/>
      <use x="124.658203" xlink:href="#DejaVuSans-108"/>
      <use x="152.441406" xlink:href="#DejaVuSans-97"/>
      <use x="213.720703" xlink:href="#DejaVuSans-114"/>
      <use x="254.833984" xlink:href="#DejaVuSans-32"/>
      <use x="286.621094" xlink:href="#DejaVuSans-97"/>
      <use x="347.900391" xlink:href="#DejaVuSans-109"/>
      <use x="445.3125" xlink:href="#DejaVuSans-101"/>
      <use x="506.835938" xlink:href="#DejaVuSans-114"/>
      <use x="547.949219" xlink:href="#DejaVuSans-121"/>
      <use x="607.128906" xlink:href="#DejaVuSans-107"/>
      <use x="665.023438" xlink:href="#DejaVuSans-97"/>
      <use x="726.302734" xlink:href="#DejaVuSans-324"/>
      <use x="789.681641" xlink:href="#DejaVuSans-115"/>
      <use x="841.78125" xlink:href="#DejaVuSans-107"/>
      <use x="899.691406" xlink:href="#DejaVuSans-105"/>
     </g>
    </g>
    <g id="line2d_18">
     <path d="M 66.6 293.004312 
L 86.6 293.004312 
" style="fill:none;stroke:#0000ff;stroke-linecap:square;stroke-width:1.5;"/>
    </g>
    <g id="line2d_19"/>
    <g id="text_18">
     <!-- euro -->
     <g transform="translate(94.6 296.504312)scale(0.1 -0.1)">
      <use xlink:href="#DejaVuSans-101"/>
      <use x="61.523438" xlink:href="#DejaVuSans-117"/>
      <use x="124.902344" xlink:href="#DejaVuSans-114"/>
      <use x="165.984375" xlink:href="#DejaVuSans-111"/>
     </g>
    </g>
   </g>
  </g>
 </g>
 <defs>
  <clipPath id="p28d428c80b">
   <rect height="266.112" width="357.12" x="57.6" y="41.472"/>
  </clipPath>
 </defs>
</svg>
