<?xml version="1.0" encoding="utf-8" standalone="no"?>
<!DOCTYPE svg PUBLIC "-//W3C//DTD SVG 1.1//EN"
  "http://www.w3.org/Graphics/SVG/1.1/DTD/svg11.dtd">
<!-- Created with matplotlib (https://matplotlib.org/) -->
<svg height="345.6pt" version="1.1" viewBox="0 0 460.8 345.6" width="460.8pt" xmlns="http://www.w3.org/2000/svg" xmlns:xlink="http://www.w3.org/1999/xlink">
 <defs>
  <style type="text/css">
*{stroke-linecap:butt;stroke-linejoin:round;}
  </style>
 </defs>
 <g id="figure_1">
  <g id="patch_1">
   <path d="M 0 345.6 
L 460.8 345.6 
L 460.8 0 
L 0 0 
z
" style="fill:#ffffff;"/>
  </g>
  <g id="axes_1">
   <g id="patch_2">
    <path d="M 57.6 307.584 
L 414.72 307.584 
L 414.72 41.472 
L 57.6 41.472 
z
" style="fill:#ffffff;"/>
   </g>
   <g id="matplotlib.axis_1">
    <g id="xtick_1">
     <g id="line2d_1">
      <defs>
       <path d="M 0 0 
L 0 3.5 
" id="m1f0dde636d" style="stroke:#000000;stroke-width:0.8;"/>
      </defs>
      <g>
       <use style="stroke:#000000;stroke-width:0.8;" x="72.940002" xlink:href="#m1f0dde636d" y="307.584"/>
      </g>
     </g>
     <g id="text_1">
      <!-- 2013-01 -->
      <defs>
       <path d="M 19.1875 8.296875 
L 53.609375 8.296875 
L 53.609375 0 
L 7.328125 0 
L 7.328125 8.296875 
Q 12.9375 14.109375 22.625 23.890625 
Q 32.328125 33.6875 34.8125 36.53125 
Q 39.546875 41.84375 41.421875 45.53125 
Q 43.3125 49.21875 43.3125 52.78125 
Q 43.3125 58.59375 39.234375 62.25 
Q 35.15625 65.921875 28.609375 65.921875 
Q 23.96875 65.921875 18.8125 64.3125 
Q 13.671875 62.703125 7.8125 59.421875 
L 7.8125 69.390625 
Q 13.765625 71.78125 18.9375 73 
Q 24.125 74.21875 28.421875 74.21875 
Q 39.75 74.21875 46.484375 68.546875 
Q 53.21875 62.890625 53.21875 53.421875 
Q 53.21875 48.921875 51.53125 44.890625 
Q 49.859375 40.875 45.40625 35.40625 
Q 44.1875 33.984375 37.640625 27.21875 
Q 31.109375 20.453125 19.1875 8.296875 
z
" id="DejaVuSans-50"/>
       <path d="M 31.78125 66.40625 
Q 24.171875 66.40625 20.328125 58.90625 
Q 16.5 51.421875 16.5 36.375 
Q 16.5 21.390625 20.328125 13.890625 
Q 24.171875 6.390625 31.78125 6.390625 
Q 39.453125 6.390625 43.28125 13.890625 
Q 47.125 21.390625 47.125 36.375 
Q 47.125 51.421875 43.28125 58.90625 
Q 39.453125 66.40625 31.78125 66.40625 
z
M 31.78125 74.21875 
Q 44.046875 74.21875 50.515625 64.515625 
Q 56.984375 54.828125 56.984375 36.375 
Q 56.984375 17.96875 50.515625 8.265625 
Q 44.046875 -1.421875 31.78125 -1.421875 
Q 19.53125 -1.421875 13.0625 8.265625 
Q 6.59375 17.96875 6.59375 36.375 
Q 6.59375 54.828125 13.0625 64.515625 
Q 19.53125 74.21875 31.78125 74.21875 
z
" id="DejaVuSans-48"/>
       <path d="M 12.40625 8.296875 
L 28.515625 8.296875 
L 28.515625 63.921875 
L 10.984375 60.40625 
L 10.984375 69.390625 
L 28.421875 72.90625 
L 38.28125 72.90625 
L 38.28125 8.296875 
L 54.390625 8.296875 
L 54.390625 0 
L 12.40625 0 
z
" id="DejaVuSans-49"/>
       <path d="M 40.578125 39.3125 
Q 47.65625 37.796875 51.625 33 
Q 55.609375 28.21875 55.609375 21.1875 
Q 55.609375 10.40625 48.1875 4.484375 
Q 40.765625 -1.421875 27.09375 -1.421875 
Q 22.515625 -1.421875 17.65625 -0.515625 
Q 12.796875 0.390625 7.625 2.203125 
L 7.625 11.71875 
Q 11.71875 9.328125 16.59375 8.109375 
Q 21.484375 6.890625 26.8125 6.890625 
Q 36.078125 6.890625 40.9375 10.546875 
Q 45.796875 14.203125 45.796875 21.1875 
Q 45.796875 27.640625 41.28125 31.265625 
Q 36.765625 34.90625 28.71875 34.90625 
L 20.21875 34.90625 
L 20.21875 43.015625 
L 29.109375 43.015625 
Q 36.375 43.015625 40.234375 45.921875 
Q 44.09375 48.828125 44.09375 54.296875 
Q 44.09375 59.90625 40.109375 62.90625 
Q 36.140625 65.921875 28.71875 65.921875 
Q 24.65625 65.921875 20.015625 65.03125 
Q 15.375 64.15625 9.8125 62.3125 
L 9.8125 71.09375 
Q 15.4375 72.65625 20.34375 73.4375 
Q 25.25 74.21875 29.59375 74.21875 
Q 40.828125 74.21875 47.359375 69.109375 
Q 53.90625 64.015625 53.90625 55.328125 
Q 53.90625 49.265625 50.4375 45.09375 
Q 46.96875 40.921875 40.578125 39.3125 
z
" id="DejaVuSans-51"/>
       <path d="M 4.890625 31.390625 
L 31.203125 31.390625 
L 31.203125 23.390625 
L 4.890625 23.390625 
z
" id="DejaVuSans-45"/>
      </defs>
      <g transform="translate(52.048595 322.182437)scale(0.1 -0.1)">
       <use xlink:href="#DejaVuSans-50"/>
       <use x="63.623047" xlink:href="#DejaVuSans-48"/>
       <use x="127.246094" xlink:href="#DejaVuSans-49"/>
       <use x="190.869141" xlink:href="#DejaVuSans-51"/>
       <use x="254.492188" xlink:href="#DejaVuSans-45"/>
       <use x="290.576172" xlink:href="#DejaVuSans-48"/>
       <use x="354.199219" xlink:href="#DejaVuSans-49"/>
      </g>
     </g>
    </g>
    <g id="xtick_2">
     <g id="line2d_2">
      <g>
       <use style="stroke:#000000;stroke-width:0.8;" x="108.649026" xlink:href="#m1f0dde636d" y="307.584"/>
      </g>
     </g>
     <g id="text_2">
      <!-- 2013-05 -->
      <defs>
       <path d="M 10.796875 72.90625 
L 49.515625 72.90625 
L 49.515625 64.59375 
L 19.828125 64.59375 
L 19.828125 46.734375 
Q 21.96875 47.46875 24.109375 47.828125 
Q 26.265625 48.1875 28.421875 48.1875 
Q 40.625 48.1875 47.75 41.5 
Q 54.890625 34.8125 54.890625 23.390625 
Q 54.890625 11.625 47.5625 5.09375 
Q 40.234375 -1.421875 26.90625 -1.421875 
Q 22.3125 -1.421875 17.546875 -0.640625 
Q 12.796875 0.140625 7.71875 1.703125 
L 7.71875 11.625 
Q 12.109375 9.234375 16.796875 8.0625 
Q 21.484375 6.890625 26.703125 6.890625 
Q 35.15625 6.890625 40.078125 11.328125 
Q 45.015625 15.765625 45.015625 23.390625 
Q 45.015625 31 40.078125 35.4375 
Q 35.15625 39.890625 26.703125 39.890625 
Q 22.75 39.890625 18.8125 39.015625 
Q 14.890625 38.140625 10.796875 36.28125 
z
" id="DejaVuSans-53"/>
      </defs>
      <g transform="translate(87.75762 322.182437)scale(0.1 -0.1)">
       <use xlink:href="#DejaVuSans-50"/>
       <use x="63.623047" xlink:href="#DejaVuSans-48"/>
       <use x="127.246094" xlink:href="#DejaVuSans-49"/>
       <use x="190.869141" xlink:href="#DejaVuSans-51"/>
       <use x="254.492188" xlink:href="#DejaVuSans-45"/>
       <use x="290.576172" xlink:href="#DejaVuSans-48"/>
       <use x="354.199219" xlink:href="#DejaVuSans-53"/>
      </g>
     </g>
    </g>
    <g id="xtick_3">
     <g id="line2d_3">
      <g>
       <use style="stroke:#000000;stroke-width:0.8;" x="145.250776" xlink:href="#m1f0dde636d" y="307.584"/>
      </g>
     </g>
     <g id="text_3">
      <!-- 2013-09 -->
      <defs>
       <path d="M 10.984375 1.515625 
L 10.984375 10.5 
Q 14.703125 8.734375 18.5 7.8125 
Q 22.3125 6.890625 25.984375 6.890625 
Q 35.75 6.890625 40.890625 13.453125 
Q 46.046875 20.015625 46.78125 33.40625 
Q 43.953125 29.203125 39.59375 26.953125 
Q 35.25 24.703125 29.984375 24.703125 
Q 19.046875 24.703125 12.671875 31.3125 
Q 6.296875 37.9375 6.296875 49.421875 
Q 6.296875 60.640625 12.9375 67.421875 
Q 19.578125 74.21875 30.609375 74.21875 
Q 43.265625 74.21875 49.921875 64.515625 
Q 56.59375 54.828125 56.59375 36.375 
Q 56.59375 19.140625 48.40625 8.859375 
Q 40.234375 -1.421875 26.421875 -1.421875 
Q 22.703125 -1.421875 18.890625 -0.6875 
Q 15.09375 0.046875 10.984375 1.515625 
z
M 30.609375 32.421875 
Q 37.25 32.421875 41.125 36.953125 
Q 45.015625 41.5 45.015625 49.421875 
Q 45.015625 57.28125 41.125 61.84375 
Q 37.25 66.40625 30.609375 66.40625 
Q 23.96875 66.40625 20.09375 61.84375 
Q 16.21875 57.28125 16.21875 49.421875 
Q 16.21875 41.5 20.09375 36.953125 
Q 23.96875 32.421875 30.609375 32.421875 
z
" id="DejaVuSans-57"/>
      </defs>
      <g transform="translate(124.35937 322.182437)scale(0.1 -0.1)">
       <use xlink:href="#DejaVuSans-50"/>
       <use x="63.623047" xlink:href="#DejaVuSans-48"/>
       <use x="127.246094" xlink:href="#DejaVuSans-49"/>
       <use x="190.869141" xlink:href="#DejaVuSans-51"/>
       <use x="254.492188" xlink:href="#DejaVuSans-45"/>
       <use x="290.576172" xlink:href="#DejaVuSans-48"/>
       <use x="354.199219" xlink:href="#DejaVuSans-57"/>
      </g>
     </g>
    </g>
    <g id="xtick_4">
     <g id="line2d_4">
      <g>
       <use style="stroke:#000000;stroke-width:0.8;" x="181.55495" xlink:href="#m1f0dde636d" y="307.584"/>
      </g>
     </g>
     <g id="text_4">
      <!-- 2014-01 -->
      <defs>
       <path d="M 37.796875 64.3125 
L 12.890625 25.390625 
L 37.796875 25.390625 
z
M 35.203125 72.90625 
L 47.609375 72.90625 
L 47.609375 25.390625 
L 58.015625 25.390625 
L 58.015625 17.1875 
L 47.609375 17.1875 
L 47.609375 0 
L 37.796875 0 
L 37.796875 17.1875 
L 4.890625 17.1875 
L 4.890625 26.703125 
z
" id="DejaVuSans-52"/>
      </defs>
      <g transform="translate(160.663544 322.182437)scale(0.1 -0.1)">
       <use xlink:href="#DejaVuSans-50"/>
       <use x="63.623047" xlink:href="#DejaVuSans-48"/>
       <use x="127.246094" xlink:href="#DejaVuSans-49"/>
       <use x="190.869141" xlink:href="#DejaVuSans-52"/>
       <use x="254.492188" xlink:href="#DejaVuSans-45"/>
       <use x="290.576172" xlink:href="#DejaVuSans-48"/>
       <use x="354.199219" xlink:href="#DejaVuSans-49"/>
      </g>
     </g>
    </g>
    <g id="xtick_5">
     <g id="line2d_5">
      <g>
       <use style="stroke:#000000;stroke-width:0.8;" x="217.263975" xlink:href="#m1f0dde636d" y="307.584"/>
      </g>
     </g>
     <g id="text_5">
      <!-- 2014-05 -->
      <g transform="translate(196.372568 322.182437)scale(0.1 -0.1)">
       <use xlink:href="#DejaVuSans-50"/>
       <use x="63.623047" xlink:href="#DejaVuSans-48"/>
       <use x="127.246094" xlink:href="#DejaVuSans-49"/>
       <use x="190.869141" xlink:href="#DejaVuSans-52"/>
       <use x="254.492188" xlink:href="#DejaVuSans-45"/>
       <use x="290.576172" xlink:href="#DejaVuSans-48"/>
       <use x="354.199219" xlink:href="#DejaVuSans-53"/>
      </g>
     </g>
    </g>
    <g id="xtick_6">
     <g id="line2d_6">
      <g>
       <use style="stroke:#000000;stroke-width:0.8;" x="253.865725" xlink:href="#m1f0dde636d" y="307.584"/>
      </g>
     </g>
     <g id="text_6">
      <!-- 2014-09 -->
      <g transform="translate(232.974318 322.182437)scale(0.1 -0.1)">
       <use xlink:href="#DejaVuSans-50"/>
       <use x="63.623047" xlink:href="#DejaVuSans-48"/>
       <use x="127.246094" xlink:href="#DejaVuSans-49"/>
       <use x="190.869141" xlink:href="#DejaVuSans-52"/>
       <use x="254.492188" xlink:href="#DejaVuSans-45"/>
       <use x="290.576172" xlink:href="#DejaVuSans-48"/>
       <use x="354.199219" xlink:href="#DejaVuSans-57"/>
      </g>
     </g>
    </g>
    <g id="xtick_7">
     <g id="line2d_7">
      <g>
       <use style="stroke:#000000;stroke-width:0.8;" x="290.169899" xlink:href="#m1f0dde636d" y="307.584"/>
      </g>
     </g>
     <g id="text_7">
      <!-- 2015-01 -->
      <g transform="translate(269.278493 322.182437)scale(0.1 -0.1)">
       <use xlink:href="#DejaVuSans-50"/>
       <use x="63.623047" xlink:href="#DejaVuSans-48"/>
       <use x="127.246094" xlink:href="#DejaVuSans-49"/>
       <use x="190.869141" xlink:href="#DejaVuSans-53"/>
       <use x="254.492188" xlink:href="#DejaVuSans-45"/>
       <use x="290.576172" xlink:href="#DejaVuSans-48"/>
       <use x="354.199219" xlink:href="#DejaVuSans-49"/>
      </g>
     </g>
    </g>
    <g id="xtick_8">
     <g id="line2d_8">
      <g>
       <use style="stroke:#000000;stroke-width:0.8;" x="325.878923" xlink:href="#m1f0dde636d" y="307.584"/>
      </g>
     </g>
     <g id="text_8">
      <!-- 2015-05 -->
      <g transform="translate(304.987517 322.182437)scale(0.1 -0.1)">
       <use xlink:href="#DejaVuSans-50"/>
       <use x="63.623047" xlink:href="#DejaVuSans-48"/>
       <use x="127.246094" xlink:href="#DejaVuSans-49"/>
       <use x="190.869141" xlink:href="#DejaVuSans-53"/>
       <use x="254.492188" xlink:href="#DejaVuSans-45"/>
       <use x="290.576172" xlink:href="#DejaVuSans-48"/>
       <use x="354.199219" xlink:href="#DejaVuSans-53"/>
      </g>
     </g>
    </g>
    <g id="xtick_9">
     <g id="line2d_9">
      <g>
       <use style="stroke:#000000;stroke-width:0.8;" x="362.480673" xlink:href="#m1f0dde636d" y="307.584"/>
      </g>
     </g>
     <g id="text_9">
      <!-- 2015-09 -->
      <g transform="translate(341.589267 322.182437)scale(0.1 -0.1)">
       <use xlink:href="#DejaVuSans-50"/>
       <use x="63.623047" xlink:href="#DejaVuSans-48"/>
       <use x="127.246094" xlink:href="#DejaVuSans-49"/>
       <use x="190.869141" xlink:href="#DejaVuSans-53"/>
       <use x="254.492188" xlink:href="#DejaVuSans-45"/>
       <use x="290.576172" xlink:href="#DejaVuSans-48"/>
       <use x="354.199219" xlink:href="#DejaVuSans-57"/>
      </g>
     </g>
    </g>
    <g id="xtick_10">
     <g id="line2d_10">
      <g>
       <use style="stroke:#000000;stroke-width:0.8;" x="398.784848" xlink:href="#m1f0dde636d" y="307.584"/>
      </g>
     </g>
     <g id="text_10">
      <!-- 2016-01 -->
      <defs>
       <path d="M 33.015625 40.375 
Q 26.375 40.375 22.484375 35.828125 
Q 18.609375 31.296875 18.609375 23.390625 
Q 18.609375 15.53125 22.484375 10.953125 
Q 26.375 6.390625 33.015625 6.390625 
Q 39.65625 6.390625 43.53125 10.953125 
Q 47.40625 15.53125 47.40625 23.390625 
Q 47.40625 31.296875 43.53125 35.828125 
Q 39.65625 40.375 33.015625 40.375 
z
M 52.59375 71.296875 
L 52.59375 62.3125 
Q 48.875 64.0625 45.09375 64.984375 
Q 41.3125 65.921875 37.59375 65.921875 
Q 27.828125 65.921875 22.671875 59.328125 
Q 17.53125 52.734375 16.796875 39.40625 
Q 19.671875 43.65625 24.015625 45.921875 
Q 28.375 48.1875 33.59375 48.1875 
Q 44.578125 48.1875 50.953125 41.515625 
Q 57.328125 34.859375 57.328125 23.390625 
Q 57.328125 12.15625 50.6875 5.359375 
Q 44.046875 -1.421875 33.015625 -1.421875 
Q 20.359375 -1.421875 13.671875 8.265625 
Q 6.984375 17.96875 6.984375 36.375 
Q 6.984375 53.65625 15.1875 63.9375 
Q 23.390625 74.21875 37.203125 74.21875 
Q 40.921875 74.21875 44.703125 73.484375 
Q 48.484375 72.75 52.59375 71.296875 
z
" id="DejaVuSans-54"/>
      </defs>
      <g transform="translate(377.893442 322.182437)scale(0.1 -0.1)">
       <use xlink:href="#DejaVuSans-50"/>
       <use x="63.623047" xlink:href="#DejaVuSans-48"/>
       <use x="127.246094" xlink:href="#DejaVuSans-49"/>
       <use x="190.869141" xlink:href="#DejaVuSans-54"/>
       <use x="254.492188" xlink:href="#DejaVuSans-45"/>
       <use x="290.576172" xlink:href="#DejaVuSans-48"/>
       <use x="354.199219" xlink:href="#DejaVuSans-49"/>
      </g>
     </g>
    </g>
    <g id="text_11">
     <!-- Date -->
     <defs>
      <path d="M 19.671875 64.796875 
L 19.671875 8.109375 
L 31.59375 8.109375 
Q 46.6875 8.109375 53.6875 14.9375 
Q 60.6875 21.78125 60.6875 36.53125 
Q 60.6875 51.171875 53.6875 57.984375 
Q 46.6875 64.796875 31.59375 64.796875 
z
M 9.8125 72.90625 
L 30.078125 72.90625 
Q 51.265625 72.90625 61.171875 64.09375 
Q 71.09375 55.28125 71.09375 36.53125 
Q 71.09375 17.671875 61.125 8.828125 
Q 51.171875 0 30.078125 0 
L 9.8125 0 
z
" id="DejaVuSans-68"/>
      <path d="M 34.28125 27.484375 
Q 23.390625 27.484375 19.1875 25 
Q 14.984375 22.515625 14.984375 16.5 
Q 14.984375 11.71875 18.140625 8.90625 
Q 21.296875 6.109375 26.703125 6.109375 
Q 34.1875 6.109375 38.703125 11.40625 
Q 43.21875 16.703125 43.21875 25.484375 
L 43.21875 27.484375 
z
M 52.203125 31.203125 
L 52.203125 0 
L 43.21875 0 
L 43.21875 8.296875 
Q 40.140625 3.328125 35.546875 0.953125 
Q 30.953125 -1.421875 24.3125 -1.421875 
Q 15.921875 -1.421875 10.953125 3.296875 
Q 6 8.015625 6 15.921875 
Q 6 25.140625 12.171875 29.828125 
Q 18.359375 34.515625 30.609375 34.515625 
L 43.21875 34.515625 
L 43.21875 35.40625 
Q 43.21875 41.609375 39.140625 45 
Q 35.0625 48.390625 27.6875 48.390625 
Q 23 48.390625 18.546875 47.265625 
Q 14.109375 46.140625 10.015625 43.890625 
L 10.015625 52.203125 
Q 14.9375 54.109375 19.578125 55.046875 
Q 24.21875 56 28.609375 56 
Q 40.484375 56 46.34375 49.84375 
Q 52.203125 43.703125 52.203125 31.203125 
z
" id="DejaVuSans-97"/>
      <path d="M 18.3125 70.21875 
L 18.3125 54.6875 
L 36.8125 54.6875 
L 36.8125 47.703125 
L 18.3125 47.703125 
L 18.3125 18.015625 
Q 18.3125 11.328125 20.140625 9.421875 
Q 21.96875 7.515625 27.59375 7.515625 
L 36.8125 7.515625 
L 36.8125 0 
L 27.59375 0 
Q 17.1875 0 13.234375 3.875 
Q 9.28125 7.765625 9.28125 18.015625 
L 9.28125 47.703125 
L 2.6875 47.703125 
L 2.6875 54.6875 
L 9.28125 54.6875 
L 9.28125 70.21875 
z
" id="DejaVuSans-116"/>
      <path d="M 56.203125 29.59375 
L 56.203125 25.203125 
L 14.890625 25.203125 
Q 15.484375 15.921875 20.484375 11.0625 
Q 25.484375 6.203125 34.421875 6.203125 
Q 39.59375 6.203125 44.453125 7.46875 
Q 49.3125 8.734375 54.109375 11.28125 
L 54.109375 2.78125 
Q 49.265625 0.734375 44.1875 -0.34375 
Q 39.109375 -1.421875 33.890625 -1.421875 
Q 20.796875 -1.421875 13.15625 6.1875 
Q 5.515625 13.8125 5.515625 26.8125 
Q 5.515625 40.234375 12.765625 48.109375 
Q 20.015625 56 32.328125 56 
Q 43.359375 56 49.78125 48.890625 
Q 56.203125 41.796875 56.203125 29.59375 
z
M 47.21875 32.234375 
Q 47.125 39.59375 43.09375 43.984375 
Q 39.0625 48.390625 32.421875 48.390625 
Q 24.90625 48.390625 20.390625 44.140625 
Q 15.875 39.890625 15.1875 32.171875 
z
" id="DejaVuSans-101"/>
     </defs>
     <g transform="translate(219.428906 338.899937)scale(0.14 -0.14)">
      <use xlink:href="#DejaVuSans-68"/>
      <use x="77.001953" xlink:href="#DejaVuSans-97"/>
      <use x="138.28125" xlink:href="#DejaVuSans-116"/>
      <use x="177.490234" xlink:href="#DejaVuSans-101"/>
     </g>
    </g>
   </g>
   <g id="matplotlib.axis_2">
    <g id="ytick_1">
     <g id="line2d_11">
      <defs>
       <path d="M 0 0 
L -3.5 0 
" id="mf477098653" style="stroke:#000000;stroke-width:0.8;"/>
      </defs>
      <g>
       <use style="stroke:#000000;stroke-width:0.8;" x="57.6" xlink:href="#mf477098653" y="295.491747"/>
      </g>
     </g>
     <g id="text_12">
      <!-- 0 -->
      <g transform="translate(44.2375 299.290966)scale(0.1 -0.1)">
       <use xlink:href="#DejaVuSans-48"/>
      </g>
     </g>
    </g>
    <g id="ytick_2">
     <g id="line2d_12">
      <g>
       <use style="stroke:#000000;stroke-width:0.8;" x="57.6" xlink:href="#mf477098653" y="258.019449"/>
      </g>
     </g>
     <g id="text_13">
      <!-- 10000 -->
      <g transform="translate(18.7875 261.818668)scale(0.1 -0.1)">
       <use xlink:href="#DejaVuSans-49"/>
       <use x="63.623047" xlink:href="#DejaVuSans-48"/>
       <use x="127.246094" xlink:href="#DejaVuSans-48"/>
       <use x="190.869141" xlink:href="#DejaVuSans-48"/>
       <use x="254.492188" xlink:href="#DejaVuSans-48"/>
      </g>
     </g>
    </g>
    <g id="ytick_3">
     <g id="line2d_13">
      <g>
       <use style="stroke:#000000;stroke-width:0.8;" x="57.6" xlink:href="#mf477098653" y="220.547152"/>
      </g>
     </g>
     <g id="text_14">
      <!-- 20000 -->
      <g transform="translate(18.7875 224.346371)scale(0.1 -0.1)">
       <use xlink:href="#DejaVuSans-50"/>
       <use x="63.623047" xlink:href="#DejaVuSans-48"/>
       <use x="127.246094" xlink:href="#DejaVuSans-48"/>
       <use x="190.869141" xlink:href="#DejaVuSans-48"/>
       <use x="254.492188" xlink:href="#DejaVuSans-48"/>
      </g>
     </g>
    </g>
    <g id="ytick_4">
     <g id="line2d_14">
      <g>
       <use style="stroke:#000000;stroke-width:0.8;" x="57.6" xlink:href="#mf477098653" y="183.074854"/>
      </g>
     </g>
     <g id="text_15">
      <!-- 30000 -->
      <g transform="translate(18.7875 186.874073)scale(0.1 -0.1)">
       <use xlink:href="#DejaVuSans-51"/>
       <use x="63.623047" xlink:href="#DejaVuSans-48"/>
       <use x="127.246094" xlink:href="#DejaVuSans-48"/>
       <use x="190.869141" xlink:href="#DejaVuSans-48"/>
       <use x="254.492188" xlink:href="#DejaVuSans-48"/>
      </g>
     </g>
    </g>
    <g id="ytick_5">
     <g id="line2d_15">
      <g>
       <use style="stroke:#000000;stroke-width:0.8;" x="57.6" xlink:href="#mf477098653" y="145.602556"/>
      </g>
     </g>
     <g id="text_16">
      <!-- 40000 -->
      <g transform="translate(18.7875 149.401775)scale(0.1 -0.1)">
       <use xlink:href="#DejaVuSans-52"/>
       <use x="63.623047" xlink:href="#DejaVuSans-48"/>
       <use x="127.246094" xlink:href="#DejaVuSans-48"/>
       <use x="190.869141" xlink:href="#DejaVuSans-48"/>
       <use x="254.492188" xlink:href="#DejaVuSans-48"/>
      </g>
     </g>
    </g>
    <g id="ytick_6">
     <g id="line2d_16">
      <g>
       <use style="stroke:#000000;stroke-width:0.8;" x="57.6" xlink:href="#mf477098653" y="108.130259"/>
      </g>
     </g>
     <g id="text_17">
      <!-- 50000 -->
      <g transform="translate(18.7875 111.929477)scale(0.1 -0.1)">
       <use xlink:href="#DejaVuSans-53"/>
       <use x="63.623047" xlink:href="#DejaVuSans-48"/>
       <use x="127.246094" xlink:href="#DejaVuSans-48"/>
       <use x="190.869141" xlink:href="#DejaVuSans-48"/>
       <use x="254.492188" xlink:href="#DejaVuSans-48"/>
      </g>
     </g>
    </g>
    <g id="ytick_7">
     <g id="line2d_17">
      <g>
       <use style="stroke:#000000;stroke-width:0.8;" x="57.6" xlink:href="#mf477098653" y="70.657961"/>
      </g>
     </g>
     <g id="text_18">
      <!-- 60000 -->
      <g transform="translate(18.7875 74.45718)scale(0.1 -0.1)">
       <use xlink:href="#DejaVuSans-54"/>
       <use x="63.623047" xlink:href="#DejaVuSans-48"/>
       <use x="127.246094" xlink:href="#DejaVuSans-48"/>
       <use x="190.869141" xlink:href="#DejaVuSans-48"/>
       <use x="254.492188" xlink:href="#DejaVuSans-48"/>
      </g>
     </g>
    </g>
    <g id="text_19">
     <!-- Sales Value -->
     <defs>
      <path d="M 53.515625 70.515625 
L 53.515625 60.890625 
Q 47.90625 63.578125 42.921875 64.890625 
Q 37.9375 66.21875 33.296875 66.21875 
Q 25.25 66.21875 20.875 63.09375 
Q 16.5 59.96875 16.5 54.203125 
Q 16.5 49.359375 19.40625 46.890625 
Q 22.3125 44.4375 30.421875 42.921875 
L 36.375 41.703125 
Q 47.40625 39.59375 52.65625 34.296875 
Q 57.90625 29 57.90625 20.125 
Q 57.90625 9.515625 50.796875 4.046875 
Q 43.703125 -1.421875 29.984375 -1.421875 
Q 24.8125 -1.421875 18.96875 -0.25 
Q 13.140625 0.921875 6.890625 3.21875 
L 6.890625 13.375 
Q 12.890625 10.015625 18.65625 8.296875 
Q 24.421875 6.59375 29.984375 6.59375 
Q 38.421875 6.59375 43.015625 9.90625 
Q 47.609375 13.234375 47.609375 19.390625 
Q 47.609375 24.75 44.3125 27.78125 
Q 41.015625 30.8125 33.5 32.328125 
L 27.484375 33.5 
Q 16.453125 35.6875 11.515625 40.375 
Q 6.59375 45.0625 6.59375 53.421875 
Q 6.59375 63.09375 13.40625 68.65625 
Q 20.21875 74.21875 32.171875 74.21875 
Q 37.3125 74.21875 42.625 73.28125 
Q 47.953125 72.359375 53.515625 70.515625 
z
" id="DejaVuSans-83"/>
      <path d="M 9.421875 75.984375 
L 18.40625 75.984375 
L 18.40625 0 
L 9.421875 0 
z
" id="DejaVuSans-108"/>
      <path d="M 44.28125 53.078125 
L 44.28125 44.578125 
Q 40.484375 46.53125 36.375 47.5 
Q 32.28125 48.484375 27.875 48.484375 
Q 21.1875 48.484375 17.84375 46.4375 
Q 14.5 44.390625 14.5 40.28125 
Q 14.5 37.15625 16.890625 35.375 
Q 19.28125 33.59375 26.515625 31.984375 
L 29.59375 31.296875 
Q 39.15625 29.25 43.1875 25.515625 
Q 47.21875 21.78125 47.21875 15.09375 
Q 47.21875 7.46875 41.1875 3.015625 
Q 35.15625 -1.421875 24.609375 -1.421875 
Q 20.21875 -1.421875 15.453125 -0.5625 
Q 10.6875 0.296875 5.421875 2 
L 5.421875 11.28125 
Q 10.40625 8.6875 15.234375 7.390625 
Q 20.0625 6.109375 24.8125 6.109375 
Q 31.15625 6.109375 34.5625 8.28125 
Q 37.984375 10.453125 37.984375 14.40625 
Q 37.984375 18.0625 35.515625 20.015625 
Q 33.0625 21.96875 24.703125 23.78125 
L 21.578125 24.515625 
Q 13.234375 26.265625 9.515625 29.90625 
Q 5.8125 33.546875 5.8125 39.890625 
Q 5.8125 47.609375 11.28125 51.796875 
Q 16.75 56 26.8125 56 
Q 31.78125 56 36.171875 55.265625 
Q 40.578125 54.546875 44.28125 53.078125 
z
" id="DejaVuSans-115"/>
      <path id="DejaVuSans-32"/>
      <path d="M 28.609375 0 
L 0.78125 72.90625 
L 11.078125 72.90625 
L 34.1875 11.53125 
L 57.328125 72.90625 
L 67.578125 72.90625 
L 39.796875 0 
z
" id="DejaVuSans-86"/>
      <path d="M 8.5 21.578125 
L 8.5 54.6875 
L 17.484375 54.6875 
L 17.484375 21.921875 
Q 17.484375 14.15625 20.5 10.265625 
Q 23.53125 6.390625 29.59375 6.390625 
Q 36.859375 6.390625 41.078125 11.03125 
Q 45.3125 15.671875 45.3125 23.6875 
L 45.3125 54.6875 
L 54.296875 54.6875 
L 54.296875 0 
L 45.3125 0 
L 45.3125 8.40625 
Q 42.046875 3.421875 37.71875 1 
Q 33.40625 -1.421875 27.6875 -1.421875 
Q 18.265625 -1.421875 13.375 4.4375 
Q 8.5 10.296875 8.5 21.578125 
z
M 31.109375 56 
z
" id="DejaVuSans-117"/>
     </defs>
     <g transform="translate(11.875937 215.143312)rotate(-90)scale(0.14 -0.14)">
      <use xlink:href="#DejaVuSans-83"/>
      <use x="63.476562" xlink:href="#DejaVuSans-97"/>
      <use x="124.755859" xlink:href="#DejaVuSans-108"/>
      <use x="152.539062" xlink:href="#DejaVuSans-101"/>
      <use x="214.0625" xlink:href="#DejaVuSans-115"/>
      <use x="266.162109" xlink:href="#DejaVuSans-32"/>
      <use x="297.949219" xlink:href="#DejaVuSans-86"/>
      <use x="366.248047" xlink:href="#DejaVuSans-97"/>
      <use x="427.527344" xlink:href="#DejaVuSans-108"/>
      <use x="455.310547" xlink:href="#DejaVuSans-117"/>
      <use x="518.689453" xlink:href="#DejaVuSans-101"/>
     </g>
    </g>
   </g>
   <g id="line2d_18">
    <path clip-path="url(#p5ae75467ce)" d="M 73.832727 295.431792 
L 74.427878 295.473011 
L 74.725453 295.124519 
L 76.510904 295.465517 
L 82.462408 295.488 
L 82.759983 294.502479 
L 83.652709 294.75729 
L 83.950284 295.409308 
L 84.247859 295.319375 
L 84.545435 295.469264 
L 84.84301 295.37933 
L 86.330886 295.154497 
L 86.628461 295.44678 
L 91.092089 295.473011 
L 91.984815 295.469264 
L 92.28239 295.334364 
L 92.87754 295.480506 
L 94.067841 295.364341 
L 94.365416 295.383078 
L 94.662991 295.274408 
L 94.960567 293.288376 
L 95.258142 295.473011 
L 95.555717 295.458022 
L 95.853292 295.161991 
L 96.150867 295.371836 
L 97.043593 295.488 
L 97.638743 295.345605 
L 97.936319 295.473011 
L 100.31692 295.416803 
L 101.209646 295.075805 
L 103.887823 295.416803 
L 105.078123 295.473011 
L 105.375699 295.221947 
L 105.970849 295.413055 
L 109.541752 295.079552 
L 109.839327 295.488 
L 110.434477 294.89219 
L 114.898105 295.458022 
L 115.493256 294.997113 
L 116.981132 295.356847 
L 117.278707 295.034585 
L 118.171432 294.959641 
L 119.064158 295.480506 
L 119.659308 295.473011 
L 120.254459 295.221947 
L 120.552034 295.473011 
L 122.63506 295.274408 
L 122.932636 295.488 
L 123.230211 295.255672 
L 123.825361 295.469264 
L 125.015662 294.787268 
L 125.313237 295.488 
L 128.586564 295.484253 
L 128.88414 295.28565 
L 130.669591 295.480506 
L 133.942918 295.484253 
L 134.240493 295.060816 
L 134.538068 295.364341 
L 134.835644 295.473011 
L 136.621095 295.461769 
L 144.655625 295.469264 
L 150.904705 295.469264 
L 151.20228 295.308133 
L 153.285306 295.458022 
L 155.070757 295.356847 
L 155.368333 294.862213 
L 155.665908 295.390572 
L 157.153784 295.469264 
L 160.427111 295.24443 
L 161.914987 295.345605 
L 162.212562 294.967135 
L 163.998013 295.473011 
L 166.08104 295.484253 
L 166.67619 295.053321 
L 166.973766 295.488 
L 167.866491 294.97463 
L 168.759217 294.963388 
L 169.056792 295.251925 
L 170.544668 295.469264 
L 172.330119 295.281902 
L 173.52042 295.308133 
L 174.11557 295.326869 
L 174.413146 295.469264 
L 174.710721 295.191969 
L 175.305871 295.409308 
L 175.603446 294.210195 
L 176.198597 295.465517 
L 176.496172 295.480506 
L 176.793747 294.48749 
L 177.091322 295.469264 
L 179.471924 295.191969 
L 179.769499 295.469264 
L 194.945835 295.469264 
L 195.83856 295.229441 
L 201.790064 295.458022 
L 230.654859 295.484253 
L 235.713637 293.157223 
L 236.606363 294.97463 
L 237.201513 294.592412 
L 237.499088 293.101015 
L 237.796664 292.973609 
L 238.094239 295.37933 
L 238.391814 290.905138 
L 238.689389 295.04208 
L 238.986964 295.435539 
L 239.28454 283.410678 
L 239.582115 293.880438 
L 240.177265 288.319549 
L 240.47484 294.31137 
L 240.772416 294.592412 
L 241.069991 295.465517 
L 241.665141 291.78199 
L 241.962716 293.490727 
L 242.260292 292.081768 
L 242.557867 294.142745 
L 242.855442 295.416803 
L 243.153017 295.221947 
L 243.450592 293.273387 
L 243.748168 294.862213 
L 244.045743 294.704829 
L 244.343318 294.723565 
L 244.640893 295.173233 
L 244.938468 295.289397 
L 245.236044 295.057069 
L 245.533619 295.236936 
L 245.831194 292.434008 
L 246.128769 294.030328 
L 246.426344 290.80771 
L 246.72392 295.132013 
L 247.021495 294.086536 
L 247.31907 295.416803 
L 247.616645 289.050259 
L 247.91422 290.80771 
L 248.211796 294.31137 
L 248.509371 293.130992 
L 249.402096 295.274408 
L 249.699672 286.588329 
L 249.997247 291.519684 
L 250.294822 290.545404 
L 250.592397 294.502479 
L 250.889973 294.367578 
L 251.485123 295.465517 
L 251.782698 292.928642 
L 252.080273 292.789995 
L 252.377849 295.04208 
L 252.675424 292.565161 
L 253.270574 295.431792 
L 253.568149 293.936647 
L 254.1633 294.255161 
L 254.460875 288.986556 
L 254.75845 294.31137 
L 255.056025 295.210705 
L 255.353601 295.473011 
L 255.651176 295.416803 
L 255.948751 290.504184 
L 256.246326 294.2027 
L 256.543901 293.805494 
L 256.841477 293.02607 
L 257.139052 294.862213 
L 257.734202 295.484253 
L 258.031777 290.957599 
L 258.329353 293.51321 
L 258.626928 286.99303 
L 258.924503 289.844672 
L 259.222078 290.305581 
L 259.519653 289.016534 
L 259.817229 295.416803 
L 260.114804 287.023008 
L 260.412379 291.234894 
L 260.709954 288.746734 
L 261.007529 291.647089 
L 261.305105 292.692567 
L 261.60268 295.431792 
L 262.19783 291.399772 
L 262.495405 290.298087 
L 262.792981 290.335559 
L 263.090556 292.71505 
L 263.388131 290.545404 
L 263.685706 292.816225 
L 264.280857 288.544383 
L 264.578432 292.26913 
L 264.876007 290.331812 
L 265.173582 293.033564 
L 265.471157 291.976846 
L 265.768733 295.191969 
L 266.066308 295.345605 
L 266.363883 293.64811 
L 266.661458 290.938863 
L 267.256609 293.09352 
L 267.554184 285.374227 
L 267.851759 295.17698 
L 268.149334 293.041059 
L 268.446909 291.883165 
L 268.744485 294.89219 
L 269.04206 292.827467 
L 269.339635 294.435028 
L 269.63721 294.498731 
L 269.934785 295.390572 
L 270.232361 295.454275 
L 270.529936 292.793742 
L 270.827511 293.299618 
L 271.125086 287.959815 
L 271.422661 286.341012 
L 271.720237 294.345095 
L 272.017812 292.321591 
L 272.315387 295.431792 
L 272.612962 288.619328 
L 272.910537 288.233363 
L 273.208113 293.595649 
L 273.505688 293.768022 
L 273.803263 292.014318 
L 274.398413 295.161991 
L 274.695989 292.943631 
L 274.993564 287.487664 
L 275.588714 294.678598 
L 275.886289 286.535868 
L 276.183865 295.323122 
L 276.48144 294.330106 
L 276.779015 288.701767 
L 277.07659 291.174939 
L 277.374165 285.838883 
L 277.671741 290.669063 
L 277.969316 293.599396 
L 278.266891 295.323122 
L 278.564466 295.296891 
L 278.862041 291.684562 
L 279.159617 292.018065 
L 279.457192 294.62239 
L 280.052342 293.524452 
L 280.349918 295.255672 
L 280.647493 294.940904 
L 280.945068 291.29485 
L 281.242643 289.286335 
L 281.540218 288.731745 
L 281.837794 289.646069 
L 282.135369 293.550682 
L 282.432944 295.37933 
L 282.730519 295.44678 
L 283.028094 265.195395 
L 283.32567 282.961011 
L 283.623245 266.638078 
L 283.92082 291.643342 
L 284.218395 290.935116 
L 284.51597 294.397556 
L 284.813546 294.682346 
L 285.111121 293.153476 
L 285.408696 285.557841 
L 285.706271 295.154497 
L 286.003846 294.502479 
L 286.301422 293.453254 
L 286.598997 294.262656 
L 286.896572 295.476758 
L 287.194147 290.901391 
L 287.789298 295.278155 
L 288.086873 294.884696 
L 288.384448 293.505715 
L 288.682023 295.030838 
L 288.979598 295.278155 
L 289.277174 294.521215 
L 289.574749 294.817246 
L 289.872324 282.533827 
L 290.169899 290.432987 
L 291.062625 295.473011 
L 302.965633 295.416803 
L 332.723153 295.416803 
L 344.031011 280.536553 
L 344.328586 294.24392 
L 344.626161 292.756269 
L 344.923736 295.004607 
L 345.221312 295.476758 
L 345.518887 280.855068 
L 345.816462 256.794105 
L 346.114037 294.502479 
L 346.411612 285.419194 
L 346.709188 281.109879 
L 347.006763 294.929663 
L 347.304338 294.390062 
L 347.601913 273.19573 
L 347.899488 288.387 
L 348.197064 284.534847 
L 348.494639 285.074448 
L 348.792214 278.344424 
L 349.089789 294.457512 
L 349.387364 293.734296 
L 349.68494 282.747419 
L 349.982515 259.068674 
L 350.28009 273.536728 
L 350.577665 278.494313 
L 350.87524 291.575892 
L 351.470391 295.188222 
L 351.767966 269.523445 
L 352.065541 289.020281 
L 352.363116 275.058103 
L 352.660692 292.523941 
L 352.958267 286.663274 
L 353.255842 295.439286 
L 353.553417 293.618132 
L 353.850992 253.762596 
L 354.148568 291.71454 
L 354.446143 281.79937 
L 354.743718 280.225533 
L 355.338868 294.479995 
L 355.636444 293.977866 
L 355.934019 271.726816 
L 356.529169 291.29485 
L 356.826744 280.521564 
L 357.12432 284.407442 
L 357.421895 292.05179 
L 357.71947 294.997113 
L 358.017045 283.860346 
L 358.31462 284.643517 
L 358.612196 279.438615 
L 358.909771 284.160124 
L 359.207346 292.482722 
L 359.504921 289.571124 
L 359.802496 294.835982 
L 360.100072 285.576577 
L 360.397647 292.981103 
L 360.695222 290.350548 
L 361.290372 282.241543 
L 361.587948 295.371836 
L 361.885523 292.26913 
L 362.183098 295.484253 
L 362.778248 281.282252 
L 363.075824 289.646069 
L 363.373399 285.419194 
L 363.670974 295.371836 
L 363.968549 295.44678 
L 364.266124 281.327219 
L 364.5637 288.072232 
L 364.861275 287.465181 
L 365.15885 278.599235 
L 365.456425 284.699725 
L 365.754 295.236936 
L 366.051576 295.334364 
L 366.349151 245.353813 
L 366.646726 238.327757 
L 366.944301 273.907704 
L 367.241877 263.805172 
L 367.539452 261.699229 
L 367.837027 294.44627 
L 368.134602 293.974119 
L 368.432177 280.5403 
L 368.729753 277.347661 
L 369.027328 281.098638 
L 369.324903 272.813513 
L 369.622478 278.25449 
L 369.920053 294.682346 
L 370.217629 295.473011 
L 370.515204 276.156042 
L 370.812779 231.489063 
L 371.110354 284.474892 
L 371.407929 283.845357 
L 371.705505 286.955558 
L 372.00308 292.085515 
L 372.300655 292.928642 
L 372.59823 278.67418 
L 372.895805 254.721887 
L 373.193381 282.563805 
L 374.086106 295.04208 
L 374.383681 295.008355 
L 374.681257 271.089787 
L 374.978832 275.998658 
L 375.276407 274.919456 
L 375.573982 285.044471 
L 375.871557 286.543363 
L 376.169133 293.535693 
L 376.466708 294.300128 
L 376.764283 277.598725 
L 377.061858 278.779102 
L 377.359433 288.319549 
L 377.657009 287.112941 
L 377.954584 287.097953 
L 378.252159 294.626137 
L 378.549734 295.147002 
L 379.144885 283.182097 
L 379.44246 285.224338 
L 379.740035 277.478814 
L 380.03761 282.901055 
L 380.335185 292.265382 
L 380.632761 295.345605 
L 380.930336 275.106817 
L 381.227911 285.542852 
L 381.525486 282.496354 
L 381.823061 272.307637 
L 382.120637 278.797839 
L 382.418212 294.704829 
L 382.715787 291.924384 
L 383.013362 286.284804 
L 383.310937 269.186194 
L 383.608513 289.889639 
L 383.906088 268.886416 
L 384.203663 275.151784 
L 384.501238 294.31137 
L 384.798813 292.05179 
L 385.096389 285.936311 
L 385.691539 265.483931 
L 385.989114 291.744517 
L 386.286689 289.724761 
L 386.584265 294.0678 
L 386.88184 291.287355 
L 387.47699 277.478814 
L 388.072141 295.161991 
L 388.369716 282.114137 
L 388.667291 291.871923 
L 388.964866 292.254141 
L 389.262441 276.785576 
L 389.560017 285.936311 
L 390.155167 275.661407 
L 390.452742 281.724425 
L 390.750317 292.947378 
L 391.047893 295.266913 
L 391.345468 255.831067 
L 391.643043 247.515964 
L 391.940618 272.352603 
L 392.238193 283.500612 
L 392.535769 280.93376 
L 392.833344 294.292634 
L 393.130919 295.188222 
L 393.428494 272.483756 
L 393.726069 292.936137 
L 394.023645 281.956753 
L 394.32122 282.406421 
L 394.618795 282.376443 
L 394.91637 294.300128 
L 395.213946 295.473011 
L 395.511521 274.282427 
L 395.809096 289.00904 
L 396.106671 295.469264 
L 396.404246 290.657821 
L 396.701822 288.578108 
L 396.999397 294.652368 
L 397.296972 294.367578 
L 397.594547 291.594628 
L 397.892122 283.702962 
L 398.189698 272.08655 
L 398.487273 292.565161 
L 398.487273 292.565161 
" style="fill:none;stroke:#ff0000;stroke-linecap:square;stroke-width:1.5;"/>
   </g>
   <g id="line2d_19">
    <path clip-path="url(#p5ae75467ce)" d="M 73.832727 295.301688 
L 74.130302 295.479869 
L 74.427878 295.432354 
L 74.725453 294.330644 
L 75.915754 295.02874 
L 76.213329 295.005589 
L 76.510904 295.410721 
L 79.784231 295.420918 
L 82.462408 295.480227 
L 82.759983 292.45034 
L 83.652709 293.224625 
L 83.950284 295.237126 
L 84.247859 294.956427 
L 84.545435 295.421923 
L 84.84301 295.142625 
L 86.330886 294.432848 
L 86.628461 295.350561 
L 87.521187 295.303726 
L 87.818762 295.422044 
L 88.413912 295.479965 
L 89.901788 295.276979 
L 91.389664 295.455957 
L 91.984815 295.420565 
L 92.28239 294.991141 
L 92.87754 295.456122 
L 93.770266 295.013796 
L 94.365416 295.144004 
L 94.662991 294.79913 
L 94.960567 288.470044 
L 95.258142 295.432039 
L 95.555717 295.383776 
L 95.853292 294.434714 
L 96.150867 295.106004 
L 97.043593 295.479621 
L 97.638743 295.024824 
L 97.936319 295.430992 
L 100.31692 295.246731 
L 101.209646 294.14584 
L 103.887823 295.255657 
L 104.780548 295.184567 
L 105.078123 295.432899 
L 105.375699 294.644331 
L 105.970849 295.244277 
L 109.244176 294.571287 
L 109.541752 294.193662 
L 109.839327 295.479946 
L 110.434477 293.587135 
L 114.898105 295.382741 
L 115.493256 293.889132 
L 116.683556 295.029463 
L 116.981132 295.048856 
L 117.278707 293.990839 
L 118.171432 293.738296 
L 118.469008 294.198644 
L 119.064158 295.455301 
L 119.659308 295.43077 
L 120.254459 294.613681 
L 120.552034 295.431398 
L 122.63506 294.802369 
L 122.932636 295.479875 
L 123.230211 294.74157 
L 123.825361 295.41813 
L 125.015662 293.178238 
L 125.313237 295.479292 
L 128.586564 295.466832 
L 128.88414 294.799754 
L 130.07444 295.441983 
L 130.669591 295.454424 
L 133.942918 295.467658 
L 134.240493 294.120049 
L 134.538068 295.086202 
L 134.835644 295.432108 
L 135.133219 295.384303 
L 136.025945 295.479771 
L 136.621095 295.395216 
L 138.406546 295.339097 
L 139.596847 295.479948 
L 140.191997 295.43246 
L 141.679873 294.991881 
L 144.655625 295.419331 
L 150.904705 295.421707 
L 151.20228 294.919752 
L 153.285306 295.386093 
L 155.070757 295.074878 
L 155.368333 293.546359 
L 155.665908 295.179096 
L 156.261058 295.237233 
L 157.153784 295.422386 
L 159.831961 294.72585 
L 160.427111 294.735847 
L 161.914987 295.048557 
L 162.212562 293.903694 
L 162.807713 294.465392 
L 163.998013 295.434589 
L 166.08104 295.468415 
L 166.67619 294.112986 
L 166.973766 295.479997 
L 167.866491 293.879788 
L 168.759217 293.857796 
L 169.056792 294.749568 
L 170.247093 295.480102 
L 170.544668 295.422006 
L 172.032544 294.705755 
L 173.222845 295.329558 
L 173.52042 294.92493 
L 174.11557 294.986017 
L 174.413146 295.422784 
L 174.710721 294.576404 
L 175.305871 295.241248 
L 175.603446 291.593905 
L 176.198597 295.411922 
L 176.496172 295.457537 
L 176.793747 292.443825 
L 177.091322 295.423488 
L 179.471924 294.58204 
L 179.769499 295.423519 
L 180.067074 295.424061 
L 180.9598 295.310801 
L 181.257375 295.480461 
L 182.447676 295.365958 
L 188.39918 295.445691 
L 191.374932 295.374197 
L 194.945835 295.423546 
L 195.83856 294.69696 
L 201.194914 295.265527 
L 201.492489 295.435192 
L 201.790064 295.389675 
L 216.073674 295.423447 
L 217.859125 295.264748 
L 219.049426 295.469124 
L 221.430027 295.193725 
L 230.654859 295.468978 
L 235.713637 288.397829 
L 236.606363 293.914797 
L 237.201513 292.749045 
L 237.499088 288.214118 
L 237.796664 287.856248 
L 238.094239 295.150865 
L 238.391814 281.53653 
L 238.689389 294.123589 
L 238.986964 295.320727 
L 239.28454 258.803958 
L 239.582115 290.584667 
L 240.177265 273.559884 
L 240.47484 291.873654 
L 240.772416 292.735105 
L 241.069991 295.411345 
L 241.665141 284.084985 
L 241.962716 289.347213 
L 242.260292 285.022429 
L 242.557867 291.332637 
L 242.855442 295.260686 
L 243.153017 294.659925 
L 243.450592 288.645888 
L 243.748168 293.546485 
L 244.045743 293.054032 
L 244.343318 293.103162 
L 244.640893 294.495434 
L 244.938468 294.858795 
L 245.236044 294.132072 
L 245.533619 294.698926 
L 245.831194 285.975756 
L 246.128769 290.906251 
L 246.426344 280.785276 
L 246.72392 294.358261 
L 247.021495 291.064067 
L 247.31907 295.255604 
L 247.616645 275.279646 
L 247.91422 280.753424 
L 248.211796 291.780405 
L 248.509371 288.106126 
L 249.402096 294.811801 
L 249.699672 267.586655 
L 249.997247 283.036945 
L 250.294822 279.925605 
L 250.592397 292.368725 
L 250.889973 291.948367 
L 251.485123 295.409068 
L 251.782698 287.37183 
L 252.080273 286.930974 
L 252.377849 294.063423 
L 252.675424 286.175252 
L 253.270574 295.300099 
L 253.568149 290.520869 
L 254.1633 291.520823 
L 254.460875 274.732382 
L 254.75845 291.720796 
L 255.056025 294.582463 
L 255.353601 295.431128 
L 255.651176 295.249271 
L 255.948751 279.380423 
L 256.246326 291.288809 
L 256.543901 290.010075 
L 256.841477 287.494323 
L 257.139052 293.447774 
L 257.734202 295.467414 
L 258.031777 280.745791 
L 258.329353 289.077527 
L 258.626928 268.014545 
L 258.924503 277.1444 
L 259.222078 278.633077 
L 259.519653 274.442772 
L 259.817229 295.248125 
L 260.114804 267.909063 
L 260.412379 281.686773 
L 260.709954 273.553591 
L 261.007529 282.872427 
L 261.305105 286.317153 
L 261.60268 295.295237 
L 262.19783 281.98823 
L 262.495405 278.366691 
L 262.792981 278.38764 
L 263.090556 286.317817 
L 263.388131 279.129738 
L 263.685706 286.641388 
L 264.280857 272.327151 
L 264.578432 284.822949 
L 264.876007 278.438161 
L 265.173582 287.434808 
L 265.471157 283.897845 
L 265.768733 294.502928 
L 266.066308 295.009698 
L 266.363883 289.396314 
L 266.661458 280.423977 
L 267.256609 287.581195 
L 267.554184 262.140353 
L 267.851759 294.454148 
L 268.149334 287.413298 
L 268.446909 283.544092 
L 268.744485 293.513989 
L 269.04206 286.626354 
L 269.339635 291.963363 
L 269.63721 292.176365 
L 269.934785 295.153954 
L 270.232361 295.366638 
L 270.529936 286.510627 
L 270.827511 288.193052 
L 271.125086 270.491759 
L 271.422661 264.752598 
L 271.720237 291.655163 
L 272.017812 284.884721 
L 272.315387 295.291142 
L 272.612962 272.282212 
L 272.910537 270.975829 
L 273.208113 289.066439 
L 273.505688 289.670898 
L 273.803263 283.639277 
L 274.398413 294.367806 
L 274.695989 286.888033 
L 274.993564 268.465962 
L 275.588714 292.738425 
L 275.886289 265.101762 
L 276.183865 294.919551 
L 276.48144 291.54995 
L 276.779015 272.528713 
L 277.07659 280.941512 
L 277.374165 263.005034 
L 277.671741 279.248945 
L 277.969316 289.090491 
L 278.266891 294.921338 
L 278.564466 294.832608 
L 278.862041 282.60747 
L 279.159617 283.783355 
L 279.457192 292.575401 
L 280.052342 288.88065 
L 280.349918 294.698416 
L 280.647493 293.64064 
L 280.945068 281.424167 
L 281.242643 274.724714 
L 281.540218 272.690259 
L 281.837794 275.775443 
L 282.135369 288.966081 
L 282.432944 295.113813 
L 282.730519 295.340573 
L 283.028094 192.5508 
L 283.32567 253.278203 
L 283.623245 198.624209 
L 283.92082 282.556873 
L 284.218395 280.163695 
L 284.51597 291.810998 
L 284.813546 292.769001 
L 285.111121 287.630245 
L 285.408696 262.191307 
L 285.706271 294.347523 
L 286.003846 292.085893 
L 286.301422 288.399626 
L 286.598997 291.215615 
L 286.896572 295.439599 
L 287.194147 279.532455 
L 287.789298 294.737981 
L 288.086873 293.349463 
L 288.384448 288.483041 
L 288.682023 293.865198 
L 288.979598 294.737981 
L 289.277174 292.068679 
L 289.574749 293.1001 
L 289.872324 250.045728 
L 290.169899 277.749663 
L 291.062625 295.424812 
L 294.633527 295.241008 
L 299.692306 295.422796 
L 299.989881 295.215307 
L 307.131686 295.214602 
L 312.190464 295.462324 
L 323.795897 295.464096 
L 329.152251 295.341514 
L 329.747401 295.478287 
L 332.723153 295.216776 
L 344.031011 239.22283 
L 344.328586 290.767597 
L 344.626161 285.171884 
L 344.923736 293.653963 
L 345.221312 295.4352 
L 345.518887 239.930912 
L 345.816462 147.229472 
L 346.114037 291.710268 
L 346.411612 256.923939 
L 346.709188 241.259162 
L 347.006763 293.372183 
L 347.304338 291.337401 
L 347.601913 211.78581 
L 347.899488 268.745925 
L 348.197064 254.436243 
L 348.494639 256.224781 
L 348.792214 230.887491 
L 349.089789 291.595162 
L 349.387364 288.870376 
L 349.68494 247.231524 
L 349.982515 157.539357 
L 350.28009 212.877205 
L 350.577665 231.651084 
L 350.87524 280.746986 
L 351.470391 294.348852 
L 351.767966 198.227471 
L 352.065541 271.351238 
L 352.363116 218.92484 
L 352.660692 284.287093 
L 352.958267 262.006231 
L 353.255842 295.292767 
L 353.553417 288.385313 
L 353.850992 138.151984 
L 354.148568 281.216924 
L 354.446143 242.969156 
L 354.743718 236.892384 
L 355.338868 291.614106 
L 355.636444 289.689648 
L 355.934019 204.600391 
L 356.529169 279.625377 
L 356.826744 239.166434 
L 357.12432 253.86242 
L 357.421895 282.572301 
L 357.71947 293.634049 
L 358.017045 251.742558 
L 358.31462 254.726268 
L 358.612196 234.942543 
L 358.909771 252.817989 
L 359.207346 284.265675 
L 359.504921 273.403087 
L 359.802496 293.045218 
L 360.100072 258.834372 
L 360.397647 286.299527 
L 360.695222 276.5017 
L 361.290372 245.812756 
L 361.587948 295.042164 
L 361.885523 283.409187 
L 362.183098 295.463433 
L 362.778248 242.0271 
L 363.075824 273.485691 
L 363.373399 257.264392 
L 363.670974 295.03666 
L 363.968549 295.321089 
L 364.266124 241.768523 
L 364.5637 267.388108 
L 364.861275 265.284568 
L 365.15885 231.894819 
L 365.456425 255.276357 
L 365.754 294.542217 
L 366.051576 294.905273 
L 366.349151 109.35968 
L 366.646726 82.624481 
L 366.944301 214.950889 
L 367.241877 177.842663 
L 367.539452 171.344794 
L 367.837027 291.650873 
L 368.134602 289.916285 
L 368.432177 240.051783 
L 368.729753 227.563916 
L 369.027328 241.084354 
L 369.324903 210.024285 
L 369.622478 230.303889 
L 369.920053 292.430752 
L 370.217629 295.420891 
L 370.515204 222.284832 
L 370.812779 53.568 
L 371.110354 253.898711 
L 371.407929 251.229642 
L 371.705505 263.030326 
L 372.00308 282.538529 
L 372.300655 285.744771 
L 372.59823 232.039066 
L 372.895805 141.014748 
L 373.193381 246.877511 
L 374.086106 293.817095 
L 374.383681 293.691496 
L 374.681257 204.843345 
L 374.978832 222.979404 
L 375.276407 219.108886 
L 375.573982 256.89115 
L 375.871557 262.165278 
L 376.169133 288.206816 
L 376.466708 291.0538 
L 376.764283 228.8134 
L 377.061858 233.011525 
L 377.359433 268.504919 
L 377.657009 263.814834 
L 377.954584 263.427452 
L 378.252159 292.185117 
L 378.549734 294.174821 
L 379.144885 247.891562 
L 379.44246 255.627503 
L 379.740035 225.28814 
L 380.03761 246.705334 
L 380.335185 282.990229 
L 380.632761 294.925476 
L 380.930336 216.826302 
L 381.227911 257.011411 
L 381.525486 244.970858 
L 381.823061 205.247597 
L 382.120637 230.260299 
L 382.418212 292.416864 
L 382.715787 281.552277 
L 383.013362 259.027647 
L 383.310937 191.400674 
L 383.608513 273.324204 
L 383.906088 190.576283 
L 384.203663 215.3767 
L 384.501238 290.842477 
L 384.798813 281.942445 
L 385.096389 257.670376 
L 385.691539 176.054638 
L 385.989114 280.59501 
L 386.286689 272.59335 
L 386.584265 289.837822 
L 386.88184 278.797789 
L 387.47699 223.402186 
L 388.072141 294.162896 
L 388.369716 241.535832 
L 388.667291 280.891911 
L 388.964866 282.433509 
L 389.262441 220.098396 
L 389.560017 257.033029 
L 390.155167 215.377174 
L 390.452742 240.963514 
L 390.750317 285.414265 
L 391.047893 294.601248 
L 391.345468 137.43204 
L 391.643043 104.178718 
L 391.940618 203.617777 
L 392.238193 248.005652 
L 392.535769 237.670332 
L 392.833344 290.729108 
L 393.130919 294.286204 
L 393.428494 204.161528 
L 393.726069 285.391207 
L 394.023645 241.833617 
L 394.32122 243.613662 
L 394.618795 243.610227 
L 394.91637 290.777941 
L 395.213946 295.417631 
L 395.511521 212.351211 
L 395.809096 270.34727 
L 396.106671 295.40435 
L 396.404246 276.786869 
L 396.701822 268.739421 
L 396.999397 292.243768 
L 397.296972 291.141776 
L 397.594547 280.424316 
L 397.892122 249.917484 
L 398.189698 204.677242 
L 398.487273 284.074841 
L 398.487273 284.074841 
" style="fill:none;stroke:#0000ff;stroke-linecap:square;stroke-width:1.5;"/>
   </g>
   <g id="patch_3">
    <path d="M 57.6 307.584 
L 57.6 41.472 
" style="fill:none;stroke:#000000;stroke-linecap:square;stroke-linejoin:miter;stroke-width:0.8;"/>
   </g>
   <g id="patch_4">
    <path d="M 414.72 307.584 
L 414.72 41.472 
" style="fill:none;stroke:#000000;stroke-linecap:square;stroke-linejoin:miter;stroke-width:0.8;"/>
   </g>
   <g id="patch_5">
    <path d="M 57.6 307.584 
L 414.72 307.584 
" style="fill:none;stroke:#000000;stroke-linecap:square;stroke-linejoin:miter;stroke-width:0.8;"/>
   </g>
   <g id="patch_6">
    <path d="M 57.6 41.472 
L 414.72 41.472 
" style="fill:none;stroke:#000000;stroke-linecap:square;stroke-linejoin:miter;stroke-width:0.8;"/>
   </g>
   <g id="text_20">
    <!-- PLN and USD total sales values during years 2013-2015 -->
    <defs>
     <path d="M 19.671875 64.796875 
L 19.671875 37.40625 
L 32.078125 37.40625 
Q 38.96875 37.40625 42.71875 40.96875 
Q 46.484375 44.53125 46.484375 51.125 
Q 46.484375 57.671875 42.71875 61.234375 
Q 38.96875 64.796875 32.078125 64.796875 
z
M 9.8125 72.90625 
L 32.078125 72.90625 
Q 44.34375 72.90625 50.609375 67.359375 
Q 56.890625 61.8125 56.890625 51.125 
Q 56.890625 40.328125 50.609375 34.8125 
Q 44.34375 29.296875 32.078125 29.296875 
L 19.671875 29.296875 
L 19.671875 0 
L 9.8125 0 
z
" id="DejaVuSans-80"/>
     <path d="M 9.8125 72.90625 
L 19.671875 72.90625 
L 19.671875 8.296875 
L 55.171875 8.296875 
L 55.171875 0 
L 9.8125 0 
z
" id="DejaVuSans-76"/>
     <path d="M 9.8125 72.90625 
L 23.09375 72.90625 
L 55.421875 11.921875 
L 55.421875 72.90625 
L 64.984375 72.90625 
L 64.984375 0 
L 51.703125 0 
L 19.390625 60.984375 
L 19.390625 0 
L 9.8125 0 
z
" id="DejaVuSans-78"/>
     <path d="M 54.890625 33.015625 
L 54.890625 0 
L 45.90625 0 
L 45.90625 32.71875 
Q 45.90625 40.484375 42.875 44.328125 
Q 39.84375 48.1875 33.796875 48.1875 
Q 26.515625 48.1875 22.3125 43.546875 
Q 18.109375 38.921875 18.109375 30.90625 
L 18.109375 0 
L 9.078125 0 
L 9.078125 54.6875 
L 18.109375 54.6875 
L 18.109375 46.1875 
Q 21.34375 51.125 25.703125 53.5625 
Q 30.078125 56 35.796875 56 
Q 45.21875 56 50.046875 50.171875 
Q 54.890625 44.34375 54.890625 33.015625 
z
" id="DejaVuSans-110"/>
     <path d="M 45.40625 46.390625 
L 45.40625 75.984375 
L 54.390625 75.984375 
L 54.390625 0 
L 45.40625 0 
L 45.40625 8.203125 
Q 42.578125 3.328125 38.25 0.953125 
Q 33.9375 -1.421875 27.875 -1.421875 
Q 17.96875 -1.421875 11.734375 6.484375 
Q 5.515625 14.40625 5.515625 27.296875 
Q 5.515625 40.1875 11.734375 48.09375 
Q 17.96875 56 27.875 56 
Q 33.9375 56 38.25 53.625 
Q 42.578125 51.265625 45.40625 46.390625 
z
M 14.796875 27.296875 
Q 14.796875 17.390625 18.875 11.75 
Q 22.953125 6.109375 30.078125 6.109375 
Q 37.203125 6.109375 41.296875 11.75 
Q 45.40625 17.390625 45.40625 27.296875 
Q 45.40625 37.203125 41.296875 42.84375 
Q 37.203125 48.484375 30.078125 48.484375 
Q 22.953125 48.484375 18.875 42.84375 
Q 14.796875 37.203125 14.796875 27.296875 
z
" id="DejaVuSans-100"/>
     <path d="M 8.6875 72.90625 
L 18.609375 72.90625 
L 18.609375 28.609375 
Q 18.609375 16.890625 22.84375 11.734375 
Q 27.09375 6.59375 36.625 6.59375 
Q 46.09375 6.59375 50.34375 11.734375 
Q 54.59375 16.890625 54.59375 28.609375 
L 54.59375 72.90625 
L 64.5 72.90625 
L 64.5 27.390625 
Q 64.5 13.140625 57.4375 5.859375 
Q 50.390625 -1.421875 36.625 -1.421875 
Q 22.796875 -1.421875 15.734375 5.859375 
Q 8.6875 13.140625 8.6875 27.390625 
z
" id="DejaVuSans-85"/>
     <path d="M 30.609375 48.390625 
Q 23.390625 48.390625 19.1875 42.75 
Q 14.984375 37.109375 14.984375 27.296875 
Q 14.984375 17.484375 19.15625 11.84375 
Q 23.34375 6.203125 30.609375 6.203125 
Q 37.796875 6.203125 41.984375 11.859375 
Q 46.1875 17.53125 46.1875 27.296875 
Q 46.1875 37.015625 41.984375 42.703125 
Q 37.796875 48.390625 30.609375 48.390625 
z
M 30.609375 56 
Q 42.328125 56 49.015625 48.375 
Q 55.71875 40.765625 55.71875 27.296875 
Q 55.71875 13.875 49.015625 6.21875 
Q 42.328125 -1.421875 30.609375 -1.421875 
Q 18.84375 -1.421875 12.171875 6.21875 
Q 5.515625 13.875 5.515625 27.296875 
Q 5.515625 40.765625 12.171875 48.375 
Q 18.84375 56 30.609375 56 
z
" id="DejaVuSans-111"/>
     <path d="M 2.984375 54.6875 
L 12.5 54.6875 
L 29.59375 8.796875 
L 46.6875 54.6875 
L 56.203125 54.6875 
L 35.6875 0 
L 23.484375 0 
z
" id="DejaVuSans-118"/>
     <path d="M 41.109375 46.296875 
Q 39.59375 47.171875 37.8125 47.578125 
Q 36.03125 48 33.890625 48 
Q 26.265625 48 22.1875 43.046875 
Q 18.109375 38.09375 18.109375 28.8125 
L 18.109375 0 
L 9.078125 0 
L 9.078125 54.6875 
L 18.109375 54.6875 
L 18.109375 46.1875 
Q 20.953125 51.171875 25.484375 53.578125 
Q 30.03125 56 36.53125 56 
Q 37.453125 56 38.578125 55.875 
Q 39.703125 55.765625 41.0625 55.515625 
z
" id="DejaVuSans-114"/>
     <path d="M 9.421875 54.6875 
L 18.40625 54.6875 
L 18.40625 0 
L 9.421875 0 
z
M 9.421875 75.984375 
L 18.40625 75.984375 
L 18.40625 64.59375 
L 9.421875 64.59375 
z
" id="DejaVuSans-105"/>
     <path d="M 45.40625 27.984375 
Q 45.40625 37.75 41.375 43.109375 
Q 37.359375 48.484375 30.078125 48.484375 
Q 22.859375 48.484375 18.828125 43.109375 
Q 14.796875 37.75 14.796875 27.984375 
Q 14.796875 18.265625 18.828125 12.890625 
Q 22.859375 7.515625 30.078125 7.515625 
Q 37.359375 7.515625 41.375 12.890625 
Q 45.40625 18.265625 45.40625 27.984375 
z
M 54.390625 6.78125 
Q 54.390625 -7.171875 48.1875 -13.984375 
Q 42 -20.796875 29.203125 -20.796875 
Q 24.46875 -20.796875 20.265625 -20.09375 
Q 16.0625 -19.390625 12.109375 -17.921875 
L 12.109375 -9.1875 
Q 16.0625 -11.328125 19.921875 -12.34375 
Q 23.78125 -13.375 27.78125 -13.375 
Q 36.625 -13.375 41.015625 -8.765625 
Q 45.40625 -4.15625 45.40625 5.171875 
L 45.40625 9.625 
Q 42.625 4.78125 38.28125 2.390625 
Q 33.9375 0 27.875 0 
Q 17.828125 0 11.671875 7.65625 
Q 5.515625 15.328125 5.515625 27.984375 
Q 5.515625 40.671875 11.671875 48.328125 
Q 17.828125 56 27.875 56 
Q 33.9375 56 38.28125 53.609375 
Q 42.625 51.21875 45.40625 46.390625 
L 45.40625 54.6875 
L 54.390625 54.6875 
z
" id="DejaVuSans-103"/>
     <path d="M 32.171875 -5.078125 
Q 28.375 -14.84375 24.75 -17.8125 
Q 21.140625 -20.796875 15.09375 -20.796875 
L 7.90625 -20.796875 
L 7.90625 -13.28125 
L 13.1875 -13.28125 
Q 16.890625 -13.28125 18.9375 -11.515625 
Q 21 -9.765625 23.484375 -3.21875 
L 25.09375 0.875 
L 2.984375 54.6875 
L 12.5 54.6875 
L 29.59375 11.921875 
L 46.6875 54.6875 
L 56.203125 54.6875 
z
" id="DejaVuSans-121"/>
    </defs>
    <g transform="translate(68.251875 35.472)scale(0.12 -0.12)">
     <use xlink:href="#DejaVuSans-80"/>
     <use x="60.302734" xlink:href="#DejaVuSans-76"/>
     <use x="116.015625" xlink:href="#DejaVuSans-78"/>
     <use x="190.820312" xlink:href="#DejaVuSans-32"/>
     <use x="222.607422" xlink:href="#DejaVuSans-97"/>
     <use x="283.886719" xlink:href="#DejaVuSans-110"/>
     <use x="347.265625" xlink:href="#DejaVuSans-100"/>
     <use x="410.742188" xlink:href="#DejaVuSans-32"/>
     <use x="442.529297" xlink:href="#DejaVuSans-85"/>
     <use x="515.722656" xlink:href="#DejaVuSans-83"/>
     <use x="579.199219" xlink:href="#DejaVuSans-68"/>
     <use x="656.201172" xlink:href="#DejaVuSans-32"/>
     <use x="687.988281" xlink:href="#DejaVuSans-116"/>
     <use x="727.197266" xlink:href="#DejaVuSans-111"/>
     <use x="788.378906" xlink:href="#DejaVuSans-116"/>
     <use x="827.587891" xlink:href="#DejaVuSans-97"/>
     <use x="888.867188" xlink:href="#DejaVuSans-108"/>
     <use x="916.650391" xlink:href="#DejaVuSans-32"/>
     <use x="948.4375" xlink:href="#DejaVuSans-115"/>
     <use x="1000.537109" xlink:href="#DejaVuSans-97"/>
     <use x="1061.816406" xlink:href="#DejaVuSans-108"/>
     <use x="1089.599609" xlink:href="#DejaVuSans-101"/>
     <use x="1151.123047" xlink:href="#DejaVuSans-115"/>
     <use x="1203.222656" xlink:href="#DejaVuSans-32"/>
     <use x="1235.009766" xlink:href="#DejaVuSans-118"/>
     <use x="1294.189453" xlink:href="#DejaVuSans-97"/>
     <use x="1355.46875" xlink:href="#DejaVuSans-108"/>
     <use x="1383.251953" xlink:href="#DejaVuSans-117"/>
     <use x="1446.630859" xlink:href="#DejaVuSans-101"/>
     <use x="1508.154297" xlink:href="#DejaVuSans-115"/>
     <use x="1560.253906" xlink:href="#DejaVuSans-32"/>
     <use x="1592.041016" xlink:href="#DejaVuSans-100"/>
     <use x="1655.517578" xlink:href="#DejaVuSans-117"/>
     <use x="1718.896484" xlink:href="#DejaVuSans-114"/>
     <use x="1760.009766" xlink:href="#DejaVuSans-105"/>
     <use x="1787.792969" xlink:href="#DejaVuSans-110"/>
     <use x="1851.171875" xlink:href="#DejaVuSans-103"/>
     <use x="1914.648438" xlink:href="#DejaVuSans-32"/>
     <use x="1946.435547" xlink:href="#DejaVuSans-121"/>
     <use x="2005.615234" xlink:href="#DejaVuSans-101"/>
     <use x="2067.138672" xlink:href="#DejaVuSans-97"/>
     <use x="2128.417969" xlink:href="#DejaVuSans-114"/>
     <use x="2169.53125" xlink:href="#DejaVuSans-115"/>
     <use x="2221.630859" xlink:href="#DejaVuSans-32"/>
     <use x="2253.417969" xlink:href="#DejaVuSans-50"/>
     <use x="2317.041016" xlink:href="#DejaVuSans-48"/>
     <use x="2380.664062" xlink:href="#DejaVuSans-49"/>
     <use x="2444.287109" xlink:href="#DejaVuSans-51"/>
     <use x="2507.910156" xlink:href="#DejaVuSans-45"/>
     <use x="2543.994141" xlink:href="#DejaVuSans-50"/>
     <use x="2607.617188" xlink:href="#DejaVuSans-48"/>
     <use x="2671.240234" xlink:href="#DejaVuSans-49"/>
     <use x="2734.863281" xlink:href="#DejaVuSans-53"/>
    </g>
   </g>
   <g id="legend_1">
    <g id="patch_7">
     <path d="M 64.6 78.82825 
L 152.575 78.82825 
Q 154.575 78.82825 154.575 76.82825 
L 154.575 48.472 
Q 154.575 46.472 152.575 46.472 
L 64.6 46.472 
Q 62.6 46.472 62.6 48.472 
L 62.6 76.82825 
Q 62.6 78.82825 64.6 78.82825 
z
" style="fill:#ffffff;opacity:0.8;stroke:#cccccc;stroke-linejoin:miter;"/>
    </g>
    <g id="line2d_20">
     <path d="M 66.6 54.570437 
L 86.6 54.570437 
" style="fill:none;stroke:#ff0000;stroke-linecap:square;stroke-width:1.5;"/>
    </g>
    <g id="line2d_21"/>
    <g id="text_21">
     <!-- USD SALES -->
     <defs>
      <path d="M 34.1875 63.1875 
L 20.796875 26.90625 
L 47.609375 26.90625 
z
M 28.609375 72.90625 
L 39.796875 72.90625 
L 67.578125 0 
L 57.328125 0 
L 50.6875 18.703125 
L 17.828125 18.703125 
L 11.1875 0 
L 0.78125 0 
z
" id="DejaVuSans-65"/>
      <path d="M 9.8125 72.90625 
L 55.90625 72.90625 
L 55.90625 64.59375 
L 19.671875 64.59375 
L 19.671875 43.015625 
L 54.390625 43.015625 
L 54.390625 34.71875 
L 19.671875 34.71875 
L 19.671875 8.296875 
L 56.78125 8.296875 
L 56.78125 0 
L 9.8125 0 
z
" id="DejaVuSans-69"/>
     </defs>
     <g transform="translate(94.6 58.070437)scale(0.1 -0.1)">
      <use xlink:href="#DejaVuSans-85"/>
      <use x="73.193359" xlink:href="#DejaVuSans-83"/>
      <use x="136.669922" xlink:href="#DejaVuSans-68"/>
      <use x="213.671875" xlink:href="#DejaVuSans-32"/>
      <use x="245.458984" xlink:href="#DejaVuSans-83"/>
      <use x="308.951172" xlink:href="#DejaVuSans-65"/>
      <use x="377.359375" xlink:href="#DejaVuSans-76"/>
      <use x="433.072266" xlink:href="#DejaVuSans-69"/>
      <use x="496.255859" xlink:href="#DejaVuSans-83"/>
     </g>
    </g>
    <g id="line2d_22">
     <path d="M 66.6 69.248562 
L 86.6 69.248562 
" style="fill:none;stroke:#0000ff;stroke-linecap:square;stroke-width:1.5;"/>
    </g>
    <g id="line2d_23"/>
    <g id="text_22">
     <!-- PLN SALES -->
     <g transform="translate(94.6 72.748562)scale(0.1 -0.1)">
      <use xlink:href="#DejaVuSans-80"/>
      <use x="60.302734" xlink:href="#DejaVuSans-76"/>
      <use x="116.015625" xlink:href="#DejaVuSans-78"/>
      <use x="190.820312" xlink:href="#DejaVuSans-32"/>
      <use x="222.607422" xlink:href="#DejaVuSans-83"/>
      <use x="286.099609" xlink:href="#DejaVuSans-65"/>
      <use x="354.507812" xlink:href="#DejaVuSans-76"/>
      <use x="410.220703" xlink:href="#DejaVuSans-69"/>
      <use x="473.404297" xlink:href="#DejaVuSans-83"/>
     </g>
    </g>
   </g>
  </g>
 </g>
 <defs>
  <clipPath id="p5ae75467ce">
   <rect height="266.112" width="357.12" x="57.6" y="41.472"/>
  </clipPath>
 </defs>
</svg>
