<?xml version="1.0" encoding="utf-8" standalone="no"?>
<!DOCTYPE svg PUBLIC "-//W3C//DTD SVG 1.1//EN"
  "http://www.w3.org/Graphics/SVG/1.1/DTD/svg11.dtd">
<!-- Created with matplotlib (https://matplotlib.org/) -->
<svg height="345.6pt" version="1.1" viewBox="0 0 460.8 345.6" width="460.8pt" xmlns="http://www.w3.org/2000/svg" xmlns:xlink="http://www.w3.org/1999/xlink">
 <defs>
  <style type="text/css">
*{stroke-linecap:butt;stroke-linejoin:round;}
  </style>
 </defs>
 <g id="figure_1">
  <g id="patch_1">
   <path d="M 0 345.6 
L 460.8 345.6 
L 460.8 0 
L 0 0 
z
" style="fill:#ffffff;"/>
  </g>
  <g id="axes_1">
   <g id="patch_2">
    <path d="M 57.6 307.584 
L 414.72 307.584 
L 414.72 41.472 
L 57.6 41.472 
z
" style="fill:#ffffff;"/>
   </g>
   <g id="matplotlib.axis_1">
    <g id="xtick_1">
     <g id="line2d_1">
      <defs>
       <path d="M 0 0 
L 0 3.5 
" id="m0c2eae03b6" style="stroke:#000000;stroke-width:0.8;"/>
      </defs>
      <g>
       <use style="stroke:#000000;stroke-width:0.8;" x="73.163336" xlink:href="#m0c2eae03b6" y="307.584"/>
      </g>
     </g>
     <g id="text_1">
      <!-- 2013-01 -->
      <defs>
       <path d="M 19.1875 8.296875 
L 53.609375 8.296875 
L 53.609375 0 
L 7.328125 0 
L 7.328125 8.296875 
Q 12.9375 14.109375 22.625 23.890625 
Q 32.328125 33.6875 34.8125 36.53125 
Q 39.546875 41.84375 41.421875 45.53125 
Q 43.3125 49.21875 43.3125 52.78125 
Q 43.3125 58.59375 39.234375 62.25 
Q 35.15625 65.921875 28.609375 65.921875 
Q 23.96875 65.921875 18.8125 64.3125 
Q 13.671875 62.703125 7.8125 59.421875 
L 7.8125 69.390625 
Q 13.765625 71.78125 18.9375 73 
Q 24.125 74.21875 28.421875 74.21875 
Q 39.75 74.21875 46.484375 68.546875 
Q 53.21875 62.890625 53.21875 53.421875 
Q 53.21875 48.921875 51.53125 44.890625 
Q 49.859375 40.875 45.40625 35.40625 
Q 44.1875 33.984375 37.640625 27.21875 
Q 31.109375 20.453125 19.1875 8.296875 
z
" id="DejaVuSans-50"/>
       <path d="M 31.78125 66.40625 
Q 24.171875 66.40625 20.328125 58.90625 
Q 16.5 51.421875 16.5 36.375 
Q 16.5 21.390625 20.328125 13.890625 
Q 24.171875 6.390625 31.78125 6.390625 
Q 39.453125 6.390625 43.28125 13.890625 
Q 47.125 21.390625 47.125 36.375 
Q 47.125 51.421875 43.28125 58.90625 
Q 39.453125 66.40625 31.78125 66.40625 
z
M 31.78125 74.21875 
Q 44.046875 74.21875 50.515625 64.515625 
Q 56.984375 54.828125 56.984375 36.375 
Q 56.984375 17.96875 50.515625 8.265625 
Q 44.046875 -1.421875 31.78125 -1.421875 
Q 19.53125 -1.421875 13.0625 8.265625 
Q 6.59375 17.96875 6.59375 36.375 
Q 6.59375 54.828125 13.0625 64.515625 
Q 19.53125 74.21875 31.78125 74.21875 
z
" id="DejaVuSans-48"/>
       <path d="M 12.40625 8.296875 
L 28.515625 8.296875 
L 28.515625 63.921875 
L 10.984375 60.40625 
L 10.984375 69.390625 
L 28.421875 72.90625 
L 38.28125 72.90625 
L 38.28125 8.296875 
L 54.390625 8.296875 
L 54.390625 0 
L 12.40625 0 
z
" id="DejaVuSans-49"/>
       <path d="M 40.578125 39.3125 
Q 47.65625 37.796875 51.625 33 
Q 55.609375 28.21875 55.609375 21.1875 
Q 55.609375 10.40625 48.1875 4.484375 
Q 40.765625 -1.421875 27.09375 -1.421875 
Q 22.515625 -1.421875 17.65625 -0.515625 
Q 12.796875 0.390625 7.625 2.203125 
L 7.625 11.71875 
Q 11.71875 9.328125 16.59375 8.109375 
Q 21.484375 6.890625 26.8125 6.890625 
Q 36.078125 6.890625 40.9375 10.546875 
Q 45.796875 14.203125 45.796875 21.1875 
Q 45.796875 27.640625 41.28125 31.265625 
Q 36.765625 34.90625 28.71875 34.90625 
L 20.21875 34.90625 
L 20.21875 43.015625 
L 29.109375 43.015625 
Q 36.375 43.015625 40.234375 45.921875 
Q 44.09375 48.828125 44.09375 54.296875 
Q 44.09375 59.90625 40.109375 62.90625 
Q 36.140625 65.921875 28.71875 65.921875 
Q 24.65625 65.921875 20.015625 65.03125 
Q 15.375 64.15625 9.8125 62.3125 
L 9.8125 71.09375 
Q 15.4375 72.65625 20.34375 73.4375 
Q 25.25 74.21875 29.59375 74.21875 
Q 40.828125 74.21875 47.359375 69.109375 
Q 53.90625 64.015625 53.90625 55.328125 
Q 53.90625 49.265625 50.4375 45.09375 
Q 46.96875 40.921875 40.578125 39.3125 
z
" id="DejaVuSans-51"/>
       <path d="M 4.890625 31.390625 
L 31.203125 31.390625 
L 31.203125 23.390625 
L 4.890625 23.390625 
z
" id="DejaVuSans-45"/>
      </defs>
      <g transform="translate(52.27193 322.182437)scale(0.1 -0.1)">
       <use xlink:href="#DejaVuSans-50"/>
       <use x="63.623047" xlink:href="#DejaVuSans-48"/>
       <use x="127.246094" xlink:href="#DejaVuSans-49"/>
       <use x="190.869141" xlink:href="#DejaVuSans-51"/>
       <use x="254.492188" xlink:href="#DejaVuSans-45"/>
       <use x="290.576172" xlink:href="#DejaVuSans-48"/>
       <use x="354.199219" xlink:href="#DejaVuSans-49"/>
      </g>
     </g>
    </g>
    <g id="xtick_2">
     <g id="line2d_2">
      <g>
       <use style="stroke:#000000;stroke-width:0.8;" x="113.549916" xlink:href="#m0c2eae03b6" y="307.584"/>
      </g>
     </g>
     <g id="text_2">
      <!-- 2013-07 -->
      <defs>
       <path d="M 8.203125 72.90625 
L 55.078125 72.90625 
L 55.078125 68.703125 
L 28.609375 0 
L 18.3125 0 
L 43.21875 64.59375 
L 8.203125 64.59375 
z
" id="DejaVuSans-55"/>
      </defs>
      <g transform="translate(92.658509 322.182437)scale(0.1 -0.1)">
       <use xlink:href="#DejaVuSans-50"/>
       <use x="63.623047" xlink:href="#DejaVuSans-48"/>
       <use x="127.246094" xlink:href="#DejaVuSans-49"/>
       <use x="190.869141" xlink:href="#DejaVuSans-51"/>
       <use x="254.492188" xlink:href="#DejaVuSans-45"/>
       <use x="290.576172" xlink:href="#DejaVuSans-48"/>
       <use x="354.199219" xlink:href="#DejaVuSans-55"/>
      </g>
     </g>
    </g>
    <g id="xtick_3">
     <g id="line2d_3">
      <g>
       <use style="stroke:#000000;stroke-width:0.8;" x="154.605886" xlink:href="#m0c2eae03b6" y="307.584"/>
      </g>
     </g>
     <g id="text_3">
      <!-- 2014-01 -->
      <defs>
       <path d="M 37.796875 64.3125 
L 12.890625 25.390625 
L 37.796875 25.390625 
z
M 35.203125 72.90625 
L 47.609375 72.90625 
L 47.609375 25.390625 
L 58.015625 25.390625 
L 58.015625 17.1875 
L 47.609375 17.1875 
L 47.609375 0 
L 37.796875 0 
L 37.796875 17.1875 
L 4.890625 17.1875 
L 4.890625 26.703125 
z
" id="DejaVuSans-52"/>
      </defs>
      <g transform="translate(133.714479 322.182437)scale(0.1 -0.1)">
       <use xlink:href="#DejaVuSans-50"/>
       <use x="63.623047" xlink:href="#DejaVuSans-48"/>
       <use x="127.246094" xlink:href="#DejaVuSans-49"/>
       <use x="190.869141" xlink:href="#DejaVuSans-52"/>
       <use x="254.492188" xlink:href="#DejaVuSans-45"/>
       <use x="290.576172" xlink:href="#DejaVuSans-48"/>
       <use x="354.199219" xlink:href="#DejaVuSans-49"/>
      </g>
     </g>
    </g>
    <g id="xtick_4">
     <g id="line2d_4">
      <g>
       <use style="stroke:#000000;stroke-width:0.8;" x="194.992465" xlink:href="#m0c2eae03b6" y="307.584"/>
      </g>
     </g>
     <g id="text_4">
      <!-- 2014-07 -->
      <g transform="translate(174.101059 322.182437)scale(0.1 -0.1)">
       <use xlink:href="#DejaVuSans-50"/>
       <use x="63.623047" xlink:href="#DejaVuSans-48"/>
       <use x="127.246094" xlink:href="#DejaVuSans-49"/>
       <use x="190.869141" xlink:href="#DejaVuSans-52"/>
       <use x="254.492188" xlink:href="#DejaVuSans-45"/>
       <use x="290.576172" xlink:href="#DejaVuSans-48"/>
       <use x="354.199219" xlink:href="#DejaVuSans-55"/>
      </g>
     </g>
    </g>
    <g id="xtick_5">
     <g id="line2d_5">
      <g>
       <use style="stroke:#000000;stroke-width:0.8;" x="236.048435" xlink:href="#m0c2eae03b6" y="307.584"/>
      </g>
     </g>
     <g id="text_5">
      <!-- 2015-01 -->
      <defs>
       <path d="M 10.796875 72.90625 
L 49.515625 72.90625 
L 49.515625 64.59375 
L 19.828125 64.59375 
L 19.828125 46.734375 
Q 21.96875 47.46875 24.109375 47.828125 
Q 26.265625 48.1875 28.421875 48.1875 
Q 40.625 48.1875 47.75 41.5 
Q 54.890625 34.8125 54.890625 23.390625 
Q 54.890625 11.625 47.5625 5.09375 
Q 40.234375 -1.421875 26.90625 -1.421875 
Q 22.3125 -1.421875 17.546875 -0.640625 
Q 12.796875 0.140625 7.71875 1.703125 
L 7.71875 11.625 
Q 12.109375 9.234375 16.796875 8.0625 
Q 21.484375 6.890625 26.703125 6.890625 
Q 35.15625 6.890625 40.078125 11.328125 
Q 45.015625 15.765625 45.015625 23.390625 
Q 45.015625 31 40.078125 35.4375 
Q 35.15625 39.890625 26.703125 39.890625 
Q 22.75 39.890625 18.8125 39.015625 
Q 14.890625 38.140625 10.796875 36.28125 
z
" id="DejaVuSans-53"/>
      </defs>
      <g transform="translate(215.157029 322.182437)scale(0.1 -0.1)">
       <use xlink:href="#DejaVuSans-50"/>
       <use x="63.623047" xlink:href="#DejaVuSans-48"/>
       <use x="127.246094" xlink:href="#DejaVuSans-49"/>
       <use x="190.869141" xlink:href="#DejaVuSans-53"/>
       <use x="254.492188" xlink:href="#DejaVuSans-45"/>
       <use x="290.576172" xlink:href="#DejaVuSans-48"/>
       <use x="354.199219" xlink:href="#DejaVuSans-49"/>
      </g>
     </g>
    </g>
    <g id="xtick_6">
     <g id="line2d_6">
      <g>
       <use style="stroke:#000000;stroke-width:0.8;" x="276.435014" xlink:href="#m0c2eae03b6" y="307.584"/>
      </g>
     </g>
     <g id="text_6">
      <!-- 2015-07 -->
      <g transform="translate(255.543608 322.182437)scale(0.1 -0.1)">
       <use xlink:href="#DejaVuSans-50"/>
       <use x="63.623047" xlink:href="#DejaVuSans-48"/>
       <use x="127.246094" xlink:href="#DejaVuSans-49"/>
       <use x="190.869141" xlink:href="#DejaVuSans-53"/>
       <use x="254.492188" xlink:href="#DejaVuSans-45"/>
       <use x="290.576172" xlink:href="#DejaVuSans-48"/>
       <use x="354.199219" xlink:href="#DejaVuSans-55"/>
      </g>
     </g>
    </g>
    <g id="xtick_7">
     <g id="line2d_7">
      <g>
       <use style="stroke:#000000;stroke-width:0.8;" x="317.490984" xlink:href="#m0c2eae03b6" y="307.584"/>
      </g>
     </g>
     <g id="text_7">
      <!-- 2016-01 -->
      <defs>
       <path d="M 33.015625 40.375 
Q 26.375 40.375 22.484375 35.828125 
Q 18.609375 31.296875 18.609375 23.390625 
Q 18.609375 15.53125 22.484375 10.953125 
Q 26.375 6.390625 33.015625 6.390625 
Q 39.65625 6.390625 43.53125 10.953125 
Q 47.40625 15.53125 47.40625 23.390625 
Q 47.40625 31.296875 43.53125 35.828125 
Q 39.65625 40.375 33.015625 40.375 
z
M 52.59375 71.296875 
L 52.59375 62.3125 
Q 48.875 64.0625 45.09375 64.984375 
Q 41.3125 65.921875 37.59375 65.921875 
Q 27.828125 65.921875 22.671875 59.328125 
Q 17.53125 52.734375 16.796875 39.40625 
Q 19.671875 43.65625 24.015625 45.921875 
Q 28.375 48.1875 33.59375 48.1875 
Q 44.578125 48.1875 50.953125 41.515625 
Q 57.328125 34.859375 57.328125 23.390625 
Q 57.328125 12.15625 50.6875 5.359375 
Q 44.046875 -1.421875 33.015625 -1.421875 
Q 20.359375 -1.421875 13.671875 8.265625 
Q 6.984375 17.96875 6.984375 36.375 
Q 6.984375 53.65625 15.1875 63.9375 
Q 23.390625 74.21875 37.203125 74.21875 
Q 40.921875 74.21875 44.703125 73.484375 
Q 48.484375 72.75 52.59375 71.296875 
z
" id="DejaVuSans-54"/>
      </defs>
      <g transform="translate(296.599578 322.182437)scale(0.1 -0.1)">
       <use xlink:href="#DejaVuSans-50"/>
       <use x="63.623047" xlink:href="#DejaVuSans-48"/>
       <use x="127.246094" xlink:href="#DejaVuSans-49"/>
       <use x="190.869141" xlink:href="#DejaVuSans-54"/>
       <use x="254.492188" xlink:href="#DejaVuSans-45"/>
       <use x="290.576172" xlink:href="#DejaVuSans-48"/>
       <use x="354.199219" xlink:href="#DejaVuSans-49"/>
      </g>
     </g>
    </g>
    <g id="xtick_8">
     <g id="line2d_8">
      <g>
       <use style="stroke:#000000;stroke-width:0.8;" x="358.100694" xlink:href="#m0c2eae03b6" y="307.584"/>
      </g>
     </g>
     <g id="text_8">
      <!-- 2016-07 -->
      <g transform="translate(337.209287 322.182437)scale(0.1 -0.1)">
       <use xlink:href="#DejaVuSans-50"/>
       <use x="63.623047" xlink:href="#DejaVuSans-48"/>
       <use x="127.246094" xlink:href="#DejaVuSans-49"/>
       <use x="190.869141" xlink:href="#DejaVuSans-54"/>
       <use x="254.492188" xlink:href="#DejaVuSans-45"/>
       <use x="290.576172" xlink:href="#DejaVuSans-48"/>
       <use x="354.199219" xlink:href="#DejaVuSans-55"/>
      </g>
     </g>
    </g>
    <g id="xtick_9">
     <g id="line2d_9">
      <g>
       <use style="stroke:#000000;stroke-width:0.8;" x="399.156664" xlink:href="#m0c2eae03b6" y="307.584"/>
      </g>
     </g>
     <g id="text_9">
      <!-- 2017-01 -->
      <g transform="translate(378.265257 322.182437)scale(0.1 -0.1)">
       <use xlink:href="#DejaVuSans-50"/>
       <use x="63.623047" xlink:href="#DejaVuSans-48"/>
       <use x="127.246094" xlink:href="#DejaVuSans-49"/>
       <use x="190.869141" xlink:href="#DejaVuSans-55"/>
       <use x="254.492188" xlink:href="#DejaVuSans-45"/>
       <use x="290.576172" xlink:href="#DejaVuSans-48"/>
       <use x="354.199219" xlink:href="#DejaVuSans-49"/>
      </g>
     </g>
    </g>
    <g id="text_10">
     <!-- Date -->
     <defs>
      <path d="M 19.671875 64.796875 
L 19.671875 8.109375 
L 31.59375 8.109375 
Q 46.6875 8.109375 53.6875 14.9375 
Q 60.6875 21.78125 60.6875 36.53125 
Q 60.6875 51.171875 53.6875 57.984375 
Q 46.6875 64.796875 31.59375 64.796875 
z
M 9.8125 72.90625 
L 30.078125 72.90625 
Q 51.265625 72.90625 61.171875 64.09375 
Q 71.09375 55.28125 71.09375 36.53125 
Q 71.09375 17.671875 61.125 8.828125 
Q 51.171875 0 30.078125 0 
L 9.8125 0 
z
" id="DejaVuSans-68"/>
      <path d="M 34.28125 27.484375 
Q 23.390625 27.484375 19.1875 25 
Q 14.984375 22.515625 14.984375 16.5 
Q 14.984375 11.71875 18.140625 8.90625 
Q 21.296875 6.109375 26.703125 6.109375 
Q 34.1875 6.109375 38.703125 11.40625 
Q 43.21875 16.703125 43.21875 25.484375 
L 43.21875 27.484375 
z
M 52.203125 31.203125 
L 52.203125 0 
L 43.21875 0 
L 43.21875 8.296875 
Q 40.140625 3.328125 35.546875 0.953125 
Q 30.953125 -1.421875 24.3125 -1.421875 
Q 15.921875 -1.421875 10.953125 3.296875 
Q 6 8.015625 6 15.921875 
Q 6 25.140625 12.171875 29.828125 
Q 18.359375 34.515625 30.609375 34.515625 
L 43.21875 34.515625 
L 43.21875 35.40625 
Q 43.21875 41.609375 39.140625 45 
Q 35.0625 48.390625 27.6875 48.390625 
Q 23 48.390625 18.546875 47.265625 
Q 14.109375 46.140625 10.015625 43.890625 
L 10.015625 52.203125 
Q 14.9375 54.109375 19.578125 55.046875 
Q 24.21875 56 28.609375 56 
Q 40.484375 56 46.34375 49.84375 
Q 52.203125 43.703125 52.203125 31.203125 
z
" id="DejaVuSans-97"/>
      <path d="M 18.3125 70.21875 
L 18.3125 54.6875 
L 36.8125 54.6875 
L 36.8125 47.703125 
L 18.3125 47.703125 
L 18.3125 18.015625 
Q 18.3125 11.328125 20.140625 9.421875 
Q 21.96875 7.515625 27.59375 7.515625 
L 36.8125 7.515625 
L 36.8125 0 
L 27.59375 0 
Q 17.1875 0 13.234375 3.875 
Q 9.28125 7.765625 9.28125 18.015625 
L 9.28125 47.703125 
L 2.6875 47.703125 
L 2.6875 54.6875 
L 9.28125 54.6875 
L 9.28125 70.21875 
z
" id="DejaVuSans-116"/>
      <path d="M 56.203125 29.59375 
L 56.203125 25.203125 
L 14.890625 25.203125 
Q 15.484375 15.921875 20.484375 11.0625 
Q 25.484375 6.203125 34.421875 6.203125 
Q 39.59375 6.203125 44.453125 7.46875 
Q 49.3125 8.734375 54.109375 11.28125 
L 54.109375 2.78125 
Q 49.265625 0.734375 44.1875 -0.34375 
Q 39.109375 -1.421875 33.890625 -1.421875 
Q 20.796875 -1.421875 13.15625 6.1875 
Q 5.515625 13.8125 5.515625 26.8125 
Q 5.515625 40.234375 12.765625 48.109375 
Q 20.015625 56 32.328125 56 
Q 43.359375 56 49.78125 48.890625 
Q 56.203125 41.796875 56.203125 29.59375 
z
M 47.21875 32.234375 
Q 47.125 39.59375 43.09375 43.984375 
Q 39.0625 48.390625 32.421875 48.390625 
Q 24.90625 48.390625 20.390625 44.140625 
Q 15.875 39.890625 15.1875 32.171875 
z
" id="DejaVuSans-101"/>
     </defs>
     <g transform="translate(219.428906 338.899937)scale(0.14 -0.14)">
      <use xlink:href="#DejaVuSans-68"/>
      <use x="77.001953" xlink:href="#DejaVuSans-97"/>
      <use x="138.28125" xlink:href="#DejaVuSans-116"/>
      <use x="177.490234" xlink:href="#DejaVuSans-101"/>
     </g>
    </g>
   </g>
   <g id="matplotlib.axis_2">
    <g id="ytick_1">
     <g id="line2d_10">
      <defs>
       <path d="M 0 0 
L -3.5 0 
" id="mef50a500f3" style="stroke:#000000;stroke-width:0.8;"/>
      </defs>
      <g>
       <use style="stroke:#000000;stroke-width:0.8;" x="57.6" xlink:href="#mef50a500f3" y="295.494916"/>
      </g>
     </g>
     <g id="text_11">
      <!-- 0 -->
      <g transform="translate(44.2375 299.294135)scale(0.1 -0.1)">
       <use xlink:href="#DejaVuSans-48"/>
      </g>
     </g>
    </g>
    <g id="ytick_2">
     <g id="line2d_11">
      <g>
       <use style="stroke:#000000;stroke-width:0.8;" x="57.6" xlink:href="#mef50a500f3" y="260.914168"/>
      </g>
     </g>
     <g id="text_12">
      <!-- 5000 -->
      <g transform="translate(25.15 264.713386)scale(0.1 -0.1)">
       <use xlink:href="#DejaVuSans-53"/>
       <use x="63.623047" xlink:href="#DejaVuSans-48"/>
       <use x="127.246094" xlink:href="#DejaVuSans-48"/>
       <use x="190.869141" xlink:href="#DejaVuSans-48"/>
      </g>
     </g>
    </g>
    <g id="ytick_3">
     <g id="line2d_12">
      <g>
       <use style="stroke:#000000;stroke-width:0.8;" x="57.6" xlink:href="#mef50a500f3" y="226.333419"/>
      </g>
     </g>
     <g id="text_13">
      <!-- 10000 -->
      <g transform="translate(18.7875 230.132638)scale(0.1 -0.1)">
       <use xlink:href="#DejaVuSans-49"/>
       <use x="63.623047" xlink:href="#DejaVuSans-48"/>
       <use x="127.246094" xlink:href="#DejaVuSans-48"/>
       <use x="190.869141" xlink:href="#DejaVuSans-48"/>
       <use x="254.492188" xlink:href="#DejaVuSans-48"/>
      </g>
     </g>
    </g>
    <g id="ytick_4">
     <g id="line2d_13">
      <g>
       <use style="stroke:#000000;stroke-width:0.8;" x="57.6" xlink:href="#mef50a500f3" y="191.752671"/>
      </g>
     </g>
     <g id="text_14">
      <!-- 15000 -->
      <g transform="translate(18.7875 195.55189)scale(0.1 -0.1)">
       <use xlink:href="#DejaVuSans-49"/>
       <use x="63.623047" xlink:href="#DejaVuSans-53"/>
       <use x="127.246094" xlink:href="#DejaVuSans-48"/>
       <use x="190.869141" xlink:href="#DejaVuSans-48"/>
       <use x="254.492188" xlink:href="#DejaVuSans-48"/>
      </g>
     </g>
    </g>
    <g id="ytick_5">
     <g id="line2d_14">
      <g>
       <use style="stroke:#000000;stroke-width:0.8;" x="57.6" xlink:href="#mef50a500f3" y="157.171922"/>
      </g>
     </g>
     <g id="text_15">
      <!-- 20000 -->
      <g transform="translate(18.7875 160.971141)scale(0.1 -0.1)">
       <use xlink:href="#DejaVuSans-50"/>
       <use x="63.623047" xlink:href="#DejaVuSans-48"/>
       <use x="127.246094" xlink:href="#DejaVuSans-48"/>
       <use x="190.869141" xlink:href="#DejaVuSans-48"/>
       <use x="254.492188" xlink:href="#DejaVuSans-48"/>
      </g>
     </g>
    </g>
    <g id="ytick_6">
     <g id="line2d_15">
      <g>
       <use style="stroke:#000000;stroke-width:0.8;" x="57.6" xlink:href="#mef50a500f3" y="122.591174"/>
      </g>
     </g>
     <g id="text_16">
      <!-- 25000 -->
      <g transform="translate(18.7875 126.390393)scale(0.1 -0.1)">
       <use xlink:href="#DejaVuSans-50"/>
       <use x="63.623047" xlink:href="#DejaVuSans-53"/>
       <use x="127.246094" xlink:href="#DejaVuSans-48"/>
       <use x="190.869141" xlink:href="#DejaVuSans-48"/>
       <use x="254.492188" xlink:href="#DejaVuSans-48"/>
      </g>
     </g>
    </g>
    <g id="ytick_7">
     <g id="line2d_16">
      <g>
       <use style="stroke:#000000;stroke-width:0.8;" x="57.6" xlink:href="#mef50a500f3" y="88.010425"/>
      </g>
     </g>
     <g id="text_17">
      <!-- 30000 -->
      <g transform="translate(18.7875 91.809644)scale(0.1 -0.1)">
       <use xlink:href="#DejaVuSans-51"/>
       <use x="63.623047" xlink:href="#DejaVuSans-48"/>
       <use x="127.246094" xlink:href="#DejaVuSans-48"/>
       <use x="190.869141" xlink:href="#DejaVuSans-48"/>
       <use x="254.492188" xlink:href="#DejaVuSans-48"/>
      </g>
     </g>
    </g>
    <g id="ytick_8">
     <g id="line2d_17">
      <g>
       <use style="stroke:#000000;stroke-width:0.8;" x="57.6" xlink:href="#mef50a500f3" y="53.429677"/>
      </g>
     </g>
     <g id="text_18">
      <!-- 35000 -->
      <g transform="translate(18.7875 57.228896)scale(0.1 -0.1)">
       <use xlink:href="#DejaVuSans-51"/>
       <use x="63.623047" xlink:href="#DejaVuSans-53"/>
       <use x="127.246094" xlink:href="#DejaVuSans-48"/>
       <use x="190.869141" xlink:href="#DejaVuSans-48"/>
       <use x="254.492188" xlink:href="#DejaVuSans-48"/>
      </g>
     </g>
    </g>
    <g id="text_19">
     <!-- Sales Value -->
     <defs>
      <path d="M 53.515625 70.515625 
L 53.515625 60.890625 
Q 47.90625 63.578125 42.921875 64.890625 
Q 37.9375 66.21875 33.296875 66.21875 
Q 25.25 66.21875 20.875 63.09375 
Q 16.5 59.96875 16.5 54.203125 
Q 16.5 49.359375 19.40625 46.890625 
Q 22.3125 44.4375 30.421875 42.921875 
L 36.375 41.703125 
Q 47.40625 39.59375 52.65625 34.296875 
Q 57.90625 29 57.90625 20.125 
Q 57.90625 9.515625 50.796875 4.046875 
Q 43.703125 -1.421875 29.984375 -1.421875 
Q 24.8125 -1.421875 18.96875 -0.25 
Q 13.140625 0.921875 6.890625 3.21875 
L 6.890625 13.375 
Q 12.890625 10.015625 18.65625 8.296875 
Q 24.421875 6.59375 29.984375 6.59375 
Q 38.421875 6.59375 43.015625 9.90625 
Q 47.609375 13.234375 47.609375 19.390625 
Q 47.609375 24.75 44.3125 27.78125 
Q 41.015625 30.8125 33.5 32.328125 
L 27.484375 33.5 
Q 16.453125 35.6875 11.515625 40.375 
Q 6.59375 45.0625 6.59375 53.421875 
Q 6.59375 63.09375 13.40625 68.65625 
Q 20.21875 74.21875 32.171875 74.21875 
Q 37.3125 74.21875 42.625 73.28125 
Q 47.953125 72.359375 53.515625 70.515625 
z
" id="DejaVuSans-83"/>
      <path d="M 9.421875 75.984375 
L 18.40625 75.984375 
L 18.40625 0 
L 9.421875 0 
z
" id="DejaVuSans-108"/>
      <path d="M 44.28125 53.078125 
L 44.28125 44.578125 
Q 40.484375 46.53125 36.375 47.5 
Q 32.28125 48.484375 27.875 48.484375 
Q 21.1875 48.484375 17.84375 46.4375 
Q 14.5 44.390625 14.5 40.28125 
Q 14.5 37.15625 16.890625 35.375 
Q 19.28125 33.59375 26.515625 31.984375 
L 29.59375 31.296875 
Q 39.15625 29.25 43.1875 25.515625 
Q 47.21875 21.78125 47.21875 15.09375 
Q 47.21875 7.46875 41.1875 3.015625 
Q 35.15625 -1.421875 24.609375 -1.421875 
Q 20.21875 -1.421875 15.453125 -0.5625 
Q 10.6875 0.296875 5.421875 2 
L 5.421875 11.28125 
Q 10.40625 8.6875 15.234375 7.390625 
Q 20.0625 6.109375 24.8125 6.109375 
Q 31.15625 6.109375 34.5625 8.28125 
Q 37.984375 10.453125 37.984375 14.40625 
Q 37.984375 18.0625 35.515625 20.015625 
Q 33.0625 21.96875 24.703125 23.78125 
L 21.578125 24.515625 
Q 13.234375 26.265625 9.515625 29.90625 
Q 5.8125 33.546875 5.8125 39.890625 
Q 5.8125 47.609375 11.28125 51.796875 
Q 16.75 56 26.8125 56 
Q 31.78125 56 36.171875 55.265625 
Q 40.578125 54.546875 44.28125 53.078125 
z
" id="DejaVuSans-115"/>
      <path id="DejaVuSans-32"/>
      <path d="M 28.609375 0 
L 0.78125 72.90625 
L 11.078125 72.90625 
L 34.1875 11.53125 
L 57.328125 72.90625 
L 67.578125 72.90625 
L 39.796875 0 
z
" id="DejaVuSans-86"/>
      <path d="M 8.5 21.578125 
L 8.5 54.6875 
L 17.484375 54.6875 
L 17.484375 21.921875 
Q 17.484375 14.15625 20.5 10.265625 
Q 23.53125 6.390625 29.59375 6.390625 
Q 36.859375 6.390625 41.078125 11.03125 
Q 45.3125 15.671875 45.3125 23.6875 
L 45.3125 54.6875 
L 54.296875 54.6875 
L 54.296875 0 
L 45.3125 0 
L 45.3125 8.40625 
Q 42.046875 3.421875 37.71875 1 
Q 33.40625 -1.421875 27.6875 -1.421875 
Q 18.265625 -1.421875 13.375 4.4375 
Q 8.5 10.296875 8.5 21.578125 
z
M 31.109375 56 
z
" id="DejaVuSans-117"/>
     </defs>
     <g transform="translate(11.875937 215.143312)rotate(-90)scale(0.14 -0.14)">
      <use xlink:href="#DejaVuSans-83"/>
      <use x="63.476562" xlink:href="#DejaVuSans-97"/>
      <use x="124.755859" xlink:href="#DejaVuSans-108"/>
      <use x="152.539062" xlink:href="#DejaVuSans-101"/>
      <use x="214.0625" xlink:href="#DejaVuSans-115"/>
      <use x="266.162109" xlink:href="#DejaVuSans-32"/>
      <use x="297.949219" xlink:href="#DejaVuSans-86"/>
      <use x="366.248047" xlink:href="#DejaVuSans-97"/>
      <use x="427.527344" xlink:href="#DejaVuSans-108"/>
      <use x="455.310547" xlink:href="#DejaVuSans-117"/>
      <use x="518.689453" xlink:href="#DejaVuSans-101"/>
     </g>
    </g>
   </g>
   <g id="line2d_18">
    <path clip-path="url(#p65229b4e1c)" d="M 73.832727 295.384258 
L 74.055858 295.488 
L 74.278988 295.460335 
L 74.502118 294.817133 
L 75.8409 295.446503 
L 80.303505 295.488 
L 80.526635 293.669053 
L 81.196026 294.139351 
L 81.419157 295.342761 
L 81.642287 295.176773 
L 81.865417 295.453419 
L 82.088547 295.287432 
L 83.204199 294.872463 
L 83.427329 295.411922 
L 84.31985 295.453419 
L 84.766111 295.488 
L 86.774283 295.460335 
L 87.443674 295.453419 
L 87.666804 295.204438 
L 88.113065 295.474168 
L 88.782455 295.21827 
L 89.228716 295.294348 
L 89.451846 295.093779 
L 89.674977 291.42822 
L 89.898107 295.460335 
L 90.121237 295.432671 
L 90.344367 294.886295 
L 90.567498 295.273599 
L 91.236888 295.488 
L 91.683149 295.225186 
L 91.906279 295.460335 
L 93.691321 295.356593 
L 94.360712 294.727224 
L 96.368885 295.356593 
L 97.038276 295.315096 
L 97.261406 295.460335 
L 97.484536 294.996953 
L 97.930797 295.349677 
L 100.38523 294.955456 
L 100.60836 294.73414 
L 100.83149 295.488 
L 101.277751 294.388332 
L 104.624705 295.432671 
L 105.070965 294.581984 
L 105.963486 295.232102 
L 106.186617 295.245935 
L 106.409747 294.651146 
L 107.079138 294.512823 
L 107.302268 294.76872 
L 107.748529 295.474168 
L 108.194789 295.460335 
L 108.64105 294.996953 
L 108.86418 295.460335 
L 110.426092 295.093779 
L 110.649222 295.488 
L 110.872352 295.059199 
L 111.318613 295.453419 
L 112.211134 294.19468 
L 112.434264 295.488 
L 114.888697 295.481084 
L 115.111828 295.114528 
L 116.227479 295.460335 
L 116.450609 295.474168 
L 118.905042 295.481084 
L 119.128172 294.699559 
L 119.351303 295.259767 
L 119.574433 295.460335 
L 119.797563 295.432671 
L 120.913215 295.439587 
L 123.590778 295.460335 
L 124.706429 295.204438 
L 126.937732 295.453419 
L 131.623468 295.453419 
L 131.846598 295.156025 
L 133.40851 295.432671 
L 134.747291 295.245935 
L 134.970422 294.333003 
L 135.193552 295.30818 
L 136.309203 295.453419 
L 138.763636 295.03845 
L 139.879288 295.225186 
L 140.102418 294.526655 
L 141.4412 295.460335 
L 143.003112 295.481084 
L 143.449372 294.685727 
L 143.672502 295.488 
L 144.341893 294.540487 
L 145.011284 294.519739 
L 145.234414 295.052283 
L 146.126935 295.488 
L 146.350066 295.453419 
L 147.465717 295.024618 
L 148.358238 295.39809 
L 148.581368 295.156025 
L 149.027629 295.190606 
L 149.250759 295.453419 
L 149.473889 294.941624 
L 149.92015 295.342761 
L 150.14328 293.129593 
L 150.589541 295.446503 
L 150.812671 295.474168 
L 151.035801 293.641388 
L 151.258932 295.453419 
L 153.043974 294.941624 
L 153.267104 295.453419 
L 164.646748 295.453419 
L 165.316139 295.010786 
L 169.778744 295.432671 
L 182.7203 295.481084 
L 184.505342 295.315096 
L 191.422381 295.481084 
L 195.215595 291.186155 
L 195.884986 294.540487 
L 196.331246 293.83504 
L 196.554377 291.082413 
L 196.777507 290.847264 
L 197.000637 295.287432 
L 197.223768 287.029549 
L 197.446898 294.664978 
L 197.670028 295.391174 
L 197.893158 273.19725 
L 198.116289 292.520972 
L 198.562549 282.257406 
L 198.785679 293.316329 
L 199.00881 293.83504 
L 199.23194 295.446503 
L 199.678201 288.647928 
L 199.901331 291.801692 
L 200.124461 289.20122 
L 200.570722 295.356593 
L 200.793852 294.996953 
L 201.016982 291.400556 
L 201.240112 294.333003 
L 201.463243 294.042525 
L 201.686373 294.077105 
L 201.909503 294.907043 
L 202.132634 295.121444 
L 202.355764 294.692643 
L 202.578894 295.024618 
L 202.802024 289.851338 
L 203.025155 292.797618 
L 203.248285 286.849729 
L 203.471415 294.830966 
L 203.694545 292.90136 
L 203.917676 295.356593 
L 204.140806 283.606055 
L 204.363936 286.849729 
L 204.587067 293.316329 
L 204.810197 291.137742 
L 205.479588 295.093779 
L 205.702718 279.062144 
L 205.925848 288.163797 
L 206.148978 286.365599 
L 206.372109 293.669053 
L 206.595239 293.420071 
L 207.0415 295.446503 
L 207.26463 290.76427 
L 207.48776 290.508372 
L 207.71089 294.664978 
L 207.934021 290.093403 
L 208.380281 295.384258 
L 208.603411 292.624714 
L 209.049672 293.212587 
L 209.272802 283.48848 
L 209.495933 293.316329 
L 209.719063 294.976205 
L 209.942193 295.460335 
L 210.165323 295.356593 
L 210.388454 286.289521 
L 210.611584 293.115761 
L 210.834714 292.382649 
L 211.057844 290.94409 
L 211.280975 294.333003 
L 211.727235 295.481084 
L 211.950366 287.126375 
L 212.173496 291.843189 
L 212.396626 279.809089 
L 212.619756 285.072279 
L 212.842887 285.922965 
L 213.066017 283.543809 
L 213.289147 295.356593 
L 213.512277 279.864418 
L 213.735408 287.63817 
L 213.958538 283.045847 
L 214.181668 288.398947 
L 214.404799 290.328552 
L 214.627929 295.384258 
L 215.29732 285.909133 
L 215.52045 285.978294 
L 215.74358 290.370049 
L 215.96671 286.365599 
L 216.189841 290.556785 
L 216.636101 282.672375 
L 216.859231 289.547027 
L 217.082362 285.971378 
L 217.305492 290.957922 
L 217.528622 289.007568 
L 217.751753 294.941624 
L 217.974883 295.225186 
L 218.198013 292.092171 
L 218.421143 287.091794 
L 218.867404 291.06858 
L 219.090534 276.821312 
L 219.313664 294.91396 
L 219.759925 288.834664 
L 219.983055 294.388332 
L 220.206186 290.577534 
L 220.429316 293.544562 
L 220.652446 293.662136 
L 220.875576 295.30818 
L 221.098707 295.425755 
L 221.321837 290.515288 
L 221.544967 291.448969 
L 221.768097 281.593455 
L 221.991228 278.605679 
L 222.214358 293.378574 
L 222.437488 289.643854 
L 222.660619 295.384258 
L 222.883749 282.810698 
L 223.106879 282.098334 
L 223.330009 291.995344 
L 223.55314 292.313487 
L 223.77627 289.076729 
L 224.22253 294.886295 
L 224.445661 290.791934 
L 224.668791 280.72202 
L 225.115052 293.994112 
L 225.338182 278.965318 
L 225.561312 295.183689 
L 225.784442 293.35091 
L 226.007573 282.962853 
L 226.230703 287.527512 
L 226.453833 277.678915 
L 226.900094 292.002261 
L 227.123224 295.183689 
L 227.346354 295.135276 
L 227.569485 288.468108 
L 227.792615 289.083645 
L 228.015745 293.890369 
L 228.462006 291.863938 
L 228.685136 295.059199 
L 228.908266 294.478242 
L 229.354527 284.041772 
L 229.577657 283.018182 
L 229.800787 284.705723 
L 230.023918 291.912351 
L 230.247048 295.287432 
L 230.470178 295.411922 
L 230.693308 239.577846 
L 230.916439 272.367312 
L 231.139569 242.240564 
L 231.362699 288.39203 
L 231.585829 287.084878 
L 231.80896 293.4754 
L 232.03209 294.001028 
L 232.25522 291.179239 
L 232.478351 277.160203 
L 232.701481 294.872463 
L 232.924611 293.669053 
L 233.147741 291.732531 
L 233.594002 295.467252 
L 233.817132 287.022633 
L 234.263393 295.100696 
L 234.486523 294.3745 
L 234.709653 291.829357 
L 234.932784 294.64423 
L 235.155914 295.100696 
L 235.379044 293.703633 
L 235.602174 294.250009 
L 235.825305 271.578871 
L 236.048435 286.158114 
L 236.717826 295.460335 
L 239.395389 295.370425 
L 243.411734 295.356593 
L 251.444424 295.467252 
L 254.568247 295.460335 
L 267.956064 295.356593 
L 276.435014 267.892563 
L 276.658144 293.191838 
L 276.881275 290.446127 
L 277.104405 294.595817 
L 277.327535 295.467252 
L 277.550665 268.480435 
L 277.773796 224.071838 
L 277.996926 293.669053 
L 278.220056 276.904306 
L 278.443187 268.950734 
L 278.666317 294.457494 
L 278.889447 293.461568 
L 279.112577 254.343825 
L 279.335708 282.381896 
L 279.558838 275.272094 
L 279.781968 276.26802 
L 280.005098 263.846615 
L 280.228229 293.586059 
L 280.451359 292.251242 
L 280.674489 271.973091 
L 280.897619 228.269941 
L 281.12075 254.973195 
L 281.34388 264.123261 
L 281.56701 288.26754 
L 282.013271 294.934708 
L 282.236401 247.565999 
L 282.459531 283.550726 
L 282.682662 257.781152 
L 282.905792 290.017326 
L 283.128922 279.200467 
L 283.352052 295.39809 
L 283.575183 292.036841 
L 283.798313 218.476673 
L 284.021443 288.523437 
L 284.244574 270.223305 
L 284.467704 267.318522 
L 284.913964 293.627556 
L 285.137095 292.700792 
L 285.360225 251.632695 
L 285.806485 287.748828 
L 286.029616 267.864898 
L 286.252746 275.036945 
L 286.475876 289.145891 
L 286.699007 294.581984 
L 286.922137 274.027188 
L 287.145267 275.472663 
L 287.368397 265.866131 
L 287.591528 274.580479 
L 287.814658 289.941248 
L 288.037788 284.5674 
L 288.260918 294.28459 
L 288.484049 277.194784 
L 288.707179 290.861096 
L 288.930309 286.005959 
L 289.37657 271.039411 
L 289.5997 295.273599 
L 289.82283 289.547027 
L 290.045961 295.481084 
L 290.492221 269.268877 
L 290.715351 284.705723 
L 290.938482 276.904306 
L 291.161612 295.273599 
L 291.384742 295.411922 
L 291.607873 269.35187 
L 291.831003 281.80094 
L 292.054133 280.680524 
L 292.277263 264.316913 
L 292.500394 275.576405 
L 292.723524 295.024618 
L 292.946654 295.204438 
L 293.169784 202.956833 
L 293.392915 189.989053 
L 293.616045 255.657894 
L 293.839175 237.011954 
L 294.062306 233.125078 
L 294.285436 293.56531 
L 294.508566 292.693876 
L 294.731696 267.899479 
L 294.954827 262.006919 
L 295.177957 268.929985 
L 295.401087 253.638378 
L 295.624217 263.680628 
L 295.847348 294.001028 
L 296.070478 295.460335 
L 296.293608 259.807584 
L 296.516739 177.367079 
L 296.739869 275.161436 
L 296.962999 273.999523 
L 297.186129 279.739927 
L 297.40926 289.208136 
L 297.63239 290.76427 
L 297.85552 264.455236 
L 298.07865 220.247208 
L 298.301781 271.6342 
L 298.971172 294.664978 
L 299.194302 294.602733 
L 299.417432 250.456949 
L 299.640562 259.517105 
L 299.863693 257.525254 
L 300.086823 276.212691 
L 300.309953 278.979151 
L 300.533083 291.884686 
L 300.756214 293.295581 
L 300.979344 262.470301 
L 301.202474 264.648889 
L 301.425604 282.257406 
L 301.648735 280.030405 
L 301.871865 280.002741 
L 302.094995 293.897286 
L 302.318126 294.85863 
L 302.764386 272.775364 
L 302.987516 276.544666 
L 303.210647 262.248985 
L 303.433777 272.256653 
L 303.656907 289.540111 
L 303.880037 295.225186 
L 304.103168 257.871062 
L 304.326298 277.132539 
L 304.549428 271.509709 
L 304.772559 252.704698 
L 304.995689 264.683469 
L 305.218819 294.042525 
L 305.441949 288.910742 
L 305.66508 278.501936 
L 305.88821 246.943545 
L 306.11134 285.155272 
L 306.33447 246.390253 
L 306.557601 257.954056 
L 306.780731 293.316329 
L 307.003861 289.145891 
L 307.226992 277.858734 
L 307.673252 240.110389 
L 307.896382 288.578766 
L 308.119513 284.850962 
L 308.342643 292.866779 
L 308.565773 287.734996 
L 309.012034 262.248985 
L 309.458294 294.886295 
L 309.681425 270.804262 
L 309.904555 288.813916 
L 310.127685 289.519363 
L 310.350815 260.969497 
L 310.573946 277.858734 
L 311.020206 258.894652 
L 311.243336 270.084982 
L 311.466467 290.798851 
L 311.689597 295.079947 
L 311.912727 222.294388 
L 312.135858 206.947452 
L 312.358988 252.787692 
L 312.582118 273.363237 
L 312.805248 268.625675 
L 313.028379 293.281748 
L 313.251509 294.934708 
L 313.474639 253.029757 
L 313.697769 290.778102 
L 313.9209 270.513783 
L 314.14403 271.343721 
L 314.36716 271.288392 
L 314.590291 293.295581 
L 314.813421 295.460335 
L 315.036551 256.349509 
L 315.259681 283.529977 
L 315.482812 295.453419 
L 315.705942 286.573083 
L 315.929072 282.73462 
L 316.152202 293.945699 
L 316.375333 293.420071 
L 316.598463 288.30212 
L 317.044724 252.296645 
L 317.267854 290.093403 
L 317.490984 195.791702 
L 317.714114 292.45181 
L 317.937245 292.735372 
L 318.160375 198.585827 
L 318.383505 263.002845 
L 318.606635 229.459519 
L 318.829766 223.456301 
L 319.052896 224.466059 
L 319.276026 288.710173 
L 319.499157 295.488 
L 319.722287 182.291378 
L 319.945417 169.261352 
L 320.168547 255.93454 
L 320.391678 257.635913 
L 320.614808 241.645775 
L 320.837938 289.796009 
L 321.507329 234.895613 
L 321.730459 131.1672 
L 321.95359 105.439123 
L 322.17672 251.439043 
L 322.39985 284.290754 
L 322.62298 295.370425 
L 322.846111 219.195953 
L 323.069241 202.15456 
L 323.292371 258.34136 
L 323.515501 178.667316 
L 323.738632 273.626051 
L 323.961762 292.41723 
L 324.184892 281.019415 
L 324.408022 209.679331 
L 324.631153 53.568 
L 325.077413 231.008736 
L 325.300544 253.666043 
L 325.523674 288.246791 
L 325.746804 294.277674 
L 326.193065 98.246327 
L 326.416195 231.783345 
L 326.639325 255.93454 
L 326.862455 230.379367 
L 327.085586 274.573563 
L 327.308716 294.664978 
L 327.531846 192.305963 
L 327.754977 243.105082 
L 327.978107 165.630373 
L 328.201237 229.265867 
L 328.424367 199.000796 
L 328.647498 279.449449 
L 328.870628 292.299655 
L 329.093758 139.798554 
L 329.540019 266.737566 
L 329.763149 258.147708 
L 329.986279 257.373099 
L 330.43254 286.745987 
L 330.65567 282.409561 
L 357.654433 289.796009 
L 357.877563 295.474168 
L 358.100694 293.35091 
L 358.323824 295.266683 
L 358.546954 295.446503 
L 358.770084 292.348068 
L 358.993215 278.453523 
L 359.216345 290.639779 
L 359.439475 295.107612 
L 359.662605 294.077105 
L 359.885736 295.176773 
L 360.108866 294.761804 
L 360.331996 283.149589 
L 360.555127 293.869621 
L 360.778257 292.299655 
L 361.001387 295.204438 
L 361.224517 293.703633 
L 361.447648 295.100696 
L 361.670778 295.460335 
L 361.893908 278.453523 
L 362.117038 288.398947 
L 362.340169 280.127232 
L 362.563299 280.618278 
L 362.786429 290.31472 
L 363.00956 294.595817 
L 363.23269 294.91396 
L 363.45582 288.191462 
L 363.67895 293.212587 
L 363.902081 292.714624 
L 364.125211 290.141816 
L 364.348341 294.976205 
L 364.571471 295.266683 
L 364.794602 295.252851 
L 365.017732 286.144282 
L 365.240862 286.97422 
L 365.463993 293.046599 
L 365.687123 289.208136 
L 365.910253 290.992503 
L 366.133383 294.803301 
L 366.356514 295.418839 
L 366.579644 289.298046 
L 366.802774 294.76872 
L 367.025904 294.222345 
L 367.249035 286.586915 
L 367.472165 291.400556 
L 367.918425 295.439587 
L 368.141556 289.892835 
L 368.364686 292.45181 
L 368.587816 293.689801 
L 368.810947 273.570722 
L 369.034077 293.627556 
L 369.257207 295.183689 
L 369.480337 295.488 
L 369.703468 290.238642 
L 369.926598 295.162941 
L 370.149728 290.017326 
L 370.372858 293.378574 
L 370.595989 293.627556 
L 370.819119 295.287432 
L 371.042249 295.03845 
L 371.26538 295.21827 
L 371.48851 292.839115 
L 371.71164 293.254084 
L 371.93477 292.396481 
L 372.381031 295.266683 
L 372.604161 295.370425 
L 372.827291 290.127984 
L 373.050422 294.941624 
L 373.273552 291.884686 
L 373.496682 292.977438 
L 373.719813 292.569385 
L 373.942943 295.21827 
L 374.166073 295.446503 
L 374.389203 282.997434 
L 374.612334 282.257406 
L 374.835464 258.147708 
L 375.281724 288.35745 
L 375.504855 294.007944 
L 375.727985 295.079947 
L 375.951115 285.6809 
L 376.174246 289.809841 
L 376.397376 290.058822 
L 376.620506 293.641388 
L 376.843636 292.783785 
L 377.066767 295.121444 
L 377.289897 295.273599 
L 377.513027 293.606807 
L 377.736157 275.687063 
L 377.959288 288.108468 
L 378.182418 270.320131 
L 378.405548 287.776493 
L 378.628679 290.508372 
L 378.851809 295.453419 
L 379.074939 292.285823 
L 379.298069 280.964086 
L 379.74433 290.577534 
L 379.96746 294.55432 
L 380.19059 294.976205 
L 380.413721 294.637314 
L 380.636851 275.576405 
L 380.859981 274.995448 
L 381.083112 289.208136 
L 381.306242 279.850586 
L 381.752502 293.980279 
L 381.975633 294.73414 
L 382.421893 257.822649 
L 382.645023 291.179239 
L 382.868154 293.420071 
L 383.091284 282.73462 
L 383.314414 294.353751 
L 383.537545 295.453419 
L 383.760675 287.900984 
L 383.983805 288.412779 
L 384.206935 275.507244 
L 384.430066 289.68535 
L 384.653196 291.843189 
L 384.876326 295.149109 
L 385.099456 295.121444 
L 385.322587 283.917282 
L 385.545717 293.074264 
L 385.768847 271.09474 
L 385.991978 287.465266 
L 386.215108 289.630021 
L 386.438238 295.190606 
L 386.661368 295.432671 
L 386.884499 282.82453 
L 387.107629 293.226419 
L 387.330759 294.3745 
L 387.553889 293.074264 
L 387.77702 289.768344 
L 388.00015 295.481084 
L 388.22328 293.558394 
L 388.44641 293.918034 
L 388.669541 288.993735 
L 388.892671 287.202453 
L 389.115801 271.378302 
L 389.338932 295.342761 
L 389.562062 295.453419 
L 389.785192 295.370425 
L 390.231453 292.832199 
L 390.454583 293.046599 
L 390.677713 295.03845 
L 390.900843 284.60198 
L 391.123974 294.996953 
L 391.347104 295.467252 
L 391.570234 275.265178 
L 391.793365 275.24443 
L 392.016495 289.892835 
L 392.239625 271.191566 
L 392.462755 288.440443 
L 392.685886 294.187764 
L 392.909016 295.384258 
L 393.132146 262.380391 
L 393.355276 267.899479 
L 393.578407 287.403021 
L 393.801537 291.898518 
L 394.024667 285.528744 
L 394.247798 295.488 
L 394.694058 279.311126 
L 395.140319 292.230493 
L 395.363449 287.430686 
L 395.586579 275.78389 
L 395.809709 294.747972 
L 396.03284 295.446503 
L 396.25597 293.191838 
L 396.4791 293.523813 
L 396.702231 294.125519 
L 396.925361 285.369673 
L 397.148491 294.623481 
L 397.371621 294.498991 
L 397.817882 291.075496 
L 398.264142 293.267916 
L 398.487273 289.519363 
L 398.487273 289.519363 
" style="fill:none;stroke:#ff0000;stroke-linecap:square;stroke-width:1.5;"/>
   </g>
   <g id="line2d_19">
    <path clip-path="url(#p65229b4e1c)" d="M 73.832727 295.472992 
L 80.303505 295.473653 
L 80.526635 295.154708 
L 81.196026 295.153336 
L 81.419157 295.409471 
L 89.451846 295.406755 
L 89.674977 294.701462 
L 89.898107 295.472876 
L 91.236888 295.472535 
L 91.683149 295.296042 
L 91.906279 295.472489 
L 93.691321 295.472305 
L 94.360712 295.293503 
L 97.930797 295.473166 
L 100.38523 295.298893 
L 100.83149 295.473136 
L 101.277751 295.407034 
L 104.624705 295.472562 
L 105.070965 295.293241 
L 106.409747 295.404091 
L 107.079138 295.403753 
L 107.302268 295.290347 
L 107.748529 295.472493 
L 108.194789 295.472408 
L 108.64105 295.292339 
L 108.86418 295.472639 
L 112.211134 295.404066 
L 112.434264 295.471928 
L 118.905042 295.472686 
L 119.128172 294.944546 
L 119.351303 295.406857 
L 119.797563 295.472882 
L 134.747291 295.409427 
L 134.970422 295.15296 
L 135.193552 295.302566 
L 136.309203 295.47358 
L 138.317376 295.473818 
L 138.763636 295.304669 
L 140.548679 295.410724 
L 143.003112 295.473384 
L 143.449372 295.299167 
L 143.672502 295.473228 
L 144.341893 295.300885 
L 145.011284 295.302422 
L 145.234414 295.473513 
L 145.457545 295.408528 
L 149.250759 295.473702 
L 149.473889 295.157032 
L 149.92015 295.410854 
L 150.14328 295.305597 
L 150.812671 295.473869 
L 151.035801 295.159068 
L 151.258932 295.473919 
L 191.422381 295.473904 
L 195.215595 294.465127 
L 195.884986 295.410553 
L 196.331246 294.967612 
L 196.554377 292.947449 
L 196.777507 294.739955 
L 197.000637 295.411029 
L 197.223768 294.148159 
L 197.446898 295.158227 
L 197.670028 295.473873 
L 197.893158 291.945415 
L 198.116289 294.968355 
L 198.339419 293.385283 
L 198.562549 292.9359 
L 199.00881 295.304122 
L 199.23194 295.473717 
L 199.45507 293.371658 
L 199.678201 293.772388 
L 199.901331 294.730369 
L 200.124461 293.37152 
L 200.347591 294.130233 
L 200.570722 295.409623 
L 200.793852 295.303008 
L 201.016982 294.128949 
L 201.240112 295.302578 
L 201.463243 295.302093 
L 201.686373 294.957289 
L 201.909503 294.954073 
L 202.132634 295.300213 
L 202.355764 295.408381 
L 202.578894 295.150614 
L 202.802024 294.720061 
L 203.025155 294.713687 
L 203.248285 293.323453 
L 203.471415 295.146243 
L 203.694545 294.950114 
L 203.917676 295.473124 
L 204.140806 293.737095 
L 204.363936 293.31875 
L 204.587067 294.429374 
L 204.810197 293.742305 
L 205.033327 294.715978 
L 205.256457 294.715978 
L 205.479588 295.408367 
L 205.702718 292.373486 
L 205.925848 293.326288 
L 206.148978 293.318404 
L 206.372109 294.708907 
L 207.0415 295.473116 
L 207.26463 293.720177 
L 207.71089 294.945705 
L 207.934021 292.830875 
L 208.380281 295.406486 
L 208.603411 294.942229 
L 209.049672 294.939688 
L 209.272802 291.169036 
L 209.495933 294.41226 
L 209.719063 295.293528 
L 209.942193 295.47254 
L 210.165323 295.47254 
L 210.388454 292.791626 
L 210.611584 295.134114 
L 210.834714 293.246614 
L 211.057844 294.395722 
L 211.280975 294.394604 
L 211.504105 295.292818 
L 211.727235 295.472461 
L 211.950366 292.773299 
L 212.173496 292.781919 
L 212.396626 292.274989 
L 212.619756 292.775977 
L 212.842887 294.056047 
L 213.066017 294.056047 
L 213.289147 295.472434 
L 213.512277 293.242326 
L 213.735408 294.059455 
L 213.958538 292.255668 
L 214.181668 293.656145 
L 214.404799 293.658778 
L 214.627929 295.404243 
L 215.29732 291.025211 
L 215.52045 294.026612 
L 215.74358 291.633221 
L 215.96671 294.030729 
L 216.189841 294.671311 
L 216.859231 293.205256 
L 217.974883 295.2896 
L 218.198013 292.202187 
L 218.421143 293.640907 
L 218.644274 294.022628 
L 218.867404 294.034889 
L 219.090534 292.211947 
L 219.313664 295.130142 
L 219.536795 294.674174 
L 219.759925 293.640123 
L 219.983055 294.924559 
L 220.206186 293.630824 
L 220.429316 295.287079 
L 220.652446 294.917642 
L 220.875576 295.287098 
L 221.098707 295.402552 
L 221.321837 293.192668 
L 221.544967 294.919233 
L 221.768097 290.329797 
L 222.214358 294.661849 
L 222.437488 294.661849 
L 222.660619 295.402353 
L 222.883749 290.916901 
L 223.106879 291.547078 
L 223.330009 292.659069 
L 223.55314 294.911038 
L 223.77627 293.986244 
L 224.22253 295.400624 
L 224.445661 293.159678 
L 224.668791 292.132174 
L 225.115052 294.34743 
L 225.338182 293.148059 
L 225.561312 295.283699 
L 225.784442 294.908202 
L 226.007573 292.126796 
L 226.230703 294.002975 
L 226.453833 290.932761 
L 226.900094 294.910035 
L 227.123224 295.284359 
L 227.346354 295.401335 
L 227.569485 293.996956 
L 227.792615 293.606679 
L 228.015745 295.123701 
L 228.238875 295.28622 
L 228.462006 294.913873 
L 228.685136 295.285741 
L 228.908266 295.285741 
L 229.354527 292.161952 
L 229.577657 292.672207 
L 229.800787 292.135858 
L 230.023918 294.355597 
L 230.247048 295.401911 
L 230.470178 295.471665 
L 230.693308 285.131551 
L 230.916439 289.53034 
L 231.139569 286.207357 
L 231.362699 291.566364 
L 231.585829 294.005941 
L 231.80896 295.122672 
L 232.03209 295.122672 
L 232.478351 292.689614 
L 232.701481 294.908288 
L 232.924611 294.637723 
L 233.147741 293.95495 
L 233.370872 295.109925 
L 233.594002 295.470854 
L 233.817132 294.316693 
L 234.040262 294.62505 
L 234.263393 295.275252 
L 234.486523 294.616261 
L 235.155914 295.470509 
L 235.379044 294.299646 
L 235.602174 294.612078 
L 235.825305 290.740677 
L 236.048435 293.530154 
L 236.717826 295.470208 
L 267.956064 295.469541 
L 276.435014 291.097196 
L 276.658144 295.259261 
L 276.881275 292.88573 
L 277.104405 294.842619 
L 277.327535 295.390549 
L 277.550665 290.34919 
L 277.773796 281.477557 
L 277.996926 294.543185 
L 278.220056 288.71554 
L 278.443187 286.079997 
L 278.666317 294.842913 
L 278.889447 294.216991 
L 279.112577 279.266603 
L 279.335708 291.745754 
L 279.781968 285.067022 
L 280.005098 288.824251 
L 280.228229 294.556854 
L 280.451359 294.218109 
L 280.674489 286.040299 
L 281.12075 284.017988 
L 281.34388 287.078573 
L 281.56701 292.343826 
L 282.013271 295.260538 
L 282.236401 282.957168 
L 282.459531 292.373199 
L 282.682662 286.139419 
L 282.905792 293.823797 
L 283.128922 286.025069 
L 283.352052 295.389987 
L 283.575183 295.0752 
L 283.798313 280.474367 
L 284.021443 291.731114 
L 284.244574 286.899307 
L 284.467704 290.291579 
L 284.690834 290.299576 
L 284.913964 294.54067 
L 285.137095 295.070807 
L 285.360225 283.829802 
L 285.583355 291.701734 
L 285.806485 292.880266 
L 286.029616 287.974554 
L 286.252746 287.988146 
L 286.475876 293.390942 
L 286.699007 295.079316 
L 286.922137 288.835405 
L 287.145267 289.647277 
L 287.368397 287.042944 
L 287.591528 288.827261 
L 287.814658 292.372781 
L 288.037788 292.914639 
L 288.260918 294.849847 
L 288.484049 287.210334 
L 288.707179 292.962706 
L 288.930309 290.487864 
L 289.37657 288.856652 
L 289.5997 295.391193 
L 289.82283 292.901844 
L 290.045961 295.468787 
L 290.269091 289.658948 
L 290.492221 288.833104 
L 290.715351 291.745754 
L 290.938482 291.715179 
L 291.161612 295.389923 
L 291.384742 295.389923 
L 291.607873 286.995887 
L 291.831003 292.32508 
L 292.054133 290.393382 
L 292.277263 281.720856 
L 292.723524 295.082559 
L 292.946654 295.262965 
L 293.169784 272.386953 
L 293.392915 276.719989 
L 293.616045 285.171871 
L 293.839175 275.362602 
L 294.062306 276.972083 
L 294.285436 293.436824 
L 294.508566 293.436824 
L 294.731696 284.185435 
L 294.954827 287.105687 
L 295.177957 281.664879 
L 295.401087 287.962162 
L 295.624217 279.147732 
L 295.847348 294.553318 
L 296.070478 295.468761 
L 296.293608 280.412221 
L 296.516739 253.667149 
L 296.739869 289.619889 
L 296.962999 283.903307 
L 297.40926 293.364557 
L 297.63239 293.364557 
L 298.07865 268.660698 
L 298.301781 289.643231 
L 298.748041 293.84646 
L 298.971172 294.850988 
L 299.194302 295.263102 
L 299.417432 283.059934 
L 299.640562 288.059702 
L 299.863693 287.174929 
L 300.086823 288.109871 
L 300.309953 291.785791 
L 300.756214 294.567635 
L 300.979344 279.386771 
L 301.425604 292.346085 
L 301.871865 290.316657 
L 302.094995 294.200351 
L 302.318126 295.072201 
L 303.210647 281.23572 
L 303.656907 294.18178 
L 303.880037 295.253728 
L 304.103168 287.781673 
L 304.326298 289.476102 
L 304.549428 287.724509 
L 304.772559 281.253648 
L 305.218819 294.819295 
L 305.441949 294.170698 
L 305.88821 286.627942 
L 306.11134 290.869859 
L 306.33447 278.449201 
L 306.557601 281.084252 
L 306.780731 294.813883 
L 307.003861 294.514228 
L 307.450122 283.363454 
L 307.673252 282.171529 
L 307.896382 292.74547 
L 308.119513 293.270554 
L 308.342643 294.808385 
L 308.565773 292.172103 
L 308.788903 287.523832 
L 309.012034 285.502753 
L 309.235164 292.713587 
L 309.458294 295.383433 
L 309.681425 290.027514 
L 309.904555 294.128066 
L 310.127685 293.709642 
L 310.350815 279.439003 
L 310.573946 289.231789 
L 311.243336 282.236804 
L 311.466467 294.152669 
L 311.689597 295.056631 
L 311.912727 275.401539 
L 312.135858 268.990988 
L 312.582118 284.539458 
L 312.805248 283.380839 
L 313.028379 293.736864 
L 313.251509 295.24769 
L 313.474639 284.513454 
L 313.697769 292.187418 
L 313.9209 291.546669 
L 314.14403 286.610912 
L 314.36716 284.551354 
L 314.590291 294.509996 
L 314.813421 295.467557 
L 315.036551 284.650393 
L 315.259681 292.812349 
L 315.482812 295.468032 
L 315.929072 289.473457 
L 316.152202 294.183576 
L 316.375333 295.066723 
L 316.821593 290.976339 
L 317.044724 286.800262 
L 317.267854 292.230265 
L 317.490984 264.305352 
L 317.714114 293.768158 
L 317.937245 294.172867 
L 318.160375 269.387114 
L 318.383505 286.515228 
L 318.606635 268.860718 
L 318.829766 268.852742 
L 319.052896 276.810946 
L 319.276026 293.256156 
L 319.499157 295.467277 
L 319.722287 265.304149 
L 319.945417 253.238231 
L 320.168547 276.761855 
L 320.391678 287.501846 
L 320.614808 263.186043 
L 320.837938 293.70619 
L 321.507329 276.364921 
L 321.730459 238.245847 
L 321.95359 249.789679 
L 322.39985 293.196326 
L 322.62298 295.381406 
L 322.846111 273.076034 
L 323.069241 273.006087 
L 323.292371 287.271188 
L 323.515501 247.976934 
L 323.738632 287.355336 
L 323.961762 294.7908 
L 324.184892 290.735093 
L 324.408022 264.887646 
L 324.631153 217.138124 
L 324.854283 261.330433 
L 325.077413 283.449769 
L 325.523674 293.750055 
L 325.746804 295.058701 
L 325.969934 260.067354 
L 326.193065 251.484966 
L 326.416195 274.140424 
L 326.639325 282.366684 
L 326.862455 262.390316 
L 327.085586 292.224992 
L 327.308716 294.819312 
L 327.531846 252.094694 
L 327.754977 278.462169 
L 327.978107 265.796721 
L 328.201237 274.122531 
L 328.424367 267.498519 
L 328.647498 288.495817 
L 328.870628 294.155245 
L 329.093758 247.437549 
L 329.316888 270.801564 
L 329.540019 282.171194 
L 329.986279 277.006374 
L 330.43254 292.185577 
L 330.65567 292.152939 
L 357.654433 293.728587 
L 357.877563 295.467388 
L 358.100694 294.811116 
L 358.546954 295.467564 
L 358.993215 292.150596 
L 359.216345 294.493389 
L 359.439475 295.051884 
L 359.662605 294.803284 
L 359.885736 295.467251 
L 360.108866 295.384255 
L 360.331996 289.261045 
L 360.555127 294.806638 
L 360.778257 294.503746 
L 361.001387 295.24792 
L 361.224517 294.152974 
L 361.447648 295.248437 
L 361.670778 295.46753 
L 361.893908 288.438806 
L 362.117038 293.2775 
L 362.340169 292.165074 
L 363.00956 295.38563 
L 363.23269 295.057771 
L 363.45582 292.172856 
L 363.67895 294.8088 
L 363.902081 294.505489 
L 364.125211 293.288312 
L 364.348341 295.249894 
L 364.571471 295.249894 
L 364.794602 295.467691 
L 365.017732 293.766875 
L 365.463993 294.535939 
L 365.687123 293.333185 
L 366.356514 295.46826 
L 366.579644 293.781659 
L 366.802774 295.255384 
L 367.025904 295.071648 
L 367.249035 294.197064 
L 367.472165 293.803215 
L 367.918425 295.468483 
L 368.141556 293.353857 
L 368.364686 293.816051 
L 368.587816 295.257917 
L 368.810947 292.878813 
L 369.034077 294.551152 
L 369.257207 295.258975 
L 369.480337 295.4687 
L 369.703468 293.808925 
L 369.926598 295.389622 
L 370.149728 293.805207 
L 370.372858 294.544056 
L 370.595989 294.832211 
L 370.819119 295.388883 
L 371.042249 295.256342 
L 371.26538 295.468089 
L 371.71164 294.521847 
L 371.93477 293.763511 
L 372.157901 294.817756 
L 372.381031 295.251138 
L 372.604161 295.386571 
L 372.827291 293.771434 
L 373.050422 295.064798 
L 373.719813 293.344557 
L 373.942943 295.388726 
L 374.166073 295.468369 
L 374.389203 290.975287 
L 374.612334 292.253445 
L 374.835464 286.819309 
L 375.058594 290.984755 
L 375.281724 291.660902 
L 375.504855 294.829289 
L 375.727985 295.388416 
L 375.951115 292.265831 
L 376.174246 294.537881 
L 376.397376 294.533823 
L 376.620506 295.072998 
L 376.843636 293.79839 
L 377.066767 295.256342 
L 377.289897 295.468408 
L 377.513027 294.196149 
L 377.736157 288.726695 
L 377.959288 291.684107 
L 378.182418 290.295781 
L 378.405548 291.654826 
L 378.851809 295.468249 
L 379.298069 292.275371 
L 379.5212 293.348927 
L 379.74433 293.343437 
L 379.96746 295.068826 
L 380.413721 295.388394 
L 380.636851 291.679824 
L 380.859981 291.661897 
L 381.083112 293.318452 
L 381.306242 290.917313 
L 381.529372 294.174426 
L 381.752502 295.252377 
L 381.975633 295.467967 
L 382.198763 287.646757 
L 382.645023 294.516793 
L 382.868154 294.51495 
L 383.091284 293.265288 
L 383.314414 295.24718 
L 383.537545 295.46739 
L 383.760675 293.27145 
L 383.983805 293.74461 
L 384.206935 287.596388 
L 384.430066 294.504966 
L 384.653196 294.50656 
L 384.876326 295.385099 
L 385.099456 295.247827 
L 385.322587 293.282766 
L 385.545717 292.763867 
L 385.768847 286.765977 
L 385.991978 293.312065 
L 386.215108 293.774754 
L 386.438238 295.064875 
L 386.661368 295.253018 
L 386.884499 293.762802 
L 387.107629 293.761165 
L 387.330759 294.516295 
L 387.553889 294.144231 
L 387.77702 293.262151 
L 388.00015 295.467351 
L 388.44641 294.478948 
L 388.669541 292.670568 
L 388.892671 292.032014 
L 389.115801 292.032432 
L 389.338932 295.378813 
L 389.562062 295.46589 
L 389.785192 295.378813 
L 390.231453 294.08828 
L 390.454583 294.459452 
L 390.677713 295.379057 
L 390.900843 293.162882 
L 391.123974 295.235801 
L 391.347104 295.379754 
L 391.793365 288.089302 
L 392.016495 292.609429 
L 392.239625 289.803304 
L 392.462755 288.935813 
L 392.685886 295.232552 
L 392.909016 295.37831 
L 393.132146 284.95547 
L 393.355276 282.738199 
L 393.578407 292.640759 
L 393.801537 294.784161 
L 394.024667 291.999209 
L 394.247798 295.466026 
L 394.694058 291.303065 
L 395.140319 293.646124 
L 395.363449 291.952596 
L 395.586579 288.913093 
L 395.809709 295.377906 
L 396.03284 295.465664 
L 396.25597 293.127757 
L 396.4791 294.760196 
L 396.702231 295.230473 
L 396.925361 293.626029 
L 397.148491 295.232247 
L 397.371621 295.378174 
L 397.817882 293.130894 
L 398.041012 294.766646 
L 398.487273 293.628729 
L 398.487273 293.628729 
" style="fill:none;stroke:#0000ff;stroke-linecap:square;stroke-width:1.5;"/>
   </g>
   <g id="patch_3">
    <path d="M 57.6 307.584 
L 57.6 41.472 
" style="fill:none;stroke:#000000;stroke-linecap:square;stroke-linejoin:miter;stroke-width:0.8;"/>
   </g>
   <g id="patch_4">
    <path d="M 414.72 307.584 
L 414.72 41.472 
" style="fill:none;stroke:#000000;stroke-linecap:square;stroke-linejoin:miter;stroke-width:0.8;"/>
   </g>
   <g id="patch_5">
    <path d="M 57.6 307.584 
L 414.72 307.584 
" style="fill:none;stroke:#000000;stroke-linecap:square;stroke-linejoin:miter;stroke-width:0.8;"/>
   </g>
   <g id="patch_6">
    <path d="M 57.6 41.472 
L 414.72 41.472 
" style="fill:none;stroke:#000000;stroke-linecap:square;stroke-linejoin:miter;stroke-width:0.8;"/>
   </g>
   <g id="text_20">
    <!-- PLN and USD total sales values during years 2013-2016 -->
    <defs>
     <path d="M 19.671875 64.796875 
L 19.671875 37.40625 
L 32.078125 37.40625 
Q 38.96875 37.40625 42.71875 40.96875 
Q 46.484375 44.53125 46.484375 51.125 
Q 46.484375 57.671875 42.71875 61.234375 
Q 38.96875 64.796875 32.078125 64.796875 
z
M 9.8125 72.90625 
L 32.078125 72.90625 
Q 44.34375 72.90625 50.609375 67.359375 
Q 56.890625 61.8125 56.890625 51.125 
Q 56.890625 40.328125 50.609375 34.8125 
Q 44.34375 29.296875 32.078125 29.296875 
L 19.671875 29.296875 
L 19.671875 0 
L 9.8125 0 
z
" id="DejaVuSans-80"/>
     <path d="M 9.8125 72.90625 
L 19.671875 72.90625 
L 19.671875 8.296875 
L 55.171875 8.296875 
L 55.171875 0 
L 9.8125 0 
z
" id="DejaVuSans-76"/>
     <path d="M 9.8125 72.90625 
L 23.09375 72.90625 
L 55.421875 11.921875 
L 55.421875 72.90625 
L 64.984375 72.90625 
L 64.984375 0 
L 51.703125 0 
L 19.390625 60.984375 
L 19.390625 0 
L 9.8125 0 
z
" id="DejaVuSans-78"/>
     <path d="M 54.890625 33.015625 
L 54.890625 0 
L 45.90625 0 
L 45.90625 32.71875 
Q 45.90625 40.484375 42.875 44.328125 
Q 39.84375 48.1875 33.796875 48.1875 
Q 26.515625 48.1875 22.3125 43.546875 
Q 18.109375 38.921875 18.109375 30.90625 
L 18.109375 0 
L 9.078125 0 
L 9.078125 54.6875 
L 18.109375 54.6875 
L 18.109375 46.1875 
Q 21.34375 51.125 25.703125 53.5625 
Q 30.078125 56 35.796875 56 
Q 45.21875 56 50.046875 50.171875 
Q 54.890625 44.34375 54.890625 33.015625 
z
" id="DejaVuSans-110"/>
     <path d="M 45.40625 46.390625 
L 45.40625 75.984375 
L 54.390625 75.984375 
L 54.390625 0 
L 45.40625 0 
L 45.40625 8.203125 
Q 42.578125 3.328125 38.25 0.953125 
Q 33.9375 -1.421875 27.875 -1.421875 
Q 17.96875 -1.421875 11.734375 6.484375 
Q 5.515625 14.40625 5.515625 27.296875 
Q 5.515625 40.1875 11.734375 48.09375 
Q 17.96875 56 27.875 56 
Q 33.9375 56 38.25 53.625 
Q 42.578125 51.265625 45.40625 46.390625 
z
M 14.796875 27.296875 
Q 14.796875 17.390625 18.875 11.75 
Q 22.953125 6.109375 30.078125 6.109375 
Q 37.203125 6.109375 41.296875 11.75 
Q 45.40625 17.390625 45.40625 27.296875 
Q 45.40625 37.203125 41.296875 42.84375 
Q 37.203125 48.484375 30.078125 48.484375 
Q 22.953125 48.484375 18.875 42.84375 
Q 14.796875 37.203125 14.796875 27.296875 
z
" id="DejaVuSans-100"/>
     <path d="M 8.6875 72.90625 
L 18.609375 72.90625 
L 18.609375 28.609375 
Q 18.609375 16.890625 22.84375 11.734375 
Q 27.09375 6.59375 36.625 6.59375 
Q 46.09375 6.59375 50.34375 11.734375 
Q 54.59375 16.890625 54.59375 28.609375 
L 54.59375 72.90625 
L 64.5 72.90625 
L 64.5 27.390625 
Q 64.5 13.140625 57.4375 5.859375 
Q 50.390625 -1.421875 36.625 -1.421875 
Q 22.796875 -1.421875 15.734375 5.859375 
Q 8.6875 13.140625 8.6875 27.390625 
z
" id="DejaVuSans-85"/>
     <path d="M 30.609375 48.390625 
Q 23.390625 48.390625 19.1875 42.75 
Q 14.984375 37.109375 14.984375 27.296875 
Q 14.984375 17.484375 19.15625 11.84375 
Q 23.34375 6.203125 30.609375 6.203125 
Q 37.796875 6.203125 41.984375 11.859375 
Q 46.1875 17.53125 46.1875 27.296875 
Q 46.1875 37.015625 41.984375 42.703125 
Q 37.796875 48.390625 30.609375 48.390625 
z
M 30.609375 56 
Q 42.328125 56 49.015625 48.375 
Q 55.71875 40.765625 55.71875 27.296875 
Q 55.71875 13.875 49.015625 6.21875 
Q 42.328125 -1.421875 30.609375 -1.421875 
Q 18.84375 -1.421875 12.171875 6.21875 
Q 5.515625 13.875 5.515625 27.296875 
Q 5.515625 40.765625 12.171875 48.375 
Q 18.84375 56 30.609375 56 
z
" id="DejaVuSans-111"/>
     <path d="M 2.984375 54.6875 
L 12.5 54.6875 
L 29.59375 8.796875 
L 46.6875 54.6875 
L 56.203125 54.6875 
L 35.6875 0 
L 23.484375 0 
z
" id="DejaVuSans-118"/>
     <path d="M 41.109375 46.296875 
Q 39.59375 47.171875 37.8125 47.578125 
Q 36.03125 48 33.890625 48 
Q 26.265625 48 22.1875 43.046875 
Q 18.109375 38.09375 18.109375 28.8125 
L 18.109375 0 
L 9.078125 0 
L 9.078125 54.6875 
L 18.109375 54.6875 
L 18.109375 46.1875 
Q 20.953125 51.171875 25.484375 53.578125 
Q 30.03125 56 36.53125 56 
Q 37.453125 56 38.578125 55.875 
Q 39.703125 55.765625 41.0625 55.515625 
z
" id="DejaVuSans-114"/>
     <path d="M 9.421875 54.6875 
L 18.40625 54.6875 
L 18.40625 0 
L 9.421875 0 
z
M 9.421875 75.984375 
L 18.40625 75.984375 
L 18.40625 64.59375 
L 9.421875 64.59375 
z
" id="DejaVuSans-105"/>
     <path d="M 45.40625 27.984375 
Q 45.40625 37.75 41.375 43.109375 
Q 37.359375 48.484375 30.078125 48.484375 
Q 22.859375 48.484375 18.828125 43.109375 
Q 14.796875 37.75 14.796875 27.984375 
Q 14.796875 18.265625 18.828125 12.890625 
Q 22.859375 7.515625 30.078125 7.515625 
Q 37.359375 7.515625 41.375 12.890625 
Q 45.40625 18.265625 45.40625 27.984375 
z
M 54.390625 6.78125 
Q 54.390625 -7.171875 48.1875 -13.984375 
Q 42 -20.796875 29.203125 -20.796875 
Q 24.46875 -20.796875 20.265625 -20.09375 
Q 16.0625 -19.390625 12.109375 -17.921875 
L 12.109375 -9.1875 
Q 16.0625 -11.328125 19.921875 -12.34375 
Q 23.78125 -13.375 27.78125 -13.375 
Q 36.625 -13.375 41.015625 -8.765625 
Q 45.40625 -4.15625 45.40625 5.171875 
L 45.40625 9.625 
Q 42.625 4.78125 38.28125 2.390625 
Q 33.9375 0 27.875 0 
Q 17.828125 0 11.671875 7.65625 
Q 5.515625 15.328125 5.515625 27.984375 
Q 5.515625 40.671875 11.671875 48.328125 
Q 17.828125 56 27.875 56 
Q 33.9375 56 38.28125 53.609375 
Q 42.625 51.21875 45.40625 46.390625 
L 45.40625 54.6875 
L 54.390625 54.6875 
z
" id="DejaVuSans-103"/>
     <path d="M 32.171875 -5.078125 
Q 28.375 -14.84375 24.75 -17.8125 
Q 21.140625 -20.796875 15.09375 -20.796875 
L 7.90625 -20.796875 
L 7.90625 -13.28125 
L 13.1875 -13.28125 
Q 16.890625 -13.28125 18.9375 -11.515625 
Q 21 -9.765625 23.484375 -3.21875 
L 25.09375 0.875 
L 2.984375 54.6875 
L 12.5 54.6875 
L 29.59375 11.921875 
L 46.6875 54.6875 
L 56.203125 54.6875 
z
" id="DejaVuSans-121"/>
    </defs>
    <g transform="translate(68.251875 35.472)scale(0.12 -0.12)">
     <use xlink:href="#DejaVuSans-80"/>
     <use x="60.302734" xlink:href="#DejaVuSans-76"/>
     <use x="116.015625" xlink:href="#DejaVuSans-78"/>
     <use x="190.820312" xlink:href="#DejaVuSans-32"/>
     <use x="222.607422" xlink:href="#DejaVuSans-97"/>
     <use x="283.886719" xlink:href="#DejaVuSans-110"/>
     <use x="347.265625" xlink:href="#DejaVuSans-100"/>
     <use x="410.742188" xlink:href="#DejaVuSans-32"/>
     <use x="442.529297" xlink:href="#DejaVuSans-85"/>
     <use x="515.722656" xlink:href="#DejaVuSans-83"/>
     <use x="579.199219" xlink:href="#DejaVuSans-68"/>
     <use x="656.201172" xlink:href="#DejaVuSans-32"/>
     <use x="687.988281" xlink:href="#DejaVuSans-116"/>
     <use x="727.197266" xlink:href="#DejaVuSans-111"/>
     <use x="788.378906" xlink:href="#DejaVuSans-116"/>
     <use x="827.587891" xlink:href="#DejaVuSans-97"/>
     <use x="888.867188" xlink:href="#DejaVuSans-108"/>
     <use x="916.650391" xlink:href="#DejaVuSans-32"/>
     <use x="948.4375" xlink:href="#DejaVuSans-115"/>
     <use x="1000.537109" xlink:href="#DejaVuSans-97"/>
     <use x="1061.816406" xlink:href="#DejaVuSans-108"/>
     <use x="1089.599609" xlink:href="#DejaVuSans-101"/>
     <use x="1151.123047" xlink:href="#DejaVuSans-115"/>
     <use x="1203.222656" xlink:href="#DejaVuSans-32"/>
     <use x="1235.009766" xlink:href="#DejaVuSans-118"/>
     <use x="1294.189453" xlink:href="#DejaVuSans-97"/>
     <use x="1355.46875" xlink:href="#DejaVuSans-108"/>
     <use x="1383.251953" xlink:href="#DejaVuSans-117"/>
     <use x="1446.630859" xlink:href="#DejaVuSans-101"/>
     <use x="1508.154297" xlink:href="#DejaVuSans-115"/>
     <use x="1560.253906" xlink:href="#DejaVuSans-32"/>
     <use x="1592.041016" xlink:href="#DejaVuSans-100"/>
     <use x="1655.517578" xlink:href="#DejaVuSans-117"/>
     <use x="1718.896484" xlink:href="#DejaVuSans-114"/>
     <use x="1760.009766" xlink:href="#DejaVuSans-105"/>
     <use x="1787.792969" xlink:href="#DejaVuSans-110"/>
     <use x="1851.171875" xlink:href="#DejaVuSans-103"/>
     <use x="1914.648438" xlink:href="#DejaVuSans-32"/>
     <use x="1946.435547" xlink:href="#DejaVuSans-121"/>
     <use x="2005.615234" xlink:href="#DejaVuSans-101"/>
     <use x="2067.138672" xlink:href="#DejaVuSans-97"/>
     <use x="2128.417969" xlink:href="#DejaVuSans-114"/>
     <use x="2169.53125" xlink:href="#DejaVuSans-115"/>
     <use x="2221.630859" xlink:href="#DejaVuSans-32"/>
     <use x="2253.417969" xlink:href="#DejaVuSans-50"/>
     <use x="2317.041016" xlink:href="#DejaVuSans-48"/>
     <use x="2380.664062" xlink:href="#DejaVuSans-49"/>
     <use x="2444.287109" xlink:href="#DejaVuSans-51"/>
     <use x="2507.910156" xlink:href="#DejaVuSans-45"/>
     <use x="2543.994141" xlink:href="#DejaVuSans-50"/>
     <use x="2607.617188" xlink:href="#DejaVuSans-48"/>
     <use x="2671.240234" xlink:href="#DejaVuSans-49"/>
     <use x="2734.863281" xlink:href="#DejaVuSans-54"/>
    </g>
   </g>
   <g id="legend_1">
    <g id="patch_7">
     <path d="M 64.6 78.82825 
L 152.575 78.82825 
Q 154.575 78.82825 154.575 76.82825 
L 154.575 48.472 
Q 154.575 46.472 152.575 46.472 
L 64.6 46.472 
Q 62.6 46.472 62.6 48.472 
L 62.6 76.82825 
Q 62.6 78.82825 64.6 78.82825 
z
" style="fill:#ffffff;opacity:0.8;stroke:#cccccc;stroke-linejoin:miter;"/>
    </g>
    <g id="line2d_20">
     <path d="M 66.6 54.570437 
L 86.6 54.570437 
" style="fill:none;stroke:#ff0000;stroke-linecap:square;stroke-width:1.5;"/>
    </g>
    <g id="line2d_21"/>
    <g id="text_21">
     <!-- USD SALES -->
     <defs>
      <path d="M 34.1875 63.1875 
L 20.796875 26.90625 
L 47.609375 26.90625 
z
M 28.609375 72.90625 
L 39.796875 72.90625 
L 67.578125 0 
L 57.328125 0 
L 50.6875 18.703125 
L 17.828125 18.703125 
L 11.1875 0 
L 0.78125 0 
z
" id="DejaVuSans-65"/>
      <path d="M 9.8125 72.90625 
L 55.90625 72.90625 
L 55.90625 64.59375 
L 19.671875 64.59375 
L 19.671875 43.015625 
L 54.390625 43.015625 
L 54.390625 34.71875 
L 19.671875 34.71875 
L 19.671875 8.296875 
L 56.78125 8.296875 
L 56.78125 0 
L 9.8125 0 
z
" id="DejaVuSans-69"/>
     </defs>
     <g transform="translate(94.6 58.070437)scale(0.1 -0.1)">
      <use xlink:href="#DejaVuSans-85"/>
      <use x="73.193359" xlink:href="#DejaVuSans-83"/>
      <use x="136.669922" xlink:href="#DejaVuSans-68"/>
      <use x="213.671875" xlink:href="#DejaVuSans-32"/>
      <use x="245.458984" xlink:href="#DejaVuSans-83"/>
      <use x="308.951172" xlink:href="#DejaVuSans-65"/>
      <use x="377.359375" xlink:href="#DejaVuSans-76"/>
      <use x="433.072266" xlink:href="#DejaVuSans-69"/>
      <use x="496.255859" xlink:href="#DejaVuSans-83"/>
     </g>
    </g>
    <g id="line2d_22">
     <path d="M 66.6 69.248562 
L 86.6 69.248562 
" style="fill:none;stroke:#0000ff;stroke-linecap:square;stroke-width:1.5;"/>
    </g>
    <g id="line2d_23"/>
    <g id="text_22">
     <!-- PLN SALES -->
     <g transform="translate(94.6 72.748562)scale(0.1 -0.1)">
      <use xlink:href="#DejaVuSans-80"/>
      <use x="60.302734" xlink:href="#DejaVuSans-76"/>
      <use x="116.015625" xlink:href="#DejaVuSans-78"/>
      <use x="190.820312" xlink:href="#DejaVuSans-32"/>
      <use x="222.607422" xlink:href="#DejaVuSans-83"/>
      <use x="286.099609" xlink:href="#DejaVuSans-65"/>
      <use x="354.507812" xlink:href="#DejaVuSans-76"/>
      <use x="410.220703" xlink:href="#DejaVuSans-69"/>
      <use x="473.404297" xlink:href="#DejaVuSans-83"/>
     </g>
    </g>
   </g>
  </g>
 </g>
 <defs>
  <clipPath id="p65229b4e1c">
   <rect height="266.112" width="357.12" x="57.6" y="41.472"/>
  </clipPath>
 </defs>
</svg>
