<?xml version="1.0" encoding="utf-8" standalone="no"?>
<!DOCTYPE svg PUBLIC "-//W3C//DTD SVG 1.1//EN"
  "http://www.w3.org/Graphics/SVG/1.1/DTD/svg11.dtd">
<!-- Created with matplotlib (https://matplotlib.org/) -->
<svg height="345.6pt" version="1.1" viewBox="0 0 460.8 345.6" width="460.8pt" xmlns="http://www.w3.org/2000/svg" xmlns:xlink="http://www.w3.org/1999/xlink">
 <metadata>
  <rdf:RDF xmlns:cc="http://creativecommons.org/ns#" xmlns:dc="http://purl.org/dc/elements/1.1/" xmlns:rdf="http://www.w3.org/1999/02/22-rdf-syntax-ns#">
   <cc:Work>
    <dc:type rdf:resource="http://purl.org/dc/dcmitype/StillImage"/>
    <dc:date>2020-11-22T01:05:53.957694</dc:date>
    <dc:format>image/svg+xml</dc:format>
    <dc:creator>
     <cc:Agent>
      <dc:title>Matplotlib v3.3.3, https://matplotlib.org/</dc:title>
     </cc:Agent>
    </dc:creator>
   </cc:Work>
  </rdf:RDF>
 </metadata>
 <defs>
  <style type="text/css">*{stroke-linecap:butt;stroke-linejoin:round;}</style>
 </defs>
 <g id="figure_1">
  <g id="patch_1">
   <path d="M 0 345.6 
L 460.8 345.6 
L 460.8 0 
L 0 0 
z
" style="fill:#ffffff;"/>
  </g>
  <g id="axes_1">
   <g id="patch_2">
    <path d="M 57.6 307.584 
L 414.72 307.584 
L 414.72 41.472 
L 57.6 41.472 
z
" style="fill:#ffffff;"/>
   </g>
   <g id="matplotlib.axis_1">
    <g id="xtick_1">
     <g id="line2d_1">
      <defs>
       <path d="M 0 0 
L 0 3.5 
" id="mf1b672f5f8" style="stroke:#000000;stroke-width:0.8;"/>
      </defs>
      <g>
       <use style="stroke:#000000;stroke-width:0.8;" x="73.832727" xlink:href="#mf1b672f5f8" y="307.584"/>
      </g>
     </g>
     <g id="text_1">
      <!-- 2012-01 -->
      <g transform="translate(52.941321 322.182437)scale(0.1 -0.1)">
       <defs>
        <path d="M 19.1875 8.296875 
L 53.609375 8.296875 
L 53.609375 0 
L 7.328125 0 
L 7.328125 8.296875 
Q 12.9375 14.109375 22.625 23.890625 
Q 32.328125 33.6875 34.8125 36.53125 
Q 39.546875 41.84375 41.421875 45.53125 
Q 43.3125 49.21875 43.3125 52.78125 
Q 43.3125 58.59375 39.234375 62.25 
Q 35.15625 65.921875 28.609375 65.921875 
Q 23.96875 65.921875 18.8125 64.3125 
Q 13.671875 62.703125 7.8125 59.421875 
L 7.8125 69.390625 
Q 13.765625 71.78125 18.9375 73 
Q 24.125 74.21875 28.421875 74.21875 
Q 39.75 74.21875 46.484375 68.546875 
Q 53.21875 62.890625 53.21875 53.421875 
Q 53.21875 48.921875 51.53125 44.890625 
Q 49.859375 40.875 45.40625 35.40625 
Q 44.1875 33.984375 37.640625 27.21875 
Q 31.109375 20.453125 19.1875 8.296875 
z
" id="DejaVuSans-50"/>
        <path d="M 31.78125 66.40625 
Q 24.171875 66.40625 20.328125 58.90625 
Q 16.5 51.421875 16.5 36.375 
Q 16.5 21.390625 20.328125 13.890625 
Q 24.171875 6.390625 31.78125 6.390625 
Q 39.453125 6.390625 43.28125 13.890625 
Q 47.125 21.390625 47.125 36.375 
Q 47.125 51.421875 43.28125 58.90625 
Q 39.453125 66.40625 31.78125 66.40625 
z
M 31.78125 74.21875 
Q 44.046875 74.21875 50.515625 64.515625 
Q 56.984375 54.828125 56.984375 36.375 
Q 56.984375 17.96875 50.515625 8.265625 
Q 44.046875 -1.421875 31.78125 -1.421875 
Q 19.53125 -1.421875 13.0625 8.265625 
Q 6.59375 17.96875 6.59375 36.375 
Q 6.59375 54.828125 13.0625 64.515625 
Q 19.53125 74.21875 31.78125 74.21875 
z
" id="DejaVuSans-48"/>
        <path d="M 12.40625 8.296875 
L 28.515625 8.296875 
L 28.515625 63.921875 
L 10.984375 60.40625 
L 10.984375 69.390625 
L 28.421875 72.90625 
L 38.28125 72.90625 
L 38.28125 8.296875 
L 54.390625 8.296875 
L 54.390625 0 
L 12.40625 0 
z
" id="DejaVuSans-49"/>
        <path d="M 4.890625 31.390625 
L 31.203125 31.390625 
L 31.203125 23.390625 
L 4.890625 23.390625 
z
" id="DejaVuSans-45"/>
       </defs>
       <use xlink:href="#DejaVuSans-50"/>
       <use x="63.623047" xlink:href="#DejaVuSans-48"/>
       <use x="127.246094" xlink:href="#DejaVuSans-49"/>
       <use x="190.869141" xlink:href="#DejaVuSans-50"/>
       <use x="254.492188" xlink:href="#DejaVuSans-45"/>
       <use x="290.576172" xlink:href="#DejaVuSans-48"/>
       <use x="354.199219" xlink:href="#DejaVuSans-49"/>
      </g>
     </g>
    </g>
    <g id="xtick_2">
     <g id="line2d_2">
      <g>
       <use style="stroke:#000000;stroke-width:0.8;" x="106.369692" xlink:href="#mf1b672f5f8" y="307.584"/>
      </g>
     </g>
     <g id="text_2">
      <!-- 2012-04 -->
      <g transform="translate(85.478285 322.182437)scale(0.1 -0.1)">
       <defs>
        <path d="M 37.796875 64.3125 
L 12.890625 25.390625 
L 37.796875 25.390625 
z
M 35.203125 72.90625 
L 47.609375 72.90625 
L 47.609375 25.390625 
L 58.015625 25.390625 
L 58.015625 17.1875 
L 47.609375 17.1875 
L 47.609375 0 
L 37.796875 0 
L 37.796875 17.1875 
L 4.890625 17.1875 
L 4.890625 26.703125 
z
" id="DejaVuSans-52"/>
       </defs>
       <use xlink:href="#DejaVuSans-50"/>
       <use x="63.623047" xlink:href="#DejaVuSans-48"/>
       <use x="127.246094" xlink:href="#DejaVuSans-49"/>
       <use x="190.869141" xlink:href="#DejaVuSans-50"/>
       <use x="254.492188" xlink:href="#DejaVuSans-45"/>
       <use x="290.576172" xlink:href="#DejaVuSans-48"/>
       <use x="354.199219" xlink:href="#DejaVuSans-52"/>
      </g>
     </g>
    </g>
    <g id="xtick_3">
     <g id="line2d_3">
      <g>
       <use style="stroke:#000000;stroke-width:0.8;" x="138.906656" xlink:href="#mf1b672f5f8" y="307.584"/>
      </g>
     </g>
     <g id="text_3">
      <!-- 2012-07 -->
      <g transform="translate(118.01525 322.182437)scale(0.1 -0.1)">
       <defs>
        <path d="M 8.203125 72.90625 
L 55.078125 72.90625 
L 55.078125 68.703125 
L 28.609375 0 
L 18.3125 0 
L 43.21875 64.59375 
L 8.203125 64.59375 
z
" id="DejaVuSans-55"/>
       </defs>
       <use xlink:href="#DejaVuSans-50"/>
       <use x="63.623047" xlink:href="#DejaVuSans-48"/>
       <use x="127.246094" xlink:href="#DejaVuSans-49"/>
       <use x="190.869141" xlink:href="#DejaVuSans-50"/>
       <use x="254.492188" xlink:href="#DejaVuSans-45"/>
       <use x="290.576172" xlink:href="#DejaVuSans-48"/>
       <use x="354.199219" xlink:href="#DejaVuSans-55"/>
      </g>
     </g>
    </g>
    <g id="xtick_4">
     <g id="line2d_4">
      <g>
       <use style="stroke:#000000;stroke-width:0.8;" x="171.801169" xlink:href="#mf1b672f5f8" y="307.584"/>
      </g>
     </g>
     <g id="text_4">
      <!-- 2012-10 -->
      <g transform="translate(150.909763 322.182437)scale(0.1 -0.1)">
       <use xlink:href="#DejaVuSans-50"/>
       <use x="63.623047" xlink:href="#DejaVuSans-48"/>
       <use x="127.246094" xlink:href="#DejaVuSans-49"/>
       <use x="190.869141" xlink:href="#DejaVuSans-50"/>
       <use x="254.492188" xlink:href="#DejaVuSans-45"/>
       <use x="290.576172" xlink:href="#DejaVuSans-49"/>
       <use x="354.199219" xlink:href="#DejaVuSans-48"/>
      </g>
     </g>
    </g>
    <g id="xtick_5">
     <g id="line2d_5">
      <g>
       <use style="stroke:#000000;stroke-width:0.8;" x="204.695683" xlink:href="#mf1b672f5f8" y="307.584"/>
      </g>
     </g>
     <g id="text_5">
      <!-- 2013-01 -->
      <g transform="translate(183.804277 322.182437)scale(0.1 -0.1)">
       <defs>
        <path d="M 40.578125 39.3125 
Q 47.65625 37.796875 51.625 33 
Q 55.609375 28.21875 55.609375 21.1875 
Q 55.609375 10.40625 48.1875 4.484375 
Q 40.765625 -1.421875 27.09375 -1.421875 
Q 22.515625 -1.421875 17.65625 -0.515625 
Q 12.796875 0.390625 7.625 2.203125 
L 7.625 11.71875 
Q 11.71875 9.328125 16.59375 8.109375 
Q 21.484375 6.890625 26.8125 6.890625 
Q 36.078125 6.890625 40.9375 10.546875 
Q 45.796875 14.203125 45.796875 21.1875 
Q 45.796875 27.640625 41.28125 31.265625 
Q 36.765625 34.90625 28.71875 34.90625 
L 20.21875 34.90625 
L 20.21875 43.015625 
L 29.109375 43.015625 
Q 36.375 43.015625 40.234375 45.921875 
Q 44.09375 48.828125 44.09375 54.296875 
Q 44.09375 59.90625 40.109375 62.90625 
Q 36.140625 65.921875 28.71875 65.921875 
Q 24.65625 65.921875 20.015625 65.03125 
Q 15.375 64.15625 9.8125 62.3125 
L 9.8125 71.09375 
Q 15.4375 72.65625 20.34375 73.4375 
Q 25.25 74.21875 29.59375 74.21875 
Q 40.828125 74.21875 47.359375 69.109375 
Q 53.90625 64.015625 53.90625 55.328125 
Q 53.90625 49.265625 50.4375 45.09375 
Q 46.96875 40.921875 40.578125 39.3125 
z
" id="DejaVuSans-51"/>
       </defs>
       <use xlink:href="#DejaVuSans-50"/>
       <use x="63.623047" xlink:href="#DejaVuSans-48"/>
       <use x="127.246094" xlink:href="#DejaVuSans-49"/>
       <use x="190.869141" xlink:href="#DejaVuSans-51"/>
       <use x="254.492188" xlink:href="#DejaVuSans-45"/>
       <use x="290.576172" xlink:href="#DejaVuSans-48"/>
       <use x="354.199219" xlink:href="#DejaVuSans-49"/>
      </g>
     </g>
    </g>
    <g id="xtick_6">
     <g id="line2d_6">
      <g>
       <use style="stroke:#000000;stroke-width:0.8;" x="236.875098" xlink:href="#mf1b672f5f8" y="307.584"/>
      </g>
     </g>
     <g id="text_6">
      <!-- 2013-04 -->
      <g transform="translate(215.983692 322.182437)scale(0.1 -0.1)">
       <use xlink:href="#DejaVuSans-50"/>
       <use x="63.623047" xlink:href="#DejaVuSans-48"/>
       <use x="127.246094" xlink:href="#DejaVuSans-49"/>
       <use x="190.869141" xlink:href="#DejaVuSans-51"/>
       <use x="254.492188" xlink:href="#DejaVuSans-45"/>
       <use x="290.576172" xlink:href="#DejaVuSans-48"/>
       <use x="354.199219" xlink:href="#DejaVuSans-52"/>
      </g>
     </g>
    </g>
    <g id="xtick_7">
     <g id="line2d_7">
      <g>
       <use style="stroke:#000000;stroke-width:0.8;" x="269.412062" xlink:href="#mf1b672f5f8" y="307.584"/>
      </g>
     </g>
     <g id="text_7">
      <!-- 2013-07 -->
      <g transform="translate(248.520656 322.182437)scale(0.1 -0.1)">
       <use xlink:href="#DejaVuSans-50"/>
       <use x="63.623047" xlink:href="#DejaVuSans-48"/>
       <use x="127.246094" xlink:href="#DejaVuSans-49"/>
       <use x="190.869141" xlink:href="#DejaVuSans-51"/>
       <use x="254.492188" xlink:href="#DejaVuSans-45"/>
       <use x="290.576172" xlink:href="#DejaVuSans-48"/>
       <use x="354.199219" xlink:href="#DejaVuSans-55"/>
      </g>
     </g>
    </g>
    <g id="xtick_8">
     <g id="line2d_8">
      <g>
       <use style="stroke:#000000;stroke-width:0.8;" x="302.306576" xlink:href="#mf1b672f5f8" y="307.584"/>
      </g>
     </g>
     <g id="text_8">
      <!-- 2013-10 -->
      <g transform="translate(281.41517 322.182437)scale(0.1 -0.1)">
       <use xlink:href="#DejaVuSans-50"/>
       <use x="63.623047" xlink:href="#DejaVuSans-48"/>
       <use x="127.246094" xlink:href="#DejaVuSans-49"/>
       <use x="190.869141" xlink:href="#DejaVuSans-51"/>
       <use x="254.492188" xlink:href="#DejaVuSans-45"/>
       <use x="290.576172" xlink:href="#DejaVuSans-49"/>
       <use x="354.199219" xlink:href="#DejaVuSans-48"/>
      </g>
     </g>
    </g>
    <g id="xtick_9">
     <g id="line2d_9">
      <g>
       <use style="stroke:#000000;stroke-width:0.8;" x="335.201089" xlink:href="#mf1b672f5f8" y="307.584"/>
      </g>
     </g>
     <g id="text_9">
      <!-- 2014-01 -->
      <g transform="translate(314.309683 322.182437)scale(0.1 -0.1)">
       <use xlink:href="#DejaVuSans-50"/>
       <use x="63.623047" xlink:href="#DejaVuSans-48"/>
       <use x="127.246094" xlink:href="#DejaVuSans-49"/>
       <use x="190.869141" xlink:href="#DejaVuSans-52"/>
       <use x="254.492188" xlink:href="#DejaVuSans-45"/>
       <use x="290.576172" xlink:href="#DejaVuSans-48"/>
       <use x="354.199219" xlink:href="#DejaVuSans-49"/>
      </g>
     </g>
    </g>
    <g id="xtick_10">
     <g id="line2d_10">
      <g>
       <use style="stroke:#000000;stroke-width:0.8;" x="367.380505" xlink:href="#mf1b672f5f8" y="307.584"/>
      </g>
     </g>
     <g id="text_10">
      <!-- 2014-04 -->
      <g transform="translate(346.489098 322.182437)scale(0.1 -0.1)">
       <use xlink:href="#DejaVuSans-50"/>
       <use x="63.623047" xlink:href="#DejaVuSans-48"/>
       <use x="127.246094" xlink:href="#DejaVuSans-49"/>
       <use x="190.869141" xlink:href="#DejaVuSans-52"/>
       <use x="254.492188" xlink:href="#DejaVuSans-45"/>
       <use x="290.576172" xlink:href="#DejaVuSans-48"/>
       <use x="354.199219" xlink:href="#DejaVuSans-52"/>
      </g>
     </g>
    </g>
    <g id="xtick_11">
     <g id="line2d_11">
      <g>
       <use style="stroke:#000000;stroke-width:0.8;" x="399.917469" xlink:href="#mf1b672f5f8" y="307.584"/>
      </g>
     </g>
     <g id="text_11">
      <!-- 2014-07 -->
      <g transform="translate(379.026063 322.182437)scale(0.1 -0.1)">
       <use xlink:href="#DejaVuSans-50"/>
       <use x="63.623047" xlink:href="#DejaVuSans-48"/>
       <use x="127.246094" xlink:href="#DejaVuSans-49"/>
       <use x="190.869141" xlink:href="#DejaVuSans-52"/>
       <use x="254.492188" xlink:href="#DejaVuSans-45"/>
       <use x="290.576172" xlink:href="#DejaVuSans-48"/>
       <use x="354.199219" xlink:href="#DejaVuSans-55"/>
      </g>
     </g>
    </g>
    <g id="text_12">
     <!-- Date -->
     <g transform="translate(224.209219 335.860562)scale(0.1 -0.1)">
      <defs>
       <path d="M 19.671875 64.796875 
L 19.671875 8.109375 
L 31.59375 8.109375 
Q 46.6875 8.109375 53.6875 14.9375 
Q 60.6875 21.78125 60.6875 36.53125 
Q 60.6875 51.171875 53.6875 57.984375 
Q 46.6875 64.796875 31.59375 64.796875 
z
M 9.8125 72.90625 
L 30.078125 72.90625 
Q 51.265625 72.90625 61.171875 64.09375 
Q 71.09375 55.28125 71.09375 36.53125 
Q 71.09375 17.671875 61.125 8.828125 
Q 51.171875 0 30.078125 0 
L 9.8125 0 
z
" id="DejaVuSans-68"/>
       <path d="M 34.28125 27.484375 
Q 23.390625 27.484375 19.1875 25 
Q 14.984375 22.515625 14.984375 16.5 
Q 14.984375 11.71875 18.140625 8.90625 
Q 21.296875 6.109375 26.703125 6.109375 
Q 34.1875 6.109375 38.703125 11.40625 
Q 43.21875 16.703125 43.21875 25.484375 
L 43.21875 27.484375 
z
M 52.203125 31.203125 
L 52.203125 0 
L 43.21875 0 
L 43.21875 8.296875 
Q 40.140625 3.328125 35.546875 0.953125 
Q 30.953125 -1.421875 24.3125 -1.421875 
Q 15.921875 -1.421875 10.953125 3.296875 
Q 6 8.015625 6 15.921875 
Q 6 25.140625 12.171875 29.828125 
Q 18.359375 34.515625 30.609375 34.515625 
L 43.21875 34.515625 
L 43.21875 35.40625 
Q 43.21875 41.609375 39.140625 45 
Q 35.0625 48.390625 27.6875 48.390625 
Q 23 48.390625 18.546875 47.265625 
Q 14.109375 46.140625 10.015625 43.890625 
L 10.015625 52.203125 
Q 14.9375 54.109375 19.578125 55.046875 
Q 24.21875 56 28.609375 56 
Q 40.484375 56 46.34375 49.84375 
Q 52.203125 43.703125 52.203125 31.203125 
z
" id="DejaVuSans-97"/>
       <path d="M 18.3125 70.21875 
L 18.3125 54.6875 
L 36.8125 54.6875 
L 36.8125 47.703125 
L 18.3125 47.703125 
L 18.3125 18.015625 
Q 18.3125 11.328125 20.140625 9.421875 
Q 21.96875 7.515625 27.59375 7.515625 
L 36.8125 7.515625 
L 36.8125 0 
L 27.59375 0 
Q 17.1875 0 13.234375 3.875 
Q 9.28125 7.765625 9.28125 18.015625 
L 9.28125 47.703125 
L 2.6875 47.703125 
L 2.6875 54.6875 
L 9.28125 54.6875 
L 9.28125 70.21875 
z
" id="DejaVuSans-116"/>
       <path d="M 56.203125 29.59375 
L 56.203125 25.203125 
L 14.890625 25.203125 
Q 15.484375 15.921875 20.484375 11.0625 
Q 25.484375 6.203125 34.421875 6.203125 
Q 39.59375 6.203125 44.453125 7.46875 
Q 49.3125 8.734375 54.109375 11.28125 
L 54.109375 2.78125 
Q 49.265625 0.734375 44.1875 -0.34375 
Q 39.109375 -1.421875 33.890625 -1.421875 
Q 20.796875 -1.421875 13.15625 6.1875 
Q 5.515625 13.8125 5.515625 26.8125 
Q 5.515625 40.234375 12.765625 48.109375 
Q 20.015625 56 32.328125 56 
Q 43.359375 56 49.78125 48.890625 
Q 56.203125 41.796875 56.203125 29.59375 
z
M 47.21875 32.234375 
Q 47.125 39.59375 43.09375 43.984375 
Q 39.0625 48.390625 32.421875 48.390625 
Q 24.90625 48.390625 20.390625 44.140625 
Q 15.875 39.890625 15.1875 32.171875 
z
" id="DejaVuSans-101"/>
      </defs>
      <use xlink:href="#DejaVuSans-68"/>
      <use x="77.001953" xlink:href="#DejaVuSans-97"/>
      <use x="138.28125" xlink:href="#DejaVuSans-116"/>
      <use x="177.490234" xlink:href="#DejaVuSans-101"/>
     </g>
    </g>
   </g>
   <g id="matplotlib.axis_2">
    <g id="ytick_1">
     <g id="line2d_12">
      <defs>
       <path d="M 0 0 
L -3.5 0 
" id="m2b1704f606" style="stroke:#000000;stroke-width:0.8;"/>
      </defs>
      <g>
       <use style="stroke:#000000;stroke-width:0.8;" x="57.6" xlink:href="#m2b1704f606" y="307.584"/>
      </g>
     </g>
     <g id="text_13">
      <!-- 0 -->
      <g transform="translate(44.2375 311.383219)scale(0.1 -0.1)">
       <use xlink:href="#DejaVuSans-48"/>
      </g>
     </g>
    </g>
    <g id="ytick_2">
     <g id="line2d_13">
      <g>
       <use style="stroke:#000000;stroke-width:0.8;" x="57.6" xlink:href="#m2b1704f606" y="269.568"/>
      </g>
     </g>
     <g id="text_14">
      <!-- 50000 -->
      <g transform="translate(18.7875 273.367219)scale(0.1 -0.1)">
       <defs>
        <path d="M 10.796875 72.90625 
L 49.515625 72.90625 
L 49.515625 64.59375 
L 19.828125 64.59375 
L 19.828125 46.734375 
Q 21.96875 47.46875 24.109375 47.828125 
Q 26.265625 48.1875 28.421875 48.1875 
Q 40.625 48.1875 47.75 41.5 
Q 54.890625 34.8125 54.890625 23.390625 
Q 54.890625 11.625 47.5625 5.09375 
Q 40.234375 -1.421875 26.90625 -1.421875 
Q 22.3125 -1.421875 17.546875 -0.640625 
Q 12.796875 0.140625 7.71875 1.703125 
L 7.71875 11.625 
Q 12.109375 9.234375 16.796875 8.0625 
Q 21.484375 6.890625 26.703125 6.890625 
Q 35.15625 6.890625 40.078125 11.328125 
Q 45.015625 15.765625 45.015625 23.390625 
Q 45.015625 31 40.078125 35.4375 
Q 35.15625 39.890625 26.703125 39.890625 
Q 22.75 39.890625 18.8125 39.015625 
Q 14.890625 38.140625 10.796875 36.28125 
z
" id="DejaVuSans-53"/>
       </defs>
       <use xlink:href="#DejaVuSans-53"/>
       <use x="63.623047" xlink:href="#DejaVuSans-48"/>
       <use x="127.246094" xlink:href="#DejaVuSans-48"/>
       <use x="190.869141" xlink:href="#DejaVuSans-48"/>
       <use x="254.492188" xlink:href="#DejaVuSans-48"/>
      </g>
     </g>
    </g>
    <g id="ytick_3">
     <g id="line2d_14">
      <g>
       <use style="stroke:#000000;stroke-width:0.8;" x="57.6" xlink:href="#m2b1704f606" y="231.552"/>
      </g>
     </g>
     <g id="text_15">
      <!-- 100000 -->
      <g transform="translate(12.425 235.351219)scale(0.1 -0.1)">
       <use xlink:href="#DejaVuSans-49"/>
       <use x="63.623047" xlink:href="#DejaVuSans-48"/>
       <use x="127.246094" xlink:href="#DejaVuSans-48"/>
       <use x="190.869141" xlink:href="#DejaVuSans-48"/>
       <use x="254.492188" xlink:href="#DejaVuSans-48"/>
       <use x="318.115234" xlink:href="#DejaVuSans-48"/>
      </g>
     </g>
    </g>
    <g id="ytick_4">
     <g id="line2d_15">
      <g>
       <use style="stroke:#000000;stroke-width:0.8;" x="57.6" xlink:href="#m2b1704f606" y="193.536"/>
      </g>
     </g>
     <g id="text_16">
      <!-- 150000 -->
      <g transform="translate(12.425 197.335219)scale(0.1 -0.1)">
       <use xlink:href="#DejaVuSans-49"/>
       <use x="63.623047" xlink:href="#DejaVuSans-53"/>
       <use x="127.246094" xlink:href="#DejaVuSans-48"/>
       <use x="190.869141" xlink:href="#DejaVuSans-48"/>
       <use x="254.492188" xlink:href="#DejaVuSans-48"/>
       <use x="318.115234" xlink:href="#DejaVuSans-48"/>
      </g>
     </g>
    </g>
    <g id="ytick_5">
     <g id="line2d_16">
      <g>
       <use style="stroke:#000000;stroke-width:0.8;" x="57.6" xlink:href="#m2b1704f606" y="155.52"/>
      </g>
     </g>
     <g id="text_17">
      <!-- 200000 -->
      <g transform="translate(12.425 159.319219)scale(0.1 -0.1)">
       <use xlink:href="#DejaVuSans-50"/>
       <use x="63.623047" xlink:href="#DejaVuSans-48"/>
       <use x="127.246094" xlink:href="#DejaVuSans-48"/>
       <use x="190.869141" xlink:href="#DejaVuSans-48"/>
       <use x="254.492188" xlink:href="#DejaVuSans-48"/>
       <use x="318.115234" xlink:href="#DejaVuSans-48"/>
      </g>
     </g>
    </g>
    <g id="ytick_6">
     <g id="line2d_17">
      <g>
       <use style="stroke:#000000;stroke-width:0.8;" x="57.6" xlink:href="#m2b1704f606" y="117.504"/>
      </g>
     </g>
     <g id="text_18">
      <!-- 250000 -->
      <g transform="translate(12.425 121.303219)scale(0.1 -0.1)">
       <use xlink:href="#DejaVuSans-50"/>
       <use x="63.623047" xlink:href="#DejaVuSans-53"/>
       <use x="127.246094" xlink:href="#DejaVuSans-48"/>
       <use x="190.869141" xlink:href="#DejaVuSans-48"/>
       <use x="254.492188" xlink:href="#DejaVuSans-48"/>
       <use x="318.115234" xlink:href="#DejaVuSans-48"/>
      </g>
     </g>
    </g>
    <g id="ytick_7">
     <g id="line2d_18">
      <g>
       <use style="stroke:#000000;stroke-width:0.8;" x="57.6" xlink:href="#m2b1704f606" y="79.488"/>
      </g>
     </g>
     <g id="text_19">
      <!-- 300000 -->
      <g transform="translate(12.425 83.287219)scale(0.1 -0.1)">
       <use xlink:href="#DejaVuSans-51"/>
       <use x="63.623047" xlink:href="#DejaVuSans-48"/>
       <use x="127.246094" xlink:href="#DejaVuSans-48"/>
       <use x="190.869141" xlink:href="#DejaVuSans-48"/>
       <use x="254.492188" xlink:href="#DejaVuSans-48"/>
       <use x="318.115234" xlink:href="#DejaVuSans-48"/>
      </g>
     </g>
    </g>
    <g id="ytick_8">
     <g id="line2d_19">
      <g>
       <use style="stroke:#000000;stroke-width:0.8;" x="57.6" xlink:href="#m2b1704f606" y="41.472"/>
      </g>
     </g>
     <g id="text_20">
      <!-- 350000 -->
      <g transform="translate(12.425 45.271219)scale(0.1 -0.1)">
       <use xlink:href="#DejaVuSans-51"/>
       <use x="63.623047" xlink:href="#DejaVuSans-53"/>
       <use x="127.246094" xlink:href="#DejaVuSans-48"/>
       <use x="190.869141" xlink:href="#DejaVuSans-48"/>
       <use x="254.492188" xlink:href="#DejaVuSans-48"/>
       <use x="318.115234" xlink:href="#DejaVuSans-48"/>
      </g>
     </g>
    </g>
    <g id="text_21">
     <!-- Value -->
     <g transform="translate(6.345312 188.25925)rotate(-90)scale(0.1 -0.1)">
      <defs>
       <path d="M 28.609375 0 
L 0.78125 72.90625 
L 11.078125 72.90625 
L 34.1875 11.53125 
L 57.328125 72.90625 
L 67.578125 72.90625 
L 39.796875 0 
z
" id="DejaVuSans-86"/>
       <path d="M 9.421875 75.984375 
L 18.40625 75.984375 
L 18.40625 0 
L 9.421875 0 
z
" id="DejaVuSans-108"/>
       <path d="M 8.5 21.578125 
L 8.5 54.6875 
L 17.484375 54.6875 
L 17.484375 21.921875 
Q 17.484375 14.15625 20.5 10.265625 
Q 23.53125 6.390625 29.59375 6.390625 
Q 36.859375 6.390625 41.078125 11.03125 
Q 45.3125 15.671875 45.3125 23.6875 
L 45.3125 54.6875 
L 54.296875 54.6875 
L 54.296875 0 
L 45.3125 0 
L 45.3125 8.40625 
Q 42.046875 3.421875 37.71875 1 
Q 33.40625 -1.421875 27.6875 -1.421875 
Q 18.265625 -1.421875 13.375 4.4375 
Q 8.5 10.296875 8.5 21.578125 
z
M 31.109375 56 
z
" id="DejaVuSans-117"/>
      </defs>
      <use xlink:href="#DejaVuSans-86"/>
      <use x="60.658203" xlink:href="#DejaVuSans-97"/>
      <use x="121.9375" xlink:href="#DejaVuSans-108"/>
      <use x="149.720703" xlink:href="#DejaVuSans-117"/>
      <use x="213.099609" xlink:href="#DejaVuSans-101"/>
     </g>
    </g>
   </g>
   <g id="line2d_20">
    <path clip-path="url(#p163aefce88)" d="M 74.125911 -1 
L 74.190276 291.965168 
L 74.547825 286.710711 
L 74.905374 293.796764 
L 75.620473 287.346604 
L 75.978022 289.86679 
L 76.335571 295.729601 
L 76.69312 298.565111 
L 77.050669 277.841604 
L 77.408218 273.927389 
L 77.765767 298.735897 
L 78.123316 286.860494 
L 78.838414 289.546221 
L 79.195963 301.13384 
L 79.553512 295.558814 
L 79.911061 301.571407 
L 80.26861 291.965168 
L 80.626159 294.971464 
L 80.983708 304.577704 
L 81.341258 277.841604 
L 81.698807 292.552518 
L 82.056356 282.946278 
L 82.413905 299.809357 
L 82.771454 274.098175 
L 83.129003 298.565111 
L 83.486552 292.723304 
L 83.570797 -1 
M 84.118199 -1 
L 84.20165 289.108654 
L 84.559199 287.954958 
L 84.916748 286.123361 
L 85.274297 298.565111 
L 85.631846 283.096061 
L 85.989395 283.41663 
L 86.346944 295.900387 
L 86.704493 291.965168 
L 87.062042 301.571407 
L 87.419592 290.037577 
L 87.777141 295.121247 
L 88.13469 280.602124 
L 88.492239 298.127543 
L 88.849788 282.700501 
L 89.207337 292.552518 
L 89.564886 285.964355 
L 89.922435 288.371521 
L 90.279984 297.977761 
L 90.637533 280.826897 
L 90.995082 295.558814 
L 91.352631 290.037577 
L 91.71018 292.723304 
L 92.067729 271.999798 
L 92.425278 292.723304 
L 92.782827 285.515007 
L 93.140376 298.565111 
L 93.497926 283.533628 
L 94.213024 295.558814 
L 94.570573 295.879383 
L 94.711264 -1 
M 95.144168 -1 
L 95.285671 298.714893 
L 95.64322 283.117065 
L 96.000769 286.881498 
L 96.358318 292.723304 
L 96.715867 295.121247 
L 97.073416 285.706798 
L 97.430965 298.565111 
L 97.788514 292.552518 
L 98.146063 295.142251 
L 98.503612 290.037577 
L 98.861161 276.687908 
L 99.21871 295.879383 
L 99.57626 300.984057 
L 99.933809 268.822715 
L 100.291358 287.160059 
L 100.648907 280.826897 
L 101.364005 298.148547 
L 101.721554 279.694205 
L 102.079103 295.292033 
L 102.436652 295.708597 
L 102.794201 280.089765 
L 103.15175 298.148547 
L 103.509299 288.841873 
L 103.866848 295.558814 
L 104.224397 280.698118 
L 104.581946 293.796764 
L 104.939495 274.835308 
L 105.297044 273.831394 
L 105.347684 -1 
M 105.95857 -1 
L 106.012143 292.552518 
L 106.369692 297.390411 
L 106.727241 274.835308 
L 107.08479 297.71098 
L 107.442339 288.275527 
L 107.799888 295.292033 
L 108.157437 280.260551 
L 108.872535 301.154844 
L 109.230084 295.879383 
L 109.587633 280.698118 
L 109.945182 273.960173 
L 110.302731 289.887794 
L 110.66028 288.958871 
L 111.017829 282.113151 
L 111.375378 280.997683 
L 111.732928 283.683411 
L 112.090477 294.704683 
L 112.448026 289.696004 
L 113.163124 289.717008 
L 113.520673 286.881498 
L 113.878222 288.404306 
L 114.235771 283.266847 
L 114.59332 291.965168 
L 114.950869 295.142251 
L 115.308418 295.142251 
L 115.665967 304.577704 
L 116.023516 289.129658 
L 116.381065 301.154844 
L 116.501478 -1 
M 116.983131 -1 
L 117.096163 274.077172 
L 117.453712 301.154844 
L 117.811262 289.27944 
L 118.168811 292.11495 
L 118.52636 286.860494 
L 118.883909 286.422926 
L 119.241458 283.704415 
L 119.599007 292.852083 
L 119.956556 286.273144 
L 120.314105 292.7023 
L 120.671654 279.085851 
L 121.029203 300.717276 
L 121.386752 295.858379 
L 121.744301 294.384114 
L 122.10185 301.571407 
L 123.174497 273.681612 
L 123.532046 289.27944 
L 123.889596 283.117065 
L 124.247145 292.7023 
L 124.604694 270.387531 
L 124.962243 289.108654 
L 125.319792 292.7023 
L 126.03489 280.698118 
L 126.392439 295.142251 
L 126.749988 283.875201 
L 127.107537 292.264733 
L 127.158684 -1 
M 127.769707 -1 
L 127.822635 304.252799 
L 128.180184 283.723637 
L 128.537733 293.863441 
L 128.895282 289.791852 
L 129.252831 288.71289 
L 129.96793 296.258321 
L 130.325479 298.294996 
L 130.683028 299.27144 
L 131.040577 290.974763 
L 131.398126 292.905105 
L 131.755675 288.328761 
L 132.113224 289.149511 
L 132.470773 300.987742 
L 132.828322 297.745816 
L 133.185871 286.415505 
L 133.54342 298.392789 
L 134.258518 291.314215 
L 134.616067 289.993295 
L 134.973616 294.094242 
L 135.331165 294.536764 
L 135.688714 298.131684 
L 136.046264 293.294884 
L 136.403813 299.486126 
L 136.761362 291.683247 
L 137.118911 299.504625 
L 137.47646 296.919416 
L 137.834009 293.095689 
L 138.191558 290.963606 
L 138.225406 -1 
M 138.872267 -1 
L 138.906656 296.117673 
L 139.264205 297.541988 
L 139.621754 291.679985 
L 139.979303 294.205532 
L 140.336852 287.266305 
L 140.694401 288.067656 
L 141.05195 294.188772 
L 141.409499 295.255136 
L 141.767048 301.356226 
L 142.124598 300.4412 
L 142.482147 290.762417 
L 142.839696 285.411442 
L 143.197245 292.271673 
L 143.554794 288.640846 
L 143.912343 299.55991 
L 144.269892 292.253174 
L 144.627441 293.807533 
L 144.98499 287.757816 
L 145.342539 289.193289 
L 145.700088 291.60794 
L 146.057637 290.544469 
L 146.415186 298.292357 
L 146.772735 290.659022 
L 147.487833 290.078957 
L 148.202932 293.656351 
L 148.560481 296.809495 
L 148.91803 294.796499 
L 149.275579 288.000168 
L 149.317666 -1 
M 149.947325 -1 
L 149.990677 297.876483 
L 150.348226 293.457548 
L 150.705775 298.809541 
L 151.063324 300.25261 
L 151.420873 300.032668 
L 151.778422 304.873379 
L 152.135971 291.826143 
L 152.49352 294.197058 
L 152.851069 293.422288 
L 153.208618 294.669816 
L 153.566167 299.363977 
L 153.923716 292.072478 
L 154.281266 293.830821 
L 154.638815 300.143958 
L 154.996364 300.642389 
L 155.353913 299.412088 
L 155.711462 291.899926 
L 156.42656 299.292578 
L 156.784109 298.422401 
L 157.141658 300.587104 
L 157.499207 300.356304 
L 157.856756 294.395862 
L 158.214305 299.70933 
L 158.571854 291.315878 
L 158.929403 303.371763 
L 159.286952 305.185857 
L 159.644501 296.703852 
L 160.00205 296.158188 
L 160.070914 -1 
M 160.648148 -1 
L 160.717149 296.891427 
L 161.074698 294.518011 
L 161.432247 296.831257 
L 161.789796 303.35301 
L 162.147345 297.347817 
L 162.504894 297.931767 
L 162.862443 295.931467 
L 163.219992 301.738111 
L 163.577541 300.3639 
L 163.93509 294.499257 
L 164.292639 292.531271 
L 164.650188 287.360835 
L 165.007737 296.9747 
L 165.365286 298.462916 
L 165.722835 296.084799 
L 166.080384 298.388411 
L 166.437934 296.559318 
L 166.795483 289.617452 
L 167.153032 295.534346 
L 167.510581 291.520427 
L 167.86813 296.812757 
L 168.225679 297.347817 
L 168.583228 292.231158 
L 168.940777 297.146628 
L 169.298326 294.581911 
L 169.655875 301.865515 
L 170.013424 298.534315 
L 170.370973 299.12202 
L 170.728522 287.946153 
L 171.086071 301.542178 
L 171.12739 -1 
M 171.760009 -1 
L 171.801169 300.236495 
L 172.158718 298.738142 
L 172.516268 305.531211 
L 172.873817 301.104288 
L 173.231366 294.102136 
L 173.588915 301.671968 
L 173.946464 295.822816 
L 174.304013 301.30022 
L 175.019111 289.867884 
L 175.37666 298.534315 
L 175.734209 300.143958 
L 176.091758 298.072415 
L 176.449307 303.133068 
L 176.806856 294.669816 
L 177.164405 300.223252 
L 177.521954 298.151709 
L 177.879503 301.448763 
L 178.237052 293.718653 
L 178.594602 299.09139 
L 178.952151 301.30022 
L 179.3097 301.671968 
L 179.667249 292.655805 
L 180.024798 294.08012 
L 180.382347 298.902078 
L 180.739896 296.06595 
L 181.097445 298.388411 
L 181.454994 298.40691 
L 181.812543 294.433368 
L 181.868874 -1 
M 182.471163 -1 
L 182.527641 295.350936 
L 182.88519 282.706798 
L 183.242739 304.36409 
L 183.600288 290.648163 
L 183.957837 297.80446 
L 184.315386 283.478069 
L 185.030485 299.255326 
L 185.388034 294.075261 
L 186.103132 280.656647 
L 186.460681 288.955963 
L 186.81823 285.773462 
L 187.175779 299.706068 
L 187.533328 294.623952 
L 187.890877 292.236414 
L 188.248426 290.951869 
L 188.605975 283.715654 
L 188.963524 286.74051 
L 189.321073 303.281611 
L 189.678622 290.920127 
L 190.39372 288.665895 
L 190.75127 297.478484 
L 191.108819 294.376485 
L 191.466368 294.231926 
L 191.823917 290.475709 
L 192.181466 288.261503 
L 192.539015 294.279315 
L 192.896564 298.08031 
L 192.991278 -1 
M 193.5186 -1 
L 193.611662 291.030047 
L 193.969211 296.225447 
L 194.32676 291.932801 
L 194.684309 296.2442 
L 195.041858 303.918305 
L 195.399407 295.29829 
L 195.756956 294.365626 
L 196.114505 292.342194 
L 196.472054 294.512662 
L 196.829604 295.841569 
L 197.187153 296.448027 
L 197.544702 290.056941 
L 197.902251 297.217149 
L 198.617349 290.732805 
L 198.974898 298.302637 
L 199.332447 296.685353 
L 199.689996 299.6712 
L 200.047545 294.833128 
L 200.405094 297.236526 
L 201.120192 289.640346 
L 201.83529 302.292547 
L 202.192839 290.528354 
L 202.550388 303.151821 
L 202.907938 297.963764 
L 203.265487 296.263577 
L 203.623036 299.820621 
L 203.980585 292.907744 
L 204.032035 -1 
M 204.644504 -1 
L 204.695683 291.096912 
L 205.053232 298.088205 
L 205.410781 281.664367 
L 205.76833 293.440164 
L 206.125879 288.595374 
L 206.483428 294.193795 
L 206.840977 293.120089 
L 207.198526 290.368075 
L 207.913624 300.567727 
L 208.271173 291.959589 
L 208.628722 290.478717 
L 208.986272 291.961188 
L 209.343821 291.963827 
L 209.70137 300.660264 
L 210.058919 286.753753 
L 210.416468 287.050996 
L 210.774017 291.518042 
L 211.131566 292.8945 
L 211.489115 290.539257 
L 211.846664 289.536651 
L 212.204213 304.215547 
L 212.561762 291.064037 
L 212.919311 283.272895 
L 213.27686 299.125536 
L 213.634409 303.077784 
L 213.991958 296.853921 
L 214.071629 -1 
M 214.628603 -1 
L 214.707056 291.026531 
L 215.064606 298.077048 
L 215.422155 297.58188 
L 215.779704 279.812142 
L 216.137253 299.3067 
L 216.494802 296.674494 
L 216.852351 287.03662 
L 217.2099 299.909895 
L 217.567449 299.578663 
L 217.924998 296.578695 
L 218.282547 279.782784 
L 218.640096 295.05307 
L 218.997645 293.644869 
L 219.355194 298.164952 
L 219.712743 295.857683 
L 220.070292 292.048469 
L 220.427841 282.430226 
L 220.78539 290.865857 
L 221.14294 294.313858 
L 221.500489 300.459699 
L 221.858038 300.284905 
L 222.215587 296.812134 
L 222.573136 301.87341 
L 222.930685 300.310279 
L 223.288234 297.917646 
L 223.645783 302.806468 
L 224.003332 286.847423 
L 224.360881 292.83824 
L 224.71843 289.99568 
L 225.075979 290.104331 
L 225.141192 -1 
M 225.726718 -1 
L 225.791077 285.455965 
L 226.148626 300.698394 
L 226.506175 291.305995 
L 226.863724 293.836312 
L 227.221274 300.515705 
L 227.578823 291.762638 
L 227.936372 287.654815 
L 228.293921 291.520427 
L 228.65147 297.235903 
L 229.009019 287.363474 
L 229.366568 296.979078 
L 229.724117 282.881521 
L 230.081666 296.079288 
L 230.439215 293.518088 
L 230.796764 295.896599 
L 231.154313 285.938119 
L 231.511862 288.676753 
L 231.869411 298.262999 
L 232.22696 296.0134 
L 232.584509 302.937136 
L 232.942058 300.481715 
L 233.299608 299.048236 
L 233.657157 284.081657 
L 234.014706 287.992572 
L 234.372255 297.976915 
L 234.729804 291.116683 
L 235.444902 297.913735 
L 235.802451 293.138842 
L 235.845013 -1 
M 236.475489 -1 
L 236.517549 289.209174 
L 236.875098 289.683245 
L 237.232647 293.242238 
L 237.947745 286.598984 
L 238.305294 293.369643 
L 238.662843 285.82859 
L 239.020392 297.0571 
L 239.377942 298.958084 
L 239.735491 291.364385 
L 240.09304 289.364496 
L 240.450589 297.738219 
L 240.808138 293.584373 
L 241.165687 294.253064 
L 241.523236 297.369578 
L 241.880785 296.467404 
L 242.238334 303.698363 
L 242.595883 296.228086 
L 242.953432 293.886572 
L 243.310981 292.693058 
L 243.66853 290.372059 
L 244.026079 289.469885 
L 244.383628 285.626289 
L 244.741177 298.117563 
L 245.098726 291.04466 
L 245.456276 292.23579 
L 245.813825 290.588895 
L 246.171374 294.782378 
L 246.528923 284.834894 
L 246.886472 285.35671 
L 246.946638 -1 
M 247.540765 -1 
L 247.60157 289.018265 
L 247.959119 299.315866 
L 248.316668 296.637963 
L 248.674217 297.533769 
L 249.031766 290.182747 
L 249.389315 293.008799 
L 249.746864 281.337143 
L 250.104413 296.045396 
L 250.461962 287.017867 
L 250.819511 290.490848 
L 251.17706 289.761617 
L 251.892159 293.101336 
L 252.249708 286.464308 
L 252.607257 298.961346 
L 252.964806 292.934137 
L 253.322355 295.037579 
L 253.679904 287.785482 
L 254.037453 293.870458 
L 254.395002 286.98573 
L 254.752551 299.913158 
L 255.1101 294.324463 
L 255.467649 291.249111 
L 256.182747 297.772464 
L 256.540296 283.727391 
L 257.255394 296.485534 
L 257.612944 291.153312 
L 257.658377 -1 
M 258.28324 -1 
L 258.328042 286.512645 
L 259.04314 271.099716 
L 259.758238 296.85076 
L 260.115787 280.103878 
L 260.473336 284.58955 
L 260.830885 280.12657 
L 261.188434 289.279556 
L 261.545983 271.217329 
L 261.903532 288.457407 
L 262.261081 282.601915 
L 262.61863 284.779089 
L 262.976179 281.713931 
L 263.333728 287.292845 
L 263.691278 282.940564 
L 264.048827 293.415507 
L 264.406376 292.679272 
L 264.763925 271.451463 
L 265.121474 298.626198 
L 265.479023 283.008557 
L 265.836572 284.085214 
L 266.194121 268.725644 
L 266.55167 287.011184 
L 266.909219 276.352726 
L 267.266768 290.727796 
L 267.624317 289.377527 
L 267.981866 268.714201 
L 268.339415 289.73439 
L 268.696964 280.009654 
L 268.724701 -1 
M 269.383161 -1 
L 269.412062 292.843798 
L 269.769612 278.213641 
L 270.48471 298.65152 
L 270.842259 281.000666 
L 271.199808 274.127486 
L 271.557357 273.095601 
L 271.914906 276.916301 
L 272.272455 299.806798 
L 272.987553 274.835753 
L 273.345102 284.777458 
L 273.702651 288.802416 
L 274.0602 300.076782 
L 274.417749 286.816343 
L 274.775298 281.768053 
L 275.132847 270.767519 
L 275.847946 288.38775 
L 276.205495 288.925591 
L 276.563044 293.652009 
L 276.920593 287.614691 
L 277.278142 275.326789 
L 277.635691 278.95395 
L 277.99324 279.484373 
L 278.350789 293.668711 
L 278.708338 282.684493 
L 279.065887 279.127106 
L 279.423436 281.634603 
L 279.780985 286.299413 
L 279.81047 -1 
M 280.467745 -1 
L 280.496083 274.170166 
L 280.853632 274.125193 
L 281.211181 284.163768 
L 281.56873 276.144855 
L 281.92628 278.394937 
L 282.283829 281.567046 
L 282.998927 274.304877 
L 283.714025 289.087564 
L 284.429123 260.549394 
L 284.786672 277.072393 
L 285.144221 280.975839 
L 285.50177 288.915971 
L 285.859319 286.222607 
L 286.216868 280.622251 
L 286.574417 259.014896 
L 286.931966 268.372779 
L 287.289515 287.770581 
L 287.647064 272.739569 
L 288.004614 276.732534 
L 288.362163 286.056903 
L 288.719712 281.290082 
L 289.077261 283.516018 
L 289.43481 275.514361 
L 289.792359 288.82163 
L 290.149908 288.384818 
L 290.507457 282.244672 
L 290.559347 -1 
M 291.171685 -1 
L 291.222555 275.756048 
L 291.580104 281.452592 
L 291.937653 278.806478 
L 292.295202 273.309059 
L 292.652751 269.801392 
L 293.0103 286.219783 
L 293.367849 269.372124 
L 293.725398 274.774808 
L 294.082948 284.316869 
L 294.440497 274.264776 
L 295.155595 278.750146 
L 295.513144 276.32616 
L 295.870693 276.180452 
L 296.228242 285.051214 
L 296.94334 269.230911 
L 297.300889 274.522174 
L 297.658438 288.847171 
L 298.373536 271.183521 
L 298.731085 275.593722 
L 299.088634 292.464544 
L 299.446183 284.409337 
L 299.803732 270.041794 
L 300.161282 281.259626 
L 300.518831 277.388207 
L 300.87638 284.216462 
L 301.233929 277.28002 
L 301.591478 277.303603 
L 301.624881 -1 
M 302.273354 -1 
L 302.306576 275.638486 
L 302.664125 266.348084 
L 303.021674 283.659331 
L 303.379223 280.298364 
L 303.736772 275.017486 
L 304.094321 274.562921 
L 304.45187 283.731854 
L 304.809419 268.471984 
L 305.166968 263.187292 
L 305.524517 292.089727 
L 305.882066 276.608653 
L 306.239616 277.216471 
L 306.597165 277.267275 
L 306.954714 272.432821 
L 307.312263 275.495878 
L 307.669812 272.720548 
L 308.027361 274.565803 
L 308.38491 271.028143 
L 308.742459 284.928249 
L 309.100008 275.636738 
L 309.457557 258.516542 
L 309.815106 275.657524 
L 310.172655 256.330638 
L 310.530204 278.053566 
L 311.245302 265.296699 
L 311.602851 262.639385 
L 311.9604 269.246857 
L 312.31795 279.02848 
L 312.350978 -1 
M 313.001643 -1 
L 313.033048 263.936675 
L 313.390597 254.708546 
L 313.748146 264.464308 
L 314.105695 260.689414 
L 314.463244 246.776655 
L 314.820793 242.59027 
L 315.178342 267.728784 
L 315.535891 268.341895 
L 315.89344 283.671497 
L 316.250989 259.031505 
L 316.608538 249.014799 
L 316.966087 257.887485 
L 317.323636 256.89938 
L 317.681185 259.140591 
L 318.038734 276.672169 
L 318.396284 265.791054 
L 318.753833 251.227537 
L 319.111382 254.023745 
L 319.468931 250.488269 
L 319.82648 253.919062 
L 320.184029 278.442188 
L 320.541578 261.451333 
L 320.899127 271.237106 
L 321.614225 256.595371 
L 321.971774 266.929991 
L 322.329323 261.49576 
L 322.686872 262.25315 
L 323.044421 257.46619 
L 323.40197 258.415564 
L 323.468147 -1 
M 324.048042 -1 
L 324.117068 272.261001 
L 324.474618 268.500826 
L 324.832167 274.167957 
L 325.189716 275.04706 
L 325.547265 277.708464 
L 325.904814 262.882005 
L 326.262363 265.791725 
L 326.619912 277.889652 
L 326.977461 266.900115 
L 327.33501 266.58368 
L 327.692559 268.419735 
L 328.050108 272.487162 
L 328.407657 269.55795 
L 328.765206 264.812989 
L 329.122755 270.781709 
L 329.480304 281.921197 
L 329.837853 282.945537 
L 330.195402 278.210263 
L 330.552952 257.527462 
L 330.910501 275.878215 
L 331.26805 271.410682 
L 331.625599 275.84865 
L 331.983148 249.637882 
L 332.340697 279.469158 
L 333.055795 262.878434 
L 333.413344 262.84734 
L 333.770893 273.232429 
L 334.128442 271.042224 
L 334.485991 276.997031 
L 334.528595 -1 
M 335.159967 -1 
L 335.201089 266.071631 
L 335.558638 259.717566 
L 335.916187 266.494691 
L 336.273736 261.502498 
L 336.631286 267.695169 
L 336.988835 248.653399 
L 337.346384 251.77788 
L 337.703933 272.130164 
L 338.061482 266.909936 
L 338.419031 275.633202 
L 338.77658 279.459362 
L 339.134129 272.888377 
L 339.849227 252.507553 
L 340.206776 275.958921 
L 340.564325 256.632959 
L 340.921874 259.157108 
L 341.279423 272.440189 
L 341.636972 239.074101 
L 341.994521 270.315365 
L 342.35207 271.298807 
L 342.70962 269.18666 
L 343.067169 257.580367 
L 343.424718 283.545247 
L 343.782267 277.769746 
L 344.139816 269.263543 
L 344.497365 257.539174 
L 344.854914 266.044054 
L 344.895363 -1 
M 345.528561 -1 
L 345.570012 273.525113 
L 345.927561 277.127835 
L 346.28511 277.321481 
L 346.642659 259.326534 
L 347.000208 282.478521 
L 347.357757 265.558944 
L 347.715306 265.390889 
L 348.072855 258.316795 
L 348.430404 267.860268 
L 348.787954 269.019663 
L 349.145503 243.000266 
L 349.860601 273.515426 
L 350.21815 276.42166 
L 350.575699 284.07314 
L 350.933248 268.681812 
L 351.290797 259.359199 
L 351.648346 259.314343 
L 352.005895 262.915183 
L 352.720993 276.929768 
L 353.078542 264.449581 
L 353.436091 266.947533 
L 353.79364 278.950968 
L 354.151189 270.866061 
L 354.508738 255.632638 
L 355.223837 280.171938 
L 355.581386 263.074484 
L 355.938935 261.666096 
L 355.988559 -1 
M 356.604233 -1 
L 356.654033 262.746144 
L 357.011582 252.656839 
L 357.369131 257.982145 
L 357.72668 283.257452 
L 358.084229 254.816883 
L 358.441778 269.623658 
L 358.799327 267.259751 
L 359.156876 263.339309 
L 359.514425 265.727001 
L 359.871974 272.417496 
L 360.229523 266.868727 
L 360.587072 287.021584 
L 360.944622 263.788691 
L 361.302171 266.777503 
L 361.65972 267.100299 
L 362.017269 269.528746 
L 362.374818 251.024337 
L 362.732367 249.382156 
L 363.089916 264.94333 
L 363.447465 269.609443 
L 364.162563 252.096407 
L 364.877661 264.763697 
L 365.23521 260.393227 
L 365.592759 238.49306 
L 365.950308 253.95654 
L 366.307857 261.683694 
L 366.665406 254.717033 
L 366.697405 -1 
M 367.345812 -1 
L 367.380505 278.560935 
L 367.738054 256.695181 
L 368.095603 259.557996 
L 368.453152 248.206899 
L 368.810701 260.739605 
L 369.16825 248.597041 
L 369.525799 258.48701 
L 369.883348 249.546843 
L 370.240897 265.193259 
L 370.598446 256.9572 
L 370.955995 256.853928 
L 371.313544 269.408889 
L 371.671093 257.164415 
L 372.028642 254.024148 
L 372.386191 249.157197 
L 372.74374 262.019713 
L 373.10129 267.516645 
L 373.816388 241.156187 
L 374.531486 257.243516 
L 374.889035 255.906252 
L 375.246584 252.403122 
L 375.604133 253.103415 
L 375.961682 267.990172 
L 376.67678 257.22599 
L 377.034329 253.557006 
L 377.391878 269.129471 
L 377.749427 244.282717 
L 377.779653 -1 
M 378.430566 -1 
L 378.464525 277.761882 
L 378.822074 258.410985 
L 379.179624 266.024449 
L 379.894722 237.978726 
L 380.252271 232.72848 
L 380.60982 255.337367 
L 380.967369 254.247511 
L 381.324918 258.599045 
L 381.682467 240.502623 
L 382.040016 261.330409 
L 382.397565 259.08877 
L 382.755114 226.415406 
L 383.112663 252.499849 
L 383.470212 258.465225 
L 383.827761 247.932757 
L 384.18531 258.781585 
L 384.542859 247.0819 
L 384.900408 251.06227 
L 385.257958 237.750885 
L 385.973056 266.591409 
L 386.330605 252.199233 
L 386.688154 242.963912 
L 387.045703 249.165061 
L 387.403252 258.787222 
L 387.760801 241.290342 
L 388.475899 266.941292 
L 388.833448 306.042494 
L 389.190997 306.311763 
L 389.548546 306.074386 
L 389.906095 306.490682 
L 390.263644 306.549258 
L 390.621193 306.14343 
L 390.978742 306.476248 
L 391.336292 305.46188 
L 391.693841 306.705535 
L 392.05139 306.348545 
L 392.408939 306.388343 
L 392.766488 306.056659 
L 393.124037 306.786156 
L 393.481586 305.979314 
L 393.839135 306.425007 
L 394.554233 305.964234 
L 394.911782 306.437694 
L 395.269331 305.853594 
L 395.62688 306.053433 
L 395.984429 306.614983 
L 396.341978 306.051627 
L 396.699527 306.318871 
L 397.057076 305.955824 
L 397.414626 306.448734 
L 397.772175 306.056608 
L 398.129724 306.321375 
L 398.487273 306.115688 
L 398.487273 306.115688 
" style="fill:none;stroke:#1f77b4;stroke-linecap:square;stroke-width:1.5;"/>
   </g>
   <g id="line2d_21">
    <path clip-path="url(#p163aefce88)" d="M 74.17403 -1 
L 74.190276 253.770875 
L 74.547825 236.036627 
L 74.905374 260.266208 
L 75.262924 246.029392 
L 75.620473 236.589191 
L 75.978022 245.430256 
L 76.335571 265.997581 
L 76.69312 275.882603 
L 77.050669 203.238752 
L 77.408218 190.058481 
L 77.765767 276.664305 
L 78.123316 236.454708 
L 78.838414 245.67293 
L 79.195963 285.138732 
L 79.553512 266.439827 
L 79.911061 287.141183 
L 80.26861 254.982897 
L 80.626159 265.28534 
L 80.983708 297.501784 
L 81.341258 207.83693 
L 81.698807 257.449498 
L 82.056356 226.353434 
L 82.413905 281.935453 
L 82.771454 199.649142 
L 83.129003 278.576546 
L 83.486552 259.787544 
L 83.509808 -1 
M 84.179408 -1 
L 84.20165 247.662911 
L 84.559199 244.70825 
L 84.916748 239.096665 
L 85.274297 278.76414 
L 85.631846 229.594814 
L 85.989395 230.615762 
L 86.346944 270.37403 
L 86.704493 257.472538 
L 87.062042 288.460347 
L 87.419592 252.381197 
L 87.777141 268.342529 
L 88.13469 222.043358 
L 88.492239 277.604195 
L 88.849788 228.695844 
L 89.207337 260.019881 
L 89.564886 238.831368 
L 89.922435 246.757295 
L 90.279984 276.361801 
L 90.637533 222.523172 
L 90.995082 269.355935 
L 91.352631 251.803922 
L 91.71018 260.627172 
L 92.067729 195.536468 
L 92.425278 260.572188 
L 92.782827 238.331501 
L 93.140376 279.532548 
L 93.497926 232.780127 
L 94.213024 270.094281 
L 94.570573 271.326607 
L 94.612575 -1 
M 95.242467 -1 
L 95.285671 280.189989 
L 95.64322 231.680229 
L 96.000769 243.358628 
L 96.358318 261.481664 
L 96.715867 268.507038 
L 97.073416 238.546114 
L 97.430965 279.056351 
L 97.788514 260.655713 
L 98.146063 268.85781 
L 98.503612 252.969001 
L 98.861161 211.416822 
L 99.21871 270.966106 
L 99.57626 286.934099 
L 99.933809 184.714605 
L 100.291358 242.79313 
L 100.648907 222.796089 
L 101.364005 277.684936 
L 101.721554 220.118812 
L 102.079103 269.124895 
L 102.436652 270.564805 
L 102.794201 220.482262 
L 103.15175 277.940637 
L 103.509299 248.701859 
L 103.866848 269.804473 
L 104.224397 223.302139 
L 104.581946 264.927672 
L 104.939495 205.735571 
L 105.297044 202.161113 
L 105.309046 -1 
M 105.996831 -1 
L 106.012143 260.699302 
L 106.369692 275.789175 
L 106.727241 206.00738 
L 107.08479 276.98751 
L 107.442339 246.756517 
L 107.799888 268.645508 
L 108.157437 220.657177 
L 108.872535 287.130281 
L 109.230084 270.346931 
L 109.587633 221.807286 
L 109.945182 199.873437 
L 110.302731 251.278214 
L 110.66028 248.421277 
L 111.017829 226.675847 
L 111.375378 223.132563 
L 111.732928 230.411389 
L 112.090477 266.535041 
L 112.448026 250.517713 
L 113.163124 250.716936 
L 113.520673 241.692074 
L 113.878222 246.538868 
L 114.235771 229.837198 
L 114.59332 257.688077 
L 114.950869 268.174759 
L 115.308418 268.269317 
L 115.665967 298.064262 
L 116.023516 249.14648 
L 116.381065 287.225433 
L 116.41752 -1 
M 117.069689 -1 
L 117.096163 202.007338 
L 117.453712 287.272366 
L 117.811262 249.754403 
L 118.168811 258.251653 
L 118.52636 241.494666 
L 118.883909 240.09922 
L 119.241458 230.503086 
L 119.599007 260.091246 
L 119.956556 238.511254 
L 120.314105 258.868756 
L 120.671654 214.209815 
L 121.029203 285.08518 
L 121.386752 269.165004 
L 121.744301 263.467341 
L 122.10185 287.394315 
L 123.174497 190.854688 
L 123.532046 244.559571 
L 123.889596 223.341896 
L 124.247145 257.093368 
L 124.604694 181.81902 
L 124.962243 243.917955 
L 125.319792 255.826936 
L 126.03489 214.588424 
L 126.392439 264.549233 
L 126.749988 225.705662 
L 127.107537 254.464442 
L 127.120215 -1 
M 127.80799 -1 
L 127.822635 295.800877 
L 128.180184 222.218781 
L 128.537733 258.495958 
L 128.895282 243.929035 
L 129.252831 240.721769 
L 129.96793 268.280497 
L 130.325479 275.34837 
L 130.683028 278.850807 
L 131.040577 250.172512 
L 131.398126 256.844931 
L 131.755675 241.977548 
L 132.113224 243.889156 
L 132.470773 284.766883 
L 132.828322 273.72097 
L 133.185871 235.672505 
L 133.54342 276.360537 
L 134.258518 252.688118 
L 134.616067 247.923367 
L 134.973616 262.432429 
L 135.331165 263.723106 
L 135.688714 275.422495 
L 136.046264 258.965283 
L 136.403813 280.030985 
L 136.761362 253.354481 
L 137.118911 280.043029 
L 137.47646 271.308416 
L 137.834009 257.732619 
L 138.191558 251.265794 
L 138.200189 -1 
M 138.897443 -1 
L 138.906656 268.730352 
L 139.264205 273.987447 
L 139.621754 254.421647 
L 139.979303 262.879848 
L 140.336852 239.026002 
L 140.694401 241.117189 
L 141.05195 261.963872 
L 141.409499 265.595588 
L 141.767048 286.074516 
L 142.124598 283.19491 
L 142.482147 250.378842 
L 142.839696 231.348095 
L 143.197245 254.813128 
L 143.554794 242.300207 
L 143.912343 279.930578 
L 144.269892 254.918012 
L 144.627441 260.781209 
L 144.98499 240.274107 
L 145.342539 245.239487 
L 145.700088 253.327702 
L 146.057637 249.716047 
L 146.415186 276.028651 
L 146.772735 249.143743 
L 147.487833 246.808242 
L 148.202932 260.448659 
L 148.560481 271.119843 
L 148.91803 264.307261 
L 149.275579 241.429815 
L 149.286116 -1 
M 149.978723 -1 
L 149.990677 275.141478 
L 150.348226 260.314065 
L 150.705775 278.147445 
L 151.063324 282.988651 
L 151.420873 282.250791 
L 151.778422 298.706174 
L 152.135971 256.203929 
L 152.49352 263.353544 
L 152.851069 260.970725 
L 153.208618 264.715366 
L 153.566167 280.297635 
L 153.923716 256.093504 
L 154.281266 261.920695 
L 154.638815 282.987965 
L 154.996364 284.635726 
L 155.353913 280.409943 
L 155.711462 256.005355 
L 156.42656 280.316831 
L 156.784109 277.402028 
L 157.141658 284.641178 
L 157.499207 283.993522 
L 157.856756 264.738375 
L 158.214305 281.849581 
L 158.571854 254.419779 
L 158.929403 293.818411 
L 159.286952 299.77325 
L 159.644501 272.022235 
L 160.00205 269.786272 
L 160.020839 -1 
M 160.69822 -1 
L 160.717149 271.921063 
L 161.074698 264.005006 
L 161.432247 271.720375 
L 161.789796 293.453339 
L 162.147345 273.516959 
L 162.504894 275.062734 
L 162.862443 269.183077 
L 163.219992 288.539261 
L 163.577541 284.062357 
L 163.93509 264.956523 
L 164.292639 259.130773 
L 164.650188 242.671686 
L 165.007737 273.973738 
L 165.365286 278.531523 
L 165.722835 271.785835 
L 166.080384 278.957211 
L 166.437934 273.263061 
L 166.795483 251.515795 
L 167.153032 269.616747 
L 167.510581 256.773311 
L 167.86813 273.01693 
L 168.225679 275.123015 
L 168.583228 258.897068 
L 168.940777 274.485007 
L 169.298326 265.743279 
L 169.655875 289.207078 
L 170.013424 278.455779 
L 170.370973 280.305961 
L 170.728522 245.174922 
L 171.086071 288.38309 
L 171.098507 -1 
M 171.788907 -1 
L 171.801169 284.212321 
L 172.158718 279.42498 
L 172.516268 301.036423 
L 172.873817 287.078304 
L 173.231366 265.314314 
L 173.588915 289.048005 
L 173.946464 270.70916 
L 174.304013 287.834082 
L 175.019111 251.432767 
L 175.37666 278.788806 
L 175.734209 284.090579 
L 176.091758 277.549269 
L 176.449307 293.529292 
L 176.806856 266.820376 
L 177.164405 284.44328 
L 177.521954 278.097715 
L 177.879503 288.372119 
L 178.237052 263.909543 
L 178.594602 280.833128 
L 178.952151 287.790723 
L 179.3097 288.978833 
L 179.667249 260.318351 
L 180.024798 264.376987 
L 180.382347 279.931209 
L 180.739896 270.589174 
L 181.097445 278.048687 
L 181.454994 278.108105 
L 181.812543 265.311295 
L 181.828394 -1 
M 182.511599 -1 
L 182.527641 268.675516 
L 182.88519 228.459572 
L 183.242739 297.291556 
L 183.600288 253.448596 
L 183.957837 276.323701 
L 184.315386 229.936385 
L 185.030485 280.906424 
L 185.388034 263.471212 
L 186.103132 219.833142 
L 186.460681 246.878954 
L 186.81823 236.038895 
L 187.175779 281.630152 
L 187.533328 265.139842 
L 187.890877 257.431157 
L 188.248426 253.226871 
L 188.605975 229.577475 
L 188.963524 239.463308 
L 189.321073 293.599945 
L 189.678622 253.704699 
L 190.39372 247.006334 
L 190.75127 275.30193 
L 191.108819 265.392592 
L 191.466368 264.930799 
L 191.823917 253.275439 
L 192.181466 246.459213 
L 192.539015 265.276434 
L 192.896564 277.594156 
L 192.924497 -1 
M 193.585803 -1 
L 193.611662 255.298341 
L 193.969211 271.70801 
L 194.32676 258.285852 
L 194.684309 271.778581 
L 195.041858 296.031195 
L 195.399407 268.837328 
L 195.756956 265.37773 
L 196.114505 258.916913 
L 196.472054 265.847216 
L 196.829604 270.034055 
L 197.187153 272.344214 
L 197.544702 252.445626 
L 197.902251 275.101547 
L 198.617349 254.888629 
L 198.974898 278.560248 
L 199.332447 273.760049 
L 199.689996 283.019505 
L 200.047545 268.451574 
L 200.405094 275.745859 
L 201.120192 252.333696 
L 201.83529 291.286325 
L 202.192839 255.052613 
L 202.550388 293.93289 
L 202.907938 277.938281 
L 203.265487 272.611818 
L 203.623036 283.600593 
L 203.980585 262.244642 
L 203.995452 -1 
M 204.681128 -1 
L 204.695683 256.48062 
L 205.053232 278.469892 
L 205.410781 227.220174 
L 205.76833 262.748039 
L 206.125879 247.390053 
L 206.483428 265.13705 
L 206.840977 261.852008 
L 207.198526 253.427865 
L 207.913624 285.748658 
L 208.271173 259.320193 
L 208.628722 254.745781 
L 208.986272 259.325134 
L 209.343821 259.430131 
L 209.70137 286.293512 
L 210.058919 242.808183 
L 210.416468 244.233522 
L 210.774017 257.900025 
L 211.131566 262.156722 
L 211.489115 254.873134 
L 211.846664 251.00376 
L 212.204213 297.026931 
L 212.561762 256.049978 
L 212.919311 230.996724 
L 213.27686 281.205436 
L 213.634409 293.530914 
L 213.991958 274.121176 
L 214.015641 -1 
M 214.684847 -1 
L 214.707056 255.876678 
L 215.064606 278.17139 
L 215.422155 276.703454 
L 215.779704 222.202201 
L 216.137253 282.136268 
L 216.494802 274.043815 
L 216.852351 244.785044 
L 217.2099 283.923967 
L 217.567449 282.873126 
L 217.924998 273.593014 
L 218.282547 221.244541 
L 218.640096 268.667942 
L 218.997645 264.294633 
L 219.355194 278.393428 
L 219.712743 271.04597 
L 220.070292 259.40521 
L 220.427841 229.08159 
L 220.78539 255.092374 
L 221.14294 265.918408 
L 221.500489 285.21512 
L 221.858038 284.657542 
L 222.215587 273.803429 
L 222.573136 289.88003 
L 222.930685 284.575037 
L 223.288234 277.190084 
L 223.645783 292.562007 
L 224.003332 242.38198 
L 224.360881 261.264618 
L 224.71843 251.770983 
L 225.075979 251.926988 
L 225.093866 -1 
M 225.774177 -1 
L 225.791077 237.285448 
L 226.148626 285.70912 
L 226.506175 255.870407 
L 226.863724 263.815483 
L 227.221274 285.202244 
L 227.578823 257.493571 
L 227.936372 244.193249 
L 228.293921 256.678537 
L 228.65147 274.790881 
L 229.009019 243.505156 
L 229.366568 273.830654 
L 229.724117 228.815207 
L 230.081666 270.926537 
L 230.439215 262.573081 
L 230.796764 270.338591 
L 231.154313 238.602907 
L 231.511862 247.330386 
L 231.869411 277.742817 
L 232.22696 270.494442 
L 232.584509 292.635501 
L 232.942058 284.581831 
L 233.299608 279.961415 
L 233.657157 231.528067 
L 234.014706 244.18418 
L 234.372255 276.889363 
L 234.729804 254.185429 
L 235.444902 275.891643 
L 235.802451 260.507231 
L 235.814062 -1 
M 236.506489 -1 
L 236.517549 247.70044 
L 236.875098 249.245439 
L 237.232647 260.898698 
L 237.947745 238.858071 
L 238.305294 261.589183 
L 238.662843 237.187844 
L 239.020392 273.521056 
L 239.377942 280.073365 
L 239.735491 256.174309 
L 240.09304 250.365646 
L 240.450589 276.685971 
L 240.808138 263.433375 
L 241.165687 265.542225 
L 241.523236 275.370778 
L 241.880785 272.564501 
L 242.238334 295.321318 
L 242.595883 272.200106 
L 242.953432 264.397381 
L 243.310981 260.813041 
L 243.66853 253.523016 
L 244.026079 250.689377 
L 244.383628 238.531391 
L 244.741177 277.470317 
L 245.098726 254.950858 
L 245.456276 258.788973 
L 245.813825 253.296536 
L 246.171374 266.69178 
L 246.528923 234.916532 
L 246.886472 237.096817 
L 246.902242 -1 
M 247.585067 -1 
L 247.60157 248.69163 
L 247.959119 281.545993 
L 248.316668 273.112741 
L 248.674217 275.933811 
L 249.031766 252.783974 
L 249.389315 261.45932 
L 249.746864 224.205607 
L 250.104413 271.111626 
L 250.461962 243.022795 
L 250.819511 253.123507 
L 251.17706 250.800105 
L 251.892159 261.165612 
L 252.249708 240.00521 
L 252.607257 279.698338 
L 252.964806 259.941182 
L 253.322355 266.783038 
L 253.679904 243.199218 
L 254.037453 262.98756 
L 254.395002 240.886804 
L 254.752551 282.661433 
L 255.1101 264.726525 
L 255.467649 254.353499 
L 256.182747 275.794622 
L 256.540296 230.288587 
L 257.255394 271.55283 
L 257.612944 253.640409 
L 257.625005 -1 
M 258.316691 -1 
L 258.328042 238.147564 
L 259.04314 187.357339 
L 259.758238 272.675212 
L 260.115787 218.490696 
L 260.473336 232.704871 
L 260.830885 218.223797 
L 261.188434 248.01219 
L 261.545983 189.228673 
L 261.903532 245.977246 
L 262.261081 227.139189 
L 262.61863 234.603722 
L 262.976179 224.799779 
L 263.333728 243.354378 
L 263.691278 229.577667 
L 264.048827 262.735051 
L 264.406376 260.307692 
L 264.763925 193.108897 
L 265.121474 279.118793 
L 265.479023 227.239506 
L 265.836572 230.641924 
L 266.194121 180.35008 
L 266.55167 240.222426 
L 266.909219 204.092929 
L 267.266768 252.228229 
L 267.624317 247.067504 
L 267.981866 178.3769 
L 268.339415 248.367918 
L 268.696964 216.106105 
L 268.703424 -1 
M 269.404365 -1 
L 269.412062 258.631789 
L 269.769612 210.00979 
L 270.48471 277.887076 
L 270.842259 219.207702 
L 271.199808 196.357817 
L 271.557357 192.927314 
L 271.914906 204.614133 
L 272.272455 281.461935 
L 272.987553 198.777948 
L 273.345102 231.863999 
L 273.702651 245.22726 
L 274.0602 282.659284 
L 274.417749 239.144185 
L 274.775298 223.0755 
L 275.132847 188.261787 
L 275.847946 245.487969 
L 276.205495 247.227776 
L 276.563044 262.516795 
L 276.920593 243.398646 
L 277.278142 204.3577 
L 277.635691 216.540439 
L 277.99324 217.263372 
L 278.350789 263.290245 
L 278.708338 228.326379 
L 279.065887 217.002861 
L 279.423436 224.911818 
L 279.780985 239.90327 
L 279.788728 -1 
M 280.489575 -1 
L 280.496083 200.790046 
L 280.853632 199.843297 
L 281.211181 232.168512 
L 281.56873 206.346812 
L 282.283829 224.99578 
L 282.641378 211.556199 
L 282.998927 202.744777 
L 283.714025 249.623569 
L 284.429123 159.377956 
L 284.786672 211.505998 
L 285.144221 223.387797 
L 285.50177 248.512757 
L 285.859319 239.943146 
L 286.216868 222.209621 
L 286.574417 153.789927 
L 286.931966 182.606075 
L 287.289515 244.6546 
L 287.647064 197.134123 
L 288.004614 209.442405 
L 288.362163 239.401226 
L 288.719712 224.303273 
L 289.077261 231.353481 
L 289.43481 206.057935 
L 289.792359 247.827727 
L 290.149908 246.453803 
L 290.507457 225.816521 
L 290.520358 -1 
M 291.210795 -1 
L 291.222555 205.069348 
L 291.580104 223.417348 
L 291.937653 215.023982 
L 292.295202 196.420086 
L 292.652751 185.217472 
L 293.0103 238.229344 
L 293.367849 182.508887 
L 293.725398 200.192951 
L 294.082948 231.426026 
L 294.440497 199.772991 
L 295.155595 215.445422 
L 295.513144 208.240333 
L 295.870693 208.047314 
L 296.228242 236.164082 
L 296.94334 187.021062 
L 297.300889 203.267326 
L 297.658438 248.208861 
L 298.373536 194.189226 
L 298.731085 207.927885 
L 299.088634 260.483872 
L 299.446183 235.140004 
L 299.803732 189.934234 
L 300.161282 225.362452 
L 300.518831 213.140614 
L 300.87638 234.378176 
L 301.233929 212.647688 
L 301.591478 212.72157 
L 301.599693 -1 
M 302.298538 -1 
L 302.306576 208.009829 
L 302.664125 178.878455 
L 303.021674 233.534759 
L 303.379223 223.26593 
L 303.736772 206.946961 
L 304.094321 205.542264 
L 304.45187 233.699592 
L 304.809419 186.83347 
L 305.166968 169.701143 
L 305.524517 259.56105 
L 305.882066 212.025054 
L 306.239616 213.90017 
L 306.597165 214.056901 
L 306.954714 198.840312 
L 307.312263 208.454167 
L 307.669812 200.016302 
L 308.027361 206.465772 
L 308.38491 196.0667 
L 308.742459 238.470366 
L 309.100008 210.125681 
L 309.457557 157.339441 
L 309.815106 210.003916 
L 310.172655 151.850657 
L 310.530204 218.038866 
L 311.245302 179.343533 
L 311.602851 171.284965 
L 311.9604 191.533632 
L 312.31795 220.672418 
L 312.326541 -1 
M 313.026214 -1 
L 313.033048 174.429108 
L 313.390597 146.276854 
L 313.748146 176.038758 
L 314.105695 164.522689 
L 314.463244 119.233244 
L 314.820793 106.22693 
L 315.178342 184.447321 
L 315.535891 186.545653 
L 315.89344 233.137202 
L 316.250989 156.425515 
L 316.608538 125.240502 
L 316.966087 152.863834 
L 317.323636 148.191011 
L 317.681185 155.675163 
L 318.038734 211.293646 
L 318.396284 177.307032 
L 318.753833 131.90964 
L 319.111382 140.625978 
L 319.468931 130.855586 
L 319.82648 141.62518 
L 320.184029 217.398831 
L 320.541578 163.525521 
L 320.899127 194.628753 
L 321.614225 149.126631 
L 321.971774 181.479325 
L 322.329323 164.963939 
L 322.686872 167.516206 
L 323.044421 152.8603 
L 323.40197 155.919042 
L 323.414948 -1 
M 324.100721 -1 
L 324.117068 198.626678 
L 324.474618 186.562956 
L 324.832167 204.084487 
L 325.189716 206.992797 
L 325.547265 215.358225 
L 325.904814 170.469567 
L 326.262363 179.394553 
L 326.619912 216.502525 
L 326.977461 183.359824 
L 327.33501 182.840525 
L 327.692559 188.579465 
L 328.050108 200.836965 
L 328.407657 191.863123 
L 328.765206 177.423257 
L 329.122755 195.587267 
L 329.480304 229.69739 
L 329.837853 232.781625 
L 330.195402 218.308403 
L 330.552952 154.961615 
L 330.910501 210.802092 
L 331.26805 197.164946 
L 331.625599 210.711845 
L 331.983148 131.178629 
L 332.340697 222.266699 
L 333.055795 171.92049 
L 333.413344 172.904287 
L 333.770893 204.168596 
L 334.128442 197.574984 
L 334.485991 215.272531 
L 334.496996 -1 
M 335.191706 -1 
L 335.201089 182.548742 
L 335.558638 162.476901 
L 335.916187 182.19175 
L 336.273736 166.957074 
L 336.631286 185.855251 
L 336.988835 127.745478 
L 337.346384 136.326179 
L 337.703933 198.680449 
L 338.061482 182.734963 
L 338.419031 209.495051 
L 338.77658 221.241362 
L 339.134129 201.068441 
L 339.849227 140.151603 
L 340.206776 211.143321 
L 340.564325 151.847044 
L 340.921874 159.417077 
L 341.279423 200.057991 
L 341.636972 97.971106 
L 341.994521 193.243825 
L 342.35207 195.959864 
L 342.70962 189.469939 
L 343.067169 154.777894 
L 343.424718 233.720123 
L 343.782267 215.97374 
L 344.139816 189.83673 
L 344.497365 153.025566 
L 344.854914 180.326379 
L 344.863822 -1 
M 345.560096 -1 
L 345.570012 201.436071 
L 345.927561 212.292752 
L 346.28511 212.898634 
L 346.642659 156.596044 
L 347.000208 228.828109 
L 347.357757 176.512052 
L 347.715306 176.840204 
L 348.072855 155.101999 
L 348.430404 185.008478 
L 348.787954 188.586024 
L 349.145503 108.29797 
L 349.860601 203.398894 
L 350.21815 212.376816 
L 350.575699 235.800643 
L 350.933248 189.578102 
L 351.290797 161.298886 
L 351.648346 161.16282 
L 352.005895 172.460824 
L 352.720993 214.744594 
L 353.078542 176.067154 
L 353.436091 184.093846 
L 353.79364 220.571081 
L 354.151189 196.001857 
L 354.508738 150.405152 
L 355.223837 224.635099 
L 355.581386 171.140079 
L 355.938935 168.663976 
L 355.94953 -1 
M 356.64324 -1 
L 356.654033 171.931553 
L 357.011582 140.264882 
L 357.369131 156.352911 
L 357.72668 233.443982 
L 358.084229 147.029492 
L 358.441778 193.000704 
L 358.799327 185.865252 
L 359.156876 174.031396 
L 359.514425 180.89961 
L 359.871974 200.505514 
L 360.229523 183.369841 
L 360.587072 245.312781 
L 360.944622 174.091517 
L 361.302171 183.201717 
L 361.65972 184.18563 
L 362.017269 191.781862 
L 362.374818 135.665256 
L 362.732367 131.55253 
L 363.089916 177.529959 
L 363.447465 192.046409 
L 364.162563 138.762997 
L 364.877661 177.658638 
L 365.23521 164.511012 
L 365.592759 97.540626 
L 365.950308 144.695953 
L 366.307857 168.16641 
L 366.665406 147.005874 
L 366.67151 -1 
M 367.371479 -1 
L 367.380505 219.707961 
L 367.738054 153.451944 
L 368.095603 161.92113 
L 368.453152 127.095425 
L 368.810701 165.191091 
L 369.16825 128.281339 
L 369.525799 158.103304 
L 369.883348 131.870701 
L 370.240897 179.474943 
L 370.598446 155.237828 
L 370.955995 154.957506 
L 371.313544 192.730362 
L 371.671093 155.891637 
L 372.028642 145.361919 
L 372.386191 130.404718 
L 372.74374 169.651792 
L 373.10129 186.111805 
L 373.816388 106.540225 
L 374.531486 155.228526 
L 374.889035 150.793716 
L 375.246584 140.534935 
L 375.604133 142.589545 
L 375.961682 187.305867 
L 376.67678 154.606434 
L 377.034329 143.514829 
L 377.391878 190.997558 
L 377.749427 114.894901 
L 377.754119 -1 
M 378.455791 -1 
L 378.464525 217.255788 
L 378.822074 158.643859 
L 379.179624 181.704278 
L 379.894722 97.403921 
L 380.252271 81.617652 
L 380.60982 150.624666 
L 380.967369 146.257126 
L 381.324918 159.41921 
L 381.682467 104.682964 
L 382.040016 167.148846 
L 382.397565 160.250643 
L 382.755114 60.182118 
L 383.112663 139.087083 
L 383.470212 157.442642 
L 383.827761 125.248045 
L 384.18531 158.409659 
L 384.542859 122.701684 
L 384.900408 134.514462 
L 385.257958 94.313673 
L 385.973056 182.59759 
L 386.330605 138.715845 
L 386.688154 110.557351 
L 387.045703 129.604854 
L 387.403252 158.597678 
L 387.760801 104.738672 
L 388.11835 151.914244 
L 388.475899 183.887919 
L 388.833448 302.892426 
L 389.190997 303.711947 
L 389.548546 302.992811 
L 389.906095 304.254958 
L 390.263644 304.428968 
L 390.621193 303.222674 
L 390.978742 304.236153 
L 391.336292 301.170529 
L 391.693841 304.929102 
L 392.05139 303.869358 
L 392.408939 303.960802 
L 392.766488 302.936148 
L 393.124037 305.160629 
L 393.481586 302.708644 
L 393.839135 304.062748 
L 394.554233 302.618768 
L 394.911782 304.08834 
L 395.269331 302.29086 
L 395.62688 302.902148 
L 395.984429 304.628983 
L 396.341978 302.911027 
L 396.699527 303.725989 
L 397.057076 302.597384 
L 397.414626 304.118486 
L 397.772175 302.93294 
L 398.129724 303.750543 
L 398.487273 303.107851 
L 398.487273 303.107851 
" style="fill:none;stroke:#ff7f0e;stroke-linecap:square;stroke-width:1.5;"/>
   </g>
   <g id="patch_3">
    <path d="M 57.6 307.584 
L 57.6 41.472 
" style="fill:none;stroke:#000000;stroke-linecap:square;stroke-linejoin:miter;stroke-width:0.8;"/>
   </g>
   <g id="patch_4">
    <path d="M 414.72 307.584 
L 414.72 41.472 
" style="fill:none;stroke:#000000;stroke-linecap:square;stroke-linejoin:miter;stroke-width:0.8;"/>
   </g>
   <g id="patch_5">
    <path d="M 57.6 307.584 
L 414.72 307.584 
" style="fill:none;stroke:#000000;stroke-linecap:square;stroke-linejoin:miter;stroke-width:0.8;"/>
   </g>
   <g id="patch_6">
    <path d="M 57.6 41.472 
L 414.72 41.472 
" style="fill:none;stroke:#000000;stroke-linecap:square;stroke-linejoin:miter;stroke-width:0.8;"/>
   </g>
   <g id="text_22">
    <!-- Total daily sales -->
    <g transform="translate(188.676562 35.472)scale(0.12 -0.12)">
     <defs>
      <path d="M -0.296875 72.90625 
L 61.375 72.90625 
L 61.375 64.59375 
L 35.5 64.59375 
L 35.5 0 
L 25.59375 0 
L 25.59375 64.59375 
L -0.296875 64.59375 
z
" id="DejaVuSans-84"/>
      <path d="M 30.609375 48.390625 
Q 23.390625 48.390625 19.1875 42.75 
Q 14.984375 37.109375 14.984375 27.296875 
Q 14.984375 17.484375 19.15625 11.84375 
Q 23.34375 6.203125 30.609375 6.203125 
Q 37.796875 6.203125 41.984375 11.859375 
Q 46.1875 17.53125 46.1875 27.296875 
Q 46.1875 37.015625 41.984375 42.703125 
Q 37.796875 48.390625 30.609375 48.390625 
z
M 30.609375 56 
Q 42.328125 56 49.015625 48.375 
Q 55.71875 40.765625 55.71875 27.296875 
Q 55.71875 13.875 49.015625 6.21875 
Q 42.328125 -1.421875 30.609375 -1.421875 
Q 18.84375 -1.421875 12.171875 6.21875 
Q 5.515625 13.875 5.515625 27.296875 
Q 5.515625 40.765625 12.171875 48.375 
Q 18.84375 56 30.609375 56 
z
" id="DejaVuSans-111"/>
      <path id="DejaVuSans-32"/>
      <path d="M 45.40625 46.390625 
L 45.40625 75.984375 
L 54.390625 75.984375 
L 54.390625 0 
L 45.40625 0 
L 45.40625 8.203125 
Q 42.578125 3.328125 38.25 0.953125 
Q 33.9375 -1.421875 27.875 -1.421875 
Q 17.96875 -1.421875 11.734375 6.484375 
Q 5.515625 14.40625 5.515625 27.296875 
Q 5.515625 40.1875 11.734375 48.09375 
Q 17.96875 56 27.875 56 
Q 33.9375 56 38.25 53.625 
Q 42.578125 51.265625 45.40625 46.390625 
z
M 14.796875 27.296875 
Q 14.796875 17.390625 18.875 11.75 
Q 22.953125 6.109375 30.078125 6.109375 
Q 37.203125 6.109375 41.296875 11.75 
Q 45.40625 17.390625 45.40625 27.296875 
Q 45.40625 37.203125 41.296875 42.84375 
Q 37.203125 48.484375 30.078125 48.484375 
Q 22.953125 48.484375 18.875 42.84375 
Q 14.796875 37.203125 14.796875 27.296875 
z
" id="DejaVuSans-100"/>
      <path d="M 9.421875 54.6875 
L 18.40625 54.6875 
L 18.40625 0 
L 9.421875 0 
z
M 9.421875 75.984375 
L 18.40625 75.984375 
L 18.40625 64.59375 
L 9.421875 64.59375 
z
" id="DejaVuSans-105"/>
      <path d="M 32.171875 -5.078125 
Q 28.375 -14.84375 24.75 -17.8125 
Q 21.140625 -20.796875 15.09375 -20.796875 
L 7.90625 -20.796875 
L 7.90625 -13.28125 
L 13.1875 -13.28125 
Q 16.890625 -13.28125 18.9375 -11.515625 
Q 21 -9.765625 23.484375 -3.21875 
L 25.09375 0.875 
L 2.984375 54.6875 
L 12.5 54.6875 
L 29.59375 11.921875 
L 46.6875 54.6875 
L 56.203125 54.6875 
z
" id="DejaVuSans-121"/>
      <path d="M 44.28125 53.078125 
L 44.28125 44.578125 
Q 40.484375 46.53125 36.375 47.5 
Q 32.28125 48.484375 27.875 48.484375 
Q 21.1875 48.484375 17.84375 46.4375 
Q 14.5 44.390625 14.5 40.28125 
Q 14.5 37.15625 16.890625 35.375 
Q 19.28125 33.59375 26.515625 31.984375 
L 29.59375 31.296875 
Q 39.15625 29.25 43.1875 25.515625 
Q 47.21875 21.78125 47.21875 15.09375 
Q 47.21875 7.46875 41.1875 3.015625 
Q 35.15625 -1.421875 24.609375 -1.421875 
Q 20.21875 -1.421875 15.453125 -0.5625 
Q 10.6875 0.296875 5.421875 2 
L 5.421875 11.28125 
Q 10.40625 8.6875 15.234375 7.390625 
Q 20.0625 6.109375 24.8125 6.109375 
Q 31.15625 6.109375 34.5625 8.28125 
Q 37.984375 10.453125 37.984375 14.40625 
Q 37.984375 18.0625 35.515625 20.015625 
Q 33.0625 21.96875 24.703125 23.78125 
L 21.578125 24.515625 
Q 13.234375 26.265625 9.515625 29.90625 
Q 5.8125 33.546875 5.8125 39.890625 
Q 5.8125 47.609375 11.28125 51.796875 
Q 16.75 56 26.8125 56 
Q 31.78125 56 36.171875 55.265625 
Q 40.578125 54.546875 44.28125 53.078125 
z
" id="DejaVuSans-115"/>
     </defs>
     <use xlink:href="#DejaVuSans-84"/>
     <use x="44.083984" xlink:href="#DejaVuSans-111"/>
     <use x="105.265625" xlink:href="#DejaVuSans-116"/>
     <use x="144.474609" xlink:href="#DejaVuSans-97"/>
     <use x="205.753906" xlink:href="#DejaVuSans-108"/>
     <use x="233.537109" xlink:href="#DejaVuSans-32"/>
     <use x="265.324219" xlink:href="#DejaVuSans-100"/>
     <use x="328.800781" xlink:href="#DejaVuSans-97"/>
     <use x="390.080078" xlink:href="#DejaVuSans-105"/>
     <use x="417.863281" xlink:href="#DejaVuSans-108"/>
     <use x="445.646484" xlink:href="#DejaVuSans-121"/>
     <use x="504.826172" xlink:href="#DejaVuSans-32"/>
     <use x="536.613281" xlink:href="#DejaVuSans-115"/>
     <use x="588.712891" xlink:href="#DejaVuSans-97"/>
     <use x="649.992188" xlink:href="#DejaVuSans-108"/>
     <use x="677.775391" xlink:href="#DejaVuSans-101"/>
     <use x="739.298828" xlink:href="#DejaVuSans-115"/>
    </g>
   </g>
   <g id="legend_1">
    <g id="patch_7">
     <path d="M 64.6 78.82825 
L 117.967187 78.82825 
Q 119.967187 78.82825 119.967187 76.82825 
L 119.967187 48.472 
Q 119.967187 46.472 117.967187 46.472 
L 64.6 46.472 
Q 62.6 46.472 62.6 48.472 
L 62.6 76.82825 
Q 62.6 78.82825 64.6 78.82825 
z
" style="fill:#ffffff;opacity:0.8;stroke:#cccccc;stroke-linejoin:miter;"/>
    </g>
    <g id="line2d_22">
     <path d="M 66.6 54.570437 
L 86.6 54.570437 
" style="fill:none;stroke:#1f77b4;stroke-linecap:square;stroke-width:1.5;"/>
    </g>
    <g id="line2d_23"/>
    <g id="text_23">
     <!-- USD -->
     <g transform="translate(94.6 58.070437)scale(0.1 -0.1)">
      <defs>
       <path d="M 8.6875 72.90625 
L 18.609375 72.90625 
L 18.609375 28.609375 
Q 18.609375 16.890625 22.84375 11.734375 
Q 27.09375 6.59375 36.625 6.59375 
Q 46.09375 6.59375 50.34375 11.734375 
Q 54.59375 16.890625 54.59375 28.609375 
L 54.59375 72.90625 
L 64.5 72.90625 
L 64.5 27.390625 
Q 64.5 13.140625 57.4375 5.859375 
Q 50.390625 -1.421875 36.625 -1.421875 
Q 22.796875 -1.421875 15.734375 5.859375 
Q 8.6875 13.140625 8.6875 27.390625 
z
" id="DejaVuSans-85"/>
       <path d="M 53.515625 70.515625 
L 53.515625 60.890625 
Q 47.90625 63.578125 42.921875 64.890625 
Q 37.9375 66.21875 33.296875 66.21875 
Q 25.25 66.21875 20.875 63.09375 
Q 16.5 59.96875 16.5 54.203125 
Q 16.5 49.359375 19.40625 46.890625 
Q 22.3125 44.4375 30.421875 42.921875 
L 36.375 41.703125 
Q 47.40625 39.59375 52.65625 34.296875 
Q 57.90625 29 57.90625 20.125 
Q 57.90625 9.515625 50.796875 4.046875 
Q 43.703125 -1.421875 29.984375 -1.421875 
Q 24.8125 -1.421875 18.96875 -0.25 
Q 13.140625 0.921875 6.890625 3.21875 
L 6.890625 13.375 
Q 12.890625 10.015625 18.65625 8.296875 
Q 24.421875 6.59375 29.984375 6.59375 
Q 38.421875 6.59375 43.015625 9.90625 
Q 47.609375 13.234375 47.609375 19.390625 
Q 47.609375 24.75 44.3125 27.78125 
Q 41.015625 30.8125 33.5 32.328125 
L 27.484375 33.5 
Q 16.453125 35.6875 11.515625 40.375 
Q 6.59375 45.0625 6.59375 53.421875 
Q 6.59375 63.09375 13.40625 68.65625 
Q 20.21875 74.21875 32.171875 74.21875 
Q 37.3125 74.21875 42.625 73.28125 
Q 47.953125 72.359375 53.515625 70.515625 
z
" id="DejaVuSans-83"/>
      </defs>
      <use xlink:href="#DejaVuSans-85"/>
      <use x="73.193359" xlink:href="#DejaVuSans-83"/>
      <use x="136.669922" xlink:href="#DejaVuSans-68"/>
     </g>
    </g>
    <g id="line2d_24">
     <path d="M 66.6 69.248562 
L 86.6 69.248562 
" style="fill:none;stroke:#ff7f0e;stroke-linecap:square;stroke-width:1.5;"/>
    </g>
    <g id="line2d_25"/>
    <g id="text_24">
     <!-- PLN -->
     <g transform="translate(94.6 72.748562)scale(0.1 -0.1)">
      <defs>
       <path d="M 19.671875 64.796875 
L 19.671875 37.40625 
L 32.078125 37.40625 
Q 38.96875 37.40625 42.71875 40.96875 
Q 46.484375 44.53125 46.484375 51.125 
Q 46.484375 57.671875 42.71875 61.234375 
Q 38.96875 64.796875 32.078125 64.796875 
z
M 9.8125 72.90625 
L 32.078125 72.90625 
Q 44.34375 72.90625 50.609375 67.359375 
Q 56.890625 61.8125 56.890625 51.125 
Q 56.890625 40.328125 50.609375 34.8125 
Q 44.34375 29.296875 32.078125 29.296875 
L 19.671875 29.296875 
L 19.671875 0 
L 9.8125 0 
z
" id="DejaVuSans-80"/>
       <path d="M 9.8125 72.90625 
L 19.671875 72.90625 
L 19.671875 8.296875 
L 55.171875 8.296875 
L 55.171875 0 
L 9.8125 0 
z
" id="DejaVuSans-76"/>
       <path d="M 9.8125 72.90625 
L 23.09375 72.90625 
L 55.421875 11.921875 
L 55.421875 72.90625 
L 64.984375 72.90625 
L 64.984375 0 
L 51.703125 0 
L 19.390625 60.984375 
L 19.390625 0 
L 9.8125 0 
z
" id="DejaVuSans-78"/>
      </defs>
      <use xlink:href="#DejaVuSans-80"/>
      <use x="60.302734" xlink:href="#DejaVuSans-76"/>
      <use x="116.015625" xlink:href="#DejaVuSans-78"/>
     </g>
    </g>
   </g>
  </g>
 </g>
 <defs>
  <clipPath id="p163aefce88">
   <rect height="266.112" width="357.12" x="57.6" y="41.472"/>
  </clipPath>
 </defs>
</svg>
