<?xml version="1.0" encoding="utf-8" standalone="no"?>
<!DOCTYPE svg PUBLIC "-//W3C//DTD SVG 1.1//EN"
  "http://www.w3.org/Graphics/SVG/1.1/DTD/svg11.dtd">
<!-- Created with matplotlib (https://matplotlib.org/) -->
<svg height="345.6pt" version="1.1" viewBox="0 0 460.8 345.6" width="460.8pt" xmlns="http://www.w3.org/2000/svg" xmlns:xlink="http://www.w3.org/1999/xlink">
 <metadata>
  <rdf:RDF xmlns:cc="http://creativecommons.org/ns#" xmlns:dc="http://purl.org/dc/elements/1.1/" xmlns:rdf="http://www.w3.org/1999/02/22-rdf-syntax-ns#">
   <cc:Work>
    <dc:type rdf:resource="http://purl.org/dc/dcmitype/StillImage"/>
    <dc:date>2020-11-21T16:54:38.621534</dc:date>
    <dc:format>image/svg+xml</dc:format>
    <dc:creator>
     <cc:Agent>
      <dc:title>Matplotlib v3.3.3, https://matplotlib.org/</dc:title>
     </cc:Agent>
    </dc:creator>
   </cc:Work>
  </rdf:RDF>
 </metadata>
 <defs>
  <style type="text/css">*{stroke-linecap:butt;stroke-linejoin:round;}</style>
 </defs>
 <g id="figure_1">
  <g id="patch_1">
   <path d="M 0 345.6 
L 460.8 345.6 
L 460.8 0 
L 0 0 
z
" style="fill:#ffffff;"/>
  </g>
  <g id="axes_1">
   <g id="patch_2">
    <path d="M 57.6 307.584 
L 414.72 307.584 
L 414.72 41.472 
L 57.6 41.472 
z
" style="fill:#ffffff;"/>
   </g>
   <g id="matplotlib.axis_1">
    <g id="xtick_1">
     <g id="line2d_1">
      <defs>
       <path d="M 0 0 
L 0 3.5 
" id="m9db5290a13" style="stroke:#000000;stroke-width:0.8;"/>
      </defs>
      <g>
       <use style="stroke:#000000;stroke-width:0.8;" x="63.791865" xlink:href="#m9db5290a13" y="307.584"/>
      </g>
     </g>
     <g id="text_1">
      <!-- 2011-09 -->
      <g transform="translate(42.900459 322.182437)scale(0.1 -0.1)">
       <defs>
        <path d="M 19.1875 8.296875 
L 53.609375 8.296875 
L 53.609375 0 
L 7.328125 0 
L 7.328125 8.296875 
Q 12.9375 14.109375 22.625 23.890625 
Q 32.328125 33.6875 34.8125 36.53125 
Q 39.546875 41.84375 41.421875 45.53125 
Q 43.3125 49.21875 43.3125 52.78125 
Q 43.3125 58.59375 39.234375 62.25 
Q 35.15625 65.921875 28.609375 65.921875 
Q 23.96875 65.921875 18.8125 64.3125 
Q 13.671875 62.703125 7.8125 59.421875 
L 7.8125 69.390625 
Q 13.765625 71.78125 18.9375 73 
Q 24.125 74.21875 28.421875 74.21875 
Q 39.75 74.21875 46.484375 68.546875 
Q 53.21875 62.890625 53.21875 53.421875 
Q 53.21875 48.921875 51.53125 44.890625 
Q 49.859375 40.875 45.40625 35.40625 
Q 44.1875 33.984375 37.640625 27.21875 
Q 31.109375 20.453125 19.1875 8.296875 
z
" id="DejaVuSans-50"/>
        <path d="M 31.78125 66.40625 
Q 24.171875 66.40625 20.328125 58.90625 
Q 16.5 51.421875 16.5 36.375 
Q 16.5 21.390625 20.328125 13.890625 
Q 24.171875 6.390625 31.78125 6.390625 
Q 39.453125 6.390625 43.28125 13.890625 
Q 47.125 21.390625 47.125 36.375 
Q 47.125 51.421875 43.28125 58.90625 
Q 39.453125 66.40625 31.78125 66.40625 
z
M 31.78125 74.21875 
Q 44.046875 74.21875 50.515625 64.515625 
Q 56.984375 54.828125 56.984375 36.375 
Q 56.984375 17.96875 50.515625 8.265625 
Q 44.046875 -1.421875 31.78125 -1.421875 
Q 19.53125 -1.421875 13.0625 8.265625 
Q 6.59375 17.96875 6.59375 36.375 
Q 6.59375 54.828125 13.0625 64.515625 
Q 19.53125 74.21875 31.78125 74.21875 
z
" id="DejaVuSans-48"/>
        <path d="M 12.40625 8.296875 
L 28.515625 8.296875 
L 28.515625 63.921875 
L 10.984375 60.40625 
L 10.984375 69.390625 
L 28.421875 72.90625 
L 38.28125 72.90625 
L 38.28125 8.296875 
L 54.390625 8.296875 
L 54.390625 0 
L 12.40625 0 
z
" id="DejaVuSans-49"/>
        <path d="M 4.890625 31.390625 
L 31.203125 31.390625 
L 31.203125 23.390625 
L 4.890625 23.390625 
z
" id="DejaVuSans-45"/>
        <path d="M 10.984375 1.515625 
L 10.984375 10.5 
Q 14.703125 8.734375 18.5 7.8125 
Q 22.3125 6.890625 25.984375 6.890625 
Q 35.75 6.890625 40.890625 13.453125 
Q 46.046875 20.015625 46.78125 33.40625 
Q 43.953125 29.203125 39.59375 26.953125 
Q 35.25 24.703125 29.984375 24.703125 
Q 19.046875 24.703125 12.671875 31.3125 
Q 6.296875 37.9375 6.296875 49.421875 
Q 6.296875 60.640625 12.9375 67.421875 
Q 19.578125 74.21875 30.609375 74.21875 
Q 43.265625 74.21875 49.921875 64.515625 
Q 56.59375 54.828125 56.59375 36.375 
Q 56.59375 19.140625 48.40625 8.859375 
Q 40.234375 -1.421875 26.421875 -1.421875 
Q 22.703125 -1.421875 18.890625 -0.6875 
Q 15.09375 0.046875 10.984375 1.515625 
z
M 30.609375 32.421875 
Q 37.25 32.421875 41.125 36.953125 
Q 45.015625 41.5 45.015625 49.421875 
Q 45.015625 57.28125 41.125 61.84375 
Q 37.25 66.40625 30.609375 66.40625 
Q 23.96875 66.40625 20.09375 61.84375 
Q 16.21875 57.28125 16.21875 49.421875 
Q 16.21875 41.5 20.09375 36.953125 
Q 23.96875 32.421875 30.609375 32.421875 
z
" id="DejaVuSans-57"/>
       </defs>
       <use xlink:href="#DejaVuSans-50"/>
       <use x="63.623047" xlink:href="#DejaVuSans-48"/>
       <use x="127.246094" xlink:href="#DejaVuSans-49"/>
       <use x="190.869141" xlink:href="#DejaVuSans-49"/>
       <use x="254.492188" xlink:href="#DejaVuSans-45"/>
       <use x="290.576172" xlink:href="#DejaVuSans-48"/>
       <use x="354.199219" xlink:href="#DejaVuSans-57"/>
      </g>
     </g>
    </g>
    <g id="xtick_2">
     <g id="line2d_2">
      <g>
       <use style="stroke:#000000;stroke-width:0.8;" x="104.624705" xlink:href="#m9db5290a13" y="307.584"/>
      </g>
     </g>
     <g id="text_2">
      <!-- 2012-01 -->
      <g transform="translate(83.733299 322.182437)scale(0.1 -0.1)">
       <use xlink:href="#DejaVuSans-50"/>
       <use x="63.623047" xlink:href="#DejaVuSans-48"/>
       <use x="127.246094" xlink:href="#DejaVuSans-49"/>
       <use x="190.869141" xlink:href="#DejaVuSans-50"/>
       <use x="254.492188" xlink:href="#DejaVuSans-45"/>
       <use x="290.576172" xlink:href="#DejaVuSans-48"/>
       <use x="354.199219" xlink:href="#DejaVuSans-49"/>
      </g>
     </g>
    </g>
    <g id="xtick_3">
     <g id="line2d_3">
      <g>
       <use style="stroke:#000000;stroke-width:0.8;" x="145.122849" xlink:href="#m9db5290a13" y="307.584"/>
      </g>
     </g>
     <g id="text_3">
      <!-- 2012-05 -->
      <g transform="translate(124.231443 322.182437)scale(0.1 -0.1)">
       <defs>
        <path d="M 10.796875 72.90625 
L 49.515625 72.90625 
L 49.515625 64.59375 
L 19.828125 64.59375 
L 19.828125 46.734375 
Q 21.96875 47.46875 24.109375 47.828125 
Q 26.265625 48.1875 28.421875 48.1875 
Q 40.625 48.1875 47.75 41.5 
Q 54.890625 34.8125 54.890625 23.390625 
Q 54.890625 11.625 47.5625 5.09375 
Q 40.234375 -1.421875 26.90625 -1.421875 
Q 22.3125 -1.421875 17.546875 -0.640625 
Q 12.796875 0.140625 7.71875 1.703125 
L 7.71875 11.625 
Q 12.109375 9.234375 16.796875 8.0625 
Q 21.484375 6.890625 26.703125 6.890625 
Q 35.15625 6.890625 40.078125 11.328125 
Q 45.015625 15.765625 45.015625 23.390625 
Q 45.015625 31 40.078125 35.4375 
Q 35.15625 39.890625 26.703125 39.890625 
Q 22.75 39.890625 18.8125 39.015625 
Q 14.890625 38.140625 10.796875 36.28125 
z
" id="DejaVuSans-53"/>
       </defs>
       <use xlink:href="#DejaVuSans-50"/>
       <use x="63.623047" xlink:href="#DejaVuSans-48"/>
       <use x="127.246094" xlink:href="#DejaVuSans-49"/>
       <use x="190.869141" xlink:href="#DejaVuSans-50"/>
       <use x="254.492188" xlink:href="#DejaVuSans-45"/>
       <use x="290.576172" xlink:href="#DejaVuSans-48"/>
       <use x="354.199219" xlink:href="#DejaVuSans-53"/>
      </g>
     </g>
    </g>
    <g id="xtick_4">
     <g id="line2d_4">
      <g>
       <use style="stroke:#000000;stroke-width:0.8;" x="186.290384" xlink:href="#m9db5290a13" y="307.584"/>
      </g>
     </g>
     <g id="text_4">
      <!-- 2012-09 -->
      <g transform="translate(165.398978 322.182437)scale(0.1 -0.1)">
       <use xlink:href="#DejaVuSans-50"/>
       <use x="63.623047" xlink:href="#DejaVuSans-48"/>
       <use x="127.246094" xlink:href="#DejaVuSans-49"/>
       <use x="190.869141" xlink:href="#DejaVuSans-50"/>
       <use x="254.492188" xlink:href="#DejaVuSans-45"/>
       <use x="290.576172" xlink:href="#DejaVuSans-48"/>
       <use x="354.199219" xlink:href="#DejaVuSans-57"/>
      </g>
     </g>
    </g>
    <g id="xtick_5">
     <g id="line2d_5">
      <g>
       <use style="stroke:#000000;stroke-width:0.8;" x="227.123224" xlink:href="#m9db5290a13" y="307.584"/>
      </g>
     </g>
     <g id="text_5">
      <!-- 2013-01 -->
      <g transform="translate(206.231818 322.182437)scale(0.1 -0.1)">
       <defs>
        <path d="M 40.578125 39.3125 
Q 47.65625 37.796875 51.625 33 
Q 55.609375 28.21875 55.609375 21.1875 
Q 55.609375 10.40625 48.1875 4.484375 
Q 40.765625 -1.421875 27.09375 -1.421875 
Q 22.515625 -1.421875 17.65625 -0.515625 
Q 12.796875 0.390625 7.625 2.203125 
L 7.625 11.71875 
Q 11.71875 9.328125 16.59375 8.109375 
Q 21.484375 6.890625 26.8125 6.890625 
Q 36.078125 6.890625 40.9375 10.546875 
Q 45.796875 14.203125 45.796875 21.1875 
Q 45.796875 27.640625 41.28125 31.265625 
Q 36.765625 34.90625 28.71875 34.90625 
L 20.21875 34.90625 
L 20.21875 43.015625 
L 29.109375 43.015625 
Q 36.375 43.015625 40.234375 45.921875 
Q 44.09375 48.828125 44.09375 54.296875 
Q 44.09375 59.90625 40.109375 62.90625 
Q 36.140625 65.921875 28.71875 65.921875 
Q 24.65625 65.921875 20.015625 65.03125 
Q 15.375 64.15625 9.8125 62.3125 
L 9.8125 71.09375 
Q 15.4375 72.65625 20.34375 73.4375 
Q 25.25 74.21875 29.59375 74.21875 
Q 40.828125 74.21875 47.359375 69.109375 
Q 53.90625 64.015625 53.90625 55.328125 
Q 53.90625 49.265625 50.4375 45.09375 
Q 46.96875 40.921875 40.578125 39.3125 
z
" id="DejaVuSans-51"/>
       </defs>
       <use xlink:href="#DejaVuSans-50"/>
       <use x="63.623047" xlink:href="#DejaVuSans-48"/>
       <use x="127.246094" xlink:href="#DejaVuSans-49"/>
       <use x="190.869141" xlink:href="#DejaVuSans-51"/>
       <use x="254.492188" xlink:href="#DejaVuSans-45"/>
       <use x="290.576172" xlink:href="#DejaVuSans-48"/>
       <use x="354.199219" xlink:href="#DejaVuSans-49"/>
      </g>
     </g>
    </g>
    <g id="xtick_6">
     <g id="line2d_6">
      <g>
       <use style="stroke:#000000;stroke-width:0.8;" x="267.286673" xlink:href="#m9db5290a13" y="307.584"/>
      </g>
     </g>
     <g id="text_6">
      <!-- 2013-05 -->
      <g transform="translate(246.395267 322.182437)scale(0.1 -0.1)">
       <use xlink:href="#DejaVuSans-50"/>
       <use x="63.623047" xlink:href="#DejaVuSans-48"/>
       <use x="127.246094" xlink:href="#DejaVuSans-49"/>
       <use x="190.869141" xlink:href="#DejaVuSans-51"/>
       <use x="254.492188" xlink:href="#DejaVuSans-45"/>
       <use x="290.576172" xlink:href="#DejaVuSans-48"/>
       <use x="354.199219" xlink:href="#DejaVuSans-53"/>
      </g>
     </g>
    </g>
    <g id="xtick_7">
     <g id="line2d_7">
      <g>
       <use style="stroke:#000000;stroke-width:0.8;" x="308.454208" xlink:href="#m9db5290a13" y="307.584"/>
      </g>
     </g>
     <g id="text_7">
      <!-- 2013-09 -->
      <g transform="translate(287.562802 322.182437)scale(0.1 -0.1)">
       <use xlink:href="#DejaVuSans-50"/>
       <use x="63.623047" xlink:href="#DejaVuSans-48"/>
       <use x="127.246094" xlink:href="#DejaVuSans-49"/>
       <use x="190.869141" xlink:href="#DejaVuSans-51"/>
       <use x="254.492188" xlink:href="#DejaVuSans-45"/>
       <use x="290.576172" xlink:href="#DejaVuSans-48"/>
       <use x="354.199219" xlink:href="#DejaVuSans-57"/>
      </g>
     </g>
    </g>
    <g id="xtick_8">
     <g id="line2d_8">
      <g>
       <use style="stroke:#000000;stroke-width:0.8;" x="349.287048" xlink:href="#m9db5290a13" y="307.584"/>
      </g>
     </g>
     <g id="text_8">
      <!-- 2014-01 -->
      <g transform="translate(328.395642 322.182437)scale(0.1 -0.1)">
       <defs>
        <path d="M 37.796875 64.3125 
L 12.890625 25.390625 
L 37.796875 25.390625 
z
M 35.203125 72.90625 
L 47.609375 72.90625 
L 47.609375 25.390625 
L 58.015625 25.390625 
L 58.015625 17.1875 
L 47.609375 17.1875 
L 47.609375 0 
L 37.796875 0 
L 37.796875 17.1875 
L 4.890625 17.1875 
L 4.890625 26.703125 
z
" id="DejaVuSans-52"/>
       </defs>
       <use xlink:href="#DejaVuSans-50"/>
       <use x="63.623047" xlink:href="#DejaVuSans-48"/>
       <use x="127.246094" xlink:href="#DejaVuSans-49"/>
       <use x="190.869141" xlink:href="#DejaVuSans-52"/>
       <use x="254.492188" xlink:href="#DejaVuSans-45"/>
       <use x="290.576172" xlink:href="#DejaVuSans-48"/>
       <use x="354.199219" xlink:href="#DejaVuSans-49"/>
      </g>
     </g>
    </g>
    <g id="xtick_9">
     <g id="line2d_9">
      <g>
       <use style="stroke:#000000;stroke-width:0.8;" x="389.450497" xlink:href="#m9db5290a13" y="307.584"/>
      </g>
     </g>
     <g id="text_9">
      <!-- 2014-05 -->
      <g transform="translate(368.55909 322.182437)scale(0.1 -0.1)">
       <use xlink:href="#DejaVuSans-50"/>
       <use x="63.623047" xlink:href="#DejaVuSans-48"/>
       <use x="127.246094" xlink:href="#DejaVuSans-49"/>
       <use x="190.869141" xlink:href="#DejaVuSans-52"/>
       <use x="254.492188" xlink:href="#DejaVuSans-45"/>
       <use x="290.576172" xlink:href="#DejaVuSans-48"/>
       <use x="354.199219" xlink:href="#DejaVuSans-53"/>
      </g>
     </g>
    </g>
    <g id="text_10">
     <!-- Date -->
     <g transform="translate(222.85375 335.860562)scale(0.1 -0.1)">
      <defs>
       <path d="M 27.984375 58.6875 
L 27.984375 14.203125 
L 34.71875 14.203125 
Q 46.234375 14.203125 52.3125 19.921875 
Q 58.40625 25.640625 58.40625 36.53125 
Q 58.40625 47.359375 52.34375 53.015625 
Q 46.296875 58.6875 34.71875 58.6875 
z
M 9.1875 72.90625 
L 29 72.90625 
Q 45.609375 72.90625 53.734375 70.53125 
Q 61.859375 68.171875 67.671875 62.5 
Q 72.796875 57.5625 75.28125 51.109375 
Q 77.78125 44.671875 77.78125 36.53125 
Q 77.78125 28.265625 75.28125 21.796875 
Q 72.796875 15.328125 67.671875 10.40625 
Q 61.8125 4.734375 53.609375 2.359375 
Q 45.40625 0 29 0 
L 9.1875 0 
z
" id="DejaVuSans-Bold-68"/>
       <path d="M 32.90625 24.609375 
Q 27.4375 24.609375 24.671875 22.75 
Q 21.921875 20.90625 21.921875 17.28125 
Q 21.921875 13.96875 24.140625 12.078125 
Q 26.375 10.203125 30.328125 10.203125 
Q 35.25 10.203125 38.625 13.734375 
Q 42 17.28125 42 22.609375 
L 42 24.609375 
z
M 59.625 31.203125 
L 59.625 0 
L 42 0 
L 42 8.109375 
Q 38.484375 3.125 34.078125 0.84375 
Q 29.6875 -1.421875 23.390625 -1.421875 
Q 14.890625 -1.421875 9.59375 3.53125 
Q 4.296875 8.5 4.296875 16.40625 
Q 4.296875 26.03125 10.90625 30.515625 
Q 17.53125 35.015625 31.6875 35.015625 
L 42 35.015625 
L 42 36.375 
Q 42 40.53125 38.71875 42.453125 
Q 35.453125 44.390625 28.515625 44.390625 
Q 22.90625 44.390625 18.0625 43.265625 
Q 13.234375 42.140625 9.078125 39.890625 
L 9.078125 53.21875 
Q 14.703125 54.59375 20.359375 55.296875 
Q 26.03125 56 31.6875 56 
Q 46.484375 56 53.046875 50.171875 
Q 59.625 44.34375 59.625 31.203125 
z
" id="DejaVuSans-Bold-97"/>
       <path d="M 27.484375 70.21875 
L 27.484375 54.6875 
L 45.515625 54.6875 
L 45.515625 42.1875 
L 27.484375 42.1875 
L 27.484375 19 
Q 27.484375 15.1875 29 13.84375 
Q 30.515625 12.5 35.015625 12.5 
L 44 12.5 
L 44 0 
L 29 0 
Q 18.65625 0 14.328125 4.3125 
Q 10.015625 8.640625 10.015625 19 
L 10.015625 42.1875 
L 1.3125 42.1875 
L 1.3125 54.6875 
L 10.015625 54.6875 
L 10.015625 70.21875 
z
" id="DejaVuSans-Bold-116"/>
       <path d="M 62.984375 27.484375 
L 62.984375 22.515625 
L 22.125 22.515625 
Q 22.75 16.359375 26.5625 13.28125 
Q 30.375 10.203125 37.203125 10.203125 
Q 42.71875 10.203125 48.5 11.84375 
Q 54.296875 13.484375 60.40625 16.796875 
L 60.40625 3.328125 
Q 54.203125 0.984375 48 -0.21875 
Q 41.796875 -1.421875 35.59375 -1.421875 
Q 20.75 -1.421875 12.515625 6.125 
Q 4.296875 13.671875 4.296875 27.296875 
Q 4.296875 40.671875 12.375 48.328125 
Q 20.453125 56 34.625 56 
Q 47.515625 56 55.25 48.234375 
Q 62.984375 40.484375 62.984375 27.484375 
z
M 45.015625 33.296875 
Q 45.015625 38.28125 42.109375 41.328125 
Q 39.203125 44.390625 34.515625 44.390625 
Q 29.4375 44.390625 26.265625 41.53125 
Q 23.09375 38.671875 22.3125 33.296875 
z
" id="DejaVuSans-Bold-101"/>
      </defs>
      <use xlink:href="#DejaVuSans-Bold-68"/>
      <use x="83.007812" xlink:href="#DejaVuSans-Bold-97"/>
      <use x="150.488281" xlink:href="#DejaVuSans-Bold-116"/>
      <use x="198.291016" xlink:href="#DejaVuSans-Bold-101"/>
     </g>
    </g>
   </g>
   <g id="matplotlib.axis_2">
    <g id="ytick_1">
     <g id="line2d_10">
      <defs>
       <path d="M 0 0 
L -3.5 0 
" id="m5d11845ed7" style="stroke:#000000;stroke-width:0.8;"/>
      </defs>
      <g>
       <use style="stroke:#000000;stroke-width:0.8;" x="57.6" xlink:href="#m5d11845ed7" y="307.584"/>
      </g>
     </g>
     <g id="text_11">
      <!-- 0 -->
      <g transform="translate(44.2375 311.383219)scale(0.1 -0.1)">
       <use xlink:href="#DejaVuSans-48"/>
      </g>
     </g>
    </g>
    <g id="ytick_2">
     <g id="line2d_11">
      <g>
       <use style="stroke:#000000;stroke-width:0.8;" x="57.6" xlink:href="#m5d11845ed7" y="269.568"/>
      </g>
     </g>
     <g id="text_12">
      <!-- 50000 -->
      <g transform="translate(18.7875 273.367219)scale(0.1 -0.1)">
       <use xlink:href="#DejaVuSans-53"/>
       <use x="63.623047" xlink:href="#DejaVuSans-48"/>
       <use x="127.246094" xlink:href="#DejaVuSans-48"/>
       <use x="190.869141" xlink:href="#DejaVuSans-48"/>
       <use x="254.492188" xlink:href="#DejaVuSans-48"/>
      </g>
     </g>
    </g>
    <g id="ytick_3">
     <g id="line2d_12">
      <g>
       <use style="stroke:#000000;stroke-width:0.8;" x="57.6" xlink:href="#m5d11845ed7" y="231.552"/>
      </g>
     </g>
     <g id="text_13">
      <!-- 100000 -->
      <g transform="translate(12.425 235.351219)scale(0.1 -0.1)">
       <use xlink:href="#DejaVuSans-49"/>
       <use x="63.623047" xlink:href="#DejaVuSans-48"/>
       <use x="127.246094" xlink:href="#DejaVuSans-48"/>
       <use x="190.869141" xlink:href="#DejaVuSans-48"/>
       <use x="254.492188" xlink:href="#DejaVuSans-48"/>
       <use x="318.115234" xlink:href="#DejaVuSans-48"/>
      </g>
     </g>
    </g>
    <g id="ytick_4">
     <g id="line2d_13">
      <g>
       <use style="stroke:#000000;stroke-width:0.8;" x="57.6" xlink:href="#m5d11845ed7" y="193.536"/>
      </g>
     </g>
     <g id="text_14">
      <!-- 150000 -->
      <g transform="translate(12.425 197.335219)scale(0.1 -0.1)">
       <use xlink:href="#DejaVuSans-49"/>
       <use x="63.623047" xlink:href="#DejaVuSans-53"/>
       <use x="127.246094" xlink:href="#DejaVuSans-48"/>
       <use x="190.869141" xlink:href="#DejaVuSans-48"/>
       <use x="254.492188" xlink:href="#DejaVuSans-48"/>
       <use x="318.115234" xlink:href="#DejaVuSans-48"/>
      </g>
     </g>
    </g>
    <g id="ytick_5">
     <g id="line2d_14">
      <g>
       <use style="stroke:#000000;stroke-width:0.8;" x="57.6" xlink:href="#m5d11845ed7" y="155.52"/>
      </g>
     </g>
     <g id="text_15">
      <!-- 200000 -->
      <g transform="translate(12.425 159.319219)scale(0.1 -0.1)">
       <use xlink:href="#DejaVuSans-50"/>
       <use x="63.623047" xlink:href="#DejaVuSans-48"/>
       <use x="127.246094" xlink:href="#DejaVuSans-48"/>
       <use x="190.869141" xlink:href="#DejaVuSans-48"/>
       <use x="254.492188" xlink:href="#DejaVuSans-48"/>
       <use x="318.115234" xlink:href="#DejaVuSans-48"/>
      </g>
     </g>
    </g>
    <g id="ytick_6">
     <g id="line2d_15">
      <g>
       <use style="stroke:#000000;stroke-width:0.8;" x="57.6" xlink:href="#m5d11845ed7" y="117.504"/>
      </g>
     </g>
     <g id="text_16">
      <!-- 250000 -->
      <g transform="translate(12.425 121.303219)scale(0.1 -0.1)">
       <use xlink:href="#DejaVuSans-50"/>
       <use x="63.623047" xlink:href="#DejaVuSans-53"/>
       <use x="127.246094" xlink:href="#DejaVuSans-48"/>
       <use x="190.869141" xlink:href="#DejaVuSans-48"/>
       <use x="254.492188" xlink:href="#DejaVuSans-48"/>
       <use x="318.115234" xlink:href="#DejaVuSans-48"/>
      </g>
     </g>
    </g>
    <g id="ytick_7">
     <g id="line2d_16">
      <g>
       <use style="stroke:#000000;stroke-width:0.8;" x="57.6" xlink:href="#m5d11845ed7" y="79.488"/>
      </g>
     </g>
     <g id="text_17">
      <!-- 300000 -->
      <g transform="translate(12.425 83.287219)scale(0.1 -0.1)">
       <use xlink:href="#DejaVuSans-51"/>
       <use x="63.623047" xlink:href="#DejaVuSans-48"/>
       <use x="127.246094" xlink:href="#DejaVuSans-48"/>
       <use x="190.869141" xlink:href="#DejaVuSans-48"/>
       <use x="254.492188" xlink:href="#DejaVuSans-48"/>
       <use x="318.115234" xlink:href="#DejaVuSans-48"/>
      </g>
     </g>
    </g>
    <g id="ytick_8">
     <g id="line2d_17">
      <g>
       <use style="stroke:#000000;stroke-width:0.8;" x="57.6" xlink:href="#m5d11845ed7" y="41.472"/>
      </g>
     </g>
     <g id="text_18">
      <!-- 350000 -->
      <g transform="translate(12.425 45.271219)scale(0.1 -0.1)">
       <use xlink:href="#DejaVuSans-51"/>
       <use x="63.623047" xlink:href="#DejaVuSans-53"/>
       <use x="127.246094" xlink:href="#DejaVuSans-48"/>
       <use x="190.869141" xlink:href="#DejaVuSans-48"/>
       <use x="254.492188" xlink:href="#DejaVuSans-48"/>
       <use x="318.115234" xlink:href="#DejaVuSans-48"/>
      </g>
     </g>
    </g>
    <g id="text_19">
     <!-- Value -->
     <g transform="translate(6.345312 190.161594)rotate(-90)scale(0.1 -0.1)">
      <defs>
       <path d="M 0.484375 72.90625 
L 19.390625 72.90625 
L 38.71875 19.09375 
L 58.015625 72.90625 
L 76.90625 72.90625 
L 49.90625 0 
L 27.484375 0 
z
" id="DejaVuSans-Bold-86"/>
       <path d="M 8.40625 75.984375 
L 25.875 75.984375 
L 25.875 0 
L 8.40625 0 
z
" id="DejaVuSans-Bold-108"/>
       <path d="M 7.8125 21.296875 
L 7.8125 54.6875 
L 25.390625 54.6875 
L 25.390625 49.21875 
Q 25.390625 44.78125 25.34375 38.0625 
Q 25.296875 31.34375 25.296875 29.109375 
Q 25.296875 22.515625 25.640625 19.609375 
Q 25.984375 16.703125 26.8125 15.375 
Q 27.875 13.671875 29.609375 12.734375 
Q 31.34375 11.8125 33.59375 11.8125 
Q 39.0625 11.8125 42.1875 16.015625 
Q 45.3125 20.21875 45.3125 27.6875 
L 45.3125 54.6875 
L 62.796875 54.6875 
L 62.796875 0 
L 45.3125 0 
L 45.3125 7.90625 
Q 41.359375 3.125 36.9375 0.84375 
Q 32.515625 -1.421875 27.203125 -1.421875 
Q 17.71875 -1.421875 12.765625 4.390625 
Q 7.8125 10.203125 7.8125 21.296875 
z
" id="DejaVuSans-Bold-117"/>
      </defs>
      <use xlink:href="#DejaVuSans-Bold-86"/>
      <use x="71.892578" xlink:href="#DejaVuSans-Bold-97"/>
      <use x="139.373047" xlink:href="#DejaVuSans-Bold-108"/>
      <use x="173.650391" xlink:href="#DejaVuSans-Bold-117"/>
      <use x="244.841797" xlink:href="#DejaVuSans-Bold-101"/>
     </g>
    </g>
   </g>
   <g id="line2d_18">
    <path clip-path="url(#p1da29f68fe)" d="M 74.117257 -1 
L 74.167423 298.565111 
L 74.502118 295.879383 
L 75.171509 289.108654 
L 75.506204 292.873087 
L 75.8409 285.365225 
L 76.175595 283.533628 
L 76.510291 295.558814 
L 76.844986 289.300444 
L 77.179681 289.546221 
L 77.514377 291.377818 
L 77.849072 284.303545 
L 78.183768 283.437634 
L 78.518463 294.554901 
L 78.853158 286.710711 
L 79.187854 297.977761 
L 79.522549 298.714893 
L 79.857245 291.965168 
L 80.19194 295.121247 
L 80.526635 289.845786 
L 80.861331 303.990354 
L 81.196026 297.977761 
L 81.530722 286.881498 
L 81.865417 298.735897 
L 82.200112 291.965168 
L 82.534808 300.984057 
L 82.869503 289.408219 
L 83.204199 292.552518 
L 83.538894 291.965168 
L 83.606169 -1 
M 84.142086 -1 
L 84.208285 286.123361 
L 84.54298 277.841604 
L 84.877676 295.121247 
L 85.212371 289.887794 
L 85.547067 292.552518 
L 85.881762 289.696004 
L 86.216457 260.994085 
L 86.551153 292.7023 
L 86.885848 301.571407 
L 87.220544 276.933685 
L 87.555239 295.558814 
L 87.889934 275.49745 
L 88.22463 292.723304 
L 88.559325 274.247958 
L 88.894021 289.129658 
L 89.228716 298.148547 
L 89.563411 289.546221 
L 89.898107 273.073258 
L 90.232802 283.458638 
L 90.567498 284.927658 
L 90.902193 288.958871 
L 91.236888 285.952575 
L 91.571584 294.971464 
L 91.906279 291.548604 
L 92.240975 286.123361 
L 92.57567 295.558814 
L 92.910366 284.927658 
L 93.245061 283.875201 
L 93.579756 287.010276 
L 93.914452 288.958871 
L 94.075669 -1 
M 94.420743 -1 
L 94.583843 295.558814 
L 94.918538 284.024984 
L 95.587929 300.984057 
L 95.922624 289.717008 
L 96.25732 300.396707 
L 96.592015 286.273144 
L 96.92671 292.552518 
L 97.261406 295.729601 
L 97.596101 281.018687 
L 97.930797 286.539925 
L 98.265492 300.984057 
L 98.600187 280.97668 
L 98.934883 289.621013 
L 99.269578 286.860494 
L 99.604274 286.273144 
L 99.938969 294.384114 
L 100.943055 286.83949 
L 101.277751 280.997683 
L 101.612446 298.565111 
L 101.947142 286.102357 
L 102.281837 302.815654 
L 102.616532 292.873087 
L 102.951228 295.121247 
L 103.285923 294.554901 
L 103.620619 298.127543 
L 103.955314 284.777875 
L 104.290009 289.300444 
L 104.34981 -1 
M 104.899149 -1 
L 104.9594 291.965168 
L 105.294096 286.710711 
L 105.628791 293.796764 
L 106.298182 287.346604 
L 106.632877 289.86679 
L 106.967573 295.729601 
L 107.302268 298.565111 
L 107.636963 277.841604 
L 107.971659 273.927389 
L 108.306354 298.735897 
L 108.64105 286.860494 
L 109.31044 289.546221 
L 109.645136 301.13384 
L 109.979831 295.558814 
L 110.314527 301.571407 
L 110.649222 291.965168 
L 110.983918 294.971464 
L 111.318613 304.577704 
L 111.653308 277.841604 
L 111.988004 292.552518 
L 112.322699 282.946278 
L 112.657395 299.809357 
L 112.99209 274.098175 
L 113.326785 298.565111 
L 113.661481 292.723304 
L 113.740342 -1 
M 114.252755 -1 
L 114.330872 289.108654 
L 114.665567 287.954958 
L 115.000262 286.123361 
L 115.334958 298.565111 
L 115.669653 283.096061 
L 116.004349 283.41663 
L 116.339044 295.900387 
L 116.673739 291.965168 
L 117.008435 301.571407 
L 117.34313 290.037577 
L 117.677826 295.121247 
L 118.012521 280.602124 
L 118.347216 298.127543 
L 118.681912 282.700501 
L 119.016607 292.552518 
L 119.351303 285.964355 
L 119.685998 288.371521 
L 120.020694 297.977761 
L 120.355389 280.826897 
L 120.690084 295.558814 
L 121.02478 290.037577 
L 121.359475 292.723304 
L 121.694171 271.999798 
L 122.028866 292.723304 
L 122.363561 285.515007 
L 122.698257 298.565111 
L 123.032952 283.533628 
L 123.702343 295.558814 
L 124.037038 295.879383 
L 124.168737 -1 
M 124.573971 -1 
L 124.706429 298.714893 
L 125.041125 283.117065 
L 125.37582 286.881498 
L 125.710515 292.723304 
L 126.045211 295.121247 
L 126.379906 285.706798 
L 126.714602 298.565111 
L 127.049297 292.552518 
L 127.383993 295.142251 
L 127.718688 290.037577 
L 128.053383 276.687908 
L 128.388079 295.879383 
L 128.722774 300.984057 
L 129.05747 268.822715 
L 129.392165 287.160059 
L 129.72686 280.826897 
L 130.396251 298.148547 
L 130.730947 279.694205 
L 131.065642 295.292033 
L 131.400337 295.708597 
L 131.735033 280.089765 
L 132.069728 298.148547 
L 132.404424 288.841873 
L 132.739119 295.558814 
L 133.073814 280.698118 
L 133.40851 293.796764 
L 133.743205 274.835308 
L 134.077901 273.831394 
L 134.125303 -1 
M 134.697144 -1 
L 134.747291 292.552518 
L 135.081987 297.390411 
L 135.416682 274.835308 
L 135.751378 297.71098 
L 136.086073 288.275527 
L 136.420769 295.292033 
L 136.755464 280.260551 
L 137.424855 301.154844 
L 137.75955 295.879383 
L 138.094246 280.698118 
L 138.428941 273.960173 
L 138.763636 289.887794 
L 139.098332 288.958871 
L 139.433027 282.113151 
L 139.767723 280.997683 
L 140.102418 283.683411 
L 140.437113 294.704683 
L 140.771809 289.696004 
L 141.4412 289.717008 
L 141.775895 286.881498 
L 142.11059 288.404306 
L 142.445286 283.266847 
L 142.779981 291.965168 
L 143.114677 295.142251 
L 143.449372 295.142251 
L 143.784067 304.577704 
L 144.118763 289.129658 
L 144.453458 301.154844 
L 144.566174 -1 
M 145.017041 -1 
L 145.122849 274.077172 
L 145.457545 301.154844 
L 145.79224 289.27944 
L 146.126935 292.11495 
L 146.461631 286.860494 
L 146.796326 286.422926 
L 147.131022 283.704415 
L 147.465717 292.852083 
L 147.800412 286.273144 
L 148.135108 292.7023 
L 148.469803 279.085851 
L 148.804499 300.717276 
L 149.139194 295.858379 
L 149.473889 294.384114 
L 149.808585 301.571407 
L 150.812671 273.681612 
L 151.147366 289.27944 
L 151.482062 283.117065 
L 151.816757 292.7023 
L 152.151453 270.387531 
L 152.486148 289.108654 
L 152.820843 292.7023 
L 153.490234 280.698118 
L 153.82493 295.142251 
L 154.159625 283.875201 
L 154.494321 292.264733 
L 154.542198 -1 
M 155.114166 -1 
L 155.163711 304.252799 
L 155.498407 283.723637 
L 155.833102 293.863441 
L 156.167798 289.791852 
L 156.502493 288.71289 
L 157.171884 296.258321 
L 157.506579 298.294996 
L 157.841275 299.27144 
L 158.17597 290.974763 
L 158.510665 292.905105 
L 158.845361 288.328761 
L 159.180056 289.149511 
L 159.514752 300.987742 
L 159.849447 297.745816 
L 160.184142 286.415505 
L 160.518838 298.392789 
L 161.188229 291.314215 
L 161.522924 289.993295 
L 161.857619 294.094242 
L 162.192315 294.536764 
L 162.52701 298.131684 
L 162.861706 293.294884 
L 163.196401 299.486126 
L 163.531097 291.683247 
L 163.865792 299.504625 
L 164.200487 296.919416 
L 164.535183 293.095689 
L 164.869878 290.963606 
L 164.901563 -1 
M 165.507078 -1 
L 165.539269 296.117673 
L 165.873964 297.541988 
L 166.20866 291.679985 
L 166.543355 294.205532 
L 166.878051 287.266305 
L 167.212746 288.067656 
L 167.547441 294.188772 
L 167.882137 295.255136 
L 168.216832 301.356226 
L 168.551528 300.4412 
L 168.886223 290.762417 
L 169.220918 285.411442 
L 169.555614 292.271673 
L 169.890309 288.640846 
L 170.225005 299.55991 
L 170.5597 292.253174 
L 170.894396 293.807533 
L 171.229091 287.757816 
L 171.563786 289.193289 
L 171.898482 291.60794 
L 172.233177 290.544469 
L 172.567873 298.292357 
L 172.902568 290.659022 
L 173.571959 290.078957 
L 174.24135 293.656351 
L 174.576045 296.809495 
L 174.91074 294.796499 
L 175.245436 288.000168 
L 175.284833 -1 
M 175.874246 -1 
L 175.914827 297.876483 
L 176.249522 293.457548 
L 176.584217 298.809541 
L 176.918913 300.25261 
L 177.253608 300.032668 
L 177.588304 304.873379 
L 177.922999 291.826143 
L 178.257694 294.197058 
L 178.59239 293.422288 
L 178.927085 294.669816 
L 179.261781 299.363977 
L 179.596476 292.072478 
L 179.931172 293.830821 
L 180.265867 300.143958 
L 180.600562 300.642389 
L 180.935258 299.412088 
L 181.269953 291.899926 
L 181.939344 299.292578 
L 182.274039 298.422401 
L 182.608735 300.587104 
L 182.94343 300.356304 
L 183.278126 294.395862 
L 183.612821 299.70933 
L 183.947516 291.315878 
L 184.282212 303.371763 
L 184.616907 305.185857 
L 184.951603 296.703852 
L 185.286298 296.158188 
L 185.35076 -1 
M 185.891098 -1 
L 185.955689 296.891427 
L 186.290384 294.518011 
L 186.62508 296.831257 
L 186.959775 303.35301 
L 187.29447 297.347817 
L 187.629166 297.931767 
L 187.963861 295.931467 
L 188.298557 301.738111 
L 188.633252 300.3639 
L 188.967948 294.499257 
L 189.302643 292.531271 
L 189.637338 287.360835 
L 189.972034 296.9747 
L 190.306729 298.462916 
L 190.641425 296.084799 
L 190.97612 298.388411 
L 191.310815 296.559318 
L 191.645511 289.617452 
L 191.980206 295.534346 
L 192.314902 291.520427 
L 192.649597 296.812757 
L 192.984292 297.347817 
L 193.318988 292.231158 
L 193.653683 297.146628 
L 193.988379 294.581911 
L 194.323074 301.865515 
L 194.657769 298.534315 
L 194.992465 299.12202 
L 195.32716 287.946153 
L 195.661856 301.542178 
L 195.700533 -1 
M 196.292717 -1 
L 196.331246 300.236495 
L 196.665942 298.738142 
L 197.000637 305.531211 
L 197.335333 301.104288 
L 197.670028 294.102136 
L 198.004724 301.671968 
L 198.339419 295.822816 
L 198.674114 301.30022 
L 199.343505 289.867884 
L 199.678201 298.534315 
L 200.012896 300.143958 
L 200.347591 298.072415 
L 200.682287 303.133068 
L 201.016982 294.669816 
L 201.351678 300.223252 
L 201.686373 298.151709 
L 202.021068 301.448763 
L 202.355764 293.718653 
L 202.690459 299.09139 
L 203.025155 301.30022 
L 203.35985 301.671968 
L 203.694545 292.655805 
L 204.029241 294.08012 
L 204.363936 298.902078 
L 204.698632 296.06595 
L 205.033327 298.388411 
L 205.368022 298.40691 
L 205.702718 294.433368 
L 205.755448 -1 
M 206.319241 -1 
L 206.372109 295.350936 
L 206.706804 282.706798 
L 207.0415 304.36409 
L 207.376195 290.648163 
L 207.71089 297.80446 
L 208.045586 283.478069 
L 208.714977 299.255326 
L 209.049672 294.075261 
L 209.719063 280.656647 
L 210.053758 288.955963 
L 210.388454 285.773462 
L 210.723149 299.706068 
L 211.057844 294.623952 
L 211.39254 292.236414 
L 211.727235 290.951869 
L 212.061931 283.715654 
L 212.396626 286.74051 
L 212.731321 303.281611 
L 213.066017 290.920127 
L 213.735408 288.665895 
L 214.070103 297.478484 
L 214.404799 294.376485 
L 214.739494 294.231926 
L 215.074189 290.475709 
L 215.408885 288.261503 
L 215.74358 294.279315 
L 216.078276 298.08031 
L 216.166936 -1 
M 216.660552 -1 
L 216.747666 291.030047 
L 217.082362 296.225447 
L 217.417057 291.932801 
L 217.751753 296.2442 
L 218.086448 303.918305 
L 218.421143 295.29829 
L 218.755839 294.365626 
L 219.090534 292.342194 
L 219.42523 294.512662 
L 219.759925 295.841569 
L 220.09462 296.448027 
L 220.429316 290.056941 
L 220.764011 297.217149 
L 221.433402 290.732805 
L 221.768097 298.302637 
L 222.102793 296.685353 
L 222.437488 299.6712 
L 222.772184 294.833128 
L 223.106879 297.236526 
L 223.77627 289.640346 
L 224.445661 302.292547 
L 224.780356 290.528354 
L 225.115052 303.151821 
L 225.449747 297.963764 
L 225.784442 296.263577 
L 226.119138 299.820621 
L 226.453833 292.907744 
L 226.501995 -1 
M 227.075317 -1 
L 227.123224 291.096912 
L 227.457919 298.088205 
L 227.792615 281.664367 
L 228.12731 293.440164 
L 228.462006 288.595374 
L 228.796701 294.193795 
L 229.131396 293.120089 
L 229.466092 290.368075 
L 230.135483 300.567727 
L 230.470178 291.959589 
L 230.804873 290.478717 
L 231.139569 291.961188 
L 231.474264 291.963827 
L 231.80896 300.660264 
L 232.143655 286.753753 
L 232.478351 287.050996 
L 232.813046 291.518042 
L 233.147741 292.8945 
L 233.482437 290.539257 
L 233.817132 289.536651 
L 234.151828 304.215547 
L 234.486523 291.064037 
L 234.821218 283.272895 
L 235.155914 299.125536 
L 235.490609 303.077784 
L 235.825305 296.853921 
L 235.899883 -1 
M 236.421256 -1 
L 236.494695 291.026531 
L 236.829391 298.077048 
L 237.164086 297.58188 
L 237.498782 279.812142 
L 237.833477 299.3067 
L 238.168172 296.674494 
L 238.502868 287.03662 
L 238.837563 299.909895 
L 239.172259 299.578663 
L 239.506954 296.578695 
L 239.841649 279.782784 
L 240.176345 295.05307 
L 240.51104 293.644869 
L 240.845736 298.164952 
L 241.180431 295.857683 
L 241.515127 292.048469 
L 241.849822 282.430226 
L 242.184517 290.865857 
L 242.519213 294.313858 
L 242.853908 300.459699 
L 243.188604 300.284905 
L 243.523299 296.812134 
L 243.857994 301.87341 
L 244.19269 300.310279 
L 244.527385 297.917646 
L 244.862081 302.806468 
L 245.196776 286.847423 
L 245.531471 292.83824 
L 245.866167 289.99568 
L 246.200862 290.104331 
L 246.261907 -1 
M 246.810007 -1 
L 246.870253 285.455965 
L 247.204948 300.698394 
L 247.539644 291.305995 
L 247.874339 293.836312 
L 248.209035 300.515705 
L 248.54373 291.762638 
L 248.878425 287.654815 
L 249.213121 291.520427 
L 249.547816 297.235903 
L 249.882512 287.363474 
L 250.217207 296.979078 
L 250.551903 282.881521 
L 250.886598 296.079288 
L 251.221293 293.518088 
L 251.555989 295.896599 
L 251.890684 285.938119 
L 252.22538 288.676753 
L 252.560075 298.262999 
L 252.89477 296.0134 
L 253.229466 302.937136 
L 253.564161 300.481715 
L 253.898857 299.048236 
L 254.233552 284.081657 
L 254.568247 287.992572 
L 254.902943 297.976915 
L 255.237638 291.116683 
L 255.907029 297.913735 
L 256.241724 293.138842 
L 256.281566 -1 
M 256.871743 -1 
L 256.911115 289.209174 
L 257.245811 289.683245 
L 257.580506 293.242238 
L 258.249897 286.598984 
L 258.584592 293.369643 
L 258.919288 285.82859 
L 259.253983 297.0571 
L 259.588679 298.958084 
L 259.923374 291.364385 
L 260.258069 289.364496 
L 260.592765 297.738219 
L 260.92746 293.584373 
L 261.262156 294.253064 
L 261.596851 297.369578 
L 261.931546 296.467404 
L 262.266242 303.698363 
L 262.600937 296.228086 
L 262.935633 293.886572 
L 263.270328 292.693058 
L 263.605023 290.372059 
L 263.939719 289.469885 
L 264.274414 285.626289 
L 264.60911 298.117563 
L 264.943805 291.04466 
L 265.2785 292.23579 
L 265.613196 290.588895 
L 265.947891 294.782378 
L 266.282587 284.834894 
L 266.617282 285.35671 
L 266.673603 -1 
M 267.229755 -1 
L 267.286673 289.018265 
L 267.621368 299.315866 
L 267.956064 296.637963 
L 268.290759 297.533769 
L 268.625455 290.182747 
L 268.96015 293.008799 
L 269.294845 281.337143 
L 269.629541 296.045396 
L 269.964236 287.017867 
L 270.298932 290.490848 
L 270.633627 289.761617 
L 271.303018 293.101336 
L 271.637713 286.464308 
L 271.972409 298.961346 
L 272.307104 292.934137 
L 272.641799 295.037579 
L 272.976495 287.785482 
L 273.31119 293.870458 
L 273.645886 286.98573 
L 273.980581 299.913158 
L 274.315276 294.324463 
L 274.649972 291.249111 
L 275.319363 297.772464 
L 275.654058 283.727391 
L 276.323449 296.485534 
L 276.658144 291.153312 
L 276.700674 -1 
M 277.285597 -1 
L 277.327535 286.512645 
L 277.996926 271.099716 
L 278.666317 296.85076 
L 279.001012 280.103878 
L 279.335708 284.58955 
L 279.670403 280.12657 
L 280.005098 289.279556 
L 280.339794 271.217329 
L 280.674489 288.457407 
L 281.009185 282.601915 
L 281.34388 284.779089 
L 281.678575 281.713931 
L 282.013271 287.292845 
L 282.347966 282.940564 
L 282.682662 293.415507 
L 283.017357 292.679272 
L 283.352052 271.451463 
L 283.686748 298.626198 
L 284.021443 283.008557 
L 284.356139 284.085214 
L 284.690834 268.725644 
L 285.02553 287.011184 
L 285.360225 276.352726 
L 285.69492 290.727796 
L 286.029616 289.377527 
L 286.364311 268.714201 
L 286.699007 289.73439 
L 287.033702 280.009654 
L 287.059666 -1 
M 287.676039 -1 
L 287.703093 292.843798 
L 288.037788 278.213641 
L 288.707179 298.65152 
L 289.041874 281.000666 
L 289.37657 274.127486 
L 289.711265 273.095601 
L 290.045961 276.916301 
L 290.380656 299.806798 
L 291.050047 274.835753 
L 291.384742 284.777458 
L 291.719438 288.802416 
L 292.054133 300.076782 
L 292.388828 286.816343 
L 292.723524 281.768053 
L 293.058219 270.767519 
L 293.72761 288.38775 
L 294.062306 288.925591 
L 294.397001 293.652009 
L 294.731696 287.614691 
L 295.066392 275.326789 
L 295.401087 278.95395 
L 295.735783 279.484373 
L 296.070478 293.668711 
L 296.405173 282.684493 
L 296.739869 279.127106 
L 297.074564 281.634603 
L 297.40926 286.299413 
L 297.43686 -1 
M 298.052123 -1 
L 298.07865 274.170166 
L 298.413346 274.125193 
L 298.748041 284.163768 
L 299.082737 276.144855 
L 299.417432 278.394937 
L 299.752127 281.567046 
L 300.421518 274.304877 
L 301.090909 289.087564 
L 301.7603 260.549394 
L 302.094995 277.072393 
L 302.429691 280.975839 
L 302.764386 288.915971 
L 303.099082 286.222607 
L 303.433777 280.622251 
L 303.768472 259.014896 
L 304.103168 268.372779 
L 304.437863 287.770581 
L 304.772559 272.739569 
L 305.107254 276.732534 
L 305.441949 286.056903 
L 305.776645 281.290082 
L 306.11134 283.516018 
L 306.446036 275.514361 
L 306.780731 288.82163 
L 307.115426 288.384818 
L 307.450122 282.244672 
L 307.498695 -1 
M 308.071894 -1 
L 308.119513 275.756048 
L 308.454208 281.452592 
L 308.788903 278.806478 
L 309.123599 273.309059 
L 309.458294 269.801392 
L 309.79299 286.219783 
L 310.127685 269.372124 
L 310.462381 274.774808 
L 310.797076 284.316869 
L 311.131771 274.264776 
L 311.801162 278.750146 
L 312.135858 276.32616 
L 312.470553 276.180452 
L 312.805248 285.051214 
L 313.474639 269.230911 
L 313.809335 274.522174 
L 314.14403 288.847171 
L 314.813421 271.183521 
L 315.148116 275.593722 
L 315.482812 292.464544 
L 315.817507 284.409337 
L 316.152202 270.041794 
L 316.486898 281.259626 
L 316.821593 277.388207 
L 317.156289 284.216462 
L 317.490984 277.28002 
L 317.825679 277.303603 
L 317.856947 -1 
M 318.463972 -1 
L 318.49507 275.638486 
L 318.829766 266.348084 
L 319.164461 283.659331 
L 319.499157 280.298364 
L 319.833852 275.017486 
L 320.168547 274.562921 
L 320.503243 283.731854 
L 320.837938 268.471984 
L 321.172634 263.187292 
L 321.507329 292.089727 
L 321.842024 276.608653 
L 322.17672 277.216471 
L 322.511415 277.267275 
L 322.846111 272.432821 
L 323.180806 275.495878 
L 323.515501 272.720548 
L 323.850197 274.565803 
L 324.184892 271.028143 
L 324.519588 284.928249 
L 324.854283 275.636738 
L 325.188978 258.516542 
L 325.523674 275.657524 
L 325.858369 256.330638 
L 326.193065 278.053566 
L 326.862455 265.296699 
L 327.197151 262.639385 
L 327.531846 269.246857 
L 327.866542 279.02848 
L 327.897459 -1 
M 328.506535 -1 
L 328.535933 263.936675 
L 328.870628 254.708546 
L 329.205323 264.464308 
L 329.540019 260.689414 
L 329.874714 246.776655 
L 330.20941 242.59027 
L 330.544105 267.728784 
L 330.8788 268.341895 
L 331.213496 283.671497 
L 331.548191 259.031505 
L 331.882887 249.014799 
L 332.217582 257.887485 
L 332.552277 256.89938 
L 332.886973 259.140591 
L 333.221668 276.672169 
L 333.556364 265.791054 
L 333.891059 251.227537 
L 334.225754 254.023745 
L 334.56045 250.488269 
L 334.895145 253.919062 
L 335.229841 278.442188 
L 335.564536 261.451333 
L 335.899231 271.237106 
L 336.568622 256.595371 
L 336.903318 266.929991 
L 337.238013 261.49576 
L 337.572709 262.25315 
L 337.907404 257.46619 
L 338.242099 258.415564 
L 338.304046 -1 
M 338.846876 -1 
L 338.91149 272.261001 
L 339.246186 268.500826 
L 339.580881 274.167957 
L 339.915576 275.04706 
L 340.250272 277.708464 
L 340.584967 262.882005 
L 340.919663 265.791725 
L 341.254358 277.889652 
L 341.589053 266.900115 
L 341.923749 266.58368 
L 342.258444 268.419735 
L 342.59314 272.487162 
L 342.927835 269.55795 
L 343.26253 264.812989 
L 343.597226 270.781709 
L 343.931921 281.921197 
L 344.266617 282.945537 
L 344.601312 278.210263 
L 344.936007 257.527462 
L 345.270703 275.878215 
L 345.605398 271.410682 
L 345.940094 275.84865 
L 346.274789 249.637882 
L 346.609485 279.469158 
L 347.278875 262.878434 
L 347.613571 262.84734 
L 347.948266 273.232429 
L 348.282962 271.042224 
L 348.617657 276.997031 
L 348.657538 -1 
M 349.248554 -1 
L 349.287048 266.071631 
L 349.621743 259.717566 
L 349.956439 266.494691 
L 350.291134 261.502498 
L 350.625829 267.695169 
L 350.960525 248.653399 
L 351.29522 251.77788 
L 351.629916 272.130164 
L 351.964611 266.909936 
L 352.299306 275.633202 
L 352.634002 279.459362 
L 352.968697 272.888377 
L 353.638088 252.507553 
L 353.972784 275.958921 
L 354.307479 256.632959 
L 354.642174 259.157108 
L 354.97687 272.440189 
L 355.311565 239.074101 
L 355.646261 270.315365 
L 355.980956 271.298807 
L 356.315651 269.18666 
L 356.650347 257.580367 
L 356.985042 283.545247 
L 357.319738 277.769746 
L 357.654433 269.263543 
L 357.989128 257.539174 
L 358.323824 266.044054 
L 358.361687 -1 
M 358.954413 -1 
L 358.993215 273.525113 
L 359.32791 277.127835 
L 359.662605 277.321481 
L 359.997301 259.326534 
L 360.331996 282.478521 
L 360.666692 265.558944 
L 361.001387 265.390889 
L 361.336082 258.316795 
L 361.670778 267.860268 
L 362.005473 269.019663 
L 362.340169 243.000266 
L 363.00956 273.515426 
L 363.344255 276.42166 
L 363.67895 284.07314 
L 364.013646 268.681812 
L 364.348341 259.359199 
L 364.683037 259.314343 
L 365.017732 262.915183 
L 365.687123 276.929768 
L 366.021818 264.449581 
L 366.356514 266.947533 
L 366.691209 278.950968 
L 367.025904 270.866061 
L 367.3606 255.632638 
L 368.029991 280.171938 
L 368.364686 263.074484 
L 368.699381 261.666096 
L 368.745834 -1 
M 369.322155 -1 
L 369.368772 262.746144 
L 369.703468 252.656839 
L 370.038163 257.982145 
L 370.372858 283.257452 
L 370.707554 254.816883 
L 371.042249 269.623658 
L 371.376945 267.259751 
L 371.71164 263.339309 
L 372.046336 265.727001 
L 372.381031 272.417496 
L 372.715726 266.868727 
L 373.050422 287.021584 
L 373.385117 263.788691 
L 373.719813 266.777503 
L 374.054508 267.100299 
L 374.389203 269.528746 
L 374.723899 251.024337 
L 375.058594 249.382156 
L 375.39329 264.94333 
L 375.727985 269.609443 
L 376.397376 252.096407 
L 377.066767 264.763697 
L 377.401462 260.393227 
L 377.736157 238.49306 
L 378.070853 253.95654 
L 378.405548 261.683694 
L 378.740244 254.717033 
L 378.770197 -1 
M 379.37716 -1 
L 379.409634 278.560935 
L 379.74433 256.695181 
L 380.079025 259.557996 
L 380.413721 248.206899 
L 380.748416 260.739605 
L 381.083112 248.597041 
L 381.417807 258.48701 
L 381.752502 249.546843 
L 382.087198 265.193259 
L 382.421893 256.9572 
L 382.756589 256.853928 
L 383.091284 269.408889 
L 383.425979 257.164415 
L 383.760675 254.024148 
L 384.09537 249.157197 
L 384.430066 262.019713 
L 384.764761 267.516645 
L 385.434152 241.156187 
L 386.103543 257.243516 
L 386.438238 255.906252 
L 386.772933 252.403122 
L 387.107629 253.103415 
L 387.442324 267.990172 
L 388.111715 257.22599 
L 388.44641 253.557006 
L 388.781106 269.129471 
L 389.115801 244.282717 
L 389.144095 -1 
M 389.753403 -1 
L 389.785192 277.761882 
L 390.119888 258.410985 
L 390.454583 266.024449 
L 391.123974 237.978726 
L 391.458669 232.72848 
L 391.793365 255.337367 
L 392.12806 254.247511 
L 392.462755 258.599045 
L 392.797451 240.502623 
L 393.132146 261.330409 
L 393.466842 259.08877 
L 393.801537 226.415406 
L 394.136232 252.499849 
L 394.470928 258.465225 
L 394.805623 247.932757 
L 395.140319 258.781585 
L 395.475014 247.0819 
L 395.809709 251.06227 
L 396.144405 237.750885 
L 396.813796 266.591409 
L 397.148491 252.199233 
L 397.483187 242.963912 
L 397.817882 249.165061 
L 398.152577 258.787222 
L 398.487273 241.290342 
L 398.487273 241.290342 
" style="fill:none;stroke:#1f77b4;stroke-linecap:square;stroke-width:1.5;"/>
   </g>
   <g id="line2d_19">
    <path clip-path="url(#p1da29f68fe)" d="M 74.153398 -1 
L 74.167423 277.582665 
L 74.502118 268.648593 
L 75.171509 246.678172 
L 75.506204 259.433711 
L 75.8409 235.166346 
L 76.175595 229.196624 
L 76.510291 268.390312 
L 76.844986 249.323448 
L 77.179681 249.978551 
L 77.514377 256.774377 
L 77.849072 234.462422 
L 78.183768 232.471901 
L 78.518463 267.054382 
L 78.853158 242.653463 
L 79.187854 278.036168 
L 79.522549 279.390882 
L 79.857245 258.623646 
L 80.19194 267.978616 
L 80.526635 250.876707 
L 80.861331 296.095472 
L 81.196026 276.873815 
L 81.530722 241.946715 
L 81.865417 279.76114 
L 82.200112 258.387801 
L 82.534808 287.069398 
L 82.869503 252.218755 
L 83.204199 261.796603 
L 83.538894 260.007477 
L 83.55821 -1 
M 84.1903 -1 
L 84.208285 241.004513 
L 84.54298 212.131729 
L 84.877676 267.952444 
L 85.212371 252.044458 
L 85.547067 260.407693 
L 85.881762 251.442524 
L 86.216457 158.90161 
L 86.551153 260.437285 
L 86.885848 288.388796 
L 87.220544 208.850145 
L 87.555239 268.84727 
L 87.889934 204.223599 
L 88.22463 259.713242 
L 88.559325 200.468627 
L 88.894021 247.559407 
L 89.228716 276.804609 
L 89.563411 248.122463 
L 89.898107 194.671753 
L 90.232802 228.650638 
L 90.567498 233.456978 
L 90.902193 246.150877 
L 91.236888 236.459872 
L 91.571584 265.721734 
L 91.906279 253.887875 
L 92.240975 234.615682 
L 92.57567 266.697166 
L 92.910366 230.55017 
L 93.245061 227.673491 
L 93.579756 237.789699 
L 93.914452 243.796661 
L 93.955234 -1 
M 94.539616 -1 
L 94.583843 267.618296 
L 94.918538 229.285611 
L 95.587929 285.62203 
L 95.922624 247.856431 
L 96.25732 283.643127 
L 96.592015 236.493114 
L 96.92671 256.664853 
L 97.261406 267.427221 
L 97.596101 217.594002 
L 97.930797 235.787928 
L 98.265492 284.756778 
L 98.600187 214.519576 
L 98.934883 244.594992 
L 99.269578 235.90968 
L 99.604274 233.878272 
L 99.938969 261.930875 
L 100.943055 237.482075 
L 101.277751 217.368651 
L 101.612446 276.937814 
L 101.947142 234.589378 
L 102.281837 291.381159 
L 102.616532 257.596317 
L 102.951228 265.474851 
L 103.285923 263.795803 
L 103.620619 275.312895 
L 103.955314 229.646351 
L 104.290009 245.101778 
L 104.304844 -1 
M 104.944067 -1 
L 104.9594 253.770875 
L 105.294096 236.036627 
L 105.628791 260.266208 
L 105.963486 246.029392 
L 106.298182 236.589191 
L 106.632877 245.430256 
L 106.967573 265.997581 
L 107.302268 275.882603 
L 107.636963 203.238752 
L 107.971659 190.058481 
L 108.306354 276.664305 
L 108.64105 236.454708 
L 109.31044 245.67293 
L 109.645136 285.138732 
L 109.979831 266.439827 
L 110.314527 287.141183 
L 110.649222 254.982897 
L 110.983918 265.28534 
L 111.318613 297.501784 
L 111.653308 207.83693 
L 111.988004 257.449498 
L 112.322699 226.353434 
L 112.657395 281.935453 
L 112.99209 199.649142 
L 113.326785 278.576546 
L 113.661481 259.787544 
L 113.683251 -1 
M 114.310051 -1 
L 114.330872 247.662911 
L 114.665567 244.70825 
L 115.000262 239.096665 
L 115.334958 278.76414 
L 115.669653 229.594814 
L 116.004349 230.615762 
L 116.339044 270.37403 
L 116.673739 257.472538 
L 117.008435 288.460347 
L 117.34313 252.381197 
L 117.677826 268.342529 
L 118.012521 222.043358 
L 118.347216 277.604195 
L 118.681912 228.695844 
L 119.016607 260.019881 
L 119.351303 238.831368 
L 119.685998 246.757295 
L 120.020694 276.361801 
L 120.355389 222.523172 
L 120.690084 269.355935 
L 121.02478 251.803922 
L 121.359475 260.627172 
L 121.694171 195.536468 
L 122.028866 260.572188 
L 122.363561 238.331501 
L 122.698257 279.532548 
L 123.032952 232.780127 
L 123.702343 270.094281 
L 124.037038 271.326607 
L 124.076356 -1 
M 124.665987 -1 
L 124.706429 280.189989 
L 125.041125 231.680229 
L 125.37582 243.358628 
L 125.710515 261.481664 
L 126.045211 268.507038 
L 126.379906 238.546114 
L 126.714602 279.056351 
L 127.049297 260.655713 
L 127.383993 268.85781 
L 127.718688 252.969001 
L 128.053383 211.416822 
L 128.388079 270.966106 
L 128.722774 286.934099 
L 129.05747 184.714605 
L 129.392165 242.79313 
L 129.72686 222.796089 
L 130.396251 277.684936 
L 130.730947 220.118812 
L 131.065642 269.124895 
L 131.400337 270.564805 
L 131.735033 220.482262 
L 132.069728 277.940637 
L 132.404424 248.701859 
L 132.739119 269.804473 
L 133.073814 223.302139 
L 133.40851 264.927672 
L 133.743205 205.735571 
L 134.077901 202.161113 
L 134.089135 -1 
M 134.732958 -1 
L 134.747291 260.699302 
L 135.081987 275.789175 
L 135.416682 206.00738 
L 135.751378 276.98751 
L 136.086073 246.756517 
L 136.420769 268.645508 
L 136.755464 220.657177 
L 137.424855 287.130281 
L 137.75955 270.346931 
L 138.094246 221.807286 
L 138.428941 199.873437 
L 138.763636 251.278214 
L 139.098332 248.421277 
L 139.433027 226.675847 
L 139.767723 223.132563 
L 140.102418 230.411389 
L 140.437113 266.535041 
L 140.771809 250.517713 
L 141.4412 250.716936 
L 141.775895 241.692074 
L 142.11059 246.538868 
L 142.445286 229.837198 
L 142.779981 257.688077 
L 143.114677 268.174759 
L 143.449372 268.269317 
L 143.784067 298.064262 
L 144.118763 249.14648 
L 144.453458 287.225433 
L 144.487583 -1 
M 145.098067 -1 
L 145.122849 202.007338 
L 145.457545 287.272366 
L 145.79224 249.754403 
L 146.126935 258.251653 
L 146.461631 241.494666 
L 146.796326 240.09922 
L 147.131022 230.503086 
L 147.465717 260.091246 
L 147.800412 238.511254 
L 148.135108 258.868756 
L 148.469803 214.209815 
L 148.804499 285.08518 
L 149.139194 269.165004 
L 149.473889 263.467341 
L 149.808585 287.394315 
L 150.812671 190.854688 
L 151.147366 244.559571 
L 151.482062 223.341896 
L 151.816757 257.093368 
L 152.151453 181.81902 
L 152.486148 243.917955 
L 152.820843 255.826936 
L 153.490234 214.588424 
L 153.82493 264.549233 
L 154.159625 225.705662 
L 154.494321 254.464442 
L 154.506188 -1 
M 155.150002 -1 
L 155.163711 295.800877 
L 155.498407 222.218781 
L 155.833102 258.495958 
L 156.167798 243.929035 
L 156.502493 240.721769 
L 157.171884 268.280497 
L 157.506579 275.34837 
L 157.841275 278.850807 
L 158.17597 250.172512 
L 158.510665 256.844931 
L 158.845361 241.977548 
L 159.180056 243.889156 
L 159.514752 284.766883 
L 159.849447 273.72097 
L 160.184142 235.672505 
L 160.518838 276.360537 
L 161.188229 252.688118 
L 161.522924 247.923367 
L 161.857619 262.432429 
L 162.192315 263.723106 
L 162.52701 275.422495 
L 162.861706 258.965283 
L 163.196401 280.030985 
L 163.531097 253.354481 
L 163.865792 280.043029 
L 164.200487 271.308416 
L 164.535183 257.732619 
L 164.869878 251.265794 
L 164.877958 -1 
M 165.530645 -1 
L 165.539269 268.730352 
L 165.873964 273.987447 
L 166.20866 254.421647 
L 166.543355 262.879848 
L 166.878051 239.026002 
L 167.212746 241.117189 
L 167.547441 261.963872 
L 167.882137 265.595588 
L 168.216832 286.074516 
L 168.551528 283.19491 
L 168.886223 250.378842 
L 169.220918 231.348095 
L 169.555614 254.813128 
L 169.890309 242.300207 
L 170.225005 279.930578 
L 170.5597 254.918012 
L 170.894396 260.781209 
L 171.229091 240.274107 
L 171.563786 245.239487 
L 171.898482 253.327702 
L 172.233177 249.716047 
L 172.567873 276.028651 
L 172.902568 249.143743 
L 173.571959 246.808242 
L 174.24135 260.448659 
L 174.576045 271.119843 
L 174.91074 264.307261 
L 175.245436 241.429815 
L 175.255299 -1 
M 175.903637 -1 
L 175.914827 275.141478 
L 176.249522 260.314065 
L 176.584217 278.147445 
L 176.918913 282.988651 
L 177.253608 282.250791 
L 177.588304 298.706174 
L 177.922999 256.203929 
L 178.257694 263.353544 
L 178.59239 260.970725 
L 178.927085 264.715366 
L 179.261781 280.297635 
L 179.596476 256.093504 
L 179.931172 261.920695 
L 180.265867 282.987965 
L 180.600562 284.635726 
L 180.935258 280.409943 
L 181.269953 256.005355 
L 181.939344 280.316831 
L 182.274039 277.402028 
L 182.608735 284.641178 
L 182.94343 283.993522 
L 183.278126 264.738375 
L 183.612821 281.849581 
L 183.947516 254.419779 
L 184.282212 293.818411 
L 184.616907 299.77325 
L 184.951603 272.022235 
L 185.286298 269.786272 
L 185.303886 -1 
M 185.93797 -1 
L 185.955689 271.921063 
L 186.290384 264.005006 
L 186.62508 271.720375 
L 186.959775 293.453339 
L 187.29447 273.516959 
L 187.629166 275.062734 
L 187.963861 269.183077 
L 188.298557 288.539261 
L 188.633252 284.062357 
L 188.967948 264.956523 
L 189.302643 259.130773 
L 189.637338 242.671686 
L 189.972034 273.973738 
L 190.306729 278.531523 
L 190.641425 271.785835 
L 190.97612 278.957211 
L 191.310815 273.263061 
L 191.645511 251.515795 
L 191.980206 269.616747 
L 192.314902 256.773311 
L 192.649597 273.01693 
L 192.984292 275.123015 
L 193.318988 258.897068 
L 193.653683 274.485007 
L 193.988379 265.743279 
L 194.323074 289.207078 
L 194.657769 278.455779 
L 194.992465 280.305961 
L 195.32716 245.174922 
L 195.661856 288.38309 
L 195.673497 -1 
M 196.319768 -1 
L 196.331246 284.212321 
L 196.665942 279.42498 
L 197.000637 301.036423 
L 197.335333 287.078304 
L 197.670028 265.314314 
L 198.004724 289.048005 
L 198.339419 270.70916 
L 198.674114 287.834082 
L 199.343505 251.432767 
L 199.678201 278.788806 
L 200.012896 284.090579 
L 200.347591 277.549269 
L 200.682287 293.529292 
L 201.016982 266.820376 
L 201.351678 284.44328 
L 201.686373 278.097715 
L 202.021068 288.372119 
L 202.355764 263.909543 
L 202.690459 280.833128 
L 203.025155 287.790723 
L 203.35985 288.978833 
L 203.694545 260.318351 
L 204.029241 264.376987 
L 204.363936 279.931209 
L 204.698632 270.589174 
L 205.033327 278.048687 
L 205.368022 278.108105 
L 205.702718 265.311295 
L 205.717555 -1 
M 206.357092 -1 
L 206.372109 268.675516 
L 206.706804 228.459572 
L 207.0415 297.291556 
L 207.376195 253.448596 
L 207.71089 276.323701 
L 208.045586 229.936385 
L 208.714977 280.906424 
L 209.049672 263.471212 
L 209.719063 219.833142 
L 210.053758 246.878954 
L 210.388454 236.038895 
L 210.723149 281.630152 
L 211.057844 265.139842 
L 211.39254 257.431157 
L 211.727235 253.226871 
L 212.061931 229.577475 
L 212.396626 239.463308 
L 212.731321 293.599945 
L 213.066017 253.704699 
L 213.735408 247.006334 
L 214.070103 275.30193 
L 214.404799 265.392592 
L 214.739494 264.930799 
L 215.074189 253.275439 
L 215.408885 246.459213 
L 215.74358 265.276434 
L 216.078276 277.594156 
L 216.104423 -1 
M 216.72346 -1 
L 216.747666 255.298341 
L 217.082362 271.70801 
L 217.417057 258.285852 
L 217.751753 271.778581 
L 218.086448 296.031195 
L 218.421143 268.837328 
L 218.755839 265.37773 
L 219.090534 258.916913 
L 219.42523 265.847216 
L 219.759925 270.034055 
L 220.09462 272.344214 
L 220.429316 252.445626 
L 220.764011 275.101547 
L 221.433402 254.888629 
L 221.768097 278.560248 
L 222.102793 273.760049 
L 222.437488 283.019505 
L 222.772184 268.451574 
L 223.106879 275.745859 
L 223.77627 252.333696 
L 224.445661 291.286325 
L 224.780356 255.052613 
L 225.115052 293.93289 
L 225.449747 277.938281 
L 225.784442 272.611818 
L 226.119138 283.600593 
L 226.453833 262.244642 
L 226.46775 -1 
M 227.1096 -1 
L 227.123224 256.48062 
L 227.457919 278.469892 
L 227.792615 227.220174 
L 228.12731 262.748039 
L 228.462006 247.390053 
L 228.796701 265.13705 
L 229.131396 261.852008 
L 229.466092 253.427865 
L 230.135483 285.748658 
L 230.470178 259.320193 
L 230.804873 254.745781 
L 231.139569 259.325134 
L 231.474264 259.430131 
L 231.80896 286.293512 
L 232.143655 242.808183 
L 232.478351 244.233522 
L 232.813046 257.900025 
L 233.147741 262.156722 
L 233.482437 254.873134 
L 233.817132 251.00376 
L 234.151828 297.026931 
L 234.486523 256.049978 
L 234.821218 230.996724 
L 235.155914 281.205436 
L 235.490609 293.530914 
L 235.825305 274.121176 
L 235.847474 -1 
M 236.473905 -1 
L 236.494695 255.876678 
L 236.829391 278.17139 
L 237.164086 276.703454 
L 237.498782 222.202201 
L 237.833477 282.136268 
L 238.168172 274.043815 
L 238.502868 244.785044 
L 238.837563 283.923967 
L 239.172259 282.873126 
L 239.506954 273.593014 
L 239.841649 221.244541 
L 240.176345 268.667942 
L 240.51104 264.294633 
L 240.845736 278.393428 
L 241.180431 271.04597 
L 241.515127 259.40521 
L 241.849822 229.08159 
L 242.184517 255.092374 
L 242.519213 265.918408 
L 242.853908 285.21512 
L 243.188604 284.657542 
L 243.523299 273.803429 
L 243.857994 289.88003 
L 244.19269 284.575037 
L 244.527385 277.190084 
L 244.862081 292.562007 
L 245.196776 242.38198 
L 245.531471 261.264618 
L 245.866167 251.770983 
L 246.200862 251.926988 
L 246.217606 -1 
M 246.854433 -1 
L 246.870253 237.285448 
L 247.204948 285.70912 
L 247.539644 255.870407 
L 247.874339 263.815483 
L 248.209035 285.202244 
L 248.54373 257.493571 
L 248.878425 244.193249 
L 249.213121 256.678537 
L 249.547816 274.790881 
L 249.882512 243.505156 
L 250.217207 273.830654 
L 250.551903 228.815207 
L 250.886598 270.926537 
L 251.221293 262.573081 
L 251.555989 270.338591 
L 251.890684 238.602907 
L 252.22538 247.330386 
L 252.560075 277.742817 
L 252.89477 270.494442 
L 253.229466 292.635501 
L 253.564161 284.581831 
L 253.898857 279.961415 
L 254.233552 231.528067 
L 254.568247 244.18418 
L 254.902943 276.889363 
L 255.237638 254.185429 
L 255.907029 275.891643 
L 256.241724 260.507231 
L 256.252593 -1 
M 256.900762 -1 
L 256.911115 247.70044 
L 257.245811 249.245439 
L 257.580506 260.898698 
L 258.249897 238.858071 
L 258.584592 261.589183 
L 258.919288 237.187844 
L 259.253983 273.521056 
L 259.588679 280.073365 
L 259.923374 256.174309 
L 260.258069 250.365646 
L 260.592765 276.685971 
L 260.92746 263.433375 
L 261.262156 265.542225 
L 261.596851 275.370778 
L 261.931546 272.564501 
L 262.266242 295.321318 
L 262.600937 272.200106 
L 262.935633 264.397381 
L 263.270328 260.813041 
L 263.605023 253.523016 
L 263.939719 250.689377 
L 264.274414 238.531391 
L 264.60911 277.470317 
L 264.943805 254.950858 
L 265.2785 258.788973 
L 265.613196 253.296536 
L 265.947891 266.69178 
L 266.282587 234.916532 
L 266.617282 237.096817 
L 266.632045 -1 
M 267.271225 -1 
L 267.286673 248.69163 
L 267.621368 281.545993 
L 267.956064 273.112741 
L 268.290759 275.933811 
L 268.625455 252.783974 
L 268.96015 261.45932 
L 269.294845 224.205607 
L 269.629541 271.111626 
L 269.964236 243.022795 
L 270.298932 253.123507 
L 270.633627 250.800105 
L 271.303018 261.165612 
L 271.637713 240.00521 
L 271.972409 279.698338 
L 272.307104 259.941182 
L 272.641799 266.783038 
L 272.976495 243.199218 
L 273.31119 262.98756 
L 273.645886 240.886804 
L 273.980581 282.661433 
L 274.315276 264.726525 
L 274.649972 254.353499 
L 275.319363 275.794622 
L 275.654058 230.288587 
L 276.323449 271.55283 
L 276.658144 253.640409 
L 276.669435 -1 
M 277.31691 -1 
L 277.327535 238.147564 
L 277.996926 187.357339 
L 278.666317 272.675212 
L 279.001012 218.490696 
L 279.335708 232.704871 
L 279.670403 218.223797 
L 280.005098 248.01219 
L 280.339794 189.228673 
L 280.674489 245.977246 
L 281.009185 227.139189 
L 281.34388 234.603722 
L 281.678575 224.799779 
L 282.013271 243.354378 
L 282.347966 229.577667 
L 282.682662 262.735051 
L 283.017357 260.307692 
L 283.352052 193.108897 
L 283.686748 279.118793 
L 284.021443 227.239506 
L 284.356139 230.641924 
L 284.690834 180.35008 
L 285.02553 240.222426 
L 285.360225 204.092929 
L 285.69492 252.228229 
L 286.029616 247.067504 
L 286.364311 178.3769 
L 286.699007 248.367918 
L 287.033702 216.106105 
L 287.039749 -1 
M 287.695887 -1 
L 287.703093 258.631789 
L 288.037788 210.00979 
L 288.707179 277.887076 
L 289.041874 219.207702 
L 289.37657 196.357817 
L 289.711265 192.927314 
L 290.045961 204.614133 
L 290.380656 281.461935 
L 291.050047 198.777948 
L 291.384742 231.863999 
L 291.719438 245.22726 
L 292.054133 282.659284 
L 292.388828 239.144185 
L 292.723524 223.0755 
L 293.058219 188.261787 
L 293.72761 245.487969 
L 294.062306 247.227776 
L 294.397001 262.516795 
L 294.731696 243.398646 
L 295.066392 204.3577 
L 295.401087 216.540439 
L 295.735783 217.263372 
L 296.070478 263.290245 
L 296.405173 228.326379 
L 296.739869 217.002861 
L 297.074564 224.911818 
L 297.40926 239.90327 
L 297.416508 -1 
M 298.072558 -1 
L 298.07865 200.790046 
L 298.413346 199.843297 
L 298.748041 232.168512 
L 299.082737 206.346812 
L 299.752127 224.99578 
L 300.086823 211.556199 
L 300.421518 202.744777 
L 301.090909 249.623569 
L 301.7603 159.377956 
L 302.094995 211.505998 
L 302.429691 223.387797 
L 302.764386 248.512757 
L 303.099082 239.943146 
L 303.433777 222.209621 
L 303.768472 153.789927 
L 304.103168 182.606075 
L 304.437863 244.6546 
L 304.772559 197.134123 
L 305.107254 209.442405 
L 305.441949 239.401226 
L 305.776645 224.303273 
L 306.11134 231.353481 
L 306.446036 206.057935 
L 306.780731 247.827727 
L 307.115426 246.453803 
L 307.450122 225.816521 
L 307.462198 -1 
M 308.108504 -1 
L 308.119513 205.069348 
L 308.454208 223.417348 
L 308.788903 215.023982 
L 309.123599 196.420086 
L 309.458294 185.217472 
L 309.79299 238.229344 
L 310.127685 182.508887 
L 310.462381 200.192951 
L 310.797076 231.426026 
L 311.131771 199.772991 
L 311.801162 215.445422 
L 312.135858 208.240333 
L 312.470553 208.047314 
L 312.805248 236.164082 
L 313.474639 187.021062 
L 313.809335 203.267326 
L 314.14403 248.208861 
L 314.813421 194.189226 
L 315.148116 207.927885 
L 315.482812 260.483872 
L 315.817507 235.140004 
L 316.152202 189.934234 
L 316.486898 225.362452 
L 316.821593 213.140614 
L 317.156289 234.378176 
L 317.490984 212.647688 
L 317.825679 212.72157 
L 317.833369 -1 
M 318.487546 -1 
L 318.49507 208.009829 
L 318.829766 178.878455 
L 319.164461 233.534759 
L 319.499157 223.26593 
L 319.833852 206.946961 
L 320.168547 205.542264 
L 320.503243 233.699592 
L 320.837938 186.83347 
L 321.172634 169.701143 
L 321.507329 259.56105 
L 321.842024 212.025054 
L 322.17672 213.90017 
L 322.511415 214.056901 
L 322.846111 198.840312 
L 323.180806 208.454167 
L 323.515501 200.016302 
L 323.850197 206.465772 
L 324.184892 196.0667 
L 324.519588 238.470366 
L 324.854283 210.125681 
L 325.188978 157.339441 
L 325.523674 210.003916 
L 325.858369 151.850657 
L 326.193065 218.038866 
L 326.862455 179.343533 
L 327.197151 171.284965 
L 327.531846 191.533632 
L 327.866542 220.672418 
L 327.874584 -1 
M 328.529536 -1 
L 328.535933 174.429108 
L 328.870628 146.276854 
L 329.205323 176.038758 
L 329.540019 164.522689 
L 329.874714 119.233244 
L 330.20941 106.22693 
L 330.544105 184.447321 
L 330.8788 186.545653 
L 331.213496 233.137202 
L 331.548191 156.425515 
L 331.882887 125.240502 
L 332.217582 152.863834 
L 332.552277 148.191011 
L 332.886973 155.675163 
L 333.221668 211.293646 
L 333.556364 177.307032 
L 333.891059 131.90964 
L 334.225754 140.625978 
L 334.56045 130.855586 
L 334.895145 141.62518 
L 335.229841 217.398831 
L 335.564536 163.525521 
L 335.899231 194.628753 
L 336.568622 149.126631 
L 336.903318 181.479325 
L 337.238013 164.963939 
L 337.572709 167.516206 
L 337.907404 152.8603 
L 338.242099 155.919042 
L 338.254247 -1 
M 338.896187 -1 
L 338.91149 198.626678 
L 339.246186 186.562956 
L 339.580881 204.084487 
L 339.915576 206.992797 
L 340.250272 215.358225 
L 340.584967 170.469567 
L 340.919663 179.394553 
L 341.254358 216.502525 
L 341.589053 183.359824 
L 341.923749 182.840525 
L 342.258444 188.579465 
L 342.59314 200.836965 
L 342.927835 191.863123 
L 343.26253 177.423257 
L 343.597226 195.587267 
L 343.931921 229.69739 
L 344.266617 232.781625 
L 344.601312 218.308403 
L 344.936007 154.961615 
L 345.270703 210.802092 
L 345.605398 197.164946 
L 345.940094 210.711845 
L 346.274789 131.178629 
L 346.609485 222.266699 
L 347.278875 171.92049 
L 347.613571 172.904287 
L 347.948266 204.168596 
L 348.282962 197.574984 
L 348.617657 215.272531 
L 348.627958 -1 
M 349.278265 -1 
L 349.287048 182.548742 
L 349.621743 162.476901 
L 349.956439 182.19175 
L 350.291134 166.957074 
L 350.625829 185.855251 
L 350.960525 127.745478 
L 351.29522 136.326179 
L 351.629916 198.680449 
L 351.964611 182.734963 
L 352.299306 209.495051 
L 352.634002 221.241362 
L 352.968697 201.068441 
L 353.638088 140.151603 
L 353.972784 211.143321 
L 354.307479 151.847044 
L 354.642174 159.417077 
L 354.97687 200.057991 
L 355.311565 97.971106 
L 355.646261 193.243825 
L 355.980956 195.959864 
L 356.315651 189.469939 
L 356.650347 154.777894 
L 356.985042 233.720123 
L 357.319738 215.97374 
L 357.654433 189.83673 
L 357.989128 153.025566 
L 358.323824 180.326379 
L 358.332162 -1 
M 358.983932 -1 
L 358.993215 201.436071 
L 359.32791 212.292752 
L 359.662605 212.898634 
L 359.997301 156.596044 
L 360.331996 228.828109 
L 360.666692 176.512052 
L 361.001387 176.840204 
L 361.336082 155.101999 
L 361.670778 185.008478 
L 362.005473 188.586024 
L 362.340169 108.29797 
L 363.00956 203.398894 
L 363.344255 212.376816 
L 363.67895 235.800643 
L 364.013646 189.578102 
L 364.348341 161.298886 
L 364.683037 161.16282 
L 365.017732 172.460824 
L 365.687123 214.744594 
L 366.021818 176.067154 
L 366.356514 184.093846 
L 366.691209 220.571081 
L 367.025904 196.001857 
L 367.3606 150.405152 
L 368.029991 224.635099 
L 368.364686 171.140079 
L 368.699381 168.663976 
L 368.709299 -1 
M 369.358669 -1 
L 369.368772 171.931553 
L 369.703468 140.264882 
L 370.038163 156.352911 
L 370.372858 233.443982 
L 370.707554 147.029492 
L 371.042249 193.000704 
L 371.376945 185.865252 
L 371.71164 174.031396 
L 372.046336 180.89961 
L 372.381031 200.505514 
L 372.715726 183.369841 
L 373.050422 245.312781 
L 373.385117 174.091517 
L 373.719813 183.201717 
L 374.054508 184.18563 
L 374.389203 191.781862 
L 374.723899 135.665256 
L 375.058594 131.55253 
L 375.39329 177.529959 
L 375.727985 192.046409 
L 376.397376 138.762997 
L 377.066767 177.658638 
L 377.401462 164.511012 
L 377.736157 97.540626 
L 378.070853 144.695953 
L 378.405548 168.16641 
L 378.740244 147.005874 
L 378.745957 -1 
M 379.401185 -1 
L 379.409634 219.707961 
L 379.74433 153.451944 
L 380.079025 161.92113 
L 380.413721 127.095425 
L 380.748416 165.191091 
L 381.083112 128.281339 
L 381.417807 158.103304 
L 381.752502 131.870701 
L 382.087198 179.474943 
L 382.421893 155.237828 
L 382.756589 154.957506 
L 383.091284 192.730362 
L 383.425979 155.891637 
L 383.760675 145.361919 
L 384.09537 130.404718 
L 384.430066 169.651792 
L 384.764761 186.111805 
L 385.434152 106.540225 
L 386.103543 155.228526 
L 386.438238 150.793716 
L 386.772933 140.534935 
L 387.107629 142.589545 
L 387.442324 187.305867 
L 388.111715 154.606434 
L 388.44641 143.514829 
L 388.781106 190.997558 
L 389.115801 114.894901 
L 389.120193 -1 
M 389.777016 -1 
L 389.785192 217.255788 
L 390.119888 158.643859 
L 390.454583 181.704278 
L 391.123974 97.403921 
L 391.458669 81.617652 
L 391.793365 150.624666 
L 392.12806 146.257126 
L 392.462755 159.41921 
L 392.797451 104.682964 
L 393.132146 167.148846 
L 393.466842 160.250643 
L 393.801537 60.182118 
L 394.136232 139.087083 
L 394.470928 157.442642 
L 394.805623 125.248045 
L 395.140319 158.409659 
L 395.475014 122.701684 
L 395.809709 134.514462 
L 396.144405 94.313673 
L 396.813796 182.59759 
L 397.148491 138.715845 
L 397.483187 110.557351 
L 397.817882 129.604854 
L 398.152577 158.597678 
L 398.487273 104.738672 
L 398.487273 104.738672 
" style="fill:none;stroke:#ff7f0e;stroke-linecap:square;stroke-width:1.5;"/>
   </g>
   <g id="patch_3">
    <path d="M 57.6 307.584 
L 57.6 41.472 
" style="fill:none;stroke:#000000;stroke-linecap:square;stroke-linejoin:miter;stroke-width:0.8;"/>
   </g>
   <g id="patch_4">
    <path d="M 414.72 307.584 
L 414.72 41.472 
" style="fill:none;stroke:#000000;stroke-linecap:square;stroke-linejoin:miter;stroke-width:0.8;"/>
   </g>
   <g id="patch_5">
    <path d="M 57.6 307.584 
L 414.72 307.584 
" style="fill:none;stroke:#000000;stroke-linecap:square;stroke-linejoin:miter;stroke-width:0.8;"/>
   </g>
   <g id="patch_6">
    <path d="M 57.6 41.472 
L 414.72 41.472 
" style="fill:none;stroke:#000000;stroke-linecap:square;stroke-linejoin:miter;stroke-width:0.8;"/>
   </g>
   <g id="text_20">
    <!-- Total daily sales -->
    <g transform="translate(188.676562 35.472)scale(0.12 -0.12)">
     <defs>
      <path d="M -0.296875 72.90625 
L 61.375 72.90625 
L 61.375 64.59375 
L 35.5 64.59375 
L 35.5 0 
L 25.59375 0 
L 25.59375 64.59375 
L -0.296875 64.59375 
z
" id="DejaVuSans-84"/>
      <path d="M 30.609375 48.390625 
Q 23.390625 48.390625 19.1875 42.75 
Q 14.984375 37.109375 14.984375 27.296875 
Q 14.984375 17.484375 19.15625 11.84375 
Q 23.34375 6.203125 30.609375 6.203125 
Q 37.796875 6.203125 41.984375 11.859375 
Q 46.1875 17.53125 46.1875 27.296875 
Q 46.1875 37.015625 41.984375 42.703125 
Q 37.796875 48.390625 30.609375 48.390625 
z
M 30.609375 56 
Q 42.328125 56 49.015625 48.375 
Q 55.71875 40.765625 55.71875 27.296875 
Q 55.71875 13.875 49.015625 6.21875 
Q 42.328125 -1.421875 30.609375 -1.421875 
Q 18.84375 -1.421875 12.171875 6.21875 
Q 5.515625 13.875 5.515625 27.296875 
Q 5.515625 40.765625 12.171875 48.375 
Q 18.84375 56 30.609375 56 
z
" id="DejaVuSans-111"/>
      <path d="M 18.3125 70.21875 
L 18.3125 54.6875 
L 36.8125 54.6875 
L 36.8125 47.703125 
L 18.3125 47.703125 
L 18.3125 18.015625 
Q 18.3125 11.328125 20.140625 9.421875 
Q 21.96875 7.515625 27.59375 7.515625 
L 36.8125 7.515625 
L 36.8125 0 
L 27.59375 0 
Q 17.1875 0 13.234375 3.875 
Q 9.28125 7.765625 9.28125 18.015625 
L 9.28125 47.703125 
L 2.6875 47.703125 
L 2.6875 54.6875 
L 9.28125 54.6875 
L 9.28125 70.21875 
z
" id="DejaVuSans-116"/>
      <path d="M 34.28125 27.484375 
Q 23.390625 27.484375 19.1875 25 
Q 14.984375 22.515625 14.984375 16.5 
Q 14.984375 11.71875 18.140625 8.90625 
Q 21.296875 6.109375 26.703125 6.109375 
Q 34.1875 6.109375 38.703125 11.40625 
Q 43.21875 16.703125 43.21875 25.484375 
L 43.21875 27.484375 
z
M 52.203125 31.203125 
L 52.203125 0 
L 43.21875 0 
L 43.21875 8.296875 
Q 40.140625 3.328125 35.546875 0.953125 
Q 30.953125 -1.421875 24.3125 -1.421875 
Q 15.921875 -1.421875 10.953125 3.296875 
Q 6 8.015625 6 15.921875 
Q 6 25.140625 12.171875 29.828125 
Q 18.359375 34.515625 30.609375 34.515625 
L 43.21875 34.515625 
L 43.21875 35.40625 
Q 43.21875 41.609375 39.140625 45 
Q 35.0625 48.390625 27.6875 48.390625 
Q 23 48.390625 18.546875 47.265625 
Q 14.109375 46.140625 10.015625 43.890625 
L 10.015625 52.203125 
Q 14.9375 54.109375 19.578125 55.046875 
Q 24.21875 56 28.609375 56 
Q 40.484375 56 46.34375 49.84375 
Q 52.203125 43.703125 52.203125 31.203125 
z
" id="DejaVuSans-97"/>
      <path d="M 9.421875 75.984375 
L 18.40625 75.984375 
L 18.40625 0 
L 9.421875 0 
z
" id="DejaVuSans-108"/>
      <path id="DejaVuSans-32"/>
      <path d="M 45.40625 46.390625 
L 45.40625 75.984375 
L 54.390625 75.984375 
L 54.390625 0 
L 45.40625 0 
L 45.40625 8.203125 
Q 42.578125 3.328125 38.25 0.953125 
Q 33.9375 -1.421875 27.875 -1.421875 
Q 17.96875 -1.421875 11.734375 6.484375 
Q 5.515625 14.40625 5.515625 27.296875 
Q 5.515625 40.1875 11.734375 48.09375 
Q 17.96875 56 27.875 56 
Q 33.9375 56 38.25 53.625 
Q 42.578125 51.265625 45.40625 46.390625 
z
M 14.796875 27.296875 
Q 14.796875 17.390625 18.875 11.75 
Q 22.953125 6.109375 30.078125 6.109375 
Q 37.203125 6.109375 41.296875 11.75 
Q 45.40625 17.390625 45.40625 27.296875 
Q 45.40625 37.203125 41.296875 42.84375 
Q 37.203125 48.484375 30.078125 48.484375 
Q 22.953125 48.484375 18.875 42.84375 
Q 14.796875 37.203125 14.796875 27.296875 
z
" id="DejaVuSans-100"/>
      <path d="M 9.421875 54.6875 
L 18.40625 54.6875 
L 18.40625 0 
L 9.421875 0 
z
M 9.421875 75.984375 
L 18.40625 75.984375 
L 18.40625 64.59375 
L 9.421875 64.59375 
z
" id="DejaVuSans-105"/>
      <path d="M 32.171875 -5.078125 
Q 28.375 -14.84375 24.75 -17.8125 
Q 21.140625 -20.796875 15.09375 -20.796875 
L 7.90625 -20.796875 
L 7.90625 -13.28125 
L 13.1875 -13.28125 
Q 16.890625 -13.28125 18.9375 -11.515625 
Q 21 -9.765625 23.484375 -3.21875 
L 25.09375 0.875 
L 2.984375 54.6875 
L 12.5 54.6875 
L 29.59375 11.921875 
L 46.6875 54.6875 
L 56.203125 54.6875 
z
" id="DejaVuSans-121"/>
      <path d="M 44.28125 53.078125 
L 44.28125 44.578125 
Q 40.484375 46.53125 36.375 47.5 
Q 32.28125 48.484375 27.875 48.484375 
Q 21.1875 48.484375 17.84375 46.4375 
Q 14.5 44.390625 14.5 40.28125 
Q 14.5 37.15625 16.890625 35.375 
Q 19.28125 33.59375 26.515625 31.984375 
L 29.59375 31.296875 
Q 39.15625 29.25 43.1875 25.515625 
Q 47.21875 21.78125 47.21875 15.09375 
Q 47.21875 7.46875 41.1875 3.015625 
Q 35.15625 -1.421875 24.609375 -1.421875 
Q 20.21875 -1.421875 15.453125 -0.5625 
Q 10.6875 0.296875 5.421875 2 
L 5.421875 11.28125 
Q 10.40625 8.6875 15.234375 7.390625 
Q 20.0625 6.109375 24.8125 6.109375 
Q 31.15625 6.109375 34.5625 8.28125 
Q 37.984375 10.453125 37.984375 14.40625 
Q 37.984375 18.0625 35.515625 20.015625 
Q 33.0625 21.96875 24.703125 23.78125 
L 21.578125 24.515625 
Q 13.234375 26.265625 9.515625 29.90625 
Q 5.8125 33.546875 5.8125 39.890625 
Q 5.8125 47.609375 11.28125 51.796875 
Q 16.75 56 26.8125 56 
Q 31.78125 56 36.171875 55.265625 
Q 40.578125 54.546875 44.28125 53.078125 
z
" id="DejaVuSans-115"/>
      <path d="M 56.203125 29.59375 
L 56.203125 25.203125 
L 14.890625 25.203125 
Q 15.484375 15.921875 20.484375 11.0625 
Q 25.484375 6.203125 34.421875 6.203125 
Q 39.59375 6.203125 44.453125 7.46875 
Q 49.3125 8.734375 54.109375 11.28125 
L 54.109375 2.78125 
Q 49.265625 0.734375 44.1875 -0.34375 
Q 39.109375 -1.421875 33.890625 -1.421875 
Q 20.796875 -1.421875 13.15625 6.1875 
Q 5.515625 13.8125 5.515625 26.8125 
Q 5.515625 40.234375 12.765625 48.109375 
Q 20.015625 56 32.328125 56 
Q 43.359375 56 49.78125 48.890625 
Q 56.203125 41.796875 56.203125 29.59375 
z
M 47.21875 32.234375 
Q 47.125 39.59375 43.09375 43.984375 
Q 39.0625 48.390625 32.421875 48.390625 
Q 24.90625 48.390625 20.390625 44.140625 
Q 15.875 39.890625 15.1875 32.171875 
z
" id="DejaVuSans-101"/>
     </defs>
     <use xlink:href="#DejaVuSans-84"/>
     <use x="44.083984" xlink:href="#DejaVuSans-111"/>
     <use x="105.265625" xlink:href="#DejaVuSans-116"/>
     <use x="144.474609" xlink:href="#DejaVuSans-97"/>
     <use x="205.753906" xlink:href="#DejaVuSans-108"/>
     <use x="233.537109" xlink:href="#DejaVuSans-32"/>
     <use x="265.324219" xlink:href="#DejaVuSans-100"/>
     <use x="328.800781" xlink:href="#DejaVuSans-97"/>
     <use x="390.080078" xlink:href="#DejaVuSans-105"/>
     <use x="417.863281" xlink:href="#DejaVuSans-108"/>
     <use x="445.646484" xlink:href="#DejaVuSans-121"/>
     <use x="504.826172" xlink:href="#DejaVuSans-32"/>
     <use x="536.613281" xlink:href="#DejaVuSans-115"/>
     <use x="588.712891" xlink:href="#DejaVuSans-97"/>
     <use x="649.992188" xlink:href="#DejaVuSans-108"/>
     <use x="677.775391" xlink:href="#DejaVuSans-101"/>
     <use x="739.298828" xlink:href="#DejaVuSans-115"/>
    </g>
   </g>
   <g id="legend_1">
    <g id="patch_7">
     <path d="M 64.6 78.82825 
L 117.967187 78.82825 
Q 119.967187 78.82825 119.967187 76.82825 
L 119.967187 48.472 
Q 119.967187 46.472 117.967187 46.472 
L 64.6 46.472 
Q 62.6 46.472 62.6 48.472 
L 62.6 76.82825 
Q 62.6 78.82825 64.6 78.82825 
z
" style="fill:#ffffff;opacity:0.8;stroke:#cccccc;stroke-linejoin:miter;"/>
    </g>
    <g id="line2d_20">
     <path d="M 66.6 54.570437 
L 86.6 54.570437 
" style="fill:none;stroke:#1f77b4;stroke-linecap:square;stroke-width:1.5;"/>
    </g>
    <g id="line2d_21"/>
    <g id="text_21">
     <!-- USD -->
     <g transform="translate(94.6 58.070437)scale(0.1 -0.1)">
      <defs>
       <path d="M 8.6875 72.90625 
L 18.609375 72.90625 
L 18.609375 28.609375 
Q 18.609375 16.890625 22.84375 11.734375 
Q 27.09375 6.59375 36.625 6.59375 
Q 46.09375 6.59375 50.34375 11.734375 
Q 54.59375 16.890625 54.59375 28.609375 
L 54.59375 72.90625 
L 64.5 72.90625 
L 64.5 27.390625 
Q 64.5 13.140625 57.4375 5.859375 
Q 50.390625 -1.421875 36.625 -1.421875 
Q 22.796875 -1.421875 15.734375 5.859375 
Q 8.6875 13.140625 8.6875 27.390625 
z
" id="DejaVuSans-85"/>
       <path d="M 53.515625 70.515625 
L 53.515625 60.890625 
Q 47.90625 63.578125 42.921875 64.890625 
Q 37.9375 66.21875 33.296875 66.21875 
Q 25.25 66.21875 20.875 63.09375 
Q 16.5 59.96875 16.5 54.203125 
Q 16.5 49.359375 19.40625 46.890625 
Q 22.3125 44.4375 30.421875 42.921875 
L 36.375 41.703125 
Q 47.40625 39.59375 52.65625 34.296875 
Q 57.90625 29 57.90625 20.125 
Q 57.90625 9.515625 50.796875 4.046875 
Q 43.703125 -1.421875 29.984375 -1.421875 
Q 24.8125 -1.421875 18.96875 -0.25 
Q 13.140625 0.921875 6.890625 3.21875 
L 6.890625 13.375 
Q 12.890625 10.015625 18.65625 8.296875 
Q 24.421875 6.59375 29.984375 6.59375 
Q 38.421875 6.59375 43.015625 9.90625 
Q 47.609375 13.234375 47.609375 19.390625 
Q 47.609375 24.75 44.3125 27.78125 
Q 41.015625 30.8125 33.5 32.328125 
L 27.484375 33.5 
Q 16.453125 35.6875 11.515625 40.375 
Q 6.59375 45.0625 6.59375 53.421875 
Q 6.59375 63.09375 13.40625 68.65625 
Q 20.21875 74.21875 32.171875 74.21875 
Q 37.3125 74.21875 42.625 73.28125 
Q 47.953125 72.359375 53.515625 70.515625 
z
" id="DejaVuSans-83"/>
       <path d="M 19.671875 64.796875 
L 19.671875 8.109375 
L 31.59375 8.109375 
Q 46.6875 8.109375 53.6875 14.9375 
Q 60.6875 21.78125 60.6875 36.53125 
Q 60.6875 51.171875 53.6875 57.984375 
Q 46.6875 64.796875 31.59375 64.796875 
z
M 9.8125 72.90625 
L 30.078125 72.90625 
Q 51.265625 72.90625 61.171875 64.09375 
Q 71.09375 55.28125 71.09375 36.53125 
Q 71.09375 17.671875 61.125 8.828125 
Q 51.171875 0 30.078125 0 
L 9.8125 0 
z
" id="DejaVuSans-68"/>
      </defs>
      <use xlink:href="#DejaVuSans-85"/>
      <use x="73.193359" xlink:href="#DejaVuSans-83"/>
      <use x="136.669922" xlink:href="#DejaVuSans-68"/>
     </g>
    </g>
    <g id="line2d_22">
     <path d="M 66.6 69.248562 
L 86.6 69.248562 
" style="fill:none;stroke:#ff7f0e;stroke-linecap:square;stroke-width:1.5;"/>
    </g>
    <g id="line2d_23"/>
    <g id="text_22">
     <!-- PLN -->
     <g transform="translate(94.6 72.748562)scale(0.1 -0.1)">
      <defs>
       <path d="M 19.671875 64.796875 
L 19.671875 37.40625 
L 32.078125 37.40625 
Q 38.96875 37.40625 42.71875 40.96875 
Q 46.484375 44.53125 46.484375 51.125 
Q 46.484375 57.671875 42.71875 61.234375 
Q 38.96875 64.796875 32.078125 64.796875 
z
M 9.8125 72.90625 
L 32.078125 72.90625 
Q 44.34375 72.90625 50.609375 67.359375 
Q 56.890625 61.8125 56.890625 51.125 
Q 56.890625 40.328125 50.609375 34.8125 
Q 44.34375 29.296875 32.078125 29.296875 
L 19.671875 29.296875 
L 19.671875 0 
L 9.8125 0 
z
" id="DejaVuSans-80"/>
       <path d="M 9.8125 72.90625 
L 19.671875 72.90625 
L 19.671875 8.296875 
L 55.171875 8.296875 
L 55.171875 0 
L 9.8125 0 
z
" id="DejaVuSans-76"/>
       <path d="M 9.8125 72.90625 
L 23.09375 72.90625 
L 55.421875 11.921875 
L 55.421875 72.90625 
L 64.984375 72.90625 
L 64.984375 0 
L 51.703125 0 
L 19.390625 60.984375 
L 19.390625 0 
L 9.8125 0 
z
" id="DejaVuSans-78"/>
      </defs>
      <use xlink:href="#DejaVuSans-80"/>
      <use x="60.302734" xlink:href="#DejaVuSans-76"/>
      <use x="116.015625" xlink:href="#DejaVuSans-78"/>
     </g>
    </g>
   </g>
  </g>
 </g>
 <defs>
  <clipPath id="p1da29f68fe">
   <rect height="266.112" width="357.12" x="57.6" y="41.472"/>
  </clipPath>
 </defs>
</svg>
