<?xml version="1.0" encoding="utf-8" standalone="no"?>
<!DOCTYPE svg PUBLIC "-//W3C//DTD SVG 1.1//EN"
  "http://www.w3.org/Graphics/SVG/1.1/DTD/svg11.dtd">
<!-- Created with matplotlib (https://matplotlib.org/) -->
<svg height="345.6pt" version="1.1" viewBox="0 0 460.8 345.6" width="460.8pt" xmlns="http://www.w3.org/2000/svg" xmlns:xlink="http://www.w3.org/1999/xlink">
 <metadata>
  <rdf:RDF xmlns:cc="http://creativecommons.org/ns#" xmlns:dc="http://purl.org/dc/elements/1.1/" xmlns:rdf="http://www.w3.org/1999/02/22-rdf-syntax-ns#">
   <cc:Work>
    <dc:type rdf:resource="http://purl.org/dc/dcmitype/StillImage"/>
    <dc:date>2020-11-21T16:38:14.364564</dc:date>
    <dc:format>image/svg+xml</dc:format>
    <dc:creator>
     <cc:Agent>
      <dc:title>Matplotlib v3.3.2, https://matplotlib.org/</dc:title>
     </cc:Agent>
    </dc:creator>
   </cc:Work>
  </rdf:RDF>
 </metadata>
 <defs>
  <style type="text/css">*{stroke-linecap:butt;stroke-linejoin:round;}</style>
 </defs>
 <g id="figure_1">
  <g id="patch_1">
   <path d="M 0 345.6 
L 460.8 345.6 
L 460.8 0 
L 0 0 
z
" style="fill:#ffffff;"/>
  </g>
  <g id="axes_1">
   <g id="patch_2">
    <path d="M 57.6 276.48 
L 414.72 276.48 
L 414.72 41.472 
L 57.6 41.472 
z
" style="fill:#ffffff;"/>
   </g>
   <g id="matplotlib.axis_1">
    <g id="xtick_1">
     <g id="line2d_1">
      <path clip-path="url(#p3ae969ece1)" d="M 81.993443 276.48 
L 81.993443 41.472 
" style="fill:none;stroke:#b0b0b0;stroke-linecap:square;stroke-width:0.8;"/>
     </g>
     <g id="line2d_2">
      <defs>
       <path d="M 0 0 
L 0 3.5 
" id="m95643962bc" style="stroke:#000000;stroke-width:0.8;"/>
      </defs>
      <g>
       <use style="stroke:#000000;stroke-width:0.8;" x="81.993443" xlink:href="#m95643962bc" y="276.48"/>
      </g>
     </g>
     <g id="text_1">
      <!-- 2019-05-31 -->
      <g transform="translate(30.623991 319.118252)rotate(-30)scale(0.1 -0.1)">
       <defs>
        <path d="M 19.1875 8.296875 
L 53.609375 8.296875 
L 53.609375 0 
L 7.328125 0 
L 7.328125 8.296875 
Q 12.9375 14.109375 22.625 23.890625 
Q 32.328125 33.6875 34.8125 36.53125 
Q 39.546875 41.84375 41.421875 45.53125 
Q 43.3125 49.21875 43.3125 52.78125 
Q 43.3125 58.59375 39.234375 62.25 
Q 35.15625 65.921875 28.609375 65.921875 
Q 23.96875 65.921875 18.8125 64.3125 
Q 13.671875 62.703125 7.8125 59.421875 
L 7.8125 69.390625 
Q 13.765625 71.78125 18.9375 73 
Q 24.125 74.21875 28.421875 74.21875 
Q 39.75 74.21875 46.484375 68.546875 
Q 53.21875 62.890625 53.21875 53.421875 
Q 53.21875 48.921875 51.53125 44.890625 
Q 49.859375 40.875 45.40625 35.40625 
Q 44.1875 33.984375 37.640625 27.21875 
Q 31.109375 20.453125 19.1875 8.296875 
z
" id="DejaVuSans-50"/>
        <path d="M 31.78125 66.40625 
Q 24.171875 66.40625 20.328125 58.90625 
Q 16.5 51.421875 16.5 36.375 
Q 16.5 21.390625 20.328125 13.890625 
Q 24.171875 6.390625 31.78125 6.390625 
Q 39.453125 6.390625 43.28125 13.890625 
Q 47.125 21.390625 47.125 36.375 
Q 47.125 51.421875 43.28125 58.90625 
Q 39.453125 66.40625 31.78125 66.40625 
z
M 31.78125 74.21875 
Q 44.046875 74.21875 50.515625 64.515625 
Q 56.984375 54.828125 56.984375 36.375 
Q 56.984375 17.96875 50.515625 8.265625 
Q 44.046875 -1.421875 31.78125 -1.421875 
Q 19.53125 -1.421875 13.0625 8.265625 
Q 6.59375 17.96875 6.59375 36.375 
Q 6.59375 54.828125 13.0625 64.515625 
Q 19.53125 74.21875 31.78125 74.21875 
z
" id="DejaVuSans-48"/>
        <path d="M 12.40625 8.296875 
L 28.515625 8.296875 
L 28.515625 63.921875 
L 10.984375 60.40625 
L 10.984375 69.390625 
L 28.421875 72.90625 
L 38.28125 72.90625 
L 38.28125 8.296875 
L 54.390625 8.296875 
L 54.390625 0 
L 12.40625 0 
z
" id="DejaVuSans-49"/>
        <path d="M 10.984375 1.515625 
L 10.984375 10.5 
Q 14.703125 8.734375 18.5 7.8125 
Q 22.3125 6.890625 25.984375 6.890625 
Q 35.75 6.890625 40.890625 13.453125 
Q 46.046875 20.015625 46.78125 33.40625 
Q 43.953125 29.203125 39.59375 26.953125 
Q 35.25 24.703125 29.984375 24.703125 
Q 19.046875 24.703125 12.671875 31.3125 
Q 6.296875 37.9375 6.296875 49.421875 
Q 6.296875 60.640625 12.9375 67.421875 
Q 19.578125 74.21875 30.609375 74.21875 
Q 43.265625 74.21875 49.921875 64.515625 
Q 56.59375 54.828125 56.59375 36.375 
Q 56.59375 19.140625 48.40625 8.859375 
Q 40.234375 -1.421875 26.421875 -1.421875 
Q 22.703125 -1.421875 18.890625 -0.6875 
Q 15.09375 0.046875 10.984375 1.515625 
z
M 30.609375 32.421875 
Q 37.25 32.421875 41.125 36.953125 
Q 45.015625 41.5 45.015625 49.421875 
Q 45.015625 57.28125 41.125 61.84375 
Q 37.25 66.40625 30.609375 66.40625 
Q 23.96875 66.40625 20.09375 61.84375 
Q 16.21875 57.28125 16.21875 49.421875 
Q 16.21875 41.5 20.09375 36.953125 
Q 23.96875 32.421875 30.609375 32.421875 
z
" id="DejaVuSans-57"/>
        <path d="M 4.890625 31.390625 
L 31.203125 31.390625 
L 31.203125 23.390625 
L 4.890625 23.390625 
z
" id="DejaVuSans-45"/>
        <path d="M 10.796875 72.90625 
L 49.515625 72.90625 
L 49.515625 64.59375 
L 19.828125 64.59375 
L 19.828125 46.734375 
Q 21.96875 47.46875 24.109375 47.828125 
Q 26.265625 48.1875 28.421875 48.1875 
Q 40.625 48.1875 47.75 41.5 
Q 54.890625 34.8125 54.890625 23.390625 
Q 54.890625 11.625 47.5625 5.09375 
Q 40.234375 -1.421875 26.90625 -1.421875 
Q 22.3125 -1.421875 17.546875 -0.640625 
Q 12.796875 0.140625 7.71875 1.703125 
L 7.71875 11.625 
Q 12.109375 9.234375 16.796875 8.0625 
Q 21.484375 6.890625 26.703125 6.890625 
Q 35.15625 6.890625 40.078125 11.328125 
Q 45.015625 15.765625 45.015625 23.390625 
Q 45.015625 31 40.078125 35.4375 
Q 35.15625 39.890625 26.703125 39.890625 
Q 22.75 39.890625 18.8125 39.015625 
Q 14.890625 38.140625 10.796875 36.28125 
z
" id="DejaVuSans-53"/>
        <path d="M 40.578125 39.3125 
Q 47.65625 37.796875 51.625 33 
Q 55.609375 28.21875 55.609375 21.1875 
Q 55.609375 10.40625 48.1875 4.484375 
Q 40.765625 -1.421875 27.09375 -1.421875 
Q 22.515625 -1.421875 17.65625 -0.515625 
Q 12.796875 0.390625 7.625 2.203125 
L 7.625 11.71875 
Q 11.71875 9.328125 16.59375 8.109375 
Q 21.484375 6.890625 26.8125 6.890625 
Q 36.078125 6.890625 40.9375 10.546875 
Q 45.796875 14.203125 45.796875 21.1875 
Q 45.796875 27.640625 41.28125 31.265625 
Q 36.765625 34.90625 28.71875 34.90625 
L 20.21875 34.90625 
L 20.21875 43.015625 
L 29.109375 43.015625 
Q 36.375 43.015625 40.234375 45.921875 
Q 44.09375 48.828125 44.09375 54.296875 
Q 44.09375 59.90625 40.109375 62.90625 
Q 36.140625 65.921875 28.71875 65.921875 
Q 24.65625 65.921875 20.015625 65.03125 
Q 15.375 64.15625 9.8125 62.3125 
L 9.8125 71.09375 
Q 15.4375 72.65625 20.34375 73.4375 
Q 25.25 74.21875 29.59375 74.21875 
Q 40.828125 74.21875 47.359375 69.109375 
Q 53.90625 64.015625 53.90625 55.328125 
Q 53.90625 49.265625 50.4375 45.09375 
Q 46.96875 40.921875 40.578125 39.3125 
z
" id="DejaVuSans-51"/>
       </defs>
       <use xlink:href="#DejaVuSans-50"/>
       <use x="63.623047" xlink:href="#DejaVuSans-48"/>
       <use x="127.246094" xlink:href="#DejaVuSans-49"/>
       <use x="190.869141" xlink:href="#DejaVuSans-57"/>
       <use x="254.492188" xlink:href="#DejaVuSans-45"/>
       <use x="290.576172" xlink:href="#DejaVuSans-48"/>
       <use x="354.199219" xlink:href="#DejaVuSans-53"/>
       <use x="417.822266" xlink:href="#DejaVuSans-45"/>
       <use x="453.90625" xlink:href="#DejaVuSans-51"/>
       <use x="517.529297" xlink:href="#DejaVuSans-49"/>
      </g>
     </g>
    </g>
    <g id="xtick_2">
     <g id="line2d_3">
      <path clip-path="url(#p3ae969ece1)" d="M 111.265574 276.48 
L 111.265574 41.472 
" style="fill:none;stroke:#b0b0b0;stroke-linecap:square;stroke-width:0.8;"/>
     </g>
     <g id="line2d_4">
      <g>
       <use style="stroke:#000000;stroke-width:0.8;" x="111.265574" xlink:href="#m95643962bc" y="276.48"/>
      </g>
     </g>
     <g id="text_2">
      <!-- 2019-06-30 -->
      <g transform="translate(59.896122 319.118252)rotate(-30)scale(0.1 -0.1)">
       <defs>
        <path d="M 33.015625 40.375 
Q 26.375 40.375 22.484375 35.828125 
Q 18.609375 31.296875 18.609375 23.390625 
Q 18.609375 15.53125 22.484375 10.953125 
Q 26.375 6.390625 33.015625 6.390625 
Q 39.65625 6.390625 43.53125 10.953125 
Q 47.40625 15.53125 47.40625 23.390625 
Q 47.40625 31.296875 43.53125 35.828125 
Q 39.65625 40.375 33.015625 40.375 
z
M 52.59375 71.296875 
L 52.59375 62.3125 
Q 48.875 64.0625 45.09375 64.984375 
Q 41.3125 65.921875 37.59375 65.921875 
Q 27.828125 65.921875 22.671875 59.328125 
Q 17.53125 52.734375 16.796875 39.40625 
Q 19.671875 43.65625 24.015625 45.921875 
Q 28.375 48.1875 33.59375 48.1875 
Q 44.578125 48.1875 50.953125 41.515625 
Q 57.328125 34.859375 57.328125 23.390625 
Q 57.328125 12.15625 50.6875 5.359375 
Q 44.046875 -1.421875 33.015625 -1.421875 
Q 20.359375 -1.421875 13.671875 8.265625 
Q 6.984375 17.96875 6.984375 36.375 
Q 6.984375 53.65625 15.1875 63.9375 
Q 23.390625 74.21875 37.203125 74.21875 
Q 40.921875 74.21875 44.703125 73.484375 
Q 48.484375 72.75 52.59375 71.296875 
z
" id="DejaVuSans-54"/>
       </defs>
       <use xlink:href="#DejaVuSans-50"/>
       <use x="63.623047" xlink:href="#DejaVuSans-48"/>
       <use x="127.246094" xlink:href="#DejaVuSans-49"/>
       <use x="190.869141" xlink:href="#DejaVuSans-57"/>
       <use x="254.492188" xlink:href="#DejaVuSans-45"/>
       <use x="290.576172" xlink:href="#DejaVuSans-48"/>
       <use x="354.199219" xlink:href="#DejaVuSans-54"/>
       <use x="417.822266" xlink:href="#DejaVuSans-45"/>
       <use x="453.90625" xlink:href="#DejaVuSans-51"/>
       <use x="517.529297" xlink:href="#DejaVuSans-48"/>
      </g>
     </g>
    </g>
    <g id="xtick_3">
     <g id="line2d_5">
      <path clip-path="url(#p3ae969ece1)" d="M 140.537705 276.48 
L 140.537705 41.472 
" style="fill:none;stroke:#b0b0b0;stroke-linecap:square;stroke-width:0.8;"/>
     </g>
     <g id="line2d_6">
      <g>
       <use style="stroke:#000000;stroke-width:0.8;" x="140.537705" xlink:href="#m95643962bc" y="276.48"/>
      </g>
     </g>
     <g id="text_3">
      <!-- 2019-07-30 -->
      <g transform="translate(89.168254 319.118252)rotate(-30)scale(0.1 -0.1)">
       <defs>
        <path d="M 8.203125 72.90625 
L 55.078125 72.90625 
L 55.078125 68.703125 
L 28.609375 0 
L 18.3125 0 
L 43.21875 64.59375 
L 8.203125 64.59375 
z
" id="DejaVuSans-55"/>
       </defs>
       <use xlink:href="#DejaVuSans-50"/>
       <use x="63.623047" xlink:href="#DejaVuSans-48"/>
       <use x="127.246094" xlink:href="#DejaVuSans-49"/>
       <use x="190.869141" xlink:href="#DejaVuSans-57"/>
       <use x="254.492188" xlink:href="#DejaVuSans-45"/>
       <use x="290.576172" xlink:href="#DejaVuSans-48"/>
       <use x="354.199219" xlink:href="#DejaVuSans-55"/>
       <use x="417.822266" xlink:href="#DejaVuSans-45"/>
       <use x="453.90625" xlink:href="#DejaVuSans-51"/>
       <use x="517.529297" xlink:href="#DejaVuSans-48"/>
      </g>
     </g>
    </g>
    <g id="xtick_4">
     <g id="line2d_7">
      <path clip-path="url(#p3ae969ece1)" d="M 169.809836 276.48 
L 169.809836 41.472 
" style="fill:none;stroke:#b0b0b0;stroke-linecap:square;stroke-width:0.8;"/>
     </g>
     <g id="line2d_8">
      <g>
       <use style="stroke:#000000;stroke-width:0.8;" x="169.809836" xlink:href="#m95643962bc" y="276.48"/>
      </g>
     </g>
     <g id="text_4">
      <!-- 2019-08-29 -->
      <g transform="translate(118.440385 319.118252)rotate(-30)scale(0.1 -0.1)">
       <defs>
        <path d="M 31.78125 34.625 
Q 24.75 34.625 20.71875 30.859375 
Q 16.703125 27.09375 16.703125 20.515625 
Q 16.703125 13.921875 20.71875 10.15625 
Q 24.75 6.390625 31.78125 6.390625 
Q 38.8125 6.390625 42.859375 10.171875 
Q 46.921875 13.96875 46.921875 20.515625 
Q 46.921875 27.09375 42.890625 30.859375 
Q 38.875 34.625 31.78125 34.625 
z
M 21.921875 38.8125 
Q 15.578125 40.375 12.03125 44.71875 
Q 8.5 49.078125 8.5 55.328125 
Q 8.5 64.0625 14.71875 69.140625 
Q 20.953125 74.21875 31.78125 74.21875 
Q 42.671875 74.21875 48.875 69.140625 
Q 55.078125 64.0625 55.078125 55.328125 
Q 55.078125 49.078125 51.53125 44.71875 
Q 48 40.375 41.703125 38.8125 
Q 48.828125 37.15625 52.796875 32.3125 
Q 56.78125 27.484375 56.78125 20.515625 
Q 56.78125 9.90625 50.3125 4.234375 
Q 43.84375 -1.421875 31.78125 -1.421875 
Q 19.734375 -1.421875 13.25 4.234375 
Q 6.78125 9.90625 6.78125 20.515625 
Q 6.78125 27.484375 10.78125 32.3125 
Q 14.796875 37.15625 21.921875 38.8125 
z
M 18.3125 54.390625 
Q 18.3125 48.734375 21.84375 45.5625 
Q 25.390625 42.390625 31.78125 42.390625 
Q 38.140625 42.390625 41.71875 45.5625 
Q 45.3125 48.734375 45.3125 54.390625 
Q 45.3125 60.0625 41.71875 63.234375 
Q 38.140625 66.40625 31.78125 66.40625 
Q 25.390625 66.40625 21.84375 63.234375 
Q 18.3125 60.0625 18.3125 54.390625 
z
" id="DejaVuSans-56"/>
       </defs>
       <use xlink:href="#DejaVuSans-50"/>
       <use x="63.623047" xlink:href="#DejaVuSans-48"/>
       <use x="127.246094" xlink:href="#DejaVuSans-49"/>
       <use x="190.869141" xlink:href="#DejaVuSans-57"/>
       <use x="254.492188" xlink:href="#DejaVuSans-45"/>
       <use x="290.576172" xlink:href="#DejaVuSans-48"/>
       <use x="354.199219" xlink:href="#DejaVuSans-56"/>
       <use x="417.822266" xlink:href="#DejaVuSans-45"/>
       <use x="453.90625" xlink:href="#DejaVuSans-50"/>
       <use x="517.529297" xlink:href="#DejaVuSans-57"/>
      </g>
     </g>
    </g>
    <g id="xtick_5">
     <g id="line2d_9">
      <path clip-path="url(#p3ae969ece1)" d="M 199.081967 276.48 
L 199.081967 41.472 
" style="fill:none;stroke:#b0b0b0;stroke-linecap:square;stroke-width:0.8;"/>
     </g>
     <g id="line2d_10">
      <g>
       <use style="stroke:#000000;stroke-width:0.8;" x="199.081967" xlink:href="#m95643962bc" y="276.48"/>
      </g>
     </g>
     <g id="text_5">
      <!-- 2019-09-28 -->
      <g transform="translate(147.712516 319.118252)rotate(-30)scale(0.1 -0.1)">
       <use xlink:href="#DejaVuSans-50"/>
       <use x="63.623047" xlink:href="#DejaVuSans-48"/>
       <use x="127.246094" xlink:href="#DejaVuSans-49"/>
       <use x="190.869141" xlink:href="#DejaVuSans-57"/>
       <use x="254.492188" xlink:href="#DejaVuSans-45"/>
       <use x="290.576172" xlink:href="#DejaVuSans-48"/>
       <use x="354.199219" xlink:href="#DejaVuSans-57"/>
       <use x="417.822266" xlink:href="#DejaVuSans-45"/>
       <use x="453.90625" xlink:href="#DejaVuSans-50"/>
       <use x="517.529297" xlink:href="#DejaVuSans-56"/>
      </g>
     </g>
    </g>
    <g id="xtick_6">
     <g id="line2d_11">
      <path clip-path="url(#p3ae969ece1)" d="M 228.354098 276.48 
L 228.354098 41.472 
" style="fill:none;stroke:#b0b0b0;stroke-linecap:square;stroke-width:0.8;"/>
     </g>
     <g id="line2d_12">
      <g>
       <use style="stroke:#000000;stroke-width:0.8;" x="228.354098" xlink:href="#m95643962bc" y="276.48"/>
      </g>
     </g>
     <g id="text_6">
      <!-- 2019-10-28 -->
      <g transform="translate(176.984647 319.118252)rotate(-30)scale(0.1 -0.1)">
       <use xlink:href="#DejaVuSans-50"/>
       <use x="63.623047" xlink:href="#DejaVuSans-48"/>
       <use x="127.246094" xlink:href="#DejaVuSans-49"/>
       <use x="190.869141" xlink:href="#DejaVuSans-57"/>
       <use x="254.492188" xlink:href="#DejaVuSans-45"/>
       <use x="290.576172" xlink:href="#DejaVuSans-49"/>
       <use x="354.199219" xlink:href="#DejaVuSans-48"/>
       <use x="417.822266" xlink:href="#DejaVuSans-45"/>
       <use x="453.90625" xlink:href="#DejaVuSans-50"/>
       <use x="517.529297" xlink:href="#DejaVuSans-56"/>
      </g>
     </g>
    </g>
    <g id="xtick_7">
     <g id="line2d_13">
      <path clip-path="url(#p3ae969ece1)" d="M 257.62623 276.48 
L 257.62623 41.472 
" style="fill:none;stroke:#b0b0b0;stroke-linecap:square;stroke-width:0.8;"/>
     </g>
     <g id="line2d_14">
      <g>
       <use style="stroke:#000000;stroke-width:0.8;" x="257.62623" xlink:href="#m95643962bc" y="276.48"/>
      </g>
     </g>
     <g id="text_7">
      <!-- 2019-11-27 -->
      <g transform="translate(206.256778 319.118252)rotate(-30)scale(0.1 -0.1)">
       <use xlink:href="#DejaVuSans-50"/>
       <use x="63.623047" xlink:href="#DejaVuSans-48"/>
       <use x="127.246094" xlink:href="#DejaVuSans-49"/>
       <use x="190.869141" xlink:href="#DejaVuSans-57"/>
       <use x="254.492188" xlink:href="#DejaVuSans-45"/>
       <use x="290.576172" xlink:href="#DejaVuSans-49"/>
       <use x="354.199219" xlink:href="#DejaVuSans-49"/>
       <use x="417.822266" xlink:href="#DejaVuSans-45"/>
       <use x="453.90625" xlink:href="#DejaVuSans-50"/>
       <use x="517.529297" xlink:href="#DejaVuSans-55"/>
      </g>
     </g>
    </g>
    <g id="xtick_8">
     <g id="line2d_15">
      <path clip-path="url(#p3ae969ece1)" d="M 286.898361 276.48 
L 286.898361 41.472 
" style="fill:none;stroke:#b0b0b0;stroke-linecap:square;stroke-width:0.8;"/>
     </g>
     <g id="line2d_16">
      <g>
       <use style="stroke:#000000;stroke-width:0.8;" x="286.898361" xlink:href="#m95643962bc" y="276.48"/>
      </g>
     </g>
     <g id="text_8">
      <!-- 2019-12-27 -->
      <g transform="translate(235.528909 319.118252)rotate(-30)scale(0.1 -0.1)">
       <use xlink:href="#DejaVuSans-50"/>
       <use x="63.623047" xlink:href="#DejaVuSans-48"/>
       <use x="127.246094" xlink:href="#DejaVuSans-49"/>
       <use x="190.869141" xlink:href="#DejaVuSans-57"/>
       <use x="254.492188" xlink:href="#DejaVuSans-45"/>
       <use x="290.576172" xlink:href="#DejaVuSans-49"/>
       <use x="354.199219" xlink:href="#DejaVuSans-50"/>
       <use x="417.822266" xlink:href="#DejaVuSans-45"/>
       <use x="453.90625" xlink:href="#DejaVuSans-50"/>
       <use x="517.529297" xlink:href="#DejaVuSans-55"/>
      </g>
     </g>
    </g>
    <g id="xtick_9">
     <g id="line2d_17">
      <path clip-path="url(#p3ae969ece1)" d="M 316.170492 276.48 
L 316.170492 41.472 
" style="fill:none;stroke:#b0b0b0;stroke-linecap:square;stroke-width:0.8;"/>
     </g>
     <g id="line2d_18">
      <g>
       <use style="stroke:#000000;stroke-width:0.8;" x="316.170492" xlink:href="#m95643962bc" y="276.48"/>
      </g>
     </g>
     <g id="text_9">
      <!-- 2020-01-26 -->
      <g transform="translate(264.80104 319.118252)rotate(-30)scale(0.1 -0.1)">
       <use xlink:href="#DejaVuSans-50"/>
       <use x="63.623047" xlink:href="#DejaVuSans-48"/>
       <use x="127.246094" xlink:href="#DejaVuSans-50"/>
       <use x="190.869141" xlink:href="#DejaVuSans-48"/>
       <use x="254.492188" xlink:href="#DejaVuSans-45"/>
       <use x="290.576172" xlink:href="#DejaVuSans-48"/>
       <use x="354.199219" xlink:href="#DejaVuSans-49"/>
       <use x="417.822266" xlink:href="#DejaVuSans-45"/>
       <use x="453.90625" xlink:href="#DejaVuSans-50"/>
       <use x="517.529297" xlink:href="#DejaVuSans-54"/>
      </g>
     </g>
    </g>
    <g id="xtick_10">
     <g id="line2d_19">
      <path clip-path="url(#p3ae969ece1)" d="M 345.442623 276.48 
L 345.442623 41.472 
" style="fill:none;stroke:#b0b0b0;stroke-linecap:square;stroke-width:0.8;"/>
     </g>
     <g id="line2d_20">
      <g>
       <use style="stroke:#000000;stroke-width:0.8;" x="345.442623" xlink:href="#m95643962bc" y="276.48"/>
      </g>
     </g>
     <g id="text_10">
      <!-- 2020-02-25 -->
      <g transform="translate(294.073172 319.118252)rotate(-30)scale(0.1 -0.1)">
       <use xlink:href="#DejaVuSans-50"/>
       <use x="63.623047" xlink:href="#DejaVuSans-48"/>
       <use x="127.246094" xlink:href="#DejaVuSans-50"/>
       <use x="190.869141" xlink:href="#DejaVuSans-48"/>
       <use x="254.492188" xlink:href="#DejaVuSans-45"/>
       <use x="290.576172" xlink:href="#DejaVuSans-48"/>
       <use x="354.199219" xlink:href="#DejaVuSans-50"/>
       <use x="417.822266" xlink:href="#DejaVuSans-45"/>
       <use x="453.90625" xlink:href="#DejaVuSans-50"/>
       <use x="517.529297" xlink:href="#DejaVuSans-53"/>
      </g>
     </g>
    </g>
    <g id="xtick_11">
     <g id="line2d_21">
      <path clip-path="url(#p3ae969ece1)" d="M 374.714754 276.48 
L 374.714754 41.472 
" style="fill:none;stroke:#b0b0b0;stroke-linecap:square;stroke-width:0.8;"/>
     </g>
     <g id="line2d_22">
      <g>
       <use style="stroke:#000000;stroke-width:0.8;" x="374.714754" xlink:href="#m95643962bc" y="276.48"/>
      </g>
     </g>
     <g id="text_11">
      <!-- 2020-03-26 -->
      <g transform="translate(323.345303 319.118252)rotate(-30)scale(0.1 -0.1)">
       <use xlink:href="#DejaVuSans-50"/>
       <use x="63.623047" xlink:href="#DejaVuSans-48"/>
       <use x="127.246094" xlink:href="#DejaVuSans-50"/>
       <use x="190.869141" xlink:href="#DejaVuSans-48"/>
       <use x="254.492188" xlink:href="#DejaVuSans-45"/>
       <use x="290.576172" xlink:href="#DejaVuSans-48"/>
       <use x="354.199219" xlink:href="#DejaVuSans-51"/>
       <use x="417.822266" xlink:href="#DejaVuSans-45"/>
       <use x="453.90625" xlink:href="#DejaVuSans-50"/>
       <use x="517.529297" xlink:href="#DejaVuSans-54"/>
      </g>
     </g>
    </g>
    <g id="xtick_12">
     <g id="line2d_23">
      <path clip-path="url(#p3ae969ece1)" d="M 403.986885 276.48 
L 403.986885 41.472 
" style="fill:none;stroke:#b0b0b0;stroke-linecap:square;stroke-width:0.8;"/>
     </g>
     <g id="line2d_24">
      <g>
       <use style="stroke:#000000;stroke-width:0.8;" x="403.986885" xlink:href="#m95643962bc" y="276.48"/>
      </g>
     </g>
     <g id="text_12">
      <!-- 2020-04-25 -->
      <g transform="translate(352.617434 319.118252)rotate(-30)scale(0.1 -0.1)">
       <defs>
        <path d="M 37.796875 64.3125 
L 12.890625 25.390625 
L 37.796875 25.390625 
z
M 35.203125 72.90625 
L 47.609375 72.90625 
L 47.609375 25.390625 
L 58.015625 25.390625 
L 58.015625 17.1875 
L 47.609375 17.1875 
L 47.609375 0 
L 37.796875 0 
L 37.796875 17.1875 
L 4.890625 17.1875 
L 4.890625 26.703125 
z
" id="DejaVuSans-52"/>
       </defs>
       <use xlink:href="#DejaVuSans-50"/>
       <use x="63.623047" xlink:href="#DejaVuSans-48"/>
       <use x="127.246094" xlink:href="#DejaVuSans-50"/>
       <use x="190.869141" xlink:href="#DejaVuSans-48"/>
       <use x="254.492188" xlink:href="#DejaVuSans-45"/>
       <use x="290.576172" xlink:href="#DejaVuSans-48"/>
       <use x="354.199219" xlink:href="#DejaVuSans-52"/>
       <use x="417.822266" xlink:href="#DejaVuSans-45"/>
       <use x="453.90625" xlink:href="#DejaVuSans-50"/>
       <use x="517.529297" xlink:href="#DejaVuSans-53"/>
      </g>
     </g>
    </g>
    <g id="text_13">
     <!-- Date -->
     <g transform="translate(224.209219 332.517752)scale(0.1 -0.1)">
      <defs>
       <path d="M 19.671875 64.796875 
L 19.671875 8.109375 
L 31.59375 8.109375 
Q 46.6875 8.109375 53.6875 14.9375 
Q 60.6875 21.78125 60.6875 36.53125 
Q 60.6875 51.171875 53.6875 57.984375 
Q 46.6875 64.796875 31.59375 64.796875 
z
M 9.8125 72.90625 
L 30.078125 72.90625 
Q 51.265625 72.90625 61.171875 64.09375 
Q 71.09375 55.28125 71.09375 36.53125 
Q 71.09375 17.671875 61.125 8.828125 
Q 51.171875 0 30.078125 0 
L 9.8125 0 
z
" id="DejaVuSans-68"/>
       <path d="M 34.28125 27.484375 
Q 23.390625 27.484375 19.1875 25 
Q 14.984375 22.515625 14.984375 16.5 
Q 14.984375 11.71875 18.140625 8.90625 
Q 21.296875 6.109375 26.703125 6.109375 
Q 34.1875 6.109375 38.703125 11.40625 
Q 43.21875 16.703125 43.21875 25.484375 
L 43.21875 27.484375 
z
M 52.203125 31.203125 
L 52.203125 0 
L 43.21875 0 
L 43.21875 8.296875 
Q 40.140625 3.328125 35.546875 0.953125 
Q 30.953125 -1.421875 24.3125 -1.421875 
Q 15.921875 -1.421875 10.953125 3.296875 
Q 6 8.015625 6 15.921875 
Q 6 25.140625 12.171875 29.828125 
Q 18.359375 34.515625 30.609375 34.515625 
L 43.21875 34.515625 
L 43.21875 35.40625 
Q 43.21875 41.609375 39.140625 45 
Q 35.0625 48.390625 27.6875 48.390625 
Q 23 48.390625 18.546875 47.265625 
Q 14.109375 46.140625 10.015625 43.890625 
L 10.015625 52.203125 
Q 14.9375 54.109375 19.578125 55.046875 
Q 24.21875 56 28.609375 56 
Q 40.484375 56 46.34375 49.84375 
Q 52.203125 43.703125 52.203125 31.203125 
z
" id="DejaVuSans-97"/>
       <path d="M 18.3125 70.21875 
L 18.3125 54.6875 
L 36.8125 54.6875 
L 36.8125 47.703125 
L 18.3125 47.703125 
L 18.3125 18.015625 
Q 18.3125 11.328125 20.140625 9.421875 
Q 21.96875 7.515625 27.59375 7.515625 
L 36.8125 7.515625 
L 36.8125 0 
L 27.59375 0 
Q 17.1875 0 13.234375 3.875 
Q 9.28125 7.765625 9.28125 18.015625 
L 9.28125 47.703125 
L 2.6875 47.703125 
L 2.6875 54.6875 
L 9.28125 54.6875 
L 9.28125 70.21875 
z
" id="DejaVuSans-116"/>
       <path d="M 56.203125 29.59375 
L 56.203125 25.203125 
L 14.890625 25.203125 
Q 15.484375 15.921875 20.484375 11.0625 
Q 25.484375 6.203125 34.421875 6.203125 
Q 39.59375 6.203125 44.453125 7.46875 
Q 49.3125 8.734375 54.109375 11.28125 
L 54.109375 2.78125 
Q 49.265625 0.734375 44.1875 -0.34375 
Q 39.109375 -1.421875 33.890625 -1.421875 
Q 20.796875 -1.421875 13.15625 6.1875 
Q 5.515625 13.8125 5.515625 26.8125 
Q 5.515625 40.234375 12.765625 48.109375 
Q 20.015625 56 32.328125 56 
Q 43.359375 56 49.78125 48.890625 
Q 56.203125 41.796875 56.203125 29.59375 
z
M 47.21875 32.234375 
Q 47.125 39.59375 43.09375 43.984375 
Q 39.0625 48.390625 32.421875 48.390625 
Q 24.90625 48.390625 20.390625 44.140625 
Q 15.875 39.890625 15.1875 32.171875 
z
" id="DejaVuSans-101"/>
      </defs>
      <use xlink:href="#DejaVuSans-68"/>
      <use x="77.001953" xlink:href="#DejaVuSans-97"/>
      <use x="138.28125" xlink:href="#DejaVuSans-116"/>
      <use x="177.490234" xlink:href="#DejaVuSans-101"/>
     </g>
    </g>
   </g>
   <g id="matplotlib.axis_2">
    <g id="ytick_1">
     <g id="line2d_25">
      <path clip-path="url(#p3ae969ece1)" d="M 57.6 276.48 
L 414.72 276.48 
" style="fill:none;stroke:#b0b0b0;stroke-linecap:square;stroke-width:0.8;"/>
     </g>
     <g id="line2d_26">
      <defs>
       <path d="M 0 0 
L -3.5 0 
" id="m921cd5ba6a" style="stroke:#000000;stroke-width:0.8;"/>
      </defs>
      <g>
       <use style="stroke:#000000;stroke-width:0.8;" x="57.6" xlink:href="#m921cd5ba6a" y="276.48"/>
      </g>
     </g>
     <g id="text_14">
      <!-- 0 -->
      <g transform="translate(44.2375 280.279219)scale(0.1 -0.1)">
       <use xlink:href="#DejaVuSans-48"/>
      </g>
     </g>
    </g>
    <g id="ytick_2">
     <g id="line2d_27">
      <path clip-path="url(#p3ae969ece1)" d="M 57.6 248.661703 
L 414.72 248.661703 
" style="fill:none;stroke:#b0b0b0;stroke-linecap:square;stroke-width:0.8;"/>
     </g>
     <g id="line2d_28">
      <g>
       <use style="stroke:#000000;stroke-width:0.8;" x="57.6" xlink:href="#m921cd5ba6a" y="248.661703"/>
      </g>
     </g>
     <g id="text_15">
      <!-- 1 -->
      <g transform="translate(44.2375 252.460922)scale(0.1 -0.1)">
       <use xlink:href="#DejaVuSans-49"/>
      </g>
     </g>
    </g>
    <g id="ytick_3">
     <g id="line2d_29">
      <path clip-path="url(#p3ae969ece1)" d="M 57.6 220.843406 
L 414.72 220.843406 
" style="fill:none;stroke:#b0b0b0;stroke-linecap:square;stroke-width:0.8;"/>
     </g>
     <g id="line2d_30">
      <g>
       <use style="stroke:#000000;stroke-width:0.8;" x="57.6" xlink:href="#m921cd5ba6a" y="220.843406"/>
      </g>
     </g>
     <g id="text_16">
      <!-- 2 -->
      <g transform="translate(44.2375 224.642625)scale(0.1 -0.1)">
       <use xlink:href="#DejaVuSans-50"/>
      </g>
     </g>
    </g>
    <g id="ytick_4">
     <g id="line2d_31">
      <path clip-path="url(#p3ae969ece1)" d="M 57.6 193.025109 
L 414.72 193.025109 
" style="fill:none;stroke:#b0b0b0;stroke-linecap:square;stroke-width:0.8;"/>
     </g>
     <g id="line2d_32">
      <g>
       <use style="stroke:#000000;stroke-width:0.8;" x="57.6" xlink:href="#m921cd5ba6a" y="193.025109"/>
      </g>
     </g>
     <g id="text_17">
      <!-- 3 -->
      <g transform="translate(44.2375 196.824328)scale(0.1 -0.1)">
       <use xlink:href="#DejaVuSans-51"/>
      </g>
     </g>
    </g>
    <g id="ytick_5">
     <g id="line2d_33">
      <path clip-path="url(#p3ae969ece1)" d="M 57.6 165.206812 
L 414.72 165.206812 
" style="fill:none;stroke:#b0b0b0;stroke-linecap:square;stroke-width:0.8;"/>
     </g>
     <g id="line2d_34">
      <g>
       <use style="stroke:#000000;stroke-width:0.8;" x="57.6" xlink:href="#m921cd5ba6a" y="165.206812"/>
      </g>
     </g>
     <g id="text_18">
      <!-- 4 -->
      <g transform="translate(44.2375 169.006031)scale(0.1 -0.1)">
       <use xlink:href="#DejaVuSans-52"/>
      </g>
     </g>
    </g>
    <g id="ytick_6">
     <g id="line2d_35">
      <path clip-path="url(#p3ae969ece1)" d="M 57.6 137.388515 
L 414.72 137.388515 
" style="fill:none;stroke:#b0b0b0;stroke-linecap:square;stroke-width:0.8;"/>
     </g>
     <g id="line2d_36">
      <g>
       <use style="stroke:#000000;stroke-width:0.8;" x="57.6" xlink:href="#m921cd5ba6a" y="137.388515"/>
      </g>
     </g>
     <g id="text_19">
      <!-- 5 -->
      <g transform="translate(44.2375 141.187734)scale(0.1 -0.1)">
       <use xlink:href="#DejaVuSans-53"/>
      </g>
     </g>
    </g>
    <g id="ytick_7">
     <g id="line2d_37">
      <path clip-path="url(#p3ae969ece1)" d="M 57.6 109.570218 
L 414.72 109.570218 
" style="fill:none;stroke:#b0b0b0;stroke-linecap:square;stroke-width:0.8;"/>
     </g>
     <g id="line2d_38">
      <g>
       <use style="stroke:#000000;stroke-width:0.8;" x="57.6" xlink:href="#m921cd5ba6a" y="109.570218"/>
      </g>
     </g>
     <g id="text_20">
      <!-- 6 -->
      <g transform="translate(44.2375 113.369437)scale(0.1 -0.1)">
       <use xlink:href="#DejaVuSans-54"/>
      </g>
     </g>
    </g>
    <g id="ytick_8">
     <g id="line2d_39">
      <path clip-path="url(#p3ae969ece1)" d="M 57.6 81.751921 
L 414.72 81.751921 
" style="fill:none;stroke:#b0b0b0;stroke-linecap:square;stroke-width:0.8;"/>
     </g>
     <g id="line2d_40">
      <g>
       <use style="stroke:#000000;stroke-width:0.8;" x="57.6" xlink:href="#m921cd5ba6a" y="81.751921"/>
      </g>
     </g>
     <g id="text_21">
      <!-- 7 -->
      <g transform="translate(44.2375 85.55114)scale(0.1 -0.1)">
       <use xlink:href="#DejaVuSans-55"/>
      </g>
     </g>
    </g>
    <g id="ytick_9">
     <g id="line2d_41">
      <path clip-path="url(#p3ae969ece1)" d="M 57.6 53.933624 
L 414.72 53.933624 
" style="fill:none;stroke:#b0b0b0;stroke-linecap:square;stroke-width:0.8;"/>
     </g>
     <g id="line2d_42">
      <g>
       <use style="stroke:#000000;stroke-width:0.8;" x="57.6" xlink:href="#m921cd5ba6a" y="53.933624"/>
      </g>
     </g>
     <g id="text_22">
      <!-- 8 -->
      <g transform="translate(44.2375 57.732842)scale(0.1 -0.1)">
       <use xlink:href="#DejaVuSans-56"/>
      </g>
     </g>
    </g>
    <g id="text_23">
     <!-- Price -->
     <g transform="translate(38.157812 171.173656)rotate(-90)scale(0.1 -0.1)">
      <defs>
       <path d="M 19.671875 64.796875 
L 19.671875 37.40625 
L 32.078125 37.40625 
Q 38.96875 37.40625 42.71875 40.96875 
Q 46.484375 44.53125 46.484375 51.125 
Q 46.484375 57.671875 42.71875 61.234375 
Q 38.96875 64.796875 32.078125 64.796875 
z
M 9.8125 72.90625 
L 32.078125 72.90625 
Q 44.34375 72.90625 50.609375 67.359375 
Q 56.890625 61.8125 56.890625 51.125 
Q 56.890625 40.328125 50.609375 34.8125 
Q 44.34375 29.296875 32.078125 29.296875 
L 19.671875 29.296875 
L 19.671875 0 
L 9.8125 0 
z
" id="DejaVuSans-80"/>
       <path d="M 41.109375 46.296875 
Q 39.59375 47.171875 37.8125 47.578125 
Q 36.03125 48 33.890625 48 
Q 26.265625 48 22.1875 43.046875 
Q 18.109375 38.09375 18.109375 28.8125 
L 18.109375 0 
L 9.078125 0 
L 9.078125 54.6875 
L 18.109375 54.6875 
L 18.109375 46.1875 
Q 20.953125 51.171875 25.484375 53.578125 
Q 30.03125 56 36.53125 56 
Q 37.453125 56 38.578125 55.875 
Q 39.703125 55.765625 41.0625 55.515625 
z
" id="DejaVuSans-114"/>
       <path d="M 9.421875 54.6875 
L 18.40625 54.6875 
L 18.40625 0 
L 9.421875 0 
z
M 9.421875 75.984375 
L 18.40625 75.984375 
L 18.40625 64.59375 
L 9.421875 64.59375 
z
" id="DejaVuSans-105"/>
       <path d="M 48.78125 52.59375 
L 48.78125 44.1875 
Q 44.96875 46.296875 41.140625 47.34375 
Q 37.3125 48.390625 33.40625 48.390625 
Q 24.65625 48.390625 19.8125 42.84375 
Q 14.984375 37.3125 14.984375 27.296875 
Q 14.984375 17.28125 19.8125 11.734375 
Q 24.65625 6.203125 33.40625 6.203125 
Q 37.3125 6.203125 41.140625 7.25 
Q 44.96875 8.296875 48.78125 10.40625 
L 48.78125 2.09375 
Q 45.015625 0.34375 40.984375 -0.53125 
Q 36.96875 -1.421875 32.421875 -1.421875 
Q 20.0625 -1.421875 12.78125 6.34375 
Q 5.515625 14.109375 5.515625 27.296875 
Q 5.515625 40.671875 12.859375 48.328125 
Q 20.21875 56 33.015625 56 
Q 37.15625 56 41.109375 55.140625 
Q 45.0625 54.296875 48.78125 52.59375 
z
" id="DejaVuSans-99"/>
      </defs>
      <use xlink:href="#DejaVuSans-80"/>
      <use x="58.552734" xlink:href="#DejaVuSans-114"/>
      <use x="99.666016" xlink:href="#DejaVuSans-105"/>
      <use x="127.449219" xlink:href="#DejaVuSans-99"/>
      <use x="182.429688" xlink:href="#DejaVuSans-101"/>
     </g>
    </g>
    <g id="text_24">
     <!-- 1e7 -->
     <g transform="translate(57.6 38.472)scale(0.1 -0.1)">
      <use xlink:href="#DejaVuSans-49"/>
      <use x="63.623047" xlink:href="#DejaVuSans-101"/>
      <use x="125.146484" xlink:href="#DejaVuSans-55"/>
     </g>
    </g>
   </g>
   <g id="line2d_43">
    <path clip-path="url(#p3ae969ece1)" d="M 57.6 276.081773 
L 58.575738 275.51683 
L 59.551475 272.100204 
L 60.527213 275.664766 
L 63.454426 273.705929 
L 64.430164 274.47153 
L 65.405902 272.880695 
L 66.381639 276.334551 
L 67.357377 276.109147 
L 70.28459 263.716278 
L 71.260328 275.985411 
L 72.236066 274.44858 
L 73.211803 276.257426 
L 74.187541 271.586668 
L 77.114754 276.222852 
L 78.090492 272.663468 
L 79.06623 273.938653 
L 80.041967 275.529632 
L 81.017705 272.936208 
L 83.944918 273.269199 
L 84.920656 274.306929 
L 85.896393 274.131294 
L 86.872131 275.908162 
L 87.847869 272.165098 
L 90.775082 275.937567 
L 91.75082 274.033047 
L 92.726557 275.766183 
L 93.702295 271.693695 
L 94.678033 276.306233 
L 97.605246 275.474814 
L 98.580984 273.065455 
L 99.556721 274.776289 
L 100.532459 273.24157 
L 101.508197 274.030783 
L 104.43541 274.862987 
L 105.411148 275.93065 
L 106.386885 276.113171 
L 107.362623 274.948108 
L 108.338361 276.097192 
L 111.265574 273.172057 
L 112.241311 276.313111 
L 113.217049 275.504251 
L 114.192787 272.808652 
L 115.168525 276.395076 
L 118.095738 274.207066 
L 119.071475 275.865082 
L 121.022951 270.828018 
L 121.998689 274.203207 
L 124.925902 273.59633 
L 125.901639 275.883423 
L 126.877377 273.126636 
L 127.853115 276.420737 
L 128.828852 274.391774 
L 131.756066 271.438274 
L 132.731803 267.128146 
L 133.707541 275.168779 
L 134.683279 275.956304 
L 135.659016 275.109319 
L 138.58623 268.535094 
L 139.561967 275.459283 
L 140.537705 276.329781 
L 141.513443 268.689529 
L 142.48918 273.088198 
L 146.392131 275.444892 
L 147.367869 275.768074 
L 148.343607 273.001525 
L 149.319344 275.867426 
L 152.246557 273.023633 
L 153.222295 272.326177 
L 154.198033 275.313661 
L 155.17377 275.645918 
L 156.149508 262.873573 
L 159.076721 274.749703 
L 160.052459 272.045831 
L 161.028197 272.260956 
L 162.003934 275.549395 
L 162.979672 272.861535 
L 165.906885 273.585009 
L 166.882623 274.443158 
L 167.858361 273.711534 
L 168.834098 274.073012 
L 169.809836 274.104273 
L 172.737049 275.517112 
L 173.712787 274.211334 
L 174.688525 276.271685 
L 175.664262 269.752851 
L 176.64 268.769272 
L 179.567213 274.161373 
L 180.542951 275.540822 
L 181.518689 272.074574 
L 182.494426 274.703983 
L 183.470164 267.954672 
L 186.397377 274.827449 
L 187.373115 273.291268 
L 188.348852 269.906704 
L 189.32459 275.843865 
L 190.300328 274.49677 
L 193.227541 274.589746 
L 194.203279 268.168359 
L 195.179016 274.703777 
L 196.154754 274.134666 
L 197.130492 273.892487 
L 200.057705 275.341224 
L 201.033443 267.413852 
L 202.984918 275.246745 
L 203.960656 260.659618 
L 206.887869 266.54266 
L 207.863607 275.5531 
L 208.839344 273.874146 
L 209.815082 271.334224 
L 210.79082 274.100855 
L 213.718033 271.814559 
L 214.69377 271.884687 
L 215.669508 275.925843 
L 216.645246 271.289239 
L 217.620984 271.175809 
L 220.548197 276.341626 
L 221.523934 268.050497 
L 222.499672 269.002528 
L 223.47541 274.551191 
L 224.451148 273.532546 
L 227.378361 270.021679 
L 228.354098 275.653797 
L 229.329836 272.726793 
L 230.305574 274.810994 
L 231.281311 276.045268 
L 234.208525 273.017715 
L 235.184262 271.691714 
L 236.16 275.74177 
L 237.135738 273.042981 
L 238.111475 271.955236 
L 241.038689 275.654828 
L 242.014426 274.728039 
L 242.990164 276.028636 
L 243.965902 274.289877 
L 244.941639 271.295443 
L 247.868852 274.836183 
L 248.84459 269.410765 
L 249.820328 269.875388 
L 250.796066 271.349227 
L 251.771803 273.984484 
L 254.699016 273.509186 
L 255.674754 276.253733 
L 256.650492 273.395795 
L 257.62623 268.437619 
L 258.601967 273.359381 
L 261.52918 271.822221 
L 262.504918 268.73177 
L 263.480656 271.830027 
L 264.456393 274.047287 
L 265.432131 272.720735 
L 268.359344 271.370611 
L 269.335082 276.097505 
L 270.31082 270.078372 
L 271.286557 271.770074 
L 272.262295 276.10896 
L 275.189508 265.260175 
L 276.165246 272.954772 
L 277.140984 274.857792 
L 278.116721 271.025004 
L 279.092459 269.639277 
L 282.019672 267.970675 
L 282.99541 272.783377 
L 283.971148 272.055988 
L 284.946885 271.886377 
L 285.922623 270.699492 
L 288.849836 266.482836 
L 289.825574 266.002001 
L 290.801311 275.710457 
L 291.777049 273.554934 
L 292.752787 272.190005 
L 295.68 272.361814 
L 296.655738 243.561024 
L 297.631475 272.31574 
L 298.607213 274.920699 
L 299.582951 269.475536 
L 302.510164 273.784496 
L 303.485902 268.464464 
L 304.461639 271.048263 
L 305.437377 270.994816 
L 306.413115 266.528282 
L 309.340328 271.320404 
L 310.316066 266.835552 
L 311.291803 268.296726 
L 312.267541 265.954964 
L 313.243279 272.070088 
L 316.170492 266.688488 
L 317.14623 266.265028 
L 318.121967 271.718647 
L 319.097705 272.523812 
L 320.073443 269.241152 
L 323.000656 246.159492 
L 323.976393 274.359815 
L 324.952131 269.884078 
L 325.927869 269.291414 
L 326.903607 274.061421 
L 329.83082 271.334593 
L 330.806557 269.930339 
L 331.782295 274.606311 
L 332.758033 271.758884 
L 333.73377 270.716104 
L 336.660984 253.217895 
L 337.636721 272.020104 
L 338.612459 249.895722 
L 339.588197 255.401871 
L 340.563934 276.140816 
L 343.491148 273.18899 
L 344.466885 270.616794 
L 345.442623 275.4959 
L 346.418361 258.803166 
L 347.394098 273.232021 
L 351.297049 271.040125 
L 352.272787 269.397075 
L 353.248525 271.229945 
L 354.224262 272.54901 
L 355.2 265.737038 
L 358.127213 273.530394 
L 359.102951 268.95361 
L 360.078689 265.884411 
L 361.054426 271.444305 
L 362.030164 263.288905 
L 364.957377 266.11151 
L 365.933115 271.912662 
L 366.908852 271.404115 
L 367.88459 266.928657 
L 368.860328 268.870893 
L 371.787541 271.842866 
L 372.763279 271.695042 
L 373.739016 272.515346 
L 374.714754 260.453074 
L 375.690492 242.277699 
L 378.617705 264.793889 
L 379.593443 261.592265 
L 380.56918 254.117645 
L 381.544918 271.251661 
L 382.520656 269.161765 
L 385.447869 265.150429 
L 386.423607 274.114978 
L 387.399344 260.969341 
L 389.35082 273.818606 
L 392.278033 259.933933 
L 393.25377 257.071136 
L 394.229508 270.027727 
L 395.205246 267.926605 
L 396.180984 222.717187 
L 399.108197 268.552012 
L 400.083934 268.746676 
L 401.059672 271.316552 
L 402.03541 269.715163 
L 403.011148 273.246831 
L 405.938361 265.969619 
L 406.914098 264.869985 
L 407.889836 270.959503 
L 408.865574 271.386807 
L 409.841311 265.476022 
L 412.768525 271.476748 
L 413.744262 261.022925 
L 414.72 270.845015 
L 414.72 270.845015 
" style="fill:none;stroke:#1f77b4;stroke-linecap:square;stroke-width:1.5;"/>
   </g>
   <g id="line2d_44">
    <path clip-path="url(#p3ae969ece1)" d="M 57.6 274.959688 
L 58.575738 272.789808 
L 59.551475 259.715016 
L 60.527213 273.355615 
L 63.454426 265.871398 
L 64.430164 268.799207 
L 65.405902 262.687104 
L 66.381639 275.922598 
L 67.357377 275.053812 
L 70.28459 227.282233 
L 71.260328 274.573607 
L 72.236066 268.650298 
L 73.211803 275.620307 
L 74.187541 257.581952 
L 77.114754 275.491625 
L 78.090492 261.810779 
L 79.06623 266.727836 
L 80.041967 272.831919 
L 81.017705 262.817264 
L 83.944918 264.119058 
L 84.920656 268.114111 
L 85.896393 267.486335 
L 86.872131 274.30467 
L 87.847869 260.114006 
L 90.775082 274.421034 
L 91.75082 267.191856 
L 92.726557 273.785697 
L 93.702295 258.425101 
L 94.678033 275.826115 
L 97.605246 272.687733 
L 98.580984 263.597945 
L 99.556721 270.007771 
L 100.532459 264.142553 
L 101.508197 267.147502 
L 104.43541 270.383052 
L 105.411148 274.408675 
L 106.386885 275.109525 
L 107.362623 270.7544 
L 108.338361 275.04294 
L 111.265574 264.129463 
L 112.241311 275.856904 
L 113.217049 272.827772 
L 114.192787 262.678303 
L 115.168525 276.160721 
L 118.095738 267.913538 
L 119.071475 274.162435 
L 121.022951 254.960642 
L 121.998689 267.813158 
L 124.925902 265.554064 
L 125.901639 274.219628 
L 126.877377 263.785504 
L 127.853115 276.255587 
L 128.828852 268.536807 
L 131.756066 257.394546 
L 132.731803 241.078557 
L 133.707541 271.514537 
L 134.683279 274.490112 
L 135.659016 271.240025 
L 138.58623 246.054189 
L 139.561967 272.571063 
L 140.537705 275.902364 
L 141.513443 246.49214 
L 142.48918 263.420207 
L 146.392131 272.46078 
L 147.367869 273.72207 
L 148.343607 263.094132 
L 149.319344 274.11565 
L 152.246557 263.13393 
L 153.222295 260.440843 
L 154.198033 271.964986 
L 155.17377 273.250937 
L 156.149508 223.564604 
L 159.076721 269.683221 
L 160.052459 259.062142 
L 161.028197 259.941769 
L 162.003934 272.81267 
L 162.979672 262.291999 
L 165.906885 265.08213 
L 166.882623 268.46075 
L 167.858361 265.59024 
L 168.834098 267.01837 
L 169.809836 267.084475 
L 172.737049 272.655699 
L 173.712787 267.469537 
L 174.688525 275.650512 
L 175.664262 249.650785 
L 176.64 246.088936 
L 179.567213 267.364317 
L 180.542951 272.787622 
L 181.518689 259.162269 
L 182.494426 269.505047 
L 183.470164 242.955002 
L 186.397377 270.015222 
L 187.373115 264.00568 
L 188.348852 250.767897 
L 189.32459 273.972865 
L 190.300328 268.681542 
L 193.227541 269.047709 
L 194.203279 243.799458 
L 195.179016 269.378129 
L 196.154754 267.13666 
L 197.130492 266.167207 
L 200.057705 271.90736 
L 201.033443 240.075791 
L 202.984918 271.528853 
L 203.960656 212.958001 
L 206.887869 237.258313 
L 207.863607 272.821618 
L 208.839344 266.187398 
L 209.815082 256.20307 
L 210.79082 267.11045 
L 213.718033 258.21713 
L 214.69377 258.491648 
L 215.669508 274.321115 
L 216.645246 256.260949 
L 217.620984 255.828661 
L 220.548197 275.947219 
L 221.523934 244.023885 
L 222.499672 247.836047 
L 223.47541 269.071829 
L 224.451148 265.140259 
L 227.378361 251.646464 
L 228.354098 273.303083 
L 229.329836 262.01927 
L 230.305574 270.037972 
L 231.281311 274.811153 
L 234.208525 263.263074 
L 235.184262 258.201196 
L 236.16 273.667416 
L 237.135738 263.313469 
L 238.111475 259.061015 
L 241.038689 273.292773 
L 242.014426 269.713052 
L 242.990164 274.736608 
L 243.965902 267.986701 
L 244.941639 256.311036 
L 247.868852 270.094101 
L 248.84459 249.017435 
L 249.820328 250.875901 
L 250.796066 256.579783 
L 251.771803 266.799394 
L 254.699016 264.937494 
L 255.674754 275.600883 
L 256.650492 264.440498 
L 257.62623 245.083349 
L 258.601967 264.261527 
L 261.52918 258.180519 
L 262.504918 246.038753 
L 263.480656 258.32325 
L 264.456393 267.063939 
L 265.432131 261.95157 
L 268.359344 256.808853 
L 269.335082 275.007396 
L 270.31082 251.703139 
L 271.286557 258.247406 
L 272.262295 275.045558 
L 275.189508 233.582121 
L 276.165246 263.001644 
L 277.140984 270.265159 
L 278.116721 255.635916 
L 279.092459 250.278662 
L 282.019672 243.879925 
L 282.99541 262.317869 
L 283.971148 259.494449 
L 284.946885 258.800522 
L 285.922623 254.232557 
L 288.849836 238.224853 
L 289.825574 236.38489 
L 290.801311 273.553658 
L 291.777049 265.371476 
L 292.752787 260.187885 
L 295.68 260.743175 
L 296.655738 150.686716 
L 297.631475 260.567113 
L 298.607213 270.57633 
L 299.582951 249.77688 
L 302.510164 266.163767 
L 303.485902 245.80294 
L 304.461639 255.784538 
L 305.437377 255.625881 
L 306.413115 238.671435 
L 309.340328 256.846191 
L 310.316066 239.779983 
L 311.291803 245.156883 
L 312.267541 236.185953 
L 313.243279 259.633253 
L 316.170492 238.807158 
L 317.14623 237.177896 
L 318.121967 258.041662 
L 319.097705 261.112583 
L 320.073443 248.341873 
L 323.000656 158.233049 
L 323.976393 268.211491 
L 324.952131 250.845607 
L 325.927869 248.607695 
L 326.903607 267.131223 
L 329.83082 256.440183 
L 330.806557 250.971036 
L 331.782295 269.173364 
L 332.758033 258.04829 
L 333.73377 253.995044 
L 336.660984 185.529821 
L 337.636721 259.042698 
L 338.612459 172.298872 
L 339.588197 193.330995 
L 340.563934 275.138325 
L 343.491148 263.440031 
L 344.466885 253.248219 
L 345.442623 272.566037 
L 346.418361 206.437311 
L 347.394098 263.626772 
L 351.297049 255.12577 
L 352.272787 248.8403 
L 353.248525 256.107685 
L 354.224262 261.331536 
L 355.2 235.142156 
L 358.127213 265.203361 
L 359.102951 247.955733 
L 360.078689 236.155306 
L 361.054426 257.250695 
L 362.030164 225.506971 
L 364.957377 235.973422 
L 365.933115 258.561876 
L 366.908852 255.94297 
L 367.88459 237.559232 
L 368.860328 244.201406 
L 371.787541 256.818551 
L 372.763279 256.070242 
L 373.739016 259.661541 
L 374.714754 208.814317 
L 375.690492 132.871378 
L 378.617705 228.418531 
L 379.593443 215.540034 
L 380.56918 183.75226 
L 381.544918 254.677303 
L 382.520656 245.804155 
L 385.447869 228.447149 
L 386.423607 266.486128 
L 387.399344 211.774185 
L 389.35082 265.370279 
L 392.278033 207.704617 
L 393.25377 195.805115 
L 394.229508 249.595957 
L 395.205246 240.967157 
L 396.180984 52.660035 
L 399.108197 243.27283 
L 400.083934 244.367372 
L 401.059672 254.907631 
L 402.03541 248.246275 
L 403.011148 262.870621 
L 405.938361 232.187151 
L 406.914098 228.070882 
L 407.889836 253.382242 
L 408.865574 255.186888 
L 409.841311 230.561502 
L 412.768525 255.601931 
L 413.744262 212.107466 
L 414.72 252.854198 
L 414.72 252.854198 
" style="fill:none;stroke:#ff7f0e;stroke-linecap:square;stroke-width:1.5;"/>
   </g>
   <g id="patch_3">
    <path d="M 57.6 276.48 
L 57.6 41.472 
" style="fill:none;stroke:#000000;stroke-linecap:square;stroke-linejoin:miter;stroke-width:0.8;"/>
   </g>
   <g id="patch_4">
    <path d="M 414.72 276.48 
L 414.72 41.472 
" style="fill:none;stroke:#000000;stroke-linecap:square;stroke-linejoin:miter;stroke-width:0.8;"/>
   </g>
   <g id="patch_5">
    <path d="M 57.6 276.48 
L 414.72 276.48 
" style="fill:none;stroke:#000000;stroke-linecap:square;stroke-linejoin:miter;stroke-width:0.8;"/>
   </g>
   <g id="patch_6">
    <path d="M 57.6 41.472 
L 414.72 41.472 
" style="fill:none;stroke:#000000;stroke-linecap:square;stroke-linejoin:miter;stroke-width:0.8;"/>
   </g>
   <g id="text_25">
    <!-- Total sales in USD and PLN -->
    <g transform="translate(156.299062 35.472)scale(0.12 -0.12)">
     <defs>
      <path d="M -0.296875 72.90625 
L 61.375 72.90625 
L 61.375 64.59375 
L 35.5 64.59375 
L 35.5 0 
L 25.59375 0 
L 25.59375 64.59375 
L -0.296875 64.59375 
z
" id="DejaVuSans-84"/>
      <path d="M 30.609375 48.390625 
Q 23.390625 48.390625 19.1875 42.75 
Q 14.984375 37.109375 14.984375 27.296875 
Q 14.984375 17.484375 19.15625 11.84375 
Q 23.34375 6.203125 30.609375 6.203125 
Q 37.796875 6.203125 41.984375 11.859375 
Q 46.1875 17.53125 46.1875 27.296875 
Q 46.1875 37.015625 41.984375 42.703125 
Q 37.796875 48.390625 30.609375 48.390625 
z
M 30.609375 56 
Q 42.328125 56 49.015625 48.375 
Q 55.71875 40.765625 55.71875 27.296875 
Q 55.71875 13.875 49.015625 6.21875 
Q 42.328125 -1.421875 30.609375 -1.421875 
Q 18.84375 -1.421875 12.171875 6.21875 
Q 5.515625 13.875 5.515625 27.296875 
Q 5.515625 40.765625 12.171875 48.375 
Q 18.84375 56 30.609375 56 
z
" id="DejaVuSans-111"/>
      <path d="M 9.421875 75.984375 
L 18.40625 75.984375 
L 18.40625 0 
L 9.421875 0 
z
" id="DejaVuSans-108"/>
      <path id="DejaVuSans-32"/>
      <path d="M 44.28125 53.078125 
L 44.28125 44.578125 
Q 40.484375 46.53125 36.375 47.5 
Q 32.28125 48.484375 27.875 48.484375 
Q 21.1875 48.484375 17.84375 46.4375 
Q 14.5 44.390625 14.5 40.28125 
Q 14.5 37.15625 16.890625 35.375 
Q 19.28125 33.59375 26.515625 31.984375 
L 29.59375 31.296875 
Q 39.15625 29.25 43.1875 25.515625 
Q 47.21875 21.78125 47.21875 15.09375 
Q 47.21875 7.46875 41.1875 3.015625 
Q 35.15625 -1.421875 24.609375 -1.421875 
Q 20.21875 -1.421875 15.453125 -0.5625 
Q 10.6875 0.296875 5.421875 2 
L 5.421875 11.28125 
Q 10.40625 8.6875 15.234375 7.390625 
Q 20.0625 6.109375 24.8125 6.109375 
Q 31.15625 6.109375 34.5625 8.28125 
Q 37.984375 10.453125 37.984375 14.40625 
Q 37.984375 18.0625 35.515625 20.015625 
Q 33.0625 21.96875 24.703125 23.78125 
L 21.578125 24.515625 
Q 13.234375 26.265625 9.515625 29.90625 
Q 5.8125 33.546875 5.8125 39.890625 
Q 5.8125 47.609375 11.28125 51.796875 
Q 16.75 56 26.8125 56 
Q 31.78125 56 36.171875 55.265625 
Q 40.578125 54.546875 44.28125 53.078125 
z
" id="DejaVuSans-115"/>
      <path d="M 54.890625 33.015625 
L 54.890625 0 
L 45.90625 0 
L 45.90625 32.71875 
Q 45.90625 40.484375 42.875 44.328125 
Q 39.84375 48.1875 33.796875 48.1875 
Q 26.515625 48.1875 22.3125 43.546875 
Q 18.109375 38.921875 18.109375 30.90625 
L 18.109375 0 
L 9.078125 0 
L 9.078125 54.6875 
L 18.109375 54.6875 
L 18.109375 46.1875 
Q 21.34375 51.125 25.703125 53.5625 
Q 30.078125 56 35.796875 56 
Q 45.21875 56 50.046875 50.171875 
Q 54.890625 44.34375 54.890625 33.015625 
z
" id="DejaVuSans-110"/>
      <path d="M 8.6875 72.90625 
L 18.609375 72.90625 
L 18.609375 28.609375 
Q 18.609375 16.890625 22.84375 11.734375 
Q 27.09375 6.59375 36.625 6.59375 
Q 46.09375 6.59375 50.34375 11.734375 
Q 54.59375 16.890625 54.59375 28.609375 
L 54.59375 72.90625 
L 64.5 72.90625 
L 64.5 27.390625 
Q 64.5 13.140625 57.4375 5.859375 
Q 50.390625 -1.421875 36.625 -1.421875 
Q 22.796875 -1.421875 15.734375 5.859375 
Q 8.6875 13.140625 8.6875 27.390625 
z
" id="DejaVuSans-85"/>
      <path d="M 53.515625 70.515625 
L 53.515625 60.890625 
Q 47.90625 63.578125 42.921875 64.890625 
Q 37.9375 66.21875 33.296875 66.21875 
Q 25.25 66.21875 20.875 63.09375 
Q 16.5 59.96875 16.5 54.203125 
Q 16.5 49.359375 19.40625 46.890625 
Q 22.3125 44.4375 30.421875 42.921875 
L 36.375 41.703125 
Q 47.40625 39.59375 52.65625 34.296875 
Q 57.90625 29 57.90625 20.125 
Q 57.90625 9.515625 50.796875 4.046875 
Q 43.703125 -1.421875 29.984375 -1.421875 
Q 24.8125 -1.421875 18.96875 -0.25 
Q 13.140625 0.921875 6.890625 3.21875 
L 6.890625 13.375 
Q 12.890625 10.015625 18.65625 8.296875 
Q 24.421875 6.59375 29.984375 6.59375 
Q 38.421875 6.59375 43.015625 9.90625 
Q 47.609375 13.234375 47.609375 19.390625 
Q 47.609375 24.75 44.3125 27.78125 
Q 41.015625 30.8125 33.5 32.328125 
L 27.484375 33.5 
Q 16.453125 35.6875 11.515625 40.375 
Q 6.59375 45.0625 6.59375 53.421875 
Q 6.59375 63.09375 13.40625 68.65625 
Q 20.21875 74.21875 32.171875 74.21875 
Q 37.3125 74.21875 42.625 73.28125 
Q 47.953125 72.359375 53.515625 70.515625 
z
" id="DejaVuSans-83"/>
      <path d="M 45.40625 46.390625 
L 45.40625 75.984375 
L 54.390625 75.984375 
L 54.390625 0 
L 45.40625 0 
L 45.40625 8.203125 
Q 42.578125 3.328125 38.25 0.953125 
Q 33.9375 -1.421875 27.875 -1.421875 
Q 17.96875 -1.421875 11.734375 6.484375 
Q 5.515625 14.40625 5.515625 27.296875 
Q 5.515625 40.1875 11.734375 48.09375 
Q 17.96875 56 27.875 56 
Q 33.9375 56 38.25 53.625 
Q 42.578125 51.265625 45.40625 46.390625 
z
M 14.796875 27.296875 
Q 14.796875 17.390625 18.875 11.75 
Q 22.953125 6.109375 30.078125 6.109375 
Q 37.203125 6.109375 41.296875 11.75 
Q 45.40625 17.390625 45.40625 27.296875 
Q 45.40625 37.203125 41.296875 42.84375 
Q 37.203125 48.484375 30.078125 48.484375 
Q 22.953125 48.484375 18.875 42.84375 
Q 14.796875 37.203125 14.796875 27.296875 
z
" id="DejaVuSans-100"/>
      <path d="M 9.8125 72.90625 
L 19.671875 72.90625 
L 19.671875 8.296875 
L 55.171875 8.296875 
L 55.171875 0 
L 9.8125 0 
z
" id="DejaVuSans-76"/>
      <path d="M 9.8125 72.90625 
L 23.09375 72.90625 
L 55.421875 11.921875 
L 55.421875 72.90625 
L 64.984375 72.90625 
L 64.984375 0 
L 51.703125 0 
L 19.390625 60.984375 
L 19.390625 0 
L 9.8125 0 
z
" id="DejaVuSans-78"/>
     </defs>
     <use xlink:href="#DejaVuSans-84"/>
     <use x="44.083984" xlink:href="#DejaVuSans-111"/>
     <use x="105.265625" xlink:href="#DejaVuSans-116"/>
     <use x="144.474609" xlink:href="#DejaVuSans-97"/>
     <use x="205.753906" xlink:href="#DejaVuSans-108"/>
     <use x="233.537109" xlink:href="#DejaVuSans-32"/>
     <use x="265.324219" xlink:href="#DejaVuSans-115"/>
     <use x="317.423828" xlink:href="#DejaVuSans-97"/>
     <use x="378.703125" xlink:href="#DejaVuSans-108"/>
     <use x="406.486328" xlink:href="#DejaVuSans-101"/>
     <use x="468.009766" xlink:href="#DejaVuSans-115"/>
     <use x="520.109375" xlink:href="#DejaVuSans-32"/>
     <use x="551.896484" xlink:href="#DejaVuSans-105"/>
     <use x="579.679688" xlink:href="#DejaVuSans-110"/>
     <use x="643.058594" xlink:href="#DejaVuSans-32"/>
     <use x="674.845703" xlink:href="#DejaVuSans-85"/>
     <use x="748.039062" xlink:href="#DejaVuSans-83"/>
     <use x="811.515625" xlink:href="#DejaVuSans-68"/>
     <use x="888.517578" xlink:href="#DejaVuSans-32"/>
     <use x="920.304688" xlink:href="#DejaVuSans-97"/>
     <use x="981.583984" xlink:href="#DejaVuSans-110"/>
     <use x="1044.962891" xlink:href="#DejaVuSans-100"/>
     <use x="1108.439453" xlink:href="#DejaVuSans-32"/>
     <use x="1140.226562" xlink:href="#DejaVuSans-80"/>
     <use x="1200.529297" xlink:href="#DejaVuSans-76"/>
     <use x="1256.242188" xlink:href="#DejaVuSans-78"/>
    </g>
   </g>
   <g id="legend_1">
    <g id="patch_7">
     <path d="M 64.6 78.82825 
L 117.967187 78.82825 
Q 119.967187 78.82825 119.967187 76.82825 
L 119.967187 48.472 
Q 119.967187 46.472 117.967187 46.472 
L 64.6 46.472 
Q 62.6 46.472 62.6 48.472 
L 62.6 76.82825 
Q 62.6 78.82825 64.6 78.82825 
z
" style="fill:#ffffff;opacity:0.8;stroke:#cccccc;stroke-linejoin:miter;"/>
    </g>
    <g id="line2d_45">
     <path d="M 66.6 54.570437 
L 86.6 54.570437 
" style="fill:none;stroke:#1f77b4;stroke-linecap:square;stroke-width:1.5;"/>
    </g>
    <g id="line2d_46"/>
    <g id="text_26">
     <!-- USD -->
     <g transform="translate(94.6 58.070437)scale(0.1 -0.1)">
      <use xlink:href="#DejaVuSans-85"/>
      <use x="73.193359" xlink:href="#DejaVuSans-83"/>
      <use x="136.669922" xlink:href="#DejaVuSans-68"/>
     </g>
    </g>
    <g id="line2d_47">
     <path d="M 66.6 69.248562 
L 86.6 69.248562 
" style="fill:none;stroke:#ff7f0e;stroke-linecap:square;stroke-width:1.5;"/>
    </g>
    <g id="line2d_48"/>
    <g id="text_27">
     <!-- PLN -->
     <g transform="translate(94.6 72.748562)scale(0.1 -0.1)">
      <use xlink:href="#DejaVuSans-80"/>
      <use x="60.302734" xlink:href="#DejaVuSans-76"/>
      <use x="116.015625" xlink:href="#DejaVuSans-78"/>
     </g>
    </g>
   </g>
  </g>
 </g>
 <defs>
  <clipPath id="p3ae969ece1">
   <rect height="235.008" width="357.12" x="57.6" y="41.472"/>
  </clipPath>
 </defs>
</svg>
