<?xml version="1.0" encoding="utf-8" standalone="no"?>
<!DOCTYPE svg PUBLIC "-//W3C//DTD SVG 1.1//EN"
  "http://www.w3.org/Graphics/SVG/1.1/DTD/svg11.dtd">
<!-- Created with matplotlib (https://matplotlib.org/) -->
<svg height="288pt" version="1.1" viewBox="0 0 864 288" width="864pt" xmlns="http://www.w3.org/2000/svg" xmlns:xlink="http://www.w3.org/1999/xlink">
 <defs>
  <style type="text/css">
*{stroke-linecap:butt;stroke-linejoin:round;}
  </style>
 </defs>
 <g id="figure_1">
  <g id="patch_1">
   <path d="M 0 288 
L 864 288 
L 864 0 
L 0 0 
z
" style="fill:#ffffff;"/>
  </g>
  <g id="axes_1">
   <g id="patch_2">
    <path d="M 66.190717 218.320464 
L 853.2 218.320464 
L 853.2 25.44 
L 66.190717 25.44 
z
" style="fill:#ffffff;"/>
   </g>
   <g id="matplotlib.axis_1">
    <g id="xtick_1">
     <g id="line2d_1">
      <defs>
       <path d="M 0 0 
L 0 3.5 
" id="mc291f21d7f" style="stroke:#000000;stroke-width:0.8;"/>
      </defs>
      <g>
       <use style="stroke:#000000;stroke-width:0.8;" x="66.190717" xlink:href="#mc291f21d7f" y="218.320464"/>
      </g>
     </g>
     <g id="text_1">
      <!-- 2014-12-28 -->
      <defs>
       <path d="M 19.1875 8.296875 
L 53.609375 8.296875 
L 53.609375 0 
L 7.328125 0 
L 7.328125 8.296875 
Q 12.9375 14.109375 22.625 23.890625 
Q 32.328125 33.6875 34.8125 36.53125 
Q 39.546875 41.84375 41.421875 45.53125 
Q 43.3125 49.21875 43.3125 52.78125 
Q 43.3125 58.59375 39.234375 62.25 
Q 35.15625 65.921875 28.609375 65.921875 
Q 23.96875 65.921875 18.8125 64.3125 
Q 13.671875 62.703125 7.8125 59.421875 
L 7.8125 69.390625 
Q 13.765625 71.78125 18.9375 73 
Q 24.125 74.21875 28.421875 74.21875 
Q 39.75 74.21875 46.484375 68.546875 
Q 53.21875 62.890625 53.21875 53.421875 
Q 53.21875 48.921875 51.53125 44.890625 
Q 49.859375 40.875 45.40625 35.40625 
Q 44.1875 33.984375 37.640625 27.21875 
Q 31.109375 20.453125 19.1875 8.296875 
z
" id="DejaVuSans-50"/>
       <path d="M 31.78125 66.40625 
Q 24.171875 66.40625 20.328125 58.90625 
Q 16.5 51.421875 16.5 36.375 
Q 16.5 21.390625 20.328125 13.890625 
Q 24.171875 6.390625 31.78125 6.390625 
Q 39.453125 6.390625 43.28125 13.890625 
Q 47.125 21.390625 47.125 36.375 
Q 47.125 51.421875 43.28125 58.90625 
Q 39.453125 66.40625 31.78125 66.40625 
z
M 31.78125 74.21875 
Q 44.046875 74.21875 50.515625 64.515625 
Q 56.984375 54.828125 56.984375 36.375 
Q 56.984375 17.96875 50.515625 8.265625 
Q 44.046875 -1.421875 31.78125 -1.421875 
Q 19.53125 -1.421875 13.0625 8.265625 
Q 6.59375 17.96875 6.59375 36.375 
Q 6.59375 54.828125 13.0625 64.515625 
Q 19.53125 74.21875 31.78125 74.21875 
z
" id="DejaVuSans-48"/>
       <path d="M 12.40625 8.296875 
L 28.515625 8.296875 
L 28.515625 63.921875 
L 10.984375 60.40625 
L 10.984375 69.390625 
L 28.421875 72.90625 
L 38.28125 72.90625 
L 38.28125 8.296875 
L 54.390625 8.296875 
L 54.390625 0 
L 12.40625 0 
z
" id="DejaVuSans-49"/>
       <path d="M 37.796875 64.3125 
L 12.890625 25.390625 
L 37.796875 25.390625 
z
M 35.203125 72.90625 
L 47.609375 72.90625 
L 47.609375 25.390625 
L 58.015625 25.390625 
L 58.015625 17.1875 
L 47.609375 17.1875 
L 47.609375 0 
L 37.796875 0 
L 37.796875 17.1875 
L 4.890625 17.1875 
L 4.890625 26.703125 
z
" id="DejaVuSans-52"/>
       <path d="M 4.890625 31.390625 
L 31.203125 31.390625 
L 31.203125 23.390625 
L 4.890625 23.390625 
z
" id="DejaVuSans-45"/>
       <path d="M 31.78125 34.625 
Q 24.75 34.625 20.71875 30.859375 
Q 16.703125 27.09375 16.703125 20.515625 
Q 16.703125 13.921875 20.71875 10.15625 
Q 24.75 6.390625 31.78125 6.390625 
Q 38.8125 6.390625 42.859375 10.171875 
Q 46.921875 13.96875 46.921875 20.515625 
Q 46.921875 27.09375 42.890625 30.859375 
Q 38.875 34.625 31.78125 34.625 
z
M 21.921875 38.8125 
Q 15.578125 40.375 12.03125 44.71875 
Q 8.5 49.078125 8.5 55.328125 
Q 8.5 64.0625 14.71875 69.140625 
Q 20.953125 74.21875 31.78125 74.21875 
Q 42.671875 74.21875 48.875 69.140625 
Q 55.078125 64.0625 55.078125 55.328125 
Q 55.078125 49.078125 51.53125 44.71875 
Q 48 40.375 41.703125 38.8125 
Q 48.828125 37.15625 52.796875 32.3125 
Q 56.78125 27.484375 56.78125 20.515625 
Q 56.78125 9.90625 50.3125 4.234375 
Q 43.84375 -1.421875 31.78125 -1.421875 
Q 19.734375 -1.421875 13.25 4.234375 
Q 6.78125 9.90625 6.78125 20.515625 
Q 6.78125 27.484375 10.78125 32.3125 
Q 14.796875 37.15625 21.921875 38.8125 
z
M 18.3125 54.390625 
Q 18.3125 48.734375 21.84375 45.5625 
Q 25.390625 42.390625 31.78125 42.390625 
Q 38.140625 42.390625 41.71875 45.5625 
Q 45.3125 48.734375 45.3125 54.390625 
Q 45.3125 60.0625 41.71875 63.234375 
Q 38.140625 66.40625 31.78125 66.40625 
Q 25.390625 66.40625 21.84375 63.234375 
Q 18.3125 60.0625 18.3125 54.390625 
z
" id="DejaVuSans-56"/>
      </defs>
      <g transform="translate(14.821266 260.958716)rotate(-30)scale(0.1 -0.1)">
       <use xlink:href="#DejaVuSans-50"/>
       <use x="63.623047" xlink:href="#DejaVuSans-48"/>
       <use x="127.246094" xlink:href="#DejaVuSans-49"/>
       <use x="190.869141" xlink:href="#DejaVuSans-52"/>
       <use x="254.492188" xlink:href="#DejaVuSans-45"/>
       <use x="290.576172" xlink:href="#DejaVuSans-49"/>
       <use x="354.199219" xlink:href="#DejaVuSans-50"/>
       <use x="417.822266" xlink:href="#DejaVuSans-45"/>
       <use x="453.90625" xlink:href="#DejaVuSans-50"/>
       <use x="517.529297" xlink:href="#DejaVuSans-56"/>
      </g>
     </g>
    </g>
    <g id="xtick_2">
     <g id="line2d_2">
      <g>
       <use style="stroke:#000000;stroke-width:0.8;" x="101.801997" xlink:href="#mc291f21d7f" y="218.320464"/>
      </g>
     </g>
     <g id="text_2">
      <!-- 2015-05-24 -->
      <defs>
       <path d="M 10.796875 72.90625 
L 49.515625 72.90625 
L 49.515625 64.59375 
L 19.828125 64.59375 
L 19.828125 46.734375 
Q 21.96875 47.46875 24.109375 47.828125 
Q 26.265625 48.1875 28.421875 48.1875 
Q 40.625 48.1875 47.75 41.5 
Q 54.890625 34.8125 54.890625 23.390625 
Q 54.890625 11.625 47.5625 5.09375 
Q 40.234375 -1.421875 26.90625 -1.421875 
Q 22.3125 -1.421875 17.546875 -0.640625 
Q 12.796875 0.140625 7.71875 1.703125 
L 7.71875 11.625 
Q 12.109375 9.234375 16.796875 8.0625 
Q 21.484375 6.890625 26.703125 6.890625 
Q 35.15625 6.890625 40.078125 11.328125 
Q 45.015625 15.765625 45.015625 23.390625 
Q 45.015625 31 40.078125 35.4375 
Q 35.15625 39.890625 26.703125 39.890625 
Q 22.75 39.890625 18.8125 39.015625 
Q 14.890625 38.140625 10.796875 36.28125 
z
" id="DejaVuSans-53"/>
      </defs>
      <g transform="translate(50.432545 260.958716)rotate(-30)scale(0.1 -0.1)">
       <use xlink:href="#DejaVuSans-50"/>
       <use x="63.623047" xlink:href="#DejaVuSans-48"/>
       <use x="127.246094" xlink:href="#DejaVuSans-49"/>
       <use x="190.869141" xlink:href="#DejaVuSans-53"/>
       <use x="254.492188" xlink:href="#DejaVuSans-45"/>
       <use x="290.576172" xlink:href="#DejaVuSans-48"/>
       <use x="354.199219" xlink:href="#DejaVuSans-53"/>
       <use x="417.822266" xlink:href="#DejaVuSans-45"/>
       <use x="453.90625" xlink:href="#DejaVuSans-50"/>
       <use x="517.529297" xlink:href="#DejaVuSans-52"/>
      </g>
     </g>
    </g>
    <g id="xtick_3">
     <g id="line2d_3">
      <g>
       <use style="stroke:#000000;stroke-width:0.8;" x="137.413277" xlink:href="#mc291f21d7f" y="218.320464"/>
      </g>
     </g>
     <g id="text_3">
      <!-- 2015-07-20 -->
      <defs>
       <path d="M 8.203125 72.90625 
L 55.078125 72.90625 
L 55.078125 68.703125 
L 28.609375 0 
L 18.3125 0 
L 43.21875 64.59375 
L 8.203125 64.59375 
z
" id="DejaVuSans-55"/>
      </defs>
      <g transform="translate(86.043825 260.958716)rotate(-30)scale(0.1 -0.1)">
       <use xlink:href="#DejaVuSans-50"/>
       <use x="63.623047" xlink:href="#DejaVuSans-48"/>
       <use x="127.246094" xlink:href="#DejaVuSans-49"/>
       <use x="190.869141" xlink:href="#DejaVuSans-53"/>
       <use x="254.492188" xlink:href="#DejaVuSans-45"/>
       <use x="290.576172" xlink:href="#DejaVuSans-48"/>
       <use x="354.199219" xlink:href="#DejaVuSans-55"/>
       <use x="417.822266" xlink:href="#DejaVuSans-45"/>
       <use x="453.90625" xlink:href="#DejaVuSans-50"/>
       <use x="517.529297" xlink:href="#DejaVuSans-48"/>
      </g>
     </g>
    </g>
    <g id="xtick_4">
     <g id="line2d_4">
      <g>
       <use style="stroke:#000000;stroke-width:0.8;" x="173.024556" xlink:href="#mc291f21d7f" y="218.320464"/>
      </g>
     </g>
     <g id="text_4">
      <!-- 2015-08-10 -->
      <g transform="translate(121.655105 260.958716)rotate(-30)scale(0.1 -0.1)">
       <use xlink:href="#DejaVuSans-50"/>
       <use x="63.623047" xlink:href="#DejaVuSans-48"/>
       <use x="127.246094" xlink:href="#DejaVuSans-49"/>
       <use x="190.869141" xlink:href="#DejaVuSans-53"/>
       <use x="254.492188" xlink:href="#DejaVuSans-45"/>
       <use x="290.576172" xlink:href="#DejaVuSans-48"/>
       <use x="354.199219" xlink:href="#DejaVuSans-56"/>
       <use x="417.822266" xlink:href="#DejaVuSans-45"/>
       <use x="453.90625" xlink:href="#DejaVuSans-49"/>
       <use x="517.529297" xlink:href="#DejaVuSans-48"/>
      </g>
     </g>
    </g>
    <g id="xtick_5">
     <g id="line2d_5">
      <g>
       <use style="stroke:#000000;stroke-width:0.8;" x="208.635836" xlink:href="#mc291f21d7f" y="218.320464"/>
      </g>
     </g>
     <g id="text_5">
      <!-- 2015-08-30 -->
      <defs>
       <path d="M 40.578125 39.3125 
Q 47.65625 37.796875 51.625 33 
Q 55.609375 28.21875 55.609375 21.1875 
Q 55.609375 10.40625 48.1875 4.484375 
Q 40.765625 -1.421875 27.09375 -1.421875 
Q 22.515625 -1.421875 17.65625 -0.515625 
Q 12.796875 0.390625 7.625 2.203125 
L 7.625 11.71875 
Q 11.71875 9.328125 16.59375 8.109375 
Q 21.484375 6.890625 26.8125 6.890625 
Q 36.078125 6.890625 40.9375 10.546875 
Q 45.796875 14.203125 45.796875 21.1875 
Q 45.796875 27.640625 41.28125 31.265625 
Q 36.765625 34.90625 28.71875 34.90625 
L 20.21875 34.90625 
L 20.21875 43.015625 
L 29.109375 43.015625 
Q 36.375 43.015625 40.234375 45.921875 
Q 44.09375 48.828125 44.09375 54.296875 
Q 44.09375 59.90625 40.109375 62.90625 
Q 36.140625 65.921875 28.71875 65.921875 
Q 24.65625 65.921875 20.015625 65.03125 
Q 15.375 64.15625 9.8125 62.3125 
L 9.8125 71.09375 
Q 15.4375 72.65625 20.34375 73.4375 
Q 25.25 74.21875 29.59375 74.21875 
Q 40.828125 74.21875 47.359375 69.109375 
Q 53.90625 64.015625 53.90625 55.328125 
Q 53.90625 49.265625 50.4375 45.09375 
Q 46.96875 40.921875 40.578125 39.3125 
z
" id="DejaVuSans-51"/>
      </defs>
      <g transform="translate(157.266385 260.958716)rotate(-30)scale(0.1 -0.1)">
       <use xlink:href="#DejaVuSans-50"/>
       <use x="63.623047" xlink:href="#DejaVuSans-48"/>
       <use x="127.246094" xlink:href="#DejaVuSans-49"/>
       <use x="190.869141" xlink:href="#DejaVuSans-53"/>
       <use x="254.492188" xlink:href="#DejaVuSans-45"/>
       <use x="290.576172" xlink:href="#DejaVuSans-48"/>
       <use x="354.199219" xlink:href="#DejaVuSans-56"/>
       <use x="417.822266" xlink:href="#DejaVuSans-45"/>
       <use x="453.90625" xlink:href="#DejaVuSans-51"/>
       <use x="517.529297" xlink:href="#DejaVuSans-48"/>
      </g>
     </g>
    </g>
    <g id="xtick_6">
     <g id="line2d_6">
      <g>
       <use style="stroke:#000000;stroke-width:0.8;" x="244.247116" xlink:href="#mc291f21d7f" y="218.320464"/>
      </g>
     </g>
     <g id="text_6">
      <!-- 2015-09-19 -->
      <defs>
       <path d="M 10.984375 1.515625 
L 10.984375 10.5 
Q 14.703125 8.734375 18.5 7.8125 
Q 22.3125 6.890625 25.984375 6.890625 
Q 35.75 6.890625 40.890625 13.453125 
Q 46.046875 20.015625 46.78125 33.40625 
Q 43.953125 29.203125 39.59375 26.953125 
Q 35.25 24.703125 29.984375 24.703125 
Q 19.046875 24.703125 12.671875 31.3125 
Q 6.296875 37.9375 6.296875 49.421875 
Q 6.296875 60.640625 12.9375 67.421875 
Q 19.578125 74.21875 30.609375 74.21875 
Q 43.265625 74.21875 49.921875 64.515625 
Q 56.59375 54.828125 56.59375 36.375 
Q 56.59375 19.140625 48.40625 8.859375 
Q 40.234375 -1.421875 26.421875 -1.421875 
Q 22.703125 -1.421875 18.890625 -0.6875 
Q 15.09375 0.046875 10.984375 1.515625 
z
M 30.609375 32.421875 
Q 37.25 32.421875 41.125 36.953125 
Q 45.015625 41.5 45.015625 49.421875 
Q 45.015625 57.28125 41.125 61.84375 
Q 37.25 66.40625 30.609375 66.40625 
Q 23.96875 66.40625 20.09375 61.84375 
Q 16.21875 57.28125 16.21875 49.421875 
Q 16.21875 41.5 20.09375 36.953125 
Q 23.96875 32.421875 30.609375 32.421875 
z
" id="DejaVuSans-57"/>
      </defs>
      <g transform="translate(192.877664 260.958716)rotate(-30)scale(0.1 -0.1)">
       <use xlink:href="#DejaVuSans-50"/>
       <use x="63.623047" xlink:href="#DejaVuSans-48"/>
       <use x="127.246094" xlink:href="#DejaVuSans-49"/>
       <use x="190.869141" xlink:href="#DejaVuSans-53"/>
       <use x="254.492188" xlink:href="#DejaVuSans-45"/>
       <use x="290.576172" xlink:href="#DejaVuSans-48"/>
       <use x="354.199219" xlink:href="#DejaVuSans-57"/>
       <use x="417.822266" xlink:href="#DejaVuSans-45"/>
       <use x="453.90625" xlink:href="#DejaVuSans-49"/>
       <use x="517.529297" xlink:href="#DejaVuSans-57"/>
      </g>
     </g>
    </g>
    <g id="xtick_7">
     <g id="line2d_7">
      <g>
       <use style="stroke:#000000;stroke-width:0.8;" x="279.858396" xlink:href="#mc291f21d7f" y="218.320464"/>
      </g>
     </g>
     <g id="text_7">
      <!-- 2015-10-09 -->
      <g transform="translate(228.488944 260.958716)rotate(-30)scale(0.1 -0.1)">
       <use xlink:href="#DejaVuSans-50"/>
       <use x="63.623047" xlink:href="#DejaVuSans-48"/>
       <use x="127.246094" xlink:href="#DejaVuSans-49"/>
       <use x="190.869141" xlink:href="#DejaVuSans-53"/>
       <use x="254.492188" xlink:href="#DejaVuSans-45"/>
       <use x="290.576172" xlink:href="#DejaVuSans-49"/>
       <use x="354.199219" xlink:href="#DejaVuSans-48"/>
       <use x="417.822266" xlink:href="#DejaVuSans-45"/>
       <use x="453.90625" xlink:href="#DejaVuSans-48"/>
       <use x="517.529297" xlink:href="#DejaVuSans-57"/>
      </g>
     </g>
    </g>
    <g id="xtick_8">
     <g id="line2d_8">
      <g>
       <use style="stroke:#000000;stroke-width:0.8;" x="315.469675" xlink:href="#mc291f21d7f" y="218.320464"/>
      </g>
     </g>
     <g id="text_8">
      <!-- 2015-10-29 -->
      <g transform="translate(264.100224 260.958716)rotate(-30)scale(0.1 -0.1)">
       <use xlink:href="#DejaVuSans-50"/>
       <use x="63.623047" xlink:href="#DejaVuSans-48"/>
       <use x="127.246094" xlink:href="#DejaVuSans-49"/>
       <use x="190.869141" xlink:href="#DejaVuSans-53"/>
       <use x="254.492188" xlink:href="#DejaVuSans-45"/>
       <use x="290.576172" xlink:href="#DejaVuSans-49"/>
       <use x="354.199219" xlink:href="#DejaVuSans-48"/>
       <use x="417.822266" xlink:href="#DejaVuSans-45"/>
       <use x="453.90625" xlink:href="#DejaVuSans-50"/>
       <use x="517.529297" xlink:href="#DejaVuSans-57"/>
      </g>
     </g>
    </g>
    <g id="xtick_9">
     <g id="line2d_9">
      <g>
       <use style="stroke:#000000;stroke-width:0.8;" x="351.080955" xlink:href="#mc291f21d7f" y="218.320464"/>
      </g>
     </g>
     <g id="text_9">
      <!-- 2015-11-18 -->
      <g transform="translate(299.711504 260.958716)rotate(-30)scale(0.1 -0.1)">
       <use xlink:href="#DejaVuSans-50"/>
       <use x="63.623047" xlink:href="#DejaVuSans-48"/>
       <use x="127.246094" xlink:href="#DejaVuSans-49"/>
       <use x="190.869141" xlink:href="#DejaVuSans-53"/>
       <use x="254.492188" xlink:href="#DejaVuSans-45"/>
       <use x="290.576172" xlink:href="#DejaVuSans-49"/>
       <use x="354.199219" xlink:href="#DejaVuSans-49"/>
       <use x="417.822266" xlink:href="#DejaVuSans-45"/>
       <use x="453.90625" xlink:href="#DejaVuSans-49"/>
       <use x="517.529297" xlink:href="#DejaVuSans-56"/>
      </g>
     </g>
    </g>
    <g id="xtick_10">
     <g id="line2d_10">
      <g>
       <use style="stroke:#000000;stroke-width:0.8;" x="386.692235" xlink:href="#mc291f21d7f" y="218.320464"/>
      </g>
     </g>
     <g id="text_10">
      <!-- 2015-12-08 -->
      <g transform="translate(335.322784 260.958716)rotate(-30)scale(0.1 -0.1)">
       <use xlink:href="#DejaVuSans-50"/>
       <use x="63.623047" xlink:href="#DejaVuSans-48"/>
       <use x="127.246094" xlink:href="#DejaVuSans-49"/>
       <use x="190.869141" xlink:href="#DejaVuSans-53"/>
       <use x="254.492188" xlink:href="#DejaVuSans-45"/>
       <use x="290.576172" xlink:href="#DejaVuSans-49"/>
       <use x="354.199219" xlink:href="#DejaVuSans-50"/>
       <use x="417.822266" xlink:href="#DejaVuSans-45"/>
       <use x="453.90625" xlink:href="#DejaVuSans-48"/>
       <use x="517.529297" xlink:href="#DejaVuSans-56"/>
      </g>
     </g>
    </g>
    <g id="xtick_11">
     <g id="line2d_11">
      <g>
       <use style="stroke:#000000;stroke-width:0.8;" x="422.303515" xlink:href="#mc291f21d7f" y="218.320464"/>
      </g>
     </g>
     <g id="text_11">
      <!-- 2015-12-28 -->
      <g transform="translate(370.934063 260.958716)rotate(-30)scale(0.1 -0.1)">
       <use xlink:href="#DejaVuSans-50"/>
       <use x="63.623047" xlink:href="#DejaVuSans-48"/>
       <use x="127.246094" xlink:href="#DejaVuSans-49"/>
       <use x="190.869141" xlink:href="#DejaVuSans-53"/>
       <use x="254.492188" xlink:href="#DejaVuSans-45"/>
       <use x="290.576172" xlink:href="#DejaVuSans-49"/>
       <use x="354.199219" xlink:href="#DejaVuSans-50"/>
       <use x="417.822266" xlink:href="#DejaVuSans-45"/>
       <use x="453.90625" xlink:href="#DejaVuSans-50"/>
       <use x="517.529297" xlink:href="#DejaVuSans-56"/>
      </g>
     </g>
    </g>
    <g id="xtick_12">
     <g id="line2d_12">
      <g>
       <use style="stroke:#000000;stroke-width:0.8;" x="457.914794" xlink:href="#mc291f21d7f" y="218.320464"/>
      </g>
     </g>
     <g id="text_12">
      <!-- 2016-01-18 -->
      <defs>
       <path d="M 33.015625 40.375 
Q 26.375 40.375 22.484375 35.828125 
Q 18.609375 31.296875 18.609375 23.390625 
Q 18.609375 15.53125 22.484375 10.953125 
Q 26.375 6.390625 33.015625 6.390625 
Q 39.65625 6.390625 43.53125 10.953125 
Q 47.40625 15.53125 47.40625 23.390625 
Q 47.40625 31.296875 43.53125 35.828125 
Q 39.65625 40.375 33.015625 40.375 
z
M 52.59375 71.296875 
L 52.59375 62.3125 
Q 48.875 64.0625 45.09375 64.984375 
Q 41.3125 65.921875 37.59375 65.921875 
Q 27.828125 65.921875 22.671875 59.328125 
Q 17.53125 52.734375 16.796875 39.40625 
Q 19.671875 43.65625 24.015625 45.921875 
Q 28.375 48.1875 33.59375 48.1875 
Q 44.578125 48.1875 50.953125 41.515625 
Q 57.328125 34.859375 57.328125 23.390625 
Q 57.328125 12.15625 50.6875 5.359375 
Q 44.046875 -1.421875 33.015625 -1.421875 
Q 20.359375 -1.421875 13.671875 8.265625 
Q 6.984375 17.96875 6.984375 36.375 
Q 6.984375 53.65625 15.1875 63.9375 
Q 23.390625 74.21875 37.203125 74.21875 
Q 40.921875 74.21875 44.703125 73.484375 
Q 48.484375 72.75 52.59375 71.296875 
z
" id="DejaVuSans-54"/>
      </defs>
      <g transform="translate(406.545343 260.958716)rotate(-30)scale(0.1 -0.1)">
       <use xlink:href="#DejaVuSans-50"/>
       <use x="63.623047" xlink:href="#DejaVuSans-48"/>
       <use x="127.246094" xlink:href="#DejaVuSans-49"/>
       <use x="190.869141" xlink:href="#DejaVuSans-54"/>
       <use x="254.492188" xlink:href="#DejaVuSans-45"/>
       <use x="290.576172" xlink:href="#DejaVuSans-48"/>
       <use x="354.199219" xlink:href="#DejaVuSans-49"/>
       <use x="417.822266" xlink:href="#DejaVuSans-45"/>
       <use x="453.90625" xlink:href="#DejaVuSans-49"/>
       <use x="517.529297" xlink:href="#DejaVuSans-56"/>
      </g>
     </g>
    </g>
    <g id="xtick_13">
     <g id="line2d_13">
      <g>
       <use style="stroke:#000000;stroke-width:0.8;" x="493.526074" xlink:href="#mc291f21d7f" y="218.320464"/>
      </g>
     </g>
     <g id="text_13">
      <!-- 2016-02-07 -->
      <g transform="translate(442.156623 260.958716)rotate(-30)scale(0.1 -0.1)">
       <use xlink:href="#DejaVuSans-50"/>
       <use x="63.623047" xlink:href="#DejaVuSans-48"/>
       <use x="127.246094" xlink:href="#DejaVuSans-49"/>
       <use x="190.869141" xlink:href="#DejaVuSans-54"/>
       <use x="254.492188" xlink:href="#DejaVuSans-45"/>
       <use x="290.576172" xlink:href="#DejaVuSans-48"/>
       <use x="354.199219" xlink:href="#DejaVuSans-50"/>
       <use x="417.822266" xlink:href="#DejaVuSans-45"/>
       <use x="453.90625" xlink:href="#DejaVuSans-48"/>
       <use x="517.529297" xlink:href="#DejaVuSans-55"/>
      </g>
     </g>
    </g>
    <g id="xtick_14">
     <g id="line2d_14">
      <g>
       <use style="stroke:#000000;stroke-width:0.8;" x="529.137354" xlink:href="#mc291f21d7f" y="218.320464"/>
      </g>
     </g>
     <g id="text_14">
      <!-- 2016-02-28 -->
      <g transform="translate(477.767903 260.958716)rotate(-30)scale(0.1 -0.1)">
       <use xlink:href="#DejaVuSans-50"/>
       <use x="63.623047" xlink:href="#DejaVuSans-48"/>
       <use x="127.246094" xlink:href="#DejaVuSans-49"/>
       <use x="190.869141" xlink:href="#DejaVuSans-54"/>
       <use x="254.492188" xlink:href="#DejaVuSans-45"/>
       <use x="290.576172" xlink:href="#DejaVuSans-48"/>
       <use x="354.199219" xlink:href="#DejaVuSans-50"/>
       <use x="417.822266" xlink:href="#DejaVuSans-45"/>
       <use x="453.90625" xlink:href="#DejaVuSans-50"/>
       <use x="517.529297" xlink:href="#DejaVuSans-56"/>
      </g>
     </g>
    </g>
    <g id="xtick_15">
     <g id="line2d_15">
      <g>
       <use style="stroke:#000000;stroke-width:0.8;" x="564.748634" xlink:href="#mc291f21d7f" y="218.320464"/>
      </g>
     </g>
     <g id="text_15">
      <!-- 2016-07-17 -->
      <g transform="translate(513.379182 260.958716)rotate(-30)scale(0.1 -0.1)">
       <use xlink:href="#DejaVuSans-50"/>
       <use x="63.623047" xlink:href="#DejaVuSans-48"/>
       <use x="127.246094" xlink:href="#DejaVuSans-49"/>
       <use x="190.869141" xlink:href="#DejaVuSans-54"/>
       <use x="254.492188" xlink:href="#DejaVuSans-45"/>
       <use x="290.576172" xlink:href="#DejaVuSans-48"/>
       <use x="354.199219" xlink:href="#DejaVuSans-55"/>
       <use x="417.822266" xlink:href="#DejaVuSans-45"/>
       <use x="453.90625" xlink:href="#DejaVuSans-49"/>
       <use x="517.529297" xlink:href="#DejaVuSans-55"/>
      </g>
     </g>
    </g>
    <g id="xtick_16">
     <g id="line2d_16">
      <g>
       <use style="stroke:#000000;stroke-width:0.8;" x="600.359914" xlink:href="#mc291f21d7f" y="218.320464"/>
      </g>
     </g>
     <g id="text_16">
      <!-- 2016-08-06 -->
      <g transform="translate(548.990462 260.958716)rotate(-30)scale(0.1 -0.1)">
       <use xlink:href="#DejaVuSans-50"/>
       <use x="63.623047" xlink:href="#DejaVuSans-48"/>
       <use x="127.246094" xlink:href="#DejaVuSans-49"/>
       <use x="190.869141" xlink:href="#DejaVuSans-54"/>
       <use x="254.492188" xlink:href="#DejaVuSans-45"/>
       <use x="290.576172" xlink:href="#DejaVuSans-48"/>
       <use x="354.199219" xlink:href="#DejaVuSans-56"/>
       <use x="417.822266" xlink:href="#DejaVuSans-45"/>
       <use x="453.90625" xlink:href="#DejaVuSans-48"/>
       <use x="517.529297" xlink:href="#DejaVuSans-54"/>
      </g>
     </g>
    </g>
    <g id="xtick_17">
     <g id="line2d_17">
      <g>
       <use style="stroke:#000000;stroke-width:0.8;" x="635.971193" xlink:href="#mc291f21d7f" y="218.320464"/>
      </g>
     </g>
     <g id="text_17">
      <!-- 2016-08-26 -->
      <g transform="translate(584.601742 260.958716)rotate(-30)scale(0.1 -0.1)">
       <use xlink:href="#DejaVuSans-50"/>
       <use x="63.623047" xlink:href="#DejaVuSans-48"/>
       <use x="127.246094" xlink:href="#DejaVuSans-49"/>
       <use x="190.869141" xlink:href="#DejaVuSans-54"/>
       <use x="254.492188" xlink:href="#DejaVuSans-45"/>
       <use x="290.576172" xlink:href="#DejaVuSans-48"/>
       <use x="354.199219" xlink:href="#DejaVuSans-56"/>
       <use x="417.822266" xlink:href="#DejaVuSans-45"/>
       <use x="453.90625" xlink:href="#DejaVuSans-50"/>
       <use x="517.529297" xlink:href="#DejaVuSans-54"/>
      </g>
     </g>
    </g>
    <g id="xtick_18">
     <g id="line2d_18">
      <g>
       <use style="stroke:#000000;stroke-width:0.8;" x="671.582473" xlink:href="#mc291f21d7f" y="218.320464"/>
      </g>
     </g>
     <g id="text_18">
      <!-- 2016-09-15 -->
      <g transform="translate(620.213022 260.958716)rotate(-30)scale(0.1 -0.1)">
       <use xlink:href="#DejaVuSans-50"/>
       <use x="63.623047" xlink:href="#DejaVuSans-48"/>
       <use x="127.246094" xlink:href="#DejaVuSans-49"/>
       <use x="190.869141" xlink:href="#DejaVuSans-54"/>
       <use x="254.492188" xlink:href="#DejaVuSans-45"/>
       <use x="290.576172" xlink:href="#DejaVuSans-48"/>
       <use x="354.199219" xlink:href="#DejaVuSans-57"/>
       <use x="417.822266" xlink:href="#DejaVuSans-45"/>
       <use x="453.90625" xlink:href="#DejaVuSans-49"/>
       <use x="517.529297" xlink:href="#DejaVuSans-53"/>
      </g>
     </g>
    </g>
    <g id="xtick_19">
     <g id="line2d_19">
      <g>
       <use style="stroke:#000000;stroke-width:0.8;" x="707.193753" xlink:href="#mc291f21d7f" y="218.320464"/>
      </g>
     </g>
     <g id="text_19">
      <!-- 2016-10-05 -->
      <g transform="translate(655.824302 260.958716)rotate(-30)scale(0.1 -0.1)">
       <use xlink:href="#DejaVuSans-50"/>
       <use x="63.623047" xlink:href="#DejaVuSans-48"/>
       <use x="127.246094" xlink:href="#DejaVuSans-49"/>
       <use x="190.869141" xlink:href="#DejaVuSans-54"/>
       <use x="254.492188" xlink:href="#DejaVuSans-45"/>
       <use x="290.576172" xlink:href="#DejaVuSans-49"/>
       <use x="354.199219" xlink:href="#DejaVuSans-48"/>
       <use x="417.822266" xlink:href="#DejaVuSans-45"/>
       <use x="453.90625" xlink:href="#DejaVuSans-48"/>
       <use x="517.529297" xlink:href="#DejaVuSans-53"/>
      </g>
     </g>
    </g>
    <g id="xtick_20">
     <g id="line2d_20">
      <g>
       <use style="stroke:#000000;stroke-width:0.8;" x="742.805033" xlink:href="#mc291f21d7f" y="218.320464"/>
      </g>
     </g>
     <g id="text_20">
      <!-- 2016-10-25 -->
      <g transform="translate(691.435581 260.958716)rotate(-30)scale(0.1 -0.1)">
       <use xlink:href="#DejaVuSans-50"/>
       <use x="63.623047" xlink:href="#DejaVuSans-48"/>
       <use x="127.246094" xlink:href="#DejaVuSans-49"/>
       <use x="190.869141" xlink:href="#DejaVuSans-54"/>
       <use x="254.492188" xlink:href="#DejaVuSans-45"/>
       <use x="290.576172" xlink:href="#DejaVuSans-49"/>
       <use x="354.199219" xlink:href="#DejaVuSans-48"/>
       <use x="417.822266" xlink:href="#DejaVuSans-45"/>
       <use x="453.90625" xlink:href="#DejaVuSans-50"/>
       <use x="517.529297" xlink:href="#DejaVuSans-53"/>
      </g>
     </g>
    </g>
    <g id="xtick_21">
     <g id="line2d_21">
      <g>
       <use style="stroke:#000000;stroke-width:0.8;" x="778.416312" xlink:href="#mc291f21d7f" y="218.320464"/>
      </g>
     </g>
     <g id="text_21">
      <!-- 2016-11-14 -->
      <g transform="translate(727.046861 260.958716)rotate(-30)scale(0.1 -0.1)">
       <use xlink:href="#DejaVuSans-50"/>
       <use x="63.623047" xlink:href="#DejaVuSans-48"/>
       <use x="127.246094" xlink:href="#DejaVuSans-49"/>
       <use x="190.869141" xlink:href="#DejaVuSans-54"/>
       <use x="254.492188" xlink:href="#DejaVuSans-45"/>
       <use x="290.576172" xlink:href="#DejaVuSans-49"/>
       <use x="354.199219" xlink:href="#DejaVuSans-49"/>
       <use x="417.822266" xlink:href="#DejaVuSans-45"/>
       <use x="453.90625" xlink:href="#DejaVuSans-49"/>
       <use x="517.529297" xlink:href="#DejaVuSans-52"/>
      </g>
     </g>
    </g>
    <g id="xtick_22">
     <g id="line2d_22">
      <g>
       <use style="stroke:#000000;stroke-width:0.8;" x="814.027592" xlink:href="#mc291f21d7f" y="218.320464"/>
      </g>
     </g>
     <g id="text_22">
      <!-- 2016-12-04 -->
      <g transform="translate(762.658141 260.958716)rotate(-30)scale(0.1 -0.1)">
       <use xlink:href="#DejaVuSans-50"/>
       <use x="63.623047" xlink:href="#DejaVuSans-48"/>
       <use x="127.246094" xlink:href="#DejaVuSans-49"/>
       <use x="190.869141" xlink:href="#DejaVuSans-54"/>
       <use x="254.492188" xlink:href="#DejaVuSans-45"/>
       <use x="290.576172" xlink:href="#DejaVuSans-49"/>
       <use x="354.199219" xlink:href="#DejaVuSans-50"/>
       <use x="417.822266" xlink:href="#DejaVuSans-45"/>
       <use x="453.90625" xlink:href="#DejaVuSans-48"/>
       <use x="517.529297" xlink:href="#DejaVuSans-52"/>
      </g>
     </g>
    </g>
    <g id="xtick_23">
     <g id="line2d_23">
      <g>
       <use style="stroke:#000000;stroke-width:0.8;" x="849.638872" xlink:href="#mc291f21d7f" y="218.320464"/>
      </g>
     </g>
     <g id="text_23">
      <!-- 2016-12-26 -->
      <g transform="translate(798.269421 260.958716)rotate(-30)scale(0.1 -0.1)">
       <use xlink:href="#DejaVuSans-50"/>
       <use x="63.623047" xlink:href="#DejaVuSans-48"/>
       <use x="127.246094" xlink:href="#DejaVuSans-49"/>
       <use x="190.869141" xlink:href="#DejaVuSans-54"/>
       <use x="254.492188" xlink:href="#DejaVuSans-45"/>
       <use x="290.576172" xlink:href="#DejaVuSans-49"/>
       <use x="354.199219" xlink:href="#DejaVuSans-50"/>
       <use x="417.822266" xlink:href="#DejaVuSans-45"/>
       <use x="453.90625" xlink:href="#DejaVuSans-50"/>
       <use x="517.529297" xlink:href="#DejaVuSans-54"/>
      </g>
     </g>
    </g>
    <g id="text_24">
     <!-- Date -->
     <defs>
      <path d="M 19.671875 64.796875 
L 19.671875 8.109375 
L 31.59375 8.109375 
Q 46.6875 8.109375 53.6875 14.9375 
Q 60.6875 21.78125 60.6875 36.53125 
Q 60.6875 51.171875 53.6875 57.984375 
Q 46.6875 64.796875 31.59375 64.796875 
z
M 9.8125 72.90625 
L 30.078125 72.90625 
Q 51.265625 72.90625 61.171875 64.09375 
Q 71.09375 55.28125 71.09375 36.53125 
Q 71.09375 17.671875 61.125 8.828125 
Q 51.171875 0 30.078125 0 
L 9.8125 0 
z
" id="DejaVuSans-68"/>
      <path d="M 34.28125 27.484375 
Q 23.390625 27.484375 19.1875 25 
Q 14.984375 22.515625 14.984375 16.5 
Q 14.984375 11.71875 18.140625 8.90625 
Q 21.296875 6.109375 26.703125 6.109375 
Q 34.1875 6.109375 38.703125 11.40625 
Q 43.21875 16.703125 43.21875 25.484375 
L 43.21875 27.484375 
z
M 52.203125 31.203125 
L 52.203125 0 
L 43.21875 0 
L 43.21875 8.296875 
Q 40.140625 3.328125 35.546875 0.953125 
Q 30.953125 -1.421875 24.3125 -1.421875 
Q 15.921875 -1.421875 10.953125 3.296875 
Q 6 8.015625 6 15.921875 
Q 6 25.140625 12.171875 29.828125 
Q 18.359375 34.515625 30.609375 34.515625 
L 43.21875 34.515625 
L 43.21875 35.40625 
Q 43.21875 41.609375 39.140625 45 
Q 35.0625 48.390625 27.6875 48.390625 
Q 23 48.390625 18.546875 47.265625 
Q 14.109375 46.140625 10.015625 43.890625 
L 10.015625 52.203125 
Q 14.9375 54.109375 19.578125 55.046875 
Q 24.21875 56 28.609375 56 
Q 40.484375 56 46.34375 49.84375 
Q 52.203125 43.703125 52.203125 31.203125 
z
" id="DejaVuSans-97"/>
      <path d="M 18.3125 70.21875 
L 18.3125 54.6875 
L 36.8125 54.6875 
L 36.8125 47.703125 
L 18.3125 47.703125 
L 18.3125 18.015625 
Q 18.3125 11.328125 20.140625 9.421875 
Q 21.96875 7.515625 27.59375 7.515625 
L 36.8125 7.515625 
L 36.8125 0 
L 27.59375 0 
Q 17.1875 0 13.234375 3.875 
Q 9.28125 7.765625 9.28125 18.015625 
L 9.28125 47.703125 
L 2.6875 47.703125 
L 2.6875 54.6875 
L 9.28125 54.6875 
L 9.28125 70.21875 
z
" id="DejaVuSans-116"/>
      <path d="M 56.203125 29.59375 
L 56.203125 25.203125 
L 14.890625 25.203125 
Q 15.484375 15.921875 20.484375 11.0625 
Q 25.484375 6.203125 34.421875 6.203125 
Q 39.59375 6.203125 44.453125 7.46875 
Q 49.3125 8.734375 54.109375 11.28125 
L 54.109375 2.78125 
Q 49.265625 0.734375 44.1875 -0.34375 
Q 39.109375 -1.421875 33.890625 -1.421875 
Q 20.796875 -1.421875 13.15625 6.1875 
Q 5.515625 13.8125 5.515625 26.8125 
Q 5.515625 40.234375 12.765625 48.109375 
Q 20.015625 56 32.328125 56 
Q 43.359375 56 49.78125 48.890625 
Q 56.203125 41.796875 56.203125 29.59375 
z
M 47.21875 32.234375 
Q 47.125 39.59375 43.09375 43.984375 
Q 39.0625 48.390625 32.421875 48.390625 
Q 24.90625 48.390625 20.390625 44.140625 
Q 15.875 39.890625 15.1875 32.171875 
z
" id="DejaVuSans-101"/>
     </defs>
     <g transform="translate(447.744577 274.358216)scale(0.1 -0.1)">
      <use xlink:href="#DejaVuSans-68"/>
      <use x="77.001953" xlink:href="#DejaVuSans-97"/>
      <use x="138.28125" xlink:href="#DejaVuSans-116"/>
      <use x="177.490234" xlink:href="#DejaVuSans-101"/>
     </g>
    </g>
   </g>
   <g id="matplotlib.axis_2">
    <g id="ytick_1">
     <g id="line2d_24">
      <defs>
       <path d="M 0 0 
L -3.5 0 
" id="m0029d4482c" style="stroke:#000000;stroke-width:0.8;"/>
      </defs>
      <g>
       <use style="stroke:#000000;stroke-width:0.8;" x="66.190717" xlink:href="#m0029d4482c" y="209.614987"/>
      </g>
     </g>
     <g id="text_25">
      <!-- 0 -->
      <g transform="translate(52.828217 213.414206)scale(0.1 -0.1)">
       <use xlink:href="#DejaVuSans-48"/>
      </g>
     </g>
    </g>
    <g id="ytick_2">
     <g id="line2d_25">
      <g>
       <use style="stroke:#000000;stroke-width:0.8;" x="66.190717" xlink:href="#m0029d4482c" y="178.706318"/>
      </g>
     </g>
     <g id="text_26">
      <!-- 500 -->
      <g transform="translate(40.103217 182.505537)scale(0.1 -0.1)">
       <use xlink:href="#DejaVuSans-53"/>
       <use x="63.623047" xlink:href="#DejaVuSans-48"/>
       <use x="127.246094" xlink:href="#DejaVuSans-48"/>
      </g>
     </g>
    </g>
    <g id="ytick_3">
     <g id="line2d_26">
      <g>
       <use style="stroke:#000000;stroke-width:0.8;" x="66.190717" xlink:href="#m0029d4482c" y="147.797649"/>
      </g>
     </g>
     <g id="text_27">
      <!-- 1000 -->
      <g transform="translate(33.740717 151.596868)scale(0.1 -0.1)">
       <use xlink:href="#DejaVuSans-49"/>
       <use x="63.623047" xlink:href="#DejaVuSans-48"/>
       <use x="127.246094" xlink:href="#DejaVuSans-48"/>
       <use x="190.869141" xlink:href="#DejaVuSans-48"/>
      </g>
     </g>
    </g>
    <g id="ytick_4">
     <g id="line2d_27">
      <g>
       <use style="stroke:#000000;stroke-width:0.8;" x="66.190717" xlink:href="#m0029d4482c" y="116.888979"/>
      </g>
     </g>
     <g id="text_28">
      <!-- 1500 -->
      <g transform="translate(33.740717 120.688198)scale(0.1 -0.1)">
       <use xlink:href="#DejaVuSans-49"/>
       <use x="63.623047" xlink:href="#DejaVuSans-53"/>
       <use x="127.246094" xlink:href="#DejaVuSans-48"/>
       <use x="190.869141" xlink:href="#DejaVuSans-48"/>
      </g>
     </g>
    </g>
    <g id="ytick_5">
     <g id="line2d_28">
      <g>
       <use style="stroke:#000000;stroke-width:0.8;" x="66.190717" xlink:href="#m0029d4482c" y="85.98031"/>
      </g>
     </g>
     <g id="text_29">
      <!-- 2000 -->
      <g transform="translate(33.740717 89.779529)scale(0.1 -0.1)">
       <use xlink:href="#DejaVuSans-50"/>
       <use x="63.623047" xlink:href="#DejaVuSans-48"/>
       <use x="127.246094" xlink:href="#DejaVuSans-48"/>
       <use x="190.869141" xlink:href="#DejaVuSans-48"/>
      </g>
     </g>
    </g>
    <g id="ytick_6">
     <g id="line2d_29">
      <g>
       <use style="stroke:#000000;stroke-width:0.8;" x="66.190717" xlink:href="#m0029d4482c" y="55.071641"/>
      </g>
     </g>
     <g id="text_30">
      <!-- 2500 -->
      <g transform="translate(33.740717 58.87086)scale(0.1 -0.1)">
       <use xlink:href="#DejaVuSans-50"/>
       <use x="63.623047" xlink:href="#DejaVuSans-53"/>
       <use x="127.246094" xlink:href="#DejaVuSans-48"/>
       <use x="190.869141" xlink:href="#DejaVuSans-48"/>
      </g>
     </g>
    </g>
    <g id="text_31">
     <!-- Sales (in terms to PLN) -->
     <defs>
      <path d="M 53.515625 70.515625 
L 53.515625 60.890625 
Q 47.90625 63.578125 42.921875 64.890625 
Q 37.9375 66.21875 33.296875 66.21875 
Q 25.25 66.21875 20.875 63.09375 
Q 16.5 59.96875 16.5 54.203125 
Q 16.5 49.359375 19.40625 46.890625 
Q 22.3125 44.4375 30.421875 42.921875 
L 36.375 41.703125 
Q 47.40625 39.59375 52.65625 34.296875 
Q 57.90625 29 57.90625 20.125 
Q 57.90625 9.515625 50.796875 4.046875 
Q 43.703125 -1.421875 29.984375 -1.421875 
Q 24.8125 -1.421875 18.96875 -0.25 
Q 13.140625 0.921875 6.890625 3.21875 
L 6.890625 13.375 
Q 12.890625 10.015625 18.65625 8.296875 
Q 24.421875 6.59375 29.984375 6.59375 
Q 38.421875 6.59375 43.015625 9.90625 
Q 47.609375 13.234375 47.609375 19.390625 
Q 47.609375 24.75 44.3125 27.78125 
Q 41.015625 30.8125 33.5 32.328125 
L 27.484375 33.5 
Q 16.453125 35.6875 11.515625 40.375 
Q 6.59375 45.0625 6.59375 53.421875 
Q 6.59375 63.09375 13.40625 68.65625 
Q 20.21875 74.21875 32.171875 74.21875 
Q 37.3125 74.21875 42.625 73.28125 
Q 47.953125 72.359375 53.515625 70.515625 
z
" id="DejaVuSans-83"/>
      <path d="M 9.421875 75.984375 
L 18.40625 75.984375 
L 18.40625 0 
L 9.421875 0 
z
" id="DejaVuSans-108"/>
      <path d="M 44.28125 53.078125 
L 44.28125 44.578125 
Q 40.484375 46.53125 36.375 47.5 
Q 32.28125 48.484375 27.875 48.484375 
Q 21.1875 48.484375 17.84375 46.4375 
Q 14.5 44.390625 14.5 40.28125 
Q 14.5 37.15625 16.890625 35.375 
Q 19.28125 33.59375 26.515625 31.984375 
L 29.59375 31.296875 
Q 39.15625 29.25 43.1875 25.515625 
Q 47.21875 21.78125 47.21875 15.09375 
Q 47.21875 7.46875 41.1875 3.015625 
Q 35.15625 -1.421875 24.609375 -1.421875 
Q 20.21875 -1.421875 15.453125 -0.5625 
Q 10.6875 0.296875 5.421875 2 
L 5.421875 11.28125 
Q 10.40625 8.6875 15.234375 7.390625 
Q 20.0625 6.109375 24.8125 6.109375 
Q 31.15625 6.109375 34.5625 8.28125 
Q 37.984375 10.453125 37.984375 14.40625 
Q 37.984375 18.0625 35.515625 20.015625 
Q 33.0625 21.96875 24.703125 23.78125 
L 21.578125 24.515625 
Q 13.234375 26.265625 9.515625 29.90625 
Q 5.8125 33.546875 5.8125 39.890625 
Q 5.8125 47.609375 11.28125 51.796875 
Q 16.75 56 26.8125 56 
Q 31.78125 56 36.171875 55.265625 
Q 40.578125 54.546875 44.28125 53.078125 
z
" id="DejaVuSans-115"/>
      <path id="DejaVuSans-32"/>
      <path d="M 31 75.875 
Q 24.46875 64.65625 21.28125 53.65625 
Q 18.109375 42.671875 18.109375 31.390625 
Q 18.109375 20.125 21.3125 9.0625 
Q 24.515625 -2 31 -13.1875 
L 23.1875 -13.1875 
Q 15.875 -1.703125 12.234375 9.375 
Q 8.59375 20.453125 8.59375 31.390625 
Q 8.59375 42.28125 12.203125 53.3125 
Q 15.828125 64.359375 23.1875 75.875 
z
" id="DejaVuSans-40"/>
      <path d="M 9.421875 54.6875 
L 18.40625 54.6875 
L 18.40625 0 
L 9.421875 0 
z
M 9.421875 75.984375 
L 18.40625 75.984375 
L 18.40625 64.59375 
L 9.421875 64.59375 
z
" id="DejaVuSans-105"/>
      <path d="M 54.890625 33.015625 
L 54.890625 0 
L 45.90625 0 
L 45.90625 32.71875 
Q 45.90625 40.484375 42.875 44.328125 
Q 39.84375 48.1875 33.796875 48.1875 
Q 26.515625 48.1875 22.3125 43.546875 
Q 18.109375 38.921875 18.109375 30.90625 
L 18.109375 0 
L 9.078125 0 
L 9.078125 54.6875 
L 18.109375 54.6875 
L 18.109375 46.1875 
Q 21.34375 51.125 25.703125 53.5625 
Q 30.078125 56 35.796875 56 
Q 45.21875 56 50.046875 50.171875 
Q 54.890625 44.34375 54.890625 33.015625 
z
" id="DejaVuSans-110"/>
      <path d="M 41.109375 46.296875 
Q 39.59375 47.171875 37.8125 47.578125 
Q 36.03125 48 33.890625 48 
Q 26.265625 48 22.1875 43.046875 
Q 18.109375 38.09375 18.109375 28.8125 
L 18.109375 0 
L 9.078125 0 
L 9.078125 54.6875 
L 18.109375 54.6875 
L 18.109375 46.1875 
Q 20.953125 51.171875 25.484375 53.578125 
Q 30.03125 56 36.53125 56 
Q 37.453125 56 38.578125 55.875 
Q 39.703125 55.765625 41.0625 55.515625 
z
" id="DejaVuSans-114"/>
      <path d="M 52 44.1875 
Q 55.375 50.25 60.0625 53.125 
Q 64.75 56 71.09375 56 
Q 79.640625 56 84.28125 50.015625 
Q 88.921875 44.046875 88.921875 33.015625 
L 88.921875 0 
L 79.890625 0 
L 79.890625 32.71875 
Q 79.890625 40.578125 77.09375 44.375 
Q 74.3125 48.1875 68.609375 48.1875 
Q 61.625 48.1875 57.5625 43.546875 
Q 53.515625 38.921875 53.515625 30.90625 
L 53.515625 0 
L 44.484375 0 
L 44.484375 32.71875 
Q 44.484375 40.625 41.703125 44.40625 
Q 38.921875 48.1875 33.109375 48.1875 
Q 26.21875 48.1875 22.15625 43.53125 
Q 18.109375 38.875 18.109375 30.90625 
L 18.109375 0 
L 9.078125 0 
L 9.078125 54.6875 
L 18.109375 54.6875 
L 18.109375 46.1875 
Q 21.1875 51.21875 25.484375 53.609375 
Q 29.78125 56 35.6875 56 
Q 41.65625 56 45.828125 52.96875 
Q 50 49.953125 52 44.1875 
z
" id="DejaVuSans-109"/>
      <path d="M 30.609375 48.390625 
Q 23.390625 48.390625 19.1875 42.75 
Q 14.984375 37.109375 14.984375 27.296875 
Q 14.984375 17.484375 19.15625 11.84375 
Q 23.34375 6.203125 30.609375 6.203125 
Q 37.796875 6.203125 41.984375 11.859375 
Q 46.1875 17.53125 46.1875 27.296875 
Q 46.1875 37.015625 41.984375 42.703125 
Q 37.796875 48.390625 30.609375 48.390625 
z
M 30.609375 56 
Q 42.328125 56 49.015625 48.375 
Q 55.71875 40.765625 55.71875 27.296875 
Q 55.71875 13.875 49.015625 6.21875 
Q 42.328125 -1.421875 30.609375 -1.421875 
Q 18.84375 -1.421875 12.171875 6.21875 
Q 5.515625 13.875 5.515625 27.296875 
Q 5.515625 40.765625 12.171875 48.375 
Q 18.84375 56 30.609375 56 
z
" id="DejaVuSans-111"/>
      <path d="M 19.671875 64.796875 
L 19.671875 37.40625 
L 32.078125 37.40625 
Q 38.96875 37.40625 42.71875 40.96875 
Q 46.484375 44.53125 46.484375 51.125 
Q 46.484375 57.671875 42.71875 61.234375 
Q 38.96875 64.796875 32.078125 64.796875 
z
M 9.8125 72.90625 
L 32.078125 72.90625 
Q 44.34375 72.90625 50.609375 67.359375 
Q 56.890625 61.8125 56.890625 51.125 
Q 56.890625 40.328125 50.609375 34.8125 
Q 44.34375 29.296875 32.078125 29.296875 
L 19.671875 29.296875 
L 19.671875 0 
L 9.8125 0 
z
" id="DejaVuSans-80"/>
      <path d="M 9.8125 72.90625 
L 19.671875 72.90625 
L 19.671875 8.296875 
L 55.171875 8.296875 
L 55.171875 0 
L 9.8125 0 
z
" id="DejaVuSans-76"/>
      <path d="M 9.8125 72.90625 
L 23.09375 72.90625 
L 55.421875 11.921875 
L 55.421875 72.90625 
L 64.984375 72.90625 
L 64.984375 0 
L 51.703125 0 
L 19.390625 60.984375 
L 19.390625 0 
L 9.8125 0 
z
" id="DejaVuSans-78"/>
      <path d="M 8.015625 75.875 
L 15.828125 75.875 
Q 23.140625 64.359375 26.78125 53.3125 
Q 30.421875 42.28125 30.421875 31.390625 
Q 30.421875 20.453125 26.78125 9.375 
Q 23.140625 -1.703125 15.828125 -13.1875 
L 8.015625 -13.1875 
Q 14.5 -2 17.703125 9.0625 
Q 20.90625 20.125 20.90625 31.390625 
Q 20.90625 42.671875 17.703125 53.65625 
Q 14.5 64.65625 8.015625 75.875 
z
" id="DejaVuSans-41"/>
     </defs>
     <g transform="translate(27.661029 179.045076)rotate(-90)scale(0.1 -0.1)">
      <use xlink:href="#DejaVuSans-83"/>
      <use x="63.476562" xlink:href="#DejaVuSans-97"/>
      <use x="124.755859" xlink:href="#DejaVuSans-108"/>
      <use x="152.539062" xlink:href="#DejaVuSans-101"/>
      <use x="214.0625" xlink:href="#DejaVuSans-115"/>
      <use x="266.162109" xlink:href="#DejaVuSans-32"/>
      <use x="297.949219" xlink:href="#DejaVuSans-40"/>
      <use x="336.962891" xlink:href="#DejaVuSans-105"/>
      <use x="364.746094" xlink:href="#DejaVuSans-110"/>
      <use x="428.125" xlink:href="#DejaVuSans-32"/>
      <use x="459.912109" xlink:href="#DejaVuSans-116"/>
      <use x="499.121094" xlink:href="#DejaVuSans-101"/>
      <use x="560.644531" xlink:href="#DejaVuSans-114"/>
      <use x="600.007812" xlink:href="#DejaVuSans-109"/>
      <use x="697.419922" xlink:href="#DejaVuSans-115"/>
      <use x="749.519531" xlink:href="#DejaVuSans-32"/>
      <use x="781.306641" xlink:href="#DejaVuSans-116"/>
      <use x="820.515625" xlink:href="#DejaVuSans-111"/>
      <use x="881.697266" xlink:href="#DejaVuSans-32"/>
      <use x="913.484375" xlink:href="#DejaVuSans-80"/>
      <use x="973.787109" xlink:href="#DejaVuSans-76"/>
      <use x="1029.5" xlink:href="#DejaVuSans-78"/>
      <use x="1104.304688" xlink:href="#DejaVuSans-41"/>
     </g>
    </g>
   </g>
   <g id="line2d_30">
    <path clip-path="url(#p41751e1103)" d="M 66.190717 206.091399 
L 67.971281 207.327746 
L 69.751845 207.760467 
L 71.532409 194.346105 
L 73.312973 200.342387 
L 75.093537 209.305901 
L 76.874101 209.058631 
L 78.654665 208.502275 
L 80.435229 209.305901 
L 82.215793 208.378641 
L 85.776921 208.378641 
L 87.557485 209.367718 
L 89.338049 209.491353 
L 91.118613 209.491353 
L 94.679741 209.120449 
L 96.460305 209.491353 
L 98.240869 208.934997 
L 100.021433 209.55317 
L 101.801997 208.378641 
L 103.582561 190.637064 
L 105.363125 202.753263 
L 107.143689 205.102322 
L 108.924253 208.007737 
L 110.704817 209.491353 
L 112.485381 192.36795 
L 114.265945 181.859002 
L 116.046509 206.895025 
L 117.827073 199.229675 
L 119.607637 197.127885 
L 121.388201 207.760467 
L 123.168765 207.018659 
L 124.949329 194.902461 
L 126.729893 199.847848 
L 128.510457 198.982405 
L 130.291021 201.022377 
L 132.071585 191.935229 
L 133.852149 206.77139 
L 135.632713 205.473226 
L 137.413277 198.549684 
L 139.193841 179.571761 
L 140.974405 192.36795 
L 142.754968 194.037018 
L 144.535532 203.74234 
L 146.316096 207.945919 
L 148.09666 190.142526 
L 149.877224 199.909665 
L 151.657788 191.873411 
L 153.438352 203.495071 
L 155.218916 201.949637 
L 156.99948 209.182266 
L 158.780044 201.88782 
L 160.560608 180.931742 
L 162.341172 204.422331 
L 164.121736 197.066068 
L 165.9023 191.626142 
L 167.682864 198.858771 
L 169.463428 206.833207 
L 171.243992 203.371436 
L 173.024556 190.946151 
L 174.80512 191.007969 
L 176.585684 202.691446 
L 178.366248 195.087913 
L 180.146812 198.858771 
L 183.70794 207.575015 
L 185.488504 197.622424 
L 187.269068 197.684241 
L 189.049632 194.902461 
L 190.830196 197.93151 
L 192.61076 205.102322 
L 194.391324 199.847848 
L 196.171888 207.451381 
L 197.952452 200.527839 
L 199.733016 205.473226 
L 201.51358 203.556888 
L 203.294144 198.549684 
L 205.074708 195.953356 
L 206.855272 208.62591 
L 208.635836 204.298696 
L 210.4164 209.491353 
L 212.196964 203.000532 
L 213.977528 194.964278 
L 215.758092 201.578733 
L 217.538656 195.767904 
L 219.31922 208.62591 
L 221.099784 209.244083 
L 222.880348 196.633346 
L 224.660912 198.487866 
L 226.441476 200.156935 
L 228.22204 197.498789 
L 230.002604 197.746058 
L 231.783168 208.564093 
L 233.563732 208.749545 
L 235.344296 182.044454 
L 237.12486 174.688191 
L 238.905424 191.811594 
L 240.685988 190.946151 
L 242.466552 188.967996 
L 244.247116 207.69865 
L 246.02768 206.833207 
L 247.808244 197.869693 
L 249.588808 192.986123 
L 251.369372 199.291492 
L 253.149936 187.608015 
L 254.9305 198.240597 
L 256.711064 207.389563 
L 258.491628 209.305901 
L 262.052756 183.218984 
L 263.83332 197.498789 
L 265.613884 200.466021 
L 267.394448 201.331464 
L 269.175012 203.371436 
L 270.955576 204.91687 
L 274.516704 188.597092 
L 276.297268 195.397 
L 278.077832 198.17878 
L 279.858396 201.269647 
L 281.63896 208.131371 
L 283.419524 206.956842 
L 285.200088 191.317055 
L 286.980652 190.698882 
L 288.761216 190.760699 
L 290.54178 199.476944 
L 292.322344 197.313337 
L 294.102908 206.029582 
L 295.883472 206.338669 
L 297.664036 197.807876 
L 299.4446 195.829721 
L 301.225163 198.858771 
L 303.005727 198.982405 
L 304.786291 199.724213 
L 306.566855 207.575015 
L 308.347419 208.193189 
L 310.127983 200.156935 
L 311.908547 196.07699 
L 313.689111 201.146012 
L 315.469675 196.695164 
L 317.250239 196.633346 
L 319.030803 202.011455 
L 320.811367 208.811362 
L 322.591931 189.833439 
L 324.372495 198.673319 
L 326.153059 197.00425 
L 327.933623 192.986123 
L 329.714187 191.255238 
L 331.494751 207.018659 
L 333.275315 201.207829 
L 335.055879 197.93151 
L 336.836443 185.506225 
L 338.617007 202.505994 
L 340.397571 192.058863 
L 342.178135 195.026096 
L 343.958699 205.720495 
L 345.739263 200.156935 
L 347.519827 200.342387 
L 351.080955 187.113476 
L 352.861519 203.433254 
L 354.642083 199.044223 
L 356.422647 204.91687 
L 358.203211 203.309619 
L 359.983775 199.662396 
L 361.764339 193.975201 
L 363.544903 197.746058 
L 365.325467 206.895025 
L 367.106031 193.851566 
L 368.886595 201.084195 
L 370.667159 202.938715 
L 372.447723 196.756981 
L 374.228287 199.10604 
L 376.008851 195.829721 
L 377.789415 194.037018 
L 379.569979 199.291492 
L 381.350543 203.618706 
L 383.131107 208.687727 
L 384.911671 185.382591 
L 386.692235 184.084427 
L 388.472799 194.346105 
L 390.253363 199.724213 
L 392.033927 198.17878 
L 393.814491 207.142294 
L 395.595055 207.945919 
L 397.375619 190.637064 
L 399.156183 205.782312 
L 400.936747 191.007969 
L 402.717311 197.622424 
L 404.497875 198.796953 
L 406.278439 206.338669 
L 408.059003 209.305901 
L 409.839567 192.120681 
L 411.620131 198.920588 
L 413.400695 209.244083 
L 415.181259 201.640551 
L 416.961823 202.011455 
L 418.742387 207.636833 
L 420.522951 204.978687 
L 422.303515 203.185984 
L 424.084079 194.655192 
L 425.864643 188.164371 
L 427.645207 205.225956 
L 429.425771 183.404436 
L 431.206335 206.215034 
L 432.986899 206.091399 
L 434.767463 181.67355 
L 436.548027 193.480662 
L 438.328591 190.575247 
L 440.109155 188.844362 
L 441.889719 185.197139 
L 443.670283 202.876898 
L 445.450847 209.55317 
L 447.231411 178.953587 
L 449.011975 180.684473 
L 450.792539 196.015173 
L 452.573103 189.709804 
L 454.353667 195.458817 
L 456.134231 203.247802 
L 457.914794 191.873411 
L 459.695358 188.782544 
L 461.475922 176.975433 
L 463.256486 167.146476 
L 465.03705 194.469739 
L 466.817614 198.487866 
L 468.598178 209.058631 
L 470.378742 185.258956 
L 472.159306 179.81903 
L 473.93987 190.080708 
L 475.720434 184.146244 
L 477.500998 198.116962 
L 479.281562 204.113244 
L 481.062126 199.662396 
L 482.84269 186.371668 
L 484.623254 168.815544 
L 486.403818 177.408154 
L 488.184382 182.168089 
L 489.964946 186.248033 
L 491.74551 201.516916 
L 493.526074 206.895025 
L 495.306638 180.560838 
L 497.087202 165.539225 
L 498.867766 189.277083 
L 500.64833 193.542479 
L 502.428894 192.986123 
L 504.209458 192.615219 
L 505.990022 208.131371 
L 507.770586 186.55712 
L 509.55115 190.884334 
L 511.331714 174.440922 
L 513.112278 188.473458 
L 514.892842 182.662628 
L 516.673406 200.651473 
L 518.45397 205.535043 
L 520.234534 176.480894 
L 522.015098 186.804389 
L 523.795662 197.93151 
L 525.576226 195.706086 
L 527.35679 196.509712 
L 529.137354 202.505994 
L 530.917918 198.982405 
L 532.698482 203.247802 
L 534.479046 209.429535 
L 536.25961 205.782312 
L 538.040174 208.934997 
L 539.820738 209.182266 
L 541.601302 205.59686 
L 543.381866 195.767904 
L 546.942994 208.749545 
L 548.723558 207.080477 
L 550.504122 206.77139 
L 552.284686 206.338669 
L 554.06525 202.258724 
L 555.845814 206.709573 
L 557.626378 204.855052 
L 559.406942 208.749545 
L 561.187506 207.327746 
L 562.96807 208.440458 
L 564.748634 209.305901 
L 566.529198 200.095117 
L 568.309762 202.567811 
L 570.090326 197.127885 
L 571.87089 194.840644 
L 573.651454 203.000532 
L 577.212582 208.316823 
L 578.993146 203.680523 
L 580.77371 205.535043 
L 582.554274 205.473226 
L 584.334838 204.298696 
L 586.115402 208.069554 
L 587.895966 208.934997 
L 589.67653 207.451381 
L 591.457094 199.167857 
L 593.237658 198.735136 
L 595.018222 205.967764 
L 596.798786 203.371436 
L 598.57935 203.865975 
L 600.359914 208.378641 
L 602.140478 208.934997 
L 603.921042 202.691446 
L 605.701606 207.451381 
L 607.48217 206.77139 
L 609.262734 198.240597 
L 611.043298 205.040504 
L 612.823862 206.833207 
L 614.604426 209.120449 
L 616.384989 204.051427 
L 618.165553 206.215034 
L 619.946117 204.236879 
L 621.726681 190.018891 
L 623.507245 206.833207 
L 625.287809 208.687727 
L 627.068373 209.55317 
L 628.848937 203.74234 
L 630.629501 208.131371 
L 632.410065 203.495071 
L 634.190629 206.462303 
L 635.971193 206.276851 
L 637.751757 208.687727 
L 639.532321 208.255006 
L 641.312885 207.142294 
L 643.093449 203.680523 
L 644.874013 206.276851 
L 646.654577 206.153216 
L 648.435141 206.833207 
L 650.215705 208.934997 
L 651.996269 209.058631 
L 653.776833 203.618706 
L 655.557397 208.378641 
L 657.337961 204.236879 
L 659.118525 206.400486 
L 660.899089 206.709573 
L 662.679653 208.378641 
L 664.460217 209.182266 
L 666.240781 201.022377 
L 668.021345 198.858771 
L 669.801909 191.069786 
L 671.582473 197.189702 
L 673.363037 204.298696 
L 675.143601 206.956842 
L 676.924165 207.760467 
L 678.704729 201.640551 
L 680.485293 201.146012 
L 682.265857 201.516916 
L 684.046421 205.473226 
L 685.826985 206.585938 
L 687.607549 208.502275 
L 689.388113 207.636833 
L 691.168677 207.204111 
L 692.949241 198.549684 
L 694.729805 204.113244 
L 696.510369 193.542479 
L 698.290933 203.865975 
L 700.071497 203.247802 
L 701.852061 209.244083 
L 703.632625 206.029582 
L 705.413189 197.807876 
L 707.193753 201.516916 
L 708.974317 204.731418 
L 710.754881 207.513198 
L 712.535445 208.069554 
L 714.316009 205.782312 
L 716.096573 194.778826 
L 717.877137 194.346105 
L 719.657701 203.371436 
L 721.438265 198.858771 
L 723.218829 197.93151 
L 724.999393 205.102322 
L 726.779957 202.81508 
L 728.560521 196.509712 
L 730.341085 183.713523 
L 732.121649 203.185984 
L 733.902213 206.524121 
L 735.682777 196.942433 
L 737.463341 206.215034 
L 739.243905 209.244083 
L 741.024469 202.073272 
L 742.805033 201.702368 
L 744.585597 199.10604 
L 746.366161 200.96056 
L 748.146725 204.175062 
L 749.927289 208.069554 
L 751.707853 208.502275 
L 753.488417 198.116962 
L 755.268981 207.451381 
L 757.049545 197.498789 
L 758.830109 201.640551 
L 760.610673 203.06235 
L 762.391237 208.934997 
L 764.171801 209.429535 
L 765.952365 195.458817 
L 767.732929 207.080477 
L 769.513493 207.945919 
L 771.294057 206.524121 
L 773.074621 203.927792 
L 774.855184 209.491353 
L 776.635748 205.287774 
L 778.416312 207.265929 
L 780.196876 203.804158 
L 781.97744 202.876898 
L 783.758004 190.018891 
L 785.538568 208.934997 
L 787.319132 209.244083 
L 789.099696 209.058631 
L 790.88026 206.895025 
L 792.660824 206.215034 
L 794.441388 205.967764 
L 796.221952 207.575015 
L 798.002516 198.796953 
L 799.78308 208.131371 
L 801.563644 209.491353 
L 803.344208 195.706086 
L 805.124772 198.302414 
L 806.905336 204.607783 
L 808.6859 194.098835 
L 810.466464 205.411408 
L 812.247028 205.720495 
L 814.027592 209.120449 
L 815.808156 194.037018 
L 817.58872 197.869693 
L 819.369284 202.382359 
L 821.149848 203.185984 
L 822.930412 201.516916 
L 824.710976 209.55317 
L 826.49154 197.560606 
L 828.272104 200.404204 
L 830.052668 205.967764 
L 831.833232 203.06235 
L 833.613796 197.869693 
L 835.39436 206.276851 
L 837.174924 209.182266 
L 838.955488 207.327746 
L 840.736052 206.091399 
L 842.516616 205.535043 
L 844.29718 198.302414 
L 846.077744 207.018659 
L 847.858308 205.164139 
L 849.638872 205.225956 
L 851.419436 203.371436 
L 853.2 206.77139 
L 853.2 206.77139 
" style="fill:none;stroke:#0000ff;stroke-linecap:square;stroke-width:1.5;"/>
   </g>
   <g id="line2d_31">
    <path clip-path="url(#p41751e1103)" d="M 66.190717 197.187292 
L 67.971281 201.547887 
L 69.751845 203.03923 
L 71.532409 156.063962 
L 73.312973 177.094122 
L 75.093537 208.510775 
L 76.874101 207.585289 
L 78.654665 205.478592 
L 80.435229 208.477518 
L 82.215793 205.054599 
L 85.776921 205.042977 
L 87.557485 208.648387 
L 89.338049 209.129598 
L 91.118613 209.137807 
L 94.679741 207.731388 
L 96.460305 209.158837 
L 98.240869 207.136625 
L 100.021433 209.392933 
L 101.801997 205.078831 
L 103.582561 138.210552 
L 105.363125 183.637184 
L 107.143689 192.590505 
L 108.924253 203.551473 
L 110.704817 209.148563 
L 112.485381 144.145233 
L 114.265945 103.273482 
L 116.046509 199.217929 
L 117.827073 169.849624 
L 119.607637 162.527373 
L 121.388201 202.621777 
L 123.168765 199.824493 
L 124.949329 154.379749 
L 126.729893 172.846591 
L 128.510457 169.774702 
L 130.291021 177.226003 
L 132.071585 143.004728 
L 133.852149 198.901449 
L 135.632713 194.010486 
L 137.413277 167.712896 
L 139.193841 95.826267 
L 140.974405 144.71611 
L 142.754968 151.105692 
L 144.535532 187.502122 
L 146.316096 203.330278 
L 148.09666 136.680882 
L 149.877224 173.411224 
L 151.657788 143.135527 
L 153.438352 186.509855 
L 155.218916 180.541081 
L 156.99948 207.973719 
L 158.780044 180.306614 
L 160.560608 101.464812 
L 162.341172 189.9909 
L 164.121736 161.478586 
L 165.9023 140.564804 
L 167.682864 168.39071 
L 169.463428 198.953537 
L 171.243992 185.685953 
L 173.024556 138.214156 
L 174.80512 138.746434 
L 176.585684 183.440537 
L 178.366248 154.956869 
L 180.146812 169.217864 
L 183.70794 201.953464 
L 185.488504 164.507358 
L 187.269068 164.781629 
L 189.049632 154.12228 
L 190.830196 165.616181 
L 192.61076 192.779134 
L 194.391324 173.175743 
L 196.171888 201.543003 
L 197.952452 176.01889 
L 199.733016 194.450755 
L 201.51358 187.238186 
L 203.294144 168.175425 
L 205.074708 158.393431 
L 206.855272 205.906639 
L 208.635836 189.682617 
L 210.4164 209.147896 
L 212.196964 184.808796 
L 213.977528 154.490229 
L 215.758092 179.362509 
L 217.538656 157.062535 
L 219.31922 205.861241 
L 221.099784 208.207332 
L 222.880348 160.378219 
L 224.660912 167.467679 
L 226.441476 174.020552 
L 228.22204 163.999924 
L 230.002604 165.38661 
L 231.783168 205.698933 
L 233.563732 206.390002 
L 235.344296 107.262141 
L 237.12486 79.554583 
L 238.905424 143.181625 
L 240.685988 140.299465 
L 242.466552 133.762072 
L 244.247116 202.574747 
L 246.02768 199.395283 
L 247.808244 166.063436 
L 249.588808 147.359846 
L 251.369372 170.591142 
L 253.149936 126.67731 
L 254.9305 166.599318 
L 256.711064 201.198878 
L 258.491628 208.446083 
L 262.052756 109.840733 
L 263.83332 163.871492 
L 265.613884 174.844342 
L 267.394448 178.114405 
L 269.175012 185.872011 
L 270.955576 191.748985 
L 272.73614 162.034676 
L 274.516704 129.978183 
L 276.297268 156.149666 
L 278.077832 166.680033 
L 279.858396 178.53527 
L 281.63896 204.089704 
L 283.419524 199.715522 
L 285.200088 141.641829 
L 286.980652 139.248966 
L 288.761216 139.6109 
L 290.54178 172.156944 
L 292.322344 163.799951 
L 294.102908 196.261861 
L 295.883472 197.412993 
L 297.664036 165.615786 
L 299.4446 158.078769 
L 301.225163 169.14257 
L 303.005727 169.417447 
L 304.786291 171.83223 
L 306.566855 201.822294 
L 308.347419 204.183716 
L 310.127983 173.064342 
L 311.908547 157.264906 
L 313.689111 176.733344 
L 315.469675 159.261266 
L 317.250239 159.313724 
L 319.030803 180.152819 
L 320.811367 206.5011 
L 322.591931 133.277992 
L 324.372495 167.2948 
L 326.153059 160.589486 
L 327.933623 144.887134 
L 329.714187 137.874266 
L 331.494751 199.469835 
L 333.275315 176.764017 
L 335.055879 163.342577 
L 336.836443 114.216616 
L 338.617007 181.484698 
L 340.397571 140.384167 
L 342.178135 152.15226 
L 343.958699 194.275361 
L 345.739263 172.361609 
L 347.519827 172.913106 
L 351.080955 120.054472 
L 352.861519 185.040123 
L 354.642083 167.642708 
L 356.422647 190.960641 
L 358.203211 184.578891 
L 359.983775 169.924052 
L 361.764339 147.022997 
L 363.544903 161.884089 
L 365.325467 198.654081 
L 367.106031 146.03638 
L 368.886595 175.207741 
L 370.667159 182.687577 
L 372.447723 157.792078 
L 374.228287 167.318575 
L 376.008851 154.053471 
L 377.789415 146.679991 
L 379.569979 168.726719 
L 381.350543 185.865514 
L 383.131107 205.942388 
L 384.911671 113.041617 
L 386.692235 107.80677 
L 388.472799 148.989889 
L 390.253363 170.446533 
L 392.033927 164.192658 
L 393.814491 199.793943 
L 395.595055 202.985783 
L 397.375619 134.282122 
L 399.156183 194.467106 
L 400.936747 135.849322 
L 402.717311 162.069269 
L 404.497875 166.821008 
L 406.278439 196.654525 
L 408.059003 208.392302 
L 409.839567 141.037305 
L 411.620131 168.13462 
L 413.400695 208.173209 
L 415.181259 178.757905 
L 416.961823 180.193118 
L 418.742387 201.960517 
L 420.522951 191.674823 
L 422.303515 184.758532 
L 424.084079 151.781912 
L 425.864643 126.38445 
L 427.645207 192.492938 
L 429.425771 107.365005 
L 431.206335 196.351428 
L 432.986899 195.869117 
L 434.767463 99.858229 
L 436.548027 144.959905 
L 438.328591 133.317036 
L 440.109155 126.355934 
L 441.889719 112.033938 
L 443.670283 182.687559 
L 445.450847 209.367947 
L 447.231411 86.708766 
L 449.011975 93.401111 
L 450.792539 155.123251 
L 452.573103 130.01416 
L 454.353667 152.408487 
L 456.134231 183.884553 
L 457.914794 136.638562 
L 459.695358 124.37488 
L 461.475922 76.194279 
L 463.256486 34.207294 
L 465.03705 147.472521 
L 466.817614 163.959297 
L 468.598178 207.332203 
L 470.378742 108.91254 
L 472.159306 86.036255 
L 473.93987 129.24315 
L 475.720434 105.519139 
L 477.500998 162.79158 
L 479.281562 187.210239 
L 481.062126 169.085049 
L 482.84269 115.158786 
L 484.623254 45.058592 
L 486.403818 79.740932 
L 488.184382 101.221696 
L 489.964946 117.502455 
L 491.74551 177.69239 
L 493.526074 198.892894 
L 495.306638 94.778463 
L 497.087202 34.321273 
L 498.867766 129.518219 
L 500.64833 146.580218 
L 502.428894 144.639364 
L 504.209458 143.190093 
L 505.990022 203.817906 
L 507.770586 119.182032 
L 509.55115 135.80872 
L 511.331714 70.920129 
L 513.112278 126.283534 
L 514.892842 103.069615 
L 516.673406 174.18132 
L 518.45397 193.486559 
L 520.234534 79.09648 
L 522.015098 119.123064 
L 523.795662 163.111244 
L 525.576226 154.389695 
L 527.35679 157.790174 
L 529.137354 181.502471 
L 530.917918 167.15377 
L 532.698482 184.206732 
L 534.479046 208.876833 
L 536.25961 194.457524 
L 538.040174 206.92576 
L 539.820738 207.903661 
L 541.601302 193.588286 
L 543.381866 154.277886 
L 546.942994 206.150101 
L 548.723558 199.47669 
L 550.504122 198.240313 
L 552.284686 196.509384 
L 554.06525 180.145797 
L 555.845814 198.049402 
L 557.626378 190.666162 
L 559.406942 206.180824 
L 561.187506 200.557968 
L 562.96807 204.964086 
L 564.748634 208.391066 
L 566.529198 171.675449 
L 568.309762 181.720853 
L 570.090326 159.928807 
L 571.87089 150.983004 
L 573.651454 183.485243 
L 577.212582 204.48672 
L 578.993146 186.056944 
L 580.77371 193.424952 
L 582.554274 193.156041 
L 584.334838 188.674648 
L 586.115402 203.531543 
L 587.895966 206.938272 
L 589.67653 201.098165 
L 591.457094 168.829391 
L 593.237658 167.379404 
L 595.018222 195.567343 
L 596.798786 185.522372 
L 598.57935 187.457144 
L 600.359914 204.84986 
L 602.140478 206.994167 
L 603.921042 182.816726 
L 605.701606 201.288996 
L 607.48217 198.738227 
L 609.262734 166.054485 
L 611.043298 192.131771 
L 612.823862 198.983302 
L 614.604426 207.72491 
L 616.384989 188.351616 
L 618.165553 196.719303 
L 619.946117 189.137839 
L 621.726681 135.490793 
L 623.507245 199.070649 
L 625.287809 206.100208 
L 627.068373 209.380669 
L 628.848937 187.246074 
L 630.629501 203.968196 
L 632.410065 186.252818 
L 634.190629 197.574886 
L 635.971193 196.820579 
L 637.751757 206.060985 
L 639.532321 204.402451 
L 641.312885 200.023656 
L 643.093449 186.554845 
L 644.874013 196.568883 
L 646.654577 196.073924 
L 648.435141 198.720423 
L 650.215705 206.951872 
L 651.996269 207.436075 
L 653.776833 186.267265 
L 655.557397 204.809431 
L 657.337961 188.901203 
L 659.118525 197.317912 
L 660.899089 198.462552 
L 662.679653 204.86927 
L 664.460217 207.953986 
L 666.240781 176.389083 
L 668.021345 167.951857 
L 669.801909 137.815385 
L 671.582473 161.66954 
L 673.363037 189.148862 
L 675.143601 199.381924 
L 676.924165 202.475641 
L 678.704729 178.844826 
L 680.485293 177.06194 
L 682.265857 178.355622 
L 684.046421 193.823278 
L 685.826985 198.005246 
L 687.607549 205.350185 
L 689.388113 202.033116 
L 691.168677 200.375545 
L 692.949241 167.315651 
L 694.729805 188.563118 
L 696.510369 147.97049 
L 698.290933 187.447945 
L 700.071497 185.064392 
L 701.852061 208.184856 
L 703.632625 195.900094 
L 705.413189 164.190667 
L 707.193753 178.593705 
L 708.974317 190.859638 
L 710.754881 201.522047 
L 712.535445 203.664296 
L 714.316009 194.857272 
L 716.096573 152.782104 
L 717.877137 150.849639 
L 719.657701 185.358167 
L 721.438265 167.489339 
L 723.218829 164.090319 
L 724.999393 192.031385 
L 726.779957 183.119149 
L 728.560521 158.157122 
L 730.341085 108.215933 
L 732.121649 184.358648 
L 733.902213 197.449644 
L 735.682777 159.178221 
L 737.463341 196.083172 
L 739.243905 208.138789 
L 741.024469 179.681919 
L 742.805033 178.326117 
L 744.585597 168.086779 
L 746.366161 175.204984 
L 748.146725 188.020658 
L 749.927289 203.480235 
L 751.707853 205.197966 
L 753.488417 164.211586 
L 755.268981 201.071337 
L 757.049545 162.417548 
L 758.830109 178.542595 
L 760.610673 184.150126 
L 762.391237 206.972407 
L 764.171801 208.894284 
L 765.952365 154.219061 
L 767.732929 199.687562 
L 769.513493 203.054715 
L 771.294057 197.296028 
L 773.074621 186.948102 
L 774.855184 209.122229 
L 776.635748 192.368445 
L 778.416312 200.029653 
L 780.196876 185.885302 
L 781.97744 181.732771 
L 783.758004 128.536139 
L 785.538568 206.761202 
L 787.319132 208.058377 
L 789.099696 207.280072 
L 790.88026 198.259686 
L 792.660824 195.5028 
L 794.441388 194.446917 
L 796.221952 201.071584 
L 798.002516 164.581674 
L 799.78308 203.43899 
L 801.563644 209.100321 
L 803.344208 151.863839 
L 805.124772 162.297888 
L 806.905336 188.72443 
L 808.6859 144.46732 
L 810.466464 191.896902 
L 812.247028 193.199702 
L 814.027592 207.530507 
L 815.808156 143.855705 
L 817.58872 160.490294 
L 819.369284 179.767376 
L 821.149848 183.187284 
L 822.930412 175.787724 
L 824.710976 209.356764 
L 826.49154 158.878098 
L 828.272104 171.017199 
L 830.052668 194.381267 
L 831.833232 181.878327 
L 833.613796 159.937091 
L 835.39436 195.496006 
L 837.174924 207.784749 
L 838.955488 199.950248 
L 840.736052 194.642204 
L 842.516616 192.281752 
L 844.29718 161.851042 
L 846.077744 198.658742 
L 847.858308 190.832852 
L 849.638872 191.093715 
L 851.419436 183.31715 
L 853.2 197.597944 
L 853.2 197.597944 
" style="fill:none;stroke:#008000;stroke-linecap:square;stroke-width:1.5;"/>
   </g>
   <g id="patch_3">
    <path d="M 66.190717 218.320464 
L 66.190717 25.44 
" style="fill:none;stroke:#000000;stroke-linecap:square;stroke-linejoin:miter;stroke-width:0.8;"/>
   </g>
   <g id="patch_4">
    <path d="M 853.2 218.320464 
L 853.2 25.44 
" style="fill:none;stroke:#000000;stroke-linecap:square;stroke-linejoin:miter;stroke-width:0.8;"/>
   </g>
   <g id="patch_5">
    <path d="M 66.190717 218.320464 
L 853.2 218.320464 
" style="fill:none;stroke:#000000;stroke-linecap:square;stroke-linejoin:miter;stroke-width:0.8;"/>
   </g>
   <g id="patch_6">
    <path d="M 66.190717 25.44 
L 853.2 25.44 
" style="fill:none;stroke:#000000;stroke-linecap:square;stroke-linejoin:miter;stroke-width:0.8;"/>
   </g>
   <g id="text_32">
    <!-- Sales in period: 2014-12-28 - 2016-12-28 -->
    <defs>
     <path d="M 18.109375 8.203125 
L 18.109375 -20.796875 
L 9.078125 -20.796875 
L 9.078125 54.6875 
L 18.109375 54.6875 
L 18.109375 46.390625 
Q 20.953125 51.265625 25.265625 53.625 
Q 29.59375 56 35.59375 56 
Q 45.5625 56 51.78125 48.09375 
Q 58.015625 40.1875 58.015625 27.296875 
Q 58.015625 14.40625 51.78125 6.484375 
Q 45.5625 -1.421875 35.59375 -1.421875 
Q 29.59375 -1.421875 25.265625 0.953125 
Q 20.953125 3.328125 18.109375 8.203125 
z
M 48.6875 27.296875 
Q 48.6875 37.203125 44.609375 42.84375 
Q 40.53125 48.484375 33.40625 48.484375 
Q 26.265625 48.484375 22.1875 42.84375 
Q 18.109375 37.203125 18.109375 27.296875 
Q 18.109375 17.390625 22.1875 11.75 
Q 26.265625 6.109375 33.40625 6.109375 
Q 40.53125 6.109375 44.609375 11.75 
Q 48.6875 17.390625 48.6875 27.296875 
z
" id="DejaVuSans-112"/>
     <path d="M 45.40625 46.390625 
L 45.40625 75.984375 
L 54.390625 75.984375 
L 54.390625 0 
L 45.40625 0 
L 45.40625 8.203125 
Q 42.578125 3.328125 38.25 0.953125 
Q 33.9375 -1.421875 27.875 -1.421875 
Q 17.96875 -1.421875 11.734375 6.484375 
Q 5.515625 14.40625 5.515625 27.296875 
Q 5.515625 40.1875 11.734375 48.09375 
Q 17.96875 56 27.875 56 
Q 33.9375 56 38.25 53.625 
Q 42.578125 51.265625 45.40625 46.390625 
z
M 14.796875 27.296875 
Q 14.796875 17.390625 18.875 11.75 
Q 22.953125 6.109375 30.078125 6.109375 
Q 37.203125 6.109375 41.296875 11.75 
Q 45.40625 17.390625 45.40625 27.296875 
Q 45.40625 37.203125 41.296875 42.84375 
Q 37.203125 48.484375 30.078125 48.484375 
Q 22.953125 48.484375 18.875 42.84375 
Q 14.796875 37.203125 14.796875 27.296875 
z
" id="DejaVuSans-100"/>
     <path d="M 11.71875 12.40625 
L 22.015625 12.40625 
L 22.015625 0 
L 11.71875 0 
z
M 11.71875 51.703125 
L 22.015625 51.703125 
L 22.015625 39.3125 
L 11.71875 39.3125 
z
" id="DejaVuSans-58"/>
    </defs>
    <g transform="translate(335.681921 19.44)scale(0.12 -0.12)">
     <use xlink:href="#DejaVuSans-83"/>
     <use x="63.476562" xlink:href="#DejaVuSans-97"/>
     <use x="124.755859" xlink:href="#DejaVuSans-108"/>
     <use x="152.539062" xlink:href="#DejaVuSans-101"/>
     <use x="214.0625" xlink:href="#DejaVuSans-115"/>
     <use x="266.162109" xlink:href="#DejaVuSans-32"/>
     <use x="297.949219" xlink:href="#DejaVuSans-105"/>
     <use x="325.732422" xlink:href="#DejaVuSans-110"/>
     <use x="389.111328" xlink:href="#DejaVuSans-32"/>
     <use x="420.898438" xlink:href="#DejaVuSans-112"/>
     <use x="484.375" xlink:href="#DejaVuSans-101"/>
     <use x="545.898438" xlink:href="#DejaVuSans-114"/>
     <use x="587.011719" xlink:href="#DejaVuSans-105"/>
     <use x="614.794922" xlink:href="#DejaVuSans-111"/>
     <use x="675.976562" xlink:href="#DejaVuSans-100"/>
     <use x="739.453125" xlink:href="#DejaVuSans-58"/>
     <use x="773.144531" xlink:href="#DejaVuSans-32"/>
     <use x="804.931641" xlink:href="#DejaVuSans-50"/>
     <use x="868.554688" xlink:href="#DejaVuSans-48"/>
     <use x="932.177734" xlink:href="#DejaVuSans-49"/>
     <use x="995.800781" xlink:href="#DejaVuSans-52"/>
     <use x="1059.423828" xlink:href="#DejaVuSans-45"/>
     <use x="1095.507812" xlink:href="#DejaVuSans-49"/>
     <use x="1159.130859" xlink:href="#DejaVuSans-50"/>
     <use x="1222.753906" xlink:href="#DejaVuSans-45"/>
     <use x="1258.837891" xlink:href="#DejaVuSans-50"/>
     <use x="1322.460938" xlink:href="#DejaVuSans-56"/>
     <use x="1386.083984" xlink:href="#DejaVuSans-32"/>
     <use x="1417.871094" xlink:href="#DejaVuSans-45"/>
     <use x="1453.955078" xlink:href="#DejaVuSans-32"/>
     <use x="1485.742188" xlink:href="#DejaVuSans-50"/>
     <use x="1549.365234" xlink:href="#DejaVuSans-48"/>
     <use x="1612.988281" xlink:href="#DejaVuSans-49"/>
     <use x="1676.611328" xlink:href="#DejaVuSans-54"/>
     <use x="1740.234375" xlink:href="#DejaVuSans-45"/>
     <use x="1776.318359" xlink:href="#DejaVuSans-49"/>
     <use x="1839.941406" xlink:href="#DejaVuSans-50"/>
     <use x="1903.564453" xlink:href="#DejaVuSans-45"/>
     <use x="1939.648438" xlink:href="#DejaVuSans-50"/>
     <use x="2003.271484" xlink:href="#DejaVuSans-56"/>
    </g>
   </g>
   <g id="legend_1">
    <g id="patch_7">
     <path d="M 792.832813 77.474375 
L 846.2 77.474375 
Q 848.2 77.474375 848.2 75.474375 
L 848.2 32.44 
Q 848.2 30.44 846.2 30.44 
L 792.832813 30.44 
Q 790.832813 30.44 790.832813 32.44 
L 790.832813 75.474375 
Q 790.832813 77.474375 792.832813 77.474375 
z
" style="fill:#ffffff;opacity:0.8;stroke:#cccccc;stroke-linejoin:miter;"/>
    </g>
    <g id="text_33">
     <!-- Currency -->
     <defs>
      <path d="M 64.40625 67.28125 
L 64.40625 56.890625 
Q 59.421875 61.53125 53.78125 63.8125 
Q 48.140625 66.109375 41.796875 66.109375 
Q 29.296875 66.109375 22.65625 58.46875 
Q 16.015625 50.828125 16.015625 36.375 
Q 16.015625 21.96875 22.65625 14.328125 
Q 29.296875 6.6875 41.796875 6.6875 
Q 48.140625 6.6875 53.78125 8.984375 
Q 59.421875 11.28125 64.40625 15.921875 
L 64.40625 5.609375 
Q 59.234375 2.09375 53.4375 0.328125 
Q 47.65625 -1.421875 41.21875 -1.421875 
Q 24.65625 -1.421875 15.125 8.703125 
Q 5.609375 18.84375 5.609375 36.375 
Q 5.609375 53.953125 15.125 64.078125 
Q 24.65625 74.21875 41.21875 74.21875 
Q 47.75 74.21875 53.53125 72.484375 
Q 59.328125 70.75 64.40625 67.28125 
z
" id="DejaVuSans-67"/>
      <path d="M 8.5 21.578125 
L 8.5 54.6875 
L 17.484375 54.6875 
L 17.484375 21.921875 
Q 17.484375 14.15625 20.5 10.265625 
Q 23.53125 6.390625 29.59375 6.390625 
Q 36.859375 6.390625 41.078125 11.03125 
Q 45.3125 15.671875 45.3125 23.6875 
L 45.3125 54.6875 
L 54.296875 54.6875 
L 54.296875 0 
L 45.3125 0 
L 45.3125 8.40625 
Q 42.046875 3.421875 37.71875 1 
Q 33.40625 -1.421875 27.6875 -1.421875 
Q 18.265625 -1.421875 13.375 4.4375 
Q 8.5 10.296875 8.5 21.578125 
z
M 31.109375 56 
z
" id="DejaVuSans-117"/>
      <path d="M 48.78125 52.59375 
L 48.78125 44.1875 
Q 44.96875 46.296875 41.140625 47.34375 
Q 37.3125 48.390625 33.40625 48.390625 
Q 24.65625 48.390625 19.8125 42.84375 
Q 14.984375 37.3125 14.984375 27.296875 
Q 14.984375 17.28125 19.8125 11.734375 
Q 24.65625 6.203125 33.40625 6.203125 
Q 37.3125 6.203125 41.140625 7.25 
Q 44.96875 8.296875 48.78125 10.40625 
L 48.78125 2.09375 
Q 45.015625 0.34375 40.984375 -0.53125 
Q 36.96875 -1.421875 32.421875 -1.421875 
Q 20.0625 -1.421875 12.78125 6.34375 
Q 5.515625 14.109375 5.515625 27.296875 
Q 5.515625 40.671875 12.859375 48.328125 
Q 20.21875 56 33.015625 56 
Q 37.15625 56 41.109375 55.140625 
Q 45.0625 54.296875 48.78125 52.59375 
z
" id="DejaVuSans-99"/>
      <path d="M 32.171875 -5.078125 
Q 28.375 -14.84375 24.75 -17.8125 
Q 21.140625 -20.796875 15.09375 -20.796875 
L 7.90625 -20.796875 
L 7.90625 -13.28125 
L 13.1875 -13.28125 
Q 16.890625 -13.28125 18.9375 -11.515625 
Q 21 -9.765625 23.484375 -3.21875 
L 25.09375 0.875 
L 2.984375 54.6875 
L 12.5 54.6875 
L 29.59375 11.921875 
L 46.6875 54.6875 
L 56.203125 54.6875 
z
" id="DejaVuSans-121"/>
     </defs>
     <g transform="translate(796.991406 42.038438)scale(0.1 -0.1)">
      <use xlink:href="#DejaVuSans-67"/>
      <use x="69.824219" xlink:href="#DejaVuSans-117"/>
      <use x="133.203125" xlink:href="#DejaVuSans-114"/>
      <use x="172.566406" xlink:href="#DejaVuSans-114"/>
      <use x="211.429688" xlink:href="#DejaVuSans-101"/>
      <use x="272.953125" xlink:href="#DejaVuSans-110"/>
      <use x="336.332031" xlink:href="#DejaVuSans-99"/>
      <use x="391.3125" xlink:href="#DejaVuSans-121"/>
     </g>
    </g>
    <g id="line2d_32">
     <path d="M 794.832813 53.216563 
L 814.832813 53.216563 
" style="fill:none;stroke:#0000ff;stroke-linecap:square;stroke-width:1.5;"/>
    </g>
    <g id="line2d_33"/>
    <g id="text_34">
     <!-- USD -->
     <defs>
      <path d="M 8.6875 72.90625 
L 18.609375 72.90625 
L 18.609375 28.609375 
Q 18.609375 16.890625 22.84375 11.734375 
Q 27.09375 6.59375 36.625 6.59375 
Q 46.09375 6.59375 50.34375 11.734375 
Q 54.59375 16.890625 54.59375 28.609375 
L 54.59375 72.90625 
L 64.5 72.90625 
L 64.5 27.390625 
Q 64.5 13.140625 57.4375 5.859375 
Q 50.390625 -1.421875 36.625 -1.421875 
Q 22.796875 -1.421875 15.734375 5.859375 
Q 8.6875 13.140625 8.6875 27.390625 
z
" id="DejaVuSans-85"/>
     </defs>
     <g transform="translate(822.832813 56.716563)scale(0.1 -0.1)">
      <use xlink:href="#DejaVuSans-85"/>
      <use x="73.193359" xlink:href="#DejaVuSans-83"/>
      <use x="136.669922" xlink:href="#DejaVuSans-68"/>
     </g>
    </g>
    <g id="line2d_34">
     <path d="M 794.832813 67.894688 
L 814.832813 67.894688 
" style="fill:none;stroke:#008000;stroke-linecap:square;stroke-width:1.5;"/>
    </g>
    <g id="line2d_35"/>
    <g id="text_35">
     <!-- PLN -->
     <g transform="translate(822.832813 71.394688)scale(0.1 -0.1)">
      <use xlink:href="#DejaVuSans-80"/>
      <use x="60.302734" xlink:href="#DejaVuSans-76"/>
      <use x="116.015625" xlink:href="#DejaVuSans-78"/>
     </g>
    </g>
   </g>
  </g>
 </g>
 <defs>
  <clipPath id="p41751e1103">
   <rect height="192.880464" width="787.009283" x="66.190717" y="25.44"/>
  </clipPath>
 </defs>
</svg>
